solid OpenSCAD_Model
  facet normal -1 0 0
    outer loop
      vertex -40 1.5 -1.5
      vertex -40 16.3571 1.5
      vertex -40 16.3571 -1.5
    endloop
  endfacet
  facet normal -1 -0 0
    outer loop
      vertex -40 16.3571 1.5
      vertex -40 1.5 -1.5
      vertex -40 1.5 1.5
    endloop
  endfacet
  facet normal 0 0 1
    outer loop
      vertex -25.9779 11.0838 1.5
      vertex -34.0437 5.91582 1.5
      vertex -34 5.5 1.5
    endloop
  endfacet
  facet normal -0 0 1
    outer loop
      vertex -36.1176 20.5588 1.5
      vertex -32.3607 17.9886 1.5
      vertex -34.1056 20.6001 1.5
    endloop
  endfacet
  facet normal 0 0 1
    outer loop
      vertex -30.4162 15.5221 1.5
      vertex -34.1729 6.31347 1.5
      vertex -34.0437 5.91582 1.5
    endloop
  endfacet
  facet normal 0 0 1
    outer loop
      vertex -30.4162 15.5221 1.5
      vertex -34.382 6.67557 1.5
      vertex -34.1729 6.31347 1.5
    endloop
  endfacet
  facet normal 0 0 1
    outer loop
      vertex -30.4162 15.5221 1.5
      vertex -36.1176 13.5588 1.5
      vertex -34.6617 6.98629 1.5
    endloop
  endfacet
  facet normal 0 0 1
    outer loop
      vertex -30.4162 15.5221 1.5
      vertex -34.6617 6.98629 1.5
      vertex -34.382 6.67557 1.5
    endloop
  endfacet
  facet normal 0 0 1
    outer loop
      vertex -34.6617 6.98629 1.5
      vertex -36.1176 13.5588 1.5
      vertex -35 7.23205 1.5
    endloop
  endfacet
  facet normal 0 0 1
    outer loop
      vertex -36.1176 20.5588 1.5
      vertex -34.1056 20.6001 1.5
      vertex -35.6403 23.3404 1.5
    endloop
  endfacet
  facet normal 0 0 1
    outer loop
      vertex -35 7.23205 1.5
      vertex -36.1176 13.5588 1.5
      vertex -35.382 7.40211 1.5
    endloop
  endfacet
  facet normal 0 0 1
    outer loop
      vertex -32.3607 17.9886 1.5
      vertex -36.1176 20.5588 1.5
      vertex -36.1176 13.5588 1.5
    endloop
  endfacet
  facet normal 0 -0 1
    outer loop
      vertex -36.1176 20.5588 1.5
      vertex -35.6403 23.3404 1.5
      vertex -36.6764 25.588 1.5
    endloop
  endfacet
  facet normal 0 0 1
    outer loop
      vertex -35.382 7.40211 1.5
      vertex -36.1176 13.5588 1.5
      vertex -35.7909 7.48904 1.5
    endloop
  endfacet
  facet normal 0 0 1
    outer loop
      vertex -36.1176 13.5588 1.5
      vertex -36.2091 7.48904 1.5
      vertex -35.7909 7.48904 1.5
    endloop
  endfacet
  facet normal -0 0 1
    outer loop
      vertex -37.8235 13.5588 1.5
      vertex -36.2091 7.48904 1.5
      vertex -36.1176 13.5588 1.5
    endloop
  endfacet
  facet normal 0 0 1
    outer loop
      vertex -36.2091 7.48904 1.5
      vertex -37.8235 13.5588 1.5
      vertex -36.618 7.40211 1.5
    endloop
  endfacet
  facet normal 0 0 1
    outer loop
      vertex -36.618 7.40211 1.5
      vertex -37.8235 13.5588 1.5
      vertex -37 7.23205 1.5
    endloop
  endfacet
  facet normal 0 0 1
    outer loop
      vertex -37 7.23205 1.5
      vertex -37.8235 13.5588 1.5
      vertex -37.3383 6.98629 1.5
    endloop
  endfacet
  facet normal 0 0 1
    outer loop
      vertex -37.3383 6.98629 1.5
      vertex -37.8235 13.5588 1.5
      vertex -37.618 6.67557 1.5
    endloop
  endfacet
  facet normal 0 0 1
    outer loop
      vertex -37.8235 13.5588 1.5
      vertex -37.8271 6.31347 1.5
      vertex -37.618 6.67557 1.5
    endloop
  endfacet
  facet normal 0 0 1
    outer loop
      vertex -40 16.3571 1.5
      vertex -37.8271 6.31347 1.5
      vertex -37.8235 13.5588 1.5
    endloop
  endfacet
  facet normal 0 0 1
    outer loop
      vertex -37.8271 6.31347 1.5
      vertex -40 16.3571 1.5
      vertex -37.9563 5.91582 1.5
    endloop
  endfacet
  facet normal 0 0 1
    outer loop
      vertex -40 1.5 1.5
      vertex -37.9563 5.91582 1.5
      vertex -40 16.3571 1.5
    endloop
  endfacet
  facet normal -0 0 1
    outer loop
      vertex 34.1056 20.6001 1.5
      vertex 37 17.9286 1.5
      vertex 37 23 1.5
    endloop
  endfacet
  facet normal -0 0 1
    outer loop
      vertex 32.3607 17.9886 1.5
      vertex 37 17.9286 1.5
      vertex 34.1056 20.6001 1.5
    endloop
  endfacet
  facet normal 0 0 1
    outer loop
      vertex 37 17.9286 1.5
      vertex 36.618 7.40211 1.5
      vertex 37 7.23205 1.5
    endloop
  endfacet
  facet normal 0 0 1
    outer loop
      vertex 30.4162 15.5221 1.5
      vertex 37 17.9286 1.5
      vertex 32.3607 17.9886 1.5
    endloop
  endfacet
  facet normal 0 0 1
    outer loop
      vertex 34.1056 20.6001 1.5
      vertex 37 23 1.5
      vertex 35.4496 23 1.5
    endloop
  endfacet
  facet normal 0 0 1
    outer loop
      vertex 37 17.9286 1.5
      vertex 36.2091 7.48904 1.5
      vertex 36.618 7.40211 1.5
    endloop
  endfacet
  facet normal 0 0 1
    outer loop
      vertex 37 17.9286 1.5
      vertex 35.7909 7.48904 1.5
      vertex 36.2091 7.48904 1.5
    endloop
  endfacet
  facet normal 0 0 1
    outer loop
      vertex 37 17.9286 1.5
      vertex 30.4162 15.5221 1.5
      vertex 35.7909 7.48904 1.5
    endloop
  endfacet
  facet normal 0 0 1
    outer loop
      vertex 35.7909 7.48904 1.5
      vertex 30.4162 15.5221 1.5
      vertex 35.382 7.40211 1.5
    endloop
  endfacet
  facet normal 0 0 1
    outer loop
      vertex 35.382 7.40211 1.5
      vertex 30.4162 15.5221 1.5
      vertex 35 7.23205 1.5
    endloop
  endfacet
  facet normal -0 0 1
    outer loop
      vertex 28.2843 13.2157 1.5
      vertex 35 7.23205 1.5
      vertex 30.4162 15.5221 1.5
    endloop
  endfacet
  facet normal 0 0 1
    outer loop
      vertex 35 7.23205 1.5
      vertex 28.2843 13.2157 1.5
      vertex 34.6617 6.98629 1.5
    endloop
  endfacet
  facet normal 0 0 1
    outer loop
      vertex 34.6617 6.98629 1.5
      vertex 28.2843 13.2157 1.5
      vertex 34.382 6.67557 1.5
    endloop
  endfacet
  facet normal 0 0 1
    outer loop
      vertex 34.382 6.67557 1.5
      vertex 28.2843 13.2157 1.5
      vertex 34.1729 6.31347 1.5
    endloop
  endfacet
  facet normal 0 0 1
    outer loop
      vertex 40 1.5 1.5
      vertex 37.9563 5.91582 1.5
      vertex 38 5.5 1.5
    endloop
  endfacet
  facet normal 0 0 1
    outer loop
      vertex 40 18.1667 1.5
      vertex 37.8271 6.31347 1.5
      vertex 37.9563 5.91582 1.5
    endloop
  endfacet
  facet normal 0 0 1
    outer loop
      vertex 39.7143 17.9286 1.5
      vertex 37.618 6.67557 1.5
      vertex 37.8271 6.31347 1.5
    endloop
  endfacet
  facet normal 0 0 1
    outer loop
      vertex 39.7143 17.9286 1.5
      vertex 37.3383 6.98629 1.5
      vertex 37.618 6.67557 1.5
    endloop
  endfacet
  facet normal 0 0 1
    outer loop
      vertex 37 7.23205 1.5
      vertex 39.7143 17.9286 1.5
      vertex 37 17.9286 1.5
    endloop
  endfacet
  facet normal 0 0 1
    outer loop
      vertex 39.7143 17.9286 1.5
      vertex 37 7.23205 1.5
      vertex 37.3383 6.98629 1.5
    endloop
  endfacet
  facet normal 0 0 1
    outer loop
      vertex 37.8271 6.31347 1.5
      vertex 40 18.1667 1.5
      vertex 39.7143 17.9286 1.5
    endloop
  endfacet
  facet normal -0 0 1
    outer loop
      vertex 37.9563 5.91582 1.5
      vertex 40 1.5 1.5
      vertex 40 18.1667 1.5
    endloop
  endfacet
  facet normal -0 0 1
    outer loop
      vertex 37.9563 5.08418 1.5
      vertex 40 1.5 1.5
      vertex 38 5.5 1.5
    endloop
  endfacet
  facet normal -0 0 1
    outer loop
      vertex 37.8271 4.68653 1.5
      vertex 40 1.5 1.5
      vertex 37.9563 5.08418 1.5
    endloop
  endfacet
  facet normal -0 0 1
    outer loop
      vertex 37.618 4.32443 1.5
      vertex 40 1.5 1.5
      vertex 37.8271 4.68653 1.5
    endloop
  endfacet
  facet normal -0 0 1
    outer loop
      vertex 37.3383 4.01371 1.5
      vertex 40 1.5 1.5
      vertex 37.618 4.32443 1.5
    endloop
  endfacet
  facet normal -0 0 1
    outer loop
      vertex 37 3.76795 1.5
      vertex 40 1.5 1.5
      vertex 37.3383 4.01371 1.5
    endloop
  endfacet
  facet normal -0 0 1
    outer loop
      vertex 36.618 3.59789 1.5
      vertex 40 1.5 1.5
      vertex 37 3.76795 1.5
    endloop
  endfacet
  facet normal -0 0 1
    outer loop
      vertex 36.2091 3.51096 1.5
      vertex 40 1.5 1.5
      vertex 36.618 3.59789 1.5
    endloop
  endfacet
  facet normal -0 0 1
    outer loop
      vertex 35.7909 3.51096 1.5
      vertex 40 1.5 1.5
      vertex 36.2091 3.51096 1.5
    endloop
  endfacet
  facet normal 0 0 1
    outer loop
      vertex 35.382 3.59789 1.5
      vertex 40 1.5 1.5
      vertex 35.7909 3.51096 1.5
    endloop
  endfacet
  facet normal 0 0 1
    outer loop
      vertex 10.9718 1.5 1.5
      vertex 35.382 3.59789 1.5
      vertex 35 3.76795 1.5
    endloop
  endfacet
  facet normal -0 0 1
    outer loop
      vertex 25.9779 11.0838 1.5
      vertex 34.1729 6.31347 1.5
      vertex 28.2843 13.2157 1.5
    endloop
  endfacet
  facet normal 0 0 1
    outer loop
      vertex 34.1729 6.31347 1.5
      vertex 25.9779 11.0838 1.5
      vertex 34.0437 5.91582 1.5
    endloop
  endfacet
  facet normal 0 0 1
    outer loop
      vertex 34.0437 5.91582 1.5
      vertex 25.9779 11.0838 1.5
      vertex 34 5.5 1.5
    endloop
  endfacet
  facet normal -0 0 1
    outer loop
      vertex 23.5114 9.13932 1.5
      vertex 34 5.5 1.5
      vertex 25.9779 11.0838 1.5
    endloop
  endfacet
  facet normal 0 0 1
    outer loop
      vertex 34 5.5 1.5
      vertex 23.5114 9.13932 1.5
      vertex 34.0437 5.08418 1.5
    endloop
  endfacet
  facet normal 0 0 1
    outer loop
      vertex 34.0437 5.08418 1.5
      vertex 23.5114 9.13932 1.5
      vertex 34.1729 4.68653 1.5
    endloop
  endfacet
  facet normal -0 0 1
    outer loop
      vertex 20.8999 7.39439 1.5
      vertex 34.1729 4.68653 1.5
      vertex 23.5114 9.13932 1.5
    endloop
  endfacet
  facet normal 0 0 1
    outer loop
      vertex 34.1729 4.68653 1.5
      vertex 20.8999 7.39439 1.5
      vertex 34.382 4.32443 1.5
    endloop
  endfacet
  facet normal 0 0 1
    outer loop
      vertex 34.382 4.32443 1.5
      vertex 20.8999 7.39439 1.5
      vertex 34.6617 4.01371 1.5
    endloop
  endfacet
  facet normal -0 0 1
    outer loop
      vertex 18.1596 5.85974 1.5
      vertex 34.6617 4.01371 1.5
      vertex 20.8999 7.39439 1.5
    endloop
  endfacet
  facet normal 0 0 1
    outer loop
      vertex 34.6617 4.01371 1.5
      vertex 18.1596 5.85974 1.5
      vertex 35 3.76795 1.5
    endloop
  endfacet
  facet normal -0 0 1
    outer loop
      vertex 15.3073 4.54482 1.5
      vertex 35 3.76795 1.5
      vertex 18.1596 5.85974 1.5
    endloop
  endfacet
  facet normal 0 0 1
    outer loop
      vertex 10.9718 1.5 1.5
      vertex 35 3.76795 1.5
      vertex 15.3073 4.54482 1.5
    endloop
  endfacet
  facet normal 0 0 1
    outer loop
      vertex 10.9718 1.5 1.5
      vertex 15.3073 4.54482 1.5
      vertex 12.3607 3.45774 1.5
    endloop
  endfacet
  facet normal 0 0 1
    outer loop
      vertex 35.382 3.59789 1.5
      vertex 10.9718 1.5 1.5
      vertex 40 1.5 1.5
    endloop
  endfacet
  facet normal -0 0 1
    outer loop
      vertex 9.33781 2.6052 1.5
      vertex 10.9718 1.5 1.5
      vertex 12.3607 3.45774 1.5
    endloop
  endfacet
  facet normal 0 0 1
    outer loop
      vertex 10.9718 1.5 1.5
      vertex 9.33781 2.6052 1.5
      vertex 10.0398 1.23273 1.5
    endloop
  endfacet
  facet normal 0 0 1
    outer loop
      vertex 9.33781 2.6052 1.5
      vertex 7.2064 0.630479 1.5
      vertex 10.0398 1.23273 1.5
    endloop
  endfacet
  facet normal -0 0 1
    outer loop
      vertex 6.25738 1.99247 1.5
      vertex 7.2064 0.630479 1.5
      vertex 9.33781 2.6052 1.5
    endloop
  endfacet
  facet normal 0 0 1
    outer loop
      vertex 6.25738 1.99247 1.5
      vertex 4.33793 0.227342 1.5
      vertex 7.2064 0.630479 1.5
    endloop
  endfacet
  facet normal -0 0 1
    outer loop
      vertex 3.13836 1.62331 1.5
      vertex 4.33793 0.227342 1.5
      vertex 6.25738 1.99247 1.5
    endloop
  endfacet
  facet normal 0 0 1
    outer loop
      vertex 3.13836 1.62331 1.5
      vertex 1.44833 0.025281 1.5
      vertex 4.33793 0.227342 1.5
    endloop
  endfacet
  facet normal -0 0 1
    outer loop
      vertex 0 1.5 1.5
      vertex 1.44833 0.025281 1.5
      vertex 3.13836 1.62331 1.5
    endloop
  endfacet
  facet normal 0 0 1
    outer loop
      vertex 0 1.5 1.5
      vertex -1.44833 0.025281 1.5
      vertex 1.44833 0.025281 1.5
    endloop
  endfacet
  facet normal 0 0 1
    outer loop
      vertex -3.13836 1.62331 1.5
      vertex -1.44833 0.025281 1.5
      vertex 0 1.5 1.5
    endloop
  endfacet
  facet normal 0 0 1
    outer loop
      vertex -3.13836 1.62331 1.5
      vertex -4.33793 0.227342 1.5
      vertex -1.44833 0.025281 1.5
    endloop
  endfacet
  facet normal 0 0 1
    outer loop
      vertex -6.25738 1.99247 1.5
      vertex -4.33793 0.227342 1.5
      vertex -3.13836 1.62331 1.5
    endloop
  endfacet
  facet normal 0 0 1
    outer loop
      vertex -6.25738 1.99247 1.5
      vertex -7.2064 0.630479 1.5
      vertex -4.33793 0.227342 1.5
    endloop
  endfacet
  facet normal 0 0 1
    outer loop
      vertex -9.33781 2.6052 1.5
      vertex -7.2064 0.630479 1.5
      vertex -6.25738 1.99247 1.5
    endloop
  endfacet
  facet normal 0 0 1
    outer loop
      vertex -9.33781 2.6052 1.5
      vertex -10.0398 1.23273 1.5
      vertex -7.2064 0.630479 1.5
    endloop
  endfacet
  facet normal 0 0 1
    outer loop
      vertex -9.33781 2.6052 1.5
      vertex -10.9718 1.5 1.5
      vertex -10.0398 1.23273 1.5
    endloop
  endfacet
  facet normal 0 0 1
    outer loop
      vertex -12.3607 3.45774 1.5
      vertex -10.9718 1.5 1.5
      vertex -9.33781 2.6052 1.5
    endloop
  endfacet
  facet normal 0 0 1
    outer loop
      vertex -15.3073 4.54482 1.5
      vertex -10.9718 1.5 1.5
      vertex -12.3607 3.45774 1.5
    endloop
  endfacet
  facet normal 0 0 1
    outer loop
      vertex -35 3.76795 1.5
      vertex -15.3073 4.54482 1.5
      vertex -18.1596 5.85974 1.5
    endloop
  endfacet
  facet normal 0 0 1
    outer loop
      vertex -34.6617 4.01371 1.5
      vertex -18.1596 5.85974 1.5
      vertex -20.8999 7.39439 1.5
    endloop
  endfacet
  facet normal 0 0 1
    outer loop
      vertex -36.1176 13.5588 1.5
      vertex -30.4162 15.5221 1.5
      vertex -32.3607 17.9886 1.5
    endloop
  endfacet
  facet normal 0 0 1
    outer loop
      vertex -34.0437 5.91582 1.5
      vertex -28.2843 13.2157 1.5
      vertex -30.4162 15.5221 1.5
    endloop
  endfacet
  facet normal 0 0 1
    outer loop
      vertex -34.0437 5.91582 1.5
      vertex -25.9779 11.0838 1.5
      vertex -28.2843 13.2157 1.5
    endloop
  endfacet
  facet normal 0 0 1
    outer loop
      vertex -34 5.5 1.5
      vertex -23.5114 9.13932 1.5
      vertex -25.9779 11.0838 1.5
    endloop
  endfacet
  facet normal 0 0 1
    outer loop
      vertex -34.0437 5.08418 1.5
      vertex -23.5114 9.13932 1.5
      vertex -34 5.5 1.5
    endloop
  endfacet
  facet normal 0 0 1
    outer loop
      vertex -34.1729 4.68653 1.5
      vertex -23.5114 9.13932 1.5
      vertex -34.0437 5.08418 1.5
    endloop
  endfacet
  facet normal 0 0 1
    outer loop
      vertex -23.5114 9.13932 1.5
      vertex -34.1729 4.68653 1.5
      vertex -20.8999 7.39439 1.5
    endloop
  endfacet
  facet normal 0 0 1
    outer loop
      vertex -34.382 4.32443 1.5
      vertex -20.8999 7.39439 1.5
      vertex -34.1729 4.68653 1.5
    endloop
  endfacet
  facet normal 0 0 1
    outer loop
      vertex -34.6617 4.01371 1.5
      vertex -20.8999 7.39439 1.5
      vertex -34.382 4.32443 1.5
    endloop
  endfacet
  facet normal 0 0 1
    outer loop
      vertex -35 3.76795 1.5
      vertex -18.1596 5.85974 1.5
      vertex -34.6617 4.01371 1.5
    endloop
  endfacet
  facet normal 0 0 1
    outer loop
      vertex -15.3073 4.54482 1.5
      vertex -35 3.76795 1.5
      vertex -10.9718 1.5 1.5
    endloop
  endfacet
  facet normal -0 0 1
    outer loop
      vertex -35.382 3.59789 1.5
      vertex -10.9718 1.5 1.5
      vertex -35 3.76795 1.5
    endloop
  endfacet
  facet normal 0 0 1
    outer loop
      vertex -40 1.5 1.5
      vertex -35.382 3.59789 1.5
      vertex -35.7909 3.51096 1.5
    endloop
  endfacet
  facet normal 0 0 1
    outer loop
      vertex -40 1.5 1.5
      vertex -35.7909 3.51096 1.5
      vertex -36.2091 3.51096 1.5
    endloop
  endfacet
  facet normal 0 0 1
    outer loop
      vertex -37.9563 5.91582 1.5
      vertex -40 1.5 1.5
      vertex -38 5.5 1.5
    endloop
  endfacet
  facet normal 0 0 1
    outer loop
      vertex -35.382 3.59789 1.5
      vertex -40 1.5 1.5
      vertex -10.9718 1.5 1.5
    endloop
  endfacet
  facet normal 0 0 1
    outer loop
      vertex -36.618 3.59789 1.5
      vertex -40 1.5 1.5
      vertex -36.2091 3.51096 1.5
    endloop
  endfacet
  facet normal 0 0 1
    outer loop
      vertex -37 3.76795 1.5
      vertex -40 1.5 1.5
      vertex -36.618 3.59789 1.5
    endloop
  endfacet
  facet normal 0 0 1
    outer loop
      vertex -37.3383 4.01371 1.5
      vertex -40 1.5 1.5
      vertex -37 3.76795 1.5
    endloop
  endfacet
  facet normal 0 0 1
    outer loop
      vertex -37.618 4.32443 1.5
      vertex -40 1.5 1.5
      vertex -37.3383 4.01371 1.5
    endloop
  endfacet
  facet normal 0 0 1
    outer loop
      vertex -37.8271 4.68653 1.5
      vertex -40 1.5 1.5
      vertex -37.618 4.32443 1.5
    endloop
  endfacet
  facet normal 0 0 1
    outer loop
      vertex -37.9563 5.08418 1.5
      vertex -40 1.5 1.5
      vertex -37.8271 4.68653 1.5
    endloop
  endfacet
  facet normal 0 0 1
    outer loop
      vertex -38 5.5 1.5
      vertex -40 1.5 1.5
      vertex -37.9563 5.08418 1.5
    endloop
  endfacet
  facet normal -0 0 1
    outer loop
      vertex 36.9552 26.1927 1.5
      vertex 37 24.8 1.5
      vertex 37 26.3141 1.5
    endloop
  endfacet
  facet normal 0 0 1
    outer loop
      vertex 37 24.8 1.5
      vertex 36.9552 26.1927 1.5
      vertex 36.3132 24.8 1.5
    endloop
  endfacet
  facet normal 1 -0 0
    outer loop
      vertex 40 1.5 1.5
      vertex 40 18.1667 -1.5
      vertex 40 18.1667 1.5
    endloop
  endfacet
  facet normal 1 0 0
    outer loop
      vertex 40 18.1667 -1.5
      vertex 40 1.5 1.5
      vertex 40 1.5 -1.5
    endloop
  endfacet
  facet normal 0 0 -1
    outer loop
      vertex 37.9563 5.91582 -1.5
      vertex 40 1.5 -1.5
      vertex 38 5.5 -1.5
    endloop
  endfacet
  facet normal 0 0 -1
    outer loop
      vertex 40 1.5 -1.5
      vertex 37.9563 5.08418 -1.5
      vertex 38 5.5 -1.5
    endloop
  endfacet
  facet normal 0 0 -1
    outer loop
      vertex 40 1.5 -1.5
      vertex 37.8271 4.68653 -1.5
      vertex 37.9563 5.08418 -1.5
    endloop
  endfacet
  facet normal 0 0 -1
    outer loop
      vertex 40 1.5 -1.5
      vertex 37.618 4.32443 -1.5
      vertex 37.8271 4.68653 -1.5
    endloop
  endfacet
  facet normal 0 0 -1
    outer loop
      vertex 40 1.5 -1.5
      vertex 37.3383 4.01371 -1.5
      vertex 37.618 4.32443 -1.5
    endloop
  endfacet
  facet normal 0 0 -1
    outer loop
      vertex 40 1.5 -1.5
      vertex 37 3.76795 -1.5
      vertex 37.3383 4.01371 -1.5
    endloop
  endfacet
  facet normal 0 0 -1
    outer loop
      vertex 40 1.5 -1.5
      vertex 36.618 3.59789 -1.5
      vertex 37 3.76795 -1.5
    endloop
  endfacet
  facet normal 0 0 -1
    outer loop
      vertex 40 1.5 -1.5
      vertex 36.2091 3.51096 -1.5
      vertex 36.618 3.59789 -1.5
    endloop
  endfacet
  facet normal 0 0 -1
    outer loop
      vertex 40 1.5 -1.5
      vertex 35.7909 3.51096 -1.5
      vertex 36.2091 3.51096 -1.5
    endloop
  endfacet
  facet normal 0 0 -1
    outer loop
      vertex 40 1.5 -1.5
      vertex 35.382 3.59789 -1.5
      vertex 35.7909 3.51096 -1.5
    endloop
  endfacet
  facet normal 0 0 -1
    outer loop
      vertex 10.9718 1.5 -1.5
      vertex 35.382 3.59789 -1.5
      vertex 40 1.5 -1.5
    endloop
  endfacet
  facet normal 0 0 -1
    outer loop
      vertex 23.5114 9.13932 -1.5
      vertex 34 5.5 -1.5
      vertex 34.0437 5.08418 -1.5
    endloop
  endfacet
  facet normal 0 0 -1
    outer loop
      vertex 34 5.5 -1.5
      vertex 30.4162 15.5221 -1.5
      vertex 32.3607 17.9886 -1.5
    endloop
  endfacet
  facet normal 0 0 -1
    outer loop
      vertex 23.5114 9.13932 -1.5
      vertex 34.0437 5.08418 -1.5
      vertex 34.1729 4.68653 -1.5
    endloop
  endfacet
  facet normal 0 0 -1
    outer loop
      vertex 34 5.5 -1.5
      vertex 28.2843 13.2157 -1.5
      vertex 30.4162 15.5221 -1.5
    endloop
  endfacet
  facet normal 0 0 -1
    outer loop
      vertex 20.8999 7.39439 -1.5
      vertex 34.1729 4.68653 -1.5
      vertex 34.382 4.32443 -1.5
    endloop
  endfacet
  facet normal 0 0 -1
    outer loop
      vertex 34 5.5 -1.5
      vertex 25.9779 11.0838 -1.5
      vertex 28.2843 13.2157 -1.5
    endloop
  endfacet
  facet normal 0 0 -1
    outer loop
      vertex 20.8999 7.39439 -1.5
      vertex 34.382 4.32443 -1.5
      vertex 34.6617 4.01371 -1.5
    endloop
  endfacet
  facet normal 0 0 -1
    outer loop
      vertex 34 5.5 -1.5
      vertex 23.5114 9.13932 -1.5
      vertex 25.9779 11.0838 -1.5
    endloop
  endfacet
  facet normal 0 0 -1
    outer loop
      vertex 18.1596 5.85974 -1.5
      vertex 34.6617 4.01371 -1.5
      vertex 35 3.76795 -1.5
    endloop
  endfacet
  facet normal 0 0 -1
    outer loop
      vertex 34.1729 4.68653 -1.5
      vertex 20.8999 7.39439 -1.5
      vertex 23.5114 9.13932 -1.5
    endloop
  endfacet
  facet normal -0 0 -1
    outer loop
      vertex 35.382 3.59789 -1.5
      vertex 10.9718 1.5 -1.5
      vertex 35 3.76795 -1.5
    endloop
  endfacet
  facet normal 0 0 -1
    outer loop
      vertex 34.6617 4.01371 -1.5
      vertex 18.1596 5.85974 -1.5
      vertex 20.8999 7.39439 -1.5
    endloop
  endfacet
  facet normal 0 0 -1
    outer loop
      vertex 35 3.76795 -1.5
      vertex 15.3073 4.54482 -1.5
      vertex 18.1596 5.85974 -1.5
    endloop
  endfacet
  facet normal -0 0 -1
    outer loop
      vertex 35 3.76795 -1.5
      vertex 10.9718 1.5 -1.5
      vertex 15.3073 4.54482 -1.5
    endloop
  endfacet
  facet normal 0 0 -1
    outer loop
      vertex 15.3073 4.54482 -1.5
      vertex 10.9718 1.5 -1.5
      vertex 12.3607 3.45774 -1.5
    endloop
  endfacet
  facet normal 0 0 -1
    outer loop
      vertex 9.33781 2.6052 -1.5
      vertex 10.9718 1.5 -1.5
      vertex 10.0398 1.23273 -1.5
    endloop
  endfacet
  facet normal 0 0 -1
    outer loop
      vertex 10.9718 1.5 -1.5
      vertex 9.33781 2.6052 -1.5
      vertex 12.3607 3.45774 -1.5
    endloop
  endfacet
  facet normal 0 0 -1
    outer loop
      vertex 7.2064 0.630479 -1.5
      vertex 9.33781 2.6052 -1.5
      vertex 10.0398 1.23273 -1.5
    endloop
  endfacet
  facet normal 0 0 -1
    outer loop
      vertex 7.2064 0.630479 -1.5
      vertex 6.25738 1.99247 -1.5
      vertex 9.33781 2.6052 -1.5
    endloop
  endfacet
  facet normal 0 0 -1
    outer loop
      vertex 4.33793 0.227342 -1.5
      vertex 6.25738 1.99247 -1.5
      vertex 7.2064 0.630479 -1.5
    endloop
  endfacet
  facet normal 0 0 -1
    outer loop
      vertex 4.33793 0.227342 -1.5
      vertex 3.13836 1.62331 -1.5
      vertex 6.25738 1.99247 -1.5
    endloop
  endfacet
  facet normal 0 0 -1
    outer loop
      vertex 1.44833 0.025281 -1.5
      vertex 3.13836 1.62331 -1.5
      vertex 4.33793 0.227342 -1.5
    endloop
  endfacet
  facet normal 0 0 -1
    outer loop
      vertex 1.44833 0.025281 -1.5
      vertex 0 1.5 -1.5
      vertex 3.13836 1.62331 -1.5
    endloop
  endfacet
  facet normal 0 0 -1
    outer loop
      vertex -1.44833 0.025281 -1.5
      vertex 0 1.5 -1.5
      vertex 1.44833 0.025281 -1.5
    endloop
  endfacet
  facet normal 0 0 -1
    outer loop
      vertex -1.44833 0.025281 -1.5
      vertex -3.13836 1.62331 -1.5
      vertex 0 1.5 -1.5
    endloop
  endfacet
  facet normal 0 0 -1
    outer loop
      vertex -4.33793 0.227342 -1.5
      vertex -3.13836 1.62331 -1.5
      vertex -1.44833 0.025281 -1.5
    endloop
  endfacet
  facet normal 0 0 -1
    outer loop
      vertex -4.33793 0.227342 -1.5
      vertex -6.25738 1.99247 -1.5
      vertex -3.13836 1.62331 -1.5
    endloop
  endfacet
  facet normal 0 0 -1
    outer loop
      vertex -7.2064 0.630479 -1.5
      vertex -6.25738 1.99247 -1.5
      vertex -4.33793 0.227342 -1.5
    endloop
  endfacet
  facet normal 0 0 -1
    outer loop
      vertex -7.2064 0.630479 -1.5
      vertex -9.33781 2.6052 -1.5
      vertex -6.25738 1.99247 -1.5
    endloop
  endfacet
  facet normal 0 0 -1
    outer loop
      vertex -10.0398 1.23273 -1.5
      vertex -9.33781 2.6052 -1.5
      vertex -7.2064 0.630479 -1.5
    endloop
  endfacet
  facet normal 0 0 -1
    outer loop
      vertex -10.9718 1.5 -1.5
      vertex -9.33781 2.6052 -1.5
      vertex -10.0398 1.23273 -1.5
    endloop
  endfacet
  facet normal 0 0 -1
    outer loop
      vertex -10.9718 1.5 -1.5
      vertex -12.3607 3.45774 -1.5
      vertex -9.33781 2.6052 -1.5
    endloop
  endfacet
  facet normal 0 0 -1
    outer loop
      vertex -10.9718 1.5 -1.5
      vertex -15.3073 4.54482 -1.5
      vertex -12.3607 3.45774 -1.5
    endloop
  endfacet
  facet normal 0 0 -1
    outer loop
      vertex -35 3.76795 -1.5
      vertex -15.3073 4.54482 -1.5
      vertex -10.9718 1.5 -1.5
    endloop
  endfacet
  facet normal -0 0 -1
    outer loop
      vertex -15.3073 4.54482 -1.5
      vertex -35 3.76795 -1.5
      vertex -18.1596 5.85974 -1.5
    endloop
  endfacet
  facet normal -0 0 -1
    outer loop
      vertex -25.9779 11.0838 -1.5
      vertex -34.1729 6.31347 -1.5
      vertex -28.2843 13.2157 -1.5
    endloop
  endfacet
  facet normal 0 0 -1
    outer loop
      vertex -34.1729 6.31347 -1.5
      vertex -25.9779 11.0838 -1.5
      vertex -34.0437 5.91582 -1.5
    endloop
  endfacet
  facet normal 0 0 -1
    outer loop
      vertex -34.0437 5.91582 -1.5
      vertex -25.9779 11.0838 -1.5
      vertex -34 5.5 -1.5
    endloop
  endfacet
  facet normal -0 0 -1
    outer loop
      vertex -23.5114 9.13932 -1.5
      vertex -34 5.5 -1.5
      vertex -25.9779 11.0838 -1.5
    endloop
  endfacet
  facet normal 0 0 -1
    outer loop
      vertex -34.1729 4.68653 -1.5
      vertex -23.5114 9.13932 -1.5
      vertex -20.8999 7.39439 -1.5
    endloop
  endfacet
  facet normal -0 0 -1
    outer loop
      vertex -18.1596 5.85974 -1.5
      vertex -34.6617 4.01371 -1.5
      vertex -20.8999 7.39439 -1.5
    endloop
  endfacet
  facet normal 0 0 -1
    outer loop
      vertex -23.5114 9.13932 -1.5
      vertex -34.0437 5.08418 -1.5
      vertex -34 5.5 -1.5
    endloop
  endfacet
  facet normal 0 0 -1
    outer loop
      vertex -23.5114 9.13932 -1.5
      vertex -34.1729 4.68653 -1.5
      vertex -34.0437 5.08418 -1.5
    endloop
  endfacet
  facet normal 0 0 -1
    outer loop
      vertex -20.8999 7.39439 -1.5
      vertex -34.382 4.32443 -1.5
      vertex -34.1729 4.68653 -1.5
    endloop
  endfacet
  facet normal 0 0 -1
    outer loop
      vertex -20.8999 7.39439 -1.5
      vertex -34.6617 4.01371 -1.5
      vertex -34.382 4.32443 -1.5
    endloop
  endfacet
  facet normal 0 0 -1
    outer loop
      vertex -18.1596 5.85974 -1.5
      vertex -35 3.76795 -1.5
      vertex -34.6617 4.01371 -1.5
    endloop
  endfacet
  facet normal 0 0 -1
    outer loop
      vertex -10.9718 1.5 -1.5
      vertex -35.382 3.59789 -1.5
      vertex -35 3.76795 -1.5
    endloop
  endfacet
  facet normal 0 0 -1
    outer loop
      vertex -40 1.5 -1.5
      vertex -35.382 3.59789 -1.5
      vertex -10.9718 1.5 -1.5
    endloop
  endfacet
  facet normal 0 0 -1
    outer loop
      vertex -35.382 3.59789 -1.5
      vertex -40 1.5 -1.5
      vertex -35.7909 3.51096 -1.5
    endloop
  endfacet
  facet normal -0 0 -1
    outer loop
      vertex -37.9563 5.08418 -1.5
      vertex -40 1.5 -1.5
      vertex -38 5.5 -1.5
    endloop
  endfacet
  facet normal -0 0 -1
    outer loop
      vertex -37.8271 4.68653 -1.5
      vertex -40 1.5 -1.5
      vertex -37.9563 5.08418 -1.5
    endloop
  endfacet
  facet normal -0 0 -1
    outer loop
      vertex -37.618 4.32443 -1.5
      vertex -40 1.5 -1.5
      vertex -37.8271 4.68653 -1.5
    endloop
  endfacet
  facet normal -0 0 -1
    outer loop
      vertex -37.3383 4.01371 -1.5
      vertex -40 1.5 -1.5
      vertex -37.618 4.32443 -1.5
    endloop
  endfacet
  facet normal -0 0 -1
    outer loop
      vertex -37 3.76795 -1.5
      vertex -40 1.5 -1.5
      vertex -37.3383 4.01371 -1.5
    endloop
  endfacet
  facet normal -0 0 -1
    outer loop
      vertex -36.618 3.59789 -1.5
      vertex -40 1.5 -1.5
      vertex -37 3.76795 -1.5
    endloop
  endfacet
  facet normal -0 0 -1
    outer loop
      vertex -36.2091 3.51096 -1.5
      vertex -40 1.5 -1.5
      vertex -36.618 3.59789 -1.5
    endloop
  endfacet
  facet normal -0 0 -1
    outer loop
      vertex -35.7909 3.51096 -1.5
      vertex -40 1.5 -1.5
      vertex -36.2091 3.51096 -1.5
    endloop
  endfacet
  facet normal 0 0 -1
    outer loop
      vertex 35.6403 23.3404 -1.5
      vertex 44 21.5 -1.5
      vertex 40 18.1667 -1.5
    endloop
  endfacet
  facet normal 0 0 -1
    outer loop
      vertex 40 1.5 -1.5
      vertex 37.9563 5.91582 -1.5
      vertex 40 18.1667 -1.5
    endloop
  endfacet
  facet normal 0 0 -1
    outer loop
      vertex 37.8271 6.31347 -1.5
      vertex 40 18.1667 -1.5
      vertex 37.9563 5.91582 -1.5
    endloop
  endfacet
  facet normal 0 0 -1
    outer loop
      vertex 37.618 6.67557 -1.5
      vertex 40 18.1667 -1.5
      vertex 37.8271 6.31347 -1.5
    endloop
  endfacet
  facet normal 0 0 -1
    outer loop
      vertex 37.3383 6.98629 -1.5
      vertex 40 18.1667 -1.5
      vertex 37.618 6.67557 -1.5
    endloop
  endfacet
  facet normal 0 0 -1
    outer loop
      vertex 44 21.5 -1.5
      vertex 36.9552 26.1927 -1.5
      vertex 44 27 -1.5
    endloop
  endfacet
  facet normal 0 0 -1
    outer loop
      vertex 37 7.23205 -1.5
      vertex 40 18.1667 -1.5
      vertex 37.3383 6.98629 -1.5
    endloop
  endfacet
  facet normal 0 0 -1
    outer loop
      vertex 36.618 7.40211 -1.5
      vertex 40 18.1667 -1.5
      vertex 37 7.23205 -1.5
    endloop
  endfacet
  facet normal -0 0 -1
    outer loop
      vertex 44 27 -1.5
      vertex 36.9552 26.1927 -1.5
      vertex 37.253 27 -1.5
    endloop
  endfacet
  facet normal 0 0 -1
    outer loop
      vertex 36.2091 7.48904 -1.5
      vertex 40 18.1667 -1.5
      vertex 36.618 7.40211 -1.5
    endloop
  endfacet
  facet normal 0 0 -1
    outer loop
      vertex 40 18.1667 -1.5
      vertex 36.2091 7.48904 -1.5
      vertex 32.3607 17.9886 -1.5
    endloop
  endfacet
  facet normal 0 0 -1
    outer loop
      vertex 32.3607 17.9886 -1.5
      vertex 36.2091 7.48904 -1.5
      vertex 35.7909 7.48904 -1.5
    endloop
  endfacet
  facet normal 0 0 -1
    outer loop
      vertex 44 21.5 -1.5
      vertex 35.6403 23.3404 -1.5
      vertex 36.9552 26.1927 -1.5
    endloop
  endfacet
  facet normal 0 0 -1
    outer loop
      vertex 32.3607 17.9886 -1.5
      vertex 35.7909 7.48904 -1.5
      vertex 35.382 7.40211 -1.5
    endloop
  endfacet
  facet normal 0 0 -1
    outer loop
      vertex 32.3607 17.9886 -1.5
      vertex 35.382 7.40211 -1.5
      vertex 35 7.23205 -1.5
    endloop
  endfacet
  facet normal 0 0 -1
    outer loop
      vertex 32.3607 17.9886 -1.5
      vertex 35 7.23205 -1.5
      vertex 34.6617 6.98629 -1.5
    endloop
  endfacet
  facet normal 0 0 -1
    outer loop
      vertex 32.3607 17.9886 -1.5
      vertex 34.6617 6.98629 -1.5
      vertex 34.382 6.67557 -1.5
    endloop
  endfacet
  facet normal 0 0 -1
    outer loop
      vertex 32.3607 17.9886 -1.5
      vertex 34.382 6.67557 -1.5
      vertex 34.1729 6.31347 -1.5
    endloop
  endfacet
  facet normal 0 0 -1
    outer loop
      vertex 40 18.1667 -1.5
      vertex 34.1056 20.6001 -1.5
      vertex 35.6403 23.3404 -1.5
    endloop
  endfacet
  facet normal 0 0 -1
    outer loop
      vertex 32.3607 17.9886 -1.5
      vertex 34.1729 6.31347 -1.5
      vertex 34.0437 5.91582 -1.5
    endloop
  endfacet
  facet normal 0 0 -1
    outer loop
      vertex 32.3607 17.9886 -1.5
      vertex 34.0437 5.91582 -1.5
      vertex 34 5.5 -1.5
    endloop
  endfacet
  facet normal -0 0 -1
    outer loop
      vertex 40 18.1667 -1.5
      vertex 32.3607 17.9886 -1.5
      vertex 34.1056 20.6001 -1.5
    endloop
  endfacet
  facet normal 0 0 -1
    outer loop
      vertex -34.382 6.67557 -1.5
      vertex -28.2843 13.2157 -1.5
      vertex -34.1729 6.31347 -1.5
    endloop
  endfacet
  facet normal 0 0 -1
    outer loop
      vertex -34.6617 6.98629 -1.5
      vertex -28.2843 13.2157 -1.5
      vertex -34.382 6.67557 -1.5
    endloop
  endfacet
  facet normal 0 0 -1
    outer loop
      vertex -35 7.23205 -1.5
      vertex -28.2843 13.2157 -1.5
      vertex -34.6617 6.98629 -1.5
    endloop
  endfacet
  facet normal -0 0 -1
    outer loop
      vertex -28.2843 13.2157 -1.5
      vertex -35 7.23205 -1.5
      vertex -30.4162 15.5221 -1.5
    endloop
  endfacet
  facet normal 0 0 -1
    outer loop
      vertex -35.382 7.40211 -1.5
      vertex -30.4162 15.5221 -1.5
      vertex -35 7.23205 -1.5
    endloop
  endfacet
  facet normal 0 0 -1
    outer loop
      vertex -35.7909 7.48904 -1.5
      vertex -30.4162 15.5221 -1.5
      vertex -35.382 7.40211 -1.5
    endloop
  endfacet
  facet normal 0 0 -1
    outer loop
      vertex -40 16.3571 -1.5
      vertex -30.4162 15.5221 -1.5
      vertex -35.7909 7.48904 -1.5
    endloop
  endfacet
  facet normal -0 0 -1
    outer loop
      vertex -32.3607 17.9886 -1.5
      vertex -40 16.3571 -1.5
      vertex -34.1056 20.6001 -1.5
    endloop
  endfacet
  facet normal 0 0 -1
    outer loop
      vertex -30.4162 15.5221 -1.5
      vertex -40 16.3571 -1.5
      vertex -32.3607 17.9886 -1.5
    endloop
  endfacet
  facet normal 0 0 -1
    outer loop
      vertex -40 16.3571 -1.5
      vertex -35.7909 7.48904 -1.5
      vertex -36.2091 7.48904 -1.5
    endloop
  endfacet
  facet normal 0 0 -1
    outer loop
      vertex -40 16.3571 -1.5
      vertex -36.2091 7.48904 -1.5
      vertex -36.618 7.40211 -1.5
    endloop
  endfacet
  facet normal -0 0 -1
    outer loop
      vertex -34.1056 20.6001 -1.5
      vertex -40 16.3571 -1.5
      vertex -35.6403 23.3404 -1.5
    endloop
  endfacet
  facet normal 0 0 -1
    outer loop
      vertex -40 16.3571 -1.5
      vertex -36.618 7.40211 -1.5
      vertex -37 7.23205 -1.5
    endloop
  endfacet
  facet normal 0 0 -1
    outer loop
      vertex -44 21.5 -1.5
      vertex -35.6403 23.3404 -1.5
      vertex -40 16.3571 -1.5
    endloop
  endfacet
  facet normal 0 0 -1
    outer loop
      vertex -40 16.3571 -1.5
      vertex -37 7.23205 -1.5
      vertex -37.3383 6.98629 -1.5
    endloop
  endfacet
  facet normal 0 0 -1
    outer loop
      vertex -40 16.3571 -1.5
      vertex -37.3383 6.98629 -1.5
      vertex -37.618 6.67557 -1.5
    endloop
  endfacet
  facet normal 0 0 -1
    outer loop
      vertex -40 16.3571 -1.5
      vertex -37.618 6.67557 -1.5
      vertex -37.8271 6.31347 -1.5
    endloop
  endfacet
  facet normal 0 0 -1
    outer loop
      vertex -40 16.3571 -1.5
      vertex -37.8271 6.31347 -1.5
      vertex -37.9563 5.91582 -1.5
    endloop
  endfacet
  facet normal 0 0 -1
    outer loop
      vertex -40 1.5 -1.5
      vertex -37.9563 5.91582 -1.5
      vertex -38 5.5 -1.5
    endloop
  endfacet
  facet normal -0 0 -1
    outer loop
      vertex -37.9563 5.91582 -1.5
      vertex -40 1.5 -1.5
      vertex -40 16.3571 -1.5
    endloop
  endfacet
  facet normal -0 0 -1
    outer loop
      vertex -35.6403 23.3404 -1.5
      vertex -44 21.5 -1.5
      vertex -36.9552 26.1927 -1.5
    endloop
  endfacet
  facet normal 0 0 -1
    outer loop
      vertex -44 27 -1.5
      vertex -36.9552 26.1927 -1.5
      vertex -44 21.5 -1.5
    endloop
  endfacet
  facet normal 0 0 -1
    outer loop
      vertex -36.9552 26.1927 -1.5
      vertex -44 27 -1.5
      vertex -37.253 27 -1.5
    endloop
  endfacet
  facet normal 0 -1 0
    outer loop
      vertex 10.9718 1.5 -1.5
      vertex 40 1.5 1.5
      vertex 10.9718 1.5 1.5
    endloop
  endfacet
  facet normal 0 -1 -0
    outer loop
      vertex 40 1.5 1.5
      vertex 10.9718 1.5 -1.5
      vertex 40 1.5 -1.5
    endloop
  endfacet
  facet normal 0 -1 0
    outer loop
      vertex -40 1.5 -1.5
      vertex -10.9718 1.5 1.5
      vertex -40 1.5 1.5
    endloop
  endfacet
  facet normal 0 -1 -0
    outer loop
      vertex -10.9718 1.5 1.5
      vertex -40 1.5 -1.5
      vertex -10.9718 1.5 -1.5
    endloop
  endfacet
  facet normal 0 -1 0
    outer loop
      vertex -1.44833 0.025281 -1.5
      vertex 1.44833 0.025281 1.5
      vertex -1.44833 0.025281 1.5
    endloop
  endfacet
  facet normal 0 -1 -0
    outer loop
      vertex 1.44833 0.025281 1.5
      vertex -1.44833 0.025281 -1.5
      vertex 1.44833 0.025281 -1.5
    endloop
  endfacet
  facet normal 0.0697566 -0.997564 0
    outer loop
      vertex 1.44833 0.025281 -1.5
      vertex 4.33793 0.227342 1.5
      vertex 1.44833 0.025281 1.5
    endloop
  endfacet
  facet normal 0.0697566 -0.997564 0
    outer loop
      vertex 4.33793 0.227342 1.5
      vertex 1.44833 0.025281 -1.5
      vertex 4.33793 0.227342 -1.5
    endloop
  endfacet
  facet normal 0.139173 -0.990268 0
    outer loop
      vertex 4.33793 0.227342 -1.5
      vertex 7.2064 0.630479 1.5
      vertex 4.33793 0.227342 1.5
    endloop
  endfacet
  facet normal 0.139173 -0.990268 0
    outer loop
      vertex 7.2064 0.630479 1.5
      vertex 4.33793 0.227342 -1.5
      vertex 7.2064 0.630479 -1.5
    endloop
  endfacet
  facet normal 0.207909 -0.978148 0
    outer loop
      vertex 7.2064 0.630479 -1.5
      vertex 10.0398 1.23273 1.5
      vertex 7.2064 0.630479 1.5
    endloop
  endfacet
  facet normal 0.207909 -0.978148 0
    outer loop
      vertex 10.0398 1.23273 1.5
      vertex 7.2064 0.630479 -1.5
      vertex 10.0398 1.23273 -1.5
    endloop
  endfacet
  facet normal 0.27566 -0.961255 0
    outer loop
      vertex 10.0398 1.23273 -1.5
      vertex 10.9718 1.5 1.5
      vertex 10.0398 1.23273 1.5
    endloop
  endfacet
  facet normal 0.27566 -0.961255 0
    outer loop
      vertex 10.9718 1.5 1.5
      vertex 10.0398 1.23273 -1.5
      vertex 10.9718 1.5 -1.5
    endloop
  endfacet
  facet normal -0.139173 -0.990268 0
    outer loop
      vertex -7.2064 0.630479 -1.5
      vertex -4.33793 0.227342 1.5
      vertex -7.2064 0.630479 1.5
    endloop
  endfacet
  facet normal -0.139173 -0.990268 -0
    outer loop
      vertex -4.33793 0.227342 1.5
      vertex -7.2064 0.630479 -1.5
      vertex -4.33793 0.227342 -1.5
    endloop
  endfacet
  facet normal -0.27566 -0.961255 0
    outer loop
      vertex -10.9718 1.5 -1.5
      vertex -10.0398 1.23273 1.5
      vertex -10.9718 1.5 1.5
    endloop
  endfacet
  facet normal -0.27566 -0.961255 -0
    outer loop
      vertex -10.0398 1.23273 1.5
      vertex -10.9718 1.5 -1.5
      vertex -10.0398 1.23273 -1.5
    endloop
  endfacet
  facet normal -0.0697566 -0.997564 0
    outer loop
      vertex -4.33793 0.227342 -1.5
      vertex -1.44833 0.025281 1.5
      vertex -4.33793 0.227342 1.5
    endloop
  endfacet
  facet normal -0.0697566 -0.997564 -0
    outer loop
      vertex -1.44833 0.025281 1.5
      vertex -4.33793 0.227342 -1.5
      vertex -1.44833 0.025281 -1.5
    endloop
  endfacet
  facet normal -0.207909 -0.978148 0
    outer loop
      vertex -10.0398 1.23273 -1.5
      vertex -7.2064 0.630479 1.5
      vertex -10.0398 1.23273 1.5
    endloop
  endfacet
  facet normal -0.207909 -0.978148 -0
    outer loop
      vertex -7.2064 0.630479 1.5
      vertex -10.0398 1.23273 -1.5
      vertex -7.2064 0.630479 -1.5
    endloop
  endfacet
  facet normal -1 0 0
    outer loop
      vertex 37 23 1.5
      vertex 37 21.5 6.5
      vertex 37 23 6.5
    endloop
  endfacet
  facet normal -1 0 -0
    outer loop
      vertex 37 21.5 6.5
      vertex 37 23 1.5
      vertex 37 17.9286 1.5
    endloop
  endfacet
  facet normal -1 0 0
    outer loop
      vertex 37 24.8 1.5
      vertex 37 26.3141 6.5
      vertex 37 26.3141 1.5
    endloop
  endfacet
  facet normal -1 -0 0
    outer loop
      vertex 37 26.3141 6.5
      vertex 37 24.8 1.5
      vertex 37 24.8 6.5
    endloop
  endfacet
  facet normal 1 0 0
    outer loop
      vertex 44 23 6.5
      vertex 44 21.5 6.5
      vertex 44 23 -0.155671
    endloop
  endfacet
  facet normal 1 0 0
    outer loop
      vertex 44 24.8 -0.155671
      vertex 44 27 6.5
      vertex 44 24.8 6.5
    endloop
  endfacet
  facet normal 1 0 0
    outer loop
      vertex 44 27 6.5
      vertex 44 24.8 -0.155671
      vertex 44 27 -1.5
    endloop
  endfacet
  facet normal 1 0 0
    outer loop
      vertex 44 21.5 -1.5
      vertex 44 24.8 -0.155671
      vertex 44 23 -0.155671
    endloop
  endfacet
  facet normal 1 0 0
    outer loop
      vertex 44 24.8 -0.155671
      vertex 44 21.5 -1.5
      vertex 44 27 -1.5
    endloop
  endfacet
  facet normal 1 0 0
    outer loop
      vertex 44 21.5 -1.5
      vertex 44 23 -0.155671
      vertex 44 21.5 6.5
    endloop
  endfacet
  facet normal -0 0 1
    outer loop
      vertex 37 23 6.5
      vertex 44 21.5 6.5
      vertex 44 23 6.5
    endloop
  endfacet
  facet normal 0 0 1
    outer loop
      vertex 44 21.5 6.5
      vertex 37 23 6.5
      vertex 37 21.5 6.5
    endloop
  endfacet
  facet normal -0 0 1
    outer loop
      vertex 37.253 27 6.5
      vertex 44 24.8 6.5
      vertex 44 27 6.5
    endloop
  endfacet
  facet normal 0 0 1
    outer loop
      vertex 37 24.8 6.5
      vertex 37.253 27 6.5
      vertex 37 26.3141 6.5
    endloop
  endfacet
  facet normal 0 0 1
    outer loop
      vertex 37.253 27 6.5
      vertex 37 24.8 6.5
      vertex 44 24.8 6.5
    endloop
  endfacet
  facet normal 0.640211 -0.768199 -4.09724e-05
    outer loop
      vertex 40 18.1667 1.5
      vertex 44 21.5 6.5
      vertex 39.7143 17.9286 1.5
    endloop
  endfacet
  facet normal 0.640181 -0.768224 0
    outer loop
      vertex 44 21.5 -1.5
      vertex 40 18.1667 1.5
      vertex 40 18.1667 -1.5
    endloop
  endfacet
  facet normal 0.640181 -0.768224 0
    outer loop
      vertex 40 18.1667 1.5
      vertex 44 21.5 -1.5
      vertex 44 21.5 6.5
    endloop
  endfacet
  facet normal 0 -0.813736 0.581235
    outer loop
      vertex 39.7143 17.9286 1.5
      vertex 37 21.5 6.5
      vertex 37 17.9286 1.5
    endloop
  endfacet
  facet normal 0 -0.813736 0.581235
    outer loop
      vertex 37 21.5 6.5
      vertex 39.7143 17.9286 1.5
      vertex 44 21.5 6.5
    endloop
  endfacet
  facet normal 0 -0.883787 0.467889
    outer loop
      vertex -37.8235 13.5588 1.5
      vertex -37 21.5 16.5
      vertex -44 21.5 16.5
    endloop
  endfacet
  facet normal 0 -0.883787 0.467889
    outer loop
      vertex -37 21.5 16.5
      vertex -37.8235 13.5588 1.5
      vertex -36.1176 13.5588 1.5
    endloop
  endfacet
  facet normal -1 0 0
    outer loop
      vertex -44 27 -1.5
      vertex -44 24.8 10.6494
      vertex -44 27 16.5
    endloop
  endfacet
  facet normal -1 0 0
    outer loop
      vertex -44 21.5 -1.5
      vertex -44 24.8 10.6494
      vertex -44 27 -1.5
    endloop
  endfacet
  facet normal -1 -0 0
    outer loop
      vertex -44 24.8 10.6494
      vertex -44 21.5 -1.5
      vertex -44 23 10.6494
    endloop
  endfacet
  facet normal -1 0 0
    outer loop
      vertex -44 21.5 16.5
      vertex -44 23 10.6494
      vertex -44 21.5 -1.5
    endloop
  endfacet
  facet normal -1 0 0
    outer loop
      vertex -44 23 10.6494
      vertex -44 21.5 16.5
      vertex -44 23 16.5
    endloop
  endfacet
  facet normal -1 -0 0
    outer loop
      vertex -44 27 16.5
      vertex -44 24.8 10.6494
      vertex -44 24.8 16.5
    endloop
  endfacet
  facet normal -0.789355 -0.613937 -0
    outer loop
      vertex -40 16.3571 1.5
      vertex -44 21.5 -1.5
      vertex -40 16.3571 -1.5
    endloop
  endfacet
  facet normal -0.789355 -0.613937 0
    outer loop
      vertex -44 21.5 -1.5
      vertex -40 16.3571 1.5
      vertex -44 21.5 16.5
    endloop
  endfacet
  facet normal -0.789346 -0.613948 6.05251e-06
    outer loop
      vertex -44 21.5 16.5
      vertex -40 16.3571 1.5
      vertex -37.8235 13.5588 1.5
    endloop
  endfacet
  facet normal -0 0 1
    outer loop
      vertex -44 23 16.5
      vertex -37 21.5 16.5
      vertex -37 23 16.5
    endloop
  endfacet
  facet normal 0 0 1
    outer loop
      vertex -37 21.5 16.5
      vertex -44 23 16.5
      vertex -44 21.5 16.5
    endloop
  endfacet
  facet normal 0 0 1
    outer loop
      vertex -37.253 27 16.5
      vertex -37 24.8 16.5
      vertex -37 26.3141 16.5
    endloop
  endfacet
  facet normal 0 0 1
    outer loop
      vertex -44 24.8 16.5
      vertex -37.253 27 16.5
      vertex -44 27 16.5
    endloop
  endfacet
  facet normal 0 0 1
    outer loop
      vertex -37.253 27 16.5
      vertex -44 24.8 16.5
      vertex -37 24.8 16.5
    endloop
  endfacet
  facet normal 0.998274 0 0.0587243
    outer loop
      vertex -37 23 16.5
      vertex -37 21.5 16.5
      vertex -36.6024 23 9.74106
    endloop
  endfacet
  facet normal 0.998276 -0 0.058699
    outer loop
      vertex -37 24.8 16.5
      vertex -36.9552 26.1927 15.7381
      vertex -37 26.3141 16.5
    endloop
  endfacet
  facet normal 0.998274 1.87946e-05 0.0587332
    outer loop
      vertex -37 24.8 16.5
      vertex -36.6764 25.588 10.9996
      vertex -36.9552 26.1927 15.7381
    endloop
  endfacet
  facet normal 0.998274 -4.38487e-05 0.0587243
    outer loop
      vertex -36.6024 24.8 9.74106
      vertex -36.6764 25.588 10.9996
      vertex -37 24.8 16.5
    endloop
  endfacet
  facet normal 0.998266 -0.000260526 0.0588595
    outer loop
      vertex -36.6024 24.8 9.74106
      vertex -36.1176 20.5588 1.5
      vertex -36.6764 25.588 10.9996
    endloop
  endfacet
  facet normal 0.998274 -0 0.0587259
    outer loop
      vertex -36.6024 23 9.74106
      vertex -36.1176 20.5588 1.5
      vertex -36.6024 24.8 9.74106
    endloop
  endfacet
  facet normal 0.998274 1.16185e-06 0.0587245
    outer loop
      vertex -36.1176 13.5588 1.5
      vertex -36.6024 23 9.74106
      vertex -37 21.5 16.5
    endloop
  endfacet
  facet normal 0.998274 0 0.0587259
    outer loop
      vertex -36.6024 23 9.74106
      vertex -36.1176 13.5588 1.5
      vertex -36.1176 20.5588 1.5
    endloop
  endfacet
  facet normal 0.993884 0.110432 0
    outer loop
      vertex -36.1176 20.5588 1.5
      vertex -36.6764 25.588 1.5
      vertex -36.6764 25.588 10.9996
    endloop
  endfacet
  facet normal 0 1 -0
    outer loop
      vertex -37.253 27 -1.5
      vertex -44 27 16.5
      vertex -37.253 27 16.5
    endloop
  endfacet
  facet normal 0 1 0
    outer loop
      vertex -44 27 16.5
      vertex -37.253 27 -1.5
      vertex -44 27 -1.5
    endloop
  endfacet
  facet normal 0 1 -0
    outer loop
      vertex 44 27 -1.5
      vertex 37.253 27 6.5
      vertex 44 27 6.5
    endloop
  endfacet
  facet normal 0 1 0
    outer loop
      vertex 37.253 27 6.5
      vertex 44 27 -1.5
      vertex 37.253 27 -1.5
    endloop
  endfacet
  facet normal 0.346123 0.938189 -0
    outer loop
      vertex -12.3607 3.45774 -1.5
      vertex -15.3073 4.54482 1.5
      vertex -12.3607 3.45774 1.5
    endloop
  endfacet
  facet normal 0.346123 0.938189 0
    outer loop
      vertex -15.3073 4.54482 1.5
      vertex -12.3607 3.45774 -1.5
      vertex -15.3073 4.54482 -1.5
    endloop
  endfacet
  facet normal -0.93821 0.346067 0
    outer loop
      vertex 37.253 27 -1.5
      vertex 37 26.3141 1.5
      vertex 37.253 27 6.5
    endloop
  endfacet
  facet normal -0.938202 0.346088 5.46984e-06
    outer loop
      vertex 36.9552 26.1927 -1.5
      vertex 37 26.3141 1.5
      vertex 37.253 27 -1.5
    endloop
  endfacet
  facet normal -0.938158 0.346207 0
    outer loop
      vertex 37 26.3141 1.5
      vertex 36.9552 26.1927 -1.5
      vertex 36.9552 26.1927 1.5
    endloop
  endfacet
  facet normal -0.93821 0.346067 0
    outer loop
      vertex 37.253 27 6.5
      vertex 37 26.3141 1.5
      vertex 37 26.3141 6.5
    endloop
  endfacet
  facet normal 0.117537 0.993068 -0
    outer loop
      vertex -3.13836 1.62331 -1.5
      vertex -6.25738 1.99247 1.5
      vertex -3.13836 1.62331 1.5
    endloop
  endfacet
  facet normal 0.117537 0.993068 0
    outer loop
      vertex -6.25738 1.99247 1.5
      vertex -3.13836 1.62331 -1.5
      vertex -6.25738 1.99247 -1.5
    endloop
  endfacet
  facet normal 0.619103 0.785309 -0
    outer loop
      vertex -23.5114 9.13932 -1.5
      vertex -25.9779 11.0838 1.5
      vertex -23.5114 9.13932 1.5
    endloop
  endfacet
  facet normal 0.619103 0.785309 0
    outer loop
      vertex -25.9779 11.0838 1.5
      vertex -23.5114 9.13932 -1.5
      vertex -25.9779 11.0838 -1.5
    endloop
  endfacet
  facet normal -0.117537 0.993068 0
    outer loop
      vertex 6.25738 1.99247 -1.5
      vertex 3.13836 1.62331 1.5
      vertex 6.25738 1.99247 1.5
    endloop
  endfacet
  facet normal -0.117537 0.993068 0
    outer loop
      vertex 3.13836 1.62331 1.5
      vertex 6.25738 1.99247 -1.5
      vertex 3.13836 1.62331 -1.5
    endloop
  endfacet
  facet normal -0.785306 0.619107 0
    outer loop
      vertex 30.4162 15.5221 -1.5
      vertex 32.3607 17.9886 1.5
      vertex 32.3607 17.9886 -1.5
    endloop
  endfacet
  facet normal -0.785306 0.619107 0
    outer loop
      vertex 32.3607 17.9886 1.5
      vertex 30.4162 15.5221 -1.5
      vertex 30.4162 15.5221 1.5
    endloop
  endfacet
  facet normal -0.734341 0.678781 0
    outer loop
      vertex 28.2843 13.2157 -1.5
      vertex 30.4162 15.5221 1.5
      vertex 30.4162 15.5221 -1.5
    endloop
  endfacet
  facet normal -0.734341 0.678781 0
    outer loop
      vertex 30.4162 15.5221 1.5
      vertex 28.2843 13.2157 -1.5
      vertex 28.2843 13.2157 1.5
    endloop
  endfacet
  facet normal -0.488623 0.872495 0
    outer loop
      vertex 20.8999 7.39439 -1.5
      vertex 18.1596 5.85974 1.5
      vertex 20.8999 7.39439 1.5
    endloop
  endfacet
  facet normal -0.488623 0.872495 0
    outer loop
      vertex 18.1596 5.85974 1.5
      vertex 20.8999 7.39439 -1.5
      vertex 18.1596 5.85974 -1.5
    endloop
  endfacet
  facet normal -0.0392609 0.999229 0
    outer loop
      vertex 3.13836 1.62331 -1.5
      vertex 0 1.5 1.5
      vertex 3.13836 1.62331 1.5
    endloop
  endfacet
  facet normal -0.0392609 0.999229 0
    outer loop
      vertex 0 1.5 1.5
      vertex 3.13836 1.62331 -1.5
      vertex 0 1.5 -1.5
    endloop
  endfacet
  facet normal 0.27144 0.962455 -0
    outer loop
      vertex -9.33781 2.6052 -1.5
      vertex -12.3607 3.45774 1.5
      vertex -9.33781 2.6052 1.5
    endloop
  endfacet
  facet normal 0.27144 0.962455 0
    outer loop
      vertex -12.3607 3.45774 1.5
      vertex -9.33781 2.6052 -1.5
      vertex -12.3607 3.45774 -1.5
    endloop
  endfacet
  facet normal 0.785306 0.619107 0
    outer loop
      vertex -30.4162 15.5221 1.5
      vertex -32.3607 17.9886 -1.5
      vertex -32.3607 17.9886 1.5
    endloop
  endfacet
  facet normal 0.785306 0.619107 0
    outer loop
      vertex -32.3607 17.9886 -1.5
      vertex -30.4162 15.5221 1.5
      vertex -30.4162 15.5221 -1.5
    endloop
  endfacet
  facet normal 0.872488 0.488635 0
    outer loop
      vertex -34.1056 20.6001 1.5
      vertex -35.6403 23.3404 -1.5
      vertex -35.6403 23.3404 1.5
    endloop
  endfacet
  facet normal 0.872488 0.488635 0
    outer loop
      vertex -35.6403 23.3404 -1.5
      vertex -34.1056 20.6001 1.5
      vertex -34.1056 20.6001 -1.5
    endloop
  endfacet
  facet normal 0.678781 0.734341 -0
    outer loop
      vertex -25.9779 11.0838 -1.5
      vertex -28.2843 13.2157 1.5
      vertex -25.9779 11.0838 1.5
    endloop
  endfacet
  facet normal 0.678781 0.734341 0
    outer loop
      vertex -28.2843 13.2157 1.5
      vertex -25.9779 11.0838 -1.5
      vertex -28.2843 13.2157 -1.5
    endloop
  endfacet
  facet normal -0.872423 0.488752 0
    outer loop
      vertex 35.6403 23.3404 -1.5
      vertex 35.4496 23 0.894181
      vertex 35.6403 23.3404 0.870776
    endloop
  endfacet
  facet normal -0.872488 0.488635 -2.17205e-05
    outer loop
      vertex 34.1056 20.6001 -1.5
      vertex 35.4496 23 0.894181
      vertex 35.6403 23.3404 -1.5
    endloop
  endfacet
  facet normal -0.872497 0.488619 0
    outer loop
      vertex 34.1056 20.6001 1.5
      vertex 35.4496 23 0.894181
      vertex 34.1056 20.6001 -1.5
    endloop
  endfacet
  facet normal -0.872497 0.488619 0
    outer loop
      vertex 35.4496 23 0.894181
      vertex 34.1056 20.6001 1.5
      vertex 35.4496 23 1.5
    endloop
  endfacet
  facet normal -0.831477 0.55556 0
    outer loop
      vertex 32.3607 17.9886 -1.5
      vertex 34.1056 20.6001 1.5
      vertex 34.1056 20.6001 -1.5
    endloop
  endfacet
  facet normal -0.831477 0.55556 0
    outer loop
      vertex 34.1056 20.6001 1.5
      vertex 32.3607 17.9886 -1.5
      vertex 32.3607 17.9886 1.5
    endloop
  endfacet
  facet normal -0.195089 0.980786 0
    outer loop
      vertex 9.33781 2.6052 -1.5
      vertex 6.25738 1.99247 1.5
      vertex 9.33781 2.6052 1.5
    endloop
  endfacet
  facet normal -0.195089 0.980786 0
    outer loop
      vertex 6.25738 1.99247 1.5
      vertex 9.33781 2.6052 -1.5
      vertex 6.25738 1.99247 -1.5
    endloop
  endfacet
  facet normal -0.346123 0.938189 0
    outer loop
      vertex 15.3073 4.54482 -1.5
      vertex 12.3607 3.45774 1.5
      vertex 15.3073 4.54482 1.5
    endloop
  endfacet
  facet normal -0.346123 0.938189 0
    outer loop
      vertex 12.3607 3.45774 1.5
      vertex 15.3073 4.54482 -1.5
      vertex 12.3607 3.45774 -1.5
    endloop
  endfacet
  facet normal -0.418658 0.908144 0
    outer loop
      vertex 18.1596 5.85974 -1.5
      vertex 15.3073 4.54482 1.5
      vertex 18.1596 5.85974 1.5
    endloop
  endfacet
  facet normal -0.418658 0.908144 0
    outer loop
      vertex 15.3073 4.54482 1.5
      vertex 18.1596 5.85974 -1.5
      vertex 15.3073 4.54482 -1.5
    endloop
  endfacet
  facet normal -0.27144 0.962455 0
    outer loop
      vertex 12.3607 3.45774 -1.5
      vertex 9.33781 2.6052 1.5
      vertex 12.3607 3.45774 1.5
    endloop
  endfacet
  facet normal -0.27144 0.962455 0
    outer loop
      vertex 9.33781 2.6052 1.5
      vertex 12.3607 3.45774 -1.5
      vertex 9.33781 2.6052 -1.5
    endloop
  endfacet
  facet normal -0.678781 0.734341 0
    outer loop
      vertex 28.2843 13.2157 -1.5
      vertex 25.9779 11.0838 1.5
      vertex 28.2843 13.2157 1.5
    endloop
  endfacet
  facet normal -0.678781 0.734341 0
    outer loop
      vertex 25.9779 11.0838 1.5
      vertex 28.2843 13.2157 -1.5
      vertex 25.9779 11.0838 -1.5
    endloop
  endfacet
  facet normal -0.619103 0.785309 0
    outer loop
      vertex 25.9779 11.0838 -1.5
      vertex 23.5114 9.13932 1.5
      vertex 25.9779 11.0838 1.5
    endloop
  endfacet
  facet normal -0.619103 0.785309 0
    outer loop
      vertex 23.5114 9.13932 1.5
      vertex 25.9779 11.0838 -1.5
      vertex 23.5114 9.13932 -1.5
    endloop
  endfacet
  facet normal -0.555566 0.831472 0
    outer loop
      vertex 23.5114 9.13932 -1.5
      vertex 20.8999 7.39439 1.5
      vertex 23.5114 9.13932 1.5
    endloop
  endfacet
  facet normal -0.555566 0.831472 0
    outer loop
      vertex 20.8999 7.39439 1.5
      vertex 23.5114 9.13932 -1.5
      vertex 20.8999 7.39439 -1.5
    endloop
  endfacet
  facet normal 0.0392609 0.999229 -0
    outer loop
      vertex 0 1.5 -1.5
      vertex -3.13836 1.62331 1.5
      vertex 0 1.5 1.5
    endloop
  endfacet
  facet normal 0.0392609 0.999229 0
    outer loop
      vertex -3.13836 1.62331 1.5
      vertex 0 1.5 -1.5
      vertex -3.13836 1.62331 -1.5
    endloop
  endfacet
  facet normal 0.195089 0.980786 -0
    outer loop
      vertex -6.25738 1.99247 -1.5
      vertex -9.33781 2.6052 1.5
      vertex -6.25738 1.99247 1.5
    endloop
  endfacet
  facet normal 0.195089 0.980786 0
    outer loop
      vertex -9.33781 2.6052 1.5
      vertex -6.25738 1.99247 -1.5
      vertex -9.33781 2.6052 -1.5
    endloop
  endfacet
  facet normal 0.418658 0.908144 -0
    outer loop
      vertex -15.3073 4.54482 -1.5
      vertex -18.1596 5.85974 1.5
      vertex -15.3073 4.54482 1.5
    endloop
  endfacet
  facet normal 0.418658 0.908144 0
    outer loop
      vertex -18.1596 5.85974 1.5
      vertex -15.3073 4.54482 -1.5
      vertex -18.1596 5.85974 -1.5
    endloop
  endfacet
  facet normal 0.488623 0.872495 -0
    outer loop
      vertex -18.1596 5.85974 -1.5
      vertex -20.8999 7.39439 1.5
      vertex -18.1596 5.85974 1.5
    endloop
  endfacet
  facet normal 0.488623 0.872495 0
    outer loop
      vertex -20.8999 7.39439 1.5
      vertex -18.1596 5.85974 -1.5
      vertex -20.8999 7.39439 -1.5
    endloop
  endfacet
  facet normal 0.555566 0.831472 -0
    outer loop
      vertex -20.8999 7.39439 -1.5
      vertex -23.5114 9.13932 1.5
      vertex -20.8999 7.39439 1.5
    endloop
  endfacet
  facet normal 0.555566 0.831472 0
    outer loop
      vertex -23.5114 9.13932 1.5
      vertex -20.8999 7.39439 -1.5
      vertex -23.5114 9.13932 -1.5
    endloop
  endfacet
  facet normal 0.908126 0.418696 0
    outer loop
      vertex -36.6764 25.588 10.9996
      vertex -36.9552 26.1927 -1.5
      vertex -36.9552 26.1927 15.7381
    endloop
  endfacet
  facet normal 0.908126 0.418696 -0
    outer loop
      vertex -36.6764 25.588 1.5
      vertex -36.9552 26.1927 -1.5
      vertex -36.6764 25.588 10.9996
    endloop
  endfacet
  facet normal 0.908152 0.41864 -0
    outer loop
      vertex -35.6403 23.3404 -1.5
      vertex -36.6764 25.588 1.5
      vertex -35.6403 23.3404 1.5
    endloop
  endfacet
  facet normal 0.908147 0.418652 -1.07415e-05
    outer loop
      vertex -36.6764 25.588 1.5
      vertex -35.6403 23.3404 -1.5
      vertex -36.9552 26.1927 -1.5
    endloop
  endfacet
  facet normal 0.93821 0.346067 2.53499e-05
    outer loop
      vertex -36.9552 26.1927 15.7381
      vertex -37.253 27 16.5
      vertex -37 26.3141 16.5
    endloop
  endfacet
  facet normal 0.938202 0.346088 0
    outer loop
      vertex -37.253 27 16.5
      vertex -36.9552 26.1927 15.7381
      vertex -37.253 27 -1.5
    endloop
  endfacet
  facet normal 0.938202 0.346088 0
    outer loop
      vertex -37.253 27 -1.5
      vertex -36.9552 26.1927 15.7381
      vertex -36.9552 26.1927 -1.5
    endloop
  endfacet
  facet normal 0.831477 0.55556 0
    outer loop
      vertex -32.3607 17.9886 1.5
      vertex -34.1056 20.6001 -1.5
      vertex -34.1056 20.6001 1.5
    endloop
  endfacet
  facet normal 0.831477 0.55556 0
    outer loop
      vertex -34.1056 20.6001 -1.5
      vertex -32.3607 17.9886 1.5
      vertex -32.3607 17.9886 -1.5
    endloop
  endfacet
  facet normal -0.908154 0.418636 0
    outer loop
      vertex 36.9552 26.1927 -1.5
      vertex 36.3132 24.8 0.788155
      vertex 36.9552 26.1927 1.5
    endloop
  endfacet
  facet normal -0.908147 0.418652 1.17761e-05
    outer loop
      vertex 35.6403 23.3404 -1.5
      vertex 36.3132 24.8 0.788155
      vertex 36.9552 26.1927 -1.5
    endloop
  endfacet
  facet normal -0.90814 0.418668 0
    outer loop
      vertex 36.3132 24.8 0.788155
      vertex 35.6403 23.3404 -1.5
      vertex 35.6403 23.3404 0.870776
    endloop
  endfacet
  facet normal -0.908154 0.418636 0
    outer loop
      vertex 36.9552 26.1927 1.5
      vertex 36.3132 24.8 0.788155
      vertex 36.3132 24.8 1.5
    endloop
  endfacet
  facet normal 0.734341 0.678781 0
    outer loop
      vertex -28.2843 13.2157 1.5
      vertex -30.4162 15.5221 -1.5
      vertex -30.4162 15.5221 1.5
    endloop
  endfacet
  facet normal 0.734341 0.678781 0
    outer loop
      vertex -30.4162 15.5221 -1.5
      vertex -28.2843 13.2157 1.5
      vertex -28.2843 13.2157 -1.5
    endloop
  endfacet
  facet normal -0.865982 -0.500074 0
    outer loop
      vertex -34.1729 6.31347 -1.5
      vertex -34.382 6.67557 1.5
      vertex -34.382 6.67557 -1.5
    endloop
  endfacet
  facet normal -0.865982 -0.500074 0
    outer loop
      vertex -34.382 6.67557 1.5
      vertex -34.1729 6.31347 -1.5
      vertex -34.1729 6.31347 1.5
    endloop
  endfacet
  facet normal 0.994523 -0.104518 0
    outer loop
      vertex -38 5.5 1.5
      vertex -37.9563 5.91582 -1.5
      vertex -37.9563 5.91582 1.5
    endloop
  endfacet
  facet normal 0.994523 -0.104518 0
    outer loop
      vertex -37.9563 5.91582 -1.5
      vertex -38 5.5 1.5
      vertex -38 5.5 -1.5
    endloop
  endfacet
  facet normal 0.994523 0.104518 0
    outer loop
      vertex -37.9563 5.08418 1.5
      vertex -38 5.5 -1.5
      vertex -38 5.5 1.5
    endloop
  endfacet
  facet normal 0.994523 0.104518 0
    outer loop
      vertex -38 5.5 -1.5
      vertex -37.9563 5.08418 1.5
      vertex -37.9563 5.08418 -1.5
    endloop
  endfacet
  facet normal -0.743232 -0.669033 0
    outer loop
      vertex -34.382 6.67557 -1.5
      vertex -34.6617 6.98629 1.5
      vertex -34.6617 6.98629 -1.5
    endloop
  endfacet
  facet normal -0.743232 -0.669033 0
    outer loop
      vertex -34.6617 6.98629 1.5
      vertex -34.382 6.67557 -1.5
      vertex -34.382 6.67557 1.5
    endloop
  endfacet
  facet normal -0.406702 -0.913561 0
    outer loop
      vertex -35.382 7.40211 -1.5
      vertex -35 7.23205 1.5
      vertex -35.382 7.40211 1.5
    endloop
  endfacet
  facet normal -0.406702 -0.913561 -0
    outer loop
      vertex -35 7.23205 1.5
      vertex -35.382 7.40211 -1.5
      vertex -35 7.23205 -1.5
    endloop
  endfacet
  facet normal 0.406702 -0.913561 0
    outer loop
      vertex -37 7.23205 -1.5
      vertex -36.618 7.40211 1.5
      vertex -37 7.23205 1.5
    endloop
  endfacet
  facet normal 0.406702 -0.913561 0
    outer loop
      vertex -36.618 7.40211 1.5
      vertex -37 7.23205 -1.5
      vertex -36.618 7.40211 -1.5
    endloop
  endfacet
  facet normal 0.95106 -0.309008 0
    outer loop
      vertex -37.9563 5.91582 1.5
      vertex -37.8271 6.31347 -1.5
      vertex -37.8271 6.31347 1.5
    endloop
  endfacet
  facet normal 0.95106 -0.309008 0
    outer loop
      vertex -37.8271 6.31347 -1.5
      vertex -37.9563 5.91582 1.5
      vertex -37.9563 5.91582 -1.5
    endloop
  endfacet
  facet normal -0.994523 0.104518 0
    outer loop
      vertex -34.0437 5.08418 -1.5
      vertex -34 5.5 1.5
      vertex -34 5.5 -1.5
    endloop
  endfacet
  facet normal -0.994523 0.104518 0
    outer loop
      vertex -34 5.5 1.5
      vertex -34.0437 5.08418 -1.5
      vertex -34.0437 5.08418 1.5
    endloop
  endfacet
  facet normal 0 -1 0
    outer loop
      vertex -36.2091 7.48904 -1.5
      vertex -35.7909 7.48904 1.5
      vertex -36.2091 7.48904 1.5
    endloop
  endfacet
  facet normal 0 -1 -0
    outer loop
      vertex -35.7909 7.48904 1.5
      vertex -36.2091 7.48904 -1.5
      vertex -35.7909 7.48904 -1.5
    endloop
  endfacet
  facet normal -0.587739 -0.80905 0
    outer loop
      vertex -35 7.23205 -1.5
      vertex -34.6617 6.98629 1.5
      vertex -35 7.23205 1.5
    endloop
  endfacet
  facet normal -0.587739 -0.80905 -0
    outer loop
      vertex -34.6617 6.98629 1.5
      vertex -35 7.23205 -1.5
      vertex -34.6617 6.98629 -1.5
    endloop
  endfacet
  facet normal 0.865982 -0.500074 0
    outer loop
      vertex -37.8271 6.31347 1.5
      vertex -37.618 6.67557 -1.5
      vertex -37.618 6.67557 1.5
    endloop
  endfacet
  facet normal 0.865982 -0.500074 0
    outer loop
      vertex -37.618 6.67557 -1.5
      vertex -37.8271 6.31347 1.5
      vertex -37.8271 6.31347 -1.5
    endloop
  endfacet
  facet normal 0.587739 -0.80905 0
    outer loop
      vertex -37.3383 6.98629 -1.5
      vertex -37 7.23205 1.5
      vertex -37.3383 6.98629 1.5
    endloop
  endfacet
  facet normal 0.587739 -0.80905 0
    outer loop
      vertex -37 7.23205 1.5
      vertex -37.3383 6.98629 -1.5
      vertex -37 7.23205 -1.5
    endloop
  endfacet
  facet normal 0.207947 -0.97814 0
    outer loop
      vertex -36.618 7.40211 -1.5
      vertex -36.2091 7.48904 1.5
      vertex -36.618 7.40211 1.5
    endloop
  endfacet
  facet normal 0.207947 -0.97814 0
    outer loop
      vertex -36.2091 7.48904 1.5
      vertex -36.618 7.40211 -1.5
      vertex -36.2091 7.48904 -1.5
    endloop
  endfacet
  facet normal 0.743232 -0.669033 0
    outer loop
      vertex -37.618 6.67557 1.5
      vertex -37.3383 6.98629 -1.5
      vertex -37.3383 6.98629 1.5
    endloop
  endfacet
  facet normal 0.743232 -0.669033 0
    outer loop
      vertex -37.3383 6.98629 -1.5
      vertex -37.618 6.67557 1.5
      vertex -37.618 6.67557 -1.5
    endloop
  endfacet
  facet normal -0.994523 -0.104518 0
    outer loop
      vertex -34 5.5 -1.5
      vertex -34.0437 5.91582 1.5
      vertex -34.0437 5.91582 -1.5
    endloop
  endfacet
  facet normal -0.994523 -0.104518 0
    outer loop
      vertex -34.0437 5.91582 1.5
      vertex -34 5.5 -1.5
      vertex -34 5.5 1.5
    endloop
  endfacet
  facet normal -0.95106 0.309008 0
    outer loop
      vertex -34.1729 4.68653 -1.5
      vertex -34.0437 5.08418 1.5
      vertex -34.0437 5.08418 -1.5
    endloop
  endfacet
  facet normal -0.95106 0.309008 0
    outer loop
      vertex -34.0437 5.08418 1.5
      vertex -34.1729 4.68653 -1.5
      vertex -34.1729 4.68653 1.5
    endloop
  endfacet
  facet normal -0.587739 0.80905 0
    outer loop
      vertex -34.6617 4.01371 -1.5
      vertex -35 3.76795 1.5
      vertex -34.6617 4.01371 1.5
    endloop
  endfacet
  facet normal -0.587739 0.80905 0
    outer loop
      vertex -35 3.76795 1.5
      vertex -34.6617 4.01371 -1.5
      vertex -35 3.76795 -1.5
    endloop
  endfacet
  facet normal -0.95106 -0.309008 0
    outer loop
      vertex -34.0437 5.91582 -1.5
      vertex -34.1729 6.31347 1.5
      vertex -34.1729 6.31347 -1.5
    endloop
  endfacet
  facet normal -0.95106 -0.309008 0
    outer loop
      vertex -34.1729 6.31347 1.5
      vertex -34.0437 5.91582 -1.5
      vertex -34.0437 5.91582 1.5
    endloop
  endfacet
  facet normal -0.207947 -0.97814 0
    outer loop
      vertex -35.7909 7.48904 -1.5
      vertex -35.382 7.40211 1.5
      vertex -35.7909 7.48904 1.5
    endloop
  endfacet
  facet normal -0.207947 -0.97814 -0
    outer loop
      vertex -35.382 7.40211 1.5
      vertex -35.7909 7.48904 -1.5
      vertex -35.382 7.40211 -1.5
    endloop
  endfacet
  facet normal -0.865982 0.500074 0
    outer loop
      vertex -34.382 4.32443 -1.5
      vertex -34.1729 4.68653 1.5
      vertex -34.1729 4.68653 -1.5
    endloop
  endfacet
  facet normal -0.865982 0.500074 0
    outer loop
      vertex -34.1729 4.68653 1.5
      vertex -34.382 4.32443 -1.5
      vertex -34.382 4.32443 1.5
    endloop
  endfacet
  facet normal 0 1 -0
    outer loop
      vertex -35.7909 3.51096 -1.5
      vertex -36.2091 3.51096 1.5
      vertex -35.7909 3.51096 1.5
    endloop
  endfacet
  facet normal 0 1 0
    outer loop
      vertex -36.2091 3.51096 1.5
      vertex -35.7909 3.51096 -1.5
      vertex -36.2091 3.51096 -1.5
    endloop
  endfacet
  facet normal -0.207947 0.97814 0
    outer loop
      vertex -35.382 3.59789 -1.5
      vertex -35.7909 3.51096 1.5
      vertex -35.382 3.59789 1.5
    endloop
  endfacet
  facet normal -0.207947 0.97814 0
    outer loop
      vertex -35.7909 3.51096 1.5
      vertex -35.382 3.59789 -1.5
      vertex -35.7909 3.51096 -1.5
    endloop
  endfacet
  facet normal -0.406702 0.913561 0
    outer loop
      vertex -35 3.76795 -1.5
      vertex -35.382 3.59789 1.5
      vertex -35 3.76795 1.5
    endloop
  endfacet
  facet normal -0.406702 0.913561 0
    outer loop
      vertex -35.382 3.59789 1.5
      vertex -35 3.76795 -1.5
      vertex -35.382 3.59789 -1.5
    endloop
  endfacet
  facet normal 0.207947 0.97814 -0
    outer loop
      vertex -36.2091 3.51096 -1.5
      vertex -36.618 3.59789 1.5
      vertex -36.2091 3.51096 1.5
    endloop
  endfacet
  facet normal 0.207947 0.97814 0
    outer loop
      vertex -36.618 3.59789 1.5
      vertex -36.2091 3.51096 -1.5
      vertex -36.618 3.59789 -1.5
    endloop
  endfacet
  facet normal 0.865982 0.500074 0
    outer loop
      vertex -37.618 4.32443 1.5
      vertex -37.8271 4.68653 -1.5
      vertex -37.8271 4.68653 1.5
    endloop
  endfacet
  facet normal 0.865982 0.500074 0
    outer loop
      vertex -37.8271 4.68653 -1.5
      vertex -37.618 4.32443 1.5
      vertex -37.618 4.32443 -1.5
    endloop
  endfacet
  facet normal 0.95106 0.309008 0
    outer loop
      vertex -37.8271 4.68653 1.5
      vertex -37.9563 5.08418 -1.5
      vertex -37.9563 5.08418 1.5
    endloop
  endfacet
  facet normal 0.95106 0.309008 0
    outer loop
      vertex -37.9563 5.08418 -1.5
      vertex -37.8271 4.68653 1.5
      vertex -37.8271 4.68653 -1.5
    endloop
  endfacet
  facet normal 0.743232 0.669033 0
    outer loop
      vertex -37.3383 4.01371 1.5
      vertex -37.618 4.32443 -1.5
      vertex -37.618 4.32443 1.5
    endloop
  endfacet
  facet normal 0.743232 0.669033 0
    outer loop
      vertex -37.618 4.32443 -1.5
      vertex -37.3383 4.01371 1.5
      vertex -37.3383 4.01371 -1.5
    endloop
  endfacet
  facet normal -0.743232 0.669033 0
    outer loop
      vertex -34.6617 4.01371 -1.5
      vertex -34.382 4.32443 1.5
      vertex -34.382 4.32443 -1.5
    endloop
  endfacet
  facet normal -0.743232 0.669033 0
    outer loop
      vertex -34.382 4.32443 1.5
      vertex -34.6617 4.01371 -1.5
      vertex -34.6617 4.01371 1.5
    endloop
  endfacet
  facet normal 0.587739 0.80905 -0
    outer loop
      vertex -37 3.76795 -1.5
      vertex -37.3383 4.01371 1.5
      vertex -37 3.76795 1.5
    endloop
  endfacet
  facet normal 0.587739 0.80905 0
    outer loop
      vertex -37.3383 4.01371 1.5
      vertex -37 3.76795 -1.5
      vertex -37.3383 4.01371 -1.5
    endloop
  endfacet
  facet normal 0.406702 0.913561 -0
    outer loop
      vertex -36.618 3.59789 -1.5
      vertex -37 3.76795 1.5
      vertex -36.618 3.59789 1.5
    endloop
  endfacet
  facet normal 0.406702 0.913561 0
    outer loop
      vertex -37 3.76795 1.5
      vertex -36.618 3.59789 -1.5
      vertex -37 3.76795 -1.5
    endloop
  endfacet
  facet normal -0.865982 -0.500074 0
    outer loop
      vertex 37.8271 6.31347 -1.5
      vertex 37.618 6.67557 1.5
      vertex 37.618 6.67557 -1.5
    endloop
  endfacet
  facet normal -0.865982 -0.500074 0
    outer loop
      vertex 37.618 6.67557 1.5
      vertex 37.8271 6.31347 -1.5
      vertex 37.8271 6.31347 1.5
    endloop
  endfacet
  facet normal -0.743232 -0.669033 0
    outer loop
      vertex 37.618 6.67557 -1.5
      vertex 37.3383 6.98629 1.5
      vertex 37.3383 6.98629 -1.5
    endloop
  endfacet
  facet normal -0.743232 -0.669033 0
    outer loop
      vertex 37.3383 6.98629 1.5
      vertex 37.618 6.67557 -1.5
      vertex 37.618 6.67557 1.5
    endloop
  endfacet
  facet normal 0 -1 0
    outer loop
      vertex 35.7909 7.48904 -1.5
      vertex 36.2091 7.48904 1.5
      vertex 35.7909 7.48904 1.5
    endloop
  endfacet
  facet normal 0 -1 -0
    outer loop
      vertex 36.2091 7.48904 1.5
      vertex 35.7909 7.48904 -1.5
      vertex 36.2091 7.48904 -1.5
    endloop
  endfacet
  facet normal -0.207947 -0.97814 0
    outer loop
      vertex 36.2091 7.48904 -1.5
      vertex 36.618 7.40211 1.5
      vertex 36.2091 7.48904 1.5
    endloop
  endfacet
  facet normal -0.207947 -0.97814 -0
    outer loop
      vertex 36.618 7.40211 1.5
      vertex 36.2091 7.48904 -1.5
      vertex 36.618 7.40211 -1.5
    endloop
  endfacet
  facet normal 0.587739 -0.80905 0
    outer loop
      vertex 34.6617 6.98629 -1.5
      vertex 35 7.23205 1.5
      vertex 34.6617 6.98629 1.5
    endloop
  endfacet
  facet normal 0.587739 -0.80905 0
    outer loop
      vertex 35 7.23205 1.5
      vertex 34.6617 6.98629 -1.5
      vertex 35 7.23205 -1.5
    endloop
  endfacet
  facet normal 0.95106 -0.309008 0
    outer loop
      vertex 34.0437 5.91582 1.5
      vertex 34.1729 6.31347 -1.5
      vertex 34.1729 6.31347 1.5
    endloop
  endfacet
  facet normal 0.95106 -0.309008 0
    outer loop
      vertex 34.1729 6.31347 -1.5
      vertex 34.0437 5.91582 1.5
      vertex 34.0437 5.91582 -1.5
    endloop
  endfacet
  facet normal 0.743232 -0.669033 0
    outer loop
      vertex 34.382 6.67557 1.5
      vertex 34.6617 6.98629 -1.5
      vertex 34.6617 6.98629 1.5
    endloop
  endfacet
  facet normal 0.743232 -0.669033 0
    outer loop
      vertex 34.6617 6.98629 -1.5
      vertex 34.382 6.67557 1.5
      vertex 34.382 6.67557 -1.5
    endloop
  endfacet
  facet normal -0.994523 0.104518 0
    outer loop
      vertex 37.9563 5.08418 -1.5
      vertex 38 5.5 1.5
      vertex 38 5.5 -1.5
    endloop
  endfacet
  facet normal -0.994523 0.104518 0
    outer loop
      vertex 38 5.5 1.5
      vertex 37.9563 5.08418 -1.5
      vertex 37.9563 5.08418 1.5
    endloop
  endfacet
  facet normal -0.95106 -0.309008 0
    outer loop
      vertex 37.9563 5.91582 -1.5
      vertex 37.8271 6.31347 1.5
      vertex 37.8271 6.31347 -1.5
    endloop
  endfacet
  facet normal -0.95106 -0.309008 0
    outer loop
      vertex 37.8271 6.31347 1.5
      vertex 37.9563 5.91582 -1.5
      vertex 37.9563 5.91582 1.5
    endloop
  endfacet
  facet normal -0.587739 -0.80905 0
    outer loop
      vertex 37 7.23205 -1.5
      vertex 37.3383 6.98629 1.5
      vertex 37 7.23205 1.5
    endloop
  endfacet
  facet normal -0.587739 -0.80905 -0
    outer loop
      vertex 37.3383 6.98629 1.5
      vertex 37 7.23205 -1.5
      vertex 37.3383 6.98629 -1.5
    endloop
  endfacet
  facet normal 0.207947 -0.97814 0
    outer loop
      vertex 35.382 7.40211 -1.5
      vertex 35.7909 7.48904 1.5
      vertex 35.382 7.40211 1.5
    endloop
  endfacet
  facet normal 0.207947 -0.97814 0
    outer loop
      vertex 35.7909 7.48904 1.5
      vertex 35.382 7.40211 -1.5
      vertex 35.7909 7.48904 -1.5
    endloop
  endfacet
  facet normal -0.406702 -0.913561 0
    outer loop
      vertex 36.618 7.40211 -1.5
      vertex 37 7.23205 1.5
      vertex 36.618 7.40211 1.5
    endloop
  endfacet
  facet normal -0.406702 -0.913561 -0
    outer loop
      vertex 37 7.23205 1.5
      vertex 36.618 7.40211 -1.5
      vertex 37 7.23205 -1.5
    endloop
  endfacet
  facet normal 0.994523 0.104518 0
    outer loop
      vertex 34.0437 5.08418 1.5
      vertex 34 5.5 -1.5
      vertex 34 5.5 1.5
    endloop
  endfacet
  facet normal 0.994523 0.104518 0
    outer loop
      vertex 34 5.5 -1.5
      vertex 34.0437 5.08418 1.5
      vertex 34.0437 5.08418 -1.5
    endloop
  endfacet
  facet normal 0.865982 -0.500074 0
    outer loop
      vertex 34.1729 6.31347 1.5
      vertex 34.382 6.67557 -1.5
      vertex 34.382 6.67557 1.5
    endloop
  endfacet
  facet normal 0.865982 -0.500074 0
    outer loop
      vertex 34.382 6.67557 -1.5
      vertex 34.1729 6.31347 1.5
      vertex 34.1729 6.31347 -1.5
    endloop
  endfacet
  facet normal 0.406702 -0.913561 0
    outer loop
      vertex 35 7.23205 -1.5
      vertex 35.382 7.40211 1.5
      vertex 35 7.23205 1.5
    endloop
  endfacet
  facet normal 0.406702 -0.913561 0
    outer loop
      vertex 35.382 7.40211 1.5
      vertex 35 7.23205 -1.5
      vertex 35.382 7.40211 -1.5
    endloop
  endfacet
  facet normal -0.994523 -0.104518 0
    outer loop
      vertex 38 5.5 -1.5
      vertex 37.9563 5.91582 1.5
      vertex 37.9563 5.91582 -1.5
    endloop
  endfacet
  facet normal -0.994523 -0.104518 0
    outer loop
      vertex 37.9563 5.91582 1.5
      vertex 38 5.5 -1.5
      vertex 38 5.5 1.5
    endloop
  endfacet
  facet normal 0.743232 0.669033 0
    outer loop
      vertex 34.6617 4.01371 1.5
      vertex 34.382 4.32443 -1.5
      vertex 34.382 4.32443 1.5
    endloop
  endfacet
  facet normal 0.743232 0.669033 0
    outer loop
      vertex 34.382 4.32443 -1.5
      vertex 34.6617 4.01371 1.5
      vertex 34.6617 4.01371 -1.5
    endloop
  endfacet
  facet normal -0.406702 0.913561 0
    outer loop
      vertex 37 3.76795 -1.5
      vertex 36.618 3.59789 1.5
      vertex 37 3.76795 1.5
    endloop
  endfacet
  facet normal -0.406702 0.913561 0
    outer loop
      vertex 36.618 3.59789 1.5
      vertex 37 3.76795 -1.5
      vertex 36.618 3.59789 -1.5
    endloop
  endfacet
  facet normal -0.587739 0.80905 0
    outer loop
      vertex 37.3383 4.01371 -1.5
      vertex 37 3.76795 1.5
      vertex 37.3383 4.01371 1.5
    endloop
  endfacet
  facet normal -0.587739 0.80905 0
    outer loop
      vertex 37 3.76795 1.5
      vertex 37.3383 4.01371 -1.5
      vertex 37 3.76795 -1.5
    endloop
  endfacet
  facet normal 0.994523 -0.104518 0
    outer loop
      vertex 34 5.5 1.5
      vertex 34.0437 5.91582 -1.5
      vertex 34.0437 5.91582 1.5
    endloop
  endfacet
  facet normal 0.994523 -0.104518 0
    outer loop
      vertex 34.0437 5.91582 -1.5
      vertex 34 5.5 1.5
      vertex 34 5.5 -1.5
    endloop
  endfacet
  facet normal -0.865982 0.500074 0
    outer loop
      vertex 37.618 4.32443 -1.5
      vertex 37.8271 4.68653 1.5
      vertex 37.8271 4.68653 -1.5
    endloop
  endfacet
  facet normal -0.865982 0.500074 0
    outer loop
      vertex 37.8271 4.68653 1.5
      vertex 37.618 4.32443 -1.5
      vertex 37.618 4.32443 1.5
    endloop
  endfacet
  facet normal -0.207947 0.97814 0
    outer loop
      vertex 36.618 3.59789 -1.5
      vertex 36.2091 3.51096 1.5
      vertex 36.618 3.59789 1.5
    endloop
  endfacet
  facet normal -0.207947 0.97814 0
    outer loop
      vertex 36.2091 3.51096 1.5
      vertex 36.618 3.59789 -1.5
      vertex 36.2091 3.51096 -1.5
    endloop
  endfacet
  facet normal -0.95106 0.309008 0
    outer loop
      vertex 37.8271 4.68653 -1.5
      vertex 37.9563 5.08418 1.5
      vertex 37.9563 5.08418 -1.5
    endloop
  endfacet
  facet normal -0.95106 0.309008 0
    outer loop
      vertex 37.9563 5.08418 1.5
      vertex 37.8271 4.68653 -1.5
      vertex 37.8271 4.68653 1.5
    endloop
  endfacet
  facet normal 0 1 -0
    outer loop
      vertex 36.2091 3.51096 -1.5
      vertex 35.7909 3.51096 1.5
      vertex 36.2091 3.51096 1.5
    endloop
  endfacet
  facet normal 0 1 0
    outer loop
      vertex 35.7909 3.51096 1.5
      vertex 36.2091 3.51096 -1.5
      vertex 35.7909 3.51096 -1.5
    endloop
  endfacet
  facet normal 0.865982 0.500074 0
    outer loop
      vertex 34.382 4.32443 1.5
      vertex 34.1729 4.68653 -1.5
      vertex 34.1729 4.68653 1.5
    endloop
  endfacet
  facet normal 0.865982 0.500074 0
    outer loop
      vertex 34.1729 4.68653 -1.5
      vertex 34.382 4.32443 1.5
      vertex 34.382 4.32443 -1.5
    endloop
  endfacet
  facet normal 0.95106 0.309008 0
    outer loop
      vertex 34.1729 4.68653 1.5
      vertex 34.0437 5.08418 -1.5
      vertex 34.0437 5.08418 1.5
    endloop
  endfacet
  facet normal 0.95106 0.309008 0
    outer loop
      vertex 34.0437 5.08418 -1.5
      vertex 34.1729 4.68653 1.5
      vertex 34.1729 4.68653 -1.5
    endloop
  endfacet
  facet normal 0.587739 0.80905 -0
    outer loop
      vertex 35 3.76795 -1.5
      vertex 34.6617 4.01371 1.5
      vertex 35 3.76795 1.5
    endloop
  endfacet
  facet normal 0.587739 0.80905 0
    outer loop
      vertex 34.6617 4.01371 1.5
      vertex 35 3.76795 -1.5
      vertex 34.6617 4.01371 -1.5
    endloop
  endfacet
  facet normal -0.743232 0.669033 0
    outer loop
      vertex 37.3383 4.01371 -1.5
      vertex 37.618 4.32443 1.5
      vertex 37.618 4.32443 -1.5
    endloop
  endfacet
  facet normal -0.743232 0.669033 0
    outer loop
      vertex 37.618 4.32443 1.5
      vertex 37.3383 4.01371 -1.5
      vertex 37.3383 4.01371 1.5
    endloop
  endfacet
  facet normal 0.207947 0.97814 -0
    outer loop
      vertex 35.7909 3.51096 -1.5
      vertex 35.382 3.59789 1.5
      vertex 35.7909 3.51096 1.5
    endloop
  endfacet
  facet normal 0.207947 0.97814 0
    outer loop
      vertex 35.382 3.59789 1.5
      vertex 35.7909 3.51096 -1.5
      vertex 35.382 3.59789 -1.5
    endloop
  endfacet
  facet normal 0.406702 0.913561 -0
    outer loop
      vertex 35.382 3.59789 -1.5
      vertex 35 3.76795 1.5
      vertex 35.382 3.59789 1.5
    endloop
  endfacet
  facet normal 0.406702 0.913561 0
    outer loop
      vertex 35 3.76795 1.5
      vertex 35.382 3.59789 -1.5
      vertex 35 3.76795 -1.5
    endloop
  endfacet
  facet normal 0 1 0
    outer loop
      vertex -37 23 16.5
      vertex -44 23 10.6494
      vertex -44 23 16.5
    endloop
  endfacet
  facet normal -0 1 0
    outer loop
      vertex -44 23 10.6494
      vertex -37 23 16.5
      vertex -36.6024 23 9.74106
    endloop
  endfacet
  facet normal 0 1 0
    outer loop
      vertex 44 23 6.5
      vertex 37 23 1.5
      vertex 37 23 6.5
    endloop
  endfacet
  facet normal 0 1 0
    outer loop
      vertex 37 23 1.5
      vertex 35.4496 23 0.894181
      vertex 35.4496 23 1.5
    endloop
  endfacet
  facet normal 0 1 0
    outer loop
      vertex 37 23 1.5
      vertex 44 23 -0.155671
      vertex 35.4496 23 0.894181
    endloop
  endfacet
  facet normal 0 1 -0
    outer loop
      vertex 44 23 -0.155671
      vertex 37 23 1.5
      vertex 44 23 6.5
    endloop
  endfacet
  facet normal 0 -1 0
    outer loop
      vertex -44 24.8 10.6494
      vertex -37 24.8 16.5
      vertex -44 24.8 16.5
    endloop
  endfacet
  facet normal 0 -1 -0
    outer loop
      vertex -37 24.8 16.5
      vertex -44 24.8 10.6494
      vertex -36.6024 24.8 9.74106
    endloop
  endfacet
  facet normal 0 -1 0
    outer loop
      vertex 36.3132 24.8 1.5
      vertex 36.3132 24.8 0.788155
      vertex 37 24.8 1.5
    endloop
  endfacet
  facet normal 0 -1 0
    outer loop
      vertex 37 24.8 1.5
      vertex 44 24.8 6.5
      vertex 37 24.8 6.5
    endloop
  endfacet
  facet normal 0 -1 0
    outer loop
      vertex 44 24.8 -0.155671
      vertex 37 24.8 1.5
      vertex 36.3132 24.8 0.788155
    endloop
  endfacet
  facet normal 0 -1 0
    outer loop
      vertex 37 24.8 1.5
      vertex 44 24.8 -0.155671
      vertex 44 24.8 6.5
    endloop
  endfacet
  facet normal 0.12187 0 0.992546
    outer loop
      vertex 36.3132 24.8 0.788155
      vertex 44 23 -0.155671
      vertex 44 24.8 -0.155671
    endloop
  endfacet
  facet normal 0.12187 -7.51551e-07 0.992546
    outer loop
      vertex 35.6403 23.3404 0.870776
      vertex 44 23 -0.155671
      vertex 36.3132 24.8 0.788155
    endloop
  endfacet
  facet normal 0.121869 -2.88719e-05 0.992546
    outer loop
      vertex 44 23 -0.155671
      vertex 35.6403 23.3404 0.870776
      vertex 35.4496 23 0.894181
    endloop
  endfacet
  facet normal 0.121873 0 0.992546
    outer loop
      vertex -44 24.8 10.6494
      vertex -36.6024 23 9.74106
      vertex -36.6024 24.8 9.74106
    endloop
  endfacet
  facet normal 0.121873 0 0.992546
    outer loop
      vertex -36.6024 23 9.74106
      vertex -44 24.8 10.6494
      vertex -44 23 10.6494
    endloop
  endfacet
endsolid OpenSCAD_Model
