solid OpenSCAD_Model
  facet normal -1 0 0
    outer loop
      vertex -20 -20 0
      vertex -20 -10 0.599999
      vertex -20 -10 0
    endloop
  endfacet
  facet normal -1 -0 0
    outer loop
      vertex -20 -10 0.599999
      vertex -20 -20 0
      vertex -20 -20 0.599999
    endloop
  endfacet
  facet normal -1 0 0
    outer loop
      vertex -20 10 0
      vertex -20 20 0.599999
      vertex -20 20 0
    endloop
  endfacet
  facet normal -1 -0 0
    outer loop
      vertex -20 20 0.599999
      vertex -20 10 0
      vertex -20 10 0.599999
    endloop
  endfacet
  facet normal 0 0 1
    outer loop
      vertex -10 20 0.599999
      vertex -15.5 15.5 0.599999
      vertex -10 18.9 0.599999
    endloop
  endfacet
  facet normal 0 0 1
    outer loop
      vertex -15.5 15.5 0.599999
      vertex -18.9 10 0.599999
      vertex -15.5 -15.5 0.599999
    endloop
  endfacet
  facet normal -0 0 1
    outer loop
      vertex -20 20 0.599999
      vertex -15.5 15.5 0.599999
      vertex -10 20 0.599999
    endloop
  endfacet
  facet normal 0 0 1
    outer loop
      vertex -20 10 0.599999
      vertex -15.5 15.5 0.599999
      vertex -20 20 0.599999
    endloop
  endfacet
  facet normal 0 0 1
    outer loop
      vertex -15.5 15.5 0.599999
      vertex -20 10 0.599999
      vertex -18.9 10 0.599999
    endloop
  endfacet
  facet normal 0 0 1
    outer loop
      vertex 15.5 -15.5 0.599999
      vertex -10 -18.9 0.599999
      vertex 10 -18.9 0.599999
    endloop
  endfacet
  facet normal -0 0 1
    outer loop
      vertex -15.5 -15.5 0.599999
      vertex -10 -18.9 0.599999
      vertex 15.5 -15.5 0.599999
    endloop
  endfacet
  facet normal 0 0 1
    outer loop
      vertex -15.5 -15.5 0.599999
      vertex -10 -20 0.599999
      vertex -10 -18.9 0.599999
    endloop
  endfacet
  facet normal -0 0 1
    outer loop
      vertex -18.9 -10 0.599999
      vertex -15.5 -15.5 0.599999
      vertex -18.9 10 0.599999
    endloop
  endfacet
  facet normal -0 0 1
    outer loop
      vertex -20 -10 0.599999
      vertex -15.5 -15.5 0.599999
      vertex -18.9 -10 0.599999
    endloop
  endfacet
  facet normal 0 0 1
    outer loop
      vertex -15.5 -15.5 0.599999
      vertex -20 -20 0.599999
      vertex -10 -20 0.599999
    endloop
  endfacet
  facet normal 0 0 1
    outer loop
      vertex -20 -20 0.599999
      vertex -15.5 -15.5 0.599999
      vertex -20 -10 0.599999
    endloop
  endfacet
  facet normal -0 0 1
    outer loop
      vertex 15.5 15.5 0.599999
      vertex 20 10 0.599999
      vertex 20 20 0.599999
    endloop
  endfacet
  facet normal 0 0 1
    outer loop
      vertex 18.9 10 0.599999
      vertex 15.5 15.5 0.599999
      vertex 18.9 -10 0.599999
    endloop
  endfacet
  facet normal 0 0 1
    outer loop
      vertex 20 10 0.599999
      vertex 15.5 15.5 0.599999
      vertex 18.9 10 0.599999
    endloop
  endfacet
  facet normal -0 0 1
    outer loop
      vertex 10 20 0.599999
      vertex 15.5 15.5 0.599999
      vertex 20 20 0.599999
    endloop
  endfacet
  facet normal -0 0 1
    outer loop
      vertex 10 18.9 0.599999
      vertex 15.5 15.5 0.599999
      vertex 10 20 0.599999
    endloop
  endfacet
  facet normal -0 0 1
    outer loop
      vertex -10 18.9 0.599999
      vertex 15.5 15.5 0.599999
      vertex 10 18.9 0.599999
    endloop
  endfacet
  facet normal 0 0 1
    outer loop
      vertex 15.5 15.5 0.599999
      vertex -10 18.9 0.599999
      vertex -15.5 15.5 0.599999
    endloop
  endfacet
  facet normal 0 0 1
    outer loop
      vertex 15.5 -15.5 0.599999
      vertex 20 -10 0.599999
      vertex 18.9 -10 0.599999
    endloop
  endfacet
  facet normal 0 0 1
    outer loop
      vertex 15.5 -15.5 0.599999
      vertex 18.9 -10 0.599999
      vertex 15.5 15.5 0.599999
    endloop
  endfacet
  facet normal 0 0 1
    outer loop
      vertex 20 -10 0.599999
      vertex 15.5 -15.5 0.599999
      vertex 20 -20 0.599999
    endloop
  endfacet
  facet normal 0 0 1
    outer loop
      vertex 10 -20 0.599999
      vertex 15.5 -15.5 0.599999
      vertex 10 -18.9 0.599999
    endloop
  endfacet
  facet normal 0 0 1
    outer loop
      vertex 15.5 -15.5 0.599999
      vertex 10 -20 0.599999
      vertex 20 -20 0.599999
    endloop
  endfacet
  facet normal 1 -0 0
    outer loop
      vertex 20 -20 0.599999
      vertex 20 -10 0
      vertex 20 -10 0.599999
    endloop
  endfacet
  facet normal 1 0 0
    outer loop
      vertex 20 -10 0
      vertex 20 -20 0.599999
      vertex 20 -20 0
    endloop
  endfacet
  facet normal 1 -0 0
    outer loop
      vertex 20 10 0.599999
      vertex 20 20 0
      vertex 20 20 0.599999
    endloop
  endfacet
  facet normal 1 0 0
    outer loop
      vertex 20 20 0
      vertex 20 10 0.599999
      vertex 20 10 0
    endloop
  endfacet
  facet normal 0 1 -0
    outer loop
      vertex 20 20 0
      vertex 10 20 0.599999
      vertex 20 20 0.599999
    endloop
  endfacet
  facet normal 0 1 0
    outer loop
      vertex 10 20 0.599999
      vertex 20 20 0
      vertex 10 20 0
    endloop
  endfacet
  facet normal 0 1 -0
    outer loop
      vertex -10 20 0
      vertex -20 20 0.599999
      vertex -10 20 0.599999
    endloop
  endfacet
  facet normal 0 1 0
    outer loop
      vertex -20 20 0.599999
      vertex -10 20 0
      vertex -20 20 0
    endloop
  endfacet
  facet normal 0 0 -1
    outer loop
      vertex 10 -20.4 0
      vertex -10 -20.4 0
      vertex 10 -20 0
    endloop
  endfacet
  facet normal 0 0 -1
    outer loop
      vertex 15.5 -15.5 0
      vertex 20 -10 0
      vertex 20 -20 0
    endloop
  endfacet
  facet normal -0 0 -1
    outer loop
      vertex 20 -10 0
      vertex 15.5 -15.5 0
      vertex 20 10 0
    endloop
  endfacet
  facet normal 0 0 -1
    outer loop
      vertex 15.5 15.5 0
      vertex 20 10 0
      vertex 15.5 -15.5 0
    endloop
  endfacet
  facet normal 0 0 -1
    outer loop
      vertex 10 -20 0
      vertex 15.5 -15.5 0
      vertex 20 -20 0
    endloop
  endfacet
  facet normal 0 0 -1
    outer loop
      vertex -10 -20 0
      vertex 10 -20 0
      vertex -10 -20.4 0
    endloop
  endfacet
  facet normal 0 0 -1
    outer loop
      vertex 10 -20 0
      vertex -10 -20 0
      vertex 15.5 -15.5 0
    endloop
  endfacet
  facet normal 0 0 -1
    outer loop
      vertex -10 -20 0
      vertex -15.5 -15.5 0
      vertex 15.5 -15.5 0
    endloop
  endfacet
  facet normal 0 0 -1
    outer loop
      vertex -20 -10 0
      vertex -15.5 -15.5 0
      vertex -20 -20 0
    endloop
  endfacet
  facet normal 0 0 -1
    outer loop
      vertex -20 -20 0
      vertex -15.5 -15.5 0
      vertex -10 -20 0
    endloop
  endfacet
  facet normal 0 0 -1
    outer loop
      vertex 20 -10 0
      vertex 20.4 10 0
      vertex 20.4 -10 0
    endloop
  endfacet
  facet normal -0 0 -1
    outer loop
      vertex 20.4 10 0
      vertex 20 -10 0
      vertex 20 10 0
    endloop
  endfacet
  facet normal 0 0 -1
    outer loop
      vertex 20 10 0
      vertex 15.5 15.5 0
      vertex 20 20 0
    endloop
  endfacet
  facet normal 0 0 -1
    outer loop
      vertex 15.5 15.5 0
      vertex 10 20 0
      vertex 20 20 0
    endloop
  endfacet
  facet normal 0 0 -1
    outer loop
      vertex 10 20 0
      vertex -10 20 0
      vertex 10 20.4 0
    endloop
  endfacet
  facet normal 0 0 -1
    outer loop
      vertex 15.5 15.5 0
      vertex -10 20 0
      vertex 10 20 0
    endloop
  endfacet
  facet normal 0 0 -1
    outer loop
      vertex -15.5 15.5 0
      vertex -10 20 0
      vertex 15.5 15.5 0
    endloop
  endfacet
  facet normal 0 0 -1
    outer loop
      vertex -15.5 -15.5 0
      vertex -20 -10 0
      vertex -15.5 15.5 0
    endloop
  endfacet
  facet normal 0 0 -1
    outer loop
      vertex -20 10 0
      vertex -15.5 15.5 0
      vertex -20 -10 0
    endloop
  endfacet
  facet normal 0 0 -1
    outer loop
      vertex -15.5 15.5 0
      vertex -20 20 0
      vertex -10 20 0
    endloop
  endfacet
  facet normal 0 0 -1
    outer loop
      vertex -20 20 0
      vertex -15.5 15.5 0
      vertex -20 10 0
    endloop
  endfacet
  facet normal 0 0 -1
    outer loop
      vertex -20.4 -10 0
      vertex -20 10 0
      vertex -20 -10 0
    endloop
  endfacet
  facet normal -0 0 -1
    outer loop
      vertex -20 10 0
      vertex -20.4 -10 0
      vertex -20.4 10 0
    endloop
  endfacet
  facet normal -0 0 -1
    outer loop
      vertex 10 20.4 0
      vertex -10 20 0
      vertex -10 20.4 0
    endloop
  endfacet
  facet normal 0 -1 0
    outer loop
      vertex 10 -20 0
      vertex 20 -20 0.599999
      vertex 10 -20 0.599999
    endloop
  endfacet
  facet normal 0 -1 -0
    outer loop
      vertex 20 -20 0.599999
      vertex 10 -20 0
      vertex 20 -20 0
    endloop
  endfacet
  facet normal 0 -1 0
    outer loop
      vertex -20 -20 0
      vertex -10 -20 0.599999
      vertex -20 -20 0.599999
    endloop
  endfacet
  facet normal 0 -1 -0
    outer loop
      vertex -10 -20 0.599999
      vertex -20 -20 0
      vertex -10 -20 0
    endloop
  endfacet
  facet normal -1 0 0
    outer loop
      vertex 18.9 -10 0.599999
      vertex 18.9 10 2
      vertex 18.9 10 0.599999
    endloop
  endfacet
  facet normal -1 -0 0
    outer loop
      vertex 18.9 10 2
      vertex 18.9 -10 0.599999
      vertex 18.9 -10 2
    endloop
  endfacet
  facet normal -0 0 1
    outer loop
      vertex 18.9 10 2
      vertex 20.4 -10 2
      vertex 20.4 10 2
    endloop
  endfacet
  facet normal 0 0 1
    outer loop
      vertex 20.4 -10 2
      vertex 18.9 10 2
      vertex 18.9 -10 2
    endloop
  endfacet
  facet normal 1 -0 0
    outer loop
      vertex 20.4 -10 2
      vertex 20.4 10 0
      vertex 20.4 10 2
    endloop
  endfacet
  facet normal 1 0 0
    outer loop
      vertex 20.4 10 0
      vertex 20.4 -10 2
      vertex 20.4 -10 0
    endloop
  endfacet
  facet normal 0 1 0
    outer loop
      vertex 20.4 10 2
      vertex 20 10 0.599999
      vertex 18.9 10 2
    endloop
  endfacet
  facet normal 0 1 -0
    outer loop
      vertex 20.4 10 0
      vertex 20 10 0.599999
      vertex 20.4 10 2
    endloop
  endfacet
  facet normal 0 1 0
    outer loop
      vertex 20 10 0.599999
      vertex 20.4 10 0
      vertex 20 10 0
    endloop
  endfacet
  facet normal 0 1 0
    outer loop
      vertex 18.9 10 2
      vertex 20 10 0.599999
      vertex 18.9 10 0.599999
    endloop
  endfacet
  facet normal 0 -1 0
    outer loop
      vertex 20 -10 0.599999
      vertex 18.9 -10 2
      vertex 18.9 -10 0.599999
    endloop
  endfacet
  facet normal 0 -1 0
    outer loop
      vertex 18.9 -10 2
      vertex 20 -10 0.599999
      vertex 20.4 -10 2
    endloop
  endfacet
  facet normal 0 -1 0
    outer loop
      vertex 20.4 -10 0
      vertex 20 -10 0.599999
      vertex 20 -10 0
    endloop
  endfacet
  facet normal 0 -1 0
    outer loop
      vertex 20 -10 0.599999
      vertex 20.4 -10 0
      vertex 20.4 -10 2
    endloop
  endfacet
  facet normal -1 0 0
    outer loop
      vertex -20.4 -10 0
      vertex -20.4 10 2
      vertex -20.4 10 0
    endloop
  endfacet
  facet normal -1 -0 0
    outer loop
      vertex -20.4 10 2
      vertex -20.4 -10 0
      vertex -20.4 -10 2
    endloop
  endfacet
  facet normal -0 0 1
    outer loop
      vertex -20.4 10 2
      vertex -18.9 -10 2
      vertex -18.9 10 2
    endloop
  endfacet
  facet normal 0 0 1
    outer loop
      vertex -18.9 -10 2
      vertex -20.4 10 2
      vertex -20.4 -10 2
    endloop
  endfacet
  facet normal 1 -0 0
    outer loop
      vertex -18.9 -10 2
      vertex -18.9 10 0.599999
      vertex -18.9 10 2
    endloop
  endfacet
  facet normal 1 0 0
    outer loop
      vertex -18.9 10 0.599999
      vertex -18.9 -10 2
      vertex -18.9 -10 0.599999
    endloop
  endfacet
  facet normal 0 1 0
    outer loop
      vertex -20 10 0.599999
      vertex -18.9 10 2
      vertex -18.9 10 0.599999
    endloop
  endfacet
  facet normal 0 1 0
    outer loop
      vertex -18.9 10 2
      vertex -20 10 0.599999
      vertex -20.4 10 2
    endloop
  endfacet
  facet normal 0 1 0
    outer loop
      vertex -20.4 10 0
      vertex -20 10 0.599999
      vertex -20 10 0
    endloop
  endfacet
  facet normal 0 1 0
    outer loop
      vertex -20 10 0.599999
      vertex -20.4 10 0
      vertex -20.4 10 2
    endloop
  endfacet
  facet normal 0 -1 0
    outer loop
      vertex -20.4 -10 2
      vertex -20 -10 0.599999
      vertex -18.9 -10 2
    endloop
  endfacet
  facet normal 0 -1 0
    outer loop
      vertex -20.4 -10 0
      vertex -20 -10 0.599999
      vertex -20.4 -10 2
    endloop
  endfacet
  facet normal 0 -1 -0
    outer loop
      vertex -20 -10 0.599999
      vertex -20.4 -10 0
      vertex -20 -10 0
    endloop
  endfacet
  facet normal 0 -1 -0
    outer loop
      vertex -18.9 -10 2
      vertex -20 -10 0.599999
      vertex -18.9 -10 0.599999
    endloop
  endfacet
  facet normal -1 0 0
    outer loop
      vertex -10 20 0.599999
      vertex -10 20.4 0
      vertex -10 20 0
    endloop
  endfacet
  facet normal -1 0 0
    outer loop
      vertex -10 20.4 0
      vertex -10 20 0.599999
      vertex -10 20.4 2
    endloop
  endfacet
  facet normal -1 0 0
    outer loop
      vertex -10 18.9 2
      vertex -10 20 0.599999
      vertex -10 18.9 0.599999
    endloop
  endfacet
  facet normal -1 0 0
    outer loop
      vertex -10 20 0.599999
      vertex -10 18.9 2
      vertex -10 20.4 2
    endloop
  endfacet
  facet normal -0 0 1
    outer loop
      vertex -10 20.4 2
      vertex 10 18.9 2
      vertex 10 20.4 2
    endloop
  endfacet
  facet normal 0 0 1
    outer loop
      vertex 10 18.9 2
      vertex -10 20.4 2
      vertex -10 18.9 2
    endloop
  endfacet
  facet normal 1 0 0
    outer loop
      vertex 10 20.4 2
      vertex 10 20 0.599999
      vertex 10 20.4 0
    endloop
  endfacet
  facet normal 1 -0 0
    outer loop
      vertex 10 18.9 2
      vertex 10 20 0.599999
      vertex 10 20.4 2
    endloop
  endfacet
  facet normal 1 0 0
    outer loop
      vertex 10 20 0.599999
      vertex 10 18.9 2
      vertex 10 18.9 0.599999
    endloop
  endfacet
  facet normal 1 0 0
    outer loop
      vertex 10 20.4 0
      vertex 10 20 0.599999
      vertex 10 20 0
    endloop
  endfacet
  facet normal 0 1 -0
    outer loop
      vertex 10 20.4 0
      vertex -10 20.4 2
      vertex 10 20.4 2
    endloop
  endfacet
  facet normal 0 1 0
    outer loop
      vertex -10 20.4 2
      vertex 10 20.4 0
      vertex -10 20.4 0
    endloop
  endfacet
  facet normal 0 -1 0
    outer loop
      vertex -10 18.9 0.599999
      vertex 10 18.9 2
      vertex -10 18.9 2
    endloop
  endfacet
  facet normal 0 -1 -0
    outer loop
      vertex 10 18.9 2
      vertex -10 18.9 0.599999
      vertex 10 18.9 0.599999
    endloop
  endfacet
  facet normal -1 0 0
    outer loop
      vertex -10 -20 0
      vertex -10 -20.4 0
      vertex -10 -20 0.599999
    endloop
  endfacet
  facet normal -1 0 0
    outer loop
      vertex -10 -20 0.599999
      vertex -10 -18.9 2
      vertex -10 -18.9 0.599999
    endloop
  endfacet
  facet normal -1 0 0
    outer loop
      vertex -10 -20 0.599999
      vertex -10 -20.4 2
      vertex -10 -18.9 2
    endloop
  endfacet
  facet normal -1 0 0
    outer loop
      vertex -10 -20.4 2
      vertex -10 -20 0.599999
      vertex -10 -20.4 0
    endloop
  endfacet
  facet normal -0 0 1
    outer loop
      vertex -10 -18.9 2
      vertex 10 -20.4 2
      vertex 10 -18.9 2
    endloop
  endfacet
  facet normal 0 0 1
    outer loop
      vertex 10 -20.4 2
      vertex -10 -18.9 2
      vertex -10 -20.4 2
    endloop
  endfacet
  facet normal 1 0 0
    outer loop
      vertex 10 -18.9 2
      vertex 10 -20 0.599999
      vertex 10 -18.9 0.599999
    endloop
  endfacet
  facet normal 1 -0 0
    outer loop
      vertex 10 -20.4 2
      vertex 10 -20 0.599999
      vertex 10 -18.9 2
    endloop
  endfacet
  facet normal 1 0 0
    outer loop
      vertex 10 -20.4 0
      vertex 10 -20 0.599999
      vertex 10 -20.4 2
    endloop
  endfacet
  facet normal 1 0 0
    outer loop
      vertex 10 -20 0.599999
      vertex 10 -20.4 0
      vertex 10 -20 0
    endloop
  endfacet
  facet normal 0 1 -0
    outer loop
      vertex 10 -18.9 0.599999
      vertex -10 -18.9 2
      vertex 10 -18.9 2
    endloop
  endfacet
  facet normal 0 1 0
    outer loop
      vertex -10 -18.9 2
      vertex 10 -18.9 0.599999
      vertex -10 -18.9 0.599999
    endloop
  endfacet
  facet normal 0 -1 0
    outer loop
      vertex -10 -20.4 0
      vertex 10 -20.4 2
      vertex -10 -20.4 2
    endloop
  endfacet
  facet normal 0 -1 -0
    outer loop
      vertex 10 -20.4 2
      vertex -10 -20.4 0
      vertex 10 -20.4 0
    endloop
  endfacet
  facet normal 1 -0 0
    outer loop
      vertex -15.5 -15.5 0.599999
      vertex -15.5 15.5 0
      vertex -15.5 15.5 0.599999
    endloop
  endfacet
  facet normal 1 0 0
    outer loop
      vertex -15.5 15.5 0
      vertex -15.5 -15.5 0.599999
      vertex -15.5 -15.5 0
    endloop
  endfacet
  facet normal -1 0 0
    outer loop
      vertex 15.5 -15.5 0
      vertex 15.5 15.5 0.599999
      vertex 15.5 15.5 0
    endloop
  endfacet
  facet normal -1 -0 0
    outer loop
      vertex 15.5 15.5 0.599999
      vertex 15.5 -15.5 0
      vertex 15.5 -15.5 0.599999
    endloop
  endfacet
  facet normal 0 -1 0
    outer loop
      vertex -15.5 15.5 0
      vertex 15.5 15.5 0.599999
      vertex -15.5 15.5 0.599999
    endloop
  endfacet
  facet normal 0 -1 -0
    outer loop
      vertex 15.5 15.5 0.599999
      vertex -15.5 15.5 0
      vertex 15.5 15.5 0
    endloop
  endfacet
  facet normal 0 1 -0
    outer loop
      vertex 15.5 -15.5 0
      vertex -15.5 -15.5 0.599999
      vertex 15.5 -15.5 0.599999
    endloop
  endfacet
  facet normal 0 1 0
    outer loop
      vertex -15.5 -15.5 0.599999
      vertex 15.5 -15.5 0
      vertex -15.5 -15.5 0
    endloop
  endfacet
endsolid OpenSCAD_Model
