solid OpenSCAD_Model
  facet normal -2.22045e-16 -0 -1
    outer loop
      vertex -4 -14 8.88178e-16
      vertex 0 -15 0
      vertex -4 -15 8.88178e-16
    endloop
  endfacet
  facet normal -2.22045e-16 0 -1
    outer loop
      vertex 0 -15 0
      vertex -4 -14 8.88178e-16
      vertex 0 4 0
    endloop
  endfacet
  facet normal -2.22045e-16 5.52147e-23 -1
    outer loop
      vertex -19 0 4.21885e-15
      vertex 0 4 0
      vertex -4 -14 8.88178e-16
    endloop
  endfacet
  facet normal -2.22045e-16 -5.76923e-22 -1
    outer loop
      vertex -19 0 4.21885e-15
      vertex -39 4 8.65974e-15
      vertex 0 4 0
    endloop
  endfacet
  facet normal -2.22045e-16 -4.16667e-22 -1
    outer loop
      vertex -43 0 9.54792e-15
      vertex -39 4 8.65974e-15
      vertex -19 0 4.21885e-15
    endloop
  endfacet
  facet normal -2.22045e-16 -0 -1
    outer loop
      vertex -43 15 9.54792e-15
      vertex -39 4 8.65974e-15
      vertex -43 0 9.54792e-15
    endloop
  endfacet
  facet normal -2.22045e-16 0 -1
    outer loop
      vertex -39 4 8.65974e-15
      vertex -43 15 9.54792e-15
      vertex -39 15 8.65974e-15
    endloop
  endfacet
  facet normal -1 0 0
    outer loop
      vertex -43 0 9.54792e-15
      vertex -43 15 40
      vertex -43 15 9.54792e-15
    endloop
  endfacet
  facet normal -1 -0 0
    outer loop
      vertex -43 15 40
      vertex -43 0 9.54792e-15
      vertex -43 0 40
    endloop
  endfacet
  facet normal 0 0 1
    outer loop
      vertex -39 15 40
      vertex -43 15 40
      vertex -39 4 40
    endloop
  endfacet
  facet normal 0 0 1
    outer loop
      vertex 8.88178e-15 4 40
      vertex -4 -14 40
      vertex 8.88178e-15 -15 40
    endloop
  endfacet
  facet normal 0 0 1
    outer loop
      vertex 8.88178e-15 4 40
      vertex -18 0 40
      vertex -4 -14 40
    endloop
  endfacet
  facet normal -0 0 1
    outer loop
      vertex -39 4 40
      vertex -18 0 40
      vertex 8.88178e-15 4 40
    endloop
  endfacet
  facet normal 0 0 1
    outer loop
      vertex -39 4 40
      vertex -43 0 40
      vertex -18 0 40
    endloop
  endfacet
  facet normal 0 0 1
    outer loop
      vertex -43 0 40
      vertex -39 4 40
      vertex -43 15 40
    endloop
  endfacet
  facet normal 0 0 1
    outer loop
      vertex 8.88178e-15 -15 40
      vertex -4 -14 40
      vertex -4 -15 40
    endloop
  endfacet
  facet normal 0 1 0
    outer loop
      vertex -39 15 40
      vertex -43 15 9.54792e-15
      vertex -43 15 40
    endloop
  endfacet
  facet normal -0 1 0
    outer loop
      vertex -43 15 9.54792e-15
      vertex -39 15 40
      vertex -39 15 8.65974e-15
    endloop
  endfacet
  facet normal 1 -7.05797e-23 -2.22045e-16
    outer loop
      vertex 8.88178e-15 4 40
      vertex 7.04687e-15 -8.26061 31.7363
      vertex 0 4 0
    endloop
  endfacet
  facet normal 1 -5.88238e-21 -2.22054e-16
    outer loop
      vertex 0 4 0
      vertex 1.70184e-15 -7.95523 7.66439
      vertex 1.55431e-15 -7.85 7
    endloop
  endfacet
  facet normal 1 2.4359e-22 -2.22044e-16
    outer loop
      vertex 1.83492e-15 -8.26061 8.26374
      vertex 0 4 0
      vertex 7.04687e-15 -8.26061 31.7363
    endloop
  endfacet
  facet normal 1 4.30748e-21 -2.22038e-16
    outer loop
      vertex 0 4 0
      vertex 1.83492e-15 -8.26061 8.26374
      vertex 1.70184e-15 -7.95523 7.66439
    endloop
  endfacet
  facet normal 1 1.36885e-20 -2.22044e-16
    outer loop
      vertex 6.94125e-15 -8.73626 31.2606
      vertex 1.83492e-15 -8.26061 8.26374
      vertex 7.04687e-15 -8.26061 31.7363
    endloop
  endfacet
  facet normal 1 -1.19004e-20 -2.22045e-16
    outer loop
      vertex 6.94125e-15 -8.73626 31.2606
      vertex 1.94053e-15 -8.73626 8.73939
      vertex 1.83492e-15 -8.26061 8.26374
    endloop
  endfacet
  facet normal 1 4.19599e-21 -2.22045e-16
    outer loop
      vertex 6.87344e-15 -9.33561 30.9552
      vertex 1.94053e-15 -8.73626 8.73939
      vertex 6.94125e-15 -8.73626 31.2606
    endloop
  endfacet
  facet normal 1 3.19984e-21 -2.22045e-16
    outer loop
      vertex 6.87344e-15 -9.33561 30.9552
      vertex 2.00834e-15 -9.33561 9.04477
      vertex 1.94053e-15 -8.73626 8.73939
    endloop
  endfacet
  facet normal 1 -1.31378e-21 -2.22045e-16
    outer loop
      vertex 6.85008e-15 -10 30.85
      vertex 2.00834e-15 -9.33561 9.04477
      vertex 6.87344e-15 -9.33561 30.9552
    endloop
  endfacet
  facet normal 1 6.37603e-21 -2.22045e-16
    outer loop
      vertex 6.85008e-15 -10 30.85
      vertex 2.03171e-15 -10 9.15
      vertex 2.00834e-15 -9.33561 9.04477
    endloop
  endfacet
  facet normal 1 1.35086e-21 -2.22045e-16
    outer loop
      vertex 6.87344e-15 -10.6644 30.9552
      vertex 2.03171e-15 -10 9.15
      vertex 6.85008e-15 -10 30.85
    endloop
  endfacet
  facet normal 1 -6.33882e-21 -2.22045e-16
    outer loop
      vertex 6.87344e-15 -10.6644 30.9552
      vertex 2.00834e-15 -10.6644 9.04477
      vertex 2.03171e-15 -10 9.15
    endloop
  endfacet
  facet normal 1 -4.21004e-21 -2.22045e-16
    outer loop
      vertex 6.94125e-15 -11.2637 31.2606
      vertex 2.00834e-15 -10.6644 9.04477
      vertex 6.87344e-15 -10.6644 30.9552
    endloop
  endfacet
  facet normal 1 -3.2138e-21 -2.22045e-16
    outer loop
      vertex 6.94125e-15 -11.2637 31.2606
      vertex 1.94053e-15 -11.2637 8.73939
      vertex 2.00834e-15 -10.6644 9.04477
    endloop
  endfacet
  facet normal 1 -1.42163e-20 -2.22045e-16
    outer loop
      vertex 7.04687e-15 -11.7394 31.7363
      vertex 1.94053e-15 -11.2637 8.73939
      vertex 6.94125e-15 -11.2637 31.2606
    endloop
  endfacet
  facet normal 1 1.137e-20 -2.22044e-16
    outer loop
      vertex 7.04687e-15 -11.7394 31.7363
      vertex 1.83492e-15 -11.7394 8.26374
      vertex 1.94053e-15 -11.2637 8.73939
    endloop
  endfacet
  facet normal 1 2.88274e-20 -2.22044e-16
    outer loop
      vertex 7.17995e-15 -12.0448 32.3356
      vertex 1.83492e-15 -11.7394 8.26374
      vertex 7.04687e-15 -11.7394 31.7363
    endloop
  endfacet
  facet normal 1 8.04313e-21 -2.22045e-16
    outer loop
      vertex 7.17995e-15 -12.0448 32.3356
      vertex 1.70184e-15 -12.0448 7.66439
      vertex 1.83492e-15 -11.7394 8.26374
    endloop
  endfacet
  facet normal 1 3.7648e-20 -2.22029e-16
    outer loop
      vertex 8.88178e-15 -15 40
      vertex 7.17995e-15 -12.0448 32.3356
      vertex 7.32747e-15 -12.15 33
    endloop
  endfacet
  facet normal 1 -3.03079e-21 -2.22045e-16
    outer loop
      vertex 7.17995e-15 -12.0448 32.3356
      vertex 8.88178e-15 -15 40
      vertex 1.70184e-15 -12.0448 7.66439
    endloop
  endfacet
  facet normal 1 -6.10437e-21 -2.22034e-16
    outer loop
      vertex 7.17995e-15 -7.95523 32.3356
      vertex 8.88178e-15 4 40
      vertex 7.32747e-15 -7.85 33
    endloop
  endfacet
  facet normal 1 3.07047e-21 -2.22049e-16
    outer loop
      vertex 8.88178e-15 4 40
      vertex 7.475e-15 -7.95523 33.6644
      vertex 7.32747e-15 -7.85 33
    endloop
  endfacet
  facet normal 1 6.41725e-21 -2.22056e-16
    outer loop
      vertex 8.88178e-15 4 40
      vertex 7.60808e-15 -8.26061 34.2637
      vertex 7.475e-15 -7.95523 33.6644
    endloop
  endfacet
  facet normal 1 -1.03316e-20 -2.2202e-16
    outer loop
      vertex 8.88178e-15 4 40
      vertex 7.71369e-15 -8.73626 34.7394
      vertex 7.60808e-15 -8.26061 34.2637
    endloop
  endfacet
  facet normal 1 -1.90271e-21 -2.2204e-16
    outer loop
      vertex 8.88178e-15 4 40
      vertex 7.7815e-15 -9.33561 35.0448
      vertex 7.71369e-15 -8.73626 34.7394
    endloop
  endfacet
  facet normal 1 0 -2.22046e-16
    outer loop
      vertex 8.88178e-15 -15 40
      vertex 7.7815e-15 -9.33561 35.0448
      vertex 8.88178e-15 4 40
    endloop
  endfacet
  facet normal 1 1.98673e-20 -2.22023e-16
    outer loop
      vertex 7.7815e-15 -9.33561 35.0448
      vertex 8.88178e-15 -15 40
      vertex 7.80487e-15 -10 35.15
    endloop
  endfacet
  facet normal 1 -1.47355e-21 -2.22044e-16
    outer loop
      vertex 0 -15 0
      vertex 1.70184e-15 -12.0448 7.66439
      vertex 8.88178e-15 -15 40
    endloop
  endfacet
  facet normal 1 -1.00519e-20 -2.22048e-16
    outer loop
      vertex 7.475e-15 -12.0448 33.6644
      vertex 8.88178e-15 -15 40
      vertex 7.32747e-15 -12.15 33
    endloop
  endfacet
  facet normal 1 -1.57569e-20 -2.22051e-16
    outer loop
      vertex 7.60808e-15 -11.7394 34.2637
      vertex 8.88178e-15 -15 40
      vertex 7.475e-15 -12.0448 33.6644
    endloop
  endfacet
  facet normal 1 2.0666e-20 -2.2203e-16
    outer loop
      vertex 7.71369e-15 -11.2637 34.7394
      vertex 8.88178e-15 -15 40
      vertex 7.60808e-15 -11.7394 34.2637
    endloop
  endfacet
  facet normal 1 3.12082e-21 -2.22043e-16
    outer loop
      vertex 7.7815e-15 -10.6644 35.0448
      vertex 8.88178e-15 -15 40
      vertex 7.71369e-15 -11.2637 34.7394
    endloop
  endfacet
  facet normal 1 -1.42911e-20 -2.22058e-16
    outer loop
      vertex 7.80487e-15 -10 35.15
      vertex 8.88178e-15 -15 40
      vertex 7.7815e-15 -10.6644 35.0448
    endloop
  endfacet
  facet normal 1 1.48486e-20 -2.22067e-16
    outer loop
      vertex 7.04687e-15 -8.26061 31.7363
      vertex 8.88178e-15 4 40
      vertex 7.17995e-15 -7.95523 32.3356
    endloop
  endfacet
  facet normal 1 3.2546e-21 -2.22039e-16
    outer loop
      vertex 1.40679e-15 -7.95523 6.33561
      vertex 0 4 0
      vertex 1.55431e-15 -7.85 7
    endloop
  endfacet
  facet normal 1 1.82499e-21 -2.22041e-16
    outer loop
      vertex 1.27371e-15 -8.26061 5.73626
      vertex 0 4 0
      vertex 1.40679e-15 -7.95523 6.33561
    endloop
  endfacet
  facet normal 1 -2.75924e-21 -2.22051e-16
    outer loop
      vertex 1.16809e-15 -8.73626 5.26061
      vertex 0 4 0
      vertex 1.27371e-15 -8.26061 5.73626
    endloop
  endfacet
  facet normal 1 -1.51085e-21 -2.22048e-16
    outer loop
      vertex 1.10028e-15 -9.33561 4.95523
      vertex 0 4 0
      vertex 1.16809e-15 -8.73626 5.26061
    endloop
  endfacet
  facet normal 1 1.04934e-20 -2.22056e-16
    outer loop
      vertex 0 -15 0
      vertex 1.10028e-15 -9.33561 4.95523
      vertex 1.07692e-15 -10 4.85
    endloop
  endfacet
  facet normal 1 -7.54747e-21 -2.22038e-16
    outer loop
      vertex 0 -15 0
      vertex 1.07692e-15 -10 4.85
      vertex 1.10028e-15 -10.6644 4.95523
    endloop
  endfacet
  facet normal 1 0 -2.22044e-16
    outer loop
      vertex 1.10028e-15 -9.33561 4.95523
      vertex 0 -15 0
      vertex 0 4 0
    endloop
  endfacet
  facet normal 1 2.47804e-21 -2.22046e-16
    outer loop
      vertex 1.16809e-15 -11.2637 5.26061
      vertex 0 -15 0
      vertex 1.10028e-15 -10.6644 4.95523
    endloop
  endfacet
  facet normal 1 5.51908e-21 -2.22049e-16
    outer loop
      vertex 1.27371e-15 -11.7394 5.73626
      vertex 0 -15 0
      vertex 1.16809e-15 -11.2637 5.26061
    endloop
  endfacet
  facet normal 1 -4.48119e-21 -2.22043e-16
    outer loop
      vertex 1.40679e-15 -12.0448 6.33561
      vertex 0 -15 0
      vertex 1.27371e-15 -11.7394 5.73626
    endloop
  endfacet
  facet normal 1 -1.06547e-20 -2.2204e-16
    outer loop
      vertex 1.55431e-15 -12.15 7
      vertex 0 -15 0
      vertex 1.40679e-15 -12.0448 6.33561
    endloop
  endfacet
  facet normal 1 3.62792e-20 -2.22059e-16
    outer loop
      vertex 1.70184e-15 -12.0448 7.66439
      vertex 0 -15 0
      vertex 1.55431e-15 -12.15 7
    endloop
  endfacet
  facet normal 0 -1 0
    outer loop
      vertex -43 0 40
      vertex -18 0 38
      vertex -18 0 40
    endloop
  endfacet
  facet normal 0 -1 0
    outer loop
      vertex -19 0 2
      vertex -18 0 38
      vertex -43 0 40
    endloop
  endfacet
  facet normal -0 -1 0
    outer loop
      vertex -4 0 10.8235
      vertex -18 0 38
      vertex -19 0 2
    endloop
  endfacet
  facet normal 0 -1 0
    outer loop
      vertex -18 0 38
      vertex -4 0 10.8235
      vertex -4 0 29.7647
    endloop
  endfacet
  facet normal 0 -1 0
    outer loop
      vertex -43 0 9.54792e-15
      vertex -19 0 2
      vertex -43 0 40
    endloop
  endfacet
  facet normal 0 -1 -0
    outer loop
      vertex -19 0 2
      vertex -43 0 9.54792e-15
      vertex -19 0 4.21885e-15
    endloop
  endfacet
  facet normal -1 0 0
    outer loop
      vertex -4 -15 8.88178e-16
      vertex -4 -14 2
      vertex -4 -14 8.88178e-16
    endloop
  endfacet
  facet normal -1 -0 0
    outer loop
      vertex -4 -14.15 7
      vertex -4 -15 8.88178e-16
      vertex -4 -14.15 33
    endloop
  endfacet
  facet normal -1 -0 0
    outer loop
      vertex -4 -14 2
      vertex -4 -15 8.88178e-16
      vertex -4 -14.15 7
    endloop
  endfacet
  facet normal -1 0 0
    outer loop
      vertex -4 -14 2
      vertex -4 -12.4393 3.64258
      vertex -4 -11.8612 3.348
    endloop
  endfacet
  facet normal -1 0 0
    outer loop
      vertex -4 -14 2
      vertex -4 -13.3574 4.56069
      vertex -4 -12.4393 3.64258
    endloop
  endfacet
  facet normal -1 0 0
    outer loop
      vertex -4 -14 2
      vertex -4 -13.9469 5.71758
      vertex -4 -13.3574 4.56069
    endloop
  endfacet
  facet normal -1 -0 0
    outer loop
      vertex -4 -13.9469 5.71758
      vertex -4 -14 2
      vertex -4 -14.15 7
    endloop
  endfacet
  facet normal -1 0 0
    outer loop
      vertex -4 -7.56069 29.6426
      vertex -4 0 29.7647
      vertex -4 0 10.8235
    endloop
  endfacet
  facet normal -1 0 0
    outer loop
      vertex -4 -6.05311 8.28242
      vertex -4 0 10.8235
      vertex -4 -5.86966 7.12416
    endloop
  endfacet
  facet normal -1 0 0
    outer loop
      vertex -4 -6.64258 9.43931
      vertex -4 0 10.8235
      vertex -4 -6.05311 8.28242
    endloop
  endfacet
  facet normal -1 0 0
    outer loop
      vertex -4 0 29.7647
      vertex -4 -6.05311 31.7176
      vertex -4 -5.85 33
    endloop
  endfacet
  facet normal -1 0 0
    outer loop
      vertex -4 -7.56069 10.3574
      vertex -4 0 10.8235
      vertex -4 -6.64258 9.43931
    endloop
  endfacet
  facet normal -1 0 0
    outer loop
      vertex -4 0 29.7647
      vertex -4 -6.64258 30.5607
      vertex -4 -6.05311 31.7176
    endloop
  endfacet
  facet normal -1 0 0
    outer loop
      vertex -4 -8.71758 10.9469
      vertex -4 0 10.8235
      vertex -4 -7.56069 10.3574
    endloop
  endfacet
  facet normal -1 -0 0
    outer loop
      vertex -4 0 29.7647
      vertex -4 -7.56069 29.6426
      vertex -4 -6.64258 30.5607
    endloop
  endfacet
  facet normal -1 0 0
    outer loop
      vertex -4 -8.71758 29.0531
      vertex -4 0 10.8235
      vertex -4 -8.71758 10.9469
    endloop
  endfacet
  facet normal -1 0 0
    outer loop
      vertex -4 0 10.8235
      vertex -4 -8.71758 29.0531
      vertex -4 -7.56069 29.6426
    endloop
  endfacet
  facet normal -1 0 0
    outer loop
      vertex -4 -10 11.15
      vertex -4 -8.71758 29.0531
      vertex -4 -8.71758 10.9469
    endloop
  endfacet
  facet normal -1 0 0
    outer loop
      vertex -4 -10 11.15
      vertex -4 -10 28.85
      vertex -4 -8.71758 29.0531
    endloop
  endfacet
  facet normal -1 0 0
    outer loop
      vertex -4 -11.2824 10.9469
      vertex -4 -10 28.85
      vertex -4 -10 11.15
    endloop
  endfacet
  facet normal -1 0 0
    outer loop
      vertex -4 -11.2824 10.9469
      vertex -4 -11.2824 29.0531
      vertex -4 -10 28.85
    endloop
  endfacet
  facet normal -1 0 0
    outer loop
      vertex -4 -12.4393 10.3574
      vertex -4 -11.2824 29.0531
      vertex -4 -11.2824 10.9469
    endloop
  endfacet
  facet normal -1 0 0
    outer loop
      vertex -4 -12.4393 10.3574
      vertex -4 -12.4393 29.6426
      vertex -4 -11.2824 29.0531
    endloop
  endfacet
  facet normal -1 0 0
    outer loop
      vertex -4 -13.3574 9.43931
      vertex -4 -12.4393 29.6426
      vertex -4 -12.4393 10.3574
    endloop
  endfacet
  facet normal -1 0 0
    outer loop
      vertex -4 -13.3574 9.43931
      vertex -4 -13.3574 30.5607
      vertex -4 -12.4393 29.6426
    endloop
  endfacet
  facet normal -1 0 0
    outer loop
      vertex -4 -13.9469 8.28242
      vertex -4 -13.3574 30.5607
      vertex -4 -13.3574 9.43931
    endloop
  endfacet
  facet normal -1 0 0
    outer loop
      vertex -4 -13.9469 8.28242
      vertex -4 -13.9469 31.7176
      vertex -4 -13.3574 30.5607
    endloop
  endfacet
  facet normal -1 0 0
    outer loop
      vertex -4 -14.15 7
      vertex -4 -13.9469 31.7176
      vertex -4 -13.9469 8.28242
    endloop
  endfacet
  facet normal -1 -0 0
    outer loop
      vertex -4 -13.9469 31.7176
      vertex -4 -14.15 7
      vertex -4 -14.15 33
    endloop
  endfacet
  facet normal -1 0 0
    outer loop
      vertex -4 0 29.7647
      vertex -4 -5.85 33
      vertex -4 -5.88596 33.227
    endloop
  endfacet
  facet normal -1 0 0
    outer loop
      vertex -4 -12.4393 36.3574
      vertex -4 -14 38
      vertex -4 -11.7793 36.6937
    endloop
  endfacet
  facet normal -1 0 0
    outer loop
      vertex -4 -13.3574 35.4393
      vertex -4 -14 38
      vertex -4 -12.4393 36.3574
    endloop
  endfacet
  facet normal -1 0 0
    outer loop
      vertex -4 -13.9469 34.2824
      vertex -4 -14 38
      vertex -4 -13.3574 35.4393
    endloop
  endfacet
  facet normal -1 0 0
    outer loop
      vertex -4 -15 40
      vertex -4 -13.9469 34.2824
      vertex -4 -14.15 33
    endloop
  endfacet
  facet normal -1 0 0
    outer loop
      vertex -4 -13.9469 34.2824
      vertex -4 -15 40
      vertex -4 -14 38
    endloop
  endfacet
  facet normal -1 0 0
    outer loop
      vertex -4 -15 40
      vertex -4 -14.15 33
      vertex -4 -15 8.88178e-16
    endloop
  endfacet
  facet normal -1 0 0
    outer loop
      vertex -4 -14 38
      vertex -4 -15 40
      vertex -4 -14 40
    endloop
  endfacet
  facet normal -1 0 0
    outer loop
      vertex -4 -7.85 7
      vertex -4 -5.85 7
      vertex -4 -6.05311 5.71758
    endloop
  endfacet
  facet normal -1 0 0
    outer loop
      vertex -4 -5.85 7
      vertex -4 -7.85 7
      vertex -4 -5.86966 7.12416
    endloop
  endfacet
  facet normal -1 0 0
    outer loop
      vertex -4 -7.95523 6.33561
      vertex -4 -6.05311 5.71758
      vertex -4 -6.64258 4.56069
    endloop
  endfacet
  facet normal -1 0 0
    outer loop
      vertex -4 -7.95523 7.66439
      vertex -4 -5.86966 7.12416
      vertex -4 -7.85 7
    endloop
  endfacet
  facet normal -1 0 0
    outer loop
      vertex -4 -8.26061 5.73626
      vertex -4 -6.64258 4.56069
      vertex -4 -7.56069 3.64258
    endloop
  endfacet
  facet normal -1 0 0
    outer loop
      vertex -4 -5.86966 7.12416
      vertex -4 -7.95523 7.66439
      vertex -4 -6.05311 8.28242
    endloop
  endfacet
  facet normal -1 -0 0
    outer loop
      vertex -4 -6.05311 8.28242
      vertex -4 -7.95523 7.66439
      vertex -4 -6.64258 9.43931
    endloop
  endfacet
  facet normal -1 0 0
    outer loop
      vertex -4 -6.05311 5.71758
      vertex -4 -7.95523 6.33561
      vertex -4 -7.85 7
    endloop
  endfacet
  facet normal -1 0 0
    outer loop
      vertex -4 -6.64258 4.56069
      vertex -4 -8.26061 5.73626
      vertex -4 -7.95523 6.33561
    endloop
  endfacet
  facet normal -1 0 0
    outer loop
      vertex -4 -8.73626 5.26061
      vertex -4 -7.56069 3.64258
      vertex -4 -8.71758 3.05311
    endloop
  endfacet
  facet normal -1 0 0
    outer loop
      vertex -4 -7.56069 3.64258
      vertex -4 -8.73626 5.26061
      vertex -4 -8.26061 5.73626
    endloop
  endfacet
  facet normal -1 0 0
    outer loop
      vertex -4 -8.71758 3.05311
      vertex -4 -9.33561 4.95523
      vertex -4 -8.73626 5.26061
    endloop
  endfacet
  facet normal -1 0 0
    outer loop
      vertex -4 -10 2.85
      vertex -4 -9.33561 4.95523
      vertex -4 -8.71758 3.05311
    endloop
  endfacet
  facet normal -1 0 0
    outer loop
      vertex -4 -10 2.85
      vertex -4 -10 4.85
      vertex -4 -9.33561 4.95523
    endloop
  endfacet
  facet normal -1 0 0
    outer loop
      vertex -4 -10 2.85
      vertex -4 -10.6644 4.95523
      vertex -4 -10 4.85
    endloop
  endfacet
  facet normal -1 0 0
    outer loop
      vertex -4 -11.2824 3.05311
      vertex -4 -10.6644 4.95523
      vertex -4 -10 2.85
    endloop
  endfacet
  facet normal -1 0 0
    outer loop
      vertex -4 -11.8612 3.348
      vertex -4 -10.6644 4.95523
      vertex -4 -11.2824 3.05311
    endloop
  endfacet
  facet normal -1 -0 0
    outer loop
      vertex -4 -10.6644 4.95523
      vertex -4 -11.8612 3.348
      vertex -4 -11.2637 5.26061
    endloop
  endfacet
  facet normal -1 0 0
    outer loop
      vertex -4 -12.4393 3.64258
      vertex -4 -11.2637 5.26061
      vertex -4 -11.8612 3.348
    endloop
  endfacet
  facet normal -1 -0 0
    outer loop
      vertex -4 -11.2637 5.26061
      vertex -4 -12.4393 3.64258
      vertex -4 -11.7394 5.73626
    endloop
  endfacet
  facet normal -1 0 0
    outer loop
      vertex -4 -13.3574 4.56069
      vertex -4 -11.7394 5.73626
      vertex -4 -12.4393 3.64258
    endloop
  endfacet
  facet normal -1 -0 0
    outer loop
      vertex -4 -11.7394 5.73626
      vertex -4 -13.3574 4.56069
      vertex -4 -12.0448 6.33561
    endloop
  endfacet
  facet normal -1 0 0
    outer loop
      vertex -4 -8.26061 8.26374
      vertex -4 -6.64258 9.43931
      vertex -4 -7.95523 7.66439
    endloop
  endfacet
  facet normal -1 -0 0
    outer loop
      vertex -4 -6.64258 9.43931
      vertex -4 -8.26061 8.26374
      vertex -4 -7.56069 10.3574
    endloop
  endfacet
  facet normal -1 0 0
    outer loop
      vertex -4 -8.73626 8.73939
      vertex -4 -7.56069 10.3574
      vertex -4 -8.26061 8.26374
    endloop
  endfacet
  facet normal -1 -0 0
    outer loop
      vertex -4 -7.56069 10.3574
      vertex -4 -8.73626 8.73939
      vertex -4 -8.71758 10.9469
    endloop
  endfacet
  facet normal -1 0 0
    outer loop
      vertex -4 -9.33561 9.04477
      vertex -4 -8.71758 10.9469
      vertex -4 -8.73626 8.73939
    endloop
  endfacet
  facet normal -1 0 0
    outer loop
      vertex -4 -10 9.15
      vertex -4 -8.71758 10.9469
      vertex -4 -9.33561 9.04477
    endloop
  endfacet
  facet normal -1 0 0
    outer loop
      vertex -4 -10 9.15
      vertex -4 -10 11.15
      vertex -4 -8.71758 10.9469
    endloop
  endfacet
  facet normal -1 0 0
    outer loop
      vertex -4 -10.6644 9.04477
      vertex -4 -10 11.15
      vertex -4 -10 9.15
    endloop
  endfacet
  facet normal -1 0 0
    outer loop
      vertex -4 -11.2824 10.9469
      vertex -4 -10.6644 9.04477
      vertex -4 -11.2637 8.73939
    endloop
  endfacet
  facet normal -1 0 0
    outer loop
      vertex -4 -10.6644 9.04477
      vertex -4 -11.2824 10.9469
      vertex -4 -10 11.15
    endloop
  endfacet
  facet normal -1 0 0
    outer loop
      vertex -4 -12.4393 10.3574
      vertex -4 -11.2637 8.73939
      vertex -4 -11.7394 8.26374
    endloop
  endfacet
  facet normal -1 0 0
    outer loop
      vertex -4 -13.3574 9.43931
      vertex -4 -11.7394 8.26374
      vertex -4 -12.0448 7.66439
    endloop
  endfacet
  facet normal -1 0 0
    outer loop
      vertex -4 -11.2637 8.73939
      vertex -4 -12.4393 10.3574
      vertex -4 -11.2824 10.9469
    endloop
  endfacet
  facet normal -1 0 0
    outer loop
      vertex -4 -13.9469 8.28242
      vertex -4 -12.0448 7.66439
      vertex -4 -12.15 7
    endloop
  endfacet
  facet normal -1 0 0
    outer loop
      vertex -4 -13.9469 5.71758
      vertex -4 -12.0448 6.33561
      vertex -4 -13.3574 4.56069
    endloop
  endfacet
  facet normal -1 -0 0
    outer loop
      vertex -4 -12.0448 6.33561
      vertex -4 -13.9469 5.71758
      vertex -4 -12.15 7
    endloop
  endfacet
  facet normal -1 0 0
    outer loop
      vertex -4 -11.7394 8.26374
      vertex -4 -13.3574 9.43931
      vertex -4 -12.4393 10.3574
    endloop
  endfacet
  facet normal -1 0 0
    outer loop
      vertex -4 -14.15 7
      vertex -4 -12.15 7
      vertex -4 -13.9469 5.71758
    endloop
  endfacet
  facet normal -1 0 0
    outer loop
      vertex -4 -12.0448 7.66439
      vertex -4 -13.9469 8.28242
      vertex -4 -13.3574 9.43931
    endloop
  endfacet
  facet normal -1 0 0
    outer loop
      vertex -4 -12.15 7
      vertex -4 -14.15 7
      vertex -4 -13.9469 8.28242
    endloop
  endfacet
  facet normal -1 0 0
    outer loop
      vertex -4 -7.85 33
      vertex -4 -5.85 33
      vertex -4 -6.05311 31.7176
    endloop
  endfacet
  facet normal -1 0 0
    outer loop
      vertex -4 -5.85 33
      vertex -4 -7.85 33
      vertex -4 -5.88596 33.227
    endloop
  endfacet
  facet normal -1 0 0
    outer loop
      vertex -4 -7.95523 32.3356
      vertex -4 -6.05311 31.7176
      vertex -4 -6.64258 30.5607
    endloop
  endfacet
  facet normal -1 0 0
    outer loop
      vertex -4 -7.95523 33.6644
      vertex -4 -5.88596 33.227
      vertex -4 -7.85 33
    endloop
  endfacet
  facet normal -1 0 0
    outer loop
      vertex -4 -8.26061 31.7363
      vertex -4 -6.64258 30.5607
      vertex -4 -7.56069 29.6426
    endloop
  endfacet
  facet normal -1 0 0
    outer loop
      vertex -4 -5.88596 33.227
      vertex -4 -7.95523 33.6644
      vertex -4 -6.05311 34.2824
    endloop
  endfacet
  facet normal -1 -0 0
    outer loop
      vertex -4 -6.05311 34.2824
      vertex -4 -7.95523 33.6644
      vertex -4 -6.64258 35.4393
    endloop
  endfacet
  facet normal -1 0 0
    outer loop
      vertex -4 -6.05311 31.7176
      vertex -4 -7.95523 32.3356
      vertex -4 -7.85 33
    endloop
  endfacet
  facet normal -1 0 0
    outer loop
      vertex -4 -6.64258 30.5607
      vertex -4 -8.26061 31.7363
      vertex -4 -7.95523 32.3356
    endloop
  endfacet
  facet normal -1 0 0
    outer loop
      vertex -4 -8.73626 31.2606
      vertex -4 -7.56069 29.6426
      vertex -4 -8.71758 29.0531
    endloop
  endfacet
  facet normal -1 0 0
    outer loop
      vertex -4 -7.56069 29.6426
      vertex -4 -8.73626 31.2606
      vertex -4 -8.26061 31.7363
    endloop
  endfacet
  facet normal -1 0 0
    outer loop
      vertex -4 -8.71758 29.0531
      vertex -4 -9.33561 30.9552
      vertex -4 -8.73626 31.2606
    endloop
  endfacet
  facet normal -1 0 0
    outer loop
      vertex -4 -10 28.85
      vertex -4 -9.33561 30.9552
      vertex -4 -8.71758 29.0531
    endloop
  endfacet
  facet normal -1 0 0
    outer loop
      vertex -4 -10 28.85
      vertex -4 -10 30.85
      vertex -4 -9.33561 30.9552
    endloop
  endfacet
  facet normal -1 0 0
    outer loop
      vertex -4 -10 28.85
      vertex -4 -10.6644 30.9552
      vertex -4 -10 30.85
    endloop
  endfacet
  facet normal -1 0 0
    outer loop
      vertex -4 -11.2824 29.0531
      vertex -4 -10.6644 30.9552
      vertex -4 -10 28.85
    endloop
  endfacet
  facet normal -1 -0 0
    outer loop
      vertex -4 -10.6644 30.9552
      vertex -4 -11.2824 29.0531
      vertex -4 -11.2637 31.2606
    endloop
  endfacet
  facet normal -1 0 0
    outer loop
      vertex -4 -12.4393 29.6426
      vertex -4 -11.2637 31.2606
      vertex -4 -11.2824 29.0531
    endloop
  endfacet
  facet normal -1 -0 0
    outer loop
      vertex -4 -11.2637 31.2606
      vertex -4 -12.4393 29.6426
      vertex -4 -11.7394 31.7363
    endloop
  endfacet
  facet normal -1 -0 0
    outer loop
      vertex -4 -11.7394 31.7363
      vertex -4 -13.3574 30.5607
      vertex -4 -12.0448 32.3356
    endloop
  endfacet
  facet normal -1 0 0
    outer loop
      vertex -4 -13.3574 30.5607
      vertex -4 -11.7394 31.7363
      vertex -4 -12.4393 29.6426
    endloop
  endfacet
  facet normal -1 0 0
    outer loop
      vertex -4 -8.26061 34.2637
      vertex -4 -6.64258 35.4393
      vertex -4 -7.95523 33.6644
    endloop
  endfacet
  facet normal -1 -0 0
    outer loop
      vertex -4 -6.64258 35.4393
      vertex -4 -8.26061 34.2637
      vertex -4 -7.56069 36.3574
    endloop
  endfacet
  facet normal -1 0 0
    outer loop
      vertex -4 -8.73626 34.7394
      vertex -4 -7.56069 36.3574
      vertex -4 -8.26061 34.2637
    endloop
  endfacet
  facet normal -1 -0 0
    outer loop
      vertex -4 -7.56069 36.3574
      vertex -4 -8.73626 34.7394
      vertex -4 -8.71758 36.9469
    endloop
  endfacet
  facet normal -1 0 0
    outer loop
      vertex -4 -9.33561 35.0448
      vertex -4 -8.71758 36.9469
      vertex -4 -8.73626 34.7394
    endloop
  endfacet
  facet normal -1 0 0
    outer loop
      vertex -4 -10 35.15
      vertex -4 -8.71758 36.9469
      vertex -4 -9.33561 35.0448
    endloop
  endfacet
  facet normal -1 0 0
    outer loop
      vertex -4 -10 35.15
      vertex -4 -10 37.15
      vertex -4 -8.71758 36.9469
    endloop
  endfacet
  facet normal -1 0 0
    outer loop
      vertex -4 -10.6644 35.0448
      vertex -4 -10 37.15
      vertex -4 -10 35.15
    endloop
  endfacet
  facet normal -1 0 0
    outer loop
      vertex -4 -11.7793 36.6937
      vertex -4 -10.6644 35.0448
      vertex -4 -11.2637 34.7394
    endloop
  endfacet
  facet normal -1 0 0
    outer loop
      vertex -4 -10.6644 35.0448
      vertex -4 -11.2824 36.9469
      vertex -4 -10 37.15
    endloop
  endfacet
  facet normal -1 0 0
    outer loop
      vertex -4 -12.4393 36.3574
      vertex -4 -11.2637 34.7394
      vertex -4 -11.7394 34.2637
    endloop
  endfacet
  facet normal -1 0 0
    outer loop
      vertex -4 -10.6644 35.0448
      vertex -4 -11.7793 36.6937
      vertex -4 -11.2824 36.9469
    endloop
  endfacet
  facet normal -1 0 0
    outer loop
      vertex -4 -13.3574 35.4393
      vertex -4 -11.7394 34.2637
      vertex -4 -12.0448 33.6644
    endloop
  endfacet
  facet normal -1 0 0
    outer loop
      vertex -4 -13.9469 34.2824
      vertex -4 -12.0448 33.6644
      vertex -4 -12.15 33
    endloop
  endfacet
  facet normal -1 0 0
    outer loop
      vertex -4 -11.2637 34.7394
      vertex -4 -12.4393 36.3574
      vertex -4 -11.7793 36.6937
    endloop
  endfacet
  facet normal -1 0 0
    outer loop
      vertex -4 -13.9469 31.7176
      vertex -4 -12.0448 32.3356
      vertex -4 -13.3574 30.5607
    endloop
  endfacet
  facet normal -1 -0 0
    outer loop
      vertex -4 -12.0448 32.3356
      vertex -4 -13.9469 31.7176
      vertex -4 -12.15 33
    endloop
  endfacet
  facet normal -1 0 0
    outer loop
      vertex -4 -11.7394 34.2637
      vertex -4 -13.3574 35.4393
      vertex -4 -12.4393 36.3574
    endloop
  endfacet
  facet normal -1 0 0
    outer loop
      vertex -4 -14.15 33
      vertex -4 -12.15 33
      vertex -4 -13.9469 31.7176
    endloop
  endfacet
  facet normal -1 0 0
    outer loop
      vertex -4 -12.0448 33.6644
      vertex -4 -13.9469 34.2824
      vertex -4 -13.3574 35.4393
    endloop
  endfacet
  facet normal -1 0 0
    outer loop
      vertex -4 -12.15 33
      vertex -4 -14.15 33
      vertex -4 -13.9469 34.2824
    endloop
  endfacet
  facet normal 0 -1 0
    outer loop
      vertex -4 -15 8.88178e-16
      vertex 8.88178e-15 -15 40
      vertex -4 -15 40
    endloop
  endfacet
  facet normal 0 -1 0
    outer loop
      vertex 8.88178e-15 -15 40
      vertex -4 -15 8.88178e-16
      vertex 0 -15 0
    endloop
  endfacet
  facet normal -0.682318 -0.731055 0
    outer loop
      vertex -19 0 4.21885e-15
      vertex -4 -14 2
      vertex -19 0 2
    endloop
  endfacet
  facet normal -0.682318 -0.731055 -0
    outer loop
      vertex -4 -14 2
      vertex -19 0 4.21885e-15
      vertex -4 -14 8.88178e-16
    endloop
  endfacet
  facet normal -0.44552 -0.477348 0.757397
    outer loop
      vertex -4 0 10.8235
      vertex -4.23214 -5.85 7
      vertex -4 -5.86966 7.12416
    endloop
  endfacet
  facet normal -0.445526 -0.477346 0.757395
    outer loop
      vertex -4 0 10.8235
      vertex -6.19464 -6.05311 5.71758
      vertex -4.23214 -5.85 7
    endloop
  endfacet
  facet normal -0.445527 -0.477345 0.757395
    outer loop
      vertex -4 0 10.8235
      vertex -7.52978 -6.64258 4.56069
      vertex -6.19464 -6.05311 5.71758
    endloop
  endfacet
  facet normal -0.445525 -0.477347 0.757395
    outer loop
      vertex -19 0 2
      vertex -7.52978 -6.64258 4.56069
      vertex -4 0 10.8235
    endloop
  endfacet
  facet normal -0.445525 -0.477348 0.757394
    outer loop
      vertex -7.52978 -6.64258 4.56069
      vertex -19 0 2
      vertex -8.10688 -7.56069 3.64258
    endloop
  endfacet
  facet normal -0.445545 -0.477348 0.757383
    outer loop
      vertex -5.1214 -11.2824 3.05311
      vertex -4 -14 2
      vertex -4 -11.8612 3.348
    endloop
  endfacet
  facet normal -0.445514 -0.477344 0.757404
    outer loop
      vertex -6.84072 -10 2.85
      vertex -4 -14 2
      vertex -5.1214 -11.2824 3.05311
    endloop
  endfacet
  facet normal -0.445519 -0.47734 0.757403
    outer loop
      vertex -19 0 2
      vertex -6.84072 -10 2.85
      vertex -7.86944 -8.71758 3.05311
    endloop
  endfacet
  facet normal -0.445527 -0.47735 0.757392
    outer loop
      vertex -6.84072 -10 2.85
      vertex -19 0 2
      vertex -4 -14 2
    endloop
  endfacet
  facet normal -0.445528 -0.477353 0.75739
    outer loop
      vertex -19 0 2
      vertex -7.86944 -8.71758 3.05311
      vertex -8.10688 -7.56069 3.64258
    endloop
  endfacet
  facet normal -0.707107 -0.707107 0
    outer loop
      vertex -4 -14 38
      vertex -18 0 40
      vertex -18 0 38
    endloop
  endfacet
  facet normal -0.707107 -0.707107 0
    outer loop
      vertex -18 0 40
      vertex -4 -14 38
      vertex -4 -14 40
    endloop
  endfacet
  facet normal -0.452239 -0.452211 -0.768755
    outer loop
      vertex -4 -14 38
      vertex -4.92728 -11.2824 36.9469
      vertex -4 -11.7793 36.6937
    endloop
  endfacet
  facet normal -0.452197 -0.452207 -0.768783
    outer loop
      vertex -4 -14 38
      vertex -6.555 -10 37.15
      vertex -4.92728 -11.2824 36.9469
    endloop
  endfacet
  facet normal -0.452216 -0.452216 -0.768767
    outer loop
      vertex -18 0 38
      vertex -6.555 -10 37.15
      vertex -4 -14 38
    endloop
  endfacet
  facet normal -0.452227 -0.452232 -0.76875
    outer loop
      vertex -7.49212 -8.71758 36.9469
      vertex -18 0 38
      vertex -7.64692 -7.56069 36.3574
    endloop
  endfacet
  facet normal -0.452201 -0.452198 -0.768786
    outer loop
      vertex -6.555 -10 37.15
      vertex -18 0 38
      vertex -7.49212 -8.71758 36.9469
    endloop
  endfacet
  facet normal -0.452223 -0.452211 -0.768765
    outer loop
      vertex -5.627 -6.05311 34.2824
      vertex -4 0 29.7647
      vertex -4 -5.88596 33.227
    endloop
  endfacet
  facet normal -0.452223 -0.452211 -0.768765
    outer loop
      vertex -7.00424 -6.64258 35.4393
      vertex -4 0 29.7647
      vertex -5.627 -6.05311 34.2824
    endloop
  endfacet
  facet normal -0.452214 -0.452211 -0.76877
    outer loop
      vertex -18 0 38
      vertex -7.00424 -6.64258 35.4393
      vertex -7.64692 -7.56069 36.3574
    endloop
  endfacet
  facet normal -0.452216 -0.452215 -0.768767
    outer loop
      vertex -7.00424 -6.64258 35.4393
      vertex -18 0 38
      vertex -4 0 29.7647
    endloop
  endfacet
  facet normal 1 -0 0
    outer loop
      vertex -39 4 40
      vertex -39 15 8.65974e-15
      vertex -39 15 40
    endloop
  endfacet
  facet normal 1 0 0
    outer loop
      vertex -39 15 8.65974e-15
      vertex -39 4 40
      vertex -39 4 8.65974e-15
    endloop
  endfacet
  facet normal 0 1 0
    outer loop
      vertex 8.88178e-15 4 40
      vertex -39 4 8.65974e-15
      vertex -39 4 40
    endloop
  endfacet
  facet normal -0 1 0
    outer loop
      vertex -39 4 8.65974e-15
      vertex 8.88178e-15 4 40
      vertex 0 4 0
    endloop
  endfacet
  facet normal 0 -0.156436 0.987688
    outer loop
      vertex -4 -9.33561 4.95523
      vertex 1.07692e-15 -10 4.85
      vertex 1.10028e-15 -9.33561 4.95523
    endloop
  endfacet
  facet normal 0 -0.156436 0.987688
    outer loop
      vertex 1.07692e-15 -10 4.85
      vertex -4 -9.33561 4.95523
      vertex -4 -10 4.85
    endloop
  endfacet
  facet normal 0 -0.987688 -0.156436
    outer loop
      vertex -4 -7.85 7
      vertex 1.70184e-15 -7.95523 7.66439
      vertex -4 -7.95523 7.66439
    endloop
  endfacet
  facet normal 0 -0.987688 -0.156436
    outer loop
      vertex 1.70184e-15 -7.95523 7.66439
      vertex -4 -7.85 7
      vertex 1.55431e-15 -7.85 7
    endloop
  endfacet
  facet normal 0 0.987695 -0.156392
    outer loop
      vertex 1.55431e-15 -12.15 7
      vertex -4 -12.0448 7.66439
      vertex 1.70184e-15 -12.0448 7.66439
    endloop
  endfacet
  facet normal 0 0.987695 -0.156392
    outer loop
      vertex -4 -12.0448 7.66439
      vertex 1.55431e-15 -12.15 7
      vertex -4 -12.15 7
    endloop
  endfacet
  facet normal 0 0.987695 0.156392
    outer loop
      vertex 1.40679e-15 -12.0448 6.33561
      vertex -4 -12.15 7
      vertex 1.55431e-15 -12.15 7
    endloop
  endfacet
  facet normal 0 0.987695 0.156392
    outer loop
      vertex -4 -12.15 7
      vertex 1.40679e-15 -12.0448 6.33561
      vertex -4 -12.0448 6.33561
    endloop
  endfacet
  facet normal 0 -0.453986 -0.891009
    outer loop
      vertex -4 -9.33561 9.04477
      vertex 1.94053e-15 -8.73626 8.73939
      vertex 2.00834e-15 -9.33561 9.04477
    endloop
  endfacet
  facet normal -0 -0.453986 -0.891009
    outer loop
      vertex 1.94053e-15 -8.73626 8.73939
      vertex -4 -9.33561 9.04477
      vertex -4 -8.73626 8.73939
    endloop
  endfacet
  facet normal 0 -0.987688 0.156436
    outer loop
      vertex -4 -7.95523 6.33561
      vertex 1.55431e-15 -7.85 7
      vertex -4 -7.85 7
    endloop
  endfacet
  facet normal 0 -0.987688 0.156436
    outer loop
      vertex 1.55431e-15 -7.85 7
      vertex -4 -7.95523 6.33561
      vertex 1.40679e-15 -7.95523 6.33561
    endloop
  endfacet
  facet normal 0 -0.891009 0.453986
    outer loop
      vertex -4 -8.26061 5.73626
      vertex 1.40679e-15 -7.95523 6.33561
      vertex -4 -7.95523 6.33561
    endloop
  endfacet
  facet normal 0 -0.891009 0.453986
    outer loop
      vertex 1.40679e-15 -7.95523 6.33561
      vertex -4 -8.26061 5.73626
      vertex 1.27371e-15 -8.26061 5.73626
    endloop
  endfacet
  facet normal 0 -0.453986 0.891009
    outer loop
      vertex -4 -8.73626 5.26061
      vertex 1.10028e-15 -9.33561 4.95523
      vertex 1.16809e-15 -8.73626 5.26061
    endloop
  endfacet
  facet normal 0 -0.453986 0.891009
    outer loop
      vertex 1.10028e-15 -9.33561 4.95523
      vertex -4 -8.73626 5.26061
      vertex -4 -9.33561 4.95523
    endloop
  endfacet
  facet normal 0 -0.707107 0.707107
    outer loop
      vertex -4 -8.73626 5.26061
      vertex 1.27371e-15 -8.26061 5.73626
      vertex -4 -8.26061 5.73626
    endloop
  endfacet
  facet normal 0 -0.707107 0.707107
    outer loop
      vertex 1.27371e-15 -8.26061 5.73626
      vertex -4 -8.73626 5.26061
      vertex 1.16809e-15 -8.73626 5.26061
    endloop
  endfacet
  facet normal 0 0.156434 -0.987688
    outer loop
      vertex -4 -10.6644 9.04477
      vertex 2.03171e-15 -10 9.15
      vertex 2.00834e-15 -10.6644 9.04477
    endloop
  endfacet
  facet normal 0 0.156434 -0.987688
    outer loop
      vertex 2.03171e-15 -10 9.15
      vertex -4 -10.6644 9.04477
      vertex -4 -10 9.15
    endloop
  endfacet
  facet normal -0 0.156434 0.987688
    outer loop
      vertex -4 -10 4.85
      vertex 1.10028e-15 -10.6644 4.95523
      vertex 1.07692e-15 -10 4.85
    endloop
  endfacet
  facet normal 0 0.156434 0.987688
    outer loop
      vertex 1.10028e-15 -10.6644 4.95523
      vertex -4 -10 4.85
      vertex -4 -10.6644 4.95523
    endloop
  endfacet
  facet normal 0 0.890997 0.454009
    outer loop
      vertex 1.27371e-15 -11.7394 5.73626
      vertex -4 -12.0448 6.33561
      vertex 1.40679e-15 -12.0448 6.33561
    endloop
  endfacet
  facet normal 0 0.890997 0.454009
    outer loop
      vertex -4 -12.0448 6.33561
      vertex 1.27371e-15 -11.7394 5.73626
      vertex -4 -11.7394 5.73626
    endloop
  endfacet
  facet normal 0 -0.707107 -0.707107
    outer loop
      vertex -4 -8.26061 8.26374
      vertex 1.94053e-15 -8.73626 8.73939
      vertex -4 -8.73626 8.73939
    endloop
  endfacet
  facet normal 0 -0.707107 -0.707107
    outer loop
      vertex 1.94053e-15 -8.73626 8.73939
      vertex -4 -8.26061 8.26374
      vertex 1.83492e-15 -8.26061 8.26374
    endloop
  endfacet
  facet normal 0 -0.891009 -0.453986
    outer loop
      vertex -4 -7.95523 7.66439
      vertex 1.83492e-15 -8.26061 8.26374
      vertex -4 -8.26061 8.26374
    endloop
  endfacet
  facet normal 0 -0.891009 -0.453986
    outer loop
      vertex 1.83492e-15 -8.26061 8.26374
      vertex -4 -7.95523 7.66439
      vertex 1.70184e-15 -7.95523 7.66439
    endloop
  endfacet
  facet normal 0 -0.156436 -0.987688
    outer loop
      vertex -4 -10 9.15
      vertex 2.00834e-15 -9.33561 9.04477
      vertex 2.03171e-15 -10 9.15
    endloop
  endfacet
  facet normal -0 -0.156436 -0.987688
    outer loop
      vertex 2.00834e-15 -9.33561 9.04477
      vertex -4 -10 9.15
      vertex -4 -9.33561 9.04477
    endloop
  endfacet
  facet normal -0 0.454016 0.890994
    outer loop
      vertex -4 -10.6644 4.95523
      vertex 1.16809e-15 -11.2637 5.26061
      vertex 1.10028e-15 -10.6644 4.95523
    endloop
  endfacet
  facet normal 0 0.454016 0.890994
    outer loop
      vertex 1.16809e-15 -11.2637 5.26061
      vertex -4 -10.6644 4.95523
      vertex -4 -11.2637 5.26061
    endloop
  endfacet
  facet normal 0 0.70707 0.707144
    outer loop
      vertex 1.16809e-15 -11.2637 5.26061
      vertex -4 -11.7394 5.73626
      vertex 1.27371e-15 -11.7394 5.73626
    endloop
  endfacet
  facet normal 0 0.70707 0.707144
    outer loop
      vertex -4 -11.7394 5.73626
      vertex 1.16809e-15 -11.2637 5.26061
      vertex -4 -11.2637 5.26061
    endloop
  endfacet
  facet normal 0 0.70707 -0.707144
    outer loop
      vertex 1.83492e-15 -11.7394 8.26374
      vertex -4 -11.2637 8.73939
      vertex 1.94053e-15 -11.2637 8.73939
    endloop
  endfacet
  facet normal 0 0.70707 -0.707144
    outer loop
      vertex -4 -11.2637 8.73939
      vertex 1.83492e-15 -11.7394 8.26374
      vertex -4 -11.7394 8.26374
    endloop
  endfacet
  facet normal 0 0.890997 -0.454009
    outer loop
      vertex 1.70184e-15 -12.0448 7.66439
      vertex -4 -11.7394 8.26374
      vertex 1.83492e-15 -11.7394 8.26374
    endloop
  endfacet
  facet normal 0 0.890997 -0.454009
    outer loop
      vertex -4 -11.7394 8.26374
      vertex 1.70184e-15 -12.0448 7.66439
      vertex -4 -12.0448 7.66439
    endloop
  endfacet
  facet normal 0 0.454016 -0.890994
    outer loop
      vertex -4 -11.2637 8.73939
      vertex 2.00834e-15 -10.6644 9.04477
      vertex 1.94053e-15 -11.2637 8.73939
    endloop
  endfacet
  facet normal 0 0.454016 -0.890994
    outer loop
      vertex 2.00834e-15 -10.6644 9.04477
      vertex -4 -11.2637 8.73939
      vertex -4 -10.6644 9.04477
    endloop
  endfacet
  facet normal 0 -0.15643 0.987689
    outer loop
      vertex -4 -8.71758 3.05311
      vertex -6.84072 -10 2.85
      vertex -4 -10 2.85
    endloop
  endfacet
  facet normal 0 -0.15643 0.987689
    outer loop
      vertex -6.84072 -10 2.85
      vertex -4 -8.71758 3.05311
      vertex -7.86944 -8.71758 3.05311
    endloop
  endfacet
  facet normal 0 0.156433 0.987689
    outer loop
      vertex -4 -10 2.85
      vertex -5.1214 -11.2824 3.05311
      vertex -4 -11.2824 3.05311
    endloop
  endfacet
  facet normal 0 0.156433 0.987689
    outer loop
      vertex -5.1214 -11.2824 3.05311
      vertex -4 -10 2.85
      vertex -6.84072 -10 2.85
    endloop
  endfacet
  facet normal 0 -0.987689 0.15643
    outer loop
      vertex -4 -6.05311 5.71758
      vertex -4.23214 -5.85 7
      vertex -6.19464 -6.05311 5.71758
    endloop
  endfacet
  facet normal 0 -0.987689 0.15643
    outer loop
      vertex -4.23214 -5.85 7
      vertex -4 -6.05311 5.71758
      vertex -4 -5.85 7
    endloop
  endfacet
  facet normal 0 -0.987695 -0.156396
    outer loop
      vertex -4 -5.86966 7.12416
      vertex -4.23214 -5.85 7
      vertex -4 -5.85 7
    endloop
  endfacet
  facet normal 0 -0.891005 0.453994
    outer loop
      vertex -4 -6.64258 4.56069
      vertex -6.19464 -6.05311 5.71758
      vertex -7.52978 -6.64258 4.56069
    endloop
  endfacet
  facet normal 0 -0.891005 0.453994
    outer loop
      vertex -6.19464 -6.05311 5.71758
      vertex -4 -6.64258 4.56069
      vertex -4 -6.05311 5.71758
    endloop
  endfacet
  facet normal 0 -0.707107 0.707107
    outer loop
      vertex -4 -7.56069 3.64258
      vertex -7.52978 -6.64258 4.56069
      vertex -8.10688 -7.56069 3.64258
    endloop
  endfacet
  facet normal 0 -0.707107 0.707107
    outer loop
      vertex -7.52978 -6.64258 4.56069
      vertex -4 -7.56069 3.64258
      vertex -4 -6.64258 4.56069
    endloop
  endfacet
  facet normal 0 -0.453994 0.891005
    outer loop
      vertex -4 -7.56069 3.64258
      vertex -7.86944 -8.71758 3.05311
      vertex -4 -8.71758 3.05311
    endloop
  endfacet
  facet normal 0 -0.453994 0.891005
    outer loop
      vertex -7.86944 -8.71758 3.05311
      vertex -4 -7.56069 3.64258
      vertex -8.10688 -7.56069 3.64258
    endloop
  endfacet
  facet normal -0 0.453962 0.891021
    outer loop
      vertex -5.1214 -11.2824 3.05311
      vertex -4 -11.8612 3.348
      vertex -4 -11.2824 3.05311
    endloop
  endfacet
  facet normal 0 -0.156392 0.987695
    outer loop
      vertex -4 -9.33561 30.9552
      vertex 6.85008e-15 -10 30.85
      vertex 6.87344e-15 -9.33561 30.9552
    endloop
  endfacet
  facet normal 0 -0.156392 0.987695
    outer loop
      vertex 6.85008e-15 -10 30.85
      vertex -4 -9.33561 30.9552
      vertex -4 -10 30.85
    endloop
  endfacet
  facet normal 0 -0.987688 -0.156434
    outer loop
      vertex -4 -7.85 33
      vertex 7.475e-15 -7.95523 33.6644
      vertex -4 -7.95523 33.6644
    endloop
  endfacet
  facet normal 0 -0.987688 -0.156434
    outer loop
      vertex 7.475e-15 -7.95523 33.6644
      vertex -4 -7.85 33
      vertex 7.32747e-15 -7.85 33
    endloop
  endfacet
  facet normal 0 0.987695 -0.15639
    outer loop
      vertex 7.32747e-15 -12.15 33
      vertex -4 -12.0448 33.6644
      vertex 7.475e-15 -12.0448 33.6644
    endloop
  endfacet
  facet normal 0 0.987695 -0.15639
    outer loop
      vertex -4 -12.0448 33.6644
      vertex 7.32747e-15 -12.15 33
      vertex -4 -12.15 33
    endloop
  endfacet
  facet normal 0 0.987695 0.15639
    outer loop
      vertex 7.17995e-15 -12.0448 32.3356
      vertex -4 -12.15 33
      vertex 7.32747e-15 -12.15 33
    endloop
  endfacet
  facet normal 0 0.987695 0.15639
    outer loop
      vertex -4 -12.15 33
      vertex 7.17995e-15 -12.0448 32.3356
      vertex -4 -12.0448 32.3356
    endloop
  endfacet
  facet normal 0 -0.454009 -0.890997
    outer loop
      vertex -4 -9.33561 35.0448
      vertex 7.71369e-15 -8.73626 34.7394
      vertex 7.7815e-15 -9.33561 35.0448
    endloop
  endfacet
  facet normal -0 -0.454009 -0.890997
    outer loop
      vertex 7.71369e-15 -8.73626 34.7394
      vertex -4 -9.33561 35.0448
      vertex -4 -8.73626 34.7394
    endloop
  endfacet
  facet normal 0 -0.987688 0.156434
    outer loop
      vertex -4 -7.95523 32.3356
      vertex 7.32747e-15 -7.85 33
      vertex -4 -7.85 33
    endloop
  endfacet
  facet normal 0 -0.987688 0.156434
    outer loop
      vertex 7.32747e-15 -7.85 33
      vertex -4 -7.95523 32.3356
      vertex 7.17995e-15 -7.95523 32.3356
    endloop
  endfacet
  facet normal 0 -0.890994 0.454016
    outer loop
      vertex -4 -8.26061 31.7363
      vertex 7.17995e-15 -7.95523 32.3356
      vertex -4 -7.95523 32.3356
    endloop
  endfacet
  facet normal 0 -0.890994 0.454016
    outer loop
      vertex 7.17995e-15 -7.95523 32.3356
      vertex -4 -8.26061 31.7363
      vertex 7.04687e-15 -8.26061 31.7363
    endloop
  endfacet
  facet normal 0 -0.707144 0.70707
    outer loop
      vertex -4 -8.73626 31.2606
      vertex 7.04687e-15 -8.26061 31.7363
      vertex -4 -8.26061 31.7363
    endloop
  endfacet
  facet normal 0 -0.707144 0.70707
    outer loop
      vertex 7.04687e-15 -8.26061 31.7363
      vertex -4 -8.73626 31.2606
      vertex 6.94125e-15 -8.73626 31.2606
    endloop
  endfacet
  facet normal 0 0.15639 -0.987695
    outer loop
      vertex -4 -10.6644 35.0448
      vertex 7.80487e-15 -10 35.15
      vertex 7.7815e-15 -10.6644 35.0448
    endloop
  endfacet
  facet normal 0 0.15639 -0.987695
    outer loop
      vertex 7.80487e-15 -10 35.15
      vertex -4 -10.6644 35.0448
      vertex -4 -10 35.15
    endloop
  endfacet
  facet normal -0 0.15639 0.987695
    outer loop
      vertex -4 -10 30.85
      vertex 6.87344e-15 -10.6644 30.9552
      vertex 6.85008e-15 -10 30.85
    endloop
  endfacet
  facet normal 0 0.15639 0.987695
    outer loop
      vertex 6.87344e-15 -10.6644 30.9552
      vertex -4 -10 30.85
      vertex -4 -10.6644 30.9552
    endloop
  endfacet
  facet normal 0 0.890982 0.454039
    outer loop
      vertex 7.04687e-15 -11.7394 31.7363
      vertex -4 -12.0448 32.3356
      vertex 7.17995e-15 -12.0448 32.3356
    endloop
  endfacet
  facet normal 0 0.890982 0.454039
    outer loop
      vertex -4 -12.0448 32.3356
      vertex 7.04687e-15 -11.7394 31.7363
      vertex -4 -11.7394 31.7363
    endloop
  endfacet
  facet normal 0 -0.707144 -0.70707
    outer loop
      vertex -4 -8.26061 34.2637
      vertex 7.71369e-15 -8.73626 34.7394
      vertex -4 -8.73626 34.7394
    endloop
  endfacet
  facet normal 0 -0.707144 -0.70707
    outer loop
      vertex 7.71369e-15 -8.73626 34.7394
      vertex -4 -8.26061 34.2637
      vertex 7.60808e-15 -8.26061 34.2637
    endloop
  endfacet
  facet normal 0 -0.890994 -0.454016
    outer loop
      vertex -4 -7.95523 33.6644
      vertex 7.60808e-15 -8.26061 34.2637
      vertex -4 -8.26061 34.2637
    endloop
  endfacet
  facet normal 0 -0.890994 -0.454016
    outer loop
      vertex 7.60808e-15 -8.26061 34.2637
      vertex -4 -7.95523 33.6644
      vertex 7.475e-15 -7.95523 33.6644
    endloop
  endfacet
  facet normal 0 -0.454009 0.890997
    outer loop
      vertex -4 -8.73626 31.2606
      vertex 6.87344e-15 -9.33561 30.9552
      vertex 6.94125e-15 -8.73626 31.2606
    endloop
  endfacet
  facet normal 0 -0.454009 0.890997
    outer loop
      vertex 6.87344e-15 -9.33561 30.9552
      vertex -4 -8.73626 31.2606
      vertex -4 -9.33561 30.9552
    endloop
  endfacet
  facet normal 0 -0.156392 -0.987695
    outer loop
      vertex -4 -10 35.15
      vertex 7.7815e-15 -9.33561 35.0448
      vertex 7.80487e-15 -10 35.15
    endloop
  endfacet
  facet normal -0 -0.156392 -0.987695
    outer loop
      vertex 7.7815e-15 -9.33561 35.0448
      vertex -4 -10 35.15
      vertex -4 -9.33561 35.0448
    endloop
  endfacet
  facet normal -0 0.454039 0.890982
    outer loop
      vertex -4 -10.6644 30.9552
      vertex 6.94125e-15 -11.2637 31.2606
      vertex 6.87344e-15 -10.6644 30.9552
    endloop
  endfacet
  facet normal 0 0.454039 0.890982
    outer loop
      vertex 6.94125e-15 -11.2637 31.2606
      vertex -4 -10.6644 30.9552
      vertex -4 -11.2637 31.2606
    endloop
  endfacet
  facet normal 0 0.707107 0.707107
    outer loop
      vertex 6.94125e-15 -11.2637 31.2606
      vertex -4 -11.7394 31.7363
      vertex 7.04687e-15 -11.7394 31.7363
    endloop
  endfacet
  facet normal 0 0.707107 0.707107
    outer loop
      vertex -4 -11.7394 31.7363
      vertex 6.94125e-15 -11.2637 31.2606
      vertex -4 -11.2637 31.2606
    endloop
  endfacet
  facet normal 0 0.707107 -0.707107
    outer loop
      vertex 7.60808e-15 -11.7394 34.2637
      vertex -4 -11.2637 34.7394
      vertex 7.71369e-15 -11.2637 34.7394
    endloop
  endfacet
  facet normal 0 0.707107 -0.707107
    outer loop
      vertex -4 -11.2637 34.7394
      vertex 7.60808e-15 -11.7394 34.2637
      vertex -4 -11.7394 34.2637
    endloop
  endfacet
  facet normal 0 0.890982 -0.454039
    outer loop
      vertex 7.475e-15 -12.0448 33.6644
      vertex -4 -11.7394 34.2637
      vertex 7.60808e-15 -11.7394 34.2637
    endloop
  endfacet
  facet normal 0 0.890982 -0.454039
    outer loop
      vertex -4 -11.7394 34.2637
      vertex 7.475e-15 -12.0448 33.6644
      vertex -4 -12.0448 33.6644
    endloop
  endfacet
  facet normal 0 0.454039 -0.890982
    outer loop
      vertex -4 -11.2637 34.7394
      vertex 7.7815e-15 -10.6644 35.0448
      vertex 7.71369e-15 -11.2637 34.7394
    endloop
  endfacet
  facet normal 0 0.454039 -0.890982
    outer loop
      vertex 7.7815e-15 -10.6644 35.0448
      vertex -4 -11.2637 34.7394
      vertex -4 -10.6644 35.0448
    endloop
  endfacet
  facet normal 0 -0.156423 -0.98769
    outer loop
      vertex -6.555 -10 37.15
      vertex -4 -8.71758 36.9469
      vertex -4 -10 37.15
    endloop
  endfacet
  facet normal -0 -0.156423 -0.98769
    outer loop
      vertex -4 -8.71758 36.9469
      vertex -6.555 -10 37.15
      vertex -7.49212 -8.71758 36.9469
    endloop
  endfacet
  facet normal 0 -0.707103 -0.707111
    outer loop
      vertex -7.00424 -6.64258 35.4393
      vertex -4 -7.56069 36.3574
      vertex -7.64692 -7.56069 36.3574
    endloop
  endfacet
  facet normal 0 -0.707103 -0.707111
    outer loop
      vertex -4 -7.56069 36.3574
      vertex -7.00424 -6.64258 35.4393
      vertex -4 -6.64258 35.4393
    endloop
  endfacet
  facet normal 0 -0.454012 -0.890996
    outer loop
      vertex -7.49212 -8.71758 36.9469
      vertex -4 -7.56069 36.3574
      vertex -4 -8.71758 36.9469
    endloop
  endfacet
  facet normal -0 -0.454012 -0.890996
    outer loop
      vertex -4 -7.56069 36.3574
      vertex -7.49212 -8.71758 36.9469
      vertex -7.64692 -7.56069 36.3574
    endloop
  endfacet
  facet normal -0 -0.98769 -0.156426
    outer loop
      vertex -4 -6.05311 34.2824
      vertex -5.627 -6.05311 34.2824
      vertex -4 -5.88596 33.227
    endloop
  endfacet
  facet normal 0 -0.891007 -0.453991
    outer loop
      vertex -5.627 -6.05311 34.2824
      vertex -4 -6.64258 35.4393
      vertex -7.00424 -6.64258 35.4393
    endloop
  endfacet
  facet normal 0 -0.891007 -0.453991
    outer loop
      vertex -4 -6.64258 35.4393
      vertex -5.627 -6.05311 34.2824
      vertex -4 -6.05311 34.2824
    endloop
  endfacet
  facet normal 0 0.156425 -0.98769
    outer loop
      vertex -4.92728 -11.2824 36.9469
      vertex -4 -10 37.15
      vertex -4 -11.2824 36.9469
    endloop
  endfacet
  facet normal 0 0.156425 -0.98769
    outer loop
      vertex -4 -10 37.15
      vertex -4.92728 -11.2824 36.9469
      vertex -6.555 -10 37.15
    endloop
  endfacet
  facet normal 0 0.454014 -0.890994
    outer loop
      vertex -4.92728 -11.2824 36.9469
      vertex -4 -11.2824 36.9469
      vertex -4 -11.7793 36.6937
    endloop
  endfacet
endsolid OpenSCAD_Model
