solid OpenSCAD_Model
  facet normal 0 -1 0
    outer loop
      vertex 0 0 40
      vertex 15 0 60
      vertex 0 0 60
    endloop
  endfacet
  facet normal 0 -1 0
    outer loop
      vertex 0 0 40
      vertex 15 0 40
      vertex 15 0 60
    endloop
  endfacet
  facet normal 0 -1 0
    outer loop
      vertex 2.5 0 35
      vertex 15 0 40
      vertex 0 0 40
    endloop
  endfacet
  facet normal 0 -1 0
    outer loop
      vertex 2.5 0 35
      vertex 12.5 0 35
      vertex 15 0 40
    endloop
  endfacet
  facet normal 0 -1 0
    outer loop
      vertex 2.5 0 25
      vertex 12.5 0 35
      vertex 2.5 0 35
    endloop
  endfacet
  facet normal 0 -1 0
    outer loop
      vertex 2.5 0 25
      vertex 12.5 0 25
      vertex 12.5 0 35
    endloop
  endfacet
  facet normal 0 -1 0
    outer loop
      vertex 0 0 20
      vertex 12.5 0 25
      vertex 2.5 0 25
    endloop
  endfacet
  facet normal 0 -1 0
    outer loop
      vertex 0 0 20
      vertex 15 0 20
      vertex 12.5 0 25
    endloop
  endfacet
  facet normal 0 -1 0
    outer loop
      vertex 0 0 0
      vertex 15 0 20
      vertex 0 0 20
    endloop
  endfacet
  facet normal 0 -1 -0
    outer loop
      vertex 15 0 20
      vertex 0 0 0
      vertex 15 0 0
    endloop
  endfacet
  facet normal 0.894427 -0 0.447214
    outer loop
      vertex 12.5 0 25
      vertex 15 5 20
      vertex 12.5 5 25
    endloop
  endfacet
  facet normal 0.894427 0 0.447214
    outer loop
      vertex 15 5 20
      vertex 12.5 0 25
      vertex 15 0 20
    endloop
  endfacet
  facet normal -1 0 0
    outer loop
      vertex 0 0 0
      vertex 0 5 20
      vertex 0 5 0
    endloop
  endfacet
  facet normal -1 -0 0
    outer loop
      vertex 0 5 20
      vertex 0 0 0
      vertex 0 0 20
    endloop
  endfacet
  facet normal 0 1 -0
    outer loop
      vertex 15 5 40
      vertex 0 5 60
      vertex 15 5 60
    endloop
  endfacet
  facet normal 0 1 0
    outer loop
      vertex 15 5 40
      vertex 0 5 40
      vertex 0 5 60
    endloop
  endfacet
  facet normal 0 1 -0
    outer loop
      vertex 12.5 5 35
      vertex 0 5 40
      vertex 15 5 40
    endloop
  endfacet
  facet normal 0 1 0
    outer loop
      vertex 12.5 5 35
      vertex 2.5 5 35
      vertex 0 5 40
    endloop
  endfacet
  facet normal 0 1 -0
    outer loop
      vertex 12.5 5 25
      vertex 2.5 5 35
      vertex 12.5 5 35
    endloop
  endfacet
  facet normal 0 1 0
    outer loop
      vertex 12.5 5 25
      vertex 2.5 5 25
      vertex 2.5 5 35
    endloop
  endfacet
  facet normal 0 1 0
    outer loop
      vertex 15 5 20
      vertex 2.5 5 25
      vertex 12.5 5 25
    endloop
  endfacet
  facet normal 0 1 0
    outer loop
      vertex 15 5 20
      vertex 0 5 20
      vertex 2.5 5 25
    endloop
  endfacet
  facet normal 0 1 -0
    outer loop
      vertex 15 5 0
      vertex 0 5 20
      vertex 15 5 20
    endloop
  endfacet
  facet normal 0 1 0
    outer loop
      vertex 0 5 20
      vertex 15 5 0
      vertex 0 5 0
    endloop
  endfacet
  facet normal -0.894427 0 0.447214
    outer loop
      vertex 0 0 20
      vertex 2.5 5 25
      vertex 0 5 20
    endloop
  endfacet
  facet normal -0.894427 0 0.447214
    outer loop
      vertex 2.5 5 25
      vertex 0 0 20
      vertex 2.5 0 25
    endloop
  endfacet
  facet normal 0 0 -1
    outer loop
      vertex 0 0 0
      vertex 15 5 0
      vertex 15 0 0
    endloop
  endfacet
  facet normal -0 0 -1
    outer loop
      vertex 15 5 0
      vertex 0 0 0
      vertex 0 5 0
    endloop
  endfacet
  facet normal 1 -0 0
    outer loop
      vertex 15 0 20
      vertex 15 5 0
      vertex 15 5 20
    endloop
  endfacet
  facet normal 1 0 0
    outer loop
      vertex 15 5 0
      vertex 15 0 20
      vertex 15 0 0
    endloop
  endfacet
  facet normal -1 0 0
    outer loop
      vertex 2.5 0 25
      vertex 2.5 5 35
      vertex 2.5 5 25
    endloop
  endfacet
  facet normal -1 -0 0
    outer loop
      vertex 2.5 5 35
      vertex 2.5 0 25
      vertex 2.5 0 35
    endloop
  endfacet
  facet normal 1 -0 0
    outer loop
      vertex 12.5 0 35
      vertex 12.5 5 25
      vertex 12.5 5 35
    endloop
  endfacet
  facet normal 1 0 0
    outer loop
      vertex 12.5 5 25
      vertex 12.5 0 35
      vertex 12.5 0 25
    endloop
  endfacet
  facet normal 0.894427 0 -0.447214
    outer loop
      vertex 15 0 40
      vertex 12.5 5 35
      vertex 15 5 40
    endloop
  endfacet
  facet normal 0.894427 0 -0.447214
    outer loop
      vertex 12.5 5 35
      vertex 15 0 40
      vertex 12.5 0 35
    endloop
  endfacet
  facet normal 1 -0 0
    outer loop
      vertex 15 0 60
      vertex 15 5 40
      vertex 15 5 60
    endloop
  endfacet
  facet normal 1 0 0
    outer loop
      vertex 15 5 40
      vertex 15 0 60
      vertex 15 0 40
    endloop
  endfacet
  facet normal -0 0 1
    outer loop
      vertex 0 5 60
      vertex 15 0 60
      vertex 15 5 60
    endloop
  endfacet
  facet normal 0 0 1
    outer loop
      vertex 15 0 60
      vertex 0 5 60
      vertex 0 0 60
    endloop
  endfacet
  facet normal -0.894427 0 -0.447214
    outer loop
      vertex 2.5 0 35
      vertex 0 5 40
      vertex 2.5 5 35
    endloop
  endfacet
  facet normal -0.894427 -0 -0.447214
    outer loop
      vertex 0 5 40
      vertex 2.5 0 35
      vertex 0 0 40
    endloop
  endfacet
  facet normal -1 0 0
    outer loop
      vertex 0 0 40
      vertex 0 5 60
      vertex 0 5 40
    endloop
  endfacet
  facet normal -1 -0 0
    outer loop
      vertex 0 5 60
      vertex 0 0 40
      vertex 0 0 60
    endloop
  endfacet
endsolid OpenSCAD_Model
