solid OpenSCAD_Model
  facet normal -1 0 0
    outer loop
      vertex -5 -5 -0.0999994
      vertex -5 5 0.0999994
      vertex -5 5 -0.0999994
    endloop
  endfacet
  facet normal -1 -0 0
    outer loop
      vertex -5 5 0.0999994
      vertex -5 -5 -0.0999994
      vertex -5 -5 0.0999994
    endloop
  endfacet
  facet normal -0 0 1
    outer loop
      vertex -5 5 0.0999994
      vertex 5 -5 0.0999994
      vertex 5 5 0.0999994
    endloop
  endfacet
  facet normal 0 0 1
    outer loop
      vertex 5 -5 0.0999994
      vertex -5 5 0.0999994
      vertex -5 -5 0.0999994
    endloop
  endfacet
  facet normal 1 -0 0
    outer loop
      vertex 5 -5 0.0999994
      vertex 5 5 -0.0999994
      vertex 5 5 0.0999994
    endloop
  endfacet
  facet normal 1 0 0
    outer loop
      vertex 5 5 -0.0999994
      vertex 5 -5 0.0999994
      vertex 5 -5 -0.0999994
    endloop
  endfacet
  facet normal 0 0 -1
    outer loop
      vertex -5 -5 -0.0999994
      vertex 5 5 -0.0999994
      vertex 5 -5 -0.0999994
    endloop
  endfacet
  facet normal -0 0 -1
    outer loop
      vertex 5 5 -0.0999994
      vertex -5 -5 -0.0999994
      vertex -5 5 -0.0999994
    endloop
  endfacet
  facet normal 0 -1 0
    outer loop
      vertex -5 -5 -0.0999994
      vertex 5 -5 0.0999994
      vertex -5 -5 0.0999994
    endloop
  endfacet
  facet normal 0 -1 -0
    outer loop
      vertex 5 -5 0.0999994
      vertex -5 -5 -0.0999994
      vertex 5 -5 -0.0999994
    endloop
  endfacet
  facet normal 0 1 -0
    outer loop
      vertex 5 5 -0.0999994
      vertex -5 5 0.0999994
      vertex 5 5 0.0999994
    endloop
  endfacet
  facet normal 0 1 0
    outer loop
      vertex -5 5 0.0999994
      vertex 5 5 -0.0999994
      vertex -5 5 -0.0999994
    endloop
  endfacet
  facet normal -1 0 0
    outer loop
      vertex 75 75 -0.0999994
      vertex 75 85 0.0999994
      vertex 75 85 -0.0999994
    endloop
  endfacet
  facet normal -1 -0 0
    outer loop
      vertex 75 85 0.0999994
      vertex 75 75 -0.0999994
      vertex 75 75 0.0999994
    endloop
  endfacet
  facet normal -0 0 1
    outer loop
      vertex 75 85 0.0999994
      vertex 85 75 0.0999994
      vertex 85 85 0.0999994
    endloop
  endfacet
  facet normal 0 0 1
    outer loop
      vertex 85 75 0.0999994
      vertex 75 85 0.0999994
      vertex 75 75 0.0999994
    endloop
  endfacet
  facet normal 1 -0 0
    outer loop
      vertex 85 75 0.0999994
      vertex 85 85 -0.0999994
      vertex 85 85 0.0999994
    endloop
  endfacet
  facet normal 1 0 0
    outer loop
      vertex 85 85 -0.0999994
      vertex 85 75 0.0999994
      vertex 85 75 -0.0999994
    endloop
  endfacet
  facet normal 0 0 -1
    outer loop
      vertex 75 75 -0.0999994
      vertex 85 85 -0.0999994
      vertex 85 75 -0.0999994
    endloop
  endfacet
  facet normal -0 0 -1
    outer loop
      vertex 85 85 -0.0999994
      vertex 75 75 -0.0999994
      vertex 75 85 -0.0999994
    endloop
  endfacet
  facet normal 0 -1 0
    outer loop
      vertex 75 75 -0.0999994
      vertex 85 75 0.0999994
      vertex 75 75 0.0999994
    endloop
  endfacet
  facet normal 0 -1 -0
    outer loop
      vertex 85 75 0.0999994
      vertex 75 75 -0.0999994
      vertex 85 75 -0.0999994
    endloop
  endfacet
  facet normal 0 1 -0
    outer loop
      vertex 85 85 -0.0999994
      vertex 75 85 0.0999994
      vertex 85 85 0.0999994
    endloop
  endfacet
  facet normal 0 1 0
    outer loop
      vertex 75 85 0.0999994
      vertex 85 85 -0.0999994
      vertex 75 85 -0.0999994
    endloop
  endfacet
  facet normal -1 0 0
    outer loop
      vertex -85 75 -0.0999994
      vertex -85 85 0.0999994
      vertex -85 85 -0.0999994
    endloop
  endfacet
  facet normal -1 -0 0
    outer loop
      vertex -85 85 0.0999994
      vertex -85 75 -0.0999994
      vertex -85 75 0.0999994
    endloop
  endfacet
  facet normal -0 0 1
    outer loop
      vertex -85 85 0.0999994
      vertex -75 75 0.0999994
      vertex -75 85 0.0999994
    endloop
  endfacet
  facet normal 0 0 1
    outer loop
      vertex -75 75 0.0999994
      vertex -85 85 0.0999994
      vertex -85 75 0.0999994
    endloop
  endfacet
  facet normal 1 -0 0
    outer loop
      vertex -75 75 0.0999994
      vertex -75 85 -0.0999994
      vertex -75 85 0.0999994
    endloop
  endfacet
  facet normal 1 0 0
    outer loop
      vertex -75 85 -0.0999994
      vertex -75 75 0.0999994
      vertex -75 75 -0.0999994
    endloop
  endfacet
  facet normal 0 1 -0
    outer loop
      vertex -75 85 -0.0999994
      vertex -85 85 0.0999994
      vertex -75 85 0.0999994
    endloop
  endfacet
  facet normal 0 1 0
    outer loop
      vertex -85 85 0.0999994
      vertex -75 85 -0.0999994
      vertex -85 85 -0.0999994
    endloop
  endfacet
  facet normal 0 0 -1
    outer loop
      vertex -85 75 -0.0999994
      vertex -75 85 -0.0999994
      vertex -75 75 -0.0999994
    endloop
  endfacet
  facet normal -0 0 -1
    outer loop
      vertex -75 85 -0.0999994
      vertex -85 75 -0.0999994
      vertex -85 85 -0.0999994
    endloop
  endfacet
  facet normal 0 -1 0
    outer loop
      vertex -85 75 -0.0999994
      vertex -75 75 0.0999994
      vertex -85 75 0.0999994
    endloop
  endfacet
  facet normal 0 -1 -0
    outer loop
      vertex -75 75 0.0999994
      vertex -85 75 -0.0999994
      vertex -75 75 -0.0999994
    endloop
  endfacet
  facet normal -1 0 0
    outer loop
      vertex -85 -85 -0.0999994
      vertex -85 -75 0.0999994
      vertex -85 -75 -0.0999994
    endloop
  endfacet
  facet normal -1 -0 0
    outer loop
      vertex -85 -75 0.0999994
      vertex -85 -85 -0.0999994
      vertex -85 -85 0.0999994
    endloop
  endfacet
  facet normal -0 0 1
    outer loop
      vertex -85 -75 0.0999994
      vertex -75 -85 0.0999994
      vertex -75 -75 0.0999994
    endloop
  endfacet
  facet normal 0 0 1
    outer loop
      vertex -75 -85 0.0999994
      vertex -85 -75 0.0999994
      vertex -85 -85 0.0999994
    endloop
  endfacet
  facet normal 1 -0 0
    outer loop
      vertex -75 -85 0.0999994
      vertex -75 -75 -0.0999994
      vertex -75 -75 0.0999994
    endloop
  endfacet
  facet normal 1 0 0
    outer loop
      vertex -75 -75 -0.0999994
      vertex -75 -85 0.0999994
      vertex -75 -85 -0.0999994
    endloop
  endfacet
  facet normal 0 1 -0
    outer loop
      vertex -75 -75 -0.0999994
      vertex -85 -75 0.0999994
      vertex -75 -75 0.0999994
    endloop
  endfacet
  facet normal 0 1 0
    outer loop
      vertex -85 -75 0.0999994
      vertex -75 -75 -0.0999994
      vertex -85 -75 -0.0999994
    endloop
  endfacet
  facet normal 0 0 -1
    outer loop
      vertex -85 -85 -0.0999994
      vertex -75 -75 -0.0999994
      vertex -75 -85 -0.0999994
    endloop
  endfacet
  facet normal -0 0 -1
    outer loop
      vertex -75 -75 -0.0999994
      vertex -85 -85 -0.0999994
      vertex -85 -75 -0.0999994
    endloop
  endfacet
  facet normal 0 -1 0
    outer loop
      vertex -85 -85 -0.0999994
      vertex -75 -85 0.0999994
      vertex -85 -85 0.0999994
    endloop
  endfacet
  facet normal 0 -1 -0
    outer loop
      vertex -75 -85 0.0999994
      vertex -85 -85 -0.0999994
      vertex -75 -85 -0.0999994
    endloop
  endfacet
  facet normal -1 0 0
    outer loop
      vertex 75 -85 -0.0999994
      vertex 75 -75 0.0999994
      vertex 75 -75 -0.0999994
    endloop
  endfacet
  facet normal -1 -0 0
    outer loop
      vertex 75 -75 0.0999994
      vertex 75 -85 -0.0999994
      vertex 75 -85 0.0999994
    endloop
  endfacet
  facet normal -0 0 1
    outer loop
      vertex 75 -75 0.0999994
      vertex 85 -85 0.0999994
      vertex 85 -75 0.0999994
    endloop
  endfacet
  facet normal 0 0 1
    outer loop
      vertex 85 -85 0.0999994
      vertex 75 -75 0.0999994
      vertex 75 -85 0.0999994
    endloop
  endfacet
  facet normal 1 -0 0
    outer loop
      vertex 85 -85 0.0999994
      vertex 85 -75 -0.0999994
      vertex 85 -75 0.0999994
    endloop
  endfacet
  facet normal 1 0 0
    outer loop
      vertex 85 -75 -0.0999994
      vertex 85 -85 0.0999994
      vertex 85 -85 -0.0999994
    endloop
  endfacet
  facet normal 0 0 -1
    outer loop
      vertex 75 -85 -0.0999994
      vertex 85 -75 -0.0999994
      vertex 85 -85 -0.0999994
    endloop
  endfacet
  facet normal -0 0 -1
    outer loop
      vertex 85 -75 -0.0999994
      vertex 75 -85 -0.0999994
      vertex 75 -75 -0.0999994
    endloop
  endfacet
  facet normal 0 -1 0
    outer loop
      vertex 75 -85 -0.0999994
      vertex 85 -85 0.0999994
      vertex 75 -85 0.0999994
    endloop
  endfacet
  facet normal 0 -1 -0
    outer loop
      vertex 85 -85 0.0999994
      vertex 75 -85 -0.0999994
      vertex 85 -85 -0.0999994
    endloop
  endfacet
  facet normal 0 1 -0
    outer loop
      vertex 85 -75 -0.0999994
      vertex 75 -75 0.0999994
      vertex 85 -75 0.0999994
    endloop
  endfacet
  facet normal 0 1 0
    outer loop
      vertex 75 -75 0.0999994
      vertex 85 -75 -0.0999994
      vertex 75 -75 -0.0999994
    endloop
  endfacet
endsolid OpenSCAD_Model
