solid OpenSCAD_Model
  facet normal -1 0 0
    outer loop
      vertex 5 20 0
      vertex 5 15 10
      vertex 5 20 10
    endloop
  endfacet
  facet normal -1 0 0
    outer loop
      vertex 5 20 0
      vertex 5 5 10
      vertex 5 15 10
    endloop
  endfacet
  facet normal -1 0 0
    outer loop
      vertex 5 0 0
      vertex 5 5 10
      vertex 5 20 0
    endloop
  endfacet
  facet normal -1 -0 0
    outer loop
      vertex 5 5 10
      vertex 5 0 0
      vertex 5 0 10
    endloop
  endfacet
  facet normal 0 0 -1
    outer loop
      vertex 0 5 10
      vertex 5 15 10
      vertex 5 5 10
    endloop
  endfacet
  facet normal -0 0 -1
    outer loop
      vertex 5 15 10
      vertex 0 5 10
      vertex 0 15 10
    endloop
  endfacet
  facet normal 0 0 -1
    outer loop
      vertex 15 5 10
      vertex 20 15 10
      vertex 20 5 10
    endloop
  endfacet
  facet normal -0 0 -1
    outer loop
      vertex 20 15 10
      vertex 15 5 10
      vertex 15 15 10
    endloop
  endfacet
  facet normal -0 0 1
    outer loop
      vertex 5 5 10
      vertex 15 0 10
      vertex 15 5 10
    endloop
  endfacet
  facet normal 0 0 1
    outer loop
      vertex 15 0 10
      vertex 5 5 10
      vertex 5 0 10
    endloop
  endfacet
  facet normal -0 0 1
    outer loop
      vertex 5 20 10
      vertex 15 15 10
      vertex 15 20 10
    endloop
  endfacet
  facet normal 0 0 1
    outer loop
      vertex 15 15 10
      vertex 5 20 10
      vertex 5 15 10
    endloop
  endfacet
  facet normal 1 -0 0
    outer loop
      vertex 15 15 10
      vertex 15 20 0
      vertex 15 20 10
    endloop
  endfacet
  facet normal 1 -0 0
    outer loop
      vertex 15 5 10
      vertex 15 20 0
      vertex 15 15 10
    endloop
  endfacet
  facet normal 1 0 0
    outer loop
      vertex 15 0 0
      vertex 15 5 10
      vertex 15 0 10
    endloop
  endfacet
  facet normal 1 0 0
    outer loop
      vertex 15 5 10
      vertex 15 0 0
      vertex 15 20 0
    endloop
  endfacet
  facet normal 0 0 -1
    outer loop
      vertex 5 0 0
      vertex 15 20 0
      vertex 15 0 0
    endloop
  endfacet
  facet normal -0 0 -1
    outer loop
      vertex 15 20 0
      vertex 5 0 0
      vertex 5 20 0
    endloop
  endfacet
  facet normal 0 -1 0
    outer loop
      vertex 5 0 0
      vertex 15 0 10
      vertex 5 0 10
    endloop
  endfacet
  facet normal 0 -1 -0
    outer loop
      vertex 15 0 10
      vertex 5 0 0
      vertex 15 0 0
    endloop
  endfacet
  facet normal 0 1 -0
    outer loop
      vertex 15 20 0
      vertex 5 20 10
      vertex 15 20 10
    endloop
  endfacet
  facet normal 0 1 0
    outer loop
      vertex 5 20 10
      vertex 15 20 0
      vertex 5 20 0
    endloop
  endfacet
  facet normal -1 0 0
    outer loop
      vertex 0 5 10
      vertex 0 15 20
      vertex 0 15 10
    endloop
  endfacet
  facet normal -1 -0 0
    outer loop
      vertex 0 15 20
      vertex 0 5 10
      vertex 0 5 20
    endloop
  endfacet
  facet normal -0 0 1
    outer loop
      vertex 0 15 20
      vertex 20 5 20
      vertex 20 15 20
    endloop
  endfacet
  facet normal 0 0 1
    outer loop
      vertex 20 5 20
      vertex 0 15 20
      vertex 0 5 20
    endloop
  endfacet
  facet normal 1 -0 0
    outer loop
      vertex 20 5 20
      vertex 20 15 10
      vertex 20 15 20
    endloop
  endfacet
  facet normal 1 0 0
    outer loop
      vertex 20 15 10
      vertex 20 5 20
      vertex 20 5 10
    endloop
  endfacet
  facet normal 0 1 0
    outer loop
      vertex 15 15 10
      vertex 20 15 20
      vertex 20 15 10
    endloop
  endfacet
  facet normal 0 1 0
    outer loop
      vertex 20 15 20
      vertex 15 15 10
      vertex 0 15 20
    endloop
  endfacet
  facet normal 0 1 -0
    outer loop
      vertex 5 15 10
      vertex 0 15 20
      vertex 15 15 10
    endloop
  endfacet
  facet normal 0 1 0
    outer loop
      vertex 0 15 20
      vertex 5 15 10
      vertex 0 15 10
    endloop
  endfacet
  facet normal 0 -1 0
    outer loop
      vertex 5 5 10
      vertex 0 5 20
      vertex 0 5 10
    endloop
  endfacet
  facet normal 0 -1 0
    outer loop
      vertex 0 5 20
      vertex 5 5 10
      vertex 20 5 20
    endloop
  endfacet
  facet normal 0 -1 0
    outer loop
      vertex 15 5 10
      vertex 20 5 20
      vertex 5 5 10
    endloop
  endfacet
  facet normal 0 -1 -0
    outer loop
      vertex 20 5 20
      vertex 15 5 10
      vertex 20 5 10
    endloop
  endfacet
endsolid OpenSCAD_Model
