solid OpenSCAD_Model
  facet normal 0.904831 0.425771 0
    outer loop
      vertex 9.29776 3.68124 23
      vertex 8.76307 4.81754 0
      vertex 8.76307 4.81754 23
    endloop
  endfacet
  facet normal 0.904831 0.425771 0
    outer loop
      vertex 8.76307 4.81754 0
      vertex 9.29776 3.68124 23
      vertex 9.29776 3.68124 0
    endloop
  endfacet
  facet normal -0.951055 0.309022 0
    outer loop
      vertex -9.54265 2.92756 16
      vertex -9.29776 3.68124 0
      vertex -9.54265 2.92756 0
    endloop
  endfacet
  facet normal -0.951055 0.309022 0
    outer loop
      vertex -9.29776 3.68124 0
      vertex -9.54265 2.92756 16
      vertex -9.29776 3.68124 23
    endloop
  endfacet
  facet normal -0.951056 0.309019 0
    outer loop
      vertex -9.68583 2.4869 23
      vertex -9.54265 2.92756 16
      vertex -9.68583 2.4869 16
    endloop
  endfacet
  facet normal -0.951055 0.309021 1.50729e-007
    outer loop
      vertex -9.54265 2.92756 16
      vertex -9.68583 2.4869 23
      vertex -9.29776 3.68124 23
    endloop
  endfacet
  facet normal 0.844325 0.535831 0
    outer loop
      vertex 8.76307 4.81754 23
      vertex 8.09017 5.87785 0
      vertex 8.09017 5.87785 23
    endloop
  endfacet
  facet normal 0.844325 0.535831 0
    outer loop
      vertex 8.09017 5.87785 0
      vertex 8.76307 4.81754 23
      vertex 8.76307 4.81754 0
    endloop
  endfacet
  facet normal 0.248691 0.968583 1.46188e-006
    outer loop
      vertex 3.09017 9.51056 23
      vertex 2.92903 9.55194 19
      vertex 1.87381 9.82287 23
    endloop
  endfacet
  facet normal 0.248725 0.968574 -0
    outer loop
      vertex 3.09017 9.51056 0
      vertex 2.92903 9.55194 19
      vertex 3.09017 9.51056 23
    endloop
  endfacet
  facet normal 0.248725 0.968574 0
    outer loop
      vertex 2.92903 9.55194 19
      vertex 3.09017 9.51056 0
      vertex 2.92903 9.55194 0
    endloop
  endfacet
  facet normal 0.248686 0.968584 0
    outer loop
      vertex 1.87381 9.82287 23
      vertex 2.92903 9.55194 19
      vertex 1.87381 9.82287 19
    endloop
  endfacet
  facet normal 0.368122 0.929777 -0
    outer loop
      vertex 4.25779 9.04827 0
      vertex 3.09017 9.51056 23
      vertex 4.25779 9.04827 23
    endloop
  endfacet
  facet normal 0.368122 0.929777 0
    outer loop
      vertex 3.09017 9.51056 23
      vertex 4.25779 9.04827 0
      vertex 3.09017 9.51056 0
    endloop
  endfacet
  facet normal -0.368122 0.929777 0
    outer loop
      vertex -3.09017 9.51056 0
      vertex -4.25779 9.04827 23
      vertex -3.09017 9.51056 23
    endloop
  endfacet
  facet normal -0.368122 0.929777 0
    outer loop
      vertex -4.25779 9.04827 23
      vertex -3.09017 9.51056 0
      vertex -4.25779 9.04827 0
    endloop
  endfacet
  facet normal -0.904831 0.425771 0
    outer loop
      vertex -9.29776 3.68124 0
      vertex -8.76307 4.81754 23
      vertex -8.76307 4.81754 0
    endloop
  endfacet
  facet normal -0.904831 0.425771 0
    outer loop
      vertex -8.76307 4.81754 23
      vertex -9.29776 3.68124 0
      vertex -9.29776 3.68124 23
    endloop
  endfacet
  facet normal 0.982287 -0.187384 0
    outer loop
      vertex 9.68583 -2.4869 23
      vertex 9.92115 -1.25333 22
      vertex 9.92115 -1.25333 23
    endloop
  endfacet
  facet normal 0.982287 -0.187384 0
    outer loop
      vertex 9.92115 -1.25333 22
      vertex 9.68583 -2.4869 23
      vertex 9.68583 -2.4869 22
    endloop
  endfacet
  facet normal 0.481751 0.876308 -0
    outer loop
      vertex 5.35827 8.44328 0
      vertex 4.25779 9.04827 23
      vertex 5.35827 8.44328 23
    endloop
  endfacet
  facet normal 0.481751 0.876308 0
    outer loop
      vertex 4.25779 9.04827 23
      vertex 5.35827 8.44328 0
      vertex 4.25779 9.04827 0
    endloop
  endfacet
  facet normal -0.982287 0.187384 0
    outer loop
      vertex -9.92115 1.25333 16
      vertex -9.68583 2.4869 23
      vertex -9.68583 2.4869 16
    endloop
  endfacet
  facet normal -0.982287 0.187384 0
    outer loop
      vertex -9.68583 2.4869 23
      vertex -9.92115 1.25333 16
      vertex -9.92115 1.25333 23
    endloop
  endfacet
  facet normal -0.770515 0.637422 0
    outer loop
      vertex -8.09017 5.87785 0
      vertex -7.28969 6.84547 23
      vertex -7.28969 6.84547 0
    endloop
  endfacet
  facet normal -0.770515 0.637422 0
    outer loop
      vertex -7.28969 6.84547 23
      vertex -8.09017 5.87785 0
      vertex -8.09017 5.87785 23
    endloop
  endfacet
  facet normal -0.481751 0.876308 0
    outer loop
      vertex -4.25779 9.04827 0
      vertex -5.35827 8.44328 23
      vertex -4.25779 9.04827 23
    endloop
  endfacet
  facet normal -0.481751 0.876308 0
    outer loop
      vertex -5.35827 8.44328 23
      vertex -4.25779 9.04827 0
      vertex -5.35827 8.44328 0
    endloop
  endfacet
  facet normal -0.125338 0.992114 0
    outer loop
      vertex -0.627905 9.98027 19
      vertex -1.87381 9.82287 23
      vertex -0.627905 9.98027 23
    endloop
  endfacet
  facet normal -0.125338 0.992114 0
    outer loop
      vertex -1.87381 9.82287 23
      vertex -0.627905 9.98027 19
      vertex -1.87381 9.82287 19
    endloop
  endfacet
  facet normal 0.998027 0.0627883 0
    outer loop
      vertex 10 0 23
      vertex 9.92115 1.25333 22
      vertex 9.92115 1.25333 23
    endloop
  endfacet
  facet normal 0.998027 0.0627883 0
    outer loop
      vertex 9.92115 1.25333 22
      vertex 10 0 23
      vertex 10 0 22
    endloop
  endfacet
  facet normal 0.481751 -0.876308 0
    outer loop
      vertex 4.25779 -9.04827 0
      vertex 5.35827 -8.44328 23
      vertex 4.25779 -9.04827 23
    endloop
  endfacet
  facet normal 0.481751 -0.876308 0
    outer loop
      vertex 5.35827 -8.44328 23
      vertex 4.25779 -9.04827 0
      vertex 5.35827 -8.44328 0
    endloop
  endfacet
  facet normal 0.951056 -0.309019 0
    outer loop
      vertex 9.68583 -2.4869 23
      vertex 9.54265 -2.92756 22
      vertex 9.68583 -2.4869 22
    endloop
  endfacet
  facet normal 0.951055 -0.309021 1.0551e-006
    outer loop
      vertex 9.29776 -3.68124 23
      vertex 9.54265 -2.92756 22
      vertex 9.68583 -2.4869 23
    endloop
  endfacet
  facet normal 0.951055 -0.309022 0
    outer loop
      vertex 9.29776 -3.68124 0
      vertex 9.54265 -2.92756 22
      vertex 9.29776 -3.68124 23
    endloop
  endfacet
  facet normal 0.951055 -0.309022 0
    outer loop
      vertex 9.54265 -2.92756 22
      vertex 9.29776 -3.68124 0
      vertex 9.54265 -2.92756 0
    endloop
  endfacet
  facet normal -0.684545 -0.728971 0
    outer loop
      vertex -7.28969 -6.84547 0
      vertex -6.37424 -7.70513 23
      vertex -7.28969 -6.84547 23
    endloop
  endfacet
  facet normal -0.684545 -0.728971 -0
    outer loop
      vertex -6.37424 -7.70513 23
      vertex -7.28969 -6.84547 0
      vertex -6.37424 -7.70513 0
    endloop
  endfacet
  facet normal 0.951055 0.309022 0
    outer loop
      vertex 9.29776 3.68124 23
      vertex 9.54265 2.92756 22
      vertex 9.29776 3.68124 0
    endloop
  endfacet
  facet normal 0.951055 0.309021 1.0551e-006
    outer loop
      vertex 9.68583 2.4869 23
      vertex 9.54265 2.92756 22
      vertex 9.29776 3.68124 23
    endloop
  endfacet
  facet normal 0.951056 0.309019 0
    outer loop
      vertex 9.54265 2.92756 22
      vertex 9.68583 2.4869 23
      vertex 9.68583 2.4869 22
    endloop
  endfacet
  facet normal 0.951055 0.309022 0
    outer loop
      vertex 9.29776 3.68124 0
      vertex 9.54265 2.92756 22
      vertex 9.54265 2.92756 0
    endloop
  endfacet
  facet normal 0.684545 0.728971 -0
    outer loop
      vertex 7.28969 6.84547 0
      vertex 6.37424 7.70513 23
      vertex 7.28969 6.84547 23
    endloop
  endfacet
  facet normal 0.684545 0.728971 0
    outer loop
      vertex 6.37424 7.70513 23
      vertex 7.28969 6.84547 0
      vertex 6.37424 7.70513 0
    endloop
  endfacet
  facet normal 0.770515 0.637422 0
    outer loop
      vertex 8.09017 5.87785 23
      vertex 7.28969 6.84547 0
      vertex 7.28969 6.84547 23
    endloop
  endfacet
  facet normal 0.770515 0.637422 0
    outer loop
      vertex 7.28969 6.84547 0
      vertex 8.09017 5.87785 23
      vertex 8.09017 5.87785 0
    endloop
  endfacet
  facet normal 0 1 -0
    outer loop
      vertex 0.627905 9.98027 19
      vertex -0.627905 9.98027 23
      vertex 0.627905 9.98027 23
    endloop
  endfacet
  facet normal 0 1 0
    outer loop
      vertex -0.627905 9.98027 23
      vertex 0.627905 9.98027 19
      vertex -0.627905 9.98027 19
    endloop
  endfacet
  facet normal 0.587788 0.809015 -0
    outer loop
      vertex 6.37424 7.70513 0
      vertex 5.35827 8.44328 23
      vertex 6.37424 7.70513 23
    endloop
  endfacet
  facet normal 0.587788 0.809015 0
    outer loop
      vertex 5.35827 8.44328 23
      vertex 6.37424 7.70513 0
      vertex 5.35827 8.44328 0
    endloop
  endfacet
  facet normal -0.998027 0.0627883 0
    outer loop
      vertex -10 0 16
      vertex -9.92115 1.25333 23
      vertex -9.92115 1.25333 16
    endloop
  endfacet
  facet normal -0.998027 0.0627883 0
    outer loop
      vertex -9.92115 1.25333 23
      vertex -10 0 16
      vertex -10 0 23
    endloop
  endfacet
  facet normal 0 0 1
    outer loop
      vertex 9.92115 1.25333 23
      vertex 9.92115 -1.25333 23
      vertex 10 0 23
    endloop
  endfacet
  facet normal 0 0 1
    outer loop
      vertex 9.68583 2.4869 23
      vertex 9.92115 -1.25333 23
      vertex 9.92115 1.25333 23
    endloop
  endfacet
  facet normal 0 0 1
    outer loop
      vertex 9.68583 2.4869 23
      vertex 9.68583 -2.4869 23
      vertex 9.92115 -1.25333 23
    endloop
  endfacet
  facet normal 0 0 1
    outer loop
      vertex 9.29776 3.68124 23
      vertex 9.68583 -2.4869 23
      vertex 9.68583 2.4869 23
    endloop
  endfacet
  facet normal 0 0 1
    outer loop
      vertex 9.29776 3.68124 23
      vertex 9.29776 -3.68124 23
      vertex 9.68583 -2.4869 23
    endloop
  endfacet
  facet normal 0 0 1
    outer loop
      vertex 8.76307 4.81754 23
      vertex 9.29776 -3.68124 23
      vertex 9.29776 3.68124 23
    endloop
  endfacet
  facet normal 0 0 1
    outer loop
      vertex 8.76307 4.81754 23
      vertex 8.76307 -4.81754 23
      vertex 9.29776 -3.68124 23
    endloop
  endfacet
  facet normal 0 0 1
    outer loop
      vertex 8.09017 5.87785 23
      vertex 8.76307 -4.81754 23
      vertex 8.76307 4.81754 23
    endloop
  endfacet
  facet normal 0 0 1
    outer loop
      vertex 8.09017 5.87785 23
      vertex 8.09017 -5.87785 23
      vertex 8.76307 -4.81754 23
    endloop
  endfacet
  facet normal 0 0 1
    outer loop
      vertex 7.28969 6.84547 23
      vertex 8.09017 -5.87785 23
      vertex 8.09017 5.87785 23
    endloop
  endfacet
  facet normal 0 0 1
    outer loop
      vertex 7.28969 6.84547 23
      vertex 7.28969 -6.84547 23
      vertex 8.09017 -5.87785 23
    endloop
  endfacet
  facet normal 0 0 1
    outer loop
      vertex 6.37424 7.70513 23
      vertex 7.28969 -6.84547 23
      vertex 7.28969 6.84547 23
    endloop
  endfacet
  facet normal 0 0 1
    outer loop
      vertex 6.37424 7.70513 23
      vertex 6.37424 -7.70513 23
      vertex 7.28969 -6.84547 23
    endloop
  endfacet
  facet normal 0 0 1
    outer loop
      vertex 5.35827 8.44328 23
      vertex 6.37424 -7.70513 23
      vertex 6.37424 7.70513 23
    endloop
  endfacet
  facet normal 0 0 1
    outer loop
      vertex 5.35827 8.44328 23
      vertex 5.35827 -8.44328 23
      vertex 6.37424 -7.70513 23
    endloop
  endfacet
  facet normal 0 0 1
    outer loop
      vertex 4.25779 9.04827 23
      vertex 5.35827 -8.44328 23
      vertex 5.35827 8.44328 23
    endloop
  endfacet
  facet normal 0 0 1
    outer loop
      vertex 4.25779 9.04827 23
      vertex 4.25779 -9.04827 23
      vertex 5.35827 -8.44328 23
    endloop
  endfacet
  facet normal 0 0 1
    outer loop
      vertex 3.09017 9.51056 23
      vertex 4.25779 -9.04827 23
      vertex 4.25779 9.04827 23
    endloop
  endfacet
  facet normal 0 0 1
    outer loop
      vertex 3.09017 9.51056 23
      vertex 3.09017 -9.51056 23
      vertex 4.25779 -9.04827 23
    endloop
  endfacet
  facet normal 0 0 1
    outer loop
      vertex 1.87381 9.82287 23
      vertex 3.09017 -9.51056 23
      vertex 3.09017 9.51056 23
    endloop
  endfacet
  facet normal 0 0 1
    outer loop
      vertex 1.87381 9.82287 23
      vertex 1.87381 -9.82287 23
      vertex 3.09017 -9.51056 23
    endloop
  endfacet
  facet normal 0 0 1
    outer loop
      vertex 0.627905 9.98027 23
      vertex 1.87381 -9.82287 23
      vertex 1.87381 9.82287 23
    endloop
  endfacet
  facet normal 0 0 1
    outer loop
      vertex 0.627905 9.98027 23
      vertex 0.627905 -9.98027 23
      vertex 1.87381 -9.82287 23
    endloop
  endfacet
  facet normal -0 0 1
    outer loop
      vertex -0.627905 9.98027 23
      vertex 0.627905 -9.98027 23
      vertex 0.627905 9.98027 23
    endloop
  endfacet
  facet normal 0 0 1
    outer loop
      vertex -0.627905 9.98027 23
      vertex -0.627905 -9.98027 23
      vertex 0.627905 -9.98027 23
    endloop
  endfacet
  facet normal -0 0 1
    outer loop
      vertex -1.87381 9.82287 23
      vertex -0.627905 -9.98027 23
      vertex -0.627905 9.98027 23
    endloop
  endfacet
  facet normal 0 0 1
    outer loop
      vertex -1.87381 9.82287 23
      vertex -1.87381 -9.82287 23
      vertex -0.627905 -9.98027 23
    endloop
  endfacet
  facet normal -0 0 1
    outer loop
      vertex -3.09017 9.51056 23
      vertex -1.87381 -9.82287 23
      vertex -1.87381 9.82287 23
    endloop
  endfacet
  facet normal 0 0 1
    outer loop
      vertex -3.09017 9.51056 23
      vertex -3.09017 -9.51056 23
      vertex -1.87381 -9.82287 23
    endloop
  endfacet
  facet normal -0 0 1
    outer loop
      vertex -4.25779 9.04827 23
      vertex -3.09017 -9.51056 23
      vertex -3.09017 9.51056 23
    endloop
  endfacet
  facet normal 0 0 1
    outer loop
      vertex -4.25779 9.04827 23
      vertex -4.25779 -9.04827 23
      vertex -3.09017 -9.51056 23
    endloop
  endfacet
  facet normal -0 0 1
    outer loop
      vertex -5.35827 8.44328 23
      vertex -4.25779 -9.04827 23
      vertex -4.25779 9.04827 23
    endloop
  endfacet
  facet normal 0 0 1
    outer loop
      vertex -5.35827 8.44328 23
      vertex -5.35827 -8.44328 23
      vertex -4.25779 -9.04827 23
    endloop
  endfacet
  facet normal -0 0 1
    outer loop
      vertex -6.37424 7.70513 23
      vertex -5.35827 -8.44328 23
      vertex -5.35827 8.44328 23
    endloop
  endfacet
  facet normal 0 0 1
    outer loop
      vertex -6.37424 7.70513 23
      vertex -6.37424 -7.70513 23
      vertex -5.35827 -8.44328 23
    endloop
  endfacet
  facet normal -0 0 1
    outer loop
      vertex -7.28969 6.84547 23
      vertex -6.37424 -7.70513 23
      vertex -6.37424 7.70513 23
    endloop
  endfacet
  facet normal 0 0 1
    outer loop
      vertex -7.28969 6.84547 23
      vertex -7.28969 -6.84547 23
      vertex -6.37424 -7.70513 23
    endloop
  endfacet
  facet normal -0 0 1
    outer loop
      vertex -8.09017 5.87785 23
      vertex -7.28969 -6.84547 23
      vertex -7.28969 6.84547 23
    endloop
  endfacet
  facet normal 0 0 1
    outer loop
      vertex -8.09017 5.87785 23
      vertex -8.09017 -5.87785 23
      vertex -7.28969 -6.84547 23
    endloop
  endfacet
  facet normal -0 0 1
    outer loop
      vertex -8.76307 4.81754 23
      vertex -8.09017 -5.87785 23
      vertex -8.09017 5.87785 23
    endloop
  endfacet
  facet normal 0 0 1
    outer loop
      vertex -8.76307 4.81754 23
      vertex -8.76307 -4.81754 23
      vertex -8.09017 -5.87785 23
    endloop
  endfacet
  facet normal -0 0 1
    outer loop
      vertex -9.29776 3.68124 23
      vertex -8.76307 -4.81754 23
      vertex -8.76307 4.81754 23
    endloop
  endfacet
  facet normal 0 0 1
    outer loop
      vertex -9.29776 3.68124 23
      vertex -9.29776 -3.68124 23
      vertex -8.76307 -4.81754 23
    endloop
  endfacet
  facet normal -0 0 1
    outer loop
      vertex -9.68583 2.4869 23
      vertex -9.29776 -3.68124 23
      vertex -9.29776 3.68124 23
    endloop
  endfacet
  facet normal 0 0 1
    outer loop
      vertex -9.68583 2.4869 23
      vertex -9.68583 -2.4869 23
      vertex -9.29776 -3.68124 23
    endloop
  endfacet
  facet normal -0 0 1
    outer loop
      vertex -9.92115 1.25333 23
      vertex -9.68583 -2.4869 23
      vertex -9.68583 2.4869 23
    endloop
  endfacet
  facet normal 0 0 1
    outer loop
      vertex -9.92115 1.25333 23
      vertex -9.92115 -1.25333 23
      vertex -9.68583 -2.4869 23
    endloop
  endfacet
  facet normal 0 -0 1
    outer loop
      vertex -9.92115 -1.25333 23
      vertex -9.92115 1.25333 23
      vertex -10 0 23
    endloop
  endfacet
  facet normal -0.844325 0.535831 0
    outer loop
      vertex -8.76307 4.81754 0
      vertex -8.09017 5.87785 23
      vertex -8.09017 5.87785 0
    endloop
  endfacet
  facet normal -0.844325 0.535831 0
    outer loop
      vertex -8.09017 5.87785 23
      vertex -8.76307 4.81754 0
      vertex -8.76307 4.81754 23
    endloop
  endfacet
  facet normal -0.248686 0.968584 0
    outer loop
      vertex -2.92903 9.55194 19
      vertex -1.87381 9.82287 23
      vertex -1.87381 9.82287 19
    endloop
  endfacet
  facet normal -0.248691 0.968583 1.46188e-006
    outer loop
      vertex -1.87381 9.82287 23
      vertex -2.92903 9.55194 19
      vertex -3.09017 9.51056 23
    endloop
  endfacet
  facet normal -0.248725 0.968574 0
    outer loop
      vertex -3.09017 9.51056 0
      vertex -2.92903 9.55194 19
      vertex -2.92903 9.55194 0
    endloop
  endfacet
  facet normal -0.248725 0.968574 0
    outer loop
      vertex -2.92903 9.55194 19
      vertex -3.09017 9.51056 0
      vertex -3.09017 9.51056 23
    endloop
  endfacet
  facet normal -0.587788 0.809015 0
    outer loop
      vertex -5.35827 8.44328 0
      vertex -6.37424 7.70513 23
      vertex -5.35827 8.44328 23
    endloop
  endfacet
  facet normal -0.587788 0.809015 0
    outer loop
      vertex -6.37424 7.70513 23
      vertex -5.35827 8.44328 0
      vertex -6.37424 7.70513 0
    endloop
  endfacet
  facet normal -0.684545 0.728971 0
    outer loop
      vertex -6.37424 7.70513 0
      vertex -7.28969 6.84547 23
      vertex -6.37424 7.70513 23
    endloop
  endfacet
  facet normal -0.684545 0.728971 0
    outer loop
      vertex -7.28969 6.84547 23
      vertex -6.37424 7.70513 0
      vertex -7.28969 6.84547 0
    endloop
  endfacet
  facet normal 0.998027 -0.0627883 0
    outer loop
      vertex 9.92115 -1.25333 23
      vertex 10 0 22
      vertex 10 0 23
    endloop
  endfacet
  facet normal 0.998027 -0.0627883 0
    outer loop
      vertex 10 0 22
      vertex 9.92115 -1.25333 23
      vertex 9.92115 -1.25333 22
    endloop
  endfacet
  facet normal 0 -1 0
    outer loop
      vertex -0.627905 -9.98027 16
      vertex 0.627905 -9.98027 23
      vertex -0.627905 -9.98027 23
    endloop
  endfacet
  facet normal 0 -1 -0
    outer loop
      vertex 0.627905 -9.98027 23
      vertex -0.627905 -9.98027 16
      vertex 0.627905 -9.98027 16
    endloop
  endfacet
  facet normal -0.951055 -0.309022 0
    outer loop
      vertex -9.54265 -2.92756 0
      vertex -9.29776 -3.68124 0
      vertex -9.54265 -2.92756 16
    endloop
  endfacet
  facet normal -0.951056 -0.309019 0
    outer loop
      vertex -9.54265 -2.92756 16
      vertex -9.68583 -2.4869 23
      vertex -9.68583 -2.4869 16
    endloop
  endfacet
  facet normal -0.951055 -0.309021 1.50729e-007
    outer loop
      vertex -9.54265 -2.92756 16
      vertex -9.29776 -3.68124 23
      vertex -9.68583 -2.4869 23
    endloop
  endfacet
  facet normal -0.951055 -0.309022 -0
    outer loop
      vertex -9.29776 -3.68124 23
      vertex -9.54265 -2.92756 16
      vertex -9.29776 -3.68124 0
    endloop
  endfacet
  facet normal -0.770515 -0.637422 0
    outer loop
      vertex -7.28969 -6.84547 0
      vertex -8.09017 -5.87785 23
      vertex -8.09017 -5.87785 0
    endloop
  endfacet
  facet normal -0.770515 -0.637422 0
    outer loop
      vertex -8.09017 -5.87785 23
      vertex -7.28969 -6.84547 0
      vertex -7.28969 -6.84547 23
    endloop
  endfacet
  facet normal 0.125338 -0.992114 0
    outer loop
      vertex 0.627905 -9.98027 16
      vertex 1.87381 -9.82287 23
      vertex 0.627905 -9.98027 23
    endloop
  endfacet
  facet normal 0.125338 -0.992114 0
    outer loop
      vertex 1.87381 -9.82287 23
      vertex 0.627905 -9.98027 16
      vertex 1.87381 -9.82287 16
    endloop
  endfacet
  facet normal 0.982287 0.187384 0
    outer loop
      vertex 9.92115 1.25333 23
      vertex 9.68583 2.4869 22
      vertex 9.68583 2.4869 23
    endloop
  endfacet
  facet normal 0.982287 0.187384 0
    outer loop
      vertex 9.68583 2.4869 22
      vertex 9.92115 1.25333 23
      vertex 9.92115 1.25333 22
    endloop
  endfacet
  facet normal 0.125338 0.992114 -0
    outer loop
      vertex 1.87381 9.82287 19
      vertex 0.627905 9.98027 23
      vertex 1.87381 9.82287 23
    endloop
  endfacet
  facet normal 0.125338 0.992114 0
    outer loop
      vertex 0.627905 9.98027 23
      vertex 1.87381 9.82287 19
      vertex 0.627905 9.98027 19
    endloop
  endfacet
  facet normal 0.770515 -0.637422 0
    outer loop
      vertex 7.28969 -6.84547 23
      vertex 8.09017 -5.87785 0
      vertex 8.09017 -5.87785 23
    endloop
  endfacet
  facet normal 0.770515 -0.637422 0
    outer loop
      vertex 8.09017 -5.87785 0
      vertex 7.28969 -6.84547 23
      vertex 7.28969 -6.84547 0
    endloop
  endfacet
  facet normal 0.844325 -0.535831 0
    outer loop
      vertex 8.09017 -5.87785 23
      vertex 8.76307 -4.81754 0
      vertex 8.76307 -4.81754 23
    endloop
  endfacet
  facet normal 0.844325 -0.535831 0
    outer loop
      vertex 8.76307 -4.81754 0
      vertex 8.09017 -5.87785 23
      vertex 8.09017 -5.87785 0
    endloop
  endfacet
  facet normal 0.904831 -0.425771 0
    outer loop
      vertex 8.76307 -4.81754 23
      vertex 9.29776 -3.68124 0
      vertex 9.29776 -3.68124 23
    endloop
  endfacet
  facet normal 0.904831 -0.425771 0
    outer loop
      vertex 9.29776 -3.68124 0
      vertex 8.76307 -4.81754 23
      vertex 8.76307 -4.81754 0
    endloop
  endfacet
  facet normal -0.248691 -0.968583 8.3536e-007
    outer loop
      vertex -3.09017 -9.51056 23
      vertex -2.92903 -9.55194 16
      vertex -1.87381 -9.82287 23
    endloop
  endfacet
  facet normal -0.248725 -0.968574 0
    outer loop
      vertex -3.09017 -9.51056 0
      vertex -2.92903 -9.55194 16
      vertex -3.09017 -9.51056 23
    endloop
  endfacet
  facet normal -0.248725 -0.968574 -0
    outer loop
      vertex -2.92903 -9.55194 16
      vertex -3.09017 -9.51056 0
      vertex -2.92903 -9.55194 0
    endloop
  endfacet
  facet normal -0.248686 -0.968584 -0
    outer loop
      vertex -1.87381 -9.82287 23
      vertex -2.92903 -9.55194 16
      vertex -1.87381 -9.82287 16
    endloop
  endfacet
  facet normal -0.998027 -0.0627883 0
    outer loop
      vertex -9.92115 -1.25333 16
      vertex -10 0 23
      vertex -10 0 16
    endloop
  endfacet
  facet normal -0.998027 -0.0627883 0
    outer loop
      vertex -10 0 23
      vertex -9.92115 -1.25333 16
      vertex -9.92115 -1.25333 23
    endloop
  endfacet
  facet normal 0 0 -1
    outer loop
      vertex 9.29776 -3.68124 0
      vertex 9.07295 -2.85317 0
      vertex 9.54265 -2.92756 0
    endloop
  endfacet
  facet normal 0 0 -1
    outer loop
      vertex 8.23664 -2.42705 0
      vertex 9.29776 -3.68124 0
      vertex 8.76307 -4.81754 0
    endloop
  endfacet
  facet normal 0 0 -1
    outer loop
      vertex 9.29776 -3.68124 0
      vertex 8.23664 -2.42705 0
      vertex 9.07295 -2.85317 0
    endloop
  endfacet
  facet normal 0 0 -1
    outer loop
      vertex 8.09017 -5.87785 0
      vertex 8.23664 -2.42705 0
      vertex 8.76307 -4.81754 0
    endloop
  endfacet
  facet normal 0 0 -1
    outer loop
      vertex 8.09017 -5.87785 0
      vertex 7.57295 -1.76336 0
      vertex 8.23664 -2.42705 0
    endloop
  endfacet
  facet normal 0 0 -1
    outer loop
      vertex 7.28969 -6.84547 0
      vertex 7.57295 -1.76336 0
      vertex 8.09017 -5.87785 0
    endloop
  endfacet
  facet normal 0 0 -1
    outer loop
      vertex 6.37424 -7.70513 0
      vertex 7.57295 -1.76336 0
      vertex 7.28969 -6.84547 0
    endloop
  endfacet
  facet normal 0 0 -1
    outer loop
      vertex 5.35827 -8.44328 0
      vertex 7.57295 -1.76336 0
      vertex 6.37424 -7.70513 0
    endloop
  endfacet
  facet normal -0 0 -1
    outer loop
      vertex 7.57295 -1.76336 0
      vertex 5.35827 -8.44328 0
      vertex 7.14683 -0.927051 0
    endloop
  endfacet
  facet normal 0 0 -1
    outer loop
      vertex 9.07295 2.85317 0
      vertex 9.29776 3.68124 0
      vertex 9.54265 2.92756 0
    endloop
  endfacet
  facet normal 0 0 -1
    outer loop
      vertex 8.23664 2.42705 0
      vertex 9.29776 3.68124 0
      vertex 9.07295 2.85317 0
    endloop
  endfacet
  facet normal -0 0 -1
    outer loop
      vertex 9.29776 3.68124 0
      vertex 8.23664 2.42705 0
      vertex 8.76307 4.81754 0
    endloop
  endfacet
  facet normal 0 0 -1
    outer loop
      vertex 8.23664 2.42705 0
      vertex 8.09017 5.87785 0
      vertex 8.76307 4.81754 0
    endloop
  endfacet
  facet normal 0 0 -1
    outer loop
      vertex 7.57295 1.76336 0
      vertex 8.09017 5.87785 0
      vertex 8.23664 2.42705 0
    endloop
  endfacet
  facet normal 0 0 -1
    outer loop
      vertex 7.57295 1.76336 0
      vertex 7.28969 6.84547 0
      vertex 8.09017 5.87785 0
    endloop
  endfacet
  facet normal 0 0 -1
    outer loop
      vertex 1.76336 7.57295 0
      vertex 7.57295 1.76336 0
      vertex 7.14683 0.927051 0
    endloop
  endfacet
  facet normal 0 0 -1
    outer loop
      vertex 0.927051 7.14683 0
      vertex 7.14683 0.927051 0
      vertex 7 0 0
    endloop
  endfacet
  facet normal 0 0 -1
    outer loop
      vertex 4.25779 -9.04827 0
      vertex 7.14683 -0.927051 0
      vertex 5.35827 -8.44328 0
    endloop
  endfacet
  facet normal 0 0 -1
    outer loop
      vertex 7.14683 0.927051 0
      vertex 0.927051 7.14683 0
      vertex 1.76336 7.57295 0
    endloop
  endfacet
  facet normal 0 0 -1
    outer loop
      vertex 2.92903 -9.55194 0
      vertex 7.14683 -0.927051 0
      vertex 4.25779 -9.04827 0
    endloop
  endfacet
  facet normal 0 0 -1
    outer loop
      vertex 7.57295 1.76336 0
      vertex 1.76336 7.57295 0
      vertex 7.28969 6.84547 0
    endloop
  endfacet
  facet normal 0 0 -1
    outer loop
      vertex -7.14683 -0.927051 0
      vertex 7.14683 -0.927051 0
      vertex 2.92903 -9.55194 0
    endloop
  endfacet
  facet normal -0 0 -1
    outer loop
      vertex 6.37424 7.70513 0
      vertex 1.76336 7.57295 0
      vertex 5.35827 8.44328 0
    endloop
  endfacet
  facet normal 0 0 -1
    outer loop
      vertex 2.92903 -9.55194 0
      vertex 4.25779 -9.04827 0
      vertex 3.09017 -9.51056 0
    endloop
  endfacet
  facet normal 0 -0 -1
    outer loop
      vertex 2.42705 8.23664 0
      vertex 5.35827 8.44328 0
      vertex 1.76336 7.57295 0
    endloop
  endfacet
  facet normal 0 0 -1
    outer loop
      vertex 7.14683 -0.927051 0
      vertex -7.14683 -0.927051 0
      vertex 7 0 0
    endloop
  endfacet
  facet normal 0 0 -1
    outer loop
      vertex 4.25779 9.04827 0
      vertex 2.85317 9.07295 0
      vertex 3.09017 9.51056 0
    endloop
  endfacet
  facet normal 0 0 -1
    outer loop
      vertex 2.85317 -10.9271 0
      vertex 2.92903 -9.55194 0
      vertex 3 -10 0
    endloop
  endfacet
  facet normal 0 0 -1
    outer loop
      vertex 2.42705 -11.7634 0
      vertex 2.92903 -9.55194 0
      vertex 2.85317 -10.9271 0
    endloop
  endfacet
  facet normal -0 0 -1
    outer loop
      vertex 3.09017 9.51056 0
      vertex 2.85317 9.07295 0
      vertex 2.92903 9.55194 0
    endloop
  endfacet
  facet normal 0 0 -1
    outer loop
      vertex 1.76336 -12.4271 0
      vertex 2.92903 -9.55194 0
      vertex 2.42705 -11.7634 0
    endloop
  endfacet
  facet normal -0 0 -1
    outer loop
      vertex 4.25779 9.04827 0
      vertex 2.42705 8.23664 0
      vertex 2.85317 9.07295 0
    endloop
  endfacet
  facet normal -0 0 -1
    outer loop
      vertex 2.92903 -9.55194 0
      vertex 1.76336 -12.4271 0
      vertex -2.92903 -9.55194 0
    endloop
  endfacet
  facet normal -0 0 -1
    outer loop
      vertex 5.35827 8.44328 0
      vertex 2.42705 8.23664 0
      vertex 4.25779 9.04827 0
    endloop
  endfacet
  facet normal 0 0 -1
    outer loop
      vertex -2.92903 -9.55194 0
      vertex 1.76336 -12.4271 0
      vertex 0.927051 -12.8532 0
    endloop
  endfacet
  facet normal 0 0 -1
    outer loop
      vertex 7.28969 6.84547 0
      vertex 1.76336 7.57295 0
      vertex 6.37424 7.70513 0
    endloop
  endfacet
  facet normal 0 0 -1
    outer loop
      vertex -2.92903 -9.55194 0
      vertex 0.927051 -12.8532 0
      vertex 0 -13 0
    endloop
  endfacet
  facet normal 0 0 -1
    outer loop
      vertex -7.14683 -0.927051 0
      vertex 2.92903 -9.55194 0
      vertex -2.92903 -9.55194 0
    endloop
  endfacet
  facet normal 0 0 -1
    outer loop
      vertex -2.92903 -9.55194 0
      vertex 0 -13 0
      vertex -0.927051 -12.8532 0
    endloop
  endfacet
  facet normal 0 0 -1
    outer loop
      vertex 7 0 0
      vertex 0 7 0
      vertex 0.927051 7.14683 0
    endloop
  endfacet
  facet normal 0 0 -1
    outer loop
      vertex -2.92903 -9.55194 0
      vertex -0.927051 -12.8532 0
      vertex -1.76336 -12.4271 0
    endloop
  endfacet
  facet normal 0 0 -1
    outer loop
      vertex 7 0 0
      vertex -7 0 0
      vertex 0 7 0
    endloop
  endfacet
  facet normal 0 0 -1
    outer loop
      vertex -2.92903 -9.55194 0
      vertex -1.76336 -12.4271 0
      vertex -2.42705 -11.7634 0
    endloop
  endfacet
  facet normal -0 0 -1
    outer loop
      vertex 0 7 0
      vertex -7 0 0
      vertex -0.927051 7.14683 0
    endloop
  endfacet
  facet normal 0 0 -1
    outer loop
      vertex -2.92903 -9.55194 0
      vertex -2.42705 -11.7634 0
      vertex -2.85317 -10.9271 0
    endloop
  endfacet
  facet normal 0 0 -1
    outer loop
      vertex -7.14683 0.927051 0
      vertex -0.927051 7.14683 0
      vertex -7 0 0
    endloop
  endfacet
  facet normal -0 0 -1
    outer loop
      vertex -0.927051 7.14683 0
      vertex -7.14683 0.927051 0
      vertex -1.76336 7.57295 0
    endloop
  endfacet
  facet normal 0 -0 -1
    outer loop
      vertex -2.92903 -9.55194 0
      vertex -2.85317 -10.9271 0
      vertex -3 -10 0
    endloop
  endfacet
  facet normal 0 0 -1
    outer loop
      vertex -7.57295 1.76336 0
      vertex -1.76336 7.57295 0
      vertex -7.14683 0.927051 0
    endloop
  endfacet
  facet normal 0 0 -1
    outer loop
      vertex -4.25779 -9.04827 0
      vertex -2.92903 -9.55194 0
      vertex -3.09017 -9.51056 0
    endloop
  endfacet
  facet normal 0 -0 -1
    outer loop
      vertex -7.28969 6.84547 0
      vertex -1.76336 7.57295 0
      vertex -7.57295 1.76336 0
    endloop
  endfacet
  facet normal 0 0 -1
    outer loop
      vertex -2.92903 -9.55194 0
      vertex -4.25779 -9.04827 0
      vertex -7.14683 -0.927051 0
    endloop
  endfacet
  facet normal 0 -0 -1
    outer loop
      vertex -5.35827 8.44328 0
      vertex -1.76336 7.57295 0
      vertex -6.37424 7.70513 0
    endloop
  endfacet
  facet normal 0 0 -1
    outer loop
      vertex -7.14683 -0.927051 0
      vertex -4.25779 -9.04827 0
      vertex -5.35827 -8.44328 0
    endloop
  endfacet
  facet normal 0 -0 -1
    outer loop
      vertex -3.09017 9.51056 0
      vertex -2.85317 9.07295 0
      vertex -4.25779 9.04827 0
    endloop
  endfacet
  facet normal 0 0 -1
    outer loop
      vertex -7.57295 -1.76336 0
      vertex -5.35827 -8.44328 0
      vertex -6.37424 -7.70513 0
    endloop
  endfacet
  facet normal 0 0 -1
    outer loop
      vertex -2.85317 9.07295 0
      vertex -3.09017 9.51056 0
      vertex -2.92903 9.55194 0
    endloop
  endfacet
  facet normal 0 0 -1
    outer loop
      vertex -2.42705 8.23664 0
      vertex -4.25779 9.04827 0
      vertex -2.85317 9.07295 0
    endloop
  endfacet
  facet normal -0 0 -1
    outer loop
      vertex 7 0 0
      vertex -7.14683 -0.927051 0
      vertex -7 0 0
    endloop
  endfacet
  facet normal 0 0 -1
    outer loop
      vertex -7.57295 -1.76336 0
      vertex -6.37424 -7.70513 0
      vertex -7.28969 -6.84547 0
    endloop
  endfacet
  facet normal 0 0 -1
    outer loop
      vertex -5.35827 -8.44328 0
      vertex -7.57295 -1.76336 0
      vertex -7.14683 -0.927051 0
    endloop
  endfacet
  facet normal 0 0 -1
    outer loop
      vertex -8.09017 -5.87785 0
      vertex -7.57295 -1.76336 0
      vertex -7.28969 -6.84547 0
    endloop
  endfacet
  facet normal 0 0 -1
    outer loop
      vertex -8.09017 -5.87785 0
      vertex -8.23664 -2.42705 0
      vertex -7.57295 -1.76336 0
    endloop
  endfacet
  facet normal 0 0 -1
    outer loop
      vertex -8.76307 -4.81754 0
      vertex -8.23664 -2.42705 0
      vertex -8.09017 -5.87785 0
    endloop
  endfacet
  facet normal 0 0 -1
    outer loop
      vertex -9.29776 -3.68124 0
      vertex -8.23664 -2.42705 0
      vertex -8.76307 -4.81754 0
    endloop
  endfacet
  facet normal 0 0 -1
    outer loop
      vertex -8.23664 -2.42705 0
      vertex -9.29776 -3.68124 0
      vertex -9.07295 -2.85317 0
    endloop
  endfacet
  facet normal 0 0 -1
    outer loop
      vertex -9.07295 -2.85317 0
      vertex -9.29776 -3.68124 0
      vertex -9.54265 -2.92756 0
    endloop
  endfacet
  facet normal 0 -0 -1
    outer loop
      vertex -4.25779 9.04827 0
      vertex -2.42705 8.23664 0
      vertex -5.35827 8.44328 0
    endloop
  endfacet
  facet normal 0 0 -1
    outer loop
      vertex -1.76336 7.57295 0
      vertex -5.35827 8.44328 0
      vertex -2.42705 8.23664 0
    endloop
  endfacet
  facet normal -0 0 -1
    outer loop
      vertex -1.76336 7.57295 0
      vertex -7.28969 6.84547 0
      vertex -6.37424 7.70513 0
    endloop
  endfacet
  facet normal 0 0 -1
    outer loop
      vertex -7.57295 1.76336 0
      vertex -8.09017 5.87785 0
      vertex -7.28969 6.84547 0
    endloop
  endfacet
  facet normal 0 0 -1
    outer loop
      vertex -8.23664 2.42705 0
      vertex -8.09017 5.87785 0
      vertex -7.57295 1.76336 0
    endloop
  endfacet
  facet normal 0 0 -1
    outer loop
      vertex -8.23664 2.42705 0
      vertex -8.76307 4.81754 0
      vertex -8.09017 5.87785 0
    endloop
  endfacet
  facet normal 0 0 -1
    outer loop
      vertex -9.29776 3.68124 0
      vertex -8.23664 2.42705 0
      vertex -9.07295 2.85317 0
    endloop
  endfacet
  facet normal 0 0 -1
    outer loop
      vertex -8.23664 2.42705 0
      vertex -9.29776 3.68124 0
      vertex -8.76307 4.81754 0
    endloop
  endfacet
  facet normal 0 -0 -1
    outer loop
      vertex -9.29776 3.68124 0
      vertex -9.07295 2.85317 0
      vertex -9.54265 2.92756 0
    endloop
  endfacet
  facet normal 0.368122 -0.929777 0
    outer loop
      vertex 3.09017 -9.51056 0
      vertex 4.25779 -9.04827 23
      vertex 3.09017 -9.51056 23
    endloop
  endfacet
  facet normal 0.368122 -0.929777 0
    outer loop
      vertex 4.25779 -9.04827 23
      vertex 3.09017 -9.51056 0
      vertex 4.25779 -9.04827 0
    endloop
  endfacet
  facet normal 0.248686 -0.968584 0
    outer loop
      vertex 2.92903 -9.55194 16
      vertex 1.87381 -9.82287 23
      vertex 1.87381 -9.82287 16
    endloop
  endfacet
  facet normal 0.248691 -0.968583 8.3536e-007
    outer loop
      vertex 1.87381 -9.82287 23
      vertex 2.92903 -9.55194 16
      vertex 3.09017 -9.51056 23
    endloop
  endfacet
  facet normal 0.248725 -0.968574 0
    outer loop
      vertex 3.09017 -9.51056 0
      vertex 2.92903 -9.55194 16
      vertex 2.92903 -9.55194 0
    endloop
  endfacet
  facet normal 0.248725 -0.968574 0
    outer loop
      vertex 2.92903 -9.55194 16
      vertex 3.09017 -9.51056 0
      vertex 3.09017 -9.51056 23
    endloop
  endfacet
  facet normal 0.684545 -0.728971 0
    outer loop
      vertex 6.37424 -7.70513 0
      vertex 7.28969 -6.84547 23
      vertex 6.37424 -7.70513 23
    endloop
  endfacet
  facet normal 0.684545 -0.728971 0
    outer loop
      vertex 7.28969 -6.84547 23
      vertex 6.37424 -7.70513 0
      vertex 7.28969 -6.84547 0
    endloop
  endfacet
  facet normal 0.587788 -0.809015 0
    outer loop
      vertex 5.35827 -8.44328 0
      vertex 6.37424 -7.70513 23
      vertex 5.35827 -8.44328 23
    endloop
  endfacet
  facet normal 0.587788 -0.809015 0
    outer loop
      vertex 6.37424 -7.70513 23
      vertex 5.35827 -8.44328 0
      vertex 6.37424 -7.70513 0
    endloop
  endfacet
  facet normal -0.125338 -0.992114 0
    outer loop
      vertex -1.87381 -9.82287 16
      vertex -0.627905 -9.98027 23
      vertex -1.87381 -9.82287 23
    endloop
  endfacet
  facet normal -0.125338 -0.992114 -0
    outer loop
      vertex -0.627905 -9.98027 23
      vertex -1.87381 -9.82287 16
      vertex -0.627905 -9.98027 16
    endloop
  endfacet
  facet normal -0.481751 -0.876308 0
    outer loop
      vertex -5.35827 -8.44328 0
      vertex -4.25779 -9.04827 23
      vertex -5.35827 -8.44328 23
    endloop
  endfacet
  facet normal -0.481751 -0.876308 -0
    outer loop
      vertex -4.25779 -9.04827 23
      vertex -5.35827 -8.44328 0
      vertex -4.25779 -9.04827 0
    endloop
  endfacet
  facet normal -0.982287 -0.187384 0
    outer loop
      vertex -9.68583 -2.4869 16
      vertex -9.92115 -1.25333 23
      vertex -9.92115 -1.25333 16
    endloop
  endfacet
  facet normal -0.982287 -0.187384 0
    outer loop
      vertex -9.92115 -1.25333 23
      vertex -9.68583 -2.4869 16
      vertex -9.68583 -2.4869 23
    endloop
  endfacet
  facet normal -0.844325 -0.535831 0
    outer loop
      vertex -8.09017 -5.87785 0
      vertex -8.76307 -4.81754 23
      vertex -8.76307 -4.81754 0
    endloop
  endfacet
  facet normal -0.844325 -0.535831 0
    outer loop
      vertex -8.76307 -4.81754 23
      vertex -8.09017 -5.87785 0
      vertex -8.09017 -5.87785 23
    endloop
  endfacet
  facet normal -0.904831 -0.425771 0
    outer loop
      vertex -8.76307 -4.81754 0
      vertex -9.29776 -3.68124 23
      vertex -9.29776 -3.68124 0
    endloop
  endfacet
  facet normal -0.904831 -0.425771 0
    outer loop
      vertex -9.29776 -3.68124 23
      vertex -8.76307 -4.81754 0
      vertex -8.76307 -4.81754 23
    endloop
  endfacet
  facet normal -0.587788 -0.809015 0
    outer loop
      vertex -6.37424 -7.70513 0
      vertex -5.35827 -8.44328 23
      vertex -6.37424 -7.70513 23
    endloop
  endfacet
  facet normal -0.587788 -0.809015 -0
    outer loop
      vertex -5.35827 -8.44328 23
      vertex -6.37424 -7.70513 0
      vertex -5.35827 -8.44328 0
    endloop
  endfacet
  facet normal -0.368122 -0.929777 0
    outer loop
      vertex -4.25779 -9.04827 0
      vertex -3.09017 -9.51056 23
      vertex -4.25779 -9.04827 23
    endloop
  endfacet
  facet normal -0.368122 -0.929777 -0
    outer loop
      vertex -3.09017 -9.51056 23
      vertex -4.25779 -9.04827 0
      vertex -3.09017 -9.51056 0
    endloop
  endfacet
  facet normal 0.987687 0.156444 0
    outer loop
      vertex 3 -10 16
      vertex 2.92903 -9.55194 0
      vertex 2.92903 -9.55194 16
    endloop
  endfacet
  facet normal 0.987687 0.156444 0
    outer loop
      vertex 2.92903 -9.55194 0
      vertex 3 -10 16
      vertex 3 -10 0
    endloop
  endfacet
  facet normal -0.987687 0.156444 0
    outer loop
      vertex -3 -10 0
      vertex -2.92903 -9.55194 16
      vertex -2.92903 -9.55194 0
    endloop
  endfacet
  facet normal -0.987687 0.156444 0
    outer loop
      vertex -2.92903 -9.55194 16
      vertex -3 -10 0
      vertex -3 -10 16
    endloop
  endfacet
  facet normal 0.156403 -0.987693 0
    outer loop
      vertex 0 -13 0
      vertex 0.927051 -12.8532 16
      vertex 0 -13 16
    endloop
  endfacet
  facet normal 0.156403 -0.987693 0
    outer loop
      vertex 0.927051 -12.8532 16
      vertex 0 -13 0
      vertex 0.927051 -12.8532 0
    endloop
  endfacet
  facet normal -0.156403 -0.987693 0
    outer loop
      vertex -0.927051 -12.8532 0
      vertex 0 -13 16
      vertex -0.927051 -12.8532 16
    endloop
  endfacet
  facet normal -0.156403 -0.987693 -0
    outer loop
      vertex 0 -13 16
      vertex -0.927051 -12.8532 0
      vertex 0 -13 0
    endloop
  endfacet
  facet normal -0.98769 -0.156426 0
    outer loop
      vertex -2.85317 -10.9271 0
      vertex -3 -10 16
      vertex -3 -10 0
    endloop
  endfacet
  facet normal -0.98769 -0.156426 0
    outer loop
      vertex -3 -10 16
      vertex -2.85317 -10.9271 0
      vertex -2.85317 -10.9271 16
    endloop
  endfacet
  facet normal -0 0 1
    outer loop
      vertex 1.87381 -9.82287 16
      vertex 3 -10 16
      vertex 2.92903 -9.55194 16
    endloop
  endfacet
  facet normal 0 0 1
    outer loop
      vertex 3 -10 16
      vertex 1.87381 -9.82287 16
      vertex 2.85317 -10.9271 16
    endloop
  endfacet
  facet normal 0 0 1
    outer loop
      vertex 2.85317 -10.9271 16
      vertex 1.87381 -9.82287 16
      vertex 2.42705 -11.7634 16
    endloop
  endfacet
  facet normal -0 0 1
    outer loop
      vertex 0.627905 -9.98027 16
      vertex 2.42705 -11.7634 16
      vertex 1.87381 -9.82287 16
    endloop
  endfacet
  facet normal 0 0 1
    outer loop
      vertex 2.42705 -11.7634 16
      vertex 0.627905 -9.98027 16
      vertex 1.76336 -12.4271 16
    endloop
  endfacet
  facet normal 0 0 1
    outer loop
      vertex 1.76336 -12.4271 16
      vertex 0.627905 -9.98027 16
      vertex 0.927051 -12.8532 16
    endloop
  endfacet
  facet normal 0 0 1
    outer loop
      vertex 0.627905 -9.98027 16
      vertex 0 -13 16
      vertex 0.927051 -12.8532 16
    endloop
  endfacet
  facet normal -0 0 1
    outer loop
      vertex -0.627905 -9.98027 16
      vertex 0 -13 16
      vertex 0.627905 -9.98027 16
    endloop
  endfacet
  facet normal 0 0 1
    outer loop
      vertex -0.627905 -9.98027 16
      vertex -0.927051 -12.8532 16
      vertex 0 -13 16
    endloop
  endfacet
  facet normal 0 0 1
    outer loop
      vertex -0.627905 -9.98027 16
      vertex -1.76336 -12.4271 16
      vertex -0.927051 -12.8532 16
    endloop
  endfacet
  facet normal 0 0 1
    outer loop
      vertex -2.42705 -11.7634 16
      vertex -0.627905 -9.98027 16
      vertex -1.87381 -9.82287 16
    endloop
  endfacet
  facet normal 0 0 1
    outer loop
      vertex -0.627905 -9.98027 16
      vertex -2.42705 -11.7634 16
      vertex -1.76336 -12.4271 16
    endloop
  endfacet
  facet normal 0 0 1
    outer loop
      vertex -1.87381 -9.82287 16
      vertex -2.85317 -10.9271 16
      vertex -2.42705 -11.7634 16
    endloop
  endfacet
  facet normal 0 0 1
    outer loop
      vertex -3 -10 16
      vertex -1.87381 -9.82287 16
      vertex -2.92903 -9.55194 16
    endloop
  endfacet
  facet normal 0 0 1
    outer loop
      vertex -1.87381 -9.82287 16
      vertex -3 -10 16
      vertex -2.85317 -10.9271 16
    endloop
  endfacet
  facet normal 0.891005 -0.453994 0
    outer loop
      vertex 2.42705 -11.7634 16
      vertex 2.85317 -10.9271 0
      vertex 2.85317 -10.9271 16
    endloop
  endfacet
  facet normal 0.891005 -0.453994 0
    outer loop
      vertex 2.85317 -10.9271 0
      vertex 2.42705 -11.7634 16
      vertex 2.42705 -11.7634 0
    endloop
  endfacet
  facet normal 0.453973 -0.891015 0
    outer loop
      vertex 0.927051 -12.8532 0
      vertex 1.76336 -12.4271 16
      vertex 0.927051 -12.8532 16
    endloop
  endfacet
  facet normal 0.453973 -0.891015 0
    outer loop
      vertex 1.76336 -12.4271 16
      vertex 0.927051 -12.8532 0
      vertex 1.76336 -12.4271 0
    endloop
  endfacet
  facet normal 0.98769 -0.156426 0
    outer loop
      vertex 2.85317 -10.9271 16
      vertex 3 -10 0
      vertex 3 -10 16
    endloop
  endfacet
  facet normal 0.98769 -0.156426 0
    outer loop
      vertex 3 -10 0
      vertex 2.85317 -10.9271 16
      vertex 2.85317 -10.9271 0
    endloop
  endfacet
  facet normal -0.707112 -0.707101 0
    outer loop
      vertex -1.76336 -12.4271 0
      vertex -2.42705 -11.7634 16
      vertex -2.42705 -11.7634 0
    endloop
  endfacet
  facet normal -0.707112 -0.707101 0
    outer loop
      vertex -2.42705 -11.7634 16
      vertex -1.76336 -12.4271 0
      vertex -1.76336 -12.4271 16
    endloop
  endfacet
  facet normal -0.891005 -0.453994 0
    outer loop
      vertex -2.42705 -11.7634 0
      vertex -2.85317 -10.9271 16
      vertex -2.85317 -10.9271 0
    endloop
  endfacet
  facet normal -0.891005 -0.453994 0
    outer loop
      vertex -2.85317 -10.9271 16
      vertex -2.42705 -11.7634 0
      vertex -2.42705 -11.7634 16
    endloop
  endfacet
  facet normal -0.453973 -0.891015 0
    outer loop
      vertex -1.76336 -12.4271 0
      vertex -0.927051 -12.8532 16
      vertex -1.76336 -12.4271 16
    endloop
  endfacet
  facet normal -0.453973 -0.891015 -0
    outer loop
      vertex -0.927051 -12.8532 16
      vertex -1.76336 -12.4271 0
      vertex -0.927051 -12.8532 0
    endloop
  endfacet
  facet normal 0.707112 -0.707101 0
    outer loop
      vertex 1.76336 -12.4271 16
      vertex 2.42705 -11.7634 0
      vertex 2.42705 -11.7634 16
    endloop
  endfacet
  facet normal 0.707112 -0.707101 0
    outer loop
      vertex 2.42705 -11.7634 0
      vertex 1.76336 -12.4271 16
      vertex 1.76336 -12.4271 0
    endloop
  endfacet
  facet normal 0.707107 0.707107 0
    outer loop
      vertex 8.23664 -2.42705 22
      vertex 7.57295 -1.76336 0
      vertex 7.57295 -1.76336 22
    endloop
  endfacet
  facet normal 0.707107 0.707107 0
    outer loop
      vertex 7.57295 -1.76336 0
      vertex 8.23664 -2.42705 22
      vertex 8.23664 -2.42705 0
    endloop
  endfacet
  facet normal 0.156428 -0.987689 0
    outer loop
      vertex 9.07295 2.85317 0
      vertex 9.54265 2.92756 22
      vertex 9.07295 2.85317 22
    endloop
  endfacet
  facet normal 0.156428 -0.987689 0
    outer loop
      vertex 9.54265 2.92756 22
      vertex 9.07295 2.85317 0
      vertex 9.54265 2.92756 0
    endloop
  endfacet
  facet normal 0.987688 0.156434 0
    outer loop
      vertex 7.14683 -0.927051 22
      vertex 7 0 0
      vertex 7 0 22
    endloop
  endfacet
  facet normal 0.987688 0.156434 0
    outer loop
      vertex 7 0 0
      vertex 7.14683 -0.927051 22
      vertex 7.14683 -0.927051 0
    endloop
  endfacet
  facet normal 0.453989 -0.891007 0
    outer loop
      vertex 8.23664 2.42705 0
      vertex 9.07295 2.85317 22
      vertex 8.23664 2.42705 22
    endloop
  endfacet
  facet normal 0.453989 -0.891007 0
    outer loop
      vertex 9.07295 2.85317 22
      vertex 8.23664 2.42705 0
      vertex 9.07295 2.85317 0
    endloop
  endfacet
  facet normal 0.987688 -0.156434 0
    outer loop
      vertex 7 0 22
      vertex 7.14683 0.927051 0
      vertex 7.14683 0.927051 22
    endloop
  endfacet
  facet normal 0.987688 -0.156434 0
    outer loop
      vertex 7.14683 0.927051 0
      vertex 7 0 22
      vertex 7 0 0
    endloop
  endfacet
  facet normal 0 0 -1
    outer loop
      vertex 7.14683 -0.927051 22
      vertex 10 0 22
      vertex 9.92115 -1.25333 22
    endloop
  endfacet
  facet normal 0 0 -1
    outer loop
      vertex 8.23664 -2.42705 22
      vertex 9.92115 -1.25333 22
      vertex 9.68583 -2.4869 22
    endloop
  endfacet
  facet normal 0 0 -1
    outer loop
      vertex 7.14683 -0.927051 22
      vertex 9.92115 -1.25333 22
      vertex 7.57295 -1.76336 22
    endloop
  endfacet
  facet normal 0 0 -1
    outer loop
      vertex 9.07295 -2.85317 22
      vertex 9.68583 -2.4869 22
      vertex 9.54265 -2.92756 22
    endloop
  endfacet
  facet normal 0 0 -1
    outer loop
      vertex 9.92115 -1.25333 22
      vertex 8.23664 -2.42705 22
      vertex 7.57295 -1.76336 22
    endloop
  endfacet
  facet normal -0 0 -1
    outer loop
      vertex 9.68583 -2.4869 22
      vertex 9.07295 -2.85317 22
      vertex 8.23664 -2.42705 22
    endloop
  endfacet
  facet normal -0 0 -1
    outer loop
      vertex 10 0 22
      vertex 7.14683 -0.927051 22
      vertex 7 0 22
    endloop
  endfacet
  facet normal 0 -0 -1
    outer loop
      vertex 7.14683 0.927051 22
      vertex 10 0 22
      vertex 7 0 22
    endloop
  endfacet
  facet normal 0 0 -1
    outer loop
      vertex 9.68583 2.4869 22
      vertex 9.07295 2.85317 22
      vertex 9.54265 2.92756 22
    endloop
  endfacet
  facet normal 0 0 -1
    outer loop
      vertex 10 0 22
      vertex 7.14683 0.927051 22
      vertex 9.92115 1.25333 22
    endloop
  endfacet
  facet normal 0 -0 -1
    outer loop
      vertex 9.07295 2.85317 22
      vertex 9.68583 2.4869 22
      vertex 8.23664 2.42705 22
    endloop
  endfacet
  facet normal 0 0 -1
    outer loop
      vertex 9.92115 1.25333 22
      vertex 8.23664 2.42705 22
      vertex 9.68583 2.4869 22
    endloop
  endfacet
  facet normal 0 -0 -1
    outer loop
      vertex 8.23664 2.42705 22
      vertex 9.92115 1.25333 22
      vertex 7.57295 1.76336 22
    endloop
  endfacet
  facet normal 0 -0 -1
    outer loop
      vertex 7.57295 1.76336 22
      vertex 9.92115 1.25333 22
      vertex 7.14683 0.927051 22
    endloop
  endfacet
  facet normal 0.707107 -0.707107 0
    outer loop
      vertex 7.57295 1.76336 22
      vertex 8.23664 2.42705 0
      vertex 8.23664 2.42705 22
    endloop
  endfacet
  facet normal 0.707107 -0.707107 0
    outer loop
      vertex 8.23664 2.42705 0
      vertex 7.57295 1.76336 22
      vertex 7.57295 1.76336 0
    endloop
  endfacet
  facet normal 0.891007 -0.45399 0
    outer loop
      vertex 7.14683 0.927051 22
      vertex 7.57295 1.76336 0
      vertex 7.57295 1.76336 22
    endloop
  endfacet
  facet normal 0.891007 -0.45399 0
    outer loop
      vertex 7.57295 1.76336 0
      vertex 7.14683 0.927051 22
      vertex 7.14683 0.927051 0
    endloop
  endfacet
  facet normal 0.891007 0.45399 0
    outer loop
      vertex 7.57295 -1.76336 22
      vertex 7.14683 -0.927051 0
      vertex 7.14683 -0.927051 22
    endloop
  endfacet
  facet normal 0.891007 0.45399 0
    outer loop
      vertex 7.14683 -0.927051 0
      vertex 7.57295 -1.76336 22
      vertex 7.57295 -1.76336 0
    endloop
  endfacet
  facet normal 0.156428 0.987689 -0
    outer loop
      vertex 9.54265 -2.92756 0
      vertex 9.07295 -2.85317 22
      vertex 9.54265 -2.92756 22
    endloop
  endfacet
  facet normal 0.156428 0.987689 0
    outer loop
      vertex 9.07295 -2.85317 22
      vertex 9.54265 -2.92756 0
      vertex 9.07295 -2.85317 0
    endloop
  endfacet
  facet normal 0.453989 0.891007 -0
    outer loop
      vertex 9.07295 -2.85317 0
      vertex 8.23664 -2.42705 22
      vertex 9.07295 -2.85317 22
    endloop
  endfacet
  facet normal 0.453989 0.891007 0
    outer loop
      vertex 8.23664 -2.42705 22
      vertex 9.07295 -2.85317 0
      vertex 8.23664 -2.42705 0
    endloop
  endfacet
  facet normal 0.98769 0.156425 0
    outer loop
      vertex -2.85317 9.07295 19
      vertex -2.92903 9.55194 0
      vertex -2.92903 9.55194 19
    endloop
  endfacet
  facet normal 0.98769 0.156425 0
    outer loop
      vertex -2.92903 9.55194 0
      vertex -2.85317 9.07295 19
      vertex -2.85317 9.07295 0
    endloop
  endfacet
  facet normal -0.45399 0.891007 0
    outer loop
      vertex 1.76336 7.57295 0
      vertex 0.927051 7.14683 19
      vertex 1.76336 7.57295 19
    endloop
  endfacet
  facet normal -0.45399 0.891007 0
    outer loop
      vertex 0.927051 7.14683 19
      vertex 1.76336 7.57295 0
      vertex 0.927051 7.14683 0
    endloop
  endfacet
  facet normal -0.156434 0.987688 0
    outer loop
      vertex 0.927051 7.14683 0
      vertex 0 7 19
      vertex 0.927051 7.14683 19
    endloop
  endfacet
  facet normal -0.156434 0.987688 0
    outer loop
      vertex 0 7 19
      vertex 0.927051 7.14683 0
      vertex 0 7 0
    endloop
  endfacet
  facet normal 0.891007 0.453989 0
    outer loop
      vertex -2.42705 8.23664 19
      vertex -2.85317 9.07295 0
      vertex -2.85317 9.07295 19
    endloop
  endfacet
  facet normal 0.891007 0.453989 0
    outer loop
      vertex -2.85317 9.07295 0
      vertex -2.42705 8.23664 19
      vertex -2.42705 8.23664 0
    endloop
  endfacet
  facet normal 0.156434 0.987688 -0
    outer loop
      vertex 0 7 0
      vertex -0.927051 7.14683 19
      vertex 0 7 19
    endloop
  endfacet
  facet normal 0.156434 0.987688 0
    outer loop
      vertex -0.927051 7.14683 19
      vertex 0 7 0
      vertex -0.927051 7.14683 0
    endloop
  endfacet
  facet normal 0 0 -1
    outer loop
      vertex 1.87381 9.82287 19
      vertex 2.85317 9.07295 19
      vertex 2.42705 8.23664 19
    endloop
  endfacet
  facet normal 0 0 -1
    outer loop
      vertex 2.85317 9.07295 19
      vertex 1.87381 9.82287 19
      vertex 2.92903 9.55194 19
    endloop
  endfacet
  facet normal 0 0 -1
    outer loop
      vertex 1.76336 7.57295 19
      vertex 1.87381 9.82287 19
      vertex 2.42705 8.23664 19
    endloop
  endfacet
  facet normal 0 0 -1
    outer loop
      vertex 0.627905 9.98027 19
      vertex 1.76336 7.57295 19
      vertex 0.927051 7.14683 19
    endloop
  endfacet
  facet normal 0 0 -1
    outer loop
      vertex 1.76336 7.57295 19
      vertex 0.627905 9.98027 19
      vertex 1.87381 9.82287 19
    endloop
  endfacet
  facet normal 0 0 -1
    outer loop
      vertex 0 7 19
      vertex 0.627905 9.98027 19
      vertex 0.927051 7.14683 19
    endloop
  endfacet
  facet normal 0 0 -1
    outer loop
      vertex 0 7 19
      vertex -0.627905 9.98027 19
      vertex 0.627905 9.98027 19
    endloop
  endfacet
  facet normal 0 0 -1
    outer loop
      vertex -0.927051 7.14683 19
      vertex -0.627905 9.98027 19
      vertex 0 7 19
    endloop
  endfacet
  facet normal 0 0 -1
    outer loop
      vertex -1.76336 7.57295 19
      vertex -0.627905 9.98027 19
      vertex -0.927051 7.14683 19
    endloop
  endfacet
  facet normal 0 0 -1
    outer loop
      vertex -1.76336 7.57295 19
      vertex -1.87381 9.82287 19
      vertex -0.627905 9.98027 19
    endloop
  endfacet
  facet normal 0 0 -1
    outer loop
      vertex -2.42705 8.23664 19
      vertex -1.87381 9.82287 19
      vertex -1.76336 7.57295 19
    endloop
  endfacet
  facet normal 0 0 -1
    outer loop
      vertex -2.85317 9.07295 19
      vertex -1.87381 9.82287 19
      vertex -2.42705 8.23664 19
    endloop
  endfacet
  facet normal 0 0 -1
    outer loop
      vertex -1.87381 9.82287 19
      vertex -2.85317 9.07295 19
      vertex -2.92903 9.55194 19
    endloop
  endfacet
  facet normal -0.707107 0.707107 0
    outer loop
      vertex 1.76336 7.57295 0
      vertex 2.42705 8.23664 19
      vertex 2.42705 8.23664 0
    endloop
  endfacet
  facet normal -0.707107 0.707107 0
    outer loop
      vertex 2.42705 8.23664 19
      vertex 1.76336 7.57295 0
      vertex 1.76336 7.57295 19
    endloop
  endfacet
  facet normal -0.98769 0.156425 0
    outer loop
      vertex 2.85317 9.07295 0
      vertex 2.92903 9.55194 19
      vertex 2.92903 9.55194 0
    endloop
  endfacet
  facet normal -0.98769 0.156425 0
    outer loop
      vertex 2.92903 9.55194 19
      vertex 2.85317 9.07295 0
      vertex 2.85317 9.07295 19
    endloop
  endfacet
  facet normal 0.707107 0.707107 0
    outer loop
      vertex -1.76336 7.57295 19
      vertex -2.42705 8.23664 0
      vertex -2.42705 8.23664 19
    endloop
  endfacet
  facet normal 0.707107 0.707107 0
    outer loop
      vertex -2.42705 8.23664 0
      vertex -1.76336 7.57295 19
      vertex -1.76336 7.57295 0
    endloop
  endfacet
  facet normal 0.45399 0.891007 -0
    outer loop
      vertex -0.927051 7.14683 0
      vertex -1.76336 7.57295 19
      vertex -0.927051 7.14683 19
    endloop
  endfacet
  facet normal 0.45399 0.891007 0
    outer loop
      vertex -1.76336 7.57295 19
      vertex -0.927051 7.14683 0
      vertex -1.76336 7.57295 0
    endloop
  endfacet
  facet normal -0.891007 0.453989 0
    outer loop
      vertex 2.42705 8.23664 0
      vertex 2.85317 9.07295 19
      vertex 2.85317 9.07295 0
    endloop
  endfacet
  facet normal -0.891007 0.453989 0
    outer loop
      vertex 2.85317 9.07295 19
      vertex 2.42705 8.23664 0
      vertex 2.42705 8.23664 19
    endloop
  endfacet
  facet normal -0.453989 -0.891007 0
    outer loop
      vertex -9.07295 2.85317 0
      vertex -8.23664 2.42705 16
      vertex -9.07295 2.85317 16
    endloop
  endfacet
  facet normal -0.453989 -0.891007 -0
    outer loop
      vertex -8.23664 2.42705 16
      vertex -9.07295 2.85317 0
      vertex -8.23664 2.42705 0
    endloop
  endfacet
  facet normal -0.987688 0.156434 0
    outer loop
      vertex -7.14683 -0.927051 0
      vertex -7 0 16
      vertex -7 0 0
    endloop
  endfacet
  facet normal -0.987688 0.156434 0
    outer loop
      vertex -7 0 16
      vertex -7.14683 -0.927051 0
      vertex -7.14683 -0.927051 16
    endloop
  endfacet
  facet normal -0.707107 -0.707107 0
    outer loop
      vertex -7.57295 1.76336 0
      vertex -8.23664 2.42705 16
      vertex -8.23664 2.42705 0
    endloop
  endfacet
  facet normal -0.707107 -0.707107 0
    outer loop
      vertex -8.23664 2.42705 16
      vertex -7.57295 1.76336 0
      vertex -7.57295 1.76336 16
    endloop
  endfacet
  facet normal -0.891007 -0.45399 0
    outer loop
      vertex -7.14683 0.927051 0
      vertex -7.57295 1.76336 16
      vertex -7.57295 1.76336 0
    endloop
  endfacet
  facet normal -0.891007 -0.45399 0
    outer loop
      vertex -7.57295 1.76336 16
      vertex -7.14683 0.927051 0
      vertex -7.14683 0.927051 16
    endloop
  endfacet
  facet normal -0.156428 -0.987689 0
    outer loop
      vertex -9.54265 2.92756 0
      vertex -9.07295 2.85317 16
      vertex -9.54265 2.92756 16
    endloop
  endfacet
  facet normal -0.156428 -0.987689 -0
    outer loop
      vertex -9.07295 2.85317 16
      vertex -9.54265 2.92756 0
      vertex -9.07295 2.85317 0
    endloop
  endfacet
  facet normal -0.707107 0.707107 0
    outer loop
      vertex -8.23664 -2.42705 0
      vertex -7.57295 -1.76336 16
      vertex -7.57295 -1.76336 0
    endloop
  endfacet
  facet normal -0.707107 0.707107 0
    outer loop
      vertex -7.57295 -1.76336 16
      vertex -8.23664 -2.42705 0
      vertex -8.23664 -2.42705 16
    endloop
  endfacet
  facet normal -0.156428 0.987689 0
    outer loop
      vertex -9.07295 -2.85317 0
      vertex -9.54265 -2.92756 16
      vertex -9.07295 -2.85317 16
    endloop
  endfacet
  facet normal -0.156428 0.987689 0
    outer loop
      vertex -9.54265 -2.92756 16
      vertex -9.07295 -2.85317 0
      vertex -9.54265 -2.92756 0
    endloop
  endfacet
  facet normal -0.891007 0.45399 0
    outer loop
      vertex -7.57295 -1.76336 0
      vertex -7.14683 -0.927051 16
      vertex -7.14683 -0.927051 0
    endloop
  endfacet
  facet normal -0.891007 0.45399 0
    outer loop
      vertex -7.14683 -0.927051 16
      vertex -7.57295 -1.76336 0
      vertex -7.57295 -1.76336 16
    endloop
  endfacet
  facet normal 0 0 -1
    outer loop
      vertex -10 0 16
      vertex -7 0 16
      vertex -7.14683 -0.927051 16
    endloop
  endfacet
  facet normal 0 0 -1
    outer loop
      vertex -9.92115 -1.25333 16
      vertex -7.14683 -0.927051 16
      vertex -7.57295 -1.76336 16
    endloop
  endfacet
  facet normal 0 0 -1
    outer loop
      vertex -7 0 16
      vertex -10 0 16
      vertex -7.14683 0.927051 16
    endloop
  endfacet
  facet normal 0 0 -1
    outer loop
      vertex -9.92115 -1.25333 16
      vertex -7.57295 -1.76336 16
      vertex -8.23664 -2.42705 16
    endloop
  endfacet
  facet normal 0 -0 -1
    outer loop
      vertex -9.92115 1.25333 16
      vertex -7.14683 0.927051 16
      vertex -10 0 16
    endloop
  endfacet
  facet normal 0 0 -1
    outer loop
      vertex -9.68583 -2.4869 16
      vertex -8.23664 -2.42705 16
      vertex -9.07295 -2.85317 16
    endloop
  endfacet
  facet normal -0 0 -1
    outer loop
      vertex -7.14683 -0.927051 16
      vertex -9.92115 -1.25333 16
      vertex -10 0 16
    endloop
  endfacet
  facet normal 0 0 -1
    outer loop
      vertex -9.68583 -2.4869 16
      vertex -9.07295 -2.85317 16
      vertex -9.54265 -2.92756 16
    endloop
  endfacet
  facet normal 0 0 -1
    outer loop
      vertex -7.14683 0.927051 16
      vertex -9.92115 1.25333 16
      vertex -7.57295 1.76336 16
    endloop
  endfacet
  facet normal -0 0 -1
    outer loop
      vertex -8.23664 -2.42705 16
      vertex -9.68583 -2.4869 16
      vertex -9.92115 -1.25333 16
    endloop
  endfacet
  facet normal -0 0 -1
    outer loop
      vertex -7.57295 1.76336 16
      vertex -9.92115 1.25333 16
      vertex -8.23664 2.42705 16
    endloop
  endfacet
  facet normal 0 0 -1
    outer loop
      vertex -8.23664 2.42705 16
      vertex -9.68583 2.4869 16
      vertex -9.07295 2.85317 16
    endloop
  endfacet
  facet normal -0 0 -1
    outer loop
      vertex -9.07295 2.85317 16
      vertex -9.68583 2.4869 16
      vertex -9.54265 2.92756 16
    endloop
  endfacet
  facet normal 0 -0 -1
    outer loop
      vertex -9.68583 2.4869 16
      vertex -8.23664 2.42705 16
      vertex -9.92115 1.25333 16
    endloop
  endfacet
  facet normal -0.987688 -0.156434 0
    outer loop
      vertex -7 0 0
      vertex -7.14683 0.927051 16
      vertex -7.14683 0.927051 0
    endloop
  endfacet
  facet normal -0.987688 -0.156434 0
    outer loop
      vertex -7.14683 0.927051 16
      vertex -7 0 0
      vertex -7 0 16
    endloop
  endfacet
  facet normal -0.453989 0.891007 0
    outer loop
      vertex -8.23664 -2.42705 0
      vertex -9.07295 -2.85317 16
      vertex -8.23664 -2.42705 16
    endloop
  endfacet
  facet normal -0.453989 0.891007 0
    outer loop
      vertex -9.07295 -2.85317 16
      vertex -8.23664 -2.42705 0
      vertex -9.07295 -2.85317 0
    endloop
  endfacet
endsolid OpenSCAD_Model
