solid OpenSCAD_Model
  facet normal 0.998629 -0 0.0523389
    outer loop
      vertex 7.45891 -20 20.784
      vertex 7.5 20 20
      vertex 7.45891 20 20.784
    endloop
  endfacet
  facet normal 0.998629 0 0.0523389
    outer loop
      vertex 7.5 20 20
      vertex 7.45891 -20 20.784
      vertex 7.5 -20 20
    endloop
  endfacet
  facet normal 0.987687 -0 0.15644
    outer loop
      vertex 7.33611 -20 21.5593
      vertex 7.45891 20 20.784
      vertex 7.33611 20 21.5593
    endloop
  endfacet
  facet normal 0.987687 0 0.15644
    outer loop
      vertex 7.45891 20 20.784
      vertex 7.33611 -20 21.5593
      vertex 7.45891 -20 20.784
    endloop
  endfacet
  facet normal 0.965925 -0 0.258824
    outer loop
      vertex 7.13292 -20 22.3176
      vertex 7.33611 20 21.5593
      vertex 7.13292 20 22.3176
    endloop
  endfacet
  facet normal 0.965925 0 0.258824
    outer loop
      vertex 7.33611 20 21.5593
      vertex 7.13292 -20 22.3176
      vertex 7.33611 -20 21.5593
    endloop
  endfacet
  facet normal 0.933582 -0 0.358364
    outer loop
      vertex 6.85159 -20 23.0505
      vertex 7.13292 20 22.3176
      vertex 6.85159 20 23.0505
    endloop
  endfacet
  facet normal 0.933582 0 0.358364
    outer loop
      vertex 7.13292 20 22.3176
      vertex 6.85159 -20 23.0505
      vertex 7.13292 -20 22.3176
    endloop
  endfacet
  facet normal 0.891013 -0 0.453977
    outer loop
      vertex 6.49519 -20 23.75
      vertex 6.85159 20 23.0505
      vertex 6.49519 20 23.75
    endloop
  endfacet
  facet normal 0.891013 0 0.453977
    outer loop
      vertex 6.85159 20 23.0505
      vertex 6.49519 -20 23.75
      vertex 6.85159 -20 23.0505
    endloop
  endfacet
  facet normal 0.838676 -0 0.54463
    outer loop
      vertex 6.06763 -20 24.4084
      vertex 6.49519 20 23.75
      vertex 6.06763 20 24.4084
    endloop
  endfacet
  facet normal 0.838676 0 0.54463
    outer loop
      vertex 6.49519 20 23.75
      vertex 6.06763 -20 24.4084
      vertex 6.49519 -20 23.75
    endloop
  endfacet
  facet normal 0.777152 -0 0.629313
    outer loop
      vertex 5.57359 -20 25.0185
      vertex 6.06763 20 24.4084
      vertex 5.57359 20 25.0185
    endloop
  endfacet
  facet normal 0.777152 0 0.629313
    outer loop
      vertex 6.06763 20 24.4084
      vertex 5.57359 -20 25.0185
      vertex 6.06763 -20 24.4084
    endloop
  endfacet
  facet normal 0.7071 0 0.707113
    outer loop
      vertex 5.01848 20 25.5736
      vertex 5.57359 -20 25.0185
      vertex 5.57359 20 25.0185
    endloop
  endfacet
  facet normal 0.7071 0 0.707113
    outer loop
      vertex 5.57359 -20 25.0185
      vertex 5.01848 20 25.5736
      vertex 5.01848 -20 25.5736
    endloop
  endfacet
  facet normal 0.629289 0 0.777172
    outer loop
      vertex 4.40839 20 26.0676
      vertex 5.01848 -20 25.5736
      vertex 5.01848 20 25.5736
    endloop
  endfacet
  facet normal 0.629289 0 0.777172
    outer loop
      vertex 5.01848 -20 25.5736
      vertex 4.40839 20 26.0676
      vertex 4.40839 -20 26.0676
    endloop
  endfacet
  facet normal 0.544672 0 0.838649
    outer loop
      vertex 3.75 20 26.4952
      vertex 4.40839 -20 26.0676
      vertex 4.40839 20 26.0676
    endloop
  endfacet
  facet normal 0.544672 0 0.838649
    outer loop
      vertex 4.40839 -20 26.0676
      vertex 3.75 20 26.4952
      vertex 3.75 -20 26.4952
    endloop
  endfacet
  facet normal 0.453988 0 0.891008
    outer loop
      vertex 3.05052 20 26.8516
      vertex 3.75 -20 26.4952
      vertex 3.75 20 26.4952
    endloop
  endfacet
  facet normal 0.453988 0 0.891008
    outer loop
      vertex 3.75 -20 26.4952
      vertex 3.05052 20 26.8516
      vertex 3.05052 -20 26.8516
    endloop
  endfacet
  facet normal 0.358335 0 0.933593
    outer loop
      vertex 2.31763 20 27.1329
      vertex 3.05052 -20 26.8516
      vertex 3.05052 20 26.8516
    endloop
  endfacet
  facet normal 0.358335 0 0.933593
    outer loop
      vertex 3.05052 -20 26.8516
      vertex 2.31763 20 27.1329
      vertex 2.31763 -20 27.1329
    endloop
  endfacet
  facet normal 0.258839 0 0.96592
    outer loop
      vertex 1.55934 20 27.3361
      vertex 2.31763 -20 27.1329
      vertex 2.31763 20 27.1329
    endloop
  endfacet
  facet normal 0.258839 0 0.96592
    outer loop
      vertex 2.31763 -20 27.1329
      vertex 1.55934 20 27.3361
      vertex 1.55934 -20 27.3361
    endloop
  endfacet
  facet normal 0.156425 0 0.98769
    outer loop
      vertex 0.783964 20 27.4589
      vertex 1.55934 -20 27.3361
      vertex 1.55934 20 27.3361
    endloop
  endfacet
  facet normal 0.156425 0 0.98769
    outer loop
      vertex 1.55934 -20 27.3361
      vertex 0.783964 20 27.4589
      vertex 0.783964 -20 27.4589
    endloop
  endfacet
  facet normal 0.052354 0 0.998629
    outer loop
      vertex 2.12456e-15 20 27.5
      vertex 0.783964 -20 27.4589
      vertex 0.783964 20 27.4589
    endloop
  endfacet
  facet normal 0.052354 0 0.998629
    outer loop
      vertex 0.783964 -20 27.4589
      vertex 2.12456e-15 20 27.5
      vertex 2.12456e-15 -20 27.5
    endloop
  endfacet
  facet normal -0.052354 0 0.998629
    outer loop
      vertex -0.783964 20 27.4589
      vertex 2.12456e-15 -20 27.5
      vertex 2.12456e-15 20 27.5
    endloop
  endfacet
  facet normal -0.052354 0 0.998629
    outer loop
      vertex 2.12456e-15 -20 27.5
      vertex -0.783964 20 27.4589
      vertex -0.783964 -20 27.4589
    endloop
  endfacet
  facet normal -0.156425 0 0.98769
    outer loop
      vertex -1.55934 20 27.3361
      vertex -0.783964 -20 27.4589
      vertex -0.783964 20 27.4589
    endloop
  endfacet
  facet normal -0.156425 0 0.98769
    outer loop
      vertex -0.783964 -20 27.4589
      vertex -1.55934 20 27.3361
      vertex -1.55934 -20 27.3361
    endloop
  endfacet
  facet normal -0.258839 0 0.96592
    outer loop
      vertex -2.31763 20 27.1329
      vertex -1.55934 -20 27.3361
      vertex -1.55934 20 27.3361
    endloop
  endfacet
  facet normal -0.258839 0 0.96592
    outer loop
      vertex -1.55934 -20 27.3361
      vertex -2.31763 20 27.1329
      vertex -2.31763 -20 27.1329
    endloop
  endfacet
  facet normal -0.358335 0 0.933593
    outer loop
      vertex -3.05052 20 26.8516
      vertex -2.31763 -20 27.1329
      vertex -2.31763 20 27.1329
    endloop
  endfacet
  facet normal -0.358335 0 0.933593
    outer loop
      vertex -2.31763 -20 27.1329
      vertex -3.05052 20 26.8516
      vertex -3.05052 -20 26.8516
    endloop
  endfacet
  facet normal -0.453988 0 0.891008
    outer loop
      vertex -3.75 20 26.4952
      vertex -3.05052 -20 26.8516
      vertex -3.05052 20 26.8516
    endloop
  endfacet
  facet normal -0.453988 0 0.891008
    outer loop
      vertex -3.05052 -20 26.8516
      vertex -3.75 20 26.4952
      vertex -3.75 -20 26.4952
    endloop
  endfacet
  facet normal -0.544672 0 0.838649
    outer loop
      vertex -4.40839 20 26.0676
      vertex -3.75 -20 26.4952
      vertex -3.75 20 26.4952
    endloop
  endfacet
  facet normal -0.544672 0 0.838649
    outer loop
      vertex -3.75 -20 26.4952
      vertex -4.40839 20 26.0676
      vertex -4.40839 -20 26.0676
    endloop
  endfacet
  facet normal -0.629289 0 0.777172
    outer loop
      vertex -5.01848 20 25.5736
      vertex -4.40839 -20 26.0676
      vertex -4.40839 20 26.0676
    endloop
  endfacet
  facet normal -0.629289 0 0.777172
    outer loop
      vertex -4.40839 -20 26.0676
      vertex -5.01848 20 25.5736
      vertex -5.01848 -20 25.5736
    endloop
  endfacet
  facet normal -0.7071 0 0.707113
    outer loop
      vertex -5.57359 20 25.0185
      vertex -5.01848 -20 25.5736
      vertex -5.01848 20 25.5736
    endloop
  endfacet
  facet normal -0.7071 0 0.707113
    outer loop
      vertex -5.01848 -20 25.5736
      vertex -5.57359 20 25.0185
      vertex -5.57359 -20 25.0185
    endloop
  endfacet
  facet normal -0.777152 0 0.629313
    outer loop
      vertex -6.06763 -20 24.4084
      vertex -5.57359 20 25.0185
      vertex -6.06763 20 24.4084
    endloop
  endfacet
  facet normal -0.777152 0 0.629313
    outer loop
      vertex -5.57359 20 25.0185
      vertex -6.06763 -20 24.4084
      vertex -5.57359 -20 25.0185
    endloop
  endfacet
  facet normal -0.838676 0 0.54463
    outer loop
      vertex -6.49519 -20 23.75
      vertex -6.06763 20 24.4084
      vertex -6.49519 20 23.75
    endloop
  endfacet
  facet normal -0.838676 0 0.54463
    outer loop
      vertex -6.06763 20 24.4084
      vertex -6.49519 -20 23.75
      vertex -6.06763 -20 24.4084
    endloop
  endfacet
  facet normal -0.891013 0 0.453977
    outer loop
      vertex -6.85159 -20 23.0505
      vertex -6.49519 20 23.75
      vertex -6.85159 20 23.0505
    endloop
  endfacet
  facet normal -0.891013 0 0.453977
    outer loop
      vertex -6.49519 20 23.75
      vertex -6.85159 -20 23.0505
      vertex -6.49519 -20 23.75
    endloop
  endfacet
  facet normal -0.933582 0 0.358364
    outer loop
      vertex -7.13292 -20 22.3176
      vertex -6.85159 20 23.0505
      vertex -7.13292 20 22.3176
    endloop
  endfacet
  facet normal -0.933582 0 0.358364
    outer loop
      vertex -6.85159 20 23.0505
      vertex -7.13292 -20 22.3176
      vertex -6.85159 -20 23.0505
    endloop
  endfacet
  facet normal -0.965925 0 0.258824
    outer loop
      vertex -7.33611 -20 21.5593
      vertex -7.13292 20 22.3176
      vertex -7.33611 20 21.5593
    endloop
  endfacet
  facet normal -0.965925 0 0.258824
    outer loop
      vertex -7.13292 20 22.3176
      vertex -7.33611 -20 21.5593
      vertex -7.13292 -20 22.3176
    endloop
  endfacet
  facet normal -0.987687 0 0.15644
    outer loop
      vertex -7.45891 -20 20.784
      vertex -7.33611 20 21.5593
      vertex -7.45891 20 20.784
    endloop
  endfacet
  facet normal -0.987687 0 0.15644
    outer loop
      vertex -7.33611 20 21.5593
      vertex -7.45891 -20 20.784
      vertex -7.33611 -20 21.5593
    endloop
  endfacet
  facet normal -0.998629 0 0.0523389
    outer loop
      vertex -7.5 -20 20
      vertex -7.45891 20 20.784
      vertex -7.5 20 20
    endloop
  endfacet
  facet normal -0.998629 0 0.0523389
    outer loop
      vertex -7.45891 20 20.784
      vertex -7.5 -20 20
      vertex -7.45891 -20 20.784
    endloop
  endfacet
  facet normal -0.998629 0 -0.0523389
    outer loop
      vertex -7.45891 -20 19.216
      vertex -7.5 20 20
      vertex -7.45891 20 19.216
    endloop
  endfacet
  facet normal -0.998629 -0 -0.0523389
    outer loop
      vertex -7.5 20 20
      vertex -7.45891 -20 19.216
      vertex -7.5 -20 20
    endloop
  endfacet
  facet normal -0.987687 0 -0.15644
    outer loop
      vertex -7.33611 -20 18.4407
      vertex -7.45891 20 19.216
      vertex -7.33611 20 18.4407
    endloop
  endfacet
  facet normal -0.987687 -0 -0.15644
    outer loop
      vertex -7.45891 20 19.216
      vertex -7.33611 -20 18.4407
      vertex -7.45891 -20 19.216
    endloop
  endfacet
  facet normal -0.965925 0 -0.258824
    outer loop
      vertex -7.13292 -20 17.6824
      vertex -7.33611 20 18.4407
      vertex -7.13292 20 17.6824
    endloop
  endfacet
  facet normal -0.965925 -0 -0.258824
    outer loop
      vertex -7.33611 20 18.4407
      vertex -7.13292 -20 17.6824
      vertex -7.33611 -20 18.4407
    endloop
  endfacet
  facet normal -0.933582 0 -0.358364
    outer loop
      vertex -6.85159 -20 16.9495
      vertex -7.13292 20 17.6824
      vertex -6.85159 20 16.9495
    endloop
  endfacet
  facet normal -0.933582 -0 -0.358364
    outer loop
      vertex -7.13292 20 17.6824
      vertex -6.85159 -20 16.9495
      vertex -7.13292 -20 17.6824
    endloop
  endfacet
  facet normal -0.891013 0 -0.453977
    outer loop
      vertex -6.49519 -20 16.25
      vertex -6.85159 20 16.9495
      vertex -6.49519 20 16.25
    endloop
  endfacet
  facet normal -0.891013 -0 -0.453977
    outer loop
      vertex -6.85159 20 16.9495
      vertex -6.49519 -20 16.25
      vertex -6.85159 -20 16.9495
    endloop
  endfacet
  facet normal -0.838676 0 -0.54463
    outer loop
      vertex -6.06763 -20 15.5916
      vertex -6.49519 20 16.25
      vertex -6.06763 20 15.5916
    endloop
  endfacet
  facet normal -0.838676 -0 -0.54463
    outer loop
      vertex -6.49519 20 16.25
      vertex -6.06763 -20 15.5916
      vertex -6.49519 -20 16.25
    endloop
  endfacet
  facet normal -0.777152 0 -0.629313
    outer loop
      vertex -5.57359 -20 14.9815
      vertex -6.06763 20 15.5916
      vertex -5.57359 20 14.9815
    endloop
  endfacet
  facet normal -0.777152 -0 -0.629313
    outer loop
      vertex -6.06763 20 15.5916
      vertex -5.57359 -20 14.9815
      vertex -6.06763 -20 15.5916
    endloop
  endfacet
  facet normal -0.7071 0 -0.707113
    outer loop
      vertex -5.01848 -20 14.4264
      vertex -5.57359 20 14.9815
      vertex -5.01848 20 14.4264
    endloop
  endfacet
  facet normal -0.7071 -0 -0.707113
    outer loop
      vertex -5.57359 20 14.9815
      vertex -5.01848 -20 14.4264
      vertex -5.57359 -20 14.9815
    endloop
  endfacet
  facet normal -0.629289 0 -0.777172
    outer loop
      vertex -5.01848 -20 14.4264
      vertex -4.40839 20 13.9324
      vertex -4.40839 -20 13.9324
    endloop
  endfacet
  facet normal -0.629289 0 -0.777172
    outer loop
      vertex -4.40839 20 13.9324
      vertex -5.01848 -20 14.4264
      vertex -5.01848 20 14.4264
    endloop
  endfacet
  facet normal -0.544672 0 -0.838649
    outer loop
      vertex -4.40839 -20 13.9324
      vertex -3.75 20 13.5048
      vertex -3.75 -20 13.5048
    endloop
  endfacet
  facet normal -0.544672 0 -0.838649
    outer loop
      vertex -3.75 20 13.5048
      vertex -4.40839 -20 13.9324
      vertex -4.40839 20 13.9324
    endloop
  endfacet
  facet normal -0.453988 0 -0.891008
    outer loop
      vertex -3.75 -20 13.5048
      vertex -3.05052 20 13.1484
      vertex -3.05052 -20 13.1484
    endloop
  endfacet
  facet normal -0.453988 0 -0.891008
    outer loop
      vertex -3.05052 20 13.1484
      vertex -3.75 -20 13.5048
      vertex -3.75 20 13.5048
    endloop
  endfacet
  facet normal -0.358335 0 -0.933593
    outer loop
      vertex -3.05052 -20 13.1484
      vertex -2.31763 20 12.8671
      vertex -2.31763 -20 12.8671
    endloop
  endfacet
  facet normal -0.358335 0 -0.933593
    outer loop
      vertex -2.31763 20 12.8671
      vertex -3.05052 -20 13.1484
      vertex -3.05052 20 13.1484
    endloop
  endfacet
  facet normal -0.258839 0 -0.96592
    outer loop
      vertex -2.31763 -20 12.8671
      vertex -1.55934 20 12.6639
      vertex -1.55934 -20 12.6639
    endloop
  endfacet
  facet normal -0.258839 0 -0.96592
    outer loop
      vertex -1.55934 20 12.6639
      vertex -2.31763 -20 12.8671
      vertex -2.31763 20 12.8671
    endloop
  endfacet
  facet normal -0.156425 0 -0.98769
    outer loop
      vertex -1.55934 -20 12.6639
      vertex -0.783964 20 12.5411
      vertex -0.783964 -20 12.5411
    endloop
  endfacet
  facet normal -0.156425 0 -0.98769
    outer loop
      vertex -0.783964 20 12.5411
      vertex -1.55934 -20 12.6639
      vertex -1.55934 20 12.6639
    endloop
  endfacet
  facet normal -0.052354 0 -0.998629
    outer loop
      vertex -0.783964 -20 12.5411
      vertex -1.37768e-15 20 12.5
      vertex -1.37768e-15 -20 12.5
    endloop
  endfacet
  facet normal -0.052354 0 -0.998629
    outer loop
      vertex -1.37768e-15 20 12.5
      vertex -0.783964 -20 12.5411
      vertex -0.783964 20 12.5411
    endloop
  endfacet
  facet normal 0.052354 0 -0.998629
    outer loop
      vertex -1.37768e-15 -20 12.5
      vertex 0.783964 20 12.5411
      vertex 0.783964 -20 12.5411
    endloop
  endfacet
  facet normal 0.052354 0 -0.998629
    outer loop
      vertex 0.783964 20 12.5411
      vertex -1.37768e-15 -20 12.5
      vertex -1.37768e-15 20 12.5
    endloop
  endfacet
  facet normal 0.156425 0 -0.98769
    outer loop
      vertex 0.783964 -20 12.5411
      vertex 1.55934 20 12.6639
      vertex 1.55934 -20 12.6639
    endloop
  endfacet
  facet normal 0.156425 0 -0.98769
    outer loop
      vertex 1.55934 20 12.6639
      vertex 0.783964 -20 12.5411
      vertex 0.783964 20 12.5411
    endloop
  endfacet
  facet normal 0.258839 0 -0.96592
    outer loop
      vertex 1.55934 -20 12.6639
      vertex 2.31763 20 12.8671
      vertex 2.31763 -20 12.8671
    endloop
  endfacet
  facet normal 0.258839 0 -0.96592
    outer loop
      vertex 2.31763 20 12.8671
      vertex 1.55934 -20 12.6639
      vertex 1.55934 20 12.6639
    endloop
  endfacet
  facet normal 0.358335 0 -0.933593
    outer loop
      vertex 2.31763 -20 12.8671
      vertex 3.05052 20 13.1484
      vertex 3.05052 -20 13.1484
    endloop
  endfacet
  facet normal 0.358335 0 -0.933593
    outer loop
      vertex 3.05052 20 13.1484
      vertex 2.31763 -20 12.8671
      vertex 2.31763 20 12.8671
    endloop
  endfacet
  facet normal 0.453988 0 -0.891008
    outer loop
      vertex 3.05052 -20 13.1484
      vertex 3.75 20 13.5048
      vertex 3.75 -20 13.5048
    endloop
  endfacet
  facet normal 0.453988 0 -0.891008
    outer loop
      vertex 3.75 20 13.5048
      vertex 3.05052 -20 13.1484
      vertex 3.05052 20 13.1484
    endloop
  endfacet
  facet normal 0.544672 0 -0.838649
    outer loop
      vertex 3.75 -20 13.5048
      vertex 4.40839 20 13.9324
      vertex 4.40839 -20 13.9324
    endloop
  endfacet
  facet normal 0.544672 0 -0.838649
    outer loop
      vertex 4.40839 20 13.9324
      vertex 3.75 -20 13.5048
      vertex 3.75 20 13.5048
    endloop
  endfacet
  facet normal 0.629289 0 -0.777172
    outer loop
      vertex 4.40839 -20 13.9324
      vertex 5.01848 20 14.4264
      vertex 5.01848 -20 14.4264
    endloop
  endfacet
  facet normal 0.629289 0 -0.777172
    outer loop
      vertex 5.01848 20 14.4264
      vertex 4.40839 -20 13.9324
      vertex 4.40839 20 13.9324
    endloop
  endfacet
  facet normal 0.7071 0 -0.707113
    outer loop
      vertex 5.57359 -20 14.9815
      vertex 5.01848 20 14.4264
      vertex 5.57359 20 14.9815
    endloop
  endfacet
  facet normal 0.7071 0 -0.707113
    outer loop
      vertex 5.01848 20 14.4264
      vertex 5.57359 -20 14.9815
      vertex 5.01848 -20 14.4264
    endloop
  endfacet
  facet normal 0.777152 0 -0.629313
    outer loop
      vertex 6.06763 -20 15.5916
      vertex 5.57359 20 14.9815
      vertex 6.06763 20 15.5916
    endloop
  endfacet
  facet normal 0.777152 0 -0.629313
    outer loop
      vertex 5.57359 20 14.9815
      vertex 6.06763 -20 15.5916
      vertex 5.57359 -20 14.9815
    endloop
  endfacet
  facet normal 0.838676 0 -0.54463
    outer loop
      vertex 6.49519 -20 16.25
      vertex 6.06763 20 15.5916
      vertex 6.49519 20 16.25
    endloop
  endfacet
  facet normal 0.838676 0 -0.54463
    outer loop
      vertex 6.06763 20 15.5916
      vertex 6.49519 -20 16.25
      vertex 6.06763 -20 15.5916
    endloop
  endfacet
  facet normal 0.891013 0 -0.453977
    outer loop
      vertex 6.85159 -20 16.9495
      vertex 6.49519 20 16.25
      vertex 6.85159 20 16.9495
    endloop
  endfacet
  facet normal 0.891013 0 -0.453977
    outer loop
      vertex 6.49519 20 16.25
      vertex 6.85159 -20 16.9495
      vertex 6.49519 -20 16.25
    endloop
  endfacet
  facet normal 0.933582 0 -0.358364
    outer loop
      vertex 7.13292 -20 17.6824
      vertex 6.85159 20 16.9495
      vertex 7.13292 20 17.6824
    endloop
  endfacet
  facet normal 0.933582 0 -0.358364
    outer loop
      vertex 6.85159 20 16.9495
      vertex 7.13292 -20 17.6824
      vertex 6.85159 -20 16.9495
    endloop
  endfacet
  facet normal 0.965925 0 -0.258824
    outer loop
      vertex 7.33611 -20 18.4407
      vertex 7.13292 20 17.6824
      vertex 7.33611 20 18.4407
    endloop
  endfacet
  facet normal 0.965925 0 -0.258824
    outer loop
      vertex 7.13292 20 17.6824
      vertex 7.33611 -20 18.4407
      vertex 7.13292 -20 17.6824
    endloop
  endfacet
  facet normal 0.987687 0 -0.15644
    outer loop
      vertex 7.45891 -20 19.216
      vertex 7.33611 20 18.4407
      vertex 7.45891 20 19.216
    endloop
  endfacet
  facet normal 0.987687 0 -0.15644
    outer loop
      vertex 7.33611 20 18.4407
      vertex 7.45891 -20 19.216
      vertex 7.33611 -20 18.4407
    endloop
  endfacet
  facet normal 0.998629 0 -0.0523389
    outer loop
      vertex 7.5 -20 20
      vertex 7.45891 20 19.216
      vertex 7.5 20 20
    endloop
  endfacet
  facet normal 0.998629 0 -0.0523389
    outer loop
      vertex 7.45891 20 19.216
      vertex 7.5 -20 20
      vertex 7.45891 -20 19.216
    endloop
  endfacet
  facet normal 0 1 0
    outer loop
      vertex 0.783964 20 27.4589
      vertex -0.783964 20 27.4589
      vertex 2.12456e-15 20 27.5
    endloop
  endfacet
  facet normal 0 1 0
    outer loop
      vertex 1.55934 20 27.3361
      vertex -0.783964 20 27.4589
      vertex 0.783964 20 27.4589
    endloop
  endfacet
  facet normal 0 1 0
    outer loop
      vertex 1.55934 20 27.3361
      vertex -1.55934 20 27.3361
      vertex -0.783964 20 27.4589
    endloop
  endfacet
  facet normal 0 1 0
    outer loop
      vertex 2.31763 20 27.1329
      vertex -1.55934 20 27.3361
      vertex 1.55934 20 27.3361
    endloop
  endfacet
  facet normal 0 1 0
    outer loop
      vertex 2.31763 20 27.1329
      vertex -2.31763 20 27.1329
      vertex -1.55934 20 27.3361
    endloop
  endfacet
  facet normal 0 1 0
    outer loop
      vertex 3.05052 20 26.8516
      vertex -2.31763 20 27.1329
      vertex 2.31763 20 27.1329
    endloop
  endfacet
  facet normal 0 1 0
    outer loop
      vertex 3.05052 20 26.8516
      vertex -3.05052 20 26.8516
      vertex -2.31763 20 27.1329
    endloop
  endfacet
  facet normal 0 1 0
    outer loop
      vertex 3.75 20 26.4952
      vertex -3.05052 20 26.8516
      vertex 3.05052 20 26.8516
    endloop
  endfacet
  facet normal 0 1 0
    outer loop
      vertex 3.75 20 26.4952
      vertex -3.75 20 26.4952
      vertex -3.05052 20 26.8516
    endloop
  endfacet
  facet normal 0 1 0
    outer loop
      vertex 4.40839 20 26.0676
      vertex -3.75 20 26.4952
      vertex 3.75 20 26.4952
    endloop
  endfacet
  facet normal 0 1 0
    outer loop
      vertex 4.40839 20 26.0676
      vertex -4.40839 20 26.0676
      vertex -3.75 20 26.4952
    endloop
  endfacet
  facet normal 0 1 0
    outer loop
      vertex 5.01848 20 25.5736
      vertex -4.40839 20 26.0676
      vertex 4.40839 20 26.0676
    endloop
  endfacet
  facet normal 0 1 0
    outer loop
      vertex 5.01848 20 25.5736
      vertex -5.01848 20 25.5736
      vertex -4.40839 20 26.0676
    endloop
  endfacet
  facet normal 0 1 0
    outer loop
      vertex 5.57359 20 25.0185
      vertex -5.01848 20 25.5736
      vertex 5.01848 20 25.5736
    endloop
  endfacet
  facet normal 0 1 0
    outer loop
      vertex 5.57359 20 25.0185
      vertex -5.57359 20 25.0185
      vertex -5.01848 20 25.5736
    endloop
  endfacet
  facet normal 0 1 0
    outer loop
      vertex 6.06763 20 24.4084
      vertex -5.57359 20 25.0185
      vertex 5.57359 20 25.0185
    endloop
  endfacet
  facet normal 0 1 0
    outer loop
      vertex 6.06763 20 24.4084
      vertex -6.06763 20 24.4084
      vertex -5.57359 20 25.0185
    endloop
  endfacet
  facet normal 0 1 0
    outer loop
      vertex 6.49519 20 23.75
      vertex -6.06763 20 24.4084
      vertex 6.06763 20 24.4084
    endloop
  endfacet
  facet normal 0 1 0
    outer loop
      vertex 6.49519 20 23.75
      vertex -6.49519 20 23.75
      vertex -6.06763 20 24.4084
    endloop
  endfacet
  facet normal 0 1 0
    outer loop
      vertex 6.85159 20 23.0505
      vertex -6.49519 20 23.75
      vertex 6.49519 20 23.75
    endloop
  endfacet
  facet normal 0 1 0
    outer loop
      vertex 6.85159 20 23.0505
      vertex -6.85159 20 23.0505
      vertex -6.49519 20 23.75
    endloop
  endfacet
  facet normal 0 1 0
    outer loop
      vertex 7.13292 20 22.3176
      vertex -6.85159 20 23.0505
      vertex 6.85159 20 23.0505
    endloop
  endfacet
  facet normal 0 1 0
    outer loop
      vertex 7.13292 20 22.3176
      vertex -7.13292 20 22.3176
      vertex -6.85159 20 23.0505
    endloop
  endfacet
  facet normal 0 1 0
    outer loop
      vertex 7.33611 20 21.5593
      vertex -7.13292 20 22.3176
      vertex 7.13292 20 22.3176
    endloop
  endfacet
  facet normal 0 1 0
    outer loop
      vertex 7.33611 20 21.5593
      vertex -7.33611 20 21.5593
      vertex -7.13292 20 22.3176
    endloop
  endfacet
  facet normal 0 1 0
    outer loop
      vertex 7.45891 20 20.784
      vertex -7.33611 20 21.5593
      vertex 7.33611 20 21.5593
    endloop
  endfacet
  facet normal 0 1 0
    outer loop
      vertex 7.45891 20 20.784
      vertex -7.45891 20 20.784
      vertex -7.33611 20 21.5593
    endloop
  endfacet
  facet normal 0 1 0
    outer loop
      vertex 7.5 20 20
      vertex -7.45891 20 20.784
      vertex 7.45891 20 20.784
    endloop
  endfacet
  facet normal 0 1 0
    outer loop
      vertex 7.5 20 20
      vertex -7.5 20 20
      vertex -7.45891 20 20.784
    endloop
  endfacet
  facet normal 0 1 -0
    outer loop
      vertex 7.45891 20 19.216
      vertex -7.5 20 20
      vertex 7.5 20 20
    endloop
  endfacet
  facet normal 0 1 0
    outer loop
      vertex 7.45891 20 19.216
      vertex -7.45891 20 19.216
      vertex -7.5 20 20
    endloop
  endfacet
  facet normal 0 1 -0
    outer loop
      vertex 7.33611 20 18.4407
      vertex -7.45891 20 19.216
      vertex 7.45891 20 19.216
    endloop
  endfacet
  facet normal 0 1 0
    outer loop
      vertex 7.33611 20 18.4407
      vertex -7.33611 20 18.4407
      vertex -7.45891 20 19.216
    endloop
  endfacet
  facet normal 0 1 -0
    outer loop
      vertex 7.13292 20 17.6824
      vertex -7.33611 20 18.4407
      vertex 7.33611 20 18.4407
    endloop
  endfacet
  facet normal 0 1 0
    outer loop
      vertex 7.13292 20 17.6824
      vertex -7.13292 20 17.6824
      vertex -7.33611 20 18.4407
    endloop
  endfacet
  facet normal 0 1 -0
    outer loop
      vertex 6.85159 20 16.9495
      vertex -7.13292 20 17.6824
      vertex 7.13292 20 17.6824
    endloop
  endfacet
  facet normal 0 1 0
    outer loop
      vertex 6.85159 20 16.9495
      vertex -6.85159 20 16.9495
      vertex -7.13292 20 17.6824
    endloop
  endfacet
  facet normal 0 1 -0
    outer loop
      vertex 6.49519 20 16.25
      vertex -6.85159 20 16.9495
      vertex 6.85159 20 16.9495
    endloop
  endfacet
  facet normal 0 1 0
    outer loop
      vertex 6.49519 20 16.25
      vertex -6.49519 20 16.25
      vertex -6.85159 20 16.9495
    endloop
  endfacet
  facet normal 0 1 -0
    outer loop
      vertex 6.06763 20 15.5916
      vertex -6.49519 20 16.25
      vertex 6.49519 20 16.25
    endloop
  endfacet
  facet normal 0 1 0
    outer loop
      vertex 6.06763 20 15.5916
      vertex -6.06763 20 15.5916
      vertex -6.49519 20 16.25
    endloop
  endfacet
  facet normal 0 1 -0
    outer loop
      vertex 5.57359 20 14.9815
      vertex -6.06763 20 15.5916
      vertex 6.06763 20 15.5916
    endloop
  endfacet
  facet normal 0 1 0
    outer loop
      vertex 5.57359 20 14.9815
      vertex -5.57359 20 14.9815
      vertex -6.06763 20 15.5916
    endloop
  endfacet
  facet normal 0 1 -0
    outer loop
      vertex 5.01848 20 14.4264
      vertex -5.57359 20 14.9815
      vertex 5.57359 20 14.9815
    endloop
  endfacet
  facet normal 0 1 0
    outer loop
      vertex 5.01848 20 14.4264
      vertex -5.01848 20 14.4264
      vertex -5.57359 20 14.9815
    endloop
  endfacet
  facet normal 0 1 -0
    outer loop
      vertex 4.40839 20 13.9324
      vertex -5.01848 20 14.4264
      vertex 5.01848 20 14.4264
    endloop
  endfacet
  facet normal 0 1 0
    outer loop
      vertex 4.40839 20 13.9324
      vertex -4.40839 20 13.9324
      vertex -5.01848 20 14.4264
    endloop
  endfacet
  facet normal 0 1 -0
    outer loop
      vertex 3.75 20 13.5048
      vertex -4.40839 20 13.9324
      vertex 4.40839 20 13.9324
    endloop
  endfacet
  facet normal 0 1 0
    outer loop
      vertex 3.75 20 13.5048
      vertex -3.75 20 13.5048
      vertex -4.40839 20 13.9324
    endloop
  endfacet
  facet normal 0 1 -0
    outer loop
      vertex 3.05052 20 13.1484
      vertex -3.75 20 13.5048
      vertex 3.75 20 13.5048
    endloop
  endfacet
  facet normal 0 1 0
    outer loop
      vertex 3.05052 20 13.1484
      vertex -3.05052 20 13.1484
      vertex -3.75 20 13.5048
    endloop
  endfacet
  facet normal 0 1 -0
    outer loop
      vertex 2.31763 20 12.8671
      vertex -3.05052 20 13.1484
      vertex 3.05052 20 13.1484
    endloop
  endfacet
  facet normal 0 1 0
    outer loop
      vertex 2.31763 20 12.8671
      vertex -2.31763 20 12.8671
      vertex -3.05052 20 13.1484
    endloop
  endfacet
  facet normal 0 1 -0
    outer loop
      vertex 1.55934 20 12.6639
      vertex -2.31763 20 12.8671
      vertex 2.31763 20 12.8671
    endloop
  endfacet
  facet normal 0 1 0
    outer loop
      vertex 1.55934 20 12.6639
      vertex -1.55934 20 12.6639
      vertex -2.31763 20 12.8671
    endloop
  endfacet
  facet normal 0 1 -0
    outer loop
      vertex 0.783964 20 12.5411
      vertex -1.55934 20 12.6639
      vertex 1.55934 20 12.6639
    endloop
  endfacet
  facet normal 0 1 0
    outer loop
      vertex 0.783964 20 12.5411
      vertex -0.783964 20 12.5411
      vertex -1.55934 20 12.6639
    endloop
  endfacet
  facet normal -0 1 0
    outer loop
      vertex -0.783964 20 12.5411
      vertex 0.783964 20 12.5411
      vertex -1.37768e-15 20 12.5
    endloop
  endfacet
  facet normal 0 -1 0
    outer loop
      vertex -0.783964 -20 27.4589
      vertex 0.783964 -20 27.4589
      vertex 2.12456e-15 -20 27.5
    endloop
  endfacet
  facet normal 0 -1 0
    outer loop
      vertex -1.55934 -20 27.3361
      vertex 0.783964 -20 27.4589
      vertex -0.783964 -20 27.4589
    endloop
  endfacet
  facet normal 0 -1 0
    outer loop
      vertex -1.55934 -20 27.3361
      vertex 1.55934 -20 27.3361
      vertex 0.783964 -20 27.4589
    endloop
  endfacet
  facet normal 0 -1 0
    outer loop
      vertex -2.31763 -20 27.1329
      vertex 1.55934 -20 27.3361
      vertex -1.55934 -20 27.3361
    endloop
  endfacet
  facet normal 0 -1 0
    outer loop
      vertex -2.31763 -20 27.1329
      vertex 2.31763 -20 27.1329
      vertex 1.55934 -20 27.3361
    endloop
  endfacet
  facet normal 0 -1 0
    outer loop
      vertex -3.05052 -20 26.8516
      vertex 2.31763 -20 27.1329
      vertex -2.31763 -20 27.1329
    endloop
  endfacet
  facet normal 0 -1 0
    outer loop
      vertex -3.05052 -20 26.8516
      vertex 3.05052 -20 26.8516
      vertex 2.31763 -20 27.1329
    endloop
  endfacet
  facet normal 0 -1 0
    outer loop
      vertex -3.75 -20 26.4952
      vertex 3.05052 -20 26.8516
      vertex -3.05052 -20 26.8516
    endloop
  endfacet
  facet normal 0 -1 0
    outer loop
      vertex -3.75 -20 26.4952
      vertex 3.75 -20 26.4952
      vertex 3.05052 -20 26.8516
    endloop
  endfacet
  facet normal 0 -1 0
    outer loop
      vertex -4.40839 -20 26.0676
      vertex 3.75 -20 26.4952
      vertex -3.75 -20 26.4952
    endloop
  endfacet
  facet normal 0 -1 0
    outer loop
      vertex -4.40839 -20 26.0676
      vertex 4.40839 -20 26.0676
      vertex 3.75 -20 26.4952
    endloop
  endfacet
  facet normal 0 -1 0
    outer loop
      vertex -5.01848 -20 25.5736
      vertex 4.40839 -20 26.0676
      vertex -4.40839 -20 26.0676
    endloop
  endfacet
  facet normal 0 -1 0
    outer loop
      vertex -5.01848 -20 25.5736
      vertex 5.01848 -20 25.5736
      vertex 4.40839 -20 26.0676
    endloop
  endfacet
  facet normal 0 -1 0
    outer loop
      vertex -5.57359 -20 25.0185
      vertex 5.01848 -20 25.5736
      vertex -5.01848 -20 25.5736
    endloop
  endfacet
  facet normal 0 -1 0
    outer loop
      vertex -5.57359 -20 25.0185
      vertex 5.57359 -20 25.0185
      vertex 5.01848 -20 25.5736
    endloop
  endfacet
  facet normal 0 -1 0
    outer loop
      vertex -6.06763 -20 24.4084
      vertex 5.57359 -20 25.0185
      vertex -5.57359 -20 25.0185
    endloop
  endfacet
  facet normal 0 -1 0
    outer loop
      vertex -6.06763 -20 24.4084
      vertex 6.06763 -20 24.4084
      vertex 5.57359 -20 25.0185
    endloop
  endfacet
  facet normal 0 -1 0
    outer loop
      vertex -6.49519 -20 23.75
      vertex 6.06763 -20 24.4084
      vertex -6.06763 -20 24.4084
    endloop
  endfacet
  facet normal 0 -1 0
    outer loop
      vertex -6.49519 -20 23.75
      vertex 6.49519 -20 23.75
      vertex 6.06763 -20 24.4084
    endloop
  endfacet
  facet normal 0 -1 0
    outer loop
      vertex -6.85159 -20 23.0505
      vertex 6.49519 -20 23.75
      vertex -6.49519 -20 23.75
    endloop
  endfacet
  facet normal 0 -1 0
    outer loop
      vertex -6.85159 -20 23.0505
      vertex 6.85159 -20 23.0505
      vertex 6.49519 -20 23.75
    endloop
  endfacet
  facet normal 0 -1 0
    outer loop
      vertex -7.13292 -20 22.3176
      vertex 6.85159 -20 23.0505
      vertex -6.85159 -20 23.0505
    endloop
  endfacet
  facet normal 0 -1 0
    outer loop
      vertex -7.13292 -20 22.3176
      vertex 7.13292 -20 22.3176
      vertex 6.85159 -20 23.0505
    endloop
  endfacet
  facet normal 0 -1 0
    outer loop
      vertex -7.33611 -20 21.5593
      vertex 7.13292 -20 22.3176
      vertex -7.13292 -20 22.3176
    endloop
  endfacet
  facet normal 0 -1 0
    outer loop
      vertex -7.33611 -20 21.5593
      vertex 7.33611 -20 21.5593
      vertex 7.13292 -20 22.3176
    endloop
  endfacet
  facet normal 0 -1 0
    outer loop
      vertex -7.45891 -20 20.784
      vertex 7.33611 -20 21.5593
      vertex -7.33611 -20 21.5593
    endloop
  endfacet
  facet normal 0 -1 0
    outer loop
      vertex -7.45891 -20 20.784
      vertex 7.45891 -20 20.784
      vertex 7.33611 -20 21.5593
    endloop
  endfacet
  facet normal 0 -1 0
    outer loop
      vertex -7.5 -20 20
      vertex 7.45891 -20 20.784
      vertex -7.45891 -20 20.784
    endloop
  endfacet
  facet normal 0 -1 0
    outer loop
      vertex -7.5 -20 20
      vertex 7.5 -20 20
      vertex 7.45891 -20 20.784
    endloop
  endfacet
  facet normal 0 -1 0
    outer loop
      vertex -7.45891 -20 19.216
      vertex 7.5 -20 20
      vertex -7.5 -20 20
    endloop
  endfacet
  facet normal 0 -1 0
    outer loop
      vertex -7.45891 -20 19.216
      vertex 7.45891 -20 19.216
      vertex 7.5 -20 20
    endloop
  endfacet
  facet normal 0 -1 0
    outer loop
      vertex -7.33611 -20 18.4407
      vertex 7.45891 -20 19.216
      vertex -7.45891 -20 19.216
    endloop
  endfacet
  facet normal 0 -1 0
    outer loop
      vertex -7.33611 -20 18.4407
      vertex 7.33611 -20 18.4407
      vertex 7.45891 -20 19.216
    endloop
  endfacet
  facet normal 0 -1 0
    outer loop
      vertex -7.13292 -20 17.6824
      vertex 7.33611 -20 18.4407
      vertex -7.33611 -20 18.4407
    endloop
  endfacet
  facet normal 0 -1 0
    outer loop
      vertex -7.13292 -20 17.6824
      vertex 7.13292 -20 17.6824
      vertex 7.33611 -20 18.4407
    endloop
  endfacet
  facet normal 0 -1 0
    outer loop
      vertex -6.85159 -20 16.9495
      vertex 7.13292 -20 17.6824
      vertex -7.13292 -20 17.6824
    endloop
  endfacet
  facet normal 0 -1 0
    outer loop
      vertex -6.85159 -20 16.9495
      vertex 6.85159 -20 16.9495
      vertex 7.13292 -20 17.6824
    endloop
  endfacet
  facet normal 0 -1 0
    outer loop
      vertex -6.49519 -20 16.25
      vertex 6.85159 -20 16.9495
      vertex -6.85159 -20 16.9495
    endloop
  endfacet
  facet normal 0 -1 0
    outer loop
      vertex -6.49519 -20 16.25
      vertex 6.49519 -20 16.25
      vertex 6.85159 -20 16.9495
    endloop
  endfacet
  facet normal 0 -1 0
    outer loop
      vertex -6.06763 -20 15.5916
      vertex 6.49519 -20 16.25
      vertex -6.49519 -20 16.25
    endloop
  endfacet
  facet normal 0 -1 0
    outer loop
      vertex -6.06763 -20 15.5916
      vertex 6.06763 -20 15.5916
      vertex 6.49519 -20 16.25
    endloop
  endfacet
  facet normal 0 -1 0
    outer loop
      vertex -5.57359 -20 14.9815
      vertex 6.06763 -20 15.5916
      vertex -6.06763 -20 15.5916
    endloop
  endfacet
  facet normal 0 -1 0
    outer loop
      vertex -5.57359 -20 14.9815
      vertex 5.57359 -20 14.9815
      vertex 6.06763 -20 15.5916
    endloop
  endfacet
  facet normal 0 -1 0
    outer loop
      vertex -5.01848 -20 14.4264
      vertex 5.57359 -20 14.9815
      vertex -5.57359 -20 14.9815
    endloop
  endfacet
  facet normal 0 -1 0
    outer loop
      vertex -5.01848 -20 14.4264
      vertex 5.01848 -20 14.4264
      vertex 5.57359 -20 14.9815
    endloop
  endfacet
  facet normal 0 -1 0
    outer loop
      vertex -4.40839 -20 13.9324
      vertex 5.01848 -20 14.4264
      vertex -5.01848 -20 14.4264
    endloop
  endfacet
  facet normal 0 -1 0
    outer loop
      vertex -4.40839 -20 13.9324
      vertex 4.40839 -20 13.9324
      vertex 5.01848 -20 14.4264
    endloop
  endfacet
  facet normal 0 -1 0
    outer loop
      vertex -3.75 -20 13.5048
      vertex 4.40839 -20 13.9324
      vertex -4.40839 -20 13.9324
    endloop
  endfacet
  facet normal 0 -1 0
    outer loop
      vertex -3.75 -20 13.5048
      vertex 3.75 -20 13.5048
      vertex 4.40839 -20 13.9324
    endloop
  endfacet
  facet normal 0 -1 0
    outer loop
      vertex -3.05052 -20 13.1484
      vertex 3.75 -20 13.5048
      vertex -3.75 -20 13.5048
    endloop
  endfacet
  facet normal 0 -1 0
    outer loop
      vertex -3.05052 -20 13.1484
      vertex 3.05052 -20 13.1484
      vertex 3.75 -20 13.5048
    endloop
  endfacet
  facet normal 0 -1 0
    outer loop
      vertex -2.31763 -20 12.8671
      vertex 3.05052 -20 13.1484
      vertex -3.05052 -20 13.1484
    endloop
  endfacet
  facet normal 0 -1 0
    outer loop
      vertex -2.31763 -20 12.8671
      vertex 2.31763 -20 12.8671
      vertex 3.05052 -20 13.1484
    endloop
  endfacet
  facet normal 0 -1 0
    outer loop
      vertex -1.55934 -20 12.6639
      vertex 2.31763 -20 12.8671
      vertex -2.31763 -20 12.8671
    endloop
  endfacet
  facet normal 0 -1 0
    outer loop
      vertex -1.55934 -20 12.6639
      vertex 1.55934 -20 12.6639
      vertex 2.31763 -20 12.8671
    endloop
  endfacet
  facet normal 0 -1 0
    outer loop
      vertex -0.783964 -20 12.5411
      vertex 1.55934 -20 12.6639
      vertex -1.55934 -20 12.6639
    endloop
  endfacet
  facet normal 0 -1 0
    outer loop
      vertex -0.783964 -20 12.5411
      vertex 0.783964 -20 12.5411
      vertex 1.55934 -20 12.6639
    endloop
  endfacet
  facet normal -0 -1 0
    outer loop
      vertex 0.783964 -20 12.5411
      vertex -0.783964 -20 12.5411
      vertex -1.37768e-15 -20 12.5
    endloop
  endfacet
endsolid OpenSCAD_Model
