solid OpenSCAD_Model
  facet normal 0.866025 0.500001 0
    outer loop
      vertex 5 8.66025 10
      vertex 7.5 4.33013 0.2
      vertex 5 8.66025 0
    endloop
  endfacet
  facet normal 0.866025 0.5 2.55102e-007
    outer loop
      vertex 10 0 10
      vertex 7.5 4.33013 0.2
      vertex 5 8.66025 10
    endloop
  endfacet
  facet normal 0.866026 0.5 0
    outer loop
      vertex 7.5 4.33013 0.2
      vertex 10 0 10
      vertex 10 0 0.2
    endloop
  endfacet
  facet normal 0.866025 0.500001 0
    outer loop
      vertex 5 8.66025 0
      vertex 7.5 4.33013 0.2
      vertex 7.5 4.33013 0
    endloop
  endfacet
  facet normal -0.866025 0.500001 0
    outer loop
      vertex -7.5 4.33013 0.2
      vertex -5 8.66025 0
      vertex -7.5 4.33013 0
    endloop
  endfacet
  facet normal -0.866025 0.500001 0
    outer loop
      vertex -5 8.66025 0
      vertex -7.5 4.33013 0.2
      vertex -5 8.66025 10
    endloop
  endfacet
  facet normal -0.866026 0.5 0
    outer loop
      vertex -10 0 10
      vertex -7.5 4.33013 0.2
      vertex -10 0 0.2
    endloop
  endfacet
  facet normal -0.866025 0.5 2.55102e-007
    outer loop
      vertex -7.5 4.33013 0.2
      vertex -10 0 10
      vertex -5 8.66025 10
    endloop
  endfacet
  facet normal 0 1 -0
    outer loop
      vertex 5 8.66025 0
      vertex -5 8.66025 10
      vertex 5 8.66025 10
    endloop
  endfacet
  facet normal 0 1 0
    outer loop
      vertex -5 8.66025 10
      vertex 5 8.66025 0
      vertex -5 8.66025 0
    endloop
  endfacet
  facet normal 0 0 1
    outer loop
      vertex 5 8.66025 10
      vertex 2.5 4.33013 10
      vertex 5 0 10
    endloop
  endfacet
  facet normal 0 0 1
    outer loop
      vertex 5 8.66025 10
      vertex -2.5 4.33013 10
      vertex 2.5 4.33013 10
    endloop
  endfacet
  facet normal -0 0 1
    outer loop
      vertex -5 8.66025 10
      vertex -2.5 4.33013 10
      vertex 5 8.66025 10
    endloop
  endfacet
  facet normal 0 0 1
    outer loop
      vertex -5 8.66025 10
      vertex -5 0 10
      vertex -2.5 4.33013 10
    endloop
  endfacet
  facet normal 0 0 1
    outer loop
      vertex -5 0 10
      vertex -10 0 10
      vertex -5 -8.66025 10
    endloop
  endfacet
  facet normal 0 0 1
    outer loop
      vertex -10 0 10
      vertex -5 0 10
      vertex -5 8.66025 10
    endloop
  endfacet
  facet normal 0 0 1
    outer loop
      vertex 5 0 10
      vertex 10 0 10
      vertex 5 8.66025 10
    endloop
  endfacet
  facet normal -0 0 1
    outer loop
      vertex 5 0 10
      vertex 5 -8.66025 10
      vertex 10 0 10
    endloop
  endfacet
  facet normal -0 0 1
    outer loop
      vertex 2.5 -4.33013 10
      vertex 5 -8.66025 10
      vertex 5 0 10
    endloop
  endfacet
  facet normal -0 0 1
    outer loop
      vertex -2.5 -4.33013 10
      vertex 5 -8.66025 10
      vertex 2.5 -4.33013 10
    endloop
  endfacet
  facet normal 0 0 1
    outer loop
      vertex -2.5 -4.33013 10
      vertex -5 -8.66025 10
      vertex 5 -8.66025 10
    endloop
  endfacet
  facet normal 0 0 1
    outer loop
      vertex -5 -8.66025 10
      vertex -2.5 -4.33013 10
      vertex -5 0 10
    endloop
  endfacet
  facet normal 0 0 -1
    outer loop
      vertex -5 -8.66025 0
      vertex -7.5 -4.33013 0
      vertex -5 0 0
    endloop
  endfacet
  facet normal 0 0 -1
    outer loop
      vertex 5 -8.66025 0
      vertex 5 0 0
      vertex 7.5 -4.33013 0
    endloop
  endfacet
  facet normal 0 0 -1
    outer loop
      vertex -5 0 0
      vertex 5 0 0
      vertex 5 -8.66025 0
    endloop
  endfacet
  facet normal 0 0 -1
    outer loop
      vertex 5 0 0
      vertex -5 0 0
      vertex 5 8.66025 0
    endloop
  endfacet
  facet normal 0 0 -1
    outer loop
      vertex -5 0 0
      vertex 5 -8.66025 0
      vertex -5 -8.66025 0
    endloop
  endfacet
  facet normal -0 0 -1
    outer loop
      vertex 5 8.66025 0
      vertex -5 0 0
      vertex -5 8.66025 0
    endloop
  endfacet
  facet normal 0 -0 -1
    outer loop
      vertex -5 8.66025 0
      vertex -5 0 0
      vertex -7.5 4.33013 0
    endloop
  endfacet
  facet normal -0 0 -1
    outer loop
      vertex 7.5 4.33013 0
      vertex 5 0 0
      vertex 5 8.66025 0
    endloop
  endfacet
  facet normal 0 -1 0
    outer loop
      vertex -5 -8.66025 0
      vertex 5 -8.66025 10
      vertex -5 -8.66025 10
    endloop
  endfacet
  facet normal 0 -1 -0
    outer loop
      vertex 5 -8.66025 10
      vertex -5 -8.66025 0
      vertex 5 -8.66025 0
    endloop
  endfacet
  facet normal -0.866025 -0.500001 0
    outer loop
      vertex -7.5 -4.33013 0
      vertex -5 -8.66025 0
      vertex -7.5 -4.33013 0.2
    endloop
  endfacet
  facet normal -0.866026 -0.5 0
    outer loop
      vertex -7.5 -4.33013 0.2
      vertex -10 0 10
      vertex -10 0 0.2
    endloop
  endfacet
  facet normal -0.866025 -0.500001 -0
    outer loop
      vertex -5 -8.66025 10
      vertex -7.5 -4.33013 0.2
      vertex -5 -8.66025 0
    endloop
  endfacet
  facet normal -0.866025 -0.5 2.55102e-007
    outer loop
      vertex -7.5 -4.33013 0.2
      vertex -5 -8.66025 10
      vertex -10 0 10
    endloop
  endfacet
  facet normal 0.866026 -0.5 0
    outer loop
      vertex 10 0 10
      vertex 7.5 -4.33013 0.2
      vertex 10 0 0.2
    endloop
  endfacet
  facet normal 0.866025 -0.5 2.55102e-007
    outer loop
      vertex 5 -8.66025 10
      vertex 7.5 -4.33013 0.2
      vertex 10 0 10
    endloop
  endfacet
  facet normal 0.866025 -0.500001 0
    outer loop
      vertex 5 -8.66025 0
      vertex 7.5 -4.33013 0.2
      vertex 5 -8.66025 10
    endloop
  endfacet
  facet normal 0.866025 -0.500001 0
    outer loop
      vertex 7.5 -4.33013 0.2
      vertex 5 -8.66025 0
      vertex 7.5 -4.33013 0
    endloop
  endfacet
  facet normal 0.866026 0.5 0
    outer loop
      vertex 7.5 -4.33013 0.2
      vertex 5 0 0
      vertex 5 0 0.2
    endloop
  endfacet
  facet normal 0.866026 0.5 0
    outer loop
      vertex 5 0 0
      vertex 7.5 -4.33013 0.2
      vertex 7.5 -4.33013 0
    endloop
  endfacet
  facet normal 0 0 -1
    outer loop
      vertex 5 0 0.2
      vertex 10 0 0.2
      vertex 7.5 -4.33013 0.2
    endloop
  endfacet
  facet normal 0 0 -1
    outer loop
      vertex 10 0 0.2
      vertex 5 0 0.2
      vertex 7.5 4.33013 0.2
    endloop
  endfacet
  facet normal 0.866026 -0.5 0
    outer loop
      vertex 5 0 0.2
      vertex 7.5 4.33013 0
      vertex 7.5 4.33013 0.2
    endloop
  endfacet
  facet normal 0.866026 -0.5 0
    outer loop
      vertex 7.5 4.33013 0
      vertex 5 0 0.2
      vertex 5 0 0
    endloop
  endfacet
  facet normal -0.866026 -0.5 0
    outer loop
      vertex -5 0 0
      vertex -7.5 4.33013 0.2
      vertex -7.5 4.33013 0
    endloop
  endfacet
  facet normal -0.866026 -0.5 0
    outer loop
      vertex -7.5 4.33013 0.2
      vertex -5 0 0
      vertex -5 0 0.2
    endloop
  endfacet
  facet normal 0 0 -1
    outer loop
      vertex -10 0 0.2
      vertex -5 0 0.2
      vertex -7.5 -4.33013 0.2
    endloop
  endfacet
  facet normal 0 0 -1
    outer loop
      vertex -5 0 0.2
      vertex -10 0 0.2
      vertex -7.5 4.33013 0.2
    endloop
  endfacet
  facet normal -0.866026 0.5 0
    outer loop
      vertex -7.5 -4.33013 0
      vertex -5 0 0.2
      vertex -5 0 0
    endloop
  endfacet
  facet normal -0.866026 0.5 0
    outer loop
      vertex -5 0 0.2
      vertex -7.5 -4.33013 0
      vertex -7.5 -4.33013 0.2
    endloop
  endfacet
  facet normal -0.866026 -0.5 0
    outer loop
      vertex 5 0 5
      vertex 2.5 4.33013 10
      vertex 2.5 4.33013 5
    endloop
  endfacet
  facet normal -0.866026 -0.5 0
    outer loop
      vertex 2.5 4.33013 10
      vertex 5 0 5
      vertex 5 0 10
    endloop
  endfacet
  facet normal 0.866026 -0.5 0
    outer loop
      vertex -5 0 10
      vertex -2.5 4.33013 5
      vertex -2.5 4.33013 10
    endloop
  endfacet
  facet normal 0.866026 -0.5 0
    outer loop
      vertex -2.5 4.33013 5
      vertex -5 0 10
      vertex -5 0 5
    endloop
  endfacet
  facet normal 0 -1 0
    outer loop
      vertex -2.5 4.33013 5
      vertex 2.5 4.33013 10
      vertex -2.5 4.33013 10
    endloop
  endfacet
  facet normal 0 -1 -0
    outer loop
      vertex 2.5 4.33013 10
      vertex -2.5 4.33013 5
      vertex 2.5 4.33013 5
    endloop
  endfacet
  facet normal 0.866026 0.5 0
    outer loop
      vertex -2.5 -4.33013 10
      vertex -5 0 5
      vertex -5 0 10
    endloop
  endfacet
  facet normal 0.866026 0.5 0
    outer loop
      vertex -5 0 5
      vertex -2.5 -4.33013 10
      vertex -2.5 -4.33013 5
    endloop
  endfacet
  facet normal 0 0 1
    outer loop
      vertex 2.5 4.33013 5
      vertex 2.5 -4.33013 5
      vertex 5 0 5
    endloop
  endfacet
  facet normal -0 0 1
    outer loop
      vertex -2.5 4.33013 5
      vertex 2.5 -4.33013 5
      vertex 2.5 4.33013 5
    endloop
  endfacet
  facet normal 0 0 1
    outer loop
      vertex -2.5 4.33013 5
      vertex -2.5 -4.33013 5
      vertex 2.5 -4.33013 5
    endloop
  endfacet
  facet normal 0 -0 1
    outer loop
      vertex -2.5 -4.33013 5
      vertex -2.5 4.33013 5
      vertex -5 0 5
    endloop
  endfacet
  facet normal 0 1 -0
    outer loop
      vertex 2.5 -4.33013 5
      vertex -2.5 -4.33013 10
      vertex 2.5 -4.33013 10
    endloop
  endfacet
  facet normal 0 1 0
    outer loop
      vertex -2.5 -4.33013 10
      vertex 2.5 -4.33013 5
      vertex -2.5 -4.33013 5
    endloop
  endfacet
  facet normal -0.866026 0.5 0
    outer loop
      vertex 2.5 -4.33013 5
      vertex 5 0 10
      vertex 5 0 5
    endloop
  endfacet
  facet normal -0.866026 0.5 0
    outer loop
      vertex 5 0 10
      vertex 2.5 -4.33013 5
      vertex 2.5 -4.33013 10
    endloop
  endfacet
endsolid OpenSCAD_Model
