solid OpenSCAD_Model
  facet normal 0 0 -1
    outer loop
      vertex 12.5 -2.5 3
      vertex 7.5 -2.5 3
      vertex 7.5 2.5 3
    endloop
  endfacet
  facet normal 0 0 -1
    outer loop
      vertex 12.5 -2.5 3
      vertex 7.5 2.5 3
      vertex 12.5 2.5 3
    endloop
  endfacet
  facet normal 0 0 1
    outer loop
      vertex 5.43541 -5.74076 23
      vertex 0.903867 -7.85385 23
      vertex 3.01696 -12.3854 23
    endloop
  endfacet
  facet normal 0 0 1
    outer loop
      vertex 7.5485 -10.2723 23
      vertex 5.43541 -5.74076 23
      vertex 3.01696 -12.3854 23
    endloop
  endfacet
  facet normal -0 -0.926623 -0.375991
    outer loop
      vertex 12.5 -2.5 3
      vertex 6.7454 -4.12306 7
      vertex 7.5 -2.5 3
    endloop
  endfacet
  facet normal -0.182644 -0.791112 -0.583766
    outer loop
      vertex 12.5 -2.5 3
      vertex 11.6172 -5.24781 7
      vertex 6.7454 -4.12306 7
    endloop
  endfacet
  facet normal 0.976501 0 0.215514
    outer loop
      vertex 12.5 2.5 3
      vertex 11.6172 -5.24781 7
      vertex 12.5 -2.5 3
    endloop
  endfacet
  facet normal 0.951473 -0.219674 -0.215507
    outer loop
      vertex 12.5 2.5 3
      vertex 12.742 -0.375963 7
      vertex 11.6172 -5.24781 7
    endloop
  endfacet
  facet normal -0 0.811923 0.583765
    outer loop
      vertex 7.5 2.5 3
      vertex 12.742 -0.375963 7
      vertex 12.5 2.5 3
    endloop
  endfacet
  facet normal 0.208445 0.902874 0.375991
    outer loop
      vertex 7.5 2.5 3
      vertex 7.87015 0.748792 7
      vertex 12.742 -0.375963 7
    endloop
  endfacet
  facet normal -0.995746 0 0.0921438
    outer loop
      vertex 7.5 -2.5 3
      vertex 7.87015 0.748792 7
      vertex 7.5 2.5 3
    endloop
  endfacet
  facet normal -0.970225 0.223993 -0.0921444
    outer loop
      vertex 7.5 -2.5 3
      vertex 6.7454 -4.12306 7
      vertex 7.87015 0.748792 7
    endloop
  endfacet
  facet normal -0.208446 -0.902874 -0.375991
    outer loop
      vertex 11.6172 -5.24781 7
      vertex 5.64503 -5.53477 11
      vertex 6.7454 -4.12306 7
    endloop
  endfacet
  facet normal -0.355924 -0.729754 -0.583762
    outer loop
      vertex 11.6172 -5.24781 7
      vertex 10.139 -7.72662 11
      vertex 5.64503 -5.53477 11
    endloop
  endfacet
  facet normal 0.951477 -0.219675 0.215485
    outer loop
      vertex 12.742 -0.375963 7
      vertex 10.139 -7.72662 11
      vertex 11.6172 -5.24781 7
    endloop
  endfacet
  facet normal 0.877669 -0.428076 -0.215518
    outer loop
      vertex 12.742 -0.375963 7
      vertex 12.3309 -3.23265 11
      vertex 10.139 -7.72662 11
    endloop
  endfacet
  facet normal 0.182643 0.791115 0.583763
    outer loop
      vertex 7.87015 0.748792 7
      vertex 12.3309 -3.23265 11
      vertex 12.742 -0.375963 7
    endloop
  endfacet
  facet normal 0.4062 0.832845 0.375992
    outer loop
      vertex 7.87015 0.748792 7
      vertex 7.83688 -1.0408 11
      vertex 12.3309 -3.23265 11
    endloop
  endfacet
  facet normal -0.970225 0.223993 0.0921442
    outer loop
      vertex 6.7454 -4.12306 7
      vertex 7.83688 -1.0408 11
      vertex 7.87015 0.748792 7
    endloop
  endfacet
  facet normal -0.894971 0.436505 -0.092145
    outer loop
      vertex 6.7454 -4.12306 7
      vertex 5.64503 -5.53477 11
      vertex 7.83688 -1.0408 11
    endloop
  endfacet
  facet normal -0.406204 -0.832844 -0.375991
    outer loop
      vertex 10.139 -7.72662 11
      vertex 4.25529 -6.66277 15
      vertex 5.64503 -5.53477 11
    endloop
  endfacet
  facet normal -0.510959 -0.630982 -0.583766
    outer loop
      vertex 10.139 -7.72662 11
      vertex 8.14102 -9.80937 15
      vertex 4.25529 -6.66277 15
    endloop
  endfacet
  facet normal 0.877673 -0.428078 0.215498
    outer loop
      vertex 12.3309 -3.23265 11
      vertex 8.14102 -9.80937 15
      vertex 10.139 -7.72662 11
    endloop
  endfacet
  facet normal 0.75889 -0.614533 -0.215488
    outer loop
      vertex 12.3309 -3.23265 11
      vertex 11.2876 -5.92364 15
      vertex 8.14102 -9.80937 15
    endloop
  endfacet
  facet normal 0.355918 0.72975 0.58377
    outer loop
      vertex 7.83688 -1.0408 11
      vertex 11.2876 -5.92364 15
      vertex 12.3309 -3.23265 11
    endloop
  endfacet
  facet normal 0.583146 0.72012 0.375989
    outer loop
      vertex 7.83688 -1.0408 11
      vertex 7.4019 -2.77704 15
      vertex 11.2876 -5.92364 15
    endloop
  endfacet
  facet normal -0.894971 0.436505 0.0921459
    outer loop
      vertex 5.64503 -5.53477 11
      vertex 7.4019 -2.77704 15
      vertex 7.83688 -1.0408 11
    endloop
  endfacet
  facet normal -0.773839 0.626644 -0.0921451
    outer loop
      vertex 5.64503 -5.53477 11
      vertex 4.25529 -6.66277 15
      vertex 7.4019 -2.77704 15
    endloop
  endfacet
  facet normal -0.583143 -0.720122 -0.37599
    outer loop
      vertex 8.14102 -9.80937 15
      vertex 2.64743 -7.44923 19
      vertex 4.25529 -6.66277 15
    endloop
  endfacet
  facet normal -0.639804 -0.499868 -0.583766
    outer loop
      vertex 8.14102 -9.80937 15
      vertex 5.72574 -11.3893 19
      vertex 2.64743 -7.44923 19
    endloop
  endfacet
  facet normal 0.758888 -0.614531 0.215503
    outer loop
      vertex 11.2876 -5.92364 15
      vertex 5.72574 -11.3893 19
      vertex 8.14102 -9.80937 15
    endloop
  endfacet
  facet normal 0.601196 -0.769494 -0.215506
    outer loop
      vertex 11.2876 -5.92364 15
      vertex 9.6658 -8.31098 19
      vertex 5.72574 -11.3893 19
    endloop
  endfacet
  facet normal 0.510963 0.630982 0.583762
    outer loop
      vertex 7.4019 -2.77704 15
      vertex 9.6658 -8.31098 19
      vertex 11.2876 -5.92364 15
    endloop
  endfacet
  facet normal 0.730188 0.570487 0.375991
    outer loop
      vertex 7.4019 -2.77704 15
      vertex 6.58749 -4.37093 19
      vertex 9.6658 -8.31098 19
    endloop
  endfacet
  facet normal -0.773839 0.626644 0.0921449
    outer loop
      vertex 4.25529 -6.66277 15
      vertex 6.58749 -4.37093 19
      vertex 7.4019 -2.77704 15
    endloop
  endfacet
  facet normal -0.613041 0.784659 -0.0921451
    outer loop
      vertex 4.25529 -6.66277 15
      vertex 2.64743 -7.44923 19
      vertex 6.58749 -4.37093 19
    endloop
  endfacet
  facet normal -0.73019 -0.570485 -0.375991
    outer loop
      vertex 5.72574 -11.3893 19
      vertex 0.903867 -7.85385 23
      vertex 2.64743 -7.44923 19
    endloop
  endfacet
  facet normal -0.735852 -0.343133 -0.583764
    outer loop
      vertex 5.72574 -11.3893 19
      vertex 3.01696 -12.3854 23
      vertex 0.903867 -7.85385 23
    endloop
  endfacet
  facet normal 0.601196 -0.769494 0.215504
    outer loop
      vertex 9.6658 -8.31098 19
      vertex 3.01696 -12.3854 23
      vertex 5.72574 -11.3893 19
    endloop
  endfacet
  facet normal 0.41269 -0.885012 -0.215501
    outer loop
      vertex 9.6658 -8.31098 19
      vertex 7.5485 -10.2723 23
      vertex 3.01696 -12.3854 23
    endloop
  endfacet
  facet normal 0.639803 0.49987 0.583765
    outer loop
      vertex 6.58749 -4.37093 19
      vertex 7.5485 -10.2723 23
      vertex 9.6658 -8.31098 19
    endloop
  endfacet
  facet normal 0.839806 0.391608 0.37599
    outer loop
      vertex 6.58749 -4.37093 19
      vertex 5.43541 -5.74076 23
      vertex 7.5485 -10.2723 23
    endloop
  endfacet
  facet normal -0.613041 0.784659 0.0921445
    outer loop
      vertex 2.64743 -7.44923 19
      vertex 5.43541 -5.74076 23
      vertex 6.58749 -4.37093 19
    endloop
  endfacet
  facet normal -0.42082 0.902452 -0.0921439
    outer loop
      vertex 2.64743 -7.44923 19
      vertex 0.903867 -7.85385 23
      vertex 5.43541 -5.74076 23
    endloop
  endfacet
endsolid OpenSCAD_Model
