solid OpenSCAD_Model
  facet normal -0.707107 1.29889e-016 -0.707107
    outer loop
      vertex -9.18455e-016 -5 7.07107
      vertex -5 -5 12.0711
      vertex 0 0 7.07107
    endloop
  endfacet
  facet normal 0.707107 -1.29889e-016 0.707107
    outer loop
      vertex 9.18455e-016 5 -7.07107
      vertex 0 0 -7.07107
      vertex 5 5 -12.0711
    endloop
  endfacet
  facet normal 0 -1 0
    outer loop
      vertex 9.18455e-016 5 -7.07107
      vertex 5 5 -12.0711
      vertex 1.22461e-015 5 -7.07107
    endloop
  endfacet
  facet normal 0 -1 0
    outer loop
      vertex -5 5 -2.07107
      vertex 1.72253e-015 5 2.07107
      vertex -5 5 2.07107
    endloop
  endfacet
  facet normal 0 -1 0
    outer loop
      vertex -5 5 -2.07107
      vertex 1.72253e-015 5 -2.07107
      vertex 1.72253e-015 5 2.07107
    endloop
  endfacet
  facet normal 0 -1 0
    outer loop
      vertex 1.22461e-015 5 -7.07107
      vertex 1.72253e-015 5 -2.07107
      vertex -5 5 -2.07107
    endloop
  endfacet
  facet normal 0 -1 -0
    outer loop
      vertex 1.72253e-015 5 -2.07107
      vertex 1.22461e-015 5 -7.07107
      vertex 5 5 -2.07107
    endloop
  endfacet
  facet normal 0 -1 -0
    outer loop
      vertex 5 5 -2.07107
      vertex 1.22461e-015 5 -7.07107
      vertex 5 5 -12.0711
    endloop
  endfacet
  facet normal 0 1 -0
    outer loop
      vertex -1.22461e-015 -5 7.07107
      vertex -5 -5 12.0711
      vertex -9.18455e-016 -5 7.07107
    endloop
  endfacet
  facet normal 0 1 0
    outer loop
      vertex -5 -5 12.0711
      vertex -1.22461e-015 -5 7.07107
      vertex -5 -5 2.07107
    endloop
  endfacet
  facet normal 0 0.707107 0.707107
    outer loop
      vertex 5 7.07107 0
      vertex 5 21.0711 -14
      vertex 2.43602e-015 7.07107 0
    endloop
  endfacet
  facet normal 0 0.707107 0.707107
    outer loop
      vertex 2.43602e-015 7.07107 0
      vertex -5 5 2.07107
      vertex 1.72253e-015 5 2.07107
    endloop
  endfacet
  facet normal -0 0.707107 0.707107
    outer loop
      vertex -5 21.0711 -14
      vertex 2.43602e-015 7.07107 0
      vertex 5 21.0711 -14
    endloop
  endfacet
  facet normal 0 0.707107 0.707107
    outer loop
      vertex 2.43602e-015 7.07107 0
      vertex -5 21.0711 -14
      vertex -5 5 2.07107
    endloop
  endfacet
  facet normal 0 0.707107 0.707107
    outer loop
      vertex 5 -5 12.0711
      vertex -5 -6.92893 14
      vertex 5 -6.92893 14
    endloop
  endfacet
  facet normal 0 0.707107 0.707107
    outer loop
      vertex 5 -5 12.0711
      vertex -5 -5 12.0711
      vertex -5 -6.92893 14
    endloop
  endfacet
  facet normal -0 0.707107 0.707107
    outer loop
      vertex -5 -5 12.0711
      vertex 5 -5 12.0711
      vertex 0 0 7.07107
    endloop
  endfacet
  facet normal 0 -0.707107 -0.707107
    outer loop
      vertex -5 5 -12.0711
      vertex 5 5 -12.0711
      vertex 0 0 -7.07107
    endloop
  endfacet
  facet normal 0 -0.707107 -0.707107
    outer loop
      vertex -5 6.92893 -14
      vertex 5 5 -12.0711
      vertex -5 5 -12.0711
    endloop
  endfacet
  facet normal 0 -0.707107 -0.707107
    outer loop
      vertex 5 5 -12.0711
      vertex -5 6.92893 -14
      vertex 5 6.92893 -14
    endloop
  endfacet
  facet normal 0 -0.707107 -0.707107
    outer loop
      vertex -5 -21.0711 14
      vertex -2.43602e-015 -7.07107 0
      vertex 5 -21.0711 14
    endloop
  endfacet
  facet normal 0 -0.707107 -0.707107
    outer loop
      vertex -5 -5 -2.07107
      vertex -2.43602e-015 -7.07107 0
      vertex -5 -21.0711 14
    endloop
  endfacet
  facet normal 0 -0.707107 -0.707107
    outer loop
      vertex -2.43602e-015 -7.07107 0
      vertex -5 -5 -2.07107
      vertex -1.72253e-015 -5 -2.07107
    endloop
  endfacet
  facet normal 0 -0.707107 -0.707107
    outer loop
      vertex 5 -21.0711 14
      vertex -2.43602e-015 -7.07107 0
      vertex 5 -7.07107 0
    endloop
  endfacet
  facet normal -1 0 0
    outer loop
      vertex -5 5 -2.07107
      vertex -5 6.92893 -14
      vertex -5 5 -12.0711
    endloop
  endfacet
  facet normal -1 0 0
    outer loop
      vertex -5 6.92893 -14
      vertex -5 5 -2.07107
      vertex -5 21.0711 -14
    endloop
  endfacet
  facet normal -1 0 0
    outer loop
      vertex -5 21.0711 -14
      vertex -5 5 -2.07107
      vertex -5 5 2.07107
    endloop
  endfacet
  facet normal -1 0 0
    outer loop
      vertex -5 -21.0711 14
      vertex -5 -5 2.07107
      vertex -5 -5 -2.07107
    endloop
  endfacet
  facet normal -1 0 0
    outer loop
      vertex -5 -5 2.07107
      vertex -5 -6.92893 14
      vertex -5 -5 12.0711
    endloop
  endfacet
  facet normal -1 0 0
    outer loop
      vertex -5 -5 2.07107
      vertex -5 -21.0711 14
      vertex -5 -6.92893 14
    endloop
  endfacet
  facet normal 1 0 0
    outer loop
      vertex 5 -6.92893 14
      vertex 5 -5 2.07107
      vertex 5 -5 12.0711
    endloop
  endfacet
  facet normal 1 0 0
    outer loop
      vertex 5 -6.92893 14
      vertex 5 -7.07107 0
      vertex 5 -5 2.07107
    endloop
  endfacet
  facet normal 1 0 -0
    outer loop
      vertex 5 -7.07107 0
      vertex 5 -6.92893 14
      vertex 5 -21.0711 14
    endloop
  endfacet
  facet normal 1 0 0
    outer loop
      vertex 5 7.07107 0
      vertex 5 6.92893 -14
      vertex 5 21.0711 -14
    endloop
  endfacet
  facet normal 1 -0 0
    outer loop
      vertex 5 5 -2.07107
      vertex 5 6.92893 -14
      vertex 5 7.07107 0
    endloop
  endfacet
  facet normal 1 0 0
    outer loop
      vertex 5 6.92893 -14
      vertex 5 5 -2.07107
      vertex 5 5 -12.0711
    endloop
  endfacet
  facet normal -0 0 1
    outer loop
      vertex -5 -6.92893 14
      vertex 5 -21.0711 14
      vertex 5 -6.92893 14
    endloop
  endfacet
  facet normal 0 0 1
    outer loop
      vertex 5 -21.0711 14
      vertex -5 -6.92893 14
      vertex -5 -21.0711 14
    endloop
  endfacet
  facet normal 0 0 -1
    outer loop
      vertex -5 6.92893 -14
      vertex 5 21.0711 -14
      vertex 5 6.92893 -14
    endloop
  endfacet
  facet normal -0 0 -1
    outer loop
      vertex 5 21.0711 -14
      vertex -5 6.92893 -14
      vertex -5 21.0711 -14
    endloop
  endfacet
  facet normal 0 -0.707107 0.707107
    outer loop
      vertex 1.72253e-015 5 -2.07107
      vertex 5 7.07107 0
      vertex 2.43602e-015 7.07107 0
    endloop
  endfacet
  facet normal 0 -0.707107 0.707107
    outer loop
      vertex 5 7.07107 0
      vertex 1.72253e-015 5 -2.07107
      vertex 5 5 -2.07107
    endloop
  endfacet
  facet normal 0 0.707107 -0.707107
    outer loop
      vertex 5 -7.07107 0
      vertex -1.72253e-015 -5 2.07107
      vertex 5 -5 2.07107
    endloop
  endfacet
  facet normal 0 0.707107 -0.707107
    outer loop
      vertex -1.72253e-015 -5 2.07107
      vertex 5 -7.07107 0
      vertex -2.43602e-015 -7.07107 0
    endloop
  endfacet
  facet normal 1 -3.44505e-016 0
    outer loop
      vertex 1.72253e-015 5 2.07107
      vertex 1.72253e-015 5 -2.07107
      vertex 2.43602e-015 7.07107 0
    endloop
  endfacet
  facet normal 1 -3.44505e-016 0
    outer loop
      vertex -1.72253e-015 -5 2.07107
      vertex -2.43602e-015 -7.07107 0
      vertex -1.72253e-015 -5 -2.07107
    endloop
  endfacet
  facet normal 0.707107 -1.29889e-016 -0.707107
    outer loop
      vertex 0 0 7.07107
      vertex 5 -5 12.0711
      vertex -9.18455e-016 -5 7.07107
    endloop
  endfacet
  facet normal 0 0 0
    outer loop
      vertex 5 -5 12.0711
      vertex -1.22461e-015 -5 7.07107
      vertex -9.18455e-016 -5 7.07107
    endloop
  endfacet
  facet normal -0.707107 1.00486e-016 0.707107
    outer loop
      vertex -5 5 -12.0711
      vertex 0 0 -7.07107
      vertex 9.18455e-016 5 -7.07107
    endloop
  endfacet
  facet normal -0 1 0
    outer loop
      vertex 9.18455e-016 5 -7.07107
      vertex 1.22461e-015 5 -7.07107
      vertex -5 5 -12.0711
    endloop
  endfacet
  facet normal 0 1 -0
    outer loop
      vertex 5 -5 2.07107
      vertex -1.22461e-015 -5 7.07107
      vertex 5 -5 12.0711
    endloop
  endfacet
  facet normal 0 1 0
    outer loop
      vertex -1.72253e-015 -5 2.07107
      vertex -1.22461e-015 -5 7.07107
      vertex 5 -5 2.07107
    endloop
  endfacet
  facet normal 0 1 -0
    outer loop
      vertex -1.72253e-015 -5 2.07107
      vertex -5 -5 2.07107
      vertex -1.22461e-015 -5 7.07107
    endloop
  endfacet
  facet normal 0 1 -0
    outer loop
      vertex -1.72253e-015 -5 -2.07107
      vertex -5 -5 2.07107
      vertex -1.72253e-015 -5 2.07107
    endloop
  endfacet
  facet normal 0 1 0
    outer loop
      vertex -5 -5 2.07107
      vertex -1.72253e-015 -5 -2.07107
      vertex -5 -5 -2.07107
    endloop
  endfacet
  facet normal 0 -1 0
    outer loop
      vertex -5 5 -2.07107
      vertex -5 5 -12.0711
      vertex 1.22461e-015 5 -7.07107
    endloop
  endfacet
endsolid OpenSCAD_Model
