solid OpenSCAD_Model
  facet normal 0 -1 0
    outer loop
      vertex -6.010049819946289 -19.97808837890625 0
      vertex 7 -19.97808837890625 0.9899492263793945
      vertex -7 -19.97808837890625 0.9899492263793945
    endloop
  endfacet
  facet normal 0 -1 0
    outer loop
      vertex 7 -19.97808837890625 0.9899492263793945
      vertex -6.010049819946289 -19.97808837890625 0
      vertex 6.010049819946289 -19.97808837890625 0
    endloop
  endfacet
  facet normal 0 -1 0
    outer loop
      vertex -17.418113708496094 -19.97808837890625 4
      vertex -7 -19.97808837890625 0.9899492263793945
      vertex 17.418113708496094 -19.97808837890625 4
    endloop
  endfacet
  facet normal 0 -1 0
    outer loop
      vertex -7.9899492263793945 -19.97808837890625 0
      vertex -17.418113708496094 -19.97808837890625 4
      vertex -17.418113708496094 -19.97808837890625 0
    endloop
  endfacet
  facet normal 0 -1 0
    outer loop
      vertex -17.418113708496094 -19.97808837890625 4
      vertex -7.9899492263793945 -19.97808837890625 0
      vertex -7 -19.97808837890625 0.9899492263793945
    endloop
  endfacet
  facet normal 0 -1 0
    outer loop
      vertex 7 -19.97808837890625 0.9899492263793945
      vertex 17.418113708496094 -19.97808837890625 4
      vertex -7 -19.97808837890625 0.9899492263793945
    endloop
  endfacet
  facet normal 0 -1 0
    outer loop
      vertex 7.9899492263793945 -19.97808837890625 0
      vertex 17.418113708496094 -19.97808837890625 4
      vertex 7 -19.97808837890625 0.9899492263793945
    endloop
  endfacet
  facet normal 0 -1 0
    outer loop
      vertex 17.418113708496094 -19.97808837890625 4
      vertex 7.9899492263793945 -19.97808837890625 0
      vertex 17.418113708496094 -19.97808837890625 0
    endloop
  endfacet
  facet normal 0.20791255035266265 0.9781474180336273 0
    outer loop
      vertex 18.236068725585938 19.80422592163086 0
      vertex 17.418113708496094 19.97808837890625 4
      vertex 18.236068725585938 19.80422592163086 4
    endloop
  endfacet
  facet normal 0.20791255035266265 0.9781474180336273 0
    outer loop
      vertex 17.418113708496094 19.97808837890625 4
      vertex 18.236068725585938 19.80422592163086 0
      vertex 17.418113708496094 19.97808837890625 0
    endloop
  endfacet
  facet normal -0.20791255035266265 0.9781474180336273 0
    outer loop
      vertex -17.418113708496094 19.97808837890625 0
      vertex -18.236068725585938 19.80422592163086 4
      vertex -17.418113708496094 19.97808837890625 4
    endloop
  endfacet
  facet normal -0.20791255035266265 0.9781474180336273 0
    outer loop
      vertex -18.236068725585938 19.80422592163086 4
      vertex -17.418113708496094 19.97808837890625 0
      vertex -18.236068725585938 19.80422592163086 0
    endloop
  endfacet
  facet normal -0.40673665632499734 -0.9135454517436782 0
    outer loop
      vertex -19 -19.464101791381836 0
      vertex -18.236068725585938 -19.80422592163086 4
      vertex -19 -19.464101791381836 4
    endloop
  endfacet
  facet normal -0.40673665632499734 -0.9135454517436782 0
    outer loop
      vertex -18.236068725585938 -19.80422592163086 4
      vertex -19 -19.464101791381836 0
      vertex -18.236068725585938 -19.80422592163086 0
    endloop
  endfacet
  facet normal 0.994521838192902 -0.10452900725354297 0
    outer loop
      vertex 20.91259002685547 -16.831645965576172 4
      vertex 21 -16 0
      vertex 21 -16 4
    endloop
  endfacet
  facet normal 0.994521838192902 -0.10452900725354297 0
    outer loop
      vertex 21 -16 0
      vertex 20.91259002685547 -16.831645965576172 4
      vertex 20.91259002685547 -16.831645965576172 0
    endloop
  endfacet
  facet normal -0.4067385598810397 0.9135446042235146 0
    outer loop
      vertex -18.236068725585938 19.80422592163086 0
      vertex -19 19.464099884033203 4
      vertex -18.236068725585938 19.80422592163086 4
    endloop
  endfacet
  facet normal -0.4067385598810397 0.9135446042235146 0
    outer loop
      vertex -19 19.464099884033203 4
      vertex -18.236068725585938 19.80422592163086 0
      vertex -19 19.464099884033203 0
    endloop
  endfacet
  facet normal -0.9510570465168066 -0.30901536251573136 0
    outer loop
      vertex -20.65418243408203 -17.6269474029541 0
      vertex -20.91259002685547 -16.831645965576172 4
      vertex -20.91259002685547 -16.831645965576172 0
    endloop
  endfacet
  facet normal -0.9510570465168066 -0.30901536251573136 0
    outer loop
      vertex -20.91259002685547 -16.831645965576172 4
      vertex -20.65418243408203 -17.6269474029541 0
      vertex -20.65418243408203 -17.6269474029541 4
    endloop
  endfacet
  facet normal -0.994521838192902 -0.10452900725354297 0
    outer loop
      vertex -20.91259002685547 -16.831645965576172 0
      vertex -21 -16 4
      vertex -21 -16 0
    endloop
  endfacet
  facet normal -0.994521838192902 -0.10452900725354297 0
    outer loop
      vertex -21 -16 4
      vertex -20.91259002685547 -16.831645965576172 0
      vertex -20.91259002685547 -16.831645965576172 4
    endloop
  endfacet
  facet normal 1 0 0
    outer loop
      vertex 21 16 4
      vertex 21 7.656615257263184 0
      vertex 21 16 0
    endloop
  endfacet
  facet normal 1 0 0
    outer loop
      vertex 21 16 4
      vertex 21 6.666666030883789 0.9899492263793945
      vertex 21 7.656615257263184 0
    endloop
  endfacet
  facet normal 1 0 0
    outer loop
      vertex 21 6.666666030883789 0.9899492263793945
      vertex 21 -5.6767168045043945 0
      vertex 21 5.6767168045043945 0
    endloop
  endfacet
  facet normal 1 0 0
    outer loop
      vertex 21 -6.666666030883789 0.9899492263793945
      vertex 21 6.666666030883789 0.9899492263793945
      vertex 21 16 4
    endloop
  endfacet
  facet normal 1 0 0
    outer loop
      vertex 21 6.666666030883789 0.9899492263793945
      vertex 21 -6.666666030883789 0.9899492263793945
      vertex 21 -5.6767168045043945 0
    endloop
  endfacet
  facet normal 1 0 0
    outer loop
      vertex 21 -16 4
      vertex 21 -6.666666030883789 0.9899492263793945
      vertex 21 16 4
    endloop
  endfacet
  facet normal 1 0 0
    outer loop
      vertex 21 -16 4
      vertex 21 -7.656615257263184 0
      vertex 21 -6.666666030883789 0.9899492263793945
    endloop
  endfacet
  facet normal 1 0 0
    outer loop
      vertex 21 -7.656615257263184 0
      vertex 21 -16 4
      vertex 21 -16 0
    endloop
  endfacet
  facet normal 0.9510570465168066 -0.30901536251573136 0
    outer loop
      vertex 20.65418243408203 -17.6269474029541 4
      vertex 20.91259002685547 -16.831645965576172 0
      vertex 20.91259002685547 -16.831645965576172 4
    endloop
  endfacet
  facet normal 0.9510570465168066 -0.30901536251573136 0
    outer loop
      vertex 20.91259002685547 -16.831645965576172 0
      vertex 20.65418243408203 -17.6269474029541 4
      vertex 20.65418243408203 -17.6269474029541 0
    endloop
  endfacet
  facet normal 0.8660257906073816 -0.4999993300024108 0
    outer loop
      vertex 20.236068725585938 -18.35114288330078 4
      vertex 20.65418243408203 -17.6269474029541 0
      vertex 20.65418243408203 -17.6269474029541 4
    endloop
  endfacet
  facet normal 0.8660257906073816 -0.4999993300024108 0
    outer loop
      vertex 20.65418243408203 -17.6269474029541 0
      vertex 20.236068725585938 -18.35114288330078 4
      vertex 20.236068725585938 -18.35114288330078 0
    endloop
  endfacet
  facet normal -0.743145214377211 0.6691301744416023 0
    outer loop
      vertex -20.236068725585938 18.35114097595215 0
      vertex -19.676523208618164 18.972579956054688 4
      vertex -19.676523208618164 18.972579956054688 0
    endloop
  endfacet
  facet normal -0.743145214377211 0.6691301744416023 0
    outer loop
      vertex -19.676523208618164 18.972579956054688 4
      vertex -20.236068725585938 18.35114097595215 0
      vertex -20.236068725585938 18.35114097595215 4
    endloop
  endfacet
  facet normal 0.7431430589362458 -0.6691325682963575 0
    outer loop
      vertex 19.67652130126953 -18.972579956054688 4
      vertex 20.236068725585938 -18.35114288330078 0
      vertex 20.236068725585938 -18.35114288330078 4
    endloop
  endfacet
  facet normal 0.7431430589362458 -0.6691325682963575 0
    outer loop
      vertex 20.236068725585938 -18.35114288330078 0
      vertex 19.67652130126953 -18.972579956054688 4
      vertex 19.67652130126953 -18.972579956054688 0
    endloop
  endfacet
  facet normal -0.8660257906073816 0.4999993300024108 0
    outer loop
      vertex -20.65418243408203 17.62694549560547 0
      vertex -20.236068725585938 18.35114097595215 4
      vertex -20.236068725585938 18.35114097595215 0
    endloop
  endfacet
  facet normal -0.8660257906073816 0.4999993300024108 0
    outer loop
      vertex -20.236068725585938 18.35114097595215 4
      vertex -20.65418243408203 17.62694549560547 0
      vertex -20.65418243408203 17.62694549560547 4
    endloop
  endfacet
  facet normal 0.9510568287125128 0.3090160328515304 0
    outer loop
      vertex 20.91259002685547 16.831645965576172 4
      vertex 20.65418243408203 17.62694549560547 0
      vertex 20.65418243408203 17.62694549560547 4
    endloop
  endfacet
  facet normal 0.9510568287125128 0.3090160328515304 0
    outer loop
      vertex 20.65418243408203 17.62694549560547 0
      vertex 20.91259002685547 16.831645965576172 4
      vertex 20.91259002685547 16.831645965576172 0
    endloop
  endfacet
  facet normal 0.20791255035266265 -0.9781474180336273 0
    outer loop
      vertex 17.418113708496094 -19.97808837890625 0
      vertex 18.236068725585938 -19.80422592163086 4
      vertex 17.418113708496094 -19.97808837890625 4
    endloop
  endfacet
  facet normal 0.20791255035266265 -0.9781474180336273 0
    outer loop
      vertex 18.236068725585938 -19.80422592163086 4
      vertex 17.418113708496094 -19.97808837890625 0
      vertex 18.236068725585938 -19.80422592163086 0
    endloop
  endfacet
  facet normal 0.5877855175104948 -0.809016801682709 0
    outer loop
      vertex 19 -19.464101791381836 0
      vertex 19.67652130126953 -18.972579956054688 4
      vertex 19 -19.464101791381836 4
    endloop
  endfacet
  facet normal 0.5877855175104948 -0.809016801682709 0
    outer loop
      vertex 19.67652130126953 -18.972579956054688 4
      vertex 19 -19.464101791381836 0
      vertex 19.67652130126953 -18.972579956054688 0
    endloop
  endfacet
  facet normal -0.994521838192902 0.10452900725354297 0
    outer loop
      vertex -21 16 0
      vertex -20.91259002685547 16.831645965576172 4
      vertex -20.91259002685547 16.831645965576172 0
    endloop
  endfacet
  facet normal -0.994521838192902 0.10452900725354297 0
    outer loop
      vertex -20.91259002685547 16.831645965576172 4
      vertex -21 16 0
      vertex -21 16 4
    endloop
  endfacet
  facet normal -0.8660257906073816 -0.4999993300024108 0
    outer loop
      vertex -20.236068725585938 -18.35114288330078 0
      vertex -20.65418243408203 -17.6269474029541 4
      vertex -20.65418243408203 -17.6269474029541 0
    endloop
  endfacet
  facet normal -0.8660257906073816 -0.4999993300024108 0
    outer loop
      vertex -20.65418243408203 -17.6269474029541 4
      vertex -20.236068725585938 -18.35114288330078 0
      vertex -20.236068725585938 -18.35114288330078 4
    endloop
  endfacet
  facet normal -0.7431441931376963 -0.6691313086425731 0
    outer loop
      vertex -19.676523208618164 -18.972579956054688 0
      vertex -20.236068725585938 -18.35114288330078 4
      vertex -20.236068725585938 -18.35114288330078 0
    endloop
  endfacet
  facet normal -0.7431441931376963 -0.6691313086425731 0
    outer loop
      vertex -20.236068725585938 -18.35114288330078 4
      vertex -19.676523208618164 -18.972579956054688 0
      vertex -19.676523208618164 -18.972579956054688 4
    endloop
  endfacet
  facet normal -0.20791255035266265 -0.9781474180336273 0
    outer loop
      vertex -18.236068725585938 -19.80422592163086 0
      vertex -17.418113708496094 -19.97808837890625 4
      vertex -18.236068725585938 -19.80422592163086 4
    endloop
  endfacet
  facet normal -0.20791255035266265 -0.9781474180336273 0
    outer loop
      vertex -17.418113708496094 -19.97808837890625 4
      vertex -18.236068725585938 -19.80422592163086 0
      vertex -17.418113708496094 -19.97808837890625 0
    endloop
  endfacet
  facet normal 0.994521838192902 0.10452900725354297 0
    outer loop
      vertex 21 16 4
      vertex 20.91259002685547 16.831645965576172 0
      vertex 20.91259002685547 16.831645965576172 4
    endloop
  endfacet
  facet normal 0.994521838192902 0.10452900725354297 0
    outer loop
      vertex 20.91259002685547 16.831645965576172 0
      vertex 21 16 4
      vertex 21 16 0
    endloop
  endfacet
  facet normal -0.9510568287125128 0.3090160328515304 0
    outer loop
      vertex -20.91259002685547 16.831645965576172 0
      vertex -20.65418243408203 17.62694549560547 4
      vertex -20.65418243408203 17.62694549560547 0
    endloop
  endfacet
  facet normal -0.9510568287125128 0.3090160328515304 0
    outer loop
      vertex -20.65418243408203 17.62694549560547 4
      vertex -20.91259002685547 16.831645965576172 0
      vertex -20.91259002685547 16.831645965576172 4
    endloop
  endfacet
  facet normal -0.5877844328795758 -0.8090175897126314 0
    outer loop
      vertex -19.676523208618164 -18.972579956054688 0
      vertex -19 -19.464101791381836 4
      vertex -19.676523208618164 -18.972579956054688 4
    endloop
  endfacet
  facet normal -0.5877844328795758 -0.8090175897126314 0
    outer loop
      vertex -19 -19.464101791381836 4
      vertex -19.676523208618164 -18.972579956054688 0
      vertex -19 -19.464101791381836 0
    endloop
  endfacet
  facet normal -0.5877829400090342 0.8090186743421539 0
    outer loop
      vertex -19 19.464099884033203 0
      vertex -19.676523208618164 18.972579956054688 4
      vertex -19 19.464099884033203 4
    endloop
  endfacet
  facet normal -0.5877829400090342 0.8090186743421539 0
    outer loop
      vertex -19.676523208618164 18.972579956054688 4
      vertex -19 19.464099884033203 0
      vertex -19.676523208618164 18.972579956054688 0
    endloop
  endfacet
  facet normal 0 1 0
    outer loop
      vertex 6.010049819946289 19.97808837890625 0
      vertex -7 19.97808837890625 0.9899492263793945
      vertex 7 19.97808837890625 0.9899492263793945
    endloop
  endfacet
  facet normal 0 1 0
    outer loop
      vertex -7 19.97808837890625 0.9899492263793945
      vertex 6.010049819946289 19.97808837890625 0
      vertex -6.010049819946289 19.97808837890625 0
    endloop
  endfacet
  facet normal 0 1 0
    outer loop
      vertex 17.418113708496094 19.97808837890625 4
      vertex 7 19.97808837890625 0.9899492263793945
      vertex -17.418113708496094 19.97808837890625 4
    endloop
  endfacet
  facet normal 0 1 0
    outer loop
      vertex 7.9899492263793945 19.97808837890625 0
      vertex 17.418113708496094 19.97808837890625 4
      vertex 17.418113708496094 19.97808837890625 0
    endloop
  endfacet
  facet normal 0 1 0
    outer loop
      vertex 17.418113708496094 19.97808837890625 4
      vertex 7.9899492263793945 19.97808837890625 0
      vertex 7 19.97808837890625 0.9899492263793945
    endloop
  endfacet
  facet normal 0 1 0
    outer loop
      vertex -7 19.97808837890625 0.9899492263793945
      vertex -17.418113708496094 19.97808837890625 4
      vertex 7 19.97808837890625 0.9899492263793945
    endloop
  endfacet
  facet normal 0 1 0
    outer loop
      vertex -7.9899492263793945 19.97808837890625 0
      vertex -17.418113708496094 19.97808837890625 4
      vertex -7 19.97808837890625 0.9899492263793945
    endloop
  endfacet
  facet normal 0 1 0
    outer loop
      vertex -17.418113708496094 19.97808837890625 4
      vertex -7.9899492263793945 19.97808837890625 0
      vertex -17.418113708496094 19.97808837890625 0
    endloop
  endfacet
  facet normal 0.40673665632499734 -0.9135454517436782 0
    outer loop
      vertex 18.236068725585938 -19.80422592163086 0
      vertex 19 -19.464101791381836 4
      vertex 18.236068725585938 -19.80422592163086 4
    endloop
  endfacet
  facet normal 0.40673665632499734 -0.9135454517436782 0
    outer loop
      vertex 19 -19.464101791381836 4
      vertex 18.236068725585938 -19.80422592163086 0
      vertex 19 -19.464101791381836 0
    endloop
  endfacet
  facet normal -1 0 0
    outer loop
      vertex -21 7.656615257263184 0
      vertex -21 16 4
      vertex -21 16 0
    endloop
  endfacet
  facet normal -1 0 0
    outer loop
      vertex -21 6.666666030883789 0.9899492263793945
      vertex -21 16 4
      vertex -21 7.656615257263184 0
    endloop
  endfacet
  facet normal -1 0 0
    outer loop
      vertex -21 -5.6767168045043945 0
      vertex -21 6.666666030883789 0.9899492263793945
      vertex -21 5.6767168045043945 0
    endloop
  endfacet
  facet normal -1 0 0
    outer loop
      vertex -21 -6.666666030883789 0.9899492263793945
      vertex -21 6.666666030883789 0.9899492263793945
      vertex -21 -5.6767168045043945 0
    endloop
  endfacet
  facet normal -1 0 0
    outer loop
      vertex -21 6.666666030883789 0.9899492263793945
      vertex -21 -6.666666030883789 0.9899492263793945
      vertex -21 16 4
    endloop
  endfacet
  facet normal -1 0 0
    outer loop
      vertex -21 -16 4
      vertex -21 -7.656615257263184 0
      vertex -21 -16 0
    endloop
  endfacet
  facet normal -1 0 0
    outer loop
      vertex -21 -7.656615257263184 0
      vertex -21 -16 4
      vertex -21 -6.666666030883789 0.9899492263793945
    endloop
  endfacet
  facet normal -1 0 0
    outer loop
      vertex -21 -6.666666030883789 0.9899492263793945
      vertex -21 -16 4
      vertex -21 16 4
    endloop
  endfacet
  facet normal 0.7431440801780469 0.6691314340967136 0
    outer loop
      vertex 20.236068725585938 18.35114097595215 4
      vertex 19.67652130126953 18.972579956054688 0
      vertex 19.67652130126953 18.972579956054688 4
    endloop
  endfacet
  facet normal 0.7431440801780469 0.6691314340967136 0
    outer loop
      vertex 19.67652130126953 18.972579956054688 0
      vertex 20.236068725585938 18.35114097595215 4
      vertex 20.236068725585938 18.35114097595215 0
    endloop
  endfacet
  facet normal 0.8660257906073816 0.4999993300024108 0
    outer loop
      vertex 20.65418243408203 17.62694549560547 4
      vertex 20.236068725585938 18.35114097595215 0
      vertex 20.236068725585938 18.35114097595215 4
    endloop
  endfacet
  facet normal 0.8660257906073816 0.4999993300024108 0
    outer loop
      vertex 20.236068725585938 18.35114097595215 0
      vertex 20.65418243408203 17.62694549560547 4
      vertex 20.65418243408203 17.62694549560547 0
    endloop
  endfacet
  facet normal 0.5877840246401068 0.8090178863151781 0
    outer loop
      vertex 19.67652130126953 18.972579956054688 0
      vertex 19 19.464099884033203 4
      vertex 19.67652130126953 18.972579956054688 4
    endloop
  endfacet
  facet normal 0.5877840246401068 0.8090178863151781 0
    outer loop
      vertex 19 19.464099884033203 4
      vertex 19.67652130126953 18.972579956054688 0
      vertex 19 19.464099884033203 0
    endloop
  endfacet
  facet normal 0.4067385598810397 0.9135446042235146 0
    outer loop
      vertex 19 19.464099884033203 0
      vertex 18.236068725585938 19.80422592163086 4
      vertex 19 19.464099884033203 4
    endloop
  endfacet
  facet normal 0.4067385598810397 0.9135446042235146 0
    outer loop
      vertex 18.236068725585938 19.80422592163086 4
      vertex 19 19.464099884033203 0
      vertex 18.236068725585938 19.80422592163086 0
    endloop
  endfacet
  facet normal 0 0 1
    outer loop
      vertex 14.75 15 4
      vertex 21 16 4
      vertex 20.91259002685547 16.831645965576172 4
    endloop
  endfacet
  facet normal 0 0 1
    outer loop
      vertex 14.75 -14.399999618530273 4
      vertex 21 16 4
      vertex 14.75 15 4
    endloop
  endfacet
  facet normal 0 0 1
    outer loop
      vertex 14.75 15 4
      vertex 20.91259002685547 16.831645965576172 4
      vertex 20.65418243408203 17.62694549560547 4
    endloop
  endfacet
  facet normal 0 0 1
    outer loop
      vertex 21 16 4
      vertex 14.75 -14.399999618530273 4
      vertex 21 -16 4
    endloop
  endfacet
  facet normal 0 0 1
    outer loop
      vertex 14.75 15 4
      vertex 20.65418243408203 17.62694549560547 4
      vertex 20.236068725585938 18.35114097595215 4
    endloop
  endfacet
  facet normal 0 0 1
    outer loop
      vertex 21 -16 4
      vertex 14.75 -14.399999618530273 4
      vertex 20.91259002685547 -16.831645965576172 4
    endloop
  endfacet
  facet normal 0 0 1
    outer loop
      vertex 14.75 15 4
      vertex 20.236068725585938 18.35114097595215 4
      vertex 19.67652130126953 18.972579956054688 4
    endloop
  endfacet
  facet normal 0 0 1
    outer loop
      vertex 20.91259002685547 -16.831645965576172 4
      vertex 14.75 -14.399999618530273 4
      vertex 20.65418243408203 -17.6269474029541 4
    endloop
  endfacet
  facet normal 0 0 1
    outer loop
      vertex 14.75 15 4
      vertex 19.67652130126953 18.972579956054688 4
      vertex 19 19.464099884033203 4
    endloop
  endfacet
  facet normal 0 0 1
    outer loop
      vertex 20.65418243408203 -17.6269474029541 4
      vertex 14.75 -14.399999618530273 4
      vertex 20.236068725585938 -18.35114288330078 4
    endloop
  endfacet
  facet normal 0 0 1
    outer loop
      vertex 14.75 15 4
      vertex 19 19.464099884033203 4
      vertex 18.236068725585938 19.80422592163086 4
    endloop
  endfacet
  facet normal 0 0 1
    outer loop
      vertex 20.236068725585938 -18.35114288330078 4
      vertex 14.75 -14.399999618530273 4
      vertex 19.67652130126953 -18.972579956054688 4
    endloop
  endfacet
  facet normal 0 0 1
    outer loop
      vertex 14.75 15 4
      vertex 18.236068725585938 19.80422592163086 4
      vertex 17.418113708496094 19.97808837890625 4
    endloop
  endfacet
  facet normal 0 0 1
    outer loop
      vertex 19.67652130126953 -18.972579956054688 4
      vertex 14.75 -14.399999618530273 4
      vertex 19 -19.464101791381836 4
    endloop
  endfacet
  facet normal 0 0 1
    outer loop
      vertex 19 -19.464101791381836 4
      vertex 14.75 -14.399999618530273 4
      vertex 18.236068725585938 -19.80422592163086 4
    endloop
  endfacet
  facet normal 0 0 1
    outer loop
      vertex 17.418113708496094 19.97808837890625 4
      vertex 9.25 15 4
      vertex 14.75 15 4
    endloop
  endfacet
  facet normal 0 0 1
    outer loop
      vertex 9.25 15 4
      vertex -9.25 15 4
      vertex 9.25 -14.399999618530273 4
    endloop
  endfacet
  facet normal 0 0 1
    outer loop
      vertex 17.418113708496094 19.97808837890625 4
      vertex -9.25 15 4
      vertex 9.25 15 4
    endloop
  endfacet
  facet normal 0 0 1
    outer loop
      vertex -17.418113708496094 19.97808837890625 4
      vertex -9.25 15 4
      vertex 17.418113708496094 19.97808837890625 4
    endloop
  endfacet
  facet normal 0 0 1
    outer loop
      vertex -18.236068725585938 19.80422592163086 4
      vertex -14.75 15 4
      vertex -17.418113708496094 19.97808837890625 4
    endloop
  endfacet
  facet normal 0 0 1
    outer loop
      vertex -9.25 15 4
      vertex -17.418113708496094 19.97808837890625 4
      vertex -14.75 15 4
    endloop
  endfacet
  facet normal 0 0 1
    outer loop
      vertex 18.236068725585938 -19.80422592163086 4
      vertex 14.75 -14.399999618530273 4
      vertex 17.418113708496094 -19.97808837890625 4
    endloop
  endfacet
  facet normal 0 0 1
    outer loop
      vertex 9.25 -14.399999618530273 4
      vertex 17.418113708496094 -19.97808837890625 4
      vertex 14.75 -14.399999618530273 4
    endloop
  endfacet
  facet normal 0 0 1
    outer loop
      vertex -9.25 -14.399999618530273 4
      vertex 9.25 -14.399999618530273 4
      vertex -9.25 15 4
    endloop
  endfacet
  facet normal 0 0 1
    outer loop
      vertex -9.25 -14.399999618530273 4
      vertex 17.418113708496094 -19.97808837890625 4
      vertex 9.25 -14.399999618530273 4
    endloop
  endfacet
  facet normal 0 0 1
    outer loop
      vertex -17.418113708496094 -19.97808837890625 4
      vertex -9.25 -14.399999618530273 4
      vertex -14.75 -14.399999618530273 4
    endloop
  endfacet
  facet normal 0 0 1
    outer loop
      vertex -9.25 -14.399999618530273 4
      vertex -17.418113708496094 -19.97808837890625 4
      vertex 17.418113708496094 -19.97808837890625 4
    endloop
  endfacet
  facet normal 0 0 1
    outer loop
      vertex -14.75 15 4
      vertex -21 16 4
      vertex -14.75 -14.399999618530273 4
    endloop
  endfacet
  facet normal 0 0 1
    outer loop
      vertex -19 19.464099884033203 4
      vertex -14.75 15 4
      vertex -18.236068725585938 19.80422592163086 4
    endloop
  endfacet
  facet normal 0 0 1
    outer loop
      vertex -21 -16 4
      vertex -14.75 -14.399999618530273 4
      vertex -21 16 4
    endloop
  endfacet
  facet normal 0 0 1
    outer loop
      vertex -19.676523208618164 18.972579956054688 4
      vertex -14.75 15 4
      vertex -19 19.464099884033203 4
    endloop
  endfacet
  facet normal 0 0 1
    outer loop
      vertex -20.91259002685547 -16.831645965576172 4
      vertex -14.75 -14.399999618530273 4
      vertex -21 -16 4
    endloop
  endfacet
  facet normal 0 0 1
    outer loop
      vertex -20.236068725585938 18.35114097595215 4
      vertex -14.75 15 4
      vertex -19.676523208618164 18.972579956054688 4
    endloop
  endfacet
  facet normal 0 0 1
    outer loop
      vertex -14.75 -14.399999618530273 4
      vertex -18.236068725585938 -19.80422592163086 4
      vertex -17.418113708496094 -19.97808837890625 4
    endloop
  endfacet
  facet normal 0 0 1
    outer loop
      vertex -20.65418243408203 17.62694549560547 4
      vertex -14.75 15 4
      vertex -20.236068725585938 18.35114097595215 4
    endloop
  endfacet
  facet normal 0 0 1
    outer loop
      vertex -14.75 -14.399999618530273 4
      vertex -19 -19.464101791381836 4
      vertex -18.236068725585938 -19.80422592163086 4
    endloop
  endfacet
  facet normal 0 0 1
    outer loop
      vertex -20.91259002685547 16.831645965576172 4
      vertex -14.75 15 4
      vertex -20.65418243408203 17.62694549560547 4
    endloop
  endfacet
  facet normal 0 0 1
    outer loop
      vertex -14.75 -14.399999618530273 4
      vertex -19.676523208618164 -18.972579956054688 4
      vertex -19 -19.464101791381836 4
    endloop
  endfacet
  facet normal 0 0 1
    outer loop
      vertex -14.75 15 4
      vertex -20.91259002685547 16.831645965576172 4
      vertex -21 16 4
    endloop
  endfacet
  facet normal 0 0 1
    outer loop
      vertex -14.75 -14.399999618530273 4
      vertex -20.236068725585938 -18.35114288330078 4
      vertex -19.676523208618164 -18.972579956054688 4
    endloop
  endfacet
  facet normal 0 0 1
    outer loop
      vertex -14.75 -14.399999618530273 4
      vertex -20.65418243408203 -17.6269474029541 4
      vertex -20.236068725585938 -18.35114288330078 4
    endloop
  endfacet
  facet normal 0 0 1
    outer loop
      vertex -14.75 -14.399999618530273 4
      vertex -20.91259002685547 -16.831645965576172 4
      vertex -20.65418243408203 -17.6269474029541 4
    endloop
  endfacet
  facet normal 0 0 -1
    outer loop
      vertex -17.418113708496094 -19.97808837890625 0
      vertex -7.9899492263793945 -7.656615257263184 0
      vertex -7.9899492263793945 -19.97808837890625 0
    endloop
  endfacet
  facet normal 0 0 -1
    outer loop
      vertex -21 -16 0
      vertex -17.418113708496094 -19.97808837890625 0
      vertex -18.236068725585938 -19.80422592163086 0
    endloop
  endfacet
  facet normal 0 0 -1
    outer loop
      vertex -21 -16 0
      vertex -18.236068725585938 -19.80422592163086 0
      vertex -19 -19.464101791381836 0
    endloop
  endfacet
  facet normal 0 0 -1
    outer loop
      vertex -21 -16 0
      vertex -19 -19.464101791381836 0
      vertex -19.676523208618164 -18.972579956054688 0
    endloop
  endfacet
  facet normal 0 0 -1
    outer loop
      vertex -21 -16 0
      vertex -19.676523208618164 -18.972579956054688 0
      vertex -20.236068725585938 -18.35114288330078 0
    endloop
  endfacet
  facet normal 0 0 -1
    outer loop
      vertex -21 -16 0
      vertex -20.236068725585938 -18.35114288330078 0
      vertex -20.65418243408203 -17.6269474029541 0
    endloop
  endfacet
  facet normal 0 0 -1
    outer loop
      vertex -21 -16 0
      vertex -20.65418243408203 -17.6269474029541 0
      vertex -20.91259002685547 -16.831645965576172 0
    endloop
  endfacet
  facet normal 0 0 -1
    outer loop
      vertex -17.418113708496094 -19.97808837890625 0
      vertex -21 -16 0
      vertex -7.9899492263793945 -7.656615257263184 0
    endloop
  endfacet
  facet normal 0 0 -1
    outer loop
      vertex -7.9899492263793945 -7.656615257263184 0
      vertex -21 -16 0
      vertex -21 -7.656615257263184 0
    endloop
  endfacet
  facet normal 0 0 -1
    outer loop
      vertex -7.9899492263793945 7.656615257263184 0
      vertex -17.418113708496094 19.97808837890625 0
      vertex -7.9899492263793945 19.97808837890625 0
    endloop
  endfacet
  facet normal 0 0 -1
    outer loop
      vertex -21 16 0
      vertex -17.418113708496094 19.97808837890625 0
      vertex -7.9899492263793945 7.656615257263184 0
    endloop
  endfacet
  facet normal 0 0 -1
    outer loop
      vertex -17.418113708496094 19.97808837890625 0
      vertex -21 16 0
      vertex -18.236068725585938 19.80422592163086 0
    endloop
  endfacet
  facet normal 0 0 -1
    outer loop
      vertex -18.236068725585938 19.80422592163086 0
      vertex -21 16 0
      vertex -19 19.464099884033203 0
    endloop
  endfacet
  facet normal 0 0 -1
    outer loop
      vertex -19 19.464099884033203 0
      vertex -21 16 0
      vertex -19.676523208618164 18.972579956054688 0
    endloop
  endfacet
  facet normal 0 0 -1
    outer loop
      vertex -19.676523208618164 18.972579956054688 0
      vertex -21 16 0
      vertex -20.236068725585938 18.35114097595215 0
    endloop
  endfacet
  facet normal 0 0 -1
    outer loop
      vertex -20.236068725585938 18.35114097595215 0
      vertex -21 16 0
      vertex -20.65418243408203 17.62694549560547 0
    endloop
  endfacet
  facet normal 0 0 -1
    outer loop
      vertex -21 16 0
      vertex -7.9899492263793945 7.656615257263184 0
      vertex -21 7.656615257263184 0
    endloop
  endfacet
  facet normal 0 0 -1
    outer loop
      vertex -20.65418243408203 17.62694549560547 0
      vertex -21 16 0
      vertex -20.91259002685547 16.831645965576172 0
    endloop
  endfacet
  facet normal 0 0 -1
    outer loop
      vertex 7.9899492263793945 7.656615257263184 0
      vertex 21 16 0
      vertex 21 7.656615257263184 0
    endloop
  endfacet
  facet normal 0 0 -1
    outer loop
      vertex 17.418113708496094 19.97808837890625 0
      vertex 21 16 0
      vertex 7.9899492263793945 7.656615257263184 0
    endloop
  endfacet
  facet normal 0 0 -1
    outer loop
      vertex 20.91259002685547 16.831645965576172 0
      vertex 17.418113708496094 19.97808837890625 0
      vertex 20.65418243408203 17.62694549560547 0
    endloop
  endfacet
  facet normal 0 0 -1
    outer loop
      vertex 20.65418243408203 17.62694549560547 0
      vertex 17.418113708496094 19.97808837890625 0
      vertex 20.236068725585938 18.35114097595215 0
    endloop
  endfacet
  facet normal 0 0 -1
    outer loop
      vertex 20.236068725585938 18.35114097595215 0
      vertex 17.418113708496094 19.97808837890625 0
      vertex 19.67652130126953 18.972579956054688 0
    endloop
  endfacet
  facet normal 0 0 -1
    outer loop
      vertex 19.67652130126953 18.972579956054688 0
      vertex 17.418113708496094 19.97808837890625 0
      vertex 19 19.464099884033203 0
    endloop
  endfacet
  facet normal 0 0 -1
    outer loop
      vertex 19 19.464099884033203 0
      vertex 17.418113708496094 19.97808837890625 0
      vertex 18.236068725585938 19.80422592163086 0
    endloop
  endfacet
  facet normal 0 0 -1
    outer loop
      vertex 21 16 0
      vertex 17.418113708496094 19.97808837890625 0
      vertex 20.91259002685547 16.831645965576172 0
    endloop
  endfacet
  facet normal 0 0 -1
    outer loop
      vertex 17.418113708496094 19.97808837890625 0
      vertex 7.9899492263793945 7.656615257263184 0
      vertex 7.9899492263793945 19.97808837890625 0
    endloop
  endfacet
  facet normal 0 0 -1
    outer loop
      vertex 17.418113708496094 -19.97808837890625 0
      vertex 21 -16 0
      vertex 20.91259002685547 -16.831645965576172 0
    endloop
  endfacet
  facet normal 0 0 -1
    outer loop
      vertex 17.418113708496094 -19.97808837890625 0
      vertex 20.91259002685547 -16.831645965576172 0
      vertex 20.65418243408203 -17.6269474029541 0
    endloop
  endfacet
  facet normal 0 0 -1
    outer loop
      vertex 17.418113708496094 -19.97808837890625 0
      vertex 20.65418243408203 -17.6269474029541 0
      vertex 20.236068725585938 -18.35114288330078 0
    endloop
  endfacet
  facet normal 0 0 -1
    outer loop
      vertex 17.418113708496094 -19.97808837890625 0
      vertex 20.236068725585938 -18.35114288330078 0
      vertex 19.67652130126953 -18.972579956054688 0
    endloop
  endfacet
  facet normal 0 0 -1
    outer loop
      vertex 17.418113708496094 -19.97808837890625 0
      vertex 19.67652130126953 -18.972579956054688 0
      vertex 19 -19.464101791381836 0
    endloop
  endfacet
  facet normal 0 0 -1
    outer loop
      vertex 17.418113708496094 -19.97808837890625 0
      vertex 19 -19.464101791381836 0
      vertex 18.236068725585938 -19.80422592163086 0
    endloop
  endfacet
  facet normal 0 0 -1
    outer loop
      vertex 21 -16 0
      vertex 17.418113708496094 -19.97808837890625 0
      vertex 7.9899492263793945 -7.656615257263184 0
    endloop
  endfacet
  facet normal 0 0 -1
    outer loop
      vertex 7.9899492263793945 -7.656615257263184 0
      vertex 17.418113708496094 -19.97808837890625 0
      vertex 7.9899492263793945 -19.97808837890625 0
    endloop
  endfacet
  facet normal 0 0 -1
    outer loop
      vertex 21 -16 0
      vertex 7.9899492263793945 -7.656615257263184 0
      vertex 21 -7.656615257263184 0
    endloop
  endfacet
  facet normal 0 0 -1
    outer loop
      vertex -6.010049819946289 -19.97808837890625 0
      vertex 6.010049819946289 -7.656615257263184 0
      vertex 6.010049819946289 -19.97808837890625 0
    endloop
  endfacet
  facet normal 0 0 -1
    outer loop
      vertex 6.010049819946289 -7.656615257263184 0
      vertex -6.010049819946289 -19.97808837890625 0
      vertex -6.010049819946289 -7.656615257263184 0
    endloop
  endfacet
  facet normal 0 0 -1
    outer loop
      vertex -6.010049819946289 7.656615257263184 0
      vertex 6.010049819946289 19.97808837890625 0
      vertex 6.010049819946289 7.656615257263184 0
    endloop
  endfacet
  facet normal 0 0 -1
    outer loop
      vertex 6.010049819946289 19.97808837890625 0
      vertex -6.010049819946289 7.656615257263184 0
      vertex -6.010049819946289 19.97808837890625 0
    endloop
  endfacet
  facet normal 0 0 -1
    outer loop
      vertex -21 -5.6767168045043945 0
      vertex -7.9899492263793945 5.6767168045043945 0
      vertex -7.9899492263793945 -5.6767168045043945 0
    endloop
  endfacet
  facet normal 0 0 -1
    outer loop
      vertex -7.9899492263793945 5.6767168045043945 0
      vertex -21 -5.6767168045043945 0
      vertex -21 5.6767168045043945 0
    endloop
  endfacet
  facet normal 0 0 -1
    outer loop
      vertex -6.010049819946289 -5.6767168045043945 0
      vertex 6.010049819946289 5.6767168045043945 0
      vertex 6.010049819946289 -5.6767168045043945 0
    endloop
  endfacet
  facet normal 0 0 -1
    outer loop
      vertex 6.010049819946289 5.6767168045043945 0
      vertex -6.010049819946289 -5.6767168045043945 0
      vertex -6.010049819946289 5.6767168045043945 0
    endloop
  endfacet
  facet normal 0 0 -1
    outer loop
      vertex 7.9899492263793945 -5.6767168045043945 0
      vertex 21 5.6767168045043945 0
      vertex 21 -5.6767168045043945 0
    endloop
  endfacet
  facet normal 0 0 -1
    outer loop
      vertex 21 5.6767168045043945 0
      vertex 7.9899492263793945 -5.6767168045043945 0
      vertex 7.9899492263793945 5.6767168045043945 0
    endloop
  endfacet
  facet normal 0 -1 0
    outer loop
      vertex -14.75 -14.399999618530273 4
      vertex -13.690499305725098 -14.399999618530273 7.900000095367432
      vertex -15.920000076293945 -14.399999618530273 7.900000095367432
    endloop
  endfacet
  facet normal 0 -1 0
    outer loop
      vertex -12.832999229431152 -14.399999618530273 4.46999979019165
      vertex -14.75 -14.399999618530273 4
      vertex -11.167000770568848 -14.399999618530273 4.46999979019165
    endloop
  endfacet
  facet normal 0 -1 0
    outer loop
      vertex -13.690499305725098 -14.399999618530273 7.900000095367432
      vertex -14.75 -14.399999618530273 4
      vertex -12.832999229431152 -14.399999618530273 4.46999979019165
    endloop
  endfacet
  facet normal 0 -1 0
    outer loop
      vertex -9.25 -14.399999618530273 4
      vertex -10.309500694274902 -14.399999618530273 7.900000095367432
      vertex -11.167000770568848 -14.399999618530273 4.46999979019165
    endloop
  endfacet
  facet normal 0 -1 0
    outer loop
      vertex -10.309500694274902 -14.399999618530273 7.900000095367432
      vertex -9.25 -14.399999618530273 4
      vertex -8.079999923706055 -14.399999618530273 7.900000095367432
    endloop
  endfacet
  facet normal 0 -1 0
    outer loop
      vertex -9.25 -14.399999618530273 4
      vertex -11.167000770568848 -14.399999618530273 4.46999979019165
      vertex -14.75 -14.399999618530273 4
    endloop
  endfacet
  facet normal 0 0 1
    outer loop
      vertex -10.309500694274902 15 7.900000095367432
      vertex -8.079999923706055 -14.399999618530273 7.900000095367432
      vertex -8.079999923706055 15 7.900000095367432
    endloop
  endfacet
  facet normal 0 0 1
    outer loop
      vertex -8.079999923706055 -14.399999618530273 7.900000095367432
      vertex -10.309500694274902 15 7.900000095367432
      vertex -10.309500694274902 -14.399999618530273 7.900000095367432
    endloop
  endfacet
  facet normal 0 0 1
    outer loop
      vertex -15.920000076293945 15 7.900000095367432
      vertex -13.690499305725098 -14.399999618530273 7.900000095367432
      vertex -13.690499305725098 15 7.900000095367432
    endloop
  endfacet
  facet normal 0 0 1
    outer loop
      vertex -13.690499305725098 -14.399999618530273 7.900000095367432
      vertex -15.920000076293945 15 7.900000095367432
      vertex -15.920000076293945 -14.399999618530273 7.900000095367432
    endloop
  endfacet
  facet normal 0 1 0
    outer loop
      vertex -9.25 15 4
      vertex -10.309500694274902 15 7.900000095367432
      vertex -8.079999923706055 15 7.900000095367432
    endloop
  endfacet
  facet normal 0 1 0
    outer loop
      vertex -11.167000770568848 15 4.46999979019165
      vertex -9.25 15 4
      vertex -12.832999229431152 15 4.46999979019165
    endloop
  endfacet
  facet normal 0 1 0
    outer loop
      vertex -10.309500694274902 15 7.900000095367432
      vertex -9.25 15 4
      vertex -11.167000770568848 15 4.46999979019165
    endloop
  endfacet
  facet normal 0 1 0
    outer loop
      vertex -14.75 15 4
      vertex -13.690499305725098 15 7.900000095367432
      vertex -12.832999229431152 15 4.46999979019165
    endloop
  endfacet
  facet normal 0 1 0
    outer loop
      vertex -13.690499305725098 15 7.900000095367432
      vertex -14.75 15 4
      vertex -15.920000076293945 15 7.900000095367432
    endloop
  endfacet
  facet normal 0 1 0
    outer loop
      vertex -14.75 15 4
      vertex -12.832999229431152 15 4.46999979019165
      vertex -9.25 15 4
    endloop
  endfacet
  facet normal -0.9578262819979533 0 -0.2873478963103386
    outer loop
      vertex -14.75 -14.399999618530273 4
      vertex -15.920000076293945 15 7.900000095367432
      vertex -14.75 15 4
    endloop
  endfacet
  facet normal -0.9578262819979533 0 -0.2873478963103386
    outer loop
      vertex -15.920000076293945 15 7.900000095367432
      vertex -14.75 -14.399999618530273 4
      vertex -15.920000076293945 -14.399999618530273 7.900000095367432
    endloop
  endfacet
  facet normal 0.9578262819979533 0 -0.2873478963103386
    outer loop
      vertex -8.079999923706055 -14.399999618530273 7.900000095367432
      vertex -9.25 15 4
      vertex -8.079999923706055 15 7.900000095367432
    endloop
  endfacet
  facet normal 0.9578262819979533 0 -0.2873478963103386
    outer loop
      vertex -9.25 15 4
      vertex -8.079999923706055 -14.399999618530273 7.900000095367432
      vertex -9.25 -14.399999618530273 4
    endloop
  endfacet
  facet normal 0 0 1
    outer loop
      vertex -12.832999229431152 15 4.46999979019165
      vertex -11.167000770568848 -14.399999618530273 4.46999979019165
      vertex -11.167000770568848 15 4.46999979019165
    endloop
  endfacet
  facet normal 0 0 1
    outer loop
      vertex -11.167000770568848 -14.399999618530273 4.46999979019165
      vertex -12.832999229431152 15 4.46999979019165
      vertex -12.832999229431152 -14.399999618530273 4.46999979019165
    endloop
  endfacet
  facet normal -0.970142500145332 0 0.242535625036333
    outer loop
      vertex -11.167000770568848 -14.399999618530273 4.46999979019165
      vertex -10.309500694274902 15 7.900000095367432
      vertex -11.167000770568848 15 4.46999979019165
    endloop
  endfacet
  facet normal -0.970142500145332 0 0.242535625036333
    outer loop
      vertex -10.309500694274902 15 7.900000095367432
      vertex -11.167000770568848 -14.399999618530273 4.46999979019165
      vertex -10.309500694274902 -14.399999618530273 7.900000095367432
    endloop
  endfacet
  facet normal 0.970142500145332 0 0.242535625036333
    outer loop
      vertex -13.690499305725098 -14.399999618530273 7.900000095367432
      vertex -12.832999229431152 15 4.46999979019165
      vertex -13.690499305725098 15 7.900000095367432
    endloop
  endfacet
  facet normal 0.970142500145332 0 0.242535625036333
    outer loop
      vertex -12.832999229431152 15 4.46999979019165
      vertex -13.690499305725098 -14.399999618530273 7.900000095367432
      vertex -12.832999229431152 -14.399999618530273 4.46999979019165
    endloop
  endfacet
  facet normal 0 -1 0
    outer loop
      vertex 9.25 -14.399999618530273 4
      vertex 10.309500694274902 -14.399999618530273 7.900000095367432
      vertex 8.079999923706055 -14.399999618530273 7.900000095367432
    endloop
  endfacet
  facet normal 0 -1 0
    outer loop
      vertex 11.167000770568848 -14.399999618530273 4.46999979019165
      vertex 9.25 -14.399999618530273 4
      vertex 12.832999229431152 -14.399999618530273 4.46999979019165
    endloop
  endfacet
  facet normal 0 -1 0
    outer loop
      vertex 10.309500694274902 -14.399999618530273 7.900000095367432
      vertex 9.25 -14.399999618530273 4
      vertex 11.167000770568848 -14.399999618530273 4.46999979019165
    endloop
  endfacet
  facet normal 0 -1 0
    outer loop
      vertex 14.75 -14.399999618530273 4
      vertex 13.690499305725098 -14.399999618530273 7.900000095367432
      vertex 12.832999229431152 -14.399999618530273 4.46999979019165
    endloop
  endfacet
  facet normal 0 -1 0
    outer loop
      vertex 13.690499305725098 -14.399999618530273 7.900000095367432
      vertex 14.75 -14.399999618530273 4
      vertex 15.920000076293945 -14.399999618530273 7.900000095367432
    endloop
  endfacet
  facet normal 0 -1 0
    outer loop
      vertex 14.75 -14.399999618530273 4
      vertex 12.832999229431152 -14.399999618530273 4.46999979019165
      vertex 9.25 -14.399999618530273 4
    endloop
  endfacet
  facet normal 0 0 1
    outer loop
      vertex 13.690499305725098 15 7.900000095367432
      vertex 15.920000076293945 -14.399999618530273 7.900000095367432
      vertex 15.920000076293945 15 7.900000095367432
    endloop
  endfacet
  facet normal 0 0 1
    outer loop
      vertex 15.920000076293945 -14.399999618530273 7.900000095367432
      vertex 13.690499305725098 15 7.900000095367432
      vertex 13.690499305725098 -14.399999618530273 7.900000095367432
    endloop
  endfacet
  facet normal 0 0 1
    outer loop
      vertex 8.079999923706055 15 7.900000095367432
      vertex 10.309500694274902 -14.399999618530273 7.900000095367432
      vertex 10.309500694274902 15 7.900000095367432
    endloop
  endfacet
  facet normal 0 0 1
    outer loop
      vertex 10.309500694274902 -14.399999618530273 7.900000095367432
      vertex 8.079999923706055 15 7.900000095367432
      vertex 8.079999923706055 -14.399999618530273 7.900000095367432
    endloop
  endfacet
  facet normal 0 1 0
    outer loop
      vertex 14.75 15 4
      vertex 13.690499305725098 15 7.900000095367432
      vertex 15.920000076293945 15 7.900000095367432
    endloop
  endfacet
  facet normal 0 1 0
    outer loop
      vertex 12.832999229431152 15 4.46999979019165
      vertex 14.75 15 4
      vertex 11.167000770568848 15 4.46999979019165
    endloop
  endfacet
  facet normal 0 1 0
    outer loop
      vertex 13.690499305725098 15 7.900000095367432
      vertex 14.75 15 4
      vertex 12.832999229431152 15 4.46999979019165
    endloop
  endfacet
  facet normal 0 1 0
    outer loop
      vertex 9.25 15 4
      vertex 10.309500694274902 15 7.900000095367432
      vertex 11.167000770568848 15 4.46999979019165
    endloop
  endfacet
  facet normal 0 1 0
    outer loop
      vertex 10.309500694274902 15 7.900000095367432
      vertex 9.25 15 4
      vertex 8.079999923706055 15 7.900000095367432
    endloop
  endfacet
  facet normal 0 1 0
    outer loop
      vertex 9.25 15 4
      vertex 11.167000770568848 15 4.46999979019165
      vertex 14.75 15 4
    endloop
  endfacet
  facet normal -0.9578262819979533 0 -0.2873478963103386
    outer loop
      vertex 9.25 -14.399999618530273 4
      vertex 8.079999923706055 15 7.900000095367432
      vertex 9.25 15 4
    endloop
  endfacet
  facet normal -0.9578262819979533 0 -0.2873478963103386
    outer loop
      vertex 8.079999923706055 15 7.900000095367432
      vertex 9.25 -14.399999618530273 4
      vertex 8.079999923706055 -14.399999618530273 7.900000095367432
    endloop
  endfacet
  facet normal 0.9578262819979533 0 -0.2873478963103386
    outer loop
      vertex 15.920000076293945 -14.399999618530273 7.900000095367432
      vertex 14.75 15 4
      vertex 15.920000076293945 15 7.900000095367432
    endloop
  endfacet
  facet normal 0.9578262819979533 0 -0.2873478963103386
    outer loop
      vertex 14.75 15 4
      vertex 15.920000076293945 -14.399999618530273 7.900000095367432
      vertex 14.75 -14.399999618530273 4
    endloop
  endfacet
  facet normal 0 0 1
    outer loop
      vertex 11.167000770568848 15 4.46999979019165
      vertex 12.832999229431152 -14.399999618530273 4.46999979019165
      vertex 12.832999229431152 15 4.46999979019165
    endloop
  endfacet
  facet normal 0 0 1
    outer loop
      vertex 12.832999229431152 -14.399999618530273 4.46999979019165
      vertex 11.167000770568848 15 4.46999979019165
      vertex 11.167000770568848 -14.399999618530273 4.46999979019165
    endloop
  endfacet
  facet normal -0.970142500145332 0 0.242535625036333
    outer loop
      vertex 12.832999229431152 -14.399999618530273 4.46999979019165
      vertex 13.690499305725098 15 7.900000095367432
      vertex 12.832999229431152 15 4.46999979019165
    endloop
  endfacet
  facet normal -0.970142500145332 0 0.242535625036333
    outer loop
      vertex 13.690499305725098 15 7.900000095367432
      vertex 12.832999229431152 -14.399999618530273 4.46999979019165
      vertex 13.690499305725098 -14.399999618530273 7.900000095367432
    endloop
  endfacet
  facet normal 0.970142500145332 0 0.242535625036333
    outer loop
      vertex 10.309500694274902 -14.399999618530273 7.900000095367432
      vertex 11.167000770568848 15 4.46999979019165
      vertex 10.309500694274902 15 7.900000095367432
    endloop
  endfacet
  facet normal 0.970142500145332 0 0.242535625036333
    outer loop
      vertex 11.167000770568848 15 4.46999979019165
      vertex 10.309500694274902 -14.399999618530273 7.900000095367432
      vertex 11.167000770568848 -14.399999618530273 4.46999979019165
    endloop
  endfacet
  facet normal -0.7071067811865476 0 -0.7071067811865476
    outer loop
      vertex 7 -19.97808837890625 0.9899492263793945
      vertex 7.9899492263793945 -7.656615257263184 0
      vertex 7.9899492263793945 -19.97808837890625 0
    endloop
  endfacet
  facet normal -0.7071067811865475 0 -0.7071067811865475
    outer loop
      vertex 7.9899492263793945 -7.656615257263184 0
      vertex 7 -19.97808837890625 0.9899492263793945
      vertex 7 -6.666666030883789 0.9899492263793945
    endloop
  endfacet
  facet normal -0.7071067811865476 0 -0.7071067811865476
    outer loop
      vertex 7.9899492263793945 7.656615257263184 0
      vertex 7 19.97808837890625 0.9899492263793945
      vertex 7.9899492263793945 19.97808837890625 0
    endloop
  endfacet
  facet normal -0.7071067811865475 0 -0.7071067811865475
    outer loop
      vertex 7 19.97808837890625 0.9899492263793945
      vertex 7.9899492263793945 7.656615257263184 0
      vertex 7 6.666666030883789 0.9899492263793945
    endloop
  endfacet
  facet normal -0.7071067811865476 0 -0.7071067811865476
    outer loop
      vertex 7.9899492263793945 -5.6767168045043945 0
      vertex 7 6.666666030883789 0.9899492263793945
      vertex 7.9899492263793945 5.6767168045043945 0
    endloop
  endfacet
  facet normal -0.7071067811865475 0 -0.7071067811865475
    outer loop
      vertex 7 6.666666030883789 0.9899492263793945
      vertex 7.9899492263793945 -5.6767168045043945 0
      vertex 7 -6.666666030883789 0.9899492263793945
    endloop
  endfacet
  facet normal 0.7071064405885674 0 -0.7071071217843635
    outer loop
      vertex 6.010049819946289 -7.656615257263184 0
      vertex 7 -19.97808837890625 0.9899492263793945
      vertex 6.010049819946289 -19.97808837890625 0
    endloop
  endfacet
  facet normal 0.7071064405885674 0 -0.7071071217843635
    outer loop
      vertex 7 -19.97808837890625 0.9899492263793945
      vertex 6.010049819946289 -7.656615257263184 0
      vertex 7 -6.666666030883789 0.9899492263793945
    endloop
  endfacet
  facet normal 0.7071064405885674 0 -0.7071071217843635
    outer loop
      vertex 6.010049819946289 7.656615257263184 0
      vertex 7 19.97808837890625 0.9899492263793945
      vertex 7 6.666666030883789 0.9899492263793945
    endloop
  endfacet
  facet normal 0.7071064405885674 0 -0.7071071217843635
    outer loop
      vertex 7 19.97808837890625 0.9899492263793945
      vertex 6.010049819946289 7.656615257263184 0
      vertex 6.010049819946289 19.97808837890625 0
    endloop
  endfacet
  facet normal 0.7071064405885674 0 -0.7071071217843635
    outer loop
      vertex 6.010049819946289 -5.6767168045043945 0
      vertex 7 6.666666030883789 0.9899492263793945
      vertex 7 -6.666666030883789 0.9899492263793945
    endloop
  endfacet
  facet normal 0.7071064405885675 0 -0.7071071217843635
    outer loop
      vertex 7 6.666666030883789 0.9899492263793945
      vertex 6.010049819946289 -5.6767168045043945 0
      vertex 6.010049819946289 5.6767168045043945 0
    endloop
  endfacet
  facet normal -0.7071064405885674 0 -0.7071071217843635
    outer loop
      vertex -7 19.97808837890625 0.9899492263793945
      vertex -6.010049819946289 7.656615257263184 0
      vertex -7 6.666666030883789 0.9899492263793945
    endloop
  endfacet
  facet normal -0.7071064405885674 0 -0.7071071217843635
    outer loop
      vertex -6.010049819946289 7.656615257263184 0
      vertex -7 19.97808837890625 0.9899492263793945
      vertex -6.010049819946289 19.97808837890625 0
    endloop
  endfacet
  facet normal -0.7071064405885674 0 -0.7071071217843635
    outer loop
      vertex -7 -19.97808837890625 0.9899492263793945
      vertex -6.010049819946289 -7.656615257263184 0
      vertex -6.010049819946289 -19.97808837890625 0
    endloop
  endfacet
  facet normal -0.7071064405885674 0 -0.7071071217843635
    outer loop
      vertex -6.010049819946289 -7.656615257263184 0
      vertex -7 -19.97808837890625 0.9899492263793945
      vertex -7 -6.666666030883789 0.9899492263793945
    endloop
  endfacet
  facet normal -0.7071064405885675 0 -0.7071071217843635
    outer loop
      vertex -7 -6.666666030883789 0.9899492263793945
      vertex -6.010049819946289 5.6767168045043945 0
      vertex -6.010049819946289 -5.6767168045043945 0
    endloop
  endfacet
  facet normal -0.7071064405885674 0 -0.7071071217843635
    outer loop
      vertex -6.010049819946289 5.6767168045043945 0
      vertex -7 -6.666666030883789 0.9899492263793945
      vertex -7 6.666666030883789 0.9899492263793945
    endloop
  endfacet
  facet normal 0.7071067811865476 0 -0.7071067811865476
    outer loop
      vertex -7 19.97808837890625 0.9899492263793945
      vertex -7.9899492263793945 7.656615257263184 0
      vertex -7.9899492263793945 19.97808837890625 0
    endloop
  endfacet
  facet normal 0.7071067811865475 0 -0.7071067811865475
    outer loop
      vertex -7.9899492263793945 7.656615257263184 0
      vertex -7 19.97808837890625 0.9899492263793945
      vertex -7 6.666666030883789 0.9899492263793945
    endloop
  endfacet
  facet normal 0.7071067811865475 0 -0.7071067811865475
    outer loop
      vertex -7 -19.97808837890625 0.9899492263793945
      vertex -7.9899492263793945 -7.656615257263184 0
      vertex -7 -6.666666030883789 0.9899492263793945
    endloop
  endfacet
  facet normal 0.7071067811865476 0 -0.7071067811865476
    outer loop
      vertex -7.9899492263793945 -7.656615257263184 0
      vertex -7 -19.97808837890625 0.9899492263793945
      vertex -7.9899492263793945 -19.97808837890625 0
    endloop
  endfacet
  facet normal 0.7071067811865476 0 -0.7071067811865476
    outer loop
      vertex -7 6.666666030883789 0.9899492263793945
      vertex -7.9899492263793945 -5.6767168045043945 0
      vertex -7.9899492263793945 5.6767168045043945 0
    endloop
  endfacet
  facet normal 0.7071067811865475 0 -0.7071067811865475
    outer loop
      vertex -7.9899492263793945 -5.6767168045043945 0
      vertex -7 6.666666030883789 0.9899492263793945
      vertex -7 -6.666666030883789 0.9899492263793945
    endloop
  endfacet
  facet normal 0 0.7071067811865475 -0.7071067811865475
    outer loop
      vertex 6.010049819946289 5.6767168045043945 0
      vertex -7 6.666666030883789 0.9899492263793945
      vertex 7 6.666666030883789 0.9899492263793945
    endloop
  endfacet
  facet normal 0 0.7071067811865475 -0.7071067811865475
    outer loop
      vertex -7 6.666666030883789 0.9899492263793945
      vertex 6.010049819946289 5.6767168045043945 0
      vertex -6.010049819946289 5.6767168045043945 0
    endloop
  endfacet
  facet normal 0 0.7071067811865475 -0.7071067811865475
    outer loop
      vertex -7.9899492263793945 5.6767168045043945 0
      vertex -21 6.666666030883789 0.9899492263793945
      vertex -7 6.666666030883789 0.9899492263793945
    endloop
  endfacet
  facet normal 0 0.7071067811865476 -0.7071067811865476
    outer loop
      vertex -21 6.666666030883789 0.9899492263793945
      vertex -7.9899492263793945 5.6767168045043945 0
      vertex -21 5.6767168045043945 0
    endloop
  endfacet
  facet normal 0 0.7071067811865476 -0.7071067811865476
    outer loop
      vertex 7.9899492263793945 5.6767168045043945 0
      vertex 21 6.666666030883789 0.9899492263793945
      vertex 21 5.6767168045043945 0
    endloop
  endfacet
  facet normal 0 0.7071067811865475 -0.7071067811865475
    outer loop
      vertex 21 6.666666030883789 0.9899492263793945
      vertex 7.9899492263793945 5.6767168045043945 0
      vertex 7 6.666666030883789 0.9899492263793945
    endloop
  endfacet
  facet normal 0 -0.7071067811865475 -0.7071067811865475
    outer loop
      vertex -6.010049819946289 7.656615257263184 0
      vertex 7 6.666666030883789 0.9899492263793945
      vertex -7 6.666666030883789 0.9899492263793945
    endloop
  endfacet
  facet normal 0 -0.7071067811865475 -0.7071067811865475
    outer loop
      vertex 7 6.666666030883789 0.9899492263793945
      vertex -6.010049819946289 7.656615257263184 0
      vertex 6.010049819946289 7.656615257263184 0
    endloop
  endfacet
  facet normal 0 -0.7071067811865476 -0.7071067811865476
    outer loop
      vertex -7.9899492263793945 7.656615257263184 0
      vertex -21 6.666666030883789 0.9899492263793945
      vertex -21 7.656615257263184 0
    endloop
  endfacet
  facet normal 0 -0.7071067811865475 -0.7071067811865475
    outer loop
      vertex -21 6.666666030883789 0.9899492263793945
      vertex -7.9899492263793945 7.656615257263184 0
      vertex -7 6.666666030883789 0.9899492263793945
    endloop
  endfacet
  facet normal 0 -0.7071067811865475 -0.7071067811865475
    outer loop
      vertex 7.9899492263793945 7.656615257263184 0
      vertex 21 6.666666030883789 0.9899492263793945
      vertex 7 6.666666030883789 0.9899492263793945
    endloop
  endfacet
  facet normal 0 -0.7071067811865476 -0.7071067811865476
    outer loop
      vertex 21 6.666666030883789 0.9899492263793945
      vertex 7.9899492263793945 7.656615257263184 0
      vertex 21 7.656615257263184 0
    endloop
  endfacet
  facet normal 0 0.7071067811865475 -0.7071067811865475
    outer loop
      vertex 6.010049819946289 -7.656615257263184 0
      vertex -7 -6.666666030883789 0.9899492263793945
      vertex 7 -6.666666030883789 0.9899492263793945
    endloop
  endfacet
  facet normal 0 0.7071067811865475 -0.7071067811865475
    outer loop
      vertex -7 -6.666666030883789 0.9899492263793945
      vertex 6.010049819946289 -7.656615257263184 0
      vertex -6.010049819946289 -7.656615257263184 0
    endloop
  endfacet
  facet normal 0 0.7071067811865475 -0.7071067811865475
    outer loop
      vertex -7.9899492263793945 -7.656615257263184 0
      vertex -21 -6.666666030883789 0.9899492263793945
      vertex -7 -6.666666030883789 0.9899492263793945
    endloop
  endfacet
  facet normal 0 0.7071067811865476 -0.7071067811865476
    outer loop
      vertex -21 -6.666666030883789 0.9899492263793945
      vertex -7.9899492263793945 -7.656615257263184 0
      vertex -21 -7.656615257263184 0
    endloop
  endfacet
  facet normal 0 0.7071067811865476 -0.7071067811865476
    outer loop
      vertex 7.9899492263793945 -7.656615257263184 0
      vertex 21 -6.666666030883789 0.9899492263793945
      vertex 21 -7.656615257263184 0
    endloop
  endfacet
  facet normal 0 0.7071067811865475 -0.7071067811865475
    outer loop
      vertex 21 -6.666666030883789 0.9899492263793945
      vertex 7.9899492263793945 -7.656615257263184 0
      vertex 7 -6.666666030883789 0.9899492263793945
    endloop
  endfacet
  facet normal 0 -0.7071067811865475 -0.7071067811865475
    outer loop
      vertex -6.010049819946289 -5.6767168045043945 0
      vertex 7 -6.666666030883789 0.9899492263793945
      vertex -7 -6.666666030883789 0.9899492263793945
    endloop
  endfacet
  facet normal 0 -0.7071067811865475 -0.7071067811865475
    outer loop
      vertex 7 -6.666666030883789 0.9899492263793945
      vertex -6.010049819946289 -5.6767168045043945 0
      vertex 6.010049819946289 -5.6767168045043945 0
    endloop
  endfacet
  facet normal 0 -0.7071067811865476 -0.7071067811865476
    outer loop
      vertex -7.9899492263793945 -5.6767168045043945 0
      vertex -21 -6.666666030883789 0.9899492263793945
      vertex -21 -5.6767168045043945 0
    endloop
  endfacet
  facet normal 0 -0.7071067811865475 -0.7071067811865475
    outer loop
      vertex -21 -6.666666030883789 0.9899492263793945
      vertex -7.9899492263793945 -5.6767168045043945 0
      vertex -7 -6.666666030883789 0.9899492263793945
    endloop
  endfacet
  facet normal 0 -0.7071067811865475 -0.7071067811865475
    outer loop
      vertex 7.9899492263793945 -5.6767168045043945 0
      vertex 21 -6.666666030883789 0.9899492263793945
      vertex 7 -6.666666030883789 0.9899492263793945
    endloop
  endfacet
  facet normal 0 -0.7071067811865476 -0.7071067811865476
    outer loop
      vertex 21 -6.666666030883789 0.9899492263793945
      vertex 7.9899492263793945 -5.6767168045043945 0
      vertex 21 -5.6767168045043945 0
    endloop
  endfacet
endsolid OpenSCAD_Model
