solid OpenSCAD_Model
  facet normal 0 0 1
    outer loop
      vertex 6 -8 3
      vertex 1.6 -11 3
      vertex 6 -15 3
    endloop
  endfacet
  facet normal 0 0 1
    outer loop
      vertex 6 -8 3
      vertex 1.56504 -10.6673 3
      vertex 1.6 -11 3
    endloop
  endfacet
  facet normal 0 0 1
    outer loop
      vertex 6 -8 3
      vertex 1.46167 -10.3492 3
      vertex 1.56504 -10.6673 3
    endloop
  endfacet
  facet normal 0 0 1
    outer loop
      vertex 6 -8 3
      vertex 1.29443 -10.0595 3
      vertex 1.46167 -10.3492 3
    endloop
  endfacet
  facet normal 0 0 1
    outer loop
      vertex 6 -8 3
      vertex 1.07061 -9.81097 3
      vertex 1.29443 -10.0595 3
    endloop
  endfacet
  facet normal 0 0 1
    outer loop
      vertex 6 -8 3
      vertex 0.799999 -9.61436 3
      vertex 1.07061 -9.81097 3
    endloop
  endfacet
  facet normal 0 0 1
    outer loop
      vertex 6 -8 3
      vertex 0.494427 -9.47831 3
      vertex 0.799999 -9.61436 3
    endloop
  endfacet
  facet normal 0 0 1
    outer loop
      vertex 6 -8 3
      vertex 0.167245 -9.40876 3
      vertex 0.494427 -9.47831 3
    endloop
  endfacet
  facet normal -0 0 1
    outer loop
      vertex -5.12893 -8 3
      vertex 0.167245 -9.40876 3
      vertex 6 -8 3
    endloop
  endfacet
  facet normal 0 0 1
    outer loop
      vertex 0.167245 -9.40876 3
      vertex -5.12893 -8 3
      vertex -0.167245 -9.40876 3
    endloop
  endfacet
  facet normal 0 0 1
    outer loop
      vertex -1.56504 -10.6673 3
      vertex -5.12893 -8 3
      vertex -1.6 -11 3
    endloop
  endfacet
  facet normal 0 0 1
    outer loop
      vertex -1.46167 -10.3492 3
      vertex -5.12893 -8 3
      vertex -1.56504 -10.6673 3
    endloop
  endfacet
  facet normal 0 0 1
    outer loop
      vertex -1.29443 -10.0595 3
      vertex -5.12893 -8 3
      vertex -1.46167 -10.3492 3
    endloop
  endfacet
  facet normal 0 0 1
    outer loop
      vertex -1.07061 -9.81097 3
      vertex -5.12893 -8 3
      vertex -1.29443 -10.0595 3
    endloop
  endfacet
  facet normal 0 0 1
    outer loop
      vertex -0.799999 -9.61436 3
      vertex -5.12893 -8 3
      vertex -1.07061 -9.81097 3
    endloop
  endfacet
  facet normal 0 0 1
    outer loop
      vertex -0.494427 -9.47831 3
      vertex -5.12893 -8 3
      vertex -0.799999 -9.61436 3
    endloop
  endfacet
  facet normal 0 0 1
    outer loop
      vertex -0.167245 -9.40876 3
      vertex -5.12893 -8 3
      vertex -0.494427 -9.47831 3
    endloop
  endfacet
  facet normal -0 0 1
    outer loop
      vertex 1.56504 -11.3327 3
      vertex 6 -15 3
      vertex 1.6 -11 3
    endloop
  endfacet
  facet normal -0 0 1
    outer loop
      vertex 1.46167 -11.6508 3
      vertex 6 -15 3
      vertex 1.56504 -11.3327 3
    endloop
  endfacet
  facet normal -0 0 1
    outer loop
      vertex 1.29443 -11.9405 3
      vertex 6 -15 3
      vertex 1.46167 -11.6508 3
    endloop
  endfacet
  facet normal -0 0 1
    outer loop
      vertex 1.07061 -12.189 3
      vertex 6 -15 3
      vertex 1.29443 -11.9405 3
    endloop
  endfacet
  facet normal -0 0 1
    outer loop
      vertex 0.799999 -12.3856 3
      vertex 6 -15 3
      vertex 1.07061 -12.189 3
    endloop
  endfacet
  facet normal -0 0 1
    outer loop
      vertex 0.494427 -12.5217 3
      vertex 6 -15 3
      vertex 0.799999 -12.3856 3
    endloop
  endfacet
  facet normal -0 0 1
    outer loop
      vertex 0.167245 -12.5912 3
      vertex 6 -15 3
      vertex 0.494427 -12.5217 3
    endloop
  endfacet
  facet normal 0 0 1
    outer loop
      vertex -5.12893 -15 3
      vertex 0.167245 -12.5912 3
      vertex -0.167245 -12.5912 3
    endloop
  endfacet
  facet normal 0 0 1
    outer loop
      vertex -5.12893 -15 3
      vertex -0.167245 -12.5912 3
      vertex -0.494427 -12.5217 3
    endloop
  endfacet
  facet normal 0 0 1
    outer loop
      vertex -5.12893 -8 3
      vertex -1.56504 -11.3327 3
      vertex -1.6 -11 3
    endloop
  endfacet
  facet normal 0 0 1
    outer loop
      vertex -5.12893 -15 3
      vertex -1.56504 -11.3327 3
      vertex -5.12893 -8 3
    endloop
  endfacet
  facet normal 0 0 1
    outer loop
      vertex -1.56504 -11.3327 3
      vertex -5.12893 -15 3
      vertex -1.46167 -11.6508 3
    endloop
  endfacet
  facet normal 0 0 1
    outer loop
      vertex -1.46167 -11.6508 3
      vertex -5.12893 -15 3
      vertex -1.29443 -11.9405 3
    endloop
  endfacet
  facet normal 0 0 1
    outer loop
      vertex 0.167245 -12.5912 3
      vertex -5.12893 -15 3
      vertex 6 -15 3
    endloop
  endfacet
  facet normal 0 0 1
    outer loop
      vertex -0.799999 -12.3856 3
      vertex -5.12893 -15 3
      vertex -0.494427 -12.5217 3
    endloop
  endfacet
  facet normal 0 0 1
    outer loop
      vertex -1.07061 -12.189 3
      vertex -5.12893 -15 3
      vertex -0.799999 -12.3856 3
    endloop
  endfacet
  facet normal 0 0 1
    outer loop
      vertex -1.29443 -11.9405 3
      vertex -5.12893 -15 3
      vertex -1.07061 -12.189 3
    endloop
  endfacet
  facet normal 0 0 1
    outer loop
      vertex 6 15 3
      vertex 1.6 11 3
      vertex 6 8 3
    endloop
  endfacet
  facet normal 0 0 1
    outer loop
      vertex 6 15 3
      vertex 1.56504 11.3327 3
      vertex 1.6 11 3
    endloop
  endfacet
  facet normal 0 0 1
    outer loop
      vertex 6 15 3
      vertex 1.46167 11.6508 3
      vertex 1.56504 11.3327 3
    endloop
  endfacet
  facet normal 0 0 1
    outer loop
      vertex 6 15 3
      vertex 1.29443 11.9405 3
      vertex 1.46167 11.6508 3
    endloop
  endfacet
  facet normal 0 0 1
    outer loop
      vertex 6 15 3
      vertex 1.07061 12.189 3
      vertex 1.29443 11.9405 3
    endloop
  endfacet
  facet normal 0 0 1
    outer loop
      vertex 6 15 3
      vertex 0.799999 12.3856 3
      vertex 1.07061 12.189 3
    endloop
  endfacet
  facet normal 0 0 1
    outer loop
      vertex 6 15 3
      vertex 0.494427 12.5217 3
      vertex 0.799999 12.3856 3
    endloop
  endfacet
  facet normal 0 0 1
    outer loop
      vertex 6 15 3
      vertex 0.167245 12.5912 3
      vertex 0.494427 12.5217 3
    endloop
  endfacet
  facet normal -0 0 1
    outer loop
      vertex -5.12893 15 3
      vertex 0.167245 12.5912 3
      vertex 6 15 3
    endloop
  endfacet
  facet normal 0 0 1
    outer loop
      vertex 0.167245 12.5912 3
      vertex -5.12893 15 3
      vertex -0.167245 12.5912 3
    endloop
  endfacet
  facet normal 0 0 1
    outer loop
      vertex -1.56504 11.3327 3
      vertex -5.12893 15 3
      vertex -1.6 11 3
    endloop
  endfacet
  facet normal 0 0 1
    outer loop
      vertex -1.46167 11.6508 3
      vertex -5.12893 15 3
      vertex -1.56504 11.3327 3
    endloop
  endfacet
  facet normal 0 0 1
    outer loop
      vertex -1.29443 11.9405 3
      vertex -5.12893 15 3
      vertex -1.46167 11.6508 3
    endloop
  endfacet
  facet normal 0 0 1
    outer loop
      vertex -1.07061 12.189 3
      vertex -5.12893 15 3
      vertex -1.29443 11.9405 3
    endloop
  endfacet
  facet normal 0 0 1
    outer loop
      vertex -0.799999 12.3856 3
      vertex -5.12893 15 3
      vertex -1.07061 12.189 3
    endloop
  endfacet
  facet normal 0 0 1
    outer loop
      vertex -0.494427 12.5217 3
      vertex -5.12893 15 3
      vertex -0.799999 12.3856 3
    endloop
  endfacet
  facet normal 0 0 1
    outer loop
      vertex -0.167245 12.5912 3
      vertex -5.12893 15 3
      vertex -0.494427 12.5217 3
    endloop
  endfacet
  facet normal -0 0 1
    outer loop
      vertex 1.56504 10.6673 3
      vertex 6 8 3
      vertex 1.6 11 3
    endloop
  endfacet
  facet normal -0 0 1
    outer loop
      vertex 1.46167 10.3492 3
      vertex 6 8 3
      vertex 1.56504 10.6673 3
    endloop
  endfacet
  facet normal -0 0 1
    outer loop
      vertex 1.29443 10.0595 3
      vertex 6 8 3
      vertex 1.46167 10.3492 3
    endloop
  endfacet
  facet normal -0 0 1
    outer loop
      vertex 1.07061 9.81097 3
      vertex 6 8 3
      vertex 1.29443 10.0595 3
    endloop
  endfacet
  facet normal -0 0 1
    outer loop
      vertex 0.799999 9.61436 3
      vertex 6 8 3
      vertex 1.07061 9.81097 3
    endloop
  endfacet
  facet normal -0 0 1
    outer loop
      vertex 0.494427 9.47831 3
      vertex 6 8 3
      vertex 0.799999 9.61436 3
    endloop
  endfacet
  facet normal -0 0 1
    outer loop
      vertex 0.167245 9.40876 3
      vertex 6 8 3
      vertex 0.494427 9.47831 3
    endloop
  endfacet
  facet normal 0 0 1
    outer loop
      vertex -5.12893 8 3
      vertex 0.167245 9.40876 3
      vertex -0.167245 9.40876 3
    endloop
  endfacet
  facet normal 0 0 1
    outer loop
      vertex -5.12893 8 3
      vertex -0.167245 9.40876 3
      vertex -0.494427 9.47831 3
    endloop
  endfacet
  facet normal 0 0 1
    outer loop
      vertex -5.12893 8 3
      vertex -1.6 11 3
      vertex -5.12893 15 3
    endloop
  endfacet
  facet normal 0 0 1
    outer loop
      vertex -1.6 11 3
      vertex -5.12893 8 3
      vertex -1.56504 10.6673 3
    endloop
  endfacet
  facet normal 0 0 1
    outer loop
      vertex -1.56504 10.6673 3
      vertex -5.12893 8 3
      vertex -1.46167 10.3492 3
    endloop
  endfacet
  facet normal 0 0 1
    outer loop
      vertex 0.167245 9.40876 3
      vertex -5.12893 8 3
      vertex 6 8 3
    endloop
  endfacet
  facet normal 0 0 1
    outer loop
      vertex -0.799999 9.61436 3
      vertex -5.12893 8 3
      vertex -0.494427 9.47831 3
    endloop
  endfacet
  facet normal 0 0 1
    outer loop
      vertex -1.07061 9.81097 3
      vertex -5.12893 8 3
      vertex -0.799999 9.61436 3
    endloop
  endfacet
  facet normal 0 0 1
    outer loop
      vertex -1.29443 10.0595 3
      vertex -5.12893 8 3
      vertex -1.07061 9.81097 3
    endloop
  endfacet
  facet normal 0 0 1
    outer loop
      vertex -1.46167 10.3492 3
      vertex -5.12893 8 3
      vertex -1.29443 10.0595 3
    endloop
  endfacet
  facet normal 1 0 0
    outer loop
      vertex 6 8 3.7
      vertex 6 -8 3.7
      vertex 6 8 3
    endloop
  endfacet
  facet normal 1 -0 0
    outer loop
      vertex 6 8 3
      vertex 6 15 0
      vertex 6 15 3
    endloop
  endfacet
  facet normal 1 0 0
    outer loop
      vertex 6 -8 3
      vertex 6 8 3
      vertex 6 -8 3.7
    endloop
  endfacet
  facet normal 1 0 0
    outer loop
      vertex 6 8 3
      vertex 6 -8 3
      vertex 6 15 0
    endloop
  endfacet
  facet normal 1 0 0
    outer loop
      vertex 6 -15 0
      vertex 6 -8 3
      vertex 6 -15 3
    endloop
  endfacet
  facet normal 1 0 0
    outer loop
      vertex 6 -8 3
      vertex 6 -15 0
      vertex 6 15 0
    endloop
  endfacet
  facet normal 0 1 0
    outer loop
      vertex -2.12893 15 0
      vertex 6 15 3
      vertex 6 15 0
    endloop
  endfacet
  facet normal 0 1 0
    outer loop
      vertex 6 15 3
      vertex -2.12893 15 0
      vertex -5.12893 15 3
    endloop
  endfacet
  facet normal 0 0 -1
    outer loop
      vertex 1.29443 -10.0595 0
      vertex 6 -15 0
      vertex 1.46167 -10.3492 0
    endloop
  endfacet
  facet normal 0 0 -1
    outer loop
      vertex 6 15 0
      vertex 1.56504 10.6673 0
      vertex 1.6 11 0
    endloop
  endfacet
  facet normal 0 0 -1
    outer loop
      vertex 6 -15 0
      vertex 1.29443 -10.0595 0
      vertex 6 15 0
    endloop
  endfacet
  facet normal 0 0 -1
    outer loop
      vertex 6 15 0
      vertex 1.46167 10.3492 0
      vertex 1.56504 10.6673 0
    endloop
  endfacet
  facet normal 0 0 -1
    outer loop
      vertex 1.29443 10.0595 0
      vertex 6 15 0
      vertex 1.29443 -10.0595 0
    endloop
  endfacet
  facet normal 0 0 -1
    outer loop
      vertex 6 15 0
      vertex 1.29443 10.0595 0
      vertex 1.46167 10.3492 0
    endloop
  endfacet
  facet normal 0 0 -1
    outer loop
      vertex 1.07061 -9.81097 0
      vertex 1.29443 10.0595 0
      vertex 1.29443 -10.0595 0
    endloop
  endfacet
  facet normal 0 0 -1
    outer loop
      vertex 1.07061 -9.81097 0
      vertex 1.07061 9.81097 0
      vertex 1.29443 10.0595 0
    endloop
  endfacet
  facet normal 0 0 -1
    outer loop
      vertex 0.799999 -9.61436 0
      vertex 1.07061 9.81097 0
      vertex 1.07061 -9.81097 0
    endloop
  endfacet
  facet normal 0 0 -1
    outer loop
      vertex 0.799999 -9.61436 0
      vertex 0.799999 9.61436 0
      vertex 1.07061 9.81097 0
    endloop
  endfacet
  facet normal 0 0 -1
    outer loop
      vertex 0.494427 -9.47831 0
      vertex 0.799999 9.61436 0
      vertex 0.799999 -9.61436 0
    endloop
  endfacet
  facet normal 0 0 -1
    outer loop
      vertex 0.494427 -9.47831 0
      vertex 0.494427 9.47831 0
      vertex 0.799999 9.61436 0
    endloop
  endfacet
  facet normal 0 0 -1
    outer loop
      vertex 0.167245 -9.40876 0
      vertex 0.494427 9.47831 0
      vertex 0.494427 -9.47831 0
    endloop
  endfacet
  facet normal 0 0 -1
    outer loop
      vertex 0.167245 -9.40876 0
      vertex 0.167245 9.40876 0
      vertex 0.494427 9.47831 0
    endloop
  endfacet
  facet normal 0 0 -1
    outer loop
      vertex -0.167245 -9.40876 0
      vertex 0.167245 9.40876 0
      vertex 0.167245 -9.40876 0
    endloop
  endfacet
  facet normal 0 0 -1
    outer loop
      vertex -0.167245 -9.40876 0
      vertex -0.167245 9.40876 0
      vertex 0.167245 9.40876 0
    endloop
  endfacet
  facet normal 0 0 -1
    outer loop
      vertex -0.494427 -9.47831 0
      vertex -0.167245 9.40876 0
      vertex -0.167245 -9.40876 0
    endloop
  endfacet
  facet normal 0 0 -1
    outer loop
      vertex -0.494427 -9.47831 0
      vertex -0.494427 9.47831 0
      vertex -0.167245 9.40876 0
    endloop
  endfacet
  facet normal 0 0 -1
    outer loop
      vertex -0.799999 -9.61436 0
      vertex -0.494427 9.47831 0
      vertex -0.494427 -9.47831 0
    endloop
  endfacet
  facet normal 0 0 -1
    outer loop
      vertex -0.799999 -9.61436 0
      vertex -0.799999 9.61436 0
      vertex -0.494427 9.47831 0
    endloop
  endfacet
  facet normal 0 0 -1
    outer loop
      vertex -1.07061 -9.81097 0
      vertex -0.799999 9.61436 0
      vertex -0.799999 -9.61436 0
    endloop
  endfacet
  facet normal 0 0 -1
    outer loop
      vertex -1.07061 -9.81097 0
      vertex -1.07061 9.81097 0
      vertex -0.799999 9.61436 0
    endloop
  endfacet
  facet normal 0 0 -1
    outer loop
      vertex -1.29443 -10.0595 0
      vertex -1.07061 9.81097 0
      vertex -1.07061 -9.81097 0
    endloop
  endfacet
  facet normal 0 0 -1
    outer loop
      vertex -1.29443 -10.0595 0
      vertex -1.29443 10.0595 0
      vertex -1.07061 9.81097 0
    endloop
  endfacet
  facet normal 0 0 -1
    outer loop
      vertex -1.46167 -10.3492 0
      vertex -1.29443 10.0595 0
      vertex -1.29443 -10.0595 0
    endloop
  endfacet
  facet normal 0 0 -1
    outer loop
      vertex -1.46167 -10.3492 0
      vertex -1.46167 10.3492 0
      vertex -1.29443 10.0595 0
    endloop
  endfacet
  facet normal 0 0 -1
    outer loop
      vertex -1.56504 -10.6673 0
      vertex -1.46167 10.3492 0
      vertex -1.46167 -10.3492 0
    endloop
  endfacet
  facet normal 0 0 -1
    outer loop
      vertex -1.56504 -10.6673 0
      vertex -1.56504 10.6673 0
      vertex -1.46167 10.3492 0
    endloop
  endfacet
  facet normal 0 0 -1
    outer loop
      vertex -1.6 -11 0
      vertex -1.56504 10.6673 0
      vertex -1.56504 -10.6673 0
    endloop
  endfacet
  facet normal -0 0 -1
    outer loop
      vertex -1.56504 10.6673 0
      vertex -1.6 -11 0
      vertex -1.6 11 0
    endloop
  endfacet
  facet normal 0 0 -1
    outer loop
      vertex 1.56504 -10.6673 0
      vertex 6 -15 0
      vertex 1.6 -11 0
    endloop
  endfacet
  facet normal 0 0 -1
    outer loop
      vertex 6 -15 0
      vertex 1.56504 -11.3327 0
      vertex 1.6 -11 0
    endloop
  endfacet
  facet normal 0 0 -1
    outer loop
      vertex 6 -15 0
      vertex 1.46167 -11.6508 0
      vertex 1.56504 -11.3327 0
    endloop
  endfacet
  facet normal 0 0 -1
    outer loop
      vertex 6 -15 0
      vertex 1.29443 -11.9405 0
      vertex 1.46167 -11.6508 0
    endloop
  endfacet
  facet normal 0 0 -1
    outer loop
      vertex 6 -15 0
      vertex 1.07061 -12.189 0
      vertex 1.29443 -11.9405 0
    endloop
  endfacet
  facet normal 0 0 -1
    outer loop
      vertex 6 -15 0
      vertex 0.799999 -12.3856 0
      vertex 1.07061 -12.189 0
    endloop
  endfacet
  facet normal 0 0 -1
    outer loop
      vertex 6 -15 0
      vertex 0.494427 -12.5217 0
      vertex 0.799999 -12.3856 0
    endloop
  endfacet
  facet normal 0 0 -1
    outer loop
      vertex -2.12893 -15 0
      vertex 0.494427 -12.5217 0
      vertex 6 -15 0
    endloop
  endfacet
  facet normal 0 0 -1
    outer loop
      vertex 0.494427 -12.5217 0
      vertex -2.12893 -15 0
      vertex 0.167245 -12.5912 0
    endloop
  endfacet
  facet normal -0 0 -1
    outer loop
      vertex 0.167245 -12.5912 0
      vertex -2.12893 -15 0
      vertex -0.167245 -12.5912 0
    endloop
  endfacet
  facet normal -0 0 -1
    outer loop
      vertex -1.6 -11 0
      vertex -2.12893 -15 0
      vertex -1.6 11 0
    endloop
  endfacet
  facet normal -0 0 -1
    outer loop
      vertex -1.56504 -11.3327 0
      vertex -2.12893 -15 0
      vertex -1.6 -11 0
    endloop
  endfacet
  facet normal -0 0 -1
    outer loop
      vertex -1.46167 -11.6508 0
      vertex -2.12893 -15 0
      vertex -1.56504 -11.3327 0
    endloop
  endfacet
  facet normal -0 0 -1
    outer loop
      vertex -1.29443 -11.9405 0
      vertex -2.12893 -15 0
      vertex -1.46167 -11.6508 0
    endloop
  endfacet
  facet normal -0 0 -1
    outer loop
      vertex -1.07061 -12.189 0
      vertex -2.12893 -15 0
      vertex -1.29443 -11.9405 0
    endloop
  endfacet
  facet normal -0 0 -1
    outer loop
      vertex -0.799999 -12.3856 0
      vertex -2.12893 -15 0
      vertex -1.07061 -12.189 0
    endloop
  endfacet
  facet normal -0 0 -1
    outer loop
      vertex -0.494427 -12.5217 0
      vertex -2.12893 -15 0
      vertex -0.799999 -12.3856 0
    endloop
  endfacet
  facet normal -0 0 -1
    outer loop
      vertex -0.167245 -12.5912 0
      vertex -2.12893 -15 0
      vertex -0.494427 -12.5217 0
    endloop
  endfacet
  facet normal 0 0 -1
    outer loop
      vertex 1.46167 -10.3492 0
      vertex 6 -15 0
      vertex 1.56504 -10.6673 0
    endloop
  endfacet
  facet normal 0 0 -1
    outer loop
      vertex 1.56504 11.3327 0
      vertex 6 15 0
      vertex 1.6 11 0
    endloop
  endfacet
  facet normal 0 0 -1
    outer loop
      vertex 1.46167 11.6508 0
      vertex 6 15 0
      vertex 1.56504 11.3327 0
    endloop
  endfacet
  facet normal 0 0 -1
    outer loop
      vertex 1.29443 11.9405 0
      vertex 6 15 0
      vertex 1.46167 11.6508 0
    endloop
  endfacet
  facet normal 0 0 -1
    outer loop
      vertex 1.07061 12.189 0
      vertex 6 15 0
      vertex 1.29443 11.9405 0
    endloop
  endfacet
  facet normal 0 0 -1
    outer loop
      vertex 0.799999 12.3856 0
      vertex 6 15 0
      vertex 1.07061 12.189 0
    endloop
  endfacet
  facet normal 0 0 -1
    outer loop
      vertex 0.494427 12.5217 0
      vertex 6 15 0
      vertex 0.799999 12.3856 0
    endloop
  endfacet
  facet normal 0 0 -1
    outer loop
      vertex -2.12893 15 0
      vertex 0.494427 12.5217 0
      vertex 0.167245 12.5912 0
    endloop
  endfacet
  facet normal 0 0 -1
    outer loop
      vertex -2.12893 15 0
      vertex 0.167245 12.5912 0
      vertex -0.167245 12.5912 0
    endloop
  endfacet
  facet normal 0 0 -1
    outer loop
      vertex -2.12893 15 0
      vertex -0.167245 12.5912 0
      vertex -0.494427 12.5217 0
    endloop
  endfacet
  facet normal 0 0 -1
    outer loop
      vertex 0.494427 12.5217 0
      vertex -2.12893 15 0
      vertex 6 15 0
    endloop
  endfacet
  facet normal 0 0 -1
    outer loop
      vertex -0.799999 12.3856 0
      vertex -2.12893 15 0
      vertex -0.494427 12.5217 0
    endloop
  endfacet
  facet normal 0 0 -1
    outer loop
      vertex -1.07061 12.189 0
      vertex -2.12893 15 0
      vertex -0.799999 12.3856 0
    endloop
  endfacet
  facet normal 0 0 -1
    outer loop
      vertex -1.29443 11.9405 0
      vertex -2.12893 15 0
      vertex -1.07061 12.189 0
    endloop
  endfacet
  facet normal 0 0 -1
    outer loop
      vertex -1.46167 11.6508 0
      vertex -2.12893 15 0
      vertex -1.29443 11.9405 0
    endloop
  endfacet
  facet normal 0 0 -1
    outer loop
      vertex -1.56504 11.3327 0
      vertex -2.12893 15 0
      vertex -1.46167 11.6508 0
    endloop
  endfacet
  facet normal 0 0 -1
    outer loop
      vertex -1.6 11 0
      vertex -2.12893 15 0
      vertex -1.56504 11.3327 0
    endloop
  endfacet
  facet normal 0 0 -1
    outer loop
      vertex -2.12893 15 0
      vertex -1.6 11 0
      vertex -2.12893 -15 0
    endloop
  endfacet
  facet normal 0 -1 0
    outer loop
      vertex -2.12893 -15 0
      vertex 6 -15 3
      vertex -5.12893 -15 3
    endloop
  endfacet
  facet normal 0 -1 -0
    outer loop
      vertex 6 -15 3
      vertex -2.12893 -15 0
      vertex 6 -15 0
    endloop
  endfacet
  facet normal -0 0 1
    outer loop
      vertex -5.82893 8 3.7
      vertex 6 -8 3.7
      vertex 6 8 3.7
    endloop
  endfacet
  facet normal 0 0 1
    outer loop
      vertex 6 -8 3.7
      vertex -5.82893 8 3.7
      vertex -5.82893 -8 3.7
    endloop
  endfacet
  facet normal 0 -1 0
    outer loop
      vertex -5.12893 -8 3
      vertex 6 -8 3.7
      vertex -5.82893 -8 3.7
    endloop
  endfacet
  facet normal 0 -1 -0
    outer loop
      vertex 6 -8 3.7
      vertex -5.12893 -8 3
      vertex 6 -8 3
    endloop
  endfacet
  facet normal 0 1 0
    outer loop
      vertex -5.12893 8 3
      vertex 6 8 3.7
      vertex 6 8 3
    endloop
  endfacet
  facet normal 0 1 0
    outer loop
      vertex 6 8 3.7
      vertex -5.12893 8 3
      vertex -5.82893 8 3.7
    endloop
  endfacet
  facet normal -0.866049 -0.499959 0
    outer loop
      vertex 1.46167 11.6508 0
      vertex 1.29443 11.9405 3
      vertex 1.29443 11.9405 0
    endloop
  endfacet
  facet normal -0.866049 -0.499959 0
    outer loop
      vertex 1.29443 11.9405 3
      vertex 1.46167 11.6508 0
      vertex 1.46167 11.6508 3
    endloop
  endfacet
  facet normal 0.994524 -0.104504 0
    outer loop
      vertex -1.6 11 3
      vertex -1.56504 11.3327 0
      vertex -1.56504 11.3327 3
    endloop
  endfacet
  facet normal 0.994524 -0.104504 0
    outer loop
      vertex -1.56504 11.3327 0
      vertex -1.6 11 3
      vertex -1.6 11 0
    endloop
  endfacet
  facet normal -0.743041 -0.669246 0
    outer loop
      vertex 1.29443 11.9405 0
      vertex 1.07061 12.189 3
      vertex 1.07061 12.189 0
    endloop
  endfacet
  facet normal -0.743041 -0.669246 0
    outer loop
      vertex 1.07061 12.189 3
      vertex 1.29443 11.9405 0
      vertex 1.29443 11.9405 3
    endloop
  endfacet
  facet normal -0.207784 -0.978175 0
    outer loop
      vertex 0.167245 12.5912 0
      vertex 0.494427 12.5217 3
      vertex 0.167245 12.5912 3
    endloop
  endfacet
  facet normal -0.207784 -0.978175 -0
    outer loop
      vertex 0.494427 12.5217 3
      vertex 0.167245 12.5912 0
      vertex 0.494427 12.5217 0
    endloop
  endfacet
  facet normal 0.587765 -0.809032 0
    outer loop
      vertex -1.07061 12.189 0
      vertex -0.799999 12.3856 3
      vertex -1.07061 12.189 3
    endloop
  endfacet
  facet normal 0.587765 -0.809032 0
    outer loop
      vertex -0.799999 12.3856 3
      vertex -1.07061 12.189 0
      vertex -0.799999 12.3856 0
    endloop
  endfacet
  facet normal 0.951045 -0.309052 0
    outer loop
      vertex -1.56504 11.3327 3
      vertex -1.46167 11.6508 0
      vertex -1.46167 11.6508 3
    endloop
  endfacet
  facet normal 0.951045 -0.309052 0
    outer loop
      vertex -1.46167 11.6508 0
      vertex -1.56504 11.3327 3
      vertex -1.56504 11.3327 0
    endloop
  endfacet
  facet normal 0.743041 -0.669246 0
    outer loop
      vertex -1.29443 11.9405 3
      vertex -1.07061 12.189 0
      vertex -1.07061 12.189 3
    endloop
  endfacet
  facet normal 0.743041 -0.669246 0
    outer loop
      vertex -1.07061 12.189 0
      vertex -1.29443 11.9405 3
      vertex -1.29443 11.9405 0
    endloop
  endfacet
  facet normal -0.994524 0.104504 0
    outer loop
      vertex 1.56504 10.6673 0
      vertex 1.6 11 3
      vertex 1.6 11 0
    endloop
  endfacet
  facet normal -0.994524 0.104504 0
    outer loop
      vertex 1.6 11 3
      vertex 1.56504 10.6673 0
      vertex 1.56504 10.6673 3
    endloop
  endfacet
  facet normal -0.406738 0.913545 0
    outer loop
      vertex 0.799999 9.61436 0
      vertex 0.494427 9.47831 3
      vertex 0.799999 9.61436 3
    endloop
  endfacet
  facet normal -0.406738 0.913545 0
    outer loop
      vertex 0.494427 9.47831 3
      vertex 0.799999 9.61436 0
      vertex 0.494427 9.47831 0
    endloop
  endfacet
  facet normal -0.587765 -0.809032 0
    outer loop
      vertex 0.799999 12.3856 0
      vertex 1.07061 12.189 3
      vertex 0.799999 12.3856 3
    endloop
  endfacet
  facet normal -0.587765 -0.809032 -0
    outer loop
      vertex 1.07061 12.189 3
      vertex 0.799999 12.3856 0
      vertex 1.07061 12.189 0
    endloop
  endfacet
  facet normal 0.207784 -0.978175 0
    outer loop
      vertex -0.494427 12.5217 0
      vertex -0.167245 12.5912 3
      vertex -0.494427 12.5217 3
    endloop
  endfacet
  facet normal 0.207784 -0.978175 0
    outer loop
      vertex -0.167245 12.5912 3
      vertex -0.494427 12.5217 0
      vertex -0.167245 12.5912 0
    endloop
  endfacet
  facet normal -0.406863 -0.913489 0
    outer loop
      vertex 0.494427 12.5217 0
      vertex 0.799999 12.3856 3
      vertex 0.494427 12.5217 3
    endloop
  endfacet
  facet normal -0.406863 -0.913489 -0
    outer loop
      vertex 0.799999 12.3856 3
      vertex 0.494427 12.5217 0
      vertex 0.799999 12.3856 0
    endloop
  endfacet
  facet normal 0.994524 0.104504 0
    outer loop
      vertex -1.56504 10.6673 3
      vertex -1.6 11 0
      vertex -1.6 11 3
    endloop
  endfacet
  facet normal 0.994524 0.104504 0
    outer loop
      vertex -1.6 11 0
      vertex -1.56504 10.6673 3
      vertex -1.56504 10.6673 0
    endloop
  endfacet
  facet normal 0.866049 -0.499959 0
    outer loop
      vertex -1.46167 11.6508 3
      vertex -1.29443 11.9405 0
      vertex -1.29443 11.9405 3
    endloop
  endfacet
  facet normal 0.866049 -0.499959 0
    outer loop
      vertex -1.29443 11.9405 0
      vertex -1.46167 11.6508 3
      vertex -1.46167 11.6508 0
    endloop
  endfacet
  facet normal 0.406863 -0.913489 0
    outer loop
      vertex -0.799999 12.3856 0
      vertex -0.494427 12.5217 3
      vertex -0.799999 12.3856 3
    endloop
  endfacet
  facet normal 0.406863 -0.913489 0
    outer loop
      vertex -0.494427 12.5217 3
      vertex -0.799999 12.3856 0
      vertex -0.494427 12.5217 0
    endloop
  endfacet
  facet normal -0.994524 -0.104504 0
    outer loop
      vertex 1.6 11 0
      vertex 1.56504 11.3327 3
      vertex 1.56504 11.3327 0
    endloop
  endfacet
  facet normal -0.994524 -0.104504 0
    outer loop
      vertex 1.56504 11.3327 3
      vertex 1.6 11 0
      vertex 1.6 11 3
    endloop
  endfacet
  facet normal 0.743082 0.669201 0
    outer loop
      vertex -1.07061 9.81097 3
      vertex -1.29443 10.0595 0
      vertex -1.29443 10.0595 3
    endloop
  endfacet
  facet normal 0.743082 0.669201 0
    outer loop
      vertex -1.29443 10.0595 0
      vertex -1.07061 9.81097 3
      vertex -1.07061 9.81097 0
    endloop
  endfacet
  facet normal -0.743082 0.669201 0
    outer loop
      vertex 1.07061 9.81097 0
      vertex 1.29443 10.0595 3
      vertex 1.29443 10.0595 0
    endloop
  endfacet
  facet normal -0.743082 0.669201 0
    outer loop
      vertex 1.29443 10.0595 3
      vertex 1.07061 9.81097 0
      vertex 1.07061 9.81097 3
    endloop
  endfacet
  facet normal -0.951045 -0.309052 0
    outer loop
      vertex 1.56504 11.3327 0
      vertex 1.46167 11.6508 3
      vertex 1.46167 11.6508 0
    endloop
  endfacet
  facet normal -0.951045 -0.309052 0
    outer loop
      vertex 1.46167 11.6508 3
      vertex 1.56504 11.3327 0
      vertex 1.56504 11.3327 3
    endloop
  endfacet
  facet normal 0 -1 0
    outer loop
      vertex -0.167245 12.5912 0
      vertex 0.167245 12.5912 3
      vertex -0.167245 12.5912 3
    endloop
  endfacet
  facet normal 0 -1 -0
    outer loop
      vertex 0.167245 12.5912 3
      vertex -0.167245 12.5912 0
      vertex 0.167245 12.5912 0
    endloop
  endfacet
  facet normal -0.866049 0.499959 0
    outer loop
      vertex 1.29443 10.0595 0
      vertex 1.46167 10.3492 3
      vertex 1.46167 10.3492 0
    endloop
  endfacet
  facet normal -0.866049 0.499959 0
    outer loop
      vertex 1.46167 10.3492 3
      vertex 1.29443 10.0595 0
      vertex 1.29443 10.0595 3
    endloop
  endfacet
  facet normal 0 1 -0
    outer loop
      vertex 0.167245 9.40876 0
      vertex -0.167245 9.40876 3
      vertex 0.167245 9.40876 3
    endloop
  endfacet
  facet normal 0 1 0
    outer loop
      vertex -0.167245 9.40876 3
      vertex 0.167245 9.40876 0
      vertex -0.167245 9.40876 0
    endloop
  endfacet
  facet normal 0.951045 0.309052 0
    outer loop
      vertex -1.46167 10.3492 3
      vertex -1.56504 10.6673 0
      vertex -1.56504 10.6673 3
    endloop
  endfacet
  facet normal 0.951045 0.309052 0
    outer loop
      vertex -1.56504 10.6673 0
      vertex -1.46167 10.3492 3
      vertex -1.46167 10.3492 0
    endloop
  endfacet
  facet normal -0.587784 0.809018 0
    outer loop
      vertex 1.07061 9.81097 0
      vertex 0.799999 9.61436 3
      vertex 1.07061 9.81097 3
    endloop
  endfacet
  facet normal -0.587784 0.809018 0
    outer loop
      vertex 0.799999 9.61436 3
      vertex 1.07061 9.81097 0
      vertex 0.799999 9.61436 0
    endloop
  endfacet
  facet normal -0.951045 0.309052 0
    outer loop
      vertex 1.46167 10.3492 0
      vertex 1.56504 10.6673 3
      vertex 1.56504 10.6673 0
    endloop
  endfacet
  facet normal -0.951045 0.309052 0
    outer loop
      vertex 1.56504 10.6673 3
      vertex 1.46167 10.3492 0
      vertex 1.46167 10.3492 3
    endloop
  endfacet
  facet normal -0.207927 0.978144 0
    outer loop
      vertex 0.494427 9.47831 0
      vertex 0.167245 9.40876 3
      vertex 0.494427 9.47831 3
    endloop
  endfacet
  facet normal -0.207927 0.978144 0
    outer loop
      vertex 0.167245 9.40876 3
      vertex 0.494427 9.47831 0
      vertex 0.167245 9.40876 0
    endloop
  endfacet
  facet normal 0.406738 0.913545 -0
    outer loop
      vertex -0.494427 9.47831 0
      vertex -0.799999 9.61436 3
      vertex -0.494427 9.47831 3
    endloop
  endfacet
  facet normal 0.406738 0.913545 0
    outer loop
      vertex -0.799999 9.61436 3
      vertex -0.494427 9.47831 0
      vertex -0.799999 9.61436 0
    endloop
  endfacet
  facet normal 0.866049 0.499959 0
    outer loop
      vertex -1.29443 10.0595 3
      vertex -1.46167 10.3492 0
      vertex -1.46167 10.3492 3
    endloop
  endfacet
  facet normal 0.866049 0.499959 0
    outer loop
      vertex -1.46167 10.3492 0
      vertex -1.29443 10.0595 3
      vertex -1.29443 10.0595 0
    endloop
  endfacet
  facet normal 0.587784 0.809018 -0
    outer loop
      vertex -0.799999 9.61436 0
      vertex -1.07061 9.81097 3
      vertex -0.799999 9.61436 3
    endloop
  endfacet
  facet normal 0.587784 0.809018 0
    outer loop
      vertex -1.07061 9.81097 3
      vertex -0.799999 9.61436 0
      vertex -1.07061 9.81097 0
    endloop
  endfacet
  facet normal 0.207927 0.978144 -0
    outer loop
      vertex -0.167245 9.40876 0
      vertex -0.494427 9.47831 3
      vertex -0.167245 9.40876 3
    endloop
  endfacet
  facet normal 0.207927 0.978144 0
    outer loop
      vertex -0.494427 9.47831 3
      vertex -0.167245 9.40876 0
      vertex -0.494427 9.47831 0
    endloop
  endfacet
  facet normal -0.994524 -0.104504 0
    outer loop
      vertex 1.6 -11 0
      vertex 1.56504 -10.6673 3
      vertex 1.56504 -10.6673 0
    endloop
  endfacet
  facet normal -0.994524 -0.104504 0
    outer loop
      vertex 1.56504 -10.6673 3
      vertex 1.6 -11 0
      vertex 1.6 -11 3
    endloop
  endfacet
  facet normal 0.994524 -0.104504 0
    outer loop
      vertex -1.6 -11 3
      vertex -1.56504 -10.6673 0
      vertex -1.56504 -10.6673 3
    endloop
  endfacet
  facet normal 0.994524 -0.104504 0
    outer loop
      vertex -1.56504 -10.6673 0
      vertex -1.6 -11 3
      vertex -1.6 -11 0
    endloop
  endfacet
  facet normal 0 -1 0
    outer loop
      vertex -0.167245 -9.40876 0
      vertex 0.167245 -9.40876 3
      vertex -0.167245 -9.40876 3
    endloop
  endfacet
  facet normal 0 -1 -0
    outer loop
      vertex 0.167245 -9.40876 3
      vertex -0.167245 -9.40876 0
      vertex 0.167245 -9.40876 0
    endloop
  endfacet
  facet normal -0.743082 -0.669201 0
    outer loop
      vertex 1.29443 -10.0595 0
      vertex 1.07061 -9.81097 3
      vertex 1.07061 -9.81097 0
    endloop
  endfacet
  facet normal -0.743082 -0.669201 0
    outer loop
      vertex 1.07061 -9.81097 3
      vertex 1.29443 -10.0595 0
      vertex 1.29443 -10.0595 3
    endloop
  endfacet
  facet normal 0.743082 -0.669201 0
    outer loop
      vertex -1.29443 -10.0595 3
      vertex -1.07061 -9.81097 0
      vertex -1.07061 -9.81097 3
    endloop
  endfacet
  facet normal 0.743082 -0.669201 0
    outer loop
      vertex -1.07061 -9.81097 0
      vertex -1.29443 -10.0595 3
      vertex -1.29443 -10.0595 0
    endloop
  endfacet
  facet normal 0.406738 -0.913545 0
    outer loop
      vertex -0.799999 -9.61436 0
      vertex -0.494427 -9.47831 3
      vertex -0.799999 -9.61436 3
    endloop
  endfacet
  facet normal 0.406738 -0.913545 0
    outer loop
      vertex -0.494427 -9.47831 3
      vertex -0.799999 -9.61436 0
      vertex -0.494427 -9.47831 0
    endloop
  endfacet
  facet normal -0.866049 -0.499959 0
    outer loop
      vertex 1.46167 -10.3492 0
      vertex 1.29443 -10.0595 3
      vertex 1.29443 -10.0595 0
    endloop
  endfacet
  facet normal -0.866049 -0.499959 0
    outer loop
      vertex 1.29443 -10.0595 3
      vertex 1.46167 -10.3492 0
      vertex 1.46167 -10.3492 3
    endloop
  endfacet
  facet normal -0.951045 -0.309052 0
    outer loop
      vertex 1.56504 -10.6673 0
      vertex 1.46167 -10.3492 3
      vertex 1.46167 -10.3492 0
    endloop
  endfacet
  facet normal -0.951045 -0.309052 0
    outer loop
      vertex 1.46167 -10.3492 3
      vertex 1.56504 -10.6673 0
      vertex 1.56504 -10.6673 3
    endloop
  endfacet
  facet normal -0.406738 -0.913545 0
    outer loop
      vertex 0.494427 -9.47831 0
      vertex 0.799999 -9.61436 3
      vertex 0.494427 -9.47831 3
    endloop
  endfacet
  facet normal -0.406738 -0.913545 -0
    outer loop
      vertex 0.799999 -9.61436 3
      vertex 0.494427 -9.47831 0
      vertex 0.799999 -9.61436 0
    endloop
  endfacet
  facet normal -0.207927 -0.978144 0
    outer loop
      vertex 0.167245 -9.40876 0
      vertex 0.494427 -9.47831 3
      vertex 0.167245 -9.40876 3
    endloop
  endfacet
  facet normal -0.207927 -0.978144 -0
    outer loop
      vertex 0.494427 -9.47831 3
      vertex 0.167245 -9.40876 0
      vertex 0.494427 -9.47831 0
    endloop
  endfacet
  facet normal -0.587784 -0.809018 0
    outer loop
      vertex 0.799999 -9.61436 0
      vertex 1.07061 -9.81097 3
      vertex 0.799999 -9.61436 3
    endloop
  endfacet
  facet normal -0.587784 -0.809018 -0
    outer loop
      vertex 1.07061 -9.81097 3
      vertex 0.799999 -9.61436 0
      vertex 1.07061 -9.81097 0
    endloop
  endfacet
  facet normal 0.866049 -0.499959 0
    outer loop
      vertex -1.46167 -10.3492 3
      vertex -1.29443 -10.0595 0
      vertex -1.29443 -10.0595 3
    endloop
  endfacet
  facet normal 0.866049 -0.499959 0
    outer loop
      vertex -1.29443 -10.0595 0
      vertex -1.46167 -10.3492 3
      vertex -1.46167 -10.3492 0
    endloop
  endfacet
  facet normal 0.951045 -0.309052 0
    outer loop
      vertex -1.56504 -10.6673 3
      vertex -1.46167 -10.3492 0
      vertex -1.46167 -10.3492 3
    endloop
  endfacet
  facet normal 0.951045 -0.309052 0
    outer loop
      vertex -1.46167 -10.3492 0
      vertex -1.56504 -10.6673 3
      vertex -1.56504 -10.6673 0
    endloop
  endfacet
  facet normal 0.587784 -0.809018 0
    outer loop
      vertex -1.07061 -9.81097 0
      vertex -0.799999 -9.61436 3
      vertex -1.07061 -9.81097 3
    endloop
  endfacet
  facet normal 0.587784 -0.809018 0
    outer loop
      vertex -0.799999 -9.61436 3
      vertex -1.07061 -9.81097 0
      vertex -0.799999 -9.61436 0
    endloop
  endfacet
  facet normal 0.207927 -0.978144 0
    outer loop
      vertex -0.494427 -9.47831 0
      vertex -0.167245 -9.40876 3
      vertex -0.494427 -9.47831 3
    endloop
  endfacet
  facet normal 0.207927 -0.978144 0
    outer loop
      vertex -0.167245 -9.40876 3
      vertex -0.494427 -9.47831 0
      vertex -0.167245 -9.40876 0
    endloop
  endfacet
  facet normal -0.994524 0.104504 0
    outer loop
      vertex 1.56504 -11.3327 0
      vertex 1.6 -11 3
      vertex 1.6 -11 0
    endloop
  endfacet
  facet normal -0.994524 0.104504 0
    outer loop
      vertex 1.6 -11 3
      vertex 1.56504 -11.3327 0
      vertex 1.56504 -11.3327 3
    endloop
  endfacet
  facet normal 0.207784 0.978175 -0
    outer loop
      vertex -0.167245 -12.5912 0
      vertex -0.494427 -12.5217 3
      vertex -0.167245 -12.5912 3
    endloop
  endfacet
  facet normal 0.207784 0.978175 0
    outer loop
      vertex -0.494427 -12.5217 3
      vertex -0.167245 -12.5912 0
      vertex -0.494427 -12.5217 0
    endloop
  endfacet
  facet normal 0.994524 0.104504 0
    outer loop
      vertex -1.56504 -11.3327 3
      vertex -1.6 -11 0
      vertex -1.6 -11 3
    endloop
  endfacet
  facet normal 0.994524 0.104504 0
    outer loop
      vertex -1.6 -11 0
      vertex -1.56504 -11.3327 3
      vertex -1.56504 -11.3327 0
    endloop
  endfacet
  facet normal -0.207784 0.978175 0
    outer loop
      vertex 0.494427 -12.5217 0
      vertex 0.167245 -12.5912 3
      vertex 0.494427 -12.5217 3
    endloop
  endfacet
  facet normal -0.207784 0.978175 0
    outer loop
      vertex 0.167245 -12.5912 3
      vertex 0.494427 -12.5217 0
      vertex 0.167245 -12.5912 0
    endloop
  endfacet
  facet normal -0.743041 0.669246 0
    outer loop
      vertex 1.07061 -12.189 0
      vertex 1.29443 -11.9405 3
      vertex 1.29443 -11.9405 0
    endloop
  endfacet
  facet normal -0.743041 0.669246 0
    outer loop
      vertex 1.29443 -11.9405 3
      vertex 1.07061 -12.189 0
      vertex 1.07061 -12.189 3
    endloop
  endfacet
  facet normal -0.951045 0.309052 0
    outer loop
      vertex 1.46167 -11.6508 0
      vertex 1.56504 -11.3327 3
      vertex 1.56504 -11.3327 0
    endloop
  endfacet
  facet normal -0.951045 0.309052 0
    outer loop
      vertex 1.56504 -11.3327 3
      vertex 1.46167 -11.6508 0
      vertex 1.46167 -11.6508 3
    endloop
  endfacet
  facet normal -0.866049 0.499959 0
    outer loop
      vertex 1.29443 -11.9405 0
      vertex 1.46167 -11.6508 3
      vertex 1.46167 -11.6508 0
    endloop
  endfacet
  facet normal -0.866049 0.499959 0
    outer loop
      vertex 1.46167 -11.6508 3
      vertex 1.29443 -11.9405 0
      vertex 1.29443 -11.9405 3
    endloop
  endfacet
  facet normal 0.866049 0.499959 0
    outer loop
      vertex -1.29443 -11.9405 3
      vertex -1.46167 -11.6508 0
      vertex -1.46167 -11.6508 3
    endloop
  endfacet
  facet normal 0.866049 0.499959 0
    outer loop
      vertex -1.46167 -11.6508 0
      vertex -1.29443 -11.9405 3
      vertex -1.29443 -11.9405 0
    endloop
  endfacet
  facet normal 0.951045 0.309052 0
    outer loop
      vertex -1.46167 -11.6508 3
      vertex -1.56504 -11.3327 0
      vertex -1.56504 -11.3327 3
    endloop
  endfacet
  facet normal 0.951045 0.309052 0
    outer loop
      vertex -1.56504 -11.3327 0
      vertex -1.46167 -11.6508 3
      vertex -1.46167 -11.6508 0
    endloop
  endfacet
  facet normal -0.587765 0.809032 0
    outer loop
      vertex 1.07061 -12.189 0
      vertex 0.799999 -12.3856 3
      vertex 1.07061 -12.189 3
    endloop
  endfacet
  facet normal -0.587765 0.809032 0
    outer loop
      vertex 0.799999 -12.3856 3
      vertex 1.07061 -12.189 0
      vertex 0.799999 -12.3856 0
    endloop
  endfacet
  facet normal -0.406863 0.913489 0
    outer loop
      vertex 0.799999 -12.3856 0
      vertex 0.494427 -12.5217 3
      vertex 0.799999 -12.3856 3
    endloop
  endfacet
  facet normal -0.406863 0.913489 0
    outer loop
      vertex 0.494427 -12.5217 3
      vertex 0.799999 -12.3856 0
      vertex 0.494427 -12.5217 0
    endloop
  endfacet
  facet normal 0 1 -0
    outer loop
      vertex 0.167245 -12.5912 0
      vertex -0.167245 -12.5912 3
      vertex 0.167245 -12.5912 3
    endloop
  endfacet
  facet normal 0 1 0
    outer loop
      vertex -0.167245 -12.5912 3
      vertex 0.167245 -12.5912 0
      vertex -0.167245 -12.5912 0
    endloop
  endfacet
  facet normal 0.406863 0.913489 -0
    outer loop
      vertex -0.494427 -12.5217 0
      vertex -0.799999 -12.3856 3
      vertex -0.494427 -12.5217 3
    endloop
  endfacet
  facet normal 0.406863 0.913489 0
    outer loop
      vertex -0.799999 -12.3856 3
      vertex -0.494427 -12.5217 0
      vertex -0.799999 -12.3856 0
    endloop
  endfacet
  facet normal 0.743041 0.669246 0
    outer loop
      vertex -1.07061 -12.189 3
      vertex -1.29443 -11.9405 0
      vertex -1.29443 -11.9405 3
    endloop
  endfacet
  facet normal 0.743041 0.669246 0
    outer loop
      vertex -1.29443 -11.9405 0
      vertex -1.07061 -12.189 3
      vertex -1.07061 -12.189 0
    endloop
  endfacet
  facet normal 0.587765 0.809032 -0
    outer loop
      vertex -0.799999 -12.3856 0
      vertex -1.07061 -12.189 3
      vertex -0.799999 -12.3856 3
    endloop
  endfacet
  facet normal 0.587765 0.809032 0
    outer loop
      vertex -1.07061 -12.189 3
      vertex -0.799999 -12.3856 0
      vertex -1.07061 -12.189 0
    endloop
  endfacet
  facet normal -0.707107 0 -0.707107
    outer loop
      vertex -2.12893 15 0
      vertex -5.12893 8 3
      vertex -5.12893 15 3
    endloop
  endfacet
  facet normal -0.707107 -0 -0.707107
    outer loop
      vertex -5.12893 8 3
      vertex -5.12893 -8 3
      vertex -5.82893 8 3.7
    endloop
  endfacet
  facet normal -0.707107 0 -0.707107
    outer loop
      vertex -2.12893 15 0
      vertex -5.12893 -8 3
      vertex -5.12893 8 3
    endloop
  endfacet
  facet normal -0.707107 0 -0.707107
    outer loop
      vertex -2.12893 -15 0
      vertex -5.12893 -8 3
      vertex -2.12893 15 0
    endloop
  endfacet
  facet normal -0.707107 -0 -0.707107
    outer loop
      vertex -5.12893 -8 3
      vertex -2.12893 -15 0
      vertex -5.12893 -15 3
    endloop
  endfacet
  facet normal -0.707107 -0 -0.707107
    outer loop
      vertex -5.82893 8 3.7
      vertex -5.12893 -8 3
      vertex -5.82893 -8 3.7
    endloop
  endfacet
endsolid OpenSCAD_Model
