solid OpenSCAD_Model
  facet normal 0 0 -1
    outer loop
      vertex -1.5891851901022882 -1.7649689605088112 0
      vertex -1.0538807050152017 -1.1704531001268959 0
      vertex -1.1875 -2.0568103339880417 0
    endloop
  endfacet
  facet normal 0 0 -1
    outer loop
      vertex -1.5891851901022882 -1.7649689605088112 0
      vertex -1.2742017661405423 -0.9257617723606452 0
      vertex -1.0538807050152017 -1.1704531001268959 0
    endloop
  endfacet
  facet normal -0.7431448254773939 -0.6691306063588587 0
    outer loop
      vertex -1.9214153616405003 -1.3959899741946238 0
      vertex -1.5891851901022882 -1.7649689605088112 0
      vertex -1.9214153616405003 -1.3959899741946238 5
    endloop
  endfacet
  facet normal -0.5877852522924731 -0.8090169943749473 0
    outer loop
      vertex -1.5891851901022882 -1.7649689605088112 0
      vertex -1.1875 -2.0568103339880417 0
      vertex -1.1875 -2.0568103339880417 5
    endloop
  endfacet
  facet normal 0 0 -1
    outer loop
      vertex -2.169670461901177 -0.9659995273050255 0
      vertex -2.3231005517427885 -0.49379026569217843 0
      vertex -2.169670461901177 0.9659995273050255 0
    endloop
  endfacet
  facet normal 0 0 -1
    outer loop
      vertex -1.9214153616405003 -1.3959899741946238 0
      vertex -2.169670461901177 -0.9659995273050255 0
      vertex -1.9214153616405003 1.3959899741946238 0
    endloop
  endfacet
  facet normal 0 0 -1
    outer loop
      vertex -1.5891851901022882 -1.7649689605088112 0
      vertex -1.5405824711557439 -0.327460913037971 0
      vertex -1.4388340957870964 -0.6406102128443854 0
    endloop
  endfacet
  facet normal 0 0 -1
    outer loop
      vertex -1.5891851901022882 -1.7649689605088112 0
      vertex -1.575 0 0
      vertex -1.5405824711557439 -0.327460913037971 0
    endloop
  endfacet
  facet normal 0 0 -1
    outer loop
      vertex -1.5891851901022882 -1.7649689605088112 0
      vertex -1.4388340957870964 -0.6406102128443854 0
      vertex -1.2742017661405423 -0.9257617723606452 0
    endloop
  endfacet
  facet normal 0 0 -1
    outer loop
      vertex -1.9214153616405003 -1.3959899741946238 0
      vertex -1.5891851901022882 1.7649689605088112 0
      vertex -1.5891851901022882 -1.7649689605088112 0
    endloop
  endfacet
  facet normal -0.866025403784439 -0.49999999999999917 0
    outer loop
      vertex -1.9214153616405003 -1.3959899741946238 0
      vertex -2.169670461901177 -0.9659995273050255 5
      vertex -2.169670461901177 -0.9659995273050255 0
    endloop
  endfacet
  facet normal -0.9510565162951533 -0.3090169943749481 0
    outer loop
      vertex -2.169670461901177 -0.9659995273050255 0
      vertex -2.3231005517427885 -0.49379026569217843 5
      vertex -2.3231005517427885 -0.49379026569217843 0
    endloop
  endfacet
  facet normal -0.9945218953682733 -0.10452846326765323 0
    outer loop
      vertex -2.3231005517427885 -0.49379026569217843 0
      vertex -2.375 0 5
      vertex -2.375 0 0
    endloop
  endfacet
  facet normal 0 0 -1
    outer loop
      vertex -1.1875 -2.0568103339880417 0
      vertex -0.4867017661405421 -1.4979140131648667 0
      vertex -0.7339153616405001 -2.2587592262009895 0
    endloop
  endfacet
  facet normal 0 0 -1
    outer loop
      vertex -1.1875 -2.0568103339880417 0
      vertex -1.0538807050152017 -1.1704531001268959 0
      vertex -0.7875 -1.3639900109604908 0
    endloop
  endfacet
  facet normal 0 0 -1
    outer loop
      vertex -1.1875 -2.0568103339880417 0
      vertex -0.7875 -1.3639900109604908 0
      vertex -0.4867017661405421 -1.4979140131648667 0
    endloop
  endfacet
  facet normal 0 0 -1
    outer loop
      vertex -0.7339153616405001 -2.2587592262009895 0
      vertex -0.4867017661405421 -1.4979140131648667 0
      vertex -0.1646323296465542 -1.5663719852050304 0
    endloop
  endfacet
  facet normal 0 0 -1
    outer loop
      vertex -0.7339153616405001 -2.2587592262009895 0
      vertex -0.1646323296465542 -1.5663719852050304 0
      vertex -0.248255100260677 -2.3619895014996493 0
    endloop
  endfacet
  facet normal 0 0 -1
    outer loop
      vertex -0.248255100260677 -2.3619895014996493 0
      vertex -0.1646323296465542 -1.5663719852050304 0
      vertex 0.16463232964655422 -1.5663719852050304 0
    endloop
  endfacet
  facet normal -0.4067366430757998 -0.913545457642601 0
    outer loop
      vertex -1.1875 -2.0568103339880417 0
      vertex -0.7339153616405001 -2.2587592262009895 0
      vertex -0.7339153616405001 -2.2587592262009895 5
    endloop
  endfacet
  facet normal -0.20791169081776006 -0.9781476007338055 0
    outer loop
      vertex -0.7339153616405001 -2.2587592262009895 0
      vertex -0.248255100260677 -2.3619895014996493 0
      vertex -0.248255100260677 -2.3619895014996493 5
    endloop
  endfacet
  facet normal -0.866025403784439 -0.49999999999999917 0
    outer loop
      vertex -1.9214153616405003 -1.3959899741946238 0
      vertex -1.9214153616405003 -1.3959899741946238 5
      vertex -2.169670461901177 -0.9659995273050255 5
    endloop
  endfacet
  facet normal -0.5877852522924731 -0.8090169943749473 0
    outer loop
      vertex -1.5891851901022882 -1.7649689605088112 0
      vertex -1.1875 -2.0568103339880417 5
      vertex -1.5891851901022882 -1.7649689605088112 5
    endloop
  endfacet
  facet normal -0.7431448254773939 -0.6691306063588587 0
    outer loop
      vertex -1.5891851901022882 -1.7649689605088112 0
      vertex -1.5891851901022882 -1.7649689605088112 5
      vertex -1.9214153616405003 -1.3959899741946238 5
    endloop
  endfacet
  facet normal 0 0 1
    outer loop
      vertex -1.5891851901022882 -1.7649689605088112 5
      vertex -1.1875 -2.0568103339880417 5
      vertex -1.4388340957870964 -0.6406102128443854 5
    endloop
  endfacet
  facet normal 0 0 1
    outer loop
      vertex -1.1875 -2.0568103339880417 5
      vertex -1.2742017661405423 -0.9257617723606452 5
      vertex -1.4388340957870964 -0.6406102128443854 5
    endloop
  endfacet
  facet normal -0.9510565162951533 -0.3090169943749481 0
    outer loop
      vertex -2.169670461901177 -0.9659995273050255 0
      vertex -2.169670461901177 -0.9659995273050255 5
      vertex -2.3231005517427885 -0.49379026569217843 5
    endloop
  endfacet
  facet normal -0.9945218953682733 -0.10452846326765323 0
    outer loop
      vertex -2.3231005517427885 -0.49379026569217843 0
      vertex -2.3231005517427885 -0.49379026569217843 5
      vertex -2.375 0 5
    endloop
  endfacet
  facet normal 0 0 1
    outer loop
      vertex -2.169670461901177 -0.9659995273050255 5
      vertex -2.3231005517427885 0.49379026569217843 5
      vertex -2.3231005517427885 -0.49379026569217843 5
    endloop
  endfacet
  facet normal 0 0 1
    outer loop
      vertex -1.9214153616405003 -1.3959899741946238 5
      vertex -2.169670461901177 0.9659995273050255 5
      vertex -2.169670461901177 -0.9659995273050255 5
    endloop
  endfacet
  facet normal 0 0 1
    outer loop
      vertex -1.9214153616405003 -1.3959899741946238 5
      vertex -1.5891851901022882 -1.7649689605088112 5
      vertex -1.9214153616405003 1.3959899741946238 5
    endloop
  endfacet
  facet normal 0 0 1
    outer loop
      vertex -1.5891851901022882 -1.7649689605088112 5
      vertex -1.4388340957870964 -0.6406102128443854 5
      vertex -1.5405824711557439 -0.327460913037971 5
    endloop
  endfacet
  facet normal 0 0 1
    outer loop
      vertex -1.5891851901022882 -1.7649689605088112 5
      vertex -1.5405824711557439 -0.327460913037971 5
      vertex -1.575 0 5
    endloop
  endfacet
  facet normal -0.4067366430757998 -0.913545457642601 0
    outer loop
      vertex -1.1875 -2.0568103339880417 0
      vertex -0.7339153616405001 -2.2587592262009895 5
      vertex -1.1875 -2.0568103339880417 5
    endloop
  endfacet
  facet normal -0.20791169081776006 -0.9781476007338055 0
    outer loop
      vertex -0.7339153616405001 -2.2587592262009895 0
      vertex -0.248255100260677 -2.3619895014996493 5
      vertex -0.7339153616405001 -2.2587592262009895 5
    endloop
  endfacet
  facet normal 0 -1 0
    outer loop
      vertex -0.248255100260677 -2.3619895014996493 0
      vertex 0.248255100260677 -2.3619895014996493 5
      vertex -0.248255100260677 -2.3619895014996493 5
    endloop
  endfacet
  facet normal 0 0 1
    outer loop
      vertex -1.1875 -2.0568103339880417 5
      vertex -0.7339153616405001 -2.2587592262009895 5
      vertex -1.0538807050152017 -1.1704531001268959 5
    endloop
  endfacet
  facet normal 0 0 1
    outer loop
      vertex -1.1875 -2.0568103339880417 5
      vertex -1.0538807050152017 -1.1704531001268959 5
      vertex -1.2742017661405423 -0.9257617723606452 5
    endloop
  endfacet
  facet normal 0 0 1
    outer loop
      vertex -0.7339153616405001 -2.2587592262009895 5
      vertex -0.7875 -1.3639900109604908 5
      vertex -1.0538807050152017 -1.1704531001268959 5
    endloop
  endfacet
  facet normal 0 0 1
    outer loop
      vertex -0.7339153616405001 -2.2587592262009895 5
      vertex -0.4867017661405421 -1.4979140131648667 5
      vertex -0.7875 -1.3639900109604908 5
    endloop
  endfacet
  facet normal 0 0 1
    outer loop
      vertex -0.7339153616405001 -2.2587592262009895 5
      vertex -0.248255100260677 -2.3619895014996493 5
      vertex -0.4867017661405421 -1.4979140131648667 5
    endloop
  endfacet
  facet normal 0 0 1
    outer loop
      vertex -0.248255100260677 -2.3619895014996493 5
      vertex -0.16463232964655422 -1.5663719852050304 5
      vertex -0.4867017661405421 -1.4979140131648667 5
    endloop
  endfacet
  facet normal 0 0 1
    outer loop
      vertex -0.248255100260677 -2.3619895014996493 5
      vertex 0.248255100260677 -2.3619895014996493 5
      vertex -0.16463232964655422 -1.5663719852050304 5
    endloop
  endfacet
  facet normal 0 0 -1
    outer loop
      vertex -2.3231005517427885 -0.49379026569217843 0
      vertex -2.375 0 0
      vertex -2.3231005517427885 0.49379026569217843 0
    endloop
  endfacet
  facet normal 0 0 -1
    outer loop
      vertex -2.3231005517427885 -0.49379026569217843 0
      vertex -2.3231005517427885 0.49379026569217843 0
      vertex -2.169670461901177 0.9659995273050255 0
    endloop
  endfacet
  facet normal 0 0 -1
    outer loop
      vertex -2.169670461901177 -0.9659995273050255 0
      vertex -2.169670461901177 0.9659995273050255 0
      vertex -1.9214153616405003 1.3959899741946238 0
    endloop
  endfacet
  facet normal 0 0 -1
    outer loop
      vertex -1.9214153616405003 -1.3959899741946238 0
      vertex -1.9214153616405003 1.3959899741946238 0
      vertex -1.5891851901022882 1.7649689605088112 0
    endloop
  endfacet
  facet normal 0 0 -1
    outer loop
      vertex -1.5891851901022882 -1.7649689605088112 0
      vertex -1.5891851901022882 1.7649689605088112 0
      vertex -1.575 0 0
    endloop
  endfacet
  facet normal 0 0 -1
    outer loop
      vertex -1.5891851901022882 1.7649689605088112 0
      vertex -1.5405824711557439 0.327460913037971 0
      vertex -1.575 0 0
    endloop
  endfacet
  facet normal 0 0 -1
    outer loop
      vertex -1.5891851901022882 1.7649689605088112 0
      vertex -1.4388340957870964 0.6406102128443854 0
      vertex -1.5405824711557439 0.327460913037971 0
    endloop
  endfacet
  facet normal -0.9945218953682733 0.10452846326765323 0
    outer loop
      vertex -2.375 0 0
      vertex -2.3231005517427885 0.49379026569217843 5
      vertex -2.3231005517427885 0.49379026569217843 0
    endloop
  endfacet
  facet normal -0.9510565162951533 0.3090169943749481 0
    outer loop
      vertex -2.3231005517427885 0.49379026569217843 0
      vertex -2.169670461901177 0.9659995273050255 5
      vertex -2.169670461901177 0.9659995273050255 0
    endloop
  endfacet
  facet normal 0 0 -1
    outer loop
      vertex -1.1875 2.0568103339880417 0
      vertex -1.2742017661405423 0.9257617723606452 0
      vertex -1.4388340957870964 0.6406102128443854 0
    endloop
  endfacet
  facet normal 0 0 -1
    outer loop
      vertex -1.5891851901022882 1.7649689605088112 0
      vertex -1.1875 2.0568103339880417 0
      vertex -1.4388340957870964 0.6406102128443854 0
    endloop
  endfacet
  facet normal -0.866025403784439 0.49999999999999917 0
    outer loop
      vertex -2.169670461901177 0.9659995273050255 0
      vertex -1.9214153616405003 1.3959899741946238 5
      vertex -1.9214153616405003 1.3959899741946238 0
    endloop
  endfacet
  facet normal -0.7431448254773939 0.6691306063588587 0
    outer loop
      vertex -1.9214153616405003 1.3959899741946238 0
      vertex -1.5891851901022882 1.7649689605088112 5
      vertex -1.5891851901022882 1.7649689605088112 0
    endloop
  endfacet
  facet normal -0.5877852522924731 0.8090169943749473 0
    outer loop
      vertex -1.5891851901022882 1.7649689605088112 0
      vertex -1.5891851901022882 1.7649689605088112 5
      vertex -1.1875 2.0568103339880417 0
    endloop
  endfacet
  facet normal 0 0 -1
    outer loop
      vertex -1.1875 2.0568103339880417 0
      vertex -1.0538807050152017 1.1704531001268959 0
      vertex -1.2742017661405423 0.9257617723606452 0
    endloop
  endfacet
  facet normal 0 0 -1
    outer loop
      vertex -0.7339153616405001 2.2587592262009895 0
      vertex -0.7875 1.3639900109604908 0
      vertex -1.0538807050152017 1.1704531001268959 0
    endloop
  endfacet
  facet normal 0 0 -1
    outer loop
      vertex -0.7339153616405001 2.2587592262009895 0
      vertex -0.4867017661405421 1.4979140131648667 0
      vertex -0.7875 1.3639900109604908 0
    endloop
  endfacet
  facet normal 0 0 -1
    outer loop
      vertex -1.1875 2.0568103339880417 0
      vertex -0.7339153616405001 2.2587592262009895 0
      vertex -1.0538807050152017 1.1704531001268959 0
    endloop
  endfacet
  facet normal 0 0 -1
    outer loop
      vertex -0.7339153616405001 2.2587592262009895 0
      vertex -0.248255100260677 2.3619895014996493 0
      vertex -0.4867017661405421 1.4979140131648667 0
    endloop
  endfacet
  facet normal 0 0 -1
    outer loop
      vertex -0.248255100260677 2.3619895014996493 0
      vertex -0.16463232964655422 1.5663719852050304 0
      vertex -0.4867017661405421 1.4979140131648667 0
    endloop
  endfacet
  facet normal 0 0 -1
    outer loop
      vertex -0.248255100260677 2.3619895014996493 0
      vertex 0.248255100260677 2.3619895014996493 0
      vertex -0.16463232964655422 1.5663719852050304 0
    endloop
  endfacet
  facet normal -0.4067366430757998 0.913545457642601 0
    outer loop
      vertex -1.1875 2.0568103339880417 0
      vertex -1.1875 2.0568103339880417 5
      vertex -0.7339153616405001 2.2587592262009895 0
    endloop
  endfacet
  facet normal -0.20791169081776006 0.9781476007338055 0
    outer loop
      vertex -0.7339153616405001 2.2587592262009895 0
      vertex -0.7339153616405001 2.2587592262009895 5
      vertex -0.248255100260677 2.3619895014996493 0
    endloop
  endfacet
  facet normal 0 1 0
    outer loop
      vertex -0.248255100260677 2.3619895014996493 0
      vertex -0.248255100260677 2.3619895014996493 5
      vertex 0.248255100260677 2.3619895014996493 0
    endloop
  endfacet
  facet normal -0.9945218953682733 0.10452846326765323 0
    outer loop
      vertex -2.375 0 0
      vertex -2.375 0 5
      vertex -2.3231005517427885 0.49379026569217843 5
    endloop
  endfacet
  facet normal -0.9510565162951533 0.3090169943749481 0
    outer loop
      vertex -2.3231005517427885 0.49379026569217843 0
      vertex -2.3231005517427885 0.49379026569217843 5
      vertex -2.169670461901177 0.9659995273050255 5
    endloop
  endfacet
  facet normal -0.866025403784439 0.49999999999999917 0
    outer loop
      vertex -2.169670461901177 0.9659995273050255 0
      vertex -2.169670461901177 0.9659995273050255 5
      vertex -1.9214153616405003 1.3959899741946238 5
    endloop
  endfacet
  facet normal 0 0 1
    outer loop
      vertex -2.3231005517427885 -0.49379026569217843 5
      vertex -2.3231005517427885 0.49379026569217843 5
      vertex -2.375 0 5
    endloop
  endfacet
  facet normal 0 0 1
    outer loop
      vertex -2.169670461901177 -0.9659995273050255 5
      vertex -2.169670461901177 0.9659995273050255 5
      vertex -2.3231005517427885 0.49379026569217843 5
    endloop
  endfacet
  facet normal 0 0 1
    outer loop
      vertex -1.9214153616405003 -1.3959899741946238 5
      vertex -1.9214153616405003 1.3959899741946238 5
      vertex -2.169670461901177 0.9659995273050255 5
    endloop
  endfacet
  facet normal 0 0 1
    outer loop
      vertex -1.5891851901022882 -1.7649689605088112 5
      vertex -1.575 0 5
      vertex -1.5891851901022882 1.7649689605088112 5
    endloop
  endfacet
  facet normal 0 0 1
    outer loop
      vertex -1.5891851901022882 -1.7649689605088112 5
      vertex -1.5891851901022882 1.7649689605088112 5
      vertex -1.9214153616405003 1.3959899741946238 5
    endloop
  endfacet
  facet normal 0 0 1
    outer loop
      vertex -1.5891851901022882 1.7649689605088112 5
      vertex -1.575 0 5
      vertex -1.5405824711557439 0.327460913037971 5
    endloop
  endfacet
  facet normal 0 0 1
    outer loop
      vertex -1.5891851901022882 1.7649689605088112 5
      vertex -1.5405824711557439 0.327460913037971 5
      vertex -1.4388340957870964 0.6406102128443854 5
    endloop
  endfacet
  facet normal 0 0 1
    outer loop
      vertex -1.5891851901022882 1.7649689605088112 5
      vertex -1.4388340957870964 0.6406102128443854 5
      vertex -1.2742017661405423 0.9257617723606452 5
    endloop
  endfacet
  facet normal -0.7431448254773939 0.6691306063588587 0
    outer loop
      vertex -1.9214153616405003 1.3959899741946238 0
      vertex -1.9214153616405003 1.3959899741946238 5
      vertex -1.5891851901022882 1.7649689605088112 5
    endloop
  endfacet
  facet normal -0.5877852522924731 0.8090169943749473 0
    outer loop
      vertex -1.1875 2.0568103339880417 0
      vertex -1.5891851901022882 1.7649689605088112 5
      vertex -1.1875 2.0568103339880417 5
    endloop
  endfacet
  facet normal 0 0 1
    outer loop
      vertex -1.5891851901022882 1.7649689605088112 5
      vertex -1.2742017661405423 0.9257617723606452 5
      vertex -1.0538807050152017 1.1704531001268959 5
    endloop
  endfacet
  facet normal 0 0 1
    outer loop
      vertex -1.5891851901022882 1.7649689605088112 5
      vertex -1.0538807050152017 1.1704531001268959 5
      vertex -1.1875 2.0568103339880417 5
    endloop
  endfacet
  facet normal -0.4067366430757998 0.913545457642601 0
    outer loop
      vertex -0.7339153616405001 2.2587592262009895 0
      vertex -1.1875 2.0568103339880417 5
      vertex -0.7339153616405001 2.2587592262009895 5
    endloop
  endfacet
  facet normal -0.20791169081776006 0.9781476007338055 0
    outer loop
      vertex -0.248255100260677 2.3619895014996493 0
      vertex -0.7339153616405001 2.2587592262009895 5
      vertex -0.248255100260677 2.3619895014996493 5
    endloop
  endfacet
  facet normal 0 0 1
    outer loop
      vertex -1.1875 2.0568103339880417 5
      vertex -1.0538807050152017 1.1704531001268959 5
      vertex -0.7875 1.3639900109604908 5
    endloop
  endfacet
  facet normal 0 0 1
    outer loop
      vertex -1.1875 2.0568103339880417 5
      vertex -0.7875 1.3639900109604908 5
      vertex -0.4867017661405421 1.4979140131648667 5
    endloop
  endfacet
  facet normal 0 0 1
    outer loop
      vertex -1.1875 2.0568103339880417 5
      vertex -0.4867017661405421 1.4979140131648667 5
      vertex -0.7339153616405001 2.2587592262009895 5
    endloop
  endfacet
  facet normal 0 0 1
    outer loop
      vertex -0.7339153616405001 2.2587592262009895 5
      vertex -0.4867017661405421 1.4979140131648667 5
      vertex -0.1646323296465542 1.5663719852050304 5
    endloop
  endfacet
  facet normal 0 0 1
    outer loop
      vertex -0.7339153616405001 2.2587592262009895 5
      vertex -0.1646323296465542 1.5663719852050304 5
      vertex -0.248255100260677 2.3619895014996493 5
    endloop
  endfacet
  facet normal 0 0 1
    outer loop
      vertex -0.248255100260677 2.3619895014996493 5
      vertex -0.1646323296465542 1.5663719852050304 5
      vertex 0.16463232964655422 1.5663719852050304 5
    endloop
  endfacet
  facet normal 0 0 -1
    outer loop
      vertex -0.248255100260677 -2.3619895014996493 0
      vertex 0.16463232964655422 -1.5663719852050304 0
      vertex 0.248255100260677 -2.3619895014996493 0
    endloop
  endfacet
  facet normal 0 0 -1
    outer loop
      vertex 0.248255100260677 -2.3619895014996493 0
      vertex 0.16463232964655422 -1.5663719852050304 0
      vertex 0.4867017661405421 -1.4979140131648667 0
    endloop
  endfacet
  facet normal 0 0 -1
    outer loop
      vertex 0.248255100260677 -2.3619895014996493 0
      vertex 0.4867017661405421 -1.4979140131648667 0
      vertex 0.7339153616405001 -2.2587592262009895 0
    endloop
  endfacet
  facet normal 0 0 -1
    outer loop
      vertex 0.7339153616405001 -2.2587592262009895 0
      vertex 1.0538807050152017 -1.1704531001268959 0
      vertex 1.1875 -2.0568103339880417 0
    endloop
  endfacet
  facet normal 0 0 -1
    outer loop
      vertex 0.7339153616405001 -2.2587592262009895 0
      vertex 0.4867017661405421 -1.4979140131648667 0
      vertex 0.7875 -1.3639900109604908 0
    endloop
  endfacet
  facet normal 0 0 -1
    outer loop
      vertex 0.7339153616405001 -2.2587592262009895 0
      vertex 0.7875 -1.3639900109604908 0
      vertex 1.0538807050152017 -1.1704531001268959 0
    endloop
  endfacet
  facet normal 0 0 -1
    outer loop
      vertex 1.1875 -2.0568103339880417 0
      vertex 1.0538807050152017 -1.1704531001268959 0
      vertex 1.2742017661405423 -0.9257617723606452 0
    endloop
  endfacet
  facet normal 0 -1 0
    outer loop
      vertex -0.248255100260677 -2.3619895014996493 0
      vertex 0.248255100260677 -2.3619895014996493 0
      vertex 0.248255100260677 -2.3619895014996493 5
    endloop
  endfacet
  facet normal 0.20791169081776006 -0.9781476007338055 0
    outer loop
      vertex 0.248255100260677 -2.3619895014996493 0
      vertex 0.7339153616405001 -2.2587592262009895 0
      vertex 0.7339153616405001 -2.2587592262009895 5
    endloop
  endfacet
  facet normal 0.4067366430757998 -0.913545457642601 0
    outer loop
      vertex 0.7339153616405001 -2.2587592262009895 0
      vertex 1.1875 -2.0568103339880417 0
      vertex 1.1875 -2.0568103339880417 5
    endloop
  endfacet
  facet normal 0 0 -1
    outer loop
      vertex 1.1875 -2.0568103339880417 0
      vertex 1.4388340957870964 -0.6406102128443854 0
      vertex 1.5891851901022882 -1.7649689605088112 0
    endloop
  endfacet
  facet normal 0 0 -1
    outer loop
      vertex 1.1875 -2.0568103339880417 0
      vertex 1.2742017661405423 -0.9257617723606452 0
      vertex 1.4388340957870964 -0.6406102128443854 0
    endloop
  endfacet
  facet normal 0.5877852522924731 -0.8090169943749473 0
    outer loop
      vertex 1.1875 -2.0568103339880417 0
      vertex 1.5891851901022882 -1.7649689605088112 0
      vertex 1.5891851901022882 -1.7649689605088112 5
    endloop
  endfacet
  facet normal 0.7431448254773939 -0.6691306063588587 0
    outer loop
      vertex 1.5891851901022882 -1.7649689605088112 0
      vertex 1.9214153616405003 -1.3959899741946238 0
      vertex 1.5891851901022882 -1.7649689605088112 5
    endloop
  endfacet
  facet normal 0.866025403784439 -0.49999999999999917 0
    outer loop
      vertex 1.9214153616405003 -1.3959899741946238 0
      vertex 2.169670461901177 -0.9659995273050255 0
      vertex 1.9214153616405003 -1.3959899741946238 5
    endloop
  endfacet
  facet normal 0 0 -1
    outer loop
      vertex 1.5891851901022882 -1.7649689605088112 0
      vertex 1.4388340957870964 -0.6406102128443854 0
      vertex 1.5405824711557439 -0.327460913037971 0
    endloop
  endfacet
  facet normal 0 0 -1
    outer loop
      vertex 1.5891851901022882 -1.7649689605088112 0
      vertex 1.5405824711557439 -0.327460913037971 0
      vertex 1.575 0 0
    endloop
  endfacet
  facet normal 0 0 -1
    outer loop
      vertex 1.5891851901022882 -1.7649689605088112 0
      vertex 1.9214153616405003 1.3959899741946238 0
      vertex 1.9214153616405003 -1.3959899741946238 0
    endloop
  endfacet
  facet normal 0 0 -1
    outer loop
      vertex 1.9214153616405003 -1.3959899741946238 0
      vertex 2.169670461901177 0.9659995273050255 0
      vertex 2.169670461901177 -0.9659995273050255 0
    endloop
  endfacet
  facet normal 0 0 -1
    outer loop
      vertex 2.169670461901177 -0.9659995273050255 0
      vertex 2.3231005517427885 0.49379026569217843 0
      vertex 2.3231005517427885 -0.49379026569217843 0
    endloop
  endfacet
  facet normal 0.9510565162951533 -0.3090169943749481 0
    outer loop
      vertex 2.169670461901177 -0.9659995273050255 0
      vertex 2.3231005517427885 -0.49379026569217843 0
      vertex 2.169670461901177 -0.9659995273050255 5
    endloop
  endfacet
  facet normal 0.9945218953682733 -0.10452846326765323 0
    outer loop
      vertex 2.3231005517427885 -0.49379026569217843 0
      vertex 2.375 0 0
      vertex 2.3231005517427885 -0.49379026569217843 5
    endloop
  endfacet
  facet normal 0.20791169081776006 -0.9781476007338055 0
    outer loop
      vertex 0.248255100260677 -2.3619895014996493 0
      vertex 0.7339153616405001 -2.2587592262009895 5
      vertex 0.248255100260677 -2.3619895014996493 5
    endloop
  endfacet
  facet normal 0.4067366430757998 -0.913545457642601 0
    outer loop
      vertex 0.7339153616405001 -2.2587592262009895 0
      vertex 1.1875 -2.0568103339880417 5
      vertex 0.7339153616405001 -2.2587592262009895 5
    endloop
  endfacet
  facet normal 0 0 1
    outer loop
      vertex 0.248255100260677 -2.3619895014996493 5
      vertex 0.1646323296465542 -1.5663719852050304 5
      vertex -0.16463232964655422 -1.5663719852050304 5
    endloop
  endfacet
  facet normal 0 0 1
    outer loop
      vertex 0.248255100260677 -2.3619895014996493 5
      vertex 0.7339153616405001 -2.2587592262009895 5
      vertex 0.1646323296465542 -1.5663719852050304 5
    endloop
  endfacet
  facet normal 0 0 1
    outer loop
      vertex 0.7339153616405001 -2.2587592262009895 5
      vertex 0.4867017661405421 -1.4979140131648667 5
      vertex 0.1646323296465542 -1.5663719852050304 5
    endloop
  endfacet
  facet normal 0 0 1
    outer loop
      vertex 0.7339153616405001 -2.2587592262009895 5
      vertex 1.1875 -2.0568103339880417 5
      vertex 0.4867017661405421 -1.4979140131648667 5
    endloop
  endfacet
  facet normal 0 0 1
    outer loop
      vertex 1.1875 -2.0568103339880417 5
      vertex 0.7875 -1.3639900109604908 5
      vertex 0.4867017661405421 -1.4979140131648667 5
    endloop
  endfacet
  facet normal 0 0 1
    outer loop
      vertex 1.1875 -2.0568103339880417 5
      vertex 1.0538807050152017 -1.1704531001268959 5
      vertex 0.7875 -1.3639900109604908 5
    endloop
  endfacet
  facet normal 0.5877852522924731 -0.8090169943749473 0
    outer loop
      vertex 1.1875 -2.0568103339880417 0
      vertex 1.5891851901022882 -1.7649689605088112 5
      vertex 1.1875 -2.0568103339880417 5
    endloop
  endfacet
  facet normal 0.7431448254773939 -0.6691306063588587 0
    outer loop
      vertex 1.9214153616405003 -1.3959899741946238 0
      vertex 1.9214153616405003 -1.3959899741946238 5
      vertex 1.5891851901022882 -1.7649689605088112 5
    endloop
  endfacet
  facet normal 0 0 1
    outer loop
      vertex 1.1875 -2.0568103339880417 5
      vertex 1.5891851901022882 -1.7649689605088112 5
      vertex 1.0538807050152017 -1.1704531001268959 5
    endloop
  endfacet
  facet normal 0 0 1
    outer loop
      vertex 1.5891851901022882 -1.7649689605088112 5
      vertex 1.2742017661405423 -0.9257617723606452 5
      vertex 1.0538807050152017 -1.1704531001268959 5
    endloop
  endfacet
  facet normal 0.866025403784439 -0.49999999999999917 0
    outer loop
      vertex 2.169670461901177 -0.9659995273050255 0
      vertex 2.169670461901177 -0.9659995273050255 5
      vertex 1.9214153616405003 -1.3959899741946238 5
    endloop
  endfacet
  facet normal 0.9510565162951533 -0.3090169943749481 0
    outer loop
      vertex 2.3231005517427885 -0.49379026569217843 0
      vertex 2.3231005517427885 -0.49379026569217843 5
      vertex 2.169670461901177 -0.9659995273050255 5
    endloop
  endfacet
  facet normal 0.9945218953682733 -0.10452846326765323 0
    outer loop
      vertex 2.3231005517427885 -0.49379026569217843 5
      vertex 2.375 0 0
      vertex 2.375 0 5
    endloop
  endfacet
  facet normal 0 0 1
    outer loop
      vertex 1.5891851901022882 -1.7649689605088112 5
      vertex 1.4388340957870964 -0.6406102128443854 5
      vertex 1.2742017661405423 -0.9257617723606452 5
    endloop
  endfacet
  facet normal 0 0 1
    outer loop
      vertex 1.5891851901022882 -1.7649689605088112 5
      vertex 1.5405824711557439 -0.327460913037971 5
      vertex 1.4388340957870964 -0.6406102128443854 5
    endloop
  endfacet
  facet normal 0 0 1
    outer loop
      vertex 1.5891851901022882 -1.7649689605088112 5
      vertex 1.575 0 5
      vertex 1.5405824711557439 -0.327460913037971 5
    endloop
  endfacet
  facet normal 0 0 1
    outer loop
      vertex 1.5891851901022882 -1.7649689605088112 5
      vertex 1.9214153616405003 -1.3959899741946238 5
      vertex 1.5891851901022882 1.7649689605088112 5
    endloop
  endfacet
  facet normal 0 0 1
    outer loop
      vertex 1.9214153616405003 -1.3959899741946238 5
      vertex 2.169670461901177 -0.9659995273050255 5
      vertex 1.9214153616405003 1.3959899741946238 5
    endloop
  endfacet
  facet normal 0 0 1
    outer loop
      vertex 2.169670461901177 -0.9659995273050255 5
      vertex 2.3231005517427885 -0.49379026569217843 5
      vertex 2.169670461901177 0.9659995273050255 5
    endloop
  endfacet
  facet normal 0 0 -1
    outer loop
      vertex 0.248255100260677 2.3619895014996493 0
      vertex 0.1646323296465542 1.5663719852050304 0
      vertex -0.16463232964655422 1.5663719852050304 0
    endloop
  endfacet
  facet normal 0 0 -1
    outer loop
      vertex 0.248255100260677 2.3619895014996493 0
      vertex 0.7339153616405001 2.2587592262009895 0
      vertex 0.1646323296465542 1.5663719852050304 0
    endloop
  endfacet
  facet normal 0 0 -1
    outer loop
      vertex 0.7339153616405001 2.2587592262009895 0
      vertex 0.4867017661405421 1.4979140131648667 0
      vertex 0.1646323296465542 1.5663719852050304 0
    endloop
  endfacet
  facet normal 0 0 -1
    outer loop
      vertex 1.1875 2.0568103339880417 0
      vertex 0.7875 1.3639900109604908 0
      vertex 0.4867017661405421 1.4979140131648667 0
    endloop
  endfacet
  facet normal 0 0 -1
    outer loop
      vertex 1.1875 2.0568103339880417 0
      vertex 1.0538807050152017 1.1704531001268959 0
      vertex 0.7875 1.3639900109604908 0
    endloop
  endfacet
  facet normal 0 0 -1
    outer loop
      vertex 0.7339153616405001 2.2587592262009895 0
      vertex 1.1875 2.0568103339880417 0
      vertex 0.4867017661405421 1.4979140131648667 0
    endloop
  endfacet
  facet normal 0.20791169081776006 0.9781476007338055 0
    outer loop
      vertex 0.248255100260677 2.3619895014996493 0
      vertex 0.248255100260677 2.3619895014996493 5
      vertex 0.7339153616405001 2.2587592262009895 0
    endloop
  endfacet
  facet normal 0.4067366430757998 0.913545457642601 0
    outer loop
      vertex 0.7339153616405001 2.2587592262009895 0
      vertex 0.7339153616405001 2.2587592262009895 5
      vertex 1.1875 2.0568103339880417 0
    endloop
  endfacet
  facet normal 0 0 -1
    outer loop
      vertex 1.5891851901022882 -1.7649689605088112 0
      vertex 1.575 0 0
      vertex 1.5891851901022882 1.7649689605088112 0
    endloop
  endfacet
  facet normal 0 0 -1
    outer loop
      vertex 1.5891851901022882 -1.7649689605088112 0
      vertex 1.5891851901022882 1.7649689605088112 0
      vertex 1.9214153616405003 1.3959899741946238 0
    endloop
  endfacet
  facet normal 0 0 -1
    outer loop
      vertex 1.5891851901022882 1.7649689605088112 0
      vertex 1.4388340957870964 0.6406102128443854 0
      vertex 1.2742017661405423 0.9257617723606452 0
    endloop
  endfacet
  facet normal 0 0 -1
    outer loop
      vertex 1.5891851901022882 1.7649689605088112 0
      vertex 1.575 0 0
      vertex 1.5405824711557439 0.327460913037971 0
    endloop
  endfacet
  facet normal 0 0 -1
    outer loop
      vertex 1.5891851901022882 1.7649689605088112 0
      vertex 1.5405824711557439 0.327460913037971 0
      vertex 1.4388340957870964 0.6406102128443854 0
    endloop
  endfacet
  facet normal 0 0 -1
    outer loop
      vertex 1.9214153616405003 -1.3959899741946238 0
      vertex 1.9214153616405003 1.3959899741946238 0
      vertex 2.169670461901177 0.9659995273050255 0
    endloop
  endfacet
  facet normal 0 0 -1
    outer loop
      vertex 2.169670461901177 -0.9659995273050255 0
      vertex 2.169670461901177 0.9659995273050255 0
      vertex 2.3231005517427885 0.49379026569217843 0
    endloop
  endfacet
  facet normal 0 0 -1
    outer loop
      vertex 2.3231005517427885 -0.49379026569217843 0
      vertex 2.3231005517427885 0.49379026569217843 0
      vertex 2.375 0 0
    endloop
  endfacet
  facet normal 0.9945218953682733 0.10452846326765323 0
    outer loop
      vertex 2.375 0 0
      vertex 2.3231005517427885 0.49379026569217843 0
      vertex 2.375 0 5
    endloop
  endfacet
  facet normal 0.9510565162951533 0.3090169943749481 0
    outer loop
      vertex 2.3231005517427885 0.49379026569217843 0
      vertex 2.169670461901177 0.9659995273050255 0
      vertex 2.3231005517427885 0.49379026569217843 5
    endloop
  endfacet
  facet normal 0.866025403784439 0.49999999999999917 0
    outer loop
      vertex 2.169670461901177 0.9659995273050255 0
      vertex 1.9214153616405003 1.3959899741946238 0
      vertex 2.169670461901177 0.9659995273050255 5
    endloop
  endfacet
  facet normal 0 0 -1
    outer loop
      vertex 1.5891851901022882 1.7649689605088112 0
      vertex 1.2742017661405423 0.9257617723606452 0
      vertex 1.0538807050152017 1.1704531001268959 0
    endloop
  endfacet
  facet normal 0 0 -1
    outer loop
      vertex 1.5891851901022882 1.7649689605088112 0
      vertex 1.0538807050152017 1.1704531001268959 0
      vertex 1.1875 2.0568103339880417 0
    endloop
  endfacet
  facet normal 0.5877852522924731 0.8090169943749473 0
    outer loop
      vertex 1.5891851901022882 1.7649689605088112 0
      vertex 1.1875 2.0568103339880417 0
      vertex 1.1875 2.0568103339880417 5
    endloop
  endfacet
  facet normal 0.7431448254773939 0.6691306063588587 0
    outer loop
      vertex 1.5891851901022882 1.7649689605088112 0
      vertex 1.9214153616405003 1.3959899741946238 5
      vertex 1.9214153616405003 1.3959899741946238 0
    endloop
  endfacet
  facet normal 0 1 0
    outer loop
      vertex -0.248255100260677 2.3619895014996493 5
      vertex 0.248255100260677 2.3619895014996493 5
      vertex 0.248255100260677 2.3619895014996493 0
    endloop
  endfacet
  facet normal 0.20791169081776006 0.9781476007338055 0
    outer loop
      vertex 0.7339153616405001 2.2587592262009895 0
      vertex 0.248255100260677 2.3619895014996493 5
      vertex 0.7339153616405001 2.2587592262009895 5
    endloop
  endfacet
  facet normal 0.4067366430757998 0.913545457642601 0
    outer loop
      vertex 1.1875 2.0568103339880417 0
      vertex 0.7339153616405001 2.2587592262009895 5
      vertex 1.1875 2.0568103339880417 5
    endloop
  endfacet
  facet normal 0 0 1
    outer loop
      vertex -0.248255100260677 2.3619895014996493 5
      vertex 0.16463232964655422 1.5663719852050304 5
      vertex 0.248255100260677 2.3619895014996493 5
    endloop
  endfacet
  facet normal 0 0 1
    outer loop
      vertex 0.248255100260677 2.3619895014996493 5
      vertex 0.16463232964655422 1.5663719852050304 5
      vertex 0.4867017661405421 1.4979140131648667 5
    endloop
  endfacet
  facet normal 0 0 1
    outer loop
      vertex 0.248255100260677 2.3619895014996493 5
      vertex 0.4867017661405421 1.4979140131648667 5
      vertex 0.7339153616405001 2.2587592262009895 5
    endloop
  endfacet
  facet normal 0 0 1
    outer loop
      vertex 0.7339153616405001 2.2587592262009895 5
      vertex 0.4867017661405421 1.4979140131648667 5
      vertex 0.7875 1.3639900109604908 5
    endloop
  endfacet
  facet normal 0 0 1
    outer loop
      vertex 0.7339153616405001 2.2587592262009895 5
      vertex 0.7875 1.3639900109604908 5
      vertex 1.0538807050152017 1.1704531001268959 5
    endloop
  endfacet
  facet normal 0 0 1
    outer loop
      vertex 1.1875 2.0568103339880417 5
      vertex 1.0538807050152017 1.1704531001268959 5
      vertex 1.2742017661405423 0.9257617723606452 5
    endloop
  endfacet
  facet normal 0 0 1
    outer loop
      vertex 0.7339153616405001 2.2587592262009895 5
      vertex 1.0538807050152017 1.1704531001268959 5
      vertex 1.1875 2.0568103339880417 5
    endloop
  endfacet
  facet normal 0.9945218953682733 0.10452846326765323 0
    outer loop
      vertex 2.3231005517427885 0.49379026569217843 0
      vertex 2.3231005517427885 0.49379026569217843 5
      vertex 2.375 0 5
    endloop
  endfacet
  facet normal 0.9510565162951533 0.3090169943749481 0
    outer loop
      vertex 2.169670461901177 0.9659995273050255 0
      vertex 2.169670461901177 0.9659995273050255 5
      vertex 2.3231005517427885 0.49379026569217843 5
    endloop
  endfacet
  facet normal 0 0 1
    outer loop
      vertex 1.5891851901022882 -1.7649689605088112 5
      vertex 1.5891851901022882 1.7649689605088112 5
      vertex 1.575 0 5
    endloop
  endfacet
  facet normal 0 0 1
    outer loop
      vertex 1.5891851901022882 1.7649689605088112 5
      vertex 1.5405824711557439 0.327460913037971 5
      vertex 1.575 0 5
    endloop
  endfacet
  facet normal 0 0 1
    outer loop
      vertex 1.5891851901022882 1.7649689605088112 5
      vertex 1.4388340957870964 0.6406102128443854 5
      vertex 1.5405824711557439 0.327460913037971 5
    endloop
  endfacet
  facet normal 0 0 1
    outer loop
      vertex 1.9214153616405003 -1.3959899741946238 5
      vertex 1.9214153616405003 1.3959899741946238 5
      vertex 1.5891851901022882 1.7649689605088112 5
    endloop
  endfacet
  facet normal 0 0 1
    outer loop
      vertex 2.3231005517427885 -0.49379026569217843 5
      vertex 2.375 0 5
      vertex 2.3231005517427885 0.49379026569217843 5
    endloop
  endfacet
  facet normal 0 0 1
    outer loop
      vertex 2.169670461901177 -0.9659995273050255 5
      vertex 2.169670461901177 0.9659995273050255 5
      vertex 1.9214153616405003 1.3959899741946238 5
    endloop
  endfacet
  facet normal 0 0 1
    outer loop
      vertex 2.3231005517427885 -0.49379026569217843 5
      vertex 2.3231005517427885 0.49379026569217843 5
      vertex 2.169670461901177 0.9659995273050255 5
    endloop
  endfacet
  facet normal 0.7431448254773939 0.6691306063588587 0
    outer loop
      vertex 1.5891851901022882 1.7649689605088112 0
      vertex 1.5891851901022882 1.7649689605088112 5
      vertex 1.9214153616405003 1.3959899741946238 5
    endloop
  endfacet
  facet normal 0.5877852522924731 0.8090169943749473 0
    outer loop
      vertex 1.5891851901022882 1.7649689605088112 0
      vertex 1.1875 2.0568103339880417 5
      vertex 1.5891851901022882 1.7649689605088112 5
    endloop
  endfacet
  facet normal 0.866025403784439 0.49999999999999917 0
    outer loop
      vertex 1.9214153616405003 1.3959899741946238 0
      vertex 1.9214153616405003 1.3959899741946238 5
      vertex 2.169670461901177 0.9659995273050255 5
    endloop
  endfacet
  facet normal 0 0 1
    outer loop
      vertex 1.1875 2.0568103339880417 5
      vertex 1.2742017661405423 0.9257617723606452 5
      vertex 1.4388340957870964 0.6406102128443854 5
    endloop
  endfacet
  facet normal 0 0 1
    outer loop
      vertex 1.5891851901022882 1.7649689605088112 5
      vertex 1.1875 2.0568103339880417 5
      vertex 1.4388340957870964 0.6406102128443854 5
    endloop
  endfacet
  facet normal 0.743144825477394 0.6691306063588583 0
    outer loop
      vertex -1.0538807050152017 -1.1704531001268959 0
      vertex -1.2742017661405423 -0.9257617723606452 0
      vertex -1.2742017661405423 -0.9257617723606452 5
    endloop
  endfacet
  facet normal 0.8660254037844387 0.49999999999999994 0
    outer loop
      vertex -1.2742017661405423 -0.9257617723606452 0
      vertex -1.4388340957870964 -0.6406102128443854 0
      vertex -1.4388340957870964 -0.6406102128443854 5
    endloop
  endfacet
  facet normal 0.9510565162951536 0.3090169943749474 0
    outer loop
      vertex -1.4388340957870964 -0.6406102128443854 0
      vertex -1.5405824711557439 -0.327460913037971 0
      vertex -1.5405824711557439 -0.327460913037971 5
    endloop
  endfacet
  facet normal 0.9945218953682733 0.10452846326765336 0
    outer loop
      vertex -1.575 0 5
      vertex -1.5405824711557439 -0.327460913037971 0
      vertex -1.575 0 0
    endloop
  endfacet
  facet normal 0.587785252292473 0.8090169943749476 0
    outer loop
      vertex -0.7875 -1.3639900109604908 0
      vertex -1.0538807050152017 -1.1704531001268959 0
      vertex -1.0538807050152017 -1.1704531001268959 5
    endloop
  endfacet
  facet normal 0.4067366430758 0.913545457642601 0
    outer loop
      vertex -0.7875 -1.3639900109604908 0
      vertex -0.7875 -1.3639900109604908 5
      vertex -0.4867017661405421 -1.4979140131648667 0
    endloop
  endfacet
  facet normal 0.20791169081775954 0.9781476007338056 0
    outer loop
      vertex -0.4867017661405421 -1.4979140131648667 0
      vertex -0.4867017661405421 -1.4979140131648667 5
      vertex -0.1646323296465542 -1.5663719852050304 0
    endloop
  endfacet
  facet normal 0 1 0
    outer loop
      vertex -0.16463232964655422 -1.5663719852050304 5
      vertex 0.16463232964655422 -1.5663719852050304 0
      vertex -0.1646323296465542 -1.5663719852050304 0
    endloop
  endfacet
  facet normal 0.8660254037844387 0.49999999999999994 0
    outer loop
      vertex -1.4388340957870964 -0.6406102128443854 5
      vertex -1.2742017661405423 -0.9257617723606452 5
      vertex -1.2742017661405423 -0.9257617723606452 0
    endloop
  endfacet
  facet normal 0.9945218953682733 0.10452846326765336 0
    outer loop
      vertex -1.575 0 5
      vertex -1.5405824711557439 -0.327460913037971 5
      vertex -1.5405824711557439 -0.327460913037971 0
    endloop
  endfacet
  facet normal 0.9510565162951536 0.3090169943749474 0
    outer loop
      vertex -1.4388340957870964 -0.6406102128443854 0
      vertex -1.5405824711557439 -0.327460913037971 5
      vertex -1.4388340957870964 -0.6406102128443854 5
    endloop
  endfacet
  facet normal 0.587785252292473 0.8090169943749476 0
    outer loop
      vertex -1.0538807050152017 -1.1704531001268959 5
      vertex -0.7875 -1.3639900109604908 5
      vertex -0.7875 -1.3639900109604908 0
    endloop
  endfacet
  facet normal 0.4067366430758 0.913545457642601 0
    outer loop
      vertex -0.4867017661405421 -1.4979140131648667 0
      vertex -0.7875 -1.3639900109604908 5
      vertex -0.4867017661405421 -1.4979140131648667 5
    endloop
  endfacet
  facet normal 0.20791169081775954 0.9781476007338056 1.1541417311731168e-18
    outer loop
      vertex -0.16463232964655422 -1.5663719852050304 5
      vertex -0.1646323296465542 -1.5663719852050304 0
      vertex -0.4867017661405421 -1.4979140131648667 5
    endloop
  endfacet
  facet normal 0.743144825477394 0.6691306063588583 0
    outer loop
      vertex -1.2742017661405423 -0.9257617723606452 5
      vertex -1.0538807050152017 -1.1704531001268959 5
      vertex -1.0538807050152017 -1.1704531001268959 0
    endloop
  endfacet
  facet normal 0.9945218953682733 -0.10452846326765336 0
    outer loop
      vertex -1.5405824711557439 0.327460913037971 5
      vertex -1.575 0 0
      vertex -1.5405824711557439 0.327460913037971 0
    endloop
  endfacet
  facet normal 0.9510565162951536 -0.3090169943749474 0
    outer loop
      vertex -1.5405824711557439 0.327460913037971 0
      vertex -1.4388340957870964 0.6406102128443854 0
      vertex -1.4388340957870964 0.6406102128443854 5
    endloop
  endfacet
  facet normal 0.8660254037844387 -0.49999999999999994 0
    outer loop
      vertex -1.4388340957870964 0.6406102128443854 0
      vertex -1.2742017661405423 0.9257617723606452 0
      vertex -1.2742017661405423 0.9257617723606452 5
    endloop
  endfacet
  facet normal 0.743144825477394 -0.6691306063588583 0
    outer loop
      vertex -1.2742017661405423 0.9257617723606452 0
      vertex -1.0538807050152017 1.1704531001268959 0
      vertex -1.0538807050152017 1.1704531001268959 5
    endloop
  endfacet
  facet normal 0.587785252292473 -0.8090169943749476 0
    outer loop
      vertex -0.7875 1.3639900109604908 0
      vertex -0.7875 1.3639900109604908 5
      vertex -1.0538807050152017 1.1704531001268959 0
    endloop
  endfacet
  facet normal 0.4067366430758 -0.913545457642601 0
    outer loop
      vertex -0.4867017661405421 1.4979140131648667 0
      vertex -0.4867017661405421 1.4979140131648667 5
      vertex -0.7875 1.3639900109604908 0
    endloop
  endfacet
  facet normal 0.20791169081775956 -0.9781476007338056 -1.154141731173117e-18
    outer loop
      vertex -0.1646323296465542 1.5663719852050304 5
      vertex -0.4867017661405421 1.4979140131648667 0
      vertex -0.16463232964655422 1.5663719852050304 0
    endloop
  endfacet
  facet normal 0.9945218953682733 -0.10452846326765336 0
    outer loop
      vertex -1.5405824711557439 0.327460913037971 5
      vertex -1.575 0 5
      vertex -1.575 0 0
    endloop
  endfacet
  facet normal 0.9510565162951536 -0.3090169943749474 0
    outer loop
      vertex -1.4388340957870964 0.6406102128443854 5
      vertex -1.5405824711557439 0.327460913037971 5
      vertex -1.5405824711557439 0.327460913037971 0
    endloop
  endfacet
  facet normal 0.8660254037844387 -0.49999999999999994 0
    outer loop
      vertex -1.4388340957870964 0.6406102128443854 0
      vertex -1.2742017661405423 0.9257617723606452 5
      vertex -1.4388340957870964 0.6406102128443854 5
    endloop
  endfacet
  facet normal 0.743144825477394 -0.6691306063588583 0
    outer loop
      vertex -1.0538807050152017 1.1704531001268959 5
      vertex -1.2742017661405423 0.9257617723606452 5
      vertex -1.2742017661405423 0.9257617723606452 0
    endloop
  endfacet
  facet normal 0.587785252292473 -0.8090169943749476 0
    outer loop
      vertex -1.0538807050152017 1.1704531001268959 0
      vertex -0.7875 1.3639900109604908 5
      vertex -1.0538807050152017 1.1704531001268959 5
    endloop
  endfacet
  facet normal 0.4067366430758 -0.913545457642601 0
    outer loop
      vertex -0.4867017661405421 1.4979140131648667 5
      vertex -0.7875 1.3639900109604908 5
      vertex -0.7875 1.3639900109604908 0
    endloop
  endfacet
  facet normal 0.20791169081775954 -0.9781476007338056 0
    outer loop
      vertex -0.4867017661405421 1.4979140131648667 0
      vertex -0.1646323296465542 1.5663719852050304 5
      vertex -0.4867017661405421 1.4979140131648667 5
    endloop
  endfacet
  facet normal 0 -1 0
    outer loop
      vertex 0.16463232964655422 1.5663719852050304 5
      vertex -0.1646323296465542 1.5663719852050304 5
      vertex -0.16463232964655422 1.5663719852050304 0
    endloop
  endfacet
  facet normal -0.20791169081775954 0.9781476007338056 -1.1541417311731168e-18
    outer loop
      vertex 0.16463232964655422 -1.5663719852050304 0
      vertex 0.1646323296465542 -1.5663719852050304 5
      vertex 0.4867017661405421 -1.4979140131648667 0
    endloop
  endfacet
  facet normal -0.4067366430758 0.913545457642601 0
    outer loop
      vertex 0.4867017661405421 -1.4979140131648667 0
      vertex 0.4867017661405421 -1.4979140131648667 5
      vertex 0.7875 -1.3639900109604908 0
    endloop
  endfacet
  facet normal -0.587785252292473 0.8090169943749476 0
    outer loop
      vertex 0.7875 -1.3639900109604908 5
      vertex 1.0538807050152017 -1.1704531001268959 0
      vertex 0.7875 -1.3639900109604908 0
    endloop
  endfacet
  facet normal -0.743144825477394 0.6691306063588583 0
    outer loop
      vertex 1.2742017661405423 -0.9257617723606452 0
      vertex 1.0538807050152017 -1.1704531001268959 0
      vertex 1.0538807050152017 -1.1704531001268959 5
    endloop
  endfacet
  facet normal -0.8660254037844387 0.49999999999999994 0
    outer loop
      vertex 1.4388340957870964 -0.6406102128443854 0
      vertex 1.2742017661405423 -0.9257617723606452 0
      vertex 1.2742017661405423 -0.9257617723606452 5
    endloop
  endfacet
  facet normal -0.9510565162951536 0.3090169943749474 0
    outer loop
      vertex 1.5405824711557439 -0.327460913037971 0
      vertex 1.4388340957870964 -0.6406102128443854 0
      vertex 1.4388340957870964 -0.6406102128443854 5
    endloop
  endfacet
  facet normal -0.9945218953682733 0.10452846326765336 0
    outer loop
      vertex 1.5405824711557439 -0.327460913037971 0
      vertex 1.5405824711557439 -0.327460913037971 5
      vertex 1.575 0 0
    endloop
  endfacet
  facet normal 0 1 0
    outer loop
      vertex -0.16463232964655422 -1.5663719852050304 5
      vertex 0.1646323296465542 -1.5663719852050304 5
      vertex 0.16463232964655422 -1.5663719852050304 0
    endloop
  endfacet
  facet normal -0.20791169081775954 0.9781476007338056 0
    outer loop
      vertex 0.4867017661405421 -1.4979140131648667 0
      vertex 0.1646323296465542 -1.5663719852050304 5
      vertex 0.4867017661405421 -1.4979140131648667 5
    endloop
  endfacet
  facet normal -0.4067366430758 0.913545457642601 0
    outer loop
      vertex 0.4867017661405421 -1.4979140131648667 5
      vertex 0.7875 -1.3639900109604908 5
      vertex 0.7875 -1.3639900109604908 0
    endloop
  endfacet
  facet normal -0.587785252292473 0.8090169943749476 0
    outer loop
      vertex 1.0538807050152017 -1.1704531001268959 0
      vertex 0.7875 -1.3639900109604908 5
      vertex 1.0538807050152017 -1.1704531001268959 5
    endloop
  endfacet
  facet normal -0.743144825477394 0.6691306063588583 0
    outer loop
      vertex 1.0538807050152017 -1.1704531001268959 5
      vertex 1.2742017661405423 -0.9257617723606452 5
      vertex 1.2742017661405423 -0.9257617723606452 0
    endloop
  endfacet
  facet normal -0.8660254037844387 0.49999999999999994 0
    outer loop
      vertex 1.4388340957870964 -0.6406102128443854 0
      vertex 1.2742017661405423 -0.9257617723606452 5
      vertex 1.4388340957870964 -0.6406102128443854 5
    endloop
  endfacet
  facet normal -0.9510565162951536 0.3090169943749474 0
    outer loop
      vertex 1.4388340957870964 -0.6406102128443854 5
      vertex 1.5405824711557439 -0.327460913037971 5
      vertex 1.5405824711557439 -0.327460913037971 0
    endloop
  endfacet
  facet normal -0.9945218953682733 0.10452846326765336 0
    outer loop
      vertex 1.575 0 0
      vertex 1.5405824711557439 -0.327460913037971 5
      vertex 1.575 0 5
    endloop
  endfacet
  facet normal 0 -1 0
    outer loop
      vertex -0.16463232964655422 1.5663719852050304 0
      vertex 0.1646323296465542 1.5663719852050304 0
      vertex 0.16463232964655422 1.5663719852050304 5
    endloop
  endfacet
  facet normal -0.20791169081775954 -0.9781476007338056 0
    outer loop
      vertex 0.4867017661405421 1.4979140131648667 0
      vertex 0.4867017661405421 1.4979140131648667 5
      vertex 0.1646323296465542 1.5663719852050304 0
    endloop
  endfacet
  facet normal -0.4067366430758 -0.913545457642601 0
    outer loop
      vertex 0.7875 1.3639900109604908 5
      vertex 0.4867017661405421 1.4979140131648667 0
      vertex 0.7875 1.3639900109604908 0
    endloop
  endfacet
  facet normal -0.587785252292473 -0.8090169943749476 0
    outer loop
      vertex 1.0538807050152017 1.1704531001268959 0
      vertex 1.0538807050152017 1.1704531001268959 5
      vertex 0.7875 1.3639900109604908 0
    endloop
  endfacet
  facet normal -0.9945218953682733 -0.10452846326765336 0
    outer loop
      vertex 1.575 0 0
      vertex 1.575 0 5
      vertex 1.5405824711557439 0.327460913037971 0
    endloop
  endfacet
  facet normal -0.9510565162951536 -0.3090169943749474 0
    outer loop
      vertex 1.4388340957870964 0.6406102128443854 0
      vertex 1.5405824711557439 0.327460913037971 0
      vertex 1.5405824711557439 0.327460913037971 5
    endloop
  endfacet
  facet normal -0.8660254037844387 -0.49999999999999994 0
    outer loop
      vertex 1.2742017661405423 0.9257617723606452 0
      vertex 1.4388340957870964 0.6406102128443854 0
      vertex 1.4388340957870964 0.6406102128443854 5
    endloop
  endfacet
  facet normal -0.743144825477394 -0.6691306063588583 0
    outer loop
      vertex 1.0538807050152017 1.1704531001268959 0
      vertex 1.2742017661405423 0.9257617723606452 0
      vertex 1.2742017661405423 0.9257617723606452 5
    endloop
  endfacet
  facet normal -0.743144825477394 -0.6691306063588583 0
    outer loop
      vertex 1.2742017661405423 0.9257617723606452 5
      vertex 1.0538807050152017 1.1704531001268959 5
      vertex 1.0538807050152017 1.1704531001268959 0
    endloop
  endfacet
  facet normal -0.20791169081775956 -0.9781476007338056 1.154141731173117e-18
    outer loop
      vertex 0.1646323296465542 1.5663719852050304 0
      vertex 0.4867017661405421 1.4979140131648667 5
      vertex 0.16463232964655422 1.5663719852050304 5
    endloop
  endfacet
  facet normal -0.4067366430758 -0.913545457642601 0
    outer loop
      vertex 0.4867017661405421 1.4979140131648667 0
      vertex 0.7875 1.3639900109604908 5
      vertex 0.4867017661405421 1.4979140131648667 5
    endloop
  endfacet
  facet normal -0.587785252292473 -0.8090169943749476 0
    outer loop
      vertex 1.0538807050152017 1.1704531001268959 5
      vertex 0.7875 1.3639900109604908 5
      vertex 0.7875 1.3639900109604908 0
    endloop
  endfacet
  facet normal -0.9510565162951536 -0.3090169943749474 0
    outer loop
      vertex 1.4388340957870964 0.6406102128443854 0
      vertex 1.5405824711557439 0.327460913037971 5
      vertex 1.4388340957870964 0.6406102128443854 5
    endloop
  endfacet
  facet normal -0.9945218953682733 -0.10452846326765336 0
    outer loop
      vertex 1.5405824711557439 0.327460913037971 0
      vertex 1.575 0 5
      vertex 1.5405824711557439 0.327460913037971 5
    endloop
  endfacet
  facet normal -0.8660254037844387 -0.49999999999999994 0
    outer loop
      vertex 1.4388340957870964 0.6406102128443854 5
      vertex 1.2742017661405423 0.9257617723606452 5
      vertex 1.2742017661405423 0.9257617723606452 0
    endloop
  endfacet
endsolid OpenSCAD_Model
