solid OpenSCAD_Model
  facet normal -0.7431448254773944 -0.669130606358858 0
    outer loop
      vertex -2.831559480312316 -2.057248383023656 0
      vertex -2.341957122256004 -2.60100688917088 0
      vertex -2.831559480312316 -2.057248383023656 0.4
    endloop
  endfacet
  facet normal -0.5877852522924729 -0.8090169943749476 0
    outer loop
      vertex -2.341957122256004 -2.60100688917088 0
      vertex -1.75 -3.031088913245535 0
      vertex -1.75 -3.031088913245535 0.4
    endloop
  endfacet
  facet normal 0 0 -1
    outer loop
      vertex -3.197409101749103 -1.4235782507653008 0
      vertex -3.42351660256832 -0.7276909178621577 0
      vertex -3.197409101749103 1.4235782507653008 0
    endloop
  endfacet
  facet normal 0 0 -1
    outer loop
      vertex -2.831559480312316 -2.057248383023656 0
      vertex -3.197409101749103 -1.4235782507653008 0
      vertex -2.831559480312316 2.057248383023656 0
    endloop
  endfacet
  facet normal 0 0 -1
    outer loop
      vertex -2.831559480312316 -2.057248383023656 0
      vertex -2.341957122256004 2.60100688917088 0
      vertex -2.341957122256004 -2.60100688917088 0
    endloop
  endfacet
  facet normal 0 0 -1
    outer loop
      vertex -2.341957122256004 -2.60100688917088 0
      vertex -1.75 3.031088913245535 0
      vertex -1.75 -3.031088913245535 0
    endloop
  endfacet
  facet normal -0.8660254037844388 -0.4999999999999996 0
    outer loop
      vertex -2.831559480312316 -2.057248383023656 0
      vertex -3.197409101749103 -1.4235782507653008 0.4
      vertex -3.197409101749103 -1.4235782507653008 0
    endloop
  endfacet
  facet normal -0.9510565162951534 -0.30901699437494795 0
    outer loop
      vertex -3.197409101749103 -1.4235782507653008 0
      vertex -3.42351660256832 -0.7276909178621577 0.4
      vertex -3.42351660256832 -0.7276909178621577 0
    endloop
  endfacet
  facet normal -0.9945218953682734 -0.10452846326765323 0
    outer loop
      vertex -3.42351660256832 -0.7276909178621577 0
      vertex -3.5 0 0.4
      vertex -3.5 0 0
    endloop
  endfacet
  facet normal 0 0 -1
    outer loop
      vertex -1.75 -3.031088913245535 0
      vertex -1.0036959095382874 -1.1147172382160915 0
      vertex -1.0815594803123159 -3.3286978070330373 0
    endloop
  endfacet
  facet normal 0 0 -1
    outer loop
      vertex -1.0815594803123159 -3.3286978070330373 0
      vertex -1.0036959095382874 -1.1147172382160915 0
      vertex -0.75 -1.299038105676658 0
    endloop
  endfacet
  facet normal 0 0 -1
    outer loop
      vertex -1.0815594803123159 -3.3286978070330373 0
      vertex -0.15679269490148018 -1.4917828430524098 0
      vertex -0.3658496214367871 -3.4808266337889564 0
    endloop
  endfacet
  facet normal 0 0 -1
    outer loop
      vertex -0.3658496214367871 -3.4808266337889564 0
      vertex -0.15679269490148018 -1.4917828430524098 0
      vertex 0.3658496214367871 -3.4808266337889564 0
    endloop
  endfacet
  facet normal 0 0 -1
    outer loop
      vertex -1.0815594803123159 -3.3286978070330373 0
      vertex -0.75 -1.299038105676658 0
      vertex -0.46352549156242107 -1.4265847744427302 0
    endloop
  endfacet
  facet normal 0 0 -1
    outer loop
      vertex -1.0815594803123159 -3.3286978070330373 0
      vertex -0.46352549156242107 -1.4265847744427302 0
      vertex -0.15679269490148018 -1.4917828430524098 0
    endloop
  endfacet
  facet normal -0.4067366430758 -0.913545457642601 0
    outer loop
      vertex -1.75 -3.031088913245535 0
      vertex -1.0815594803123159 -3.3286978070330373 0
      vertex -1.0815594803123159 -3.3286978070330373 0.4
    endloop
  endfacet
  facet normal -0.20791169081775926 -0.9781476007338057 0
    outer loop
      vertex -1.0815594803123159 -3.3286978070330373 0
      vertex -0.3658496214367871 -3.4808266337889564 0
      vertex -0.3658496214367871 -3.4808266337889564 0.4
    endloop
  endfacet
  facet normal 0 0 -1
    outer loop
      vertex -1.75 -3.031088913245535 0
      vertex -1.2135254915624212 -0.8816778784387097 0
      vertex -1.0036959095382874 -1.1147172382160915 0
    endloop
  endfacet
  facet normal 0 0 -1
    outer loop
      vertex -1.75 -3.031088913245535 0
      vertex -1.3703181864639014 -0.6101049646137003 0
      vertex -1.2135254915624212 -0.8816778784387097 0
    endloop
  endfacet
  facet normal 0 0 -1
    outer loop
      vertex -1.75 -3.031088913245535 0
      vertex -1.4672214011007085 -0.311867536226639 0
      vertex -1.3703181864639014 -0.6101049646137003 0
    endloop
  endfacet
  facet normal 0 0 -1
    outer loop
      vertex -1.75 -3.031088913245535 0
      vertex -1.5 0 0
      vertex -1.4672214011007085 -0.311867536226639 0
    endloop
  endfacet
  facet normal -0.8660254037844388 -0.4999999999999996 0
    outer loop
      vertex -2.831559480312316 -2.057248383023656 0
      vertex -2.831559480312316 -2.057248383023656 0.4
      vertex -3.197409101749103 -1.4235782507653008 0.4
    endloop
  endfacet
  facet normal -0.5877852522924729 -0.8090169943749476 0
    outer loop
      vertex -2.341957122256004 -2.60100688917088 0
      vertex -1.75 -3.031088913245535 0.4
      vertex -2.341957122256004 -2.60100688917088 0.4
    endloop
  endfacet
  facet normal -0.7431448254773944 -0.669130606358858 0
    outer loop
      vertex -2.341957122256004 -2.60100688917088 0
      vertex -2.341957122256004 -2.60100688917088 0.4
      vertex -2.831559480312316 -2.057248383023656 0.4
    endloop
  endfacet
  facet normal -0.9510565162951534 -0.30901699437494795 0
    outer loop
      vertex -3.197409101749103 -1.4235782507653008 0
      vertex -3.197409101749103 -1.4235782507653008 0.4
      vertex -3.42351660256832 -0.7276909178621577 0.4
    endloop
  endfacet
  facet normal -0.9945218953682734 -0.10452846326765323 0
    outer loop
      vertex -3.42351660256832 -0.7276909178621577 0
      vertex -3.42351660256832 -0.7276909178621577 0.4
      vertex -3.5 0 0.4
    endloop
  endfacet
  facet normal 0 0 1
    outer loop
      vertex -3.197409101749103 -1.4235782507653008 0.4
      vertex -3.42351660256832 0.7276909178621577 0.4
      vertex -3.42351660256832 -0.7276909178621577 0.4
    endloop
  endfacet
  facet normal 0 0 1
    outer loop
      vertex -2.831559480312316 -2.057248383023656 0.4
      vertex -3.197409101749103 1.4235782507653008 0.4
      vertex -3.197409101749103 -1.4235782507653008 0.4
    endloop
  endfacet
  facet normal 0 0 1
    outer loop
      vertex -2.831559480312316 -2.057248383023656 0.4
      vertex -2.341957122256004 -2.60100688917088 0.4
      vertex -2.831559480312316 2.057248383023656 0.4
    endloop
  endfacet
  facet normal 0 0 1
    outer loop
      vertex -2.341957122256004 -2.60100688917088 0.4
      vertex -1.75 -3.031088913245535 0.4
      vertex -2.341957122256004 2.60100688917088 0.4
    endloop
  endfacet
  facet normal -0.4067366430758 -0.913545457642601 0
    outer loop
      vertex -1.75 -3.031088913245535 0
      vertex -1.0815594803123159 -3.3286978070330373 0.4
      vertex -1.75 -3.031088913245535 0.4
    endloop
  endfacet
  facet normal -0.20791169081775926 -0.9781476007338057 0
    outer loop
      vertex -1.0815594803123159 -3.3286978070330373 0
      vertex -0.3658496214367871 -3.4808266337889564 0.4
      vertex -1.0815594803123159 -3.3286978070330373 0.4
    endloop
  endfacet
  facet normal 0 -1 0
    outer loop
      vertex -0.3658496214367871 -3.4808266337889564 0
      vertex 0.3658496214367871 -3.4808266337889564 0.4
      vertex -0.3658496214367871 -3.4808266337889564 0.4
    endloop
  endfacet
  facet normal 0 0 1
    outer loop
      vertex -1.75 -3.031088913245535 0.4
      vertex -1.0815594803123159 -3.3286978070330373 0.4
      vertex -1.3703181864639014 -0.6101049646137003 0.4
    endloop
  endfacet
  facet normal 0 0 1
    outer loop
      vertex -1.0815594803123159 -3.3286978070330373 0.4
      vertex -1.0036959095382874 -1.1147172382160915 0.4
      vertex -1.2135254915624212 -0.8816778784387097 0.4
    endloop
  endfacet
  facet normal 0 0 1
    outer loop
      vertex -1.0815594803123159 -3.3286978070330373 0.4
      vertex -0.75 -1.299038105676658 0.4
      vertex -1.0036959095382874 -1.1147172382160915 0.4
    endloop
  endfacet
  facet normal 0 0 1
    outer loop
      vertex -1.0815594803123159 -3.3286978070330373 0.4
      vertex -0.3658496214367871 -3.4808266337889564 0.4
      vertex -0.75 -1.299038105676658 0.4
    endloop
  endfacet
  facet normal 0 0 1
    outer loop
      vertex -0.3658496214367871 -3.4808266337889564 0.4
      vertex -0.46352549156242107 -1.4265847744427302 0.4
      vertex -0.75 -1.299038105676658 0.4
    endloop
  endfacet
  facet normal 0 0 1
    outer loop
      vertex -0.3658496214367871 -3.4808266337889564 0.4
      vertex -0.1567926949014802 -1.4917828430524098 0.4
      vertex -0.46352549156242107 -1.4265847744427302 0.4
    endloop
  endfacet
  facet normal 0 0 1
    outer loop
      vertex -0.3658496214367871 -3.4808266337889564 0.4
      vertex 0.15679269490148018 -1.4917828430524098 0.4
      vertex -0.1567926949014802 -1.4917828430524098 0.4
    endloop
  endfacet
  facet normal 0 0 1
    outer loop
      vertex -1.75 -3.031088913245535 0.4
      vertex -1.3703181864639014 -0.6101049646137003 0.4
      vertex -1.4672214011007085 -0.311867536226639 0.4
    endloop
  endfacet
  facet normal 0 0 1
    outer loop
      vertex -1.75 -3.031088913245535 0.4
      vertex -1.4672214011007085 -0.311867536226639 0.4
      vertex -1.5 0 0.4
    endloop
  endfacet
  facet normal 0 0 1
    outer loop
      vertex -1.0815594803123159 -3.3286978070330373 0.4
      vertex -1.2135254915624212 -0.8816778784387097 0.4
      vertex -1.3703181864639014 -0.6101049646137003 0.4
    endloop
  endfacet
  facet normal 0 0 -1
    outer loop
      vertex -3.42351660256832 -0.7276909178621577 0
      vertex -3.5 0 0
      vertex -3.42351660256832 0.7276909178621577 0
    endloop
  endfacet
  facet normal 0 0 -1
    outer loop
      vertex -3.42351660256832 -0.7276909178621577 0
      vertex -3.42351660256832 0.7276909178621577 0
      vertex -3.197409101749103 1.4235782507653008 0
    endloop
  endfacet
  facet normal 0 0 -1
    outer loop
      vertex -3.197409101749103 -1.4235782507653008 0
      vertex -3.197409101749103 1.4235782507653008 0
      vertex -2.831559480312316 2.057248383023656 0
    endloop
  endfacet
  facet normal 0 0 -1
    outer loop
      vertex -2.831559480312316 -2.057248383023656 0
      vertex -2.831559480312316 2.057248383023656 0
      vertex -2.341957122256004 2.60100688917088 0
    endloop
  endfacet
  facet normal 0 0 -1
    outer loop
      vertex -2.341957122256004 -2.60100688917088 0
      vertex -2.341957122256004 2.60100688917088 0
      vertex -1.75 3.031088913245535 0
    endloop
  endfacet
  facet normal -0.9945218953682734 0.10452846326765323 0
    outer loop
      vertex -3.5 0 0
      vertex -3.42351660256832 0.7276909178621577 0.4
      vertex -3.42351660256832 0.7276909178621577 0
    endloop
  endfacet
  facet normal -0.9510565162951534 0.30901699437494795 0
    outer loop
      vertex -3.42351660256832 0.7276909178621577 0
      vertex -3.197409101749103 1.4235782507653008 0.4
      vertex -3.197409101749103 1.4235782507653008 0
    endloop
  endfacet
  facet normal -0.8660254037844388 0.4999999999999996 0
    outer loop
      vertex -3.197409101749103 1.4235782507653008 0
      vertex -2.831559480312316 2.057248383023656 0.4
      vertex -2.831559480312316 2.057248383023656 0
    endloop
  endfacet
  facet normal -0.7431448254773944 0.669130606358858 0
    outer loop
      vertex -2.831559480312316 2.057248383023656 0
      vertex -2.341957122256004 2.60100688917088 0.4
      vertex -2.341957122256004 2.60100688917088 0
    endloop
  endfacet
  facet normal -0.5877852522924729 0.8090169943749476 0
    outer loop
      vertex -2.341957122256004 2.60100688917088 0
      vertex -2.341957122256004 2.60100688917088 0.4
      vertex -1.75 3.031088913245535 0
    endloop
  endfacet
  facet normal 0 0 -1
    outer loop
      vertex -1.75 -3.031088913245535 0
      vertex -1.75 3.031088913245535 0
      vertex -1.5 0 0
    endloop
  endfacet
  facet normal 0 0 -1
    outer loop
      vertex -1.75 3.031088913245535 0
      vertex -1.4672214011007085 0.311867536226639 0
      vertex -1.5 0 0
    endloop
  endfacet
  facet normal 0 0 -1
    outer loop
      vertex -1.75 3.031088913245535 0
      vertex -1.3703181864639014 0.6101049646137003 0
      vertex -1.4672214011007085 0.311867536226639 0
    endloop
  endfacet
  facet normal 0 0 -1
    outer loop
      vertex -1.0815594803123159 3.3286978070330373 0
      vertex -1.2135254915624212 0.8816778784387097 0
      vertex -1.3703181864639014 0.6101049646137003 0
    endloop
  endfacet
  facet normal 0 0 -1
    outer loop
      vertex -1.75 3.031088913245535 0
      vertex -1.0815594803123159 3.3286978070330373 0
      vertex -1.3703181864639014 0.6101049646137003 0
    endloop
  endfacet
  facet normal 0 0 -1
    outer loop
      vertex -1.0815594803123159 3.3286978070330373 0
      vertex -1.0036959095382874 1.1147172382160915 0
      vertex -1.2135254915624212 0.8816778784387097 0
    endloop
  endfacet
  facet normal 0 0 -1
    outer loop
      vertex -1.0815594803123159 3.3286978070330373 0
      vertex -0.75 1.299038105676658 0
      vertex -1.0036959095382874 1.1147172382160915 0
    endloop
  endfacet
  facet normal 0 0 -1
    outer loop
      vertex -0.3658496214367871 3.4808266337889564 0
      vertex -0.46352549156242107 1.4265847744427302 0
      vertex -0.75 1.299038105676658 0
    endloop
  endfacet
  facet normal 0 0 -1
    outer loop
      vertex -0.3658496214367871 3.4808266337889564 0
      vertex -0.1567926949014802 1.4917828430524098 0
      vertex -0.46352549156242107 1.4265847744427302 0
    endloop
  endfacet
  facet normal 0 0 -1
    outer loop
      vertex -0.3658496214367871 3.4808266337889564 0
      vertex 0.15679269490148018 1.4917828430524098 0
      vertex -0.1567926949014802 1.4917828430524098 0
    endloop
  endfacet
  facet normal 0 0 -1
    outer loop
      vertex -1.0815594803123159 3.3286978070330373 0
      vertex -0.3658496214367871 3.4808266337889564 0
      vertex -0.75 1.299038105676658 0
    endloop
  endfacet
  facet normal -0.4067366430758 0.913545457642601 0
    outer loop
      vertex -1.75 3.031088913245535 0
      vertex -1.75 3.031088913245535 0.4
      vertex -1.0815594803123159 3.3286978070330373 0
    endloop
  endfacet
  facet normal -0.20791169081775926 0.9781476007338057 0
    outer loop
      vertex -1.0815594803123159 3.3286978070330373 0
      vertex -1.0815594803123159 3.3286978070330373 0.4
      vertex -0.3658496214367871 3.4808266337889564 0
    endloop
  endfacet
  facet normal 0 1 0
    outer loop
      vertex -0.3658496214367871 3.4808266337889564 0
      vertex -0.3658496214367871 3.4808266337889564 0.4
      vertex 0.3658496214367871 3.4808266337889564 0
    endloop
  endfacet
  facet normal -0.9945218953682734 0.10452846326765323 0
    outer loop
      vertex -3.5 0 0
      vertex -3.5 0 0.4
      vertex -3.42351660256832 0.7276909178621577 0.4
    endloop
  endfacet
  facet normal -0.9510565162951534 0.30901699437494795 0
    outer loop
      vertex -3.42351660256832 0.7276909178621577 0
      vertex -3.42351660256832 0.7276909178621577 0.4
      vertex -3.197409101749103 1.4235782507653008 0.4
    endloop
  endfacet
  facet normal -0.8660254037844388 0.4999999999999996 0
    outer loop
      vertex -3.197409101749103 1.4235782507653008 0
      vertex -3.197409101749103 1.4235782507653008 0.4
      vertex -2.831559480312316 2.057248383023656 0.4
    endloop
  endfacet
  facet normal 0 0 1
    outer loop
      vertex -3.42351660256832 -0.7276909178621577 0.4
      vertex -3.42351660256832 0.7276909178621577 0.4
      vertex -3.5 0 0.4
    endloop
  endfacet
  facet normal 0 0 1
    outer loop
      vertex -3.197409101749103 -1.4235782507653008 0.4
      vertex -3.197409101749103 1.4235782507653008 0.4
      vertex -3.42351660256832 0.7276909178621577 0.4
    endloop
  endfacet
  facet normal 0 0 1
    outer loop
      vertex -2.831559480312316 -2.057248383023656 0.4
      vertex -2.831559480312316 2.057248383023656 0.4
      vertex -3.197409101749103 1.4235782507653008 0.4
    endloop
  endfacet
  facet normal 0 0 1
    outer loop
      vertex -2.341957122256004 -2.60100688917088 0.4
      vertex -2.341957122256004 2.60100688917088 0.4
      vertex -2.831559480312316 2.057248383023656 0.4
    endloop
  endfacet
  facet normal 0 0 1
    outer loop
      vertex -1.75 -3.031088913245535 0.4
      vertex -1.75 3.031088913245535 0.4
      vertex -2.341957122256004 2.60100688917088 0.4
    endloop
  endfacet
  facet normal -0.7431448254773944 0.669130606358858 0
    outer loop
      vertex -2.831559480312316 2.057248383023656 0
      vertex -2.831559480312316 2.057248383023656 0.4
      vertex -2.341957122256004 2.60100688917088 0.4
    endloop
  endfacet
  facet normal -0.5877852522924729 0.8090169943749476 0
    outer loop
      vertex -1.75 3.031088913245535 0
      vertex -2.341957122256004 2.60100688917088 0.4
      vertex -1.75 3.031088913245535 0.4
    endloop
  endfacet
  facet normal 0 0 1
    outer loop
      vertex -1.75 -3.031088913245535 0.4
      vertex -1.5 0 0.4
      vertex -1.75 3.031088913245535 0.4
    endloop
  endfacet
  facet normal 0 0 1
    outer loop
      vertex -1.75 3.031088913245535 0.4
      vertex -1.5 0 0.4
      vertex -1.4672214011007085 0.311867536226639 0.4
    endloop
  endfacet
  facet normal 0 0 1
    outer loop
      vertex -1.75 3.031088913245535 0.4
      vertex -1.4672214011007085 0.311867536226639 0.4
      vertex -1.3703181864639014 0.6101049646137003 0.4
    endloop
  endfacet
  facet normal 0 0 1
    outer loop
      vertex -1.75 3.031088913245535 0.4
      vertex -1.3703181864639014 0.6101049646137003 0.4
      vertex -1.2135254915624212 0.8816778784387097 0.4
    endloop
  endfacet
  facet normal 0 0 1
    outer loop
      vertex -1.75 3.031088913245535 0.4
      vertex -1.2135254915624212 0.8816778784387097 0.4
      vertex -1.0036959095382874 1.1147172382160915 0.4
    endloop
  endfacet
  facet normal -0.4067366430758 0.913545457642601 0
    outer loop
      vertex -1.0815594803123159 3.3286978070330373 0
      vertex -1.75 3.031088913245535 0.4
      vertex -1.0815594803123159 3.3286978070330373 0.4
    endloop
  endfacet
  facet normal -0.20791169081775926 0.9781476007338057 0
    outer loop
      vertex -0.3658496214367871 3.4808266337889564 0
      vertex -1.0815594803123159 3.3286978070330373 0.4
      vertex -0.3658496214367871 3.4808266337889564 0.4
    endloop
  endfacet
  facet normal 0 0 1
    outer loop
      vertex -1.0815594803123159 3.3286978070330373 0.4
      vertex -1.0036959095382874 1.1147172382160915 0.4
      vertex -0.75 1.299038105676658 0.4
    endloop
  endfacet
  facet normal 0 0 1
    outer loop
      vertex -1.75 3.031088913245535 0.4
      vertex -1.0036959095382874 1.1147172382160915 0.4
      vertex -1.0815594803123159 3.3286978070330373 0.4
    endloop
  endfacet
  facet normal 0 0 1
    outer loop
      vertex -1.0815594803123159 3.3286978070330373 0.4
      vertex -0.75 1.299038105676658 0.4
      vertex -0.46352549156242107 1.4265847744427302 0.4
    endloop
  endfacet
  facet normal 0 0 1
    outer loop
      vertex -1.0815594803123159 3.3286978070330373 0.4
      vertex -0.46352549156242107 1.4265847744427302 0.4
      vertex -0.15679269490148018 1.4917828430524098 0.4
    endloop
  endfacet
  facet normal 0 0 1
    outer loop
      vertex -1.0815594803123159 3.3286978070330373 0.4
      vertex -0.15679269490148018 1.4917828430524098 0.4
      vertex -0.3658496214367871 3.4808266337889564 0.4
    endloop
  endfacet
  facet normal 0 0 1
    outer loop
      vertex -0.3658496214367871 3.4808266337889564 0.4
      vertex -0.15679269490148018 1.4917828430524098 0.4
      vertex 0.3658496214367871 3.4808266337889564 0.4
    endloop
  endfacet
  facet normal 0 0 -1
    outer loop
      vertex 0.3658496214367871 -3.4808266337889564 0
      vertex 0.75 -1.299038105676658 0
      vertex 1.0815594803123159 -3.3286978070330373 0
    endloop
  endfacet
  facet normal 0 0 -1
    outer loop
      vertex 0.3658496214367871 -3.4808266337889564 0
      vertex -0.15679269490148018 -1.4917828430524098 0
      vertex 0.1567926949014802 -1.4917828430524098 0
    endloop
  endfacet
  facet normal 0 0 -1
    outer loop
      vertex 0.3658496214367871 -3.4808266337889564 0
      vertex 0.1567926949014802 -1.4917828430524098 0
      vertex 0.46352549156242107 -1.4265847744427302 0
    endloop
  endfacet
  facet normal 0 0 -1
    outer loop
      vertex 0.3658496214367871 -3.4808266337889564 0
      vertex 0.46352549156242107 -1.4265847744427302 0
      vertex 0.75 -1.299038105676658 0
    endloop
  endfacet
  facet normal 0 0 -1
    outer loop
      vertex 1.0815594803123159 -3.3286978070330373 0
      vertex 0.75 -1.299038105676658 0
      vertex 1.0036959095382874 -1.1147172382160915 0
    endloop
  endfacet
  facet normal 0 0 -1
    outer loop
      vertex 1.0815594803123159 -3.3286978070330373 0
      vertex 1.0036959095382874 -1.1147172382160915 0
      vertex 1.2135254915624212 -0.8816778784387097 0
    endloop
  endfacet
  facet normal 0 0 -1
    outer loop
      vertex 1.0815594803123159 -3.3286978070330373 0
      vertex 1.3703181864639014 -0.6101049646137003 0
      vertex 1.75 -3.031088913245535 0
    endloop
  endfacet
  facet normal 0 -1 0
    outer loop
      vertex -0.3658496214367871 -3.4808266337889564 0
      vertex 0.3658496214367871 -3.4808266337889564 0
      vertex 0.3658496214367871 -3.4808266337889564 0.4
    endloop
  endfacet
  facet normal 0.20791169081775926 -0.9781476007338057 0
    outer loop
      vertex 0.3658496214367871 -3.4808266337889564 0
      vertex 1.0815594803123159 -3.3286978070330373 0
      vertex 1.0815594803123159 -3.3286978070330373 0.4
    endloop
  endfacet
  facet normal 0.4067366430758 -0.913545457642601 0
    outer loop
      vertex 1.0815594803123159 -3.3286978070330373 0
      vertex 1.75 -3.031088913245535 0
      vertex 1.75 -3.031088913245535 0.4
    endloop
  endfacet
  facet normal 0 0 -1
    outer loop
      vertex 1.0815594803123159 -3.3286978070330373 0
      vertex 1.2135254915624212 -0.8816778784387097 0
      vertex 1.3703181864639014 -0.6101049646137003 0
    endloop
  endfacet
  facet normal 0 0 -1
    outer loop
      vertex 1.75 -3.031088913245535 0
      vertex 1.3703181864639014 -0.6101049646137003 0
      vertex 1.4672214011007085 -0.311867536226639 0
    endloop
  endfacet
  facet normal 0 0 -1
    outer loop
      vertex 1.75 -3.031088913245535 0
      vertex 1.4672214011007085 -0.311867536226639 0
      vertex 1.5 0 0
    endloop
  endfacet
  facet normal 0.5877852522924729 -0.8090169943749476 0
    outer loop
      vertex 1.75 -3.031088913245535 0
      vertex 2.341957122256004 -2.60100688917088 0
      vertex 2.341957122256004 -2.60100688917088 0.4
    endloop
  endfacet
  facet normal 0.7431448254773944 -0.669130606358858 0
    outer loop
      vertex 2.341957122256004 -2.60100688917088 0
      vertex 2.831559480312316 -2.057248383023656 0
      vertex 2.341957122256004 -2.60100688917088 0.4
    endloop
  endfacet
  facet normal 0.8660254037844388 -0.4999999999999996 0
    outer loop
      vertex 2.831559480312316 -2.057248383023656 0
      vertex 3.197409101749103 -1.4235782507653008 0
      vertex 2.831559480312316 -2.057248383023656 0.4
    endloop
  endfacet
  facet normal 0 0 -1
    outer loop
      vertex 1.75 -3.031088913245535 0
      vertex 2.341957122256004 2.60100688917088 0
      vertex 2.341957122256004 -2.60100688917088 0
    endloop
  endfacet
  facet normal 0 0 -1
    outer loop
      vertex 2.341957122256004 -2.60100688917088 0
      vertex 2.831559480312316 2.057248383023656 0
      vertex 2.831559480312316 -2.057248383023656 0
    endloop
  endfacet
  facet normal 0 0 -1
    outer loop
      vertex 2.831559480312316 -2.057248383023656 0
      vertex 3.197409101749103 1.4235782507653008 0
      vertex 3.197409101749103 -1.4235782507653008 0
    endloop
  endfacet
  facet normal 0 0 -1
    outer loop
      vertex 3.197409101749103 -1.4235782507653008 0
      vertex 3.42351660256832 0.7276909178621577 0
      vertex 3.42351660256832 -0.7276909178621577 0
    endloop
  endfacet
  facet normal 0.9510565162951534 -0.30901699437494795 0
    outer loop
      vertex 3.197409101749103 -1.4235782507653008 0
      vertex 3.42351660256832 -0.7276909178621577 0
      vertex 3.197409101749103 -1.4235782507653008 0.4
    endloop
  endfacet
  facet normal 0.9945218953682734 -0.10452846326765323 0
    outer loop
      vertex 3.42351660256832 -0.7276909178621577 0
      vertex 3.5 0 0
      vertex 3.42351660256832 -0.7276909178621577 0.4
    endloop
  endfacet
  facet normal 0.20791169081775926 -0.9781476007338057 0
    outer loop
      vertex 0.3658496214367871 -3.4808266337889564 0
      vertex 1.0815594803123159 -3.3286978070330373 0.4
      vertex 0.3658496214367871 -3.4808266337889564 0.4
    endloop
  endfacet
  facet normal 0.4067366430758 -0.913545457642601 0
    outer loop
      vertex 1.0815594803123159 -3.3286978070330373 0
      vertex 1.75 -3.031088913245535 0.4
      vertex 1.0815594803123159 -3.3286978070330373 0.4
    endloop
  endfacet
  facet normal 0 0 1
    outer loop
      vertex -0.3658496214367871 -3.4808266337889564 0.4
      vertex 0.3658496214367871 -3.4808266337889564 0.4
      vertex 0.15679269490148018 -1.4917828430524098 0.4
    endloop
  endfacet
  facet normal 0 0 1
    outer loop
      vertex 0.3658496214367871 -3.4808266337889564 0.4
      vertex 1.0815594803123159 -3.3286978070330373 0.4
      vertex 0.15679269490148018 -1.4917828430524098 0.4
    endloop
  endfacet
  facet normal 0 0 1
    outer loop
      vertex 1.0815594803123159 -3.3286978070330373 0.4
      vertex 0.46352549156242107 -1.4265847744427302 0.4
      vertex 0.15679269490148018 -1.4917828430524098 0.4
    endloop
  endfacet
  facet normal 0 0 1
    outer loop
      vertex 1.0815594803123159 -3.3286978070330373 0.4
      vertex 0.75 -1.299038105676658 0.4
      vertex 0.46352549156242107 -1.4265847744427302 0.4
    endloop
  endfacet
  facet normal 0 0 1
    outer loop
      vertex 1.0815594803123159 -3.3286978070330373 0.4
      vertex 1.75 -3.031088913245535 0.4
      vertex 1.0036959095382874 -1.1147172382160915 0.4
    endloop
  endfacet
  facet normal 0 0 1
    outer loop
      vertex 1.0815594803123159 -3.3286978070330373 0.4
      vertex 1.0036959095382874 -1.1147172382160915 0.4
      vertex 0.75 -1.299038105676658 0.4
    endloop
  endfacet
  facet normal 0 0 1
    outer loop
      vertex 1.75 -3.031088913245535 0.4
      vertex 1.2135254915624212 -0.8816778784387097 0.4
      vertex 1.0036959095382874 -1.1147172382160915 0.4
    endloop
  endfacet
  facet normal 0 0 1
    outer loop
      vertex 1.75 -3.031088913245535 0.4
      vertex 1.3703181864639014 -0.6101049646137003 0.4
      vertex 1.2135254915624212 -0.8816778784387097 0.4
    endloop
  endfacet
  facet normal 0 0 1
    outer loop
      vertex 1.75 -3.031088913245535 0.4
      vertex 1.4672214011007085 -0.311867536226639 0.4
      vertex 1.3703181864639014 -0.6101049646137003 0.4
    endloop
  endfacet
  facet normal 0 0 1
    outer loop
      vertex 1.75 -3.031088913245535 0.4
      vertex 1.5 0 0.4
      vertex 1.4672214011007085 -0.311867536226639 0.4
    endloop
  endfacet
  facet normal 0.5877852522924729 -0.8090169943749476 0
    outer loop
      vertex 1.75 -3.031088913245535 0
      vertex 2.341957122256004 -2.60100688917088 0.4
      vertex 1.75 -3.031088913245535 0.4
    endloop
  endfacet
  facet normal 0.7431448254773944 -0.669130606358858 0
    outer loop
      vertex 2.831559480312316 -2.057248383023656 0
      vertex 2.831559480312316 -2.057248383023656 0.4
      vertex 2.341957122256004 -2.60100688917088 0.4
    endloop
  endfacet
  facet normal 0.8660254037844388 -0.4999999999999996 0
    outer loop
      vertex 3.197409101749103 -1.4235782507653008 0
      vertex 3.197409101749103 -1.4235782507653008 0.4
      vertex 2.831559480312316 -2.057248383023656 0.4
    endloop
  endfacet
  facet normal 0.9510565162951534 -0.30901699437494795 0
    outer loop
      vertex 3.42351660256832 -0.7276909178621577 0
      vertex 3.42351660256832 -0.7276909178621577 0.4
      vertex 3.197409101749103 -1.4235782507653008 0.4
    endloop
  endfacet
  facet normal 0.9945218953682734 -0.10452846326765323 0
    outer loop
      vertex 3.42351660256832 -0.7276909178621577 0.4
      vertex 3.5 0 0
      vertex 3.5 0 0.4
    endloop
  endfacet
  facet normal 0 0 1
    outer loop
      vertex 1.75 -3.031088913245535 0.4
      vertex 2.341957122256004 -2.60100688917088 0.4
      vertex 1.75 3.031088913245535 0.4
    endloop
  endfacet
  facet normal 0 0 1
    outer loop
      vertex 2.341957122256004 -2.60100688917088 0.4
      vertex 2.831559480312316 -2.057248383023656 0.4
      vertex 2.341957122256004 2.60100688917088 0.4
    endloop
  endfacet
  facet normal 0 0 1
    outer loop
      vertex 2.831559480312316 -2.057248383023656 0.4
      vertex 3.197409101749103 -1.4235782507653008 0.4
      vertex 2.831559480312316 2.057248383023656 0.4
    endloop
  endfacet
  facet normal 0 0 1
    outer loop
      vertex 3.197409101749103 -1.4235782507653008 0.4
      vertex 3.42351660256832 -0.7276909178621577 0.4
      vertex 3.197409101749103 1.4235782507653008 0.4
    endloop
  endfacet
  facet normal 0 0 -1
    outer loop
      vertex 1.75 -3.031088913245535 0
      vertex 1.5 0 0
      vertex 1.75 3.031088913245535 0
    endloop
  endfacet
  facet normal 0 0 -1
    outer loop
      vertex 1.75 3.031088913245535 0
      vertex 1.5 0 0
      vertex 1.4672214011007085 0.311867536226639 0
    endloop
  endfacet
  facet normal 0 0 -1
    outer loop
      vertex 1.75 3.031088913245535 0
      vertex 1.4672214011007085 0.311867536226639 0
      vertex 1.3703181864639014 0.6101049646137003 0
    endloop
  endfacet
  facet normal 0 0 -1
    outer loop
      vertex 1.75 3.031088913245535 0
      vertex 1.3703181864639014 0.6101049646137003 0
      vertex 1.2135254915624212 0.8816778784387097 0
    endloop
  endfacet
  facet normal 0 0 -1
    outer loop
      vertex 1.75 3.031088913245535 0
      vertex 1.2135254915624212 0.8816778784387097 0
      vertex 1.0036959095382874 1.1147172382160915 0
    endloop
  endfacet
  facet normal 0 0 -1
    outer loop
      vertex 1.0815594803123159 3.3286978070330373 0
      vertex 0.46352549156242107 1.4265847744427302 0
      vertex 0.15679269490148018 1.4917828430524098 0
    endloop
  endfacet
  facet normal 0 0 -1
    outer loop
      vertex 1.0815594803123159 3.3286978070330373 0
      vertex 0.75 1.299038105676658 0
      vertex 0.46352549156242107 1.4265847744427302 0
    endloop
  endfacet
  facet normal 0 0 -1
    outer loop
      vertex -0.3658496214367871 3.4808266337889564 0
      vertex 0.3658496214367871 3.4808266337889564 0
      vertex 0.15679269490148018 1.4917828430524098 0
    endloop
  endfacet
  facet normal 0 0 -1
    outer loop
      vertex 0.3658496214367871 3.4808266337889564 0
      vertex 1.0815594803123159 3.3286978070330373 0
      vertex 0.15679269490148018 1.4917828430524098 0
    endloop
  endfacet
  facet normal 0 0 -1
    outer loop
      vertex 1.0815594803123159 3.3286978070330373 0
      vertex 1.0036959095382874 1.1147172382160915 0
      vertex 0.75 1.299038105676658 0
    endloop
  endfacet
  facet normal 0 0 -1
    outer loop
      vertex 1.0815594803123159 3.3286978070330373 0
      vertex 1.75 3.031088913245535 0
      vertex 1.0036959095382874 1.1147172382160915 0
    endloop
  endfacet
  facet normal 0.20791169081775926 0.9781476007338057 0
    outer loop
      vertex 0.3658496214367871 3.4808266337889564 0
      vertex 0.3658496214367871 3.4808266337889564 0.4
      vertex 1.0815594803123159 3.3286978070330373 0
    endloop
  endfacet
  facet normal 0.4067366430758 0.913545457642601 0
    outer loop
      vertex 1.0815594803123159 3.3286978070330373 0
      vertex 1.0815594803123159 3.3286978070330373 0.4
      vertex 1.75 3.031088913245535 0
    endloop
  endfacet
  facet normal 0 0 -1
    outer loop
      vertex 1.75 -3.031088913245535 0
      vertex 1.75 3.031088913245535 0
      vertex 2.341957122256004 2.60100688917088 0
    endloop
  endfacet
  facet normal 0 0 -1
    outer loop
      vertex 2.341957122256004 -2.60100688917088 0
      vertex 2.341957122256004 2.60100688917088 0
      vertex 2.831559480312316 2.057248383023656 0
    endloop
  endfacet
  facet normal 0 0 -1
    outer loop
      vertex 2.831559480312316 -2.057248383023656 0
      vertex 2.831559480312316 2.057248383023656 0
      vertex 3.197409101749103 1.4235782507653008 0
    endloop
  endfacet
  facet normal 0 0 -1
    outer loop
      vertex 3.197409101749103 -1.4235782507653008 0
      vertex 3.197409101749103 1.4235782507653008 0
      vertex 3.42351660256832 0.7276909178621577 0
    endloop
  endfacet
  facet normal 0 0 -1
    outer loop
      vertex 3.42351660256832 -0.7276909178621577 0
      vertex 3.42351660256832 0.7276909178621577 0
      vertex 3.5 0 0
    endloop
  endfacet
  facet normal 0.9945218953682734 0.10452846326765323 0
    outer loop
      vertex 3.5 0 0
      vertex 3.42351660256832 0.7276909178621577 0
      vertex 3.5 0 0.4
    endloop
  endfacet
  facet normal 0.9510565162951534 0.30901699437494795 0
    outer loop
      vertex 3.42351660256832 0.7276909178621577 0
      vertex 3.197409101749103 1.4235782507653008 0
      vertex 3.42351660256832 0.7276909178621577 0.4
    endloop
  endfacet
  facet normal 0.8660254037844388 0.4999999999999996 0
    outer loop
      vertex 3.197409101749103 1.4235782507653008 0
      vertex 2.831559480312316 2.057248383023656 0
      vertex 3.197409101749103 1.4235782507653008 0.4
    endloop
  endfacet
  facet normal 0.5877852522924729 0.8090169943749476 0
    outer loop
      vertex 2.341957122256004 2.60100688917088 0
      vertex 1.75 3.031088913245535 0
      vertex 1.75 3.031088913245535 0.4
    endloop
  endfacet
  facet normal 0.7431448254773944 0.669130606358858 0
    outer loop
      vertex 2.341957122256004 2.60100688917088 0
      vertex 2.831559480312316 2.057248383023656 0.4
      vertex 2.831559480312316 2.057248383023656 0
    endloop
  endfacet
  facet normal 0 0 1
    outer loop
      vertex 1.75 -3.031088913245535 0.4
      vertex 1.75 3.031088913245535 0.4
      vertex 1.5 0 0.4
    endloop
  endfacet
  facet normal 0 0 1
    outer loop
      vertex 1.0815594803123159 3.3286978070330373 0.4
      vertex 1.2135254915624212 0.8816778784387097 0.4
      vertex 1.3703181864639014 0.6101049646137003 0.4
    endloop
  endfacet
  facet normal 0 0 1
    outer loop
      vertex 1.75 3.031088913245535 0.4
      vertex 1.4672214011007085 0.311867536226639 0.4
      vertex 1.5 0 0.4
    endloop
  endfacet
  facet normal 0 0 1
    outer loop
      vertex 1.75 3.031088913245535 0.4
      vertex 1.3703181864639014 0.6101049646137003 0.4
      vertex 1.4672214011007085 0.311867536226639 0.4
    endloop
  endfacet
  facet normal 0 1 0
    outer loop
      vertex -0.3658496214367871 3.4808266337889564 0.4
      vertex 0.3658496214367871 3.4808266337889564 0.4
      vertex 0.3658496214367871 3.4808266337889564 0
    endloop
  endfacet
  facet normal 0.20791169081775926 0.9781476007338057 0
    outer loop
      vertex 1.0815594803123159 3.3286978070330373 0
      vertex 0.3658496214367871 3.4808266337889564 0.4
      vertex 1.0815594803123159 3.3286978070330373 0.4
    endloop
  endfacet
  facet normal 0.4067366430758 0.913545457642601 0
    outer loop
      vertex 1.75 3.031088913245535 0
      vertex 1.0815594803123159 3.3286978070330373 0.4
      vertex 1.75 3.031088913245535 0.4
    endloop
  endfacet
  facet normal 0 0 1
    outer loop
      vertex 0.3658496214367871 3.4808266337889564 0.4
      vertex -0.15679269490148018 1.4917828430524098 0.4
      vertex 0.1567926949014802 1.4917828430524098 0.4
    endloop
  endfacet
  facet normal 0 0 1
    outer loop
      vertex 0.3658496214367871 3.4808266337889564 0.4
      vertex 0.1567926949014802 1.4917828430524098 0.4
      vertex 0.46352549156242107 1.4265847744427302 0.4
    endloop
  endfacet
  facet normal 0 0 1
    outer loop
      vertex 0.3658496214367871 3.4808266337889564 0.4
      vertex 0.46352549156242107 1.4265847744427302 0.4
      vertex 0.75 1.299038105676658 0.4
    endloop
  endfacet
  facet normal 0 0 1
    outer loop
      vertex 0.3658496214367871 3.4808266337889564 0.4
      vertex 0.75 1.299038105676658 0.4
      vertex 1.0815594803123159 3.3286978070330373 0.4
    endloop
  endfacet
  facet normal 0 0 1
    outer loop
      vertex 1.0815594803123159 3.3286978070330373 0.4
      vertex 0.75 1.299038105676658 0.4
      vertex 1.0036959095382874 1.1147172382160915 0.4
    endloop
  endfacet
  facet normal 0 0 1
    outer loop
      vertex 1.0815594803123159 3.3286978070330373 0.4
      vertex 1.0036959095382874 1.1147172382160915 0.4
      vertex 1.2135254915624212 0.8816778784387097 0.4
    endloop
  endfacet
  facet normal 0 0 1
    outer loop
      vertex 1.0815594803123159 3.3286978070330373 0.4
      vertex 1.3703181864639014 0.6101049646137003 0.4
      vertex 1.75 3.031088913245535 0.4
    endloop
  endfacet
  facet normal 0.9945218953682734 0.10452846326765323 0
    outer loop
      vertex 3.42351660256832 0.7276909178621577 0
      vertex 3.42351660256832 0.7276909178621577 0.4
      vertex 3.5 0 0.4
    endloop
  endfacet
  facet normal 0.9510565162951534 0.30901699437494795 0
    outer loop
      vertex 3.197409101749103 1.4235782507653008 0
      vertex 3.197409101749103 1.4235782507653008 0.4
      vertex 3.42351660256832 0.7276909178621577 0.4
    endloop
  endfacet
  facet normal 0 0 1
    outer loop
      vertex 2.341957122256004 -2.60100688917088 0.4
      vertex 2.341957122256004 2.60100688917088 0.4
      vertex 1.75 3.031088913245535 0.4
    endloop
  endfacet
  facet normal 0 0 1
    outer loop
      vertex 2.831559480312316 -2.057248383023656 0.4
      vertex 2.831559480312316 2.057248383023656 0.4
      vertex 2.341957122256004 2.60100688917088 0.4
    endloop
  endfacet
  facet normal 0 0 1
    outer loop
      vertex 3.42351660256832 -0.7276909178621577 0.4
      vertex 3.5 0 0.4
      vertex 3.42351660256832 0.7276909178621577 0.4
    endloop
  endfacet
  facet normal 0 0 1
    outer loop
      vertex 3.197409101749103 -1.4235782507653008 0.4
      vertex 3.197409101749103 1.4235782507653008 0.4
      vertex 2.831559480312316 2.057248383023656 0.4
    endloop
  endfacet
  facet normal 0 0 1
    outer loop
      vertex 3.42351660256832 -0.7276909178621577 0.4
      vertex 3.42351660256832 0.7276909178621577 0.4
      vertex 3.197409101749103 1.4235782507653008 0.4
    endloop
  endfacet
  facet normal 0.7431448254773944 0.669130606358858 0
    outer loop
      vertex 2.341957122256004 2.60100688917088 0
      vertex 2.341957122256004 2.60100688917088 0.4
      vertex 2.831559480312316 2.057248383023656 0.4
    endloop
  endfacet
  facet normal 0.5877852522924729 0.8090169943749476 0
    outer loop
      vertex 2.341957122256004 2.60100688917088 0
      vertex 1.75 3.031088913245535 0.4
      vertex 2.341957122256004 2.60100688917088 0.4
    endloop
  endfacet
  facet normal 0.8660254037844388 0.4999999999999996 0
    outer loop
      vertex 2.831559480312316 2.057248383023656 0
      vertex 2.831559480312316 2.057248383023656 0.4
      vertex 3.197409101749103 1.4235782507653008 0.4
    endloop
  endfacet
  facet normal 0.7431448254773945 0.6691306063588581 0
    outer loop
      vertex -1.0036959095382874 -1.1147172382160915 0
      vertex -1.2135254915624212 -0.8816778784387097 0
      vertex -1.2135254915624212 -0.8816778784387097 0.4
    endloop
  endfacet
  facet normal 0.587785252292473 0.8090169943749477 0
    outer loop
      vertex -0.75 -1.299038105676658 0
      vertex -1.0036959095382874 -1.1147172382160915 0
      vertex -1.0036959095382874 -1.1147172382160915 0.4
    endloop
  endfacet
  facet normal 0.8660254037844387 0.5 0
    outer loop
      vertex -1.2135254915624212 -0.8816778784387097 0
      vertex -1.3703181864639014 -0.6101049646137003 0
      vertex -1.3703181864639014 -0.6101049646137003 0.4
    endloop
  endfacet
  facet normal 0.9510565162951534 0.30901699437494756 0
    outer loop
      vertex -1.3703181864639014 -0.6101049646137003 0
      vertex -1.4672214011007085 -0.311867536226639 0
      vertex -1.4672214011007085 -0.311867536226639 0.4
    endloop
  endfacet
  facet normal 0.9945218953682735 0.10452846326765325 0
    outer loop
      vertex -1.5 0 0.4
      vertex -1.4672214011007085 -0.311867536226639 0
      vertex -1.5 0 0
    endloop
  endfacet
  facet normal 0.4067366430757997 0.9135454576426011 0
    outer loop
      vertex -0.75 -1.299038105676658 0
      vertex -0.75 -1.299038105676658 0.4
      vertex -0.46352549156242107 -1.4265847744427302 0
    endloop
  endfacet
  facet normal 0.20791169081775918 0.9781476007338057 0
    outer loop
      vertex -0.46352549156242107 -1.4265847744427302 0
      vertex -0.46352549156242107 -1.4265847744427302 0.4
      vertex -0.15679269490148018 -1.4917828430524098 0
    endloop
  endfacet
  facet normal 0 1 0
    outer loop
      vertex -0.1567926949014802 -1.4917828430524098 0.4
      vertex 0.1567926949014802 -1.4917828430524098 0
      vertex -0.15679269490148018 -1.4917828430524098 0
    endloop
  endfacet
  facet normal 0.7431448254773945 0.6691306063588581 0
    outer loop
      vertex -1.2135254915624212 -0.8816778784387097 0.4
      vertex -1.0036959095382874 -1.1147172382160915 0.4
      vertex -1.0036959095382874 -1.1147172382160915 0
    endloop
  endfacet
  facet normal 0.9510565162951534 0.30901699437494756 0
    outer loop
      vertex -1.3703181864639014 -0.6101049646137003 0
      vertex -1.4672214011007085 -0.311867536226639 0.4
      vertex -1.3703181864639014 -0.6101049646137003 0.4
    endloop
  endfacet
  facet normal 0.9945218953682735 0.10452846326765325 0
    outer loop
      vertex -1.5 0 0.4
      vertex -1.4672214011007085 -0.311867536226639 0.4
      vertex -1.4672214011007085 -0.311867536226639 0
    endloop
  endfacet
  facet normal 0.8660254037844387 0.5 0
    outer loop
      vertex -1.2135254915624212 -0.8816778784387097 0
      vertex -1.3703181864639014 -0.6101049646137003 0.4
      vertex -1.2135254915624212 -0.8816778784387097 0.4
    endloop
  endfacet
  facet normal 0.4067366430757997 0.9135454576426011 0
    outer loop
      vertex -0.75 -1.299038105676658 0.4
      vertex -0.46352549156242107 -1.4265847744427302 0.4
      vertex -0.46352549156242107 -1.4265847744427302 0
    endloop
  endfacet
  facet normal 0.587785252292473 0.8090169943749477 0
    outer loop
      vertex -0.75 -1.299038105676658 0
      vertex -1.0036959095382874 -1.1147172382160915 0.4
      vertex -0.75 -1.299038105676658 0.4
    endloop
  endfacet
  facet normal 0.20791169081775918 0.9781476007338057 1.4426771639663936e-17
    outer loop
      vertex -0.1567926949014802 -1.4917828430524098 0.4
      vertex -0.15679269490148018 -1.4917828430524098 0
      vertex -0.46352549156242107 -1.4265847744427302 0.4
    endloop
  endfacet
  facet normal 0.9945218953682735 -0.10452846326765325 0
    outer loop
      vertex -1.4672214011007085 0.311867536226639 0.4
      vertex -1.5 0 0
      vertex -1.4672214011007085 0.311867536226639 0
    endloop
  endfacet
  facet normal 0.9510565162951534 -0.30901699437494756 0
    outer loop
      vertex -1.4672214011007085 0.311867536226639 0
      vertex -1.3703181864639014 0.6101049646137003 0
      vertex -1.3703181864639014 0.6101049646137003 0.4
    endloop
  endfacet
  facet normal 0.8660254037844387 -0.5 0
    outer loop
      vertex -1.3703181864639014 0.6101049646137003 0
      vertex -1.2135254915624212 0.8816778784387097 0
      vertex -1.2135254915624212 0.8816778784387097 0.4
    endloop
  endfacet
  facet normal 0.7431448254773945 -0.6691306063588581 0
    outer loop
      vertex -1.2135254915624212 0.8816778784387097 0
      vertex -1.0036959095382874 1.1147172382160915 0
      vertex -1.0036959095382874 1.1147172382160915 0.4
    endloop
  endfacet
  facet normal 0.587785252292473 -0.8090169943749477 0
    outer loop
      vertex -0.75 1.299038105676658 0
      vertex -0.75 1.299038105676658 0.4
      vertex -1.0036959095382874 1.1147172382160915 0
    endloop
  endfacet
  facet normal 0.4067366430757997 -0.9135454576426011 0
    outer loop
      vertex -0.46352549156242107 1.4265847744427302 0
      vertex -0.46352549156242107 1.4265847744427302 0.4
      vertex -0.75 1.299038105676658 0
    endloop
  endfacet
  facet normal 0.20791169081775923 -0.9781476007338058 -1.442677163966394e-17
    outer loop
      vertex -0.15679269490148018 1.4917828430524098 0.4
      vertex -0.46352549156242107 1.4265847744427302 0
      vertex -0.1567926949014802 1.4917828430524098 0
    endloop
  endfacet
  facet normal 0.9945218953682735 -0.10452846326765325 0
    outer loop
      vertex -1.4672214011007085 0.311867536226639 0.4
      vertex -1.5 0 0.4
      vertex -1.5 0 0
    endloop
  endfacet
  facet normal 0.9510565162951534 -0.30901699437494756 0
    outer loop
      vertex -1.3703181864639014 0.6101049646137003 0.4
      vertex -1.4672214011007085 0.311867536226639 0.4
      vertex -1.4672214011007085 0.311867536226639 0
    endloop
  endfacet
  facet normal 0.8660254037844387 -0.5 0
    outer loop
      vertex -1.3703181864639014 0.6101049646137003 0
      vertex -1.2135254915624212 0.8816778784387097 0.4
      vertex -1.3703181864639014 0.6101049646137003 0.4
    endloop
  endfacet
  facet normal 0.7431448254773945 -0.6691306063588581 0
    outer loop
      vertex -1.2135254915624212 0.8816778784387097 0
      vertex -1.0036959095382874 1.1147172382160915 0.4
      vertex -1.2135254915624212 0.8816778784387097 0.4
    endloop
  endfacet
  facet normal 0.587785252292473 -0.8090169943749477 0
    outer loop
      vertex -0.75 1.299038105676658 0.4
      vertex -1.0036959095382874 1.1147172382160915 0.4
      vertex -1.0036959095382874 1.1147172382160915 0
    endloop
  endfacet
  facet normal 0.4067366430757997 -0.9135454576426011 0
    outer loop
      vertex -0.75 1.299038105676658 0
      vertex -0.46352549156242107 1.4265847744427302 0.4
      vertex -0.75 1.299038105676658 0.4
    endloop
  endfacet
  facet normal 0.20791169081775918 -0.9781476007338057 0
    outer loop
      vertex -0.15679269490148018 1.4917828430524098 0.4
      vertex -0.46352549156242107 1.4265847744427302 0.4
      vertex -0.46352549156242107 1.4265847744427302 0
    endloop
  endfacet
  facet normal 0 -1 0
    outer loop
      vertex 0.1567926949014802 1.4917828430524098 0.4
      vertex -0.15679269490148018 1.4917828430524098 0.4
      vertex -0.1567926949014802 1.4917828430524098 0
    endloop
  endfacet
  facet normal -0.20791169081775918 0.9781476007338057 -1.4426771639663936e-17
    outer loop
      vertex 0.1567926949014802 -1.4917828430524098 0
      vertex 0.15679269490148018 -1.4917828430524098 0.4
      vertex 0.46352549156242107 -1.4265847744427302 0
    endloop
  endfacet
  facet normal -0.4067366430757997 0.9135454576426011 0
    outer loop
      vertex 0.46352549156242107 -1.4265847744427302 0.4
      vertex 0.75 -1.299038105676658 0
      vertex 0.46352549156242107 -1.4265847744427302 0
    endloop
  endfacet
  facet normal -0.587785252292473 0.8090169943749477 0
    outer loop
      vertex 0.75 -1.299038105676658 0
      vertex 0.75 -1.299038105676658 0.4
      vertex 1.0036959095382874 -1.1147172382160915 0
    endloop
  endfacet
  facet normal -0.7431448254773945 0.6691306063588581 0
    outer loop
      vertex 1.2135254915624212 -0.8816778784387097 0
      vertex 1.0036959095382874 -1.1147172382160915 0
      vertex 1.0036959095382874 -1.1147172382160915 0.4
    endloop
  endfacet
  facet normal -0.8660254037844387 0.5 0
    outer loop
      vertex 1.2135254915624212 -0.8816778784387097 0.4
      vertex 1.3703181864639014 -0.6101049646137003 0
      vertex 1.2135254915624212 -0.8816778784387097 0
    endloop
  endfacet
  facet normal -0.9510565162951534 0.30901699437494756 0
    outer loop
      vertex 1.4672214011007085 -0.311867536226639 0
      vertex 1.3703181864639014 -0.6101049646137003 0
      vertex 1.3703181864639014 -0.6101049646137003 0.4
    endloop
  endfacet
  facet normal -0.9945218953682735 0.10452846326765325 0
    outer loop
      vertex 1.4672214011007085 -0.311867536226639 0
      vertex 1.4672214011007085 -0.311867536226639 0.4
      vertex 1.5 0 0
    endloop
  endfacet
  facet normal 0 1 0
    outer loop
      vertex -0.1567926949014802 -1.4917828430524098 0.4
      vertex 0.15679269490148018 -1.4917828430524098 0.4
      vertex 0.1567926949014802 -1.4917828430524098 0
    endloop
  endfacet
  facet normal -0.20791169081775918 0.9781476007338057 0
    outer loop
      vertex 0.15679269490148018 -1.4917828430524098 0.4
      vertex 0.46352549156242107 -1.4265847744427302 0.4
      vertex 0.46352549156242107 -1.4265847744427302 0
    endloop
  endfacet
  facet normal -0.4067366430757997 0.9135454576426011 0
    outer loop
      vertex 0.75 -1.299038105676658 0
      vertex 0.46352549156242107 -1.4265847744427302 0.4
      vertex 0.75 -1.299038105676658 0.4
    endloop
  endfacet
  facet normal -0.587785252292473 0.8090169943749477 0
    outer loop
      vertex 0.75 -1.299038105676658 0.4
      vertex 1.0036959095382874 -1.1147172382160915 0.4
      vertex 1.0036959095382874 -1.1147172382160915 0
    endloop
  endfacet
  facet normal -0.7431448254773945 0.6691306063588581 0
    outer loop
      vertex 1.0036959095382874 -1.1147172382160915 0.4
      vertex 1.2135254915624212 -0.8816778784387097 0.4
      vertex 1.2135254915624212 -0.8816778784387097 0
    endloop
  endfacet
  facet normal -0.8660254037844387 0.5 0
    outer loop
      vertex 1.2135254915624212 -0.8816778784387097 0.4
      vertex 1.3703181864639014 -0.6101049646137003 0.4
      vertex 1.3703181864639014 -0.6101049646137003 0
    endloop
  endfacet
  facet normal -0.9510565162951534 0.30901699437494756 0
    outer loop
      vertex 1.3703181864639014 -0.6101049646137003 0.4
      vertex 1.4672214011007085 -0.311867536226639 0.4
      vertex 1.4672214011007085 -0.311867536226639 0
    endloop
  endfacet
  facet normal -0.9945218953682735 0.10452846326765325 0
    outer loop
      vertex 1.5 0 0
      vertex 1.4672214011007085 -0.311867536226639 0.4
      vertex 1.5 0 0.4
    endloop
  endfacet
  facet normal 0 -1 0
    outer loop
      vertex -0.1567926949014802 1.4917828430524098 0
      vertex 0.15679269490148018 1.4917828430524098 0
      vertex 0.1567926949014802 1.4917828430524098 0.4
    endloop
  endfacet
  facet normal -0.20791169081775918 -0.9781476007338057 0
    outer loop
      vertex 0.46352549156242107 1.4265847744427302 0.4
      vertex 0.15679269490148018 1.4917828430524098 0
      vertex 0.46352549156242107 1.4265847744427302 0
    endloop
  endfacet
  facet normal -0.4067366430757997 -0.9135454576426011 0
    outer loop
      vertex 0.75 1.299038105676658 0
      vertex 0.75 1.299038105676658 0.4
      vertex 0.46352549156242107 1.4265847744427302 0
    endloop
  endfacet
  facet normal -0.9945218953682735 -0.10452846326765325 0
    outer loop
      vertex 1.5 0 0
      vertex 1.5 0 0.4
      vertex 1.4672214011007085 0.311867536226639 0
    endloop
  endfacet
  facet normal -0.9510565162951534 -0.30901699437494756 0
    outer loop
      vertex 1.3703181864639014 0.6101049646137003 0
      vertex 1.4672214011007085 0.311867536226639 0
      vertex 1.4672214011007085 0.311867536226639 0.4
    endloop
  endfacet
  facet normal -0.8660254037844387 -0.5 0
    outer loop
      vertex 1.3703181864639014 0.6101049646137003 0.4
      vertex 1.2135254915624212 0.8816778784387097 0
      vertex 1.3703181864639014 0.6101049646137003 0
    endloop
  endfacet
  facet normal -0.587785252292473 -0.8090169943749477 0
    outer loop
      vertex 1.0036959095382874 1.1147172382160915 0
      vertex 1.0036959095382874 1.1147172382160915 0.4
      vertex 0.75 1.299038105676658 0
    endloop
  endfacet
  facet normal -0.7431448254773945 -0.6691306063588581 0
    outer loop
      vertex 1.0036959095382874 1.1147172382160915 0
      vertex 1.2135254915624212 0.8816778784387097 0
      vertex 1.2135254915624212 0.8816778784387097 0.4
    endloop
  endfacet
  facet normal -0.20791169081775923 -0.9781476007338058 1.442677163966394e-17
    outer loop
      vertex 0.15679269490148018 1.4917828430524098 0
      vertex 0.46352549156242107 1.4265847744427302 0.4
      vertex 0.1567926949014802 1.4917828430524098 0.4
    endloop
  endfacet
  facet normal -0.587785252292473 -0.8090169943749477 0
    outer loop
      vertex 0.75 1.299038105676658 0
      vertex 1.0036959095382874 1.1147172382160915 0.4
      vertex 0.75 1.299038105676658 0.4
    endloop
  endfacet
  facet normal -0.4067366430757997 -0.9135454576426011 0
    outer loop
      vertex 0.75 1.299038105676658 0.4
      vertex 0.46352549156242107 1.4265847744427302 0.4
      vertex 0.46352549156242107 1.4265847744427302 0
    endloop
  endfacet
  facet normal -0.8660254037844387 -0.5 0
    outer loop
      vertex 1.3703181864639014 0.6101049646137003 0.4
      vertex 1.2135254915624212 0.8816778784387097 0.4
      vertex 1.2135254915624212 0.8816778784387097 0
    endloop
  endfacet
  facet normal -0.9945218953682735 -0.10452846326765325 0
    outer loop
      vertex 1.4672214011007085 0.311867536226639 0
      vertex 1.5 0 0.4
      vertex 1.4672214011007085 0.311867536226639 0.4
    endloop
  endfacet
  facet normal -0.9510565162951534 -0.30901699437494756 0
    outer loop
      vertex 1.3703181864639014 0.6101049646137003 0
      vertex 1.4672214011007085 0.311867536226639 0.4
      vertex 1.3703181864639014 0.6101049646137003 0.4
    endloop
  endfacet
  facet normal -0.7431448254773945 -0.6691306063588581 0
    outer loop
      vertex 1.2135254915624212 0.8816778784387097 0.4
      vertex 1.0036959095382874 1.1147172382160915 0.4
      vertex 1.0036959095382874 1.1147172382160915 0
    endloop
  endfacet
endsolid OpenSCAD_Model
