solid OpenSCAD_Model
  facet normal -0.999507 0.0314108 0
    outer loop
      vertex -0.999938 0.00197315 -31
      vertex -0.723742 8.79067 31
      vertex -0.723742 8.79067 -31
    endloop
  endfacet
  facet normal -0.999507 0.0314108 0
    outer loop
      vertex -0.723742 8.79067 31
      vertex -0.999938 0.00197315 -31
      vertex -0.999938 0.00197315 31
    endloop
  endfacet
  facet normal -0.827086 0.562076 0
    outer loop
      vertex 20.7941 75.0157 -31
      vertex 24.18 79.998 31
      vertex 24.18 79.998 -31
    endloop
  endfacet
  facet normal -0.827086 0.562076 0
    outer loop
      vertex 24.18 79.998 31
      vertex 20.7941 75.0157 -31
      vertex 20.7941 75.0157 31
    endloop
  endfacet
  facet normal -0.960294 0.278991 0
    outer loop
      vertex 3.39836 34.8166 -31
      vertex 5.85209 43.2624 31
      vertex 5.85209 43.2624 -31
    endloop
  endfacet
  facet normal -0.960294 0.278991 0
    outer loop
      vertex 5.85209 43.2624 31
      vertex 3.39836 34.8166 -31
      vertex 3.39836 34.8166 31
    endloop
  endfacet
  facet normal -0.891004 0.453995 0
    outer loop
      vertex 12.3242 59.6091 -31
      vertex 16.3171 67.4455 31
      vertex 16.3171 67.4455 -31
    endloop
  endfacet
  facet normal -0.891004 0.453995 0
    outer loop
      vertex 16.3171 67.4455 31
      vertex 12.3242 59.6091 -31
      vertex 12.3242 59.6091 31
    endloop
  endfacet
  facet normal -0.860742 0.509041 0
    outer loop
      vertex 16.3171 67.4455 -31
      vertex 20.7941 75.0157 31
      vertex 20.7941 75.0157 -31
    endloop
  endfacet
  facet normal -0.860742 0.509041 0
    outer loop
      vertex 20.7941 75.0157 31
      vertex 16.3171 67.4455 -31
      vertex 16.3171 67.4455 31
    endloop
  endfacet
  facet normal -0.94088 0.33874 0
    outer loop
      vertex 5.85209 43.2624 -31
      vertex 8.83129 51.5374 31
      vertex 8.83129 51.5374 -31
    endloop
  endfacet
  facet normal -0.94088 0.33874 0
    outer loop
      vertex 8.83129 51.5374 31
      vertex 5.85209 43.2624 -31
      vertex 5.85209 43.2624 31
    endloop
  endfacet
  facet normal -0.987688 0.156434 0
    outer loop
      vertex 0.103942 17.5467 -31
      vertex 1.47978 26.2334 31
      vertex 1.47978 26.2334 -31
    endloop
  endfacet
  facet normal -0.987688 0.156434 0
    outer loop
      vertex 1.47978 26.2334 31
      vertex 0.103942 17.5467 -31
      vertex 0.103942 17.5467 31
    endloop
  endfacet
  facet normal -0.917756 0.397145 0
    outer loop
      vertex 8.83129 51.5374 -31
      vertex 12.3242 59.6091 31
      vertex 12.3242 59.6091 -31
    endloop
  endfacet
  facet normal -0.917756 0.397145 0
    outer loop
      vertex 12.3242 59.6091 31
      vertex 8.83129 51.5374 -31
      vertex 8.83129 51.5374 31
    endloop
  endfacet
  facet normal -0.975917 0.218144 0
    outer loop
      vertex 1.47978 26.2334 -31
      vertex 3.39836 34.8166 31
      vertex 3.39836 34.8166 -31
    endloop
  endfacet
  facet normal -0.975917 0.218144 0
    outer loop
      vertex 3.39836 34.8166 31
      vertex 1.47978 26.2334 -31
      vertex 1.47978 26.2334 31
    endloop
  endfacet
  facet normal -0.995562 0.0941078 0
    outer loop
      vertex -0.723742 8.79067 -31
      vertex 0.103942 17.5467 31
      vertex 0.103942 17.5467 -31
    endloop
  endfacet
  facet normal -0.995562 0.0941078 0
    outer loop
      vertex 0.103942 17.5467 31
      vertex -0.723742 8.79067 -31
      vertex -0.723742 8.79067 31
    endloop
  endfacet
  facet normal 0 0 1
    outer loop
      vertex 25.9686 79.2487 31
      vertex 25.9931 79.1094 31
      vertex 25.9921 79.1253 31
    endloop
  endfacet
  facet normal 0 0 1
    outer loop
      vertex 25.9298 79.3681 31
      vertex 25.9931 79.1094 31
      vertex 25.9686 79.2487 31
    endloop
  endfacet
  facet normal 0 0 1
    outer loop
      vertex 25.8763 79.4818 31
      vertex 25.9931 79.1094 31
      vertex 25.9298 79.3681 31
    endloop
  endfacet
  facet normal 0 0 1
    outer loop
      vertex 25.809 79.5878 31
      vertex 25.9931 79.1094 31
      vertex 25.8763 79.4818 31
    endloop
  endfacet
  facet normal 0 0 1
    outer loop
      vertex 25.729 79.6845 31
      vertex 25.9931 79.1094 31
      vertex 25.809 79.5878 31
    endloop
  endfacet
  facet normal 0 0 1
    outer loop
      vertex 25.6374 79.7705 31
      vertex 25.9931 79.1094 31
      vertex 25.729 79.6845 31
    endloop
  endfacet
  facet normal 0 0 1
    outer loop
      vertex 25.5358 79.8443 31
      vertex 25.9931 79.1094 31
      vertex 25.6374 79.7705 31
    endloop
  endfacet
  facet normal 0 0 1
    outer loop
      vertex 25.4258 79.9048 31
      vertex 25.9931 79.1094 31
      vertex 25.5358 79.8443 31
    endloop
  endfacet
  facet normal 0 0 1
    outer loop
      vertex 25.309 79.9511 31
      vertex 25.9931 79.1094 31
      vertex 25.4258 79.9048 31
    endloop
  endfacet
  facet normal 0 0 1
    outer loop
      vertex 25.1874 79.9823 31
      vertex 25.9931 79.1094 31
      vertex 25.309 79.9511 31
    endloop
  endfacet
  facet normal 0 0 1
    outer loop
      vertex 25.0628 79.998 31
      vertex 25.9931 79.1094 31
      vertex 25.1874 79.9823 31
    endloop
  endfacet
  facet normal -0 0 1
    outer loop
      vertex 24.18 79.998 31
      vertex 25.9931 79.1094 31
      vertex 25.0628 79.998 31
    endloop
  endfacet
  facet normal 0 0 1
    outer loop
      vertex 24.18 79.998 31
      vertex 22.4827 73.9441 31
      vertex 25.9931 79.1094 31
    endloop
  endfacet
  facet normal -0 0 1
    outer loop
      vertex 20.7941 75.0157 31
      vertex 22.4827 73.9441 31
      vertex 24.18 79.998 31
    endloop
  endfacet
  facet normal 0 0 1
    outer loop
      vertex 20.7941 75.0157 31
      vertex 18.0697 66.482 31
      vertex 22.4827 73.9441 31
    endloop
  endfacet
  facet normal -0 0 1
    outer loop
      vertex 16.3171 67.4455 31
      vertex 18.0697 66.482 31
      vertex 20.7941 75.0157 31
    endloop
  endfacet
  facet normal 0 0 1
    outer loop
      vertex 16.3171 67.4455 31
      vertex 14.1339 58.7575 31
      vertex 18.0697 66.482 31
    endloop
  endfacet
  facet normal -0 0 1
    outer loop
      vertex 12.3242 59.6091 31
      vertex 14.1339 58.7575 31
      vertex 16.3171 67.4455 31
    endloop
  endfacet
  facet normal 0 0 1
    outer loop
      vertex 12.3242 59.6091 31
      vertex 10.6908 50.8012 31
      vertex 14.1339 58.7575 31
    endloop
  endfacet
  facet normal -0 0 1
    outer loop
      vertex 8.83129 51.5374 31
      vertex 10.6908 50.8012 31
      vertex 12.3242 59.6091 31
    endloop
  endfacet
  facet normal 0 0 1
    outer loop
      vertex 8.83129 51.5374 31
      vertex 7.7542 42.6443 31
      vertex 10.6908 50.8012 31
    endloop
  endfacet
  facet normal -0 0 1
    outer loop
      vertex 5.85209 43.2624 31
      vertex 7.7542 42.6443 31
      vertex 8.83129 51.5374 31
    endloop
  endfacet
  facet normal 0 0 1
    outer loop
      vertex 5.85209 43.2624 31
      vertex 5.33552 34.3192 31
      vertex 7.7542 42.6443 31
    endloop
  endfacet
  facet normal -0 0 1
    outer loop
      vertex 3.39836 34.8166 31
      vertex 5.33552 34.3192 31
      vertex 5.85209 43.2624 31
    endloop
  endfacet
  facet normal 0 0 1
    outer loop
      vertex 5.33552 34.3192 31
      vertex 3.39836 34.8166 31
      vertex 3.44436 25.8586 31
    endloop
  endfacet
  facet normal -0 0 1
    outer loop
      vertex 1.47978 26.2334 31
      vertex 3.44436 25.8586 31
      vertex 3.39836 34.8166 31
    endloop
  endfacet
  facet normal 0 0 1
    outer loop
      vertex 3.44436 25.8586 31
      vertex 1.47978 26.2334 31
      vertex 2.08817 17.296 31
    endloop
  endfacet
  facet normal -0 0 1
    outer loop
      vertex 0.103942 17.5467 31
      vertex 2.08817 17.296 31
      vertex 1.47978 26.2334 31
    endloop
  endfacet
  facet normal 0 0 1
    outer loop
      vertex 2.08817 17.296 31
      vertex 0.103942 17.5467 31
      vertex 1.27231 8.66509 31
    endloop
  endfacet
  facet normal -0 0 1
    outer loop
      vertex -0.723742 8.79067 31
      vertex 1.27231 8.66509 31
      vertex 0.103942 17.5467 31
    endloop
  endfacet
  facet normal 0 0 1
    outer loop
      vertex 1.00384 0.122242 31
      vertex 4.38114 -19.5398 31
      vertex 6.3084 -19.0054 31
    endloop
  endfacet
  facet normal 0 0 1
    outer loop
      vertex 1.27231 8.66509 31
      vertex -0.723742 8.79067 31
      vertex 1.00384 0.122242 31
    endloop
  endfacet
  facet normal 0 0 1
    outer loop
      vertex -0.999793 0.00197315 31
      vertex 1.00384 0.122242 31
      vertex -0.723742 8.79067 31
    endloop
  endfacet
  facet normal 0 0 1
    outer loop
      vertex 1.00384 0.122242 31
      vertex -0.959264 -0.266028 31
      vertex 4.38114 -19.5398 31
    endloop
  endfacet
  facet normal 0 0 1
    outer loop
      vertex 4.38114 -19.5398 31
      vertex -0.959264 -0.266028 31
      vertex -0.96363 -0.267238 31
    endloop
  endfacet
  facet normal 0 0 1
    outer loop
      vertex 1.00384 0.122242 31
      vertex -0.999793 0.00197315 31
      vertex -0.959264 -0.266028 31
    endloop
  endfacet
  facet normal 0 0 1
    outer loop
      vertex -0.959264 -0.266028 31
      vertex -0.999793 0.00197315 31
      vertex -0.978148 -0.207911 31
    endloop
  endfacet
  facet normal 0 -0 1
    outer loop
      vertex -0.999793 0.00197315 31
      vertex -0.723742 8.79067 31
      vertex -0.999938 0.00197315 31
    endloop
  endfacet
  facet normal 0 0 1
    outer loop
      vertex -0.978148 -0.207911 31
      vertex -0.999793 0.00197315 31
      vertex -1 0 31
    endloop
  endfacet
  facet normal 0 0 -1
    outer loop
      vertex -0.978148 -0.207911 -31
      vertex -1 0 -31
      vertex -0.999793 0.00197315 -31
    endloop
  endfacet
  facet normal 0 0 -1
    outer loop
      vertex 4.38114 -19.5398 -31
      vertex 1.00384 0.122242 -31
      vertex 6.3084 -19.0054 -31
    endloop
  endfacet
  facet normal 0 0 -1
    outer loop
      vertex 1.27231 8.66509 -31
      vertex -0.723742 8.79067 -31
      vertex 0.103942 17.5467 -31
    endloop
  endfacet
  facet normal 0 0 -1
    outer loop
      vertex -0.959264 -0.266028 -31
      vertex 1.00384 0.122242 -31
      vertex 4.38114 -19.5398 -31
    endloop
  endfacet
  facet normal 0 0 -1
    outer loop
      vertex -0.999793 0.00197315 -31
      vertex 1.00384 0.122242 -31
      vertex -0.959264 -0.266028 -31
    endloop
  endfacet
  facet normal 0 -0 -1
    outer loop
      vertex -0.959264 -0.266028 -31
      vertex 4.38114 -19.5398 -31
      vertex -0.96363 -0.267238 -31
    endloop
  endfacet
  facet normal 0 0 -1
    outer loop
      vertex 25.9931 79.1094 -31
      vertex 25.9686 79.2487 -31
      vertex 25.9921 79.1253 -31
    endloop
  endfacet
  facet normal 0 0 -1
    outer loop
      vertex 25.9931 79.1094 -31
      vertex 25.9298 79.3681 -31
      vertex 25.9686 79.2487 -31
    endloop
  endfacet
  facet normal 0 0 -1
    outer loop
      vertex 25.9931 79.1094 -31
      vertex 25.8763 79.4818 -31
      vertex 25.9298 79.3681 -31
    endloop
  endfacet
  facet normal 0 0 -1
    outer loop
      vertex 25.9931 79.1094 -31
      vertex 25.809 79.5878 -31
      vertex 25.8763 79.4818 -31
    endloop
  endfacet
  facet normal 0 0 -1
    outer loop
      vertex 25.9931 79.1094 -31
      vertex 25.729 79.6845 -31
      vertex 25.809 79.5878 -31
    endloop
  endfacet
  facet normal 0 0 -1
    outer loop
      vertex 25.9931 79.1094 -31
      vertex 25.6374 79.7705 -31
      vertex 25.729 79.6845 -31
    endloop
  endfacet
  facet normal 0 0 -1
    outer loop
      vertex 25.9931 79.1094 -31
      vertex 25.5358 79.8443 -31
      vertex 25.6374 79.7705 -31
    endloop
  endfacet
  facet normal 0 0 -1
    outer loop
      vertex 25.9931 79.1094 -31
      vertex 25.4258 79.9048 -31
      vertex 25.5358 79.8443 -31
    endloop
  endfacet
  facet normal 0 0 -1
    outer loop
      vertex 25.9931 79.1094 -31
      vertex 25.309 79.9511 -31
      vertex 25.4258 79.9048 -31
    endloop
  endfacet
  facet normal 0 0 -1
    outer loop
      vertex 25.9931 79.1094 -31
      vertex 25.1874 79.9823 -31
      vertex 25.309 79.9511 -31
    endloop
  endfacet
  facet normal 0 0 -1
    outer loop
      vertex 25.9931 79.1094 -31
      vertex 25.0628 79.998 -31
      vertex 25.1874 79.9823 -31
    endloop
  endfacet
  facet normal 0 0 -1
    outer loop
      vertex 25.9931 79.1094 -31
      vertex 24.18 79.998 -31
      vertex 25.0628 79.998 -31
    endloop
  endfacet
  facet normal 0 0 -1
    outer loop
      vertex 22.4827 73.9441 -31
      vertex 24.18 79.998 -31
      vertex 25.9931 79.1094 -31
    endloop
  endfacet
  facet normal 0 0 -1
    outer loop
      vertex 22.4827 73.9441 -31
      vertex 20.7941 75.0157 -31
      vertex 24.18 79.998 -31
    endloop
  endfacet
  facet normal 0 0 -1
    outer loop
      vertex 18.0697 66.482 -31
      vertex 20.7941 75.0157 -31
      vertex 22.4827 73.9441 -31
    endloop
  endfacet
  facet normal 0 0 -1
    outer loop
      vertex 18.0697 66.482 -31
      vertex 16.3171 67.4455 -31
      vertex 20.7941 75.0157 -31
    endloop
  endfacet
  facet normal 0 0 -1
    outer loop
      vertex 14.1339 58.7575 -31
      vertex 16.3171 67.4455 -31
      vertex 18.0697 66.482 -31
    endloop
  endfacet
  facet normal 0 0 -1
    outer loop
      vertex 14.1339 58.7575 -31
      vertex 12.3242 59.6091 -31
      vertex 16.3171 67.4455 -31
    endloop
  endfacet
  facet normal 0 0 -1
    outer loop
      vertex 10.6908 50.8012 -31
      vertex 12.3242 59.6091 -31
      vertex 14.1339 58.7575 -31
    endloop
  endfacet
  facet normal 0 0 -1
    outer loop
      vertex 10.6908 50.8012 -31
      vertex 8.83129 51.5374 -31
      vertex 12.3242 59.6091 -31
    endloop
  endfacet
  facet normal 0 0 -1
    outer loop
      vertex 7.7542 42.6443 -31
      vertex 8.83129 51.5374 -31
      vertex 10.6908 50.8012 -31
    endloop
  endfacet
  facet normal 0 0 -1
    outer loop
      vertex 7.7542 42.6443 -31
      vertex 5.85209 43.2624 -31
      vertex 8.83129 51.5374 -31
    endloop
  endfacet
  facet normal 0 0 -1
    outer loop
      vertex 5.33552 34.3192 -31
      vertex 5.85209 43.2624 -31
      vertex 7.7542 42.6443 -31
    endloop
  endfacet
  facet normal 0 0 -1
    outer loop
      vertex 3.39836 34.8166 -31
      vertex 5.33552 34.3192 -31
      vertex 3.44436 25.8586 -31
    endloop
  endfacet
  facet normal 0 0 -1
    outer loop
      vertex 5.33552 34.3192 -31
      vertex 3.39836 34.8166 -31
      vertex 5.85209 43.2624 -31
    endloop
  endfacet
  facet normal 0 0 -1
    outer loop
      vertex 1.47978 26.2334 -31
      vertex 3.44436 25.8586 -31
      vertex 2.08817 17.296 -31
    endloop
  endfacet
  facet normal 0 0 -1
    outer loop
      vertex 3.44436 25.8586 -31
      vertex 1.47978 26.2334 -31
      vertex 3.39836 34.8166 -31
    endloop
  endfacet
  facet normal 0 0 -1
    outer loop
      vertex 0.103942 17.5467 -31
      vertex 2.08817 17.296 -31
      vertex 1.27231 8.66509 -31
    endloop
  endfacet
  facet normal 0 0 -1
    outer loop
      vertex -0.723742 8.79067 -31
      vertex 1.27231 8.66509 -31
      vertex 1.00384 0.122242 -31
    endloop
  endfacet
  facet normal 0 0 -1
    outer loop
      vertex 2.08817 17.296 -31
      vertex 0.103942 17.5467 -31
      vertex 1.47978 26.2334 -31
    endloop
  endfacet
  facet normal 0 0 -1
    outer loop
      vertex -0.999793 0.00197315 -31
      vertex -0.959264 -0.266028 -31
      vertex -0.978148 -0.207911 -31
    endloop
  endfacet
  facet normal -0 0 -1
    outer loop
      vertex 1.00384 0.122242 -31
      vertex -0.999793 0.00197315 -31
      vertex -0.723742 8.79067 -31
    endloop
  endfacet
  facet normal 0 0 -1
    outer loop
      vertex -0.723742 8.79067 -31
      vertex -0.999793 0.00197315 -31
      vertex -0.999938 0.00197315 -31
    endloop
  endfacet
  facet normal 0.999507 -0.0314108 0
    outer loop
      vertex 1.00384 0.122242 31
      vertex 1.27231 8.66509 -31
      vertex 1.27231 8.66509 31
    endloop
  endfacet
  facet normal 0.999507 -0.0314108 0
    outer loop
      vertex 1.27231 8.66509 -31
      vertex 1.00384 0.122242 31
      vertex 1.00384 0.122242 -31
    endloop
  endfacet
  facet normal 0.960293 -0.278993 0
    outer loop
      vertex 5.33552 34.3192 31
      vertex 7.7542 42.6443 -31
      vertex 7.7542 42.6443 31
    endloop
  endfacet
  facet normal 0.960293 -0.278993 0
    outer loop
      vertex 7.7542 42.6443 -31
      vertex 5.33552 34.3192 31
      vertex 5.33552 34.3192 -31
    endloop
  endfacet
  facet normal 0.891008 -0.453988 0
    outer loop
      vertex 14.1339 58.7575 31
      vertex 18.0697 66.482 -31
      vertex 18.0697 66.482 31
    endloop
  endfacet
  facet normal 0.891008 -0.453988 0
    outer loop
      vertex 18.0697 66.482 -31
      vertex 14.1339 58.7575 31
      vertex 14.1339 58.7575 -31
    endloop
  endfacet
  facet normal 0.860746 -0.509035 0
    outer loop
      vertex 18.0697 66.482 31
      vertex 22.4827 73.9441 -31
      vertex 22.4827 73.9441 31
    endloop
  endfacet
  facet normal 0.860746 -0.509035 0
    outer loop
      vertex 22.4827 73.9441 -31
      vertex 18.0697 66.482 31
      vertex 18.0697 66.482 -31
    endloop
  endfacet
  facet normal 0.940883 -0.338731 0
    outer loop
      vertex 7.7542 42.6443 31
      vertex 10.6908 50.8012 -31
      vertex 10.6908 50.8012 31
    endloop
  endfacet
  facet normal 0.940883 -0.338731 0
    outer loop
      vertex 10.6908 50.8012 -31
      vertex 7.7542 42.6443 31
      vertex 7.7542 42.6443 -31
    endloop
  endfacet
  facet normal 0.987688 -0.156435 0
    outer loop
      vertex 2.08817 17.296 31
      vertex 3.44436 25.8586 -31
      vertex 3.44436 25.8586 31
    endloop
  endfacet
  facet normal 0.987688 -0.156435 0
    outer loop
      vertex 3.44436 25.8586 -31
      vertex 2.08817 17.296 31
      vertex 2.08817 17.296 -31
    endloop
  endfacet
  facet normal 0.91775 -0.397158 0
    outer loop
      vertex 10.6908 50.8012 31
      vertex 14.1339 58.7575 -31
      vertex 14.1339 58.7575 31
    endloop
  endfacet
  facet normal 0.91775 -0.397158 0
    outer loop
      vertex 14.1339 58.7575 -31
      vertex 10.6908 50.8012 31
      vertex 10.6908 50.8012 -31
    endloop
  endfacet
  facet normal 0.975917 -0.218142 0
    outer loop
      vertex 3.44436 25.8586 31
      vertex 5.33552 34.3192 -31
      vertex 5.33552 34.3192 31
    endloop
  endfacet
  facet normal 0.975917 -0.218142 0
    outer loop
      vertex 5.33552 34.3192 -31
      vertex 3.44436 25.8586 31
      vertex 3.44436 25.8586 -31
    endloop
  endfacet
  facet normal 0.995562 -0.0941082 0
    outer loop
      vertex 1.27231 8.66509 31
      vertex 2.08817 17.296 -31
      vertex 2.08817 17.296 31
    endloop
  endfacet
  facet normal 0.995562 -0.0941082 0
    outer loop
      vertex 2.08817 17.296 -31
      vertex 1.27231 8.66509 31
      vertex 1.27231 8.66509 -31
    endloop
  endfacet
  facet normal 0.827076 -0.562091 0
    outer loop
      vertex 22.4827 73.9441 31
      vertex 25.9931 79.1094 -31
      vertex 25.9931 79.1094 31
    endloop
  endfacet
  facet normal 0.827076 -0.562091 0
    outer loop
      vertex 25.9931 79.1094 -31
      vertex 22.4827 73.9441 31
      vertex 22.4827 73.9441 -31
    endloop
  endfacet
  facet normal 0 -1 0
    outer loop
      vertex -0.999938 0.00197315 -31
      vertex -0.999793 0.00197315 31
      vertex -0.999938 0.00197315 31
    endloop
  endfacet
  facet normal 0 -1 -0
    outer loop
      vertex -0.999793 0.00197315 31
      vertex -0.999938 0.00197315 -31
      vertex -0.999793 0.00197315 -31
    endloop
  endfacet
  facet normal 0.770502 0.637437 0
    outer loop
      vertex 25.809 79.5878 31
      vertex 25.729 79.6845 -31
      vertex 25.729 79.6845 31
    endloop
  endfacet
  facet normal 0.770502 0.637437 0
    outer loop
      vertex 25.729 79.6845 -31
      vertex 25.809 79.5878 31
      vertex 25.809 79.5878 -31
    endloop
  endfacet
  facet normal 0.587698 0.80908 -0
    outer loop
      vertex 25.6374 79.7705 -31
      vertex 25.5358 79.8443 31
      vertex 25.6374 79.7705 31
    endloop
  endfacet
  facet normal 0.587698 0.80908 0
    outer loop
      vertex 25.5358 79.8443 31
      vertex 25.6374 79.7705 -31
      vertex 25.5358 79.8443 -31
    endloop
  endfacet
  facet normal 0.998028 0.0627691 0
    outer loop
      vertex 25.9931 79.1094 31
      vertex 25.9921 79.1253 -31
      vertex 25.9921 79.1253 31
    endloop
  endfacet
  facet normal 0.998028 0.0627691 0
    outer loop
      vertex 25.9921 79.1253 -31
      vertex 25.9931 79.1094 31
      vertex 25.9931 79.1094 -31
    endloop
  endfacet
  facet normal 0 1 -0
    outer loop
      vertex 25.0628 79.998 -31
      vertex 24.18 79.998 31
      vertex 25.0628 79.998 31
    endloop
  endfacet
  facet normal 0 1 0
    outer loop
      vertex 24.18 79.998 31
      vertex 25.0628 79.998 -31
      vertex 24.18 79.998 -31
    endloop
  endfacet
  facet normal 0.982346 0.187076 0
    outer loop
      vertex 25.9921 79.1253 31
      vertex 25.9686 79.2487 -31
      vertex 25.9686 79.2487 31
    endloop
  endfacet
  facet normal 0.982346 0.187076 0
    outer loop
      vertex 25.9686 79.2487 -31
      vertex 25.9921 79.1253 31
      vertex 25.9921 79.1253 -31
    endloop
  endfacet
  facet normal 0.481919 0.876216 -0
    outer loop
      vertex 25.5358 79.8443 -31
      vertex 25.4258 79.9048 31
      vertex 25.5358 79.8443 31
    endloop
  endfacet
  facet normal 0.481919 0.876216 0
    outer loop
      vertex 25.4258 79.9048 31
      vertex 25.5358 79.8443 -31
      vertex 25.4258 79.9048 -31
    endloop
  endfacet
  facet normal 0.844219 0.535999 0
    outer loop
      vertex 25.8763 79.4818 31
      vertex 25.809 79.5878 -31
      vertex 25.809 79.5878 31
    endloop
  endfacet
  facet normal 0.844219 0.535999 0
    outer loop
      vertex 25.809 79.5878 -31
      vertex 25.8763 79.4818 31
      vertex 25.8763 79.4818 -31
    endloop
  endfacet
  facet normal 0.368507 0.929625 -0
    outer loop
      vertex 25.4258 79.9048 -31
      vertex 25.309 79.9511 31
      vertex 25.4258 79.9048 31
    endloop
  endfacet
  facet normal 0.368507 0.929625 0
    outer loop
      vertex 25.309 79.9511 31
      vertex 25.4258 79.9048 -31
      vertex 25.309 79.9511 -31
    endloop
  endfacet
  facet normal 0.125015 0.992155 -0
    outer loop
      vertex 25.1874 79.9823 -31
      vertex 25.0628 79.998 31
      vertex 25.1874 79.9823 31
    endloop
  endfacet
  facet normal 0.125015 0.992155 0
    outer loop
      vertex 25.0628 79.998 31
      vertex 25.1874 79.9823 -31
      vertex 25.0628 79.998 -31
    endloop
  endfacet
  facet normal 0.248529 0.968625 -0
    outer loop
      vertex 25.309 79.9511 -31
      vertex 25.1874 79.9823 31
      vertex 25.309 79.9511 31
    endloop
  endfacet
  facet normal 0.248529 0.968625 0
    outer loop
      vertex 25.1874 79.9823 31
      vertex 25.309 79.9511 -31
      vertex 25.1874 79.9823 -31
    endloop
  endfacet
  facet normal 0.951046 0.30905 0
    outer loop
      vertex 25.9686 79.2487 31
      vertex 25.9298 79.3681 -31
      vertex 25.9298 79.3681 31
    endloop
  endfacet
  facet normal 0.951046 0.30905 0
    outer loop
      vertex 25.9298 79.3681 -31
      vertex 25.9686 79.2487 31
      vertex 25.9686 79.2487 -31
    endloop
  endfacet
  facet normal 0.904837 0.425759 0
    outer loop
      vertex 25.9298 79.3681 31
      vertex 25.8763 79.4818 -31
      vertex 25.8763 79.4818 31
    endloop
  endfacet
  facet normal 0.904837 0.425759 0
    outer loop
      vertex 25.8763 79.4818 -31
      vertex 25.9298 79.3681 31
      vertex 25.9298 79.3681 -31
    endloop
  endfacet
  facet normal 0.68447 0.729041 -0
    outer loop
      vertex 25.729 79.6845 -31
      vertex 25.6374 79.7705 31
      vertex 25.729 79.6845 31
    endloop
  endfacet
  facet normal 0.68447 0.729041 0
    outer loop
      vertex 25.6374 79.7705 31
      vertex 25.729 79.6845 -31
      vertex 25.6374 79.7705 -31
    endloop
  endfacet
  facet normal 0.96363 0.267239 0
    outer loop
      vertex 1.00384 0.122242 31
      vertex 3.26572 -8.03382 21.5
      vertex 1.00384 0.122242 -31
    endloop
  endfacet
  facet normal 0.963623 0.267264 2.42428e-05
    outer loop
      vertex 1.00384 0.122242 -31
      vertex 3.22936 -7.90272 -21.8056
      vertex 3.21078 -7.8357 -22.1328
    endloop
  endfacet
  facet normal 0.96363 0.267239 -0
    outer loop
      vertex 3.26572 -8.03382 -21.5
      vertex 1.00384 0.122242 -31
      vertex 3.26572 -8.03382 21.5
    endloop
  endfacet
  facet normal 0.963635 0.26722 -1.69587e-05
    outer loop
      vertex 1.00384 0.122242 -31
      vertex 3.26572 -8.03382 -21.5
      vertex 3.22936 -7.90272 -21.8056
    endloop
  endfacet
  facet normal 0.963633 0.267229 0
    outer loop
      vertex 3.31826 -8.22328 21.2294
      vertex 3.26572 -8.03382 -21.5
      vertex 3.26572 -8.03382 21.5
    endloop
  endfacet
  facet normal 0.963633 0.267229 0
    outer loop
      vertex 3.31826 -8.22328 21.2294
      vertex 3.31826 -8.22328 -21.2294
      vertex 3.26572 -8.03382 -21.5
    endloop
  endfacet
  facet normal 0.963628 0.267248 0
    outer loop
      vertex 3.38469 -8.46281 21.0056
      vertex 3.31826 -8.22328 -21.2294
      vertex 3.31826 -8.22328 21.2294
    endloop
  endfacet
  facet normal 0.963628 0.267248 0
    outer loop
      vertex 3.38469 -8.46281 21.0056
      vertex 3.38469 -8.46281 -21.0056
      vertex 3.31826 -8.22328 -21.2294
    endloop
  endfacet
  facet normal 0.963635 0.267222 0
    outer loop
      vertex 3.4621 -8.74196 20.8383
      vertex 3.38469 -8.46281 -21.0056
      vertex 3.38469 -8.46281 21.0056
    endloop
  endfacet
  facet normal 0.963635 0.267222 0
    outer loop
      vertex 3.4621 -8.74196 20.8383
      vertex 3.4621 -8.74196 -20.8383
      vertex 3.38469 -8.46281 -21.0056
    endloop
  endfacet
  facet normal 0.963625 0.267256 0
    outer loop
      vertex 3.54712 -9.04851 20.735
      vertex 3.4621 -8.74196 -20.8383
      vertex 3.4621 -8.74196 20.8383
    endloop
  endfacet
  facet normal 0.963625 0.267256 0
    outer loop
      vertex 3.54712 -9.04851 20.735
      vertex 3.54712 -9.04851 -20.735
      vertex 3.4621 -8.74196 -20.8383
    endloop
  endfacet
  facet normal 0.963638 0.267213 0
    outer loop
      vertex 3.63601 -9.36907 20.7
      vertex 3.54712 -9.04851 -20.735
      vertex 3.54712 -9.04851 20.735
    endloop
  endfacet
  facet normal 0.963638 0.267213 0
    outer loop
      vertex 3.63601 -9.36907 20.7
      vertex 3.63601 -9.36907 -20.7
      vertex 3.54712 -9.04851 -20.735
    endloop
  endfacet
  facet normal 0.96363 0.267241 0
    outer loop
      vertex 3.72491 -9.68963 20.735
      vertex 3.63601 -9.36907 -20.7
      vertex 3.63601 -9.36907 20.7
    endloop
  endfacet
  facet normal 0.96363 0.267241 0
    outer loop
      vertex 3.72491 -9.68963 20.735
      vertex 3.72491 -9.68963 -20.735
      vertex 3.63601 -9.36907 -20.7
    endloop
  endfacet
  facet normal 0.963625 0.267256 0
    outer loop
      vertex 3.80993 -9.99618 20.8383
      vertex 3.72491 -9.68963 -20.735
      vertex 3.72491 -9.68963 20.735
    endloop
  endfacet
  facet normal 0.963625 0.267256 0
    outer loop
      vertex 3.80993 -9.99618 20.8383
      vertex 3.80993 -9.99618 -20.8383
      vertex 3.72491 -9.68963 -20.735
    endloop
  endfacet
  facet normal 0.963628 0.267249 0
    outer loop
      vertex 3.88734 -10.2753 21.0056
      vertex 3.80993 -9.99618 -20.8383
      vertex 3.80993 -9.99618 20.8383
    endloop
  endfacet
  facet normal 0.963628 0.267249 0
    outer loop
      vertex 3.88734 -10.2753 21.0056
      vertex 3.88734 -10.2753 -21.0056
      vertex 3.80993 -9.99618 -20.8383
    endloop
  endfacet
  facet normal 0.963648 0.267175 0
    outer loop
      vertex 3.95377 -10.5149 21.2294
      vertex 3.88734 -10.2753 -21.0056
      vertex 3.88734 -10.2753 21.0056
    endloop
  endfacet
  facet normal 0.963648 0.267175 0
    outer loop
      vertex 3.95377 -10.5149 21.2294
      vertex 3.95377 -10.5149 -21.2294
      vertex 3.88734 -10.2753 -21.0056
    endloop
  endfacet
  facet normal 0.963611 0.267308 0
    outer loop
      vertex 4.00631 -10.7043 21.5
      vertex 3.95377 -10.5149 -21.2294
      vertex 3.95377 -10.5149 21.2294
    endloop
  endfacet
  facet normal 0.963611 0.267308 0
    outer loop
      vertex 4.00631 -10.7043 21.5
      vertex 4.00631 -10.7043 -21.5
      vertex 3.95377 -10.5149 -21.2294
    endloop
  endfacet
  facet normal 0.963636 0.267218 -1.79069e-05
    outer loop
      vertex 6.3084 -19.0054 31
      vertex 4.00631 -10.7043 21.5
      vertex 4.04267 -10.8354 21.8056
    endloop
  endfacet
  facet normal 0.963631 0.267237 0
    outer loop
      vertex 4.00631 -10.7043 21.5
      vertex 6.3084 -19.0054 31
      vertex 4.00631 -10.7043 -21.5
    endloop
  endfacet
  facet normal 0.96363 0.26724 2.4873e-06
    outer loop
      vertex 6.3084 -19.0054 31
      vertex 4.04267 -10.8354 21.8056
      vertex 4.06125 -10.9024 22.1328
    endloop
  endfacet
  facet normal 0.963631 0.267237 -0
    outer loop
      vertex 6.3084 -19.0054 -31
      vertex 4.00631 -10.7043 -21.5
      vertex 6.3084 -19.0054 31
    endloop
  endfacet
  facet normal 0.96363 0.267239 -0
    outer loop
      vertex 3.21078 -7.8357 22.1328
      vertex 1.00384 0.122242 31
      vertex 3.21078 -7.8357 22.4672
    endloop
  endfacet
  facet normal 0.963634 0.267224 1.53408e-05
    outer loop
      vertex 1.00384 0.122242 31
      vertex 3.22936 -7.90272 22.7944
      vertex 3.21078 -7.8357 22.4672
    endloop
  endfacet
  facet normal 0.963629 0.267244 -5.99405e-06
    outer loop
      vertex 1.00384 0.122242 31
      vertex 3.26572 -8.03382 23.1
      vertex 3.22936 -7.90272 22.7944
    endloop
  endfacet
  facet normal 0.963631 0.267235 4.23757e-06
    outer loop
      vertex 1.00384 0.122242 31
      vertex 3.31826 -8.22328 23.3706
      vertex 3.26572 -8.03382 23.1
    endloop
  endfacet
  facet normal 0.963629 0.267243 -5.21658e-06
    outer loop
      vertex 1.00384 0.122242 31
      vertex 3.38469 -8.46281 23.5944
      vertex 3.31826 -8.22328 23.3706
    endloop
  endfacet
  facet normal 0.963633 0.267229 1.24876e-05
    outer loop
      vertex 1.00384 0.122242 31
      vertex 3.4621 -8.74196 23.7617
      vertex 3.38469 -8.46281 23.5944
    endloop
  endfacet
  facet normal 0.963627 0.267251 -1.68622e-05
    outer loop
      vertex 1.00384 0.122242 31
      vertex 3.54712 -9.04851 23.865
      vertex 3.4621 -8.74196 23.7617
    endloop
  endfacet
  facet normal 0.963637 0.267216 3.16603e-05
    outer loop
      vertex 1.00384 0.122242 31
      vertex 3.63601 -9.36907 23.9
      vertex 3.54712 -9.04851 23.865
    endloop
  endfacet
  facet normal 0.963631 0.267238 -2.02506e-07
    outer loop
      vertex 6.3084 -19.0054 31
      vertex 3.63601 -9.36907 23.9
      vertex 1.00384 0.122242 31
    endloop
  endfacet
  facet normal 0.96363 0.26724 3.09697e-06
    outer loop
      vertex 3.63601 -9.36907 23.9
      vertex 6.3084 -19.0054 31
      vertex 3.72491 -9.68963 23.865
    endloop
  endfacet
  facet normal 0.963627 0.267251 1.77167e-05
    outer loop
      vertex 3.72491 -9.68963 23.865
      vertex 6.3084 -19.0054 31
      vertex 3.80993 -9.99618 23.7617
    endloop
  endfacet
  facet normal 0.963631 0.267237 0
    outer loop
      vertex 6.3084 -19.0054 31
      vertex 4.06125 -10.9024 22.1328
      vertex 4.06125 -10.9024 22.4672
    endloop
  endfacet
  facet normal 0.963636 0.267218 1.79069e-05
    outer loop
      vertex 4.00631 -10.7043 -21.5
      vertex 6.3084 -19.0054 -31
      vertex 4.04267 -10.8354 -21.8056
    endloop
  endfacet
  facet normal 0.96363 0.26724 -2.4873e-06
    outer loop
      vertex 4.04267 -10.8354 -21.8056
      vertex 6.3084 -19.0054 -31
      vertex 4.06125 -10.9024 -22.1328
    endloop
  endfacet
  facet normal 0.963631 0.267236 -1.58761e-06
    outer loop
      vertex 4.04267 -10.8354 22.7944
      vertex 6.3084 -19.0054 31
      vertex 4.06125 -10.9024 22.4672
    endloop
  endfacet
  facet normal 0.963629 0.267243 6.47283e-06
    outer loop
      vertex 4.00631 -10.7043 23.1
      vertex 6.3084 -19.0054 31
      vertex 4.04267 -10.8354 22.7944
    endloop
  endfacet
  facet normal 0.963623 0.267266 3.19139e-05
    outer loop
      vertex 3.95377 -10.5149 23.3706
      vertex 6.3084 -19.0054 31
      vertex 4.00631 -10.7043 23.1
    endloop
  endfacet
  facet normal 0.963639 0.267208 -3.75907e-05
    outer loop
      vertex 3.88734 -10.2753 23.5944
      vertex 6.3084 -19.0054 31
      vertex 3.95377 -10.5149 23.3706
    endloop
  endfacet
  facet normal 0.963629 0.267244 8.40644e-06
    outer loop
      vertex 3.80993 -9.99618 23.7617
      vertex 6.3084 -19.0054 31
      vertex 3.88734 -10.2753 23.5944
    endloop
  endfacet
  facet normal 0.963623 0.267264 -2.42428e-05
    outer loop
      vertex 3.22936 -7.90272 21.8056
      vertex 1.00384 0.122242 31
      vertex 3.21078 -7.8357 22.1328
    endloop
  endfacet
  facet normal 0.963635 0.26722 1.69587e-05
    outer loop
      vertex 3.26572 -8.03382 21.5
      vertex 1.00384 0.122242 31
      vertex 3.22936 -7.90272 21.8056
    endloop
  endfacet
  facet normal 0.96363 0.267239 -0
    outer loop
      vertex 3.21078 -7.8357 -22.4672
      vertex 1.00384 0.122242 -31
      vertex 3.21078 -7.8357 -22.1328
    endloop
  endfacet
  facet normal 0.963634 0.267224 -1.53408e-05
    outer loop
      vertex 3.22936 -7.90272 -22.7944
      vertex 1.00384 0.122242 -31
      vertex 3.21078 -7.8357 -22.4672
    endloop
  endfacet
  facet normal 0.963629 0.267244 5.99405e-06
    outer loop
      vertex 3.26572 -8.03382 -23.1
      vertex 1.00384 0.122242 -31
      vertex 3.22936 -7.90272 -22.7944
    endloop
  endfacet
  facet normal 0.963631 0.267235 -4.23757e-06
    outer loop
      vertex 3.31826 -8.22328 -23.3706
      vertex 1.00384 0.122242 -31
      vertex 3.26572 -8.03382 -23.1
    endloop
  endfacet
  facet normal 0.963629 0.267243 5.21658e-06
    outer loop
      vertex 3.38469 -8.46281 -23.5944
      vertex 1.00384 0.122242 -31
      vertex 3.31826 -8.22328 -23.3706
    endloop
  endfacet
  facet normal 0.963633 0.267229 -1.24876e-05
    outer loop
      vertex 3.4621 -8.74196 -23.7617
      vertex 1.00384 0.122242 -31
      vertex 3.38469 -8.46281 -23.5944
    endloop
  endfacet
  facet normal 0.963627 0.267251 1.68622e-05
    outer loop
      vertex 3.54712 -9.04851 -23.865
      vertex 1.00384 0.122242 -31
      vertex 3.4621 -8.74196 -23.7617
    endloop
  endfacet
  facet normal 0.963637 0.267216 -3.16603e-05
    outer loop
      vertex 3.63601 -9.36907 -23.9
      vertex 1.00384 0.122242 -31
      vertex 3.54712 -9.04851 -23.865
    endloop
  endfacet
  facet normal 0.96363 0.26724 -3.09697e-06
    outer loop
      vertex 6.3084 -19.0054 -31
      vertex 3.63601 -9.36907 -23.9
      vertex 3.72491 -9.68963 -23.865
    endloop
  endfacet
  facet normal 0.963627 0.267251 -1.77167e-05
    outer loop
      vertex 6.3084 -19.0054 -31
      vertex 3.72491 -9.68963 -23.865
      vertex 3.80993 -9.99618 -23.7617
    endloop
  endfacet
  facet normal 0.963629 0.267244 -8.40644e-06
    outer loop
      vertex 6.3084 -19.0054 -31
      vertex 3.80993 -9.99618 -23.7617
      vertex 3.88734 -10.2753 -23.5944
    endloop
  endfacet
  facet normal 0.963631 0.267238 2.02506e-07
    outer loop
      vertex 3.63601 -9.36907 -23.9
      vertex 6.3084 -19.0054 -31
      vertex 1.00384 0.122242 -31
    endloop
  endfacet
  facet normal 0.963639 0.267208 3.75907e-05
    outer loop
      vertex 3.95377 -10.5149 -23.3706
      vertex 6.3084 -19.0054 -31
      vertex 3.88734 -10.2753 -23.5944
    endloop
  endfacet
  facet normal 0.963623 0.267266 -3.19139e-05
    outer loop
      vertex 4.00631 -10.7043 -23.1
      vertex 6.3084 -19.0054 -31
      vertex 3.95377 -10.5149 -23.3706
    endloop
  endfacet
  facet normal 0.963629 0.267243 -6.47283e-06
    outer loop
      vertex 4.04267 -10.8354 -22.7944
      vertex 6.3084 -19.0054 -31
      vertex 4.00631 -10.7043 -23.1
    endloop
  endfacet
  facet normal 0.963631 0.267236 1.58761e-06
    outer loop
      vertex 4.06125 -10.9024 -22.4672
      vertex 6.3084 -19.0054 -31
      vertex 4.04267 -10.8354 -22.7944
    endloop
  endfacet
  facet normal 0.963631 0.267237 0
    outer loop
      vertex 4.06125 -10.9024 -22.1328
      vertex 6.3084 -19.0054 -31
      vertex 4.06125 -10.9024 -22.4672
    endloop
  endfacet
  facet normal -0.96363 -0.267239 0
    outer loop
      vertex -0.96363 -0.267238 -31
      vertex 1.33846 -8.5683 -21.5
      vertex -0.96363 -0.267238 31
    endloop
  endfacet
  facet normal -0.963635 -0.267223 -1.42268e-05
    outer loop
      vertex -0.96363 -0.267238 31
      vertex 1.3021 -8.4372 21.8056
      vertex 1.28351 -8.37018 22.1328
    endloop
  endfacet
  facet normal -0.96363 -0.267239 -0
    outer loop
      vertex 1.33846 -8.5683 21.5
      vertex -0.96363 -0.267238 31
      vertex 1.33846 -8.5683 -21.5
    endloop
  endfacet
  facet normal -0.963635 -0.267221 -1.6876e-05
    outer loop
      vertex -0.96363 -0.267238 31
      vertex 1.33846 -8.5683 21.5
      vertex 1.3021 -8.4372 21.8056
    endloop
  endfacet
  facet normal -0.963633 -0.267229 0
    outer loop
      vertex 1.391 -8.75776 -21.2294
      vertex 1.33846 -8.5683 21.5
      vertex 1.33846 -8.5683 -21.5
    endloop
  endfacet
  facet normal -0.963633 -0.267229 0
    outer loop
      vertex 1.391 -8.75776 -21.2294
      vertex 1.391 -8.75776 21.2294
      vertex 1.33846 -8.5683 21.5
    endloop
  endfacet
  facet normal -0.963628 -0.267248 0
    outer loop
      vertex 1.45743 -8.99729 -21.0056
      vertex 1.391 -8.75776 21.2294
      vertex 1.391 -8.75776 -21.2294
    endloop
  endfacet
  facet normal -0.963628 -0.267248 0
    outer loop
      vertex 1.45743 -8.99729 -21.0056
      vertex 1.45743 -8.99729 21.0056
      vertex 1.391 -8.75776 21.2294
    endloop
  endfacet
  facet normal -0.963633 -0.267231 0
    outer loop
      vertex 1.53484 -9.27643 -20.8383
      vertex 1.45743 -8.99729 21.0056
      vertex 1.45743 -8.99729 -21.0056
    endloop
  endfacet
  facet normal -0.963633 -0.267231 0
    outer loop
      vertex 1.53484 -9.27643 -20.8383
      vertex 1.53484 -9.27643 20.8383
      vertex 1.45743 -8.99729 21.0056
    endloop
  endfacet
  facet normal -0.963634 -0.267227 0
    outer loop
      vertex 1.61985 -9.58298 -20.735
      vertex 1.53484 -9.27643 20.8383
      vertex 1.53484 -9.27643 -20.8383
    endloop
  endfacet
  facet normal -0.963634 -0.267227 0
    outer loop
      vertex 1.61985 -9.58298 -20.735
      vertex 1.61985 -9.58298 20.735
      vertex 1.53484 -9.27643 20.8383
    endloop
  endfacet
  facet normal -0.96363 -0.267241 0
    outer loop
      vertex 1.70875 -9.90354 -20.7
      vertex 1.61985 -9.58298 20.735
      vertex 1.61985 -9.58298 -20.735
    endloop
  endfacet
  facet normal -0.96363 -0.267241 0
    outer loop
      vertex 1.70875 -9.90354 -20.7
      vertex 1.70875 -9.90354 20.7
      vertex 1.61985 -9.58298 20.735
    endloop
  endfacet
  facet normal -0.96363 -0.267241 0
    outer loop
      vertex 1.79765 -10.2241 -20.735
      vertex 1.70875 -9.90354 20.7
      vertex 1.70875 -9.90354 -20.7
    endloop
  endfacet
  facet normal -0.96363 -0.267241 0
    outer loop
      vertex 1.79765 -10.2241 -20.735
      vertex 1.79765 -10.2241 20.735
      vertex 1.70875 -9.90354 20.7
    endloop
  endfacet
  facet normal -0.963637 -0.267216 0
    outer loop
      vertex 1.88267 -10.5307 -20.8383
      vertex 1.79765 -10.2241 20.735
      vertex 1.79765 -10.2241 -20.735
    endloop
  endfacet
  facet normal -0.963637 -0.267216 0
    outer loop
      vertex 1.88267 -10.5307 -20.8383
      vertex 1.88267 -10.5307 20.8383
      vertex 1.79765 -10.2241 20.735
    endloop
  endfacet
  facet normal -0.963623 -0.267266 0
    outer loop
      vertex 1.96008 -10.8098 -21.0056
      vertex 1.88267 -10.5307 20.8383
      vertex 1.88267 -10.5307 -20.8383
    endloop
  endfacet
  facet normal -0.963623 -0.267266 0
    outer loop
      vertex 1.96008 -10.8098 -21.0056
      vertex 1.96008 -10.8098 21.0056
      vertex 1.88267 -10.5307 20.8383
    endloop
  endfacet
  facet normal -0.963619 -0.267279 0
    outer loop
      vertex 2.02651 -11.0493 -21.2294
      vertex 1.96008 -10.8098 21.0056
      vertex 1.96008 -10.8098 -21.0056
    endloop
  endfacet
  facet normal -0.963619 -0.267279 0
    outer loop
      vertex 2.02651 -11.0493 -21.2294
      vertex 2.02651 -11.0493 21.2294
      vertex 1.96008 -10.8098 21.0056
    endloop
  endfacet
  facet normal -0.963647 -0.267177 0
    outer loop
      vertex 2.07905 -11.2388 -21.5
      vertex 2.02651 -11.0493 21.2294
      vertex 2.02651 -11.0493 -21.2294
    endloop
  endfacet
  facet normal -0.963647 -0.267177 0
    outer loop
      vertex 2.07905 -11.2388 -21.5
      vertex 2.07905 -11.2388 21.5
      vertex 2.02651 -11.0493 21.2294
    endloop
  endfacet
  facet normal -0.963634 -0.267224 -1.5194e-05
    outer loop
      vertex 4.38114 -19.5398 -31
      vertex 2.07905 -11.2388 -21.5
      vertex 2.11541 -11.3699 -21.8056
    endloop
  endfacet
  facet normal -0.96363 -0.26724 0
    outer loop
      vertex 2.07905 -11.2388 -21.5
      vertex 4.38114 -19.5398 -31
      vertex 2.07905 -11.2388 21.5
    endloop
  endfacet
  facet normal -0.963629 -0.267244 3.35767e-06
    outer loop
      vertex 4.38114 -19.5398 -31
      vertex 2.11541 -11.3699 -21.8056
      vertex 2.13399 -11.4369 -22.1328
    endloop
  endfacet
  facet normal -0.96363 -0.26724 -0
    outer loop
      vertex 4.38114 -19.5398 31
      vertex 2.07905 -11.2388 21.5
      vertex 4.38114 -19.5398 -31
    endloop
  endfacet
  facet normal -0.963631 -0.267238 -0
    outer loop
      vertex 1.28351 -8.37018 -22.1328
      vertex -0.96363 -0.267238 -31
      vertex 1.28351 -8.37018 -22.4672
    endloop
  endfacet
  facet normal -0.963628 -0.267247 -9.07944e-06
    outer loop
      vertex -0.96363 -0.267238 -31
      vertex 1.3021 -8.4372 -22.7944
      vertex 1.28351 -8.37018 -22.4672
    endloop
  endfacet
  facet normal -0.963629 -0.267244 -6.10016e-06
    outer loop
      vertex -0.96363 -0.267238 -31
      vertex 1.33846 -8.5683 -23.1
      vertex 1.3021 -8.4372 -22.7944
    endloop
  endfacet
  facet normal -0.963631 -0.267235 4.16396e-06
    outer loop
      vertex -0.96363 -0.267238 -31
      vertex 1.391 -8.75776 -23.3706
      vertex 1.33846 -8.5683 -23.1
    endloop
  endfacet
  facet normal -0.963629 -0.267243 -5.39057e-06
    outer loop
      vertex -0.96363 -0.267238 -31
      vertex 1.45743 -8.99729 -23.5944
      vertex 1.391 -8.75776 -23.3706
    endloop
  endfacet
  facet normal -0.963632 -0.267234 5.83551e-06
    outer loop
      vertex -0.96363 -0.267238 -31
      vertex 1.53484 -9.27643 -23.7617
      vertex 1.45743 -8.99729 -23.5944
    endloop
  endfacet
  facet normal -0.963633 -0.26723 1.05759e-05
    outer loop
      vertex -0.96363 -0.267238 -31
      vertex 1.61985 -9.58298 -23.865
      vertex 1.53484 -9.27643 -23.7617
    endloop
  endfacet
  facet normal -0.96363 -0.26724 -3.36114e-06
    outer loop
      vertex -0.96363 -0.267238 -31
      vertex 1.70875 -9.90354 -23.9
      vertex 1.61985 -9.58298 -23.865
    endloop
  endfacet
  facet normal -0.96363 -0.267239 -1.46904e-06
    outer loop
      vertex 4.38114 -19.5398 -31
      vertex 1.70875 -9.90354 -23.9
      vertex -0.96363 -0.267238 -31
    endloop
  endfacet
  facet normal -0.96363 -0.267241 8.02249e-07
    outer loop
      vertex 1.70875 -9.90354 -23.9
      vertex 4.38114 -19.5398 -31
      vertex 1.79765 -10.2241 -23.865
    endloop
  endfacet
  facet normal -0.963635 -0.267223 -2.36235e-05
    outer loop
      vertex 1.79765 -10.2241 -23.865
      vertex 4.38114 -19.5398 -31
      vertex 1.88267 -10.5307 -23.7617
    endloop
  endfacet
  facet normal -0.96363 -0.26724 0
    outer loop
      vertex 4.38114 -19.5398 -31
      vertex 2.13399 -11.4369 -22.1328
      vertex 2.13399 -11.4369 -22.4672
    endloop
  endfacet
  facet normal -0.963634 -0.267224 1.5194e-05
    outer loop
      vertex 2.07905 -11.2388 21.5
      vertex 4.38114 -19.5398 31
      vertex 2.11541 -11.3699 21.8056
    endloop
  endfacet
  facet normal -0.963629 -0.267244 -3.35767e-06
    outer loop
      vertex 2.11541 -11.3699 21.8056
      vertex 4.38114 -19.5398 31
      vertex 2.13399 -11.4369 22.1328
    endloop
  endfacet
  facet normal -0.963631 -0.267238 -2.14315e-06
    outer loop
      vertex 2.11541 -11.3699 -22.7944
      vertex 4.38114 -19.5398 -31
      vertex 2.13399 -11.4369 -22.4672
    endloop
  endfacet
  facet normal -0.963629 -0.267245 5.49211e-06
    outer loop
      vertex 2.07905 -11.2388 -23.1
      vertex 4.38114 -19.5398 -31
      vertex 2.11541 -11.3699 -22.7944
    endloop
  endfacet
  facet normal -0.963637 -0.267215 -2.87073e-05
    outer loop
      vertex 2.02651 -11.0493 -23.3706
      vertex 4.38114 -19.5398 -31
      vertex 2.07905 -11.2388 -23.1
    endloop
  endfacet
  facet normal -0.963625 -0.267258 2.32749e-05
    outer loop
      vertex 1.96008 -10.8098 -23.5944
      vertex 4.38114 -19.5398 -31
      vertex 2.02651 -11.0493 -23.3706
    endloop
  endfacet
  facet normal -0.963626 -0.267255 1.95198e-05
    outer loop
      vertex 1.88267 -10.5307 -23.7617
      vertex 4.38114 -19.5398 -31
      vertex 1.96008 -10.8098 -23.5944
    endloop
  endfacet
  facet normal -0.963635 -0.267223 1.42268e-05
    outer loop
      vertex 1.3021 -8.4372 -21.8056
      vertex -0.96363 -0.267238 -31
      vertex 1.28351 -8.37018 -22.1328
    endloop
  endfacet
  facet normal -0.963635 -0.267221 1.6876e-05
    outer loop
      vertex 1.33846 -8.5683 -21.5
      vertex -0.96363 -0.267238 -31
      vertex 1.3021 -8.4372 -21.8056
    endloop
  endfacet
  facet normal -0.963631 -0.267238 -0
    outer loop
      vertex 1.28351 -8.37018 22.4672
      vertex -0.96363 -0.267238 31
      vertex 1.28351 -8.37018 22.1328
    endloop
  endfacet
  facet normal -0.963628 -0.267247 9.07944e-06
    outer loop
      vertex 1.3021 -8.4372 22.7944
      vertex -0.96363 -0.267238 31
      vertex 1.28351 -8.37018 22.4672
    endloop
  endfacet
  facet normal -0.963629 -0.267244 6.10016e-06
    outer loop
      vertex 1.33846 -8.5683 23.1
      vertex -0.96363 -0.267238 31
      vertex 1.3021 -8.4372 22.7944
    endloop
  endfacet
  facet normal -0.963631 -0.267235 -4.16396e-06
    outer loop
      vertex 1.391 -8.75776 23.3706
      vertex -0.96363 -0.267238 31
      vertex 1.33846 -8.5683 23.1
    endloop
  endfacet
  facet normal -0.963629 -0.267243 5.39057e-06
    outer loop
      vertex 1.45743 -8.99729 23.5944
      vertex -0.96363 -0.267238 31
      vertex 1.391 -8.75776 23.3706
    endloop
  endfacet
  facet normal -0.963632 -0.267234 -5.83551e-06
    outer loop
      vertex 1.53484 -9.27643 23.7617
      vertex -0.96363 -0.267238 31
      vertex 1.45743 -8.99729 23.5944
    endloop
  endfacet
  facet normal -0.963633 -0.26723 -1.05759e-05
    outer loop
      vertex 1.61985 -9.58298 23.865
      vertex -0.96363 -0.267238 31
      vertex 1.53484 -9.27643 23.7617
    endloop
  endfacet
  facet normal -0.96363 -0.26724 3.36114e-06
    outer loop
      vertex 1.70875 -9.90354 23.9
      vertex -0.96363 -0.267238 31
      vertex 1.61985 -9.58298 23.865
    endloop
  endfacet
  facet normal -0.96363 -0.267241 -8.02249e-07
    outer loop
      vertex 4.38114 -19.5398 31
      vertex 1.70875 -9.90354 23.9
      vertex 1.79765 -10.2241 23.865
    endloop
  endfacet
  facet normal -0.963635 -0.267223 2.36235e-05
    outer loop
      vertex 4.38114 -19.5398 31
      vertex 1.79765 -10.2241 23.865
      vertex 1.88267 -10.5307 23.7617
    endloop
  endfacet
  facet normal -0.963626 -0.267255 -1.95198e-05
    outer loop
      vertex 4.38114 -19.5398 31
      vertex 1.88267 -10.5307 23.7617
      vertex 1.96008 -10.8098 23.5944
    endloop
  endfacet
  facet normal -0.96363 -0.267239 1.46904e-06
    outer loop
      vertex 1.70875 -9.90354 23.9
      vertex 4.38114 -19.5398 31
      vertex -0.96363 -0.267238 31
    endloop
  endfacet
  facet normal -0.963625 -0.267258 -2.32749e-05
    outer loop
      vertex 2.02651 -11.0493 23.3706
      vertex 4.38114 -19.5398 31
      vertex 1.96008 -10.8098 23.5944
    endloop
  endfacet
  facet normal -0.963637 -0.267215 2.87073e-05
    outer loop
      vertex 2.07905 -11.2388 23.1
      vertex 4.38114 -19.5398 31
      vertex 2.02651 -11.0493 23.3706
    endloop
  endfacet
  facet normal -0.963629 -0.267245 -5.49211e-06
    outer loop
      vertex 2.11541 -11.3699 22.7944
      vertex 4.38114 -19.5398 31
      vertex 2.07905 -11.2388 23.1
    endloop
  endfacet
  facet normal -0.963631 -0.267238 2.14315e-06
    outer loop
      vertex 2.13399 -11.4369 22.4672
      vertex 4.38114 -19.5398 31
      vertex 2.11541 -11.3699 22.7944
    endloop
  endfacet
  facet normal -0.96363 -0.26724 0
    outer loop
      vertex 2.13399 -11.4369 22.1328
      vertex 4.38114 -19.5398 31
      vertex 2.13399 -11.4369 22.4672
    endloop
  endfacet
  facet normal 0.267203 -0.96364 0
    outer loop
      vertex 4.38114 -19.5398 -31
      vertex 6.3084 -19.0054 31
      vertex 4.38114 -19.5398 31
    endloop
  endfacet
  facet normal 0.267203 -0.96364 0
    outer loop
      vertex 6.3084 -19.0054 31
      vertex 4.38114 -19.5398 -31
      vertex 6.3084 -19.0054 -31
    endloop
  endfacet
  facet normal -0.267075 0.963676 0
    outer loop
      vertex -0.959264 -0.266028 -31
      vertex -0.96363 -0.267238 31
      vertex -0.959264 -0.266028 31
    endloop
  endfacet
  facet normal -0.267075 0.963676 0
    outer loop
      vertex -0.96363 -0.267238 31
      vertex -0.959264 -0.266028 -31
      vertex -0.96363 -0.267238 -31
    endloop
  endfacet
  facet normal -0.261412 0.942582 0.207855
    outer loop
      vertex 4.04267 -10.8354 -22.7944
      vertex 2.13399 -11.4369 -22.4672
      vertex 4.06125 -10.9024 -22.4672
    endloop
  endfacet
  facet normal -0.261412 0.942582 0.207855
    outer loop
      vertex 2.13399 -11.4369 -22.4672
      vertex 4.04267 -10.8354 -22.7944
      vertex 2.11541 -11.3699 -22.7944
    endloop
  endfacet
  facet normal -0.261412 0.942582 -0.207855
    outer loop
      vertex 2.13399 -11.4369 -22.1328
      vertex 4.04267 -10.8354 -21.8056
      vertex 4.06125 -10.9024 -22.1328
    endloop
  endfacet
  facet normal -0.261412 0.942582 -0.207855
    outer loop
      vertex 4.04267 -10.8354 -21.8056
      vertex 2.13399 -11.4369 -22.1328
      vertex 2.11541 -11.3699 -21.8056
    endloop
  endfacet
  facet normal -0.133665 0.481959 -0.865938
    outer loop
      vertex 1.96008 -10.8098 -21.0056
      vertex 3.80993 -9.99618 -20.8383
      vertex 3.88734 -10.2753 -21.0056
    endloop
  endfacet
  facet normal -0.133676 0.481982 -0.865924
    outer loop
      vertex 3.80993 -9.99618 -20.8383
      vertex 1.96008 -10.8098 -21.0056
      vertex 1.88267 -10.5307 -20.8383
    endloop
  endfacet
  facet normal 0.0279625 -0.100831 0.994511
    outer loop
      vertex 3.54712 -9.04851 -23.865
      vertex 1.70875 -9.90354 -23.9
      vertex 3.63601 -9.36907 -23.9
    endloop
  endfacet
  facet normal 0.0279621 -0.10083 0.994511
    outer loop
      vertex 1.70875 -9.90354 -23.9
      vertex 3.54712 -9.04851 -23.865
      vertex 1.61985 -9.58298 -23.865
    endloop
  endfacet
  facet normal -0.17876 0.644682 0.743256
    outer loop
      vertex 3.88734 -10.2753 -23.5944
      vertex 2.02651 -11.0493 -23.3706
      vertex 3.95377 -10.5149 -23.3706
    endloop
  endfacet
  facet normal -0.17883 0.644811 0.743127
    outer loop
      vertex 2.02651 -11.0493 -23.3706
      vertex 3.88734 -10.2753 -23.5944
      vertex 1.96008 -10.8098 -23.5944
    endloop
  endfacet
  facet normal -0.0825412 0.29761 0.951113
    outer loop
      vertex 3.72491 -9.68963 -23.865
      vertex 1.88267 -10.5307 -23.7617
      vertex 3.80993 -9.99618 -23.7617
    endloop
  endfacet
  facet normal -0.0825227 0.297571 0.951126
    outer loop
      vertex 1.88267 -10.5307 -23.7617
      vertex 3.72491 -9.68963 -23.865
      vertex 1.79765 -10.2241 -23.865
    endloop
  endfacet
  facet normal -0.133665 0.481959 0.865938
    outer loop
      vertex 3.80993 -9.99618 -23.7617
      vertex 1.96008 -10.8098 -23.5944
      vertex 3.88734 -10.2753 -23.5944
    endloop
  endfacet
  facet normal -0.133676 0.481982 0.865924
    outer loop
      vertex 1.96008 -10.8098 -23.5944
      vertex 3.80993 -9.99618 -23.7617
      vertex 1.88267 -10.5307 -23.7617
    endloop
  endfacet
  facet normal -0.267249 0.963627 0
    outer loop
      vertex 4.06125 -10.9024 -22.4672
      vertex 2.13399 -11.4369 -22.1328
      vertex 4.06125 -10.9024 -22.1328
    endloop
  endfacet
  facet normal -0.267249 0.963627 0
    outer loop
      vertex 2.13399 -11.4369 -22.1328
      vertex 4.06125 -10.9024 -22.4672
      vertex 2.13399 -11.4369 -22.4672
    endloop
  endfacet
  facet normal -0.216228 0.77966 0.587687
    outer loop
      vertex 3.95377 -10.5149 -23.3706
      vertex 2.07905 -11.2388 -23.1
      vertex 4.00631 -10.7043 -23.1
    endloop
  endfacet
  facet normal -0.216154 0.779538 0.587876
    outer loop
      vertex 2.07905 -11.2388 -23.1
      vertex 3.95377 -10.5149 -23.3706
      vertex 2.02651 -11.0493 -23.3706
    endloop
  endfacet
  facet normal -0.0279623 0.10083 -0.994511
    outer loop
      vertex 1.79765 -10.2241 -20.735
      vertex 3.63601 -9.36907 -20.7
      vertex 3.72491 -9.68963 -20.735
    endloop
  endfacet
  facet normal -0.0279623 0.10083 -0.994511
    outer loop
      vertex 3.63601 -9.36907 -20.7
      vertex 1.79765 -10.2241 -20.735
      vertex 1.70875 -9.90354 -20.7
    endloop
  endfacet
  facet normal -0.17876 0.644682 -0.743256
    outer loop
      vertex 2.02651 -11.0493 -21.2294
      vertex 3.88734 -10.2753 -21.0056
      vertex 3.95377 -10.5149 -21.2294
    endloop
  endfacet
  facet normal -0.17883 0.644811 -0.743127
    outer loop
      vertex 3.88734 -10.2753 -21.0056
      vertex 2.02651 -11.0493 -21.2294
      vertex 1.96008 -10.8098 -21.0056
    endloop
  endfacet
  facet normal -0.244148 0.880332 -0.406704
    outer loop
      vertex 2.11541 -11.3699 -21.8056
      vertex 4.00631 -10.7043 -21.5
      vertex 4.04267 -10.8354 -21.8056
    endloop
  endfacet
  facet normal -0.244148 0.880332 -0.406704
    outer loop
      vertex 4.00631 -10.7043 -21.5
      vertex 2.11541 -11.3699 -21.8056
      vertex 2.07905 -11.2388 -21.5
    endloop
  endfacet
  facet normal -0.216228 0.77966 -0.587687
    outer loop
      vertex 2.07905 -11.2388 -21.5
      vertex 3.95377 -10.5149 -21.2294
      vertex 4.00631 -10.7043 -21.5
    endloop
  endfacet
  facet normal -0.216154 0.779538 -0.587876
    outer loop
      vertex 3.95377 -10.5149 -21.2294
      vertex 2.07905 -11.2388 -21.5
      vertex 2.02651 -11.0493 -21.2294
    endloop
  endfacet
  facet normal -0.0279623 0.10083 0.994511
    outer loop
      vertex 3.63601 -9.36907 -23.9
      vertex 1.79765 -10.2241 -23.865
      vertex 3.72491 -9.68963 -23.865
    endloop
  endfacet
  facet normal -0.0279623 0.10083 0.994511
    outer loop
      vertex 1.79765 -10.2241 -23.865
      vertex 3.63601 -9.36907 -23.9
      vertex 1.70875 -9.90354 -23.9
    endloop
  endfacet
  facet normal 0.0279625 -0.100831 -0.994511
    outer loop
      vertex 1.70875 -9.90354 -20.7
      vertex 3.54712 -9.04851 -20.735
      vertex 3.63601 -9.36907 -20.7
    endloop
  endfacet
  facet normal 0.0279621 -0.10083 -0.994511
    outer loop
      vertex 3.54712 -9.04851 -20.735
      vertex 1.70875 -9.90354 -20.7
      vertex 1.61985 -9.58298 -20.735
    endloop
  endfacet
  facet normal 0.216199 -0.779582 0.5878
    outer loop
      vertex 1.391 -8.75776 -23.3706
      vertex 3.26572 -8.03382 -23.1
      vertex 1.33846 -8.5683 -23.1
    endloop
  endfacet
  facet normal 0.216199 -0.779582 0.5878
    outer loop
      vertex 3.26572 -8.03382 -23.1
      vertex 1.391 -8.75776 -23.3706
      vertex 3.31826 -8.22328 -23.3706
    endloop
  endfacet
  facet normal -0.244148 0.880332 0.406704
    outer loop
      vertex 4.00631 -10.7043 -23.1
      vertex 2.11541 -11.3699 -22.7944
      vertex 4.04267 -10.8354 -22.7944
    endloop
  endfacet
  facet normal -0.244148 0.880332 0.406704
    outer loop
      vertex 2.11541 -11.3699 -22.7944
      vertex 4.00631 -10.7043 -23.1
      vertex 2.07905 -11.2388 -23.1
    endloop
  endfacet
  facet normal -0.0825412 0.29761 -0.951113
    outer loop
      vertex 1.88267 -10.5307 -20.8383
      vertex 3.72491 -9.68963 -20.735
      vertex 3.80993 -9.99618 -20.8383
    endloop
  endfacet
  facet normal -0.0825227 0.297571 -0.951126
    outer loop
      vertex 3.72491 -9.68963 -20.735
      vertex 1.88267 -10.5307 -20.8383
      vertex 1.79765 -10.2241 -20.735
    endloop
  endfacet
  facet normal 0.0825337 -0.297612 0.951113
    outer loop
      vertex 3.4621 -8.74196 -23.7617
      vertex 1.61985 -9.58298 -23.865
      vertex 3.54712 -9.04851 -23.865
    endloop
  endfacet
  facet normal 0.0825347 -0.297614 0.951112
    outer loop
      vertex 1.61985 -9.58298 -23.865
      vertex 3.4621 -8.74196 -23.7617
      vertex 1.53484 -9.27643 -23.7617
    endloop
  endfacet
  facet normal 0.133648 -0.481925 0.86596
    outer loop
      vertex 3.38469 -8.46281 -23.5944
      vertex 1.53484 -9.27643 -23.7617
      vertex 3.4621 -8.74196 -23.7617
    endloop
  endfacet
  facet normal 0.133654 -0.481936 0.865953
    outer loop
      vertex 1.53484 -9.27643 -23.7617
      vertex 3.38469 -8.46281 -23.5944
      vertex 1.45743 -8.99729 -23.5944
    endloop
  endfacet
  facet normal 0.0825337 -0.297612 -0.951113
    outer loop
      vertex 1.61985 -9.58298 -20.735
      vertex 3.4621 -8.74196 -20.8383
      vertex 3.54712 -9.04851 -20.735
    endloop
  endfacet
  facet normal 0.0825347 -0.297614 -0.951112
    outer loop
      vertex 3.4621 -8.74196 -20.8383
      vertex 1.61985 -9.58298 -20.735
      vertex 1.53484 -9.27643 -20.8383
    endloop
  endfacet
  facet normal 0.261399 -0.942572 0.207917
    outer loop
      vertex 1.3021 -8.4372 -22.7944
      vertex 3.21078 -7.8357 -22.4672
      vertex 1.28351 -8.37018 -22.4672
    endloop
  endfacet
  facet normal 0.2614 -0.942573 0.20791
    outer loop
      vertex 3.21078 -7.8357 -22.4672
      vertex 1.3021 -8.4372 -22.7944
      vertex 3.22936 -7.90272 -22.7944
    endloop
  endfacet
  facet normal 0.24414 -0.880334 0.406704
    outer loop
      vertex 1.33846 -8.5683 -23.1
      vertex 3.22936 -7.90272 -22.7944
      vertex 1.3021 -8.4372 -22.7944
    endloop
  endfacet
  facet normal 0.24414 -0.880334 0.406704
    outer loop
      vertex 3.22936 -7.90272 -22.7944
      vertex 1.33846 -8.5683 -23.1
      vertex 3.26572 -8.03382 -23.1
    endloop
  endfacet
  facet normal 0.178812 -0.644771 0.743166
    outer loop
      vertex 3.31826 -8.22328 -23.3706
      vertex 1.45743 -8.99729 -23.5944
      vertex 3.38469 -8.46281 -23.5944
    endloop
  endfacet
  facet normal 0.178812 -0.644771 0.743166
    outer loop
      vertex 1.45743 -8.99729 -23.5944
      vertex 3.31826 -8.22328 -23.3706
      vertex 1.391 -8.75776 -23.3706
    endloop
  endfacet
  facet normal 0.267239 -0.96363 0
    outer loop
      vertex 1.28351 -8.37018 -22.4672
      vertex 3.21078 -7.8357 -22.1328
      vertex 1.28351 -8.37018 -22.1328
    endloop
  endfacet
  facet normal 0.267239 -0.96363 0
    outer loop
      vertex 3.21078 -7.8357 -22.1328
      vertex 1.28351 -8.37018 -22.4672
      vertex 3.21078 -7.8357 -22.4672
    endloop
  endfacet
  facet normal 0.261399 -0.942572 -0.207917
    outer loop
      vertex 3.21078 -7.8357 -22.1328
      vertex 1.3021 -8.4372 -21.8056
      vertex 1.28351 -8.37018 -22.1328
    endloop
  endfacet
  facet normal 0.2614 -0.942573 -0.20791
    outer loop
      vertex 1.3021 -8.4372 -21.8056
      vertex 3.21078 -7.8357 -22.1328
      vertex 3.22936 -7.90272 -21.8056
    endloop
  endfacet
  facet normal 0.24414 -0.880334 -0.406704
    outer loop
      vertex 3.22936 -7.90272 -21.8056
      vertex 1.33846 -8.5683 -21.5
      vertex 1.3021 -8.4372 -21.8056
    endloop
  endfacet
  facet normal 0.24414 -0.880334 -0.406704
    outer loop
      vertex 1.33846 -8.5683 -21.5
      vertex 3.22936 -7.90272 -21.8056
      vertex 3.26572 -8.03382 -21.5
    endloop
  endfacet
  facet normal 0.178812 -0.644771 -0.743166
    outer loop
      vertex 1.45743 -8.99729 -21.0056
      vertex 3.31826 -8.22328 -21.2294
      vertex 3.38469 -8.46281 -21.0056
    endloop
  endfacet
  facet normal 0.178812 -0.644771 -0.743166
    outer loop
      vertex 3.31826 -8.22328 -21.2294
      vertex 1.45743 -8.99729 -21.0056
      vertex 1.391 -8.75776 -21.2294
    endloop
  endfacet
  facet normal 0.133648 -0.481925 -0.86596
    outer loop
      vertex 1.53484 -9.27643 -20.8383
      vertex 3.38469 -8.46281 -21.0056
      vertex 3.4621 -8.74196 -20.8383
    endloop
  endfacet
  facet normal 0.133654 -0.481936 -0.865953
    outer loop
      vertex 3.38469 -8.46281 -21.0056
      vertex 1.53484 -9.27643 -20.8383
      vertex 1.45743 -8.99729 -21.0056
    endloop
  endfacet
  facet normal 0.216199 -0.779582 -0.5878
    outer loop
      vertex 3.26572 -8.03382 -21.5
      vertex 1.391 -8.75776 -21.2294
      vertex 1.33846 -8.5683 -21.5
    endloop
  endfacet
  facet normal 0.216199 -0.779582 -0.5878
    outer loop
      vertex 1.391 -8.75776 -21.2294
      vertex 3.26572 -8.03382 -21.5
      vertex 3.31826 -8.22328 -21.2294
    endloop
  endfacet
  facet normal -0.0279623 0.10083 -0.994511
    outer loop
      vertex 1.79765 -10.2241 23.865
      vertex 3.63601 -9.36907 23.9
      vertex 3.72491 -9.68963 23.865
    endloop
  endfacet
  facet normal -0.0279623 0.10083 -0.994511
    outer loop
      vertex 3.63601 -9.36907 23.9
      vertex 1.79765 -10.2241 23.865
      vertex 1.70875 -9.90354 23.9
    endloop
  endfacet
  facet normal -0.133665 0.481959 0.865938
    outer loop
      vertex 3.80993 -9.99618 20.8383
      vertex 1.96008 -10.8098 21.0056
      vertex 3.88734 -10.2753 21.0056
    endloop
  endfacet
  facet normal -0.133676 0.481982 0.865924
    outer loop
      vertex 1.96008 -10.8098 21.0056
      vertex 3.80993 -9.99618 20.8383
      vertex 1.88267 -10.5307 20.8383
    endloop
  endfacet
  facet normal -0.0825412 0.29761 0.951113
    outer loop
      vertex 3.72491 -9.68963 20.735
      vertex 1.88267 -10.5307 20.8383
      vertex 3.80993 -9.99618 20.8383
    endloop
  endfacet
  facet normal -0.0825227 0.297571 0.951126
    outer loop
      vertex 1.88267 -10.5307 20.8383
      vertex 3.72491 -9.68963 20.735
      vertex 1.79765 -10.2241 20.735
    endloop
  endfacet
  facet normal -0.261412 0.942582 0.207855
    outer loop
      vertex 4.04267 -10.8354 21.8056
      vertex 2.13399 -11.4369 22.1328
      vertex 4.06125 -10.9024 22.1328
    endloop
  endfacet
  facet normal -0.261412 0.942582 0.207855
    outer loop
      vertex 2.13399 -11.4369 22.1328
      vertex 4.04267 -10.8354 21.8056
      vertex 2.11541 -11.3699 21.8056
    endloop
  endfacet
  facet normal -0.244148 0.880332 -0.406704
    outer loop
      vertex 2.11541 -11.3699 22.7944
      vertex 4.00631 -10.7043 23.1
      vertex 4.04267 -10.8354 22.7944
    endloop
  endfacet
  facet normal -0.244148 0.880332 -0.406704
    outer loop
      vertex 4.00631 -10.7043 23.1
      vertex 2.11541 -11.3699 22.7944
      vertex 2.07905 -11.2388 23.1
    endloop
  endfacet
  facet normal -0.0825412 0.29761 -0.951113
    outer loop
      vertex 1.88267 -10.5307 23.7617
      vertex 3.72491 -9.68963 23.865
      vertex 3.80993 -9.99618 23.7617
    endloop
  endfacet
  facet normal -0.0825227 0.297571 -0.951126
    outer loop
      vertex 3.72491 -9.68963 23.865
      vertex 1.88267 -10.5307 23.7617
      vertex 1.79765 -10.2241 23.865
    endloop
  endfacet
  facet normal 0.0279625 -0.100831 0.994511
    outer loop
      vertex 3.54712 -9.04851 20.735
      vertex 1.70875 -9.90354 20.7
      vertex 3.63601 -9.36907 20.7
    endloop
  endfacet
  facet normal 0.0279621 -0.10083 0.994511
    outer loop
      vertex 1.70875 -9.90354 20.7
      vertex 3.54712 -9.04851 20.735
      vertex 1.61985 -9.58298 20.735
    endloop
  endfacet
  facet normal -0.267249 0.963627 0
    outer loop
      vertex 4.06125 -10.9024 22.1328
      vertex 2.13399 -11.4369 22.4672
      vertex 4.06125 -10.9024 22.4672
    endloop
  endfacet
  facet normal -0.267249 0.963627 0
    outer loop
      vertex 2.13399 -11.4369 22.4672
      vertex 4.06125 -10.9024 22.1328
      vertex 2.13399 -11.4369 22.1328
    endloop
  endfacet
  facet normal -0.216228 0.77966 0.587687
    outer loop
      vertex 3.95377 -10.5149 21.2294
      vertex 2.07905 -11.2388 21.5
      vertex 4.00631 -10.7043 21.5
    endloop
  endfacet
  facet normal -0.216154 0.779538 0.587876
    outer loop
      vertex 2.07905 -11.2388 21.5
      vertex 3.95377 -10.5149 21.2294
      vertex 2.02651 -11.0493 21.2294
    endloop
  endfacet
  facet normal -0.133665 0.481959 -0.865938
    outer loop
      vertex 1.96008 -10.8098 23.5944
      vertex 3.80993 -9.99618 23.7617
      vertex 3.88734 -10.2753 23.5944
    endloop
  endfacet
  facet normal -0.133676 0.481982 -0.865924
    outer loop
      vertex 3.80993 -9.99618 23.7617
      vertex 1.96008 -10.8098 23.5944
      vertex 1.88267 -10.5307 23.7617
    endloop
  endfacet
  facet normal -0.216228 0.77966 -0.587687
    outer loop
      vertex 2.07905 -11.2388 23.1
      vertex 3.95377 -10.5149 23.3706
      vertex 4.00631 -10.7043 23.1
    endloop
  endfacet
  facet normal -0.216154 0.779538 -0.587876
    outer loop
      vertex 3.95377 -10.5149 23.3706
      vertex 2.07905 -11.2388 23.1
      vertex 2.02651 -11.0493 23.3706
    endloop
  endfacet
  facet normal -0.261412 0.942582 -0.207855
    outer loop
      vertex 2.13399 -11.4369 22.4672
      vertex 4.04267 -10.8354 22.7944
      vertex 4.06125 -10.9024 22.4672
    endloop
  endfacet
  facet normal -0.261412 0.942582 -0.207855
    outer loop
      vertex 4.04267 -10.8354 22.7944
      vertex 2.13399 -11.4369 22.4672
      vertex 2.11541 -11.3699 22.7944
    endloop
  endfacet
  facet normal -0.17876 0.644682 -0.743256
    outer loop
      vertex 2.02651 -11.0493 23.3706
      vertex 3.88734 -10.2753 23.5944
      vertex 3.95377 -10.5149 23.3706
    endloop
  endfacet
  facet normal -0.17883 0.644811 -0.743127
    outer loop
      vertex 3.88734 -10.2753 23.5944
      vertex 2.02651 -11.0493 23.3706
      vertex 1.96008 -10.8098 23.5944
    endloop
  endfacet
  facet normal -0.0279623 0.10083 0.994511
    outer loop
      vertex 3.63601 -9.36907 20.7
      vertex 1.79765 -10.2241 20.735
      vertex 3.72491 -9.68963 20.735
    endloop
  endfacet
  facet normal -0.0279623 0.10083 0.994511
    outer loop
      vertex 1.79765 -10.2241 20.735
      vertex 3.63601 -9.36907 20.7
      vertex 1.70875 -9.90354 20.7
    endloop
  endfacet
  facet normal 0.216199 -0.779582 0.5878
    outer loop
      vertex 1.391 -8.75776 21.2294
      vertex 3.26572 -8.03382 21.5
      vertex 1.33846 -8.5683 21.5
    endloop
  endfacet
  facet normal 0.216199 -0.779582 0.5878
    outer loop
      vertex 3.26572 -8.03382 21.5
      vertex 1.391 -8.75776 21.2294
      vertex 3.31826 -8.22328 21.2294
    endloop
  endfacet
  facet normal 0.0825337 -0.297612 0.951113
    outer loop
      vertex 3.4621 -8.74196 20.8383
      vertex 1.61985 -9.58298 20.735
      vertex 3.54712 -9.04851 20.735
    endloop
  endfacet
  facet normal 0.0825347 -0.297614 0.951112
    outer loop
      vertex 1.61985 -9.58298 20.735
      vertex 3.4621 -8.74196 20.8383
      vertex 1.53484 -9.27643 20.8383
    endloop
  endfacet
  facet normal 0.0825337 -0.297612 -0.951113
    outer loop
      vertex 1.61985 -9.58298 23.865
      vertex 3.4621 -8.74196 23.7617
      vertex 3.54712 -9.04851 23.865
    endloop
  endfacet
  facet normal 0.0825347 -0.297614 -0.951112
    outer loop
      vertex 3.4621 -8.74196 23.7617
      vertex 1.61985 -9.58298 23.865
      vertex 1.53484 -9.27643 23.7617
    endloop
  endfacet
  facet normal -0.17876 0.644682 0.743256
    outer loop
      vertex 3.88734 -10.2753 21.0056
      vertex 2.02651 -11.0493 21.2294
      vertex 3.95377 -10.5149 21.2294
    endloop
  endfacet
  facet normal -0.17883 0.644811 0.743127
    outer loop
      vertex 2.02651 -11.0493 21.2294
      vertex 3.88734 -10.2753 21.0056
      vertex 1.96008 -10.8098 21.0056
    endloop
  endfacet
  facet normal -0.244148 0.880332 0.406704
    outer loop
      vertex 4.00631 -10.7043 21.5
      vertex 2.11541 -11.3699 21.8056
      vertex 4.04267 -10.8354 21.8056
    endloop
  endfacet
  facet normal -0.244148 0.880332 0.406704
    outer loop
      vertex 2.11541 -11.3699 21.8056
      vertex 4.00631 -10.7043 21.5
      vertex 2.07905 -11.2388 21.5
    endloop
  endfacet
  facet normal 0.261399 -0.942572 0.207917
    outer loop
      vertex 1.3021 -8.4372 21.8056
      vertex 3.21078 -7.8357 22.1328
      vertex 1.28351 -8.37018 22.1328
    endloop
  endfacet
  facet normal 0.2614 -0.942573 0.20791
    outer loop
      vertex 3.21078 -7.8357 22.1328
      vertex 1.3021 -8.4372 21.8056
      vertex 3.22936 -7.90272 21.8056
    endloop
  endfacet
  facet normal 0.24414 -0.880334 0.406704
    outer loop
      vertex 1.33846 -8.5683 21.5
      vertex 3.22936 -7.90272 21.8056
      vertex 1.3021 -8.4372 21.8056
    endloop
  endfacet
  facet normal 0.24414 -0.880334 0.406704
    outer loop
      vertex 3.22936 -7.90272 21.8056
      vertex 1.33846 -8.5683 21.5
      vertex 3.26572 -8.03382 21.5
    endloop
  endfacet
  facet normal 0.178812 -0.644771 0.743166
    outer loop
      vertex 3.31826 -8.22328 21.2294
      vertex 1.45743 -8.99729 21.0056
      vertex 3.38469 -8.46281 21.0056
    endloop
  endfacet
  facet normal 0.178812 -0.644771 0.743166
    outer loop
      vertex 1.45743 -8.99729 21.0056
      vertex 3.31826 -8.22328 21.2294
      vertex 1.391 -8.75776 21.2294
    endloop
  endfacet
  facet normal 0.133648 -0.481925 0.86596
    outer loop
      vertex 3.38469 -8.46281 21.0056
      vertex 1.53484 -9.27643 20.8383
      vertex 3.4621 -8.74196 20.8383
    endloop
  endfacet
  facet normal 0.133654 -0.481936 0.865953
    outer loop
      vertex 1.53484 -9.27643 20.8383
      vertex 3.38469 -8.46281 21.0056
      vertex 1.45743 -8.99729 21.0056
    endloop
  endfacet
  facet normal 0.0279625 -0.100831 -0.994511
    outer loop
      vertex 1.70875 -9.90354 23.9
      vertex 3.54712 -9.04851 23.865
      vertex 3.63601 -9.36907 23.9
    endloop
  endfacet
  facet normal 0.0279621 -0.10083 -0.994511
    outer loop
      vertex 3.54712 -9.04851 23.865
      vertex 1.70875 -9.90354 23.9
      vertex 1.61985 -9.58298 23.865
    endloop
  endfacet
  facet normal 0.178812 -0.644771 -0.743166
    outer loop
      vertex 1.45743 -8.99729 23.5944
      vertex 3.31826 -8.22328 23.3706
      vertex 3.38469 -8.46281 23.5944
    endloop
  endfacet
  facet normal 0.178812 -0.644771 -0.743166
    outer loop
      vertex 3.31826 -8.22328 23.3706
      vertex 1.45743 -8.99729 23.5944
      vertex 1.391 -8.75776 23.3706
    endloop
  endfacet
  facet normal 0.133648 -0.481925 -0.86596
    outer loop
      vertex 1.53484 -9.27643 23.7617
      vertex 3.38469 -8.46281 23.5944
      vertex 3.4621 -8.74196 23.7617
    endloop
  endfacet
  facet normal 0.133654 -0.481936 -0.865953
    outer loop
      vertex 3.38469 -8.46281 23.5944
      vertex 1.53484 -9.27643 23.7617
      vertex 1.45743 -8.99729 23.5944
    endloop
  endfacet
  facet normal 0.24414 -0.880334 -0.406704
    outer loop
      vertex 3.22936 -7.90272 22.7944
      vertex 1.33846 -8.5683 23.1
      vertex 1.3021 -8.4372 22.7944
    endloop
  endfacet
  facet normal 0.24414 -0.880334 -0.406704
    outer loop
      vertex 1.33846 -8.5683 23.1
      vertex 3.22936 -7.90272 22.7944
      vertex 3.26572 -8.03382 23.1
    endloop
  endfacet
  facet normal 0.267239 -0.96363 0
    outer loop
      vertex 1.28351 -8.37018 22.1328
      vertex 3.21078 -7.8357 22.4672
      vertex 1.28351 -8.37018 22.4672
    endloop
  endfacet
  facet normal 0.267239 -0.96363 0
    outer loop
      vertex 3.21078 -7.8357 22.4672
      vertex 1.28351 -8.37018 22.1328
      vertex 3.21078 -7.8357 22.1328
    endloop
  endfacet
  facet normal 0.261399 -0.942572 -0.207917
    outer loop
      vertex 3.21078 -7.8357 22.4672
      vertex 1.3021 -8.4372 22.7944
      vertex 1.28351 -8.37018 22.4672
    endloop
  endfacet
  facet normal 0.2614 -0.942573 -0.20791
    outer loop
      vertex 1.3021 -8.4372 22.7944
      vertex 3.21078 -7.8357 22.4672
      vertex 3.22936 -7.90272 22.7944
    endloop
  endfacet
  facet normal 0.216199 -0.779582 -0.5878
    outer loop
      vertex 3.26572 -8.03382 23.1
      vertex 1.391 -8.75776 23.3706
      vertex 1.33846 -8.5683 23.1
    endloop
  endfacet
  facet normal 0.216199 -0.779582 -0.5878
    outer loop
      vertex 1.391 -8.75776 23.3706
      vertex 3.26572 -8.03382 23.1
      vertex 3.31826 -8.22328 23.3706
    endloop
  endfacet
  facet normal -0.994542 0.104336 0
    outer loop
      vertex -1 0 -31
      vertex -0.999793 0.00197315 31
      vertex -0.999793 0.00197315 -31
    endloop
  endfacet
  facet normal -0.994542 0.104336 0
    outer loop
      vertex -0.999793 0.00197315 31
      vertex -1 0 -31
      vertex -1 0 31
    endloop
  endfacet
  facet normal -0.994522 -0.104527 0
    outer loop
      vertex -0.978148 -0.207911 -31
      vertex -1 0 31
      vertex -1 0 -31
    endloop
  endfacet
  facet normal -0.994522 -0.104527 0
    outer loop
      vertex -1 0 31
      vertex -0.978148 -0.207911 -31
      vertex -0.978148 -0.207911 31
    endloop
  endfacet
  facet normal -0.951053 -0.309026 0
    outer loop
      vertex -0.959264 -0.266028 -31
      vertex -0.978148 -0.207911 31
      vertex -0.978148 -0.207911 -31
    endloop
  endfacet
  facet normal -0.951053 -0.309026 0
    outer loop
      vertex -0.978148 -0.207911 31
      vertex -0.959264 -0.266028 -31
      vertex -0.959264 -0.266028 31
    endloop
  endfacet
endsolid OpenSCAD_Model
