solid OpenSCAD_Model
  facet normal 0.866026 0.5 0
    outer loop
      vertex 9.13545 4.06737 20
      vertex 8.09017 5.87785 0
      vertex 8.09017 5.87785 20
    endloop
  endfacet
  facet normal 0.866026 0.5 0
    outer loop
      vertex 8.09017 5.87785 0
      vertex 9.13545 4.06737 20
      vertex 9.13545 4.06737 0
    endloop
  endfacet
  facet normal -0.951055 0.309021 0
    outer loop
      vertex -9.78148 2.07912 0
      vertex -9.13545 4.06737 20
      vertex -9.13545 4.06737 0
    endloop
  endfacet
  facet normal -0.951055 0.309021 0
    outer loop
      vertex -9.13545 4.06737 20
      vertex -9.78148 2.07912 0
      vertex -9.78148 2.07912 20
    endloop
  endfacet
  facet normal 0.743147 0.669129 0
    outer loop
      vertex 8.09017 5.87785 20
      vertex 6.69131 7.43145 0
      vertex 6.69131 7.43145 20
    endloop
  endfacet
  facet normal 0.743147 0.669129 0
    outer loop
      vertex 6.69131 7.43145 0
      vertex 8.09017 5.87785 20
      vertex 8.09017 5.87785 0
    endloop
  endfacet
  facet normal 0.207914 0.978147 -0
    outer loop
      vertex 3.09017 9.51056 0
      vertex 1.04528 9.94522 20
      vertex 3.09017 9.51056 20
    endloop
  endfacet
  facet normal 0.207914 0.978147 0
    outer loop
      vertex 1.04528 9.94522 20
      vertex 3.09017 9.51056 0
      vertex 1.04528 9.94522 0
    endloop
  endfacet
  facet normal -0.406736 0.913546 0
    outer loop
      vertex -3.09017 9.51056 0
      vertex -5 8.66025 20
      vertex -3.09017 9.51056 20
    endloop
  endfacet
  facet normal -0.406736 0.913546 0
    outer loop
      vertex -5 8.66025 20
      vertex -3.09017 9.51056 0
      vertex -5 8.66025 0
    endloop
  endfacet
  facet normal -0.866026 0.5 0
    outer loop
      vertex -9.13545 4.06737 0
      vertex -8.09017 5.87785 20
      vertex -8.09017 5.87785 0
    endloop
  endfacet
  facet normal -0.866026 0.5 0
    outer loop
      vertex -8.09017 5.87785 20
      vertex -9.13545 4.06737 0
      vertex -9.13545 4.06737 20
    endloop
  endfacet
  facet normal 0.994522 -0.104526 0
    outer loop
      vertex 9.78148 -2.07912 20
      vertex 10 0 0
      vertex 10 0 20
    endloop
  endfacet
  facet normal 0.994522 -0.104526 0
    outer loop
      vertex 10 0 0
      vertex 9.78148 -2.07912 20
      vertex 9.78148 -2.07912 0
    endloop
  endfacet
  facet normal 0.587783 0.809019 -0
    outer loop
      vertex 6.69131 7.43145 0
      vertex 5 8.66025 20
      vertex 6.69131 7.43145 20
    endloop
  endfacet
  facet normal 0.587783 0.809019 0
    outer loop
      vertex 5 8.66025 20
      vertex 6.69131 7.43145 0
      vertex 5 8.66025 0
    endloop
  endfacet
  facet normal 0 1 -0
    outer loop
      vertex 1.04528 9.94522 0
      vertex -1.04528 9.94522 20
      vertex 1.04528 9.94522 20
    endloop
  endfacet
  facet normal 0 1 0
    outer loop
      vertex -1.04528 9.94522 20
      vertex 1.04528 9.94522 0
      vertex -1.04528 9.94522 0
    endloop
  endfacet
  facet normal 0.406736 0.913546 -0
    outer loop
      vertex 5 8.66025 0
      vertex 3.09017 9.51056 20
      vertex 5 8.66025 20
    endloop
  endfacet
  facet normal 0.406736 0.913546 0
    outer loop
      vertex 3.09017 9.51056 20
      vertex 5 8.66025 0
      vertex 3.09017 9.51056 0
    endloop
  endfacet
  facet normal -0.994522 0.104526 0
    outer loop
      vertex -10 0 0
      vertex -9.78148 2.07912 20
      vertex -9.78148 2.07912 0
    endloop
  endfacet
  facet normal -0.994522 0.104526 0
    outer loop
      vertex -9.78148 2.07912 20
      vertex -10 0 0
      vertex -10 0 20
    endloop
  endfacet
  facet normal -0.587783 0.809019 0
    outer loop
      vertex -5 8.66025 0
      vertex -6.69131 7.43145 20
      vertex -5 8.66025 20
    endloop
  endfacet
  facet normal -0.587783 0.809019 0
    outer loop
      vertex -6.69131 7.43145 20
      vertex -5 8.66025 0
      vertex -6.69131 7.43145 0
    endloop
  endfacet
  facet normal -0.207914 0.978147 0
    outer loop
      vertex -1.04528 9.94522 0
      vertex -3.09017 9.51056 20
      vertex -1.04528 9.94522 20
    endloop
  endfacet
  facet normal -0.207914 0.978147 0
    outer loop
      vertex -3.09017 9.51056 20
      vertex -1.04528 9.94522 0
      vertex -3.09017 9.51056 0
    endloop
  endfacet
  facet normal -0.743147 0.669129 0
    outer loop
      vertex -8.09017 5.87785 0
      vertex -6.69131 7.43145 20
      vertex -6.69131 7.43145 0
    endloop
  endfacet
  facet normal -0.743147 0.669129 0
    outer loop
      vertex -6.69131 7.43145 20
      vertex -8.09017 5.87785 0
      vertex -8.09017 5.87785 20
    endloop
  endfacet
  facet normal 0.994522 0.104526 0
    outer loop
      vertex 10 0 20
      vertex 9.78148 2.07912 0
      vertex 9.78148 2.07912 20
    endloop
  endfacet
  facet normal 0.994522 0.104526 0
    outer loop
      vertex 9.78148 2.07912 0
      vertex 10 0 20
      vertex 10 0 0
    endloop
  endfacet
  facet normal -0.866026 -0.5 0
    outer loop
      vertex -8.09017 -5.87785 0
      vertex -9.13545 -4.06737 20
      vertex -9.13545 -4.06737 0
    endloop
  endfacet
  facet normal -0.866026 -0.5 0
    outer loop
      vertex -9.13545 -4.06737 20
      vertex -8.09017 -5.87785 0
      vertex -8.09017 -5.87785 20
    endloop
  endfacet
  facet normal 0.587783 -0.809019 0
    outer loop
      vertex 5 -8.66025 0
      vertex 6.69131 -7.43145 20
      vertex 5 -8.66025 20
    endloop
  endfacet
  facet normal 0.587783 -0.809019 0
    outer loop
      vertex 6.69131 -7.43145 20
      vertex 5 -8.66025 0
      vertex 6.69131 -7.43145 0
    endloop
  endfacet
  facet normal 0.951055 0.309021 0
    outer loop
      vertex 9.78148 2.07912 20
      vertex 9.13545 4.06737 0
      vertex 9.13545 4.06737 20
    endloop
  endfacet
  facet normal 0.951055 0.309021 0
    outer loop
      vertex 9.13545 4.06737 0
      vertex 9.78148 2.07912 20
      vertex 9.78148 2.07912 0
    endloop
  endfacet
  facet normal -0 0 1
    outer loop
      vertex 5.18536 0.82128 20
      vertex 10 0 20
      vertex 9.78148 2.07912 20
    endloop
  endfacet
  facet normal 0 0 1
    outer loop
      vertex 4.99305 1.62234 20
      vertex 9.78148 2.07912 20
      vertex 9.13545 4.06737 20
    endloop
  endfacet
  facet normal 0 0 1
    outer loop
      vertex 10 0 20
      vertex 5.18536 0.82128 20
      vertex 5.25 0 20
    endloop
  endfacet
  facet normal 0 0 1
    outer loop
      vertex 4.67778 2.38345 20
      vertex 9.13545 4.06737 20
      vertex 8.09017 5.87785 20
    endloop
  endfacet
  facet normal 0 0 1
    outer loop
      vertex 5.18536 -0.82128 20
      vertex 10 0 20
      vertex 5.25 0 20
    endloop
  endfacet
  facet normal 0 0 1
    outer loop
      vertex 3.71231 3.71231 20
      vertex 8.09017 5.87785 20
      vertex 6.69131 7.43145 20
    endloop
  endfacet
  facet normal 0 0 1
    outer loop
      vertex 10 0 20
      vertex 5.18536 -0.82128 20
      vertex 9.78148 -2.07912 20
    endloop
  endfacet
  facet normal 0 0 1
    outer loop
      vertex 9.78148 -2.07912 20
      vertex 4.99305 -1.62234 20
      vertex 9.13545 -4.06737 20
    endloop
  endfacet
  facet normal -0 0 1
    outer loop
      vertex 4.99305 -1.62234 20
      vertex 9.78148 -2.07912 20
      vertex 5.18536 -0.82128 20
    endloop
  endfacet
  facet normal 0 0 1
    outer loop
      vertex 3.08587 4.24734 20
      vertex 6.69131 7.43145 20
      vertex 5 8.66025 20
    endloop
  endfacet
  facet normal 0 0 1
    outer loop
      vertex 9.78148 2.07912 20
      vertex 4.99305 1.62234 20
      vertex 5.18536 0.82128 20
    endloop
  endfacet
  facet normal 0 0 1
    outer loop
      vertex 9.13545 4.06737 20
      vertex 4.67778 2.38345 20
      vertex 4.99305 1.62234 20
    endloop
  endfacet
  facet normal 0 0 1
    outer loop
      vertex 8.09017 5.87785 20
      vertex 4.24734 3.08587 20
      vertex 4.67778 2.38345 20
    endloop
  endfacet
  facet normal 0 0 1
    outer loop
      vertex 8.09017 5.87785 20
      vertex 3.71231 3.71231 20
      vertex 4.24734 3.08587 20
    endloop
  endfacet
  facet normal 0 0 1
    outer loop
      vertex 2.38345 4.67778 20
      vertex 5 8.66025 20
      vertex 3.09017 9.51056 20
    endloop
  endfacet
  facet normal 0 0 1
    outer loop
      vertex 6.69131 7.43145 20
      vertex 3.08587 4.24734 20
      vertex 3.71231 3.71231 20
    endloop
  endfacet
  facet normal 0 0 1
    outer loop
      vertex 5 8.66025 20
      vertex 2.38345 4.67778 20
      vertex 3.08587 4.24734 20
    endloop
  endfacet
  facet normal 0 0 1
    outer loop
      vertex 3.09017 9.51056 20
      vertex 1.62234 4.99305 20
      vertex 2.38345 4.67778 20
    endloop
  endfacet
  facet normal 0 0 1
    outer loop
      vertex 0.82128 5.18536 20
      vertex 3.09017 9.51056 20
      vertex 1.04528 9.94522 20
    endloop
  endfacet
  facet normal 0 0 1
    outer loop
      vertex 3.09017 9.51056 20
      vertex 0.82128 5.18536 20
      vertex 1.62234 4.99305 20
    endloop
  endfacet
  facet normal 0 0 1
    outer loop
      vertex 1.04528 9.94522 20
      vertex 0 5.25 20
      vertex 0.82128 5.18536 20
    endloop
  endfacet
  facet normal -0 0 1
    outer loop
      vertex -1.04528 9.94522 20
      vertex 0 5.25 20
      vertex 1.04528 9.94522 20
    endloop
  endfacet
  facet normal 0 0 1
    outer loop
      vertex 0 5.25 20
      vertex -1.04528 9.94522 20
      vertex -0.82128 5.18536 20
    endloop
  endfacet
  facet normal -0 0 1
    outer loop
      vertex -3.09017 9.51056 20
      vertex -0.82128 5.18536 20
      vertex -1.04528 9.94522 20
    endloop
  endfacet
  facet normal 0 0 1
    outer loop
      vertex -0.82128 5.18536 20
      vertex -3.09017 9.51056 20
      vertex -1.62234 4.99305 20
    endloop
  endfacet
  facet normal 0 0 1
    outer loop
      vertex -1.62234 4.99305 20
      vertex -3.09017 9.51056 20
      vertex -2.38345 4.67778 20
    endloop
  endfacet
  facet normal -0 0 1
    outer loop
      vertex -5 8.66025 20
      vertex -2.38345 4.67778 20
      vertex -3.09017 9.51056 20
    endloop
  endfacet
  facet normal 0 0 1
    outer loop
      vertex -2.38345 4.67778 20
      vertex -5 8.66025 20
      vertex -3.08587 4.24734 20
    endloop
  endfacet
  facet normal -0 0 1
    outer loop
      vertex -6.69131 7.43145 20
      vertex -3.08587 4.24734 20
      vertex -5 8.66025 20
    endloop
  endfacet
  facet normal 0 0 1
    outer loop
      vertex -3.08587 4.24734 20
      vertex -6.69131 7.43145 20
      vertex -3.71231 3.71231 20
    endloop
  endfacet
  facet normal -0 0 1
    outer loop
      vertex -8.09017 5.87785 20
      vertex -3.71231 3.71231 20
      vertex -6.69131 7.43145 20
    endloop
  endfacet
  facet normal 0 0 1
    outer loop
      vertex -3.71231 3.71231 20
      vertex -8.09017 5.87785 20
      vertex -4.24734 3.08587 20
    endloop
  endfacet
  facet normal 0 0 1
    outer loop
      vertex -4.24734 3.08587 20
      vertex -8.09017 5.87785 20
      vertex -4.67778 2.38345 20
    endloop
  endfacet
  facet normal -0 0 1
    outer loop
      vertex -9.13545 4.06737 20
      vertex -4.67778 2.38345 20
      vertex -8.09017 5.87785 20
    endloop
  endfacet
  facet normal 0 0 1
    outer loop
      vertex -4.67778 2.38345 20
      vertex -9.13545 4.06737 20
      vertex -4.99305 1.62234 20
    endloop
  endfacet
  facet normal -0 0 1
    outer loop
      vertex 4.67778 -2.38345 20
      vertex 9.13545 -4.06737 20
      vertex 4.99305 -1.62234 20
    endloop
  endfacet
  facet normal 0 0 1
    outer loop
      vertex 9.13545 -4.06737 20
      vertex 4.67778 -2.38345 20
      vertex 8.09017 -5.87785 20
    endloop
  endfacet
  facet normal -0 0 1
    outer loop
      vertex 4.24734 -3.08587 20
      vertex 8.09017 -5.87785 20
      vertex 4.67778 -2.38345 20
    endloop
  endfacet
  facet normal -0 0 1
    outer loop
      vertex 3.71231 -3.71231 20
      vertex 8.09017 -5.87785 20
      vertex 4.24734 -3.08587 20
    endloop
  endfacet
  facet normal 0 0 1
    outer loop
      vertex 8.09017 -5.87785 20
      vertex 3.71231 -3.71231 20
      vertex 6.69131 -7.43145 20
    endloop
  endfacet
  facet normal -0 0 1
    outer loop
      vertex 3.08587 -4.24734 20
      vertex 6.69131 -7.43145 20
      vertex 3.71231 -3.71231 20
    endloop
  endfacet
  facet normal 0 0 1
    outer loop
      vertex 6.69131 -7.43145 20
      vertex 3.08587 -4.24734 20
      vertex 5 -8.66025 20
    endloop
  endfacet
  facet normal -0 0 1
    outer loop
      vertex 2.38345 -4.67778 20
      vertex 5 -8.66025 20
      vertex 3.08587 -4.24734 20
    endloop
  endfacet
  facet normal 0 0 1
    outer loop
      vertex 5 -8.66025 20
      vertex 2.38345 -4.67778 20
      vertex 3.09017 -9.51056 20
    endloop
  endfacet
  facet normal -0 0 1
    outer loop
      vertex 1.62234 -4.99305 20
      vertex 3.09017 -9.51056 20
      vertex 2.38345 -4.67778 20
    endloop
  endfacet
  facet normal -0 0 1
    outer loop
      vertex 0.82128 -5.18536 20
      vertex 3.09017 -9.51056 20
      vertex 1.62234 -4.99305 20
    endloop
  endfacet
  facet normal 0 0 1
    outer loop
      vertex 3.09017 -9.51056 20
      vertex 0.82128 -5.18536 20
      vertex 1.04528 -9.94522 20
    endloop
  endfacet
  facet normal -0 0 1
    outer loop
      vertex 0 -5.25 20
      vertex 1.04528 -9.94522 20
      vertex 0.82128 -5.18536 20
    endloop
  endfacet
  facet normal 0 0 1
    outer loop
      vertex -1.04528 -9.94522 20
      vertex 0 -5.25 20
      vertex -0.82128 -5.18536 20
    endloop
  endfacet
  facet normal 0 0 1
    outer loop
      vertex 0 -5.25 20
      vertex -1.04528 -9.94522 20
      vertex 1.04528 -9.94522 20
    endloop
  endfacet
  facet normal 0 0 1
    outer loop
      vertex -3.09017 -9.51056 20
      vertex -0.82128 -5.18536 20
      vertex -1.62234 -4.99305 20
    endloop
  endfacet
  facet normal 0 0 1
    outer loop
      vertex -3.09017 -9.51056 20
      vertex -1.62234 -4.99305 20
      vertex -2.38345 -4.67778 20
    endloop
  endfacet
  facet normal 0 0 1
    outer loop
      vertex -5 -8.66025 20
      vertex -2.38345 -4.67778 20
      vertex -3.08587 -4.24734 20
    endloop
  endfacet
  facet normal 0 0 1
    outer loop
      vertex -0.82128 -5.18536 20
      vertex -3.09017 -9.51056 20
      vertex -1.04528 -9.94522 20
    endloop
  endfacet
  facet normal 0 0 1
    outer loop
      vertex -6.69131 -7.43145 20
      vertex -3.08587 -4.24734 20
      vertex -3.71231 -3.71231 20
    endloop
  endfacet
  facet normal 0 0 1
    outer loop
      vertex -8.09017 -5.87785 20
      vertex -3.71231 -3.71231 20
      vertex -4.24734 -3.08587 20
    endloop
  endfacet
  facet normal 0 0 1
    outer loop
      vertex -8.09017 -5.87785 20
      vertex -4.24734 -3.08587 20
      vertex -4.67778 -2.38345 20
    endloop
  endfacet
  facet normal 0 0 1
    outer loop
      vertex -9.13545 -4.06737 20
      vertex -4.67778 -2.38345 20
      vertex -4.99305 -1.62234 20
    endloop
  endfacet
  facet normal 0 0 1
    outer loop
      vertex -2.38345 -4.67778 20
      vertex -5 -8.66025 20
      vertex -3.09017 -9.51056 20
    endloop
  endfacet
  facet normal 0 0 1
    outer loop
      vertex -9.78148 -2.07912 20
      vertex -4.99305 -1.62234 20
      vertex -5.18536 -0.82128 20
    endloop
  endfacet
  facet normal -0 0 1
    outer loop
      vertex -10 0 20
      vertex -5.18536 -0.82128 20
      vertex -5.25 0 20
    endloop
  endfacet
  facet normal -0 0 1
    outer loop
      vertex -9.78148 2.07912 20
      vertex -4.99305 1.62234 20
      vertex -9.13545 4.06737 20
    endloop
  endfacet
  facet normal 0 0 1
    outer loop
      vertex -3.08587 -4.24734 20
      vertex -6.69131 -7.43145 20
      vertex -5 -8.66025 20
    endloop
  endfacet
  facet normal 0 0 1
    outer loop
      vertex -4.99305 1.62234 20
      vertex -9.78148 2.07912 20
      vertex -5.18536 0.82128 20
    endloop
  endfacet
  facet normal 0 0 1
    outer loop
      vertex -3.71231 -3.71231 20
      vertex -8.09017 -5.87785 20
      vertex -6.69131 -7.43145 20
    endloop
  endfacet
  facet normal 0 0 1
    outer loop
      vertex -10 0 20
      vertex -5.18536 0.82128 20
      vertex -9.78148 2.07912 20
    endloop
  endfacet
  facet normal 0 0 1
    outer loop
      vertex -4.67778 -2.38345 20
      vertex -9.13545 -4.06737 20
      vertex -8.09017 -5.87785 20
    endloop
  endfacet
  facet normal 0 0 1
    outer loop
      vertex -5.18536 0.82128 20
      vertex -10 0 20
      vertex -5.25 0 20
    endloop
  endfacet
  facet normal 0 0 1
    outer loop
      vertex -4.99305 -1.62234 20
      vertex -9.78148 -2.07912 20
      vertex -9.13545 -4.06737 20
    endloop
  endfacet
  facet normal 0 0 1
    outer loop
      vertex -5.18536 -0.82128 20
      vertex -10 0 20
      vertex -9.78148 -2.07912 20
    endloop
  endfacet
  facet normal 0.866026 -0.5 0
    outer loop
      vertex 8.09017 -5.87785 20
      vertex 9.13545 -4.06737 0
      vertex 9.13545 -4.06737 20
    endloop
  endfacet
  facet normal 0.866026 -0.5 0
    outer loop
      vertex 9.13545 -4.06737 0
      vertex 8.09017 -5.87785 20
      vertex 8.09017 -5.87785 0
    endloop
  endfacet
  facet normal -0.994522 -0.104526 0
    outer loop
      vertex -9.78148 -2.07912 0
      vertex -10 0 20
      vertex -10 0 0
    endloop
  endfacet
  facet normal -0.994522 -0.104526 0
    outer loop
      vertex -10 0 20
      vertex -9.78148 -2.07912 0
      vertex -9.78148 -2.07912 20
    endloop
  endfacet
  facet normal 0.207914 -0.978147 0
    outer loop
      vertex 1.04528 -9.94522 16.2978
      vertex 3.09017 -9.51056 20
      vertex 1.04528 -9.94522 20
    endloop
  endfacet
  facet normal 0.207908 -0.978148 3.27848e-06
    outer loop
      vertex 1.41578 -9.86647 16.0286
      vertex 3.09017 -9.51056 20
      vertex 1.04528 -9.94522 16.2978
    endloop
  endfacet
  facet normal 0.207913 -0.978147 1.14654e-06
    outer loop
      vertex 1.75 -9.79543 15
      vertex 3.09017 -9.51056 20
      vertex 1.41578 -9.86647 16.0286
    endloop
  endfacet
  facet normal 0.207906 -0.978149 0
    outer loop
      vertex 1.04528 -9.94522 6.2978
      vertex 1.41578 -9.86647 13.9714
      vertex 1.04528 -9.94522 13.7022
    endloop
  endfacet
  facet normal 0.207906 -0.978149 0
    outer loop
      vertex 1.41578 -9.86647 6.02862
      vertex 1.41578 -9.86647 13.9714
      vertex 1.04528 -9.94522 6.2978
    endloop
  endfacet
  facet normal 0.20791 -0.978148 0
    outer loop
      vertex 1.41578 -9.86647 13.9714
      vertex 1.41578 -9.86647 6.02862
      vertex 1.75 -9.79543 15
    endloop
  endfacet
  facet normal 0.20791 -0.978148 0
    outer loop
      vertex 1.75 -9.79543 5
      vertex 1.75 -9.79543 15
      vertex 1.41578 -9.86647 6.02862
    endloop
  endfacet
  facet normal 0.207917 -0.978146 0
    outer loop
      vertex 1.75 -9.79543 15
      vertex 1.75 -9.79543 5
      vertex 3.09017 -9.51056 20
    endloop
  endfacet
  facet normal 0.207914 -0.978147 0
    outer loop
      vertex 3.09017 -9.51056 0
      vertex 1.04528 -9.94522 3.7022
      vertex 1.04528 -9.94522 0
    endloop
  endfacet
  facet normal 0.207908 -0.978148 -3.27855e-06
    outer loop
      vertex 1.04528 -9.94522 3.7022
      vertex 3.09017 -9.51056 0
      vertex 1.41578 -9.86647 3.97138
    endloop
  endfacet
  facet normal 0.207917 -0.978146 0
    outer loop
      vertex 1.75 -9.79543 5
      vertex 3.09017 -9.51056 0
      vertex 3.09017 -9.51056 20
    endloop
  endfacet
  facet normal 0.207913 -0.978147 -1.14653e-06
    outer loop
      vertex 1.41578 -9.86647 3.97138
      vertex 3.09017 -9.51056 0
      vertex 1.75 -9.79543 5
    endloop
  endfacet
  facet normal 0.406736 -0.913546 0
    outer loop
      vertex 3.09017 -9.51056 0
      vertex 5 -8.66025 20
      vertex 3.09017 -9.51056 20
    endloop
  endfacet
  facet normal 0.406736 -0.913546 0
    outer loop
      vertex 5 -8.66025 20
      vertex 3.09017 -9.51056 0
      vertex 5 -8.66025 0
    endloop
  endfacet
  facet normal 0.951055 -0.309021 0
    outer loop
      vertex 9.13545 -4.06737 20
      vertex 9.78148 -2.07912 0
      vertex 9.78148 -2.07912 20
    endloop
  endfacet
  facet normal 0.951055 -0.309021 0
    outer loop
      vertex 9.78148 -2.07912 0
      vertex 9.13545 -4.06737 20
      vertex 9.13545 -4.06737 0
    endloop
  endfacet
  facet normal -0.207914 -0.978147 0
    outer loop
      vertex -3.09017 -9.51056 20
      vertex -1.04528 -9.94522 16.2978
      vertex -1.04528 -9.94522 20
    endloop
  endfacet
  facet normal -0.207908 -0.978148 3.27848e-06
    outer loop
      vertex -3.09017 -9.51056 20
      vertex -1.41578 -9.86647 16.0286
      vertex -1.04528 -9.94522 16.2978
    endloop
  endfacet
  facet normal -0.207913 -0.978147 1.14654e-06
    outer loop
      vertex -3.09017 -9.51056 20
      vertex -1.75 -9.79543 15
      vertex -1.41578 -9.86647 16.0286
    endloop
  endfacet
  facet normal -0.207906 -0.978149 0
    outer loop
      vertex -1.41578 -9.86647 13.9714
      vertex -1.04528 -9.94522 6.2978
      vertex -1.04528 -9.94522 13.7022
    endloop
  endfacet
  facet normal -0.20791 -0.978148 0
    outer loop
      vertex -1.41578 -9.86647 6.02862
      vertex -1.41578 -9.86647 13.9714
      vertex -1.75 -9.79543 15
    endloop
  endfacet
  facet normal -0.207917 -0.978146 0
    outer loop
      vertex -1.75 -9.79543 5
      vertex -1.75 -9.79543 15
      vertex -3.09017 -9.51056 20
    endloop
  endfacet
  facet normal -0.207906 -0.978149 -0
    outer loop
      vertex -1.41578 -9.86647 13.9714
      vertex -1.41578 -9.86647 6.02862
      vertex -1.04528 -9.94522 6.2978
    endloop
  endfacet
  facet normal -0.20791 -0.978148 -0
    outer loop
      vertex -1.75 -9.79543 15
      vertex -1.75 -9.79543 5
      vertex -1.41578 -9.86647 6.02862
    endloop
  endfacet
  facet normal -0.207917 -0.978146 0
    outer loop
      vertex -3.09017 -9.51056 0
      vertex -1.75 -9.79543 5
      vertex -3.09017 -9.51056 20
    endloop
  endfacet
  facet normal -0.207913 -0.978147 -1.14653e-06
    outer loop
      vertex -3.09017 -9.51056 0
      vertex -1.41578 -9.86647 3.97138
      vertex -1.75 -9.79543 5
    endloop
  endfacet
  facet normal -0.207908 -0.978148 -3.27855e-06
    outer loop
      vertex -3.09017 -9.51056 0
      vertex -1.04528 -9.94522 3.7022
      vertex -1.41578 -9.86647 3.97138
    endloop
  endfacet
  facet normal -0.207914 -0.978147 -0
    outer loop
      vertex -1.04528 -9.94522 3.7022
      vertex -3.09017 -9.51056 0
      vertex -1.04528 -9.94522 0
    endloop
  endfacet
  facet normal 0 -1 0
    outer loop
      vertex -1.04528 -9.94522 20
      vertex -0.540779 -9.94522 16.6643
      vertex 1.04528 -9.94522 20
    endloop
  endfacet
  facet normal -0 -1 0
    outer loop
      vertex -0.540779 -9.94522 16.6643
      vertex -1.04528 -9.94522 20
      vertex -1.04528 -9.94522 16.2978
    endloop
  endfacet
  facet normal 0 -1 0
    outer loop
      vertex 0.540779 -9.94522 16.6643
      vertex 1.04528 -9.94522 20
      vertex -0.540779 -9.94522 16.6643
    endloop
  endfacet
  facet normal 0 -1 -0
    outer loop
      vertex 1.04528 -9.94522 20
      vertex 0.540779 -9.94522 16.6643
      vertex 1.04528 -9.94522 16.2978
    endloop
  endfacet
  facet normal 0 -1 -0
    outer loop
      vertex -0.540779 -9.94522 3.33565
      vertex -1.04528 -9.94522 0
      vertex 0.540779 -9.94522 3.33565
    endloop
  endfacet
  facet normal 0 -1 0
    outer loop
      vertex -1.04528 -9.94522 0
      vertex -0.540779 -9.94522 3.33565
      vertex -1.04528 -9.94522 3.7022
    endloop
  endfacet
  facet normal 0 -1 0
    outer loop
      vertex 1.04528 -9.94522 0
      vertex 0.540779 -9.94522 3.33565
      vertex -1.04528 -9.94522 0
    endloop
  endfacet
  facet normal 0 -1 0
    outer loop
      vertex 0.540779 -9.94522 3.33565
      vertex 1.04528 -9.94522 0
      vertex 1.04528 -9.94522 3.7022
    endloop
  endfacet
  facet normal 0 -1 0
    outer loop
      vertex -0.540779 -9.94522 13.3357
      vertex -0.540779 -9.94522 6.66435
      vertex 0.540779 -9.94522 13.3357
    endloop
  endfacet
  facet normal 0 -1 0
    outer loop
      vertex -1.04528 -9.94522 13.7022
      vertex -0.540779 -9.94522 6.66435
      vertex -0.540779 -9.94522 13.3357
    endloop
  endfacet
  facet normal -0 -1 0
    outer loop
      vertex -0.540779 -9.94522 6.66435
      vertex -1.04528 -9.94522 13.7022
      vertex -1.04528 -9.94522 6.2978
    endloop
  endfacet
  facet normal 0 -1 0
    outer loop
      vertex 0.540779 -9.94522 6.66435
      vertex 0.540779 -9.94522 13.3357
      vertex -0.540779 -9.94522 6.66435
    endloop
  endfacet
  facet normal 0 -1 0
    outer loop
      vertex 0.540779 -9.94522 13.3357
      vertex 0.540779 -9.94522 6.66435
      vertex 1.04528 -9.94522 13.7022
    endloop
  endfacet
  facet normal 0 -1 -0
    outer loop
      vertex 1.04528 -9.94522 13.7022
      vertex 0.540779 -9.94522 6.66435
      vertex 1.04528 -9.94522 6.2978
    endloop
  endfacet
  facet normal 0 0 -1
    outer loop
      vertex 5.18536 -0.82128 0
      vertex 10 0 0
      vertex 9.78148 -2.07912 0
    endloop
  endfacet
  facet normal 0 0 -1
    outer loop
      vertex 4.99305 -1.62234 0
      vertex 9.78148 -2.07912 0
      vertex 9.13545 -4.06737 0
    endloop
  endfacet
  facet normal -0 0 -1
    outer loop
      vertex 10 0 0
      vertex 5.18536 -0.82128 0
      vertex 5.25 0 0
    endloop
  endfacet
  facet normal 0 0 -1
    outer loop
      vertex 4.67778 -2.38345 0
      vertex 9.13545 -4.06737 0
      vertex 8.09017 -5.87785 0
    endloop
  endfacet
  facet normal 0 0 -1
    outer loop
      vertex 5.18536 0.82128 0
      vertex 10 0 0
      vertex 5.25 0 0
    endloop
  endfacet
  facet normal 0 0 -1
    outer loop
      vertex 3.71231 -3.71231 0
      vertex 8.09017 -5.87785 0
      vertex 6.69131 -7.43145 0
    endloop
  endfacet
  facet normal 0 0 -1
    outer loop
      vertex 10 0 0
      vertex 5.18536 0.82128 0
      vertex 9.78148 2.07912 0
    endloop
  endfacet
  facet normal -0 0 -1
    outer loop
      vertex 9.78148 2.07912 0
      vertex 4.99305 1.62234 0
      vertex 9.13545 4.06737 0
    endloop
  endfacet
  facet normal 0 0 -1
    outer loop
      vertex 4.99305 1.62234 0
      vertex 9.78148 2.07912 0
      vertex 5.18536 0.82128 0
    endloop
  endfacet
  facet normal 0 0 -1
    outer loop
      vertex 3.08587 -4.24734 0
      vertex 6.69131 -7.43145 0
      vertex 5 -8.66025 0
    endloop
  endfacet
  facet normal 0 0 -1
    outer loop
      vertex 9.78148 -2.07912 0
      vertex 4.99305 -1.62234 0
      vertex 5.18536 -0.82128 0
    endloop
  endfacet
  facet normal 0 0 -1
    outer loop
      vertex 9.13545 -4.06737 0
      vertex 4.67778 -2.38345 0
      vertex 4.99305 -1.62234 0
    endloop
  endfacet
  facet normal 0 0 -1
    outer loop
      vertex 8.09017 -5.87785 0
      vertex 4.24734 -3.08587 0
      vertex 4.67778 -2.38345 0
    endloop
  endfacet
  facet normal 0 0 -1
    outer loop
      vertex 8.09017 -5.87785 0
      vertex 3.71231 -3.71231 0
      vertex 4.24734 -3.08587 0
    endloop
  endfacet
  facet normal 0 0 -1
    outer loop
      vertex 2.38345 -4.67778 0
      vertex 5 -8.66025 0
      vertex 3.09017 -9.51056 0
    endloop
  endfacet
  facet normal 0 0 -1
    outer loop
      vertex 6.69131 -7.43145 0
      vertex 3.08587 -4.24734 0
      vertex 3.71231 -3.71231 0
    endloop
  endfacet
  facet normal 0 0 -1
    outer loop
      vertex 5 -8.66025 0
      vertex 2.38345 -4.67778 0
      vertex 3.08587 -4.24734 0
    endloop
  endfacet
  facet normal 0 0 -1
    outer loop
      vertex 3.09017 -9.51056 0
      vertex 1.62234 -4.99305 0
      vertex 2.38345 -4.67778 0
    endloop
  endfacet
  facet normal 0 0 -1
    outer loop
      vertex 0.82128 -5.18536 0
      vertex 3.09017 -9.51056 0
      vertex 1.04528 -9.94522 0
    endloop
  endfacet
  facet normal 0 0 -1
    outer loop
      vertex 3.09017 -9.51056 0
      vertex 0.82128 -5.18536 0
      vertex 1.62234 -4.99305 0
    endloop
  endfacet
  facet normal 0 0 -1
    outer loop
      vertex 1.04528 -9.94522 0
      vertex 0 -5.25 0
      vertex 0.82128 -5.18536 0
    endloop
  endfacet
  facet normal 0 0 -1
    outer loop
      vertex -1.04528 -9.94522 0
      vertex 0 -5.25 0
      vertex 1.04528 -9.94522 0
    endloop
  endfacet
  facet normal -0 0 -1
    outer loop
      vertex 0 -5.25 0
      vertex -1.04528 -9.94522 0
      vertex -0.82128 -5.18536 0
    endloop
  endfacet
  facet normal 0 0 -1
    outer loop
      vertex -3.09017 -9.51056 0
      vertex -0.82128 -5.18536 0
      vertex -1.04528 -9.94522 0
    endloop
  endfacet
  facet normal -0 0 -1
    outer loop
      vertex -0.82128 -5.18536 0
      vertex -3.09017 -9.51056 0
      vertex -1.62234 -4.99305 0
    endloop
  endfacet
  facet normal -0 0 -1
    outer loop
      vertex -1.62234 -4.99305 0
      vertex -3.09017 -9.51056 0
      vertex -2.38345 -4.67778 0
    endloop
  endfacet
  facet normal 0 0 -1
    outer loop
      vertex -5 -8.66025 0
      vertex -2.38345 -4.67778 0
      vertex -3.09017 -9.51056 0
    endloop
  endfacet
  facet normal -0 0 -1
    outer loop
      vertex -2.38345 -4.67778 0
      vertex -5 -8.66025 0
      vertex -3.08587 -4.24734 0
    endloop
  endfacet
  facet normal 0 0 -1
    outer loop
      vertex -6.69131 -7.43145 0
      vertex -3.08587 -4.24734 0
      vertex -5 -8.66025 0
    endloop
  endfacet
  facet normal -0 0 -1
    outer loop
      vertex -3.08587 -4.24734 0
      vertex -6.69131 -7.43145 0
      vertex -3.71231 -3.71231 0
    endloop
  endfacet
  facet normal 0 0 -1
    outer loop
      vertex -8.09017 -5.87785 0
      vertex -3.71231 -3.71231 0
      vertex -6.69131 -7.43145 0
    endloop
  endfacet
  facet normal -0 0 -1
    outer loop
      vertex -3.71231 -3.71231 0
      vertex -8.09017 -5.87785 0
      vertex -4.24734 -3.08587 0
    endloop
  endfacet
  facet normal -0 0 -1
    outer loop
      vertex -4.24734 -3.08587 0
      vertex -8.09017 -5.87785 0
      vertex -4.67778 -2.38345 0
    endloop
  endfacet
  facet normal 0 0 -1
    outer loop
      vertex -9.13545 -4.06737 0
      vertex -4.67778 -2.38345 0
      vertex -8.09017 -5.87785 0
    endloop
  endfacet
  facet normal -0 0 -1
    outer loop
      vertex -4.67778 -2.38345 0
      vertex -9.13545 -4.06737 0
      vertex -4.99305 -1.62234 0
    endloop
  endfacet
  facet normal 0 0 -1
    outer loop
      vertex 4.67778 2.38345 0
      vertex 9.13545 4.06737 0
      vertex 4.99305 1.62234 0
    endloop
  endfacet
  facet normal -0 0 -1
    outer loop
      vertex 9.13545 4.06737 0
      vertex 4.67778 2.38345 0
      vertex 8.09017 5.87785 0
    endloop
  endfacet
  facet normal 0 0 -1
    outer loop
      vertex 4.24734 3.08587 0
      vertex 8.09017 5.87785 0
      vertex 4.67778 2.38345 0
    endloop
  endfacet
  facet normal 0 0 -1
    outer loop
      vertex 3.71231 3.71231 0
      vertex 8.09017 5.87785 0
      vertex 4.24734 3.08587 0
    endloop
  endfacet
  facet normal -0 0 -1
    outer loop
      vertex 8.09017 5.87785 0
      vertex 3.71231 3.71231 0
      vertex 6.69131 7.43145 0
    endloop
  endfacet
  facet normal 0 0 -1
    outer loop
      vertex 3.08587 4.24734 0
      vertex 6.69131 7.43145 0
      vertex 3.71231 3.71231 0
    endloop
  endfacet
  facet normal -0 0 -1
    outer loop
      vertex 6.69131 7.43145 0
      vertex 3.08587 4.24734 0
      vertex 5 8.66025 0
    endloop
  endfacet
  facet normal 0 0 -1
    outer loop
      vertex 2.38345 4.67778 0
      vertex 5 8.66025 0
      vertex 3.08587 4.24734 0
    endloop
  endfacet
  facet normal -0 0 -1
    outer loop
      vertex 5 8.66025 0
      vertex 2.38345 4.67778 0
      vertex 3.09017 9.51056 0
    endloop
  endfacet
  facet normal 0 0 -1
    outer loop
      vertex 1.62234 4.99305 0
      vertex 3.09017 9.51056 0
      vertex 2.38345 4.67778 0
    endloop
  endfacet
  facet normal 0 0 -1
    outer loop
      vertex 0.82128 5.18536 0
      vertex 3.09017 9.51056 0
      vertex 1.62234 4.99305 0
    endloop
  endfacet
  facet normal -0 0 -1
    outer loop
      vertex 3.09017 9.51056 0
      vertex 0.82128 5.18536 0
      vertex 1.04528 9.94522 0
    endloop
  endfacet
  facet normal 0 0 -1
    outer loop
      vertex 0 5.25 0
      vertex 1.04528 9.94522 0
      vertex 0.82128 5.18536 0
    endloop
  endfacet
  facet normal 0 0 -1
    outer loop
      vertex -1.04528 9.94522 0
      vertex 0 5.25 0
      vertex -0.82128 5.18536 0
    endloop
  endfacet
  facet normal 0 0 -1
    outer loop
      vertex 0 5.25 0
      vertex -1.04528 9.94522 0
      vertex 1.04528 9.94522 0
    endloop
  endfacet
  facet normal 0 0 -1
    outer loop
      vertex -3.09017 9.51056 0
      vertex -0.82128 5.18536 0
      vertex -1.62234 4.99305 0
    endloop
  endfacet
  facet normal 0 0 -1
    outer loop
      vertex -3.09017 9.51056 0
      vertex -1.62234 4.99305 0
      vertex -2.38345 4.67778 0
    endloop
  endfacet
  facet normal 0 0 -1
    outer loop
      vertex -5 8.66025 0
      vertex -2.38345 4.67778 0
      vertex -3.08587 4.24734 0
    endloop
  endfacet
  facet normal 0 0 -1
    outer loop
      vertex -0.82128 5.18536 0
      vertex -3.09017 9.51056 0
      vertex -1.04528 9.94522 0
    endloop
  endfacet
  facet normal 0 0 -1
    outer loop
      vertex -6.69131 7.43145 0
      vertex -3.08587 4.24734 0
      vertex -3.71231 3.71231 0
    endloop
  endfacet
  facet normal 0 0 -1
    outer loop
      vertex -8.09017 5.87785 0
      vertex -3.71231 3.71231 0
      vertex -4.24734 3.08587 0
    endloop
  endfacet
  facet normal 0 0 -1
    outer loop
      vertex -8.09017 5.87785 0
      vertex -4.24734 3.08587 0
      vertex -4.67778 2.38345 0
    endloop
  endfacet
  facet normal 0 0 -1
    outer loop
      vertex -9.13545 4.06737 0
      vertex -4.67778 2.38345 0
      vertex -4.99305 1.62234 0
    endloop
  endfacet
  facet normal 0 0 -1
    outer loop
      vertex -2.38345 4.67778 0
      vertex -5 8.66025 0
      vertex -3.09017 9.51056 0
    endloop
  endfacet
  facet normal 0 0 -1
    outer loop
      vertex -9.78148 2.07912 0
      vertex -4.99305 1.62234 0
      vertex -5.18536 0.82128 0
    endloop
  endfacet
  facet normal 0 0 -1
    outer loop
      vertex -10 0 0
      vertex -5.18536 0.82128 0
      vertex -5.25 0 0
    endloop
  endfacet
  facet normal 0 0 -1
    outer loop
      vertex -9.78148 -2.07912 0
      vertex -4.99305 -1.62234 0
      vertex -9.13545 -4.06737 0
    endloop
  endfacet
  facet normal 0 0 -1
    outer loop
      vertex -3.08587 4.24734 0
      vertex -6.69131 7.43145 0
      vertex -5 8.66025 0
    endloop
  endfacet
  facet normal -0 0 -1
    outer loop
      vertex -4.99305 -1.62234 0
      vertex -9.78148 -2.07912 0
      vertex -5.18536 -0.82128 0
    endloop
  endfacet
  facet normal 0 0 -1
    outer loop
      vertex -3.71231 3.71231 0
      vertex -8.09017 5.87785 0
      vertex -6.69131 7.43145 0
    endloop
  endfacet
  facet normal 0 0 -1
    outer loop
      vertex -10 0 0
      vertex -5.18536 -0.82128 0
      vertex -9.78148 -2.07912 0
    endloop
  endfacet
  facet normal 0 0 -1
    outer loop
      vertex -4.67778 2.38345 0
      vertex -9.13545 4.06737 0
      vertex -8.09017 5.87785 0
    endloop
  endfacet
  facet normal 0 0 -1
    outer loop
      vertex -5.18536 -0.82128 0
      vertex -10 0 0
      vertex -5.25 0 0
    endloop
  endfacet
  facet normal 0 0 -1
    outer loop
      vertex -4.99305 1.62234 0
      vertex -9.78148 2.07912 0
      vertex -9.13545 4.06737 0
    endloop
  endfacet
  facet normal -0 0 -1
    outer loop
      vertex -5.18536 0.82128 0
      vertex -10 0 0
      vertex -9.78148 2.07912 0
    endloop
  endfacet
  facet normal -0.951055 -0.309021 0
    outer loop
      vertex -9.13545 -4.06737 0
      vertex -9.78148 -2.07912 20
      vertex -9.78148 -2.07912 0
    endloop
  endfacet
  facet normal -0.951055 -0.309021 0
    outer loop
      vertex -9.78148 -2.07912 20
      vertex -9.13545 -4.06737 0
      vertex -9.13545 -4.06737 20
    endloop
  endfacet
  facet normal -0.743147 -0.669129 0
    outer loop
      vertex -6.69131 -7.43145 0
      vertex -8.09017 -5.87785 20
      vertex -8.09017 -5.87785 0
    endloop
  endfacet
  facet normal -0.743147 -0.669129 0
    outer loop
      vertex -8.09017 -5.87785 20
      vertex -6.69131 -7.43145 0
      vertex -6.69131 -7.43145 20
    endloop
  endfacet
  facet normal 0.743147 -0.669129 0
    outer loop
      vertex 6.69131 -7.43145 20
      vertex 8.09017 -5.87785 0
      vertex 8.09017 -5.87785 20
    endloop
  endfacet
  facet normal 0.743147 -0.669129 0
    outer loop
      vertex 8.09017 -5.87785 0
      vertex 6.69131 -7.43145 20
      vertex 6.69131 -7.43145 0
    endloop
  endfacet
  facet normal -0.406736 -0.913546 0
    outer loop
      vertex -5 -8.66025 0
      vertex -3.09017 -9.51056 20
      vertex -5 -8.66025 20
    endloop
  endfacet
  facet normal -0.406736 -0.913546 -0
    outer loop
      vertex -3.09017 -9.51056 20
      vertex -5 -8.66025 0
      vertex -3.09017 -9.51056 0
    endloop
  endfacet
  facet normal -0.587783 -0.809019 0
    outer loop
      vertex -6.69131 -7.43145 0
      vertex -5 -8.66025 20
      vertex -6.69131 -7.43145 20
    endloop
  endfacet
  facet normal -0.587783 -0.809019 -0
    outer loop
      vertex -5 -8.66025 20
      vertex -6.69131 -7.43145 0
      vertex -5 -8.66025 0
    endloop
  endfacet
  facet normal -0.649448 -0.760406 0
    outer loop
      vertex 3.08587 4.24734 0
      vertex 3.71231 3.71231 20
      vertex 3.08587 4.24734 20
    endloop
  endfacet
  facet normal -0.649448 -0.760406 -0
    outer loop
      vertex 3.71231 3.71231 20
      vertex 3.08587 4.24734 0
      vertex 3.71231 3.71231 0
    endloop
  endfacet
  facet normal -0.972372 0.233437 0
    outer loop
      vertex 4.99305 -1.62234 0
      vertex 5.18536 -0.82128 20
      vertex 5.18536 -0.82128 0
    endloop
  endfacet
  facet normal -0.972372 0.233437 0
    outer loop
      vertex 5.18536 -0.82128 20
      vertex 4.99305 -1.62234 0
      vertex 4.99305 -1.62234 20
    endloop
  endfacet
  facet normal 0.382692 -0.923876 0
    outer loop
      vertex -2.38345 4.67778 0
      vertex -1.62234 4.99305 20
      vertex -2.38345 4.67778 20
    endloop
  endfacet
  facet normal 0.382692 -0.923876 0
    outer loop
      vertex -1.62234 4.99305 20
      vertex -2.38345 4.67778 0
      vertex -1.62234 4.99305 0
    endloop
  endfacet
  facet normal 0.852642 -0.522495 0
    outer loop
      vertex -4.67778 2.38345 20
      vertex -4.24734 3.08587 0
      vertex -4.24734 3.08587 20
    endloop
  endfacet
  facet normal 0.852642 -0.522495 0
    outer loop
      vertex -4.24734 3.08587 0
      vertex -4.67778 2.38345 20
      vertex -4.67778 2.38345 0
    endloop
  endfacet
  facet normal -0.996917 0.0784638 0
    outer loop
      vertex 5.18536 -0.82128 0
      vertex 5.25 0 20
      vertex 5.25 0 0
    endloop
  endfacet
  facet normal -0.996917 0.0784638 0
    outer loop
      vertex 5.25 0 20
      vertex 5.18536 -0.82128 0
      vertex 5.18536 -0.82128 20
    endloop
  endfacet
  facet normal -0.923876 -0.382692 0
    outer loop
      vertex 4.99305 1.62234 0
      vertex 4.67778 2.38345 20
      vertex 4.67778 2.38345 0
    endloop
  endfacet
  facet normal -0.923876 -0.382692 0
    outer loop
      vertex 4.67778 2.38345 20
      vertex 4.99305 1.62234 0
      vertex 4.99305 1.62234 20
    endloop
  endfacet
  facet normal -0.852642 -0.522495 0
    outer loop
      vertex 4.67778 2.38345 0
      vertex 4.24734 3.08587 20
      vertex 4.24734 3.08587 0
    endloop
  endfacet
  facet normal -0.852642 -0.522495 0
    outer loop
      vertex 4.24734 3.08587 20
      vertex 4.67778 2.38345 0
      vertex 4.67778 2.38345 20
    endloop
  endfacet
  facet normal -0.760406 -0.649448 0
    outer loop
      vertex 4.24734 3.08587 0
      vertex 3.71231 3.71231 20
      vertex 3.71231 3.71231 0
    endloop
  endfacet
  facet normal -0.760406 -0.649448 0
    outer loop
      vertex 3.71231 3.71231 20
      vertex 4.24734 3.08587 0
      vertex 4.24734 3.08587 20
    endloop
  endfacet
  facet normal -0.522495 -0.852642 0
    outer loop
      vertex 2.38345 4.67778 0
      vertex 3.08587 4.24734 20
      vertex 2.38345 4.67778 20
    endloop
  endfacet
  facet normal -0.522495 -0.852642 -0
    outer loop
      vertex 3.08587 4.24734 20
      vertex 2.38345 4.67778 0
      vertex 3.08587 4.24734 0
    endloop
  endfacet
  facet normal -0.0784638 -0.996917 0
    outer loop
      vertex 0 5.25 0
      vertex 0.82128 5.18536 20
      vertex 0 5.25 20
    endloop
  endfacet
  facet normal -0.0784638 -0.996917 -0
    outer loop
      vertex 0.82128 5.18536 20
      vertex 0 5.25 0
      vertex 0.82128 5.18536 0
    endloop
  endfacet
  facet normal 0.996917 -0.0784638 0
    outer loop
      vertex -5.25 0 20
      vertex -5.18536 0.82128 0
      vertex -5.18536 0.82128 20
    endloop
  endfacet
  facet normal 0.996917 -0.0784638 0
    outer loop
      vertex -5.18536 0.82128 0
      vertex -5.25 0 20
      vertex -5.25 0 0
    endloop
  endfacet
  facet normal 0.760406 -0.649448 0
    outer loop
      vertex -4.24734 3.08587 20
      vertex -3.71231 3.71231 0
      vertex -3.71231 3.71231 20
    endloop
  endfacet
  facet normal 0.760406 -0.649448 0
    outer loop
      vertex -3.71231 3.71231 0
      vertex -4.24734 3.08587 20
      vertex -4.24734 3.08587 0
    endloop
  endfacet
  facet normal 0.522495 -0.852642 0
    outer loop
      vertex -3.08587 4.24734 0
      vertex -2.38345 4.67778 20
      vertex -3.08587 4.24734 20
    endloop
  endfacet
  facet normal 0.522495 -0.852642 0
    outer loop
      vertex -2.38345 4.67778 20
      vertex -3.08587 4.24734 0
      vertex -2.38345 4.67778 0
    endloop
  endfacet
  facet normal 0.0784638 -0.996917 0
    outer loop
      vertex -0.82128 5.18536 0
      vertex 0 5.25 20
      vertex -0.82128 5.18536 20
    endloop
  endfacet
  facet normal 0.0784638 -0.996917 0
    outer loop
      vertex 0 5.25 20
      vertex -0.82128 5.18536 0
      vertex 0 5.25 0
    endloop
  endfacet
  facet normal 0.649448 -0.760406 0
    outer loop
      vertex -3.71231 3.71231 0
      vertex -3.08587 4.24734 20
      vertex -3.71231 3.71231 20
    endloop
  endfacet
  facet normal 0.649448 -0.760406 0
    outer loop
      vertex -3.08587 4.24734 20
      vertex -3.71231 3.71231 0
      vertex -3.08587 4.24734 0
    endloop
  endfacet
  facet normal -0.0784736 0.996916 0
    outer loop
      vertex 0.82128 -5.18536 0
      vertex 0.540779 -5.20744 3.33565
      vertex 0.82128 -5.18536 3.53945
    endloop
  endfacet
  facet normal -0.0784638 0.996917 8.28887e-07
    outer loop
      vertex 0 -5.25 0
      vertex 0.540779 -5.20744 3.33565
      vertex 0.82128 -5.18536 0
    endloop
  endfacet
  facet normal -0.0784587 0.996917 0
    outer loop
      vertex 0.540779 -5.20744 3.33565
      vertex 0 -5.25 0
      vertex 0 -5.25 3.33565
    endloop
  endfacet
  facet normal -0.0784638 0.996917 -8.28874e-07
    outer loop
      vertex 0.82128 -5.18536 20
      vertex 0.540779 -5.20744 16.6643
      vertex 0 -5.25 20
    endloop
  endfacet
  facet normal -0.0784736 0.996916 0
    outer loop
      vertex 0.540779 -5.20744 16.6643
      vertex 0.82128 -5.18536 20
      vertex 0.82128 -5.18536 16.4606
    endloop
  endfacet
  facet normal -0.0784587 0.996917 0
    outer loop
      vertex 0 -5.25 20
      vertex 0.540779 -5.20744 16.6643
      vertex 0 -5.25 16.6643
    endloop
  endfacet
  facet normal -0.0784587 0.996917 0
    outer loop
      vertex 0.540779 -5.20744 13.3357
      vertex 0.540779 -5.20744 6.66435
      vertex 0 -5.25 13.3357
    endloop
  endfacet
  facet normal -0.0784736 0.996916 0
    outer loop
      vertex 0.82128 -5.18536 13.5394
      vertex 0.540779 -5.20744 6.66435
      vertex 0.540779 -5.20744 13.3357
    endloop
  endfacet
  facet normal -0.0784736 0.996916 0
    outer loop
      vertex 0.540779 -5.20744 6.66435
      vertex 0.82128 -5.18536 13.5394
      vertex 0.82128 -5.18536 6.46055
    endloop
  endfacet
  facet normal -0.0784587 0.996917 0
    outer loop
      vertex 0 -5.25 13.3357
      vertex 0.540779 -5.20744 6.66435
      vertex 0 -5.25 6.66435
    endloop
  endfacet
  facet normal -0.760406 0.649448 0
    outer loop
      vertex 3.71231 -3.71231 0
      vertex 4.24734 -3.08587 20
      vertex 4.24734 -3.08587 0
    endloop
  endfacet
  facet normal -0.760406 0.649448 0
    outer loop
      vertex 4.24734 -3.08587 20
      vertex 3.71231 -3.71231 0
      vertex 3.71231 -3.71231 20
    endloop
  endfacet
  facet normal -0.923876 0.382692 0
    outer loop
      vertex 4.67778 -2.38345 0
      vertex 4.99305 -1.62234 20
      vertex 4.99305 -1.62234 0
    endloop
  endfacet
  facet normal -0.923876 0.382692 0
    outer loop
      vertex 4.99305 -1.62234 20
      vertex 4.67778 -2.38345 0
      vertex 4.67778 -2.38345 20
    endloop
  endfacet
  facet normal -0.382692 0.923876 0
    outer loop
      vertex 2.38345 -4.67778 20
      vertex 1.62234 -4.99305 15.3929
      vertex 1.62234 -4.99305 20
    endloop
  endfacet
  facet normal -0.382692 0.923876 1.33919e-07
    outer loop
      vertex 2.38345 -4.67778 20
      vertex 1.75 -4.94017 15
      vertex 1.62234 -4.99305 15.3929
    endloop
  endfacet
  facet normal -0.382693 0.923876 0
    outer loop
      vertex 1.75 -4.94017 15
      vertex 1.62234 -4.99305 5.3929
      vertex 1.62234 -4.99305 14.6071
    endloop
  endfacet
  facet normal -0.382691 0.923876 0
    outer loop
      vertex 1.75 -4.94017 5
      vertex 1.75 -4.94017 15
      vertex 2.38345 -4.67778 20
    endloop
  endfacet
  facet normal -0.382693 0.923876 0
    outer loop
      vertex 1.75 -4.94017 15
      vertex 1.75 -4.94017 5
      vertex 1.62234 -4.99305 5.3929
    endloop
  endfacet
  facet normal -0.382691 0.923876 0
    outer loop
      vertex 2.38345 -4.67778 0
      vertex 1.75 -4.94017 5
      vertex 2.38345 -4.67778 20
    endloop
  endfacet
  facet normal -0.382692 0.923876 -1.33919e-07
    outer loop
      vertex 2.38345 -4.67778 0
      vertex 1.62234 -4.99305 4.6071
      vertex 1.75 -4.94017 5
    endloop
  endfacet
  facet normal -0.382692 0.923876 0
    outer loop
      vertex 1.62234 -4.99305 4.6071
      vertex 2.38345 -4.67778 0
      vertex 1.62234 -4.99305 0
    endloop
  endfacet
  facet normal -0.522495 0.852642 0
    outer loop
      vertex 3.08587 -4.24734 0
      vertex 2.38345 -4.67778 20
      vertex 3.08587 -4.24734 20
    endloop
  endfacet
  facet normal -0.522495 0.852642 0
    outer loop
      vertex 2.38345 -4.67778 20
      vertex 3.08587 -4.24734 0
      vertex 2.38345 -4.67778 0
    endloop
  endfacet
  facet normal 0.0784587 0.996917 0
    outer loop
      vertex 0 -5.25 3.33565
      vertex 0 -5.25 0
      vertex -0.540779 -5.20744 3.33565
    endloop
  endfacet
  facet normal 0.0784638 0.996917 8.28887e-07
    outer loop
      vertex -0.82128 -5.18536 0
      vertex -0.540779 -5.20744 3.33565
      vertex 0 -5.25 0
    endloop
  endfacet
  facet normal 0.0784736 0.996916 0
    outer loop
      vertex -0.540779 -5.20744 3.33565
      vertex -0.82128 -5.18536 0
      vertex -0.82128 -5.18536 3.53945
    endloop
  endfacet
  facet normal 0.0784587 0.996917 0
    outer loop
      vertex -0.540779 -5.20744 16.6643
      vertex 0 -5.25 20
      vertex 0 -5.25 16.6643
    endloop
  endfacet
  facet normal 0.0784638 0.996917 -8.28874e-07
    outer loop
      vertex 0 -5.25 20
      vertex -0.540779 -5.20744 16.6643
      vertex -0.82128 -5.18536 20
    endloop
  endfacet
  facet normal 0.0784736 0.996916 0
    outer loop
      vertex -0.82128 -5.18536 20
      vertex -0.540779 -5.20744 16.6643
      vertex -0.82128 -5.18536 16.4606
    endloop
  endfacet
  facet normal 0.0784587 0.996917 0
    outer loop
      vertex 0 -5.25 13.3357
      vertex 0 -5.25 6.66435
      vertex -0.540779 -5.20744 13.3357
    endloop
  endfacet
  facet normal 0.0784587 0.996917 -0
    outer loop
      vertex -0.540779 -5.20744 6.66435
      vertex -0.540779 -5.20744 13.3357
      vertex 0 -5.25 6.66435
    endloop
  endfacet
  facet normal 0.0784736 0.996916 0
    outer loop
      vertex -0.540779 -5.20744 13.3357
      vertex -0.540779 -5.20744 6.66435
      vertex -0.82128 -5.18536 13.5394
    endloop
  endfacet
  facet normal 0.0784736 0.996916 0
    outer loop
      vertex -0.82128 -5.18536 13.5394
      vertex -0.540779 -5.20744 6.66435
      vertex -0.82128 -5.18536 6.46055
    endloop
  endfacet
  facet normal 0.649448 0.760406 -0
    outer loop
      vertex -3.08587 -4.24734 0
      vertex -3.71231 -3.71231 20
      vertex -3.08587 -4.24734 20
    endloop
  endfacet
  facet normal 0.649448 0.760406 0
    outer loop
      vertex -3.71231 -3.71231 20
      vertex -3.08587 -4.24734 0
      vertex -3.71231 -3.71231 0
    endloop
  endfacet
  facet normal 0.852642 0.522495 0
    outer loop
      vertex -4.24734 -3.08587 20
      vertex -4.67778 -2.38345 0
      vertex -4.67778 -2.38345 20
    endloop
  endfacet
  facet normal 0.852642 0.522495 0
    outer loop
      vertex -4.67778 -2.38345 0
      vertex -4.24734 -3.08587 20
      vertex -4.24734 -3.08587 0
    endloop
  endfacet
  facet normal 0.996917 0.0784638 0
    outer loop
      vertex -5.18536 -0.82128 20
      vertex -5.25 0 0
      vertex -5.25 0 20
    endloop
  endfacet
  facet normal 0.996917 0.0784638 0
    outer loop
      vertex -5.25 0 0
      vertex -5.18536 -0.82128 20
      vertex -5.18536 -0.82128 0
    endloop
  endfacet
  facet normal 0.760406 0.649448 0
    outer loop
      vertex -3.71231 -3.71231 20
      vertex -4.24734 -3.08587 0
      vertex -4.24734 -3.08587 20
    endloop
  endfacet
  facet normal 0.760406 0.649448 0
    outer loop
      vertex -4.24734 -3.08587 0
      vertex -3.71231 -3.71231 20
      vertex -3.71231 -3.71231 0
    endloop
  endfacet
  facet normal -0.972372 -0.233437 0
    outer loop
      vertex 5.18536 0.82128 0
      vertex 4.99305 1.62234 20
      vertex 4.99305 1.62234 0
    endloop
  endfacet
  facet normal -0.972372 -0.233437 0
    outer loop
      vertex 4.99305 1.62234 20
      vertex 5.18536 0.82128 0
      vertex 5.18536 0.82128 20
    endloop
  endfacet
  facet normal -0.382692 -0.923876 0
    outer loop
      vertex 1.62234 4.99305 0
      vertex 2.38345 4.67778 20
      vertex 1.62234 4.99305 20
    endloop
  endfacet
  facet normal -0.382692 -0.923876 -0
    outer loop
      vertex 2.38345 4.67778 20
      vertex 1.62234 4.99305 0
      vertex 2.38345 4.67778 0
    endloop
  endfacet
  facet normal -0.233437 -0.972372 0
    outer loop
      vertex 0.82128 5.18536 0
      vertex 1.62234 4.99305 20
      vertex 0.82128 5.18536 20
    endloop
  endfacet
  facet normal -0.233437 -0.972372 -0
    outer loop
      vertex 1.62234 4.99305 20
      vertex 0.82128 5.18536 0
      vertex 1.62234 4.99305 0
    endloop
  endfacet
  facet normal 0.923876 -0.382692 0
    outer loop
      vertex -4.99305 1.62234 20
      vertex -4.67778 2.38345 0
      vertex -4.67778 2.38345 20
    endloop
  endfacet
  facet normal 0.923876 -0.382692 0
    outer loop
      vertex -4.67778 2.38345 0
      vertex -4.99305 1.62234 20
      vertex -4.99305 1.62234 0
    endloop
  endfacet
  facet normal 0.972372 -0.233437 0
    outer loop
      vertex -5.18536 0.82128 20
      vertex -4.99305 1.62234 0
      vertex -4.99305 1.62234 20
    endloop
  endfacet
  facet normal 0.972372 -0.233437 0
    outer loop
      vertex -4.99305 1.62234 0
      vertex -5.18536 0.82128 20
      vertex -5.18536 0.82128 0
    endloop
  endfacet
  facet normal 0.233437 -0.972372 0
    outer loop
      vertex -1.62234 4.99305 0
      vertex -0.82128 5.18536 20
      vertex -1.62234 4.99305 20
    endloop
  endfacet
  facet normal 0.233437 -0.972372 0
    outer loop
      vertex -0.82128 5.18536 20
      vertex -1.62234 4.99305 0
      vertex -0.82128 5.18536 0
    endloop
  endfacet
  facet normal -0.996917 -0.0784638 0
    outer loop
      vertex 5.25 0 0
      vertex 5.18536 0.82128 20
      vertex 5.18536 0.82128 0
    endloop
  endfacet
  facet normal -0.996917 -0.0784638 0
    outer loop
      vertex 5.18536 0.82128 20
      vertex 5.25 0 0
      vertex 5.25 0 20
    endloop
  endfacet
  facet normal -0.233442 0.972371 0
    outer loop
      vertex 1.62234 -4.99305 0
      vertex 1.41578 -5.04264 3.97138
      vertex 1.62234 -4.99305 4.6071
    endloop
  endfacet
  facet normal -0.233435 0.972372 4.01536e-07
    outer loop
      vertex 1.62234 -4.99305 0
      vertex 0.82128 -5.18536 3.53945
      vertex 1.41578 -5.04264 3.97138
    endloop
  endfacet
  facet normal -0.233437 0.972372 0
    outer loop
      vertex 0.82128 -5.18536 3.53945
      vertex 1.62234 -4.99305 0
      vertex 0.82128 -5.18536 0
    endloop
  endfacet
  facet normal -0.233437 0.972372 0
    outer loop
      vertex 1.62234 -4.99305 20
      vertex 0.82128 -5.18536 16.4606
      vertex 0.82128 -5.18536 20
    endloop
  endfacet
  facet normal -0.233435 0.972372 -4.01532e-07
    outer loop
      vertex 1.62234 -4.99305 20
      vertex 1.41578 -5.04264 16.0286
      vertex 0.82128 -5.18536 16.4606
    endloop
  endfacet
  facet normal -0.233442 0.972371 0
    outer loop
      vertex 1.41578 -5.04264 16.0286
      vertex 1.62234 -4.99305 20
      vertex 1.62234 -4.99305 15.3929
    endloop
  endfacet
  facet normal -0.233435 0.972372 0
    outer loop
      vertex 1.41578 -5.04264 13.9714
      vertex 0.82128 -5.18536 6.46055
      vertex 0.82128 -5.18536 13.5394
    endloop
  endfacet
  facet normal -0.233442 0.972371 0
    outer loop
      vertex 1.41578 -5.04264 6.02862
      vertex 1.41578 -5.04264 13.9714
      vertex 1.62234 -4.99305 14.6071
    endloop
  endfacet
  facet normal -0.233435 0.972372 0
    outer loop
      vertex 1.41578 -5.04264 13.9714
      vertex 1.41578 -5.04264 6.02862
      vertex 0.82128 -5.18536 6.46055
    endloop
  endfacet
  facet normal -0.233442 0.972371 0
    outer loop
      vertex 1.41578 -5.04264 6.02862
      vertex 1.62234 -4.99305 14.6071
      vertex 1.62234 -4.99305 5.3929
    endloop
  endfacet
  facet normal -0.649448 0.760406 0
    outer loop
      vertex 3.71231 -3.71231 0
      vertex 3.08587 -4.24734 20
      vertex 3.71231 -3.71231 20
    endloop
  endfacet
  facet normal -0.649448 0.760406 0
    outer loop
      vertex 3.08587 -4.24734 20
      vertex 3.71231 -3.71231 0
      vertex 3.08587 -4.24734 0
    endloop
  endfacet
  facet normal 0.382692 0.923876 -0
    outer loop
      vertex -1.62234 -4.99305 15.3929
      vertex -2.38345 -4.67778 20
      vertex -1.62234 -4.99305 20
    endloop
  endfacet
  facet normal 0.382692 0.923876 1.33919e-07
    outer loop
      vertex -1.75 -4.94017 15
      vertex -2.38345 -4.67778 20
      vertex -1.62234 -4.99305 15.3929
    endloop
  endfacet
  facet normal 0.382693 0.923876 -0
    outer loop
      vertex -1.62234 -4.99305 5.3929
      vertex -1.75 -4.94017 15
      vertex -1.62234 -4.99305 14.6071
    endloop
  endfacet
  facet normal 0.382693 0.923876 -0
    outer loop
      vertex -1.75 -4.94017 5
      vertex -1.75 -4.94017 15
      vertex -1.62234 -4.99305 5.3929
    endloop
  endfacet
  facet normal 0.382691 0.923876 0
    outer loop
      vertex -1.75 -4.94017 15
      vertex -1.75 -4.94017 5
      vertex -2.38345 -4.67778 20
    endloop
  endfacet
  facet normal 0.382692 0.923876 0
    outer loop
      vertex -2.38345 -4.67778 0
      vertex -1.62234 -4.99305 4.6071
      vertex -1.62234 -4.99305 0
    endloop
  endfacet
  facet normal 0.382692 0.923876 -1.33919e-07
    outer loop
      vertex -1.62234 -4.99305 4.6071
      vertex -2.38345 -4.67778 0
      vertex -1.75 -4.94017 5
    endloop
  endfacet
  facet normal 0.382691 0.923876 0
    outer loop
      vertex -1.75 -4.94017 5
      vertex -2.38345 -4.67778 0
      vertex -2.38345 -4.67778 20
    endloop
  endfacet
  facet normal 0.522495 0.852642 -0
    outer loop
      vertex -2.38345 -4.67778 0
      vertex -3.08587 -4.24734 20
      vertex -2.38345 -4.67778 20
    endloop
  endfacet
  facet normal 0.522495 0.852642 0
    outer loop
      vertex -3.08587 -4.24734 20
      vertex -2.38345 -4.67778 0
      vertex -3.08587 -4.24734 0
    endloop
  endfacet
  facet normal 0.972372 0.233437 0
    outer loop
      vertex -4.99305 -1.62234 20
      vertex -5.18536 -0.82128 0
      vertex -5.18536 -0.82128 20
    endloop
  endfacet
  facet normal 0.972372 0.233437 0
    outer loop
      vertex -5.18536 -0.82128 0
      vertex -4.99305 -1.62234 20
      vertex -4.99305 -1.62234 0
    endloop
  endfacet
  facet normal -0.852642 0.522495 0
    outer loop
      vertex 4.24734 -3.08587 0
      vertex 4.67778 -2.38345 20
      vertex 4.67778 -2.38345 0
    endloop
  endfacet
  facet normal -0.852642 0.522495 0
    outer loop
      vertex 4.67778 -2.38345 20
      vertex 4.24734 -3.08587 0
      vertex 4.24734 -3.08587 20
    endloop
  endfacet
  facet normal 0.233437 0.972372 0
    outer loop
      vertex -1.62234 -4.99305 0
      vertex -0.82128 -5.18536 3.53945
      vertex -0.82128 -5.18536 0
    endloop
  endfacet
  facet normal 0.233435 0.972372 4.01536e-07
    outer loop
      vertex -0.82128 -5.18536 3.53945
      vertex -1.62234 -4.99305 0
      vertex -1.41578 -5.04264 3.97138
    endloop
  endfacet
  facet normal 0.233442 0.972371 0
    outer loop
      vertex -1.41578 -5.04264 3.97138
      vertex -1.62234 -4.99305 0
      vertex -1.62234 -4.99305 4.6071
    endloop
  endfacet
  facet normal 0.233437 0.972372 -0
    outer loop
      vertex -0.82128 -5.18536 16.4606
      vertex -1.62234 -4.99305 20
      vertex -0.82128 -5.18536 20
    endloop
  endfacet
  facet normal 0.233435 0.972372 -4.01532e-07
    outer loop
      vertex -1.41578 -5.04264 16.0286
      vertex -1.62234 -4.99305 20
      vertex -0.82128 -5.18536 16.4606
    endloop
  endfacet
  facet normal 0.233442 0.972371 0
    outer loop
      vertex -1.62234 -4.99305 20
      vertex -1.41578 -5.04264 16.0286
      vertex -1.62234 -4.99305 15.3929
    endloop
  endfacet
  facet normal 0.233435 0.972372 -0
    outer loop
      vertex -0.82128 -5.18536 6.46055
      vertex -1.41578 -5.04264 13.9714
      vertex -0.82128 -5.18536 13.5394
    endloop
  endfacet
  facet normal 0.233435 0.972372 -0
    outer loop
      vertex -1.41578 -5.04264 6.02862
      vertex -1.41578 -5.04264 13.9714
      vertex -0.82128 -5.18536 6.46055
    endloop
  endfacet
  facet normal 0.233442 0.972371 0
    outer loop
      vertex -1.41578 -5.04264 13.9714
      vertex -1.41578 -5.04264 6.02862
      vertex -1.62234 -4.99305 14.6071
    endloop
  endfacet
  facet normal 0.233442 0.972371 0
    outer loop
      vertex -1.62234 -4.99305 14.6071
      vertex -1.41578 -5.04264 6.02862
      vertex -1.62234 -4.99305 5.3929
    endloop
  endfacet
  facet normal 0.923876 0.382692 0
    outer loop
      vertex -4.67778 -2.38345 20
      vertex -4.99305 -1.62234 0
      vertex -4.99305 -1.62234 20
    endloop
  endfacet
  facet normal 0.923876 0.382692 0
    outer loop
      vertex -4.99305 -1.62234 0
      vertex -4.67778 -2.38345 20
      vertex -4.67778 -2.38345 0
    endloop
  endfacet
  facet normal -0.951057 0 -0.309015
    outer loop
      vertex 1.75 -9.79543 5
      vertex 1.62234 -4.99305 5.3929
      vertex 1.75 -4.94017 5
    endloop
  endfacet
  facet normal -0.951056 4.36084e-07 -0.30902
    outer loop
      vertex 1.75 -9.79543 5
      vertex 1.41578 -5.04264 6.02862
      vertex 1.62234 -4.99305 5.3929
    endloop
  endfacet
  facet normal -0.951056 -0 -0.309018
    outer loop
      vertex 1.41578 -5.04264 6.02862
      vertex 1.75 -9.79543 5
      vertex 1.41578 -9.86647 6.02862
    endloop
  endfacet
  facet normal -0.587794 0.000105802 -0.80901
    outer loop
      vertex 0.540779 -9.94522 6.66435
      vertex 1.41578 -9.86647 6.02862
      vertex 1.04528 -9.94522 6.2978
    endloop
  endfacet
  facet normal -0.587786 0 -0.809017
    outer loop
      vertex 1.41578 -9.86647 6.02862
      vertex 0.82128 -5.18536 6.46055
      vertex 1.41578 -5.04264 6.02862
    endloop
  endfacet
  facet normal -0.587788 0 -0.809015
    outer loop
      vertex 1.41578 -9.86647 6.02862
      vertex 0.540779 -9.94522 6.66435
      vertex 0.540779 -5.20744 6.66435
    endloop
  endfacet
  facet normal -0.587793 -1.40494e-06 -0.809011
    outer loop
      vertex 1.41578 -9.86647 6.02862
      vertex 0.540779 -5.20744 6.66435
      vertex 0.82128 -5.18536 6.46055
    endloop
  endfacet
  facet normal 0 0 -1
    outer loop
      vertex 0.540779 -9.94522 6.66435
      vertex 0 -5.25 6.66435
      vertex 0.540779 -5.20744 6.66435
    endloop
  endfacet
  facet normal 0 0 -1
    outer loop
      vertex -0.540779 -9.94522 6.66435
      vertex 0 -5.25 6.66435
      vertex 0.540779 -9.94522 6.66435
    endloop
  endfacet
  facet normal -0 0 -1
    outer loop
      vertex 0 -5.25 6.66435
      vertex -0.540779 -9.94522 6.66435
      vertex -0.540779 -5.20744 6.66435
    endloop
  endfacet
  facet normal -0.951057 0 0.309015
    outer loop
      vertex 1.62234 -4.99305 4.6071
      vertex 1.75 -9.79543 5
      vertex 1.75 -4.94017 5
    endloop
  endfacet
  facet normal -0.951056 4.36084e-07 0.30902
    outer loop
      vertex 1.41578 -5.04264 3.97138
      vertex 1.75 -9.79543 5
      vertex 1.62234 -4.99305 4.6071
    endloop
  endfacet
  facet normal -0.951056 0 0.309018
    outer loop
      vertex 1.75 -9.79543 5
      vertex 1.41578 -5.04264 3.97138
      vertex 1.41578 -9.86647 3.97138
    endloop
  endfacet
  facet normal -0.587786 0 0.809017
    outer loop
      vertex 0.82128 -5.18536 3.53945
      vertex 1.41578 -9.86647 3.97138
      vertex 1.41578 -5.04264 3.97138
    endloop
  endfacet
  facet normal -0.587793 -1.40494e-06 0.809011
    outer loop
      vertex 0.540779 -5.20744 3.33565
      vertex 1.41578 -9.86647 3.97138
      vertex 0.82128 -5.18536 3.53945
    endloop
  endfacet
  facet normal -0.587788 0 0.809015
    outer loop
      vertex 0.540779 -9.94522 3.33565
      vertex 1.41578 -9.86647 3.97138
      vertex 0.540779 -5.20744 3.33565
    endloop
  endfacet
  facet normal -0.587794 0.000105802 0.80901
    outer loop
      vertex 1.41578 -9.86647 3.97138
      vertex 0.540779 -9.94522 3.33565
      vertex 1.04528 -9.94522 3.7022
    endloop
  endfacet
  facet normal 0.587793 -1.40494e-06 0.809011
    outer loop
      vertex -1.41578 -9.86647 3.97138
      vertex -0.540779 -5.20744 3.33565
      vertex -0.82128 -5.18536 3.53945
    endloop
  endfacet
  facet normal 0.587788 0 0.809015
    outer loop
      vertex -0.540779 -5.20744 3.33565
      vertex -1.41578 -9.86647 3.97138
      vertex -0.540779 -9.94522 3.33565
    endloop
  endfacet
  facet normal 0.587786 -0 0.809017
    outer loop
      vertex -1.41578 -9.86647 3.97138
      vertex -0.82128 -5.18536 3.53945
      vertex -1.41578 -5.04264 3.97138
    endloop
  endfacet
  facet normal 0.587794 0.000105802 0.80901
    outer loop
      vertex -0.540779 -9.94522 3.33565
      vertex -1.41578 -9.86647 3.97138
      vertex -1.04528 -9.94522 3.7022
    endloop
  endfacet
  facet normal 0.951057 -0 0.309015
    outer loop
      vertex -1.75 -9.79543 5
      vertex -1.62234 -4.99305 4.6071
      vertex -1.75 -4.94017 5
    endloop
  endfacet
  facet normal 0.951056 4.36084e-07 0.30902
    outer loop
      vertex -1.75 -9.79543 5
      vertex -1.41578 -5.04264 3.97138
      vertex -1.62234 -4.99305 4.6071
    endloop
  endfacet
  facet normal 0.951056 0 0.309018
    outer loop
      vertex -1.41578 -5.04264 3.97138
      vertex -1.75 -9.79543 5
      vertex -1.41578 -9.86647 3.97138
    endloop
  endfacet
  facet normal -0 0 1
    outer loop
      vertex 0 -5.25 3.33565
      vertex 0.540779 -9.94522 3.33565
      vertex 0.540779 -5.20744 3.33565
    endloop
  endfacet
  facet normal 0 0 1
    outer loop
      vertex -0.540779 -9.94522 3.33565
      vertex 0 -5.25 3.33565
      vertex -0.540779 -5.20744 3.33565
    endloop
  endfacet
  facet normal 0 0 1
    outer loop
      vertex 0 -5.25 3.33565
      vertex -0.540779 -9.94522 3.33565
      vertex 0.540779 -9.94522 3.33565
    endloop
  endfacet
  facet normal 0.587788 0 -0.809015
    outer loop
      vertex -1.41578 -9.86647 6.02862
      vertex -0.540779 -5.20744 6.66435
      vertex -0.540779 -9.94522 6.66435
    endloop
  endfacet
  facet normal 0.587794 0.000105802 -0.80901
    outer loop
      vertex -1.41578 -9.86647 6.02862
      vertex -0.540779 -9.94522 6.66435
      vertex -1.04528 -9.94522 6.2978
    endloop
  endfacet
  facet normal 0.587793 -1.40494e-06 -0.809011
    outer loop
      vertex -0.540779 -5.20744 6.66435
      vertex -1.41578 -9.86647 6.02862
      vertex -0.82128 -5.18536 6.46055
    endloop
  endfacet
  facet normal 0.587786 0 -0.809017
    outer loop
      vertex -0.82128 -5.18536 6.46055
      vertex -1.41578 -9.86647 6.02862
      vertex -1.41578 -5.04264 6.02862
    endloop
  endfacet
  facet normal 0.951057 0 -0.309015
    outer loop
      vertex -1.62234 -4.99305 5.3929
      vertex -1.75 -9.79543 5
      vertex -1.75 -4.94017 5
    endloop
  endfacet
  facet normal 0.951056 4.36084e-07 -0.30902
    outer loop
      vertex -1.41578 -5.04264 6.02862
      vertex -1.75 -9.79543 5
      vertex -1.62234 -4.99305 5.3929
    endloop
  endfacet
  facet normal 0.951056 0 -0.309018
    outer loop
      vertex -1.75 -9.79543 5
      vertex -1.41578 -5.04264 6.02862
      vertex -1.41578 -9.86647 6.02862
    endloop
  endfacet
  facet normal -0.951057 0 -0.309015
    outer loop
      vertex 1.75 -9.79543 15
      vertex 1.62234 -4.99305 15.3929
      vertex 1.75 -4.94017 15
    endloop
  endfacet
  facet normal -0.951053 1.22644e-06 -0.309028
    outer loop
      vertex 1.75 -9.79543 15
      vertex 1.41578 -5.04264 16.0286
      vertex 1.62234 -4.99305 15.3929
    endloop
  endfacet
  facet normal -0.951054 -0 -0.309023
    outer loop
      vertex 1.41578 -5.04264 16.0286
      vertex 1.75 -9.79543 15
      vertex 1.41578 -9.86647 16.0286
    endloop
  endfacet
  facet normal -0.587742 -0.000476907 -0.809048
    outer loop
      vertex 0.540779 -9.94522 16.6643
      vertex 1.41578 -9.86647 16.0286
      vertex 1.04528 -9.94522 16.2978
    endloop
  endfacet
  facet normal -0.587848 0 -0.808971
    outer loop
      vertex 1.41578 -9.86647 16.0286
      vertex 0.82128 -5.18536 16.4606
      vertex 1.41578 -5.04264 16.0286
    endloop
  endfacet
  facet normal -0.58777 0 -0.809028
    outer loop
      vertex 1.41578 -9.86647 16.0286
      vertex 0.540779 -9.94522 16.6643
      vertex 0.540779 -5.20744 16.6643
    endloop
  endfacet
  facet normal -0.587607 4.68472e-05 -0.809147
    outer loop
      vertex 1.41578 -9.86647 16.0286
      vertex 0.540779 -5.20744 16.6643
      vertex 0.82128 -5.18536 16.4606
    endloop
  endfacet
  facet normal 0 0 -1
    outer loop
      vertex 0.540779 -9.94522 16.6643
      vertex 0 -5.25 16.6643
      vertex 0.540779 -5.20744 16.6643
    endloop
  endfacet
  facet normal 0 0 -1
    outer loop
      vertex -0.540779 -9.94522 16.6643
      vertex 0 -5.25 16.6643
      vertex 0.540779 -9.94522 16.6643
    endloop
  endfacet
  facet normal -0 0 -1
    outer loop
      vertex 0 -5.25 16.6643
      vertex -0.540779 -9.94522 16.6643
      vertex -0.540779 -5.20744 16.6643
    endloop
  endfacet
  facet normal -0.951057 0 0.309015
    outer loop
      vertex 1.62234 -4.99305 14.6071
      vertex 1.75 -9.79543 15
      vertex 1.75 -4.94017 15
    endloop
  endfacet
  facet normal -0.951053 1.22644e-06 0.309028
    outer loop
      vertex 1.41578 -5.04264 13.9714
      vertex 1.75 -9.79543 15
      vertex 1.62234 -4.99305 14.6071
    endloop
  endfacet
  facet normal -0.951054 0 0.309023
    outer loop
      vertex 1.75 -9.79543 15
      vertex 1.41578 -5.04264 13.9714
      vertex 1.41578 -9.86647 13.9714
    endloop
  endfacet
  facet normal 0.587607 4.68472e-05 0.809147
    outer loop
      vertex -1.41578 -9.86647 13.9714
      vertex -0.540779 -5.20744 13.3357
      vertex -0.82128 -5.18536 13.5394
    endloop
  endfacet
  facet normal 0.58777 0 0.809028
    outer loop
      vertex -0.540779 -5.20744 13.3357
      vertex -1.41578 -9.86647 13.9714
      vertex -0.540779 -9.94522 13.3357
    endloop
  endfacet
  facet normal 0.587848 -0 0.808971
    outer loop
      vertex -1.41578 -9.86647 13.9714
      vertex -0.82128 -5.18536 13.5394
      vertex -1.41578 -5.04264 13.9714
    endloop
  endfacet
  facet normal 0.587742 -0.000476907 0.809048
    outer loop
      vertex -0.540779 -9.94522 13.3357
      vertex -1.41578 -9.86647 13.9714
      vertex -1.04528 -9.94522 13.7022
    endloop
  endfacet
  facet normal 0.951057 -0 0.309015
    outer loop
      vertex -1.75 -9.79543 15
      vertex -1.62234 -4.99305 14.6071
      vertex -1.75 -4.94017 15
    endloop
  endfacet
  facet normal 0.951053 1.22644e-06 0.309028
    outer loop
      vertex -1.75 -9.79543 15
      vertex -1.41578 -5.04264 13.9714
      vertex -1.62234 -4.99305 14.6071
    endloop
  endfacet
  facet normal 0.951054 0 0.309023
    outer loop
      vertex -1.41578 -5.04264 13.9714
      vertex -1.75 -9.79543 15
      vertex -1.41578 -9.86647 13.9714
    endloop
  endfacet
  facet normal 0.951057 0 -0.309015
    outer loop
      vertex -1.62234 -4.99305 15.3929
      vertex -1.75 -9.79543 15
      vertex -1.75 -4.94017 15
    endloop
  endfacet
  facet normal 0.951053 1.22644e-06 -0.309028
    outer loop
      vertex -1.41578 -5.04264 16.0286
      vertex -1.75 -9.79543 15
      vertex -1.62234 -4.99305 15.3929
    endloop
  endfacet
  facet normal 0.951054 0 -0.309023
    outer loop
      vertex -1.75 -9.79543 15
      vertex -1.41578 -5.04264 16.0286
      vertex -1.41578 -9.86647 16.0286
    endloop
  endfacet
  facet normal -0 0 1
    outer loop
      vertex 0 -5.25 13.3357
      vertex 0.540779 -9.94522 13.3357
      vertex 0.540779 -5.20744 13.3357
    endloop
  endfacet
  facet normal 0 0 1
    outer loop
      vertex -0.540779 -9.94522 13.3357
      vertex 0 -5.25 13.3357
      vertex -0.540779 -5.20744 13.3357
    endloop
  endfacet
  facet normal 0 0 1
    outer loop
      vertex 0 -5.25 13.3357
      vertex -0.540779 -9.94522 13.3357
      vertex 0.540779 -9.94522 13.3357
    endloop
  endfacet
  facet normal 0.58777 0 -0.809028
    outer loop
      vertex -1.41578 -9.86647 16.0286
      vertex -0.540779 -5.20744 16.6643
      vertex -0.540779 -9.94522 16.6643
    endloop
  endfacet
  facet normal 0.587742 -0.000476907 -0.809048
    outer loop
      vertex -1.41578 -9.86647 16.0286
      vertex -0.540779 -9.94522 16.6643
      vertex -1.04528 -9.94522 16.2978
    endloop
  endfacet
  facet normal 0.587607 4.68472e-05 -0.809147
    outer loop
      vertex -0.540779 -5.20744 16.6643
      vertex -1.41578 -9.86647 16.0286
      vertex -0.82128 -5.18536 16.4606
    endloop
  endfacet
  facet normal 0.587848 0 -0.808971
    outer loop
      vertex -0.82128 -5.18536 16.4606
      vertex -1.41578 -9.86647 16.0286
      vertex -1.41578 -5.04264 16.0286
    endloop
  endfacet
  facet normal -0.587848 0 0.808971
    outer loop
      vertex 0.82128 -5.18536 13.5394
      vertex 1.41578 -9.86647 13.9714
      vertex 1.41578 -5.04264 13.9714
    endloop
  endfacet
  facet normal -0.587607 4.68472e-05 0.809147
    outer loop
      vertex 0.540779 -5.20744 13.3357
      vertex 1.41578 -9.86647 13.9714
      vertex 0.82128 -5.18536 13.5394
    endloop
  endfacet
  facet normal -0.58777 0 0.809028
    outer loop
      vertex 0.540779 -9.94522 13.3357
      vertex 1.41578 -9.86647 13.9714
      vertex 0.540779 -5.20744 13.3357
    endloop
  endfacet
  facet normal -0.587742 -0.000476907 0.809048
    outer loop
      vertex 1.41578 -9.86647 13.9714
      vertex 0.540779 -9.94522 13.3357
      vertex 1.04528 -9.94522 13.7022
    endloop
  endfacet
endsolid OpenSCAD_Model
