solid OpenSCAD_Model
  facet normal -1 0 0
    outer loop
      vertex 0 0 0
      vertex 0 6 1
      vertex 0 6 0
    endloop
  endfacet
  facet normal -1 -0 0
    outer loop
      vertex 0 6 1
      vertex 0 0 0
      vertex 0 0 1
    endloop
  endfacet
  facet normal 0 0 1
    outer loop
      vertex 214 6 1
      vertex 213.1 3 1
      vertex 214 0 1
    endloop
  endfacet
  facet normal 0 0 1
    outer loop
      vertex 214 6 1
      vertex 213.022 3.49443 1
      vertex 213.1 3 1
    endloop
  endfacet
  facet normal 0 0 1
    outer loop
      vertex 214 6 1
      vertex 212.794 3.94046 1
      vertex 213.022 3.49443 1
    endloop
  endfacet
  facet normal 0 0 1
    outer loop
      vertex 214 6 1
      vertex 212.44 4.29443 1
      vertex 212.794 3.94046 1
    endloop
  endfacet
  facet normal 0 0 1
    outer loop
      vertex 214 6 1
      vertex 211.994 4.52169 1
      vertex 212.44 4.29443 1
    endloop
  endfacet
  facet normal 0 0 1
    outer loop
      vertex 214 6 1
      vertex 211.5 4.6 1
      vertex 211.994 4.52169 1
    endloop
  endfacet
  facet normal 0 0 1
    outer loop
      vertex 214 6 1
      vertex 211.006 4.52169 1
      vertex 211.5 4.6 1
    endloop
  endfacet
  facet normal 0 0 1
    outer loop
      vertex 209.978 3.49443 1
      vertex 4.1 3 1
      vertex 209.9 3 1
    endloop
  endfacet
  facet normal 0 0 1
    outer loop
      vertex 4.02169 3.49443 1
      vertex 209.978 3.49443 1
      vertex 210.206 3.94046 1
    endloop
  endfacet
  facet normal 0 0 1
    outer loop
      vertex 3.79443 3.94046 1
      vertex 210.206 3.94046 1
      vertex 210.56 4.29443 1
    endloop
  endfacet
  facet normal 0 0 1
    outer loop
      vertex 3.44046 4.29443 1
      vertex 210.56 4.29443 1
      vertex 211.006 4.52169 1
    endloop
  endfacet
  facet normal 0 0 1
    outer loop
      vertex 2.99443 4.52169 1
      vertex 211.006 4.52169 1
      vertex 214 6 1
    endloop
  endfacet
  facet normal 0 0 1
    outer loop
      vertex 209.978 3.49443 1
      vertex 4.02169 3.49443 1
      vertex 4.1 3 1
    endloop
  endfacet
  facet normal 0 0 1
    outer loop
      vertex 210.206 3.94046 1
      vertex 3.79443 3.94046 1
      vertex 4.02169 3.49443 1
    endloop
  endfacet
  facet normal 0 0 1
    outer loop
      vertex 210.56 4.29443 1
      vertex 3.44046 4.29443 1
      vertex 3.79443 3.94046 1
    endloop
  endfacet
  facet normal 0 0 1
    outer loop
      vertex 211.006 4.52169 1
      vertex 2.99443 4.52169 1
      vertex 3.44046 4.29443 1
    endloop
  endfacet
  facet normal -0 0 1
    outer loop
      vertex 0 6 1
      vertex 2.99443 4.52169 1
      vertex 214 6 1
    endloop
  endfacet
  facet normal 0 0 1
    outer loop
      vertex 0.978309 3.49443 1
      vertex 0 6 1
      vertex 0.9 3 1
    endloop
  endfacet
  facet normal 0 0 1
    outer loop
      vertex 1.20557 3.94046 1
      vertex 0 6 1
      vertex 0.978309 3.49443 1
    endloop
  endfacet
  facet normal 0 0 1
    outer loop
      vertex 1.55954 4.29443 1
      vertex 0 6 1
      vertex 1.20557 3.94046 1
    endloop
  endfacet
  facet normal 0 0 1
    outer loop
      vertex 2.00557 4.52169 1
      vertex 0 6 1
      vertex 1.55954 4.29443 1
    endloop
  endfacet
  facet normal 0 0 1
    outer loop
      vertex 2.5 4.6 1
      vertex 0 6 1
      vertex 2.00557 4.52169 1
    endloop
  endfacet
  facet normal 0 0 1
    outer loop
      vertex 2.99443 4.52169 1
      vertex 0 6 1
      vertex 2.5 4.6 1
    endloop
  endfacet
  facet normal -0 0 1
    outer loop
      vertex 213.022 2.50557 1
      vertex 214 0 1
      vertex 213.1 3 1
    endloop
  endfacet
  facet normal -0 0 1
    outer loop
      vertex 212.794 2.05954 1
      vertex 214 0 1
      vertex 213.022 2.50557 1
    endloop
  endfacet
  facet normal -0 0 1
    outer loop
      vertex 212.44 1.70557 1
      vertex 214 0 1
      vertex 212.794 2.05954 1
    endloop
  endfacet
  facet normal -0 0 1
    outer loop
      vertex 211.994 1.47831 1
      vertex 214 0 1
      vertex 212.44 1.70557 1
    endloop
  endfacet
  facet normal -0 0 1
    outer loop
      vertex 211.5 1.4 1
      vertex 214 0 1
      vertex 211.994 1.47831 1
    endloop
  endfacet
  facet normal 0 0 1
    outer loop
      vertex 211.006 1.47831 1
      vertex 214 0 1
      vertex 211.5 1.4 1
    endloop
  endfacet
  facet normal -0 0 1
    outer loop
      vertex 4.1 3 1
      vertex 209.978 2.50557 1
      vertex 209.9 3 1
    endloop
  endfacet
  facet normal 0 0 1
    outer loop
      vertex 4.02169 2.50557 1
      vertex 209.978 2.50557 1
      vertex 4.1 3 1
    endloop
  endfacet
  facet normal 0 0 1
    outer loop
      vertex 209.978 2.50557 1
      vertex 4.02169 2.50557 1
      vertex 210.206 2.05954 1
    endloop
  endfacet
  facet normal 0 0 1
    outer loop
      vertex 3.79443 2.05954 1
      vertex 210.206 2.05954 1
      vertex 4.02169 2.50557 1
    endloop
  endfacet
  facet normal 0 0 1
    outer loop
      vertex 210.206 2.05954 1
      vertex 3.79443 2.05954 1
      vertex 210.56 1.70557 1
    endloop
  endfacet
  facet normal 0 0 1
    outer loop
      vertex 3.44046 1.70557 1
      vertex 210.56 1.70557 1
      vertex 3.79443 2.05954 1
    endloop
  endfacet
  facet normal 0 0 1
    outer loop
      vertex 210.56 1.70557 1
      vertex 3.44046 1.70557 1
      vertex 211.006 1.47831 1
    endloop
  endfacet
  facet normal 0 0 1
    outer loop
      vertex 2.99443 1.47831 1
      vertex 211.006 1.47831 1
      vertex 3.44046 1.70557 1
    endloop
  endfacet
  facet normal 0 0 1
    outer loop
      vertex 211.006 1.47831 1
      vertex 2.99443 1.47831 1
      vertex 214 0 1
    endloop
  endfacet
  facet normal 0 0 1
    outer loop
      vertex 0 0 1
      vertex 2.99443 1.47831 1
      vertex 2.5 1.4 1
    endloop
  endfacet
  facet normal 0 0 1
    outer loop
      vertex 0 0 1
      vertex 0.9 3 1
      vertex 0 6 1
    endloop
  endfacet
  facet normal 0 0 1
    outer loop
      vertex 2.99443 1.47831 1
      vertex 0 0 1
      vertex 214 0 1
    endloop
  endfacet
  facet normal 0 0 1
    outer loop
      vertex 2.00557 1.47831 1
      vertex 0 0 1
      vertex 2.5 1.4 1
    endloop
  endfacet
  facet normal 0 0 1
    outer loop
      vertex 1.55954 1.70557 1
      vertex 0 0 1
      vertex 2.00557 1.47831 1
    endloop
  endfacet
  facet normal 0 0 1
    outer loop
      vertex 1.20557 2.05954 1
      vertex 0 0 1
      vertex 1.55954 1.70557 1
    endloop
  endfacet
  facet normal 0 0 1
    outer loop
      vertex 0.978309 2.50557 1
      vertex 0 0 1
      vertex 1.20557 2.05954 1
    endloop
  endfacet
  facet normal 0 0 1
    outer loop
      vertex 0.9 3 1
      vertex 0 0 1
      vertex 0.978309 2.50557 1
    endloop
  endfacet
  facet normal 1 -0 0
    outer loop
      vertex 214 0 1
      vertex 214 6 0
      vertex 214 6 1
    endloop
  endfacet
  facet normal 1 0 0
    outer loop
      vertex 214 6 0
      vertex 214 0 1
      vertex 214 0 0
    endloop
  endfacet
  facet normal 0 1 -0
    outer loop
      vertex 214 6 0
      vertex 0 6 1
      vertex 214 6 1
    endloop
  endfacet
  facet normal 0 1 0
    outer loop
      vertex 0 6 1
      vertex 214 6 0
      vertex 0 6 0
    endloop
  endfacet
  facet normal 0 0 -1
    outer loop
      vertex 214 0 0
      vertex 213.1 3 0
      vertex 214 6 0
    endloop
  endfacet
  facet normal 0 0 -1
    outer loop
      vertex 214 0 0
      vertex 213.022 2.50557 0
      vertex 213.1 3 0
    endloop
  endfacet
  facet normal 0 0 -1
    outer loop
      vertex 214 0 0
      vertex 212.794 2.05954 0
      vertex 213.022 2.50557 0
    endloop
  endfacet
  facet normal 0 0 -1
    outer loop
      vertex 214 0 0
      vertex 212.44 1.70557 0
      vertex 212.794 2.05954 0
    endloop
  endfacet
  facet normal 0 0 -1
    outer loop
      vertex 214 0 0
      vertex 211.994 1.47831 0
      vertex 212.44 1.70557 0
    endloop
  endfacet
  facet normal 0 0 -1
    outer loop
      vertex 214 0 0
      vertex 211.5 1.4 0
      vertex 211.994 1.47831 0
    endloop
  endfacet
  facet normal 0 0 -1
    outer loop
      vertex 214 0 0
      vertex 211.006 1.47831 0
      vertex 211.5 1.4 0
    endloop
  endfacet
  facet normal 0 0 -1
    outer loop
      vertex 209.978 2.50557 0
      vertex 4.1 3 0
      vertex 209.9 3 0
    endloop
  endfacet
  facet normal 0 0 -1
    outer loop
      vertex 4.02169 2.50557 0
      vertex 209.978 2.50557 0
      vertex 210.206 2.05954 0
    endloop
  endfacet
  facet normal 0 0 -1
    outer loop
      vertex 3.79443 2.05954 0
      vertex 210.206 2.05954 0
      vertex 210.56 1.70557 0
    endloop
  endfacet
  facet normal 0 0 -1
    outer loop
      vertex 3.44046 1.70557 0
      vertex 210.56 1.70557 0
      vertex 211.006 1.47831 0
    endloop
  endfacet
  facet normal 0 0 -1
    outer loop
      vertex 2.99443 1.47831 0
      vertex 211.006 1.47831 0
      vertex 214 0 0
    endloop
  endfacet
  facet normal 0 0 -1
    outer loop
      vertex 209.978 2.50557 0
      vertex 4.02169 2.50557 0
      vertex 4.1 3 0
    endloop
  endfacet
  facet normal 0 0 -1
    outer loop
      vertex 210.206 2.05954 0
      vertex 3.79443 2.05954 0
      vertex 4.02169 2.50557 0
    endloop
  endfacet
  facet normal 0 0 -1
    outer loop
      vertex 210.56 1.70557 0
      vertex 3.44046 1.70557 0
      vertex 3.79443 2.05954 0
    endloop
  endfacet
  facet normal 0 0 -1
    outer loop
      vertex 211.006 1.47831 0
      vertex 2.99443 1.47831 0
      vertex 3.44046 1.70557 0
    endloop
  endfacet
  facet normal 0 0 -1
    outer loop
      vertex 0 0 0
      vertex 2.99443 1.47831 0
      vertex 214 0 0
    endloop
  endfacet
  facet normal -0 0 -1
    outer loop
      vertex 0.978309 2.50557 0
      vertex 0 0 0
      vertex 0.9 3 0
    endloop
  endfacet
  facet normal -0 0 -1
    outer loop
      vertex 1.20557 2.05954 0
      vertex 0 0 0
      vertex 0.978309 2.50557 0
    endloop
  endfacet
  facet normal -0 0 -1
    outer loop
      vertex 1.55954 1.70557 0
      vertex 0 0 0
      vertex 1.20557 2.05954 0
    endloop
  endfacet
  facet normal -0 0 -1
    outer loop
      vertex 2.00557 1.47831 0
      vertex 0 0 0
      vertex 1.55954 1.70557 0
    endloop
  endfacet
  facet normal -0 0 -1
    outer loop
      vertex 2.5 1.4 0
      vertex 0 0 0
      vertex 2.00557 1.47831 0
    endloop
  endfacet
  facet normal 0 0 -1
    outer loop
      vertex 2.99443 1.47831 0
      vertex 0 0 0
      vertex 2.5 1.4 0
    endloop
  endfacet
  facet normal 0 0 -1
    outer loop
      vertex 213.022 3.49443 0
      vertex 214 6 0
      vertex 213.1 3 0
    endloop
  endfacet
  facet normal 0 0 -1
    outer loop
      vertex 212.794 3.94046 0
      vertex 214 6 0
      vertex 213.022 3.49443 0
    endloop
  endfacet
  facet normal 0 0 -1
    outer loop
      vertex 212.44 4.29443 0
      vertex 214 6 0
      vertex 212.794 3.94046 0
    endloop
  endfacet
  facet normal 0 0 -1
    outer loop
      vertex 211.994 4.52169 0
      vertex 214 6 0
      vertex 212.44 4.29443 0
    endloop
  endfacet
  facet normal 0 0 -1
    outer loop
      vertex 211.5 4.6 0
      vertex 214 6 0
      vertex 211.994 4.52169 0
    endloop
  endfacet
  facet normal 0 0 -1
    outer loop
      vertex 211.006 4.52169 0
      vertex 214 6 0
      vertex 211.5 4.6 0
    endloop
  endfacet
  facet normal 0 0 -1
    outer loop
      vertex 4.1 3 0
      vertex 209.978 3.49443 0
      vertex 209.9 3 0
    endloop
  endfacet
  facet normal 0 0 -1
    outer loop
      vertex 4.02169 3.49443 0
      vertex 209.978 3.49443 0
      vertex 4.1 3 0
    endloop
  endfacet
  facet normal 0 0 -1
    outer loop
      vertex 209.978 3.49443 0
      vertex 4.02169 3.49443 0
      vertex 210.206 3.94046 0
    endloop
  endfacet
  facet normal 0 0 -1
    outer loop
      vertex 3.79443 3.94046 0
      vertex 210.206 3.94046 0
      vertex 4.02169 3.49443 0
    endloop
  endfacet
  facet normal 0 0 -1
    outer loop
      vertex 210.206 3.94046 0
      vertex 3.79443 3.94046 0
      vertex 210.56 4.29443 0
    endloop
  endfacet
  facet normal 0 0 -1
    outer loop
      vertex 3.44046 4.29443 0
      vertex 210.56 4.29443 0
      vertex 3.79443 3.94046 0
    endloop
  endfacet
  facet normal 0 0 -1
    outer loop
      vertex 210.56 4.29443 0
      vertex 3.44046 4.29443 0
      vertex 211.006 4.52169 0
    endloop
  endfacet
  facet normal 0 0 -1
    outer loop
      vertex 2.99443 4.52169 0
      vertex 211.006 4.52169 0
      vertex 3.44046 4.29443 0
    endloop
  endfacet
  facet normal 0 0 -1
    outer loop
      vertex 211.006 4.52169 0
      vertex 2.99443 4.52169 0
      vertex 214 6 0
    endloop
  endfacet
  facet normal 0 0 -1
    outer loop
      vertex 0 6 0
      vertex 2.99443 4.52169 0
      vertex 2.5 4.6 0
    endloop
  endfacet
  facet normal 0 0 -1
    outer loop
      vertex 0 6 0
      vertex 0.9 3 0
      vertex 0 0 0
    endloop
  endfacet
  facet normal 0 0 -1
    outer loop
      vertex 2.99443 4.52169 0
      vertex 0 6 0
      vertex 214 6 0
    endloop
  endfacet
  facet normal 0 0 -1
    outer loop
      vertex 2.00557 4.52169 0
      vertex 0 6 0
      vertex 2.5 4.6 0
    endloop
  endfacet
  facet normal 0 0 -1
    outer loop
      vertex 1.55954 4.29443 0
      vertex 0 6 0
      vertex 2.00557 4.52169 0
    endloop
  endfacet
  facet normal 0 0 -1
    outer loop
      vertex 1.20557 3.94046 0
      vertex 0 6 0
      vertex 1.55954 4.29443 0
    endloop
  endfacet
  facet normal 0 0 -1
    outer loop
      vertex 0.978309 3.49443 0
      vertex 0 6 0
      vertex 1.20557 3.94046 0
    endloop
  endfacet
  facet normal 0 0 -1
    outer loop
      vertex 0.9 3 0
      vertex 0 6 0
      vertex 0.978309 3.49443 0
    endloop
  endfacet
  facet normal 0 -1 0
    outer loop
      vertex 0 0 0
      vertex 214 0 1
      vertex 0 0 1
    endloop
  endfacet
  facet normal 0 -1 -0
    outer loop
      vertex 214 0 1
      vertex 0 0 0
      vertex 214 0 0
    endloop
  endfacet
  facet normal -0.453985 -0.891009 0
    outer loop
      vertex 2.99443 4.52169 0
      vertex 3.44046 4.29443 1
      vertex 2.99443 4.52169 1
    endloop
  endfacet
  facet normal -0.453985 -0.891009 -0
    outer loop
      vertex 3.44046 4.29443 1
      vertex 2.99443 4.52169 0
      vertex 3.44046 4.29443 0
    endloop
  endfacet
  facet normal -0.987688 0.156434 0
    outer loop
      vertex 4.02169 2.50557 0
      vertex 4.1 3 1
      vertex 4.1 3 0
    endloop
  endfacet
  facet normal -0.987688 0.156434 0
    outer loop
      vertex 4.1 3 1
      vertex 4.02169 2.50557 0
      vertex 4.02169 2.50557 1
    endloop
  endfacet
  facet normal 0.156434 0.987688 -0
    outer loop
      vertex 2.5 1.4 0
      vertex 2.00557 1.47831 1
      vertex 2.5 1.4 1
    endloop
  endfacet
  facet normal 0.156434 0.987688 0
    outer loop
      vertex 2.00557 1.47831 1
      vertex 2.5 1.4 0
      vertex 2.00557 1.47831 0
    endloop
  endfacet
  facet normal -0.707107 -0.707107 0
    outer loop
      vertex 3.79443 3.94046 0
      vertex 3.44046 4.29443 1
      vertex 3.44046 4.29443 0
    endloop
  endfacet
  facet normal -0.707107 -0.707107 0
    outer loop
      vertex 3.44046 4.29443 1
      vertex 3.79443 3.94046 0
      vertex 3.79443 3.94046 1
    endloop
  endfacet
  facet normal -0.891009 -0.453985 0
    outer loop
      vertex 4.02169 3.49443 0
      vertex 3.79443 3.94046 1
      vertex 3.79443 3.94046 0
    endloop
  endfacet
  facet normal -0.891009 -0.453985 0
    outer loop
      vertex 3.79443 3.94046 1
      vertex 4.02169 3.49443 0
      vertex 4.02169 3.49443 1
    endloop
  endfacet
  facet normal 0.453985 -0.891009 0
    outer loop
      vertex 1.55954 4.29443 0
      vertex 2.00557 4.52169 1
      vertex 1.55954 4.29443 1
    endloop
  endfacet
  facet normal 0.453985 -0.891009 0
    outer loop
      vertex 2.00557 4.52169 1
      vertex 1.55954 4.29443 0
      vertex 2.00557 4.52169 0
    endloop
  endfacet
  facet normal 0.707107 -0.707107 0
    outer loop
      vertex 1.20557 3.94046 1
      vertex 1.55954 4.29443 0
      vertex 1.55954 4.29443 1
    endloop
  endfacet
  facet normal 0.707107 -0.707107 0
    outer loop
      vertex 1.55954 4.29443 0
      vertex 1.20557 3.94046 1
      vertex 1.20557 3.94046 0
    endloop
  endfacet
  facet normal -0.707107 0.707107 0
    outer loop
      vertex 3.44046 1.70557 0
      vertex 3.79443 2.05954 1
      vertex 3.79443 2.05954 0
    endloop
  endfacet
  facet normal -0.707107 0.707107 0
    outer loop
      vertex 3.79443 2.05954 1
      vertex 3.44046 1.70557 0
      vertex 3.44046 1.70557 1
    endloop
  endfacet
  facet normal -0.453985 0.891009 0
    outer loop
      vertex 3.44046 1.70557 0
      vertex 2.99443 1.47831 1
      vertex 3.44046 1.70557 1
    endloop
  endfacet
  facet normal -0.453985 0.891009 0
    outer loop
      vertex 2.99443 1.47831 1
      vertex 3.44046 1.70557 0
      vertex 2.99443 1.47831 0
    endloop
  endfacet
  facet normal -0.891009 0.453985 0
    outer loop
      vertex 3.79443 2.05954 0
      vertex 4.02169 2.50557 1
      vertex 4.02169 2.50557 0
    endloop
  endfacet
  facet normal -0.891009 0.453985 0
    outer loop
      vertex 4.02169 2.50557 1
      vertex 3.79443 2.05954 0
      vertex 3.79443 2.05954 1
    endloop
  endfacet
  facet normal 0.891009 0.453986 0
    outer loop
      vertex 1.20557 2.05954 1
      vertex 0.978309 2.50557 0
      vertex 0.978309 2.50557 1
    endloop
  endfacet
  facet normal 0.891009 0.453986 0
    outer loop
      vertex 0.978309 2.50557 0
      vertex 1.20557 2.05954 1
      vertex 1.20557 2.05954 0
    endloop
  endfacet
  facet normal 0.453985 0.891009 -0
    outer loop
      vertex 2.00557 1.47831 0
      vertex 1.55954 1.70557 1
      vertex 2.00557 1.47831 1
    endloop
  endfacet
  facet normal 0.453985 0.891009 0
    outer loop
      vertex 1.55954 1.70557 1
      vertex 2.00557 1.47831 0
      vertex 1.55954 1.70557 0
    endloop
  endfacet
  facet normal 0.707107 0.707107 0
    outer loop
      vertex 1.55954 1.70557 1
      vertex 1.20557 2.05954 0
      vertex 1.20557 2.05954 1
    endloop
  endfacet
  facet normal 0.707107 0.707107 0
    outer loop
      vertex 1.20557 2.05954 0
      vertex 1.55954 1.70557 1
      vertex 1.55954 1.70557 0
    endloop
  endfacet
  facet normal 0.156434 -0.987688 0
    outer loop
      vertex 2.00557 4.52169 0
      vertex 2.5 4.6 1
      vertex 2.00557 4.52169 1
    endloop
  endfacet
  facet normal 0.156434 -0.987688 0
    outer loop
      vertex 2.5 4.6 1
      vertex 2.00557 4.52169 0
      vertex 2.5 4.6 0
    endloop
  endfacet
  facet normal 0.987689 0.156432 0
    outer loop
      vertex 0.978309 2.50557 1
      vertex 0.9 3 0
      vertex 0.9 3 1
    endloop
  endfacet
  facet normal 0.987689 0.156432 0
    outer loop
      vertex 0.9 3 0
      vertex 0.978309 2.50557 1
      vertex 0.978309 2.50557 0
    endloop
  endfacet
  facet normal 0.891009 -0.453986 0
    outer loop
      vertex 0.978309 3.49443 1
      vertex 1.20557 3.94046 0
      vertex 1.20557 3.94046 1
    endloop
  endfacet
  facet normal 0.891009 -0.453986 0
    outer loop
      vertex 1.20557 3.94046 0
      vertex 0.978309 3.49443 1
      vertex 0.978309 3.49443 0
    endloop
  endfacet
  facet normal -0.987688 -0.156434 0
    outer loop
      vertex 4.1 3 0
      vertex 4.02169 3.49443 1
      vertex 4.02169 3.49443 0
    endloop
  endfacet
  facet normal -0.987688 -0.156434 0
    outer loop
      vertex 4.02169 3.49443 1
      vertex 4.1 3 0
      vertex 4.1 3 1
    endloop
  endfacet
  facet normal -0.156434 0.987688 0
    outer loop
      vertex 2.99443 1.47831 0
      vertex 2.5 1.4 1
      vertex 2.99443 1.47831 1
    endloop
  endfacet
  facet normal -0.156434 0.987688 0
    outer loop
      vertex 2.5 1.4 1
      vertex 2.99443 1.47831 0
      vertex 2.5 1.4 0
    endloop
  endfacet
  facet normal -0.156434 -0.987688 0
    outer loop
      vertex 2.5 4.6 0
      vertex 2.99443 4.52169 1
      vertex 2.5 4.6 1
    endloop
  endfacet
  facet normal -0.156434 -0.987688 -0
    outer loop
      vertex 2.99443 4.52169 1
      vertex 2.5 4.6 0
      vertex 2.99443 4.52169 0
    endloop
  endfacet
  facet normal 0.987689 -0.156432 0
    outer loop
      vertex 0.9 3 1
      vertex 0.978309 3.49443 0
      vertex 0.978309 3.49443 1
    endloop
  endfacet
  facet normal 0.987689 -0.156432 0
    outer loop
      vertex 0.978309 3.49443 0
      vertex 0.9 3 1
      vertex 0.9 3 0
    endloop
  endfacet
  facet normal -0.454009 -0.890997 0
    outer loop
      vertex 211.994 4.52169 0
      vertex 212.44 4.29443 1
      vertex 211.994 4.52169 1
    endloop
  endfacet
  facet normal -0.454009 -0.890997 -0
    outer loop
      vertex 212.44 4.29443 1
      vertex 211.994 4.52169 0
      vertex 212.44 4.29443 0
    endloop
  endfacet
  facet normal -0.987784 0.15583 0
    outer loop
      vertex 213.022 2.50557 0
      vertex 213.1 3 1
      vertex 213.1 3 0
    endloop
  endfacet
  facet normal -0.987784 0.15583 0
    outer loop
      vertex 213.1 3 1
      vertex 213.022 2.50557 0
      vertex 213.022 2.50557 1
    endloop
  endfacet
  facet normal 0.156567 0.987667 -0
    outer loop
      vertex 211.5 1.4 0
      vertex 211.006 1.47831 1
      vertex 211.5 1.4 1
    endloop
  endfacet
  facet normal 0.156567 0.987667 0
    outer loop
      vertex 211.006 1.47831 1
      vertex 211.5 1.4 0
      vertex 211.006 1.47831 0
    endloop
  endfacet
  facet normal -0.707077 -0.707137 0
    outer loop
      vertex 212.44 4.29443 0
      vertex 212.794 3.94046 1
      vertex 212.44 4.29443 1
    endloop
  endfacet
  facet normal -0.707077 -0.707137 -0
    outer loop
      vertex 212.794 3.94046 1
      vertex 212.44 4.29443 0
      vertex 212.794 3.94046 0
    endloop
  endfacet
  facet normal -0.890411 -0.455157 0
    outer loop
      vertex 213.022 3.49443 0
      vertex 212.794 3.94046 1
      vertex 212.794 3.94046 0
    endloop
  endfacet
  facet normal -0.890411 -0.455157 0
    outer loop
      vertex 212.794 3.94046 1
      vertex 213.022 3.49443 0
      vertex 213.022 3.49443 1
    endloop
  endfacet
  facet normal 0.454009 -0.890997 0
    outer loop
      vertex 210.56 4.29443 0
      vertex 211.006 4.52169 1
      vertex 210.56 4.29443 1
    endloop
  endfacet
  facet normal 0.454009 -0.890997 0
    outer loop
      vertex 211.006 4.52169 1
      vertex 210.56 4.29443 0
      vertex 211.006 4.52169 0
    endloop
  endfacet
  facet normal 0.707077 -0.707137 0
    outer loop
      vertex 210.206 3.94046 0
      vertex 210.56 4.29443 1
      vertex 210.206 3.94046 1
    endloop
  endfacet
  facet normal 0.707077 -0.707137 0
    outer loop
      vertex 210.56 4.29443 1
      vertex 210.206 3.94046 0
      vertex 210.56 4.29443 0
    endloop
  endfacet
  facet normal -0.707077 0.707137 0
    outer loop
      vertex 212.794 2.05954 0
      vertex 212.44 1.70557 1
      vertex 212.794 2.05954 1
    endloop
  endfacet
  facet normal -0.707077 0.707137 0
    outer loop
      vertex 212.44 1.70557 1
      vertex 212.794 2.05954 0
      vertex 212.44 1.70557 0
    endloop
  endfacet
  facet normal -0.454009 0.890997 0
    outer loop
      vertex 212.44 1.70557 0
      vertex 211.994 1.47831 1
      vertex 212.44 1.70557 1
    endloop
  endfacet
  facet normal -0.454009 0.890997 0
    outer loop
      vertex 211.994 1.47831 1
      vertex 212.44 1.70557 0
      vertex 211.994 1.47831 0
    endloop
  endfacet
  facet normal -0.890411 0.455157 0
    outer loop
      vertex 212.794 2.05954 0
      vertex 213.022 2.50557 1
      vertex 213.022 2.50557 0
    endloop
  endfacet
  facet normal -0.890411 0.455157 0
    outer loop
      vertex 213.022 2.50557 1
      vertex 212.794 2.05954 0
      vertex 212.794 2.05954 1
    endloop
  endfacet
  facet normal 0.890411 0.455157 0
    outer loop
      vertex 210.206 2.05954 1
      vertex 209.978 2.50557 0
      vertex 209.978 2.50557 1
    endloop
  endfacet
  facet normal 0.890411 0.455157 0
    outer loop
      vertex 209.978 2.50557 0
      vertex 210.206 2.05954 1
      vertex 210.206 2.05954 0
    endloop
  endfacet
  facet normal 0.454009 0.890997 -0
    outer loop
      vertex 211.006 1.47831 0
      vertex 210.56 1.70557 1
      vertex 211.006 1.47831 1
    endloop
  endfacet
  facet normal 0.454009 0.890997 0
    outer loop
      vertex 210.56 1.70557 1
      vertex 211.006 1.47831 0
      vertex 210.56 1.70557 0
    endloop
  endfacet
  facet normal 0.707077 0.707137 -0
    outer loop
      vertex 210.56 1.70557 0
      vertex 210.206 2.05954 1
      vertex 210.56 1.70557 1
    endloop
  endfacet
  facet normal 0.707077 0.707137 0
    outer loop
      vertex 210.206 2.05954 1
      vertex 210.56 1.70557 0
      vertex 210.206 2.05954 0
    endloop
  endfacet
  facet normal 0.156567 -0.987667 0
    outer loop
      vertex 211.006 4.52169 0
      vertex 211.5 4.6 1
      vertex 211.006 4.52169 1
    endloop
  endfacet
  facet normal 0.156567 -0.987667 0
    outer loop
      vertex 211.5 4.6 1
      vertex 211.006 4.52169 0
      vertex 211.5 4.6 0
    endloop
  endfacet
  facet normal 0.987784 0.15583 0
    outer loop
      vertex 209.978 2.50557 1
      vertex 209.9 3 0
      vertex 209.9 3 1
    endloop
  endfacet
  facet normal 0.987784 0.15583 0
    outer loop
      vertex 209.9 3 0
      vertex 209.978 2.50557 1
      vertex 209.978 2.50557 0
    endloop
  endfacet
  facet normal 0.890411 -0.455157 0
    outer loop
      vertex 209.978 3.49443 1
      vertex 210.206 3.94046 0
      vertex 210.206 3.94046 1
    endloop
  endfacet
  facet normal 0.890411 -0.455157 0
    outer loop
      vertex 210.206 3.94046 0
      vertex 209.978 3.49443 1
      vertex 209.978 3.49443 0
    endloop
  endfacet
  facet normal -0.987784 -0.15583 0
    outer loop
      vertex 213.1 3 0
      vertex 213.022 3.49443 1
      vertex 213.022 3.49443 0
    endloop
  endfacet
  facet normal -0.987784 -0.15583 0
    outer loop
      vertex 213.022 3.49443 1
      vertex 213.1 3 0
      vertex 213.1 3 1
    endloop
  endfacet
  facet normal -0.156567 0.987667 0
    outer loop
      vertex 211.994 1.47831 0
      vertex 211.5 1.4 1
      vertex 211.994 1.47831 1
    endloop
  endfacet
  facet normal -0.156567 0.987667 0
    outer loop
      vertex 211.5 1.4 1
      vertex 211.994 1.47831 0
      vertex 211.5 1.4 0
    endloop
  endfacet
  facet normal -0.156567 -0.987667 0
    outer loop
      vertex 211.5 4.6 0
      vertex 211.994 4.52169 1
      vertex 211.5 4.6 1
    endloop
  endfacet
  facet normal -0.156567 -0.987667 -0
    outer loop
      vertex 211.994 4.52169 1
      vertex 211.5 4.6 0
      vertex 211.994 4.52169 0
    endloop
  endfacet
  facet normal 0.987784 -0.15583 0
    outer loop
      vertex 209.9 3 1
      vertex 209.978 3.49443 0
      vertex 209.978 3.49443 1
    endloop
  endfacet
  facet normal 0.987784 -0.15583 0
    outer loop
      vertex 209.978 3.49443 0
      vertex 209.9 3 1
      vertex 209.9 3 0
    endloop
  endfacet
endsolid OpenSCAD_Model
