solid Cable_holder
facet normal 0.0 0.0 -1.0
  outer loop
    vertex 2.9999999999999996 43.0 0.0
    vertex 0.9999999999999999 38.0 0.0
    vertex 0.9999999999999999 43.0 0.0
  endloop
endfacet
facet normal 0.0 0.0 -1.0
  outer loop
    vertex 0.9999999999999999 38.0 0.0
    vertex 2.9999999999999996 43.0 0.0
    vertex 1.8278817553329887 35.570130638970305 0.0
  endloop
endfacet
facet normal 0.0 0.0 -1.0
  outer loop
    vertex 1.8278817553329887 35.570130638970305 0.0
    vertex 2.9999999999999996 43.0 0.0
    vertex 2.4942937698333774 33.09110898932429 0.0
  endloop
endfacet
facet normal 0.0 0.0 -1.0
  outer loop
    vertex 2.4942937698333774 33.09110898932429 0.0
    vertex 2.9999999999999996 43.0 0.0
    vertex 2.9963550074919567 30.57365237080534 0.0
  endloop
endfacet
facet normal 0.0 0.0 -1.0
  outer loop
    vertex 2.9963550074919567 30.57365237080534 0.0
    vertex 2.9999999999999996 43.0 0.0
    vertex 2.9999999999999996 38.0 0.0
  endloop
endfacet
facet normal 0.0 0.0 -1.0
  outer loop
    vertex 2.9963550074919567 30.57365237080534 0.0
    vertex 2.9999999999999996 38.0 0.0
    vertex 3.3318949544628653 28.028644265421217 0.0
  endloop
endfacet
facet normal 0.0 0.0 -1.0
  outer loop
    vertex 3.3318949544628653 28.028644265421217 0.0
    vertex 2.9999999999999996 38.0 0.0
    vertex 3.8278817553329905 35.570130638970305 0.0
  endloop
endfacet
facet normal 0.0 0.0 -1.0
  outer loop
    vertex 3.3318949544628653 28.028644265421217 0.0
    vertex 3.8278817553329905 35.570130638970305 0.0
    vertex 3.4994630026407387 25.46708726591604 0.0
  endloop
endfacet
facet normal 0.0 0.0 -1.0
  outer loop
    vertex 3.4994630026407387 25.46708726591604 0.0
    vertex 3.8278817553329905 35.570130638970305 0.0
    vertex 3.8178729852616518 12.798485452172548 0.0
  endloop
endfacet
facet normal 0.0 0.0 -1.0
  outer loop
    vertex 3.8178729852616518 12.798485452172548 0.0
    vertex 3.8278817553329905 35.570130638970305 0.0
    vertex 4.486463939497172 15.276920330961692 0.0
  endloop
endfacet
facet normal 0.0 0.0 -1.0
  outer loop
    vertex 4.486463939497172 15.276920330961692 0.0
    vertex 3.8278817553329905 35.570130638970305 0.0
    vertex 4.494293769833374 33.09110898932429 0.0
  endloop
endfacet
facet normal 0.0 0.0 -1.0
  outer loop
    vertex 4.486463939497172 15.276920330961692 0.0
    vertex 4.494293769833374 33.09110898932429 0.0
    vertex 4.990737966855542 17.793934637201506 0.0
  endloop
endfacet
facet normal 0.0 0.0 -1.0
  outer loop
    vertex 4.990737966855542 17.793934637201506 0.0
    vertex 4.494293769833374 33.09110898932429 0.0
    vertex 4.996355007491953 30.57365237080534 0.0
  endloop
endfacet
facet normal 0.0 0.0 -1.0
  outer loop
    vertex 4.990737966855542 17.793934637201506 0.0
    vertex 4.996355007491953 30.57365237080534 0.0
    vertex 5.328514987146571 20.338646801091055 0.0
  endloop
endfacet
facet normal 0.0 0.0 -1.0
  outer loop
    vertex 5.328514987146571 20.338646801091055 0.0
    vertex 4.996355007491953 30.57365237080534 0.0
    vertex 5.331894954462862 28.028644265421217 0.0
  endloop
endfacet
facet normal 0.0 0.0 -1.0
  outer loop
    vertex 5.328514987146571 20.338646801091055 0.0
    vertex 5.331894954462862 28.028644265421217 0.0
    vertex 5.498334720937468 22.900055509302085 0.0
  endloop
endfacet
facet normal 0.0 0.0 -1.0
  outer loop
    vertex 5.498334720937468 22.900055509302085 0.0
    vertex 5.331894954462862 28.028644265421217 0.0
    vertex 5.499463002640735 25.467087265916046 0.0
  endloop
endfacet
facet normal 0.0 0.0 -1.0
  outer loop
    vertex 2.48646393949717 15.276920330961692 0.0
    vertex 1.9999999999999998 7.999999999999999 0.0
    vertex 1.81787298526165 12.798485452172548 0.0
  endloop
endfacet
facet normal 0.0 0.0 -1.0
  outer loop
    vertex 1.9999999999999998 7.999999999999999 0.0
    vertex 2.48646393949717 15.276920330961692 0.0
    vertex 2.9878555601621946 10.36934478384653 0.0
  endloop
endfacet
facet normal 0.0 0.0 -1.0
  outer loop
    vertex 2.9878555601621946 10.36934478384653 0.0
    vertex 2.48646393949717 15.276920330961692 0.0
    vertex 2.9907379668555394 17.793934637201502 0.0
  endloop
endfacet
facet normal 0.0 0.0 -1.0
  outer loop
    vertex 2.9878555601621946 10.36934478384653 0.0
    vertex 2.9907379668555394 17.793934637201502 0.0
    vertex 3.8178729852616518 12.798485452172548 0.0
  endloop
endfacet
facet normal 0.0 0.0 -1.0
  outer loop
    vertex 3.8178729852616518 12.798485452172548 0.0
    vertex 2.9907379668555394 17.793934637201502 0.0
    vertex 3.3285149871465687 20.338646801091055 0.0
  endloop
endfacet
facet normal 0.0 0.0 -1.0
  outer loop
    vertex 3.8178729852616518 12.798485452172548 0.0
    vertex 3.3285149871465687 20.338646801091055 0.0
    vertex 3.4983347209374656 22.900055509302085 0.0
  endloop
endfacet
facet normal 0.0 0.0 -1.0
  outer loop
    vertex 3.8178729852616518 12.798485452172548 0.0
    vertex 3.4983347209374656 22.900055509302085 0.0
    vertex 3.4994630026407387 25.46708726591604 0.0
  endloop
endfacet
facet normal 0.0 0.0 -1.0
  outer loop
    vertex 0.9878555601621924 10.369344783846529 0.0
    vertex 0.0 0.0 0.0
    vertex 0.0 7.999999999999999 0.0
  endloop
endfacet
facet normal 0.0 0.0 -1.0
  outer loop
    vertex 0.0 0.0 0.0
    vertex 0.9878555601621924 10.369344783846529 0.0
    vertex 1.9999999999999998 0.0 0.0
  endloop
endfacet
facet normal 0.0 0.0 -1.0
  outer loop
    vertex 1.9999999999999998 0.0 0.0
    vertex 0.9878555601621924 10.369344783846529 0.0
    vertex 1.81787298526165 12.798485452172548 0.0
  endloop
endfacet
facet normal 0.0 0.0 -1.0
  outer loop
    vertex 1.9999999999999998 0.0 0.0
    vertex 1.81787298526165 12.798485452172548 0.0
    vertex 1.9999999999999998 7.999999999999999 0.0
  endloop
endfacet
facet normal -0.0 -0.0 1.0
  outer loop
    vertex 1.9999999999999998 0.0 10.0
    vertex 0.0 7.999999999999999 10.0
    vertex 0.0 0.0 10.0
  endloop
endfacet
facet normal -0.0 -0.0 1.0
  outer loop
    vertex 0.0 7.999999999999999 10.0
    vertex 1.9999999999999998 0.0 10.0
    vertex 0.9878555601621924 10.369344783846529 10.0
  endloop
endfacet
facet normal -0.0 -0.0 1.0
  outer loop
    vertex 0.9878555601621924 10.369344783846529 10.0
    vertex 1.9999999999999998 0.0 10.0
    vertex 1.81787298526165 12.798485452172548 10.0
  endloop
endfacet
facet normal -0.0 -0.0 1.0
  outer loop
    vertex 1.81787298526165 12.798485452172548 10.0
    vertex 1.9999999999999998 0.0 10.0
    vertex 1.9999999999999998 7.999999999999999 10.0
  endloop
endfacet
facet normal -0.0 -0.0 1.0
  outer loop
    vertex 1.81787298526165 12.798485452172548 10.0
    vertex 1.9999999999999998 7.999999999999999 10.0
    vertex 2.48646393949717 15.276920330961692 10.0
  endloop
endfacet
facet normal -0.0 -0.0 1.0
  outer loop
    vertex 2.48646393949717 15.276920330961692 10.0
    vertex 1.9999999999999998 7.999999999999999 10.0
    vertex 2.9878555601621946 10.36934478384653 10.0
  endloop
endfacet
facet normal -0.0 -0.0 1.0
  outer loop
    vertex 2.48646393949717 15.276920330961692 10.0
    vertex 2.9878555601621946 10.36934478384653 10.0
    vertex 2.9907379668555394 17.793934637201502 10.0
  endloop
endfacet
facet normal -0.0 -0.0 1.0
  outer loop
    vertex 2.9907379668555394 17.793934637201502 10.0
    vertex 2.9878555601621946 10.36934478384653 10.0
    vertex 3.8178729852616518 12.798485452172548 10.0
  endloop
endfacet
facet normal -0.0 -0.0 1.0
  outer loop
    vertex 2.9907379668555394 17.793934637201502 10.0
    vertex 3.8178729852616518 12.798485452172548 10.0
    vertex 3.3285149871465687 20.338646801091055 10.0
  endloop
endfacet
facet normal -0.0 -0.0 1.0
  outer loop
    vertex 3.3285149871465687 20.338646801091055 10.0
    vertex 3.8178729852616518 12.798485452172548 10.0
    vertex 3.4983347209374656 22.900055509302085 10.0
  endloop
endfacet
facet normal -0.0 -0.0 1.0
  outer loop
    vertex 3.4983347209374656 22.900055509302085 10.0
    vertex 3.8178729852616518 12.798485452172548 10.0
    vertex 3.4994630026407387 25.46708726591604 10.0
  endloop
endfacet
facet normal -0.0 -0.0 1.0
  outer loop
    vertex 3.3318949544628653 28.028644265421217 10.0
    vertex 2.9999999999999996 38.0 10.0
    vertex 2.9963550074919567 30.57365237080534 10.0
  endloop
endfacet
facet normal -0.0 -0.0 1.0
  outer loop
    vertex 2.9999999999999996 38.0 10.0
    vertex 3.3318949544628653 28.028644265421217 10.0
    vertex 3.8278817553329905 35.570130638970305 10.0
  endloop
endfacet
facet normal -0.0 -0.0 1.0
  outer loop
    vertex 3.8278817553329905 35.570130638970305 10.0
    vertex 3.3318949544628653 28.028644265421217 10.0
    vertex 3.4994630026407387 25.46708726591604 10.0
  endloop
endfacet
facet normal -0.0 -0.0 1.0
  outer loop
    vertex 3.8278817553329905 35.570130638970305 10.0
    vertex 3.4994630026407387 25.46708726591604 10.0
    vertex 3.8178729852616518 12.798485452172548 10.0
  endloop
endfacet
facet normal -0.0 -0.0 1.0
  outer loop
    vertex 3.8278817553329905 35.570130638970305 10.0
    vertex 3.8178729852616518 12.798485452172548 10.0
    vertex 4.486463939497172 15.276920330961692 10.0
  endloop
endfacet
facet normal -0.0 -0.0 1.0
  outer loop
    vertex 3.8278817553329905 35.570130638970305 10.0
    vertex 4.486463939497172 15.276920330961692 10.0
    vertex 4.494293769833374 33.09110898932429 10.0
  endloop
endfacet
facet normal -0.0 -0.0 1.0
  outer loop
    vertex 4.494293769833374 33.09110898932429 10.0
    vertex 4.486463939497172 15.276920330961692 10.0
    vertex 4.990737966855542 17.793934637201506 10.0
  endloop
endfacet
facet normal -0.0 -0.0 1.0
  outer loop
    vertex 4.494293769833374 33.09110898932429 10.0
    vertex 4.990737966855542 17.793934637201506 10.0
    vertex 4.996355007491953 30.57365237080534 10.0
  endloop
endfacet
facet normal -0.0 -0.0 1.0
  outer loop
    vertex 4.996355007491953 30.57365237080534 10.0
    vertex 4.990737966855542 17.793934637201506 10.0
    vertex 5.328514987146571 20.338646801091055 10.0
  endloop
endfacet
facet normal -0.0 -0.0 1.0
  outer loop
    vertex 4.996355007491953 30.57365237080534 10.0
    vertex 5.328514987146571 20.338646801091055 10.0
    vertex 5.331894954462862 28.028644265421217 10.0
  endloop
endfacet
facet normal -0.0 -0.0 1.0
  outer loop
    vertex 5.331894954462862 28.028644265421217 10.0
    vertex 5.328514987146571 20.338646801091055 10.0
    vertex 5.498334720937468 22.900055509302085 10.0
  endloop
endfacet
facet normal -0.0 -0.0 1.0
  outer loop
    vertex 5.331894954462862 28.028644265421217 10.0
    vertex 5.498334720937468 22.900055509302085 10.0
    vertex 5.499463002640735 25.467087265916046 10.0
  endloop
endfacet
facet normal -0.0 -0.0 1.0
  outer loop
    vertex 1.8278817553329887 35.570130638970305 10.0
    vertex 0.9999999999999999 43.0 10.0
    vertex 0.9999999999999999 38.0 10.0
  endloop
endfacet
facet normal -0.0 -0.0 1.0
  outer loop
    vertex 0.9999999999999999 43.0 10.0
    vertex 1.8278817553329887 35.570130638970305 10.0
    vertex 2.9999999999999996 43.0 10.0
  endloop
endfacet
facet normal -0.0 -0.0 1.0
  outer loop
    vertex 2.9999999999999996 43.0 10.0
    vertex 1.8278817553329887 35.570130638970305 10.0
    vertex 2.4942937698333774 33.09110898932429 10.0
  endloop
endfacet
facet normal -0.0 -0.0 1.0
  outer loop
    vertex 2.9999999999999996 43.0 10.0
    vertex 2.4942937698333774 33.09110898932429 10.0
    vertex 2.9963550074919567 30.57365237080534 10.0
  endloop
endfacet
facet normal -0.0 -0.0 1.0
  outer loop
    vertex 2.9999999999999996 43.0 10.0
    vertex 2.9963550074919567 30.57365237080534 10.0
    vertex 2.9999999999999996 38.0 10.0
  endloop
endfacet
facet normal -1.0 0.0 0.0
  outer loop
    vertex 0.0 0.0 10.0
    vertex 2.7418558368446044e-15 2.5383272677718374 5.650778628921279
    vertex 0.0 0.0 0.0
  endloop
endfacet
facet normal -1.0 0.0 0.0
  outer loop
    vertex 2.7418558368446044e-15 2.5383272677718374 5.650778628921279
    vertex 0.0 0.0 10.0
    vertex 2.7418558368446044e-15 2.7055728090000835 5.940456403667956
  endloop
endfacet
facet normal -1.0 0.0 0.0
  outer loop
    vertex 2.7418558368446044e-15 2.7055728090000835 5.940456403667956
    vertex 0.0 0.0 10.0
    vertex 2.7418558368446044e-15 2.929391029825826 6.18903172076383
  endloop
endfacet
facet normal -1.0 0.0 0.0
  outer loop
    vertex 2.7418558368446044e-15 2.929391029825826 6.18903172076383
    vertex 0.0 0.0 10.0
    vertex 0.0 7.999999999999999 10.0
  endloop
endfacet
facet normal -1.0 0.0 0.0
  outer loop
    vertex 0.0 0.0 0.0
    vertex 2.7418558368446044e-15 2.5383272677718374 5.650778628921279
    vertex 2.7418558368446044e-15 2.4349638388259103 5.332658705308413
  endloop
endfacet
facet normal -1.0 0.0 0.0
  outer loop
    vertex 0.0 0.0 0.0
    vertex 2.7418558368446044e-15 2.4349638388259103 5.332658705308413
    vertex 2.7418558368446044e-15 2.4 5.0
  endloop
endfacet
facet normal -1.0 0.0 0.0
  outer loop
    vertex 2.7418558368446044e-15 2.929391029825826 6.18903172076383
    vertex 0.0 7.999999999999999 10.0
    vertex 2.7418558368446044e-15 3.1999999999999997 6.385640646055102
  endloop
endfacet
facet normal -1.0 0.0 0.0
  outer loop
    vertex 2.7418558368446044e-15 3.1999999999999997 6.385640646055102
    vertex 0.0 7.999999999999999 10.0
    vertex 2.7418558368446044e-15 3.5055728090000837 6.5216904260722455
  endloop
endfacet
facet normal -1.0 0.0 0.0
  outer loop
    vertex 2.7418558368446044e-15 3.5055728090000837 6.5216904260722455
    vertex 0.0 7.999999999999999 10.0
    vertex 2.7418558368446044e-15 3.832754458771755 6.591235032589237
  endloop
endfacet
facet normal -1.0 0.0 0.0
  outer loop
    vertex 2.7418558368446044e-15 3.832754458771755 6.591235032589237
    vertex 0.0 7.999999999999999 10.0
    vertex 2.7418558368446044e-15 4.1672455412282465 6.591235032589236
  endloop
endfacet
facet normal -1.0 0.0 0.0
  outer loop
    vertex 2.7418558368446044e-15 4.1672455412282465 6.591235032589236
    vertex 0.0 7.999999999999999 10.0
    vertex 2.7418558368446044e-15 4.494427190999917 6.521690426072245
  endloop
endfacet
facet normal -1.0 0.0 0.0
  outer loop
    vertex 2.7418558368446044e-15 4.494427190999917 6.521690426072245
    vertex 0.0 7.999999999999999 10.0
    vertex 2.7418558368446044e-15 4.800000000000001 6.3856406460551005
  endloop
endfacet
facet normal -1.0 0.0 0.0
  outer loop
    vertex 2.7418558368446044e-15 4.800000000000001 6.3856406460551005
    vertex 0.0 7.999999999999999 10.0
    vertex 2.7418558368446044e-15 5.070608970174175 6.189031720763829
  endloop
endfacet
facet normal -1.0 0.0 0.0
  outer loop
    vertex 2.7418558368446044e-15 5.070608970174175 6.189031720763829
    vertex 0.0 7.999999999999999 10.0
    vertex 2.7418558368446044e-15 5.294427190999916 5.940456403667955
  endloop
endfacet
facet normal -1.0 0.0 0.0
  outer loop
    vertex 2.7418558368446044e-15 5.294427190999916 5.940456403667955
    vertex 0.0 7.999999999999999 10.0
    vertex 2.7418558368446044e-15 5.461672732228162 5.650778628921279
  endloop
endfacet
facet normal -1.0 0.0 0.0
  outer loop
    vertex 2.7418558368446044e-15 5.461672732228162 5.650778628921279
    vertex 0.0 7.999999999999999 10.0
    vertex 2.7418558368446044e-15 5.565036161174089 5.332658705308414
  endloop
endfacet
facet normal -1.0 0.0 0.0
  outer loop
    vertex 2.7418558368446044e-15 5.565036161174089 5.332658705308414
    vertex 0.0 7.999999999999999 10.0
    vertex 2.7418558368446044e-15 5.6 4.999999999999999
  endloop
endfacet
facet normal -1.0 0.0 0.0
  outer loop
    vertex 0.0 0.0 0.0
    vertex 2.7418558368446044e-15 2.9293910298258266 3.810968279236169
    vertex 0.0 7.999999999999999 0.0
  endloop
endfacet
facet normal -1.0 0.0 0.0
  outer loop
    vertex 2.7418558368446044e-15 2.9293910298258266 3.810968279236169
    vertex 0.0 0.0 0.0
    vertex 2.7418558368446044e-15 2.705572809000084 4.059543596332043
  endloop
endfacet
facet normal -1.0 0.0 0.0
  outer loop
    vertex 2.7418558368446044e-15 2.705572809000084 4.059543596332043
    vertex 0.0 0.0 0.0
    vertex 2.7418558368446044e-15 2.5383272677718383 4.34922137107872
  endloop
endfacet
facet normal -1.0 0.0 0.0
  outer loop
    vertex 2.7418558368446044e-15 2.5383272677718383 4.34922137107872
    vertex 0.0 0.0 0.0
    vertex 2.7418558368446044e-15 2.4349638388259107 4.667341294691585
  endloop
endfacet
facet normal -1.0 0.0 0.0
  outer loop
    vertex 2.7418558368446044e-15 2.4349638388259107 4.667341294691585
    vertex 0.0 0.0 0.0
    vertex 2.7418558368446044e-15 2.4 5.0
  endloop
endfacet
facet normal -1.0 0.0 0.0
  outer loop
    vertex 0.0 7.999999999999999 0.0
    vertex 2.7418558368446044e-15 2.9293910298258266 3.810968279236169
    vertex 2.7418558368446044e-15 3.1999999999999997 3.6143593539448986
  endloop
endfacet
facet normal -1.0 0.0 0.0
  outer loop
    vertex 0.0 7.999999999999999 0.0
    vertex 2.7418558368446044e-15 3.1999999999999997 3.6143593539448986
    vertex 2.7418558368446044e-15 3.5055728090000837 3.478309573927754
  endloop
endfacet
facet normal -1.0 0.0 0.0
  outer loop
    vertex 0.0 7.999999999999999 0.0
    vertex 2.7418558368446044e-15 3.5055728090000837 3.478309573927754
    vertex 2.7418558368446044e-15 3.832754458771754 3.408764967410763
  endloop
endfacet
facet normal -1.0 0.0 0.0
  outer loop
    vertex 0.0 7.999999999999999 0.0
    vertex 2.7418558368446044e-15 3.832754458771754 3.408764967410763
    vertex 2.7418558368446044e-15 4.167245541228246 3.408764967410763
  endloop
endfacet
facet normal -1.0 0.0 0.0
  outer loop
    vertex 0.0 7.999999999999999 0.0
    vertex 2.7418558368446044e-15 4.167245541228246 3.408764967410763
    vertex 2.7418558368446044e-15 4.494427190999915 3.478309573927754
  endloop
endfacet
facet normal -1.0 0.0 0.0
  outer loop
    vertex 0.0 7.999999999999999 0.0
    vertex 2.7418558368446044e-15 4.494427190999915 3.478309573927754
    vertex 2.7418558368446044e-15 4.8 3.6143593539448986
  endloop
endfacet
facet normal -1.0 0.0 0.0
  outer loop
    vertex 0.0 7.999999999999999 0.0
    vertex 2.7418558368446044e-15 4.8 3.6143593539448986
    vertex 2.7418558368446044e-15 5.070608970174173 3.810968279236169
  endloop
endfacet
facet normal -1.0 0.0 0.0
  outer loop
    vertex 0.0 7.999999999999999 0.0
    vertex 2.7418558368446044e-15 5.070608970174173 3.810968279236169
    vertex 2.7418558368446044e-15 5.294427190999915 4.059543596332043
  endloop
endfacet
facet normal -1.0 0.0 0.0
  outer loop
    vertex 0.0 7.999999999999999 0.0
    vertex 2.7418558368446044e-15 5.294427190999915 4.059543596332043
    vertex 2.7418558368446044e-15 5.461672732228161 4.34922137107872
  endloop
endfacet
facet normal -1.0 0.0 0.0
  outer loop
    vertex 0.0 7.999999999999999 0.0
    vertex 2.7418558368446044e-15 5.461672732228161 4.34922137107872
    vertex 2.7418558368446044e-15 5.565036161174088 4.667341294691584
  endloop
endfacet
facet normal -1.0 0.0 0.0
  outer loop
    vertex 0.0 7.999999999999999 0.0
    vertex 2.7418558368446044e-15 5.565036161174088 4.667341294691584
    vertex 2.7418558368446044e-15 5.6 4.999999999999999
  endloop
endfacet
facet normal -1.0 0.0 0.0
  outer loop
    vertex 0.0 7.999999999999999 0.0
    vertex 2.7418558368446044e-15 5.6 4.999999999999999
    vertex 0.0 7.999999999999999 10.0
  endloop
endfacet
facet normal -0.9229899664783784 0.38482401403789995 0.0
  outer loop
    vertex 0.9878555601621924 10.369344783846529 10.0
    vertex 0.0 7.999999999999999 0.0
    vertex 0.0 7.999999999999999 10.0
  endloop
endfacet
facet normal -0.9229899664783784 0.38482401403789995 0.0
  outer loop
    vertex 0.0 7.999999999999999 0.0
    vertex 0.9878555601621924 10.369344783846529 10.0
    vertex 0.9878555601621924 10.369344783846529 0.0
  endloop
endfacet
facet normal -0.9462837487035513 0.3233373887127105 0.0
  outer loop
    vertex 1.81787298526165 12.798485452172548 10.0
    vertex 0.9878555601621924 10.369344783846529 0.0
    vertex 0.9878555601621924 10.369344783846529 10.0
  endloop
endfacet
facet normal -0.9462837487035513 0.3233373887127105 0.0
  outer loop
    vertex 0.9878555601621924 10.369344783846529 0.0
    vertex 1.81787298526165 12.798485452172548 10.0
    vertex 1.81787298526165 12.798485452172548 0.0
  endloop
endfacet
facet normal -0.9654865519313162 0.2604529094477123 0.0
  outer loop
    vertex 2.48646393949717 15.276920330961692 10.0
    vertex 1.81787298526165 12.798485452172548 0.0
    vertex 1.81787298526165 12.798485452172548 10.0
  endloop
endfacet
facet normal -0.9654865519313162 0.2604529094477123 0.0
  outer loop
    vertex 1.81787298526165 12.798485452172548 0.0
    vertex 2.48646393949717 15.276920330961692 10.0
    vertex 2.48646393949717 15.276920330961692 0.0
  endloop
endfacet
facet normal -0.9805153584993667 0.19644243876224596 0.0
  outer loop
    vertex 2.9907379668555394 17.793934637201502 10.0
    vertex 2.48646393949717 15.276920330961692 0.0
    vertex 2.48646393949717 15.276920330961692 10.0
  endloop
endfacet
facet normal -0.9805153584993667 0.19644243876224596 0.0
  outer loop
    vertex 2.48646393949717 15.276920330961692 0.0
    vertex 2.9907379668555394 17.793934637201502 10.0
    vertex 2.9907379668555394 17.793934637201502 0.0
  endloop
endfacet
facet normal -0.9913051957902269 0.13158270706783606 0.0
  outer loop
    vertex 3.3285149871465687 20.338646801091055 10.0
    vertex 2.9907379668555394 17.793934637201502 0.0
    vertex 2.9907379668555394 17.793934637201502 10.0
  endloop
endfacet
facet normal -0.9913051957902269 0.13158270706783606 0.0
  outer loop
    vertex 2.9907379668555394 17.793934637201502 0.0
    vertex 3.3285149871465687 20.338646801091055 10.0
    vertex 3.3285149871465687 20.338646801091055 0.0
  endloop
endfacet
facet normal -0.9978094171212277 0.0661541163057592 0.0
  outer loop
    vertex 3.4983347209374656 22.900055509302085 10.0
    vertex 3.3285149871465687 20.338646801091055 0.0
    vertex 3.3285149871465687 20.338646801091055 10.0
  endloop
endfacet
facet normal -0.9978094171212277 0.0661541163057592 0.0
  outer loop
    vertex 3.3285149871465687 20.338646801091055 0.0
    vertex 3.4983347209374656 22.900055509302085 10.0
    vertex 3.4983347209374656 22.900055509302085 0.0
  endloop
endfacet
facet normal -0.9999999034076907 0.0004395277118729044 0.0
  outer loop
    vertex 3.4994630026407387 25.46708726591604 10.0
    vertex 3.4983347209374656 22.900055509302085 0.0
    vertex 3.4983347209374656 22.900055509302085 10.0
  endloop
endfacet
facet normal -0.9999999034076907 0.0004395277118729044 0.0
  outer loop
    vertex 3.4983347209374656 22.900055509302085 0.0
    vertex 3.4994630026407387 25.46708726591604 10.0
    vertex 3.4994630026407387 25.46708726591604 0.0
  endloop
endfacet
facet normal -0.9978671847275074 -0.06527696105057915 -0.0
  outer loop
    vertex 3.3318949544628653 28.028644265421217 10.0
    vertex 3.4994630026407387 25.46708726591604 0.0
    vertex 3.4994630026407387 25.46708726591604 10.0
  endloop
endfacet
facet normal -0.9978671847275074 -0.06527696105057915 -0.0
  outer loop
    vertex 3.4994630026407387 25.46708726591604 0.0
    vertex 3.3318949544628653 28.028644265421217 10.0
    vertex 3.3318949544628653 28.028644265421217 0.0
  endloop
endfacet
facet normal -0.9914204812615596 -0.13071124410354962 -0.0
  outer loop
    vertex 2.9963550074919567 30.57365237080534 10.0
    vertex 3.3318949544628653 28.028644265421217 0.0
    vertex 3.3318949544628653 28.028644265421217 10.0
  endloop
endfacet
facet normal -0.9914204812615596 -0.13071124410354962 -0.0
  outer loop
    vertex 3.3318949544628653 28.028644265421217 0.0
    vertex 2.9963550074919567 30.57365237080534 10.0
    vertex 2.9963550074919567 30.57365237080534 0.0
  endloop
endfacet
facet normal -0.9806876634329813 -0.19558043560223404 -0.0
  outer loop
    vertex 2.4942937698333774 33.09110898932429 10.0
    vertex 2.9963550074919567 30.57365237080534 0.0
    vertex 2.9963550074919567 30.57365237080534 10.0
  endloop
endfacet
facet normal -0.9806876634329813 -0.19558043560223404 -0.0
  outer loop
    vertex 2.9963550074919567 30.57365237080534 0.0
    vertex 2.4942937698333774 33.09110898932429 10.0
    vertex 2.4942937698333774 33.09110898932429 0.0
  endloop
endfacet
facet normal -0.9657151314175975 -0.25960409270867196 -0.0
  outer loop
    vertex 1.8278817553329887 35.570130638970305 10.0
    vertex 2.4942937698333774 33.09110898932429 0.0
    vertex 2.4942937698333774 33.09110898932429 10.0
  endloop
endfacet
facet normal -0.9657151314175975 -0.25960409270867196 -0.0
  outer loop
    vertex 2.4942937698333774 33.09110898932429 0.0
    vertex 1.8278817553329887 35.570130638970305 10.0
    vertex 1.8278817553329887 35.570130638970305 0.0
  endloop
endfacet
facet normal -0.9465676145464325 -0.32250542800374166 -0.0
  outer loop
    vertex 0.9999999999999999 38.0 10.0
    vertex 1.8278817553329887 35.570130638970305 0.0
    vertex 1.8278817553329887 35.570130638970305 10.0
  endloop
endfacet
facet normal -0.9465676145464325 -0.32250542800374166 -0.0
  outer loop
    vertex 1.8278817553329887 35.570130638970305 0.0
    vertex 0.9999999999999999 38.0 10.0
    vertex 0.9999999999999999 38.0 0.0
  endloop
endfacet
facet normal -1.0 0.0 0.0
  outer loop
    vertex 0.9999999999999999 43.0 10.0
    vertex 0.9999999999999999 38.0 0.0
    vertex 0.9999999999999999 38.0 10.0
  endloop
endfacet
facet normal -1.0 0.0 0.0
  outer loop
    vertex 0.9999999999999999 38.0 0.0
    vertex 0.9999999999999999 43.0 10.0
    vertex 0.9999999999999999 43.0 0.0
  endloop
endfacet
facet normal -0.0 1.0 0.0
  outer loop
    vertex 0.9999999999999999 43.0 10.0
    vertex 2.9999999999999996 43.0 0.0
    vertex 0.9999999999999999 43.0 0.0
  endloop
endfacet
facet normal -0.0 1.0 0.0
  outer loop
    vertex 2.9999999999999996 43.0 0.0
    vertex 0.9999999999999999 43.0 10.0
    vertex 2.9999999999999996 43.0 10.0
  endloop
endfacet
facet normal 1.0 0.0 0.0
  outer loop
    vertex 2.9999999999999996 43.0 0.0
    vertex 2.9999999999999996 38.0 10.0
    vertex 2.9999999999999996 38.0 0.0
  endloop
endfacet
facet normal 1.0 0.0 0.0
  outer loop
    vertex 2.9999999999999996 38.0 10.0
    vertex 2.9999999999999996 43.0 0.0
    vertex 2.9999999999999996 43.0 10.0
  endloop
endfacet
facet normal 0.9465676145464321 0.3225054280037425 0.0
  outer loop
    vertex 2.9999999999999996 38.0 0.0
    vertex 3.8278817553329905 35.570130638970305 10.0
    vertex 3.8278817553329905 35.570130638970305 0.0
  endloop
endfacet
facet normal 0.9465676145464321 0.3225054280037425 0.0
  outer loop
    vertex 3.8278817553329905 35.570130638970305 10.0
    vertex 2.9999999999999996 38.0 0.0
    vertex 2.9999999999999996 38.0 10.0
  endloop
endfacet
facet normal 0.9657151314175979 0.2596040927086699 0.0
  outer loop
    vertex 3.8278817553329905 35.570130638970305 0.0
    vertex 4.494293769833374 33.09110898932429 10.0
    vertex 4.494293769833374 33.09110898932429 0.0
  endloop
endfacet
facet normal 0.9657151314175979 0.2596040927086699 0.0
  outer loop
    vertex 4.494293769833374 33.09110898932429 10.0
    vertex 3.8278817553329905 35.570130638970305 0.0
    vertex 3.8278817553329905 35.570130638970305 10.0
  endloop
endfacet
facet normal 0.9806876634329813 0.19558043560223404 0.0
  outer loop
    vertex 4.494293769833374 33.09110898932429 0.0
    vertex 4.996355007491953 30.57365237080534 10.0
    vertex 4.996355007491953 30.57365237080534 0.0
  endloop
endfacet
facet normal 0.9806876634329813 0.19558043560223404 0.0
  outer loop
    vertex 4.996355007491953 30.57365237080534 10.0
    vertex 4.494293769833374 33.09110898932429 0.0
    vertex 4.494293769833374 33.09110898932429 10.0
  endloop
endfacet
facet normal 0.9914204812615596 0.13071124410354962 0.0
  outer loop
    vertex 4.996355007491953 30.57365237080534 0.0
    vertex 5.331894954462862 28.028644265421217 10.0
    vertex 5.331894954462862 28.028644265421217 0.0
  endloop
endfacet
facet normal 0.9914204812615596 0.13071124410354962 0.0
  outer loop
    vertex 5.331894954462862 28.028644265421217 10.0
    vertex 4.996355007491953 30.57365237080534 0.0
    vertex 4.996355007491953 30.57365237080534 10.0
  endloop
endfacet
facet normal 0.9978671847275074 0.06527696105057929 0.0
  outer loop
    vertex 5.331894954462862 28.028644265421217 0.0
    vertex 5.499463002640735 25.467087265916046 10.0
    vertex 5.499463002640735 25.467087265916046 0.0
  endloop
endfacet
facet normal 0.9978671847275074 0.06527696105057929 0.0
  outer loop
    vertex 5.499463002640735 25.467087265916046 10.0
    vertex 5.331894954462862 28.028644265421217 0.0
    vertex 5.331894954462862 28.028644265421217 10.0
  endloop
endfacet
facet normal 0.9999999034076907 -0.00043952771187070637 0.0
  outer loop
    vertex 5.499463002640735 25.467087265916046 0.0
    vertex 5.498334720937468 22.900055509302085 10.0
    vertex 5.498334720937468 22.900055509302085 0.0
  endloop
endfacet
facet normal 0.9999999034076907 -0.00043952771187070637 0.0
  outer loop
    vertex 5.498334720937468 22.900055509302085 10.0
    vertex 5.499463002640735 25.467087265916046 0.0
    vertex 5.499463002640735 25.467087265916046 10.0
  endloop
endfacet
facet normal 0.9978094171212277 -0.0661541163057592 0.0
  outer loop
    vertex 5.498334720937468 22.900055509302085 0.0
    vertex 5.328514987146571 20.338646801091055 10.0
    vertex 5.328514987146571 20.338646801091055 0.0
  endloop
endfacet
facet normal 0.9978094171212277 -0.0661541163057592 0.0
  outer loop
    vertex 5.328514987146571 20.338646801091055 10.0
    vertex 5.498334720937468 22.900055509302085 0.0
    vertex 5.498334720937468 22.900055509302085 10.0
  endloop
endfacet
facet normal 0.991305195790227 -0.13158270706783623 0.0
  outer loop
    vertex 5.328514987146571 20.338646801091055 0.0
    vertex 4.990737966855542 17.793934637201506 10.0
    vertex 4.990737966855542 17.793934637201506 0.0
  endloop
endfacet
facet normal 0.991305195790227 -0.13158270706783623 0.0
  outer loop
    vertex 4.990737966855542 17.793934637201506 10.0
    vertex 5.328514987146571 20.338646801091055 0.0
    vertex 5.328514987146571 20.338646801091055 10.0
  endloop
endfacet
facet normal 0.9805153584993666 -0.19644243876224568 0.0
  outer loop
    vertex 4.990737966855542 17.793934637201506 0.0
    vertex 4.486463939497172 15.276920330961692 10.0
    vertex 4.486463939497172 15.276920330961692 0.0
  endloop
endfacet
facet normal 0.9805153584993666 -0.19644243876224568 0.0
  outer loop
    vertex 4.486463939497172 15.276920330961692 10.0
    vertex 4.990737966855542 17.793934637201506 0.0
    vertex 4.990737966855542 17.793934637201506 10.0
  endloop
endfacet
facet normal 0.9654865519313162 -0.2604529094477123 0.0
  outer loop
    vertex 4.486463939497172 15.276920330961692 0.0
    vertex 3.8178729852616518 12.798485452172548 10.0
    vertex 3.8178729852616518 12.798485452172548 0.0
  endloop
endfacet
facet normal 0.9654865519313162 -0.2604529094477123 0.0
  outer loop
    vertex 3.8178729852616518 12.798485452172548 10.0
    vertex 4.486463939497172 15.276920330961692 0.0
    vertex 4.486463939497172 15.276920330961692 10.0
  endloop
endfacet
facet normal 0.946283748703551 -0.3233373887127108 0.0
  outer loop
    vertex 3.8178729852616518 12.798485452172548 0.0
    vertex 2.9878555601621946 10.36934478384653 10.0
    vertex 2.9878555601621946 10.36934478384653 0.0
  endloop
endfacet
facet normal 0.946283748703551 -0.3233373887127108 0.0
  outer loop
    vertex 2.9878555601621946 10.36934478384653 10.0
    vertex 3.8178729852616518 12.798485452172548 0.0
    vertex 3.8178729852616518 12.798485452172548 10.0
  endloop
endfacet
facet normal 0.9229899664783783 -0.3848240140379003 0.0
  outer loop
    vertex 2.9878555601621946 10.36934478384653 0.0
    vertex 1.9999999999999998 7.999999999999999 10.0
    vertex 1.9999999999999998 7.999999999999999 0.0
  endloop
endfacet
facet normal 0.9229899664783783 -0.3848240140379003 0.0
  outer loop
    vertex 1.9999999999999998 7.999999999999999 10.0
    vertex 2.9878555601621946 10.36934478384653 0.0
    vertex 2.9878555601621946 10.36934478384653 10.0
  endloop
endfacet
facet normal 1.0 0.0 0.0
  outer loop
    vertex 1.9999999999999998 0.0 0.0
    vertex 1.9999999999999971 2.5383272677718383 4.34922137107872
    vertex 1.9999999999999998 0.0 10.0
  endloop
endfacet
facet normal 1.0 0.0 0.0
  outer loop
    vertex 1.9999999999999971 2.5383272677718383 4.34922137107872
    vertex 1.9999999999999998 0.0 0.0
    vertex 1.9999999999999971 2.705572809000084 4.059543596332043
  endloop
endfacet
facet normal 1.0 0.0 0.0
  outer loop
    vertex 1.9999999999999971 2.705572809000084 4.059543596332043
    vertex 1.9999999999999998 0.0 0.0
    vertex 1.9999999999999971 2.9293910298258266 3.810968279236169
  endloop
endfacet
facet normal 1.0 0.0 0.0
  outer loop
    vertex 1.9999999999999971 2.9293910298258266 3.810968279236169
    vertex 1.9999999999999998 0.0 0.0
    vertex 1.9999999999999998 7.999999999999999 0.0
  endloop
endfacet
facet normal 1.0 0.0 0.0
  outer loop
    vertex 1.9999999999999998 0.0 10.0
    vertex 1.9999999999999971 2.5383272677718383 4.34922137107872
    vertex 1.9999999999999971 2.4349638388259107 4.667341294691585
  endloop
endfacet
facet normal 1.0 0.0 0.0
  outer loop
    vertex 1.9999999999999998 0.0 10.0
    vertex 1.9999999999999971 2.4349638388259107 4.667341294691585
    vertex 1.9999999999999971 2.4 5.0
  endloop
endfacet
facet normal 1.0 0.0 0.0
  outer loop
    vertex 1.9999999999999971 2.9293910298258266 3.810968279236169
    vertex 1.9999999999999998 7.999999999999999 0.0
    vertex 1.9999999999999971 3.1999999999999997 3.6143593539448986
  endloop
endfacet
facet normal 1.0 0.0 0.0
  outer loop
    vertex 1.9999999999999971 3.1999999999999997 3.6143593539448986
    vertex 1.9999999999999998 7.999999999999999 0.0
    vertex 1.9999999999999971 3.5055728090000837 3.478309573927754
  endloop
endfacet
facet normal 1.0 0.0 0.0
  outer loop
    vertex 1.9999999999999971 3.5055728090000837 3.478309573927754
    vertex 1.9999999999999998 7.999999999999999 0.0
    vertex 1.9999999999999971 3.832754458771754 3.408764967410763
  endloop
endfacet
facet normal 1.0 0.0 0.0
  outer loop
    vertex 1.9999999999999971 3.832754458771754 3.408764967410763
    vertex 1.9999999999999998 7.999999999999999 0.0
    vertex 1.9999999999999971 4.167245541228246 3.408764967410763
  endloop
endfacet
facet normal 1.0 0.0 0.0
  outer loop
    vertex 1.9999999999999971 4.167245541228246 3.408764967410763
    vertex 1.9999999999999998 7.999999999999999 0.0
    vertex 1.9999999999999971 4.494427190999915 3.478309573927754
  endloop
endfacet
facet normal 1.0 0.0 0.0
  outer loop
    vertex 1.9999999999999971 4.494427190999915 3.478309573927754
    vertex 1.9999999999999998 7.999999999999999 0.0
    vertex 1.9999999999999971 4.8 3.6143593539448986
  endloop
endfacet
facet normal 1.0 0.0 0.0
  outer loop
    vertex 1.9999999999999971 4.8 3.6143593539448986
    vertex 1.9999999999999998 7.999999999999999 0.0
    vertex 1.9999999999999971 5.070608970174173 3.810968279236169
  endloop
endfacet
facet normal 1.0 0.0 0.0
  outer loop
    vertex 1.9999999999999971 5.070608970174173 3.810968279236169
    vertex 1.9999999999999998 7.999999999999999 0.0
    vertex 1.9999999999999971 5.294427190999915 4.059543596332043
  endloop
endfacet
facet normal 1.0 0.0 0.0
  outer loop
    vertex 1.9999999999999971 5.294427190999915 4.059543596332043
    vertex 1.9999999999999998 7.999999999999999 0.0
    vertex 1.9999999999999971 5.461672732228161 4.34922137107872
  endloop
endfacet
facet normal 1.0 0.0 0.0
  outer loop
    vertex 1.9999999999999971 5.461672732228161 4.34922137107872
    vertex 1.9999999999999998 7.999999999999999 0.0
    vertex 1.9999999999999971 5.565036161174088 4.667341294691584
  endloop
endfacet
facet normal 1.0 0.0 0.0
  outer loop
    vertex 1.9999999999999971 5.565036161174088 4.667341294691584
    vertex 1.9999999999999998 7.999999999999999 0.0
    vertex 1.9999999999999971 5.6 4.999999999999999
  endloop
endfacet
facet normal 1.0 0.0 0.0
  outer loop
    vertex 1.9999999999999998 0.0 10.0
    vertex 1.9999999999999971 2.929391029825826 6.18903172076383
    vertex 1.9999999999999998 7.999999999999999 10.0
  endloop
endfacet
facet normal 1.0 0.0 0.0
  outer loop
    vertex 1.9999999999999971 2.929391029825826 6.18903172076383
    vertex 1.9999999999999998 0.0 10.0
    vertex 1.9999999999999971 2.7055728090000835 5.940456403667956
  endloop
endfacet
facet normal 1.0 0.0 0.0
  outer loop
    vertex 1.9999999999999971 2.7055728090000835 5.940456403667956
    vertex 1.9999999999999998 0.0 10.0
    vertex 1.9999999999999971 2.5383272677718374 5.650778628921279
  endloop
endfacet
facet normal 1.0 0.0 0.0
  outer loop
    vertex 1.9999999999999971 2.5383272677718374 5.650778628921279
    vertex 1.9999999999999998 0.0 10.0
    vertex 1.9999999999999971 2.4349638388259103 5.332658705308413
  endloop
endfacet
facet normal 1.0 0.0 0.0
  outer loop
    vertex 1.9999999999999971 2.4349638388259103 5.332658705308413
    vertex 1.9999999999999998 0.0 10.0
    vertex 1.9999999999999971 2.4 5.0
  endloop
endfacet
facet normal 1.0 0.0 0.0
  outer loop
    vertex 1.9999999999999998 7.999999999999999 10.0
    vertex 1.9999999999999971 2.929391029825826 6.18903172076383
    vertex 1.9999999999999971 3.1999999999999997 6.385640646055102
  endloop
endfacet
facet normal 1.0 0.0 0.0
  outer loop
    vertex 1.9999999999999998 7.999999999999999 10.0
    vertex 1.9999999999999971 3.1999999999999997 6.385640646055102
    vertex 1.9999999999999971 3.5055728090000837 6.5216904260722455
  endloop
endfacet
facet normal 1.0 0.0 0.0
  outer loop
    vertex 1.9999999999999998 7.999999999999999 10.0
    vertex 1.9999999999999971 3.5055728090000837 6.5216904260722455
    vertex 1.9999999999999971 3.832754458771755 6.591235032589237
  endloop
endfacet
facet normal 1.0 0.0 0.0
  outer loop
    vertex 1.9999999999999998 7.999999999999999 10.0
    vertex 1.9999999999999971 3.832754458771755 6.591235032589237
    vertex 1.9999999999999971 4.1672455412282465 6.591235032589236
  endloop
endfacet
facet normal 1.0 0.0 0.0
  outer loop
    vertex 1.9999999999999998 7.999999999999999 10.0
    vertex 1.9999999999999971 4.1672455412282465 6.591235032589236
    vertex 1.9999999999999971 4.494427190999917 6.521690426072245
  endloop
endfacet
facet normal 1.0 0.0 0.0
  outer loop
    vertex 1.9999999999999998 7.999999999999999 10.0
    vertex 1.9999999999999971 4.494427190999917 6.521690426072245
    vertex 1.9999999999999971 4.800000000000001 6.3856406460551005
  endloop
endfacet
facet normal 1.0 0.0 0.0
  outer loop
    vertex 1.9999999999999998 7.999999999999999 10.0
    vertex 1.9999999999999971 4.800000000000001 6.3856406460551005
    vertex 1.9999999999999971 5.070608970174175 6.189031720763829
  endloop
endfacet
facet normal 1.0 0.0 0.0
  outer loop
    vertex 1.9999999999999998 7.999999999999999 10.0
    vertex 1.9999999999999971 5.070608970174175 6.189031720763829
    vertex 1.9999999999999971 5.294427190999916 5.940456403667955
  endloop
endfacet
facet normal 1.0 0.0 0.0
  outer loop
    vertex 1.9999999999999998 7.999999999999999 10.0
    vertex 1.9999999999999971 5.294427190999916 5.940456403667955
    vertex 1.9999999999999971 5.461672732228162 5.650778628921279
  endloop
endfacet
facet normal 1.0 0.0 0.0
  outer loop
    vertex 1.9999999999999998 7.999999999999999 10.0
    vertex 1.9999999999999971 5.461672732228162 5.650778628921279
    vertex 1.9999999999999971 5.565036161174089 5.332658705308414
  endloop
endfacet
facet normal 1.0 0.0 0.0
  outer loop
    vertex 1.9999999999999998 7.999999999999999 10.0
    vertex 1.9999999999999971 5.565036161174089 5.332658705308414
    vertex 1.9999999999999971 5.6 4.999999999999999
  endloop
endfacet
facet normal 1.0 0.0 0.0
  outer loop
    vertex 1.9999999999999998 7.999999999999999 10.0
    vertex 1.9999999999999971 5.6 4.999999999999999
    vertex 1.9999999999999998 7.999999999999999 0.0
  endloop
endfacet
facet normal -0.0 -1.0 -0.0
  outer loop
    vertex 1.9999999999999998 0.0 10.0
    vertex 0.0 0.0 0.0
    vertex 1.9999999999999998 0.0 0.0
  endloop
endfacet
facet normal -0.0 -1.0 -0.0
  outer loop
    vertex 0.0 0.0 0.0
    vertex 1.9999999999999998 0.0 10.0
    vertex 0.0 0.0 10.0
  endloop
endfacet
facet normal 4.469257499255263e-47 0.9945218953682734 -0.10452846326765303
  outer loop
    vertex 2.7418558368446044e-15 2.4349638388259103 5.332658705308413
    vertex 1.9999999999999971 2.4 5.0
    vertex 2.7418558368446044e-15 2.4 5.0
  endloop
endfacet
facet normal 4.469257499255263e-47 0.9945218953682734 -0.10452846326765303
  outer loop
    vertex 1.9999999999999971 2.4 5.0
    vertex 2.7418558368446044e-15 2.4349638388259103 5.332658705308413
    vertex 1.9999999999999971 2.4349638388259103 5.332658705308413
  endloop
endfacet
facet normal 2.351318375933375e-47 0.9510565162951543 -0.3090169943749456
  outer loop
    vertex 2.7418558368446044e-15 2.5383272677718374 5.650778628921279
    vertex 1.9999999999999971 2.4349638388259103 5.332658705308413
    vertex 2.7418558368446044e-15 2.4349638388259103 5.332658705308413
  endloop
endfacet
facet normal 2.351318375933375e-47 0.9510565162951543 -0.3090169943749456
  outer loop
    vertex 1.9999999999999971 2.4349638388259103 5.332658705308413
    vertex 2.7418558368446044e-15 2.5383272677718374 5.650778628921279
    vertex 1.9999999999999971 2.5383272677718374 5.650778628921279
  endloop
endfacet
facet normal 1.3061535670578394e-48 0.8660254037844389 -0.4999999999999999
  outer loop
    vertex 2.7418558368446044e-15 2.7055728090000835 5.940456403667956
    vertex 1.9999999999999971 2.5383272677718374 5.650778628921279
    vertex 2.7418558368446044e-15 2.5383272677718374 5.650778628921279
  endloop
endfacet
facet normal 1.3061535670578394e-48 0.8660254037844389 -0.4999999999999999
  outer loop
    vertex 1.9999999999999971 2.5383272677718374 5.650778628921279
    vertex 2.7418558368446044e-15 2.7055728090000835 5.940456403667956
    vertex 1.9999999999999971 2.7055728090000835 5.940456403667956
  endloop
endfacet
facet normal -2.0957961803718525e-47 0.7431448254773944 -0.6691306063588582
  outer loop
    vertex 2.7418558368446044e-15 2.929391029825826 6.18903172076383
    vertex 1.9999999999999971 2.7055728090000835 5.940456403667956
    vertex 2.7418558368446044e-15 2.7055728090000835 5.940456403667956
  endloop
endfacet
facet normal -2.0957961803718525e-47 0.7431448254773944 -0.6691306063588582
  outer loop
    vertex 1.9999999999999971 2.7055728090000835 5.940456403667956
    vertex 2.7418558368446044e-15 2.929391029825826 6.18903172076383
    vertex 1.9999999999999971 2.929391029825826 6.18903172076383
  endloop
endfacet
facet normal -4.2306113676213687e-47 0.5877852522924747 -0.8090169943749462
  outer loop
    vertex 1.9999999999999971 3.1999999999999997 6.385640646055102
    vertex 2.7418558368446044e-15 2.929391029825826 6.18903172076383
    vertex 2.7418558368446044e-15 3.1999999999999997 6.385640646055102
  endloop
endfacet
facet normal -4.2306113676213687e-47 0.5877852522924747 -0.8090169943749462
  outer loop
    vertex 2.7418558368446044e-15 2.929391029825826 6.18903172076383
    vertex 1.9999999999999971 3.1999999999999997 6.385640646055102
    vertex 1.9999999999999971 2.929391029825826 6.18903172076383
  endloop
endfacet
facet normal -6.1805285373802035e-47 0.4067366430757995 -0.9135454576426013
  outer loop
    vertex 1.9999999999999971 3.5055728090000837 6.5216904260722455
    vertex 2.7418558368446044e-15 3.1999999999999997 6.385640646055102
    vertex 2.7418558368446044e-15 3.5055728090000837 6.5216904260722455
  endloop
endfacet
facet normal -6.1805285373802035e-47 0.4067366430757995 -0.9135454576426013
  outer loop
    vertex 2.7418558368446044e-15 3.1999999999999997 6.385640646055102
    vertex 1.9999999999999971 3.5055728090000837 6.5216904260722455
    vertex 1.9999999999999971 3.1999999999999997 6.385640646055102
  endloop
endfacet
facet normal -7.86032695258912e-47 0.20791169081775976 -0.9781476007338056
  outer loop
    vertex 1.9999999999999971 3.832754458771755 6.591235032589237
    vertex 2.7418558368446044e-15 3.5055728090000837 6.5216904260722455
    vertex 2.7418558368446044e-15 3.832754458771755 6.591235032589237
  endloop
endfacet
facet normal -7.86032695258912e-47 0.20791169081775976 -0.9781476007338056
  outer loop
    vertex 2.7418558368446044e-15 3.5055728090000837 6.5216904260722455
    vertex 1.9999999999999971 3.832754458771755 6.591235032589237
    vertex 1.9999999999999971 3.5055728090000837 6.5216904260722455
  endloop
endfacet
facet normal -9.19659136193646e-47 -4.21530891322745e-15 -1.0
  outer loop
    vertex 1.9999999999999971 4.1672455412282465 6.591235032589236
    vertex 2.7418558368446044e-15 3.832754458771755 6.591235032589237
    vertex 2.7418558368446044e-15 4.1672455412282465 6.591235032589236
  endloop
endfacet
facet normal -9.19659136193646e-47 -4.21530891322745e-15 -1.0
  outer loop
    vertex 2.7418558368446044e-15 3.832754458771755 6.591235032589237
    vertex 1.9999999999999971 4.1672455412282465 6.591235032589236
    vertex 1.9999999999999971 3.832754458771755 6.591235032589237
  endloop
endfacet
facet normal -1.0130920598625616e-46 -0.20791169081776018 -0.9781476007338055
  outer loop
    vertex 1.9999999999999971 4.494427190999917 6.521690426072245
    vertex 2.7418558368446044e-15 4.1672455412282465 6.591235032589236
    vertex 2.7418558368446044e-15 4.494427190999917 6.521690426072245
  endloop
endfacet
facet normal -1.0130920598625616e-46 -0.20791169081776018 -0.9781476007338055
  outer loop
    vertex 2.7418558368446044e-15 4.1672455412282465 6.591235032589236
    vertex 1.9999999999999971 4.494427190999917 6.521690426072245
    vertex 1.9999999999999971 4.1672455412282465 6.591235032589236
  endloop
endfacet
facet normal -1.062247999160423e-46 -0.4067366430757995 -0.9135454576426013
  outer loop
    vertex 1.9999999999999971 4.800000000000001 6.3856406460551005
    vertex 2.7418558368446044e-15 4.494427190999917 6.521690426072245
    vertex 2.7418558368446044e-15 4.800000000000001 6.3856406460551005
  endloop
endfacet
facet normal -1.062247999160423e-46 -0.4067366430757995 -0.9135454576426013
  outer loop
    vertex 2.7418558368446044e-15 4.494427190999917 6.521690426072245
    vertex 1.9999999999999971 4.800000000000001 6.3856406460551005
    vertex 1.9999999999999971 4.494427190999917 6.521690426072245
  endloop
endfacet
facet normal -1.0649786036635455e-46 -0.5877852522924734 -0.8090169943749473
  outer loop
    vertex 1.9999999999999971 5.070608970174175 6.189031720763829
    vertex 2.7418558368446044e-15 4.800000000000001 6.3856406460551005
    vertex 2.7418558368446044e-15 5.070608970174175 6.189031720763829
  endloop
endfacet
facet normal -1.0649786036635455e-46 -0.5877852522924734 -0.8090169943749473
  outer loop
    vertex 2.7418558368446044e-15 4.800000000000001 6.3856406460551005
    vertex 1.9999999999999971 5.070608970174175 6.189031720763829
    vertex 1.9999999999999971 4.800000000000001 6.3856406460551005
  endloop
endfacet
facet normal -1.0211645328522469e-46 -0.7431448254773965 -0.6691306063588559
  outer loop
    vertex 1.9999999999999971 5.070608970174175 6.189031720763829
    vertex 2.7418558368446044e-15 5.294427190999916 5.940456403667955
    vertex 1.9999999999999971 5.294427190999916 5.940456403667955
  endloop
endfacet
facet normal -1.0211645328522469e-46 -0.7431448254773965 -0.6691306063588559
  outer loop
    vertex 2.7418558368446044e-15 5.294427190999916 5.940456403667955
    vertex 1.9999999999999971 5.070608970174175 6.189031720763829
    vertex 2.7418558368446044e-15 5.070608970174175 6.189031720763829
  endloop
endfacet
facet normal -9.327206718642222e-47 -0.8660254037844383 -0.5000000000000008
  outer loop
    vertex 1.9999999999999971 5.294427190999916 5.940456403667955
    vertex 2.7418558368446044e-15 5.461672732228162 5.650778628921279
    vertex 1.9999999999999971 5.461672732228162 5.650778628921279
  endloop
endfacet
facet normal -9.327206718642222e-47 -0.8660254037844383 -0.5000000000000008
  outer loop
    vertex 2.7418558368446044e-15 5.461672732228162 5.650778628921279
    vertex 1.9999999999999971 5.294427190999916 5.940456403667955
    vertex 2.7418558368446044e-15 5.294427190999916 5.940456403667955
  endloop
endfacet
facet normal -8.035124418253752e-47 -0.9510565162951541 -0.3090169943749463
  outer loop
    vertex 1.9999999999999971 5.461672732228162 5.650778628921279
    vertex 2.7418558368446044e-15 5.565036161174089 5.332658705308414
    vertex 1.9999999999999971 5.565036161174089 5.332658705308414
  endloop
endfacet
facet normal -8.035124418253752e-47 -0.9510565162951541 -0.3090169943749463
  outer loop
    vertex 2.7418558368446044e-15 5.565036161174089 5.332658705308414
    vertex 1.9999999999999971 5.461672732228162 5.650778628921279
    vertex 2.7418558368446044e-15 5.461672732228162 5.650778628921279
  endloop
endfacet
facet normal -6.391868623982835e-47 -0.9945218953682735 -0.1045284632676526
  outer loop
    vertex 1.9999999999999971 5.565036161174089 5.332658705308414
    vertex 2.7418558368446044e-15 5.6 4.999999999999999
    vertex 1.9999999999999971 5.6 4.999999999999999
  endloop
endfacet
facet normal -6.391868623982835e-47 -0.9945218953682735 -0.1045284632676526
  outer loop
    vertex 2.7418558368446044e-15 5.6 4.999999999999999
    vertex 1.9999999999999971 5.565036161174089 5.332658705308414
    vertex 2.7418558368446044e-15 5.565036161174089 5.332658705308414
  endloop
endfacet
facet normal -4.4692574992552475e-47 -0.9945218953682732 0.10452846326765444
  outer loop
    vertex 1.9999999999999971 5.6 4.999999999999999
    vertex 2.7418558368446044e-15 5.565036161174088 4.667341294691584
    vertex 1.9999999999999971 5.565036161174088 4.667341294691584
  endloop
endfacet
facet normal -4.4692574992552475e-47 -0.9945218953682732 0.10452846326765444
  outer loop
    vertex 2.7418558368446044e-15 5.565036161174088 4.667341294691584
    vertex 1.9999999999999971 5.6 4.999999999999999
    vertex 2.7418558368446044e-15 5.6 4.999999999999999
  endloop
endfacet
facet normal -2.3513183759333406e-47 -0.9510565162951532 0.3090169943749488
  outer loop
    vertex 1.9999999999999971 5.565036161174088 4.667341294691584
    vertex 2.7418558368446044e-15 5.461672732228161 4.34922137107872
    vertex 1.9999999999999971 5.461672732228161 4.34922137107872
  endloop
endfacet
facet normal -2.3513183759333406e-47 -0.9510565162951532 0.3090169943749488
  outer loop
    vertex 2.7418558368446044e-15 5.461672732228161 4.34922137107872
    vertex 1.9999999999999971 5.565036161174088 4.667341294691584
    vertex 2.7418558368446044e-15 5.565036161174088 4.667341294691584
  endloop
endfacet
facet normal -1.3061535670580311e-48 -0.8660254037844398 0.4999999999999983
  outer loop
    vertex 1.9999999999999971 5.461672732228161 4.34922137107872
    vertex 2.7418558368446044e-15 5.294427190999915 4.059543596332043
    vertex 1.9999999999999971 5.294427190999915 4.059543596332043
  endloop
endfacet
facet normal -1.3061535670580311e-48 -0.8660254037844398 0.4999999999999983
  outer loop
    vertex 2.7418558368446044e-15 5.294427190999915 4.059543596332043
    vertex 1.9999999999999971 5.461672732228161 4.34922137107872
    vertex 2.7418558368446044e-15 5.461672732228161 4.34922137107872
  endloop
endfacet
facet normal 2.0957961803718513e-47 -0.7431448254773945 0.669130606358858
  outer loop
    vertex 1.9999999999999971 5.294427190999915 4.059543596332043
    vertex 2.7418558368446044e-15 5.070608970174173 3.810968279236169
    vertex 1.9999999999999971 5.070608970174173 3.810968279236169
  endloop
endfacet
facet normal 2.0957961803718513e-47 -0.7431448254773945 0.669130606358858
  outer loop
    vertex 2.7418558368446044e-15 5.070608970174173 3.810968279236169
    vertex 1.9999999999999971 5.294427190999915 4.059543596332043
    vertex 2.7418558368446044e-15 5.294427190999915 4.059543596332043
  endloop
endfacet
facet normal 4.2306113676214023e-47 -0.5877852522924719 0.8090169943749482
  outer loop
    vertex 1.9999999999999971 4.8 3.6143593539448986
    vertex 2.7418558368446044e-15 5.070608970174173 3.810968279236169
    vertex 2.7418558368446044e-15 4.8 3.6143593539448986
  endloop
endfacet
facet normal 4.2306113676214023e-47 -0.5877852522924719 0.8090169943749482
  outer loop
    vertex 2.7418558368446044e-15 5.070608970174173 3.810968279236169
    vertex 1.9999999999999971 4.8 3.6143593539448986
    vertex 1.9999999999999971 5.070608970174173 3.810968279236169
  endloop
endfacet
facet normal 6.180528537380186e-47 -0.4067366430758012 0.9135454576426004
  outer loop
    vertex 1.9999999999999971 4.494427190999915 3.478309573927754
    vertex 2.7418558368446044e-15 4.8 3.6143593539448986
    vertex 2.7418558368446044e-15 4.494427190999915 3.478309573927754
  endloop
endfacet
facet normal 6.180528537380186e-47 -0.4067366430758012 0.9135454576426004
  outer loop
    vertex 2.7418558368446044e-15 4.8 3.6143593539448986
    vertex 1.9999999999999971 4.494427190999915 3.478309573927754
    vertex 1.9999999999999971 4.8 3.6143593539448986
  endloop
endfacet
facet normal 7.860326952589131e-47 -0.20791169081775815 0.9781476007338059
  outer loop
    vertex 1.9999999999999971 4.167245541228246 3.408764967410763
    vertex 2.7418558368446044e-15 4.494427190999915 3.478309573927754
    vertex 2.7418558368446044e-15 4.167245541228246 3.408764967410763
  endloop
endfacet
facet normal 7.860326952589131e-47 -0.20791169081775815 0.9781476007338059
  outer loop
    vertex 2.7418558368446044e-15 4.494427190999915 3.478309573927754
    vertex 1.9999999999999971 4.167245541228246 3.408764967410763
    vertex 1.9999999999999971 4.494427190999915 3.478309573927754
  endloop
endfacet
facet normal 9.196591361936437e-47 0.0 1.0
  outer loop
    vertex 1.9999999999999971 3.832754458771754 3.408764967410763
    vertex 2.7418558368446044e-15 4.167245541228246 3.408764967410763
    vertex 2.7418558368446044e-15 3.832754458771754 3.408764967410763
  endloop
endfacet
facet normal 9.196591361936437e-47 0.0 1.0
  outer loop
    vertex 2.7418558368446044e-15 4.167245541228246 3.408764967410763
    vertex 1.9999999999999971 3.832754458771754 3.408764967410763
    vertex 1.9999999999999971 4.167245541228246 3.408764967410763
  endloop
endfacet
facet normal 1.0130920598625608e-46 0.20791169081775815 0.9781476007338059
  outer loop
    vertex 1.9999999999999971 3.5055728090000837 3.478309573927754
    vertex 2.7418558368446044e-15 3.832754458771754 3.408764967410763
    vertex 2.7418558368446044e-15 3.5055728090000837 3.478309573927754
  endloop
endfacet
facet normal 1.0130920598625608e-46 0.20791169081775815 0.9781476007338059
  outer loop
    vertex 2.7418558368446044e-15 3.832754458771754 3.408764967410763
    vertex 1.9999999999999971 3.5055728090000837 3.478309573927754
    vertex 1.9999999999999971 3.832754458771754 3.408764967410763
  endloop
endfacet
facet normal 1.0622479991604232e-46 0.4067366430758012 0.9135454576426004
  outer loop
    vertex 1.9999999999999971 3.1999999999999997 3.6143593539448986
    vertex 2.7418558368446044e-15 3.5055728090000837 3.478309573927754
    vertex 2.7418558368446044e-15 3.1999999999999997 3.6143593539448986
  endloop
endfacet
facet normal 1.0622479991604232e-46 0.4067366430758012 0.9135454576426004
  outer loop
    vertex 2.7418558368446044e-15 3.5055728090000837 3.478309573927754
    vertex 1.9999999999999971 3.1999999999999997 3.6143593539448986
    vertex 1.9999999999999971 3.5055728090000837 3.478309573927754
  endloop
endfacet
facet normal 1.0649786036635453e-46 0.5877852522924725 0.809016994374948
  outer loop
    vertex 1.9999999999999971 2.9293910298258266 3.810968279236169
    vertex 2.7418558368446044e-15 3.1999999999999997 3.6143593539448986
    vertex 2.7418558368446044e-15 2.9293910298258266 3.810968279236169
  endloop
endfacet
facet normal 1.0649786036635453e-46 0.5877852522924725 0.809016994374948
  outer loop
    vertex 2.7418558368446044e-15 3.1999999999999997 3.6143593539448986
    vertex 1.9999999999999971 2.9293910298258266 3.810968279236169
    vertex 1.9999999999999971 3.1999999999999997 3.6143593539448986
  endloop
endfacet
facet normal 1.0211645328522474e-46 0.7431448254773948 0.6691306063588576
  outer loop
    vertex 2.7418558368446044e-15 2.705572809000084 4.059543596332043
    vertex 1.9999999999999971 2.9293910298258266 3.810968279236169
    vertex 2.7418558368446044e-15 2.9293910298258266 3.810968279236169
  endloop
endfacet
facet normal 1.0211645328522474e-46 0.7431448254773948 0.6691306063588576
  outer loop
    vertex 1.9999999999999971 2.9293910298258266 3.810968279236169
    vertex 2.7418558368446044e-15 2.705572809000084 4.059543596332043
    vertex 1.9999999999999971 2.705572809000084 4.059543596332043
  endloop
endfacet
facet normal 9.327206718642222e-47 0.8660254037844383 0.5000000000000008
  outer loop
    vertex 2.7418558368446044e-15 2.5383272677718383 4.34922137107872
    vertex 1.9999999999999971 2.705572809000084 4.059543596332043
    vertex 2.7418558368446044e-15 2.705572809000084 4.059543596332043
  endloop
endfacet
facet normal 9.327206718642222e-47 0.8660254037844383 0.5000000000000008
  outer loop
    vertex 1.9999999999999971 2.705572809000084 4.059543596332043
    vertex 2.7418558368446044e-15 2.5383272677718383 4.34922137107872
    vertex 1.9999999999999971 2.5383272677718383 4.34922137107872
  endloop
endfacet
facet normal 8.035124418253758e-47 0.9510565162951538 0.30901699437494723
  outer loop
    vertex 2.7418558368446044e-15 2.4349638388259107 4.667341294691585
    vertex 1.9999999999999971 2.5383272677718383 4.34922137107872
    vertex 2.7418558368446044e-15 2.5383272677718383 4.34922137107872
  endloop
endfacet
facet normal 8.035124418253758e-47 0.9510565162951538 0.30901699437494723
  outer loop
    vertex 1.9999999999999971 2.5383272677718383 4.34922137107872
    vertex 2.7418558368446044e-15 2.4349638388259107 4.667341294691585
    vertex 1.9999999999999971 2.4349638388259107 4.667341294691585
  endloop
endfacet
facet normal 6.391868623982841e-47 0.9945218953682734 0.10452846326765342
  outer loop
    vertex 2.7418558368446044e-15 2.4 5.0
    vertex 1.9999999999999971 2.4349638388259107 4.667341294691585
    vertex 2.7418558368446044e-15 2.4349638388259107 4.667341294691585
  endloop
endfacet
facet normal 6.391868623982841e-47 0.9945218953682734 0.10452846326765342
  outer loop
    vertex 1.9999999999999971 2.4349638388259107 4.667341294691585
    vertex 2.7418558368446044e-15 2.4 5.0
    vertex 1.9999999999999971 2.4 5.0
  endloop
endfacet
endsolid Cable_holder
