solid OpenSCAD_Model
  facet normal -1 0 0
    outer loop
      vertex -14.5 -5 0
      vertex -14.5 5 3
      vertex -14.5 5 0
    endloop
  endfacet
  facet normal -1 -0 0
    outer loop
      vertex -14.5 5 3
      vertex -14.5 -5 0
      vertex -14.5 -5 3
    endloop
  endfacet
  facet normal -0 0 1
    outer loop
      vertex 8.75 5 3
      vertex 14.5 -5 3
      vertex 14.5 5 3
    endloop
  endfacet
  facet normal 0 0 1
    outer loop
      vertex 14.5 -5 3
      vertex 8.75 5 3
      vertex 8.75 -5 3
    endloop
  endfacet
  facet normal -0 0 1
    outer loop
      vertex -14.5 5 3
      vertex -8.75 -5 3
      vertex -8.75 5 3
    endloop
  endfacet
  facet normal 0 0 1
    outer loop
      vertex -8.75 -5 3
      vertex -14.5 5 3
      vertex -14.5 -5 3
    endloop
  endfacet
  facet normal 1 -0 0
    outer loop
      vertex 14.5 -5 3
      vertex 14.5 5 0
      vertex 14.5 5 3
    endloop
  endfacet
  facet normal 1 0 0
    outer loop
      vertex 14.5 5 0
      vertex 14.5 -5 3
      vertex 14.5 -5 0
    endloop
  endfacet
  facet normal 0 0 -1
    outer loop
      vertex 14.5 -5 0
      vertex 7.21 0 0
      vertex 14.5 5 0
    endloop
  endfacet
  facet normal 0 0 -1
    outer loop
      vertex 14.5 -5 0
      vertex 7.20462 -0.0339918 0
      vertex 7.21 0 0
    endloop
  endfacet
  facet normal 0 0 -1
    outer loop
      vertex 14.5 -5 0
      vertex 7.10183 -0.682927 0
      vertex 7.20462 -0.0339918 0
    endloop
  endfacet
  facet normal 0 0 -1
    outer loop
      vertex 14.5 -5 0
      vertex 7.08621 -0.713592 0
      vertex 7.10183 -0.682927 0
    endloop
  endfacet
  facet normal 0 0 -1
    outer loop
      vertex 14.5 -5 0
      vertex 6.78793 -1.29901 0
      vertex 7.08621 -0.713592 0
    endloop
  endfacet
  facet normal 0 0 -1
    outer loop
      vertex 14.5 -5 0
      vertex 6.29901 -1.78793 0
      vertex 6.78793 -1.29901 0
    endloop
  endfacet
  facet normal 0 0 -1
    outer loop
      vertex 14.5 -5 0
      vertex 5.71359 -2.08621 0
      vertex 6.29901 -1.78793 0
    endloop
  endfacet
  facet normal 0 0 -1
    outer loop
      vertex 14.5 -5 0
      vertex 5.68293 -2.10183 0
      vertex 5.71359 -2.08621 0
    endloop
  endfacet
  facet normal 0 0 -1
    outer loop
      vertex 14.5 -5 0
      vertex 5.03399 -2.20462 0
      vertex 5.68293 -2.10183 0
    endloop
  endfacet
  facet normal 0 0 -1
    outer loop
      vertex 14.5 -5 0
      vertex 5 -2.21 0
      vertex 5.03399 -2.20462 0
    endloop
  endfacet
  facet normal 0 0 -1
    outer loop
      vertex -5 -2.21 0
      vertex 5 -2.21 0
      vertex 14.5 -5 0
    endloop
  endfacet
  facet normal 0 0 -1
    outer loop
      vertex 5 -2.21 0
      vertex -5 -2.21 0
      vertex 4.96601 -2.20462 0
    endloop
  endfacet
  facet normal 0 0 -1
    outer loop
      vertex -2.79538 -0.0339918 0
      vertex 2.79538 -0.0339918 0
      vertex 2.89817 -0.682927 0
    endloop
  endfacet
  facet normal 0 0 -1
    outer loop
      vertex 2.79538 -0.0339918 0
      vertex -2.79538 -0.0339918 0
      vertex 2.79 0 0
    endloop
  endfacet
  facet normal 0 0 -1
    outer loop
      vertex -2.89817 -0.682927 0
      vertex 2.89817 -0.682927 0
      vertex 2.91379 -0.713592 0
    endloop
  endfacet
  facet normal 0 0 -1
    outer loop
      vertex -2.91379 -0.713592 0
      vertex 2.91379 -0.713592 0
      vertex 3.21207 -1.29901 0
    endloop
  endfacet
  facet normal 0 0 -1
    outer loop
      vertex -3.21207 -1.29901 0
      vertex 3.21207 -1.29901 0
      vertex 3.70099 -1.78793 0
    endloop
  endfacet
  facet normal 0 0 -1
    outer loop
      vertex -3.70099 -1.78793 0
      vertex 3.70099 -1.78793 0
      vertex 4.28641 -2.08621 0
    endloop
  endfacet
  facet normal 0 0 -1
    outer loop
      vertex -4.28641 -2.08621 0
      vertex 4.28641 -2.08621 0
      vertex 4.31707 -2.10183 0
    endloop
  endfacet
  facet normal -0 0 -1
    outer loop
      vertex 2.79 0 0
      vertex -2.79538 -0.0339918 0
      vertex -2.79 0 0
    endloop
  endfacet
  facet normal 0 0 -1
    outer loop
      vertex 2.89817 -0.682927 0
      vertex -2.89817 -0.682927 0
      vertex -2.79538 -0.0339918 0
    endloop
  endfacet
  facet normal 0 -0 -1
    outer loop
      vertex -4.96601 -2.20462 0
      vertex 4.96601 -2.20462 0
      vertex -5 -2.21 0
    endloop
  endfacet
  facet normal 0 0 -1
    outer loop
      vertex 2.91379 -0.713592 0
      vertex -2.91379 -0.713592 0
      vertex -2.89817 -0.682927 0
    endloop
  endfacet
  facet normal 0 0 -1
    outer loop
      vertex 3.21207 -1.29901 0
      vertex -3.21207 -1.29901 0
      vertex -2.91379 -0.713592 0
    endloop
  endfacet
  facet normal 0 0 -1
    outer loop
      vertex 3.70099 -1.78793 0
      vertex -3.70099 -1.78793 0
      vertex -3.21207 -1.29901 0
    endloop
  endfacet
  facet normal 0 0 -1
    outer loop
      vertex 4.28641 -2.08621 0
      vertex -4.28641 -2.08621 0
      vertex -3.70099 -1.78793 0
    endloop
  endfacet
  facet normal 0 0 -1
    outer loop
      vertex 4.31707 -2.10183 0
      vertex -4.31707 -2.10183 0
      vertex -4.28641 -2.08621 0
    endloop
  endfacet
  facet normal -0 0 -1
    outer loop
      vertex 4.31707 -2.10183 0
      vertex -4.96601 -2.20462 0
      vertex -4.31707 -2.10183 0
    endloop
  endfacet
  facet normal 0 0 -1
    outer loop
      vertex 4.96601 -2.20462 0
      vertex -4.96601 -2.20462 0
      vertex 4.31707 -2.10183 0
    endloop
  endfacet
  facet normal 0 0 -1
    outer loop
      vertex -14.5 -5 0
      vertex -5.03399 -2.20462 0
      vertex -5 -2.21 0
    endloop
  endfacet
  facet normal 0 0 -1
    outer loop
      vertex -14.5 -5 0
      vertex -7.08621 -0.713592 0
      vertex -6.78793 -1.29901 0
    endloop
  endfacet
  facet normal 0 0 -1
    outer loop
      vertex -14.5 -5 0
      vertex -7.20462 -0.0339918 0
      vertex -7.10183 -0.682927 0
    endloop
  endfacet
  facet normal -0 0 -1
    outer loop
      vertex -7.20462 -0.0339918 0
      vertex -14.5 -5 0
      vertex -7.21 0 0
    endloop
  endfacet
  facet normal -0 0 -1
    outer loop
      vertex -7.08621 -0.713592 0
      vertex -14.5 -5 0
      vertex -7.10183 -0.682927 0
    endloop
  endfacet
  facet normal -0 0 -1
    outer loop
      vertex -6.29901 -1.78793 0
      vertex -14.5 -5 0
      vertex -6.78793 -1.29901 0
    endloop
  endfacet
  facet normal -0 0 -1
    outer loop
      vertex -5.71359 -2.08621 0
      vertex -14.5 -5 0
      vertex -6.29901 -1.78793 0
    endloop
  endfacet
  facet normal -0 0 -1
    outer loop
      vertex -5.68293 -2.10183 0
      vertex -14.5 -5 0
      vertex -5.71359 -2.08621 0
    endloop
  endfacet
  facet normal -0 0 -1
    outer loop
      vertex -5.03399 -2.20462 0
      vertex -14.5 -5 0
      vertex -5.68293 -2.10183 0
    endloop
  endfacet
  facet normal 0 0 -1
    outer loop
      vertex -14.5 -5 0
      vertex -5 -2.21 0
      vertex 14.5 -5 0
    endloop
  endfacet
  facet normal 0 0 -1
    outer loop
      vertex 7.20462 0.0339918 0
      vertex 14.5 5 0
      vertex 7.21 0 0
    endloop
  endfacet
  facet normal 0 0 -1
    outer loop
      vertex 7.10183 0.682927 0
      vertex 14.5 5 0
      vertex 7.20462 0.0339918 0
    endloop
  endfacet
  facet normal 0 0 -1
    outer loop
      vertex 7.08621 0.713592 0
      vertex 14.5 5 0
      vertex 7.10183 0.682927 0
    endloop
  endfacet
  facet normal 0 0 -1
    outer loop
      vertex 6.78793 1.29901 0
      vertex 14.5 5 0
      vertex 7.08621 0.713592 0
    endloop
  endfacet
  facet normal 0 0 -1
    outer loop
      vertex 6.29901 1.78793 0
      vertex 14.5 5 0
      vertex 6.78793 1.29901 0
    endloop
  endfacet
  facet normal 0 0 -1
    outer loop
      vertex 5.71359 2.08621 0
      vertex 14.5 5 0
      vertex 6.29901 1.78793 0
    endloop
  endfacet
  facet normal 0 0 -1
    outer loop
      vertex 5.68293 2.10183 0
      vertex 14.5 5 0
      vertex 5.71359 2.08621 0
    endloop
  endfacet
  facet normal 0 0 -1
    outer loop
      vertex 5.03399 2.20462 0
      vertex 14.5 5 0
      vertex 5.68293 2.10183 0
    endloop
  endfacet
  facet normal 0 0 -1
    outer loop
      vertex 5 2.21 0
      vertex 14.5 5 0
      vertex 5.03399 2.20462 0
    endloop
  endfacet
  facet normal 0 0 -1
    outer loop
      vertex -5 2.21 0
      vertex 5 2.21 0
      vertex 4.96601 2.20462 0
    endloop
  endfacet
  facet normal 0 0 -1
    outer loop
      vertex -4.96601 2.20462 0
      vertex 4.96601 2.20462 0
      vertex 4.31707 2.10183 0
    endloop
  endfacet
  facet normal 0 0 -1
    outer loop
      vertex -2.79538 0.0339918 0
      vertex 2.79538 0.0339918 0
      vertex 2.79 0 0
    endloop
  endfacet
  facet normal 0 0 -1
    outer loop
      vertex -2.79538 0.0339918 0
      vertex 2.79 0 0
      vertex -2.79 0 0
    endloop
  endfacet
  facet normal 0 0 -1
    outer loop
      vertex 2.79538 0.0339918 0
      vertex -2.79538 0.0339918 0
      vertex 2.89817 0.682927 0
    endloop
  endfacet
  facet normal 0 0 -1
    outer loop
      vertex -2.89817 0.682927 0
      vertex 2.89817 0.682927 0
      vertex -2.79538 0.0339918 0
    endloop
  endfacet
  facet normal 0 0 -1
    outer loop
      vertex 2.89817 0.682927 0
      vertex -2.89817 0.682927 0
      vertex 2.91379 0.713592 0
    endloop
  endfacet
  facet normal 0 0 -1
    outer loop
      vertex -2.91379 0.713592 0
      vertex 2.91379 0.713592 0
      vertex -2.89817 0.682927 0
    endloop
  endfacet
  facet normal 0 0 -1
    outer loop
      vertex 2.91379 0.713592 0
      vertex -2.91379 0.713592 0
      vertex 3.21207 1.29901 0
    endloop
  endfacet
  facet normal 0 0 -1
    outer loop
      vertex -3.21207 1.29901 0
      vertex 3.21207 1.29901 0
      vertex -2.91379 0.713592 0
    endloop
  endfacet
  facet normal 0 0 -1
    outer loop
      vertex 3.21207 1.29901 0
      vertex -3.21207 1.29901 0
      vertex 3.70099 1.78793 0
    endloop
  endfacet
  facet normal 0 0 -1
    outer loop
      vertex -3.70099 1.78793 0
      vertex 3.70099 1.78793 0
      vertex -3.21207 1.29901 0
    endloop
  endfacet
  facet normal 0 0 -1
    outer loop
      vertex 3.70099 1.78793 0
      vertex -3.70099 1.78793 0
      vertex 4.28641 2.08621 0
    endloop
  endfacet
  facet normal 0 0 -1
    outer loop
      vertex -4.28641 2.08621 0
      vertex 4.28641 2.08621 0
      vertex -3.70099 1.78793 0
    endloop
  endfacet
  facet normal 0 0 -1
    outer loop
      vertex 4.28641 2.08621 0
      vertex -4.28641 2.08621 0
      vertex 4.31707 2.10183 0
    endloop
  endfacet
  facet normal 0 0 -1
    outer loop
      vertex -4.31707 2.10183 0
      vertex 4.31707 2.10183 0
      vertex -4.28641 2.08621 0
    endloop
  endfacet
  facet normal 0 0 -1
    outer loop
      vertex -4.96601 2.20462 0
      vertex 4.31707 2.10183 0
      vertex -4.31707 2.10183 0
    endloop
  endfacet
  facet normal 0 0 -1
    outer loop
      vertex 4.96601 2.20462 0
      vertex -4.96601 2.20462 0
      vertex -5 2.21 0
    endloop
  endfacet
  facet normal 0 0 -1
    outer loop
      vertex 5 2.21 0
      vertex -5 2.21 0
      vertex 14.5 5 0
    endloop
  endfacet
  facet normal 0 0 -1
    outer loop
      vertex -14.5 5 0
      vertex -5.03399 2.20462 0
      vertex -5.68293 2.10183 0
    endloop
  endfacet
  facet normal 0 0 -1
    outer loop
      vertex -14.5 5 0
      vertex -7.08621 0.713592 0
      vertex -7.10183 0.682927 0
    endloop
  endfacet
  facet normal 0 0 -1
    outer loop
      vertex -14.5 5 0
      vertex -7.20462 0.0339918 0
      vertex -7.21 0 0
    endloop
  endfacet
  facet normal 0 0 -1
    outer loop
      vertex -14.5 5 0
      vertex -7.21 0 0
      vertex -14.5 -5 0
    endloop
  endfacet
  facet normal 0 0 -1
    outer loop
      vertex -7.20462 0.0339918 0
      vertex -14.5 5 0
      vertex -7.10183 0.682927 0
    endloop
  endfacet
  facet normal 0 0 -1
    outer loop
      vertex -7.08621 0.713592 0
      vertex -14.5 5 0
      vertex -6.78793 1.29901 0
    endloop
  endfacet
  facet normal 0 0 -1
    outer loop
      vertex -5 2.21 0
      vertex -14.5 5 0
      vertex 14.5 5 0
    endloop
  endfacet
  facet normal 0 0 -1
    outer loop
      vertex -5.03399 2.20462 0
      vertex -14.5 5 0
      vertex -5 2.21 0
    endloop
  endfacet
  facet normal 0 0 -1
    outer loop
      vertex -5.71359 2.08621 0
      vertex -14.5 5 0
      vertex -5.68293 2.10183 0
    endloop
  endfacet
  facet normal 0 0 -1
    outer loop
      vertex -6.29901 1.78793 0
      vertex -14.5 5 0
      vertex -5.71359 2.08621 0
    endloop
  endfacet
  facet normal 0 0 -1
    outer loop
      vertex -6.78793 1.29901 0
      vertex -14.5 5 0
      vertex -6.29901 1.78793 0
    endloop
  endfacet
  facet normal 0 -1 0
    outer loop
      vertex -14.5 -5 0
      vertex -8.75 -5 3
      vertex -14.5 -5 3
    endloop
  endfacet
  facet normal 0 -1 -0
    outer loop
      vertex -8.75 -5 3
      vertex -14.5 -5 0
      vertex 8.75 -5 3
    endloop
  endfacet
  facet normal 0 -1 0
    outer loop
      vertex 14.5 -5 0
      vertex 8.75 -5 3
      vertex -14.5 -5 0
    endloop
  endfacet
  facet normal 0 -1 0
    outer loop
      vertex 8.75 -5 3
      vertex 14.5 -5 0
      vertex 14.5 -5 3
    endloop
  endfacet
  facet normal 0 -1 0
    outer loop
      vertex -8.75 -5 3
      vertex 8.75 -5 7.99
      vertex -8.75 -5 7.99
    endloop
  endfacet
  facet normal 0 -1 -0
    outer loop
      vertex 8.75 -5 7.99
      vertex -8.75 -5 3
      vertex 8.75 -5 3
    endloop
  endfacet
  facet normal 0 1 -0
    outer loop
      vertex 14.5 5 0
      vertex 8.75 5 3
      vertex 14.5 5 3
    endloop
  endfacet
  facet normal 0 1 0
    outer loop
      vertex 8.75 5 3
      vertex 14.5 5 0
      vertex -8.75 5 3
    endloop
  endfacet
  facet normal 0 1 0
    outer loop
      vertex -14.5 5 0
      vertex -8.75 5 3
      vertex 14.5 5 0
    endloop
  endfacet
  facet normal 0 1 0
    outer loop
      vertex -8.75 5 3
      vertex -14.5 5 0
      vertex -14.5 5 3
    endloop
  endfacet
  facet normal 0 1 -0
    outer loop
      vertex 8.75 5 3
      vertex -8.75 5 7.99
      vertex 8.75 5 7.99
    endloop
  endfacet
  facet normal 0 1 0
    outer loop
      vertex -8.75 5 7.99
      vertex 8.75 5 3
      vertex -8.75 5 3
    endloop
  endfacet
  facet normal -1 0 0
    outer loop
      vertex -8.75 -5 3
      vertex -8.75 5 7.99
      vertex -8.75 5 3
    endloop
  endfacet
  facet normal -1 -0 0
    outer loop
      vertex -8.75 5 7.99
      vertex -8.75 -5 3
      vertex -8.75 -5 7.99
    endloop
  endfacet
  facet normal 0 0 1
    outer loop
      vertex 8.75 5 7.99
      vertex 6.65 0 7.99
      vertex 8.75 -5 7.99
    endloop
  endfacet
  facet normal 0 0 1
    outer loop
      vertex 8.75 5 7.99
      vertex 6.56924 0.509877 7.99
      vertex 6.65 0 7.99
    endloop
  endfacet
  facet normal 0 0 1
    outer loop
      vertex 8.75 5 7.99
      vertex 6.33488 0.969845 7.99
      vertex 6.56924 0.509877 7.99
    endloop
  endfacet
  facet normal 0 0 1
    outer loop
      vertex 8.75 5 7.99
      vertex 5.96984 1.33488 7.99
      vertex 6.33488 0.969845 7.99
    endloop
  endfacet
  facet normal 0 0 1
    outer loop
      vertex 8.75 5 7.99
      vertex 5.50988 1.56924 7.99
      vertex 5.96984 1.33488 7.99
    endloop
  endfacet
  facet normal 0 0 1
    outer loop
      vertex 8.75 5 7.99
      vertex 5 1.65 7.99
      vertex 5.50988 1.56924 7.99
    endloop
  endfacet
  facet normal 0 0 1
    outer loop
      vertex 8.75 5 7.99
      vertex 4.49012 1.56924 7.99
      vertex 5 1.65 7.99
    endloop
  endfacet
  facet normal 0 0 1
    outer loop
      vertex -4.49012 1.56924 7.99
      vertex 4.49012 1.56924 7.99
      vertex 8.75 5 7.99
    endloop
  endfacet
  facet normal 0 0 1
    outer loop
      vertex 3.43076 0.509877 7.99
      vertex -3.35 0 7.99
      vertex 3.35 0 7.99
    endloop
  endfacet
  facet normal 0 0 1
    outer loop
      vertex -3.43076 0.509877 7.99
      vertex 3.43076 0.509877 7.99
      vertex 3.66512 0.969845 7.99
    endloop
  endfacet
  facet normal 0 0 1
    outer loop
      vertex -3.66512 0.969845 7.99
      vertex 3.66512 0.969845 7.99
      vertex 4.03016 1.33488 7.99
    endloop
  endfacet
  facet normal 0 0 1
    outer loop
      vertex 4.49012 1.56924 7.99
      vertex -4.49012 1.56924 7.99
      vertex 4.03016 1.33488 7.99
    endloop
  endfacet
  facet normal 0 0 1
    outer loop
      vertex 3.43076 0.509877 7.99
      vertex -3.43076 0.509877 7.99
      vertex -3.35 0 7.99
    endloop
  endfacet
  facet normal 0 0 1
    outer loop
      vertex 3.66512 0.969845 7.99
      vertex -3.66512 0.969845 7.99
      vertex -3.43076 0.509877 7.99
    endloop
  endfacet
  facet normal 0 0 1
    outer loop
      vertex 4.03016 1.33488 7.99
      vertex -4.03016 1.33488 7.99
      vertex -3.66512 0.969845 7.99
    endloop
  endfacet
  facet normal 0 0 1
    outer loop
      vertex 4.03016 1.33488 7.99
      vertex -4.49012 1.56924 7.99
      vertex -4.03016 1.33488 7.99
    endloop
  endfacet
  facet normal -0 0 1
    outer loop
      vertex -8.75 5 7.99
      vertex -4.49012 1.56924 7.99
      vertex 8.75 5 7.99
    endloop
  endfacet
  facet normal 0 0 1
    outer loop
      vertex -4.49012 1.56924 7.99
      vertex -8.75 5 7.99
      vertex -5 1.65 7.99
    endloop
  endfacet
  facet normal 0 0 1
    outer loop
      vertex -6.56924 0.509877 7.99
      vertex -8.75 5 7.99
      vertex -6.65 0 7.99
    endloop
  endfacet
  facet normal 0 0 1
    outer loop
      vertex -6.33488 0.969845 7.99
      vertex -8.75 5 7.99
      vertex -6.56924 0.509877 7.99
    endloop
  endfacet
  facet normal 0 0 1
    outer loop
      vertex -5.96984 1.33488 7.99
      vertex -8.75 5 7.99
      vertex -6.33488 0.969845 7.99
    endloop
  endfacet
  facet normal 0 0 1
    outer loop
      vertex -5.50988 1.56924 7.99
      vertex -8.75 5 7.99
      vertex -5.96984 1.33488 7.99
    endloop
  endfacet
  facet normal 0 0 1
    outer loop
      vertex -5 1.65 7.99
      vertex -8.75 5 7.99
      vertex -5.50988 1.56924 7.99
    endloop
  endfacet
  facet normal -0 0 1
    outer loop
      vertex 6.56924 -0.509877 7.99
      vertex 8.75 -5 7.99
      vertex 6.65 0 7.99
    endloop
  endfacet
  facet normal -0 0 1
    outer loop
      vertex 6.33488 -0.969845 7.99
      vertex 8.75 -5 7.99
      vertex 6.56924 -0.509877 7.99
    endloop
  endfacet
  facet normal -0 0 1
    outer loop
      vertex 5.96984 -1.33488 7.99
      vertex 8.75 -5 7.99
      vertex 6.33488 -0.969845 7.99
    endloop
  endfacet
  facet normal -0 0 1
    outer loop
      vertex 5.50988 -1.56924 7.99
      vertex 8.75 -5 7.99
      vertex 5.96984 -1.33488 7.99
    endloop
  endfacet
  facet normal -0 0 1
    outer loop
      vertex 5 -1.65 7.99
      vertex 8.75 -5 7.99
      vertex 5.50988 -1.56924 7.99
    endloop
  endfacet
  facet normal 0 0 1
    outer loop
      vertex 4.49012 -1.56924 7.99
      vertex 8.75 -5 7.99
      vertex 5 -1.65 7.99
    endloop
  endfacet
  facet normal 0 0 1
    outer loop
      vertex -4.49012 -1.56924 7.99
      vertex 4.49012 -1.56924 7.99
      vertex 4.03016 -1.33488 7.99
    endloop
  endfacet
  facet normal -0 0 1
    outer loop
      vertex -3.35 0 7.99
      vertex 3.43076 -0.509877 7.99
      vertex 3.35 0 7.99
    endloop
  endfacet
  facet normal 0 0 1
    outer loop
      vertex -3.43076 -0.509877 7.99
      vertex 3.43076 -0.509877 7.99
      vertex -3.35 0 7.99
    endloop
  endfacet
  facet normal 0 0 1
    outer loop
      vertex 3.43076 -0.509877 7.99
      vertex -3.43076 -0.509877 7.99
      vertex 3.66512 -0.969845 7.99
    endloop
  endfacet
  facet normal 0 0 1
    outer loop
      vertex -3.66512 -0.969845 7.99
      vertex 3.66512 -0.969845 7.99
      vertex -3.43076 -0.509877 7.99
    endloop
  endfacet
  facet normal 0 0 1
    outer loop
      vertex 3.66512 -0.969845 7.99
      vertex -3.66512 -0.969845 7.99
      vertex 4.03016 -1.33488 7.99
    endloop
  endfacet
  facet normal 0 0 1
    outer loop
      vertex -4.03016 -1.33488 7.99
      vertex 4.03016 -1.33488 7.99
      vertex -3.66512 -0.969845 7.99
    endloop
  endfacet
  facet normal 0 0 1
    outer loop
      vertex -4.49012 -1.56924 7.99
      vertex 4.03016 -1.33488 7.99
      vertex -4.03016 -1.33488 7.99
    endloop
  endfacet
  facet normal 0 0 1
    outer loop
      vertex 4.49012 -1.56924 7.99
      vertex -4.49012 -1.56924 7.99
      vertex 8.75 -5 7.99
    endloop
  endfacet
  facet normal 0 0 1
    outer loop
      vertex -8.75 -5 7.99
      vertex -4.49012 -1.56924 7.99
      vertex -5 -1.65 7.99
    endloop
  endfacet
  facet normal 0 0 1
    outer loop
      vertex -8.75 -5 7.99
      vertex -5 -1.65 7.99
      vertex -5.50988 -1.56924 7.99
    endloop
  endfacet
  facet normal 0 0 1
    outer loop
      vertex -8.75 -5 7.99
      vertex -6.65 0 7.99
      vertex -8.75 5 7.99
    endloop
  endfacet
  facet normal 0 0 1
    outer loop
      vertex -4.49012 -1.56924 7.99
      vertex -8.75 -5 7.99
      vertex 8.75 -5 7.99
    endloop
  endfacet
  facet normal 0 0 1
    outer loop
      vertex -5.96984 -1.33488 7.99
      vertex -8.75 -5 7.99
      vertex -5.50988 -1.56924 7.99
    endloop
  endfacet
  facet normal 0 0 1
    outer loop
      vertex -6.33488 -0.969845 7.99
      vertex -8.75 -5 7.99
      vertex -5.96984 -1.33488 7.99
    endloop
  endfacet
  facet normal 0 0 1
    outer loop
      vertex -6.56924 -0.509877 7.99
      vertex -8.75 -5 7.99
      vertex -6.33488 -0.969845 7.99
    endloop
  endfacet
  facet normal 0 0 1
    outer loop
      vertex -6.65 0 7.99
      vertex -8.75 -5 7.99
      vertex -6.56924 -0.509877 7.99
    endloop
  endfacet
  facet normal 1 -0 0
    outer loop
      vertex 8.75 -5 7.99
      vertex 8.75 5 3
      vertex 8.75 5 7.99
    endloop
  endfacet
  facet normal 1 0 0
    outer loop
      vertex 8.75 5 3
      vertex 8.75 -5 7.99
      vertex 8.75 -5 3
    endloop
  endfacet
  facet normal -0.918611 -0.145392 -0.367444
    outer loop
      vertex 6.65 0 1.4
      vertex 7.20462 0.0339918 0
      vertex 7.21 0 0
    endloop
  endfacet
  facet normal -0.918596 -0.145497 -0.367441
    outer loop
      vertex 7.20462 0.0339918 0
      vertex 6.65 0 1.4
      vertex 6.56924 0.509877 1.4
    endloop
  endfacet
  facet normal -0.918595 -0.145504 -0.367439
    outer loop
      vertex 7.10183 0.682927 0
      vertex 7.20462 0.0339918 0
      vertex 6.56924 0.509877 1.4
    endloop
  endfacet
  facet normal 0.918611 0.145392 -0.367444
    outer loop
      vertex 3.35 0 1.4
      vertex 2.79538 -0.0339918 0
      vertex 2.79 0 0
    endloop
  endfacet
  facet normal 0.918596 0.145497 -0.367441
    outer loop
      vertex 2.79538 -0.0339918 0
      vertex 3.35 0 1.4
      vertex 3.43076 -0.509877 1.4
    endloop
  endfacet
  facet normal -0.828681 -0.422227 -0.36744
    outer loop
      vertex 6.78793 1.29901 0
      vertex 7.08621 0.713592 0
      vertex 6.33488 0.969845 1.4
    endloop
  endfacet
  facet normal -0.657637 -0.657646 -0.367444
    outer loop
      vertex 6.29901 1.78793 0
      vertex 6.33488 0.969845 1.4
      vertex 5.96984 1.33488 1.4
    endloop
  endfacet
  facet normal -0.657642 -0.657642 -0.367441
    outer loop
      vertex 6.33488 0.969845 1.4
      vertex 6.29901 1.78793 0
      vertex 6.78793 1.29901 0
    endloop
  endfacet
  facet normal 0.145399 0.91861 -0.367444
    outer loop
      vertex 4.96601 -2.20462 0
      vertex 5 -1.65 1.4
      vertex 5 -2.21 0
    endloop
  endfacet
  facet normal 0.145497 0.918596 -0.367441
    outer loop
      vertex 5 -1.65 1.4
      vertex 4.96601 -2.20462 0
      vertex 4.49012 -1.56924 1.4
    endloop
  endfacet
  facet normal 0.918595 -0.145504 -0.367439
    outer loop
      vertex 2.89817 0.682927 0
      vertex 3.43076 0.509877 1.4
      vertex 2.79538 0.0339918 0
    endloop
  endfacet
  facet normal 0.422225 -0.828681 -0.367441
    outer loop
      vertex 4.28641 2.08621 0
      vertex 4.03016 1.33488 1.4
      vertex 3.70099 1.78793 0
    endloop
  endfacet
  facet normal 0.145497 -0.918596 -0.367441
    outer loop
      vertex 4.96601 2.20462 0
      vertex 5 1.65 1.4
      vertex 4.49012 1.56924 1.4
    endloop
  endfacet
  facet normal 0.145399 -0.91861 -0.367444
    outer loop
      vertex 5 1.65 1.4
      vertex 4.96601 2.20462 0
      vertex 5 2.21 0
    endloop
  endfacet
  facet normal 0.828681 0.422227 -0.36744
    outer loop
      vertex 3.66512 -0.969845 1.4
      vertex 3.21207 -1.29901 0
      vertex 2.91379 -0.713592 0
    endloop
  endfacet
  facet normal 0.918595 0.145504 -0.367439
    outer loop
      vertex 3.43076 -0.509877 1.4
      vertex 2.89817 -0.682927 0
      vertex 2.79538 -0.0339918 0
    endloop
  endfacet
  facet normal 0.828727 0.422133 -0.367444
    outer loop
      vertex 3.43076 -0.509877 1.4
      vertex 2.91379 -0.713592 0
      vertex 2.89817 -0.682927 0
    endloop
  endfacet
  facet normal 0.828682 0.422225 -0.367441
    outer loop
      vertex 2.91379 -0.713592 0
      vertex 3.43076 -0.509877 1.4
      vertex 3.66512 -0.969845 1.4
    endloop
  endfacet
  facet normal -0.657642 0.657642 -0.367441
    outer loop
      vertex 6.29901 -1.78793 0
      vertex 6.33488 -0.969845 1.4
      vertex 6.78793 -1.29901 0
    endloop
  endfacet
  facet normal -0.657637 0.657646 -0.367444
    outer loop
      vertex 6.33488 -0.969845 1.4
      vertex 6.29901 -1.78793 0
      vertex 5.96984 -1.33488 1.4
    endloop
  endfacet
  facet normal -0.422231 0.828679 -0.367439
    outer loop
      vertex 5.71359 -2.08621 0
      vertex 5.50988 -1.56924 1.4
      vertex 5.96984 -1.33488 1.4
    endloop
  endfacet
  facet normal -0.422188 0.8287 -0.367441
    outer loop
      vertex 5.50988 -1.56924 1.4
      vertex 5.71359 -2.08621 0
      vertex 5.68293 -2.10183 0
    endloop
  endfacet
  facet normal -0.828681 0.422227 -0.36744
    outer loop
      vertex 7.08621 -0.713592 0
      vertex 6.78793 -1.29901 0
      vertex 6.33488 -0.969845 1.4
    endloop
  endfacet
  facet normal 0.918596 -0.145497 -0.367441
    outer loop
      vertex 3.35 0 1.4
      vertex 2.79538 0.0339918 0
      vertex 3.43076 0.509877 1.4
    endloop
  endfacet
  facet normal 0.918611 -0.145392 -0.367444
    outer loop
      vertex 2.79538 0.0339918 0
      vertex 3.35 0 1.4
      vertex 2.79 0 0
    endloop
  endfacet
  facet normal -0.828727 -0.422133 -0.367444
    outer loop
      vertex 6.56924 0.509877 1.4
      vertex 7.08621 0.713592 0
      vertex 7.10183 0.682927 0
    endloop
  endfacet
  facet normal -0.828682 -0.422225 -0.367441
    outer loop
      vertex 7.08621 0.713592 0
      vertex 6.56924 0.509877 1.4
      vertex 6.33488 0.969845 1.4
    endloop
  endfacet
  facet normal -0.422225 -0.828681 -0.367441
    outer loop
      vertex 6.29901 1.78793 0
      vertex 5.96984 1.33488 1.4
      vertex 5.71359 2.08621 0
    endloop
  endfacet
  facet normal -0.145399 -0.91861 -0.367444
    outer loop
      vertex 5.03399 2.20462 0
      vertex 5 1.65 1.4
      vertex 5 2.21 0
    endloop
  endfacet
  facet normal -0.145497 -0.918596 -0.367441
    outer loop
      vertex 5 1.65 1.4
      vertex 5.03399 2.20462 0
      vertex 5.50988 1.56924 1.4
    endloop
  endfacet
  facet normal -0.145503 0.918596 -0.367439
    outer loop
      vertex 5.50988 -1.56924 1.4
      vertex 5.68293 -2.10183 0
      vertex 5.03399 -2.20462 0
    endloop
  endfacet
  facet normal -0.422225 0.828681 -0.367441
    outer loop
      vertex 5.96984 -1.33488 1.4
      vertex 6.29901 -1.78793 0
      vertex 5.71359 -2.08621 0
    endloop
  endfacet
  facet normal -0.828727 0.422133 -0.367444
    outer loop
      vertex 7.08621 -0.713592 0
      vertex 6.56924 -0.509877 1.4
      vertex 7.10183 -0.682927 0
    endloop
  endfacet
  facet normal -0.828682 0.422225 -0.367441
    outer loop
      vertex 6.56924 -0.509877 1.4
      vertex 7.08621 -0.713592 0
      vertex 6.33488 -0.969845 1.4
    endloop
  endfacet
  facet normal 0.828682 -0.422225 -0.367441
    outer loop
      vertex 3.43076 0.509877 1.4
      vertex 2.91379 0.713592 0
      vertex 3.66512 0.969845 1.4
    endloop
  endfacet
  facet normal 0.828727 -0.422133 -0.367444
    outer loop
      vertex 2.91379 0.713592 0
      vertex 3.43076 0.509877 1.4
      vertex 2.89817 0.682927 0
    endloop
  endfacet
  facet normal 0.657642 -0.657642 -0.367441
    outer loop
      vertex 3.70099 1.78793 0
      vertex 3.66512 0.969845 1.4
      vertex 3.21207 1.29901 0
    endloop
  endfacet
  facet normal 0.657637 -0.657646 -0.367444
    outer loop
      vertex 3.66512 0.969845 1.4
      vertex 3.70099 1.78793 0
      vertex 4.03016 1.33488 1.4
    endloop
  endfacet
  facet normal 0.422231 -0.828679 -0.367439
    outer loop
      vertex 4.28641 2.08621 0
      vertex 4.49012 1.56924 1.4
      vertex 4.03016 1.33488 1.4
    endloop
  endfacet
  facet normal 0.422188 -0.8287 -0.367441
    outer loop
      vertex 4.49012 1.56924 1.4
      vertex 4.28641 2.08621 0
      vertex 4.31707 2.10183 0
    endloop
  endfacet
  facet normal 0.145503 -0.918596 -0.367439
    outer loop
      vertex 4.96601 2.20462 0
      vertex 4.49012 1.56924 1.4
      vertex 4.31707 2.10183 0
    endloop
  endfacet
  facet normal -0.422188 -0.8287 -0.367441
    outer loop
      vertex 5.71359 2.08621 0
      vertex 5.50988 1.56924 1.4
      vertex 5.68293 2.10183 0
    endloop
  endfacet
  facet normal -0.422231 -0.828679 -0.367439
    outer loop
      vertex 5.50988 1.56924 1.4
      vertex 5.71359 2.08621 0
      vertex 5.96984 1.33488 1.4
    endloop
  endfacet
  facet normal -0.145503 -0.918596 -0.367439
    outer loop
      vertex 5.68293 2.10183 0
      vertex 5.50988 1.56924 1.4
      vertex 5.03399 2.20462 0
    endloop
  endfacet
  facet normal 0.422188 0.8287 -0.367441
    outer loop
      vertex 4.28641 -2.08621 0
      vertex 4.49012 -1.56924 1.4
      vertex 4.31707 -2.10183 0
    endloop
  endfacet
  facet normal 0.422231 0.828679 -0.367439
    outer loop
      vertex 4.49012 -1.56924 1.4
      vertex 4.28641 -2.08621 0
      vertex 4.03016 -1.33488 1.4
    endloop
  endfacet
  facet normal 0.145503 0.918596 -0.367439
    outer loop
      vertex 4.49012 -1.56924 1.4
      vertex 4.96601 -2.20462 0
      vertex 4.31707 -2.10183 0
    endloop
  endfacet
  facet normal 0.422225 0.828681 -0.367441
    outer loop
      vertex 4.03016 -1.33488 1.4
      vertex 4.28641 -2.08621 0
      vertex 3.70099 -1.78793 0
    endloop
  endfacet
  facet normal 0.657637 0.657646 -0.367444
    outer loop
      vertex 3.70099 -1.78793 0
      vertex 3.66512 -0.969845 1.4
      vertex 4.03016 -1.33488 1.4
    endloop
  endfacet
  facet normal 0.657642 0.657642 -0.367441
    outer loop
      vertex 3.66512 -0.969845 1.4
      vertex 3.70099 -1.78793 0
      vertex 3.21207 -1.29901 0
    endloop
  endfacet
  facet normal -0.145497 0.918596 -0.367441
    outer loop
      vertex 5.03399 -2.20462 0
      vertex 5 -1.65 1.4
      vertex 5.50988 -1.56924 1.4
    endloop
  endfacet
  facet normal -0.145399 0.91861 -0.367444
    outer loop
      vertex 5 -1.65 1.4
      vertex 5.03399 -2.20462 0
      vertex 5 -2.21 0
    endloop
  endfacet
  facet normal -0.918595 0.145504 -0.367439
    outer loop
      vertex 7.20462 -0.0339918 0
      vertex 7.10183 -0.682927 0
      vertex 6.56924 -0.509877 1.4
    endloop
  endfacet
  facet normal -0.918611 0.145392 -0.367444
    outer loop
      vertex 7.20462 -0.0339918 0
      vertex 6.65 0 1.4
      vertex 7.21 0 0
    endloop
  endfacet
  facet normal -0.918596 0.145497 -0.367441
    outer loop
      vertex 6.65 0 1.4
      vertex 7.20462 -0.0339918 0
      vertex 6.56924 -0.509877 1.4
    endloop
  endfacet
  facet normal 0.828681 -0.422227 -0.36744
    outer loop
      vertex 3.21207 1.29901 0
      vertex 3.66512 0.969845 1.4
      vertex 2.91379 0.713592 0
    endloop
  endfacet
  facet normal -0.987687 -0.156441 0
    outer loop
      vertex 6.65 0 1.4
      vertex 6.56924 0.509877 7.99
      vertex 6.56924 0.509877 1.4
    endloop
  endfacet
  facet normal -0.987687 -0.156441 0
    outer loop
      vertex 6.56924 0.509877 7.99
      vertex 6.65 0 1.4
      vertex 6.65 0 7.99
    endloop
  endfacet
  facet normal 0.987687 -0.156441 0
    outer loop
      vertex 3.35 0 7.99
      vertex 3.43076 0.509877 1.4
      vertex 3.43076 0.509877 7.99
    endloop
  endfacet
  facet normal 0.987687 -0.156441 0
    outer loop
      vertex 3.43076 0.509877 1.4
      vertex 3.35 0 7.99
      vertex 3.35 0 1.4
    endloop
  endfacet
  facet normal -0.15644 -0.987687 0
    outer loop
      vertex 5 1.65 1.4
      vertex 5.50988 1.56924 7.99
      vertex 5 1.65 7.99
    endloop
  endfacet
  facet normal -0.15644 -0.987687 -0
    outer loop
      vertex 5.50988 1.56924 7.99
      vertex 5 1.65 1.4
      vertex 5.50988 1.56924 1.4
    endloop
  endfacet
  facet normal -0.707102 -0.707112 0
    outer loop
      vertex 6.33488 0.969845 1.4
      vertex 5.96984 1.33488 7.99
      vertex 5.96984 1.33488 1.4
    endloop
  endfacet
  facet normal -0.707102 -0.707112 0
    outer loop
      vertex 5.96984 1.33488 7.99
      vertex 6.33488 0.969845 1.4
      vertex 6.33488 0.969845 7.99
    endloop
  endfacet
  facet normal -0.891011 -0.453982 0
    outer loop
      vertex 6.56924 0.509877 1.4
      vertex 6.33488 0.969845 7.99
      vertex 6.33488 0.969845 1.4
    endloop
  endfacet
  facet normal -0.891011 -0.453982 0
    outer loop
      vertex 6.33488 0.969845 7.99
      vertex 6.56924 0.509877 1.4
      vertex 6.56924 0.509877 7.99
    endloop
  endfacet
  facet normal -0.453988 -0.891008 0
    outer loop
      vertex 5.50988 1.56924 1.4
      vertex 5.96984 1.33488 7.99
      vertex 5.50988 1.56924 7.99
    endloop
  endfacet
  facet normal -0.453988 -0.891008 -0
    outer loop
      vertex 5.96984 1.33488 7.99
      vertex 5.50988 1.56924 1.4
      vertex 5.96984 1.33488 1.4
    endloop
  endfacet
  facet normal 0.453988 -0.891008 0
    outer loop
      vertex 4.03016 1.33488 1.4
      vertex 4.49012 1.56924 7.99
      vertex 4.03016 1.33488 7.99
    endloop
  endfacet
  facet normal 0.453988 -0.891008 0
    outer loop
      vertex 4.49012 1.56924 7.99
      vertex 4.03016 1.33488 1.4
      vertex 4.49012 1.56924 1.4
    endloop
  endfacet
  facet normal 0.707102 -0.707112 0
    outer loop
      vertex 3.66512 0.969845 7.99
      vertex 4.03016 1.33488 1.4
      vertex 4.03016 1.33488 7.99
    endloop
  endfacet
  facet normal 0.707102 -0.707112 0
    outer loop
      vertex 4.03016 1.33488 1.4
      vertex 3.66512 0.969845 7.99
      vertex 3.66512 0.969845 1.4
    endloop
  endfacet
  facet normal 0.15644 -0.987687 0
    outer loop
      vertex 4.49012 1.56924 1.4
      vertex 5 1.65 7.99
      vertex 4.49012 1.56924 7.99
    endloop
  endfacet
  facet normal 0.15644 -0.987687 0
    outer loop
      vertex 5 1.65 7.99
      vertex 4.49012 1.56924 1.4
      vertex 5 1.65 1.4
    endloop
  endfacet
  facet normal -0.891011 0.453982 0
    outer loop
      vertex 6.33488 -0.969845 1.4
      vertex 6.56924 -0.509877 7.99
      vertex 6.56924 -0.509877 1.4
    endloop
  endfacet
  facet normal -0.891011 0.453982 0
    outer loop
      vertex 6.56924 -0.509877 7.99
      vertex 6.33488 -0.969845 1.4
      vertex 6.33488 -0.969845 7.99
    endloop
  endfacet
  facet normal 0.707102 0.707112 0
    outer loop
      vertex 4.03016 -1.33488 7.99
      vertex 3.66512 -0.969845 1.4
      vertex 3.66512 -0.969845 7.99
    endloop
  endfacet
  facet normal 0.707102 0.707112 0
    outer loop
      vertex 3.66512 -0.969845 1.4
      vertex 4.03016 -1.33488 7.99
      vertex 4.03016 -1.33488 1.4
    endloop
  endfacet
  facet normal 0.987687 0.156441 0
    outer loop
      vertex 3.43076 -0.509877 7.99
      vertex 3.35 0 1.4
      vertex 3.35 0 7.99
    endloop
  endfacet
  facet normal 0.987687 0.156441 0
    outer loop
      vertex 3.35 0 1.4
      vertex 3.43076 -0.509877 7.99
      vertex 3.43076 -0.509877 1.4
    endloop
  endfacet
  facet normal 0.891011 -0.453982 0
    outer loop
      vertex 3.43076 0.509877 7.99
      vertex 3.66512 0.969845 1.4
      vertex 3.66512 0.969845 7.99
    endloop
  endfacet
  facet normal 0.891011 -0.453982 0
    outer loop
      vertex 3.66512 0.969845 1.4
      vertex 3.43076 0.509877 7.99
      vertex 3.43076 0.509877 1.4
    endloop
  endfacet
  facet normal -0.987687 0.156441 0
    outer loop
      vertex 6.56924 -0.509877 1.4
      vertex 6.65 0 7.99
      vertex 6.65 0 1.4
    endloop
  endfacet
  facet normal -0.987687 0.156441 0
    outer loop
      vertex 6.65 0 7.99
      vertex 6.56924 -0.509877 1.4
      vertex 6.56924 -0.509877 7.99
    endloop
  endfacet
  facet normal -0.15644 0.987687 0
    outer loop
      vertex 5.50988 -1.56924 1.4
      vertex 5 -1.65 7.99
      vertex 5.50988 -1.56924 7.99
    endloop
  endfacet
  facet normal -0.15644 0.987687 0
    outer loop
      vertex 5 -1.65 7.99
      vertex 5.50988 -1.56924 1.4
      vertex 5 -1.65 1.4
    endloop
  endfacet
  facet normal -0.707102 0.707112 0
    outer loop
      vertex 5.96984 -1.33488 1.4
      vertex 6.33488 -0.969845 7.99
      vertex 6.33488 -0.969845 1.4
    endloop
  endfacet
  facet normal -0.707102 0.707112 0
    outer loop
      vertex 6.33488 -0.969845 7.99
      vertex 5.96984 -1.33488 1.4
      vertex 5.96984 -1.33488 7.99
    endloop
  endfacet
  facet normal 0.453988 0.891008 -0
    outer loop
      vertex 4.49012 -1.56924 1.4
      vertex 4.03016 -1.33488 7.99
      vertex 4.49012 -1.56924 7.99
    endloop
  endfacet
  facet normal 0.453988 0.891008 0
    outer loop
      vertex 4.03016 -1.33488 7.99
      vertex 4.49012 -1.56924 1.4
      vertex 4.03016 -1.33488 1.4
    endloop
  endfacet
  facet normal 0.891011 0.453982 0
    outer loop
      vertex 3.66512 -0.969845 7.99
      vertex 3.43076 -0.509877 1.4
      vertex 3.43076 -0.509877 7.99
    endloop
  endfacet
  facet normal 0.891011 0.453982 0
    outer loop
      vertex 3.43076 -0.509877 1.4
      vertex 3.66512 -0.969845 7.99
      vertex 3.66512 -0.969845 1.4
    endloop
  endfacet
  facet normal -0.453988 0.891008 0
    outer loop
      vertex 5.96984 -1.33488 1.4
      vertex 5.50988 -1.56924 7.99
      vertex 5.96984 -1.33488 7.99
    endloop
  endfacet
  facet normal -0.453988 0.891008 0
    outer loop
      vertex 5.50988 -1.56924 7.99
      vertex 5.96984 -1.33488 1.4
      vertex 5.50988 -1.56924 1.4
    endloop
  endfacet
  facet normal 0.15644 0.987687 -0
    outer loop
      vertex 5 -1.65 1.4
      vertex 4.49012 -1.56924 7.99
      vertex 5 -1.65 7.99
    endloop
  endfacet
  facet normal 0.15644 0.987687 0
    outer loop
      vertex 4.49012 -1.56924 7.99
      vertex 5 -1.65 1.4
      vertex 4.49012 -1.56924 1.4
    endloop
  endfacet
  facet normal -0.918611 -0.145392 -0.367444
    outer loop
      vertex -3.35 0 1.4
      vertex -2.79538 0.0339918 0
      vertex -2.79 0 0
    endloop
  endfacet
  facet normal -0.918596 -0.145497 -0.367441
    outer loop
      vertex -2.79538 0.0339918 0
      vertex -3.35 0 1.4
      vertex -3.43076 0.509877 1.4
    endloop
  endfacet
  facet normal -0.918595 -0.145504 -0.367439
    outer loop
      vertex -2.89817 0.682927 0
      vertex -2.79538 0.0339918 0
      vertex -3.43076 0.509877 1.4
    endloop
  endfacet
  facet normal 0.918611 0.145392 -0.367444
    outer loop
      vertex -6.65 0 1.4
      vertex -7.20462 -0.0339918 0
      vertex -7.21 0 0
    endloop
  endfacet
  facet normal 0.918596 0.145497 -0.367441
    outer loop
      vertex -7.20462 -0.0339918 0
      vertex -6.65 0 1.4
      vertex -6.56924 -0.509877 1.4
    endloop
  endfacet
  facet normal -0.828681 -0.422227 -0.36744
    outer loop
      vertex -3.21207 1.29901 0
      vertex -2.91379 0.713592 0
      vertex -3.66512 0.969845 1.4
    endloop
  endfacet
  facet normal -0.657637 -0.657646 -0.367444
    outer loop
      vertex -3.70099 1.78793 0
      vertex -3.66512 0.969845 1.4
      vertex -4.03016 1.33488 1.4
    endloop
  endfacet
  facet normal -0.657642 -0.657642 -0.367441
    outer loop
      vertex -3.66512 0.969845 1.4
      vertex -3.70099 1.78793 0
      vertex -3.21207 1.29901 0
    endloop
  endfacet
  facet normal 0.145399 0.91861 -0.367444
    outer loop
      vertex -5.03399 -2.20462 0
      vertex -5 -1.65 1.4
      vertex -5 -2.21 0
    endloop
  endfacet
  facet normal 0.145497 0.918596 -0.367441
    outer loop
      vertex -5 -1.65 1.4
      vertex -5.03399 -2.20462 0
      vertex -5.50988 -1.56924 1.4
    endloop
  endfacet
  facet normal 0.918595 -0.145504 -0.367439
    outer loop
      vertex -7.10183 0.682927 0
      vertex -6.56924 0.509877 1.4
      vertex -7.20462 0.0339918 0
    endloop
  endfacet
  facet normal 0.422225 -0.828681 -0.367441
    outer loop
      vertex -5.71359 2.08621 0
      vertex -5.96984 1.33488 1.4
      vertex -6.29901 1.78793 0
    endloop
  endfacet
  facet normal 0.145497 -0.918596 -0.367441
    outer loop
      vertex -5.03399 2.20462 0
      vertex -5 1.65 1.4
      vertex -5.50988 1.56924 1.4
    endloop
  endfacet
  facet normal 0.145399 -0.91861 -0.367444
    outer loop
      vertex -5 1.65 1.4
      vertex -5.03399 2.20462 0
      vertex -5 2.21 0
    endloop
  endfacet
  facet normal 0.828681 0.422227 -0.36744
    outer loop
      vertex -6.33488 -0.969845 1.4
      vertex -6.78793 -1.29901 0
      vertex -7.08621 -0.713592 0
    endloop
  endfacet
  facet normal 0.918595 0.145504 -0.367439
    outer loop
      vertex -6.56924 -0.509877 1.4
      vertex -7.10183 -0.682927 0
      vertex -7.20462 -0.0339918 0
    endloop
  endfacet
  facet normal 0.828727 0.422133 -0.367444
    outer loop
      vertex -6.56924 -0.509877 1.4
      vertex -7.08621 -0.713592 0
      vertex -7.10183 -0.682927 0
    endloop
  endfacet
  facet normal 0.828682 0.422225 -0.367441
    outer loop
      vertex -7.08621 -0.713592 0
      vertex -6.56924 -0.509877 1.4
      vertex -6.33488 -0.969845 1.4
    endloop
  endfacet
  facet normal -0.657642 0.657642 -0.367441
    outer loop
      vertex -3.70099 -1.78793 0
      vertex -3.66512 -0.969845 1.4
      vertex -3.21207 -1.29901 0
    endloop
  endfacet
  facet normal -0.657637 0.657646 -0.367444
    outer loop
      vertex -3.66512 -0.969845 1.4
      vertex -3.70099 -1.78793 0
      vertex -4.03016 -1.33488 1.4
    endloop
  endfacet
  facet normal -0.422231 0.828679 -0.367439
    outer loop
      vertex -4.28641 -2.08621 0
      vertex -4.49012 -1.56924 1.4
      vertex -4.03016 -1.33488 1.4
    endloop
  endfacet
  facet normal -0.422188 0.8287 -0.367441
    outer loop
      vertex -4.49012 -1.56924 1.4
      vertex -4.28641 -2.08621 0
      vertex -4.31707 -2.10183 0
    endloop
  endfacet
  facet normal -0.828681 0.422227 -0.36744
    outer loop
      vertex -2.91379 -0.713592 0
      vertex -3.21207 -1.29901 0
      vertex -3.66512 -0.969845 1.4
    endloop
  endfacet
  facet normal 0.918596 -0.145497 -0.367441
    outer loop
      vertex -6.65 0 1.4
      vertex -7.20462 0.0339918 0
      vertex -6.56924 0.509877 1.4
    endloop
  endfacet
  facet normal 0.918611 -0.145392 -0.367444
    outer loop
      vertex -7.20462 0.0339918 0
      vertex -6.65 0 1.4
      vertex -7.21 0 0
    endloop
  endfacet
  facet normal -0.828727 -0.422133 -0.367444
    outer loop
      vertex -3.43076 0.509877 1.4
      vertex -2.91379 0.713592 0
      vertex -2.89817 0.682927 0
    endloop
  endfacet
  facet normal -0.828682 -0.422225 -0.367441
    outer loop
      vertex -2.91379 0.713592 0
      vertex -3.43076 0.509877 1.4
      vertex -3.66512 0.969845 1.4
    endloop
  endfacet
  facet normal -0.422225 -0.828681 -0.367441
    outer loop
      vertex -3.70099 1.78793 0
      vertex -4.03016 1.33488 1.4
      vertex -4.28641 2.08621 0
    endloop
  endfacet
  facet normal -0.145399 -0.91861 -0.367444
    outer loop
      vertex -4.96601 2.20462 0
      vertex -5 1.65 1.4
      vertex -5 2.21 0
    endloop
  endfacet
  facet normal -0.145497 -0.918596 -0.367441
    outer loop
      vertex -5 1.65 1.4
      vertex -4.96601 2.20462 0
      vertex -4.49012 1.56924 1.4
    endloop
  endfacet
  facet normal -0.145503 0.918596 -0.367439
    outer loop
      vertex -4.49012 -1.56924 1.4
      vertex -4.31707 -2.10183 0
      vertex -4.96601 -2.20462 0
    endloop
  endfacet
  facet normal -0.422225 0.828681 -0.367441
    outer loop
      vertex -4.03016 -1.33488 1.4
      vertex -3.70099 -1.78793 0
      vertex -4.28641 -2.08621 0
    endloop
  endfacet
  facet normal -0.828727 0.422133 -0.367444
    outer loop
      vertex -2.91379 -0.713592 0
      vertex -3.43076 -0.509877 1.4
      vertex -2.89817 -0.682927 0
    endloop
  endfacet
  facet normal -0.828682 0.422225 -0.367441
    outer loop
      vertex -3.43076 -0.509877 1.4
      vertex -2.91379 -0.713592 0
      vertex -3.66512 -0.969845 1.4
    endloop
  endfacet
  facet normal 0.828682 -0.422225 -0.367441
    outer loop
      vertex -6.56924 0.509877 1.4
      vertex -7.08621 0.713592 0
      vertex -6.33488 0.969845 1.4
    endloop
  endfacet
  facet normal 0.828727 -0.422133 -0.367444
    outer loop
      vertex -7.08621 0.713592 0
      vertex -6.56924 0.509877 1.4
      vertex -7.10183 0.682927 0
    endloop
  endfacet
  facet normal 0.657642 -0.657642 -0.367441
    outer loop
      vertex -6.29901 1.78793 0
      vertex -6.33488 0.969845 1.4
      vertex -6.78793 1.29901 0
    endloop
  endfacet
  facet normal 0.657637 -0.657646 -0.367444
    outer loop
      vertex -6.33488 0.969845 1.4
      vertex -6.29901 1.78793 0
      vertex -5.96984 1.33488 1.4
    endloop
  endfacet
  facet normal 0.422231 -0.828679 -0.367439
    outer loop
      vertex -5.71359 2.08621 0
      vertex -5.50988 1.56924 1.4
      vertex -5.96984 1.33488 1.4
    endloop
  endfacet
  facet normal 0.422188 -0.8287 -0.367441
    outer loop
      vertex -5.50988 1.56924 1.4
      vertex -5.71359 2.08621 0
      vertex -5.68293 2.10183 0
    endloop
  endfacet
  facet normal 0.145503 -0.918596 -0.367439
    outer loop
      vertex -5.03399 2.20462 0
      vertex -5.50988 1.56924 1.4
      vertex -5.68293 2.10183 0
    endloop
  endfacet
  facet normal -0.422188 -0.8287 -0.367441
    outer loop
      vertex -4.28641 2.08621 0
      vertex -4.49012 1.56924 1.4
      vertex -4.31707 2.10183 0
    endloop
  endfacet
  facet normal -0.422231 -0.828679 -0.367439
    outer loop
      vertex -4.49012 1.56924 1.4
      vertex -4.28641 2.08621 0
      vertex -4.03016 1.33488 1.4
    endloop
  endfacet
  facet normal -0.145503 -0.918596 -0.367439
    outer loop
      vertex -4.31707 2.10183 0
      vertex -4.49012 1.56924 1.4
      vertex -4.96601 2.20462 0
    endloop
  endfacet
  facet normal 0.422188 0.8287 -0.367441
    outer loop
      vertex -5.71359 -2.08621 0
      vertex -5.50988 -1.56924 1.4
      vertex -5.68293 -2.10183 0
    endloop
  endfacet
  facet normal 0.422231 0.828679 -0.367439
    outer loop
      vertex -5.50988 -1.56924 1.4
      vertex -5.71359 -2.08621 0
      vertex -5.96984 -1.33488 1.4
    endloop
  endfacet
  facet normal 0.145503 0.918596 -0.367439
    outer loop
      vertex -5.50988 -1.56924 1.4
      vertex -5.03399 -2.20462 0
      vertex -5.68293 -2.10183 0
    endloop
  endfacet
  facet normal 0.422225 0.828681 -0.367441
    outer loop
      vertex -5.96984 -1.33488 1.4
      vertex -5.71359 -2.08621 0
      vertex -6.29901 -1.78793 0
    endloop
  endfacet
  facet normal 0.657637 0.657646 -0.367444
    outer loop
      vertex -6.29901 -1.78793 0
      vertex -6.33488 -0.969845 1.4
      vertex -5.96984 -1.33488 1.4
    endloop
  endfacet
  facet normal 0.657642 0.657642 -0.367441
    outer loop
      vertex -6.33488 -0.969845 1.4
      vertex -6.29901 -1.78793 0
      vertex -6.78793 -1.29901 0
    endloop
  endfacet
  facet normal -0.145497 0.918596 -0.367441
    outer loop
      vertex -4.96601 -2.20462 0
      vertex -5 -1.65 1.4
      vertex -4.49012 -1.56924 1.4
    endloop
  endfacet
  facet normal -0.145399 0.91861 -0.367444
    outer loop
      vertex -5 -1.65 1.4
      vertex -4.96601 -2.20462 0
      vertex -5 -2.21 0
    endloop
  endfacet
  facet normal -0.918595 0.145504 -0.367439
    outer loop
      vertex -2.79538 -0.0339918 0
      vertex -2.89817 -0.682927 0
      vertex -3.43076 -0.509877 1.4
    endloop
  endfacet
  facet normal -0.918611 0.145392 -0.367444
    outer loop
      vertex -2.79538 -0.0339918 0
      vertex -3.35 0 1.4
      vertex -2.79 0 0
    endloop
  endfacet
  facet normal -0.918596 0.145497 -0.367441
    outer loop
      vertex -3.35 0 1.4
      vertex -2.79538 -0.0339918 0
      vertex -3.43076 -0.509877 1.4
    endloop
  endfacet
  facet normal 0.828681 -0.422227 -0.36744
    outer loop
      vertex -6.78793 1.29901 0
      vertex -6.33488 0.969845 1.4
      vertex -7.08621 0.713592 0
    endloop
  endfacet
  facet normal -0.987687 -0.156441 0
    outer loop
      vertex -3.35 0 1.4
      vertex -3.43076 0.509877 7.99
      vertex -3.43076 0.509877 1.4
    endloop
  endfacet
  facet normal -0.987687 -0.156441 0
    outer loop
      vertex -3.43076 0.509877 7.99
      vertex -3.35 0 1.4
      vertex -3.35 0 7.99
    endloop
  endfacet
  facet normal 0.987687 -0.156441 0
    outer loop
      vertex -6.65 0 7.99
      vertex -6.56924 0.509877 1.4
      vertex -6.56924 0.509877 7.99
    endloop
  endfacet
  facet normal 0.987687 -0.156441 0
    outer loop
      vertex -6.56924 0.509877 1.4
      vertex -6.65 0 7.99
      vertex -6.65 0 1.4
    endloop
  endfacet
  facet normal -0.15644 -0.987687 0
    outer loop
      vertex -5 1.65 1.4
      vertex -4.49012 1.56924 7.99
      vertex -5 1.65 7.99
    endloop
  endfacet
  facet normal -0.15644 -0.987687 -0
    outer loop
      vertex -4.49012 1.56924 7.99
      vertex -5 1.65 1.4
      vertex -4.49012 1.56924 1.4
    endloop
  endfacet
  facet normal 0.15644 0.987687 -0
    outer loop
      vertex -5 -1.65 1.4
      vertex -5.50988 -1.56924 7.99
      vertex -5 -1.65 7.99
    endloop
  endfacet
  facet normal 0.15644 0.987687 0
    outer loop
      vertex -5.50988 -1.56924 7.99
      vertex -5 -1.65 1.4
      vertex -5.50988 -1.56924 1.4
    endloop
  endfacet
  facet normal -0.707102 -0.707112 0
    outer loop
      vertex -3.66512 0.969845 1.4
      vertex -4.03016 1.33488 7.99
      vertex -4.03016 1.33488 1.4
    endloop
  endfacet
  facet normal -0.707102 -0.707112 0
    outer loop
      vertex -4.03016 1.33488 7.99
      vertex -3.66512 0.969845 1.4
      vertex -3.66512 0.969845 7.99
    endloop
  endfacet
  facet normal -0.891011 -0.453982 0
    outer loop
      vertex -3.43076 0.509877 1.4
      vertex -3.66512 0.969845 7.99
      vertex -3.66512 0.969845 1.4
    endloop
  endfacet
  facet normal -0.891011 -0.453982 0
    outer loop
      vertex -3.66512 0.969845 7.99
      vertex -3.43076 0.509877 1.4
      vertex -3.43076 0.509877 7.99
    endloop
  endfacet
  facet normal -0.453988 -0.891008 0
    outer loop
      vertex -4.49012 1.56924 1.4
      vertex -4.03016 1.33488 7.99
      vertex -4.49012 1.56924 7.99
    endloop
  endfacet
  facet normal -0.453988 -0.891008 -0
    outer loop
      vertex -4.03016 1.33488 7.99
      vertex -4.49012 1.56924 1.4
      vertex -4.03016 1.33488 1.4
    endloop
  endfacet
  facet normal 0.453988 -0.891008 0
    outer loop
      vertex -5.96984 1.33488 1.4
      vertex -5.50988 1.56924 7.99
      vertex -5.96984 1.33488 7.99
    endloop
  endfacet
  facet normal 0.453988 -0.891008 0
    outer loop
      vertex -5.50988 1.56924 7.99
      vertex -5.96984 1.33488 1.4
      vertex -5.50988 1.56924 1.4
    endloop
  endfacet
  facet normal 0.707102 -0.707112 0
    outer loop
      vertex -6.33488 0.969845 7.99
      vertex -5.96984 1.33488 1.4
      vertex -5.96984 1.33488 7.99
    endloop
  endfacet
  facet normal 0.707102 -0.707112 0
    outer loop
      vertex -5.96984 1.33488 1.4
      vertex -6.33488 0.969845 7.99
      vertex -6.33488 0.969845 1.4
    endloop
  endfacet
  facet normal 0.15644 -0.987687 0
    outer loop
      vertex -5.50988 1.56924 1.4
      vertex -5 1.65 7.99
      vertex -5.50988 1.56924 7.99
    endloop
  endfacet
  facet normal 0.15644 -0.987687 0
    outer loop
      vertex -5 1.65 7.99
      vertex -5.50988 1.56924 1.4
      vertex -5 1.65 1.4
    endloop
  endfacet
  facet normal -0.891011 0.453982 0
    outer loop
      vertex -3.66512 -0.969845 1.4
      vertex -3.43076 -0.509877 7.99
      vertex -3.43076 -0.509877 1.4
    endloop
  endfacet
  facet normal -0.891011 0.453982 0
    outer loop
      vertex -3.43076 -0.509877 7.99
      vertex -3.66512 -0.969845 1.4
      vertex -3.66512 -0.969845 7.99
    endloop
  endfacet
  facet normal 0.707102 0.707112 0
    outer loop
      vertex -5.96984 -1.33488 7.99
      vertex -6.33488 -0.969845 1.4
      vertex -6.33488 -0.969845 7.99
    endloop
  endfacet
  facet normal 0.707102 0.707112 0
    outer loop
      vertex -6.33488 -0.969845 1.4
      vertex -5.96984 -1.33488 7.99
      vertex -5.96984 -1.33488 1.4
    endloop
  endfacet
  facet normal 0.987687 0.156441 0
    outer loop
      vertex -6.56924 -0.509877 7.99
      vertex -6.65 0 1.4
      vertex -6.65 0 7.99
    endloop
  endfacet
  facet normal 0.987687 0.156441 0
    outer loop
      vertex -6.65 0 1.4
      vertex -6.56924 -0.509877 7.99
      vertex -6.56924 -0.509877 1.4
    endloop
  endfacet
  facet normal 0.891011 -0.453982 0
    outer loop
      vertex -6.56924 0.509877 7.99
      vertex -6.33488 0.969845 1.4
      vertex -6.33488 0.969845 7.99
    endloop
  endfacet
  facet normal 0.891011 -0.453982 0
    outer loop
      vertex -6.33488 0.969845 1.4
      vertex -6.56924 0.509877 7.99
      vertex -6.56924 0.509877 1.4
    endloop
  endfacet
  facet normal -0.987687 0.156441 0
    outer loop
      vertex -3.43076 -0.509877 1.4
      vertex -3.35 0 7.99
      vertex -3.35 0 1.4
    endloop
  endfacet
  facet normal -0.987687 0.156441 0
    outer loop
      vertex -3.35 0 7.99
      vertex -3.43076 -0.509877 1.4
      vertex -3.43076 -0.509877 7.99
    endloop
  endfacet
  facet normal -0.15644 0.987687 0
    outer loop
      vertex -4.49012 -1.56924 1.4
      vertex -5 -1.65 7.99
      vertex -4.49012 -1.56924 7.99
    endloop
  endfacet
  facet normal -0.15644 0.987687 0
    outer loop
      vertex -5 -1.65 7.99
      vertex -4.49012 -1.56924 1.4
      vertex -5 -1.65 1.4
    endloop
  endfacet
  facet normal -0.707102 0.707112 0
    outer loop
      vertex -4.03016 -1.33488 1.4
      vertex -3.66512 -0.969845 7.99
      vertex -3.66512 -0.969845 1.4
    endloop
  endfacet
  facet normal -0.707102 0.707112 0
    outer loop
      vertex -3.66512 -0.969845 7.99
      vertex -4.03016 -1.33488 1.4
      vertex -4.03016 -1.33488 7.99
    endloop
  endfacet
  facet normal 0.453988 0.891008 -0
    outer loop
      vertex -5.50988 -1.56924 1.4
      vertex -5.96984 -1.33488 7.99
      vertex -5.50988 -1.56924 7.99
    endloop
  endfacet
  facet normal 0.453988 0.891008 0
    outer loop
      vertex -5.96984 -1.33488 7.99
      vertex -5.50988 -1.56924 1.4
      vertex -5.96984 -1.33488 1.4
    endloop
  endfacet
  facet normal 0.891011 0.453982 0
    outer loop
      vertex -6.33488 -0.969845 7.99
      vertex -6.56924 -0.509877 1.4
      vertex -6.56924 -0.509877 7.99
    endloop
  endfacet
  facet normal 0.891011 0.453982 0
    outer loop
      vertex -6.56924 -0.509877 1.4
      vertex -6.33488 -0.969845 7.99
      vertex -6.33488 -0.969845 1.4
    endloop
  endfacet
  facet normal -0.453988 0.891008 0
    outer loop
      vertex -4.03016 -1.33488 1.4
      vertex -4.49012 -1.56924 7.99
      vertex -4.03016 -1.33488 7.99
    endloop
  endfacet
  facet normal -0.453988 0.891008 0
    outer loop
      vertex -4.49012 -1.56924 7.99
      vertex -4.03016 -1.33488 1.4
      vertex -4.49012 -1.56924 1.4
    endloop
  endfacet
endsolid OpenSCAD_Model
