solid OpenSCAD_Model
  facet normal 1 -0 0
    outer loop
      vertex 7 2 6
      vertex 7 12.6 2
      vertex 7 12.6 6
    endloop
  endfacet
  facet normal 1 0 0
    outer loop
      vertex 7 12.6 2
      vertex 7 2 6
      vertex 7 2 2
    endloop
  endfacet
  facet normal -1 0 0
    outer loop
      vertex 53 2 2
      vertex 53 12.6 6
      vertex 53 12.6 2
    endloop
  endfacet
  facet normal -1 -0 0
    outer loop
      vertex 53 12.6 6
      vertex 53 2 2
      vertex 53 2 6
    endloop
  endfacet
  facet normal 0 0 1
    outer loop
      vertex 53 12.6 2
      vertex 48.1213 6.7 2
      vertex 53 2 2
    endloop
  endfacet
  facet normal 0 0 1
    outer loop
      vertex 53 12.6 2
      vertex 48 11.1 2
      vertex 48.1213 6.7 2
    endloop
  endfacet
  facet normal -0 0 1
    outer loop
      vertex 7 12.6 2
      vertex 48 11.1 2
      vertex 53 12.6 2
    endloop
  endfacet
  facet normal 0 0 1
    outer loop
      vertex 11.5 11.1 2
      vertex 11.3787 6.7 2
      vertex 11.5 6.7 2
    endloop
  endfacet
  facet normal 0 0 1
    outer loop
      vertex 48 11.1 2
      vertex 7 12.6 2
      vertex 11.5 11.1 2
    endloop
  endfacet
  facet normal 0 0 1
    outer loop
      vertex 7 12.6 2
      vertex 11.3787 6.7 2
      vertex 11.5 11.1 2
    endloop
  endfacet
  facet normal 0 0 1
    outer loop
      vertex 7 2 2
      vertex 11.3787 6.7 2
      vertex 7 12.6 2
    endloop
  endfacet
  facet normal 0 0 1
    outer loop
      vertex 11.3787 6.7 2
      vertex 7 2 2
      vertex 11.3787 2 2
    endloop
  endfacet
  facet normal 0 0 1
    outer loop
      vertex 53 2 2
      vertex 48.1213 6.7 2
      vertex 48.1213 2 2
    endloop
  endfacet
  facet normal 0 0 1
    outer loop
      vertex 48.1213 6.7 2
      vertex 48 11.1 2
      vertex 48 6.7 2
    endloop
  endfacet
  facet normal 0 1 0
    outer loop
      vertex 53 2 6
      vertex 48 2 2.12132
      vertex 7 2 6
    endloop
  endfacet
  facet normal 0 1 0
    outer loop
      vertex 48.1213 2 2
      vertex 53 2 6
      vertex 53 2 2
    endloop
  endfacet
  facet normal 0 1 0
    outer loop
      vertex 53 2 6
      vertex 48.1213 2 2
      vertex 48 2 2.12132
    endloop
  endfacet
  facet normal 0 1 -0
    outer loop
      vertex 11.5 2 2.12132
      vertex 7 2 6
      vertex 48 2 2.12132
    endloop
  endfacet
  facet normal 0 1 -0
    outer loop
      vertex 11.3787 2 2
      vertex 7 2 6
      vertex 11.5 2 2.12132
    endloop
  endfacet
  facet normal 0 1 0
    outer loop
      vertex 7 2 6
      vertex 11.3787 2 2
      vertex 7 2 2
    endloop
  endfacet
  facet normal 0 -1 0
    outer loop
      vertex 7 12.6 2
      vertex 53 12.6 6
      vertex 7 12.6 6
    endloop
  endfacet
  facet normal 0 -1 -0
    outer loop
      vertex 53 12.6 6
      vertex 7 12.6 2
      vertex 53 12.6 2
    endloop
  endfacet
  facet normal 1 -0 0
    outer loop
      vertex 11.5 6.7 2
      vertex 11.5 11.1 0
      vertex 11.5 11.1 2
    endloop
  endfacet
  facet normal 1 0 0
    outer loop
      vertex 11.5 11.1 0
      vertex 11.5 6.7 2
      vertex 11.5 6.7 0
    endloop
  endfacet
  facet normal -1 0 0
    outer loop
      vertex 48 6.7 0
      vertex 48 11.1 2
      vertex 48 11.1 0
    endloop
  endfacet
  facet normal -1 -0 0
    outer loop
      vertex 48 11.1 2
      vertex 48 6.7 0
      vertex 48 6.7 2
    endloop
  endfacet
  facet normal 0 0 -1
    outer loop
      vertex 6.08283 5.53244 0
      vertex 9.37868 6.7 0
      vertex 9.37868 0 0
    endloop
  endfacet
  facet normal 0 0 -1
    outer loop
      vertex 9.37868 6.7 0
      vertex 6.60302 6.78505 0
      vertex 6.65714 7.3 0
    endloop
  endfacet
  facet normal -0 0 -1
    outer loop
      vertex 9.37868 6.7 0
      vertex 6.59143 6.67478 0
      vertex 6.60302 6.78505 0
    endloop
  endfacet
  facet normal 0 0 -1
    outer loop
      vertex 9.37868 6.7 0
      vertex 6.55717 6.56933 0
      vertex 6.59143 6.67478 0
    endloop
  endfacet
  facet normal 0 0 -1
    outer loop
      vertex 9.37868 6.7 0
      vertex 6.39716 6.07688 0
      vertex 6.55717 6.56933 0
    endloop
  endfacet
  facet normal 0 0 -1
    outer loop
      vertex 9.37868 6.7 0
      vertex 6.34172 5.98086 0
      vertex 6.39716 6.07688 0
    endloop
  endfacet
  facet normal 0 0 -1
    outer loop
      vertex 9.37868 6.7 0
      vertex 6.08283 5.53244 0
      vertex 6.34172 5.98086 0
    endloop
  endfacet
  facet normal 0 0 -1
    outer loop
      vertex 9.37868 0 0
      vertex 5.73636 5.14765 0
      vertex 6.08283 5.53244 0
    endloop
  endfacet
  facet normal 0 0 -1
    outer loop
      vertex 9.37868 0 0
      vertex 5.66217 5.06526 0
      vertex 5.73636 5.14765 0
    endloop
  endfacet
  facet normal 0 0 -1
    outer loop
      vertex 9.37868 0 0
      vertex 5.57247 5.00009 0
      vertex 5.66217 5.06526 0
    endloop
  endfacet
  facet normal 0 0 -1
    outer loop
      vertex 9.37868 0 0
      vertex 5.15357 4.69574 0
      vertex 5.57247 5.00009 0
    endloop
  endfacet
  facet normal 0 0 -1
    outer loop
      vertex 9.37868 0 0
      vertex 5.05228 4.65064 0
      vertex 5.15357 4.69574 0
    endloop
  endfacet
  facet normal 0 0 -1
    outer loop
      vertex 9.37868 0 0
      vertex 4.57926 4.44004 0
      vertex 5.05228 4.65064 0
    endloop
  endfacet
  facet normal 0 0 -1
    outer loop
      vertex 9.37868 0 0
      vertex 4.07278 4.33238 0
      vertex 4.57926 4.44004 0
    endloop
  endfacet
  facet normal 0 0 -1
    outer loop
      vertex 9.37868 0 0
      vertex 3.96433 4.30933 0
      vertex 4.07278 4.33238 0
    endloop
  endfacet
  facet normal 0 0 -1
    outer loop
      vertex 0 0 0
      vertex 3.96433 4.30933 0
      vertex 9.37868 0 0
    endloop
  endfacet
  facet normal -0 0 -1
    outer loop
      vertex 3.96433 4.30933 0
      vertex 0 0 0
      vertex 3.33567 4.30933 0
    endloop
  endfacet
  facet normal -0 0 -1
    outer loop
      vertex 3.33567 4.30933 0
      vertex 0 0 0
      vertex 3.22722 4.33238 0
    endloop
  endfacet
  facet normal -0 0 -1
    outer loop
      vertex 3.22722 4.33238 0
      vertex 0 0 0
      vertex 2.72074 4.44004 0
    endloop
  endfacet
  facet normal -0 0 -1
    outer loop
      vertex 2.72074 4.44004 0
      vertex 0 0 0
      vertex 2.24772 4.65064 0
    endloop
  endfacet
  facet normal -0 0 -1
    outer loop
      vertex 0.654446 7.18973 0
      vertex 0 0 0
      vertex 0.642857 7.3 0
    endloop
  endfacet
  facet normal -0 0 -1
    outer loop
      vertex 0.70857 6.67478 0
      vertex 0 0 0
      vertex 0.654446 7.18973 0
    endloop
  endfacet
  facet normal -0 0 -1
    outer loop
      vertex 0.868575 6.18233 0
      vertex 0 0 0
      vertex 0.70857 6.67478 0
    endloop
  endfacet
  facet normal -0 0 -1
    outer loop
      vertex 0.902838 6.07688 0
      vertex 0 0 0
      vertex 0.868575 6.18233 0
    endloop
  endfacet
  facet normal -0 0 -1
    outer loop
      vertex 0.958275 5.98086 0
      vertex 0 0 0
      vertex 0.902838 6.07688 0
    endloop
  endfacet
  facet normal -0 0 -1
    outer loop
      vertex 1.21717 5.53244 0
      vertex 0 0 0
      vertex 0.958275 5.98086 0
    endloop
  endfacet
  facet normal -0 0 -1
    outer loop
      vertex 1.29136 5.45005 0
      vertex 0 0 0
      vertex 1.21717 5.53244 0
    endloop
  endfacet
  facet normal -0 0 -1
    outer loop
      vertex 1.63783 5.06526 0
      vertex 0 0 0
      vertex 1.29136 5.45005 0
    endloop
  endfacet
  facet normal -0 0 -1
    outer loop
      vertex 2.05673 4.76091 0
      vertex 0 0 0
      vertex 1.63783 5.06526 0
    endloop
  endfacet
  facet normal -0 0 -1
    outer loop
      vertex 2.14643 4.69574 0
      vertex 0 0 0
      vertex 2.05673 4.76091 0
    endloop
  endfacet
  facet normal -0 0 -1
    outer loop
      vertex 2.24772 4.65064 0
      vertex 0 0 0
      vertex 2.14643 4.69574 0
    endloop
  endfacet
  facet normal 0 0 -1
    outer loop
      vertex 11.5 6.7 0
      vertex 9.37868 6.7 0
      vertex 11.5 11.1 0
    endloop
  endfacet
  facet normal 0 0 -1
    outer loop
      vertex 60 0 0
      vertex 59.3571 7.3 0
      vertex 60 14.6 0
    endloop
  endfacet
  facet normal 0 0 -1
    outer loop
      vertex 60 0 0
      vertex 59.303 6.78505 0
      vertex 59.3571 7.3 0
    endloop
  endfacet
  facet normal 0 0 -1
    outer loop
      vertex 60 0 0
      vertex 59.2914 6.67478 0
      vertex 59.303 6.78505 0
    endloop
  endfacet
  facet normal 0 0 -1
    outer loop
      vertex 60 0 0
      vertex 59.1314 6.18233 0
      vertex 59.2914 6.67478 0
    endloop
  endfacet
  facet normal 0 0 -1
    outer loop
      vertex 60 0 0
      vertex 59.0972 6.07688 0
      vertex 59.1314 6.18233 0
    endloop
  endfacet
  facet normal 0 0 -1
    outer loop
      vertex 60 0 0
      vertex 59.0417 5.98086 0
      vertex 59.0972 6.07688 0
    endloop
  endfacet
  facet normal 0 0 -1
    outer loop
      vertex 60 0 0
      vertex 58.7828 5.53244 0
      vertex 59.0417 5.98086 0
    endloop
  endfacet
  facet normal 0 0 -1
    outer loop
      vertex 60 0 0
      vertex 58.7086 5.45005 0
      vertex 58.7828 5.53244 0
    endloop
  endfacet
  facet normal 0 0 -1
    outer loop
      vertex 60 0 0
      vertex 58.3622 5.06526 0
      vertex 58.7086 5.45005 0
    endloop
  endfacet
  facet normal 0 0 -1
    outer loop
      vertex 60 0 0
      vertex 57.9433 4.76091 0
      vertex 58.3622 5.06526 0
    endloop
  endfacet
  facet normal 0 0 -1
    outer loop
      vertex 60 0 0
      vertex 57.8536 4.69574 0
      vertex 57.9433 4.76091 0
    endloop
  endfacet
  facet normal 0 0 -1
    outer loop
      vertex 60 0 0
      vertex 57.7523 4.65064 0
      vertex 57.8536 4.69574 0
    endloop
  endfacet
  facet normal 0 0 -1
    outer loop
      vertex 60 0 0
      vertex 57.2793 4.44004 0
      vertex 57.7523 4.65064 0
    endloop
  endfacet
  facet normal 0 0 -1
    outer loop
      vertex 60 0 0
      vertex 56.7728 4.33238 0
      vertex 57.2793 4.44004 0
    endloop
  endfacet
  facet normal 0 0 -1
    outer loop
      vertex 60 0 0
      vertex 56.6643 4.30933 0
      vertex 56.7728 4.33238 0
    endloop
  endfacet
  facet normal 0 0 -1
    outer loop
      vertex 60 0 0
      vertex 56.0357 4.30933 0
      vertex 56.6643 4.30933 0
    endloop
  endfacet
  facet normal 0 0 -1
    outer loop
      vertex 50.1213 0 0
      vertex 56.0357 4.30933 0
      vertex 60 0 0
    endloop
  endfacet
  facet normal -0 0 -1
    outer loop
      vertex 56.0357 4.30933 0
      vertex 50.1213 0 0
      vertex 55.9272 4.33238 0
    endloop
  endfacet
  facet normal -0 0 -1
    outer loop
      vertex 55.9272 4.33238 0
      vertex 50.1213 0 0
      vertex 55.4207 4.44004 0
    endloop
  endfacet
  facet normal -0 0 -1
    outer loop
      vertex 55.4207 4.44004 0
      vertex 50.1213 0 0
      vertex 54.9477 4.65064 0
    endloop
  endfacet
  facet normal -0 0 -1
    outer loop
      vertex 54.9477 4.65064 0
      vertex 50.1213 0 0
      vertex 54.8464 4.69574 0
    endloop
  endfacet
  facet normal -0 0 -1
    outer loop
      vertex 54.8464 4.69574 0
      vertex 50.1213 0 0
      vertex 54.4275 5.00009 0
    endloop
  endfacet
  facet normal 0 0 -1
    outer loop
      vertex 50.1213 6.7 0
      vertex 53.6583 5.98086 0
      vertex 53.9172 5.53244 0
    endloop
  endfacet
  facet normal 0 0 -1
    outer loop
      vertex 50.1213 6.7 0
      vertex 53.4428 6.56933 0
      vertex 53.6028 6.07688 0
    endloop
  endfacet
  facet normal 0 0 -1
    outer loop
      vertex 50.1213 6.7 0
      vertex 53.397 6.78505 0
      vertex 53.4086 6.67478 0
    endloop
  endfacet
  facet normal 0 0 -1
    outer loop
      vertex 53.4428 6.56933 0
      vertex 50.1213 6.7 0
      vertex 53.4086 6.67478 0
    endloop
  endfacet
  facet normal 0 0 -1
    outer loop
      vertex 53.6583 5.98086 0
      vertex 50.1213 6.7 0
      vertex 53.6028 6.07688 0
    endloop
  endfacet
  facet normal 0 0 -1
    outer loop
      vertex 50.1213 6.7 0
      vertex 53.9172 5.53244 0
      vertex 50.1213 0 0
    endloop
  endfacet
  facet normal -0 0 -1
    outer loop
      vertex 54.2636 5.14765 0
      vertex 50.1213 0 0
      vertex 53.9172 5.53244 0
    endloop
  endfacet
  facet normal -0 0 -1
    outer loop
      vertex 54.3378 5.06526 0
      vertex 50.1213 0 0
      vertex 54.2636 5.14765 0
    endloop
  endfacet
  facet normal -0 0 -1
    outer loop
      vertex 54.4275 5.00009 0
      vertex 50.1213 0 0
      vertex 54.3378 5.06526 0
    endloop
  endfacet
  facet normal 0 0 -1
    outer loop
      vertex 59.3456 7.41027 0
      vertex 60 14.6 0
      vertex 59.3571 7.3 0
    endloop
  endfacet
  facet normal 0 0 -1
    outer loop
      vertex 59.2914 7.92522 0
      vertex 60 14.6 0
      vertex 59.3456 7.41027 0
    endloop
  endfacet
  facet normal 0 0 -1
    outer loop
      vertex 59.1314 8.41767 0
      vertex 60 14.6 0
      vertex 59.2914 7.92522 0
    endloop
  endfacet
  facet normal 0 0 -1
    outer loop
      vertex 59.0972 8.52311 0
      vertex 60 14.6 0
      vertex 59.1314 8.41767 0
    endloop
  endfacet
  facet normal 0 0 -1
    outer loop
      vertex 58.8383 8.97153 0
      vertex 60 14.6 0
      vertex 59.0972 8.52311 0
    endloop
  endfacet
  facet normal 0 0 -1
    outer loop
      vertex 58.7828 9.06755 0
      vertex 60 14.6 0
      vertex 58.8383 8.97153 0
    endloop
  endfacet
  facet normal 0 0 -1
    outer loop
      vertex 58.7086 9.14995 0
      vertex 60 14.6 0
      vertex 58.7828 9.06755 0
    endloop
  endfacet
  facet normal 0 0 -1
    outer loop
      vertex 58.3622 9.53474 0
      vertex 60 14.6 0
      vertex 58.7086 9.14995 0
    endloop
  endfacet
  facet normal 0 0 -1
    outer loop
      vertex 57.9433 9.83909 0
      vertex 60 14.6 0
      vertex 58.3622 9.53474 0
    endloop
  endfacet
  facet normal 0 0 -1
    outer loop
      vertex 57.8536 9.90426 0
      vertex 60 14.6 0
      vertex 57.9433 9.83909 0
    endloop
  endfacet
  facet normal 0 0 -1
    outer loop
      vertex 57.7523 9.94936 0
      vertex 60 14.6 0
      vertex 57.8536 9.90426 0
    endloop
  endfacet
  facet normal 0 0 -1
    outer loop
      vertex 57.2793 10.16 0
      vertex 60 14.6 0
      vertex 57.7523 9.94936 0
    endloop
  endfacet
  facet normal 0 0 -1
    outer loop
      vertex 57.1708 10.183 0
      vertex 60 14.6 0
      vertex 57.2793 10.16 0
    endloop
  endfacet
  facet normal 0 0 -1
    outer loop
      vertex 56.6643 10.2907 0
      vertex 60 14.6 0
      vertex 57.1708 10.183 0
    endloop
  endfacet
  facet normal 0 0 -1
    outer loop
      vertex 56.0357 10.2907 0
      vertex 60 14.6 0
      vertex 56.6643 10.2907 0
    endloop
  endfacet
  facet normal 0 0 -1
    outer loop
      vertex 55.5292 10.183 0
      vertex 60 14.6 0
      vertex 56.0357 10.2907 0
    endloop
  endfacet
  facet normal 0 0 -1
    outer loop
      vertex 55.4207 10.16 0
      vertex 60 14.6 0
      vertex 55.5292 10.183 0
    endloop
  endfacet
  facet normal 0 0 -1
    outer loop
      vertex 48 11.1 0
      vertex 55.4207 10.16 0
      vertex 54.9477 9.94936 0
    endloop
  endfacet
  facet normal 0 0 -1
    outer loop
      vertex 48 11.1 0
      vertex 54.9477 9.94936 0
      vertex 54.8464 9.90426 0
    endloop
  endfacet
  facet normal 0 0 -1
    outer loop
      vertex 48 11.1 0
      vertex 54.8464 9.90426 0
      vertex 54.7567 9.83909 0
    endloop
  endfacet
  facet normal 0 0 -1
    outer loop
      vertex 48 11.1 0
      vertex 54.7567 9.83909 0
      vertex 54.3378 9.53474 0
    endloop
  endfacet
  facet normal 0 0 -1
    outer loop
      vertex 48 11.1 0
      vertex 53.9914 9.14995 0
      vertex 53.9172 9.06755 0
    endloop
  endfacet
  facet normal 0 0 -1
    outer loop
      vertex 48 11.1 0
      vertex 53.8617 8.97153 0
      vertex 53.6028 8.52311 0
    endloop
  endfacet
  facet normal 0 0 -1
    outer loop
      vertex 50.1213 6.7 0
      vertex 53.4428 8.03067 0
      vertex 53.4086 7.92522 0
    endloop
  endfacet
  facet normal 0 0 -1
    outer loop
      vertex 50.1213 6.7 0
      vertex 53.397 7.81495 0
      vertex 53.3429 7.3 0
    endloop
  endfacet
  facet normal -0 0 -1
    outer loop
      vertex 53.397 6.78505 0
      vertex 50.1213 6.7 0
      vertex 53.3429 7.3 0
    endloop
  endfacet
  facet normal -0 0 -1
    outer loop
      vertex 53.397 7.81495 0
      vertex 50.1213 6.7 0
      vertex 53.4086 7.92522 0
    endloop
  endfacet
  facet normal -0 0 -1
    outer loop
      vertex 53.4428 8.03067 0
      vertex 50.1213 6.7 0
      vertex 53.6028 8.52311 0
    endloop
  endfacet
  facet normal 0 0 -1
    outer loop
      vertex 48 11.1 0
      vertex 53.6028 8.52311 0
      vertex 50.1213 6.7 0
    endloop
  endfacet
  facet normal 0 0 -1
    outer loop
      vertex 53.8617 8.97153 0
      vertex 48 11.1 0
      vertex 53.9172 9.06755 0
    endloop
  endfacet
  facet normal 0 0 -1
    outer loop
      vertex 53.9914 9.14995 0
      vertex 48 11.1 0
      vertex 54.3378 9.53474 0
    endloop
  endfacet
  facet normal 0 0 -1
    outer loop
      vertex 48 11.1 0
      vertex 50.1213 6.7 0
      vertex 48 6.7 0
    endloop
  endfacet
  facet normal 0 0 -1
    outer loop
      vertex 55.4207 10.16 0
      vertex 48 11.1 0
      vertex 60 14.6 0
    endloop
  endfacet
  facet normal 0 0 -1
    outer loop
      vertex 0 14.6 0
      vertex 48 11.1 0
      vertex 11.5 11.1 0
    endloop
  endfacet
  facet normal 0 0 -1
    outer loop
      vertex 6.60302 7.81495 0
      vertex 9.37868 6.7 0
      vertex 6.65714 7.3 0
    endloop
  endfacet
  facet normal 0 0 -1
    outer loop
      vertex 6.59143 7.92522 0
      vertex 9.37868 6.7 0
      vertex 6.60302 7.81495 0
    endloop
  endfacet
  facet normal 0 0 -1
    outer loop
      vertex 6.55717 8.03067 0
      vertex 9.37868 6.7 0
      vertex 6.59143 7.92522 0
    endloop
  endfacet
  facet normal 0 0 -1
    outer loop
      vertex 6.39716 8.52311 0
      vertex 9.37868 6.7 0
      vertex 6.55717 8.03067 0
    endloop
  endfacet
  facet normal 0 0 -1
    outer loop
      vertex 9.37868 6.7 0
      vertex 6.39716 8.52311 0
      vertex 11.5 11.1 0
    endloop
  endfacet
  facet normal 0 0 -1
    outer loop
      vertex 6.13827 8.97153 0
      vertex 11.5 11.1 0
      vertex 6.39716 8.52311 0
    endloop
  endfacet
  facet normal 0 0 -1
    outer loop
      vertex 6.08283 9.06755 0
      vertex 11.5 11.1 0
      vertex 6.13827 8.97153 0
    endloop
  endfacet
  facet normal 0 0 -1
    outer loop
      vertex 6.00864 9.14995 0
      vertex 11.5 11.1 0
      vertex 6.08283 9.06755 0
    endloop
  endfacet
  facet normal 0 0 -1
    outer loop
      vertex 5.66217 9.53474 0
      vertex 11.5 11.1 0
      vertex 6.00864 9.14995 0
    endloop
  endfacet
  facet normal 0 0 -1
    outer loop
      vertex 5.24327 9.83909 0
      vertex 11.5 11.1 0
      vertex 5.66217 9.53474 0
    endloop
  endfacet
  facet normal 0 0 -1
    outer loop
      vertex 5.15357 9.90426 0
      vertex 11.5 11.1 0
      vertex 5.24327 9.83909 0
    endloop
  endfacet
  facet normal 0 0 -1
    outer loop
      vertex 5.05228 9.94936 0
      vertex 11.5 11.1 0
      vertex 5.15357 9.90426 0
    endloop
  endfacet
  facet normal 0 0 -1
    outer loop
      vertex 4.57926 10.16 0
      vertex 11.5 11.1 0
      vertex 5.05228 9.94936 0
    endloop
  endfacet
  facet normal 0 0 -1
    outer loop
      vertex 0 14.6 0
      vertex 4.57926 10.16 0
      vertex 4.47081 10.183 0
    endloop
  endfacet
  facet normal 0 0 -1
    outer loop
      vertex 0 14.6 0
      vertex 4.47081 10.183 0
      vertex 3.96433 10.2907 0
    endloop
  endfacet
  facet normal 0 0 -1
    outer loop
      vertex 0 14.6 0
      vertex 3.96433 10.2907 0
      vertex 3.33567 10.2907 0
    endloop
  endfacet
  facet normal 0 0 -1
    outer loop
      vertex 0 14.6 0
      vertex 2.24772 9.94936 0
      vertex 2.14643 9.90426 0
    endloop
  endfacet
  facet normal 0 0 -1
    outer loop
      vertex 48 11.1 0
      vertex 0 14.6 0
      vertex 60 14.6 0
    endloop
  endfacet
  facet normal 0 0 -1
    outer loop
      vertex 4.57926 10.16 0
      vertex 0 14.6 0
      vertex 11.5 11.1 0
    endloop
  endfacet
  facet normal 0 0 -1
    outer loop
      vertex 2.82919 10.183 0
      vertex 0 14.6 0
      vertex 3.33567 10.2907 0
    endloop
  endfacet
  facet normal 0 0 -1
    outer loop
      vertex 2.72074 10.16 0
      vertex 0 14.6 0
      vertex 2.82919 10.183 0
    endloop
  endfacet
  facet normal 0 0 -1
    outer loop
      vertex 2.24772 9.94936 0
      vertex 0 14.6 0
      vertex 2.72074 10.16 0
    endloop
  endfacet
  facet normal 0 0 -1
    outer loop
      vertex 2.05673 9.83909 0
      vertex 0 14.6 0
      vertex 2.14643 9.90426 0
    endloop
  endfacet
  facet normal 0 0 -1
    outer loop
      vertex 1.63783 9.53474 0
      vertex 0 14.6 0
      vertex 2.05673 9.83909 0
    endloop
  endfacet
  facet normal 0 0 -1
    outer loop
      vertex 1.29136 9.14995 0
      vertex 0 14.6 0
      vertex 1.63783 9.53474 0
    endloop
  endfacet
  facet normal 0 0 -1
    outer loop
      vertex 1.21717 9.06755 0
      vertex 0 14.6 0
      vertex 1.29136 9.14995 0
    endloop
  endfacet
  facet normal 0 0 -1
    outer loop
      vertex 1.16173 8.97153 0
      vertex 0 14.6 0
      vertex 1.21717 9.06755 0
    endloop
  endfacet
  facet normal 0 0 -1
    outer loop
      vertex 0.902838 8.52311 0
      vertex 0 14.6 0
      vertex 1.16173 8.97153 0
    endloop
  endfacet
  facet normal 0 0 -1
    outer loop
      vertex 0.868575 8.41767 0
      vertex 0 14.6 0
      vertex 0.902838 8.52311 0
    endloop
  endfacet
  facet normal 0 0 -1
    outer loop
      vertex 0.70857 7.92522 0
      vertex 0 14.6 0
      vertex 0.868575 8.41767 0
    endloop
  endfacet
  facet normal 0 0 -1
    outer loop
      vertex 0.654446 7.41027 0
      vertex 0 14.6 0
      vertex 0.70857 7.92522 0
    endloop
  endfacet
  facet normal 0 0 -1
    outer loop
      vertex 0.642857 7.3 0
      vertex 0 14.6 0
      vertex 0.654446 7.41027 0
    endloop
  endfacet
  facet normal 0 0 -1
    outer loop
      vertex 0 14.6 0
      vertex 0.642857 7.3 0
      vertex 0 0 0
    endloop
  endfacet
  facet normal 0 -1 0
    outer loop
      vertex 11.5 11.1 0
      vertex 48 11.1 2
      vertex 11.5 11.1 2
    endloop
  endfacet
  facet normal 0 -1 -0
    outer loop
      vertex 48 11.1 2
      vertex 11.5 11.1 0
      vertex 48 11.1 0
    endloop
  endfacet
  facet normal 0.707107 0 -0.707107
    outer loop
      vertex 11.5 0 2.12132
      vertex 11.3787 2 2
      vertex 11.5 2 2.12132
    endloop
  endfacet
  facet normal 0.707106 -3.85665e-008 -0.707107
    outer loop
      vertex 9.37868 0 9.53674e-007
      vertex 11.3787 2 2
      vertex 11.5 0 2.12132
    endloop
  endfacet
  facet normal 0.707106 0 -0.707107
    outer loop
      vertex 9.37868 6.7 9.53674e-007
      vertex 11.3787 2 2
      vertex 9.37868 0 9.53674e-007
    endloop
  endfacet
  facet normal 0.707106 0 -0.707107
    outer loop
      vertex 11.3787 2 2
      vertex 9.37868 6.7 9.53674e-007
      vertex 11.3787 6.7 2
    endloop
  endfacet
  facet normal 0 -1 0
    outer loop
      vertex 9.37868 6.7 0
      vertex 11.3787 6.7 2
      vertex 9.37868 6.7 9.53674e-007
    endloop
  endfacet
  facet normal 0 -1 0
    outer loop
      vertex 11.5 6.7 0
      vertex 11.3787 6.7 2
      vertex 9.37868 6.7 0
    endloop
  endfacet
  facet normal 0 -1 0
    outer loop
      vertex 11.3787 6.7 2
      vertex 11.5 6.7 0
      vertex 11.5 6.7 2
    endloop
  endfacet
  facet normal 0 -1 0
    outer loop
      vertex 48 6.7 0
      vertex 48.1213 6.7 2
      vertex 48 6.7 2
    endloop
  endfacet
  facet normal 0 -1 -0
    outer loop
      vertex 48.1213 6.7 2
      vertex 48 6.7 0
      vertex 50.1213 6.7 0
    endloop
  endfacet
  facet normal 0 0 -1
    outer loop
      vertex 11.5 0 2.12132
      vertex 48 2 2.12132
      vertex 48 0 2.12132
    endloop
  endfacet
  facet normal -0 0 -1
    outer loop
      vertex 48 2 2.12132
      vertex 11.5 0 2.12132
      vertex 11.5 2 2.12132
    endloop
  endfacet
  facet normal 0.707107 -0 0.707107
    outer loop
      vertex 9.37868 0 9.53674e-007
      vertex 9.37868 6.7 0
      vertex 9.37868 6.7 9.53674e-007
    endloop
  endfacet
  facet normal 0.707107 0 0.707107
    outer loop
      vertex 9.37868 6.7 0
      vertex 9.37868 0 9.53674e-007
      vertex 9.37868 0 0
    endloop
  endfacet
  facet normal -0.707107 0 -0.707107
    outer loop
      vertex 50.1213 6.7 0
      vertex 48.1213 2 2
      vertex 48.1213 6.7 2
    endloop
  endfacet
  facet normal -0.707107 0 -0.707107
    outer loop
      vertex 50.1213 0 0
      vertex 48.1213 2 2
      vertex 50.1213 6.7 0
    endloop
  endfacet
  facet normal -0.707107 -3.17892e-007 -0.707107
    outer loop
      vertex 48 0 2.12132
      vertex 48.1213 2 2
      vertex 50.1213 0 0
    endloop
  endfacet
  facet normal -0.70711 0 -0.707104
    outer loop
      vertex 48.1213 2 2
      vertex 48 0 2.12132
      vertex 48 2 2.12132
    endloop
  endfacet
  facet normal -1 0 0
    outer loop
      vertex 0 0 0
      vertex 0 14.6 6
      vertex 0 14.6 0
    endloop
  endfacet
  facet normal -1 -0 0
    outer loop
      vertex 0 14.6 6
      vertex 0 0 0
      vertex 0 0 6
    endloop
  endfacet
  facet normal 0 0 1
    outer loop
      vertex 60 14.6 6
      vertex 58 7.3 6
      vertex 60 0 6
    endloop
  endfacet
  facet normal 0 0 1
    outer loop
      vertex 60 14.6 6
      vertex 57.9639 7.64305 6
      vertex 58 7.3 6
    endloop
  endfacet
  facet normal 0 0 1
    outer loop
      vertex 60 14.6 6
      vertex 57.8573 7.97112 6
      vertex 57.9639 7.64305 6
    endloop
  endfacet
  facet normal 0 0 1
    outer loop
      vertex 60 14.6 6
      vertex 57.6849 8.26985 6
      vertex 57.8573 7.97112 6
    endloop
  endfacet
  facet normal 0 0 1
    outer loop
      vertex 60 14.6 6
      vertex 57.4541 8.52619 6
      vertex 57.6849 8.26985 6
    endloop
  endfacet
  facet normal 0 0 1
    outer loop
      vertex 60 14.6 6
      vertex 57.175 8.72894 6
      vertex 57.4541 8.52619 6
    endloop
  endfacet
  facet normal 0 0 1
    outer loop
      vertex 60 14.6 6
      vertex 56.8599 8.86924 6
      vertex 57.175 8.72894 6
    endloop
  endfacet
  facet normal 0 0 1
    outer loop
      vertex 60 14.6 6
      vertex 56.5225 8.94096 6
      vertex 56.8599 8.86924 6
    endloop
  endfacet
  facet normal -0 0 1
    outer loop
      vertex 53 12.6 6
      vertex 56.5225 8.94096 6
      vertex 60 14.6 6
    endloop
  endfacet
  facet normal 0 0 1
    outer loop
      vertex 56.5225 8.94096 6
      vertex 53 12.6 6
      vertex 56.1775 8.94096 6
    endloop
  endfacet
  facet normal 0 0 1
    outer loop
      vertex 56.1775 8.94096 6
      vertex 53 12.6 6
      vertex 55.8401 8.86924 6
    endloop
  endfacet
  facet normal 0 0 1
    outer loop
      vertex 55.8401 8.86924 6
      vertex 53 12.6 6
      vertex 55.525 8.72894 6
    endloop
  endfacet
  facet normal 0 0 1
    outer loop
      vertex 55.525 8.72894 6
      vertex 53 12.6 6
      vertex 55.2459 8.52619 6
    endloop
  endfacet
  facet normal 0 0 1
    outer loop
      vertex 54.7361 7.64305 6
      vertex 53 12.6 6
      vertex 54.7 7.3 6
    endloop
  endfacet
  facet normal 0 0 1
    outer loop
      vertex 54.8427 7.97112 6
      vertex 53 12.6 6
      vertex 54.7361 7.64305 6
    endloop
  endfacet
  facet normal 0 0 1
    outer loop
      vertex 55.0151 8.26985 6
      vertex 53 12.6 6
      vertex 54.8427 7.97112 6
    endloop
  endfacet
  facet normal 0 0 1
    outer loop
      vertex 55.2459 8.52619 6
      vertex 53 12.6 6
      vertex 55.0151 8.26985 6
    endloop
  endfacet
  facet normal 0 0 1
    outer loop
      vertex 60 14.6 6
      vertex 7 12.6 6
      vertex 53 12.6 6
    endloop
  endfacet
  facet normal 0 0 1
    outer loop
      vertex 7 12.6 6
      vertex 5.3 7.3 6
      vertex 7 2 6
    endloop
  endfacet
  facet normal 0 0 1
    outer loop
      vertex 7 12.6 6
      vertex 5.26394 7.64305 6
      vertex 5.3 7.3 6
    endloop
  endfacet
  facet normal 0 0 1
    outer loop
      vertex 7 12.6 6
      vertex 5.15735 7.97112 6
      vertex 5.26394 7.64305 6
    endloop
  endfacet
  facet normal 0 0 1
    outer loop
      vertex 7 12.6 6
      vertex 4.98488 8.26985 6
      vertex 5.15735 7.97112 6
    endloop
  endfacet
  facet normal 0 0 1
    outer loop
      vertex 7 12.6 6
      vertex 4.75406 8.52619 6
      vertex 4.98488 8.26985 6
    endloop
  endfacet
  facet normal 0 0 1
    outer loop
      vertex 7 12.6 6
      vertex 4.475 8.72894 6
      vertex 4.75406 8.52619 6
    endloop
  endfacet
  facet normal 0 0 1
    outer loop
      vertex 7 12.6 6
      vertex 4.15988 8.86924 6
      vertex 4.475 8.72894 6
    endloop
  endfacet
  facet normal 0 0 1
    outer loop
      vertex 7 12.6 6
      vertex 3.82247 8.94096 6
      vertex 4.15988 8.86924 6
    endloop
  endfacet
  facet normal 0 0 1
    outer loop
      vertex 7 12.6 6
      vertex 3.47753 8.94096 6
      vertex 3.82247 8.94096 6
    endloop
  endfacet
  facet normal 0 0 1
    outer loop
      vertex 0 14.6 6
      vertex 3.47753 8.94096 6
      vertex 7 12.6 6
    endloop
  endfacet
  facet normal 0 0 1
    outer loop
      vertex 3.47753 8.94096 6
      vertex 0 14.6 6
      vertex 3.14012 8.86924 6
    endloop
  endfacet
  facet normal 0 0 1
    outer loop
      vertex 3.14012 8.86924 6
      vertex 0 14.6 6
      vertex 2.825 8.72894 6
    endloop
  endfacet
  facet normal 0 0 1
    outer loop
      vertex 2.03606 7.64305 6
      vertex 0 14.6 6
      vertex 2 7.3 6
    endloop
  endfacet
  facet normal 0 0 1
    outer loop
      vertex 2.14265 7.97112 6
      vertex 0 14.6 6
      vertex 2.03606 7.64305 6
    endloop
  endfacet
  facet normal 0 0 1
    outer loop
      vertex 2.31512 8.26985 6
      vertex 0 14.6 6
      vertex 2.14265 7.97112 6
    endloop
  endfacet
  facet normal 0 0 1
    outer loop
      vertex 2.54593 8.52619 6
      vertex 0 14.6 6
      vertex 2.31512 8.26985 6
    endloop
  endfacet
  facet normal 0 0 1
    outer loop
      vertex 2.825 8.72894 6
      vertex 0 14.6 6
      vertex 2.54593 8.52619 6
    endloop
  endfacet
  facet normal -0 0 1
    outer loop
      vertex 0 14.6 6
      vertex 7 12.6 6
      vertex 60 14.6 6
    endloop
  endfacet
  facet normal -0 0 1
    outer loop
      vertex 57.9639 6.95695 6
      vertex 60 0 6
      vertex 58 7.3 6
    endloop
  endfacet
  facet normal -0 0 1
    outer loop
      vertex 57.8573 6.62888 6
      vertex 60 0 6
      vertex 57.9639 6.95695 6
    endloop
  endfacet
  facet normal -0 0 1
    outer loop
      vertex 57.6849 6.33015 6
      vertex 60 0 6
      vertex 57.8573 6.62888 6
    endloop
  endfacet
  facet normal -0 0 1
    outer loop
      vertex 57.4541 6.07381 6
      vertex 60 0 6
      vertex 57.6849 6.33015 6
    endloop
  endfacet
  facet normal -0 0 1
    outer loop
      vertex 57.175 5.87106 6
      vertex 60 0 6
      vertex 57.4541 6.07381 6
    endloop
  endfacet
  facet normal -0 0 1
    outer loop
      vertex 56.8599 5.73076 6
      vertex 60 0 6
      vertex 57.175 5.87106 6
    endloop
  endfacet
  facet normal -0 0 1
    outer loop
      vertex 56.5225 5.65904 6
      vertex 60 0 6
      vertex 56.8599 5.73076 6
    endloop
  endfacet
  facet normal 0 0 1
    outer loop
      vertex 53 2 6
      vertex 56.5225 5.65904 6
      vertex 56.1775 5.65904 6
    endloop
  endfacet
  facet normal 0 0 1
    outer loop
      vertex 53 2 6
      vertex 56.1775 5.65904 6
      vertex 55.8401 5.73076 6
    endloop
  endfacet
  facet normal 0 0 1
    outer loop
      vertex 53 2 6
      vertex 55.8401 5.73076 6
      vertex 55.525 5.87106 6
    endloop
  endfacet
  facet normal 0 0 1
    outer loop
      vertex 53 2 6
      vertex 55.525 5.87106 6
      vertex 55.2459 6.07381 6
    endloop
  endfacet
  facet normal 0 0 1
    outer loop
      vertex 53 2 6
      vertex 55.2459 6.07381 6
      vertex 55.0151 6.33015 6
    endloop
  endfacet
  facet normal 0 0 1
    outer loop
      vertex 53 2 6
      vertex 54.7 7.3 6
      vertex 53 12.6 6
    endloop
  endfacet
  facet normal 0 0 1
    outer loop
      vertex 54.7 7.3 6
      vertex 53 2 6
      vertex 54.7361 6.95695 6
    endloop
  endfacet
  facet normal 0 0 1
    outer loop
      vertex 53 2 6
      vertex 54.8427 6.62888 6
      vertex 54.7361 6.95695 6
    endloop
  endfacet
  facet normal 0 0 1
    outer loop
      vertex 53 2 6
      vertex 55.0151 6.33015 6
      vertex 54.8427 6.62888 6
    endloop
  endfacet
  facet normal 0 0 1
    outer loop
      vertex 56.5225 5.65904 6
      vertex 53 2 6
      vertex 60 0 6
    endloop
  endfacet
  facet normal -0 0 1
    outer loop
      vertex 7 2 6
      vertex 60 0 6
      vertex 53 2 6
    endloop
  endfacet
  facet normal -0 0 1
    outer loop
      vertex 5.26394 6.95695 6
      vertex 7 2 6
      vertex 5.3 7.3 6
    endloop
  endfacet
  facet normal -0 0 1
    outer loop
      vertex 5.15735 6.62888 6
      vertex 7 2 6
      vertex 5.26394 6.95695 6
    endloop
  endfacet
  facet normal -0 0 1
    outer loop
      vertex 4.98488 6.33015 6
      vertex 7 2 6
      vertex 5.15735 6.62888 6
    endloop
  endfacet
  facet normal -0 0 1
    outer loop
      vertex 4.75406 6.07381 6
      vertex 7 2 6
      vertex 4.98488 6.33015 6
    endloop
  endfacet
  facet normal -0 0 1
    outer loop
      vertex 4.475 5.87106 6
      vertex 7 2 6
      vertex 4.75406 6.07381 6
    endloop
  endfacet
  facet normal -0 0 1
    outer loop
      vertex 4.15988 5.73076 6
      vertex 7 2 6
      vertex 4.475 5.87106 6
    endloop
  endfacet
  facet normal -0 0 1
    outer loop
      vertex 3.82247 5.65904 6
      vertex 7 2 6
      vertex 4.15988 5.73076 6
    endloop
  endfacet
  facet normal -0 0 1
    outer loop
      vertex 3.47753 5.65904 6
      vertex 7 2 6
      vertex 3.82247 5.65904 6
    endloop
  endfacet
  facet normal 0 0 1
    outer loop
      vertex 0 0 6
      vertex 3.47753 5.65904 6
      vertex 3.14012 5.73076 6
    endloop
  endfacet
  facet normal 0 0 1
    outer loop
      vertex 0 0 6
      vertex 3.14012 5.73076 6
      vertex 2.825 5.87106 6
    endloop
  endfacet
  facet normal 0 0 1
    outer loop
      vertex 0 0 6
      vertex 2.825 5.87106 6
      vertex 2.54593 6.07381 6
    endloop
  endfacet
  facet normal 0 0 1
    outer loop
      vertex 0 0 6
      vertex 2 7.3 6
      vertex 0 14.6 6
    endloop
  endfacet
  facet normal 0 0 1
    outer loop
      vertex 7 2 6
      vertex 0 0 6
      vertex 60 0 6
    endloop
  endfacet
  facet normal 0 0 1
    outer loop
      vertex 3.47753 5.65904 6
      vertex 0 0 6
      vertex 7 2 6
    endloop
  endfacet
  facet normal 0 0 1
    outer loop
      vertex 2.31512 6.33015 6
      vertex 0 0 6
      vertex 2.54593 6.07381 6
    endloop
  endfacet
  facet normal 0 0 1
    outer loop
      vertex 2.14265 6.62888 6
      vertex 0 0 6
      vertex 2.31512 6.33015 6
    endloop
  endfacet
  facet normal 0 0 1
    outer loop
      vertex 2.03606 6.95695 6
      vertex 0 0 6
      vertex 2.14265 6.62888 6
    endloop
  endfacet
  facet normal 0 0 1
    outer loop
      vertex 2 7.3 6
      vertex 0 0 6
      vertex 2.03606 6.95695 6
    endloop
  endfacet
  facet normal 1 -0 0
    outer loop
      vertex 60 0 6
      vertex 60 14.6 0
      vertex 60 14.6 6
    endloop
  endfacet
  facet normal 1 0 0
    outer loop
      vertex 60 14.6 0
      vertex 60 0 6
      vertex 60 0 0
    endloop
  endfacet
  facet normal 0 1 -0
    outer loop
      vertex 60 14.6 0
      vertex 0 14.6 6
      vertex 60 14.6 6
    endloop
  endfacet
  facet normal 0 1 0
    outer loop
      vertex 0 14.6 6
      vertex 60 14.6 0
      vertex 0 14.6 0
    endloop
  endfacet
  facet normal 0 -1 0
    outer loop
      vertex 48 0 2.12132
      vertex 0 0 6
      vertex 11.5 0 2.12132
    endloop
  endfacet
  facet normal 0 -1 0
    outer loop
      vertex 0 0 6
      vertex 9.37868 0 9.53674e-007
      vertex 11.5 0 2.12132
    endloop
  endfacet
  facet normal 0 -1 0
    outer loop
      vertex 0 0 0
      vertex 9.37868 0 9.53674e-007
      vertex 0 0 6
    endloop
  endfacet
  facet normal 0 -1 -0
    outer loop
      vertex 9.37868 0 9.53674e-007
      vertex 0 0 0
      vertex 9.37868 0 0
    endloop
  endfacet
  facet normal 0 -1 0
    outer loop
      vertex 0 0 6
      vertex 48 0 2.12132
      vertex 60 0 6
    endloop
  endfacet
  facet normal 0 -1 0
    outer loop
      vertex 50.1213 0 0
      vertex 60 0 6
      vertex 48 0 2.12132
    endloop
  endfacet
  facet normal 0 -1 -0
    outer loop
      vertex 60 0 6
      vertex 50.1213 0 0
      vertex 60 0 0
    endloop
  endfacet
  facet normal -0.866025 -0.5 0
    outer loop
      vertex 5.15735 7.97112 1.9
      vertex 4.98488 8.26985 6
      vertex 4.98488 8.26985 1.9
    endloop
  endfacet
  facet normal -0.866025 -0.5 0
    outer loop
      vertex 4.98488 8.26985 6
      vertex 5.15735 7.97112 1.9
      vertex 5.15735 7.97112 6
    endloop
  endfacet
  facet normal -0.951057 -0.309016 0
    outer loop
      vertex 5.26394 7.64305 1.9
      vertex 5.15735 7.97112 6
      vertex 5.15735 7.97112 1.9
    endloop
  endfacet
  facet normal -0.951057 -0.309016 0
    outer loop
      vertex 5.15735 7.97112 6
      vertex 5.26394 7.64305 1.9
      vertex 5.26394 7.64305 6
    endloop
  endfacet
  facet normal -0.406738 -0.913545 0
    outer loop
      vertex 4.15988 8.86924 1.9
      vertex 4.475 8.72894 6
      vertex 4.15988 8.86924 6
    endloop
  endfacet
  facet normal -0.406738 -0.913545 -0
    outer loop
      vertex 4.475 8.72894 6
      vertex 4.15988 8.86924 1.9
      vertex 4.475 8.72894 1.9
    endloop
  endfacet
  facet normal 0.406738 -0.913545 0
    outer loop
      vertex 2.825 8.72894 1.9
      vertex 3.14012 8.86924 6
      vertex 2.825 8.72894 6
    endloop
  endfacet
  facet normal 0.406738 -0.913545 0
    outer loop
      vertex 3.14012 8.86924 6
      vertex 2.825 8.72894 1.9
      vertex 3.14012 8.86924 1.9
    endloop
  endfacet
  facet normal 0.951056 -0.309018 0
    outer loop
      vertex 2.03606 7.64305 6
      vertex 2.14265 7.97112 1.9
      vertex 2.14265 7.97112 6
    endloop
  endfacet
  facet normal 0.951056 -0.309018 0
    outer loop
      vertex 2.14265 7.97112 1.9
      vertex 2.03606 7.64305 6
      vertex 2.03606 7.64305 1.9
    endloop
  endfacet
  facet normal -0.994522 0.104529 0
    outer loop
      vertex 5.26394 6.95695 1.9
      vertex 5.3 7.3 6
      vertex 5.3 7.3 1.9
    endloop
  endfacet
  facet normal -0.994522 0.104529 0
    outer loop
      vertex 5.3 7.3 6
      vertex 5.26394 6.95695 1.9
      vertex 5.26394 6.95695 6
    endloop
  endfacet
  facet normal -0.743145 -0.669131 0
    outer loop
      vertex 4.98488 8.26985 1.9
      vertex 4.75406 8.52619 6
      vertex 4.75406 8.52619 1.9
    endloop
  endfacet
  facet normal -0.743145 -0.669131 0
    outer loop
      vertex 4.75406 8.52619 6
      vertex 4.98488 8.26985 1.9
      vertex 4.98488 8.26985 6
    endloop
  endfacet
  facet normal 0 -1 0
    outer loop
      vertex 3.47753 8.94096 1.9
      vertex 3.82247 8.94096 6
      vertex 3.47753 8.94096 6
    endloop
  endfacet
  facet normal 0 -1 -0
    outer loop
      vertex 3.82247 8.94096 6
      vertex 3.47753 8.94096 1.9
      vertex 3.82247 8.94096 1.9
    endloop
  endfacet
  facet normal -0.587784 -0.809018 0
    outer loop
      vertex 4.475 8.72894 1.9
      vertex 4.75406 8.52619 6
      vertex 4.475 8.72894 6
    endloop
  endfacet
  facet normal -0.587784 -0.809018 -0
    outer loop
      vertex 4.75406 8.52619 6
      vertex 4.475 8.72894 1.9
      vertex 4.75406 8.52619 1.9
    endloop
  endfacet
  facet normal 0.994522 0.104526 0
    outer loop
      vertex 2.03606 6.95695 6
      vertex 2 7.3 1.9
      vertex 2 7.3 6
    endloop
  endfacet
  facet normal 0.994522 0.104526 0
    outer loop
      vertex 2 7.3 1.9
      vertex 2.03606 6.95695 6
      vertex 2.03606 6.95695 1.9
    endloop
  endfacet
  facet normal 0.866025 -0.5 0
    outer loop
      vertex 2.14265 7.97112 6
      vertex 2.31512 8.26985 1.9
      vertex 2.31512 8.26985 6
    endloop
  endfacet
  facet normal 0.866025 -0.5 0
    outer loop
      vertex 2.31512 8.26985 1.9
      vertex 2.14265 7.97112 6
      vertex 2.14265 7.97112 1.9
    endloop
  endfacet
  facet normal 0.587783 -0.809019 0
    outer loop
      vertex 2.54593 8.52619 1.9
      vertex 2.825 8.72894 6
      vertex 2.54593 8.52619 6
    endloop
  endfacet
  facet normal 0.587783 -0.809019 0
    outer loop
      vertex 2.825 8.72894 6
      vertex 2.54593 8.52619 1.9
      vertex 2.825 8.72894 1.9
    endloop
  endfacet
  facet normal 0.207913 -0.978147 0
    outer loop
      vertex 3.14012 8.86924 1.9
      vertex 3.47753 8.94096 6
      vertex 3.14012 8.86924 6
    endloop
  endfacet
  facet normal 0.207913 -0.978147 0
    outer loop
      vertex 3.47753 8.94096 6
      vertex 3.14012 8.86924 1.9
      vertex 3.47753 8.94096 1.9
    endloop
  endfacet
  facet normal 0.743146 -0.669129 0
    outer loop
      vertex 2.31512 8.26985 6
      vertex 2.54593 8.52619 1.9
      vertex 2.54593 8.52619 6
    endloop
  endfacet
  facet normal 0.743146 -0.669129 0
    outer loop
      vertex 2.54593 8.52619 1.9
      vertex 2.31512 8.26985 6
      vertex 2.31512 8.26985 1.9
    endloop
  endfacet
  facet normal -0.994522 -0.104528 0
    outer loop
      vertex 5.3 7.3 1.9
      vertex 5.26394 7.64305 6
      vertex 5.26394 7.64305 1.9
    endloop
  endfacet
  facet normal -0.994522 -0.104528 0
    outer loop
      vertex 5.26394 7.64305 6
      vertex 5.3 7.3 1.9
      vertex 5.3 7.3 6
    endloop
  endfacet
  facet normal 0.743145 0.66913 0
    outer loop
      vertex 2.54593 6.07381 6
      vertex 2.31512 6.33015 1.9
      vertex 2.31512 6.33015 6
    endloop
  endfacet
  facet normal 0.743145 0.66913 0
    outer loop
      vertex 2.31512 6.33015 1.9
      vertex 2.54593 6.07381 6
      vertex 2.54593 6.07381 1.9
    endloop
  endfacet
  facet normal -0.406738 0.913545 0
    outer loop
      vertex 4.475 5.87106 1.9
      vertex 4.15988 5.73076 6
      vertex 4.475 5.87106 6
    endloop
  endfacet
  facet normal -0.406738 0.913545 0
    outer loop
      vertex 4.15988 5.73076 6
      vertex 4.475 5.87106 1.9
      vertex 4.15988 5.73076 1.9
    endloop
  endfacet
  facet normal -0.587786 0.809016 0
    outer loop
      vertex 4.75406 6.07381 1.9
      vertex 4.475 5.87106 6
      vertex 4.75406 6.07381 6
    endloop
  endfacet
  facet normal -0.587786 0.809016 0
    outer loop
      vertex 4.475 5.87106 6
      vertex 4.75406 6.07381 1.9
      vertex 4.475 5.87106 1.9
    endloop
  endfacet
  facet normal -0.207913 -0.978147 0
    outer loop
      vertex 3.82247 8.94096 1.9
      vertex 4.15988 8.86924 6
      vertex 3.82247 8.94096 6
    endloop
  endfacet
  facet normal -0.207913 -0.978147 -0
    outer loop
      vertex 4.15988 8.86924 6
      vertex 3.82247 8.94096 1.9
      vertex 4.15988 8.86924 1.9
    endloop
  endfacet
  facet normal 0.994522 -0.104526 0
    outer loop
      vertex 2 7.3 6
      vertex 2.03606 7.64305 1.9
      vertex 2.03606 7.64305 6
    endloop
  endfacet
  facet normal 0.994522 -0.104526 0
    outer loop
      vertex 2.03606 7.64305 1.9
      vertex 2 7.3 6
      vertex 2 7.3 1.9
    endloop
  endfacet
  facet normal -0.866026 0.499999 0
    outer loop
      vertex 4.98488 6.33015 1.9
      vertex 5.15735 6.62888 6
      vertex 5.15735 6.62888 1.9
    endloop
  endfacet
  facet normal -0.866026 0.499999 0
    outer loop
      vertex 5.15735 6.62888 6
      vertex 4.98488 6.33015 1.9
      vertex 4.98488 6.33015 6
    endloop
  endfacet
  facet normal -0.20791 0.978148 0
    outer loop
      vertex 4.15988 5.73076 1.9
      vertex 3.82247 5.65904 6
      vertex 4.15988 5.73076 6
    endloop
  endfacet
  facet normal -0.20791 0.978148 0
    outer loop
      vertex 3.82247 5.65904 6
      vertex 4.15988 5.73076 1.9
      vertex 3.82247 5.65904 1.9
    endloop
  endfacet
  facet normal -0.951057 0.309016 0
    outer loop
      vertex 5.15735 6.62888 1.9
      vertex 5.26394 6.95695 6
      vertex 5.26394 6.95695 1.9
    endloop
  endfacet
  facet normal -0.951057 0.309016 0
    outer loop
      vertex 5.26394 6.95695 6
      vertex 5.15735 6.62888 1.9
      vertex 5.15735 6.62888 6
    endloop
  endfacet
  facet normal 0.406738 0.913545 -0
    outer loop
      vertex 3.14012 5.73076 1.9
      vertex 2.825 5.87106 6
      vertex 3.14012 5.73076 6
    endloop
  endfacet
  facet normal 0.406738 0.913545 0
    outer loop
      vertex 2.825 5.87106 6
      vertex 3.14012 5.73076 1.9
      vertex 2.825 5.87106 1.9
    endloop
  endfacet
  facet normal 0.866026 0.499999 0
    outer loop
      vertex 2.31512 6.33015 6
      vertex 2.14265 6.62888 1.9
      vertex 2.14265 6.62888 6
    endloop
  endfacet
  facet normal 0.866026 0.499999 0
    outer loop
      vertex 2.14265 6.62888 1.9
      vertex 2.31512 6.33015 6
      vertex 2.31512 6.33015 1.9
    endloop
  endfacet
  facet normal 0.951056 0.309018 0
    outer loop
      vertex 2.14265 6.62888 6
      vertex 2.03606 6.95695 1.9
      vertex 2.03606 6.95695 6
    endloop
  endfacet
  facet normal 0.951056 0.309018 0
    outer loop
      vertex 2.03606 6.95695 1.9
      vertex 2.14265 6.62888 6
      vertex 2.14265 6.62888 1.9
    endloop
  endfacet
  facet normal 0.587785 0.809017 -0
    outer loop
      vertex 2.825 5.87106 1.9
      vertex 2.54593 6.07381 6
      vertex 2.825 5.87106 6
    endloop
  endfacet
  facet normal 0.587785 0.809017 0
    outer loop
      vertex 2.54593 6.07381 6
      vertex 2.825 5.87106 1.9
      vertex 2.54593 6.07381 1.9
    endloop
  endfacet
  facet normal -0.743144 0.669132 0
    outer loop
      vertex 4.75406 6.07381 1.9
      vertex 4.98488 6.33015 6
      vertex 4.98488 6.33015 1.9
    endloop
  endfacet
  facet normal -0.743144 0.669132 0
    outer loop
      vertex 4.98488 6.33015 6
      vertex 4.75406 6.07381 1.9
      vertex 4.75406 6.07381 6
    endloop
  endfacet
  facet normal 0.20791 0.978148 -0
    outer loop
      vertex 3.47753 5.65904 1.9
      vertex 3.14012 5.73076 6
      vertex 3.47753 5.65904 6
    endloop
  endfacet
  facet normal 0.20791 0.978148 0
    outer loop
      vertex 3.14012 5.73076 6
      vertex 3.47753 5.65904 1.9
      vertex 3.14012 5.73076 1.9
    endloop
  endfacet
  facet normal 0 1 -0
    outer loop
      vertex 3.82247 5.65904 1.9
      vertex 3.47753 5.65904 6
      vertex 3.82247 5.65904 6
    endloop
  endfacet
  facet normal 0 1 0
    outer loop
      vertex 3.47753 5.65904 6
      vertex 3.82247 5.65904 1.9
      vertex 3.47753 5.65904 1.9
    endloop
  endfacet
  facet normal -0.866023 -0.500005 0
    outer loop
      vertex 57.8573 7.97112 1.9
      vertex 57.6849 8.26985 6
      vertex 57.6849 8.26985 1.9
    endloop
  endfacet
  facet normal -0.866023 -0.500005 0
    outer loop
      vertex 57.6849 8.26985 6
      vertex 57.8573 7.97112 1.9
      vertex 57.8573 7.97112 6
    endloop
  endfacet
  facet normal -0.951056 -0.309018 0
    outer loop
      vertex 57.9639 7.64305 1.9
      vertex 57.8573 7.97112 6
      vertex 57.8573 7.97112 1.9
    endloop
  endfacet
  facet normal -0.951056 -0.309018 0
    outer loop
      vertex 57.8573 7.97112 6
      vertex 57.9639 7.64305 1.9
      vertex 57.9639 7.64305 6
    endloop
  endfacet
  facet normal -0.406739 -0.913544 0
    outer loop
      vertex 56.8599 8.86924 1.9
      vertex 57.175 8.72894 6
      vertex 56.8599 8.86924 6
    endloop
  endfacet
  facet normal -0.406739 -0.913544 -0
    outer loop
      vertex 57.175 8.72894 6
      vertex 56.8599 8.86924 1.9
      vertex 57.175 8.72894 1.9
    endloop
  endfacet
  facet normal 0.406739 -0.913544 0
    outer loop
      vertex 55.525 8.72894 1.9
      vertex 55.8401 8.86924 6
      vertex 55.525 8.72894 6
    endloop
  endfacet
  facet normal 0.406739 -0.913544 0
    outer loop
      vertex 55.8401 8.86924 6
      vertex 55.525 8.72894 1.9
      vertex 55.8401 8.86924 1.9
    endloop
  endfacet
  facet normal -0.994522 0.104529 0
    outer loop
      vertex 57.9639 6.95695 1.9
      vertex 58 7.3 6
      vertex 58 7.3 1.9
    endloop
  endfacet
  facet normal -0.994522 0.104529 0
    outer loop
      vertex 58 7.3 6
      vertex 57.9639 6.95695 1.9
      vertex 57.9639 6.95695 6
    endloop
  endfacet
  facet normal -0.743146 -0.669129 0
    outer loop
      vertex 57.6849 8.26985 1.9
      vertex 57.4541 8.52619 6
      vertex 57.4541 8.52619 1.9
    endloop
  endfacet
  facet normal -0.743146 -0.669129 0
    outer loop
      vertex 57.4541 8.52619 6
      vertex 57.6849 8.26985 1.9
      vertex 57.6849 8.26985 6
    endloop
  endfacet
  facet normal 0 -1 0
    outer loop
      vertex 56.1775 8.94096 1.9
      vertex 56.5225 8.94096 6
      vertex 56.1775 8.94096 6
    endloop
  endfacet
  facet normal 0 -1 -0
    outer loop
      vertex 56.5225 8.94096 6
      vertex 56.1775 8.94096 1.9
      vertex 56.5225 8.94096 1.9
    endloop
  endfacet
  facet normal -0.587785 -0.809017 0
    outer loop
      vertex 57.175 8.72894 1.9
      vertex 57.4541 8.52619 6
      vertex 57.175 8.72894 6
    endloop
  endfacet
  facet normal -0.587785 -0.809017 -0
    outer loop
      vertex 57.4541 8.52619 6
      vertex 57.175 8.72894 1.9
      vertex 57.4541 8.52619 1.9
    endloop
  endfacet
  facet normal 0.994522 -0.104528 0
    outer loop
      vertex 54.7 7.3 6
      vertex 54.7361 7.64305 1.9
      vertex 54.7361 7.64305 6
    endloop
  endfacet
  facet normal 0.994522 -0.104528 0
    outer loop
      vertex 54.7361 7.64305 1.9
      vertex 54.7 7.3 6
      vertex 54.7 7.3 1.9
    endloop
  endfacet
  facet normal 0.866028 -0.499996 0
    outer loop
      vertex 54.8427 7.97112 6
      vertex 55.0151 8.26985 1.9
      vertex 55.0151 8.26985 6
    endloop
  endfacet
  facet normal 0.866028 -0.499996 0
    outer loop
      vertex 55.0151 8.26985 1.9
      vertex 54.8427 7.97112 6
      vertex 54.8427 7.97112 1.9
    endloop
  endfacet
  facet normal 0.58778 -0.809021 0
    outer loop
      vertex 55.2459 8.52619 1.9
      vertex 55.525 8.72894 6
      vertex 55.2459 8.52619 6
    endloop
  endfacet
  facet normal 0.58778 -0.809021 0
    outer loop
      vertex 55.525 8.72894 6
      vertex 55.2459 8.52619 1.9
      vertex 55.525 8.72894 1.9
    endloop
  endfacet
  facet normal 0.207913 -0.978147 0
    outer loop
      vertex 55.8401 8.86924 1.9
      vertex 56.1775 8.94096 6
      vertex 55.8401 8.86924 6
    endloop
  endfacet
  facet normal 0.207913 -0.978147 0
    outer loop
      vertex 56.1775 8.94096 6
      vertex 55.8401 8.86924 1.9
      vertex 56.1775 8.94096 1.9
    endloop
  endfacet
  facet normal 0.743146 -0.669129 0
    outer loop
      vertex 55.0151 8.26985 6
      vertex 55.2459 8.52619 1.9
      vertex 55.2459 8.52619 6
    endloop
  endfacet
  facet normal 0.743146 -0.669129 0
    outer loop
      vertex 55.2459 8.52619 1.9
      vertex 55.0151 8.26985 6
      vertex 55.0151 8.26985 1.9
    endloop
  endfacet
  facet normal -0.994522 -0.104528 0
    outer loop
      vertex 58 7.3 1.9
      vertex 57.9639 7.64305 6
      vertex 57.9639 7.64305 1.9
    endloop
  endfacet
  facet normal -0.994522 -0.104528 0
    outer loop
      vertex 57.9639 7.64305 6
      vertex 58 7.3 1.9
      vertex 58 7.3 6
    endloop
  endfacet
  facet normal -0.951056 0.309018 0
    outer loop
      vertex 57.8573 6.62888 1.9
      vertex 57.9639 6.95695 6
      vertex 57.9639 6.95695 1.9
    endloop
  endfacet
  facet normal -0.951056 0.309018 0
    outer loop
      vertex 57.9639 6.95695 6
      vertex 57.8573 6.62888 1.9
      vertex 57.8573 6.62888 6
    endloop
  endfacet
  facet normal 0.866028 0.499995 0
    outer loop
      vertex 55.0151 6.33015 6
      vertex 54.8427 6.62888 1.9
      vertex 54.8427 6.62888 6
    endloop
  endfacet
  facet normal 0.866028 0.499995 0
    outer loop
      vertex 54.8427 6.62888 1.9
      vertex 55.0151 6.33015 6
      vertex 55.0151 6.33015 1.9
    endloop
  endfacet
  facet normal -0.587787 0.809016 0
    outer loop
      vertex 57.4541 6.07381 1.9
      vertex 57.175 5.87106 6
      vertex 57.4541 6.07381 6
    endloop
  endfacet
  facet normal -0.587787 0.809016 0
    outer loop
      vertex 57.175 5.87106 6
      vertex 57.4541 6.07381 1.9
      vertex 57.175 5.87106 1.9
    endloop
  endfacet
  facet normal -0.207913 -0.978147 0
    outer loop
      vertex 56.5225 8.94096 1.9
      vertex 56.8599 8.86924 6
      vertex 56.5225 8.94096 6
    endloop
  endfacet
  facet normal -0.207913 -0.978147 -0
    outer loop
      vertex 56.8599 8.86924 6
      vertex 56.5225 8.94096 1.9
      vertex 56.8599 8.86924 1.9
    endloop
  endfacet
  facet normal 0.951056 -0.309018 0
    outer loop
      vertex 54.7361 7.64305 6
      vertex 54.8427 7.97112 1.9
      vertex 54.8427 7.97112 6
    endloop
  endfacet
  facet normal 0.951056 -0.309018 0
    outer loop
      vertex 54.8427 7.97112 1.9
      vertex 54.7361 7.64305 6
      vertex 54.7361 7.64305 1.9
    endloop
  endfacet
  facet normal -0.866023 0.500003 0
    outer loop
      vertex 57.6849 6.33015 1.9
      vertex 57.8573 6.62888 6
      vertex 57.8573 6.62888 1.9
    endloop
  endfacet
  facet normal -0.866023 0.500003 0
    outer loop
      vertex 57.8573 6.62888 6
      vertex 57.6849 6.33015 1.9
      vertex 57.6849 6.33015 6
    endloop
  endfacet
  facet normal 0 1 -0
    outer loop
      vertex 56.5225 5.65904 1.9
      vertex 56.1775 5.65904 6
      vertex 56.5225 5.65904 6
    endloop
  endfacet
  facet normal 0 1 0
    outer loop
      vertex 56.1775 5.65904 6
      vertex 56.5225 5.65904 1.9
      vertex 56.1775 5.65904 1.9
    endloop
  endfacet
  facet normal -0.20791 0.978148 0
    outer loop
      vertex 56.8599 5.73076 1.9
      vertex 56.5225 5.65904 6
      vertex 56.8599 5.73076 6
    endloop
  endfacet
  facet normal -0.20791 0.978148 0
    outer loop
      vertex 56.5225 5.65904 6
      vertex 56.8599 5.73076 1.9
      vertex 56.5225 5.65904 1.9
    endloop
  endfacet
  facet normal -0.406739 0.913544 0
    outer loop
      vertex 57.175 5.87106 1.9
      vertex 56.8599 5.73076 6
      vertex 57.175 5.87106 6
    endloop
  endfacet
  facet normal -0.406739 0.913544 0
    outer loop
      vertex 56.8599 5.73076 6
      vertex 57.175 5.87106 1.9
      vertex 56.8599 5.73076 1.9
    endloop
  endfacet
  facet normal 0.20791 0.978148 -0
    outer loop
      vertex 56.1775 5.65904 1.9
      vertex 55.8401 5.73076 6
      vertex 56.1775 5.65904 6
    endloop
  endfacet
  facet normal 0.20791 0.978148 0
    outer loop
      vertex 55.8401 5.73076 6
      vertex 56.1775 5.65904 1.9
      vertex 55.8401 5.73076 1.9
    endloop
  endfacet
  facet normal 0.951056 0.309018 0
    outer loop
      vertex 54.8427 6.62888 6
      vertex 54.7361 6.95695 1.9
      vertex 54.7361 6.95695 6
    endloop
  endfacet
  facet normal 0.951056 0.309018 0
    outer loop
      vertex 54.7361 6.95695 1.9
      vertex 54.8427 6.62888 6
      vertex 54.8427 6.62888 1.9
    endloop
  endfacet
  facet normal 0.994522 0.104529 0
    outer loop
      vertex 54.7361 6.95695 6
      vertex 54.7 7.3 1.9
      vertex 54.7 7.3 6
    endloop
  endfacet
  facet normal 0.994522 0.104529 0
    outer loop
      vertex 54.7 7.3 1.9
      vertex 54.7361 6.95695 6
      vertex 54.7361 6.95695 1.9
    endloop
  endfacet
  facet normal 0.743145 0.66913 0
    outer loop
      vertex 55.2459 6.07381 6
      vertex 55.0151 6.33015 1.9
      vertex 55.0151 6.33015 6
    endloop
  endfacet
  facet normal 0.743145 0.66913 0
    outer loop
      vertex 55.0151 6.33015 1.9
      vertex 55.2459 6.07381 6
      vertex 55.2459 6.07381 1.9
    endloop
  endfacet
  facet normal -0.743145 0.66913 0
    outer loop
      vertex 57.4541 6.07381 1.9
      vertex 57.6849 6.33015 6
      vertex 57.6849 6.33015 1.9
    endloop
  endfacet
  facet normal -0.743145 0.66913 0
    outer loop
      vertex 57.6849 6.33015 6
      vertex 57.4541 6.07381 1.9
      vertex 57.4541 6.07381 6
    endloop
  endfacet
  facet normal 0.406739 0.913544 -0
    outer loop
      vertex 55.8401 5.73076 1.9
      vertex 55.525 5.87106 6
      vertex 55.8401 5.73076 6
    endloop
  endfacet
  facet normal 0.406739 0.913544 0
    outer loop
      vertex 55.525 5.87106 6
      vertex 55.8401 5.73076 1.9
      vertex 55.525 5.87106 1.9
    endloop
  endfacet
  facet normal 0.587782 0.809019 -0
    outer loop
      vertex 55.525 5.87106 1.9
      vertex 55.2459 6.07381 6
      vertex 55.525 5.87106 6
    endloop
  endfacet
  facet normal 0.587782 0.809019 0
    outer loop
      vertex 55.2459 6.07381 6
      vertex 55.525 5.87106 1.9
      vertex 55.2459 6.07381 1.9
    endloop
  endfacet
  facet normal -0.169495 0.797425 -0.579124
    outer loop
      vertex 3.96433 4.30933 0
      vertex 4.15988 5.73076 1.9
      vertex 4.07278 4.33238 0
    endloop
  endfacet
  facet normal -0.169496 0.797425 -0.579124
    outer loop
      vertex 4.15988 5.73076 1.9
      vertex 3.96433 4.30933 0
      vertex 3.82247 5.65904 1.9
    endloop
  endfacet
  facet normal -0.706019 -0.407619 -0.579124
    outer loop
      vertex 6.13827 8.97153 0
      vertex 6.39716 8.52311 0
      vertex 5.15735 7.97112 1.9
    endloop
  endfacet
  facet normal 0.169498 0.797424 -0.579124
    outer loop
      vertex 3.14012 5.73076 1.9
      vertex 3.22722 4.33238 0
      vertex 2.72074 4.44004 0
    endloop
  endfacet
  facet normal 0.331588 0.744758 -0.579124
    outer loop
      vertex 3.14012 5.73076 1.9
      vertex 2.72074 4.44004 0
      vertex 2.24772 4.65064 0
    endloop
  endfacet
  facet normal 0.810774 0.0852134 -0.579124
    outer loop
      vertex 2 7.3 1.9
      vertex 0.654446 7.18973 0
      vertex 0.642857 7.3 0
    endloop
  endfacet
  facet normal 0.810774 0.0852137 -0.579124
    outer loop
      vertex 0.654446 7.18973 0
      vertex 2 7.3 1.9
      vertex 2.03606 6.95695 1.9
    endloop
  endfacet
  facet normal 0.706018 -0.407619 -0.579124
    outer loop
      vertex 1.16173 8.97153 0
      vertex 2.14265 7.97112 1.9
      vertex 0.902838 8.52311 0
    endloop
  endfacet
  facet normal -0.605841 -0.545502 -0.579124
    outer loop
      vertex 5.66217 9.53474 0
      vertex 6.00864 9.14995 0
      vertex 4.75406 8.52619 1.9
    endloop
  endfacet
  facet normal 0.479184 -0.659544 -0.579124
    outer loop
      vertex 2.14643 9.90426 0
      vertex 2.54593 8.52619 1.9
      vertex 2.05673 9.83909 0
    endloop
  endfacet
  facet normal 0.479184 -0.659544 -0.579124
    outer loop
      vertex 2.54593 8.52619 1.9
      vertex 2.14643 9.90426 0
      vertex 2.825 8.72894 1.9
    endloop
  endfacet
  facet normal 0.331585 -0.744759 -0.579124
    outer loop
      vertex 2.24772 9.94936 0
      vertex 2.825 8.72894 1.9
      vertex 2.14643 9.90426 0
    endloop
  endfacet
  facet normal 0.331589 -0.744758 -0.579124
    outer loop
      vertex 2.825 8.72894 1.9
      vertex 2.24772 9.94936 0
      vertex 3.14012 8.86924 1.9
    endloop
  endfacet
  facet normal -0.605841 0.545502 -0.579124
    outer loop
      vertex 6.08283 5.53244 0
      vertex 5.73636 5.14765 0
      vertex 4.98488 6.33015 1.9
    endloop
  endfacet
  facet normal -0.605842 -0.545499 -0.579125
    outer loop
      vertex 6.08283 9.06755 0
      vertex 4.75406 8.52619 1.9
      vertex 6.00864 9.14995 0
    endloop
  endfacet
  facet normal -0.605841 -0.545502 -0.579124
    outer loop
      vertex 4.75406 8.52619 1.9
      vertex 6.08283 9.06755 0
      vertex 4.98488 8.26985 1.9
    endloop
  endfacet
  facet normal 0.605841 0.545502 -0.579124
    outer loop
      vertex 2.54593 6.07381 1.9
      vertex 1.63783 5.06526 0
      vertex 1.29136 5.45005 0
    endloop
  endfacet
  facet normal 0.479186 0.659543 -0.579124
    outer loop
      vertex 2.54593 6.07381 1.9
      vertex 2.05673 4.76091 0
      vertex 1.63783 5.06526 0
    endloop
  endfacet
  facet normal 0.810774 -0.0852135 -0.579124
    outer loop
      vertex 2 7.3 1.9
      vertex 0.654446 7.41027 0
      vertex 2.03606 7.64305 1.9
    endloop
  endfacet
  facet normal 0.810774 -0.085213 -0.579124
    outer loop
      vertex 0.654446 7.41027 0
      vertex 2 7.3 1.9
      vertex 0.642857 7.3 0
    endloop
  endfacet
  facet normal 0.775338 -0.251925 -0.579124
    outer loop
      vertex 2.14265 7.97112 1.9
      vertex 0.868575 8.41767 0
      vertex 0.902838 8.52311 0
    endloop
  endfacet
  facet normal 0.775338 -0.251924 -0.579124
    outer loop
      vertex 0.868575 8.41767 0
      vertex 2.14265 7.97112 1.9
      vertex 2.03606 7.64305 1.9
    endloop
  endfacet
  facet normal -0.169499 -0.797424 -0.579124
    outer loop
      vertex 4.47081 10.183 0
      vertex 4.15988 8.86924 1.9
      vertex 3.82247 8.94096 1.9
    endloop
  endfacet
  facet normal -0.169498 -0.797424 -0.579124
    outer loop
      vertex 4.15988 8.86924 1.9
      vertex 4.47081 10.183 0
      vertex 4.57926 10.16 0
    endloop
  endfacet
  facet normal -0.479186 -0.659543 -0.579124
    outer loop
      vertex 5.24327 9.83909 0
      vertex 5.66217 9.53474 0
      vertex 4.75406 8.52619 1.9
    endloop
  endfacet
  facet normal 0.605841 -0.545502 -0.579124
    outer loop
      vertex 1.63783 9.53474 0
      vertex 2.54593 8.52619 1.9
      vertex 1.29136 9.14995 0
    endloop
  endfacet
  facet normal 0.479186 -0.659543 -0.579124
    outer loop
      vertex 2.05673 9.83909 0
      vertex 2.54593 8.52619 1.9
      vertex 1.63783 9.53474 0
    endloop
  endfacet
  facet normal -0.810773 -0.0852153 -0.579124
    outer loop
      vertex 6.60302 7.81495 0
      vertex 6.65714 7.3 0
      vertex 5.3 7.3 1.9
    endloop
  endfacet
  facet normal -0.479185 0.659543 -0.579124
    outer loop
      vertex 5.57247 5.00009 0
      vertex 5.15357 4.69574 0
      vertex 4.475 5.87106 1.9
    endloop
  endfacet
  facet normal 0 0.815239 -0.579124
    outer loop
      vertex 3.96433 4.30933 0
      vertex 3.47753 5.65904 1.9
      vertex 3.82247 5.65904 1.9
    endloop
  endfacet
  facet normal 0 0.815239 -0.579124
    outer loop
      vertex 3.47753 5.65904 1.9
      vertex 3.96433 4.30933 0
      vertex 3.33567 4.30933 0
    endloop
  endfacet
  facet normal 0.775338 0.251924 -0.579124
    outer loop
      vertex 2.14265 6.62888 1.9
      vertex 0.868575 6.18233 0
      vertex 2.03606 6.95695 1.9
    endloop
  endfacet
  facet normal 0.775338 0.251924 -0.579124
    outer loop
      vertex 0.868575 6.18233 0
      vertex 2.14265 6.62888 1.9
      vertex 0.902838 6.07688 0
    endloop
  endfacet
  facet normal 0.775339 0.251923 -0.579124
    outer loop
      vertex 2.03606 6.95695 1.9
      vertex 0.868575 6.18233 0
      vertex 0.70857 6.67478 0
    endloop
  endfacet
  facet normal 0.810774 0.085215 -0.579124
    outer loop
      vertex 2.03606 6.95695 1.9
      vertex 0.70857 6.67478 0
      vertex 0.654446 7.18973 0
    endloop
  endfacet
  facet normal 0.605841 0.545501 -0.579124
    outer loop
      vertex 2.54593 6.07381 1.9
      vertex 1.21717 5.53244 0
      vertex 2.31512 6.33015 1.9
    endloop
  endfacet
  facet normal 0.605841 0.545501 -0.579124
    outer loop
      vertex 1.21717 5.53244 0
      vertex 2.54593 6.07381 1.9
      vertex 1.29136 5.45005 0
    endloop
  endfacet
  facet normal 0.775339 -0.251923 -0.579124
    outer loop
      vertex 0.868575 8.41767 0
      vertex 2.03606 7.64305 1.9
      vertex 0.70857 7.92522 0
    endloop
  endfacet
  facet normal 0.810774 -0.0852151 -0.579124
    outer loop
      vertex 0.70857 7.92522 0
      vertex 2.03606 7.64305 1.9
      vertex 0.654446 7.41027 0
    endloop
  endfacet
  facet normal 0.605843 -0.5455 -0.579124
    outer loop
      vertex 2.54593 8.52619 1.9
      vertex 1.21717 9.06755 0
      vertex 1.29136 9.14995 0
    endloop
  endfacet
  facet normal 0.605842 -0.5455 -0.579124
    outer loop
      vertex 1.21717 9.06755 0
      vertex 2.54593 8.52619 1.9
      vertex 2.31512 8.26985 1.9
    endloop
  endfacet
  facet normal 0.706017 -0.407621 -0.579124
    outer loop
      vertex 2.31512 8.26985 1.9
      vertex 1.16173 8.97153 0
      vertex 1.21717 9.06755 0
    endloop
  endfacet
  facet normal 0.706018 -0.40762 -0.579124
    outer loop
      vertex 1.16173 8.97153 0
      vertex 2.31512 8.26985 1.9
      vertex 2.14265 7.97112 1.9
    endloop
  endfacet
  facet normal -0.331589 -0.744758 -0.579124
    outer loop
      vertex 5.05228 9.94936 0
      vertex 4.475 8.72894 1.9
      vertex 4.15988 8.86924 1.9
    endloop
  endfacet
  facet normal -0.331585 -0.74476 -0.579124
    outer loop
      vertex 4.475 8.72894 1.9
      vertex 5.05228 9.94936 0
      vertex 5.15357 9.90426 0
    endloop
  endfacet
  facet normal -0.331589 -0.744758 -0.579124
    outer loop
      vertex 4.57926 10.16 0
      vertex 5.05228 9.94936 0
      vertex 4.15988 8.86924 1.9
    endloop
  endfacet
  facet normal 0.169496 -0.797425 -0.579124
    outer loop
      vertex 3.33567 10.2907 0
      vertex 3.47753 8.94096 1.9
      vertex 2.82919 10.183 0
    endloop
  endfacet
  facet normal 0.331589 -0.744758 -0.579124
    outer loop
      vertex 2.72074 10.16 0
      vertex 3.14012 8.86924 1.9
      vertex 2.24772 9.94936 0
    endloop
  endfacet
  facet normal -0.706016 -0.407623 -0.579124
    outer loop
      vertex 6.13827 8.97153 0
      vertex 4.98488 8.26985 1.9
      vertex 6.08283 9.06755 0
    endloop
  endfacet
  facet normal -0.706018 -0.40762 -0.579124
    outer loop
      vertex 4.98488 8.26985 1.9
      vertex 6.13827 8.97153 0
      vertex 5.15735 7.97112 1.9
    endloop
  endfacet
  facet normal -0.810773 -0.0852152 -0.579124
    outer loop
      vertex 6.60302 7.81495 0
      vertex 5.26394 7.64305 1.9
      vertex 6.59143 7.92522 0
    endloop
  endfacet
  facet normal -0.810773 -0.0852157 -0.579124
    outer loop
      vertex 5.26394 7.64305 1.9
      vertex 6.60302 7.81495 0
      vertex 5.3 7.3 1.9
    endloop
  endfacet
  facet normal -0.331587 0.744759 -0.579124
    outer loop
      vertex 5.05228 4.65064 0
      vertex 4.57926 4.44004 0
      vertex 4.15988 5.73076 1.9
    endloop
  endfacet
  facet normal -0.810773 0.0852153 -0.579124
    outer loop
      vertex 6.65714 7.3 0
      vertex 6.60302 6.78505 0
      vertex 5.3 7.3 1.9
    endloop
  endfacet
  facet normal -0.169498 0.797424 -0.579124
    outer loop
      vertex 4.15988 5.73076 1.9
      vertex 4.57926 4.44004 0
      vertex 4.07278 4.33238 0
    endloop
  endfacet
  facet normal -0.331591 0.744757 -0.579124
    outer loop
      vertex 5.05228 4.65064 0
      vertex 4.475 5.87106 1.9
      vertex 5.15357 4.69574 0
    endloop
  endfacet
  facet normal -0.331589 0.744758 -0.579124
    outer loop
      vertex 4.475 5.87106 1.9
      vertex 5.05228 4.65064 0
      vertex 4.15988 5.73076 1.9
    endloop
  endfacet
  facet normal 0.169496 0.797425 -0.579124
    outer loop
      vertex 3.33567 4.30933 0
      vertex 3.14012 5.73076 1.9
      vertex 3.47753 5.65904 1.9
    endloop
  endfacet
  facet normal 0.169494 0.797425 -0.579124
    outer loop
      vertex 3.14012 5.73076 1.9
      vertex 3.33567 4.30933 0
      vertex 3.22722 4.33238 0
    endloop
  endfacet
  facet normal 0.479185 0.659543 -0.579124
    outer loop
      vertex 2.14643 4.69574 0
      vertex 2.54593 6.07381 1.9
      vertex 2.825 5.87106 1.9
    endloop
  endfacet
  facet normal 0.479184 0.659544 -0.579124
    outer loop
      vertex 2.54593 6.07381 1.9
      vertex 2.14643 4.69574 0
      vertex 2.05673 4.76091 0
    endloop
  endfacet
  facet normal 0.331589 0.744758 -0.579124
    outer loop
      vertex 2.24772 4.65064 0
      vertex 2.825 5.87106 1.9
      vertex 3.14012 5.73076 1.9
    endloop
  endfacet
  facet normal 0.331591 0.744757 -0.579124
    outer loop
      vertex 2.825 5.87106 1.9
      vertex 2.24772 4.65064 0
      vertex 2.14643 4.69574 0
    endloop
  endfacet
  facet normal 0.706018 0.407619 -0.579124
    outer loop
      vertex 2.31512 6.33015 1.9
      vertex 0.902838 6.07688 0
      vertex 2.14265 6.62888 1.9
    endloop
  endfacet
  facet normal 0.706019 0.407619 -0.579124
    outer loop
      vertex 0.902838 6.07688 0
      vertex 2.31512 6.33015 1.9
      vertex 0.958275 5.98086 0
    endloop
  endfacet
  facet normal 0.706018 0.40762 -0.579124
    outer loop
      vertex 2.31512 6.33015 1.9
      vertex 1.21717 5.53244 0
      vertex 0.958275 5.98086 0
    endloop
  endfacet
  facet normal 0 -0.81524 -0.579124
    outer loop
      vertex 3.33567 10.2907 0
      vertex 3.82247 8.94096 1.9
      vertex 3.47753 8.94096 1.9
    endloop
  endfacet
  facet normal 0 -0.81524 -0.579124
    outer loop
      vertex 3.82247 8.94096 1.9
      vertex 3.33567 10.2907 0
      vertex 3.96433 10.2907 0
    endloop
  endfacet
  facet normal -0.169497 -0.797425 -0.579124
    outer loop
      vertex 3.96433 10.2907 0
      vertex 4.47081 10.183 0
      vertex 3.82247 8.94096 1.9
    endloop
  endfacet
  facet normal -0.479185 -0.659543 -0.579124
    outer loop
      vertex 5.15357 9.90426 0
      vertex 4.75406 8.52619 1.9
      vertex 4.475 8.72894 1.9
    endloop
  endfacet
  facet normal -0.479185 -0.659543 -0.579124
    outer loop
      vertex 4.75406 8.52619 1.9
      vertex 5.15357 9.90426 0
      vertex 5.24327 9.83909 0
    endloop
  endfacet
  facet normal 0.169498 -0.797424 -0.579124
    outer loop
      vertex 2.82919 10.183 0
      vertex 3.14012 8.86924 1.9
      vertex 2.72074 10.16 0
    endloop
  endfacet
  facet normal 0.169499 -0.797424 -0.579124
    outer loop
      vertex 3.14012 8.86924 1.9
      vertex 2.82919 10.183 0
      vertex 3.47753 8.94096 1.9
    endloop
  endfacet
  facet normal -0.775339 0.251923 -0.579124
    outer loop
      vertex 6.55717 6.56933 0
      vertex 6.39716 6.07688 0
      vertex 5.15735 6.62888 1.9
    endloop
  endfacet
  facet normal -0.775339 -0.251923 -0.579124
    outer loop
      vertex 6.39716 8.52311 0
      vertex 6.55717 8.03067 0
      vertex 5.15735 7.97112 1.9
    endloop
  endfacet
  facet normal -0.775339 -0.251922 -0.579124
    outer loop
      vertex 6.59143 7.92522 0
      vertex 5.15735 7.97112 1.9
      vertex 6.55717 8.03067 0
    endloop
  endfacet
  facet normal -0.775339 -0.251922 -0.579124
    outer loop
      vertex 5.15735 7.97112 1.9
      vertex 6.59143 7.92522 0
      vertex 5.26394 7.64305 1.9
    endloop
  endfacet
  facet normal -0.479186 0.659542 -0.579124
    outer loop
      vertex 5.57247 5.00009 0
      vertex 4.75406 6.07381 1.9
      vertex 5.66217 5.06526 0
    endloop
  endfacet
  facet normal -0.479186 0.659542 -0.579124
    outer loop
      vertex 4.75406 6.07381 1.9
      vertex 5.57247 5.00009 0
      vertex 4.475 5.87106 1.9
    endloop
  endfacet
  facet normal -0.60584 0.545503 -0.579124
    outer loop
      vertex 5.73636 5.14765 0
      vertex 4.75406 6.07381 1.9
      vertex 4.98488 6.33015 1.9
    endloop
  endfacet
  facet normal -0.605841 0.545501 -0.579124
    outer loop
      vertex 4.75406 6.07381 1.9
      vertex 5.73636 5.14765 0
      vertex 5.66217 5.06526 0
    endloop
  endfacet
  facet normal -0.706018 0.407619 -0.579124
    outer loop
      vertex 6.39716 6.07688 0
      vertex 4.98488 6.33015 1.9
      vertex 5.15735 6.62888 1.9
    endloop
  endfacet
  facet normal -0.706018 0.40762 -0.579124
    outer loop
      vertex 4.98488 6.33015 1.9
      vertex 6.39716 6.07688 0
      vertex 6.34172 5.98086 0
    endloop
  endfacet
  facet normal -0.706018 0.40762 -0.579124
    outer loop
      vertex 6.34172 5.98086 0
      vertex 6.08283 5.53244 0
      vertex 4.98488 6.33015 1.9
    endloop
  endfacet
  facet normal -0.775339 0.251922 -0.579124
    outer loop
      vertex 6.59143 6.67478 0
      vertex 5.15735 6.62888 1.9
      vertex 5.26394 6.95695 1.9
    endloop
  endfacet
  facet normal -0.775339 0.251924 -0.579124
    outer loop
      vertex 5.15735 6.62888 1.9
      vertex 6.59143 6.67478 0
      vertex 6.55717 6.56933 0
    endloop
  endfacet
  facet normal -0.810773 0.085216 -0.579124
    outer loop
      vertex 6.60302 6.78505 0
      vertex 5.26394 6.95695 1.9
      vertex 5.3 7.3 1.9
    endloop
  endfacet
  facet normal -0.810773 0.0852152 -0.579124
    outer loop
      vertex 5.26394 6.95695 1.9
      vertex 6.60302 6.78505 0
      vertex 6.59143 6.67478 0
    endloop
  endfacet
  facet normal 0.775339 0.25192 -0.579125
    outer loop
      vertex 54.8427 6.62888 1.9
      vertex 53.6028 6.07688 0
      vertex 53.4428 6.56933 0
    endloop
  endfacet
  facet normal -0.169495 0.797425 -0.579124
    outer loop
      vertex 56.6643 4.30933 0
      vertex 56.8599 5.73076 1.9
      vertex 56.7728 4.33238 0
    endloop
  endfacet
  facet normal -0.169496 0.797425 -0.579124
    outer loop
      vertex 56.8599 5.73076 1.9
      vertex 56.6643 4.30933 0
      vertex 56.5225 5.65904 1.9
    endloop
  endfacet
  facet normal -0.70602 -0.407616 -0.579124
    outer loop
      vertex 58.8383 8.97153 0
      vertex 59.0972 8.52311 0
      vertex 57.8573 7.97112 1.9
    endloop
  endfacet
  facet normal 0.169498 0.797424 -0.579124
    outer loop
      vertex 55.8401 5.73076 1.9
      vertex 55.9272 4.33238 0
      vertex 55.4207 4.44004 0
    endloop
  endfacet
  facet normal 0.331586 0.744759 -0.579124
    outer loop
      vertex 55.8401 5.73076 1.9
      vertex 55.4207 4.44004 0
      vertex 54.9477 4.65064 0
    endloop
  endfacet
  facet normal 0.775338 0.251924 -0.579125
    outer loop
      vertex 54.8427 6.62888 1.9
      vertex 53.4086 6.67478 0
      vertex 54.7361 6.95695 1.9
    endloop
  endfacet
  facet normal 0.775336 0.251933 -0.579123
    outer loop
      vertex 53.4086 6.67478 0
      vertex 54.8427 6.62888 1.9
      vertex 53.4428 6.56933 0
    endloop
  endfacet
  facet normal 0.706017 -0.40762 -0.579125
    outer loop
      vertex 53.8617 8.97153 0
      vertex 54.8427 7.97112 1.9
      vertex 53.6028 8.52311 0
    endloop
  endfacet
  facet normal -0.60584 -0.545503 -0.579124
    outer loop
      vertex 58.3622 9.53474 0
      vertex 58.7086 9.14995 0
      vertex 57.4541 8.52619 1.9
    endloop
  endfacet
  facet normal 0.479187 -0.659542 -0.579124
    outer loop
      vertex 54.8464 9.90426 0
      vertex 55.2459 8.52619 1.9
      vertex 54.7567 9.83909 0
    endloop
  endfacet
  facet normal 0.479181 -0.659545 -0.579125
    outer loop
      vertex 55.2459 8.52619 1.9
      vertex 54.8464 9.90426 0
      vertex 55.525 8.72894 1.9
    endloop
  endfacet
  facet normal 0.331589 -0.744758 -0.579124
    outer loop
      vertex 54.9477 9.94936 0
      vertex 55.525 8.72894 1.9
      vertex 54.8464 9.90426 0
    endloop
  endfacet
  facet normal 0.331589 -0.744757 -0.579124
    outer loop
      vertex 55.525 8.72894 1.9
      vertex 54.9477 9.94936 0
      vertex 55.8401 8.86924 1.9
    endloop
  endfacet
  facet normal -0.605841 0.545501 -0.579124
    outer loop
      vertex 58.7828 5.53244 0
      vertex 57.4541 6.07381 1.9
      vertex 57.6849 6.33015 1.9
    endloop
  endfacet
  facet normal -0.605845 0.545495 -0.579126
    outer loop
      vertex 57.4541 6.07381 1.9
      vertex 58.7828 5.53244 0
      vertex 58.7086 5.45005 0
    endloop
  endfacet
  facet normal -0.605847 -0.545493 -0.579126
    outer loop
      vertex 58.7828 9.06755 0
      vertex 57.4541 8.52619 1.9
      vertex 58.7086 9.14995 0
    endloop
  endfacet
  facet normal -0.605842 -0.5455 -0.579125
    outer loop
      vertex 57.4541 8.52619 1.9
      vertex 58.7828 9.06755 0
      vertex 57.6849 8.26985 1.9
    endloop
  endfacet
  facet normal 0.331589 0.744757 -0.579125
    outer loop
      vertex 54.9477 4.65064 0
      vertex 55.525 5.87106 1.9
      vertex 55.8401 5.73076 1.9
    endloop
  endfacet
  facet normal 0.331594 0.744755 -0.579125
    outer loop
      vertex 55.525 5.87106 1.9
      vertex 54.9477 4.65064 0
      vertex 54.8464 4.69574 0
    endloop
  endfacet
  facet normal 0.60584 0.545503 -0.579124
    outer loop
      vertex 55.0151 6.33015 1.9
      vertex 54.2636 5.14765 0
      vertex 53.9172 5.53244 0
    endloop
  endfacet
  facet normal 0.479186 0.659542 -0.579124
    outer loop
      vertex 55.525 5.87106 1.9
      vertex 54.8464 4.69574 0
      vertex 54.4275 5.00009 0
    endloop
  endfacet
  facet normal 0.775337 -0.251931 -0.579123
    outer loop
      vertex 54.8427 7.97112 1.9
      vertex 53.4086 7.92522 0
      vertex 53.4428 8.03067 0
    endloop
  endfacet
  facet normal 0.775338 -0.251924 -0.579124
    outer loop
      vertex 53.4086 7.92522 0
      vertex 54.8427 7.97112 1.9
      vertex 54.7361 7.64305 1.9
    endloop
  endfacet
  facet normal 0.810773 -0.0852145 -0.579124
    outer loop
      vertex 53.397 7.81495 0
      vertex 54.7 7.3 1.9
      vertex 53.3429 7.3 0
    endloop
  endfacet
  facet normal 0.775339 -0.25192 -0.579125
    outer loop
      vertex 53.6028 8.52311 0
      vertex 54.8427 7.97112 1.9
      vertex 53.4428 8.03067 0
    endloop
  endfacet
  facet normal -0.169499 -0.797424 -0.579124
    outer loop
      vertex 57.1708 10.183 0
      vertex 56.8599 8.86924 1.9
      vertex 56.5225 8.94096 1.9
    endloop
  endfacet
  facet normal -0.169498 -0.797424 -0.579124
    outer loop
      vertex 56.8599 8.86924 1.9
      vertex 57.1708 10.183 0
      vertex 57.2793 10.16 0
    endloop
  endfacet
  facet normal -0.479186 -0.659542 -0.579124
    outer loop
      vertex 57.9433 9.83909 0
      vertex 58.3622 9.53474 0
      vertex 57.4541 8.52619 1.9
    endloop
  endfacet
  facet normal 0.60584 -0.545503 -0.579124
    outer loop
      vertex 54.3378 9.53474 0
      vertex 55.2459 8.52619 1.9
      vertex 53.9914 9.14995 0
    endloop
  endfacet
  facet normal 0.479186 -0.659542 -0.579124
    outer loop
      vertex 54.7567 9.83909 0
      vertex 55.2459 8.52619 1.9
      vertex 54.3378 9.53474 0
    endloop
  endfacet
  facet normal -0.775335 -0.251933 -0.579124
    outer loop
      vertex 59.1314 8.41767 0
      vertex 57.8573 7.97112 1.9
      vertex 59.0972 8.52311 0
    endloop
  endfacet
  facet normal -0.775338 -0.251924 -0.579124
    outer loop
      vertex 57.8573 7.97112 1.9
      vertex 59.1314 8.41767 0
      vertex 57.9639 7.64305 1.9
    endloop
  endfacet
  facet normal 0 0.815239 -0.579124
    outer loop
      vertex 56.6643 4.30933 0
      vertex 56.1775 5.65904 1.9
      vertex 56.5225 5.65904 1.9
    endloop
  endfacet
  facet normal 0 0.815239 -0.579124
    outer loop
      vertex 56.1775 5.65904 1.9
      vertex 56.6643 4.30933 0
      vertex 56.0357 4.30933 0
    endloop
  endfacet
  facet normal 0.810773 0.085216 -0.579124
    outer loop
      vertex 54.7361 6.95695 1.9
      vertex 53.397 6.78505 0
      vertex 54.7 7.3 1.9
    endloop
  endfacet
  facet normal 0.810774 0.0852117 -0.579124
    outer loop
      vertex 53.397 6.78505 0
      vertex 54.7361 6.95695 1.9
      vertex 53.4086 6.67478 0
    endloop
  endfacet
  facet normal 0.810773 0.0852145 -0.579124
    outer loop
      vertex 54.7 7.3 1.9
      vertex 53.397 6.78505 0
      vertex 53.3429 7.3 0
    endloop
  endfacet
  facet normal 0.479183 0.659545 -0.579124
    outer loop
      vertex 54.4275 5.00009 0
      vertex 55.2459 6.07381 1.9
      vertex 55.525 5.87106 1.9
    endloop
  endfacet
  facet normal 0.479189 0.65954 -0.579124
    outer loop
      vertex 55.2459 6.07381 1.9
      vertex 54.4275 5.00009 0
      vertex 54.3378 5.06526 0
    endloop
  endfacet
  facet normal 0.810774 -0.0852117 -0.579124
    outer loop
      vertex 54.7361 7.64305 1.9
      vertex 53.397 7.81495 0
      vertex 53.4086 7.92522 0
    endloop
  endfacet
  facet normal 0.810773 -0.0852157 -0.579124
    outer loop
      vertex 53.397 7.81495 0
      vertex 54.7361 7.64305 1.9
      vertex 54.7 7.3 1.9
    endloop
  endfacet
  facet normal 0.605835 -0.54551 -0.579123
    outer loop
      vertex 55.2459 8.52619 1.9
      vertex 53.9172 9.06755 0
      vertex 53.9914 9.14995 0
    endloop
  endfacet
  facet normal 0.605842 -0.5455 -0.579125
    outer loop
      vertex 53.9172 9.06755 0
      vertex 55.2459 8.52619 1.9
      vertex 55.0151 8.26985 1.9
    endloop
  endfacet
  facet normal 0.706024 -0.40761 -0.579124
    outer loop
      vertex 55.0151 8.26985 1.9
      vertex 53.8617 8.97153 0
      vertex 53.9172 9.06755 0
    endloop
  endfacet
  facet normal 0.70602 -0.407617 -0.579124
    outer loop
      vertex 53.8617 8.97153 0
      vertex 55.0151 8.26985 1.9
      vertex 54.8427 7.97112 1.9
    endloop
  endfacet
  facet normal -0.33159 -0.744757 -0.579124
    outer loop
      vertex 57.7523 9.94936 0
      vertex 57.175 8.72894 1.9
      vertex 56.8599 8.86924 1.9
    endloop
  endfacet
  facet normal -0.331589 -0.744758 -0.579124
    outer loop
      vertex 57.175 8.72894 1.9
      vertex 57.7523 9.94936 0
      vertex 57.8536 9.90426 0
    endloop
  endfacet
  facet normal -0.33159 -0.744757 -0.579124
    outer loop
      vertex 57.2793 10.16 0
      vertex 57.7523 9.94936 0
      vertex 56.8599 8.86924 1.9
    endloop
  endfacet
  facet normal 0.169497 -0.797425 -0.579124
    outer loop
      vertex 56.0357 10.2907 0
      vertex 56.1775 8.94096 1.9
      vertex 55.5292 10.183 0
    endloop
  endfacet
  facet normal 0.331587 -0.744758 -0.579124
    outer loop
      vertex 55.4207 10.16 0
      vertex 55.8401 8.86924 1.9
      vertex 54.9477 9.94936 0
    endloop
  endfacet
  facet normal -0.706011 -0.40763 -0.579125
    outer loop
      vertex 58.8383 8.97153 0
      vertex 57.6849 8.26985 1.9
      vertex 58.7828 9.06755 0
    endloop
  endfacet
  facet normal -0.706015 -0.407623 -0.579125
    outer loop
      vertex 57.6849 8.26985 1.9
      vertex 58.8383 8.97153 0
      vertex 57.8573 7.97112 1.9
    endloop
  endfacet
  facet normal -0.810773 -0.0852205 -0.579124
    outer loop
      vertex 59.2914 7.92522 0
      vertex 59.3456 7.41027 0
      vertex 57.9639 7.64305 1.9
    endloop
  endfacet
  facet normal -0.479186 0.659542 -0.579124
    outer loop
      vertex 58.3622 5.06526 0
      vertex 57.9433 4.76091 0
      vertex 57.4541 6.07381 1.9
    endloop
  endfacet
  facet normal -0.479173 0.65955 -0.579126
    outer loop
      vertex 57.8536 4.69574 0
      vertex 57.4541 6.07381 1.9
      vertex 57.9433 4.76091 0
    endloop
  endfacet
  facet normal -0.479188 0.659542 -0.579124
    outer loop
      vertex 57.4541 6.07381 1.9
      vertex 57.8536 4.69574 0
      vertex 57.175 5.87106 1.9
    endloop
  endfacet
  facet normal -0.810773 0.0852145 -0.579124
    outer loop
      vertex 59.3571 7.3 0
      vertex 59.303 6.78505 0
      vertex 58 7.3 1.9
    endloop
  endfacet
  facet normal -0.169498 0.797424 -0.579124
    outer loop
      vertex 56.8599 5.73076 1.9
      vertex 57.2793 4.44004 0
      vertex 56.7728 4.33238 0
    endloop
  endfacet
  facet normal -0.331588 0.744758 -0.579124
    outer loop
      vertex 57.7523 4.65064 0
      vertex 57.2793 4.44004 0
      vertex 56.8599 5.73076 1.9
    endloop
  endfacet
  facet normal 0.169496 0.797425 -0.579124
    outer loop
      vertex 56.0357 4.30933 0
      vertex 55.8401 5.73076 1.9
      vertex 56.1775 5.65904 1.9
    endloop
  endfacet
  facet normal 0.169495 0.797425 -0.579124
    outer loop
      vertex 55.8401 5.73076 1.9
      vertex 56.0357 4.30933 0
      vertex 55.9272 4.33238 0
    endloop
  endfacet
  facet normal 0.70602 0.407615 -0.579125
    outer loop
      vertex 55.0151 6.33015 1.9
      vertex 53.6028 6.07688 0
      vertex 54.8427 6.62888 1.9
    endloop
  endfacet
  facet normal 0.706014 0.407628 -0.579123
    outer loop
      vertex 53.6028 6.07688 0
      vertex 55.0151 6.33015 1.9
      vertex 53.6583 5.98086 0
    endloop
  endfacet
  facet normal 0.70602 0.407617 -0.579124
    outer loop
      vertex 55.0151 6.33015 1.9
      vertex 53.9172 5.53244 0
      vertex 53.6583 5.98086 0
    endloop
  endfacet
  facet normal 0 -0.81524 -0.579124
    outer loop
      vertex 56.0357 10.2907 0
      vertex 56.5225 8.94096 1.9
      vertex 56.1775 8.94096 1.9
    endloop
  endfacet
  facet normal 0 -0.81524 -0.579124
    outer loop
      vertex 56.5225 8.94096 1.9
      vertex 56.0357 10.2907 0
      vertex 56.6643 10.2907 0
    endloop
  endfacet
  facet normal -0.169497 -0.797425 -0.579124
    outer loop
      vertex 56.6643 10.2907 0
      vertex 57.1708 10.183 0
      vertex 56.5225 8.94096 1.9
    endloop
  endfacet
  facet normal -0.479186 -0.659543 -0.579124
    outer loop
      vertex 57.8536 9.90426 0
      vertex 57.4541 8.52619 1.9
      vertex 57.175 8.72894 1.9
    endloop
  endfacet
  facet normal -0.479173 -0.65955 -0.579126
    outer loop
      vertex 57.4541 8.52619 1.9
      vertex 57.8536 9.90426 0
      vertex 57.9433 9.83909 0
    endloop
  endfacet
  facet normal 0.169498 -0.797424 -0.579124
    outer loop
      vertex 55.5292 10.183 0
      vertex 55.8401 8.86924 1.9
      vertex 55.4207 10.16 0
    endloop
  endfacet
  facet normal 0.169499 -0.797424 -0.579124
    outer loop
      vertex 55.8401 8.86924 1.9
      vertex 55.5292 10.183 0
      vertex 56.1775 8.94096 1.9
    endloop
  endfacet
  facet normal -0.331594 0.744755 -0.579124
    outer loop
      vertex 57.7523 4.65064 0
      vertex 57.175 5.87106 1.9
      vertex 57.8536 4.69574 0
    endloop
  endfacet
  facet normal -0.33159 0.744757 -0.579124
    outer loop
      vertex 57.175 5.87106 1.9
      vertex 57.7523 4.65064 0
      vertex 56.8599 5.73076 1.9
    endloop
  endfacet
  facet normal -0.60584 0.545503 -0.579125
    outer loop
      vertex 58.7086 5.45005 0
      vertex 58.3622 5.06526 0
      vertex 57.4541 6.07381 1.9
    endloop
  endfacet
  facet normal -0.810773 0.085216 -0.579124
    outer loop
      vertex 59.303 6.78505 0
      vertex 57.9639 6.95695 1.9
      vertex 58 7.3 1.9
    endloop
  endfacet
  facet normal -0.810771 0.0852395 -0.579125
    outer loop
      vertex 57.9639 6.95695 1.9
      vertex 59.303 6.78505 0
      vertex 59.2914 6.67478 0
    endloop
  endfacet
  facet normal -0.77534 0.25192 -0.579124
    outer loop
      vertex 59.2914 6.67478 0
      vertex 59.1314 6.18233 0
      vertex 57.9639 6.95695 1.9
    endloop
  endfacet
  facet normal -0.77534 -0.25192 -0.579124
    outer loop
      vertex 59.1314 8.41767 0
      vertex 59.2914 7.92522 0
      vertex 57.9639 7.64305 1.9
    endloop
  endfacet
  facet normal -0.810774 -0.0852117 -0.579124
    outer loop
      vertex 58 7.3 1.9
      vertex 59.3456 7.41027 0
      vertex 59.3571 7.3 0
    endloop
  endfacet
  facet normal -0.810773 -0.0852157 -0.579124
    outer loop
      vertex 59.3456 7.41027 0
      vertex 58 7.3 1.9
      vertex 57.9639 7.64305 1.9
    endloop
  endfacet
  facet normal 0.605841 0.545501 -0.579124
    outer loop
      vertex 55.2459 6.07381 1.9
      vertex 54.2636 5.14765 0
      vertex 55.0151 6.33015 1.9
    endloop
  endfacet
  facet normal 0.605832 0.545511 -0.579124
    outer loop
      vertex 54.2636 5.14765 0
      vertex 55.2459 6.07381 1.9
      vertex 54.3378 5.06526 0
    endloop
  endfacet
  facet normal -0.706017 0.407623 -0.579124
    outer loop
      vertex 59.0972 6.07688 0
      vertex 57.6849 6.33015 1.9
      vertex 57.8573 6.62888 1.9
    endloop
  endfacet
  facet normal -0.706024 0.407606 -0.579127
    outer loop
      vertex 57.6849 6.33015 1.9
      vertex 59.0972 6.07688 0
      vertex 59.0417 5.98086 0
    endloop
  endfacet
  facet normal -0.706017 0.407621 -0.579125
    outer loop
      vertex 59.0417 5.98086 0
      vertex 58.7828 5.53244 0
      vertex 57.6849 6.33015 1.9
    endloop
  endfacet
  facet normal -0.775338 0.251924 -0.579124
    outer loop
      vertex 59.1314 6.18233 0
      vertex 57.8573 6.62888 1.9
      vertex 57.9639 6.95695 1.9
    endloop
  endfacet
  facet normal -0.775336 0.251932 -0.579124
    outer loop
      vertex 57.8573 6.62888 1.9
      vertex 59.1314 6.18233 0
      vertex 59.0972 6.07688 0
    endloop
  endfacet
endsolid OpenSCAD_Model
