solid OpenSCAD_Model
  facet normal 1 -0 0
    outer loop
      vertex 7 2 6
      vertex 7 13 2
      vertex 7 13 6
    endloop
  endfacet
  facet normal 1 0 0
    outer loop
      vertex 7 13 2
      vertex 7 2 6
      vertex 7 2 2
    endloop
  endfacet
  facet normal -1 0 0
    outer loop
      vertex 52 2 2
      vertex 52 13 6
      vertex 52 13 2
    endloop
  endfacet
  facet normal -1 -0 0
    outer loop
      vertex 52 13 6
      vertex 52 2 2
      vertex 52 2 6
    endloop
  endfacet
  facet normal 0 -1 0
    outer loop
      vertex 7 13 2
      vertex 52 13 6
      vertex 7 13 6
    endloop
  endfacet
  facet normal 0 -1 -0
    outer loop
      vertex 52 13 6
      vertex 7 13 2
      vertex 52 13 2
    endloop
  endfacet
  facet normal 0 0 1
    outer loop
      vertex 52 13 2
      vertex 44.6213 7.1 2
      vertex 52 2 2
    endloop
  endfacet
  facet normal 0 0 1
    outer loop
      vertex 52 13 2
      vertex 44.5 11.5 2
      vertex 44.6213 7.1 2
    endloop
  endfacet
  facet normal -0 0 1
    outer loop
      vertex 7 13 2
      vertex 44.5 11.5 2
      vertex 52 13 2
    endloop
  endfacet
  facet normal 0 0 1
    outer loop
      vertex 11.5 11.5 2
      vertex 11.3787 7.1 2
      vertex 11.5 7.1 2
    endloop
  endfacet
  facet normal 0 0 1
    outer loop
      vertex 44.5 11.5 2
      vertex 7 13 2
      vertex 11.5 11.5 2
    endloop
  endfacet
  facet normal 0 0 1
    outer loop
      vertex 7 13 2
      vertex 11.3787 7.1 2
      vertex 11.5 11.5 2
    endloop
  endfacet
  facet normal 0 0 1
    outer loop
      vertex 7 2 2
      vertex 11.3787 7.1 2
      vertex 7 13 2
    endloop
  endfacet
  facet normal 0 0 1
    outer loop
      vertex 11.3787 7.1 2
      vertex 7 2 2
      vertex 11.3787 2 2
    endloop
  endfacet
  facet normal 0 0 1
    outer loop
      vertex 52 2 2
      vertex 44.6213 7.1 2
      vertex 44.6213 2 2
    endloop
  endfacet
  facet normal 0 0 1
    outer loop
      vertex 44.6213 7.1 2
      vertex 44.5 11.5 2
      vertex 44.5 7.1 2
    endloop
  endfacet
  facet normal 0 1 0
    outer loop
      vertex 52 2 6
      vertex 44.5 2 2.12132
      vertex 7 2 6
    endloop
  endfacet
  facet normal 0 1 0
    outer loop
      vertex 44.6213 2 2
      vertex 52 2 6
      vertex 52 2 2
    endloop
  endfacet
  facet normal 0 1 0
    outer loop
      vertex 52 2 6
      vertex 44.6213 2 2
      vertex 44.5 2 2.12132
    endloop
  endfacet
  facet normal 0 1 -0
    outer loop
      vertex 11.5 2 2.12132
      vertex 7 2 6
      vertex 44.5 2 2.12132
    endloop
  endfacet
  facet normal 0 1 -0
    outer loop
      vertex 11.3787 2 2
      vertex 7 2 6
      vertex 11.5 2 2.12132
    endloop
  endfacet
  facet normal 0 1 0
    outer loop
      vertex 7 2 6
      vertex 11.3787 2 2
      vertex 7 2 2
    endloop
  endfacet
  facet normal 1 -0 0
    outer loop
      vertex 11.5 7.1 2
      vertex 11.5 11.5 0
      vertex 11.5 11.5 2
    endloop
  endfacet
  facet normal 1 0 0
    outer loop
      vertex 11.5 11.5 0
      vertex 11.5 7.1 2
      vertex 11.5 7.1 0
    endloop
  endfacet
  facet normal -1 0 0
    outer loop
      vertex 44.5 7.1 0
      vertex 44.5 11.5 2
      vertex 44.5 11.5 0
    endloop
  endfacet
  facet normal -1 -0 0
    outer loop
      vertex 44.5 11.5 2
      vertex 44.5 7.1 0
      vertex 44.5 7.1 2
    endloop
  endfacet
  facet normal 0 0 -1
    outer loop
      vertex 6.08283 5.73245 0
      vertex 9.37868 7.1 0
      vertex 9.37868 0 0
    endloop
  endfacet
  facet normal -0 0 -1
    outer loop
      vertex 9.37868 7.1 0
      vertex 6.60302 6.98505 0
      vertex 6.65714 7.5 0
    endloop
  endfacet
  facet normal 0 0 -1
    outer loop
      vertex 9.37868 7.1 0
      vertex 6.59143 6.87478 0
      vertex 6.60302 6.98505 0
    endloop
  endfacet
  facet normal 0 0 -1
    outer loop
      vertex 9.37868 7.1 0
      vertex 6.55717 6.76933 0
      vertex 6.59143 6.87478 0
    endloop
  endfacet
  facet normal 0 0 -1
    outer loop
      vertex 9.37868 7.1 0
      vertex 6.39716 6.27688 0
      vertex 6.55717 6.76933 0
    endloop
  endfacet
  facet normal 0 0 -1
    outer loop
      vertex 9.37868 7.1 0
      vertex 6.13827 5.82847 0
      vertex 6.39716 6.27688 0
    endloop
  endfacet
  facet normal 0 0 -1
    outer loop
      vertex 9.37868 7.1 0
      vertex 6.08283 5.73245 0
      vertex 6.13827 5.82847 0
    endloop
  endfacet
  facet normal 0 0 -1
    outer loop
      vertex 9.37868 0 0
      vertex 6.00864 5.65005 0
      vertex 6.08283 5.73245 0
    endloop
  endfacet
  facet normal 0 0 -1
    outer loop
      vertex 9.37868 0 0
      vertex 5.66217 5.26526 0
      vertex 6.00864 5.65005 0
    endloop
  endfacet
  facet normal 0 0 -1
    outer loop
      vertex 9.37868 0 0
      vertex 5.57247 5.20009 0
      vertex 5.66217 5.26526 0
    endloop
  endfacet
  facet normal 0 0 -1
    outer loop
      vertex 9.37868 0 0
      vertex 5.15357 4.89574 0
      vertex 5.57247 5.20009 0
    endloop
  endfacet
  facet normal 0 0 -1
    outer loop
      vertex 9.37868 0 0
      vertex 4.68055 4.68513 0
      vertex 5.15357 4.89574 0
    endloop
  endfacet
  facet normal 0 0 -1
    outer loop
      vertex 9.37868 0 0
      vertex 4.57926 4.64004 0
      vertex 4.68055 4.68513 0
    endloop
  endfacet
  facet normal 0 0 -1
    outer loop
      vertex 9.37868 0 0
      vertex 4.07278 4.53238 0
      vertex 4.57926 4.64004 0
    endloop
  endfacet
  facet normal 0 0 -1
    outer loop
      vertex 9.37868 0 0
      vertex 3.96433 4.50933 0
      vertex 4.07278 4.53238 0
    endloop
  endfacet
  facet normal 0 0 -1
    outer loop
      vertex 0 0 0
      vertex 3.96433 4.50933 0
      vertex 9.37868 0 0
    endloop
  endfacet
  facet normal -0 0 -1
    outer loop
      vertex 3.96433 4.50933 0
      vertex 0 0 0
      vertex 3.33567 4.50933 0
    endloop
  endfacet
  facet normal -0 0 -1
    outer loop
      vertex 3.33567 4.50933 0
      vertex 0 0 0
      vertex 2.82919 4.61698 0
    endloop
  endfacet
  facet normal -0 0 -1
    outer loop
      vertex 2.82919 4.61698 0
      vertex 0 0 0
      vertex 2.72074 4.64004 0
    endloop
  endfacet
  facet normal -0 0 -1
    outer loop
      vertex 2.72074 4.64004 0
      vertex 0 0 0
      vertex 2.61945 4.68513 0
    endloop
  endfacet
  facet normal 0 0 -1
    outer loop
      vertex 0 0 0
      vertex 1.16173 5.82847 0
      vertex 1.21717 5.73245 0
    endloop
  endfacet
  facet normal -0 0 -1
    outer loop
      vertex 0.654446 7.38973 0
      vertex 0 0 0
      vertex 0.642857 7.5 0
    endloop
  endfacet
  facet normal -0 0 -1
    outer loop
      vertex 0.70857 6.87478 0
      vertex 0 0 0
      vertex 0.654446 7.38973 0
    endloop
  endfacet
  facet normal -0 0 -1
    outer loop
      vertex 0.868575 6.38233 0
      vertex 0 0 0
      vertex 0.70857 6.87478 0
    endloop
  endfacet
  facet normal -0 0 -1
    outer loop
      vertex 0.902838 6.27688 0
      vertex 0 0 0
      vertex 0.868575 6.38233 0
    endloop
  endfacet
  facet normal -0 0 -1
    outer loop
      vertex 1.16173 5.82847 0
      vertex 0 0 0
      vertex 0.902838 6.27688 0
    endloop
  endfacet
  facet normal -0 0 -1
    outer loop
      vertex 1.29136 5.65005 0
      vertex 0 0 0
      vertex 1.21717 5.73245 0
    endloop
  endfacet
  facet normal -0 0 -1
    outer loop
      vertex 1.63783 5.26526 0
      vertex 0 0 0
      vertex 1.29136 5.65005 0
    endloop
  endfacet
  facet normal -0 0 -1
    outer loop
      vertex 2.05673 4.96091 0
      vertex 0 0 0
      vertex 1.63783 5.26526 0
    endloop
  endfacet
  facet normal -0 0 -1
    outer loop
      vertex 2.14643 4.89574 0
      vertex 0 0 0
      vertex 2.05673 4.96091 0
    endloop
  endfacet
  facet normal -0 0 -1
    outer loop
      vertex 2.61945 4.68513 0
      vertex 0 0 0
      vertex 2.14643 4.89574 0
    endloop
  endfacet
  facet normal 0 0 -1
    outer loop
      vertex 11.5 7.1 0
      vertex 9.37868 7.1 0
      vertex 11.5 11.5 0
    endloop
  endfacet
  facet normal 0 0 -1
    outer loop
      vertex 59 0 0
      vertex 58.3571 7.5 0
      vertex 59 15 0
    endloop
  endfacet
  facet normal 0 0 -1
    outer loop
      vertex 59 0 0
      vertex 58.3456 7.38973 0
      vertex 58.3571 7.5 0
    endloop
  endfacet
  facet normal 0 0 -1
    outer loop
      vertex 59 0 0
      vertex 58.2914 6.87478 0
      vertex 58.3456 7.38973 0
    endloop
  endfacet
  facet normal 0 0 -1
    outer loop
      vertex 59 0 0
      vertex 58.1314 6.38233 0
      vertex 58.2914 6.87478 0
    endloop
  endfacet
  facet normal 0 0 -1
    outer loop
      vertex 59 0 0
      vertex 58.0972 6.27688 0
      vertex 58.1314 6.38233 0
    endloop
  endfacet
  facet normal 0 0 -1
    outer loop
      vertex 59 0 0
      vertex 57.8383 5.82847 0
      vertex 58.0972 6.27688 0
    endloop
  endfacet
  facet normal 0 0 -1
    outer loop
      vertex 59 0 0
      vertex 57.7828 5.73245 0
      vertex 57.8383 5.82847 0
    endloop
  endfacet
  facet normal 0 0 -1
    outer loop
      vertex 59 0 0
      vertex 57.7086 5.65005 0
      vertex 57.7828 5.73245 0
    endloop
  endfacet
  facet normal 0 0 -1
    outer loop
      vertex 59 0 0
      vertex 57.3622 5.26526 0
      vertex 57.7086 5.65005 0
    endloop
  endfacet
  facet normal 0 0 -1
    outer loop
      vertex 59 0 0
      vertex 56.9433 4.96091 0
      vertex 57.3622 5.26526 0
    endloop
  endfacet
  facet normal 0 0 -1
    outer loop
      vertex 59 0 0
      vertex 56.8536 4.89574 0
      vertex 56.9433 4.96091 0
    endloop
  endfacet
  facet normal 0 0 -1
    outer loop
      vertex 59 0 0
      vertex 56.3805 4.68513 0
      vertex 56.8536 4.89574 0
    endloop
  endfacet
  facet normal 0 0 -1
    outer loop
      vertex 59 0 0
      vertex 56.2793 4.64004 0
      vertex 56.3805 4.68513 0
    endloop
  endfacet
  facet normal 0 0 -1
    outer loop
      vertex 59 0 0
      vertex 56.1708 4.61698 0
      vertex 56.2793 4.64004 0
    endloop
  endfacet
  facet normal 0 0 -1
    outer loop
      vertex 59 0 0
      vertex 55.6643 4.50933 0
      vertex 56.1708 4.61698 0
    endloop
  endfacet
  facet normal 0 0 -1
    outer loop
      vertex 59 0 0
      vertex 55.0357 4.50933 0
      vertex 55.6643 4.50933 0
    endloop
  endfacet
  facet normal 0 0 -1
    outer loop
      vertex 59 0 0
      vertex 54.9272 4.53238 0
      vertex 55.0357 4.50933 0
    endloop
  endfacet
  facet normal 0 0 -1
    outer loop
      vertex 59 0 0
      vertex 54.4207 4.64004 0
      vertex 54.9272 4.53238 0
    endloop
  endfacet
  facet normal 0 0 -1
    outer loop
      vertex 46.6213 0 0
      vertex 54.4207 4.64004 0
      vertex 59 0 0
    endloop
  endfacet
  facet normal -0 0 -1
    outer loop
      vertex 54.4207 4.64004 0
      vertex 46.6213 0 0
      vertex 54.3195 4.68513 0
    endloop
  endfacet
  facet normal -0 0 -1
    outer loop
      vertex 54.3195 4.68513 0
      vertex 46.6213 0 0
      vertex 53.8464 4.89574 0
    endloop
  endfacet
  facet normal -0 0 -1
    outer loop
      vertex 53.8464 4.89574 0
      vertex 46.6213 0 0
      vertex 53.4275 5.20009 0
    endloop
  endfacet
  facet normal 0 0 -1
    outer loop
      vertex 46.6213 0 0
      vertex 52.9914 5.65005 0
      vertex 53.3378 5.26526 0
    endloop
  endfacet
  facet normal 0 0 -1
    outer loop
      vertex 46.6213 7.1 0
      vertex 52.8617 5.82847 0
      vertex 52.9172 5.73245 0
    endloop
  endfacet
  facet normal 0 0 -1
    outer loop
      vertex 46.6213 7.1 0
      vertex 52.4428 6.76933 0
      vertex 52.6028 6.27688 0
    endloop
  endfacet
  facet normal 0 0 -1
    outer loop
      vertex 46.6213 7.1 0
      vertex 52.397 6.98505 0
      vertex 52.4086 6.87478 0
    endloop
  endfacet
  facet normal 0 0 -1
    outer loop
      vertex 52.4428 6.76933 0
      vertex 46.6213 7.1 0
      vertex 52.4086 6.87478 0
    endloop
  endfacet
  facet normal 0 0 -1
    outer loop
      vertex 52.8617 5.82847 0
      vertex 46.6213 7.1 0
      vertex 52.6028 6.27688 0
    endloop
  endfacet
  facet normal 0 0 -1
    outer loop
      vertex 46.6213 7.1 0
      vertex 52.9172 5.73245 0
      vertex 46.6213 0 0
    endloop
  endfacet
  facet normal -0 0 -1
    outer loop
      vertex 52.9914 5.65005 0
      vertex 46.6213 0 0
      vertex 52.9172 5.73245 0
    endloop
  endfacet
  facet normal -0 0 -1
    outer loop
      vertex 53.4275 5.20009 0
      vertex 46.6213 0 0
      vertex 53.3378 5.26526 0
    endloop
  endfacet
  facet normal 0 0 -1
    outer loop
      vertex 58.3456 7.61027 0
      vertex 59 15 0
      vertex 58.3571 7.5 0
    endloop
  endfacet
  facet normal 0 0 -1
    outer loop
      vertex 58.2914 8.12522 0
      vertex 59 15 0
      vertex 58.3456 7.61027 0
    endloop
  endfacet
  facet normal 0 0 -1
    outer loop
      vertex 58.1314 8.61767 0
      vertex 59 15 0
      vertex 58.2914 8.12522 0
    endloop
  endfacet
  facet normal 0 0 -1
    outer loop
      vertex 58.0972 8.72311 0
      vertex 59 15 0
      vertex 58.1314 8.61767 0
    endloop
  endfacet
  facet normal 0 0 -1
    outer loop
      vertex 57.8383 9.17153 0
      vertex 59 15 0
      vertex 58.0972 8.72311 0
    endloop
  endfacet
  facet normal 0 0 -1
    outer loop
      vertex 57.7828 9.26755 0
      vertex 59 15 0
      vertex 57.8383 9.17153 0
    endloop
  endfacet
  facet normal 0 0 -1
    outer loop
      vertex 57.7086 9.34995 0
      vertex 59 15 0
      vertex 57.7828 9.26755 0
    endloop
  endfacet
  facet normal 0 0 -1
    outer loop
      vertex 57.3622 9.73474 0
      vertex 59 15 0
      vertex 57.7086 9.34995 0
    endloop
  endfacet
  facet normal 0 0 -1
    outer loop
      vertex 56.9433 10.0391 0
      vertex 59 15 0
      vertex 57.3622 9.73474 0
    endloop
  endfacet
  facet normal 0 0 -1
    outer loop
      vertex 56.8536 10.1043 0
      vertex 59 15 0
      vertex 56.9433 10.0391 0
    endloop
  endfacet
  facet normal 0 0 -1
    outer loop
      vertex 56.3805 10.3149 0
      vertex 59 15 0
      vertex 56.8536 10.1043 0
    endloop
  endfacet
  facet normal 0 0 -1
    outer loop
      vertex 56.2793 10.36 0
      vertex 59 15 0
      vertex 56.3805 10.3149 0
    endloop
  endfacet
  facet normal 0 0 -1
    outer loop
      vertex 56.1708 10.383 0
      vertex 59 15 0
      vertex 56.2793 10.36 0
    endloop
  endfacet
  facet normal 0 0 -1
    outer loop
      vertex 55.6643 10.4907 0
      vertex 59 15 0
      vertex 56.1708 10.383 0
    endloop
  endfacet
  facet normal 0 0 -1
    outer loop
      vertex 55.0357 10.4907 0
      vertex 59 15 0
      vertex 55.6643 10.4907 0
    endloop
  endfacet
  facet normal 0 0 -1
    outer loop
      vertex 54.9272 10.4676 0
      vertex 59 15 0
      vertex 55.0357 10.4907 0
    endloop
  endfacet
  facet normal 0 0 -1
    outer loop
      vertex 54.4207 10.36 0
      vertex 59 15 0
      vertex 54.9272 10.4676 0
    endloop
  endfacet
  facet normal 0 0 -1
    outer loop
      vertex 54.3195 10.3149 0
      vertex 59 15 0
      vertex 54.4207 10.36 0
    endloop
  endfacet
  facet normal 0 0 -1
    outer loop
      vertex 44.5 11.5 0
      vertex 54.3195 10.3149 0
      vertex 53.8464 10.1043 0
    endloop
  endfacet
  facet normal 0 0 -1
    outer loop
      vertex 44.5 11.5 0
      vertex 53.8464 10.1043 0
      vertex 53.4275 9.79991 0
    endloop
  endfacet
  facet normal 0 0 -1
    outer loop
      vertex 44.5 11.5 0
      vertex 53.4275 9.79991 0
      vertex 53.3378 9.73474 0
    endloop
  endfacet
  facet normal 0 0 -1
    outer loop
      vertex 44.5 11.5 0
      vertex 52.9914 9.34995 0
      vertex 52.9172 9.26755 0
    endloop
  endfacet
  facet normal 0 0 -1
    outer loop
      vertex 44.5 11.5 0
      vertex 52.8617 9.17153 0
      vertex 52.6028 8.72311 0
    endloop
  endfacet
  facet normal 0 0 -1
    outer loop
      vertex 46.6213 7.1 0
      vertex 52.4428 8.23067 0
      vertex 52.4086 8.12522 0
    endloop
  endfacet
  facet normal 0 0 -1
    outer loop
      vertex 46.6213 7.1 0
      vertex 52.397 8.01495 0
      vertex 52.3429 7.5 0
    endloop
  endfacet
  facet normal 0 0 -1
    outer loop
      vertex 52.397 6.98505 0
      vertex 46.6213 7.1 0
      vertex 52.3429 7.5 0
    endloop
  endfacet
  facet normal -0 0 -1
    outer loop
      vertex 52.397 8.01495 0
      vertex 46.6213 7.1 0
      vertex 52.4086 8.12522 0
    endloop
  endfacet
  facet normal -0 0 -1
    outer loop
      vertex 52.4428 8.23067 0
      vertex 46.6213 7.1 0
      vertex 52.6028 8.72311 0
    endloop
  endfacet
  facet normal 0 0 -1
    outer loop
      vertex 44.5 11.5 0
      vertex 52.6028 8.72311 0
      vertex 46.6213 7.1 0
    endloop
  endfacet
  facet normal 0 0 -1
    outer loop
      vertex 52.8617 9.17153 0
      vertex 44.5 11.5 0
      vertex 52.9172 9.26755 0
    endloop
  endfacet
  facet normal 0 0 -1
    outer loop
      vertex 52.9914 9.34995 0
      vertex 44.5 11.5 0
      vertex 53.3378 9.73474 0
    endloop
  endfacet
  facet normal 0 0 -1
    outer loop
      vertex 44.5 11.5 0
      vertex 46.6213 7.1 0
      vertex 44.5 7.1 0
    endloop
  endfacet
  facet normal 0 0 -1
    outer loop
      vertex 54.3195 10.3149 0
      vertex 44.5 11.5 0
      vertex 59 15 0
    endloop
  endfacet
  facet normal 0 0 -1
    outer loop
      vertex 0 15 0
      vertex 44.5 11.5 0
      vertex 11.5 11.5 0
    endloop
  endfacet
  facet normal 0 0 -1
    outer loop
      vertex 6.60302 8.01495 0
      vertex 9.37868 7.1 0
      vertex 6.65714 7.5 0
    endloop
  endfacet
  facet normal 0 0 -1
    outer loop
      vertex 6.59143 8.12522 0
      vertex 9.37868 7.1 0
      vertex 6.60302 8.01495 0
    endloop
  endfacet
  facet normal 0 0 -1
    outer loop
      vertex 6.55717 8.23067 0
      vertex 9.37868 7.1 0
      vertex 6.59143 8.12522 0
    endloop
  endfacet
  facet normal 0 0 -1
    outer loop
      vertex 6.39716 8.72311 0
      vertex 9.37868 7.1 0
      vertex 6.55717 8.23067 0
    endloop
  endfacet
  facet normal 0 0 -1
    outer loop
      vertex 9.37868 7.1 0
      vertex 6.39716 8.72311 0
      vertex 11.5 11.5 0
    endloop
  endfacet
  facet normal 0 0 -1
    outer loop
      vertex 6.13827 9.17153 0
      vertex 11.5 11.5 0
      vertex 6.39716 8.72311 0
    endloop
  endfacet
  facet normal 0 0 -1
    outer loop
      vertex 6.08283 9.26755 0
      vertex 11.5 11.5 0
      vertex 6.13827 9.17153 0
    endloop
  endfacet
  facet normal 0 0 -1
    outer loop
      vertex 6.00864 9.34995 0
      vertex 11.5 11.5 0
      vertex 6.08283 9.26755 0
    endloop
  endfacet
  facet normal 0 0 -1
    outer loop
      vertex 5.66217 9.73474 0
      vertex 11.5 11.5 0
      vertex 6.00864 9.34995 0
    endloop
  endfacet
  facet normal 0 0 -1
    outer loop
      vertex 5.57247 9.79991 0
      vertex 11.5 11.5 0
      vertex 5.66217 9.73474 0
    endloop
  endfacet
  facet normal 0 0 -1
    outer loop
      vertex 5.15357 10.1043 0
      vertex 11.5 11.5 0
      vertex 5.57247 9.79991 0
    endloop
  endfacet
  facet normal 0 0 -1
    outer loop
      vertex 4.68055 10.3149 0
      vertex 11.5 11.5 0
      vertex 5.15357 10.1043 0
    endloop
  endfacet
  facet normal 0 0 -1
    outer loop
      vertex 4.57926 10.36 0
      vertex 11.5 11.5 0
      vertex 4.68055 10.3149 0
    endloop
  endfacet
  facet normal 0 0 -1
    outer loop
      vertex 0 15 0
      vertex 4.57926 10.36 0
      vertex 4.07278 10.4676 0
    endloop
  endfacet
  facet normal 0 0 -1
    outer loop
      vertex 0 15 0
      vertex 4.07278 10.4676 0
      vertex 3.96433 10.4907 0
    endloop
  endfacet
  facet normal 0 0 -1
    outer loop
      vertex 0 15 0
      vertex 3.96433 10.4907 0
      vertex 3.33567 10.4907 0
    endloop
  endfacet
  facet normal 0 0 -1
    outer loop
      vertex 0 15 0
      vertex 2.61945 10.3149 0
      vertex 2.14643 10.1043 0
    endloop
  endfacet
  facet normal 0 0 -1
    outer loop
      vertex 0 15 0
      vertex 2.05673 10.0391 0
      vertex 1.63783 9.73474 0
    endloop
  endfacet
  facet normal 0 0 -1
    outer loop
      vertex 44.5 11.5 0
      vertex 0 15 0
      vertex 59 15 0
    endloop
  endfacet
  facet normal 0 0 -1
    outer loop
      vertex 4.57926 10.36 0
      vertex 0 15 0
      vertex 11.5 11.5 0
    endloop
  endfacet
  facet normal 0 0 -1
    outer loop
      vertex 2.82919 10.383 0
      vertex 0 15 0
      vertex 3.33567 10.4907 0
    endloop
  endfacet
  facet normal 0 0 -1
    outer loop
      vertex 2.72074 10.36 0
      vertex 0 15 0
      vertex 2.82919 10.383 0
    endloop
  endfacet
  facet normal 0 0 -1
    outer loop
      vertex 2.61945 10.3149 0
      vertex 0 15 0
      vertex 2.72074 10.36 0
    endloop
  endfacet
  facet normal 0 0 -1
    outer loop
      vertex 2.05673 10.0391 0
      vertex 0 15 0
      vertex 2.14643 10.1043 0
    endloop
  endfacet
  facet normal 0 0 -1
    outer loop
      vertex 1.29136 9.34995 0
      vertex 0 15 0
      vertex 1.63783 9.73474 0
    endloop
  endfacet
  facet normal 0 0 -1
    outer loop
      vertex 1.21717 9.26755 0
      vertex 0 15 0
      vertex 1.29136 9.34995 0
    endloop
  endfacet
  facet normal 0 0 -1
    outer loop
      vertex 1.16173 9.17153 0
      vertex 0 15 0
      vertex 1.21717 9.26755 0
    endloop
  endfacet
  facet normal 0 0 -1
    outer loop
      vertex 0.902838 8.72311 0
      vertex 0 15 0
      vertex 1.16173 9.17153 0
    endloop
  endfacet
  facet normal 0 0 -1
    outer loop
      vertex 0.868575 8.61767 0
      vertex 0 15 0
      vertex 0.902838 8.72311 0
    endloop
  endfacet
  facet normal 0 0 -1
    outer loop
      vertex 0.70857 8.12522 0
      vertex 0 15 0
      vertex 0.868575 8.61767 0
    endloop
  endfacet
  facet normal 0 0 -1
    outer loop
      vertex 0.654446 7.61027 0
      vertex 0 15 0
      vertex 0.70857 8.12522 0
    endloop
  endfacet
  facet normal 0 0 -1
    outer loop
      vertex 0.642857 7.5 0
      vertex 0 15 0
      vertex 0.654446 7.61027 0
    endloop
  endfacet
  facet normal 0 0 -1
    outer loop
      vertex 0 15 0
      vertex 0.642857 7.5 0
      vertex 0 0 0
    endloop
  endfacet
  facet normal 0 -1 0
    outer loop
      vertex 11.5 11.5 0
      vertex 44.5 11.5 2
      vertex 11.5 11.5 2
    endloop
  endfacet
  facet normal 0 -1 -0
    outer loop
      vertex 44.5 11.5 2
      vertex 11.5 11.5 0
      vertex 44.5 11.5 0
    endloop
  endfacet
  facet normal 0.707107 0 -0.707107
    outer loop
      vertex 11.5 0 2.12132
      vertex 11.3787 2 2
      vertex 11.5 2 2.12132
    endloop
  endfacet
  facet normal 0.707106 -3.85665e-008 -0.707107
    outer loop
      vertex 9.37868 0 9.53674e-007
      vertex 11.3787 2 2
      vertex 11.5 0 2.12132
    endloop
  endfacet
  facet normal 0.707106 0 -0.707107
    outer loop
      vertex 9.37868 7.1 9.53674e-007
      vertex 11.3787 2 2
      vertex 9.37868 0 9.53674e-007
    endloop
  endfacet
  facet normal 0.707106 0 -0.707107
    outer loop
      vertex 11.3787 2 2
      vertex 9.37868 7.1 9.53674e-007
      vertex 11.3787 7.1 2
    endloop
  endfacet
  facet normal 0.707107 -0 0.707107
    outer loop
      vertex 9.37868 0 9.53674e-007
      vertex 9.37868 7.1 0
      vertex 9.37868 7.1 9.53674e-007
    endloop
  endfacet
  facet normal 0.707107 0 0.707107
    outer loop
      vertex 9.37868 7.1 0
      vertex 9.37868 0 9.53674e-007
      vertex 9.37868 0 0
    endloop
  endfacet
  facet normal 0 -1 0
    outer loop
      vertex 9.37868 7.1 0
      vertex 11.3787 7.1 2
      vertex 9.37868 7.1 9.53674e-007
    endloop
  endfacet
  facet normal 0 -1 0
    outer loop
      vertex 11.5 7.1 0
      vertex 11.3787 7.1 2
      vertex 9.37868 7.1 0
    endloop
  endfacet
  facet normal 0 -1 0
    outer loop
      vertex 11.3787 7.1 2
      vertex 11.5 7.1 0
      vertex 11.5 7.1 2
    endloop
  endfacet
  facet normal 0 -1 0
    outer loop
      vertex 44.5 7.1 0
      vertex 44.6213 7.1 2
      vertex 44.5 7.1 2
    endloop
  endfacet
  facet normal 0 -1 -0
    outer loop
      vertex 44.6213 7.1 2
      vertex 44.5 7.1 0
      vertex 46.6213 7.1 0
    endloop
  endfacet
  facet normal 0 0 -1
    outer loop
      vertex 11.5 0 2.12132
      vertex 44.5 2 2.12132
      vertex 44.5 0 2.12132
    endloop
  endfacet
  facet normal -0 0 -1
    outer loop
      vertex 44.5 2 2.12132
      vertex 11.5 0 2.12132
      vertex 11.5 2 2.12132
    endloop
  endfacet
  facet normal -0.707107 0 -0.707107
    outer loop
      vertex 46.6213 7.1 0
      vertex 44.6213 2 2
      vertex 44.6213 7.1 2
    endloop
  endfacet
  facet normal -0.707107 0 -0.707107
    outer loop
      vertex 46.6213 0 0
      vertex 44.6213 2 2
      vertex 46.6213 7.1 0
    endloop
  endfacet
  facet normal -0.707107 -3.17892e-007 -0.707107
    outer loop
      vertex 44.5 0 2.12132
      vertex 44.6213 2 2
      vertex 46.6213 0 0
    endloop
  endfacet
  facet normal -0.70711 0 -0.707104
    outer loop
      vertex 44.6213 2 2
      vertex 44.5 0 2.12132
      vertex 44.5 2 2.12132
    endloop
  endfacet
  facet normal -1 0 0
    outer loop
      vertex 0 0 0
      vertex 0 15 6
      vertex 0 15 0
    endloop
  endfacet
  facet normal -1 -0 0
    outer loop
      vertex 0 15 6
      vertex 0 0 0
      vertex 0 0 6
    endloop
  endfacet
  facet normal 0 0 1
    outer loop
      vertex 59 15 6
      vertex 57 7.5 6
      vertex 59 0 6
    endloop
  endfacet
  facet normal 0 0 1
    outer loop
      vertex 59 15 6
      vertex 56.9639 7.84305 6
      vertex 57 7.5 6
    endloop
  endfacet
  facet normal 0 0 1
    outer loop
      vertex 59 15 6
      vertex 56.8573 8.17111 6
      vertex 56.9639 7.84305 6
    endloop
  endfacet
  facet normal 0 0 1
    outer loop
      vertex 59 15 6
      vertex 56.6849 8.46984 6
      vertex 56.8573 8.17111 6
    endloop
  endfacet
  facet normal 0 0 1
    outer loop
      vertex 59 15 6
      vertex 56.4541 8.72619 6
      vertex 56.6849 8.46984 6
    endloop
  endfacet
  facet normal 0 0 1
    outer loop
      vertex 59 15 6
      vertex 56.175 8.92894 6
      vertex 56.4541 8.72619 6
    endloop
  endfacet
  facet normal 0 0 1
    outer loop
      vertex 59 15 6
      vertex 55.8599 9.06924 6
      vertex 56.175 8.92894 6
    endloop
  endfacet
  facet normal 0 0 1
    outer loop
      vertex 59 15 6
      vertex 55.5225 9.14096 6
      vertex 55.8599 9.06924 6
    endloop
  endfacet
  facet normal -0 0 1
    outer loop
      vertex 52 13 6
      vertex 55.5225 9.14096 6
      vertex 59 15 6
    endloop
  endfacet
  facet normal 0 0 1
    outer loop
      vertex 55.5225 9.14096 6
      vertex 52 13 6
      vertex 55.1775 9.14096 6
    endloop
  endfacet
  facet normal 0 0 1
    outer loop
      vertex 55.1775 9.14096 6
      vertex 52 13 6
      vertex 54.8401 9.06924 6
    endloop
  endfacet
  facet normal 0 0 1
    outer loop
      vertex 54.8401 9.06924 6
      vertex 52 13 6
      vertex 54.525 8.92894 6
    endloop
  endfacet
  facet normal 0 0 1
    outer loop
      vertex 54.525 8.92894 6
      vertex 52 13 6
      vertex 54.2459 8.72619 6
    endloop
  endfacet
  facet normal 0 0 1
    outer loop
      vertex 53.7361 7.84305 6
      vertex 52 13 6
      vertex 53.7 7.5 6
    endloop
  endfacet
  facet normal 0 0 1
    outer loop
      vertex 53.8427 8.17111 6
      vertex 52 13 6
      vertex 53.7361 7.84305 6
    endloop
  endfacet
  facet normal 0 0 1
    outer loop
      vertex 54.0151 8.46984 6
      vertex 52 13 6
      vertex 53.8427 8.17111 6
    endloop
  endfacet
  facet normal 0 0 1
    outer loop
      vertex 54.2459 8.72619 6
      vertex 52 13 6
      vertex 54.0151 8.46984 6
    endloop
  endfacet
  facet normal 0 0 1
    outer loop
      vertex 59 15 6
      vertex 7 13 6
      vertex 52 13 6
    endloop
  endfacet
  facet normal 0 0 1
    outer loop
      vertex 7 13 6
      vertex 5.3 7.5 6
      vertex 7 2 6
    endloop
  endfacet
  facet normal 0 0 1
    outer loop
      vertex 7 13 6
      vertex 5.26394 7.84305 6
      vertex 5.3 7.5 6
    endloop
  endfacet
  facet normal 0 0 1
    outer loop
      vertex 7 13 6
      vertex 5.15735 8.17111 6
      vertex 5.26394 7.84305 6
    endloop
  endfacet
  facet normal 0 0 1
    outer loop
      vertex 7 13 6
      vertex 4.98488 8.46984 6
      vertex 5.15735 8.17111 6
    endloop
  endfacet
  facet normal 0 0 1
    outer loop
      vertex 7 13 6
      vertex 4.75406 8.72619 6
      vertex 4.98488 8.46984 6
    endloop
  endfacet
  facet normal 0 0 1
    outer loop
      vertex 7 13 6
      vertex 4.475 8.92894 6
      vertex 4.75406 8.72619 6
    endloop
  endfacet
  facet normal 0 0 1
    outer loop
      vertex 7 13 6
      vertex 4.15988 9.06924 6
      vertex 4.475 8.92894 6
    endloop
  endfacet
  facet normal 0 0 1
    outer loop
      vertex 7 13 6
      vertex 3.82247 9.14096 6
      vertex 4.15988 9.06924 6
    endloop
  endfacet
  facet normal 0 0 1
    outer loop
      vertex 7 13 6
      vertex 3.47753 9.14096 6
      vertex 3.82247 9.14096 6
    endloop
  endfacet
  facet normal 0 0 1
    outer loop
      vertex 0 15 6
      vertex 3.47753 9.14096 6
      vertex 7 13 6
    endloop
  endfacet
  facet normal 0 0 1
    outer loop
      vertex 3.47753 9.14096 6
      vertex 0 15 6
      vertex 3.14012 9.06924 6
    endloop
  endfacet
  facet normal 0 0 1
    outer loop
      vertex 3.14012 9.06924 6
      vertex 0 15 6
      vertex 2.825 8.92894 6
    endloop
  endfacet
  facet normal 0 0 1
    outer loop
      vertex 2.03606 7.84305 6
      vertex 0 15 6
      vertex 2 7.5 6
    endloop
  endfacet
  facet normal 0 0 1
    outer loop
      vertex 2.14265 8.17111 6
      vertex 0 15 6
      vertex 2.03606 7.84305 6
    endloop
  endfacet
  facet normal 0 0 1
    outer loop
      vertex 2.31512 8.46984 6
      vertex 0 15 6
      vertex 2.14265 8.17111 6
    endloop
  endfacet
  facet normal 0 0 1
    outer loop
      vertex 2.54593 8.72619 6
      vertex 0 15 6
      vertex 2.31512 8.46984 6
    endloop
  endfacet
  facet normal 0 0 1
    outer loop
      vertex 2.825 8.92894 6
      vertex 0 15 6
      vertex 2.54593 8.72619 6
    endloop
  endfacet
  facet normal -0 0 1
    outer loop
      vertex 0 15 6
      vertex 7 13 6
      vertex 59 15 6
    endloop
  endfacet
  facet normal -0 0 1
    outer loop
      vertex 56.9639 7.15695 6
      vertex 59 0 6
      vertex 57 7.5 6
    endloop
  endfacet
  facet normal -0 0 1
    outer loop
      vertex 56.8573 6.82888 6
      vertex 59 0 6
      vertex 56.9639 7.15695 6
    endloop
  endfacet
  facet normal -0 0 1
    outer loop
      vertex 56.6849 6.53015 6
      vertex 59 0 6
      vertex 56.8573 6.82888 6
    endloop
  endfacet
  facet normal -0 0 1
    outer loop
      vertex 56.4541 6.27381 6
      vertex 59 0 6
      vertex 56.6849 6.53015 6
    endloop
  endfacet
  facet normal -0 0 1
    outer loop
      vertex 56.175 6.07106 6
      vertex 59 0 6
      vertex 56.4541 6.27381 6
    endloop
  endfacet
  facet normal -0 0 1
    outer loop
      vertex 55.8599 5.93076 6
      vertex 59 0 6
      vertex 56.175 6.07106 6
    endloop
  endfacet
  facet normal -0 0 1
    outer loop
      vertex 55.5225 5.85904 6
      vertex 59 0 6
      vertex 55.8599 5.93076 6
    endloop
  endfacet
  facet normal 0 0 1
    outer loop
      vertex 52 2 6
      vertex 55.5225 5.85904 6
      vertex 55.1775 5.85904 6
    endloop
  endfacet
  facet normal 0 0 1
    outer loop
      vertex 52 2 6
      vertex 55.1775 5.85904 6
      vertex 54.8401 5.93076 6
    endloop
  endfacet
  facet normal 0 0 1
    outer loop
      vertex 52 2 6
      vertex 54.8401 5.93076 6
      vertex 54.525 6.07106 6
    endloop
  endfacet
  facet normal 0 0 1
    outer loop
      vertex 52 2 6
      vertex 54.525 6.07106 6
      vertex 54.2459 6.27381 6
    endloop
  endfacet
  facet normal 0 0 1
    outer loop
      vertex 52 2 6
      vertex 54.2459 6.27381 6
      vertex 54.0151 6.53015 6
    endloop
  endfacet
  facet normal 0 0 1
    outer loop
      vertex 52 2 6
      vertex 53.7 7.5 6
      vertex 52 13 6
    endloop
  endfacet
  facet normal 0 0 1
    outer loop
      vertex 53.7 7.5 6
      vertex 52 2 6
      vertex 53.7361 7.15695 6
    endloop
  endfacet
  facet normal 0 0 1
    outer loop
      vertex 52 2 6
      vertex 53.8427 6.82888 6
      vertex 53.7361 7.15695 6
    endloop
  endfacet
  facet normal 0 0 1
    outer loop
      vertex 52 2 6
      vertex 54.0151 6.53015 6
      vertex 53.8427 6.82888 6
    endloop
  endfacet
  facet normal 0 0 1
    outer loop
      vertex 55.5225 5.85904 6
      vertex 52 2 6
      vertex 59 0 6
    endloop
  endfacet
  facet normal -0 0 1
    outer loop
      vertex 7 2 6
      vertex 59 0 6
      vertex 52 2 6
    endloop
  endfacet
  facet normal -0 0 1
    outer loop
      vertex 5.26394 7.15695 6
      vertex 7 2 6
      vertex 5.3 7.5 6
    endloop
  endfacet
  facet normal -0 0 1
    outer loop
      vertex 5.15735 6.82888 6
      vertex 7 2 6
      vertex 5.26394 7.15695 6
    endloop
  endfacet
  facet normal -0 0 1
    outer loop
      vertex 4.98488 6.53015 6
      vertex 7 2 6
      vertex 5.15735 6.82888 6
    endloop
  endfacet
  facet normal -0 0 1
    outer loop
      vertex 4.75406 6.27381 6
      vertex 7 2 6
      vertex 4.98488 6.53015 6
    endloop
  endfacet
  facet normal -0 0 1
    outer loop
      vertex 4.475 6.07106 6
      vertex 7 2 6
      vertex 4.75406 6.27381 6
    endloop
  endfacet
  facet normal -0 0 1
    outer loop
      vertex 4.15988 5.93076 6
      vertex 7 2 6
      vertex 4.475 6.07106 6
    endloop
  endfacet
  facet normal -0 0 1
    outer loop
      vertex 3.82247 5.85904 6
      vertex 7 2 6
      vertex 4.15988 5.93076 6
    endloop
  endfacet
  facet normal -0 0 1
    outer loop
      vertex 3.47753 5.85904 6
      vertex 7 2 6
      vertex 3.82247 5.85904 6
    endloop
  endfacet
  facet normal 0 0 1
    outer loop
      vertex 0 0 6
      vertex 3.47753 5.85904 6
      vertex 3.14012 5.93076 6
    endloop
  endfacet
  facet normal 0 0 1
    outer loop
      vertex 0 0 6
      vertex 3.14012 5.93076 6
      vertex 2.825 6.07106 6
    endloop
  endfacet
  facet normal 0 0 1
    outer loop
      vertex 0 0 6
      vertex 2.825 6.07106 6
      vertex 2.54593 6.27381 6
    endloop
  endfacet
  facet normal 0 0 1
    outer loop
      vertex 0 0 6
      vertex 2 7.5 6
      vertex 0 15 6
    endloop
  endfacet
  facet normal 0 0 1
    outer loop
      vertex 7 2 6
      vertex 0 0 6
      vertex 59 0 6
    endloop
  endfacet
  facet normal 0 0 1
    outer loop
      vertex 3.47753 5.85904 6
      vertex 0 0 6
      vertex 7 2 6
    endloop
  endfacet
  facet normal 0 0 1
    outer loop
      vertex 2.31512 6.53015 6
      vertex 0 0 6
      vertex 2.54593 6.27381 6
    endloop
  endfacet
  facet normal 0 0 1
    outer loop
      vertex 2.14265 6.82888 6
      vertex 0 0 6
      vertex 2.31512 6.53015 6
    endloop
  endfacet
  facet normal 0 0 1
    outer loop
      vertex 2.03606 7.15695 6
      vertex 0 0 6
      vertex 2.14265 6.82888 6
    endloop
  endfacet
  facet normal 0 0 1
    outer loop
      vertex 2 7.5 6
      vertex 0 0 6
      vertex 2.03606 7.15695 6
    endloop
  endfacet
  facet normal 1 -0 0
    outer loop
      vertex 59 0 6
      vertex 59 15 0
      vertex 59 15 6
    endloop
  endfacet
  facet normal 1 0 0
    outer loop
      vertex 59 15 0
      vertex 59 0 6
      vertex 59 0 0
    endloop
  endfacet
  facet normal 0 -1 0
    outer loop
      vertex 44.5 0 2.12132
      vertex 0 0 6
      vertex 11.5 0 2.12132
    endloop
  endfacet
  facet normal 0 -1 0
    outer loop
      vertex 0 0 6
      vertex 9.37868 0 9.53674e-007
      vertex 11.5 0 2.12132
    endloop
  endfacet
  facet normal 0 -1 0
    outer loop
      vertex 0 0 0
      vertex 9.37868 0 9.53674e-007
      vertex 0 0 6
    endloop
  endfacet
  facet normal 0 -1 -0
    outer loop
      vertex 9.37868 0 9.53674e-007
      vertex 0 0 0
      vertex 9.37868 0 0
    endloop
  endfacet
  facet normal 0 -1 0
    outer loop
      vertex 0 0 6
      vertex 44.5 0 2.12132
      vertex 59 0 6
    endloop
  endfacet
  facet normal 0 -1 0
    outer loop
      vertex 46.6213 0 0
      vertex 59 0 6
      vertex 44.5 0 2.12132
    endloop
  endfacet
  facet normal 0 -1 -0
    outer loop
      vertex 59 0 6
      vertex 46.6213 0 0
      vertex 59 0 0
    endloop
  endfacet
  facet normal 0 1 -0
    outer loop
      vertex 59 15 0
      vertex 0 15 6
      vertex 59 15 6
    endloop
  endfacet
  facet normal 0 1 0
    outer loop
      vertex 0 15 6
      vertex 59 15 0
      vertex 0 15 0
    endloop
  endfacet
  facet normal -0.406736 -0.913546 0
    outer loop
      vertex 4.15988 9.06924 1.9
      vertex 4.475 8.92894 6
      vertex 4.15988 9.06924 6
    endloop
  endfacet
  facet normal -0.406736 -0.913546 -0
    outer loop
      vertex 4.475 8.92894 6
      vertex 4.15988 9.06924 1.9
      vertex 4.475 8.92894 1.9
    endloop
  endfacet
  facet normal 0.994522 -0.104526 0
    outer loop
      vertex 2 7.5 6
      vertex 2.03606 7.84305 1.9
      vertex 2.03606 7.84305 6
    endloop
  endfacet
  facet normal 0.994522 -0.104526 0
    outer loop
      vertex 2.03606 7.84305 1.9
      vertex 2 7.5 6
      vertex 2 7.5 1.9
    endloop
  endfacet
  facet normal -0.994522 0.104528 0
    outer loop
      vertex 5.26394 7.15695 1.9
      vertex 5.3 7.5 6
      vertex 5.3 7.5 1.9
    endloop
  endfacet
  facet normal -0.994522 0.104528 0
    outer loop
      vertex 5.3 7.5 6
      vertex 5.26394 7.15695 1.9
      vertex 5.26394 7.15695 6
    endloop
  endfacet
  facet normal 0.207913 0.978147 -0
    outer loop
      vertex 3.47753 5.85904 1.9
      vertex 3.14012 5.93076 6
      vertex 3.47753 5.85904 6
    endloop
  endfacet
  facet normal 0.207913 0.978147 0
    outer loop
      vertex 3.14012 5.93076 6
      vertex 3.47753 5.85904 1.9
      vertex 3.14012 5.93076 1.9
    endloop
  endfacet
  facet normal 0 -1 0
    outer loop
      vertex 3.47753 9.14096 1.9
      vertex 3.82247 9.14096 6
      vertex 3.47753 9.14096 6
    endloop
  endfacet
  facet normal 0 -1 -0
    outer loop
      vertex 3.82247 9.14096 6
      vertex 3.47753 9.14096 1.9
      vertex 3.82247 9.14096 1.9
    endloop
  endfacet
  facet normal 0.406736 -0.913546 0
    outer loop
      vertex 2.825 8.92894 1.9
      vertex 3.14012 9.06924 6
      vertex 2.825 8.92894 6
    endloop
  endfacet
  facet normal 0.406736 -0.913546 0
    outer loop
      vertex 3.14012 9.06924 6
      vertex 2.825 8.92894 1.9
      vertex 3.14012 9.06924 1.9
    endloop
  endfacet
  facet normal 0.951056 -0.309018 0
    outer loop
      vertex 2.03606 7.84305 6
      vertex 2.14265 8.17111 1.9
      vertex 2.14265 8.17111 6
    endloop
  endfacet
  facet normal 0.951056 -0.309018 0
    outer loop
      vertex 2.14265 8.17111 1.9
      vertex 2.03606 7.84305 6
      vertex 2.03606 7.84305 1.9
    endloop
  endfacet
  facet normal 0.951056 0.309018 0
    outer loop
      vertex 2.14265 6.82888 6
      vertex 2.03606 7.15695 1.9
      vertex 2.03606 7.15695 6
    endloop
  endfacet
  facet normal 0.951056 0.309018 0
    outer loop
      vertex 2.03606 7.15695 1.9
      vertex 2.14265 6.82888 6
      vertex 2.14265 6.82888 1.9
    endloop
  endfacet
  facet normal 0.866025 0.5 0
    outer loop
      vertex 2.31512 6.53015 6
      vertex 2.14265 6.82888 1.9
      vertex 2.14265 6.82888 6
    endloop
  endfacet
  facet normal 0.866025 0.5 0
    outer loop
      vertex 2.14265 6.82888 1.9
      vertex 2.31512 6.53015 6
      vertex 2.31512 6.53015 1.9
    endloop
  endfacet
  facet normal -0.866025 -0.5 0
    outer loop
      vertex 5.15735 8.17111 1.9
      vertex 4.98488 8.46984 6
      vertex 4.98488 8.46984 1.9
    endloop
  endfacet
  facet normal -0.866025 -0.5 0
    outer loop
      vertex 4.98488 8.46984 6
      vertex 5.15735 8.17111 1.9
      vertex 5.15735 8.17111 6
    endloop
  endfacet
  facet normal -0.743145 -0.669131 0
    outer loop
      vertex 4.98488 8.46984 1.9
      vertex 4.75406 8.72619 6
      vertex 4.75406 8.72619 1.9
    endloop
  endfacet
  facet normal -0.743145 -0.669131 0
    outer loop
      vertex 4.75406 8.72619 6
      vertex 4.98488 8.46984 1.9
      vertex 4.98488 8.46984 6
    endloop
  endfacet
  facet normal -0.587786 -0.809016 0
    outer loop
      vertex 4.475 8.92894 1.9
      vertex 4.75406 8.72619 6
      vertex 4.475 8.92894 6
    endloop
  endfacet
  facet normal -0.587786 -0.809016 -0
    outer loop
      vertex 4.75406 8.72619 6
      vertex 4.475 8.92894 1.9
      vertex 4.75406 8.72619 1.9
    endloop
  endfacet
  facet normal -0.207913 -0.978147 0
    outer loop
      vertex 3.82247 9.14096 1.9
      vertex 4.15988 9.06924 6
      vertex 3.82247 9.14096 6
    endloop
  endfacet
  facet normal -0.207913 -0.978147 -0
    outer loop
      vertex 4.15988 9.06924 6
      vertex 3.82247 9.14096 1.9
      vertex 4.15988 9.06924 1.9
    endloop
  endfacet
  facet normal 0.994522 0.104526 0
    outer loop
      vertex 2.03606 7.15695 6
      vertex 2 7.5 1.9
      vertex 2 7.5 6
    endloop
  endfacet
  facet normal 0.994522 0.104526 0
    outer loop
      vertex 2 7.5 1.9
      vertex 2.03606 7.15695 6
      vertex 2.03606 7.15695 1.9
    endloop
  endfacet
  facet normal 0.866025 -0.5 0
    outer loop
      vertex 2.14265 8.17111 6
      vertex 2.31512 8.46984 1.9
      vertex 2.31512 8.46984 6
    endloop
  endfacet
  facet normal 0.866025 -0.5 0
    outer loop
      vertex 2.31512 8.46984 1.9
      vertex 2.14265 8.17111 6
      vertex 2.14265 8.17111 1.9
    endloop
  endfacet
  facet normal 0.587785 -0.809017 0
    outer loop
      vertex 2.54593 8.72619 1.9
      vertex 2.825 8.92894 6
      vertex 2.54593 8.72619 6
    endloop
  endfacet
  facet normal 0.587785 -0.809017 0
    outer loop
      vertex 2.825 8.92894 6
      vertex 2.54593 8.72619 1.9
      vertex 2.825 8.92894 1.9
    endloop
  endfacet
  facet normal 0.207913 -0.978147 0
    outer loop
      vertex 3.14012 9.06924 1.9
      vertex 3.47753 9.14096 6
      vertex 3.14012 9.06924 6
    endloop
  endfacet
  facet normal 0.207913 -0.978147 0
    outer loop
      vertex 3.47753 9.14096 6
      vertex 3.14012 9.06924 1.9
      vertex 3.47753 9.14096 1.9
    endloop
  endfacet
  facet normal 0.743146 -0.669129 0
    outer loop
      vertex 2.31512 8.46984 6
      vertex 2.54593 8.72619 1.9
      vertex 2.54593 8.72619 6
    endloop
  endfacet
  facet normal 0.743146 -0.669129 0
    outer loop
      vertex 2.54593 8.72619 1.9
      vertex 2.31512 8.46984 6
      vertex 2.31512 8.46984 1.9
    endloop
  endfacet
  facet normal -0.994522 -0.104529 0
    outer loop
      vertex 5.3 7.5 1.9
      vertex 5.26394 7.84305 6
      vertex 5.26394 7.84305 1.9
    endloop
  endfacet
  facet normal -0.994522 -0.104529 0
    outer loop
      vertex 5.26394 7.84305 6
      vertex 5.3 7.5 1.9
      vertex 5.3 7.5 6
    endloop
  endfacet
  facet normal -0.207913 0.978147 0
    outer loop
      vertex 4.15988 5.93076 1.9
      vertex 3.82247 5.85904 6
      vertex 4.15988 5.93076 6
    endloop
  endfacet
  facet normal -0.207913 0.978147 0
    outer loop
      vertex 3.82247 5.85904 6
      vertex 4.15988 5.93076 1.9
      vertex 3.82247 5.85904 1.9
    endloop
  endfacet
  facet normal -0.866025 0.5 0
    outer loop
      vertex 4.98488 6.53015 1.9
      vertex 5.15735 6.82888 6
      vertex 5.15735 6.82888 1.9
    endloop
  endfacet
  facet normal -0.866025 0.5 0
    outer loop
      vertex 5.15735 6.82888 6
      vertex 4.98488 6.53015 1.9
      vertex 4.98488 6.53015 6
    endloop
  endfacet
  facet normal -0.951057 0.309016 0
    outer loop
      vertex 5.15735 6.82888 1.9
      vertex 5.26394 7.15695 6
      vertex 5.26394 7.15695 1.9
    endloop
  endfacet
  facet normal -0.951057 0.309016 0
    outer loop
      vertex 5.26394 7.15695 6
      vertex 5.15735 6.82888 1.9
      vertex 5.15735 6.82888 6
    endloop
  endfacet
  facet normal -0.406736 0.913546 0
    outer loop
      vertex 4.475 6.07106 1.9
      vertex 4.15988 5.93076 6
      vertex 4.475 6.07106 6
    endloop
  endfacet
  facet normal -0.406736 0.913546 0
    outer loop
      vertex 4.15988 5.93076 6
      vertex 4.475 6.07106 1.9
      vertex 4.15988 5.93076 1.9
    endloop
  endfacet
  facet normal -0.587786 0.809016 0
    outer loop
      vertex 4.75406 6.27381 1.9
      vertex 4.475 6.07106 6
      vertex 4.75406 6.27381 6
    endloop
  endfacet
  facet normal -0.587786 0.809016 0
    outer loop
      vertex 4.475 6.07106 6
      vertex 4.75406 6.27381 1.9
      vertex 4.475 6.07106 1.9
    endloop
  endfacet
  facet normal 0 1 -0
    outer loop
      vertex 3.82247 5.85904 1.9
      vertex 3.47753 5.85904 6
      vertex 3.82247 5.85904 6
    endloop
  endfacet
  facet normal 0 1 0
    outer loop
      vertex 3.47753 5.85904 6
      vertex 3.82247 5.85904 1.9
      vertex 3.47753 5.85904 1.9
    endloop
  endfacet
  facet normal 0.587785 0.809017 -0
    outer loop
      vertex 2.825 6.07106 1.9
      vertex 2.54593 6.27381 6
      vertex 2.825 6.07106 6
    endloop
  endfacet
  facet normal 0.587785 0.809017 0
    outer loop
      vertex 2.54593 6.27381 6
      vertex 2.825 6.07106 1.9
      vertex 2.54593 6.27381 1.9
    endloop
  endfacet
  facet normal -0.951057 -0.309016 0
    outer loop
      vertex 5.26394 7.84305 1.9
      vertex 5.15735 8.17111 6
      vertex 5.15735 8.17111 1.9
    endloop
  endfacet
  facet normal -0.951057 -0.309016 0
    outer loop
      vertex 5.15735 8.17111 6
      vertex 5.26394 7.84305 1.9
      vertex 5.26394 7.84305 6
    endloop
  endfacet
  facet normal -0.743145 0.669131 0
    outer loop
      vertex 4.75406 6.27381 1.9
      vertex 4.98488 6.53015 6
      vertex 4.98488 6.53015 1.9
    endloop
  endfacet
  facet normal -0.743145 0.669131 0
    outer loop
      vertex 4.98488 6.53015 6
      vertex 4.75406 6.27381 1.9
      vertex 4.75406 6.27381 6
    endloop
  endfacet
  facet normal 0.406736 0.913546 -0
    outer loop
      vertex 3.14012 5.93076 1.9
      vertex 2.825 6.07106 6
      vertex 3.14012 5.93076 6
    endloop
  endfacet
  facet normal 0.406736 0.913546 0
    outer loop
      vertex 2.825 6.07106 6
      vertex 3.14012 5.93076 1.9
      vertex 2.825 6.07106 1.9
    endloop
  endfacet
  facet normal 0.743146 0.669129 0
    outer loop
      vertex 2.54593 6.27381 6
      vertex 2.31512 6.53015 1.9
      vertex 2.31512 6.53015 6
    endloop
  endfacet
  facet normal 0.743146 0.669129 0
    outer loop
      vertex 2.31512 6.53015 1.9
      vertex 2.54593 6.27381 6
      vertex 2.54593 6.27381 1.9
    endloop
  endfacet
  facet normal -0.994522 -0.104529 0
    outer loop
      vertex 57 7.5 1.9
      vertex 56.9639 7.84305 6
      vertex 56.9639 7.84305 1.9
    endloop
  endfacet
  facet normal -0.994522 -0.104529 0
    outer loop
      vertex 56.9639 7.84305 6
      vertex 57 7.5 1.9
      vertex 57 7.5 6
    endloop
  endfacet
  facet normal 0 -1 0
    outer loop
      vertex 55.1775 9.14096 1.9
      vertex 55.5225 9.14096 6
      vertex 55.1775 9.14096 6
    endloop
  endfacet
  facet normal 0 -1 -0
    outer loop
      vertex 55.5225 9.14096 6
      vertex 55.1775 9.14096 1.9
      vertex 55.5225 9.14096 1.9
    endloop
  endfacet
  facet normal -0.743146 -0.669129 0
    outer loop
      vertex 56.6849 8.46984 1.9
      vertex 56.4541 8.72619 6
      vertex 56.4541 8.72619 1.9
    endloop
  endfacet
  facet normal -0.743146 -0.669129 0
    outer loop
      vertex 56.4541 8.72619 6
      vertex 56.6849 8.46984 1.9
      vertex 56.6849 8.46984 6
    endloop
  endfacet
  facet normal -0.951056 -0.309018 0
    outer loop
      vertex 56.9639 7.84305 1.9
      vertex 56.8573 8.17111 6
      vertex 56.8573 8.17111 1.9
    endloop
  endfacet
  facet normal -0.951056 -0.309018 0
    outer loop
      vertex 56.8573 8.17111 6
      vertex 56.9639 7.84305 1.9
      vertex 56.9639 7.84305 6
    endloop
  endfacet
  facet normal 0.743146 -0.669129 0
    outer loop
      vertex 54.0151 8.46984 6
      vertex 54.2459 8.72619 1.9
      vertex 54.2459 8.72619 6
    endloop
  endfacet
  facet normal 0.743146 -0.669129 0
    outer loop
      vertex 54.2459 8.72619 1.9
      vertex 54.0151 8.46984 6
      vertex 54.0151 8.46984 1.9
    endloop
  endfacet
  facet normal 0.406737 -0.913545 0
    outer loop
      vertex 54.525 8.92894 1.9
      vertex 54.8401 9.06924 6
      vertex 54.525 8.92894 6
    endloop
  endfacet
  facet normal 0.406737 -0.913545 0
    outer loop
      vertex 54.8401 9.06924 6
      vertex 54.525 8.92894 1.9
      vertex 54.8401 9.06924 1.9
    endloop
  endfacet
  facet normal -0.866023 0.500005 0
    outer loop
      vertex 56.6849 6.53015 1.9
      vertex 56.8573 6.82888 6
      vertex 56.8573 6.82888 1.9
    endloop
  endfacet
  facet normal -0.866023 0.500005 0
    outer loop
      vertex 56.8573 6.82888 6
      vertex 56.6849 6.53015 1.9
      vertex 56.6849 6.53015 6
    endloop
  endfacet
  facet normal 0.951056 0.309018 0
    outer loop
      vertex 53.8427 6.82888 6
      vertex 53.7361 7.15695 1.9
      vertex 53.7361 7.15695 6
    endloop
  endfacet
  facet normal 0.951056 0.309018 0
    outer loop
      vertex 53.7361 7.15695 1.9
      vertex 53.8427 6.82888 6
      vertex 53.8427 6.82888 1.9
    endloop
  endfacet
  facet normal -0.866023 -0.500005 0
    outer loop
      vertex 56.8573 8.17111 1.9
      vertex 56.6849 8.46984 6
      vertex 56.6849 8.46984 1.9
    endloop
  endfacet
  facet normal -0.866023 -0.500005 0
    outer loop
      vertex 56.6849 8.46984 6
      vertex 56.8573 8.17111 1.9
      vertex 56.8573 8.17111 6
    endloop
  endfacet
  facet normal -0.406737 -0.913545 0
    outer loop
      vertex 55.8599 9.06924 1.9
      vertex 56.175 8.92894 6
      vertex 55.8599 9.06924 6
    endloop
  endfacet
  facet normal -0.406737 -0.913545 -0
    outer loop
      vertex 56.175 8.92894 6
      vertex 55.8599 9.06924 1.9
      vertex 56.175 8.92894 1.9
    endloop
  endfacet
  facet normal -0.207913 -0.978147 0
    outer loop
      vertex 55.5225 9.14096 1.9
      vertex 55.8599 9.06924 6
      vertex 55.5225 9.14096 6
    endloop
  endfacet
  facet normal -0.207913 -0.978147 -0
    outer loop
      vertex 55.8599 9.06924 6
      vertex 55.5225 9.14096 1.9
      vertex 55.8599 9.06924 1.9
    endloop
  endfacet
  facet normal -0.587787 -0.809016 0
    outer loop
      vertex 56.175 8.92894 1.9
      vertex 56.4541 8.72619 6
      vertex 56.175 8.92894 6
    endloop
  endfacet
  facet normal -0.587787 -0.809016 -0
    outer loop
      vertex 56.4541 8.72619 6
      vertex 56.175 8.92894 1.9
      vertex 56.4541 8.72619 1.9
    endloop
  endfacet
  facet normal 0.951056 -0.309018 0
    outer loop
      vertex 53.7361 7.84305 6
      vertex 53.8427 8.17111 1.9
      vertex 53.8427 8.17111 6
    endloop
  endfacet
  facet normal 0.951056 -0.309018 0
    outer loop
      vertex 53.8427 8.17111 1.9
      vertex 53.7361 7.84305 6
      vertex 53.7361 7.84305 1.9
    endloop
  endfacet
  facet normal 0.866028 -0.499996 0
    outer loop
      vertex 53.8427 8.17111 6
      vertex 54.0151 8.46984 1.9
      vertex 54.0151 8.46984 6
    endloop
  endfacet
  facet normal 0.866028 -0.499996 0
    outer loop
      vertex 54.0151 8.46984 1.9
      vertex 53.8427 8.17111 6
      vertex 53.8427 8.17111 1.9
    endloop
  endfacet
  facet normal 0.994522 -0.104529 0
    outer loop
      vertex 53.7 7.5 6
      vertex 53.7361 7.84305 1.9
      vertex 53.7361 7.84305 6
    endloop
  endfacet
  facet normal 0.994522 -0.104529 0
    outer loop
      vertex 53.7361 7.84305 1.9
      vertex 53.7 7.5 6
      vertex 53.7 7.5 1.9
    endloop
  endfacet
  facet normal 0.587782 -0.809019 0
    outer loop
      vertex 54.2459 8.72619 1.9
      vertex 54.525 8.92894 6
      vertex 54.2459 8.72619 6
    endloop
  endfacet
  facet normal 0.587782 -0.809019 0
    outer loop
      vertex 54.525 8.92894 6
      vertex 54.2459 8.72619 1.9
      vertex 54.525 8.92894 1.9
    endloop
  endfacet
  facet normal 0.207913 -0.978147 0
    outer loop
      vertex 54.8401 9.06924 1.9
      vertex 55.1775 9.14096 6
      vertex 54.8401 9.06924 6
    endloop
  endfacet
  facet normal 0.207913 -0.978147 0
    outer loop
      vertex 55.1775 9.14096 6
      vertex 54.8401 9.06924 1.9
      vertex 55.1775 9.14096 1.9
    endloop
  endfacet
  facet normal -0.994522 0.104528 0
    outer loop
      vertex 56.9639 7.15695 1.9
      vertex 57 7.5 6
      vertex 57 7.5 1.9
    endloop
  endfacet
  facet normal -0.994522 0.104528 0
    outer loop
      vertex 57 7.5 6
      vertex 56.9639 7.15695 1.9
      vertex 56.9639 7.15695 6
    endloop
  endfacet
  facet normal -0.207913 0.978147 0
    outer loop
      vertex 55.8599 5.93076 1.9
      vertex 55.5225 5.85904 6
      vertex 55.8599 5.93076 6
    endloop
  endfacet
  facet normal -0.207913 0.978147 0
    outer loop
      vertex 55.5225 5.85904 6
      vertex 55.8599 5.93076 1.9
      vertex 55.5225 5.85904 1.9
    endloop
  endfacet
  facet normal -0.587787 0.809016 0
    outer loop
      vertex 56.4541 6.27381 1.9
      vertex 56.175 6.07106 6
      vertex 56.4541 6.27381 6
    endloop
  endfacet
  facet normal -0.587787 0.809016 0
    outer loop
      vertex 56.175 6.07106 6
      vertex 56.4541 6.27381 1.9
      vertex 56.175 6.07106 1.9
    endloop
  endfacet
  facet normal 0.406737 0.913545 -0
    outer loop
      vertex 54.8401 5.93076 1.9
      vertex 54.525 6.07106 6
      vertex 54.8401 5.93076 6
    endloop
  endfacet
  facet normal 0.406737 0.913545 0
    outer loop
      vertex 54.525 6.07106 6
      vertex 54.8401 5.93076 1.9
      vertex 54.525 6.07106 1.9
    endloop
  endfacet
  facet normal 0 1 -0
    outer loop
      vertex 55.5225 5.85904 1.9
      vertex 55.1775 5.85904 6
      vertex 55.5225 5.85904 6
    endloop
  endfacet
  facet normal 0 1 0
    outer loop
      vertex 55.1775 5.85904 6
      vertex 55.5225 5.85904 1.9
      vertex 55.1775 5.85904 1.9
    endloop
  endfacet
  facet normal 0.743146 0.669129 0
    outer loop
      vertex 54.2459 6.27381 6
      vertex 54.0151 6.53015 1.9
      vertex 54.0151 6.53015 6
    endloop
  endfacet
  facet normal 0.743146 0.669129 0
    outer loop
      vertex 54.0151 6.53015 1.9
      vertex 54.2459 6.27381 6
      vertex 54.2459 6.27381 1.9
    endloop
  endfacet
  facet normal 0.994522 0.104528 0
    outer loop
      vertex 53.7361 7.15695 6
      vertex 53.7 7.5 1.9
      vertex 53.7 7.5 6
    endloop
  endfacet
  facet normal 0.994522 0.104528 0
    outer loop
      vertex 53.7 7.5 1.9
      vertex 53.7361 7.15695 6
      vertex 53.7361 7.15695 1.9
    endloop
  endfacet
  facet normal -0.406737 0.913545 0
    outer loop
      vertex 56.175 6.07106 1.9
      vertex 55.8599 5.93076 6
      vertex 56.175 6.07106 6
    endloop
  endfacet
  facet normal -0.406737 0.913545 0
    outer loop
      vertex 55.8599 5.93076 6
      vertex 56.175 6.07106 1.9
      vertex 55.8599 5.93076 1.9
    endloop
  endfacet
  facet normal -0.743146 0.669129 0
    outer loop
      vertex 56.4541 6.27381 1.9
      vertex 56.6849 6.53015 6
      vertex 56.6849 6.53015 1.9
    endloop
  endfacet
  facet normal -0.743146 0.669129 0
    outer loop
      vertex 56.6849 6.53015 6
      vertex 56.4541 6.27381 1.9
      vertex 56.4541 6.27381 6
    endloop
  endfacet
  facet normal -0.951056 0.309018 0
    outer loop
      vertex 56.8573 6.82888 1.9
      vertex 56.9639 7.15695 6
      vertex 56.9639 7.15695 1.9
    endloop
  endfacet
  facet normal -0.951056 0.309018 0
    outer loop
      vertex 56.9639 7.15695 6
      vertex 56.8573 6.82888 1.9
      vertex 56.8573 6.82888 6
    endloop
  endfacet
  facet normal 0.207913 0.978147 -0
    outer loop
      vertex 55.1775 5.85904 1.9
      vertex 54.8401 5.93076 6
      vertex 55.1775 5.85904 6
    endloop
  endfacet
  facet normal 0.207913 0.978147 0
    outer loop
      vertex 54.8401 5.93076 6
      vertex 55.1775 5.85904 1.9
      vertex 54.8401 5.93076 1.9
    endloop
  endfacet
  facet normal 0.587782 0.809019 -0
    outer loop
      vertex 54.525 6.07106 1.9
      vertex 54.2459 6.27381 6
      vertex 54.525 6.07106 6
    endloop
  endfacet
  facet normal 0.587782 0.809019 0
    outer loop
      vertex 54.2459 6.27381 6
      vertex 54.525 6.07106 1.9
      vertex 54.2459 6.27381 1.9
    endloop
  endfacet
  facet normal 0.866028 0.499996 0
    outer loop
      vertex 54.0151 6.53015 6
      vertex 53.8427 6.82888 1.9
      vertex 53.8427 6.82888 6
    endloop
  endfacet
  facet normal 0.866028 0.499996 0
    outer loop
      vertex 53.8427 6.82888 1.9
      vertex 54.0151 6.53015 6
      vertex 54.0151 6.53015 1.9
    endloop
  endfacet
  facet normal 0.706017 -0.407621 -0.579124
    outer loop
      vertex 2.31512 8.46984 1.9
      vertex 1.16173 9.17153 0
      vertex 1.21717 9.26755 0
    endloop
  endfacet
  facet normal 0.706018 -0.40762 -0.579124
    outer loop
      vertex 1.16173 9.17153 0
      vertex 2.31512 8.46984 1.9
      vertex 2.14265 8.17111 1.9
    endloop
  endfacet
  facet normal 0.775338 0.251924 -0.579124
    outer loop
      vertex 2.14265 6.82888 1.9
      vertex 0.868575 6.38233 0
      vertex 2.03606 7.15695 1.9
    endloop
  endfacet
  facet normal 0.775338 0.251924 -0.579124
    outer loop
      vertex 0.868575 6.38233 0
      vertex 2.14265 6.82888 1.9
      vertex 0.902838 6.27688 0
    endloop
  endfacet
  facet normal 0.605841 -0.545502 -0.579124
    outer loop
      vertex 1.63783 9.73474 0
      vertex 2.54593 8.72619 1.9
      vertex 1.29136 9.34995 0
    endloop
  endfacet
  facet normal -0.331586 -0.744759 -0.579124
    outer loop
      vertex 4.68055 10.3149 0
      vertex 5.15357 10.1043 0
      vertex 4.475 8.92894 1.9
    endloop
  endfacet
  facet normal 0.706018 0.40762 -0.579124
    outer loop
      vertex 2.14265 6.82888 1.9
      vertex 1.16173 5.82847 0
      vertex 0.902838 6.27688 0
    endloop
  endfacet
  facet normal 0.605842 0.5455 -0.579124
    outer loop
      vertex 2.54593 6.27381 1.9
      vertex 1.21717 5.73245 0
      vertex 2.31512 6.53015 1.9
    endloop
  endfacet
  facet normal 0.605843 0.5455 -0.579124
    outer loop
      vertex 1.21717 5.73245 0
      vertex 2.54593 6.27381 1.9
      vertex 1.29136 5.65005 0
    endloop
  endfacet
  facet normal 0.810774 -0.0852151 -0.579124
    outer loop
      vertex 0.70857 8.12522 0
      vertex 2.03606 7.84305 1.9
      vertex 0.654446 7.61027 0
    endloop
  endfacet
  facet normal -0.605842 -0.545499 -0.579125
    outer loop
      vertex 6.08283 9.26755 0
      vertex 4.75406 8.72619 1.9
      vertex 6.00864 9.34995 0
    endloop
  endfacet
  facet normal -0.605841 -0.545502 -0.579124
    outer loop
      vertex 4.75406 8.72619 1.9
      vertex 6.08283 9.26755 0
      vertex 4.98488 8.46984 1.9
    endloop
  endfacet
  facet normal -0.810773 0.0852157 -0.579124
    outer loop
      vertex 6.60302 6.98505 0
      vertex 5.26394 7.15695 1.9
      vertex 5.3 7.5 1.9
    endloop
  endfacet
  facet normal -0.810773 0.0852152 -0.579124
    outer loop
      vertex 5.26394 7.15695 1.9
      vertex 6.60302 6.98505 0
      vertex 6.59143 6.87478 0
    endloop
  endfacet
  facet normal -0.706018 0.40762 -0.579124
    outer loop
      vertex 6.39716 6.27688 0
      vertex 6.13827 5.82847 0
      vertex 5.15735 6.82888 1.9
    endloop
  endfacet
  facet normal 0.479185 0.659543 -0.579124
    outer loop
      vertex 2.14643 4.89574 0
      vertex 2.54593 6.27381 1.9
      vertex 2.825 6.07106 1.9
    endloop
  endfacet
  facet normal 0.479184 0.659544 -0.579124
    outer loop
      vertex 2.54593 6.27381 1.9
      vertex 2.14643 4.89574 0
      vertex 2.05673 4.96091 0
    endloop
  endfacet
  facet normal 0.775339 0.251923 -0.579124
    outer loop
      vertex 2.03606 7.15695 1.9
      vertex 0.868575 6.38233 0
      vertex 0.70857 6.87478 0
    endloop
  endfacet
  facet normal 0.810774 0.0852151 -0.579124
    outer loop
      vertex 2.03606 7.15695 1.9
      vertex 0.70857 6.87478 0
      vertex 0.654446 7.38973 0
    endloop
  endfacet
  facet normal 0.810774 -0.0852137 -0.579124
    outer loop
      vertex 2 7.5 1.9
      vertex 0.654446 7.61027 0
      vertex 2.03606 7.84305 1.9
    endloop
  endfacet
  facet normal 0.810774 -0.0852134 -0.579124
    outer loop
      vertex 0.654446 7.61027 0
      vertex 2 7.5 1.9
      vertex 0.642857 7.5 0
    endloop
  endfacet
  facet normal 0.810774 0.085213 -0.579124
    outer loop
      vertex 2 7.5 1.9
      vertex 0.654446 7.38973 0
      vertex 0.642857 7.5 0
    endloop
  endfacet
  facet normal 0.810774 0.0852135 -0.579124
    outer loop
      vertex 0.654446 7.38973 0
      vertex 2 7.5 1.9
      vertex 2.03606 7.15695 1.9
    endloop
  endfacet
  facet normal 0.479189 -0.659541 -0.579123
    outer loop
      vertex 2.14643 10.1043 0
      vertex 2.54593 8.72619 1.9
      vertex 2.05673 10.0391 0
    endloop
  endfacet
  facet normal 0.479185 -0.659543 -0.579124
    outer loop
      vertex 2.54593 8.72619 1.9
      vertex 2.14643 10.1043 0
      vertex 2.825 8.92894 1.9
    endloop
  endfacet
  facet normal 0.479186 -0.659543 -0.579124
    outer loop
      vertex 2.05673 10.0391 0
      vertex 2.54593 8.72619 1.9
      vertex 1.63783 9.73474 0
    endloop
  endfacet
  facet normal 0.706018 -0.40762 -0.579124
    outer loop
      vertex 1.16173 9.17153 0
      vertex 2.14265 8.17111 1.9
      vertex 0.902838 8.72311 0
    endloop
  endfacet
  facet normal 0 -0.815239 -0.579124
    outer loop
      vertex 3.33567 10.4907 0
      vertex 3.82247 9.14096 1.9
      vertex 3.47753 9.14096 1.9
    endloop
  endfacet
  facet normal 0 -0.815239 -0.579124
    outer loop
      vertex 3.82247 9.14096 1.9
      vertex 3.33567 10.4907 0
      vertex 3.96433 10.4907 0
    endloop
  endfacet
  facet normal -0.331587 -0.744759 -0.579124
    outer loop
      vertex 4.57926 10.36 0
      vertex 4.475 8.92894 1.9
      vertex 4.15988 9.06924 1.9
    endloop
  endfacet
  facet normal -0.331591 -0.744757 -0.579123
    outer loop
      vertex 4.475 8.92894 1.9
      vertex 4.57926 10.36 0
      vertex 4.68055 10.3149 0
    endloop
  endfacet
  facet normal -0.479187 -0.659542 -0.579124
    outer loop
      vertex 5.15357 10.1043 0
      vertex 5.57247 9.79991 0
      vertex 4.475 8.92894 1.9
    endloop
  endfacet
  facet normal 0.331587 -0.744759 -0.579124
    outer loop
      vertex 2.61945 10.3149 0
      vertex 2.825 8.92894 1.9
      vertex 2.14643 10.1043 0
    endloop
  endfacet
  facet normal -0.706018 -0.407619 -0.579124
    outer loop
      vertex 6.13827 9.17153 0
      vertex 6.39716 8.72311 0
      vertex 5.15735 8.17111 1.9
    endloop
  endfacet
  facet normal -0.706016 -0.407623 -0.579124
    outer loop
      vertex 6.13827 9.17153 0
      vertex 4.98488 8.46984 1.9
      vertex 6.08283 9.26755 0
    endloop
  endfacet
  facet normal -0.706018 -0.40762 -0.579124
    outer loop
      vertex 4.98488 8.46984 1.9
      vertex 6.13827 9.17153 0
      vertex 5.15735 8.17111 1.9
    endloop
  endfacet
  facet normal -0.775339 0.251922 -0.579124
    outer loop
      vertex 6.55717 6.76933 0
      vertex 6.39716 6.27688 0
      vertex 5.15735 6.82888 1.9
    endloop
  endfacet
  facet normal -0.331587 0.744758 -0.579124
    outer loop
      vertex 5.15357 4.89574 0
      vertex 4.68055 4.68513 0
      vertex 4.475 6.07106 1.9
    endloop
  endfacet
  facet normal -0.331585 0.744759 -0.579124
    outer loop
      vertex 4.57926 4.64004 0
      vertex 4.475 6.07106 1.9
      vertex 4.68055 4.68513 0
    endloop
  endfacet
  facet normal -0.331587 0.744759 -0.579124
    outer loop
      vertex 4.475 6.07106 1.9
      vertex 4.57926 4.64004 0
      vertex 4.15988 5.93076 1.9
    endloop
  endfacet
  facet normal 0 0.815239 -0.579124
    outer loop
      vertex 3.96433 4.50933 0
      vertex 3.47753 5.85904 1.9
      vertex 3.82247 5.85904 1.9
    endloop
  endfacet
  facet normal 0 0.815239 -0.579124
    outer loop
      vertex 3.47753 5.85904 1.9
      vertex 3.96433 4.50933 0
      vertex 3.33567 4.50933 0
    endloop
  endfacet
  facet normal 0.331588 0.744758 -0.579124
    outer loop
      vertex 2.825 6.07106 1.9
      vertex 2.61945 4.68513 0
      vertex 2.14643 4.89574 0
    endloop
  endfacet
  facet normal 0.775338 -0.251925 -0.579124
    outer loop
      vertex 2.14265 8.17111 1.9
      vertex 0.868575 8.61767 0
      vertex 0.902838 8.72311 0
    endloop
  endfacet
  facet normal 0.775338 -0.251924 -0.579124
    outer loop
      vertex 0.868575 8.61767 0
      vertex 2.14265 8.17111 1.9
      vertex 2.03606 7.84305 1.9
    endloop
  endfacet
  facet normal 0.775339 -0.251922 -0.579124
    outer loop
      vertex 0.868575 8.61767 0
      vertex 2.03606 7.84305 1.9
      vertex 0.70857 8.12522 0
    endloop
  endfacet
  facet normal 0.605843 -0.5455 -0.579124
    outer loop
      vertex 2.54593 8.72619 1.9
      vertex 1.21717 9.26755 0
      vertex 1.29136 9.34995 0
    endloop
  endfacet
  facet normal 0.605842 -0.5455 -0.579124
    outer loop
      vertex 1.21717 9.26755 0
      vertex 2.54593 8.72619 1.9
      vertex 2.31512 8.46984 1.9
    endloop
  endfacet
  facet normal 0.331591 -0.744757 -0.579123
    outer loop
      vertex 2.72074 10.36 0
      vertex 2.825 8.92894 1.9
      vertex 2.61945 10.3149 0
    endloop
  endfacet
  facet normal 0.331587 -0.744759 -0.579124
    outer loop
      vertex 2.825 8.92894 1.9
      vertex 2.72074 10.36 0
      vertex 3.14012 9.06924 1.9
    endloop
  endfacet
  facet normal 0.169498 -0.797424 -0.579124
    outer loop
      vertex 3.33567 10.4907 0
      vertex 3.47753 9.14096 1.9
      vertex 2.82919 10.383 0
    endloop
  endfacet
  facet normal -0.810773 -0.0852154 -0.579124
    outer loop
      vertex 6.60302 8.01495 0
      vertex 6.65714 7.5 0
      vertex 5.3 7.5 1.9
    endloop
  endfacet
  facet normal 0.706018 0.40762 -0.579124
    outer loop
      vertex 2.31512 6.53015 1.9
      vertex 1.16173 5.82847 0
      vertex 2.14265 6.82888 1.9
    endloop
  endfacet
  facet normal 0.706018 0.40762 -0.579124
    outer loop
      vertex 1.16173 5.82847 0
      vertex 2.31512 6.53015 1.9
      vertex 1.21717 5.73245 0
    endloop
  endfacet
  facet normal 0.605841 0.545502 -0.579124
    outer loop
      vertex 2.54593 6.27381 1.9
      vertex 1.63783 5.26526 0
      vertex 1.29136 5.65005 0
    endloop
  endfacet
  facet normal 0.479186 0.659542 -0.579124
    outer loop
      vertex 2.54593 6.27381 1.9
      vertex 2.05673 4.96091 0
      vertex 1.63783 5.26526 0
    endloop
  endfacet
  facet normal 0.169499 0.797424 -0.579124
    outer loop
      vertex 2.82919 4.61698 0
      vertex 3.14012 5.93076 1.9
      vertex 3.47753 5.85904 1.9
    endloop
  endfacet
  facet normal 0.169498 0.797424 -0.579124
    outer loop
      vertex 3.14012 5.93076 1.9
      vertex 2.82919 4.61698 0
      vertex 2.72074 4.64004 0
    endloop
  endfacet
  facet normal -0.810773 0.0852153 -0.579124
    outer loop
      vertex 6.65714 7.5 0
      vertex 6.60302 6.98505 0
      vertex 5.3 7.5 1.9
    endloop
  endfacet
  facet normal -0.775339 0.251922 -0.579124
    outer loop
      vertex 6.59143 6.87478 0
      vertex 5.15735 6.82888 1.9
      vertex 5.26394 7.15695 1.9
    endloop
  endfacet
  facet normal -0.775339 0.251923 -0.579124
    outer loop
      vertex 5.15735 6.82888 1.9
      vertex 6.59143 6.87478 0
      vertex 6.55717 6.76933 0
    endloop
  endfacet
  facet normal -0.706018 0.40762 -0.579124
    outer loop
      vertex 6.13827 5.82847 0
      vertex 4.98488 6.53015 1.9
      vertex 5.15735 6.82888 1.9
    endloop
  endfacet
  facet normal -0.706017 0.407621 -0.579124
    outer loop
      vertex 4.98488 6.53015 1.9
      vertex 6.13827 5.82847 0
      vertex 6.08283 5.73245 0
    endloop
  endfacet
  facet normal -0.169498 0.797424 -0.579124
    outer loop
      vertex 3.96433 4.50933 0
      vertex 4.15988 5.93076 1.9
      vertex 4.07278 4.53238 0
    endloop
  endfacet
  facet normal -0.169499 0.797424 -0.579124
    outer loop
      vertex 4.15988 5.93076 1.9
      vertex 3.96433 4.50933 0
      vertex 3.82247 5.85904 1.9
    endloop
  endfacet
  facet normal -0.479184 0.659544 -0.579124
    outer loop
      vertex 5.57247 5.20009 0
      vertex 4.75406 6.27381 1.9
      vertex 5.66217 5.26526 0
    endloop
  endfacet
  facet normal -0.479186 0.659542 -0.579124
    outer loop
      vertex 4.75406 6.27381 1.9
      vertex 5.57247 5.20009 0
      vertex 4.475 6.07106 1.9
    endloop
  endfacet
  facet normal -0.479186 0.659542 -0.579124
    outer loop
      vertex 5.57247 5.20009 0
      vertex 5.15357 4.89574 0
      vertex 4.475 6.07106 1.9
    endloop
  endfacet
  facet normal 0.169498 -0.797424 -0.579124
    outer loop
      vertex 2.82919 10.383 0
      vertex 3.14012 9.06924 1.9
      vertex 2.72074 10.36 0
    endloop
  endfacet
  facet normal 0.169499 -0.797424 -0.579124
    outer loop
      vertex 3.14012 9.06924 1.9
      vertex 2.82919 10.383 0
      vertex 3.47753 9.14096 1.9
    endloop
  endfacet
  facet normal -0.169498 -0.797424 -0.579124
    outer loop
      vertex 4.57926 10.36 0
      vertex 4.15988 9.06924 1.9
      vertex 4.07278 10.4676 0
    endloop
  endfacet
  facet normal -0.169499 -0.797424 -0.579124
    outer loop
      vertex 3.96433 10.4907 0
      vertex 4.15988 9.06924 1.9
      vertex 3.82247 9.14096 1.9
    endloop
  endfacet
  facet normal -0.169498 -0.797424 -0.579124
    outer loop
      vertex 4.15988 9.06924 1.9
      vertex 3.96433 10.4907 0
      vertex 4.07278 10.4676 0
    endloop
  endfacet
  facet normal -0.775339 -0.251923 -0.579124
    outer loop
      vertex 6.39716 8.72311 0
      vertex 6.55717 8.23067 0
      vertex 5.15735 8.17111 1.9
    endloop
  endfacet
  facet normal -0.605841 -0.545502 -0.579124
    outer loop
      vertex 5.66217 9.73474 0
      vertex 6.00864 9.34995 0
      vertex 4.75406 8.72619 1.9
    endloop
  endfacet
  facet normal -0.169499 0.797424 -0.579124
    outer loop
      vertex 4.15988 5.93076 1.9
      vertex 4.57926 4.64004 0
      vertex 4.07278 4.53238 0
    endloop
  endfacet
  facet normal 0.169499 0.797424 -0.579124
    outer loop
      vertex 3.47753 5.85904 1.9
      vertex 3.33567 4.50933 0
      vertex 2.82919 4.61698 0
    endloop
  endfacet
  facet normal 0.331587 0.744759 -0.579124
    outer loop
      vertex 2.72074 4.64004 0
      vertex 2.825 6.07106 1.9
      vertex 3.14012 5.93076 1.9
    endloop
  endfacet
  facet normal 0.331585 0.744759 -0.579124
    outer loop
      vertex 2.825 6.07106 1.9
      vertex 2.72074 4.64004 0
      vertex 2.61945 4.68513 0
    endloop
  endfacet
  facet normal -0.605841 0.545502 -0.579124
    outer loop
      vertex 6.00864 5.65005 0
      vertex 5.66217 5.26526 0
      vertex 4.75406 6.27381 1.9
    endloop
  endfacet
  facet normal -0.605841 0.545502 -0.579124
    outer loop
      vertex 6.08283 5.73245 0
      vertex 4.75406 6.27381 1.9
      vertex 4.98488 6.53015 1.9
    endloop
  endfacet
  facet normal -0.605842 0.545499 -0.579125
    outer loop
      vertex 4.75406 6.27381 1.9
      vertex 6.08283 5.73245 0
      vertex 6.00864 5.65005 0
    endloop
  endfacet
  facet normal -0.810773 -0.0852152 -0.579124
    outer loop
      vertex 6.60302 8.01495 0
      vertex 5.26394 7.84305 1.9
      vertex 6.59143 8.12522 0
    endloop
  endfacet
  facet normal -0.810773 -0.085216 -0.579124
    outer loop
      vertex 5.26394 7.84305 1.9
      vertex 6.60302 8.01495 0
      vertex 5.3 7.5 1.9
    endloop
  endfacet
  facet normal -0.775339 -0.251922 -0.579124
    outer loop
      vertex 6.59143 8.12522 0
      vertex 5.15735 8.17111 1.9
      vertex 6.55717 8.23067 0
    endloop
  endfacet
  facet normal -0.775339 -0.251922 -0.579124
    outer loop
      vertex 5.15735 8.17111 1.9
      vertex 6.59143 8.12522 0
      vertex 5.26394 7.84305 1.9
    endloop
  endfacet
  facet normal -0.479186 -0.659542 -0.579124
    outer loop
      vertex 5.57247 9.79991 0
      vertex 4.75406 8.72619 1.9
      vertex 4.475 8.92894 1.9
    endloop
  endfacet
  facet normal -0.479184 -0.659544 -0.579124
    outer loop
      vertex 4.75406 8.72619 1.9
      vertex 5.57247 9.79991 0
      vertex 5.66217 9.73474 0
    endloop
  endfacet
  facet normal 0.706017 -0.407621 -0.579125
    outer loop
      vertex 52.8617 9.17153 0
      vertex 53.8427 8.17111 1.9
      vertex 52.6028 8.72311 0
    endloop
  endfacet
  facet normal 0.331586 0.744759 -0.579124
    outer loop
      vertex 54.525 6.07106 1.9
      vertex 54.3195 4.68513 0
      vertex 53.8464 4.89574 0
    endloop
  endfacet
  facet normal 0.810773 0.0852145 -0.579124
    outer loop
      vertex 53.7 7.5 1.9
      vertex 52.397 6.98505 0
      vertex 52.3429 7.5 0
    endloop
  endfacet
  facet normal -0.479186 -0.659542 -0.579124
    outer loop
      vertex 56.9433 10.0391 0
      vertex 57.3622 9.73474 0
      vertex 56.4541 8.72619 1.9
    endloop
  endfacet
  facet normal -0.706011 -0.40763 -0.579125
    outer loop
      vertex 57.8383 9.17153 0
      vertex 56.6849 8.46984 1.9
      vertex 57.7828 9.26755 0
    endloop
  endfacet
  facet normal -0.706015 -0.407623 -0.579125
    outer loop
      vertex 56.6849 8.46984 1.9
      vertex 57.8383 9.17153 0
      vertex 56.8573 8.17111 1.9
    endloop
  endfacet
  facet normal -0.479173 0.65955 -0.579126
    outer loop
      vertex 56.8536 4.89574 0
      vertex 56.4541 6.27381 1.9
      vertex 56.9433 4.96091 0
    endloop
  endfacet
  facet normal -0.479188 0.659542 -0.579124
    outer loop
      vertex 56.4541 6.27381 1.9
      vertex 56.8536 4.89574 0
      vertex 56.175 6.07106 1.9
    endloop
  endfacet
  facet normal 0.60584 0.545503 -0.579124
    outer loop
      vertex 54.2459 6.27381 1.9
      vertex 53.3378 5.26526 0
      vertex 52.9914 5.65005 0
    endloop
  endfacet
  facet normal 0.479187 0.659542 -0.579124
    outer loop
      vertex 54.525 6.07106 1.9
      vertex 53.8464 4.89574 0
      vertex 53.4275 5.20009 0
    endloop
  endfacet
  facet normal 0.479183 0.659545 -0.579124
    outer loop
      vertex 53.4275 5.20009 0
      vertex 54.2459 6.27381 1.9
      vertex 54.525 6.07106 1.9
    endloop
  endfacet
  facet normal 0.479187 0.659542 -0.579124
    outer loop
      vertex 54.2459 6.27381 1.9
      vertex 53.4275 5.20009 0
      vertex 53.3378 5.26526 0
    endloop
  endfacet
  facet normal 0.775338 0.251924 -0.579124
    outer loop
      vertex 53.8427 6.82888 1.9
      vertex 52.4086 6.87478 0
      vertex 53.7361 7.15695 1.9
    endloop
  endfacet
  facet normal 0.775336 0.251932 -0.579123
    outer loop
      vertex 52.4086 6.87478 0
      vertex 53.8427 6.82888 1.9
      vertex 52.4428 6.76933 0
    endloop
  endfacet
  facet normal 0.810773 0.0852157 -0.579124
    outer loop
      vertex 53.7361 7.15695 1.9
      vertex 52.397 6.98505 0
      vertex 53.7 7.5 1.9
    endloop
  endfacet
  facet normal 0.810774 0.0852117 -0.579124
    outer loop
      vertex 52.397 6.98505 0
      vertex 53.7361 7.15695 1.9
      vertex 52.4086 6.87478 0
    endloop
  endfacet
  facet normal 0.775337 -0.251931 -0.579123
    outer loop
      vertex 53.8427 8.17111 1.9
      vertex 52.4086 8.12522 0
      vertex 52.4428 8.23067 0
    endloop
  endfacet
  facet normal 0.775338 -0.251924 -0.579124
    outer loop
      vertex 52.4086 8.12522 0
      vertex 53.8427 8.17111 1.9
      vertex 53.7361 7.84305 1.9
    endloop
  endfacet
  facet normal 0.810773 -0.0852147 -0.579124
    outer loop
      vertex 52.397 8.01495 0
      vertex 53.7 7.5 1.9
      vertex 52.3429 7.5 0
    endloop
  endfacet
  facet normal -0.60584 -0.545503 -0.579124
    outer loop
      vertex 57.3622 9.73474 0
      vertex 57.7086 9.34995 0
      vertex 56.4541 8.72619 1.9
    endloop
  endfacet
  facet normal 0.60584 -0.545503 -0.579124
    outer loop
      vertex 53.3378 9.73474 0
      vertex 54.2459 8.72619 1.9
      vertex 52.9914 9.34995 0
    endloop
  endfacet
  facet normal 0.479187 -0.659541 -0.579124
    outer loop
      vertex 53.8464 10.1043 0
      vertex 54.525 8.92894 1.9
      vertex 53.4275 9.79991 0
    endloop
  endfacet
  facet normal 0.605835 -0.54551 -0.579123
    outer loop
      vertex 54.2459 8.72619 1.9
      vertex 52.9172 9.26755 0
      vertex 52.9914 9.34995 0
    endloop
  endfacet
  facet normal 0.605842 -0.5455 -0.579125
    outer loop
      vertex 52.9172 9.26755 0
      vertex 54.2459 8.72619 1.9
      vertex 54.0151 8.46984 1.9
    endloop
  endfacet
  facet normal 0.706024 -0.40761 -0.579124
    outer loop
      vertex 54.0151 8.46984 1.9
      vertex 52.8617 9.17153 0
      vertex 52.9172 9.26755 0
    endloop
  endfacet
  facet normal 0.70602 -0.407617 -0.579124
    outer loop
      vertex 52.8617 9.17153 0
      vertex 54.0151 8.46984 1.9
      vertex 53.8427 8.17111 1.9
    endloop
  endfacet
  facet normal -0.331589 0.744758 -0.579124
    outer loop
      vertex 56.8536 4.89574 0
      vertex 56.3805 4.68513 0
      vertex 56.175 6.07106 1.9
    endloop
  endfacet
  facet normal 0.70602 0.407617 -0.579124
    outer loop
      vertex 54.0151 6.53015 1.9
      vertex 52.8617 5.82847 0
      vertex 53.8427 6.82888 1.9
    endloop
  endfacet
  facet normal 0.706025 0.407608 -0.579124
    outer loop
      vertex 52.8617 5.82847 0
      vertex 54.0151 6.53015 1.9
      vertex 52.9172 5.73245 0
    endloop
  endfacet
  facet normal -0.169498 0.797424 -0.579124
    outer loop
      vertex 56.1708 4.61698 0
      vertex 55.8599 5.93076 1.9
      vertex 56.2793 4.64004 0
    endloop
  endfacet
  facet normal -0.169499 0.797424 -0.579124
    outer loop
      vertex 55.8599 5.93076 1.9
      vertex 56.1708 4.61698 0
      vertex 55.5225 5.85904 1.9
    endloop
  endfacet
  facet normal 0.810774 -0.0852117 -0.579124
    outer loop
      vertex 53.7361 7.84305 1.9
      vertex 52.397 8.01495 0
      vertex 52.4086 8.12522 0
    endloop
  endfacet
  facet normal 0.810773 -0.085216 -0.579124
    outer loop
      vertex 52.397 8.01495 0
      vertex 53.7361 7.84305 1.9
      vertex 53.7 7.5 1.9
    endloop
  endfacet
  facet normal 0.775339 -0.25192 -0.579125
    outer loop
      vertex 52.6028 8.72311 0
      vertex 53.8427 8.17111 1.9
      vertex 52.4428 8.23067 0
    endloop
  endfacet
  facet normal 0 -0.815239 -0.579124
    outer loop
      vertex 55.0357 10.4907 0
      vertex 55.5225 9.14096 1.9
      vertex 55.1775 9.14096 1.9
    endloop
  endfacet
  facet normal 0 -0.815239 -0.579124
    outer loop
      vertex 55.5225 9.14096 1.9
      vertex 55.0357 10.4907 0
      vertex 55.6643 10.4907 0
    endloop
  endfacet
  facet normal -0.479187 -0.659542 -0.579124
    outer loop
      vertex 56.8536 10.1043 0
      vertex 56.4541 8.72619 1.9
      vertex 56.175 8.92894 1.9
    endloop
  endfacet
  facet normal -0.479178 -0.659547 -0.579126
    outer loop
      vertex 56.4541 8.72619 1.9
      vertex 56.8536 10.1043 0
      vertex 56.9433 10.0391 0
    endloop
  endfacet
  facet normal -0.169498 -0.797424 -0.579124
    outer loop
      vertex 55.6643 10.4907 0
      vertex 56.1708 10.383 0
      vertex 55.5225 9.14096 1.9
    endloop
  endfacet
  facet normal -0.70602 -0.407617 -0.579124
    outer loop
      vertex 57.8383 9.17153 0
      vertex 58.0972 8.72311 0
      vertex 56.8573 8.17111 1.9
    endloop
  endfacet
  facet normal 0.331585 -0.744759 -0.579124
    outer loop
      vertex 54.3195 10.3149 0
      vertex 54.525 8.92894 1.9
      vertex 53.8464 10.1043 0
    endloop
  endfacet
  facet normal 0.479187 -0.659542 -0.579124
    outer loop
      vertex 53.4275 9.79991 0
      vertex 54.2459 8.72619 1.9
      vertex 53.3378 9.73474 0
    endloop
  endfacet
  facet normal 0.479183 -0.659545 -0.579124
    outer loop
      vertex 54.2459 8.72619 1.9
      vertex 53.4275 9.79991 0
      vertex 54.525 8.92894 1.9
    endloop
  endfacet
  facet normal -0.706015 0.407623 -0.579125
    outer loop
      vertex 57.8383 5.82847 0
      vertex 56.6849 6.53015 1.9
      vertex 56.8573 6.82888 1.9
    endloop
  endfacet
  facet normal -0.706012 0.407629 -0.579125
    outer loop
      vertex 56.6849 6.53015 1.9
      vertex 57.8383 5.82847 0
      vertex 57.7828 5.73245 0
    endloop
  endfacet
  facet normal -0.331589 0.744758 -0.579124
    outer loop
      vertex 56.2793 4.64004 0
      vertex 56.175 6.07106 1.9
      vertex 56.3805 4.68513 0
    endloop
  endfacet
  facet normal -0.331588 0.744758 -0.579124
    outer loop
      vertex 56.175 6.07106 1.9
      vertex 56.2793 4.64004 0
      vertex 55.8599 5.93076 1.9
    endloop
  endfacet
  facet normal -0.77534 0.25192 -0.579124
    outer loop
      vertex 58.2914 6.87478 0
      vertex 58.1314 6.38233 0
      vertex 56.9639 7.15695 1.9
    endloop
  endfacet
  facet normal 0.605842 0.5455 -0.579125
    outer loop
      vertex 54.2459 6.27381 1.9
      vertex 52.9172 5.73245 0
      vertex 54.0151 6.53015 1.9
    endloop
  endfacet
  facet normal 0.605835 0.54551 -0.579123
    outer loop
      vertex 52.9172 5.73245 0
      vertex 54.2459 6.27381 1.9
      vertex 52.9914 5.65005 0
    endloop
  endfacet
  facet normal 0.775339 0.25192 -0.579125
    outer loop
      vertex 53.8427 6.82888 1.9
      vertex 52.6028 6.27688 0
      vertex 52.4428 6.76933 0
    endloop
  endfacet
  facet normal 0.706017 0.407621 -0.579125
    outer loop
      vertex 53.8427 6.82888 1.9
      vertex 52.8617 5.82847 0
      vertex 52.6028 6.27688 0
    endloop
  endfacet
  facet normal -0.331587 -0.744759 -0.579124
    outer loop
      vertex 56.3805 10.3149 0
      vertex 56.8536 10.1043 0
      vertex 56.175 8.92894 1.9
    endloop
  endfacet
  facet normal -0.605847 -0.545493 -0.579126
    outer loop
      vertex 57.7828 9.26755 0
      vertex 56.4541 8.72619 1.9
      vertex 57.7086 9.34995 0
    endloop
  endfacet
  facet normal -0.605842 -0.5455 -0.579125
    outer loop
      vertex 56.4541 8.72619 1.9
      vertex 57.7828 9.26755 0
      vertex 56.6849 8.46984 1.9
    endloop
  endfacet
  facet normal -0.775335 -0.251933 -0.579124
    outer loop
      vertex 58.1314 8.61767 0
      vertex 56.8573 8.17111 1.9
      vertex 58.0972 8.72311 0
    endloop
  endfacet
  facet normal -0.775338 -0.251924 -0.579124
    outer loop
      vertex 56.8573 8.17111 1.9
      vertex 58.1314 8.61767 0
      vertex 56.9639 7.84305 1.9
    endloop
  endfacet
  facet normal 0.169498 -0.797424 -0.579124
    outer loop
      vertex 54.9272 10.4676 0
      vertex 54.8401 9.06924 1.9
      vertex 54.4207 10.36 0
    endloop
  endfacet
  facet normal 0.331595 -0.744756 -0.579123
    outer loop
      vertex 54.4207 10.36 0
      vertex 54.525 8.92894 1.9
      vertex 54.3195 10.3149 0
    endloop
  endfacet
  facet normal 0.331588 -0.744758 -0.579124
    outer loop
      vertex 54.525 8.92894 1.9
      vertex 54.4207 10.36 0
      vertex 54.8401 9.06924 1.9
    endloop
  endfacet
  facet normal -0.605842 0.5455 -0.579125
    outer loop
      vertex 57.7828 5.73245 0
      vertex 56.4541 6.27381 1.9
      vertex 56.6849 6.53015 1.9
    endloop
  endfacet
  facet normal -0.605847 0.545493 -0.579126
    outer loop
      vertex 56.4541 6.27381 1.9
      vertex 57.7828 5.73245 0
      vertex 57.7086 5.65005 0
    endloop
  endfacet
  facet normal -0.810773 -0.0852206 -0.579124
    outer loop
      vertex 58.2914 8.12522 0
      vertex 58.3456 7.61027 0
      vertex 56.9639 7.84305 1.9
    endloop
  endfacet
  facet normal -0.775338 0.251924 -0.579124
    outer loop
      vertex 58.1314 6.38233 0
      vertex 56.8573 6.82888 1.9
      vertex 56.9639 7.15695 1.9
    endloop
  endfacet
  facet normal -0.775336 0.251932 -0.579124
    outer loop
      vertex 56.8573 6.82888 1.9
      vertex 58.1314 6.38233 0
      vertex 58.0972 6.27688 0
    endloop
  endfacet
  facet normal 0.169499 0.797424 -0.579124
    outer loop
      vertex 54.8401 5.93076 1.9
      vertex 54.9272 4.53238 0
      vertex 54.4207 4.64004 0
    endloop
  endfacet
  facet normal 0 0.815239 -0.579124
    outer loop
      vertex 55.6643 4.50933 0
      vertex 55.1775 5.85904 1.9
      vertex 55.5225 5.85904 1.9
    endloop
  endfacet
  facet normal 0 0.815239 -0.579124
    outer loop
      vertex 55.1775 5.85904 1.9
      vertex 55.6643 4.50933 0
      vertex 55.0357 4.50933 0
    endloop
  endfacet
  facet normal -0.331588 -0.744758 -0.579124
    outer loop
      vertex 56.2793 10.36 0
      vertex 56.175 8.92894 1.9
      vertex 55.8599 9.06924 1.9
    endloop
  endfacet
  facet normal -0.331595 -0.744756 -0.579123
    outer loop
      vertex 56.175 8.92894 1.9
      vertex 56.2793 10.36 0
      vertex 56.3805 10.3149 0
    endloop
  endfacet
  facet normal -0.169499 -0.797424 -0.579124
    outer loop
      vertex 56.1708 10.383 0
      vertex 55.8599 9.06924 1.9
      vertex 55.5225 9.14096 1.9
    endloop
  endfacet
  facet normal -0.169498 -0.797424 -0.579124
    outer loop
      vertex 55.8599 9.06924 1.9
      vertex 56.1708 10.383 0
      vertex 56.2793 10.36 0
    endloop
  endfacet
  facet normal -0.810773 0.0852205 -0.579124
    outer loop
      vertex 58.3456 7.38973 0
      vertex 58.2914 6.87478 0
      vertex 56.9639 7.15695 1.9
    endloop
  endfacet
  facet normal 0.169498 -0.797424 -0.579124
    outer loop
      vertex 55.0357 10.4907 0
      vertex 54.8401 9.06924 1.9
      vertex 54.9272 10.4676 0
    endloop
  endfacet
  facet normal 0.169499 -0.797424 -0.579124
    outer loop
      vertex 54.8401 9.06924 1.9
      vertex 55.0357 10.4907 0
      vertex 55.1775 9.14096 1.9
    endloop
  endfacet
  facet normal -0.60584 0.545503 -0.579124
    outer loop
      vertex 57.7086 5.65005 0
      vertex 57.3622 5.26526 0
      vertex 56.4541 6.27381 1.9
    endloop
  endfacet
  facet normal -0.479187 0.659542 -0.579124
    outer loop
      vertex 57.3622 5.26526 0
      vertex 56.9433 4.96091 0
      vertex 56.4541 6.27381 1.9
    endloop
  endfacet
  facet normal -0.70602 0.407617 -0.579124
    outer loop
      vertex 58.0972 6.27688 0
      vertex 57.8383 5.82847 0
      vertex 56.8573 6.82888 1.9
    endloop
  endfacet
  facet normal -0.169499 0.797424 -0.579124
    outer loop
      vertex 56.1708 4.61698 0
      vertex 55.6643 4.50933 0
      vertex 55.5225 5.85904 1.9
    endloop
  endfacet
  facet normal 0.169499 0.797424 -0.579124
    outer loop
      vertex 55.0357 4.50933 0
      vertex 54.8401 5.93076 1.9
      vertex 55.1775 5.85904 1.9
    endloop
  endfacet
  facet normal 0.169498 0.797424 -0.579124
    outer loop
      vertex 54.8401 5.93076 1.9
      vertex 55.0357 4.50933 0
      vertex 54.9272 4.53238 0
    endloop
  endfacet
  facet normal -0.77534 -0.25192 -0.579124
    outer loop
      vertex 58.1314 8.61767 0
      vertex 58.2914 8.12522 0
      vertex 56.9639 7.84305 1.9
    endloop
  endfacet
  facet normal -0.810774 0.0852117 -0.579124
    outer loop
      vertex 58.3456 7.38973 0
      vertex 57 7.5 1.9
      vertex 58.3571 7.5 0
    endloop
  endfacet
  facet normal -0.810773 0.0852157 -0.579124
    outer loop
      vertex 57 7.5 1.9
      vertex 58.3456 7.38973 0
      vertex 56.9639 7.15695 1.9
    endloop
  endfacet
  facet normal -0.810774 -0.0852121 -0.579124
    outer loop
      vertex 57 7.5 1.9
      vertex 58.3456 7.61027 0
      vertex 58.3571 7.5 0
    endloop
  endfacet
  facet normal -0.810773 -0.085216 -0.579124
    outer loop
      vertex 58.3456 7.61027 0
      vertex 57 7.5 1.9
      vertex 56.9639 7.84305 1.9
    endloop
  endfacet
  facet normal 0.331588 0.744758 -0.579124
    outer loop
      vertex 54.4207 4.64004 0
      vertex 54.525 6.07106 1.9
      vertex 54.8401 5.93076 1.9
    endloop
  endfacet
  facet normal 0.331589 0.744758 -0.579124
    outer loop
      vertex 54.525 6.07106 1.9
      vertex 54.4207 4.64004 0
      vertex 54.3195 4.68513 0
    endloop
  endfacet
endsolid OpenSCAD_Model
