solid OpenSCAD_Model
  facet normal -1 0 0
    outer loop
      vertex 0 5 0
      vertex 0 0 0
      vertex 0 5 3.18015
    endloop
  endfacet
  facet normal -1 0 0
    outer loop
      vertex 0 10 9.13892
      vertex 0 9.59847 10
      vertex 0 10 9.66308
    endloop
  endfacet
  facet normal -1 0 0
    outer loop
      vertex 0 5 3.18015
      vertex 0 9.59847 10
      vertex 0 10 9.13892
    endloop
  endfacet
  facet normal -1 0 0
    outer loop
      vertex 0 0 10
      vertex 0 5 3.18015
      vertex 0 0 0
    endloop
  endfacet
  facet normal -1 0 0
    outer loop
      vertex 0 5 3.18015
      vertex 0 0 10
      vertex 0 9.59847 10
    endloop
  endfacet
  facet normal -0 0 1
    outer loop
      vertex 6.13262 2.71031 10
      vertex 10 0 10
      vertex 10 9.59847 10
    endloop
  endfacet
  facet normal 0 0 1
    outer loop
      vertex 10 0 10
      vertex 6.33148 2.10315 10
      vertex 6.4 1.4301 10
    endloop
  endfacet
  facet normal 0 0 1
    outer loop
      vertex 10 0 10
      vertex 6.29888 2.20267 10
      vertex 6.33148 2.10315 10
    endloop
  endfacet
  facet normal 0 0 1
    outer loop
      vertex 10 0 10
      vertex 6.13262 2.71031 10
      vertex 6.29888 2.20267 10
    endloop
  endfacet
  facet normal 0 0 1
    outer loop
      vertex 10 9.59847 10
      vertex 5.88772 3.0913 10
      vertex 6.13262 2.71031 10
    endloop
  endfacet
  facet normal 0 0 1
    outer loop
      vertex 10 9.59847 10
      vertex 5.8229 3.19215 10
      vertex 5.88772 3.0913 10
    endloop
  endfacet
  facet normal 0 0 1
    outer loop
      vertex 10 9.59847 10
      vertex 5.43262 3.50152 10
      vertex 5.8229 3.19215 10
    endloop
  endfacet
  facet normal 0 0 1
    outer loop
      vertex 10 9.59847 10
      vertex 5 3.60812 10
      vertex 5.43262 3.50152 10
    endloop
  endfacet
  facet normal -0 0 1
    outer loop
      vertex 0 9.59847 10
      vertex 5 3.60812 10
      vertex 10 9.59847 10
    endloop
  endfacet
  facet normal 0 0 1
    outer loop
      vertex 5 3.60812 10
      vertex 0 9.59847 10
      vertex 4.56738 3.50152 10
    endloop
  endfacet
  facet normal 0 0 1
    outer loop
      vertex 0 9.59847 10
      vertex 4.11228 3.0913 10
      vertex 4.1771 3.19215 10
    endloop
  endfacet
  facet normal 0 0 1
    outer loop
      vertex 3.70111 2.20267 10
      vertex 0 0 10
      vertex 3.66852 2.10315 10
    endloop
  endfacet
  facet normal 0 0 1
    outer loop
      vertex 3.86738 2.71031 10
      vertex 0 0 10
      vertex 3.70111 2.20267 10
    endloop
  endfacet
  facet normal 0 0 1
    outer loop
      vertex 0 0 10
      vertex 3.86738 2.71031 10
      vertex 0 9.59847 10
    endloop
  endfacet
  facet normal 0 0 1
    outer loop
      vertex 4.11228 3.0913 10
      vertex 0 9.59847 10
      vertex 3.86738 2.71031 10
    endloop
  endfacet
  facet normal 0 0 1
    outer loop
      vertex 4.56738 3.50152 10
      vertex 0 9.59847 10
      vertex 4.1771 3.19215 10
    endloop
  endfacet
  facet normal -0 0 1
    outer loop
      vertex 6.39176 1.34912 10
      vertex 10 0 10
      vertex 6.4 1.4301 10
    endloop
  endfacet
  facet normal -0 0 1
    outer loop
      vertex 6.33148 0.757061 10
      vertex 10 0 10
      vertex 6.39176 1.34912 10
    endloop
  endfacet
  facet normal -0 0 1
    outer loop
      vertex 6.13262 0.1499 10
      vertex 10 0 10
      vertex 6.33148 0.757061 10
    endloop
  endfacet
  facet normal 0 0 1
    outer loop
      vertex 10 0 10
      vertex 6.13262 0.1499 10
      vertex 6.03627 0 10
    endloop
  endfacet
  facet normal 0 0 1
    outer loop
      vertex 3.66852 2.10315 10
      vertex 0 0 10
      vertex 3.6 1.4301 10
    endloop
  endfacet
  facet normal 0 0 1
    outer loop
      vertex 3.6 1.4301 10
      vertex 0 0 10
      vertex 3.60824 1.34912 10
    endloop
  endfacet
  facet normal 0 0 1
    outer loop
      vertex 3.60824 1.34912 10
      vertex 0 0 10
      vertex 3.66852 0.757061 10
    endloop
  endfacet
  facet normal 0 0 1
    outer loop
      vertex 3.86738 0.1499 10
      vertex 0 0 10
      vertex 3.96373 0 10
    endloop
  endfacet
  facet normal 0 0 1
    outer loop
      vertex 3.66852 0.757061 10
      vertex 0 0 10
      vertex 3.86738 0.1499 10
    endloop
  endfacet
  facet normal 1 0 0
    outer loop
      vertex 10 9.59847 10
      vertex 10 10 9.13892
      vertex 10 10 9.66308
    endloop
  endfacet
  facet normal 1 0 0
    outer loop
      vertex 10 9.59847 10
      vertex 10 5 3.18015
      vertex 10 10 9.13892
    endloop
  endfacet
  facet normal 1 -0 0
    outer loop
      vertex 10 0 10
      vertex 10 5 3.18015
      vertex 10 9.59847 10
    endloop
  endfacet
  facet normal 1 0 0
    outer loop
      vertex 10 0 0
      vertex 10 5 3.18015
      vertex 10 0 10
    endloop
  endfacet
  facet normal 1 0 0
    outer loop
      vertex 10 5 3.18015
      vertex 10 0 0
      vertex 10 5 0
    endloop
  endfacet
  facet normal 0 0 -1
    outer loop
      vertex 0 0 0
      vertex 10 5 0
      vertex 10 0 0
    endloop
  endfacet
  facet normal -0 0 -1
    outer loop
      vertex 10 5 0
      vertex 0 0 0
      vertex 0 5 0
    endloop
  endfacet
  facet normal 0 -1 0
    outer loop
      vertex 0 0 10
      vertex 4.1771 0 9.72146
      vertex 3.96373 0 10
    endloop
  endfacet
  facet normal 0 -1 0
    outer loop
      vertex 4.1771 0 5.28262
      vertex 4.1771 0 9.72146
      vertex 0 0 10
    endloop
  endfacet
  facet normal 0 -1 0
    outer loop
      vertex 4.1771 0 9.72146
      vertex 4.1771 0 5.28262
      vertex 4.56738 0 9.46188
    endloop
  endfacet
  facet normal -0 -1 0
    outer loop
      vertex 4.56738 0 5.48148
      vertex 4.56738 0 9.46188
      vertex 4.1771 0 5.28262
    endloop
  endfacet
  facet normal 0 -1 -0
    outer loop
      vertex 5 0 9.37243
      vertex 4.56738 0 5.48148
      vertex 5 0 5.55
    endloop
  endfacet
  facet normal 0 -1 0
    outer loop
      vertex 4.56738 0 9.46188
      vertex 4.56738 0 5.48148
      vertex 5 0 9.37243
    endloop
  endfacet
  facet normal 0 -1 0
    outer loop
      vertex 0 0 10
      vertex 3.86738 0 4.9729
      vertex 4.1771 0 5.28262
    endloop
  endfacet
  facet normal 0 -1 0
    outer loop
      vertex 0 0 10
      vertex 3.66852 0 4.58262
      vertex 3.86738 0 4.9729
    endloop
  endfacet
  facet normal 0 -1 0
    outer loop
      vertex 0 0 10
      vertex 3.6 0 4.15
      vertex 3.66852 0 4.58262
    endloop
  endfacet
  facet normal 0 -1 0
    outer loop
      vertex 0 0 0
      vertex 3.6 0 4.15
      vertex 0 0 10
    endloop
  endfacet
  facet normal 0 -1 -0
    outer loop
      vertex 3.6 0 4.15
      vertex 0 0 0
      vertex 3.66852 0 3.71738
    endloop
  endfacet
  facet normal 0 -1 -0
    outer loop
      vertex 4.56738 0 2.81852
      vertex 0 0 0
      vertex 5 0 2.75
    endloop
  endfacet
  facet normal 0 -1 -0
    outer loop
      vertex 4.1771 0 3.01738
      vertex 0 0 0
      vertex 4.56738 0 2.81852
    endloop
  endfacet
  facet normal 0 -1 -0
    outer loop
      vertex 3.86738 0 3.3271
      vertex 0 0 0
      vertex 4.1771 0 3.01738
    endloop
  endfacet
  facet normal 0 -1 -0
    outer loop
      vertex 3.66852 0 3.71738
      vertex 0 0 0
      vertex 3.86738 0 3.3271
    endloop
  endfacet
  facet normal 0 -1 0
    outer loop
      vertex 5.8229 0 9.72146
      vertex 10 0 10
      vertex 6.03627 0 10
    endloop
  endfacet
  facet normal 0 -1 0
    outer loop
      vertex 5.8229 0 5.28262
      vertex 5.8229 0 9.72146
      vertex 5.43262 0 9.46188
    endloop
  endfacet
  facet normal 0 -1 0
    outer loop
      vertex 5.43262 0 5.48148
      vertex 5.43262 0 9.46188
      vertex 5 0 9.37243
    endloop
  endfacet
  facet normal 0 -1 0
    outer loop
      vertex 5.43262 0 5.48148
      vertex 5 0 9.37243
      vertex 5 0 5.55
    endloop
  endfacet
  facet normal 0 -1 0
    outer loop
      vertex 5.43262 0 9.46188
      vertex 5.43262 0 5.48148
      vertex 5.8229 0 5.28262
    endloop
  endfacet
  facet normal 0 -1 0
    outer loop
      vertex 5.8229 0 9.72146
      vertex 5.8229 0 5.28262
      vertex 10 0 10
    endloop
  endfacet
  facet normal 0 -1 0
    outer loop
      vertex 6.13262 0 4.9729
      vertex 10 0 10
      vertex 5.8229 0 5.28262
    endloop
  endfacet
  facet normal 0 -1 0
    outer loop
      vertex 6.33148 0 4.58262
      vertex 10 0 10
      vertex 6.13262 0 4.9729
    endloop
  endfacet
  facet normal 0 -1 0
    outer loop
      vertex 6.4 0 4.15
      vertex 10 0 10
      vertex 6.33148 0 4.58262
    endloop
  endfacet
  facet normal 0 -1 0
    outer loop
      vertex 10 0 0
      vertex 6.4 0 4.15
      vertex 6.33148 0 3.71738
    endloop
  endfacet
  facet normal 0 -1 0
    outer loop
      vertex 10 0 0
      vertex 6.33148 0 3.71738
      vertex 6.13262 0 3.3271
    endloop
  endfacet
  facet normal 0 -1 0
    outer loop
      vertex 10 0 0
      vertex 5 0 2.75
      vertex 0 0 0
    endloop
  endfacet
  facet normal 0 -1 0
    outer loop
      vertex 5 0 2.75
      vertex 10 0 0
      vertex 5.43262 0 2.81852
    endloop
  endfacet
  facet normal 0 -1 0
    outer loop
      vertex 6.4 0 4.15
      vertex 10 0 0
      vertex 10 0 10
    endloop
  endfacet
  facet normal 0 -1 0
    outer loop
      vertex 5.8229 0 3.01738
      vertex 10 0 0
      vertex 6.13262 0 3.3271
    endloop
  endfacet
  facet normal 0 -1 0
    outer loop
      vertex 5.43262 0 2.81852
      vertex 10 0 0
      vertex 5.8229 0 3.01738
    endloop
  endfacet
  facet normal 0 1 -0
    outer loop
      vertex 10 5 0
      vertex 5.98567 5 3.18015
      vertex 10 5 3.18015
    endloop
  endfacet
  facet normal 0 1 0
    outer loop
      vertex 5.98567 5 3.18015
      vertex 10 5 0
      vertex 5.8229 5 3.01738
    endloop
  endfacet
  facet normal 0 1 0
    outer loop
      vertex 5.8229 5 3.01738
      vertex 10 5 0
      vertex 5.43262 5 2.81852
    endloop
  endfacet
  facet normal 0 1 0
    outer loop
      vertex 5.43262 5 2.81852
      vertex 10 5 0
      vertex 5 5 2.75
    endloop
  endfacet
  facet normal 0 1 0
    outer loop
      vertex 0 5 0
      vertex 4.01433 5 3.18015
      vertex 4.1771 5 3.01738
    endloop
  endfacet
  facet normal 0 1 0
    outer loop
      vertex 0 5 0
      vertex 4.1771 5 3.01738
      vertex 4.56738 5 2.81852
    endloop
  endfacet
  facet normal 0 1 0
    outer loop
      vertex 0 5 0
      vertex 4.56738 5 2.81852
      vertex 5 5 2.75
    endloop
  endfacet
  facet normal 0 1 0
    outer loop
      vertex 0 5 0
      vertex 5 5 2.75
      vertex 10 5 0
    endloop
  endfacet
  facet normal 0 1 0
    outer loop
      vertex 4.01433 5 3.18015
      vertex 0 5 0
      vertex 0 5 3.18015
    endloop
  endfacet
  facet normal -0 0.642783 0.766048
    outer loop
      vertex 0 10 9.66308
      vertex 10 9.59847 10
      vertex 10 10 9.66308
    endloop
  endfacet
  facet normal 0 0.642783 0.766048
    outer loop
      vertex 10 9.59847 10
      vertex 0 10 9.66308
      vertex 0 9.59847 10
    endloop
  endfacet
  facet normal 0 0.766045 -0.642786
    outer loop
      vertex 10 10 9.13892
      vertex 5 7.78303 6.49683
      vertex 0 10 9.13892
    endloop
  endfacet
  facet normal 8.34412e-006 0.766038 -0.642796
    outer loop
      vertex 10 10 9.13892
      vertex 5.43262 7.73898 6.44434
      vertex 5 7.78303 6.49683
    endloop
  endfacet
  facet normal 1.70974e-008 0.766045 -0.642787
    outer loop
      vertex 10 10 9.13892
      vertex 5.8229 7.61116 6.29201
      vertex 5.43262 7.73898 6.44434
    endloop
  endfacet
  facet normal -5.41044e-006 0.766049 -0.642783
    outer loop
      vertex 10 10 9.13892
      vertex 6.00843 7.49191 6.14989
      vertex 5.8229 7.61116 6.29201
    endloop
  endfacet
  facet normal -5.52651e-006 0.766049 -0.642783
    outer loop
      vertex 10 10 9.13892
      vertex 6.13262 7.41208 6.05475
      vertex 6.00843 7.49191 6.14989
    endloop
  endfacet
  facet normal 2.98533e-005 0.766027 -0.642809
    outer loop
      vertex 10 10 9.13892
      vertex 6.21236 7.31148 5.93487
      vertex 6.13262 7.41208 6.05475
    endloop
  endfacet
  facet normal -1.04453e-005 0.76605 -0.642781
    outer loop
      vertex 10 10 9.13892
      vertex 6.33148 7.16121 5.75578
      vertex 6.21236 7.31148 5.93487
    endloop
  endfacet
  facet normal -1.04899e-005 0.76605 -0.642781
    outer loop
      vertex 10 10 9.13892
      vertex 6.4 6.88313 5.42437
      vertex 6.33148 7.16121 5.75578
    endloop
  endfacet
  facet normal 1.37664e-006 0.766045 -0.642787
    outer loop
      vertex 10 5 3.18015
      vertex 6.4 6.88313 5.42437
      vertex 10 10 9.13892
    endloop
  endfacet
  facet normal -3.03835e-006 0.766041 -0.642792
    outer loop
      vertex 6.4 6.88313 5.42437
      vertex 10 5 3.18015
      vertex 6.35895 6.71655 5.22585
    endloop
  endfacet
  facet normal 3.44832e-006 0.766047 -0.642785
    outer loop
      vertex 6.33148 6.17682 4.58262
      vertex 6.35895 6.71655 5.22585
      vertex 10 5 3.18015
    endloop
  endfacet
  facet normal -4.97069e-005 0.766049 -0.642782
    outer loop
      vertex 6.33148 6.60504 5.09296
      vertex 6.33148 6.17682 4.58262
      vertex 6.18424 6.41929 4.8716
    endloop
  endfacet
  facet normal -0.000101506 0.766049 -0.642782
    outer loop
      vertex 6.35895 6.71655 5.22585
      vertex 6.33148 6.17682 4.58262
      vertex 6.33148 6.60504 5.09296
    endloop
  endfacet
  facet normal -4.51665e-006 0.766036 -0.642797
    outer loop
      vertex 6.33148 6.17682 4.58262
      vertex 10 5 3.18015
      vertex 6.4 5.8138 4.15
    endloop
  endfacet
  facet normal 4.281e-007 0.766046 -0.642786
    outer loop
      vertex 6.4 5.8138 4.15
      vertex 10 5 3.18015
      vertex 6.33148 5.45079 3.71738
    endloop
  endfacet
  facet normal 1.11568e-006 0.766048 -0.642784
    outer loop
      vertex 6.33148 5.45079 3.71738
      vertex 10 5 3.18015
      vertex 6.13262 5.12331 3.3271
    endloop
  endfacet
  facet normal 0 0.766033 -0.642801
    outer loop
      vertex 6.13262 5.12331 3.3271
      vertex 10 5 3.18015
      vertex 5.98567 5 3.18015
    endloop
  endfacet
  facet normal -8.34412e-006 0.766038 -0.642796
    outer loop
      vertex 4.56738 7.73898 6.44434
      vertex 0 10 9.13892
      vertex 5 7.78303 6.49683
    endloop
  endfacet
  facet normal -1.70974e-008 0.766045 -0.642787
    outer loop
      vertex 4.1771 7.61116 6.29201
      vertex 0 10 9.13892
      vertex 4.56738 7.73898 6.44434
    endloop
  endfacet
  facet normal 5.41044e-006 0.766049 -0.642783
    outer loop
      vertex 3.99157 7.49191 6.14989
      vertex 0 10 9.13892
      vertex 4.1771 7.61116 6.29201
    endloop
  endfacet
  facet normal 5.52651e-006 0.766049 -0.642783
    outer loop
      vertex 3.86738 7.41208 6.05475
      vertex 0 10 9.13892
      vertex 3.99157 7.49191 6.14989
    endloop
  endfacet
  facet normal -2.98533e-005 0.766027 -0.642809
    outer loop
      vertex 3.78764 7.31148 5.93487
      vertex 0 10 9.13892
      vertex 3.86738 7.41208 6.05475
    endloop
  endfacet
  facet normal 1.04453e-005 0.76605 -0.642781
    outer loop
      vertex 3.66852 7.16121 5.75578
      vertex 0 10 9.13892
      vertex 3.78764 7.31148 5.93487
    endloop
  endfacet
  facet normal 1.04899e-005 0.76605 -0.642781
    outer loop
      vertex 3.6 6.88313 5.42437
      vertex 0 10 9.13892
      vertex 3.66852 7.16121 5.75578
    endloop
  endfacet
  facet normal 3.03843e-006 0.766041 -0.642792
    outer loop
      vertex 0 5 3.18015
      vertex 3.6 6.88313 5.42437
      vertex 3.64104 6.71655 5.22585
    endloop
  endfacet
  facet normal 0.000101469 0.766049 -0.642782
    outer loop
      vertex 3.66852 6.17682 4.58262
      vertex 3.64104 6.71655 5.22585
      vertex 3.66852 6.60504 5.09296
    endloop
  endfacet
  facet normal 4.97069e-005 0.766049 -0.642782
    outer loop
      vertex 3.66852 6.17682 4.58262
      vertex 3.66852 6.60504 5.09296
      vertex 3.81576 6.41929 4.8716
    endloop
  endfacet
  facet normal -3.4483e-006 0.766047 -0.642785
    outer loop
      vertex 3.64104 6.71655 5.22585
      vertex 3.66852 6.17682 4.58262
      vertex 0 5 3.18015
    endloop
  endfacet
  facet normal 4.51665e-006 0.766036 -0.642797
    outer loop
      vertex 0 5 3.18015
      vertex 3.66852 6.17682 4.58262
      vertex 3.6 5.8138 4.15
    endloop
  endfacet
  facet normal -4.281e-007 0.766046 -0.642786
    outer loop
      vertex 0 5 3.18015
      vertex 3.6 5.8138 4.15
      vertex 3.66852 5.45079 3.71738
    endloop
  endfacet
  facet normal -1.11568e-006 0.766048 -0.642784
    outer loop
      vertex 0 5 3.18015
      vertex 3.66852 5.45079 3.71738
      vertex 3.86738 5.12331 3.3271
    endloop
  endfacet
  facet normal -1.37664e-006 0.766045 -0.642787
    outer loop
      vertex 3.6 6.88313 5.42437
      vertex 0 5 3.18015
      vertex 0 10 9.13892
    endloop
  endfacet
  facet normal 0 0.766033 -0.642801
    outer loop
      vertex 0 5 3.18015
      vertex 3.86738 5.12331 3.3271
      vertex 4.01433 5 3.18015
    endloop
  endfacet
  facet normal 0 1 -0
    outer loop
      vertex 10 10 9.13892
      vertex 0 10 9.66308
      vertex 10 10 9.66308
    endloop
  endfacet
  facet normal 0 1 0
    outer loop
      vertex 0 10 9.66308
      vertex 10 10 9.13892
      vertex 0 10 9.13892
    endloop
  endfacet
  facet normal -0.987688 0 0.156434
    outer loop
      vertex 6.4 0 4.15
      vertex 6.33148 5.45079 3.71738
      vertex 6.33148 0 3.71738
    endloop
  endfacet
  facet normal -0.987688 0 0.156434
    outer loop
      vertex 6.33148 5.45079 3.71738
      vertex 6.4 0 4.15
      vertex 6.4 5.8138 4.15
    endloop
  endfacet
  facet normal 0.987688 -0 0.156434
    outer loop
      vertex 3.6 0 4.15
      vertex 3.66852 5.45079 3.71738
      vertex 3.6 5.8138 4.15
    endloop
  endfacet
  facet normal 0.987688 0 0.156434
    outer loop
      vertex 3.66852 5.45079 3.71738
      vertex 3.6 0 4.15
      vertex 3.66852 0 3.71738
    endloop
  endfacet
  facet normal 0.156434 0 0.987688
    outer loop
      vertex 4.56738 5 2.81852
      vertex 5 0 2.75
      vertex 5 5 2.75
    endloop
  endfacet
  facet normal 0.156434 0 0.987688
    outer loop
      vertex 5 0 2.75
      vertex 4.56738 5 2.81852
      vertex 4.56738 0 2.81852
    endloop
  endfacet
  facet normal -0.156434 -0 -0.987688
    outer loop
      vertex 5 4.5554 5.55
      vertex 5.43262 0 5.48148
      vertex 5 0 5.55
    endloop
  endfacet
  facet normal -0.156434 0 -0.987688
    outer loop
      vertex 5.43262 0 5.48148
      vertex 5 4.5554 5.55
      vertex 5.43262 4.74365 5.48148
    endloop
  endfacet
  facet normal -0.453995 -0 -0.891004
    outer loop
      vertex 5.43262 4.74365 5.48148
      vertex 5.8229 0 5.28262
      vertex 5.43262 0 5.48148
    endloop
  endfacet
  facet normal -0.453995 0 -0.891004
    outer loop
      vertex 5.8229 0 5.28262
      vertex 5.43262 4.74365 5.48148
      vertex 5.8229 5.29 5.28262
    endloop
  endfacet
  facet normal -0.707107 0 0.707107
    outer loop
      vertex 5.98567 5 3.18015
      vertex 6.13262 0 3.3271
      vertex 6.13262 5.12331 3.3271
    endloop
  endfacet
  facet normal -0.707107 0 0.707107
    outer loop
      vertex 5.8229 0 3.01738
      vertex 5.98567 5 3.18015
      vertex 5.8229 5 3.01738
    endloop
  endfacet
  facet normal -0.707107 3.00995e-017 0.707107
    outer loop
      vertex 5.98567 5 3.18015
      vertex 5.8229 0 3.01738
      vertex 6.13262 0 3.3271
    endloop
  endfacet
  facet normal -0.891004 0 0.453995
    outer loop
      vertex 6.33148 0 3.71738
      vertex 6.13262 5.12331 3.3271
      vertex 6.13262 0 3.3271
    endloop
  endfacet
  facet normal -0.891004 0 0.453995
    outer loop
      vertex 6.13262 5.12331 3.3271
      vertex 6.33148 0 3.71738
      vertex 6.33148 5.45079 3.71738
    endloop
  endfacet
  facet normal -0.453995 0 0.891004
    outer loop
      vertex 5.43262 5 2.81852
      vertex 5.8229 0 3.01738
      vertex 5.8229 5 3.01738
    endloop
  endfacet
  facet normal -0.453995 0 0.891004
    outer loop
      vertex 5.8229 0 3.01738
      vertex 5.43262 5 2.81852
      vertex 5.43262 0 2.81852
    endloop
  endfacet
  facet normal 0.707107 0 0.707107
    outer loop
      vertex 4.01433 5 3.18015
      vertex 4.1771 0 3.01738
      vertex 4.1771 5 3.01738
    endloop
  endfacet
  facet normal 0.707107 -0 0.707107
    outer loop
      vertex 3.86738 0 3.3271
      vertex 4.01433 5 3.18015
      vertex 3.86738 5.12331 3.3271
    endloop
  endfacet
  facet normal 0.707107 3.00995e-017 0.707107
    outer loop
      vertex 4.01433 5 3.18015
      vertex 3.86738 0 3.3271
      vertex 4.1771 0 3.01738
    endloop
  endfacet
  facet normal 0.891004 -0 0.453995
    outer loop
      vertex 3.66852 0 3.71738
      vertex 3.86738 5.12331 3.3271
      vertex 3.66852 5.45079 3.71738
    endloop
  endfacet
  facet normal 0.891004 0 0.453995
    outer loop
      vertex 3.86738 5.12331 3.3271
      vertex 3.66852 0 3.71738
      vertex 3.86738 0 3.3271
    endloop
  endfacet
  facet normal 0.453995 0 0.891004
    outer loop
      vertex 4.1771 5 3.01738
      vertex 4.56738 0 2.81852
      vertex 4.56738 5 2.81852
    endloop
  endfacet
  facet normal 0.453995 0 0.891004
    outer loop
      vertex 4.56738 0 2.81852
      vertex 4.1771 5 3.01738
      vertex 4.1771 0 3.01738
    endloop
  endfacet
  facet normal -0.987688 0 -0.156434
    outer loop
      vertex 6.33148 0 4.58262
      vertex 6.4 5.8138 4.15
      vertex 6.4 0 4.15
    endloop
  endfacet
  facet normal -0.987688 0 -0.156434
    outer loop
      vertex 6.4 5.8138 4.15
      vertex 6.33148 0 4.58262
      vertex 6.33148 6.17682 4.58262
    endloop
  endfacet
  facet normal -0.156434 0 0.987688
    outer loop
      vertex 5 5 2.75
      vertex 5.43262 0 2.81852
      vertex 5.43262 5 2.81852
    endloop
  endfacet
  facet normal -0.156434 0 0.987688
    outer loop
      vertex 5.43262 0 2.81852
      vertex 5 5 2.75
      vertex 5 0 2.75
    endloop
  endfacet
  facet normal 0.453995 0 -0.891004
    outer loop
      vertex 4.1771 0 5.28262
      vertex 4.56738 4.74365 5.48148
      vertex 4.56738 0 5.48148
    endloop
  endfacet
  facet normal 0.453995 0 -0.891004
    outer loop
      vertex 4.56738 4.74365 5.48148
      vertex 4.1771 0 5.28262
      vertex 4.1771 5.29 5.28262
    endloop
  endfacet
  facet normal 0.891005 1.47291e-005 -0.453994
    outer loop
      vertex 3.86738 6.14097 4.9729
      vertex 3.66852 6.17682 4.58262
      vertex 3.81576 6.41929 4.8716
    endloop
  endfacet
  facet normal 0.891004 0 -0.453995
    outer loop
      vertex 3.66852 0 4.58262
      vertex 3.86738 6.14097 4.9729
      vertex 3.86738 0 4.9729
    endloop
  endfacet
  facet normal 0.891004 0 -0.453995
    outer loop
      vertex 3.86738 6.14097 4.9729
      vertex 3.66852 0 4.58262
      vertex 3.66852 6.17682 4.58262
    endloop
  endfacet
  facet normal 0.987688 0 -0.156434
    outer loop
      vertex 3.66852 0 4.58262
      vertex 3.6 5.8138 4.15
      vertex 3.66852 6.17682 4.58262
    endloop
  endfacet
  facet normal 0.987688 0 -0.156434
    outer loop
      vertex 3.6 5.8138 4.15
      vertex 3.66852 0 4.58262
      vertex 3.6 0 4.15
    endloop
  endfacet
  facet normal 0.707107 0 -0.707107
    outer loop
      vertex 3.86738 0 4.9729
      vertex 4.1771 5.29 5.28262
      vertex 4.1771 0 5.28262
    endloop
  endfacet
  facet normal 0.707107 0 -0.707107
    outer loop
      vertex 4.1771 5.29 5.28262
      vertex 3.86738 0 4.9729
      vertex 3.86738 6.14097 4.9729
    endloop
  endfacet
  facet normal -0.707107 0 -0.707107
    outer loop
      vertex 6.13262 0 4.9729
      vertex 5.8229 5.29 5.28262
      vertex 6.13262 6.14097 4.9729
    endloop
  endfacet
  facet normal -0.707107 -0 -0.707107
    outer loop
      vertex 5.8229 5.29 5.28262
      vertex 6.13262 0 4.9729
      vertex 5.8229 0 5.28262
    endloop
  endfacet
  facet normal 0.156434 0 -0.987688
    outer loop
      vertex 4.56738 0 5.48148
      vertex 5 4.5554 5.55
      vertex 5 0 5.55
    endloop
  endfacet
  facet normal 0.156434 0 -0.987688
    outer loop
      vertex 5 4.5554 5.55
      vertex 4.56738 0 5.48148
      vertex 4.56738 4.74365 5.48148
    endloop
  endfacet
  facet normal -0.891005 1.47291e-005 -0.453994
    outer loop
      vertex 6.33148 6.17682 4.58262
      vertex 6.13262 6.14097 4.9729
      vertex 6.18424 6.41929 4.8716
    endloop
  endfacet
  facet normal -0.891004 0 -0.453995
    outer loop
      vertex 6.33148 0 4.58262
      vertex 6.13262 6.14097 4.9729
      vertex 6.33148 6.17682 4.58262
    endloop
  endfacet
  facet normal -0.891004 -0 -0.453995
    outer loop
      vertex 6.13262 6.14097 4.9729
      vertex 6.33148 0 4.58262
      vertex 6.13262 0 4.9729
    endloop
  endfacet
  facet normal -0.987694 0.100531 0.119812
    outer loop
      vertex 6.33148 6.60504 5.09296
      vertex 6.39176 1.34912 10
      vertex 6.35895 6.71655 5.22585
    endloop
  endfacet
  facet normal -0.987687 0.100561 0.119843
    outer loop
      vertex 6.39176 1.34912 10
      vertex 6.33148 6.60504 5.09296
      vertex 6.33148 0.757061 10
    endloop
  endfacet
  facet normal -0.987686 0.100565 0.119849
    outer loop
      vertex 6.35895 6.71655 5.22585
      vertex 6.4 1.4301 10
      vertex 6.4 6.88313 5.42437
    endloop
  endfacet
  facet normal -0.987701 0.100502 0.119779
    outer loop
      vertex 6.4 1.4301 10
      vertex 6.35895 6.71655 5.22585
      vertex 6.39176 1.34912 10
    endloop
  endfacet
  facet normal 0.987692 0.100541 0.11982
    outer loop
      vertex 3.6 1.4301 10
      vertex 3.64104 6.71655 5.22585
      vertex 3.6 6.88313 5.42437
    endloop
  endfacet
  facet normal 0.987701 0.100502 0.119777
    outer loop
      vertex 3.64104 6.71655 5.22585
      vertex 3.6 1.4301 10
      vertex 3.60824 1.34912 10
    endloop
  endfacet
  facet normal -0.987689 -0.100554 -0.119835
    outer loop
      vertex 6.4 6.88313 5.42437
      vertex 6.33148 2.10315 10
      vertex 6.33148 7.16121 5.75578
    endloop
  endfacet
  facet normal -0.987689 -0.100552 -0.119833
    outer loop
      vertex 6.33148 2.10315 10
      vertex 6.4 6.88313 5.42437
      vertex 6.4 1.4301 10
    endloop
  endfacet
  facet normal 0.156424 0.634875 0.756614
    outer loop
      vertex 4.56738 0 9.46188
      vertex 5 4.5554 5.55
      vertex 4.56738 4.74365 5.48148
    endloop
  endfacet
  facet normal 0.15644 0.634873 0.756613
    outer loop
      vertex 5 4.5554 5.55
      vertex 4.56738 0 9.46188
      vertex 5 0 9.37243
    endloop
  endfacet
  facet normal -0.156437 -0.634875 -0.756612
    outer loop
      vertex 5 3.60812 10
      vertex 5.43262 7.73898 6.44434
      vertex 5.43262 3.50152 10
    endloop
  endfacet
  facet normal -0.156444 -0.634873 -0.756612
    outer loop
      vertex 5.43262 7.73898 6.44434
      vertex 5 3.60812 10
      vertex 5 7.78303 6.49683
    endloop
  endfacet
  facet normal 0.707122 -0.454508 -0.541665
    outer loop
      vertex 4.11228 3.0913 10
      vertex 3.86738 7.41208 6.05475
      vertex 3.99157 7.49191 6.14989
    endloop
  endfacet
  facet normal 0.7071 -0.454523 -0.54168
    outer loop
      vertex 3.86738 7.41208 6.05475
      vertex 4.11228 3.0913 10
      vertex 3.86738 2.71031 10
    endloop
  endfacet
  facet normal 0.891006 -0.29182 -0.347778
    outer loop
      vertex 3.86738 2.71031 10
      vertex 3.78764 7.31148 5.93487
      vertex 3.86738 7.41208 6.05475
    endloop
  endfacet
  facet normal 0.890996 -0.291833 -0.347792
    outer loop
      vertex 3.78764 7.31148 5.93487
      vertex 3.86738 2.71031 10
      vertex 3.70111 2.20267 10
    endloop
  endfacet
  facet normal -0.453993 -0.572727 -0.682549
    outer loop
      vertex 5.43262 3.50152 10
      vertex 5.8229 7.61116 6.29201
      vertex 5.8229 3.19215 10
    endloop
  endfacet
  facet normal -0.453982 -0.572732 -0.682553
    outer loop
      vertex 5.8229 7.61116 6.29201
      vertex 5.43262 3.50152 10
      vertex 5.43262 7.73898 6.44434
    endloop
  endfacet
  facet normal 0.891004 -0.291824 -0.347781
    outer loop
      vertex 3.70111 2.20267 10
      vertex 3.66852 7.16121 5.75578
      vertex 3.78764 7.31148 5.93487
    endloop
  endfacet
  facet normal 0.891032 -0.291788 -0.347739
    outer loop
      vertex 3.66852 7.16121 5.75578
      vertex 3.70111 2.20267 10
      vertex 3.66852 2.10315 10
    endloop
  endfacet
  facet normal -0.156424 0.634875 0.756614
    outer loop
      vertex 5 4.5554 5.55
      vertex 5.43262 0 9.46188
      vertex 5.43262 4.74365 5.48148
    endloop
  endfacet
  facet normal -0.15644 0.634873 0.756613
    outer loop
      vertex 5.43262 0 9.46188
      vertex 5 4.5554 5.55
      vertex 5 0 9.37243
    endloop
  endfacet
  facet normal -0.891003 0.291833 0.347774
    outer loop
      vertex 6.13262 6.14097 4.9729
      vertex 6.33148 6.60504 5.09296
      vertex 6.18424 6.41929 4.8716
    endloop
  endfacet
  facet normal -0.891 0.291828 0.347787
    outer loop
      vertex 6.13262 6.14097 4.9729
      vertex 6.33148 0.757061 10
      vertex 6.33148 6.60504 5.09296
    endloop
  endfacet
  facet normal -0.891002 0.291825 0.347784
    outer loop
      vertex 6.33148 0.757061 10
      vertex 6.13262 6.14097 4.9729
      vertex 6.13262 0.1499 10
    endloop
  endfacet
  facet normal 0.987685 0.100569 0.119852
    outer loop
      vertex 3.60824 1.34912 10
      vertex 3.66852 6.60504 5.09296
      vertex 3.64104 6.71655 5.22585
    endloop
  endfacet
  facet normal 0.987687 0.100561 0.119843
    outer loop
      vertex 3.66852 6.60504 5.09296
      vertex 3.60824 1.34912 10
      vertex 3.66852 0.757061 10
    endloop
  endfacet
  facet normal 0.156437 -0.634875 -0.756612
    outer loop
      vertex 4.56738 7.73898 6.44434
      vertex 5 3.60812 10
      vertex 4.56738 3.50152 10
    endloop
  endfacet
  facet normal 0.156444 -0.634873 -0.756612
    outer loop
      vertex 5 3.60812 10
      vertex 4.56738 7.73898 6.44434
      vertex 5 7.78303 6.49683
    endloop
  endfacet
  facet normal -0.891004 -0.291823 -0.347781
    outer loop
      vertex 6.33148 7.16121 5.75578
      vertex 6.29888 2.20267 10
      vertex 6.21236 7.31148 5.93487
    endloop
  endfacet
  facet normal -0.890975 -0.291859 -0.347824
    outer loop
      vertex 6.29888 2.20267 10
      vertex 6.33148 7.16121 5.75578
      vertex 6.33148 2.10315 10
    endloop
  endfacet
  facet normal -0.707093 -0.454528 -0.541686
    outer loop
      vertex 6.00843 7.49191 6.14989
      vertex 5.8229 3.19215 10
      vertex 5.8229 7.61116 6.29201
    endloop
  endfacet
  facet normal -0.707133 -0.454501 -0.541657
    outer loop
      vertex 5.8229 3.19215 10
      vertex 6.00843 7.49191 6.14989
      vertex 5.88772 3.0913 10
    endloop
  endfacet
  facet normal -0.45398 0.572732 0.682555
    outer loop
      vertex 5.43262 4.74365 5.48148
      vertex 5.8229 0 9.72146
      vertex 5.8229 5.29 5.28262
    endloop
  endfacet
  facet normal -0.453976 0.572733 0.682556
    outer loop
      vertex 5.8229 0 9.72146
      vertex 5.43262 4.74365 5.48148
      vertex 5.43262 0 9.46188
    endloop
  endfacet
  facet normal 0.707122 0.454509 0.541664
    outer loop
      vertex 3.86738 0.1499 10
      vertex 4.1771 5.29 5.28262
      vertex 3.86738 6.14097 4.9729
    endloop
  endfacet
  facet normal 0.707117 0.454508 0.541672
    outer loop
      vertex 4.1771 0 9.72146
      vertex 3.86738 0.1499 10
      vertex 3.96373 0 10
    endloop
  endfacet
  facet normal 0.707116 0.454514 0.541668
    outer loop
      vertex 3.86738 0.1499 10
      vertex 4.1771 0 9.72146
      vertex 4.1771 5.29 5.28262
    endloop
  endfacet
  facet normal 0.45398 0.572732 0.682555
    outer loop
      vertex 4.1771 0 9.72146
      vertex 4.56738 4.74365 5.48148
      vertex 4.1771 5.29 5.28262
    endloop
  endfacet
  facet normal 0.453976 0.572733 0.682556
    outer loop
      vertex 4.56738 4.74365 5.48148
      vertex 4.1771 0 9.72146
      vertex 4.56738 0 9.46188
    endloop
  endfacet
  facet normal 0.707093 -0.454528 -0.541686
    outer loop
      vertex 4.1771 3.19215 10
      vertex 3.99157 7.49191 6.14989
      vertex 4.1771 7.61116 6.29201
    endloop
  endfacet
  facet normal 0.707133 -0.454501 -0.541657
    outer loop
      vertex 3.99157 7.49191 6.14989
      vertex 4.1771 3.19215 10
      vertex 4.11228 3.0913 10
    endloop
  endfacet
  facet normal -0.707122 0.454509 0.541664
    outer loop
      vertex 5.8229 5.29 5.28262
      vertex 6.13262 0.1499 10
      vertex 6.13262 6.14097 4.9729
    endloop
  endfacet
  facet normal -0.707116 0.454514 0.541668
    outer loop
      vertex 5.8229 0 9.72146
      vertex 6.13262 0.1499 10
      vertex 5.8229 5.29 5.28262
    endloop
  endfacet
  facet normal -0.707117 0.454508 0.541672
    outer loop
      vertex 6.13262 0.1499 10
      vertex 5.8229 0 9.72146
      vertex 6.03627 0 10
    endloop
  endfacet
  facet normal 0.891003 0.291833 0.347774
    outer loop
      vertex 3.66852 6.60504 5.09296
      vertex 3.86738 6.14097 4.9729
      vertex 3.81576 6.41929 4.8716
    endloop
  endfacet
  facet normal 0.891 0.291828 0.347787
    outer loop
      vertex 3.66852 0.757061 10
      vertex 3.86738 6.14097 4.9729
      vertex 3.66852 6.60504 5.09296
    endloop
  endfacet
  facet normal 0.891002 0.291825 0.347784
    outer loop
      vertex 3.86738 6.14097 4.9729
      vertex 3.66852 0.757061 10
      vertex 3.86738 0.1499 10
    endloop
  endfacet
  facet normal 0.987689 -0.100554 -0.119835
    outer loop
      vertex 3.66852 2.10315 10
      vertex 3.6 6.88313 5.42437
      vertex 3.66852 7.16121 5.75578
    endloop
  endfacet
  facet normal 0.987689 -0.100552 -0.119833
    outer loop
      vertex 3.6 6.88313 5.42437
      vertex 3.66852 2.10315 10
      vertex 3.6 1.4301 10
    endloop
  endfacet
  facet normal -0.891006 -0.29182 -0.347778
    outer loop
      vertex 6.21236 7.31148 5.93487
      vertex 6.13262 2.71031 10
      vertex 6.13262 7.41208 6.05475
    endloop
  endfacet
  facet normal -0.891007 -0.291819 -0.347776
    outer loop
      vertex 6.13262 2.71031 10
      vertex 6.21236 7.31148 5.93487
      vertex 6.29888 2.20267 10
    endloop
  endfacet
  facet normal -0.707122 -0.454508 -0.541665
    outer loop
      vertex 6.13262 7.41208 6.05475
      vertex 5.88772 3.0913 10
      vertex 6.00843 7.49191 6.14989
    endloop
  endfacet
  facet normal -0.7071 -0.454523 -0.54168
    outer loop
      vertex 5.88772 3.0913 10
      vertex 6.13262 7.41208 6.05475
      vertex 6.13262 2.71031 10
    endloop
  endfacet
  facet normal 0.453993 -0.572727 -0.682549
    outer loop
      vertex 4.1771 7.61116 6.29201
      vertex 4.56738 3.50152 10
      vertex 4.1771 3.19215 10
    endloop
  endfacet
  facet normal 0.453982 -0.572732 -0.682553
    outer loop
      vertex 4.56738 3.50152 10
      vertex 4.1771 7.61116 6.29201
      vertex 4.56738 7.73898 6.44434
    endloop
  endfacet
endsolid OpenSCAD_Model
