solid OpenSCAD_Model
  facet normal 0.991168 0.132612 0
    outer loop
      vertex 17 0 58.1
      vertex 16.7907 1.56434 0
      vertex 16.7907 1.56434 58.1
    endloop
  endfacet
  facet normal 0.991168 0.132612 0
    outer loop
      vertex 16.7907 1.56434 0
      vertex 17 0 58.1
      vertex 17 0 0
    endloop
  endfacet
  facet normal -0.991168 0.132612 0
    outer loop
      vertex -17 0 0
      vertex -16.7907 1.56434 58.1
      vertex -16.7907 1.56434 0
    endloop
  endfacet
  facet normal -0.991168 0.132612 0
    outer loop
      vertex -16.7907 1.56434 58.1
      vertex -17 0 0
      vertex -17 0 58.1
    endloop
  endfacet
  facet normal 0.0462459 0.99893 -0
    outer loop
      vertex 2.65939 9.87688 0
      vertex 0 10 58.1
      vertex 2.65939 9.87688 58.1
    endloop
  endfacet
  facet normal 0.0462459 0.99893 0
    outer loop
      vertex 0 10 58.1
      vertex 2.65939 9.87688 0
      vertex 0 10 0
    endloop
  endfacet
  facet normal 0.567219 0.823567 -0
    outer loop
      vertex 13.7533 5.87785 0
      vertex 12.0208 7.07107 58.1
      vertex 13.7533 5.87785 58.1
    endloop
  endfacet
  facet normal 0.567219 0.823567 0
    outer loop
      vertex 12.0208 7.07107 58.1
      vertex 13.7533 5.87785 0
      vertex 12.0208 7.07107 0
    endloop
  endfacet
  facet normal -0.448929 0.893568 0
    outer loop
      vertex -9.99235 8.09017 0
      vertex -12.0208 7.07107 58.1
      vertex -9.99235 8.09017 58.1
    endloop
  endfacet
  facet normal -0.448929 0.893568 0
    outer loop
      vertex -12.0208 7.07107 58.1
      vertex -9.99235 8.09017 0
      vertex -12.0208 7.07107 0
    endloop
  endfacet
  facet normal -0.139835 0.990175 0
    outer loop
      vertex -2.65939 9.87688 0
      vertex -5.25329 9.51056 58.1
      vertex -2.65939 9.87688 58.1
    endloop
  endfacet
  facet normal -0.139835 0.990175 0
    outer loop
      vertex -5.25329 9.51056 58.1
      vertex -2.65939 9.87688 0
      vertex -5.25329 9.51056 0
    endloop
  endfacet
  facet normal 0.448929 -0.893568 0
    outer loop
      vertex 9.99235 -8.09017 0
      vertex 12.0208 -7.07107 58.1
      vertex 9.99235 -8.09017 58.1
    endloop
  endfacet
  facet normal 0.448929 -0.893568 0
    outer loop
      vertex 12.0208 -7.07107 58.1
      vertex 9.99235 -8.09017 0
      vertex 12.0208 -7.07107 0
    endloop
  endfacet
  facet normal -0.567219 -0.823567 0
    outer loop
      vertex -13.7533 -5.87785 0
      vertex -12.0208 -7.07107 58.1
      vertex -13.7533 -5.87785 58.1
    endloop
  endfacet
  facet normal -0.567219 -0.823567 -0
    outer loop
      vertex -12.0208 -7.07107 58.1
      vertex -13.7533 -5.87785 0
      vertex -12.0208 -7.07107 0
    endloop
  endfacet
  facet normal 0.817629 0.575745 0
    outer loop
      vertex 16.168 3.09017 58.1
      vertex 15.1471 4.5399 0
      vertex 15.1471 4.5399 58.1
    endloop
  endfacet
  facet normal 0.817629 0.575745 0
    outer loop
      vertex 15.1471 4.5399 0
      vertex 16.168 3.09017 58.1
      vertex 16.168 3.09017 0
    endloop
  endfacet
  facet normal 0.925857 0.377873 0
    outer loop
      vertex 16.7907 1.56434 58.1
      vertex 16.168 3.09017 0
      vertex 16.168 3.09017 58.1
    endloop
  endfacet
  facet normal 0.925857 0.377873 0
    outer loop
      vertex 16.168 3.09017 0
      vertex 16.7907 1.56434 58.1
      vertex 16.7907 1.56434 0
    endloop
  endfacet
  facet normal 0.692499 0.721419 -0
    outer loop
      vertex 15.1471 4.5399 0
      vertex 13.7533 5.87785 58.1
      vertex 15.1471 4.5399 58.1
    endloop
  endfacet
  facet normal 0.692499 0.721419 0
    outer loop
      vertex 13.7533 5.87785 58.1
      vertex 15.1471 4.5399 0
      vertex 13.7533 5.87785 0
    endloop
  endfacet
  facet normal 0.236729 0.971576 -0
    outer loop
      vertex 7.71784 8.91006 0
      vertex 5.25329 9.51056 58.1
      vertex 7.71784 8.91006 58.1
    endloop
  endfacet
  facet normal 0.236729 0.971576 0
    outer loop
      vertex 5.25329 9.51056 58.1
      vertex 7.71784 8.91006 0
      vertex 5.25329 9.51056 0
    endloop
  endfacet
  facet normal 0.139835 0.990175 -0
    outer loop
      vertex 5.25329 9.51056 0
      vertex 2.65939 9.87688 58.1
      vertex 5.25329 9.51056 58.1
    endloop
  endfacet
  facet normal 0.139835 0.990175 0
    outer loop
      vertex 2.65939 9.87688 58.1
      vertex 5.25329 9.51056 0
      vertex 2.65939 9.87688 0
    endloop
  endfacet
  facet normal 0.448929 0.893568 -0
    outer loop
      vertex 12.0208 7.07107 0
      vertex 9.99235 8.09017 58.1
      vertex 12.0208 7.07107 58.1
    endloop
  endfacet
  facet normal 0.448929 0.893568 0
    outer loop
      vertex 9.99235 8.09017 58.1
      vertex 12.0208 7.07107 0
      vertex 9.99235 8.09017 0
    endloop
  endfacet
  facet normal -0.692499 0.721419 0
    outer loop
      vertex -13.7533 5.87785 0
      vertex -15.1471 4.5399 58.1
      vertex -13.7533 5.87785 58.1
    endloop
  endfacet
  facet normal -0.692499 0.721419 0
    outer loop
      vertex -15.1471 4.5399 58.1
      vertex -13.7533 5.87785 0
      vertex -15.1471 4.5399 0
    endloop
  endfacet
  facet normal -0.567219 0.823567 0
    outer loop
      vertex -12.0208 7.07107 0
      vertex -13.7533 5.87785 58.1
      vertex -12.0208 7.07107 58.1
    endloop
  endfacet
  facet normal -0.567219 0.823567 0
    outer loop
      vertex -13.7533 5.87785 58.1
      vertex -12.0208 7.07107 0
      vertex -13.7533 5.87785 0
    endloop
  endfacet
  facet normal -0.925857 0.377873 0
    outer loop
      vertex -16.7907 1.56434 0
      vertex -16.168 3.09017 58.1
      vertex -16.168 3.09017 0
    endloop
  endfacet
  facet normal -0.925857 0.377873 0
    outer loop
      vertex -16.168 3.09017 58.1
      vertex -16.7907 1.56434 0
      vertex -16.7907 1.56434 58.1
    endloop
  endfacet
  facet normal -0.339112 0.940746 0
    outer loop
      vertex -7.71784 8.91006 0
      vertex -9.99235 8.09017 58.1
      vertex -7.71784 8.91006 58.1
    endloop
  endfacet
  facet normal -0.339112 0.940746 0
    outer loop
      vertex -9.99235 8.09017 58.1
      vertex -7.71784 8.91006 0
      vertex -9.99235 8.09017 0
    endloop
  endfacet
  facet normal -0.0462459 0.99893 0
    outer loop
      vertex 0 10 0
      vertex -2.65939 9.87688 58.1
      vertex 0 10 58.1
    endloop
  endfacet
  facet normal -0.0462459 0.99893 0
    outer loop
      vertex -2.65939 9.87688 58.1
      vertex 0 10 0
      vertex -2.65939 9.87688 0
    endloop
  endfacet
  facet normal 0.0462459 -0.99893 0
    outer loop
      vertex 0 -10 0
      vertex 2.65939 -9.87688 58.1
      vertex 0 -10 58.1
    endloop
  endfacet
  facet normal 0.0462459 -0.99893 0
    outer loop
      vertex 2.65939 -9.87688 58.1
      vertex 0 -10 0
      vertex 2.65939 -9.87688 0
    endloop
  endfacet
  facet normal 0.991168 -0.132612 0
    outer loop
      vertex 16.7907 -1.56434 58.1
      vertex 17 0 0
      vertex 17 0 58.1
    endloop
  endfacet
  facet normal 0.991168 -0.132612 0
    outer loop
      vertex 17 0 0
      vertex 16.7907 -1.56434 58.1
      vertex 16.7907 -1.56434 0
    endloop
  endfacet
  facet normal -0.448929 -0.893568 0
    outer loop
      vertex -12.0208 -7.07107 0
      vertex -9.99235 -8.09017 58.1
      vertex -12.0208 -7.07107 58.1
    endloop
  endfacet
  facet normal -0.448929 -0.893568 -0
    outer loop
      vertex -9.99235 -8.09017 58.1
      vertex -12.0208 -7.07107 0
      vertex -9.99235 -8.09017 0
    endloop
  endfacet
  facet normal -0.139835 -0.990175 0
    outer loop
      vertex -5.25329 -9.51056 0
      vertex -2.65939 -9.87688 58.1
      vertex -5.25329 -9.51056 58.1
    endloop
  endfacet
  facet normal -0.139835 -0.990175 -0
    outer loop
      vertex -2.65939 -9.87688 58.1
      vertex -5.25329 -9.51056 0
      vertex -2.65939 -9.87688 0
    endloop
  endfacet
  facet normal -0.991168 -0.132612 0
    outer loop
      vertex -16.7907 -1.56434 0
      vertex -17 0 58.1
      vertex -17 0 0
    endloop
  endfacet
  facet normal -0.991168 -0.132612 0
    outer loop
      vertex -17 0 58.1
      vertex -16.7907 -1.56434 0
      vertex -16.7907 -1.56434 58.1
    endloop
  endfacet
  facet normal 0 0 -1
    outer loop
      vertex 16.7907 -1.56434 0
      vertex 16.7907 1.56434 0
      vertex 17 0 0
    endloop
  endfacet
  facet normal 0 0 -1
    outer loop
      vertex 16.168 -3.09017 0
      vertex 16.7907 1.56434 0
      vertex 16.7907 -1.56434 0
    endloop
  endfacet
  facet normal 0 0 -1
    outer loop
      vertex 16.168 -3.09017 0
      vertex 16.168 3.09017 0
      vertex 16.7907 1.56434 0
    endloop
  endfacet
  facet normal 0 0 -1
    outer loop
      vertex 15.1471 -4.5399 0
      vertex 16.168 3.09017 0
      vertex 16.168 -3.09017 0
    endloop
  endfacet
  facet normal 0 0 -1
    outer loop
      vertex 15.1471 -4.5399 0
      vertex 15.1471 4.5399 0
      vertex 16.168 3.09017 0
    endloop
  endfacet
  facet normal 0 0 -1
    outer loop
      vertex 13.7533 -5.87785 0
      vertex 15.1471 4.5399 0
      vertex 15.1471 -4.5399 0
    endloop
  endfacet
  facet normal 0 0 -1
    outer loop
      vertex 13.7533 -5.87785 0
      vertex 13.7533 5.87785 0
      vertex 15.1471 4.5399 0
    endloop
  endfacet
  facet normal 0 0 -1
    outer loop
      vertex 12.0208 -7.07107 0
      vertex 13.7533 5.87785 0
      vertex 13.7533 -5.87785 0
    endloop
  endfacet
  facet normal 0 0 -1
    outer loop
      vertex 12.0208 -7.07107 0
      vertex 12.0208 7.07107 0
      vertex 13.7533 5.87785 0
    endloop
  endfacet
  facet normal 0 0 -1
    outer loop
      vertex 9.99235 -8.09017 0
      vertex 12.0208 7.07107 0
      vertex 12.0208 -7.07107 0
    endloop
  endfacet
  facet normal 0 0 -1
    outer loop
      vertex 9.99235 -8.09017 0
      vertex 9.99235 8.09017 0
      vertex 12.0208 7.07107 0
    endloop
  endfacet
  facet normal 0 0 -1
    outer loop
      vertex 7.71784 -8.91006 0
      vertex 9.99235 8.09017 0
      vertex 9.99235 -8.09017 0
    endloop
  endfacet
  facet normal 0 0 -1
    outer loop
      vertex 7.71784 -8.91006 0
      vertex 7.71784 8.91006 0
      vertex 9.99235 8.09017 0
    endloop
  endfacet
  facet normal 0 0 -1
    outer loop
      vertex 5.25329 -9.51056 0
      vertex 7.71784 8.91006 0
      vertex 7.71784 -8.91006 0
    endloop
  endfacet
  facet normal 0 0 -1
    outer loop
      vertex 5.25329 -9.51056 0
      vertex 5.25329 9.51056 0
      vertex 7.71784 8.91006 0
    endloop
  endfacet
  facet normal 0 0 -1
    outer loop
      vertex 2.65939 -9.87688 0
      vertex 5.25329 9.51056 0
      vertex 5.25329 -9.51056 0
    endloop
  endfacet
  facet normal 0 0 -1
    outer loop
      vertex 2.65939 -9.87688 0
      vertex 2.65939 9.87688 0
      vertex 5.25329 9.51056 0
    endloop
  endfacet
  facet normal 0 0 -1
    outer loop
      vertex 0 -10 0
      vertex 2.65939 9.87688 0
      vertex 2.65939 -9.87688 0
    endloop
  endfacet
  facet normal 0 0 -1
    outer loop
      vertex 0 -10 0
      vertex 0 10 0
      vertex 2.65939 9.87688 0
    endloop
  endfacet
  facet normal 0 0 -1
    outer loop
      vertex -2.65939 -9.87688 0
      vertex 0 10 0
      vertex 0 -10 0
    endloop
  endfacet
  facet normal 0 0 -1
    outer loop
      vertex -2.65939 -9.87688 0
      vertex -2.65939 9.87688 0
      vertex 0 10 0
    endloop
  endfacet
  facet normal 0 0 -1
    outer loop
      vertex -5.25329 -9.51056 0
      vertex -2.65939 9.87688 0
      vertex -2.65939 -9.87688 0
    endloop
  endfacet
  facet normal 0 0 -1
    outer loop
      vertex -5.25329 -9.51056 0
      vertex -5.25329 9.51056 0
      vertex -2.65939 9.87688 0
    endloop
  endfacet
  facet normal 0 0 -1
    outer loop
      vertex -7.71784 -8.91006 0
      vertex -5.25329 9.51056 0
      vertex -5.25329 -9.51056 0
    endloop
  endfacet
  facet normal 0 0 -1
    outer loop
      vertex -7.71784 -8.91006 0
      vertex -7.71784 8.91006 0
      vertex -5.25329 9.51056 0
    endloop
  endfacet
  facet normal 0 0 -1
    outer loop
      vertex -9.99235 -8.09017 0
      vertex -7.71784 8.91006 0
      vertex -7.71784 -8.91006 0
    endloop
  endfacet
  facet normal 0 0 -1
    outer loop
      vertex -9.99235 -8.09017 0
      vertex -9.99235 8.09017 0
      vertex -7.71784 8.91006 0
    endloop
  endfacet
  facet normal 0 0 -1
    outer loop
      vertex -12.0208 -7.07107 0
      vertex -9.99235 8.09017 0
      vertex -9.99235 -8.09017 0
    endloop
  endfacet
  facet normal 0 0 -1
    outer loop
      vertex -12.0208 -7.07107 0
      vertex -12.0208 7.07107 0
      vertex -9.99235 8.09017 0
    endloop
  endfacet
  facet normal 0 0 -1
    outer loop
      vertex -13.7533 -5.87785 0
      vertex -12.0208 7.07107 0
      vertex -12.0208 -7.07107 0
    endloop
  endfacet
  facet normal 0 0 -1
    outer loop
      vertex -13.7533 -5.87785 0
      vertex -13.7533 5.87785 0
      vertex -12.0208 7.07107 0
    endloop
  endfacet
  facet normal 0 0 -1
    outer loop
      vertex -15.1471 -4.5399 0
      vertex -13.7533 5.87785 0
      vertex -13.7533 -5.87785 0
    endloop
  endfacet
  facet normal 0 0 -1
    outer loop
      vertex -15.1471 -4.5399 0
      vertex -15.1471 4.5399 0
      vertex -13.7533 5.87785 0
    endloop
  endfacet
  facet normal 0 0 -1
    outer loop
      vertex -16.168 -3.09017 0
      vertex -15.1471 4.5399 0
      vertex -15.1471 -4.5399 0
    endloop
  endfacet
  facet normal 0 0 -1
    outer loop
      vertex -16.168 -3.09017 0
      vertex -16.168 3.09017 0
      vertex -15.1471 4.5399 0
    endloop
  endfacet
  facet normal 0 0 -1
    outer loop
      vertex -16.7907 -1.56434 0
      vertex -16.168 3.09017 0
      vertex -16.168 -3.09017 0
    endloop
  endfacet
  facet normal 0 0 -1
    outer loop
      vertex -16.7907 -1.56434 0
      vertex -16.7907 1.56434 0
      vertex -16.168 3.09017 0
    endloop
  endfacet
  facet normal 0 -0 -1
    outer loop
      vertex -16.7907 1.56434 0
      vertex -16.7907 -1.56434 0
      vertex -17 0 0
    endloop
  endfacet
  facet normal -0.817629 0.575745 0
    outer loop
      vertex -16.168 3.09017 0
      vertex -15.1471 4.5399 58.1
      vertex -15.1471 4.5399 0
    endloop
  endfacet
  facet normal -0.817629 0.575745 0
    outer loop
      vertex -15.1471 4.5399 58.1
      vertex -16.168 3.09017 0
      vertex -16.168 3.09017 58.1
    endloop
  endfacet
  facet normal -0.236729 0.971576 0
    outer loop
      vertex -5.25329 9.51056 0
      vertex -7.71784 8.91006 58.1
      vertex -5.25329 9.51056 58.1
    endloop
  endfacet
  facet normal -0.236729 0.971576 0
    outer loop
      vertex -7.71784 8.91006 58.1
      vertex -5.25329 9.51056 0
      vertex -7.71784 8.91006 0
    endloop
  endfacet
  facet normal 0.139835 -0.990175 0
    outer loop
      vertex 2.65939 -9.87688 0
      vertex 5.25329 -9.51056 58.1
      vertex 2.65939 -9.87688 58.1
    endloop
  endfacet
  facet normal 0.139835 -0.990175 0
    outer loop
      vertex 5.25329 -9.51056 58.1
      vertex 2.65939 -9.87688 0
      vertex 5.25329 -9.51056 0
    endloop
  endfacet
  facet normal 0.236729 -0.971576 0
    outer loop
      vertex 5.25329 -9.51056 0
      vertex 7.71784 -8.91006 58.1
      vertex 5.25329 -9.51056 58.1
    endloop
  endfacet
  facet normal 0.236729 -0.971576 0
    outer loop
      vertex 7.71784 -8.91006 58.1
      vertex 5.25329 -9.51056 0
      vertex 7.71784 -8.91006 0
    endloop
  endfacet
  facet normal 0.339112 -0.940746 0
    outer loop
      vertex 7.71784 -8.91006 0
      vertex 9.99235 -8.09017 58.1
      vertex 7.71784 -8.91006 58.1
    endloop
  endfacet
  facet normal 0.339112 -0.940746 0
    outer loop
      vertex 9.99235 -8.09017 58.1
      vertex 7.71784 -8.91006 0
      vertex 9.99235 -8.09017 0
    endloop
  endfacet
  facet normal 0.567219 -0.823567 0
    outer loop
      vertex 12.0208 -7.07107 0
      vertex 13.7533 -5.87785 58.1
      vertex 12.0208 -7.07107 58.1
    endloop
  endfacet
  facet normal 0.567219 -0.823567 0
    outer loop
      vertex 13.7533 -5.87785 58.1
      vertex 12.0208 -7.07107 0
      vertex 13.7533 -5.87785 0
    endloop
  endfacet
  facet normal 0.817629 -0.575745 0
    outer loop
      vertex 15.1471 -4.5399 58.1
      vertex 16.168 -3.09017 0
      vertex 16.168 -3.09017 58.1
    endloop
  endfacet
  facet normal 0.817629 -0.575745 0
    outer loop
      vertex 16.168 -3.09017 0
      vertex 15.1471 -4.5399 58.1
      vertex 15.1471 -4.5399 0
    endloop
  endfacet
  facet normal 0.925857 -0.377873 0
    outer loop
      vertex 16.168 -3.09017 58.1
      vertex 16.7907 -1.56434 0
      vertex 16.7907 -1.56434 58.1
    endloop
  endfacet
  facet normal 0.925857 -0.377873 0
    outer loop
      vertex 16.7907 -1.56434 0
      vertex 16.168 -3.09017 58.1
      vertex 16.168 -3.09017 0
    endloop
  endfacet
  facet normal -0.339112 -0.940746 0
    outer loop
      vertex -9.99235 -8.09017 0
      vertex -7.71784 -8.91006 58.1
      vertex -9.99235 -8.09017 58.1
    endloop
  endfacet
  facet normal -0.339112 -0.940746 -0
    outer loop
      vertex -7.71784 -8.91006 58.1
      vertex -9.99235 -8.09017 0
      vertex -7.71784 -8.91006 0
    endloop
  endfacet
  facet normal -0.236729 -0.971576 0
    outer loop
      vertex -7.71784 -8.91006 0
      vertex -5.25329 -9.51056 58.1
      vertex -7.71784 -8.91006 58.1
    endloop
  endfacet
  facet normal -0.236729 -0.971576 -0
    outer loop
      vertex -5.25329 -9.51056 58.1
      vertex -7.71784 -8.91006 0
      vertex -5.25329 -9.51056 0
    endloop
  endfacet
  facet normal -0.0462459 -0.99893 0
    outer loop
      vertex -2.65939 -9.87688 0
      vertex 0 -10 58.1
      vertex -2.65939 -9.87688 58.1
    endloop
  endfacet
  facet normal -0.0462459 -0.99893 -0
    outer loop
      vertex 0 -10 58.1
      vertex -2.65939 -9.87688 0
      vertex 0 -10 0
    endloop
  endfacet
  facet normal -0.817629 -0.575745 0
    outer loop
      vertex -15.1471 -4.5399 0
      vertex -16.168 -3.09017 58.1
      vertex -16.168 -3.09017 0
    endloop
  endfacet
  facet normal -0.817629 -0.575745 0
    outer loop
      vertex -16.168 -3.09017 58.1
      vertex -15.1471 -4.5399 0
      vertex -15.1471 -4.5399 58.1
    endloop
  endfacet
  facet normal -0.925857 -0.377873 0
    outer loop
      vertex -16.168 -3.09017 0
      vertex -16.7907 -1.56434 58.1
      vertex -16.7907 -1.56434 0
    endloop
  endfacet
  facet normal -0.925857 -0.377873 0
    outer loop
      vertex -16.7907 -1.56434 58.1
      vertex -16.168 -3.09017 0
      vertex -16.168 -3.09017 58.1
    endloop
  endfacet
  facet normal 0.339112 0.940746 -0
    outer loop
      vertex 9.99235 8.09017 0
      vertex 7.71784 8.91006 58.1
      vertex 9.99235 8.09017 58.1
    endloop
  endfacet
  facet normal 0.339112 0.940746 0
    outer loop
      vertex 7.71784 8.91006 58.1
      vertex 9.99235 8.09017 0
      vertex 7.71784 8.91006 0
    endloop
  endfacet
  facet normal 0.692499 -0.721419 0
    outer loop
      vertex 13.7533 -5.87785 0
      vertex 15.1471 -4.5399 58.1
      vertex 13.7533 -5.87785 58.1
    endloop
  endfacet
  facet normal 0.692499 -0.721419 0
    outer loop
      vertex 15.1471 -4.5399 58.1
      vertex 13.7533 -5.87785 0
      vertex 15.1471 -4.5399 0
    endloop
  endfacet
  facet normal -0.692499 -0.721419 0
    outer loop
      vertex -15.1471 -4.5399 0
      vertex -13.7533 -5.87785 58.1
      vertex -15.1471 -4.5399 58.1
    endloop
  endfacet
  facet normal -0.692499 -0.721419 -0
    outer loop
      vertex -13.7533 -5.87785 58.1
      vertex -15.1471 -4.5399 0
      vertex -13.7533 -5.87785 0
    endloop
  endfacet
  facet normal 0.337866 -0.551347 0.762799
    outer loop
      vertex 1.76336 -2.42705 66
      vertex 1.36197 -2.67302 66
      vertex 12.0208 -7.07107 58.1
    endloop
  endfacet
  facet normal -0.0584873 -0.743135 0.666581
    outer loop
      vertex -0.469303 -2.96306 66
      vertex -2.65939 -9.87688 58.1
      vertex 0 -3 66
    endloop
  endfacet
  facet normal 0.476927 0.19465 0.857118
    outer loop
      vertex 16.168 3.09017 58.1
      vertex 2.85317 0.927051 66
      vertex 16.7907 1.56434 58.1
    endloop
  endfacet
  facet normal -0.0584873 0.743135 0.666581
    outer loop
      vertex 0 3 66
      vertex -2.65939 9.87688 58.1
      vertex -0.469303 2.96306 66
    endloop
  endfacet
  facet normal 0.476927 -0.19465 0.857118
    outer loop
      vertex 16.7907 -1.56434 58.1
      vertex 2.85317 -0.927051 66
      vertex 16.168 -3.09017 58.1
    endloop
  endfacet
  facet normal 0.263711 -0.636655 0.724656
    outer loop
      vertex 1.36197 -2.67302 66
      vertex 0.927051 -2.85317 66
      vertex 9.99235 -8.09017 58.1
    endloop
  endfacet
  facet normal -0.449621 -0.316607 0.835225
    outer loop
      vertex -2.42705 -1.76336 66
      vertex -16.168 -3.09017 58.1
      vertex -15.1471 -4.5399 58.1
    endloop
  endfacet
  facet normal 0.0346292 -0.748005 0.662789
    outer loop
      vertex 0 -3 66
      vertex 0 -10 58.1
      vertex 2.65939 -9.87688 58.1
    endloop
  endfacet
  facet normal 0.409706 0.426816 0.806207
    outer loop
      vertex 13.7533 5.87785 58.1
      vertex 2.12132 2.12132 66
      vertex 15.1471 4.5399 58.1
    endloop
  endfacet
  facet normal 0.169478 0.705932 0.687705
    outer loop
      vertex 5.25329 9.51056 58.1
      vertex 0.469303 2.96306 66
      vertex 0.927051 2.85317 66
    endloop
  endfacet
  facet normal 0.491068 -0.0657017 0.86864
    outer loop
      vertex 17 0 58.1
      vertex 2.96306 -0.469303 66
      vertex 16.7907 -1.56434 58.1
    endloop
  endfacet
  facet normal 0.476332 0.197303 0.856842
    outer loop
      vertex 16.168 3.09017 58.1
      vertex 2.67302 1.36197 66
      vertex 2.85317 0.927051 66
    endloop
  endfacet
  facet normal -0.491075 -0.0386493 0.870259
    outer loop
      vertex -3 0 66
      vertex -17 0 58.1
      vertex -2.96306 -0.469303 66
    endloop
  endfacet
  facet normal 0.169478 -0.705932 0.687705
    outer loop
      vertex 0.927051 -2.85317 66
      vertex 0.469303 -2.96306 66
      vertex 5.25329 -9.51056 58.1
    endloop
  endfacet
  facet normal -0.491068 -0.0657017 0.86864
    outer loop
      vertex -2.96306 -0.469303 66
      vertex -17 0 58.1
      vertex -16.7907 -1.56434 58.1
    endloop
  endfacet
  facet normal 0.171766 -0.704957 0.688137
    outer loop
      vertex 7.71784 -8.91006 58.1
      vertex 0.927051 -2.85317 66
      vertex 5.25329 -9.51056 58.1
    endloop
  endfacet
  facet normal 0.238263 -0.660976 0.711577
    outer loop
      vertex 9.99235 -8.09017 58.1
      vertex 0.927051 -2.85317 66
      vertex 7.71784 -8.91006 58.1
    endloop
  endfacet
  facet normal -0.409706 -0.426816 0.806207
    outer loop
      vertex -2.12132 -2.12132 66
      vertex -15.1471 -4.5399 58.1
      vertex -13.7533 -5.87785 58.1
    endloop
  endfacet
  facet normal 0.301507 0.600132 0.740901
    outer loop
      vertex 9.99235 8.09017 58.1
      vertex 1.36197 2.67302 66
      vertex 12.0208 7.07107 58.1
    endloop
  endfacet
  facet normal -0.171766 0.704957 0.688137
    outer loop
      vertex -5.25329 9.51056 58.1
      vertex -7.71784 8.91006 58.1
      vertex -0.927051 2.85317 66
    endloop
  endfacet
  facet normal -0.238263 0.660976 0.711577
    outer loop
      vertex -7.71784 8.91006 58.1
      vertex -9.99235 8.09017 58.1
      vertex -0.927051 2.85317 66
    endloop
  endfacet
  facet normal 0.491075 -0.0386493 0.870259
    outer loop
      vertex 3 0 66
      vertex 2.96306 -0.469303 66
      vertex 17 0 58.1
    endloop
  endfacet
  facet normal 0.457892 -0.280597 0.843564
    outer loop
      vertex 2.67302 -1.36197 66
      vertex 2.42705 -1.76336 66
      vertex 16.168 -3.09017 58.1
    endloop
  endfacet
  facet normal -0.301507 0.600132 0.740901
    outer loop
      vertex -9.99235 8.09017 58.1
      vertex -12.0208 7.07107 58.1
      vertex -1.36197 2.67302 66
    endloop
  endfacet
  facet normal -0.476927 0.19465 0.857118
    outer loop
      vertex -16.168 3.09017 58.1
      vertex -16.7907 1.56434 58.1
      vertex -2.85317 0.927051 66
    endloop
  endfacet
  facet normal 0.392584 -0.459657 0.796613
    outer loop
      vertex 2.12132 -2.12132 66
      vertex 1.76336 -2.42705 66
      vertex 13.7533 -5.87785 58.1
    endloop
  endfacet
  facet normal 0.301507 -0.600132 0.740901
    outer loop
      vertex 12.0208 -7.07107 58.1
      vertex 1.36197 -2.67302 66
      vertex 9.99235 -8.09017 58.1
    endloop
  endfacet
  facet normal -0.485706 -0.116607 0.86631
    outer loop
      vertex -2.96306 -0.469303 66
      vertex -16.7907 -1.56434 58.1
      vertex -2.85317 -0.927051 66
    endloop
  endfacet
  facet normal -0.457892 -0.280597 0.843564
    outer loop
      vertex -2.67302 -1.36197 66
      vertex -16.168 -3.09017 58.1
      vertex -2.42705 -1.76336 66
    endloop
  endfacet
  facet normal -0.0346292 -0.748005 0.662789
    outer loop
      vertex 0 -3 66
      vertex -2.65939 -9.87688 58.1
      vertex 0 -10 58.1
    endloop
  endfacet
  facet normal 0.0584873 -0.743135 0.666581
    outer loop
      vertex 0.469303 -2.96306 66
      vertex 0 -3 66
      vertex 2.65939 -9.87688 58.1
    endloop
  endfacet
  facet normal 0.103663 -0.734041 0.671146
    outer loop
      vertex 5.25329 -9.51056 58.1
      vertex 0.469303 -2.96306 66
      vertex 2.65939 -9.87688 58.1
    endloop
  endfacet
  facet normal -0.103663 -0.734041 0.671146
    outer loop
      vertex -0.469303 -2.96306 66
      vertex -5.25329 -9.51056 58.1
      vertex -2.65939 -9.87688 58.1
    endloop
  endfacet
  facet normal -0.301507 -0.600132 0.740901
    outer loop
      vertex -1.36197 -2.67302 66
      vertex -12.0208 -7.07107 58.1
      vertex -9.99235 -8.09017 58.1
    endloop
  endfacet
  facet normal -0.238263 -0.660976 0.711577
    outer loop
      vertex -0.927051 -2.85317 66
      vertex -9.99235 -8.09017 58.1
      vertex -7.71784 -8.91006 58.1
    endloop
  endfacet
  facet normal 0.431181 0.368264 0.82369
    outer loop
      vertex 15.1471 4.5399 58.1
      vertex 2.12132 2.12132 66
      vertex 2.42705 1.76336 66
    endloop
  endfacet
  facet normal 0.0346292 0.748005 0.662789
    outer loop
      vertex 0 10 58.1
      vertex 0 3 66
      vertex 2.65939 9.87688 58.1
    endloop
  endfacet
  facet normal -0.103663 0.734041 0.671146
    outer loop
      vertex -2.65939 9.87688 58.1
      vertex -5.25329 9.51056 58.1
      vertex -0.469303 2.96306 66
    endloop
  endfacet
  facet normal -0.359467 0.521924 0.77355
    outer loop
      vertex -12.0208 7.07107 58.1
      vertex -13.7533 5.87785 58.1
      vertex -1.76336 2.42705 66
    endloop
  endfacet
  facet normal -0.392584 0.459657 0.796613
    outer loop
      vertex -1.76336 2.42705 66
      vertex -13.7533 5.87785 58.1
      vertex -2.12132 2.12132 66
    endloop
  endfacet
  facet normal 0.491075 0.0386493 0.870259
    outer loop
      vertex 17 0 58.1
      vertex 2.96306 0.469303 66
      vertex 3 0 66
    endloop
  endfacet
  facet normal 0.359467 -0.521924 0.77355
    outer loop
      vertex 13.7533 -5.87785 58.1
      vertex 1.76336 -2.42705 66
      vertex 12.0208 -7.07107 58.1
    endloop
  endfacet
  facet normal 0.485706 -0.116607 0.86631
    outer loop
      vertex 2.96306 -0.469303 66
      vertex 2.85317 -0.927051 66
      vertex 16.7907 -1.56434 58.1
    endloop
  endfacet
  facet normal -0.431181 0.368264 0.82369
    outer loop
      vertex -2.12132 2.12132 66
      vertex -15.1471 4.5399 58.1
      vertex -2.42705 1.76336 66
    endloop
  endfacet
  facet normal -0.409706 0.426816 0.806207
    outer loop
      vertex -13.7533 5.87785 58.1
      vertex -15.1471 4.5399 58.1
      vertex -2.12132 2.12132 66
    endloop
  endfacet
  facet normal -0.491075 0.0386493 0.870259
    outer loop
      vertex -2.96306 0.469303 66
      vertex -17 0 58.1
      vertex -3 0 66
    endloop
  endfacet
  facet normal 0 0 1
    outer loop
      vertex 2.5 0 66
      vertex 3 0 66
      vertex 2.96306 0.469303 66
    endloop
  endfacet
  facet normal 0 0 1
    outer loop
      vertex 2.46922 0.391086 66
      vertex 2.96306 0.469303 66
      vertex 2.85317 0.927051 66
    endloop
  endfacet
  facet normal 0 0 1
    outer loop
      vertex 3 0 66
      vertex 2.5 0 66
      vertex 2.96306 -0.469303 66
    endloop
  endfacet
  facet normal 0 0 1
    outer loop
      vertex 2.37764 0.772542 66
      vertex 2.85317 0.927051 66
      vertex 2.67302 1.36197 66
    endloop
  endfacet
  facet normal -0 0 1
    outer loop
      vertex 2.46922 -0.391086 66
      vertex 2.96306 -0.469303 66
      vertex 2.5 0 66
    endloop
  endfacet
  facet normal 0 0 1
    outer loop
      vertex 2.96306 -0.469303 66
      vertex 2.46922 -0.391086 66
      vertex 2.85317 -0.927051 66
    endloop
  endfacet
  facet normal 0 0 1
    outer loop
      vertex 2.96306 0.469303 66
      vertex 2.46922 0.391086 66
      vertex 2.5 0 66
    endloop
  endfacet
  facet normal 0 0 1
    outer loop
      vertex 2.22752 1.13498 66
      vertex 2.67302 1.36197 66
      vertex 2.42705 1.76336 66
    endloop
  endfacet
  facet normal 0 0 1
    outer loop
      vertex 2.85317 0.927051 66
      vertex 2.37764 0.772542 66
      vertex 2.46922 0.391086 66
    endloop
  endfacet
  facet normal 0 0 1
    outer loop
      vertex 2.67302 1.36197 66
      vertex 2.22752 1.13498 66
      vertex 2.37764 0.772542 66
    endloop
  endfacet
  facet normal 0 0 1
    outer loop
      vertex 2.02254 1.46946 66
      vertex 2.42705 1.76336 66
      vertex 2.12132 2.12132 66
    endloop
  endfacet
  facet normal 0 0 1
    outer loop
      vertex 2.42705 1.76336 66
      vertex 2.02254 1.46946 66
      vertex 2.22752 1.13498 66
    endloop
  endfacet
  facet normal 0 0 1
    outer loop
      vertex 2.12132 2.12132 66
      vertex 1.76777 1.76777 66
      vertex 2.02254 1.46946 66
    endloop
  endfacet
  facet normal 0 0 1
    outer loop
      vertex 1.76336 2.42705 66
      vertex 1.76777 1.76777 66
      vertex 2.12132 2.12132 66
    endloop
  endfacet
  facet normal 0 0 1
    outer loop
      vertex 1.76336 2.42705 66
      vertex 1.46946 2.02254 66
      vertex 1.76777 1.76777 66
    endloop
  endfacet
  facet normal 0 0 1
    outer loop
      vertex 1.36197 2.67302 66
      vertex 1.46946 2.02254 66
      vertex 1.76336 2.42705 66
    endloop
  endfacet
  facet normal 0 0 1
    outer loop
      vertex 1.36197 2.67302 66
      vertex 1.13498 2.22752 66
      vertex 1.46946 2.02254 66
    endloop
  endfacet
  facet normal 0 0 1
    outer loop
      vertex 0.927051 2.85317 66
      vertex 1.13498 2.22752 66
      vertex 1.36197 2.67302 66
    endloop
  endfacet
  facet normal 0 0 1
    outer loop
      vertex 0.927051 2.85317 66
      vertex 0.772542 2.37764 66
      vertex 1.13498 2.22752 66
    endloop
  endfacet
  facet normal 0 0 1
    outer loop
      vertex 0.469303 2.96306 66
      vertex 0.772542 2.37764 66
      vertex 0.927051 2.85317 66
    endloop
  endfacet
  facet normal 0 0 1
    outer loop
      vertex 0.469303 2.96306 66
      vertex 0.391086 2.46922 66
      vertex 0.772542 2.37764 66
    endloop
  endfacet
  facet normal 0 0 1
    outer loop
      vertex 0 3 66
      vertex 0.391086 2.46922 66
      vertex 0.469303 2.96306 66
    endloop
  endfacet
  facet normal 0 0 1
    outer loop
      vertex 0 3 66
      vertex 0 2.5 66
      vertex 0.391086 2.46922 66
    endloop
  endfacet
  facet normal 0 0 1
    outer loop
      vertex 0 3 66
      vertex -0.391086 2.46922 66
      vertex 0 2.5 66
    endloop
  endfacet
  facet normal -0 0 1
    outer loop
      vertex -0.469303 2.96306 66
      vertex -0.391086 2.46922 66
      vertex 0 3 66
    endloop
  endfacet
  facet normal 0 0 1
    outer loop
      vertex -0.469303 2.96306 66
      vertex -0.772542 2.37764 66
      vertex -0.391086 2.46922 66
    endloop
  endfacet
  facet normal -0 0 1
    outer loop
      vertex -0.927051 2.85317 66
      vertex -0.772542 2.37764 66
      vertex -0.469303 2.96306 66
    endloop
  endfacet
  facet normal 0 0 1
    outer loop
      vertex -0.927051 2.85317 66
      vertex -1.13498 2.22752 66
      vertex -0.772542 2.37764 66
    endloop
  endfacet
  facet normal -0 0 1
    outer loop
      vertex -1.36197 2.67302 66
      vertex -1.13498 2.22752 66
      vertex -0.927051 2.85317 66
    endloop
  endfacet
  facet normal 0 0 1
    outer loop
      vertex -1.36197 2.67302 66
      vertex -1.46946 2.02254 66
      vertex -1.13498 2.22752 66
    endloop
  endfacet
  facet normal -0 0 1
    outer loop
      vertex -1.76336 2.42705 66
      vertex -1.46946 2.02254 66
      vertex -1.36197 2.67302 66
    endloop
  endfacet
  facet normal 0 0 1
    outer loop
      vertex -1.76336 2.42705 66
      vertex -1.76777 1.76777 66
      vertex -1.46946 2.02254 66
    endloop
  endfacet
  facet normal -0 0 1
    outer loop
      vertex -2.12132 2.12132 66
      vertex -1.76777 1.76777 66
      vertex -1.76336 2.42705 66
    endloop
  endfacet
  facet normal 0 0 1
    outer loop
      vertex -1.76777 1.76777 66
      vertex -2.12132 2.12132 66
      vertex -2.02254 1.46946 66
    endloop
  endfacet
  facet normal -0 0 1
    outer loop
      vertex -2.42705 1.76336 66
      vertex -2.02254 1.46946 66
      vertex -2.12132 2.12132 66
    endloop
  endfacet
  facet normal 0 0 1
    outer loop
      vertex -2.02254 1.46946 66
      vertex -2.42705 1.76336 66
      vertex -2.22752 1.13498 66
    endloop
  endfacet
  facet normal -0 0 1
    outer loop
      vertex -2.67302 1.36197 66
      vertex -2.22752 1.13498 66
      vertex -2.42705 1.76336 66
    endloop
  endfacet
  facet normal 0 0 1
    outer loop
      vertex -2.22752 1.13498 66
      vertex -2.67302 1.36197 66
      vertex -2.37764 0.772542 66
    endloop
  endfacet
  facet normal -0 0 1
    outer loop
      vertex -2.85317 0.927051 66
      vertex -2.37764 0.772542 66
      vertex -2.67302 1.36197 66
    endloop
  endfacet
  facet normal 0 0 1
    outer loop
      vertex -2.37764 0.772542 66
      vertex -2.85317 0.927051 66
      vertex -2.46922 0.391086 66
    endloop
  endfacet
  facet normal -0 0 1
    outer loop
      vertex 2.37764 -0.772542 66
      vertex 2.85317 -0.927051 66
      vertex 2.46922 -0.391086 66
    endloop
  endfacet
  facet normal 0 0 1
    outer loop
      vertex 2.85317 -0.927051 66
      vertex 2.37764 -0.772542 66
      vertex 2.67302 -1.36197 66
    endloop
  endfacet
  facet normal -0 0 1
    outer loop
      vertex 2.22752 -1.13498 66
      vertex 2.67302 -1.36197 66
      vertex 2.37764 -0.772542 66
    endloop
  endfacet
  facet normal 0 0 1
    outer loop
      vertex 2.67302 -1.36197 66
      vertex 2.22752 -1.13498 66
      vertex 2.42705 -1.76336 66
    endloop
  endfacet
  facet normal -0 0 1
    outer loop
      vertex 2.02254 -1.46946 66
      vertex 2.42705 -1.76336 66
      vertex 2.22752 -1.13498 66
    endloop
  endfacet
  facet normal 0 0 1
    outer loop
      vertex 2.42705 -1.76336 66
      vertex 2.02254 -1.46946 66
      vertex 2.12132 -2.12132 66
    endloop
  endfacet
  facet normal -0 0 1
    outer loop
      vertex 1.76777 -1.76777 66
      vertex 2.12132 -2.12132 66
      vertex 2.02254 -1.46946 66
    endloop
  endfacet
  facet normal 0 0 1
    outer loop
      vertex 1.76777 -1.76777 66
      vertex 1.76336 -2.42705 66
      vertex 2.12132 -2.12132 66
    endloop
  endfacet
  facet normal -0 0 1
    outer loop
      vertex 1.46946 -2.02254 66
      vertex 1.76336 -2.42705 66
      vertex 1.76777 -1.76777 66
    endloop
  endfacet
  facet normal 0 0 1
    outer loop
      vertex 1.46946 -2.02254 66
      vertex 1.36197 -2.67302 66
      vertex 1.76336 -2.42705 66
    endloop
  endfacet
  facet normal -0 0 1
    outer loop
      vertex 1.13498 -2.22752 66
      vertex 1.36197 -2.67302 66
      vertex 1.46946 -2.02254 66
    endloop
  endfacet
  facet normal 0 0 1
    outer loop
      vertex 1.13498 -2.22752 66
      vertex 0.927051 -2.85317 66
      vertex 1.36197 -2.67302 66
    endloop
  endfacet
  facet normal -0 0 1
    outer loop
      vertex 0.772542 -2.37764 66
      vertex 0.927051 -2.85317 66
      vertex 1.13498 -2.22752 66
    endloop
  endfacet
  facet normal 0 0 1
    outer loop
      vertex 0.772542 -2.37764 66
      vertex 0.469303 -2.96306 66
      vertex 0.927051 -2.85317 66
    endloop
  endfacet
  facet normal -0 0 1
    outer loop
      vertex 0.391086 -2.46922 66
      vertex 0.469303 -2.96306 66
      vertex 0.772542 -2.37764 66
    endloop
  endfacet
  facet normal -0 0 1
    outer loop
      vertex 0 -2.5 66
      vertex 0.469303 -2.96306 66
      vertex 0.391086 -2.46922 66
    endloop
  endfacet
  facet normal 0 0 1
    outer loop
      vertex 0 -2.5 66
      vertex 0 -3 66
      vertex 0.469303 -2.96306 66
    endloop
  endfacet
  facet normal 0 0 1
    outer loop
      vertex -0.391086 -2.46922 66
      vertex 0 -3 66
      vertex 0 -2.5 66
    endloop
  endfacet
  facet normal 0 0 1
    outer loop
      vertex -0.391086 -2.46922 66
      vertex -0.469303 -2.96306 66
      vertex 0 -3 66
    endloop
  endfacet
  facet normal 0 0 1
    outer loop
      vertex -0.772542 -2.37764 66
      vertex -0.469303 -2.96306 66
      vertex -0.391086 -2.46922 66
    endloop
  endfacet
  facet normal 0 0 1
    outer loop
      vertex -0.772542 -2.37764 66
      vertex -0.927051 -2.85317 66
      vertex -0.469303 -2.96306 66
    endloop
  endfacet
  facet normal 0 0 1
    outer loop
      vertex -1.13498 -2.22752 66
      vertex -0.927051 -2.85317 66
      vertex -0.772542 -2.37764 66
    endloop
  endfacet
  facet normal 0 0 1
    outer loop
      vertex -1.13498 -2.22752 66
      vertex -1.36197 -2.67302 66
      vertex -0.927051 -2.85317 66
    endloop
  endfacet
  facet normal 0 0 1
    outer loop
      vertex -1.46946 -2.02254 66
      vertex -1.36197 -2.67302 66
      vertex -1.13498 -2.22752 66
    endloop
  endfacet
  facet normal 0 0 1
    outer loop
      vertex -1.46946 -2.02254 66
      vertex -1.76336 -2.42705 66
      vertex -1.36197 -2.67302 66
    endloop
  endfacet
  facet normal 0 0 1
    outer loop
      vertex -1.76777 -1.76777 66
      vertex -1.76336 -2.42705 66
      vertex -1.46946 -2.02254 66
    endloop
  endfacet
  facet normal 0 0 1
    outer loop
      vertex -2.12132 -2.12132 66
      vertex -1.76777 -1.76777 66
      vertex -2.02254 -1.46946 66
    endloop
  endfacet
  facet normal 0 0 1
    outer loop
      vertex -1.76777 -1.76777 66
      vertex -2.12132 -2.12132 66
      vertex -1.76336 -2.42705 66
    endloop
  endfacet
  facet normal 0 0 1
    outer loop
      vertex -2.42705 -1.76336 66
      vertex -2.02254 -1.46946 66
      vertex -2.22752 -1.13498 66
    endloop
  endfacet
  facet normal 0 0 1
    outer loop
      vertex -2.67302 -1.36197 66
      vertex -2.22752 -1.13498 66
      vertex -2.37764 -0.772542 66
    endloop
  endfacet
  facet normal 0 0 1
    outer loop
      vertex -2.02254 -1.46946 66
      vertex -2.42705 -1.76336 66
      vertex -2.12132 -2.12132 66
    endloop
  endfacet
  facet normal 0 0 1
    outer loop
      vertex -2.85317 -0.927051 66
      vertex -2.37764 -0.772542 66
      vertex -2.46922 -0.391086 66
    endloop
  endfacet
  facet normal 0 0 1
    outer loop
      vertex -2.96306 -0.469303 66
      vertex -2.46922 -0.391086 66
      vertex -2.5 0 66
    endloop
  endfacet
  facet normal -0 0 1
    outer loop
      vertex -2.96306 0.469303 66
      vertex -2.46922 0.391086 66
      vertex -2.85317 0.927051 66
    endloop
  endfacet
  facet normal 0 0 1
    outer loop
      vertex -2.22752 -1.13498 66
      vertex -2.67302 -1.36197 66
      vertex -2.42705 -1.76336 66
    endloop
  endfacet
  facet normal 0 0 1
    outer loop
      vertex -2.46922 0.391086 66
      vertex -2.96306 0.469303 66
      vertex -2.5 0 66
    endloop
  endfacet
  facet normal 0 0 1
    outer loop
      vertex -2.37764 -0.772542 66
      vertex -2.85317 -0.927051 66
      vertex -2.67302 -1.36197 66
    endloop
  endfacet
  facet normal 0 0 1
    outer loop
      vertex -3 0 66
      vertex -2.5 0 66
      vertex -2.96306 0.469303 66
    endloop
  endfacet
  facet normal 0 0 1
    outer loop
      vertex -2.46922 -0.391086 66
      vertex -2.96306 -0.469303 66
      vertex -2.85317 -0.927051 66
    endloop
  endfacet
  facet normal 0 0 1
    outer loop
      vertex -2.5 0 66
      vertex -3 0 66
      vertex -2.96306 -0.469303 66
    endloop
  endfacet
  facet normal -0.449621 0.316607 0.835225
    outer loop
      vertex -15.1471 4.5399 58.1
      vertex -16.168 3.09017 58.1
      vertex -2.42705 1.76336 66
    endloop
  endfacet
  facet normal 0.449621 -0.316607 0.835225
    outer loop
      vertex 16.168 -3.09017 58.1
      vertex 2.42705 -1.76336 66
      vertex 15.1471 -4.5399 58.1
    endloop
  endfacet
  facet normal -0.359467 -0.521924 0.77355
    outer loop
      vertex -1.76336 -2.42705 66
      vertex -13.7533 -5.87785 58.1
      vertex -12.0208 -7.07107 58.1
    endloop
  endfacet
  facet normal -0.337866 -0.551347 0.762799
    outer loop
      vertex -1.76336 -2.42705 66
      vertex -12.0208 -7.07107 58.1
      vertex -1.36197 -2.67302 66
    endloop
  endfacet
  facet normal -0.476927 -0.19465 0.857118
    outer loop
      vertex -2.85317 -0.927051 66
      vertex -16.7907 -1.56434 58.1
      vertex -16.168 -3.09017 58.1
    endloop
  endfacet
  facet normal -0.476332 -0.197303 0.856842
    outer loop
      vertex -2.85317 -0.927051 66
      vertex -16.168 -3.09017 58.1
      vertex -2.67302 -1.36197 66
    endloop
  endfacet
  facet normal -0.171766 -0.704957 0.688137
    outer loop
      vertex -0.927051 -2.85317 66
      vertex -7.71784 -8.91006 58.1
      vertex -5.25329 -9.51056 58.1
    endloop
  endfacet
  facet normal -0.169478 -0.705932 0.687705
    outer loop
      vertex -0.927051 -2.85317 66
      vertex -5.25329 -9.51056 58.1
      vertex -0.469303 -2.96306 66
    endloop
  endfacet
  facet normal 0.171766 0.704957 0.688137
    outer loop
      vertex 5.25329 9.51056 58.1
      vertex 0.927051 2.85317 66
      vertex 7.71784 8.91006 58.1
    endloop
  endfacet
  facet normal 0.392584 0.459657 0.796613
    outer loop
      vertex 13.7533 5.87785 58.1
      vertex 1.76336 2.42705 66
      vertex 2.12132 2.12132 66
    endloop
  endfacet
  facet normal 0.359467 0.521924 0.77355
    outer loop
      vertex 12.0208 7.07107 58.1
      vertex 1.76336 2.42705 66
      vertex 13.7533 5.87785 58.1
    endloop
  endfacet
  facet normal -0.0346292 0.748005 0.662789
    outer loop
      vertex 0 10 58.1
      vertex -2.65939 9.87688 58.1
      vertex 0 3 66
    endloop
  endfacet
  facet normal -0.337866 0.551347 0.762799
    outer loop
      vertex -1.36197 2.67302 66
      vertex -12.0208 7.07107 58.1
      vertex -1.76336 2.42705 66
    endloop
  endfacet
  facet normal 0.457892 0.280597 0.843564
    outer loop
      vertex 16.168 3.09017 58.1
      vertex 2.42705 1.76336 66
      vertex 2.67302 1.36197 66
    endloop
  endfacet
  facet normal 0.449621 0.316607 0.835225
    outer loop
      vertex 15.1471 4.5399 58.1
      vertex 2.42705 1.76336 66
      vertex 16.168 3.09017 58.1
    endloop
  endfacet
  facet normal 0.491068 0.0657017 0.86864
    outer loop
      vertex 16.7907 1.56434 58.1
      vertex 2.96306 0.469303 66
      vertex 17 0 58.1
    endloop
  endfacet
  facet normal 0.485706 0.116607 0.86631
    outer loop
      vertex 16.7907 1.56434 58.1
      vertex 2.85317 0.927051 66
      vertex 2.96306 0.469303 66
    endloop
  endfacet
  facet normal 0.476332 -0.197303 0.856842
    outer loop
      vertex 2.85317 -0.927051 66
      vertex 2.67302 -1.36197 66
      vertex 16.168 -3.09017 58.1
    endloop
  endfacet
  facet normal -0.485706 0.116607 0.86631
    outer loop
      vertex -2.85317 0.927051 66
      vertex -16.7907 1.56434 58.1
      vertex -2.96306 0.469303 66
    endloop
  endfacet
  facet normal -0.491068 0.0657017 0.86864
    outer loop
      vertex -16.7907 1.56434 58.1
      vertex -17 0 58.1
      vertex -2.96306 0.469303 66
    endloop
  endfacet
  facet normal -0.457892 0.280597 0.843564
    outer loop
      vertex -2.42705 1.76336 66
      vertex -16.168 3.09017 58.1
      vertex -2.67302 1.36197 66
    endloop
  endfacet
  facet normal -0.476332 0.197303 0.856842
    outer loop
      vertex -2.67302 1.36197 66
      vertex -16.168 3.09017 58.1
      vertex -2.85317 0.927051 66
    endloop
  endfacet
  facet normal 0.409706 -0.426816 0.806207
    outer loop
      vertex 15.1471 -4.5399 58.1
      vertex 2.12132 -2.12132 66
      vertex 13.7533 -5.87785 58.1
    endloop
  endfacet
  facet normal 0.431181 -0.368264 0.82369
    outer loop
      vertex 2.42705 -1.76336 66
      vertex 2.12132 -2.12132 66
      vertex 15.1471 -4.5399 58.1
    endloop
  endfacet
  facet normal -0.392584 -0.459657 0.796613
    outer loop
      vertex -2.12132 -2.12132 66
      vertex -13.7533 -5.87785 58.1
      vertex -1.76336 -2.42705 66
    endloop
  endfacet
  facet normal -0.263711 -0.636655 0.724656
    outer loop
      vertex -1.36197 -2.67302 66
      vertex -9.99235 -8.09017 58.1
      vertex -0.927051 -2.85317 66
    endloop
  endfacet
  facet normal -0.169478 0.705932 0.687705
    outer loop
      vertex -0.469303 2.96306 66
      vertex -5.25329 9.51056 58.1
      vertex -0.927051 2.85317 66
    endloop
  endfacet
  facet normal -0.263711 0.636655 0.724656
    outer loop
      vertex -0.927051 2.85317 66
      vertex -9.99235 8.09017 58.1
      vertex -1.36197 2.67302 66
    endloop
  endfacet
  facet normal -0.431181 -0.368264 0.82369
    outer loop
      vertex -2.42705 -1.76336 66
      vertex -15.1471 -4.5399 58.1
      vertex -2.12132 -2.12132 66
    endloop
  endfacet
  facet normal 0.263711 0.636655 0.724656
    outer loop
      vertex 9.99235 8.09017 58.1
      vertex 0.927051 2.85317 66
      vertex 1.36197 2.67302 66
    endloop
  endfacet
  facet normal 0.337866 0.551347 0.762799
    outer loop
      vertex 12.0208 7.07107 58.1
      vertex 1.36197 2.67302 66
      vertex 1.76336 2.42705 66
    endloop
  endfacet
  facet normal 0.238263 0.660976 0.711577
    outer loop
      vertex 7.71784 8.91006 58.1
      vertex 0.927051 2.85317 66
      vertex 9.99235 8.09017 58.1
    endloop
  endfacet
  facet normal 0.103663 0.734041 0.671146
    outer loop
      vertex 2.65939 9.87688 58.1
      vertex 0.469303 2.96306 66
      vertex 5.25329 9.51056 58.1
    endloop
  endfacet
  facet normal 0.0584873 0.743135 0.666581
    outer loop
      vertex 2.65939 9.87688 58.1
      vertex 0 3 66
      vertex 0.469303 2.96306 66
    endloop
  endfacet
  facet normal -0.649446 -0.760407 0
    outer loop
      vertex 1.46946 2.02254 45
      vertex 1.76777 1.76777 66
      vertex 1.46946 2.02254 66
    endloop
  endfacet
  facet normal -0.649446 -0.760407 -0
    outer loop
      vertex 1.76777 1.76777 66
      vertex 1.46946 2.02254 45
      vertex 1.76777 1.76777 45
    endloop
  endfacet
  facet normal -0.97237 0.233445 0
    outer loop
      vertex 2.37764 -0.772542 45
      vertex 2.46922 -0.391086 66
      vertex 2.46922 -0.391086 45
    endloop
  endfacet
  facet normal -0.97237 0.233445 0
    outer loop
      vertex 2.46922 -0.391086 66
      vertex 2.37764 -0.772542 45
      vertex 2.37764 -0.772542 66
    endloop
  endfacet
  facet normal 0.382683 0.92388 -0
    outer loop
      vertex -0.772542 -2.37764 45
      vertex -1.13498 -2.22752 66
      vertex -0.772542 -2.37764 66
    endloop
  endfacet
  facet normal 0.382683 0.92388 0
    outer loop
      vertex -1.13498 -2.22752 66
      vertex -0.772542 -2.37764 45
      vertex -1.13498 -2.22752 45
    endloop
  endfacet
  facet normal 0.382683 -0.92388 0
    outer loop
      vertex -1.13498 2.22752 45
      vertex -0.772542 2.37764 66
      vertex -1.13498 2.22752 66
    endloop
  endfacet
  facet normal 0.382683 -0.92388 0
    outer loop
      vertex -0.772542 2.37764 66
      vertex -1.13498 2.22752 45
      vertex -0.772542 2.37764 45
    endloop
  endfacet
  facet normal 0.85264 -0.522499 0
    outer loop
      vertex -2.22752 1.13498 66
      vertex -2.02254 1.46946 45
      vertex -2.02254 1.46946 66
    endloop
  endfacet
  facet normal 0.85264 -0.522499 0
    outer loop
      vertex -2.02254 1.46946 45
      vertex -2.22752 1.13498 66
      vertex -2.22752 1.13498 45
    endloop
  endfacet
  facet normal -0.649446 0.760407 0
    outer loop
      vertex 1.76777 -1.76777 45
      vertex 1.46946 -2.02254 66
      vertex 1.76777 -1.76777 66
    endloop
  endfacet
  facet normal -0.649446 0.760407 0
    outer loop
      vertex 1.46946 -2.02254 66
      vertex 1.76777 -1.76777 45
      vertex 1.46946 -2.02254 45
    endloop
  endfacet
  facet normal -0.92388 -0.382683 0
    outer loop
      vertex 2.37764 0.772542 45
      vertex 2.22752 1.13498 66
      vertex 2.22752 1.13498 45
    endloop
  endfacet
  facet normal -0.92388 -0.382683 0
    outer loop
      vertex 2.22752 1.13498 66
      vertex 2.37764 0.772542 45
      vertex 2.37764 0.772542 66
    endloop
  endfacet
  facet normal -0.85264 -0.522499 0
    outer loop
      vertex 2.22752 1.13498 45
      vertex 2.02254 1.46946 66
      vertex 2.02254 1.46946 45
    endloop
  endfacet
  facet normal -0.85264 -0.522499 0
    outer loop
      vertex 2.02254 1.46946 66
      vertex 2.22752 1.13498 45
      vertex 2.22752 1.13498 66
    endloop
  endfacet
  facet normal -0.760407 -0.649446 0
    outer loop
      vertex 2.02254 1.46946 45
      vertex 1.76777 1.76777 66
      vertex 1.76777 1.76777 45
    endloop
  endfacet
  facet normal -0.760407 -0.649446 0
    outer loop
      vertex 1.76777 1.76777 66
      vertex 2.02254 1.46946 45
      vertex 2.02254 1.46946 66
    endloop
  endfacet
  facet normal -0.522499 -0.85264 0
    outer loop
      vertex 1.13498 2.22752 45
      vertex 1.46946 2.02254 66
      vertex 1.13498 2.22752 66
    endloop
  endfacet
  facet normal -0.522499 -0.85264 -0
    outer loop
      vertex 1.46946 2.02254 66
      vertex 1.13498 2.22752 45
      vertex 1.46946 2.02254 45
    endloop
  endfacet
  facet normal 0.760407 -0.649446 0
    outer loop
      vertex -2.02254 1.46946 66
      vertex -1.76777 1.76777 45
      vertex -1.76777 1.76777 66
    endloop
  endfacet
  facet normal 0.760407 -0.649446 0
    outer loop
      vertex -1.76777 1.76777 45
      vertex -2.02254 1.46946 66
      vertex -2.02254 1.46946 45
    endloop
  endfacet
  facet normal 0.522499 -0.85264 0
    outer loop
      vertex -1.46946 2.02254 45
      vertex -1.13498 2.22752 66
      vertex -1.46946 2.02254 66
    endloop
  endfacet
  facet normal 0.522499 -0.85264 0
    outer loop
      vertex -1.13498 2.22752 66
      vertex -1.46946 2.02254 45
      vertex -1.13498 2.22752 45
    endloop
  endfacet
  facet normal 0.233445 -0.97237 0
    outer loop
      vertex -0.772542 2.37764 45
      vertex -0.391086 2.46922 66
      vertex -0.772542 2.37764 66
    endloop
  endfacet
  facet normal 0.233445 -0.97237 0
    outer loop
      vertex -0.391086 2.46922 66
      vertex -0.772542 2.37764 45
      vertex -0.391086 2.46922 45
    endloop
  endfacet
  facet normal 0.649446 -0.760407 0
    outer loop
      vertex -1.76777 1.76777 45
      vertex -1.46946 2.02254 66
      vertex -1.76777 1.76777 66
    endloop
  endfacet
  facet normal 0.649446 -0.760407 0
    outer loop
      vertex -1.46946 2.02254 66
      vertex -1.76777 1.76777 45
      vertex -1.46946 2.02254 45
    endloop
  endfacet
  facet normal -0.996917 -0.078461 0
    outer loop
      vertex 2.5 0 45
      vertex 2.46922 0.391086 66
      vertex 2.46922 0.391086 45
    endloop
  endfacet
  facet normal -0.996917 -0.078461 0
    outer loop
      vertex 2.46922 0.391086 66
      vertex 2.5 0 45
      vertex 2.5 0 66
    endloop
  endfacet
  facet normal -0.760407 0.649446 0
    outer loop
      vertex 1.76777 -1.76777 45
      vertex 2.02254 -1.46946 66
      vertex 2.02254 -1.46946 45
    endloop
  endfacet
  facet normal -0.760407 0.649446 0
    outer loop
      vertex 2.02254 -1.46946 66
      vertex 1.76777 -1.76777 45
      vertex 1.76777 -1.76777 66
    endloop
  endfacet
  facet normal -0.92388 0.382683 0
    outer loop
      vertex 2.22752 -1.13498 45
      vertex 2.37764 -0.772542 66
      vertex 2.37764 -0.772542 45
    endloop
  endfacet
  facet normal -0.92388 0.382683 0
    outer loop
      vertex 2.37764 -0.772542 66
      vertex 2.22752 -1.13498 45
      vertex 2.22752 -1.13498 66
    endloop
  endfacet
  facet normal -0.382683 0.92388 0
    outer loop
      vertex 1.13498 -2.22752 45
      vertex 0.772542 -2.37764 66
      vertex 1.13498 -2.22752 66
    endloop
  endfacet
  facet normal -0.382683 0.92388 0
    outer loop
      vertex 0.772542 -2.37764 66
      vertex 1.13498 -2.22752 45
      vertex 0.772542 -2.37764 45
    endloop
  endfacet
  facet normal -0.522499 0.85264 0
    outer loop
      vertex 1.46946 -2.02254 45
      vertex 1.13498 -2.22752 66
      vertex 1.46946 -2.02254 66
    endloop
  endfacet
  facet normal -0.522499 0.85264 0
    outer loop
      vertex 1.13498 -2.22752 66
      vertex 1.46946 -2.02254 45
      vertex 1.13498 -2.22752 45
    endloop
  endfacet
  facet normal 0.233445 0.97237 -0
    outer loop
      vertex -0.391086 -2.46922 45
      vertex -0.772542 -2.37764 66
      vertex -0.391086 -2.46922 66
    endloop
  endfacet
  facet normal 0.233445 0.97237 0
    outer loop
      vertex -0.772542 -2.37764 66
      vertex -0.391086 -2.46922 45
      vertex -0.772542 -2.37764 45
    endloop
  endfacet
  facet normal 0.649446 0.760407 -0
    outer loop
      vertex -1.46946 -2.02254 45
      vertex -1.76777 -1.76777 66
      vertex -1.46946 -2.02254 66
    endloop
  endfacet
  facet normal 0.649446 0.760407 0
    outer loop
      vertex -1.76777 -1.76777 66
      vertex -1.46946 -2.02254 45
      vertex -1.76777 -1.76777 45
    endloop
  endfacet
  facet normal 0.85264 0.522499 0
    outer loop
      vertex -2.02254 -1.46946 66
      vertex -2.22752 -1.13498 45
      vertex -2.22752 -1.13498 66
    endloop
  endfacet
  facet normal 0.85264 0.522499 0
    outer loop
      vertex -2.22752 -1.13498 45
      vertex -2.02254 -1.46946 66
      vertex -2.02254 -1.46946 45
    endloop
  endfacet
  facet normal 0.97237 0.233445 0
    outer loop
      vertex -2.37764 -0.772542 66
      vertex -2.46922 -0.391086 45
      vertex -2.46922 -0.391086 66
    endloop
  endfacet
  facet normal 0.97237 0.233445 0
    outer loop
      vertex -2.46922 -0.391086 45
      vertex -2.37764 -0.772542 66
      vertex -2.37764 -0.772542 45
    endloop
  endfacet
  facet normal 0.760407 0.649446 0
    outer loop
      vertex -1.76777 -1.76777 66
      vertex -2.02254 -1.46946 45
      vertex -2.02254 -1.46946 66
    endloop
  endfacet
  facet normal 0.760407 0.649446 0
    outer loop
      vertex -2.02254 -1.46946 45
      vertex -1.76777 -1.76777 66
      vertex -1.76777 -1.76777 45
    endloop
  endfacet
  facet normal -0.97237 -0.233445 0
    outer loop
      vertex 2.46922 0.391086 45
      vertex 2.37764 0.772542 66
      vertex 2.37764 0.772542 45
    endloop
  endfacet
  facet normal -0.97237 -0.233445 0
    outer loop
      vertex 2.37764 0.772542 66
      vertex 2.46922 0.391086 45
      vertex 2.46922 0.391086 66
    endloop
  endfacet
  facet normal -0.078461 -0.996917 0
    outer loop
      vertex 0 2.5 45
      vertex 0.391086 2.46922 66
      vertex 0 2.5 66
    endloop
  endfacet
  facet normal -0.078461 -0.996917 -0
    outer loop
      vertex 0.391086 2.46922 66
      vertex 0 2.5 45
      vertex 0.391086 2.46922 45
    endloop
  endfacet
  facet normal -0.382683 -0.92388 0
    outer loop
      vertex 0.772542 2.37764 45
      vertex 1.13498 2.22752 66
      vertex 0.772542 2.37764 66
    endloop
  endfacet
  facet normal -0.382683 -0.92388 -0
    outer loop
      vertex 1.13498 2.22752 66
      vertex 0.772542 2.37764 45
      vertex 1.13498 2.22752 45
    endloop
  endfacet
  facet normal 0.996917 -0.078461 0
    outer loop
      vertex -2.5 0 66
      vertex -2.46922 0.391086 45
      vertex -2.46922 0.391086 66
    endloop
  endfacet
  facet normal 0.996917 -0.078461 0
    outer loop
      vertex -2.46922 0.391086 45
      vertex -2.5 0 66
      vertex -2.5 0 45
    endloop
  endfacet
  facet normal 0.92388 -0.382683 0
    outer loop
      vertex -2.37764 0.772542 66
      vertex -2.22752 1.13498 45
      vertex -2.22752 1.13498 66
    endloop
  endfacet
  facet normal 0.92388 -0.382683 0
    outer loop
      vertex -2.22752 1.13498 45
      vertex -2.37764 0.772542 66
      vertex -2.37764 0.772542 45
    endloop
  endfacet
  facet normal 0.078461 -0.996917 0
    outer loop
      vertex -0.391086 2.46922 45
      vertex 0 2.5 66
      vertex -0.391086 2.46922 66
    endloop
  endfacet
  facet normal 0.078461 -0.996917 0
    outer loop
      vertex 0 2.5 66
      vertex -0.391086 2.46922 45
      vertex 0 2.5 45
    endloop
  endfacet
  facet normal -0.996917 0.078461 0
    outer loop
      vertex 2.46922 -0.391086 45
      vertex 2.5 0 66
      vertex 2.5 0 45
    endloop
  endfacet
  facet normal -0.996917 0.078461 0
    outer loop
      vertex 2.5 0 66
      vertex 2.46922 -0.391086 45
      vertex 2.46922 -0.391086 66
    endloop
  endfacet
  facet normal -0.078461 0.996917 0
    outer loop
      vertex 0.391086 -2.46922 45
      vertex 0 -2.5 66
      vertex 0.391086 -2.46922 66
    endloop
  endfacet
  facet normal -0.078461 0.996917 0
    outer loop
      vertex 0 -2.5 66
      vertex 0.391086 -2.46922 45
      vertex 0 -2.5 45
    endloop
  endfacet
  facet normal -0.233445 0.97237 0
    outer loop
      vertex 0.772542 -2.37764 45
      vertex 0.391086 -2.46922 66
      vertex 0.772542 -2.37764 66
    endloop
  endfacet
  facet normal -0.233445 0.97237 0
    outer loop
      vertex 0.391086 -2.46922 66
      vertex 0.772542 -2.37764 45
      vertex 0.391086 -2.46922 45
    endloop
  endfacet
  facet normal 0.078461 0.996917 -0
    outer loop
      vertex 0 -2.5 45
      vertex -0.391086 -2.46922 66
      vertex 0 -2.5 66
    endloop
  endfacet
  facet normal 0.078461 0.996917 0
    outer loop
      vertex -0.391086 -2.46922 66
      vertex 0 -2.5 45
      vertex -0.391086 -2.46922 45
    endloop
  endfacet
  facet normal 0.522499 0.85264 -0
    outer loop
      vertex -1.13498 -2.22752 45
      vertex -1.46946 -2.02254 66
      vertex -1.13498 -2.22752 66
    endloop
  endfacet
  facet normal 0.522499 0.85264 0
    outer loop
      vertex -1.46946 -2.02254 66
      vertex -1.13498 -2.22752 45
      vertex -1.46946 -2.02254 45
    endloop
  endfacet
  facet normal 0.92388 0.382683 0
    outer loop
      vertex -2.22752 -1.13498 66
      vertex -2.37764 -0.772542 45
      vertex -2.37764 -0.772542 66
    endloop
  endfacet
  facet normal 0.92388 0.382683 0
    outer loop
      vertex -2.37764 -0.772542 45
      vertex -2.22752 -1.13498 66
      vertex -2.22752 -1.13498 45
    endloop
  endfacet
  facet normal 0.996917 0.078461 0
    outer loop
      vertex -2.46922 -0.391086 66
      vertex -2.5 0 45
      vertex -2.5 0 66
    endloop
  endfacet
  facet normal 0.996917 0.078461 0
    outer loop
      vertex -2.5 0 45
      vertex -2.46922 -0.391086 66
      vertex -2.46922 -0.391086 45
    endloop
  endfacet
  facet normal 0 0 1
    outer loop
      vertex 2.46922 0.391086 45
      vertex 2.46922 -0.391086 45
      vertex 2.5 0 45
    endloop
  endfacet
  facet normal 0 0 1
    outer loop
      vertex 2.37764 0.772542 45
      vertex 2.46922 -0.391086 45
      vertex 2.46922 0.391086 45
    endloop
  endfacet
  facet normal 0 0 1
    outer loop
      vertex 2.37764 0.772542 45
      vertex 2.37764 -0.772542 45
      vertex 2.46922 -0.391086 45
    endloop
  endfacet
  facet normal 0 0 1
    outer loop
      vertex 2.22752 1.13498 45
      vertex 2.37764 -0.772542 45
      vertex 2.37764 0.772542 45
    endloop
  endfacet
  facet normal 0 0 1
    outer loop
      vertex 2.22752 1.13498 45
      vertex 2.22752 -1.13498 45
      vertex 2.37764 -0.772542 45
    endloop
  endfacet
  facet normal 0 0 1
    outer loop
      vertex 2.02254 1.46946 45
      vertex 2.22752 -1.13498 45
      vertex 2.22752 1.13498 45
    endloop
  endfacet
  facet normal 0 0 1
    outer loop
      vertex 2.02254 1.46946 45
      vertex 2.02254 -1.46946 45
      vertex 2.22752 -1.13498 45
    endloop
  endfacet
  facet normal 0 0 1
    outer loop
      vertex 1.76777 1.76777 45
      vertex 2.02254 -1.46946 45
      vertex 2.02254 1.46946 45
    endloop
  endfacet
  facet normal 0 0 1
    outer loop
      vertex 1.76777 1.76777 45
      vertex 1.76777 -1.76777 45
      vertex 2.02254 -1.46946 45
    endloop
  endfacet
  facet normal 0 0 1
    outer loop
      vertex 1.46946 2.02254 45
      vertex 1.76777 -1.76777 45
      vertex 1.76777 1.76777 45
    endloop
  endfacet
  facet normal 0 0 1
    outer loop
      vertex 1.46946 2.02254 45
      vertex 1.46946 -2.02254 45
      vertex 1.76777 -1.76777 45
    endloop
  endfacet
  facet normal 0 0 1
    outer loop
      vertex 1.13498 2.22752 45
      vertex 1.46946 -2.02254 45
      vertex 1.46946 2.02254 45
    endloop
  endfacet
  facet normal 0 0 1
    outer loop
      vertex 1.13498 2.22752 45
      vertex 1.13498 -2.22752 45
      vertex 1.46946 -2.02254 45
    endloop
  endfacet
  facet normal 0 0 1
    outer loop
      vertex 0.772542 2.37764 45
      vertex 1.13498 -2.22752 45
      vertex 1.13498 2.22752 45
    endloop
  endfacet
  facet normal 0 0 1
    outer loop
      vertex 0.772542 2.37764 45
      vertex 0.772542 -2.37764 45
      vertex 1.13498 -2.22752 45
    endloop
  endfacet
  facet normal 0 0 1
    outer loop
      vertex 0.391086 2.46922 45
      vertex 0.772542 -2.37764 45
      vertex 0.772542 2.37764 45
    endloop
  endfacet
  facet normal 0 0 1
    outer loop
      vertex 0.391086 2.46922 45
      vertex 0.391086 -2.46922 45
      vertex 0.772542 -2.37764 45
    endloop
  endfacet
  facet normal 0 0 1
    outer loop
      vertex 0 2.5 45
      vertex 0.391086 -2.46922 45
      vertex 0.391086 2.46922 45
    endloop
  endfacet
  facet normal 0 0 1
    outer loop
      vertex 0 2.5 45
      vertex 0 -2.5 45
      vertex 0.391086 -2.46922 45
    endloop
  endfacet
  facet normal -0 0 1
    outer loop
      vertex -0.391086 2.46922 45
      vertex 0 -2.5 45
      vertex 0 2.5 45
    endloop
  endfacet
  facet normal 0 0 1
    outer loop
      vertex -0.391086 2.46922 45
      vertex -0.391086 -2.46922 45
      vertex 0 -2.5 45
    endloop
  endfacet
  facet normal -0 0 1
    outer loop
      vertex -0.772542 2.37764 45
      vertex -0.391086 -2.46922 45
      vertex -0.391086 2.46922 45
    endloop
  endfacet
  facet normal 0 0 1
    outer loop
      vertex -0.772542 2.37764 45
      vertex -0.772542 -2.37764 45
      vertex -0.391086 -2.46922 45
    endloop
  endfacet
  facet normal -0 0 1
    outer loop
      vertex -1.13498 2.22752 45
      vertex -0.772542 -2.37764 45
      vertex -0.772542 2.37764 45
    endloop
  endfacet
  facet normal 0 0 1
    outer loop
      vertex -1.13498 2.22752 45
      vertex -1.13498 -2.22752 45
      vertex -0.772542 -2.37764 45
    endloop
  endfacet
  facet normal -0 0 1
    outer loop
      vertex -1.46946 2.02254 45
      vertex -1.13498 -2.22752 45
      vertex -1.13498 2.22752 45
    endloop
  endfacet
  facet normal 0 0 1
    outer loop
      vertex -1.46946 2.02254 45
      vertex -1.46946 -2.02254 45
      vertex -1.13498 -2.22752 45
    endloop
  endfacet
  facet normal -0 0 1
    outer loop
      vertex -1.76777 1.76777 45
      vertex -1.46946 -2.02254 45
      vertex -1.46946 2.02254 45
    endloop
  endfacet
  facet normal 0 0 1
    outer loop
      vertex -1.76777 1.76777 45
      vertex -1.76777 -1.76777 45
      vertex -1.46946 -2.02254 45
    endloop
  endfacet
  facet normal -0 0 1
    outer loop
      vertex -2.02254 1.46946 45
      vertex -1.76777 -1.76777 45
      vertex -1.76777 1.76777 45
    endloop
  endfacet
  facet normal 0 0 1
    outer loop
      vertex -2.02254 1.46946 45
      vertex -2.02254 -1.46946 45
      vertex -1.76777 -1.76777 45
    endloop
  endfacet
  facet normal -0 0 1
    outer loop
      vertex -2.22752 1.13498 45
      vertex -2.02254 -1.46946 45
      vertex -2.02254 1.46946 45
    endloop
  endfacet
  facet normal 0 0 1
    outer loop
      vertex -2.22752 1.13498 45
      vertex -2.22752 -1.13498 45
      vertex -2.02254 -1.46946 45
    endloop
  endfacet
  facet normal -0 0 1
    outer loop
      vertex -2.37764 0.772542 45
      vertex -2.22752 -1.13498 45
      vertex -2.22752 1.13498 45
    endloop
  endfacet
  facet normal 0 0 1
    outer loop
      vertex -2.37764 0.772542 45
      vertex -2.37764 -0.772542 45
      vertex -2.22752 -1.13498 45
    endloop
  endfacet
  facet normal -0 0 1
    outer loop
      vertex -2.46922 0.391086 45
      vertex -2.37764 -0.772542 45
      vertex -2.37764 0.772542 45
    endloop
  endfacet
  facet normal 0 0 1
    outer loop
      vertex -2.46922 0.391086 45
      vertex -2.46922 -0.391086 45
      vertex -2.37764 -0.772542 45
    endloop
  endfacet
  facet normal 0 -0 1
    outer loop
      vertex -2.46922 -0.391086 45
      vertex -2.46922 0.391086 45
      vertex -2.5 0 45
    endloop
  endfacet
  facet normal -0.233445 -0.97237 0
    outer loop
      vertex 0.391086 2.46922 45
      vertex 0.772542 2.37764 66
      vertex 0.391086 2.46922 66
    endloop
  endfacet
  facet normal -0.233445 -0.97237 -0
    outer loop
      vertex 0.772542 2.37764 66
      vertex 0.391086 2.46922 45
      vertex 0.772542 2.37764 45
    endloop
  endfacet
  facet normal 0.97237 -0.233445 0
    outer loop
      vertex -2.46922 0.391086 66
      vertex -2.37764 0.772542 45
      vertex -2.37764 0.772542 66
    endloop
  endfacet
  facet normal 0.97237 -0.233445 0
    outer loop
      vertex -2.37764 0.772542 45
      vertex -2.46922 0.391086 66
      vertex -2.46922 0.391086 45
    endloop
  endfacet
  facet normal -0.85264 0.522499 0
    outer loop
      vertex 2.02254 -1.46946 45
      vertex 2.22752 -1.13498 66
      vertex 2.22752 -1.13498 45
    endloop
  endfacet
  facet normal -0.85264 0.522499 0
    outer loop
      vertex 2.22752 -1.13498 66
      vertex 2.02254 -1.46946 45
      vertex 2.02254 -1.46946 66
    endloop
  endfacet
endsolid OpenSCAD_Model
