solid OpenSCAD_Model
  facet normal -1 0 0
    outer loop
      vertex 0 0 0
      vertex 0 25 4
      vertex 0 25 0
    endloop
  endfacet
  facet normal -1 -0 0
    outer loop
      vertex 0 25 4
      vertex 0 0 0
      vertex 0 0 4
    endloop
  endfacet
  facet normal -0 0 1
    outer loop
      vertex 5.42561 21.2736 4
      vertex 12.8008 14.4625 4
      vertex 5.52169 21.5056 4
    endloop
  endfacet
  facet normal 0 0 1
    outer loop
      vertex 12.8008 10.5375 4
      vertex 5.5803 3.25029 4
      vertex 5.6 3 4
    endloop
  endfacet
  facet normal -0 0 1
    outer loop
      vertex 5.29443 21.0595 4
      vertex 12.8008 14.4625 4
      vertex 5.42561 21.2736 4
    endloop
  endfacet
  facet normal 0 0 1
    outer loop
      vertex 12.8008 10.5375 4
      vertex 5.52169 3.49443 4
      vertex 5.5803 3.25029 4
    endloop
  endfacet
  facet normal -0 0 1
    outer loop
      vertex 5.13137 20.8686 4
      vertex 12.8008 14.4625 4
      vertex 5.29443 21.0595 4
    endloop
  endfacet
  facet normal 0 0 1
    outer loop
      vertex 12.8008 10.5375 4
      vertex 5.42561 3.72638 4
      vertex 5.52169 3.49443 4
    endloop
  endfacet
  facet normal -0 0 1
    outer loop
      vertex 4.94046 20.7056 4
      vertex 12.8008 14.4625 4
      vertex 5.13137 20.8686 4
    endloop
  endfacet
  facet normal 0 0 1
    outer loop
      vertex 12.8008 10.5375 4
      vertex 5.29443 3.94046 4
      vertex 5.42561 3.72638 4
    endloop
  endfacet
  facet normal -0 0 1
    outer loop
      vertex 4.72638 20.5744 4
      vertex 12.8008 14.4625 4
      vertex 4.94046 20.7056 4
    endloop
  endfacet
  facet normal 0 0 1
    outer loop
      vertex 12.8008 10.5375 4
      vertex 5.13137 4.13137 4
      vertex 5.29443 3.94046 4
    endloop
  endfacet
  facet normal -0 0 1
    outer loop
      vertex 4.49443 20.4783 4
      vertex 12.8008 14.4625 4
      vertex 4.72638 20.5744 4
    endloop
  endfacet
  facet normal 0 0 1
    outer loop
      vertex 12.8008 10.5375 4
      vertex 4.94046 4.29443 4
      vertex 5.13137 4.13137 4
    endloop
  endfacet
  facet normal -0 0 1
    outer loop
      vertex 4.25029 20.4197 4
      vertex 12.8008 14.4625 4
      vertex 4.49443 20.4783 4
    endloop
  endfacet
  facet normal 0 0 1
    outer loop
      vertex 12.8008 10.5375 4
      vertex 4.72638 4.42561 4
      vertex 4.94046 4.29443 4
    endloop
  endfacet
  facet normal 0 0 1
    outer loop
      vertex 12.8008 14.4625 4
      vertex 4.25029 20.4197 4
      vertex 12.8008 10.5375 4
    endloop
  endfacet
  facet normal 0 0 1
    outer loop
      vertex 12.8008 10.5375 4
      vertex 4.49443 4.52169 4
      vertex 4.72638 4.42561 4
    endloop
  endfacet
  facet normal 0 0 1
    outer loop
      vertex 4.25029 4.5803 4
      vertex 12.8008 10.5375 4
      vertex 4.25029 20.4197 4
    endloop
  endfacet
  facet normal 0 0 1
    outer loop
      vertex 12.8008 10.5375 4
      vertex 4.25029 4.5803 4
      vertex 4.49443 4.52169 4
    endloop
  endfacet
  facet normal 0 0 1
    outer loop
      vertex 4.25029 20.4197 4
      vertex 4 4.6 4
      vertex 4.25029 4.5803 4
    endloop
  endfacet
  facet normal -0 0 1
    outer loop
      vertex 4 20.4 4
      vertex 4 4.6 4
      vertex 4.25029 20.4197 4
    endloop
  endfacet
  facet normal 0 0 1
    outer loop
      vertex 3.7497 20.4197 4
      vertex 4 4.6 4
      vertex 4 20.4 4
    endloop
  endfacet
  facet normal 0 0 1
    outer loop
      vertex 3.7497 20.4197 4
      vertex 3.7497 4.5803 4
      vertex 4 4.6 4
    endloop
  endfacet
  facet normal 0 0 1
    outer loop
      vertex 3.50557 20.4783 4
      vertex 3.7497 4.5803 4
      vertex 3.7497 20.4197 4
    endloop
  endfacet
  facet normal 0 0 1
    outer loop
      vertex 3.50557 20.4783 4
      vertex 3.50557 4.52169 4
      vertex 3.7497 4.5803 4
    endloop
  endfacet
  facet normal 0 0 1
    outer loop
      vertex 3.27361 20.5744 4
      vertex 3.50557 4.52169 4
      vertex 3.50557 20.4783 4
    endloop
  endfacet
  facet normal 0 0 1
    outer loop
      vertex 3.27361 20.5744 4
      vertex 3.27361 4.42561 4
      vertex 3.50557 4.52169 4
    endloop
  endfacet
  facet normal 0 0 1
    outer loop
      vertex 3.05954 20.7056 4
      vertex 3.27361 4.42561 4
      vertex 3.27361 20.5744 4
    endloop
  endfacet
  facet normal 0 0 1
    outer loop
      vertex 3.05954 20.7056 4
      vertex 3.05954 4.29443 4
      vertex 3.27361 4.42561 4
    endloop
  endfacet
  facet normal 0 0 1
    outer loop
      vertex 2.86863 20.8686 4
      vertex 3.05954 4.29443 4
      vertex 3.05954 20.7056 4
    endloop
  endfacet
  facet normal 0 0 1
    outer loop
      vertex 2.86863 20.8686 4
      vertex 2.86863 4.13137 4
      vertex 3.05954 4.29443 4
    endloop
  endfacet
  facet normal 0 0 1
    outer loop
      vertex 2.70557 21.0595 4
      vertex 2.86863 4.13137 4
      vertex 2.86863 20.8686 4
    endloop
  endfacet
  facet normal 0 0 1
    outer loop
      vertex 2.70557 21.0595 4
      vertex 2.70557 3.94046 4
      vertex 2.86863 4.13137 4
    endloop
  endfacet
  facet normal 0 0 1
    outer loop
      vertex 2.57439 21.2736 4
      vertex 2.70557 3.94046 4
      vertex 2.70557 21.0595 4
    endloop
  endfacet
  facet normal 0 0 1
    outer loop
      vertex 2.57439 21.2736 4
      vertex 2.57439 3.72638 4
      vertex 2.70557 3.94046 4
    endloop
  endfacet
  facet normal 0 0 1
    outer loop
      vertex 0 25 4
      vertex 2.57439 21.2736 4
      vertex 2.47831 21.5056 4
    endloop
  endfacet
  facet normal 0 0 1
    outer loop
      vertex 2.57439 21.2736 4
      vertex 0 25 4
      vertex 2.57439 3.72638 4
    endloop
  endfacet
  facet normal 0 0 1
    outer loop
      vertex 0 25 4
      vertex 2.47831 21.5056 4
      vertex 2.4197 21.7497 4
    endloop
  endfacet
  facet normal 0 0 1
    outer loop
      vertex 0 0 4
      vertex 2.57439 3.72638 4
      vertex 0 25 4
    endloop
  endfacet
  facet normal 0 0 1
    outer loop
      vertex 0 25 4
      vertex 2.4197 21.7497 4
      vertex 2.4 22 4
    endloop
  endfacet
  facet normal 0 0 1
    outer loop
      vertex 2.57439 3.72638 4
      vertex 0 0 4
      vertex 2.47831 3.49443 4
    endloop
  endfacet
  facet normal 0 0 1
    outer loop
      vertex 20 25 4
      vertex 19.5991 14.4625 4
      vertex 20 0 4
    endloop
  endfacet
  facet normal 0 0 1
    outer loop
      vertex 20 25 4
      vertex 16.2 16.425 4
      vertex 19.5991 14.4625 4
    endloop
  endfacet
  facet normal -0 0 1
    outer loop
      vertex 5.5803 22.2503 4
      vertex 16.2 16.425 4
      vertex 20 25 4
    endloop
  endfacet
  facet normal 0 0 1
    outer loop
      vertex 16.2 16.425 4
      vertex 5.5803 21.7497 4
      vertex 12.8008 14.4625 4
    endloop
  endfacet
  facet normal -0 0 1
    outer loop
      vertex 5.5803 21.7497 4
      vertex 16.2 16.425 4
      vertex 5.6 22 4
    endloop
  endfacet
  facet normal 0 0 1
    outer loop
      vertex 16.2 16.425 4
      vertex 5.5803 22.2503 4
      vertex 5.6 22 4
    endloop
  endfacet
  facet normal 0 0 1
    outer loop
      vertex 20 25 4
      vertex 5.52169 22.4944 4
      vertex 5.5803 22.2503 4
    endloop
  endfacet
  facet normal 0 0 1
    outer loop
      vertex 20 25 4
      vertex 5.42561 22.7264 4
      vertex 5.52169 22.4944 4
    endloop
  endfacet
  facet normal 0 0 1
    outer loop
      vertex 20 25 4
      vertex 5.29443 22.9405 4
      vertex 5.42561 22.7264 4
    endloop
  endfacet
  facet normal 0 0 1
    outer loop
      vertex 20 25 4
      vertex 5.13137 23.1314 4
      vertex 5.29443 22.9405 4
    endloop
  endfacet
  facet normal 0 0 1
    outer loop
      vertex 20 25 4
      vertex 4.94046 23.2944 4
      vertex 5.13137 23.1314 4
    endloop
  endfacet
  facet normal 0 0 1
    outer loop
      vertex 20 25 4
      vertex 4.72638 23.4256 4
      vertex 4.94046 23.2944 4
    endloop
  endfacet
  facet normal 0 0 1
    outer loop
      vertex 20 25 4
      vertex 4.49443 23.5217 4
      vertex 4.72638 23.4256 4
    endloop
  endfacet
  facet normal 0 0 1
    outer loop
      vertex 20 25 4
      vertex 4.25029 23.5803 4
      vertex 4.49443 23.5217 4
    endloop
  endfacet
  facet normal -0 0 1
    outer loop
      vertex 0 25 4
      vertex 4.25029 23.5803 4
      vertex 20 25 4
    endloop
  endfacet
  facet normal 0 0 1
    outer loop
      vertex 4.25029 23.5803 4
      vertex 0 25 4
      vertex 4 23.6 4
    endloop
  endfacet
  facet normal 0 0 1
    outer loop
      vertex 2.47831 3.49443 4
      vertex 0 0 4
      vertex 2.4197 3.25029 4
    endloop
  endfacet
  facet normal 0 0 1
    outer loop
      vertex 2.4197 22.2503 4
      vertex 0 25 4
      vertex 2.4 22 4
    endloop
  endfacet
  facet normal 0 0 1
    outer loop
      vertex 2.47831 22.4944 4
      vertex 0 25 4
      vertex 2.4197 22.2503 4
    endloop
  endfacet
  facet normal 0 0 1
    outer loop
      vertex 2.57439 22.7264 4
      vertex 0 25 4
      vertex 2.47831 22.4944 4
    endloop
  endfacet
  facet normal 0 0 1
    outer loop
      vertex 2.70557 22.9405 4
      vertex 0 25 4
      vertex 2.57439 22.7264 4
    endloop
  endfacet
  facet normal 0 0 1
    outer loop
      vertex 2.86863 23.1314 4
      vertex 0 25 4
      vertex 2.70557 22.9405 4
    endloop
  endfacet
  facet normal 0 0 1
    outer loop
      vertex 3.05954 23.2944 4
      vertex 0 25 4
      vertex 2.86863 23.1314 4
    endloop
  endfacet
  facet normal 0 0 1
    outer loop
      vertex 3.27361 23.4256 4
      vertex 0 25 4
      vertex 3.05954 23.2944 4
    endloop
  endfacet
  facet normal 0 0 1
    outer loop
      vertex 3.50557 23.5217 4
      vertex 0 25 4
      vertex 3.27361 23.4256 4
    endloop
  endfacet
  facet normal 0 0 1
    outer loop
      vertex 3.7497 23.5803 4
      vertex 0 25 4
      vertex 3.50557 23.5217 4
    endloop
  endfacet
  facet normal 0 0 1
    outer loop
      vertex 4 23.6 4
      vertex 0 25 4
      vertex 3.7497 23.5803 4
    endloop
  endfacet
  facet normal -0 0 1
    outer loop
      vertex 19.5991 10.5375 4
      vertex 20 0 4
      vertex 19.5991 14.4625 4
    endloop
  endfacet
  facet normal -0 0 1
    outer loop
      vertex 16.2 8.575 4
      vertex 20 0 4
      vertex 19.5991 10.5375 4
    endloop
  endfacet
  facet normal 0 0 1
    outer loop
      vertex 5.6 3 4
      vertex 16.2 8.575 4
      vertex 12.8008 10.5375 4
    endloop
  endfacet
  facet normal -0 0 1
    outer loop
      vertex 5.52169 21.5056 4
      vertex 12.8008 14.4625 4
      vertex 5.5803 21.7497 4
    endloop
  endfacet
  facet normal 0 0 1
    outer loop
      vertex 5.5803 2.7497 4
      vertex 16.2 8.575 4
      vertex 5.6 3 4
    endloop
  endfacet
  facet normal 0 0 1
    outer loop
      vertex 16.2 8.575 4
      vertex 5.5803 2.7497 4
      vertex 20 0 4
    endloop
  endfacet
  facet normal -0 0 1
    outer loop
      vertex 5.52169 2.50557 4
      vertex 20 0 4
      vertex 5.5803 2.7497 4
    endloop
  endfacet
  facet normal -0 0 1
    outer loop
      vertex 5.42561 2.27361 4
      vertex 20 0 4
      vertex 5.52169 2.50557 4
    endloop
  endfacet
  facet normal -0 0 1
    outer loop
      vertex 5.29443 2.05954 4
      vertex 20 0 4
      vertex 5.42561 2.27361 4
    endloop
  endfacet
  facet normal -0 0 1
    outer loop
      vertex 5.13137 1.86863 4
      vertex 20 0 4
      vertex 5.29443 2.05954 4
    endloop
  endfacet
  facet normal -0 0 1
    outer loop
      vertex 4.94046 1.70557 4
      vertex 20 0 4
      vertex 5.13137 1.86863 4
    endloop
  endfacet
  facet normal -0 0 1
    outer loop
      vertex 4.72638 1.57439 4
      vertex 20 0 4
      vertex 4.94046 1.70557 4
    endloop
  endfacet
  facet normal -0 0 1
    outer loop
      vertex 4.49443 1.47831 4
      vertex 20 0 4
      vertex 4.72638 1.57439 4
    endloop
  endfacet
  facet normal -0 0 1
    outer loop
      vertex 4.25029 1.4197 4
      vertex 20 0 4
      vertex 4.49443 1.47831 4
    endloop
  endfacet
  facet normal 0 0 1
    outer loop
      vertex 0 0 4
      vertex 4.25029 1.4197 4
      vertex 4 1.4 4
    endloop
  endfacet
  facet normal 0 0 1
    outer loop
      vertex 0 0 4
      vertex 4 1.4 4
      vertex 3.7497 1.4197 4
    endloop
  endfacet
  facet normal 0 0 1
    outer loop
      vertex 2.4197 3.25029 4
      vertex 0 0 4
      vertex 2.4 3 4
    endloop
  endfacet
  facet normal 0 0 1
    outer loop
      vertex 4.25029 1.4197 4
      vertex 0 0 4
      vertex 20 0 4
    endloop
  endfacet
  facet normal 0 0 1
    outer loop
      vertex 3.50557 1.47831 4
      vertex 0 0 4
      vertex 3.7497 1.4197 4
    endloop
  endfacet
  facet normal 0 0 1
    outer loop
      vertex 3.27361 1.57439 4
      vertex 0 0 4
      vertex 3.50557 1.47831 4
    endloop
  endfacet
  facet normal 0 0 1
    outer loop
      vertex 3.05954 1.70557 4
      vertex 0 0 4
      vertex 3.27361 1.57439 4
    endloop
  endfacet
  facet normal 0 0 1
    outer loop
      vertex 2.86863 1.86863 4
      vertex 0 0 4
      vertex 3.05954 1.70557 4
    endloop
  endfacet
  facet normal 0 0 1
    outer loop
      vertex 2.70557 2.05954 4
      vertex 0 0 4
      vertex 2.86863 1.86863 4
    endloop
  endfacet
  facet normal 0 0 1
    outer loop
      vertex 2.57439 2.27361 4
      vertex 0 0 4
      vertex 2.70557 2.05954 4
    endloop
  endfacet
  facet normal 0 0 1
    outer loop
      vertex 2.47831 2.50557 4
      vertex 0 0 4
      vertex 2.57439 2.27361 4
    endloop
  endfacet
  facet normal 0 0 1
    outer loop
      vertex 2.4197 2.7497 4
      vertex 0 0 4
      vertex 2.47831 2.50557 4
    endloop
  endfacet
  facet normal 0 0 1
    outer loop
      vertex 2.4 3 4
      vertex 0 0 4
      vertex 2.4197 2.7497 4
    endloop
  endfacet
  facet normal 1 -0 0
    outer loop
      vertex 20 0 4
      vertex 20 25 0
      vertex 20 25 4
    endloop
  endfacet
  facet normal 1 0 0
    outer loop
      vertex 20 25 0
      vertex 20 0 4
      vertex 20 0 0
    endloop
  endfacet
  facet normal -0 0 -1
    outer loop
      vertex 14.582 11.3244 0
      vertex 5.13137 4.13137 0
      vertex 14.418 11.592 0
    endloop
  endfacet
  facet normal 0 0 -1
    outer loop
      vertex 14.2 12.5 0
      vertex 5.5803 21.7497 0
      vertex 5.6 22 0
    endloop
  endfacet
  facet normal 0 0 -1
    outer loop
      vertex 4.94046 4.29443 0
      vertex 14.418 11.592 0
      vertex 5.13137 4.13137 0
    endloop
  endfacet
  facet normal 0 0 -1
    outer loop
      vertex 14.2 12.5 0
      vertex 5.52169 21.5056 0
      vertex 5.5803 21.7497 0
    endloop
  endfacet
  facet normal -0 0 -1
    outer loop
      vertex 14.418 11.592 0
      vertex 4.94046 4.29443 0
      vertex 14.2979 11.882 0
    endloop
  endfacet
  facet normal 0 0 -1
    outer loop
      vertex 14.2 12.5 0
      vertex 5.42561 21.2736 0
      vertex 5.52169 21.5056 0
    endloop
  endfacet
  facet normal 0 0 -1
    outer loop
      vertex 4.72638 4.42561 0
      vertex 14.2979 11.882 0
      vertex 4.94046 4.29443 0
    endloop
  endfacet
  facet normal 0 0 -1
    outer loop
      vertex 14.2 12.5 0
      vertex 5.29443 21.0595 0
      vertex 5.42561 21.2736 0
    endloop
  endfacet
  facet normal -0 0 -1
    outer loop
      vertex 14.2979 11.882 0
      vertex 4.72638 4.42561 0
      vertex 14.2246 12.1871 0
    endloop
  endfacet
  facet normal 0 0 -1
    outer loop
      vertex 14.2 12.5 0
      vertex 5.13137 20.8686 0
      vertex 5.29443 21.0595 0
    endloop
  endfacet
  facet normal 0 0 -1
    outer loop
      vertex 4.49443 4.52169 0
      vertex 14.2246 12.1871 0
      vertex 4.72638 4.42561 0
    endloop
  endfacet
  facet normal 0 0 -1
    outer loop
      vertex 14.2 12.5 0
      vertex 4.94046 20.7056 0
      vertex 5.13137 20.8686 0
    endloop
  endfacet
  facet normal -0 0 -1
    outer loop
      vertex 14.2246 12.1871 0
      vertex 4.49443 4.52169 0
      vertex 14.2 12.5 0
    endloop
  endfacet
  facet normal 0 0 -1
    outer loop
      vertex 14.2 12.5 0
      vertex 4.72638 20.5744 0
      vertex 4.94046 20.7056 0
    endloop
  endfacet
  facet normal 0 0 -1
    outer loop
      vertex 4.25029 4.5803 0
      vertex 14.2 12.5 0
      vertex 4.49443 4.52169 0
    endloop
  endfacet
  facet normal 0 0 -1
    outer loop
      vertex 14.2 12.5 0
      vertex 4.49443 20.4783 0
      vertex 4.72638 20.5744 0
    endloop
  endfacet
  facet normal 0 0 -1
    outer loop
      vertex 4.25029 20.4197 0
      vertex 14.2 12.5 0
      vertex 4.25029 4.5803 0
    endloop
  endfacet
  facet normal 0 0 -1
    outer loop
      vertex 14.2 12.5 0
      vertex 4.25029 20.4197 0
      vertex 4.49443 20.4783 0
    endloop
  endfacet
  facet normal 0 0 -1
    outer loop
      vertex 4 4.6 0
      vertex 4.25029 20.4197 0
      vertex 4.25029 4.5803 0
    endloop
  endfacet
  facet normal 0 0 -1
    outer loop
      vertex 4 4.6 0
      vertex 4 20.4 0
      vertex 4.25029 20.4197 0
    endloop
  endfacet
  facet normal 0 0 -1
    outer loop
      vertex 3.7497 4.5803 0
      vertex 4 20.4 0
      vertex 4 4.6 0
    endloop
  endfacet
  facet normal 0 0 -1
    outer loop
      vertex 3.7497 4.5803 0
      vertex 3.7497 20.4197 0
      vertex 4 20.4 0
    endloop
  endfacet
  facet normal 0 0 -1
    outer loop
      vertex 3.50557 4.52169 0
      vertex 3.7497 20.4197 0
      vertex 3.7497 4.5803 0
    endloop
  endfacet
  facet normal 0 0 -1
    outer loop
      vertex 3.50557 4.52169 0
      vertex 3.50557 20.4783 0
      vertex 3.7497 20.4197 0
    endloop
  endfacet
  facet normal 0 0 -1
    outer loop
      vertex 3.27361 4.42561 0
      vertex 3.50557 20.4783 0
      vertex 3.50557 4.52169 0
    endloop
  endfacet
  facet normal 0 0 -1
    outer loop
      vertex 3.27361 4.42561 0
      vertex 3.27361 20.5744 0
      vertex 3.50557 20.4783 0
    endloop
  endfacet
  facet normal 0 0 -1
    outer loop
      vertex 3.05954 4.29443 0
      vertex 3.27361 20.5744 0
      vertex 3.27361 4.42561 0
    endloop
  endfacet
  facet normal 0 0 -1
    outer loop
      vertex 3.05954 4.29443 0
      vertex 3.05954 20.7056 0
      vertex 3.27361 20.5744 0
    endloop
  endfacet
  facet normal 0 0 -1
    outer loop
      vertex 2.86863 4.13137 0
      vertex 3.05954 20.7056 0
      vertex 3.05954 4.29443 0
    endloop
  endfacet
  facet normal 0 0 -1
    outer loop
      vertex 2.86863 4.13137 0
      vertex 2.86863 20.8686 0
      vertex 3.05954 20.7056 0
    endloop
  endfacet
  facet normal 0 0 -1
    outer loop
      vertex 2.70557 3.94046 0
      vertex 2.86863 20.8686 0
      vertex 2.86863 4.13137 0
    endloop
  endfacet
  facet normal 0 0 -1
    outer loop
      vertex 2.70557 3.94046 0
      vertex 2.70557 21.0595 0
      vertex 2.86863 20.8686 0
    endloop
  endfacet
  facet normal 0 0 -1
    outer loop
      vertex 2.57439 3.72638 0
      vertex 2.70557 21.0595 0
      vertex 2.70557 3.94046 0
    endloop
  endfacet
  facet normal 0 0 -1
    outer loop
      vertex 2.57439 3.72638 0
      vertex 2.57439 21.2736 0
      vertex 2.70557 21.0595 0
    endloop
  endfacet
  facet normal 0 0 -1
    outer loop
      vertex 0 0 0
      vertex 2.57439 3.72638 0
      vertex 2.47831 3.49443 0
    endloop
  endfacet
  facet normal -0 0 -1
    outer loop
      vertex 2.57439 3.72638 0
      vertex 0 0 0
      vertex 2.57439 21.2736 0
    endloop
  endfacet
  facet normal 0 0 -1
    outer loop
      vertex 0 0 0
      vertex 2.47831 3.49443 0
      vertex 2.4197 3.25029 0
    endloop
  endfacet
  facet normal 0 0 -1
    outer loop
      vertex 0 25 0
      vertex 2.57439 21.2736 0
      vertex 0 0 0
    endloop
  endfacet
  facet normal 0 0 -1
    outer loop
      vertex 0 0 0
      vertex 2.4197 3.25029 0
      vertex 2.4 3 0
    endloop
  endfacet
  facet normal 0 0 -1
    outer loop
      vertex 2.57439 21.2736 0
      vertex 0 25 0
      vertex 2.47831 21.5056 0
    endloop
  endfacet
  facet normal 0 0 -1
    outer loop
      vertex 20 0 0
      vertex 18.2 12.5 0
      vertex 20 25 0
    endloop
  endfacet
  facet normal 0 0 -1
    outer loop
      vertex 20 0 0
      vertex 18.1754 12.1871 0
      vertex 18.2 12.5 0
    endloop
  endfacet
  facet normal 0 0 -1
    outer loop
      vertex 20 0 0
      vertex 18.1021 11.882 0
      vertex 18.1754 12.1871 0
    endloop
  endfacet
  facet normal 0 0 -1
    outer loop
      vertex 20 0 0
      vertex 17.982 11.592 0
      vertex 18.1021 11.882 0
    endloop
  endfacet
  facet normal 0 0 -1
    outer loop
      vertex 20 0 0
      vertex 17.818 11.3244 0
      vertex 17.982 11.592 0
    endloop
  endfacet
  facet normal 0 0 -1
    outer loop
      vertex 20 0 0
      vertex 17.6142 11.0858 0
      vertex 17.818 11.3244 0
    endloop
  endfacet
  facet normal 0 0 -1
    outer loop
      vertex 20 0 0
      vertex 17.3756 10.882 0
      vertex 17.6142 11.0858 0
    endloop
  endfacet
  facet normal 0 0 -1
    outer loop
      vertex 20 0 0
      vertex 17.108 10.718 0
      vertex 17.3756 10.882 0
    endloop
  endfacet
  facet normal 0 0 -1
    outer loop
      vertex 20 0 0
      vertex 16.818 10.5979 0
      vertex 17.108 10.718 0
    endloop
  endfacet
  facet normal 0 0 -1
    outer loop
      vertex 20 0 0
      vertex 16.5129 10.5246 0
      vertex 16.818 10.5979 0
    endloop
  endfacet
  facet normal 0 0 -1
    outer loop
      vertex 20 0 0
      vertex 16.2 10.5 0
      vertex 16.5129 10.5246 0
    endloop
  endfacet
  facet normal 0 0 -1
    outer loop
      vertex 20 0 0
      vertex 15.8871 10.5246 0
      vertex 16.2 10.5 0
    endloop
  endfacet
  facet normal 0 0 -1
    outer loop
      vertex 20 0 0
      vertex 15.582 10.5979 0
      vertex 15.8871 10.5246 0
    endloop
  endfacet
  facet normal 0 0 -1
    outer loop
      vertex 5.6 3 0
      vertex 15.582 10.5979 0
      vertex 20 0 0
    endloop
  endfacet
  facet normal 0 0 -1
    outer loop
      vertex 5.5803 3.25029 0
      vertex 15.582 10.5979 0
      vertex 5.6 3 0
    endloop
  endfacet
  facet normal -0 0 -1
    outer loop
      vertex 15.582 10.5979 0
      vertex 5.5803 3.25029 0
      vertex 15.292 10.718 0
    endloop
  endfacet
  facet normal 0 0 -1
    outer loop
      vertex 5.52169 3.49443 0
      vertex 15.292 10.718 0
      vertex 5.5803 3.25029 0
    endloop
  endfacet
  facet normal -0 0 -1
    outer loop
      vertex 15.292 10.718 0
      vertex 5.52169 3.49443 0
      vertex 15.0244 10.882 0
    endloop
  endfacet
  facet normal -0 0 -1
    outer loop
      vertex 14.7858 11.0858 0
      vertex 5.29443 3.94046 0
      vertex 14.582 11.3244 0
    endloop
  endfacet
  facet normal 0 0 -1
    outer loop
      vertex 5.29443 3.94046 0
      vertex 14.7858 11.0858 0
      vertex 5.42561 3.72638 0
    endloop
  endfacet
  facet normal -0 0 -1
    outer loop
      vertex 15.0244 10.882 0
      vertex 5.42561 3.72638 0
      vertex 14.7858 11.0858 0
    endloop
  endfacet
  facet normal 0 0 -1
    outer loop
      vertex 5.42561 3.72638 0
      vertex 15.0244 10.882 0
      vertex 5.52169 3.49443 0
    endloop
  endfacet
  facet normal 0 0 -1
    outer loop
      vertex 20 0 0
      vertex 5.5803 2.7497 0
      vertex 5.6 3 0
    endloop
  endfacet
  facet normal 0 0 -1
    outer loop
      vertex 20 0 0
      vertex 5.52169 2.50557 0
      vertex 5.5803 2.7497 0
    endloop
  endfacet
  facet normal 0 0 -1
    outer loop
      vertex 20 0 0
      vertex 5.42561 2.27361 0
      vertex 5.52169 2.50557 0
    endloop
  endfacet
  facet normal 0 0 -1
    outer loop
      vertex 20 0 0
      vertex 5.29443 2.05954 0
      vertex 5.42561 2.27361 0
    endloop
  endfacet
  facet normal 0 0 -1
    outer loop
      vertex 20 0 0
      vertex 5.13137 1.86863 0
      vertex 5.29443 2.05954 0
    endloop
  endfacet
  facet normal 0 0 -1
    outer loop
      vertex 20 0 0
      vertex 4.94046 1.70557 0
      vertex 5.13137 1.86863 0
    endloop
  endfacet
  facet normal 0 0 -1
    outer loop
      vertex 20 0 0
      vertex 4.72638 1.57439 0
      vertex 4.94046 1.70557 0
    endloop
  endfacet
  facet normal 0 0 -1
    outer loop
      vertex 20 0 0
      vertex 4.49443 1.47831 0
      vertex 4.72638 1.57439 0
    endloop
  endfacet
  facet normal 0 0 -1
    outer loop
      vertex 20 0 0
      vertex 4.25029 1.4197 0
      vertex 4.49443 1.47831 0
    endloop
  endfacet
  facet normal 0 0 -1
    outer loop
      vertex 0 0 0
      vertex 4.25029 1.4197 0
      vertex 20 0 0
    endloop
  endfacet
  facet normal 0 0 -1
    outer loop
      vertex 4.25029 1.4197 0
      vertex 0 0 0
      vertex 4 1.4 0
    endloop
  endfacet
  facet normal 0 0 -1
    outer loop
      vertex 2.47831 21.5056 0
      vertex 0 25 0
      vertex 2.4197 21.7497 0
    endloop
  endfacet
  facet normal -0 0 -1
    outer loop
      vertex 2.4197 2.7497 0
      vertex 0 0 0
      vertex 2.4 3 0
    endloop
  endfacet
  facet normal -0 0 -1
    outer loop
      vertex 2.47831 2.50557 0
      vertex 0 0 0
      vertex 2.4197 2.7497 0
    endloop
  endfacet
  facet normal -0 0 -1
    outer loop
      vertex 2.57439 2.27361 0
      vertex 0 0 0
      vertex 2.47831 2.50557 0
    endloop
  endfacet
  facet normal -0 0 -1
    outer loop
      vertex 2.70557 2.05954 0
      vertex 0 0 0
      vertex 2.57439 2.27361 0
    endloop
  endfacet
  facet normal -0 0 -1
    outer loop
      vertex 2.86863 1.86863 0
      vertex 0 0 0
      vertex 2.70557 2.05954 0
    endloop
  endfacet
  facet normal -0 0 -1
    outer loop
      vertex 3.05954 1.70557 0
      vertex 0 0 0
      vertex 2.86863 1.86863 0
    endloop
  endfacet
  facet normal -0 0 -1
    outer loop
      vertex 3.27361 1.57439 0
      vertex 0 0 0
      vertex 3.05954 1.70557 0
    endloop
  endfacet
  facet normal -0 0 -1
    outer loop
      vertex 3.50557 1.47831 0
      vertex 0 0 0
      vertex 3.27361 1.57439 0
    endloop
  endfacet
  facet normal -0 0 -1
    outer loop
      vertex 3.7497 1.4197 0
      vertex 0 0 0
      vertex 3.50557 1.47831 0
    endloop
  endfacet
  facet normal -0 0 -1
    outer loop
      vertex 4 1.4 0
      vertex 0 0 0
      vertex 3.7497 1.4197 0
    endloop
  endfacet
  facet normal 0 0 -1
    outer loop
      vertex 18.1754 12.8129 0
      vertex 20 25 0
      vertex 18.2 12.5 0
    endloop
  endfacet
  facet normal 0 0 -1
    outer loop
      vertex 18.1021 13.118 0
      vertex 20 25 0
      vertex 18.1754 12.8129 0
    endloop
  endfacet
  facet normal 0 0 -1
    outer loop
      vertex 17.982 13.408 0
      vertex 20 25 0
      vertex 18.1021 13.118 0
    endloop
  endfacet
  facet normal 0 0 -1
    outer loop
      vertex 17.818 13.6756 0
      vertex 20 25 0
      vertex 17.982 13.408 0
    endloop
  endfacet
  facet normal 0 0 -1
    outer loop
      vertex 17.6142 13.9142 0
      vertex 20 25 0
      vertex 17.818 13.6756 0
    endloop
  endfacet
  facet normal 0 0 -1
    outer loop
      vertex 17.3756 14.118 0
      vertex 20 25 0
      vertex 17.6142 13.9142 0
    endloop
  endfacet
  facet normal 0 0 -1
    outer loop
      vertex 17.108 14.282 0
      vertex 20 25 0
      vertex 17.3756 14.118 0
    endloop
  endfacet
  facet normal 0 0 -1
    outer loop
      vertex 16.818 14.4021 0
      vertex 20 25 0
      vertex 17.108 14.282 0
    endloop
  endfacet
  facet normal 0 0 -1
    outer loop
      vertex 16.5129 14.4754 0
      vertex 20 25 0
      vertex 16.818 14.4021 0
    endloop
  endfacet
  facet normal 0 0 -1
    outer loop
      vertex 16.2 14.5 0
      vertex 20 25 0
      vertex 16.5129 14.4754 0
    endloop
  endfacet
  facet normal 0 0 -1
    outer loop
      vertex 15.8871 14.4754 0
      vertex 20 25 0
      vertex 16.2 14.5 0
    endloop
  endfacet
  facet normal 0 0 -1
    outer loop
      vertex 15.582 14.4021 0
      vertex 20 25 0
      vertex 15.8871 14.4754 0
    endloop
  endfacet
  facet normal 0 0 -1
    outer loop
      vertex 5.6 22 0
      vertex 15.582 14.4021 0
      vertex 15.292 14.282 0
    endloop
  endfacet
  facet normal 0 0 -1
    outer loop
      vertex 5.6 22 0
      vertex 15.292 14.282 0
      vertex 15.0244 14.118 0
    endloop
  endfacet
  facet normal 0 0 -1
    outer loop
      vertex 5.6 22 0
      vertex 15.0244 14.118 0
      vertex 14.7858 13.9142 0
    endloop
  endfacet
  facet normal 0 0 -1
    outer loop
      vertex 5.6 22 0
      vertex 14.7858 13.9142 0
      vertex 14.582 13.6756 0
    endloop
  endfacet
  facet normal 0 0 -1
    outer loop
      vertex 5.6 22 0
      vertex 14.582 13.6756 0
      vertex 14.418 13.408 0
    endloop
  endfacet
  facet normal 0 0 -1
    outer loop
      vertex 5.13137 4.13137 0
      vertex 14.582 11.3244 0
      vertex 5.29443 3.94046 0
    endloop
  endfacet
  facet normal 0 0 -1
    outer loop
      vertex 14.2 12.5 0
      vertex 5.6 22 0
      vertex 14.2246 12.8129 0
    endloop
  endfacet
  facet normal 0 0 -1
    outer loop
      vertex 14.2246 12.8129 0
      vertex 5.6 22 0
      vertex 14.2979 13.118 0
    endloop
  endfacet
  facet normal 0 0 -1
    outer loop
      vertex 14.2979 13.118 0
      vertex 5.6 22 0
      vertex 14.418 13.408 0
    endloop
  endfacet
  facet normal 0 0 -1
    outer loop
      vertex 15.582 14.4021 0
      vertex 5.6 22 0
      vertex 20 25 0
    endloop
  endfacet
  facet normal 0 0 -1
    outer loop
      vertex 5.5803 22.2503 0
      vertex 20 25 0
      vertex 5.6 22 0
    endloop
  endfacet
  facet normal 0 0 -1
    outer loop
      vertex 5.52169 22.4944 0
      vertex 20 25 0
      vertex 5.5803 22.2503 0
    endloop
  endfacet
  facet normal 0 0 -1
    outer loop
      vertex 5.42561 22.7264 0
      vertex 20 25 0
      vertex 5.52169 22.4944 0
    endloop
  endfacet
  facet normal 0 0 -1
    outer loop
      vertex 5.29443 22.9405 0
      vertex 20 25 0
      vertex 5.42561 22.7264 0
    endloop
  endfacet
  facet normal 0 0 -1
    outer loop
      vertex 5.13137 23.1314 0
      vertex 20 25 0
      vertex 5.29443 22.9405 0
    endloop
  endfacet
  facet normal 0 0 -1
    outer loop
      vertex 4.94046 23.2944 0
      vertex 20 25 0
      vertex 5.13137 23.1314 0
    endloop
  endfacet
  facet normal 0 0 -1
    outer loop
      vertex 4.72638 23.4256 0
      vertex 20 25 0
      vertex 4.94046 23.2944 0
    endloop
  endfacet
  facet normal 0 0 -1
    outer loop
      vertex 4.49443 23.5217 0
      vertex 20 25 0
      vertex 4.72638 23.4256 0
    endloop
  endfacet
  facet normal 0 0 -1
    outer loop
      vertex 4.25029 23.5803 0
      vertex 20 25 0
      vertex 4.49443 23.5217 0
    endloop
  endfacet
  facet normal 0 0 -1
    outer loop
      vertex 0 25 0
      vertex 4.25029 23.5803 0
      vertex 4 23.6 0
    endloop
  endfacet
  facet normal 0 0 -1
    outer loop
      vertex 0 25 0
      vertex 4 23.6 0
      vertex 3.7497 23.5803 0
    endloop
  endfacet
  facet normal 0 0 -1
    outer loop
      vertex 2.4197 21.7497 0
      vertex 0 25 0
      vertex 2.4 22 0
    endloop
  endfacet
  facet normal 0 0 -1
    outer loop
      vertex 4.25029 23.5803 0
      vertex 0 25 0
      vertex 20 25 0
    endloop
  endfacet
  facet normal 0 0 -1
    outer loop
      vertex 3.50557 23.5217 0
      vertex 0 25 0
      vertex 3.7497 23.5803 0
    endloop
  endfacet
  facet normal 0 0 -1
    outer loop
      vertex 3.27361 23.4256 0
      vertex 0 25 0
      vertex 3.50557 23.5217 0
    endloop
  endfacet
  facet normal 0 0 -1
    outer loop
      vertex 3.05954 23.2944 0
      vertex 0 25 0
      vertex 3.27361 23.4256 0
    endloop
  endfacet
  facet normal 0 0 -1
    outer loop
      vertex 2.86863 23.1314 0
      vertex 0 25 0
      vertex 3.05954 23.2944 0
    endloop
  endfacet
  facet normal 0 0 -1
    outer loop
      vertex 2.70557 22.9405 0
      vertex 0 25 0
      vertex 2.86863 23.1314 0
    endloop
  endfacet
  facet normal 0 0 -1
    outer loop
      vertex 2.57439 22.7264 0
      vertex 0 25 0
      vertex 2.70557 22.9405 0
    endloop
  endfacet
  facet normal 0 0 -1
    outer loop
      vertex 2.47831 22.4944 0
      vertex 0 25 0
      vertex 2.57439 22.7264 0
    endloop
  endfacet
  facet normal 0 0 -1
    outer loop
      vertex 2.4197 22.2503 0
      vertex 0 25 0
      vertex 2.47831 22.4944 0
    endloop
  endfacet
  facet normal 0 0 -1
    outer loop
      vertex 2.4 22 0
      vertex 0 25 0
      vertex 2.4197 22.2503 0
    endloop
  endfacet
  facet normal 0 -1 0
    outer loop
      vertex 0 0 0
      vertex 20 0 4
      vertex 0 0 4
    endloop
  endfacet
  facet normal 0 -1 -0
    outer loop
      vertex 20 0 4
      vertex 0 0 0
      vertex 20 0 0
    endloop
  endfacet
  facet normal 0 1 -0
    outer loop
      vertex 20 25 0
      vertex 0 25 4
      vertex 20 25 4
    endloop
  endfacet
  facet normal 0 1 0
    outer loop
      vertex 0 25 4
      vertex 20 25 0
      vertex 0 25 0
    endloop
  endfacet
  facet normal -0.996917 -0.0784572 0
    outer loop
      vertex 5.6 3 0
      vertex 5.5803 3.25029 4
      vertex 5.5803 3.25029 0
    endloop
  endfacet
  facet normal -0.996917 -0.0784572 0
    outer loop
      vertex 5.5803 3.25029 4
      vertex 5.6 3 0
      vertex 5.6 3 4
    endloop
  endfacet
  facet normal 0.996918 0.0784569 0
    outer loop
      vertex 2.4197 2.7497 4
      vertex 2.4 3 0
      vertex 2.4 3 4
    endloop
  endfacet
  facet normal 0.996918 0.0784569 0
    outer loop
      vertex 2.4 3 0
      vertex 2.4197 2.7497 4
      vertex 2.4197 2.7497 0
    endloop
  endfacet
  facet normal 0.0784569 -0.996918 0
    outer loop
      vertex 3.7497 4.5803 0
      vertex 4 4.6 4
      vertex 3.7497 4.5803 4
    endloop
  endfacet
  facet normal 0.0784569 -0.996918 0
    outer loop
      vertex 4 4.6 4
      vertex 3.7497 4.5803 0
      vertex 4 4.6 0
    endloop
  endfacet
  facet normal -0.0784569 0.996918 0
    outer loop
      vertex 4.25029 1.4197 0
      vertex 4 1.4 4
      vertex 4.25029 1.4197 4
    endloop
  endfacet
  facet normal -0.0784569 0.996918 0
    outer loop
      vertex 4 1.4 4
      vertex 4.25029 1.4197 0
      vertex 4 1.4 0
    endloop
  endfacet
  facet normal 0.649449 0.760405 -0
    outer loop
      vertex 3.05954 1.70557 0
      vertex 2.86863 1.86863 4
      vertex 3.05954 1.70557 4
    endloop
  endfacet
  facet normal 0.649449 0.760405 0
    outer loop
      vertex 2.86863 1.86863 4
      vertex 3.05954 1.70557 0
      vertex 2.86863 1.86863 0
    endloop
  endfacet
  facet normal -0.649449 -0.760405 0
    outer loop
      vertex 4.94046 4.29443 0
      vertex 5.13137 4.13137 4
      vertex 4.94046 4.29443 4
    endloop
  endfacet
  facet normal -0.649449 -0.760405 -0
    outer loop
      vertex 5.13137 4.13137 4
      vertex 4.94046 4.29443 0
      vertex 5.13137 4.13137 0
    endloop
  endfacet
  facet normal 0.760405 -0.649449 0
    outer loop
      vertex 2.70557 3.94046 4
      vertex 2.86863 4.13137 0
      vertex 2.86863 4.13137 4
    endloop
  endfacet
  facet normal 0.760405 -0.649449 0
    outer loop
      vertex 2.86863 4.13137 0
      vertex 2.70557 3.94046 4
      vertex 2.70557 3.94046 0
    endloop
  endfacet
  facet normal 0.522496 -0.852642 0
    outer loop
      vertex 3.05954 4.29443 0
      vertex 3.27361 4.42561 4
      vertex 3.05954 4.29443 4
    endloop
  endfacet
  facet normal 0.522496 -0.852642 0
    outer loop
      vertex 3.27361 4.42561 4
      vertex 3.05954 4.29443 0
      vertex 3.27361 4.42561 0
    endloop
  endfacet
  facet normal -0.760405 0.649449 0
    outer loop
      vertex 5.13137 1.86863 0
      vertex 5.29443 2.05954 4
      vertex 5.29443 2.05954 0
    endloop
  endfacet
  facet normal -0.760405 0.649449 0
    outer loop
      vertex 5.29443 2.05954 4
      vertex 5.13137 1.86863 0
      vertex 5.13137 1.86863 4
    endloop
  endfacet
  facet normal -0.852642 -0.522496 0
    outer loop
      vertex 5.42561 3.72638 0
      vertex 5.29443 3.94046 4
      vertex 5.29443 3.94046 0
    endloop
  endfacet
  facet normal -0.852642 -0.522496 0
    outer loop
      vertex 5.29443 3.94046 4
      vertex 5.42561 3.72638 0
      vertex 5.42561 3.72638 4
    endloop
  endfacet
  facet normal -0.97237 -0.233445 0
    outer loop
      vertex 5.5803 3.25029 0
      vertex 5.52169 3.49443 4
      vertex 5.52169 3.49443 0
    endloop
  endfacet
  facet normal -0.97237 -0.233445 0
    outer loop
      vertex 5.52169 3.49443 4
      vertex 5.5803 3.25029 0
      vertex 5.5803 3.25029 4
    endloop
  endfacet
  facet normal -0.760405 -0.649449 0
    outer loop
      vertex 5.29443 3.94046 0
      vertex 5.13137 4.13137 4
      vertex 5.13137 4.13137 0
    endloop
  endfacet
  facet normal -0.760405 -0.649449 0
    outer loop
      vertex 5.13137 4.13137 4
      vertex 5.29443 3.94046 0
      vertex 5.29443 3.94046 4
    endloop
  endfacet
  facet normal -0.382686 -0.923878 0
    outer loop
      vertex 4.49443 4.52169 0
      vertex 4.72638 4.42561 4
      vertex 4.49443 4.52169 4
    endloop
  endfacet
  facet normal -0.382686 -0.923878 -0
    outer loop
      vertex 4.72638 4.42561 4
      vertex 4.49443 4.52169 0
      vertex 4.72638 4.42561 0
    endloop
  endfacet
  facet normal -0.233445 -0.97237 0
    outer loop
      vertex 4.25029 4.5803 0
      vertex 4.49443 4.52169 4
      vertex 4.25029 4.5803 4
    endloop
  endfacet
  facet normal -0.233445 -0.97237 -0
    outer loop
      vertex 4.49443 4.52169 4
      vertex 4.25029 4.5803 0
      vertex 4.49443 4.52169 0
    endloop
  endfacet
  facet normal -0.522496 -0.852642 0
    outer loop
      vertex 4.72638 4.42561 0
      vertex 4.94046 4.29443 4
      vertex 4.72638 4.42561 4
    endloop
  endfacet
  facet normal -0.522496 -0.852642 -0
    outer loop
      vertex 4.94046 4.29443 4
      vertex 4.72638 4.42561 0
      vertex 4.94046 4.29443 0
    endloop
  endfacet
  facet normal 0.923878 -0.382686 0
    outer loop
      vertex 2.47831 3.49443 4
      vertex 2.57439 3.72638 0
      vertex 2.57439 3.72638 4
    endloop
  endfacet
  facet normal 0.923878 -0.382686 0
    outer loop
      vertex 2.57439 3.72638 0
      vertex 2.47831 3.49443 4
      vertex 2.47831 3.49443 0
    endloop
  endfacet
  facet normal 0.852642 -0.522496 0
    outer loop
      vertex 2.57439 3.72638 4
      vertex 2.70557 3.94046 0
      vertex 2.70557 3.94046 4
    endloop
  endfacet
  facet normal 0.852642 -0.522496 0
    outer loop
      vertex 2.70557 3.94046 0
      vertex 2.57439 3.72638 4
      vertex 2.57439 3.72638 0
    endloop
  endfacet
  facet normal 0.97237 -0.233445 0
    outer loop
      vertex 2.4197 3.25029 4
      vertex 2.47831 3.49443 0
      vertex 2.47831 3.49443 4
    endloop
  endfacet
  facet normal 0.97237 -0.233445 0
    outer loop
      vertex 2.47831 3.49443 0
      vertex 2.4197 3.25029 4
      vertex 2.4197 3.25029 0
    endloop
  endfacet
  facet normal 0.649449 -0.760405 0
    outer loop
      vertex 2.86863 4.13137 0
      vertex 3.05954 4.29443 4
      vertex 2.86863 4.13137 4
    endloop
  endfacet
  facet normal 0.649449 -0.760405 0
    outer loop
      vertex 3.05954 4.29443 4
      vertex 2.86863 4.13137 0
      vertex 3.05954 4.29443 0
    endloop
  endfacet
  facet normal 0.233445 -0.97237 0
    outer loop
      vertex 3.50557 4.52169 0
      vertex 3.7497 4.5803 4
      vertex 3.50557 4.52169 4
    endloop
  endfacet
  facet normal 0.233445 -0.97237 0
    outer loop
      vertex 3.7497 4.5803 4
      vertex 3.50557 4.52169 0
      vertex 3.7497 4.5803 0
    endloop
  endfacet
  facet normal -0.233445 0.97237 0
    outer loop
      vertex 4.49443 1.47831 0
      vertex 4.25029 1.4197 4
      vertex 4.49443 1.47831 4
    endloop
  endfacet
  facet normal -0.233445 0.97237 0
    outer loop
      vertex 4.25029 1.4197 4
      vertex 4.49443 1.47831 0
      vertex 4.25029 1.4197 0
    endloop
  endfacet
  facet normal -0.649449 0.760405 0
    outer loop
      vertex 5.13137 1.86863 0
      vertex 4.94046 1.70557 4
      vertex 5.13137 1.86863 4
    endloop
  endfacet
  facet normal -0.649449 0.760405 0
    outer loop
      vertex 4.94046 1.70557 4
      vertex 5.13137 1.86863 0
      vertex 4.94046 1.70557 0
    endloop
  endfacet
  facet normal -0.97237 0.233445 0
    outer loop
      vertex 5.52169 2.50557 0
      vertex 5.5803 2.7497 4
      vertex 5.5803 2.7497 0
    endloop
  endfacet
  facet normal -0.97237 0.233445 0
    outer loop
      vertex 5.5803 2.7497 4
      vertex 5.52169 2.50557 0
      vertex 5.52169 2.50557 4
    endloop
  endfacet
  facet normal 0.522496 0.852642 -0
    outer loop
      vertex 3.27361 1.57439 0
      vertex 3.05954 1.70557 4
      vertex 3.27361 1.57439 4
    endloop
  endfacet
  facet normal 0.522496 0.852642 0
    outer loop
      vertex 3.05954 1.70557 4
      vertex 3.27361 1.57439 0
      vertex 3.05954 1.70557 0
    endloop
  endfacet
  facet normal 0.233445 0.97237 -0
    outer loop
      vertex 3.7497 1.4197 0
      vertex 3.50557 1.47831 4
      vertex 3.7497 1.4197 4
    endloop
  endfacet
  facet normal 0.233445 0.97237 0
    outer loop
      vertex 3.50557 1.47831 4
      vertex 3.7497 1.4197 0
      vertex 3.50557 1.47831 0
    endloop
  endfacet
  facet normal 0.760405 0.649449 0
    outer loop
      vertex 2.86863 1.86863 4
      vertex 2.70557 2.05954 0
      vertex 2.70557 2.05954 4
    endloop
  endfacet
  facet normal 0.760405 0.649449 0
    outer loop
      vertex 2.70557 2.05954 0
      vertex 2.86863 1.86863 4
      vertex 2.86863 1.86863 0
    endloop
  endfacet
  facet normal 0.97237 0.233445 0
    outer loop
      vertex 2.47831 2.50557 4
      vertex 2.4197 2.7497 0
      vertex 2.4197 2.7497 4
    endloop
  endfacet
  facet normal 0.97237 0.233445 0
    outer loop
      vertex 2.4197 2.7497 0
      vertex 2.47831 2.50557 4
      vertex 2.47831 2.50557 0
    endloop
  endfacet
  facet normal -0.923878 -0.382686 0
    outer loop
      vertex 5.52169 3.49443 0
      vertex 5.42561 3.72638 4
      vertex 5.42561 3.72638 0
    endloop
  endfacet
  facet normal -0.923878 -0.382686 0
    outer loop
      vertex 5.42561 3.72638 4
      vertex 5.52169 3.49443 0
      vertex 5.52169 3.49443 4
    endloop
  endfacet
  facet normal -0.0784572 -0.996917 0
    outer loop
      vertex 4 4.6 0
      vertex 4.25029 4.5803 4
      vertex 4 4.6 4
    endloop
  endfacet
  facet normal -0.0784572 -0.996917 -0
    outer loop
      vertex 4.25029 4.5803 4
      vertex 4 4.6 0
      vertex 4.25029 4.5803 0
    endloop
  endfacet
  facet normal 0.996917 -0.0784572 0
    outer loop
      vertex 2.4 3 4
      vertex 2.4197 3.25029 0
      vertex 2.4197 3.25029 4
    endloop
  endfacet
  facet normal 0.996917 -0.0784572 0
    outer loop
      vertex 2.4197 3.25029 0
      vertex 2.4 3 4
      vertex 2.4 3 0
    endloop
  endfacet
  facet normal 0.382686 -0.923878 0
    outer loop
      vertex 3.27361 4.42561 0
      vertex 3.50557 4.52169 4
      vertex 3.27361 4.42561 4
    endloop
  endfacet
  facet normal 0.382686 -0.923878 0
    outer loop
      vertex 3.50557 4.52169 4
      vertex 3.27361 4.42561 0
      vertex 3.50557 4.52169 0
    endloop
  endfacet
  facet normal -0.996918 0.0784569 0
    outer loop
      vertex 5.5803 2.7497 0
      vertex 5.6 3 4
      vertex 5.6 3 0
    endloop
  endfacet
  facet normal -0.996918 0.0784569 0
    outer loop
      vertex 5.6 3 4
      vertex 5.5803 2.7497 0
      vertex 5.5803 2.7497 4
    endloop
  endfacet
  facet normal -0.382686 0.923878 0
    outer loop
      vertex 4.72638 1.57439 0
      vertex 4.49443 1.47831 4
      vertex 4.72638 1.57439 4
    endloop
  endfacet
  facet normal -0.382686 0.923878 0
    outer loop
      vertex 4.49443 1.47831 4
      vertex 4.72638 1.57439 0
      vertex 4.49443 1.47831 0
    endloop
  endfacet
  facet normal -0.923878 0.382686 0
    outer loop
      vertex 5.42561 2.27361 0
      vertex 5.52169 2.50557 4
      vertex 5.52169 2.50557 0
    endloop
  endfacet
  facet normal -0.923878 0.382686 0
    outer loop
      vertex 5.52169 2.50557 4
      vertex 5.42561 2.27361 0
      vertex 5.42561 2.27361 4
    endloop
  endfacet
  facet normal -0.852642 0.522496 0
    outer loop
      vertex 5.29443 2.05954 0
      vertex 5.42561 2.27361 4
      vertex 5.42561 2.27361 0
    endloop
  endfacet
  facet normal -0.852642 0.522496 0
    outer loop
      vertex 5.42561 2.27361 4
      vertex 5.29443 2.05954 0
      vertex 5.29443 2.05954 4
    endloop
  endfacet
  facet normal 0.382686 0.923878 -0
    outer loop
      vertex 3.50557 1.47831 0
      vertex 3.27361 1.57439 4
      vertex 3.50557 1.47831 4
    endloop
  endfacet
  facet normal 0.382686 0.923878 0
    outer loop
      vertex 3.27361 1.57439 4
      vertex 3.50557 1.47831 0
      vertex 3.27361 1.57439 0
    endloop
  endfacet
  facet normal 0.0784572 0.996917 -0
    outer loop
      vertex 4 1.4 0
      vertex 3.7497 1.4197 4
      vertex 4 1.4 4
    endloop
  endfacet
  facet normal 0.0784572 0.996917 0
    outer loop
      vertex 3.7497 1.4197 4
      vertex 4 1.4 0
      vertex 3.7497 1.4197 0
    endloop
  endfacet
  facet normal 0.923878 0.382686 0
    outer loop
      vertex 2.57439 2.27361 4
      vertex 2.47831 2.50557 0
      vertex 2.47831 2.50557 4
    endloop
  endfacet
  facet normal 0.923878 0.382686 0
    outer loop
      vertex 2.47831 2.50557 0
      vertex 2.57439 2.27361 4
      vertex 2.57439 2.27361 0
    endloop
  endfacet
  facet normal -0.522496 0.852642 0
    outer loop
      vertex 4.94046 1.70557 0
      vertex 4.72638 1.57439 4
      vertex 4.94046 1.70557 4
    endloop
  endfacet
  facet normal -0.522496 0.852642 0
    outer loop
      vertex 4.72638 1.57439 4
      vertex 4.94046 1.70557 0
      vertex 4.72638 1.57439 0
    endloop
  endfacet
  facet normal 0.852642 0.522496 0
    outer loop
      vertex 2.70557 2.05954 4
      vertex 2.57439 2.27361 0
      vertex 2.57439 2.27361 4
    endloop
  endfacet
  facet normal 0.852642 0.522496 0
    outer loop
      vertex 2.57439 2.27361 0
      vertex 2.70557 2.05954 4
      vertex 2.70557 2.05954 0
    endloop
  endfacet
  facet normal -0.522499 -0.85264 0
    outer loop
      vertex 4.72638 23.4256 0
      vertex 4.94046 23.2944 4
      vertex 4.72638 23.4256 4
    endloop
  endfacet
  facet normal -0.522499 -0.85264 -0
    outer loop
      vertex 4.94046 23.2944 4
      vertex 4.72638 23.4256 0
      vertex 4.94046 23.2944 0
    endloop
  endfacet
  facet normal 0.97237 -0.233444 0
    outer loop
      vertex 2.4197 22.2503 4
      vertex 2.47831 22.4944 0
      vertex 2.47831 22.4944 4
    endloop
  endfacet
  facet normal 0.97237 -0.233444 0
    outer loop
      vertex 2.47831 22.4944 0
      vertex 2.4197 22.2503 4
      vertex 2.4197 22.2503 0
    endloop
  endfacet
  facet normal -0.97237 0.233446 0
    outer loop
      vertex 5.52169 21.5056 0
      vertex 5.5803 21.7497 4
      vertex 5.5803 21.7497 0
    endloop
  endfacet
  facet normal -0.97237 0.233446 0
    outer loop
      vertex 5.5803 21.7497 4
      vertex 5.52169 21.5056 0
      vertex 5.52169 21.5056 4
    endloop
  endfacet
  facet normal 0.233453 0.972368 -0
    outer loop
      vertex 3.7497 20.4197 0
      vertex 3.50557 20.4783 4
      vertex 3.7497 20.4197 4
    endloop
  endfacet
  facet normal 0.233453 0.972368 0
    outer loop
      vertex 3.50557 20.4783 4
      vertex 3.7497 20.4197 0
      vertex 3.50557 20.4783 0
    endloop
  endfacet
  facet normal 0.522499 -0.85264 0
    outer loop
      vertex 3.05954 23.2944 0
      vertex 3.27361 23.4256 4
      vertex 3.05954 23.2944 4
    endloop
  endfacet
  facet normal 0.522499 -0.85264 0
    outer loop
      vertex 3.27361 23.4256 4
      vertex 3.05954 23.2944 0
      vertex 3.27361 23.4256 0
    endloop
  endfacet
  facet normal 0.923878 -0.382688 0
    outer loop
      vertex 2.47831 22.4944 4
      vertex 2.57439 22.7264 0
      vertex 2.57439 22.7264 4
    endloop
  endfacet
  facet normal 0.923878 -0.382688 0
    outer loop
      vertex 2.57439 22.7264 0
      vertex 2.47831 22.4944 4
      vertex 2.47831 22.4944 0
    endloop
  endfacet
  facet normal 0.852641 0.522497 0
    outer loop
      vertex 2.70557 21.0595 4
      vertex 2.57439 21.2736 0
      vertex 2.57439 21.2736 4
    endloop
  endfacet
  facet normal 0.852641 0.522497 0
    outer loop
      vertex 2.57439 21.2736 0
      vertex 2.70557 21.0595 4
      vertex 2.70557 21.0595 0
    endloop
  endfacet
  facet normal -0.852643 -0.522494 0
    outer loop
      vertex 5.42561 22.7264 0
      vertex 5.29443 22.9405 4
      vertex 5.29443 22.9405 0
    endloop
  endfacet
  facet normal -0.852643 -0.522494 0
    outer loop
      vertex 5.29443 22.9405 4
      vertex 5.42561 22.7264 0
      vertex 5.42561 22.7264 4
    endloop
  endfacet
  facet normal -0.97237 -0.233444 0
    outer loop
      vertex 5.5803 22.2503 0
      vertex 5.52169 22.4944 4
      vertex 5.52169 22.4944 0
    endloop
  endfacet
  facet normal -0.97237 -0.233444 0
    outer loop
      vertex 5.52169 22.4944 4
      vertex 5.5803 22.2503 0
      vertex 5.5803 22.2503 4
    endloop
  endfacet
  facet normal -0.760405 -0.649449 0
    outer loop
      vertex 5.29443 22.9405 0
      vertex 5.13137 23.1314 4
      vertex 5.13137 23.1314 0
    endloop
  endfacet
  facet normal -0.760405 -0.649449 0
    outer loop
      vertex 5.13137 23.1314 4
      vertex 5.29443 22.9405 0
      vertex 5.29443 22.9405 4
    endloop
  endfacet
  facet normal -0.649447 -0.760407 0
    outer loop
      vertex 4.94046 23.2944 0
      vertex 5.13137 23.1314 4
      vertex 4.94046 23.2944 4
    endloop
  endfacet
  facet normal -0.649447 -0.760407 -0
    outer loop
      vertex 5.13137 23.1314 4
      vertex 4.94046 23.2944 0
      vertex 5.13137 23.1314 0
    endloop
  endfacet
  facet normal -0.382686 -0.923878 0
    outer loop
      vertex 4.49443 23.5217 0
      vertex 4.72638 23.4256 4
      vertex 4.49443 23.5217 4
    endloop
  endfacet
  facet normal -0.382686 -0.923878 -0
    outer loop
      vertex 4.72638 23.4256 4
      vertex 4.49443 23.5217 0
      vertex 4.72638 23.4256 0
    endloop
  endfacet
  facet normal -0.0784534 -0.996918 0
    outer loop
      vertex 4 23.6 0
      vertex 4.25029 23.5803 4
      vertex 4 23.6 4
    endloop
  endfacet
  facet normal -0.0784534 -0.996918 -0
    outer loop
      vertex 4.25029 23.5803 4
      vertex 4 23.6 0
      vertex 4.25029 23.5803 0
    endloop
  endfacet
  facet normal 0.996917 -0.0784575 0
    outer loop
      vertex 2.4 22 4
      vertex 2.4197 22.2503 0
      vertex 2.4197 22.2503 4
    endloop
  endfacet
  facet normal 0.996917 -0.0784575 0
    outer loop
      vertex 2.4197 22.2503 0
      vertex 2.4 22 4
      vertex 2.4 22 0
    endloop
  endfacet
  facet normal 0.852643 -0.522494 0
    outer loop
      vertex 2.57439 22.7264 4
      vertex 2.70557 22.9405 0
      vertex 2.70557 22.9405 4
    endloop
  endfacet
  facet normal 0.852643 -0.522494 0
    outer loop
      vertex 2.70557 22.9405 0
      vertex 2.57439 22.7264 4
      vertex 2.57439 22.7264 0
    endloop
  endfacet
  facet normal 0.649447 -0.760407 0
    outer loop
      vertex 2.86863 23.1314 0
      vertex 3.05954 23.2944 4
      vertex 2.86863 23.1314 4
    endloop
  endfacet
  facet normal 0.649447 -0.760407 0
    outer loop
      vertex 3.05954 23.2944 4
      vertex 2.86863 23.1314 0
      vertex 3.05954 23.2944 0
    endloop
  endfacet
  facet normal 0.233445 -0.97237 0
    outer loop
      vertex 3.50557 23.5217 0
      vertex 3.7497 23.5803 4
      vertex 3.50557 23.5217 4
    endloop
  endfacet
  facet normal 0.233445 -0.97237 0
    outer loop
      vertex 3.7497 23.5803 4
      vertex 3.50557 23.5217 0
      vertex 3.7497 23.5803 0
    endloop
  endfacet
  facet normal 0.760405 -0.649449 0
    outer loop
      vertex 2.70557 22.9405 4
      vertex 2.86863 23.1314 0
      vertex 2.86863 23.1314 4
    endloop
  endfacet
  facet normal 0.760405 -0.649449 0
    outer loop
      vertex 2.86863 23.1314 0
      vertex 2.70557 22.9405 4
      vertex 2.70557 22.9405 0
    endloop
  endfacet
  facet normal -0.996918 0.0784569 0
    outer loop
      vertex 5.5803 21.7497 0
      vertex 5.6 22 4
      vertex 5.6 22 0
    endloop
  endfacet
  facet normal -0.996918 0.0784569 0
    outer loop
      vertex 5.6 22 4
      vertex 5.5803 21.7497 0
      vertex 5.5803 21.7497 4
    endloop
  endfacet
  facet normal -0.233453 0.972368 0
    outer loop
      vertex 4.49443 20.4783 0
      vertex 4.25029 20.4197 4
      vertex 4.49443 20.4783 4
    endloop
  endfacet
  facet normal -0.233453 0.972368 0
    outer loop
      vertex 4.25029 20.4197 4
      vertex 4.49443 20.4783 0
      vertex 4.25029 20.4197 0
    endloop
  endfacet
  facet normal -0.522493 0.852644 0
    outer loop
      vertex 4.94046 20.7056 0
      vertex 4.72638 20.5744 4
      vertex 4.94046 20.7056 4
    endloop
  endfacet
  facet normal -0.522493 0.852644 0
    outer loop
      vertex 4.72638 20.5744 4
      vertex 4.94046 20.7056 0
      vertex 4.72638 20.5744 0
    endloop
  endfacet
  facet normal -0.649451 0.760404 0
    outer loop
      vertex 5.13137 20.8686 0
      vertex 4.94046 20.7056 4
      vertex 5.13137 20.8686 4
    endloop
  endfacet
  facet normal -0.649451 0.760404 0
    outer loop
      vertex 4.94046 20.7056 4
      vertex 5.13137 20.8686 0
      vertex 4.94046 20.7056 0
    endloop
  endfacet
  facet normal -0.852641 0.522497 0
    outer loop
      vertex 5.29443 21.0595 0
      vertex 5.42561 21.2736 4
      vertex 5.42561 21.2736 0
    endloop
  endfacet
  facet normal -0.852641 0.522497 0
    outer loop
      vertex 5.42561 21.2736 4
      vertex 5.29443 21.0595 0
      vertex 5.29443 21.0595 4
    endloop
  endfacet
  facet normal 0.0784534 0.996918 -0
    outer loop
      vertex 4 20.4 0
      vertex 3.7497 20.4197 4
      vertex 4 20.4 4
    endloop
  endfacet
  facet normal 0.0784534 0.996918 0
    outer loop
      vertex 3.7497 20.4197 4
      vertex 4 20.4 0
      vertex 3.7497 20.4197 0
    endloop
  endfacet
  facet normal 0.522493 0.852644 -0
    outer loop
      vertex 3.27361 20.5744 0
      vertex 3.05954 20.7056 4
      vertex 3.27361 20.5744 4
    endloop
  endfacet
  facet normal 0.522493 0.852644 0
    outer loop
      vertex 3.05954 20.7056 4
      vertex 3.27361 20.5744 0
      vertex 3.05954 20.7056 0
    endloop
  endfacet
  facet normal 0.760405 0.649449 0
    outer loop
      vertex 2.86863 20.8686 4
      vertex 2.70557 21.0595 0
      vertex 2.70557 21.0595 4
    endloop
  endfacet
  facet normal 0.760405 0.649449 0
    outer loop
      vertex 2.70557 21.0595 0
      vertex 2.86863 20.8686 4
      vertex 2.86863 20.8686 0
    endloop
  endfacet
  facet normal 0.97237 0.233446 0
    outer loop
      vertex 2.47831 21.5056 4
      vertex 2.4197 21.7497 0
      vertex 2.4197 21.7497 4
    endloop
  endfacet
  facet normal 0.97237 0.233446 0
    outer loop
      vertex 2.4197 21.7497 0
      vertex 2.47831 21.5056 4
      vertex 2.47831 21.5056 0
    endloop
  endfacet
  facet normal 0.649451 0.760404 -0
    outer loop
      vertex 3.05954 20.7056 0
      vertex 2.86863 20.8686 4
      vertex 3.05954 20.7056 4
    endloop
  endfacet
  facet normal 0.649451 0.760404 0
    outer loop
      vertex 2.86863 20.8686 4
      vertex 3.05954 20.7056 0
      vertex 2.86863 20.8686 0
    endloop
  endfacet
  facet normal -0.923878 -0.382688 0
    outer loop
      vertex 5.52169 22.4944 0
      vertex 5.42561 22.7264 4
      vertex 5.42561 22.7264 0
    endloop
  endfacet
  facet normal -0.923878 -0.382688 0
    outer loop
      vertex 5.42561 22.7264 4
      vertex 5.52169 22.4944 0
      vertex 5.52169 22.4944 4
    endloop
  endfacet
  facet normal 0.0784531 -0.996918 0
    outer loop
      vertex 3.7497 23.5803 0
      vertex 4 23.6 4
      vertex 3.7497 23.5803 4
    endloop
  endfacet
  facet normal 0.0784531 -0.996918 0
    outer loop
      vertex 4 23.6 4
      vertex 3.7497 23.5803 0
      vertex 4 23.6 0
    endloop
  endfacet
  facet normal -0.233445 -0.97237 0
    outer loop
      vertex 4.25029 23.5803 0
      vertex 4.49443 23.5217 4
      vertex 4.25029 23.5803 4
    endloop
  endfacet
  facet normal -0.233445 -0.97237 -0
    outer loop
      vertex 4.49443 23.5217 4
      vertex 4.25029 23.5803 0
      vertex 4.49443 23.5217 0
    endloop
  endfacet
  facet normal 0.382686 -0.923878 0
    outer loop
      vertex 3.27361 23.4256 0
      vertex 3.50557 23.5217 4
      vertex 3.27361 23.4256 4
    endloop
  endfacet
  facet normal 0.382686 -0.923878 0
    outer loop
      vertex 3.50557 23.5217 4
      vertex 3.27361 23.4256 0
      vertex 3.50557 23.5217 0
    endloop
  endfacet
  facet normal -0.996917 -0.0784575 0
    outer loop
      vertex 5.6 22 0
      vertex 5.5803 22.2503 4
      vertex 5.5803 22.2503 0
    endloop
  endfacet
  facet normal -0.996917 -0.0784575 0
    outer loop
      vertex 5.5803 22.2503 4
      vertex 5.6 22 0
      vertex 5.6 22 4
    endloop
  endfacet
  facet normal -0.382686 0.923878 0
    outer loop
      vertex 4.72638 20.5744 0
      vertex 4.49443 20.4783 4
      vertex 4.72638 20.5744 4
    endloop
  endfacet
  facet normal -0.382686 0.923878 0
    outer loop
      vertex 4.49443 20.4783 4
      vertex 4.72638 20.5744 0
      vertex 4.49443 20.4783 0
    endloop
  endfacet
  facet normal -0.760405 0.649449 0
    outer loop
      vertex 5.13137 20.8686 0
      vertex 5.29443 21.0595 4
      vertex 5.29443 21.0595 0
    endloop
  endfacet
  facet normal -0.760405 0.649449 0
    outer loop
      vertex 5.29443 21.0595 4
      vertex 5.13137 20.8686 0
      vertex 5.13137 20.8686 4
    endloop
  endfacet
  facet normal -0.923879 0.382685 0
    outer loop
      vertex 5.42561 21.2736 0
      vertex 5.52169 21.5056 4
      vertex 5.52169 21.5056 0
    endloop
  endfacet
  facet normal -0.923879 0.382685 0
    outer loop
      vertex 5.52169 21.5056 4
      vertex 5.42561 21.2736 0
      vertex 5.42561 21.2736 4
    endloop
  endfacet
  facet normal 0.382686 0.923878 -0
    outer loop
      vertex 3.50557 20.4783 0
      vertex 3.27361 20.5744 4
      vertex 3.50557 20.4783 4
    endloop
  endfacet
  facet normal 0.382686 0.923878 0
    outer loop
      vertex 3.27361 20.5744 4
      vertex 3.50557 20.4783 0
      vertex 3.27361 20.5744 0
    endloop
  endfacet
  facet normal 0.923879 0.382685 0
    outer loop
      vertex 2.57439 21.2736 4
      vertex 2.47831 21.5056 0
      vertex 2.47831 21.5056 4
    endloop
  endfacet
  facet normal 0.923879 0.382685 0
    outer loop
      vertex 2.47831 21.5056 0
      vertex 2.57439 21.2736 4
      vertex 2.57439 21.2736 0
    endloop
  endfacet
  facet normal 0.996918 0.0784569 0
    outer loop
      vertex 2.4197 21.7497 4
      vertex 2.4 22 0
      vertex 2.4 22 4
    endloop
  endfacet
  facet normal 0.996918 0.0784569 0
    outer loop
      vertex 2.4 22 0
      vertex 2.4197 21.7497 4
      vertex 2.4197 21.7497 0
    endloop
  endfacet
  facet normal -0.0784531 0.996918 0
    outer loop
      vertex 4.25029 20.4197 0
      vertex 4 20.4 4
      vertex 4.25029 20.4197 4
    endloop
  endfacet
  facet normal -0.0784531 0.996918 0
    outer loop
      vertex 4 20.4 4
      vertex 4.25029 20.4197 0
      vertex 4 20.4 0
    endloop
  endfacet
  facet normal -0.5225 -0.85264 0
    outer loop
      vertex 17.108 14.282 0
      vertex 17.3756 14.118 0.9
      vertex 17.108 14.282 0.9
    endloop
  endfacet
  facet normal -0.5225 -0.85264 -0
    outer loop
      vertex 17.3756 14.118 0.9
      vertex 17.108 14.282 0
      vertex 17.3756 14.118 0
    endloop
  endfacet
  facet normal 0.233444 0.97237 -0
    outer loop
      vertex 15.8871 10.5246 0
      vertex 15.582 10.5979 0.9
      vertex 15.8871 10.5246 0.9
    endloop
  endfacet
  facet normal 0.233444 0.97237 0
    outer loop
      vertex 15.582 10.5979 0.9
      vertex 15.8871 10.5246 0
      vertex 15.582 10.5979 0
    endloop
  endfacet
  facet normal 0.382684 -0.923879 0
    outer loop
      vertex 15.292 14.282 0
      vertex 15.582 14.4021 0.9
      vertex 15.292 14.282 0.9
    endloop
  endfacet
  facet normal 0.382684 -0.923879 0
    outer loop
      vertex 15.582 14.4021 0.9
      vertex 15.292 14.282 0
      vertex 15.582 14.4021 0
    endloop
  endfacet
  facet normal 0.97237 -0.233447 0
    outer loop
      vertex 14.2246 12.8129 0.9
      vertex 14.2979 13.118 0
      vertex 14.2979 13.118 0.9
    endloop
  endfacet
  facet normal 0.97237 -0.233447 0
    outer loop
      vertex 14.2979 13.118 0
      vertex 14.2246 12.8129 0.9
      vertex 14.2246 12.8129 0
    endloop
  endfacet
  facet normal -0.972369 -0.233449 0
    outer loop
      vertex 18.1754 12.8129 0
      vertex 18.1021 13.118 0.9
      vertex 18.1021 13.118 0
    endloop
  endfacet
  facet normal -0.972369 -0.233449 0
    outer loop
      vertex 18.1021 13.118 0.9
      vertex 18.1754 12.8129 0
      vertex 18.1754 12.8129 0.9
    endloop
  endfacet
  facet normal -0.923882 -0.382678 0
    outer loop
      vertex 18.1021 13.118 0
      vertex 17.982 13.408 0.9
      vertex 17.982 13.408 0
    endloop
  endfacet
  facet normal -0.923882 -0.382678 0
    outer loop
      vertex 17.982 13.408 0.9
      vertex 18.1021 13.118 0
      vertex 18.1021 13.118 0.9
    endloop
  endfacet
  facet normal -0.852638 -0.522502 0
    outer loop
      vertex 17.982 13.408 0
      vertex 17.818 13.6756 0.9
      vertex 17.818 13.6756 0
    endloop
  endfacet
  facet normal -0.852638 -0.522502 0
    outer loop
      vertex 17.818 13.6756 0.9
      vertex 17.982 13.408 0
      vertex 17.982 13.408 0.9
    endloop
  endfacet
  facet normal -0.382683 -0.92388 0
    outer loop
      vertex 16.818 14.4021 0
      vertex 17.108 14.282 0.9
      vertex 16.818 14.4021 0.9
    endloop
  endfacet
  facet normal -0.382683 -0.92388 -0
    outer loop
      vertex 17.108 14.282 0.9
      vertex 16.818 14.4021 0
      vertex 17.108 14.282 0
    endloop
  endfacet
  facet normal 0.0784606 -0.996917 0
    outer loop
      vertex 15.8871 14.4754 0
      vertex 16.2 14.5 0.9
      vertex 15.8871 14.4754 0.9
    endloop
  endfacet
  facet normal 0.0784606 -0.996917 0
    outer loop
      vertex 16.2 14.5 0.9
      vertex 15.8871 14.4754 0
      vertex 16.2 14.5 0
    endloop
  endfacet
  facet normal 0.996917 0.0784578 0
    outer loop
      vertex 14.2246 12.1871 0.9
      vertex 14.2 12.5 0
      vertex 14.2 12.5 0.9
    endloop
  endfacet
  facet normal 0.996917 0.0784578 0
    outer loop
      vertex 14.2 12.5 0
      vertex 14.2246 12.1871 0.9
      vertex 14.2246 12.1871 0
    endloop
  endfacet
  facet normal 0.852641 -0.522497 0
    outer loop
      vertex 14.418 13.408 0.9
      vertex 14.582 13.6756 0
      vertex 14.582 13.6756 0.9
    endloop
  endfacet
  facet normal 0.852641 -0.522497 0
    outer loop
      vertex 14.582 13.6756 0
      vertex 14.418 13.408 0.9
      vertex 14.418 13.408 0
    endloop
  endfacet
  facet normal 0.233444 -0.97237 0
    outer loop
      vertex 15.582 14.4021 0
      vertex 15.8871 14.4754 0.9
      vertex 15.582 14.4021 0.9
    endloop
  endfacet
  facet normal 0.233444 -0.97237 0
    outer loop
      vertex 15.8871 14.4754 0.9
      vertex 15.582 14.4021 0
      vertex 15.8871 14.4754 0
    endloop
  endfacet
  facet normal 0.760406 -0.649448 0
    outer loop
      vertex 14.582 13.6756 0.9
      vertex 14.7858 13.9142 0
      vertex 14.7858 13.9142 0.9
    endloop
  endfacet
  facet normal 0.760406 -0.649448 0
    outer loop
      vertex 14.7858 13.9142 0
      vertex 14.582 13.6756 0.9
      vertex 14.582 13.6756 0
    endloop
  endfacet
  facet normal -0.996917 -0.078461 0
    outer loop
      vertex 18.2 12.5 0
      vertex 18.1754 12.8129 0.9
      vertex 18.1754 12.8129 0
    endloop
  endfacet
  facet normal -0.996917 -0.078461 0
    outer loop
      vertex 18.1754 12.8129 0.9
      vertex 18.2 12.5 0
      vertex 18.2 12.5 0.9
    endloop
  endfacet
  facet normal -0.233444 0.97237 0
    outer loop
      vertex 16.818 10.5979 0
      vertex 16.5129 10.5246 0.9
      vertex 16.818 10.5979 0.9
    endloop
  endfacet
  facet normal -0.233444 0.97237 0
    outer loop
      vertex 16.5129 10.5246 0.9
      vertex 16.818 10.5979 0
      vertex 16.5129 10.5246 0
    endloop
  endfacet
  facet normal -0.382683 0.92388 0
    outer loop
      vertex 17.108 10.718 0
      vertex 16.818 10.5979 0.9
      vertex 17.108 10.718 0.9
    endloop
  endfacet
  facet normal -0.382683 0.92388 0
    outer loop
      vertex 16.818 10.5979 0.9
      vertex 17.108 10.718 0
      vertex 16.818 10.5979 0
    endloop
  endfacet
  facet normal -0.5225 0.85264 0
    outer loop
      vertex 17.3756 10.882 0
      vertex 17.108 10.718 0.9
      vertex 17.3756 10.882 0.9
    endloop
  endfacet
  facet normal -0.5225 0.85264 0
    outer loop
      vertex 17.108 10.718 0.9
      vertex 17.3756 10.882 0
      vertex 17.108 10.718 0
    endloop
  endfacet
  facet normal -0.852638 0.522502 0
    outer loop
      vertex 17.818 11.3244 0
      vertex 17.982 11.592 0.9
      vertex 17.982 11.592 0
    endloop
  endfacet
  facet normal -0.852638 0.522502 0
    outer loop
      vertex 17.982 11.592 0.9
      vertex 17.818 11.3244 0
      vertex 17.818 11.3244 0.9
    endloop
  endfacet
  facet normal 0.0784576 0.996917 -0
    outer loop
      vertex 16.2 10.5 0
      vertex 15.8871 10.5246 0.9
      vertex 16.2 10.5 0.9
    endloop
  endfacet
  facet normal 0.0784576 0.996917 0
    outer loop
      vertex 15.8871 10.5246 0.9
      vertex 16.2 10.5 0
      vertex 15.8871 10.5246 0
    endloop
  endfacet
  facet normal 0.5225 0.85264 -0
    outer loop
      vertex 15.292 10.718 0
      vertex 15.0244 10.882 0.9
      vertex 15.292 10.718 0.9
    endloop
  endfacet
  facet normal 0.5225 0.85264 0
    outer loop
      vertex 15.0244 10.882 0.9
      vertex 15.292 10.718 0
      vertex 15.0244 10.882 0
    endloop
  endfacet
  facet normal 0.760406 0.649448 0
    outer loop
      vertex 14.7858 11.0858 0.9
      vertex 14.582 11.3244 0
      vertex 14.582 11.3244 0.9
    endloop
  endfacet
  facet normal 0.760406 0.649448 0
    outer loop
      vertex 14.582 11.3244 0
      vertex 14.7858 11.0858 0.9
      vertex 14.7858 11.0858 0
    endloop
  endfacet
  facet normal 0.649447 0.760407 -0
    outer loop
      vertex 15.0244 10.882 0
      vertex 14.7858 11.0858 0.9
      vertex 15.0244 10.882 0.9
    endloop
  endfacet
  facet normal 0.649447 0.760407 0
    outer loop
      vertex 14.7858 11.0858 0.9
      vertex 15.0244 10.882 0
      vertex 14.7858 11.0858 0
    endloop
  endfacet
  facet normal -0.760404 -0.64945 0
    outer loop
      vertex 17.818 13.6756 0
      vertex 17.6142 13.9142 0.9
      vertex 17.6142 13.9142 0
    endloop
  endfacet
  facet normal -0.760404 -0.64945 0
    outer loop
      vertex 17.6142 13.9142 0.9
      vertex 17.818 13.6756 0
      vertex 17.818 13.6756 0.9
    endloop
  endfacet
  facet normal -0.64945 -0.760405 0
    outer loop
      vertex 17.3756 14.118 0
      vertex 17.6142 13.9142 0.9
      vertex 17.3756 14.118 0.9
    endloop
  endfacet
  facet normal -0.64945 -0.760405 -0
    outer loop
      vertex 17.6142 13.9142 0.9
      vertex 17.3756 14.118 0
      vertex 17.6142 13.9142 0
    endloop
  endfacet
  facet normal -0.233444 -0.97237 0
    outer loop
      vertex 16.5129 14.4754 0
      vertex 16.818 14.4021 0.9
      vertex 16.5129 14.4754 0.9
    endloop
  endfacet
  facet normal -0.233444 -0.97237 -0
    outer loop
      vertex 16.818 14.4021 0.9
      vertex 16.5129 14.4754 0
      vertex 16.818 14.4021 0
    endloop
  endfacet
  facet normal -0.078461 -0.996917 0
    outer loop
      vertex 16.2 14.5 0
      vertex 16.5129 14.4754 0.9
      vertex 16.2 14.5 0.9
    endloop
  endfacet
  facet normal -0.078461 -0.996917 -0
    outer loop
      vertex 16.5129 14.4754 0.9
      vertex 16.2 14.5 0
      vertex 16.5129 14.4754 0
    endloop
  endfacet
  facet normal 0.996917 -0.078458 0
    outer loop
      vertex 14.2 12.5 0.9
      vertex 14.2246 12.8129 0
      vertex 14.2246 12.8129 0.9
    endloop
  endfacet
  facet normal 0.996917 -0.078458 0
    outer loop
      vertex 14.2246 12.8129 0
      vertex 14.2 12.5 0.9
      vertex 14.2 12.5 0
    endloop
  endfacet
  facet normal 0.92388 -0.382683 0
    outer loop
      vertex 14.2979 13.118 0.9
      vertex 14.418 13.408 0
      vertex 14.418 13.408 0.9
    endloop
  endfacet
  facet normal 0.92388 -0.382683 0
    outer loop
      vertex 14.418 13.408 0
      vertex 14.2979 13.118 0.9
      vertex 14.2979 13.118 0
    endloop
  endfacet
  facet normal 0.649447 -0.760407 0
    outer loop
      vertex 14.7858 13.9142 0
      vertex 15.0244 14.118 0.9
      vertex 14.7858 13.9142 0.9
    endloop
  endfacet
  facet normal 0.649447 -0.760407 0
    outer loop
      vertex 15.0244 14.118 0.9
      vertex 14.7858 13.9142 0
      vertex 15.0244 14.118 0
    endloop
  endfacet
  facet normal 0.5225 -0.85264 0
    outer loop
      vertex 15.0244 14.118 0
      vertex 15.292 14.282 0.9
      vertex 15.0244 14.118 0.9
    endloop
  endfacet
  facet normal 0.5225 -0.85264 0
    outer loop
      vertex 15.292 14.282 0.9
      vertex 15.0244 14.118 0
      vertex 15.292 14.282 0
    endloop
  endfacet
  facet normal -0.972369 0.233449 0
    outer loop
      vertex 18.1021 11.882 0
      vertex 18.1754 12.1871 0.9
      vertex 18.1754 12.1871 0
    endloop
  endfacet
  facet normal -0.972369 0.233449 0
    outer loop
      vertex 18.1754 12.1871 0.9
      vertex 18.1021 11.882 0
      vertex 18.1021 11.882 0.9
    endloop
  endfacet
  facet normal -0.64945 0.760405 0
    outer loop
      vertex 17.6142 11.0858 0
      vertex 17.3756 10.882 0.9
      vertex 17.6142 11.0858 0.9
    endloop
  endfacet
  facet normal -0.64945 0.760405 0
    outer loop
      vertex 17.3756 10.882 0.9
      vertex 17.6142 11.0858 0
      vertex 17.3756 10.882 0
    endloop
  endfacet
  facet normal -0.923882 0.382678 0
    outer loop
      vertex 17.982 11.592 0
      vertex 18.1021 11.882 0.9
      vertex 18.1021 11.882 0
    endloop
  endfacet
  facet normal -0.923882 0.382678 0
    outer loop
      vertex 18.1021 11.882 0.9
      vertex 17.982 11.592 0
      vertex 17.982 11.592 0.9
    endloop
  endfacet
  facet normal -0.078458 0.996917 0
    outer loop
      vertex 16.5129 10.5246 0
      vertex 16.2 10.5 0.9
      vertex 16.5129 10.5246 0.9
    endloop
  endfacet
  facet normal -0.078458 0.996917 0
    outer loop
      vertex 16.2 10.5 0.9
      vertex 16.5129 10.5246 0
      vertex 16.2 10.5 0
    endloop
  endfacet
  facet normal 0.382684 0.923879 -0
    outer loop
      vertex 15.582 10.5979 0
      vertex 15.292 10.718 0.9
      vertex 15.582 10.5979 0.9
    endloop
  endfacet
  facet normal 0.382684 0.923879 0
    outer loop
      vertex 15.292 10.718 0.9
      vertex 15.582 10.5979 0
      vertex 15.292 10.718 0
    endloop
  endfacet
  facet normal 0.852641 0.522497 0
    outer loop
      vertex 14.582 11.3244 0.9
      vertex 14.418 11.592 0
      vertex 14.418 11.592 0.9
    endloop
  endfacet
  facet normal 0.852641 0.522497 0
    outer loop
      vertex 14.418 11.592 0
      vertex 14.582 11.3244 0.9
      vertex 14.582 11.3244 0
    endloop
  endfacet
  facet normal 0.97237 0.233447 0
    outer loop
      vertex 14.2979 11.882 0.9
      vertex 14.2246 12.1871 0
      vertex 14.2246 12.1871 0.9
    endloop
  endfacet
  facet normal 0.97237 0.233447 0
    outer loop
      vertex 14.2246 12.1871 0
      vertex 14.2979 11.882 0.9
      vertex 14.2979 11.882 0
    endloop
  endfacet
  facet normal -0.996917 0.0784608 0
    outer loop
      vertex 18.1754 12.1871 0
      vertex 18.2 12.5 0.9
      vertex 18.2 12.5 0
    endloop
  endfacet
  facet normal -0.996917 0.0784608 0
    outer loop
      vertex 18.2 12.5 0.9
      vertex 18.1754 12.1871 0
      vertex 18.1754 12.1871 0.9
    endloop
  endfacet
  facet normal -0.760404 0.64945 0
    outer loop
      vertex 17.6142 11.0858 0
      vertex 17.818 11.3244 0.9
      vertex 17.818 11.3244 0
    endloop
  endfacet
  facet normal -0.760404 0.64945 0
    outer loop
      vertex 17.818 11.3244 0.9
      vertex 17.6142 11.0858 0
      vertex 17.6142 11.0858 0.9
    endloop
  endfacet
  facet normal 0.92388 0.382683 0
    outer loop
      vertex 14.418 11.592 0.9
      vertex 14.2979 11.882 0
      vertex 14.2979 11.882 0.9
    endloop
  endfacet
  facet normal 0.92388 0.382683 0
    outer loop
      vertex 14.2979 11.882 0
      vertex 14.418 11.592 0.9
      vertex 14.418 11.592 0
    endloop
  endfacet
  facet normal -0.5 -0.866025 0
    outer loop
      vertex 16.2 16.425 0.9
      vertex 19.5991 14.4625 4
      vertex 16.2 16.425 4
    endloop
  endfacet
  facet normal -0.5 -0.866025 -0
    outer loop
      vertex 19.5991 14.4625 4
      vertex 16.2 16.425 0.9
      vertex 19.5991 14.4625 0.9
    endloop
  endfacet
  facet normal 0.5 -0.866026 0
    outer loop
      vertex 12.8008 14.4625 0.9
      vertex 16.2 16.425 4
      vertex 12.8008 14.4625 4
    endloop
  endfacet
  facet normal 0.5 -0.866026 0
    outer loop
      vertex 16.2 16.425 4
      vertex 12.8008 14.4625 0.9
      vertex 16.2 16.425 0.9
    endloop
  endfacet
  facet normal 1 -0 0
    outer loop
      vertex 12.8008 10.5375 4
      vertex 12.8008 14.4625 0.9
      vertex 12.8008 14.4625 4
    endloop
  endfacet
  facet normal 1 0 0
    outer loop
      vertex 12.8008 14.4625 0.9
      vertex 12.8008 10.5375 4
      vertex 12.8008 10.5375 0.9
    endloop
  endfacet
  facet normal 0 0 1
    outer loop
      vertex 19.5991 14.4625 0.9
      vertex 18.2 12.5 0.9
      vertex 19.5991 10.5375 0.9
    endloop
  endfacet
  facet normal 0 0 1
    outer loop
      vertex 19.5991 14.4625 0.9
      vertex 18.1754 12.8129 0.9
      vertex 18.2 12.5 0.9
    endloop
  endfacet
  facet normal 0 0 1
    outer loop
      vertex 19.5991 14.4625 0.9
      vertex 18.1021 13.118 0.9
      vertex 18.1754 12.8129 0.9
    endloop
  endfacet
  facet normal 0 0 1
    outer loop
      vertex 19.5991 14.4625 0.9
      vertex 17.982 13.408 0.9
      vertex 18.1021 13.118 0.9
    endloop
  endfacet
  facet normal 0 0 1
    outer loop
      vertex 19.5991 14.4625 0.9
      vertex 17.818 13.6756 0.9
      vertex 17.982 13.408 0.9
    endloop
  endfacet
  facet normal 0 0 1
    outer loop
      vertex 19.5991 14.4625 0.9
      vertex 17.6142 13.9142 0.9
      vertex 17.818 13.6756 0.9
    endloop
  endfacet
  facet normal 0 0 1
    outer loop
      vertex 19.5991 14.4625 0.9
      vertex 17.3756 14.118 0.9
      vertex 17.6142 13.9142 0.9
    endloop
  endfacet
  facet normal 0 0 1
    outer loop
      vertex 19.5991 14.4625 0.9
      vertex 17.108 14.282 0.9
      vertex 17.3756 14.118 0.9
    endloop
  endfacet
  facet normal 0 0 1
    outer loop
      vertex 16.2 16.425 0.9
      vertex 17.108 14.282 0.9
      vertex 19.5991 14.4625 0.9
    endloop
  endfacet
  facet normal 0 0 1
    outer loop
      vertex 17.108 14.282 0.9
      vertex 16.2 16.425 0.9
      vertex 16.818 14.4021 0.9
    endloop
  endfacet
  facet normal 0 0 1
    outer loop
      vertex 16.818 14.4021 0.9
      vertex 16.2 16.425 0.9
      vertex 16.5129 14.4754 0.9
    endloop
  endfacet
  facet normal 0 0 1
    outer loop
      vertex 16.2 16.425 0.9
      vertex 16.2 14.5 0.9
      vertex 16.5129 14.4754 0.9
    endloop
  endfacet
  facet normal 0 0 1
    outer loop
      vertex 16.2 16.425 0.9
      vertex 15.8871 14.4754 0.9
      vertex 16.2 14.5 0.9
    endloop
  endfacet
  facet normal 0 0 1
    outer loop
      vertex 16.2 16.425 0.9
      vertex 15.582 14.4021 0.9
      vertex 15.8871 14.4754 0.9
    endloop
  endfacet
  facet normal 0 0 1
    outer loop
      vertex 16.2 16.425 0.9
      vertex 15.292 14.282 0.9
      vertex 15.582 14.4021 0.9
    endloop
  endfacet
  facet normal -0 0 1
    outer loop
      vertex 12.8008 14.4625 0.9
      vertex 15.292 14.282 0.9
      vertex 16.2 16.425 0.9
    endloop
  endfacet
  facet normal 0 0 1
    outer loop
      vertex 15.292 14.282 0.9
      vertex 12.8008 14.4625 0.9
      vertex 15.0244 14.118 0.9
    endloop
  endfacet
  facet normal 0 0 1
    outer loop
      vertex 15.0244 14.118 0.9
      vertex 12.8008 14.4625 0.9
      vertex 14.7858 13.9142 0.9
    endloop
  endfacet
  facet normal 0 0 1
    outer loop
      vertex 14.7858 13.9142 0.9
      vertex 12.8008 14.4625 0.9
      vertex 14.582 13.6756 0.9
    endloop
  endfacet
  facet normal 0 0 1
    outer loop
      vertex 14.2246 12.8129 0.9
      vertex 12.8008 14.4625 0.9
      vertex 14.2 12.5 0.9
    endloop
  endfacet
  facet normal 0 0 1
    outer loop
      vertex 14.2979 13.118 0.9
      vertex 12.8008 14.4625 0.9
      vertex 14.2246 12.8129 0.9
    endloop
  endfacet
  facet normal 0 0 1
    outer loop
      vertex 14.418 13.408 0.9
      vertex 12.8008 14.4625 0.9
      vertex 14.2979 13.118 0.9
    endloop
  endfacet
  facet normal 0 0 1
    outer loop
      vertex 14.582 13.6756 0.9
      vertex 12.8008 14.4625 0.9
      vertex 14.418 13.408 0.9
    endloop
  endfacet
  facet normal -0 0 1
    outer loop
      vertex 18.1754 12.1871 0.9
      vertex 19.5991 10.5375 0.9
      vertex 18.2 12.5 0.9
    endloop
  endfacet
  facet normal -0 0 1
    outer loop
      vertex 18.1021 11.882 0.9
      vertex 19.5991 10.5375 0.9
      vertex 18.1754 12.1871 0.9
    endloop
  endfacet
  facet normal -0 0 1
    outer loop
      vertex 17.982 11.592 0.9
      vertex 19.5991 10.5375 0.9
      vertex 18.1021 11.882 0.9
    endloop
  endfacet
  facet normal -0 0 1
    outer loop
      vertex 17.818 11.3244 0.9
      vertex 19.5991 10.5375 0.9
      vertex 17.982 11.592 0.9
    endloop
  endfacet
  facet normal -0 0 1
    outer loop
      vertex 17.6142 11.0858 0.9
      vertex 19.5991 10.5375 0.9
      vertex 17.818 11.3244 0.9
    endloop
  endfacet
  facet normal -0 0 1
    outer loop
      vertex 17.3756 10.882 0.9
      vertex 19.5991 10.5375 0.9
      vertex 17.6142 11.0858 0.9
    endloop
  endfacet
  facet normal -0 0 1
    outer loop
      vertex 17.108 10.718 0.9
      vertex 19.5991 10.5375 0.9
      vertex 17.3756 10.882 0.9
    endloop
  endfacet
  facet normal 0 0 1
    outer loop
      vertex 16.2 8.575 0.9
      vertex 17.108 10.718 0.9
      vertex 16.818 10.5979 0.9
    endloop
  endfacet
  facet normal 0 0 1
    outer loop
      vertex 16.2 8.575 0.9
      vertex 16.818 10.5979 0.9
      vertex 16.5129 10.5246 0.9
    endloop
  endfacet
  facet normal 0 0 1
    outer loop
      vertex 16.2 8.575 0.9
      vertex 16.5129 10.5246 0.9
      vertex 16.2 10.5 0.9
    endloop
  endfacet
  facet normal 0 0 1
    outer loop
      vertex 17.108 10.718 0.9
      vertex 16.2 8.575 0.9
      vertex 19.5991 10.5375 0.9
    endloop
  endfacet
  facet normal 0 0 1
    outer loop
      vertex 15.8871 10.5246 0.9
      vertex 16.2 8.575 0.9
      vertex 16.2 10.5 0.9
    endloop
  endfacet
  facet normal 0 0 1
    outer loop
      vertex 15.582 10.5979 0.9
      vertex 16.2 8.575 0.9
      vertex 15.8871 10.5246 0.9
    endloop
  endfacet
  facet normal 0 0 1
    outer loop
      vertex 15.292 10.718 0.9
      vertex 16.2 8.575 0.9
      vertex 15.582 10.5979 0.9
    endloop
  endfacet
  facet normal 0 0 1
    outer loop
      vertex 12.8008 10.5375 0.9
      vertex 15.292 10.718 0.9
      vertex 15.0244 10.882 0.9
    endloop
  endfacet
  facet normal 0 0 1
    outer loop
      vertex 12.8008 10.5375 0.9
      vertex 15.0244 10.882 0.9
      vertex 14.7858 11.0858 0.9
    endloop
  endfacet
  facet normal 0 0 1
    outer loop
      vertex 12.8008 10.5375 0.9
      vertex 14.7858 11.0858 0.9
      vertex 14.582 11.3244 0.9
    endloop
  endfacet
  facet normal 0 0 1
    outer loop
      vertex 12.8008 10.5375 0.9
      vertex 14.582 11.3244 0.9
      vertex 14.418 11.592 0.9
    endloop
  endfacet
  facet normal 0 0 1
    outer loop
      vertex 12.8008 10.5375 0.9
      vertex 14.2 12.5 0.9
      vertex 12.8008 14.4625 0.9
    endloop
  endfacet
  facet normal 0 0 1
    outer loop
      vertex 14.2 12.5 0.9
      vertex 12.8008 10.5375 0.9
      vertex 14.2246 12.1871 0.9
    endloop
  endfacet
  facet normal 0 0 1
    outer loop
      vertex 14.2246 12.1871 0.9
      vertex 12.8008 10.5375 0.9
      vertex 14.2979 11.882 0.9
    endloop
  endfacet
  facet normal 0 0 1
    outer loop
      vertex 15.292 10.718 0.9
      vertex 12.8008 10.5375 0.9
      vertex 16.2 8.575 0.9
    endloop
  endfacet
  facet normal 0 0 1
    outer loop
      vertex 14.2979 11.882 0.9
      vertex 12.8008 10.5375 0.9
      vertex 14.418 11.592 0.9
    endloop
  endfacet
  facet normal 0.5 0.866026 -0
    outer loop
      vertex 16.2 8.575 0.9
      vertex 12.8008 10.5375 4
      vertex 16.2 8.575 4
    endloop
  endfacet
  facet normal 0.5 0.866026 0
    outer loop
      vertex 12.8008 10.5375 4
      vertex 16.2 8.575 0.9
      vertex 12.8008 10.5375 0.9
    endloop
  endfacet
  facet normal -1 0 0
    outer loop
      vertex 19.5991 10.5375 0.9
      vertex 19.5991 14.4625 4
      vertex 19.5991 14.4625 0.9
    endloop
  endfacet
  facet normal -1 -0 0
    outer loop
      vertex 19.5991 14.4625 4
      vertex 19.5991 10.5375 0.9
      vertex 19.5991 10.5375 4
    endloop
  endfacet
  facet normal -0.5 0.866025 0
    outer loop
      vertex 19.5991 10.5375 0.9
      vertex 16.2 8.575 4
      vertex 19.5991 10.5375 4
    endloop
  endfacet
  facet normal -0.5 0.866025 0
    outer loop
      vertex 16.2 8.575 4
      vertex 19.5991 10.5375 0.9
      vertex 16.2 8.575 0.9
    endloop
  endfacet
endsolid OpenSCAD_Model
