solid OpenSCAD_Model
  facet normal 0 0 1
    outer loop
      vertex -12.3637 -4.01722 8
      vertex -12.2226 -10.0122 8
      vertex -11.8761 -5.28758 8
    endloop
  endfacet
  facet normal 0 0 1
    outer loop
      vertex -12.7159 -2.70285 8
      vertex -12.2226 -10.0122 8
      vertex -12.3637 -4.01722 8
    endloop
  endfacet
  facet normal 0 0 1
    outer loop
      vertex -12.9288 -1.35887 8
      vertex -12.2226 -10.0122 8
      vertex -12.7159 -2.70285 8
    endloop
  endfacet
  facet normal 0 0 1
    outer loop
      vertex -12.9288 -1.35887 8
      vertex -18.152 15.5885 8
      vertex -12.2226 -10.0122 8
    endloop
  endfacet
  facet normal 0 0 1
    outer loop
      vertex -18.152 15.5885 8
      vertex -12.9288 -1.35887 8
      vertex -13 0 8
    endloop
  endfacet
  facet normal 0 0 1
    outer loop
      vertex 12.9288 -1.35887 8
      vertex 18 0 8
      vertex 13 0 8
    endloop
  endfacet
  facet normal -0 0 1
    outer loop
      vertex 12.3637 4.01722 8
      vertex 18 0 8
      vertex 22.576 7.92587 8
    endloop
  endfacet
  facet normal 0 0 1
    outer loop
      vertex 18 0 8
      vertex 12.9288 1.35887 8
      vertex 13 0 8
    endloop
  endfacet
  facet normal 0 0 1
    outer loop
      vertex 18 0 8
      vertex 12.7159 2.70285 8
      vertex 12.9288 1.35887 8
    endloop
  endfacet
  facet normal 0 0 1
    outer loop
      vertex 18 0 8
      vertex 12.3637 4.01722 8
      vertex 12.7159 2.70285 8
    endloop
  endfacet
  facet normal 0 0 1
    outer loop
      vertex 22.576 7.92587 8
      vertex 11.8761 5.28758 8
      vertex 12.3637 4.01722 8
    endloop
  endfacet
  facet normal 0 0 1
    outer loop
      vertex 22.576 7.92587 8
      vertex 11.2583 6.5 8
      vertex 11.8761 5.28758 8
    endloop
  endfacet
  facet normal 0 0 1
    outer loop
      vertex 22.576 7.92587 8
      vertex 10.5172 7.64121 8
      vertex 11.2583 6.5 8
    endloop
  endfacet
  facet normal 0 0 1
    outer loop
      vertex 22.576 7.92587 8
      vertex 9.66088 8.6987 8
      vertex 10.5172 7.64121 8
    endloop
  endfacet
  facet normal 0 0 1
    outer loop
      vertex 22.576 7.92587 8
      vertex 8.6987 9.66088 8
      vertex 9.66088 8.6987 8
    endloop
  endfacet
  facet normal 0 0 1
    outer loop
      vertex 22.576 7.92587 8
      vertex 7.64121 10.5172 8
      vertex 8.6987 9.66088 8
    endloop
  endfacet
  facet normal 0 0 1
    outer loop
      vertex 22.576 7.92587 8
      vertex 6.5 11.2583 8
      vertex 7.64121 10.5172 8
    endloop
  endfacet
  facet normal 0 0 1
    outer loop
      vertex 22.576 7.92587 8
      vertex 5.28758 11.8761 8
      vertex 6.5 11.2583 8
    endloop
  endfacet
  facet normal 0 0 1
    outer loop
      vertex -2.55952 15.5912 8
      vertex 5.28758 11.8761 8
      vertex 22.576 7.92587 8
    endloop
  endfacet
  facet normal 0 0 1
    outer loop
      vertex 5.28758 11.8761 8
      vertex -2.55952 15.5912 8
      vertex 4.01722 12.3637 8
    endloop
  endfacet
  facet normal 0 0 1
    outer loop
      vertex 4.01722 12.3637 8
      vertex -2.55952 15.5912 8
      vertex 2.70285 12.7159 8
    endloop
  endfacet
  facet normal 0 0 1
    outer loop
      vertex -2.55952 15.5912 8
      vertex 1.35887 12.9288 8
      vertex 2.70285 12.7159 8
    endloop
  endfacet
  facet normal 0 0 1
    outer loop
      vertex -2.55952 15.5912 8
      vertex 0 13 8
      vertex 1.35887 12.9288 8
    endloop
  endfacet
  facet normal 0 0 1
    outer loop
      vertex -2.55952 15.5912 8
      vertex -1.35887 12.9288 8
      vertex 0 13 8
    endloop
  endfacet
  facet normal 0 0 1
    outer loop
      vertex -2.55952 15.5912 8
      vertex -2.70285 12.7159 8
      vertex -1.35887 12.9288 8
    endloop
  endfacet
  facet normal 0 0 1
    outer loop
      vertex -2.55952 15.5912 8
      vertex -4.01722 12.3637 8
      vertex -2.70285 12.7159 8
    endloop
  endfacet
  facet normal 0 0 1
    outer loop
      vertex -2.55952 15.5912 8
      vertex -5.28758 11.8761 8
      vertex -4.01722 12.3637 8
    endloop
  endfacet
  facet normal 0 0 1
    outer loop
      vertex -9 15.5885 8
      vertex -2.55952 15.5912 8
      vertex -5.66229 21.3695 8
    endloop
  endfacet
  facet normal 0 0 1
    outer loop
      vertex -2.55952 15.5912 8
      vertex -9 15.5885 8
      vertex -5.28758 11.8761 8
    endloop
  endfacet
  facet normal 0 0 1
    outer loop
      vertex -5.28758 11.8761 8
      vertex -9 15.5885 8
      vertex -6.5 11.2583 8
    endloop
  endfacet
  facet normal 0 0 1
    outer loop
      vertex -6.5 11.2583 8
      vertex -9 15.5885 8
      vertex -7.64121 10.5172 8
    endloop
  endfacet
  facet normal 0 0 1
    outer loop
      vertex -7.64121 10.5172 8
      vertex -9 15.5885 8
      vertex -8.6987 9.66088 8
    endloop
  endfacet
  facet normal 0 0 1
    outer loop
      vertex -9 15.5885 8
      vertex -9.66088 8.6987 8
      vertex -8.6987 9.66088 8
    endloop
  endfacet
  facet normal -0 0 1
    outer loop
      vertex -18.152 15.5885 8
      vertex -9.66088 8.6987 8
      vertex -9 15.5885 8
    endloop
  endfacet
  facet normal 0 0 1
    outer loop
      vertex -9.66088 8.6987 8
      vertex -18.152 15.5885 8
      vertex -10.5172 7.64121 8
    endloop
  endfacet
  facet normal 0 0 1
    outer loop
      vertex -10.5172 7.64121 8
      vertex -18.152 15.5885 8
      vertex -11.2583 6.5 8
    endloop
  endfacet
  facet normal 0 0 1
    outer loop
      vertex -11.2583 6.5 8
      vertex -18.152 15.5885 8
      vertex -11.8761 5.28758 8
    endloop
  endfacet
  facet normal 0 0 1
    outer loop
      vertex -12.9288 1.35887 8
      vertex -18.152 15.5885 8
      vertex -13 0 8
    endloop
  endfacet
  facet normal 0 0 1
    outer loop
      vertex -12.7159 2.70285 8
      vertex -18.152 15.5885 8
      vertex -12.9288 1.35887 8
    endloop
  endfacet
  facet normal 0 0 1
    outer loop
      vertex -12.3637 4.01722 8
      vertex -18.152 15.5885 8
      vertex -12.7159 2.70285 8
    endloop
  endfacet
  facet normal 0 0 1
    outer loop
      vertex -11.8761 5.28758 8
      vertex -18.152 15.5885 8
      vertex -12.3637 4.01722 8
    endloop
  endfacet
  facet normal 0 0 1
    outer loop
      vertex 21.3377 -5.78109 8
      vertex 18 0 8
      vertex 14.7821 -5.579 8
    endloop
  endfacet
  facet normal 0 0 1
    outer loop
      vertex 18 0 8
      vertex 12.9288 -1.35887 8
      vertex 14.7821 -5.579 8
    endloop
  endfacet
  facet normal -0 0 1
    outer loop
      vertex 12.7159 -2.70285 8
      vertex 14.7821 -5.579 8
      vertex 12.9288 -1.35887 8
    endloop
  endfacet
  facet normal -0 0 1
    outer loop
      vertex 12.3637 -4.01722 8
      vertex 14.7821 -5.579 8
      vertex 12.7159 -2.70285 8
    endloop
  endfacet
  facet normal -0 0 1
    outer loop
      vertex 11.8761 -5.28758 8
      vertex 14.7821 -5.579 8
      vertex 12.3637 -4.01722 8
    endloop
  endfacet
  facet normal 0 0 1
    outer loop
      vertex 11.2583 -6.5 8
      vertex 14.7821 -5.579 8
      vertex 11.8761 -5.28758 8
    endloop
  endfacet
  facet normal 0 0 1
    outer loop
      vertex 10.5172 -7.64121 8
      vertex 14.7821 -5.579 8
      vertex 11.2583 -6.5 8
    endloop
  endfacet
  facet normal 0 0 1
    outer loop
      vertex 9.66088 -8.6987 8
      vertex 14.7821 -5.579 8
      vertex 10.5172 -7.64121 8
    endloop
  endfacet
  facet normal 0 0 1
    outer loop
      vertex 8.6987 -9.66088 8
      vertex 14.7821 -5.579 8
      vertex 9.66088 -8.6987 8
    endloop
  endfacet
  facet normal 0 0 1
    outer loop
      vertex 7.64121 -10.5172 8
      vertex 14.7821 -5.579 8
      vertex 8.6987 -9.66088 8
    endloop
  endfacet
  facet normal -0 0 1
    outer loop
      vertex 7.64121 -10.5172 8
      vertex -4.424 -23.5143 8
      vertex 14.7821 -5.579 8
    endloop
  endfacet
  facet normal -0 0 1
    outer loop
      vertex 6.5 -11.2583 8
      vertex -4.424 -23.5143 8
      vertex 7.64121 -10.5172 8
    endloop
  endfacet
  facet normal -0 0 1
    outer loop
      vertex 5.28758 -11.8761 8
      vertex -4.424 -23.5143 8
      vertex 6.5 -11.2583 8
    endloop
  endfacet
  facet normal -0 0 1
    outer loop
      vertex 4.01722 -12.3637 8
      vertex -4.424 -23.5143 8
      vertex 5.28758 -11.8761 8
    endloop
  endfacet
  facet normal -0 0 1
    outer loop
      vertex 2.70285 -12.7159 8
      vertex -4.424 -23.5143 8
      vertex 4.01722 -12.3637 8
    endloop
  endfacet
  facet normal -0 0 1
    outer loop
      vertex 1.35887 -12.9288 8
      vertex -4.424 -23.5143 8
      vertex 2.70285 -12.7159 8
    endloop
  endfacet
  facet normal -0 0 1
    outer loop
      vertex 0 -13 8
      vertex -4.424 -23.5143 8
      vertex 1.35887 -12.9288 8
    endloop
  endfacet
  facet normal 0 0 1
    outer loop
      vertex -1.35887 -12.9288 8
      vertex -4.424 -23.5143 8
      vertex 0 -13 8
    endloop
  endfacet
  facet normal 0 0 1
    outer loop
      vertex -2.70285 -12.7159 8
      vertex -4.424 -23.5143 8
      vertex -1.35887 -12.9288 8
    endloop
  endfacet
  facet normal 0 0 1
    outer loop
      vertex -9 -15.5885 8
      vertex -2.70285 -12.7159 8
      vertex -4.01722 -12.3637 8
    endloop
  endfacet
  facet normal 0 0 1
    outer loop
      vertex -9 -15.5885 8
      vertex -4.01722 -12.3637 8
      vertex -5.28758 -11.8761 8
    endloop
  endfacet
  facet normal 0 0 1
    outer loop
      vertex -9 -15.5885 8
      vertex -5.28758 -11.8761 8
      vertex -6.5 -11.2583 8
    endloop
  endfacet
  facet normal 0 0 1
    outer loop
      vertex -9 -15.5885 8
      vertex -6.5 -11.2583 8
      vertex -7.64121 -10.5172 8
    endloop
  endfacet
  facet normal 0 0 1
    outer loop
      vertex -9 -15.5885 8
      vertex -7.64121 -10.5172 8
      vertex -8.6987 -9.66088 8
    endloop
  endfacet
  facet normal 0 0 1
    outer loop
      vertex -2.70285 -12.7159 8
      vertex -9 -15.5885 8
      vertex -4.424 -23.5143 8
    endloop
  endfacet
  facet normal 0 0 1
    outer loop
      vertex -12.2226 -10.0122 8
      vertex -8.6987 -9.66088 8
      vertex -9.66088 -8.6987 8
    endloop
  endfacet
  facet normal 0 0 1
    outer loop
      vertex -12.2226 -10.0122 8
      vertex -9.66088 -8.6987 8
      vertex -10.5172 -7.64121 8
    endloop
  endfacet
  facet normal 0 0 1
    outer loop
      vertex -12.2226 -10.0122 8
      vertex -10.5172 -7.64121 8
      vertex -11.2583 -6.5 8
    endloop
  endfacet
  facet normal 0 0 1
    outer loop
      vertex -12.2226 -10.0122 8
      vertex -11.2583 -6.5 8
      vertex -11.8761 -5.28758 8
    endloop
  endfacet
  facet normal 0 0 1
    outer loop
      vertex -8.6987 -9.66088 8
      vertex -12.2226 -10.0122 8
      vertex -9 -15.5885 8
    endloop
  endfacet
  facet normal 0 0 1
    outer loop
      vertex -9 -15.5885 8
      vertex -12.2226 -10.0122 8
      vertex -15.6754 -15.5885 8
    endloop
  endfacet
  facet normal 0 0 -1
    outer loop
      vertex 21.3377 -5.78109 0
      vertex 14.7821 -5.579 0
      vertex 18 0 0
    endloop
  endfacet
  facet normal 0 0 -1
    outer loop
      vertex 12.9288 -1.35887 0
      vertex 18 0 0
      vertex 14.7821 -5.579 0
    endloop
  endfacet
  facet normal 0 0 -1
    outer loop
      vertex 12.9288 1.35887 0
      vertex 18 0 0
      vertex 13 0 0
    endloop
  endfacet
  facet normal 0 0 -1
    outer loop
      vertex 12.7159 2.70285 0
      vertex 18 0 0
      vertex 12.9288 1.35887 0
    endloop
  endfacet
  facet normal 0 0 -1
    outer loop
      vertex 12.3637 4.01722 0
      vertex 18 0 0
      vertex 12.7159 2.70285 0
    endloop
  endfacet
  facet normal 0 0 -1
    outer loop
      vertex 18 0 0
      vertex 12.3637 4.01722 0
      vertex 22.576 7.92587 0
    endloop
  endfacet
  facet normal 0 0 -1
    outer loop
      vertex 11.8761 5.28758 0
      vertex 22.576 7.92587 0
      vertex 12.3637 4.01722 0
    endloop
  endfacet
  facet normal 0 0 -1
    outer loop
      vertex 11.2583 6.5 0
      vertex 22.576 7.92587 0
      vertex 11.8761 5.28758 0
    endloop
  endfacet
  facet normal 0 0 -1
    outer loop
      vertex 10.5172 7.64121 0
      vertex 22.576 7.92587 0
      vertex 11.2583 6.5 0
    endloop
  endfacet
  facet normal 0 0 -1
    outer loop
      vertex 9.66088 8.6987 0
      vertex 22.576 7.92587 0
      vertex 10.5172 7.64121 0
    endloop
  endfacet
  facet normal 0 0 -1
    outer loop
      vertex 8.6987 9.66088 0
      vertex 22.576 7.92587 0
      vertex 9.66088 8.6987 0
    endloop
  endfacet
  facet normal 0 0 -1
    outer loop
      vertex 7.64121 10.5172 0
      vertex 22.576 7.92587 0
      vertex 8.6987 9.66088 0
    endloop
  endfacet
  facet normal 0 0 -1
    outer loop
      vertex 6.5 11.2583 0
      vertex 22.576 7.92587 0
      vertex 7.64121 10.5172 0
    endloop
  endfacet
  facet normal 0 0 -1
    outer loop
      vertex 5.28758 11.8761 0
      vertex 22.576 7.92587 0
      vertex 6.5 11.2583 0
    endloop
  endfacet
  facet normal 0 0 -1
    outer loop
      vertex -2.55952 15.5912 0
      vertex 5.28758 11.8761 0
      vertex 4.01722 12.3637 0
    endloop
  endfacet
  facet normal 0 0 -1
    outer loop
      vertex -2.55952 15.5912 0
      vertex 4.01722 12.3637 0
      vertex 2.70285 12.7159 0
    endloop
  endfacet
  facet normal 0 0 -1
    outer loop
      vertex 5.28758 11.8761 0
      vertex -2.55952 15.5912 0
      vertex 22.576 7.92587 0
    endloop
  endfacet
  facet normal 0 0 -1
    outer loop
      vertex 1.35887 12.9288 0
      vertex -2.55952 15.5912 0
      vertex 2.70285 12.7159 0
    endloop
  endfacet
  facet normal 0 0 -1
    outer loop
      vertex 0 13 0
      vertex -2.55952 15.5912 0
      vertex 1.35887 12.9288 0
    endloop
  endfacet
  facet normal 0 0 -1
    outer loop
      vertex -1.35887 12.9288 0
      vertex -2.55952 15.5912 0
      vertex 0 13 0
    endloop
  endfacet
  facet normal 0 0 -1
    outer loop
      vertex -2.70285 12.7159 0
      vertex -2.55952 15.5912 0
      vertex -1.35887 12.9288 0
    endloop
  endfacet
  facet normal 0 0 -1
    outer loop
      vertex -4.01722 12.3637 0
      vertex -2.55952 15.5912 0
      vertex -2.70285 12.7159 0
    endloop
  endfacet
  facet normal 0 0 -1
    outer loop
      vertex -5.28758 11.8761 0
      vertex -2.55952 15.5912 0
      vertex -4.01722 12.3637 0
    endloop
  endfacet
  facet normal 0 0 -1
    outer loop
      vertex -9 15.5885 0
      vertex -2.55952 15.5912 0
      vertex -5.28758 11.8761 0
    endloop
  endfacet
  facet normal 0 0 -1
    outer loop
      vertex -9 15.5885 0
      vertex -5.28758 11.8761 0
      vertex -6.5 11.2583 0
    endloop
  endfacet
  facet normal 0 0 -1
    outer loop
      vertex -9 15.5885 0
      vertex -6.5 11.2583 0
      vertex -7.64121 10.5172 0
    endloop
  endfacet
  facet normal 0 0 -1
    outer loop
      vertex -9 15.5885 0
      vertex -7.64121 10.5172 0
      vertex -8.6987 9.66088 0
    endloop
  endfacet
  facet normal -0 0 -1
    outer loop
      vertex -2.55952 15.5912 0
      vertex -9 15.5885 0
      vertex -5.66229 21.3695 0
    endloop
  endfacet
  facet normal 0 0 -1
    outer loop
      vertex -9.66088 8.6987 0
      vertex -9 15.5885 0
      vertex -8.6987 9.66088 0
    endloop
  endfacet
  facet normal 0 0 -1
    outer loop
      vertex -18.152 15.5885 0
      vertex -9.66088 8.6987 0
      vertex -10.5172 7.64121 0
    endloop
  endfacet
  facet normal 0 0 -1
    outer loop
      vertex -18.152 15.5885 0
      vertex -10.5172 7.64121 0
      vertex -11.2583 6.5 0
    endloop
  endfacet
  facet normal 0 0 -1
    outer loop
      vertex -18.152 15.5885 0
      vertex -11.2583 6.5 0
      vertex -11.8761 5.28758 0
    endloop
  endfacet
  facet normal 0 0 -1
    outer loop
      vertex -18.152 15.5885 0
      vertex -11.8761 5.28758 0
      vertex -12.3637 4.01722 0
    endloop
  endfacet
  facet normal 0 0 -1
    outer loop
      vertex -9.66088 8.6987 0
      vertex -18.152 15.5885 0
      vertex -9 15.5885 0
    endloop
  endfacet
  facet normal 0 0 -1
    outer loop
      vertex -12.7159 2.70285 0
      vertex -18.152 15.5885 0
      vertex -12.3637 4.01722 0
    endloop
  endfacet
  facet normal 0 0 -1
    outer loop
      vertex -12.9288 1.35887 0
      vertex -18.152 15.5885 0
      vertex -12.7159 2.70285 0
    endloop
  endfacet
  facet normal 0 0 -1
    outer loop
      vertex -18.152 15.5885 0
      vertex -12.9288 1.35887 0
      vertex -13 0 0
    endloop
  endfacet
  facet normal -0 0 -1
    outer loop
      vertex 18 0 0
      vertex 12.9288 -1.35887 0
      vertex 13 0 0
    endloop
  endfacet
  facet normal 0 0 -1
    outer loop
      vertex 14.7821 -5.579 0
      vertex 12.7159 -2.70285 0
      vertex 12.9288 -1.35887 0
    endloop
  endfacet
  facet normal 0 0 -1
    outer loop
      vertex 14.7821 -5.579 0
      vertex 12.3637 -4.01722 0
      vertex 12.7159 -2.70285 0
    endloop
  endfacet
  facet normal 0 0 -1
    outer loop
      vertex 14.7821 -5.579 0
      vertex 11.8761 -5.28758 0
      vertex 12.3637 -4.01722 0
    endloop
  endfacet
  facet normal -0 0 -1
    outer loop
      vertex 14.7821 -5.579 0
      vertex 11.2583 -6.5 0
      vertex 11.8761 -5.28758 0
    endloop
  endfacet
  facet normal 0 0 -1
    outer loop
      vertex 14.7821 -5.579 0
      vertex 10.5172 -7.64121 0
      vertex 11.2583 -6.5 0
    endloop
  endfacet
  facet normal 0 0 -1
    outer loop
      vertex 14.7821 -5.579 0
      vertex 9.66088 -8.6987 0
      vertex 10.5172 -7.64121 0
    endloop
  endfacet
  facet normal 0 0 -1
    outer loop
      vertex 14.7821 -5.579 0
      vertex 8.6987 -9.66088 0
      vertex 9.66088 -8.6987 0
    endloop
  endfacet
  facet normal 0 0 -1
    outer loop
      vertex 14.7821 -5.579 0
      vertex 7.64121 -10.5172 0
      vertex 8.6987 -9.66088 0
    endloop
  endfacet
  facet normal 0 0 -1
    outer loop
      vertex -4.424 -23.5143 0
      vertex 7.64121 -10.5172 0
      vertex 14.7821 -5.579 0
    endloop
  endfacet
  facet normal 0 0 -1
    outer loop
      vertex -4.424 -23.5143 0
      vertex 6.5 -11.2583 0
      vertex 7.64121 -10.5172 0
    endloop
  endfacet
  facet normal 0 0 -1
    outer loop
      vertex -4.424 -23.5143 0
      vertex 5.28758 -11.8761 0
      vertex 6.5 -11.2583 0
    endloop
  endfacet
  facet normal 0 0 -1
    outer loop
      vertex -4.424 -23.5143 0
      vertex 4.01722 -12.3637 0
      vertex 5.28758 -11.8761 0
    endloop
  endfacet
  facet normal 0 0 -1
    outer loop
      vertex -4.424 -23.5143 0
      vertex 2.70285 -12.7159 0
      vertex 4.01722 -12.3637 0
    endloop
  endfacet
  facet normal 0 0 -1
    outer loop
      vertex -4.424 -23.5143 0
      vertex 1.35887 -12.9288 0
      vertex 2.70285 -12.7159 0
    endloop
  endfacet
  facet normal 0 0 -1
    outer loop
      vertex -4.424 -23.5143 0
      vertex 0 -13 0
      vertex 1.35887 -12.9288 0
    endloop
  endfacet
  facet normal 0 0 -1
    outer loop
      vertex -4.424 -23.5143 0
      vertex -1.35887 -12.9288 0
      vertex 0 -13 0
    endloop
  endfacet
  facet normal 0 0 -1
    outer loop
      vertex -4.424 -23.5143 0
      vertex -2.70285 -12.7159 0
      vertex -1.35887 -12.9288 0
    endloop
  endfacet
  facet normal 0 0 -1
    outer loop
      vertex -9 -15.5885 0
      vertex -2.70285 -12.7159 0
      vertex -4.424 -23.5143 0
    endloop
  endfacet
  facet normal -0 0 -1
    outer loop
      vertex -2.70285 -12.7159 0
      vertex -9 -15.5885 0
      vertex -4.01722 -12.3637 0
    endloop
  endfacet
  facet normal -0 0 -1
    outer loop
      vertex -4.01722 -12.3637 0
      vertex -9 -15.5885 0
      vertex -5.28758 -11.8761 0
    endloop
  endfacet
  facet normal -0 0 -1
    outer loop
      vertex -5.28758 -11.8761 0
      vertex -9 -15.5885 0
      vertex -6.5 -11.2583 0
    endloop
  endfacet
  facet normal -0 0 -1
    outer loop
      vertex -6.5 -11.2583 0
      vertex -9 -15.5885 0
      vertex -7.64121 -10.5172 0
    endloop
  endfacet
  facet normal -0 0 -1
    outer loop
      vertex -7.64121 -10.5172 0
      vertex -9 -15.5885 0
      vertex -8.6987 -9.66088 0
    endloop
  endfacet
  facet normal 0 0 -1
    outer loop
      vertex -12.2226 -10.0122 0
      vertex -8.6987 -9.66088 0
      vertex -9 -15.5885 0
    endloop
  endfacet
  facet normal -0 0 -1
    outer loop
      vertex -8.6987 -9.66088 0
      vertex -12.2226 -10.0122 0
      vertex -9.66088 -8.6987 0
    endloop
  endfacet
  facet normal -0 0 -1
    outer loop
      vertex -9.66088 -8.6987 0
      vertex -12.2226 -10.0122 0
      vertex -10.5172 -7.64121 0
    endloop
  endfacet
  facet normal -0 0 -1
    outer loop
      vertex -10.5172 -7.64121 0
      vertex -12.2226 -10.0122 0
      vertex -11.2583 -6.5 0
    endloop
  endfacet
  facet normal -0 0 -1
    outer loop
      vertex -11.2583 -6.5 0
      vertex -12.2226 -10.0122 0
      vertex -11.8761 -5.28758 0
    endloop
  endfacet
  facet normal 0 -0 -1
    outer loop
      vertex -12.2226 -10.0122 0
      vertex -9 -15.5885 0
      vertex -15.6754 -15.5885 0
    endloop
  endfacet
  facet normal 0 0 -1
    outer loop
      vertex -12.2226 -10.0122 0
      vertex -12.3637 -4.01722 0
      vertex -11.8761 -5.28758 0
    endloop
  endfacet
  facet normal 0 0 -1
    outer loop
      vertex -12.2226 -10.0122 0
      vertex -12.7159 -2.70285 0
      vertex -12.3637 -4.01722 0
    endloop
  endfacet
  facet normal 0 0 -1
    outer loop
      vertex -12.2226 -10.0122 0
      vertex -12.9288 -1.35887 0
      vertex -12.7159 -2.70285 0
    endloop
  endfacet
  facet normal 0 0 -1
    outer loop
      vertex -12.9288 -1.35887 0
      vertex -18.152 15.5885 0
      vertex -13 0 0
    endloop
  endfacet
  facet normal 0 0 -1
    outer loop
      vertex -18.152 15.5885 0
      vertex -12.9288 -1.35887 0
      vertex -12.2226 -10.0122 0
    endloop
  endfacet
  facet normal -0.0308124 -0.999525 0
    outer loop
      vertex 14.7821 -5.579 0
      vertex 21.3377 -5.78109 8
      vertex 14.7821 -5.579 8
    endloop
  endfacet
  facet normal -0.0308124 -0.999525 -0
    outer loop
      vertex 21.3377 -5.78109 8
      vertex 14.7821 -5.579 0
      vertex 21.3377 -5.78109 0
    endloop
  endfacet
  facet normal 0.291698 0.956511 -0
    outer loop
      vertex 22.576 7.92587 0
      vertex -2.55952 15.5912 8
      vertex 22.576 7.92587 8
    endloop
  endfacet
  facet normal 0.291698 0.956511 0
    outer loop
      vertex -2.55952 15.5912 8
      vertex 22.576 7.92587 0
      vertex -2.55952 15.5912 0
    endloop
  endfacet
  facet normal 0.866025 0.5 0
    outer loop
      vertex 21.3377 -5.78109 8
      vertex 18 0 0
      vertex 18 0 8
    endloop
  endfacet
  facet normal 0.866025 0.5 0
    outer loop
      vertex 18 0 0
      vertex 21.3377 -5.78109 8
      vertex 21.3377 -5.78109 0
    endloop
  endfacet
  facet normal 0.866025 -0.5 0
    outer loop
      vertex 18 0 8
      vertex 22.576 7.92587 0
      vertex 22.576 7.92587 8
    endloop
  endfacet
  facet normal 0.866025 -0.5 0
    outer loop
      vertex 22.576 7.92587 0
      vertex 18 0 8
      vertex 18 0 0
    endloop
  endfacet
  facet normal 0.88102 0.473078 0
    outer loop
      vertex -2.55952 15.5912 8
      vertex -5.66229 21.3695 0
      vertex -5.66229 21.3695 8
    endloop
  endfacet
  facet normal 0.88102 0.473078 0
    outer loop
      vertex -5.66229 21.3695 0
      vertex -2.55952 15.5912 8
      vertex -2.55952 15.5912 0
    endloop
  endfacet
  facet normal -0.974211 -0.225638 0
    outer loop
      vertex -12.2226 -10.0122 0
      vertex -18.152 15.5885 8
      vertex -18.152 15.5885 0
    endloop
  endfacet
  facet normal -0.974211 -0.225638 0
    outer loop
      vertex -18.152 15.5885 8
      vertex -12.2226 -10.0122 0
      vertex -12.2226 -10.0122 8
    endloop
  endfacet
  facet normal -0.866025 0.5 0
    outer loop
      vertex -9 15.5885 0
      vertex -5.66229 21.3695 8
      vertex -5.66229 21.3695 0
    endloop
  endfacet
  facet normal -0.866025 0.5 0
    outer loop
      vertex -5.66229 21.3695 8
      vertex -9 15.5885 0
      vertex -9 15.5885 8
    endloop
  endfacet
  facet normal 0 1 -0
    outer loop
      vertex -9 15.5885 0
      vertex -18.152 15.5885 8
      vertex -9 15.5885 8
    endloop
  endfacet
  facet normal 0 1 0
    outer loop
      vertex -18.152 15.5885 8
      vertex -9 15.5885 0
      vertex -18.152 15.5885 0
    endloop
  endfacet
  facet normal -0.850208 0.526447 0
    outer loop
      vertex -15.6754 -15.5885 0
      vertex -12.2226 -10.0122 8
      vertex -12.2226 -10.0122 0
    endloop
  endfacet
  facet normal -0.850208 0.526447 0
    outer loop
      vertex -12.2226 -10.0122 8
      vertex -15.6754 -15.5885 0
      vertex -15.6754 -15.5885 8
    endloop
  endfacet
  facet normal 0.682514 -0.730873 0
    outer loop
      vertex -4.424 -23.5143 0
      vertex 14.7821 -5.579 8
      vertex -4.424 -23.5143 8
    endloop
  endfacet
  facet normal 0.682514 -0.730873 0
    outer loop
      vertex 14.7821 -5.579 8
      vertex -4.424 -23.5143 0
      vertex 14.7821 -5.579 0
    endloop
  endfacet
  facet normal 0 -1 0
    outer loop
      vertex -15.6754 -15.5885 0
      vertex -9 -15.5885 8
      vertex -15.6754 -15.5885 8
    endloop
  endfacet
  facet normal 0 -1 -0
    outer loop
      vertex -9 -15.5885 8
      vertex -15.6754 -15.5885 0
      vertex -9 -15.5885 0
    endloop
  endfacet
  facet normal -0.866025 -0.5 0
    outer loop
      vertex -4.424 -23.5143 0
      vertex -9 -15.5885 8
      vertex -9 -15.5885 0
    endloop
  endfacet
  facet normal -0.866025 -0.5 0
    outer loop
      vertex -9 -15.5885 8
      vertex -4.424 -23.5143 0
      vertex -4.424 -23.5143 8
    endloop
  endfacet
  facet normal -0.965926 -0.258819 0
    outer loop
      vertex 12.7159 2.70285 0
      vertex 12.3637 4.01722 8
      vertex 12.3637 4.01722 0
    endloop
  endfacet
  facet normal -0.965926 -0.258819 0
    outer loop
      vertex 12.3637 4.01722 8
      vertex 12.7159 2.70285 0
      vertex 12.7159 2.70285 8
    endloop
  endfacet
  facet normal -0.99863 -0.0523362 0
    outer loop
      vertex 13 0 0
      vertex 12.9288 1.35887 8
      vertex 12.9288 1.35887 0
    endloop
  endfacet
  facet normal -0.99863 -0.0523362 0
    outer loop
      vertex 12.9288 1.35887 8
      vertex 13 0 0
      vertex 13 0 8
    endloop
  endfacet
  facet normal 0.99863 -0.0523362 0
    outer loop
      vertex -13 0 8
      vertex -12.9288 1.35887 0
      vertex -12.9288 1.35887 8
    endloop
  endfacet
  facet normal 0.99863 -0.0523362 0
    outer loop
      vertex -12.9288 1.35887 0
      vertex -13 0 8
      vertex -13 0 0
    endloop
  endfacet
  facet normal -0.0523362 -0.99863 0
    outer loop
      vertex 0 13 0
      vertex 1.35887 12.9288 8
      vertex 0 13 8
    endloop
  endfacet
  facet normal -0.0523362 -0.99863 -0
    outer loop
      vertex 1.35887 12.9288 8
      vertex 0 13 0
      vertex 1.35887 12.9288 0
    endloop
  endfacet
  facet normal -0.707107 -0.707107 0
    outer loop
      vertex 9.66088 8.6987 0
      vertex 8.6987 9.66088 8
      vertex 8.6987 9.66088 0
    endloop
  endfacet
  facet normal -0.707107 -0.707107 0
    outer loop
      vertex 8.6987 9.66088 8
      vertex 9.66088 8.6987 0
      vertex 9.66088 8.6987 8
    endloop
  endfacet
  facet normal 0.629321 -0.777146 0
    outer loop
      vertex -8.6987 9.66088 0
      vertex -7.64121 10.5172 8
      vertex -8.6987 9.66088 8
    endloop
  endfacet
  facet normal 0.629321 -0.777146 0
    outer loop
      vertex -7.64121 10.5172 8
      vertex -8.6987 9.66088 0
      vertex -7.64121 10.5172 0
    endloop
  endfacet
  facet normal 0.258819 -0.965926 0
    outer loop
      vertex -4.01722 12.3637 0
      vertex -2.70285 12.7159 8
      vertex -4.01722 12.3637 8
    endloop
  endfacet
  facet normal 0.258819 -0.965926 0
    outer loop
      vertex -2.70285 12.7159 8
      vertex -4.01722 12.3637 0
      vertex -2.70285 12.7159 0
    endloop
  endfacet
  facet normal 0.838671 0.544639 0
    outer loop
      vertex -10.5172 -7.64121 8
      vertex -11.2583 -6.5 0
      vertex -11.2583 -6.5 8
    endloop
  endfacet
  facet normal 0.838671 0.544639 0
    outer loop
      vertex -11.2583 -6.5 0
      vertex -10.5172 -7.64121 8
      vertex -10.5172 -7.64121 0
    endloop
  endfacet
  facet normal -0.93358 -0.358368 0
    outer loop
      vertex 12.3637 4.01722 0
      vertex 11.8761 5.28758 8
      vertex 11.8761 5.28758 0
    endloop
  endfacet
  facet normal -0.93358 -0.358368 0
    outer loop
      vertex 11.8761 5.28758 8
      vertex 12.3637 4.01722 0
      vertex 12.3637 4.01722 8
    endloop
  endfacet
  facet normal -0.358368 -0.93358 0
    outer loop
      vertex 4.01722 12.3637 0
      vertex 5.28758 11.8761 8
      vertex 4.01722 12.3637 8
    endloop
  endfacet
  facet normal -0.358368 -0.93358 -0
    outer loop
      vertex 5.28758 11.8761 8
      vertex 4.01722 12.3637 0
      vertex 5.28758 11.8761 0
    endloop
  endfacet
  facet normal -0.258819 -0.965926 0
    outer loop
      vertex 2.70285 12.7159 0
      vertex 4.01722 12.3637 8
      vertex 2.70285 12.7159 8
    endloop
  endfacet
  facet normal -0.258819 -0.965926 -0
    outer loop
      vertex 4.01722 12.3637 8
      vertex 2.70285 12.7159 0
      vertex 4.01722 12.3637 0
    endloop
  endfacet
  facet normal 0.838671 -0.544639 0
    outer loop
      vertex -11.2583 6.5 8
      vertex -10.5172 7.64121 0
      vertex -10.5172 7.64121 8
    endloop
  endfacet
  facet normal 0.838671 -0.544639 0
    outer loop
      vertex -10.5172 7.64121 0
      vertex -11.2583 6.5 8
      vertex -11.2583 6.5 0
    endloop
  endfacet
  facet normal 0.777146 -0.629321 0
    outer loop
      vertex -10.5172 7.64121 8
      vertex -9.66088 8.6987 0
      vertex -9.66088 8.6987 8
    endloop
  endfacet
  facet normal 0.777146 -0.629321 0
    outer loop
      vertex -9.66088 8.6987 0
      vertex -10.5172 7.64121 8
      vertex -10.5172 7.64121 0
    endloop
  endfacet
  facet normal 0.0523362 -0.99863 0
    outer loop
      vertex -1.35887 12.9288 0
      vertex 0 13 8
      vertex -1.35887 12.9288 8
    endloop
  endfacet
  facet normal 0.0523362 -0.99863 0
    outer loop
      vertex 0 13 8
      vertex -1.35887 12.9288 0
      vertex 0 13 0
    endloop
  endfacet
  facet normal -0.891006 0.453991 0
    outer loop
      vertex 11.2583 -6.5 0
      vertex 11.8761 -5.28758 8
      vertex 11.8761 -5.28758 0
    endloop
  endfacet
  facet normal -0.891006 0.453991 0
    outer loop
      vertex 11.8761 -5.28758 8
      vertex 11.2583 -6.5 0
      vertex 11.2583 -6.5 8
    endloop
  endfacet
  facet normal -0.258819 0.965926 0
    outer loop
      vertex 4.01722 -12.3637 0
      vertex 2.70285 -12.7159 8
      vertex 4.01722 -12.3637 8
    endloop
  endfacet
  facet normal -0.258819 0.965926 0
    outer loop
      vertex 2.70285 -12.7159 8
      vertex 4.01722 -12.3637 0
      vertex 2.70285 -12.7159 0
    endloop
  endfacet
  facet normal -0.707107 0.707107 0
    outer loop
      vertex 8.6987 -9.66088 0
      vertex 9.66088 -8.6987 8
      vertex 9.66088 -8.6987 0
    endloop
  endfacet
  facet normal -0.707107 0.707107 0
    outer loop
      vertex 9.66088 -8.6987 8
      vertex 8.6987 -9.66088 0
      vertex 8.6987 -9.66088 8
    endloop
  endfacet
  facet normal -0.965926 0.258819 0
    outer loop
      vertex 12.3637 -4.01722 0
      vertex 12.7159 -2.70285 8
      vertex 12.7159 -2.70285 0
    endloop
  endfacet
  facet normal -0.965926 0.258819 0
    outer loop
      vertex 12.7159 -2.70285 8
      vertex 12.3637 -4.01722 0
      vertex 12.3637 -4.01722 8
    endloop
  endfacet
  facet normal 0.358368 0.93358 -0
    outer loop
      vertex -4.01722 -12.3637 0
      vertex -5.28758 -11.8761 8
      vertex -4.01722 -12.3637 8
    endloop
  endfacet
  facet normal 0.358368 0.93358 0
    outer loop
      vertex -5.28758 -11.8761 8
      vertex -4.01722 -12.3637 0
      vertex -5.28758 -11.8761 0
    endloop
  endfacet
  facet normal 0.544639 0.838671 -0
    outer loop
      vertex -6.5 -11.2583 0
      vertex -7.64121 -10.5172 8
      vertex -6.5 -11.2583 8
    endloop
  endfacet
  facet normal 0.544639 0.838671 0
    outer loop
      vertex -7.64121 -10.5172 8
      vertex -6.5 -11.2583 0
      vertex -7.64121 -10.5172 0
    endloop
  endfacet
  facet normal 0.987688 0.156434 0
    outer loop
      vertex -12.7159 -2.70285 8
      vertex -12.9288 -1.35887 0
      vertex -12.9288 -1.35887 8
    endloop
  endfacet
  facet normal 0.987688 0.156434 0
    outer loop
      vertex -12.9288 -1.35887 0
      vertex -12.7159 -2.70285 8
      vertex -12.7159 -2.70285 0
    endloop
  endfacet
  facet normal -0.987688 -0.156434 0
    outer loop
      vertex 12.9288 1.35887 0
      vertex 12.7159 2.70285 8
      vertex 12.7159 2.70285 0
    endloop
  endfacet
  facet normal -0.987688 -0.156434 0
    outer loop
      vertex 12.7159 2.70285 8
      vertex 12.9288 1.35887 0
      vertex 12.9288 1.35887 8
    endloop
  endfacet
  facet normal -0.891006 -0.453991 0
    outer loop
      vertex 11.8761 5.28758 0
      vertex 11.2583 6.5 8
      vertex 11.2583 6.5 0
    endloop
  endfacet
  facet normal -0.891006 -0.453991 0
    outer loop
      vertex 11.2583 6.5 8
      vertex 11.8761 5.28758 0
      vertex 11.8761 5.28758 8
    endloop
  endfacet
  facet normal -0.838671 -0.544639 0
    outer loop
      vertex 11.2583 6.5 0
      vertex 10.5172 7.64121 8
      vertex 10.5172 7.64121 0
    endloop
  endfacet
  facet normal -0.838671 -0.544639 0
    outer loop
      vertex 10.5172 7.64121 8
      vertex 11.2583 6.5 0
      vertex 11.2583 6.5 8
    endloop
  endfacet
  facet normal -0.156434 -0.987688 0
    outer loop
      vertex 1.35887 12.9288 0
      vertex 2.70285 12.7159 8
      vertex 1.35887 12.9288 8
    endloop
  endfacet
  facet normal -0.156434 -0.987688 -0
    outer loop
      vertex 2.70285 12.7159 8
      vertex 1.35887 12.9288 0
      vertex 2.70285 12.7159 0
    endloop
  endfacet
  facet normal -0.629321 -0.777146 0
    outer loop
      vertex 7.64121 10.5172 0
      vertex 8.6987 9.66088 8
      vertex 7.64121 10.5172 8
    endloop
  endfacet
  facet normal -0.629321 -0.777146 -0
    outer loop
      vertex 8.6987 9.66088 8
      vertex 7.64121 10.5172 0
      vertex 8.6987 9.66088 0
    endloop
  endfacet
  facet normal -0.45399 -0.891007 0
    outer loop
      vertex 5.28758 11.8761 0
      vertex 6.5 11.2583 8
      vertex 5.28758 11.8761 8
    endloop
  endfacet
  facet normal -0.45399 -0.891007 -0
    outer loop
      vertex 6.5 11.2583 8
      vertex 5.28758 11.8761 0
      vertex 6.5 11.2583 0
    endloop
  endfacet
  facet normal -0.544639 -0.838671 0
    outer loop
      vertex 6.5 11.2583 0
      vertex 7.64121 10.5172 8
      vertex 6.5 11.2583 8
    endloop
  endfacet
  facet normal -0.544639 -0.838671 -0
    outer loop
      vertex 7.64121 10.5172 8
      vertex 6.5 11.2583 0
      vertex 7.64121 10.5172 0
    endloop
  endfacet
  facet normal 0.891006 -0.453991 0
    outer loop
      vertex -11.8761 5.28758 8
      vertex -11.2583 6.5 0
      vertex -11.2583 6.5 8
    endloop
  endfacet
  facet normal 0.891006 -0.453991 0
    outer loop
      vertex -11.2583 6.5 0
      vertex -11.8761 5.28758 8
      vertex -11.8761 5.28758 0
    endloop
  endfacet
  facet normal 0.93358 -0.358368 0
    outer loop
      vertex -12.3637 4.01722 8
      vertex -11.8761 5.28758 0
      vertex -11.8761 5.28758 8
    endloop
  endfacet
  facet normal 0.93358 -0.358368 0
    outer loop
      vertex -11.8761 5.28758 0
      vertex -12.3637 4.01722 8
      vertex -12.3637 4.01722 0
    endloop
  endfacet
  facet normal 0.965926 -0.258819 0
    outer loop
      vertex -12.7159 2.70285 8
      vertex -12.3637 4.01722 0
      vertex -12.3637 4.01722 8
    endloop
  endfacet
  facet normal 0.965926 -0.258819 0
    outer loop
      vertex -12.3637 4.01722 0
      vertex -12.7159 2.70285 8
      vertex -12.7159 2.70285 0
    endloop
  endfacet
  facet normal 0.987688 -0.156434 0
    outer loop
      vertex -12.9288 1.35887 8
      vertex -12.7159 2.70285 0
      vertex -12.7159 2.70285 8
    endloop
  endfacet
  facet normal 0.987688 -0.156434 0
    outer loop
      vertex -12.7159 2.70285 0
      vertex -12.9288 1.35887 8
      vertex -12.9288 1.35887 0
    endloop
  endfacet
  facet normal 0.358368 -0.93358 0
    outer loop
      vertex -5.28758 11.8761 0
      vertex -4.01722 12.3637 8
      vertex -5.28758 11.8761 8
    endloop
  endfacet
  facet normal 0.358368 -0.93358 0
    outer loop
      vertex -4.01722 12.3637 8
      vertex -5.28758 11.8761 0
      vertex -4.01722 12.3637 0
    endloop
  endfacet
  facet normal 0.453991 -0.891006 0
    outer loop
      vertex -6.5 11.2583 0
      vertex -5.28758 11.8761 8
      vertex -6.5 11.2583 8
    endloop
  endfacet
  facet normal 0.453991 -0.891006 0
    outer loop
      vertex -5.28758 11.8761 8
      vertex -6.5 11.2583 0
      vertex -5.28758 11.8761 0
    endloop
  endfacet
  facet normal 0.156434 -0.987688 0
    outer loop
      vertex -2.70285 12.7159 0
      vertex -1.35887 12.9288 8
      vertex -2.70285 12.7159 8
    endloop
  endfacet
  facet normal 0.156434 -0.987688 0
    outer loop
      vertex -1.35887 12.9288 8
      vertex -2.70285 12.7159 0
      vertex -1.35887 12.9288 0
    endloop
  endfacet
  facet normal -0.0523362 0.99863 0
    outer loop
      vertex 1.35887 -12.9288 0
      vertex 0 -13 8
      vertex 1.35887 -12.9288 8
    endloop
  endfacet
  facet normal -0.0523362 0.99863 0
    outer loop
      vertex 0 -13 8
      vertex 1.35887 -12.9288 0
      vertex 0 -13 0
    endloop
  endfacet
  facet normal -0.156434 0.987688 0
    outer loop
      vertex 2.70285 -12.7159 0
      vertex 1.35887 -12.9288 8
      vertex 2.70285 -12.7159 8
    endloop
  endfacet
  facet normal -0.156434 0.987688 0
    outer loop
      vertex 1.35887 -12.9288 8
      vertex 2.70285 -12.7159 0
      vertex 1.35887 -12.9288 0
    endloop
  endfacet
  facet normal -0.45399 0.891007 0
    outer loop
      vertex 6.5 -11.2583 0
      vertex 5.28758 -11.8761 8
      vertex 6.5 -11.2583 8
    endloop
  endfacet
  facet normal -0.45399 0.891007 0
    outer loop
      vertex 5.28758 -11.8761 8
      vertex 6.5 -11.2583 0
      vertex 5.28758 -11.8761 0
    endloop
  endfacet
  facet normal -0.629321 0.777146 0
    outer loop
      vertex 8.6987 -9.66088 0
      vertex 7.64121 -10.5172 8
      vertex 8.6987 -9.66088 8
    endloop
  endfacet
  facet normal -0.629321 0.777146 0
    outer loop
      vertex 7.64121 -10.5172 8
      vertex 8.6987 -9.66088 0
      vertex 7.64121 -10.5172 0
    endloop
  endfacet
  facet normal -0.544639 0.838671 0
    outer loop
      vertex 7.64121 -10.5172 0
      vertex 6.5 -11.2583 8
      vertex 7.64121 -10.5172 8
    endloop
  endfacet
  facet normal -0.544639 0.838671 0
    outer loop
      vertex 6.5 -11.2583 8
      vertex 7.64121 -10.5172 0
      vertex 6.5 -11.2583 0
    endloop
  endfacet
  facet normal -0.777146 0.629321 0
    outer loop
      vertex 9.66088 -8.6987 0
      vertex 10.5172 -7.64121 8
      vertex 10.5172 -7.64121 0
    endloop
  endfacet
  facet normal -0.777146 0.629321 0
    outer loop
      vertex 10.5172 -7.64121 8
      vertex 9.66088 -8.6987 0
      vertex 9.66088 -8.6987 8
    endloop
  endfacet
  facet normal -0.838671 0.544639 0
    outer loop
      vertex 10.5172 -7.64121 0
      vertex 11.2583 -6.5 8
      vertex 11.2583 -6.5 0
    endloop
  endfacet
  facet normal -0.838671 0.544639 0
    outer loop
      vertex 11.2583 -6.5 8
      vertex 10.5172 -7.64121 0
      vertex 10.5172 -7.64121 8
    endloop
  endfacet
  facet normal 0.156434 0.987688 -0
    outer loop
      vertex -1.35887 -12.9288 0
      vertex -2.70285 -12.7159 8
      vertex -1.35887 -12.9288 8
    endloop
  endfacet
  facet normal 0.156434 0.987688 0
    outer loop
      vertex -2.70285 -12.7159 8
      vertex -1.35887 -12.9288 0
      vertex -2.70285 -12.7159 0
    endloop
  endfacet
  facet normal 0.707107 0.707107 0
    outer loop
      vertex -8.6987 -9.66088 8
      vertex -9.66088 -8.6987 0
      vertex -9.66088 -8.6987 8
    endloop
  endfacet
  facet normal 0.707107 0.707107 0
    outer loop
      vertex -9.66088 -8.6987 0
      vertex -8.6987 -9.66088 8
      vertex -8.6987 -9.66088 0
    endloop
  endfacet
  facet normal 0.0523362 0.99863 -0
    outer loop
      vertex 0 -13 0
      vertex -1.35887 -12.9288 8
      vertex 0 -13 8
    endloop
  endfacet
  facet normal 0.0523362 0.99863 0
    outer loop
      vertex -1.35887 -12.9288 8
      vertex 0 -13 0
      vertex -1.35887 -12.9288 0
    endloop
  endfacet
  facet normal 0.629321 0.777146 -0
    outer loop
      vertex -7.64121 -10.5172 0
      vertex -8.6987 -9.66088 8
      vertex -7.64121 -10.5172 8
    endloop
  endfacet
  facet normal 0.629321 0.777146 0
    outer loop
      vertex -8.6987 -9.66088 8
      vertex -7.64121 -10.5172 0
      vertex -8.6987 -9.66088 0
    endloop
  endfacet
  facet normal 0.777146 0.629321 0
    outer loop
      vertex -9.66088 -8.6987 8
      vertex -10.5172 -7.64121 0
      vertex -10.5172 -7.64121 8
    endloop
  endfacet
  facet normal 0.777146 0.629321 0
    outer loop
      vertex -10.5172 -7.64121 0
      vertex -9.66088 -8.6987 8
      vertex -9.66088 -8.6987 0
    endloop
  endfacet
  facet normal 0.93358 0.358368 0
    outer loop
      vertex -11.8761 -5.28758 8
      vertex -12.3637 -4.01722 0
      vertex -12.3637 -4.01722 8
    endloop
  endfacet
  facet normal 0.93358 0.358368 0
    outer loop
      vertex -12.3637 -4.01722 0
      vertex -11.8761 -5.28758 8
      vertex -11.8761 -5.28758 0
    endloop
  endfacet
  facet normal 0.965926 0.258819 0
    outer loop
      vertex -12.3637 -4.01722 8
      vertex -12.7159 -2.70285 0
      vertex -12.7159 -2.70285 8
    endloop
  endfacet
  facet normal 0.965926 0.258819 0
    outer loop
      vertex -12.7159 -2.70285 0
      vertex -12.3637 -4.01722 8
      vertex -12.3637 -4.01722 0
    endloop
  endfacet
  facet normal 0.99863 0.0523362 0
    outer loop
      vertex -12.9288 -1.35887 8
      vertex -13 0 0
      vertex -13 0 8
    endloop
  endfacet
  facet normal 0.99863 0.0523362 0
    outer loop
      vertex -13 0 0
      vertex -12.9288 -1.35887 8
      vertex -12.9288 -1.35887 0
    endloop
  endfacet
  facet normal -0.777146 -0.629321 0
    outer loop
      vertex 10.5172 7.64121 0
      vertex 9.66088 8.6987 8
      vertex 9.66088 8.6987 0
    endloop
  endfacet
  facet normal -0.777146 -0.629321 0
    outer loop
      vertex 9.66088 8.6987 8
      vertex 10.5172 7.64121 0
      vertex 10.5172 7.64121 8
    endloop
  endfacet
  facet normal 0.707107 -0.707107 0
    outer loop
      vertex -9.66088 8.6987 8
      vertex -8.6987 9.66088 0
      vertex -8.6987 9.66088 8
    endloop
  endfacet
  facet normal 0.707107 -0.707107 0
    outer loop
      vertex -8.6987 9.66088 0
      vertex -9.66088 8.6987 8
      vertex -9.66088 8.6987 0
    endloop
  endfacet
  facet normal 0.544639 -0.838671 0
    outer loop
      vertex -7.64121 10.5172 0
      vertex -6.5 11.2583 8
      vertex -7.64121 10.5172 8
    endloop
  endfacet
  facet normal 0.544639 -0.838671 0
    outer loop
      vertex -6.5 11.2583 8
      vertex -7.64121 10.5172 0
      vertex -6.5 11.2583 0
    endloop
  endfacet
  facet normal -0.358368 0.93358 0
    outer loop
      vertex 5.28758 -11.8761 0
      vertex 4.01722 -12.3637 8
      vertex 5.28758 -11.8761 8
    endloop
  endfacet
  facet normal -0.358368 0.93358 0
    outer loop
      vertex 4.01722 -12.3637 8
      vertex 5.28758 -11.8761 0
      vertex 4.01722 -12.3637 0
    endloop
  endfacet
  facet normal -0.93358 0.358368 0
    outer loop
      vertex 11.8761 -5.28758 0
      vertex 12.3637 -4.01722 8
      vertex 12.3637 -4.01722 0
    endloop
  endfacet
  facet normal -0.93358 0.358368 0
    outer loop
      vertex 12.3637 -4.01722 8
      vertex 11.8761 -5.28758 0
      vertex 11.8761 -5.28758 8
    endloop
  endfacet
  facet normal -0.987688 0.156434 0
    outer loop
      vertex 12.7159 -2.70285 0
      vertex 12.9288 -1.35887 8
      vertex 12.9288 -1.35887 0
    endloop
  endfacet
  facet normal -0.987688 0.156434 0
    outer loop
      vertex 12.9288 -1.35887 8
      vertex 12.7159 -2.70285 0
      vertex 12.7159 -2.70285 8
    endloop
  endfacet
  facet normal -0.99863 0.0523362 0
    outer loop
      vertex 12.9288 -1.35887 0
      vertex 13 0 8
      vertex 13 0 0
    endloop
  endfacet
  facet normal -0.99863 0.0523362 0
    outer loop
      vertex 13 0 8
      vertex 12.9288 -1.35887 0
      vertex 12.9288 -1.35887 8
    endloop
  endfacet
  facet normal 0.258819 0.965926 -0
    outer loop
      vertex -2.70285 -12.7159 0
      vertex -4.01722 -12.3637 8
      vertex -2.70285 -12.7159 8
    endloop
  endfacet
  facet normal 0.258819 0.965926 0
    outer loop
      vertex -4.01722 -12.3637 8
      vertex -2.70285 -12.7159 0
      vertex -4.01722 -12.3637 0
    endloop
  endfacet
  facet normal 0.45399 0.891007 -0
    outer loop
      vertex -5.28758 -11.8761 0
      vertex -6.5 -11.2583 8
      vertex -5.28758 -11.8761 8
    endloop
  endfacet
  facet normal 0.45399 0.891007 0
    outer loop
      vertex -6.5 -11.2583 8
      vertex -5.28758 -11.8761 0
      vertex -6.5 -11.2583 0
    endloop
  endfacet
  facet normal 0.891006 0.453991 0
    outer loop
      vertex -11.2583 -6.5 8
      vertex -11.8761 -5.28758 0
      vertex -11.8761 -5.28758 8
    endloop
  endfacet
  facet normal 0.891006 0.453991 0
    outer loop
      vertex -11.8761 -5.28758 0
      vertex -11.2583 -6.5 8
      vertex -11.2583 -6.5 0
    endloop
  endfacet
endsolid OpenSCAD_Model
