solid OpenSCAD_Model
  facet normal 0.866038 0.499978 0
    outer loop
      vertex 18.4 11.0392 -0.3
      vertex 17.75 12.1651 -1.79999
      vertex 17.75 12.1651 -0.3
    endloop
  endfacet
  facet normal 0.866038 0.499978 0
    outer loop
      vertex 17.75 12.1651 -1.79999
      vertex 18.4 11.0392 -0.3
      vertex 18.4 11.0392 -1.79999
    endloop
  endfacet
  facet normal 0 1 -0
    outer loop
      vertex 17.75 12.1651 -1.79999
      vertex 17 12.1651 -0.3
      vertex 17.75 12.1651 -0.3
    endloop
  endfacet
  facet normal 0 1 0
    outer loop
      vertex 17 12.1651 -0.3
      vertex 17.75 12.1651 -1.79999
      vertex 17 12.1651 -1.79999
    endloop
  endfacet
  facet normal -0 0 1
    outer loop
      vertex 17 12.1651 -0.3
      vertex 18.4 11.0392 -0.3
      vertex 17.75 12.1651 -0.3
    endloop
  endfacet
  facet normal 0 0 1
    outer loop
      vertex 18.4 11.0392 -0.3
      vertex 17 12.1651 -0.3
      vertex 18.4 8.96077 -0.3
    endloop
  endfacet
  facet normal 0 0 1
    outer loop
      vertex 17 7.83494 -0.3
      vertex 18.4 8.96077 -0.3
      vertex 17 12.1651 -0.3
    endloop
  endfacet
  facet normal 0 0 1
    outer loop
      vertex 18.4 8.96077 -0.3
      vertex 17 7.83494 -0.3
      vertex 17.75 7.83494 -0.3
    endloop
  endfacet
  facet normal 0 -1 0
    outer loop
      vertex 17 7.83494 -1.79999
      vertex 17.75 7.83494 -0.3
      vertex 17 7.83494 -0.3
    endloop
  endfacet
  facet normal 0 -1 -0
    outer loop
      vertex 17.75 7.83494 -0.3
      vertex 17 7.83494 -1.79999
      vertex 17.75 7.83494 -1.79999
    endloop
  endfacet
  facet normal 0.866025 -0.500001 0
    outer loop
      vertex 17.75 7.83494 -0.3
      vertex 18.4 8.96077 -1.79999
      vertex 18.4 8.96077 -0.3
    endloop
  endfacet
  facet normal 0.866025 -0.500001 0
    outer loop
      vertex 18.4 8.96077 -1.79999
      vertex 17.75 7.83494 -0.3
      vertex 17.75 7.83494 -1.79999
    endloop
  endfacet
  facet normal 1 -0 0
    outer loop
      vertex 18.4 8.96077 -0.3
      vertex 18.4 11.0392 -1.79999
      vertex 18.4 11.0392 -0.3
    endloop
  endfacet
  facet normal 1 0 0
    outer loop
      vertex 18.4 11.0392 -1.79999
      vertex 18.4 8.96077 -0.3
      vertex 18.4 8.96077 -1.79999
    endloop
  endfacet
  facet normal 1 0 0
    outer loop
      vertex 17 24 -0.299999
      vertex 17 12.1651 -0.3
      vertex 17 24 -1.8
    endloop
  endfacet
  facet normal 1 0 0
    outer loop
      vertex 17 24 -0.299999
      vertex 17 7.83494 -0.3
      vertex 17 12.1651 -0.3
    endloop
  endfacet
  facet normal 1 -0 0
    outer loop
      vertex 17 -15 -0.299999
      vertex 17 7.83494 -0.3
      vertex 17 24 -0.299999
    endloop
  endfacet
  facet normal 1 0 0
    outer loop
      vertex 17 -15 -0.299999
      vertex 17 7.83494 -1.79999
      vertex 17 7.83494 -0.3
    endloop
  endfacet
  facet normal 1 0 0
    outer loop
      vertex 17 7.83494 -1.79999
      vertex 17 -15 -0.299999
      vertex 17 -15 -1.79999
    endloop
  endfacet
  facet normal 1 -0 0
    outer loop
      vertex 17 12.1651 -1.79999
      vertex 17 24 -1.8
      vertex 17 12.1651 -0.3
    endloop
  endfacet
  facet normal 1 0 0
    outer loop
      vertex 17 10 -1.8
      vertex 17 12.1651 -1.79999
      vertex 17 10 -1.79999
    endloop
  endfacet
  facet normal 1 0 0
    outer loop
      vertex 17 12.1651 -1.79999
      vertex 17 10 -1.8
      vertex 17 24 -1.8
    endloop
  endfacet
  facet normal -0 0.797264 0.603631
    outer loop
      vertex 10.5 18.8694 -1.8
      vertex 10.7181 18.8617 -1.78983
      vertex 10.7245 18.8694 -1.8
    endloop
  endfacet
  facet normal 0 0.797264 0.603631
    outer loop
      vertex 10.7181 18.8617 -1.78983
      vertex 10.5 18.8694 -1.8
      vertex 10.5 18.8617 -1.78983
    endloop
  endfacet
  facet normal 0 0.71816 0.695878
    outer loop
      vertex 10.7181 18.8617 -1.78983
      vertex 10.5 18.8617 -1.78983
      vertex 10.5 18.6 -1.51975
    endloop
  endfacet
  facet normal 0 0 -1
    outer loop
      vertex 17 7.83494 -1.79999
      vertex 18.4 8.96077 -1.79999
      vertex 17.75 7.83494 -1.79999
    endloop
  endfacet
  facet normal 0 0 -1
    outer loop
      vertex 18.4 8.96077 -1.79999
      vertex 17 10 -1.79999
      vertex 18.4 11.0392 -1.79999
    endloop
  endfacet
  facet normal -0 0 -1
    outer loop
      vertex 18.4 8.96077 -1.79999
      vertex 17 7.83494 -1.79999
      vertex 17 10 -1.79999
    endloop
  endfacet
  facet normal 0 0 -1
    outer loop
      vertex 17 12.1651 -1.79999
      vertex 18.4 11.0392 -1.79999
      vertex 17 10 -1.79999
    endloop
  endfacet
  facet normal 0 0 -1
    outer loop
      vertex 18.4 11.0392 -1.79999
      vertex 17 12.1651 -1.79999
      vertex 17.75 12.1651 -1.79999
    endloop
  endfacet
  facet normal 0 0 -1
    outer loop
      vertex 10 10 -1.79999
      vertex 17 7.83494 -1.79999
      vertex 17 -15 -1.79999
    endloop
  endfacet
  facet normal 0 0 -1
    outer loop
      vertex 17 7.83494 -1.79999
      vertex 10 10 -1.79999
      vertex 17 10 -1.79999
    endloop
  endfacet
  facet normal 0 0 -1
    outer loop
      vertex 0 -15 -1.79999
      vertex 10 10 -1.79999
      vertex 17 -15 -1.79999
    endloop
  endfacet
  facet normal 0 0 -1
    outer loop
      vertex 0 15 -1.79999
      vertex 10 10 -1.79999
      vertex 0 -15 -1.79999
    endloop
  endfacet
  facet normal 0 0 -1
    outer loop
      vertex 10 10 -1.79999
      vertex 0 15 -1.79999
      vertex 10 15 -1.79999
    endloop
  endfacet
  facet normal 0 0 1
    outer loop
      vertex 12.9658 21.5589 -0.299999
      vertex 17 24 -0.299999
      vertex 15 24 -0.299999
    endloop
  endfacet
  facet normal 0 0 1
    outer loop
      vertex 17 24 -0.299999
      vertex 12.9658 21.5589 -0.299999
      vertex 10.9876 -7 -0.299999
    endloop
  endfacet
  facet normal 0 0 1
    outer loop
      vertex 17 24 -0.299999
      vertex 10.9876 -7 -0.299999
      vertex 17 -15 -0.299999
    endloop
  endfacet
  facet normal -0 0 1
    outer loop
      vertex 9.06281 -7 -0.299999
      vertex 17 -15 -0.299999
      vertex 10.9876 -7 -0.299999
    endloop
  endfacet
  facet normal -0 0 1
    outer loop
      vertex 0 15 -0.299999
      vertex 9.06281 -7 -0.299999
      vertex 9.01795 15 -0.299999
    endloop
  endfacet
  facet normal 0 0 1
    outer loop
      vertex 9.06281 -7 -0.299999
      vertex 0 -15 -0.299999
      vertex 17 -15 -0.299999
    endloop
  endfacet
  facet normal 0 0 1
    outer loop
      vertex 0 -15 -0.299999
      vertex 9.06281 -7 -0.299999
      vertex 0 15 -0.299999
    endloop
  endfacet
  facet normal 0 0 -1
    outer loop
      vertex 10.7245 18.8694 -1.8
      vertex 17 24 -1.8
      vertex 17 10 -1.8
    endloop
  endfacet
  facet normal -0 0 -1
    outer loop
      vertex 17 24 -1.8
      vertex 10.7245 18.8694 -1.8
      vertex 15 24 -1.8
    endloop
  endfacet
  facet normal 0 0 -1
    outer loop
      vertex 17 10 -1.8
      vertex 10.5 15 -1.8
      vertex 10.7245 18.8694 -1.8
    endloop
  endfacet
  facet normal 0 0 -1
    outer loop
      vertex 10 10 -1.8
      vertex 10.5 15 -1.8
      vertex 17 10 -1.8
    endloop
  endfacet
  facet normal -0 0 -1
    outer loop
      vertex 10.5 15 -1.8
      vertex 10 10 -1.8
      vertex 10 15 -1.8
    endloop
  endfacet
  facet normal -0 0 -1
    outer loop
      vertex 10.7245 18.8694 -1.8
      vertex 10.5 15 -1.8
      vertex 10.5 18.8694 -1.8
    endloop
  endfacet
  facet normal -1 0 0
    outer loop
      vertex 10 10 -1.8
      vertex 10 15 -1.79999
      vertex 10 15 -1.8
    endloop
  endfacet
  facet normal -1 -0 0
    outer loop
      vertex 10 15 -1.79999
      vertex 10 10 -1.8
      vertex 10 10 -1.79999
    endloop
  endfacet
  facet normal 0 -1 0
    outer loop
      vertex 10 10 -1.8
      vertex 17 10 -1.79999
      vertex 10 10 -1.79999
    endloop
  endfacet
  facet normal 0 -1 -0
    outer loop
      vertex 17 10 -1.79999
      vertex 10 10 -1.8
      vertex 17 10 -1.8
    endloop
  endfacet
  facet normal -0.768229 0.640175 0
    outer loop
      vertex 15 24 -1.8
      vertex 12.9658 21.5589 -0.299999
      vertex 15 24 -0.299999
    endloop
  endfacet
  facet normal -0.768221 0.640184 2.56074e-05
    outer loop
      vertex 15 24 -1.8
      vertex 11.8751 20.2501 -1.3
      vertex 12.9658 21.5589 -0.299999
    endloop
  endfacet
  facet normal -0.768221 0.640184 2.56074e-05
    outer loop
      vertex 10.7245 18.8694 -1.8
      vertex 11.8751 20.2501 -1.3
      vertex 15 24 -1.8
    endloop
  endfacet
  facet normal -0.768393 0.639977 0.000993791
    outer loop
      vertex 10.7181 18.8617 -1.78983
      vertex 11.8751 20.2501 -1.3
      vertex 10.7245 18.8694 -1.8
    endloop
  endfacet
  facet normal -0.768197 0.640213 0
    outer loop
      vertex 10.5 18.6 -1.3
      vertex 10.7181 18.8617 -1.78983
      vertex 10.5 18.6 -1.51975
    endloop
  endfacet
  facet normal -0.768217 0.640189 -2.19934e-05
    outer loop
      vertex 10.7181 18.8617 -1.78983
      vertex 10.5 18.6 -1.3
      vertex 11.8751 20.2501 -1.3
    endloop
  endfacet
  facet normal 0 1 -0
    outer loop
      vertex 17 24 -1.8
      vertex 15 24 -0.299999
      vertex 17 24 -0.299999
    endloop
  endfacet
  facet normal 0 1 0
    outer loop
      vertex 15 24 -0.299999
      vertex 17 24 -1.8
      vertex 15 24 -1.8
    endloop
  endfacet
  facet normal -0.706278 0.0489196 0.706242
    outer loop
      vertex 10.9876 -7 -0.299999
      vertex 11.8751 20.2501 -1.3
      vertex 10.0607 -5.94534 -1.3
    endloop
  endfacet
  facet normal -0.706259 0.0489518 0.706259
    outer loop
      vertex 10.9876 -7 -0.299999
      vertex 10.0607 -5.94534 -1.3
      vertex 10.0252 -7 -1.2624
    endloop
  endfacet
  facet normal -0.706245 0.0489198 0.706275
    outer loop
      vertex 11.8751 20.2501 -1.3
      vertex 10.9876 -7 -0.299999
      vertex 12.9658 21.5589 -0.299999
    endloop
  endfacet
  facet normal 0.707089 0.0014415 0.707123
    outer loop
      vertex 9.01795 15 -0.299999
      vertex 10.0607 -5.94534 -1.3
      vertex 10.018 15 -1.3
    endloop
  endfacet
  facet normal 0.707092 0.00144182 0.70712
    outer loop
      vertex 9.06281 -7 -0.299999
      vertex 10.0607 -5.94534 -1.3
      vertex 9.01795 15 -0.299999
    endloop
  endfacet
  facet normal 0.70711 0.00140768 0.707102
    outer loop
      vertex 10.0607 -5.94534 -1.3
      vertex 9.06281 -7 -0.299999
      vertex 10.0252 -7 -1.2624
    endloop
  endfacet
  facet normal 0 0 1
    outer loop
      vertex 10.5 15 -1.3
      vertex 11.8751 20.2501 -1.3
      vertex 10.5 18.6 -1.3
    endloop
  endfacet
  facet normal -0 0 1
    outer loop
      vertex 10.5 15 -1.3
      vertex 10.0607 -5.94534 -1.3
      vertex 11.8751 20.2501 -1.3
    endloop
  endfacet
  facet normal 0 -0 1
    outer loop
      vertex 10.0607 -5.94534 -1.3
      vertex 10.5 15 -1.3
      vertex 10.018 15 -1.3
    endloop
  endfacet
  facet normal 0 1 0
    outer loop
      vertex 10.9876 -7 -0.299999
      vertex 10.0252 -7 -1.2624
      vertex 9.06281 -7 -0.299999
    endloop
  endfacet
  facet normal -1 0 0
    outer loop
      vertex 0 -15 -1.79999
      vertex 0 15 -0.299999
      vertex 0 15 -1.79999
    endloop
  endfacet
  facet normal -1 -0 0
    outer loop
      vertex 0 15 -0.299999
      vertex 0 -15 -1.79999
      vertex 0 -15 -0.299999
    endloop
  endfacet
  facet normal 0 -1 0
    outer loop
      vertex 0 -15 -1.79999
      vertex 17 -15 -0.299999
      vertex 0 -15 -0.299999
    endloop
  endfacet
  facet normal 0 -1 -0
    outer loop
      vertex 17 -15 -0.299999
      vertex 0 -15 -1.79999
      vertex 17 -15 -1.79999
    endloop
  endfacet
  facet normal -1 0 0
    outer loop
      vertex 10.5 18.8694 -1.8
      vertex 10.5 18.6 -1.51975
      vertex 10.5 18.8617 -1.78983
    endloop
  endfacet
  facet normal -1 0 0
    outer loop
      vertex 10.5 15 -1.8
      vertex 10.5 18.6 -1.51975
      vertex 10.5 18.8694 -1.8
    endloop
  endfacet
  facet normal -1 0 0
    outer loop
      vertex 10.5 15 -1.3
      vertex 10.5 18.6 -1.51975
      vertex 10.5 15 -1.8
    endloop
  endfacet
  facet normal -1 0 0
    outer loop
      vertex 10.5 18.6 -1.51975
      vertex 10.5 15 -1.3
      vertex 10.5 18.6 -1.3
    endloop
  endfacet
  facet normal 0 1 -0
    outer loop
      vertex 10.5 15 -1.8
      vertex 10.018 15 -1.3
      vertex 10.5 15 -1.3
    endloop
  endfacet
  facet normal 0 1 0
    outer loop
      vertex 10.018 15 -1.3
      vertex 10.5 15 -1.8
      vertex 10 15 -1.79999
    endloop
  endfacet
  facet normal 0 1 0
    outer loop
      vertex 10 15 -1.79999
      vertex 10.5 15 -1.8
      vertex 10 15 -1.8
    endloop
  endfacet
  facet normal 0 1 -0
    outer loop
      vertex 10 15 -1.79999
      vertex 9.01795 15 -0.299999
      vertex 10.018 15 -1.3
    endloop
  endfacet
  facet normal 0 1 0
    outer loop
      vertex 9.01795 15 -0.299999
      vertex 10 15 -1.79999
      vertex 0 15 -1.79999
    endloop
  endfacet
  facet normal 0 1 0
    outer loop
      vertex 9.01795 15 -0.299999
      vertex 0 15 -1.79999
      vertex 0 15 -0.299999
    endloop
  endfacet
endsolid OpenSCAD_Model
