solid OpenSCAD_Model
  facet normal 0.8910072757709245 0.4539890246727068 0
    outer loop
      vertex 3.839346408843994 6.305212020874023 4.960652828216553
      vertex 3.6990561485290527 6.580548286437988 0
      vertex 3.6990561485290527 6.580548286437988 5.100943088531494
    endloop
  endfacet
  facet normal 0.8910072757709245 0.4539890246727068 0
    outer loop
      vertex 3.6990561485290527 6.580548286437988 0
      vertex 3.839346408843994 6.305212020874023 4.960652828216553
      vertex 3.839346408843994 6.305212020874023 0
    endloop
  endfacet
  facet normal -0.8910060273958552 -0.45399147474843243 0
    outer loop
      vertex -3.699057102203369 -6.580549240112305 0
      vertex -3.839348316192627 -6.30521297454834 4.96065092086792
      vertex -3.839348316192627 -6.30521297454834 0
    endloop
  endfacet
  facet normal -0.8910060273958553 -0.4539914747484325 0
    outer loop
      vertex -3.839348316192627 -6.30521297454834 4.96065092086792
      vertex -3.699057102203369 -6.580549240112305 0
      vertex -3.699057102203369 -6.580549240112305 5.100942134857178
    endloop
  endfacet
  facet normal 0 -1 0
    outer loop
      vertex -2.799999237060547 -6.987689018249512 6
      vertex 2.8999991416931152 -6.987689018249512 5.900000095367432
      vertex 2.799999237060547 -6.987689018249512 6
    endloop
  endfacet
  facet normal 0 -1 0
    outer loop
      vertex -2.9000000953674316 -6.987689018249512 5.899999141693115
      vertex 2.8999991416931152 -6.987689018249512 5.900000095367432
      vertex -2.799999237060547 -6.987689018249512 6
    endloop
  endfacet
  facet normal 0 -1 0
    outer loop
      vertex -2.9000000953674316 -6.987689018249512 0
      vertex 2.8999991416931152 -6.987689018249512 5.900000095367432
      vertex -2.9000000953674316 -6.987689018249512 5.899999141693115
    endloop
  endfacet
  facet normal 0 -1 0
    outer loop
      vertex 2.8999991416931152 -6.987689018249512 5.900000095367432
      vertex -2.9000000953674316 -6.987689018249512 0
      vertex 2.8999991416931152 -6.987689018249512 0
    endloop
  endfacet
  facet normal -0.9876884349594695 -0.15643386924612485 0
    outer loop
      vertex -3.839348316192627 -6.30521297454834 0
      vertex -3.8876891136169434 -6 4.9123101234436035
      vertex -3.8876891136169434 -6 0
    endloop
  endfacet
  facet normal -0.9876884349594696 -0.15643386924612485 0
    outer loop
      vertex -3.8876891136169434 -6 4.9123101234436035
      vertex -3.839348316192627 -6.30521297454834 0
      vertex -3.839348316192627 -6.30521297454834 4.96065092086792
    endloop
  endfacet
  facet normal 0.8910072757709245 -0.4539890246727068 0
    outer loop
      vertex 3.6990561485290527 -6.580549240112305 0
      vertex 3.839346408843994 -6.30521297454834 4.960652828216553
      vertex 3.6990561485290527 -6.580549240112305 5.100943088531494
    endloop
  endfacet
  facet normal 0.8910072757709245 -0.4539890246727068 0
    outer loop
      vertex 3.839346408843994 -6.30521297454834 4.960652828216553
      vertex 3.6990561485290527 -6.580549240112305 0
      vertex 3.839346408843994 -6.30521297454834 0
    endloop
  endfacet
  facet normal -0.8910060273958552 0.45399147474843243 0
    outer loop
      vertex -3.839348316192627 6.305212020874023 4.96065092086792
      vertex -3.699057102203369 6.580548286437988 0
      vertex -3.839348316192627 6.305212020874023 0
    endloop
  endfacet
  facet normal -0.8910060273958553 0.4539914747484325 0
    outer loop
      vertex -3.699057102203369 6.580548286437988 0
      vertex -3.839348316192627 6.305212020874023 4.96065092086792
      vertex -3.699057102203369 6.580548286437988 5.100942134857178
    endloop
  endfacet
  facet normal 0.9876878825943346 0.1564373567160988 0
    outer loop
      vertex 3.887688159942627 6 4.91231107711792
      vertex 3.839346408843994 6.305212020874023 0
      vertex 3.839346408843994 6.305212020874023 4.960652828216553
    endloop
  endfacet
  facet normal 0.9876878825943346 0.15643735671609876 0
    outer loop
      vertex 3.839346408843994 6.305212020874023 0
      vertex 3.887688159942627 6 4.91231107711792
      vertex 3.887688159942627 6 0
    endloop
  endfacet
  facet normal -0.9876883594362277 0.15643434608222445 0
    outer loop
      vertex -3.8876891136169434 6 4.9123101234436035
      vertex -3.839348316192627 6.305212020874023 0
      vertex -3.8876891136169434 6 0
    endloop
  endfacet
  facet normal -0.9876883594362277 0.15643434608222442 0
    outer loop
      vertex -3.839348316192627 6.305212020874023 0
      vertex -3.8876891136169434 6 4.9123101234436035
      vertex -3.839348316192627 6.305212020874023 4.96065092086792
    endloop
  endfacet
  facet normal -0.45399147474843243 -0.8910060273958552 0
    outer loop
      vertex -3.2052130699157715 -6.939348220825195 0
      vertex -3.4805493354797363 -6.7990570068359375 5.3194499015808105
      vertex -3.4805493354797363 -6.7990570068359375 0
    endloop
  endfacet
  facet normal -0.45399147474843243 -0.8910060273958552 0
    outer loop
      vertex -3.4805493354797363 -6.7990570068359375 5.3194499015808105
      vertex -3.2052130699157715 -6.939348220825195 0
      vertex -3.2052130699157715 -6.939348220825195 5.594786167144775
    endloop
  endfacet
  facet normal -0.15643386924612487 -0.9876884349594697 0
    outer loop
      vertex -2.9000000953674316 -6.987689018249512 0
      vertex -3.2052130699157715 -6.939348220825195 5.594786167144775
      vertex -3.2052130699157715 -6.939348220825195 0
    endloop
  endfacet
  facet normal -0.15643386924612485 -0.9876884349594696 0
    outer loop
      vertex -3.2052130699157715 -6.939348220825195 5.594786167144775
      vertex -2.9000000953674316 -6.987689018249512 0
      vertex -2.9000000953674316 -6.987689018249512 5.899999141693115
    endloop
  endfacet
  facet normal 0.7071067811865476 0.7071067811865476 0
    outer loop
      vertex 3.6990561485290527 6.580548286437988 5.100943088531494
      vertex 3.48054838180542 6.799056053161621 0
      vertex 3.48054838180542 6.799056053161621 5.319450855255127
    endloop
  endfacet
  facet normal 0.7071067811865476 0.7071067811865476 0
    outer loop
      vertex 3.48054838180542 6.799056053161621 0
      vertex 3.6990561485290527 6.580548286437988 5.100943088531494
      vertex 3.6990561485290527 6.580548286437988 0
    endloop
  endfacet
  facet normal 1 0 0
    outer loop
      vertex 3.887688159942627 -6 4.91231107711792
      vertex 3.887688159942627 6 0
      vertex 3.887688159942627 6 4.91231107711792
    endloop
  endfacet
  facet normal 1 0 0
    outer loop
      vertex 3.887688159942627 6 0
      vertex 3.887688159942627 -6 4.91231107711792
      vertex 3.887688159942627 -6 0
    endloop
  endfacet
  facet normal -1 0 0
    outer loop
      vertex -3.8876891136169434 -6 0
      vertex -3.8876891136169434 6 4.9123101234436035
      vertex -3.8876891136169434 6 0
    endloop
  endfacet
  facet normal -1 0 0
    outer loop
      vertex -3.8876891136169434 6 4.9123101234436035
      vertex -3.8876891136169434 -6 0
      vertex -3.8876891136169434 -6 4.9123101234436035
    endloop
  endfacet
  facet normal -0.7071067811865475 0.7071067811865475 0
    outer loop
      vertex -3.699057102203369 6.580548286437988 5.100942134857178
      vertex -3.4805493354797363 6.799056053161621 0
      vertex -3.699057102203369 6.580548286437988 0
    endloop
  endfacet
  facet normal -0.7071067811865475 0.7071067811865475 0
    outer loop
      vertex -3.4805493354797363 6.799056053161621 0
      vertex -3.699057102203369 6.580548286437988 5.100942134857178
      vertex -3.4805493354797363 6.799056053161621 5.3194499015808105
    endloop
  endfacet
  facet normal -0.15643386924612485 0.9876884349594696 0
    outer loop
      vertex -2.9000000953674316 6.987688064575195 0
      vertex -3.2052130699157715 6.939347267150879 5.594786167144775
      vertex -2.9000000953674316 6.987688064575195 5.899999141693115
    endloop
  endfacet
  facet normal -0.15643386924612487 0.9876884349594697 0
    outer loop
      vertex -3.2052130699157715 6.939347267150879 5.594786167144775
      vertex -2.9000000953674316 6.987688064575195 0
      vertex -3.2052130699157715 6.939347267150879 0
    endloop
  endfacet
  facet normal 0 1 0
    outer loop
      vertex 2.8999991416931152 6.987688064575195 5.900000095367432
      vertex -2.799999237060547 6.987688064575195 6
      vertex 2.799999237060547 6.987688064575195 6
    endloop
  endfacet
  facet normal 0 1 0
    outer loop
      vertex 2.8999991416931152 6.987688064575195 5.900000095367432
      vertex -2.9000000953674316 6.987688064575195 5.899999141693115
      vertex -2.799999237060547 6.987688064575195 6
    endloop
  endfacet
  facet normal 0 1 0
    outer loop
      vertex 2.8999991416931152 6.987688064575195 0
      vertex -2.9000000953674316 6.987688064575195 5.899999141693115
      vertex 2.8999991416931152 6.987688064575195 5.900000095367432
    endloop
  endfacet
  facet normal 0 1 0
    outer loop
      vertex -2.9000000953674316 6.987688064575195 5.899999141693115
      vertex 2.8999991416931152 6.987688064575195 0
      vertex -2.9000000953674316 6.987688064575195 0
    endloop
  endfacet
  facet normal -0.45399147474843243 0.8910060273958552 0
    outer loop
      vertex -3.2052130699157715 6.939347267150879 0
      vertex -3.4805493354797363 6.799056053161621 5.3194499015808105
      vertex -3.2052130699157715 6.939347267150879 5.594786167144775
    endloop
  endfacet
  facet normal -0.45399147474843243 0.8910060273958552 0
    outer loop
      vertex -3.4805493354797363 6.799056053161621 5.3194499015808105
      vertex -3.2052130699157715 6.939347267150879 0
      vertex -3.4805493354797363 6.799056053161621 0
    endloop
  endfacet
  facet normal 0.7071067811865476 -0.7071067811865476 0
    outer loop
      vertex 3.48054838180542 -6.7990570068359375 0
      vertex 3.6990561485290527 -6.580549240112305 5.100943088531494
      vertex 3.48054838180542 -6.7990570068359375 5.319450855255127
    endloop
  endfacet
  facet normal 0.7071067811865476 -0.7071067811865476 0
    outer loop
      vertex 3.6990561485290527 -6.580549240112305 5.100943088531494
      vertex 3.48054838180542 -6.7990570068359375 0
      vertex 3.6990561485290527 -6.580549240112305 0
    endloop
  endfacet
  facet normal 0.45399147474843243 -0.8910060273958552 0
    outer loop
      vertex 3.205212116241455 -6.939348220825195 0
      vertex 3.48054838180542 -6.7990570068359375 5.319450855255127
      vertex 3.205212116241455 -6.939348220825195 5.594787120819092
    endloop
  endfacet
  facet normal 0.45399147474843243 -0.8910060273958552 0
    outer loop
      vertex 3.48054838180542 -6.7990570068359375 5.319450855255127
      vertex 3.205212116241455 -6.939348220825195 0
      vertex 3.48054838180542 -6.7990570068359375 0
    endloop
  endfacet
  facet normal -0.7071067811865475 -0.7071067811865475 0
    outer loop
      vertex -3.4805493354797363 -6.7990570068359375 0
      vertex -3.699057102203369 -6.580549240112305 5.100942134857178
      vertex -3.699057102203369 -6.580549240112305 0
    endloop
  endfacet
  facet normal -0.7071067811865475 -0.7071067811865475 0
    outer loop
      vertex -3.699057102203369 -6.580549240112305 5.100942134857178
      vertex -3.4805493354797363 -6.7990570068359375 0
      vertex -3.4805493354797363 -6.7990570068359375 5.3194499015808105
    endloop
  endfacet
  facet normal 0.45399147474843243 0.8910060273958552 0
    outer loop
      vertex 3.205212116241455 6.939347267150879 0
      vertex 3.48054838180542 6.799056053161621 5.319450855255127
      vertex 3.48054838180542 6.799056053161621 0
    endloop
  endfacet
  facet normal 0.45399147474843243 0.8910060273958552 0
    outer loop
      vertex 3.48054838180542 6.799056053161621 5.319450855255127
      vertex 3.205212116241455 6.939347267150879 0
      vertex 3.205212116241455 6.939347267150879 5.594787120819092
    endloop
  endfacet
  facet normal 0.15643386924612485 -0.9876884349594696 0
    outer loop
      vertex 2.8999991416931152 -6.987689018249512 0
      vertex 3.205212116241455 -6.939348220825195 5.594787120819092
      vertex 2.8999991416931152 -6.987689018249512 5.900000095367432
    endloop
  endfacet
  facet normal 0.15643386924612485 -0.9876884349594696 0
    outer loop
      vertex 3.205212116241455 -6.939348220825195 5.594787120819092
      vertex 2.8999991416931152 -6.987689018249512 0
      vertex 3.205212116241455 -6.939348220825195 0
    endloop
  endfacet
  facet normal 0.987687958120447 -0.15643687987128274 0
    outer loop
      vertex 3.839346408843994 -6.30521297454834 0
      vertex 3.887688159942627 -6 4.91231107711792
      vertex 3.839346408843994 -6.30521297454834 4.960652828216553
    endloop
  endfacet
  facet normal 0.987687958120447 -0.15643687987128274 0
    outer loop
      vertex 3.887688159942627 -6 4.91231107711792
      vertex 3.839346408843994 -6.30521297454834 0
      vertex 3.887688159942627 -6 0
    endloop
  endfacet
  facet normal 0.15643386924612485 0.9876884349594696 0
    outer loop
      vertex 2.8999991416931152 6.987688064575195 0
      vertex 3.205212116241455 6.939347267150879 5.594787120819092
      vertex 3.205212116241455 6.939347267150879 0
    endloop
  endfacet
  facet normal 0.15643386924612485 0.9876884349594696 0
    outer loop
      vertex 3.205212116241455 6.939347267150879 5.594787120819092
      vertex 2.8999991416931152 6.987688064575195 0
      vertex 2.8999991416931152 6.987688064575195 5.900000095367432
    endloop
  endfacet
  facet normal 0 0 1
    outer loop
      vertex 2.799999237060547 6.987688064575195 6
      vertex 1.5 0 6
      vertex 2.799999237060547 -6.987689018249512 6
    endloop
  endfacet
  facet normal 0 0 1
    outer loop
      vertex 2.799999237060547 6.987688064575195 6
      vertex 1.4694061279296875 0.2910757064819336 6
      vertex 1.5 0 6
    endloop
  endfacet
  facet normal 0 0 1
    outer loop
      vertex 2.799999237060547 6.987688064575195 6
      vertex 1.3789634704589844 0.5694303512573242 6
      vertex 1.4694061279296875 0.2910757064819336 6
    endloop
  endfacet
  facet normal 0 0 1
    outer loop
      vertex 2.799999237060547 6.987688064575195 6
      vertex 1.2326231002807617 0.8228988647460938 6
      vertex 1.3789634704589844 0.5694303512573242 6
    endloop
  endfacet
  facet normal 0 0 1
    outer loop
      vertex 2.799999237060547 6.987688064575195 6
      vertex 1.0367822647094727 1.0404024124145508 6
      vertex 1.2326231002807617 0.8228988647460938 6
    endloop
  endfacet
  facet normal 0 0 1
    outer loop
      vertex 2.799999237060547 6.987688064575195 6
      vertex 0.7999992370605469 1.2124347686767578 6
      vertex 1.0367822647094727 1.0404024124145508 6
    endloop
  endfacet
  facet normal 0 0 1
    outer loop
      vertex 2.799999237060547 6.987688064575195 6
      vertex 0.532623291015625 1.3314790725708008 6
      vertex 0.7999992370605469 1.2124347686767578 6
    endloop
  endfacet
  facet normal 0 0 1
    outer loop
      vertex 2.799999237060547 6.987688064575195 6
      vertex 0.2463397979736328 1.3923301696777344 6
      vertex 0.532623291015625 1.3314790725708008 6
    endloop
  endfacet
  facet normal 0 0 1
    outer loop
      vertex 2.799999237060547 6.987688064575195 6
      vertex -0.04633903503417969 1.3923301696777344 6
      vertex 0.2463397979736328 1.3923301696777344 6
    endloop
  endfacet
  facet normal 0 0 1
    outer loop
      vertex -2.799999237060547 6.987688064575195 6
      vertex -0.04633903503417969 1.3923301696777344 6
      vertex 2.799999237060547 6.987688064575195 6
    endloop
  endfacet
  facet normal 0 0 1
    outer loop
      vertex -0.04633903503417969 1.3923301696777344 6
      vertex -2.799999237060547 6.987688064575195 6
      vertex -0.3326234817504883 1.3314790725708008 6
    endloop
  endfacet
  facet normal 0 0 1
    outer loop
      vertex -0.3326234817504883 1.3314790725708008 6
      vertex -2.799999237060547 6.987688064575195 6
      vertex -0.5999994277954102 1.2124347686767578 6
    endloop
  endfacet
  facet normal 0 0 1
    outer loop
      vertex -0.5999994277954102 1.2124347686767578 6
      vertex -2.799999237060547 6.987688064575195 6
      vertex -0.8367824554443359 1.0404024124145508 6
    endloop
  endfacet
  facet normal 0 0 1
    outer loop
      vertex -1.2694063186645508 0.2910757064819336 6
      vertex -2.799999237060547 6.987688064575195 6
      vertex -1.2999992370605469 0 6
    endloop
  endfacet
  facet normal 0 0 1
    outer loop
      vertex -1.1789627075195312 0.5694303512573242 6
      vertex -2.799999237060547 6.987688064575195 6
      vertex -1.2694063186645508 0.2910757064819336 6
    endloop
  endfacet
  facet normal 0 0 1
    outer loop
      vertex -1.032623291015625 0.8228988647460938 6
      vertex -2.799999237060547 6.987688064575195 6
      vertex -1.1789627075195312 0.5694303512573242 6
    endloop
  endfacet
  facet normal 0 0 1
    outer loop
      vertex -0.8367824554443359 1.0404024124145508 6
      vertex -2.799999237060547 6.987688064575195 6
      vertex -1.032623291015625 0.8228988647460938 6
    endloop
  endfacet
  facet normal 0 0 1
    outer loop
      vertex 1.4694061279296875 -0.2910757064819336 6
      vertex 2.799999237060547 -6.987689018249512 6
      vertex 1.5 0 6
    endloop
  endfacet
  facet normal 0 0 1
    outer loop
      vertex 1.3789634704589844 -0.5694303512573242 6
      vertex 2.799999237060547 -6.987689018249512 6
      vertex 1.4694061279296875 -0.2910757064819336 6
    endloop
  endfacet
  facet normal 0 0 1
    outer loop
      vertex 1.2326231002807617 -0.8228988647460938 6
      vertex 2.799999237060547 -6.987689018249512 6
      vertex 1.3789634704589844 -0.5694303512573242 6
    endloop
  endfacet
  facet normal 0 0 1
    outer loop
      vertex 1.0367822647094727 -1.0404024124145508 6
      vertex 2.799999237060547 -6.987689018249512 6
      vertex 1.2326231002807617 -0.8228988647460938 6
    endloop
  endfacet
  facet normal 0 0 1
    outer loop
      vertex 0.7999992370605469 -1.2124347686767578 6
      vertex 2.799999237060547 -6.987689018249512 6
      vertex 1.0367822647094727 -1.0404024124145508 6
    endloop
  endfacet
  facet normal 0 0 1
    outer loop
      vertex 0.532623291015625 -1.3314790725708008 6
      vertex 2.799999237060547 -6.987689018249512 6
      vertex 0.7999992370605469 -1.2124347686767578 6
    endloop
  endfacet
  facet normal 0 0 1
    outer loop
      vertex 0.2463397979736328 -1.3923301696777344 6
      vertex 2.799999237060547 -6.987689018249512 6
      vertex 0.532623291015625 -1.3314790725708008 6
    endloop
  endfacet
  facet normal 0 0 1
    outer loop
      vertex -0.04633903503417969 -1.3923301696777344 6
      vertex 2.799999237060547 -6.987689018249512 6
      vertex 0.2463397979736328 -1.3923301696777344 6
    endloop
  endfacet
  facet normal 0 0 1
    outer loop
      vertex -2.799999237060547 -6.987689018249512 6
      vertex -0.04633903503417969 -1.3923301696777344 6
      vertex -0.3326234817504883 -1.3314790725708008 6
    endloop
  endfacet
  facet normal 0 0 1
    outer loop
      vertex -2.799999237060547 -6.987689018249512 6
      vertex -0.3326234817504883 -1.3314790725708008 6
      vertex -0.5999994277954102 -1.2124347686767578 6
    endloop
  endfacet
  facet normal 0 0 1
    outer loop
      vertex -2.799999237060547 -6.987689018249512 6
      vertex -0.5999994277954102 -1.2124347686767578 6
      vertex -0.8367824554443359 -1.0404024124145508 6
    endloop
  endfacet
  facet normal 0 0 1
    outer loop
      vertex -2.799999237060547 -6.987689018249512 6
      vertex -0.8367824554443359 -1.0404024124145508 6
      vertex -1.032623291015625 -0.8228988647460938 6
    endloop
  endfacet
  facet normal 0 0 1
    outer loop
      vertex -2.799999237060547 -6.987689018249512 6
      vertex -1.2999992370605469 0 6
      vertex -2.799999237060547 6.987688064575195 6
    endloop
  endfacet
  facet normal 0 0 1
    outer loop
      vertex -0.04633903503417969 -1.3923301696777344 6
      vertex -2.799999237060547 -6.987689018249512 6
      vertex 2.799999237060547 -6.987689018249512 6
    endloop
  endfacet
  facet normal 0 0 1
    outer loop
      vertex -1.1789627075195312 -0.5694303512573242 6
      vertex -2.799999237060547 -6.987689018249512 6
      vertex -1.032623291015625 -0.8228988647460938 6
    endloop
  endfacet
  facet normal 0 0 1
    outer loop
      vertex -1.2694063186645508 -0.2910757064819336 6
      vertex -2.799999237060547 -6.987689018249512 6
      vertex -1.1789627075195312 -0.5694303512573242 6
    endloop
  endfacet
  facet normal 0 0 1
    outer loop
      vertex -1.2999992370605469 0 6
      vertex -2.799999237060547 -6.987689018249512 6
      vertex -1.2694063186645508 -0.2910757064819336 6
    endloop
  endfacet
  facet normal 0 0 -1
    outer loop
      vertex 2.8999991416931152 -6.987689018249512 0
      vertex 3.887688159942627 -6 0
      vertex 3.839346408843994 -6.30521297454834 0
    endloop
  endfacet
  facet normal 0 0 -1
    outer loop
      vertex 3.887688159942627 -6 0
      vertex -3.8876891136169434 -6 0
      vertex 3.887688159942627 6 0
    endloop
  endfacet
  facet normal 0 0 -1
    outer loop
      vertex 2.8999991416931152 -6.987689018249512 0
      vertex 3.839346408843994 -6.30521297454834 0
      vertex 3.6990561485290527 -6.580549240112305 0
    endloop
  endfacet
  facet normal 0 0 -1
    outer loop
      vertex -3.8876891136169434 6 0
      vertex 3.887688159942627 6 0
      vertex -3.8876891136169434 -6 0
    endloop
  endfacet
  facet normal 0 0 -1
    outer loop
      vertex 2.8999991416931152 -6.987689018249512 0
      vertex 3.6990561485290527 -6.580549240112305 0
      vertex 3.48054838180542 -6.7990570068359375 0
    endloop
  endfacet
  facet normal 0 0 -1
    outer loop
      vertex 3.887688159942627 -6 0
      vertex 2.8999991416931152 -6.987689018249512 0
      vertex -3.8876891136169434 -6 0
    endloop
  endfacet
  facet normal 0 0 -1
    outer loop
      vertex 2.8999991416931152 -6.987689018249512 0
      vertex 3.48054838180542 -6.7990570068359375 0
      vertex 3.205212116241455 -6.939348220825195 0
    endloop
  endfacet
  facet normal 0 0 -1
    outer loop
      vertex 2.8999991416931152 6.987688064575195 0
      vertex 3.887688159942627 6 0
      vertex -3.8876891136169434 6 0
    endloop
  endfacet
  facet normal 0 0 -1
    outer loop
      vertex 3.6990561485290527 6.580548286437988 0
      vertex 2.8999991416931152 6.987688064575195 0
      vertex 3.48054838180542 6.799056053161621 0
    endloop
  endfacet
  facet normal 0 0 -1
    outer loop
      vertex 3.48054838180542 6.799056053161621 0
      vertex 2.8999991416931152 6.987688064575195 0
      vertex 3.205212116241455 6.939347267150879 0
    endloop
  endfacet
  facet normal 0 0 -1
    outer loop
      vertex -3.8876891136169434 -6 0
      vertex 2.8999991416931152 -6.987689018249512 0
      vertex -2.9000000953674316 -6.987689018249512 0
    endloop
  endfacet
  facet normal 0 0 -1
    outer loop
      vertex 3.887688159942627 6 0
      vertex 2.8999991416931152 6.987688064575195 0
      vertex 3.839346408843994 6.305212020874023 0
    endloop
  endfacet
  facet normal 0 0 -1
    outer loop
      vertex -3.8876891136169434 -6 0
      vertex -2.9000000953674316 -6.987689018249512 0
      vertex -3.2052130699157715 -6.939348220825195 0
    endloop
  endfacet
  facet normal 0 0 -1
    outer loop
      vertex 3.839346408843994 6.305212020874023 0
      vertex 2.8999991416931152 6.987688064575195 0
      vertex 3.6990561485290527 6.580548286437988 0
    endloop
  endfacet
  facet normal 0 0 -1
    outer loop
      vertex -3.8876891136169434 -6 0
      vertex -3.2052130699157715 -6.939348220825195 0
      vertex -3.4805493354797363 -6.7990570068359375 0
    endloop
  endfacet
  facet normal 0 0 -1
    outer loop
      vertex 2.8999991416931152 6.987688064575195 0
      vertex -3.8876891136169434 6 0
      vertex -2.9000000953674316 6.987688064575195 0
    endloop
  endfacet
  facet normal 0 0 -1
    outer loop
      vertex -3.8876891136169434 -6 0
      vertex -3.4805493354797363 -6.7990570068359375 0
      vertex -3.699057102203369 -6.580549240112305 0
    endloop
  endfacet
  facet normal 0 0 -1
    outer loop
      vertex -2.9000000953674316 6.987688064575195 0
      vertex -3.8876891136169434 6 0
      vertex -3.2052130699157715 6.939347267150879 0
    endloop
  endfacet
  facet normal 0 0 -1
    outer loop
      vertex -3.8876891136169434 -6 0
      vertex -3.699057102203369 -6.580549240112305 0
      vertex -3.839348316192627 -6.30521297454834 0
    endloop
  endfacet
  facet normal 0 0 -1
    outer loop
      vertex -3.2052130699157715 6.939347267150879 0
      vertex -3.8876891136169434 6 0
      vertex -3.4805493354797363 6.799056053161621 0
    endloop
  endfacet
  facet normal 0 0 -1
    outer loop
      vertex -3.4805493354797363 6.799056053161621 0
      vertex -3.8876891136169434 6 0
      vertex -3.699057102203369 6.580548286437988 0
    endloop
  endfacet
  facet normal 0 0 -1
    outer loop
      vertex -3.699057102203369 6.580548286437988 0
      vertex -3.8876891136169434 6 0
      vertex -3.839348316192627 6.305212020874023 0
    endloop
  endfacet
  facet normal 0.7071067811865476 0 0.7071067811865476
    outer loop
      vertex 3.887688159942627 6 4.91231107711792
      vertex 2.8999991416931152 6.987688064575195 5.900000095367432
      vertex 2.799999237060547 6.987688064575195 6
    endloop
  endfacet
  facet normal 0.7071067811865475 0 0.7071067811865475
    outer loop
      vertex 2.8999991416931152 6.987688064575195 5.900000095367432
      vertex 3.48054838180542 6.799056053161621 5.319450855255127
      vertex 3.205212116241455 6.939347267150879 5.594787120819092
    endloop
  endfacet
  facet normal 0.7071067811865476 0 0.7071067811865476
    outer loop
      vertex 2.8999991416931152 6.987688064575195 5.900000095367432
      vertex 3.6990561485290527 6.580548286437988 5.100943088531494
      vertex 3.48054838180542 6.799056053161621 5.319450855255127
    endloop
  endfacet
  facet normal 0.7071067811865476 0 0.7071067811865476
    outer loop
      vertex 2.8999991416931152 6.987688064575195 5.900000095367432
      vertex 3.839346408843994 6.305212020874023 4.960652828216553
      vertex 3.6990561485290527 6.580548286437988 5.100943088531494
    endloop
  endfacet
  facet normal 0.7071067811865476 0 0.7071067811865476
    outer loop
      vertex 2.8999991416931152 6.987688064575195 5.900000095367432
      vertex 3.887688159942627 6 4.91231107711792
      vertex 3.839346408843994 6.305212020874023 4.960652828216553
    endloop
  endfacet
  facet normal 0.7071067811865476 0 0.7071067811865476
    outer loop
      vertex 2.799999237060547 6.987688064575195 6
      vertex 3.887688159942627 -6 4.91231107711792
      vertex 3.887688159942627 6 4.91231107711792
    endloop
  endfacet
  facet normal 0.7071067811865476 0 0.7071067811865476
    outer loop
      vertex 2.799999237060547 -6.987689018249512 6
      vertex 3.887688159942627 -6 4.91231107711792
      vertex 2.799999237060547 6.987688064575195 6
    endloop
  endfacet
  facet normal 0.7071067811865476 0 0.7071067811865476
    outer loop
      vertex 2.8999991416931152 -6.987689018249512 5.900000095367432
      vertex 3.887688159942627 -6 4.91231107711792
      vertex 2.799999237060547 -6.987689018249512 6
    endloop
  endfacet
  facet normal 0.7071067811865475 0 0.7071067811865475
    outer loop
      vertex 3.887688159942627 -6 4.91231107711792
      vertex 2.8999991416931152 -6.987689018249512 5.900000095367432
      vertex 3.839346408843994 -6.30521297454834 4.960652828216553
    endloop
  endfacet
  facet normal 0.7071067811865476 0 0.7071067811865476
    outer loop
      vertex 3.839346408843994 -6.30521297454834 4.960652828216553
      vertex 2.8999991416931152 -6.987689018249512 5.900000095367432
      vertex 3.6990561485290527 -6.580549240112305 5.100943088531494
    endloop
  endfacet
  facet normal 0.7071067811865476 0 0.7071067811865476
    outer loop
      vertex 3.6990561485290527 -6.580549240112305 5.100943088531494
      vertex 2.8999991416931152 -6.987689018249512 5.900000095367432
      vertex 3.48054838180542 -6.7990570068359375 5.319450855255127
    endloop
  endfacet
  facet normal 0.7071067811865475 0 0.7071067811865475
    outer loop
      vertex 3.48054838180542 -6.7990570068359375 5.319450855255127
      vertex 2.8999991416931152 -6.987689018249512 5.900000095367432
      vertex 3.205212116241455 -6.939348220825195 5.594787120819092
    endloop
  endfacet
  facet normal -0.7071067811865475 0 0.7071067811865475
    outer loop
      vertex -3.4805493354797363 6.799056053161621 5.3194499015808105
      vertex -2.9000000953674316 6.987688064575195 5.899999141693115
      vertex -3.2052130699157715 6.939347267150879 5.594786167144775
    endloop
  endfacet
  facet normal -0.7071067811865476 0 0.7071067811865476
    outer loop
      vertex -3.699057102203369 6.580548286437988 5.100942134857178
      vertex -2.9000000953674316 6.987688064575195 5.899999141693115
      vertex -3.4805493354797363 6.799056053161621 5.3194499015808105
    endloop
  endfacet
  facet normal -0.7071067811865475 0 0.7071067811865475
    outer loop
      vertex -3.839348316192627 6.305212020874023 4.96065092086792
      vertex -2.9000000953674316 6.987688064575195 5.899999141693115
      vertex -3.699057102203369 6.580548286437988 5.100942134857178
    endloop
  endfacet
  facet normal -0.7071067811865475 0 0.7071067811865475
    outer loop
      vertex -3.8876891136169434 6 4.9123101234436035
      vertex -2.9000000953674316 6.987688064575195 5.899999141693115
      vertex -3.839348316192627 6.305212020874023 4.96065092086792
    endloop
  endfacet
  facet normal -0.7071067811865476 0 0.7071067811865476
    outer loop
      vertex -2.9000000953674316 6.987688064575195 5.899999141693115
      vertex -3.8876891136169434 6 4.9123101234436035
      vertex -2.799999237060547 6.987688064575195 6
    endloop
  endfacet
  facet normal -0.7071067811865476 0 0.7071067811865476
    outer loop
      vertex -3.8876891136169434 -6 4.9123101234436035
      vertex -2.799999237060547 6.987688064575195 6
      vertex -3.8876891136169434 6 4.9123101234436035
    endloop
  endfacet
  facet normal -0.7071067811865475 0 0.7071067811865475
    outer loop
      vertex -2.9000000953674316 -6.987689018249512 5.899999141693115
      vertex -3.8876891136169434 -6 4.9123101234436035
      vertex -3.839348316192627 -6.30521297454834 4.96065092086792
    endloop
  endfacet
  facet normal -0.7071067811865475 0 0.7071067811865475
    outer loop
      vertex -2.9000000953674316 -6.987689018249512 5.899999141693115
      vertex -3.839348316192627 -6.30521297454834 4.96065092086792
      vertex -3.699057102203369 -6.580549240112305 5.100942134857178
    endloop
  endfacet
  facet normal -0.7071067811865476 0 0.7071067811865476
    outer loop
      vertex -2.9000000953674316 -6.987689018249512 5.899999141693115
      vertex -3.699057102203369 -6.580549240112305 5.100942134857178
      vertex -3.4805493354797363 -6.7990570068359375 5.3194499015808105
    endloop
  endfacet
  facet normal -0.7071067811865475 0 0.7071067811865475
    outer loop
      vertex -2.9000000953674316 -6.987689018249512 5.899999141693115
      vertex -3.4805493354797363 -6.7990570068359375 5.3194499015808105
      vertex -3.2052130699157715 -6.939348220825195 5.594786167144775
    endloop
  endfacet
  facet normal -0.7071067811865476 0 0.7071067811865476
    outer loop
      vertex -3.8876891136169434 -6 4.9123101234436035
      vertex -2.9000000953674316 -6.987689018249512 5.899999141693115
      vertex -2.799999237060547 -6.987689018249512 6
    endloop
  endfacet
  facet normal -0.7071067811865476 0 0.7071067811865476
    outer loop
      vertex -3.8876891136169434 -6 4.9123101234436035
      vertex -2.799999237060547 -6.987689018249512 6
      vertex -2.799999237060547 6.987688064575195 6
    endloop
  endfacet
  facet normal -0.4067391037532216 -0.9135443620744568 0
    outer loop
      vertex 0.532623291015625 1.3314790725708008 0.7999992370605469
      vertex 0.7999992370605469 1.2124347686767578 6
      vertex 0.532623291015625 1.3314790725708008 6
    endloop
  endfacet
  facet normal -0.4067391037532216 -0.9135443620744568 0
    outer loop
      vertex 0.7999992370605469 1.2124347686767578 6
      vertex 0.532623291015625 1.3314790725708008 0.7999992370605469
      vertex 0.7999992370605469 1.2124347686767578 0.7999992370605469
    endloop
  endfacet
  facet normal -0.9510567664824542 -0.3090162243765504 0
    outer loop
      vertex 1.4694061279296875 0.2910757064819336 0.7999992370605469
      vertex 1.3789634704589844 0.5694303512573242 6
      vertex 1.3789634704589844 0.5694303512573242 0.7999992370605469
    endloop
  endfacet
  facet normal -0.9510567664824542 -0.3090162243765504 0
    outer loop
      vertex 1.3789634704589844 0.5694303512573242 6
      vertex 1.4694061279296875 0.2910757064819336 0.7999992370605469
      vertex 1.4694061279296875 0.2910757064819336 6
    endloop
  endfacet
  facet normal -0.9945216884569988 -0.10453043187818595 0
    outer loop
      vertex 1.5 0 0.7999992370605469
      vertex 1.4694061279296875 0.2910757064819336 6
      vertex 1.4694061279296875 0.2910757064819336 0.7999992370605469
    endloop
  endfacet
  facet normal -0.9945216884569988 -0.10453043187818595 0
    outer loop
      vertex 1.4694061279296875 0.2910757064819336 6
      vertex 1.5 0 0.7999992370605469
      vertex 1.5 0 6
    endloop
  endfacet
  facet normal -0.20791058642338411 -0.9781478354794251 0
    outer loop
      vertex 0.2463397979736328 1.3923301696777344 0.7999992370605469
      vertex 0.532623291015625 1.3314790725708008 6
      vertex 0.2463397979736328 1.3923301696777344 6
    endloop
  endfacet
  facet normal -0.20791058642338411 -0.9781478354794251 0
    outer loop
      vertex 0.532623291015625 1.3314790725708008 6
      vertex 0.2463397979736328 1.3923301696777344 0.7999992370605469
      vertex 0.532623291015625 1.3314790725708008 0.7999992370605469
    endloop
  endfacet
  facet normal -0.866025025506029 -0.5000006551968524 0
    outer loop
      vertex 1.3789634704589844 0.5694303512573242 0.7999992370605469
      vertex 1.2326231002807617 0.8228988647460938 6
      vertex 1.2326231002807617 0.8228988647460938 0.7999992370605469
    endloop
  endfacet
  facet normal -0.866025025506029 -0.5000006551968524 0
    outer loop
      vertex 1.2326231002807617 0.8228988647460938 6
      vertex 1.3789634704589844 0.5694303512573242 0.7999992370605469
      vertex 1.3789634704589844 0.5694303512573242 6
    endloop
  endfacet
  facet normal -0.5877839480257535 0.8090179419785808 0
    outer loop
      vertex 1.0367822647094727 -1.0404024124145508 0.7999992370605469
      vertex 0.7999992370605469 -1.2124347686767578 6
      vertex 1.0367822647094727 -1.0404024124145508 6
    endloop
  endfacet
  facet normal -0.5877839480257535 0.8090179419785808 0
    outer loop
      vertex 0.7999992370605469 -1.2124347686767578 6
      vertex 1.0367822647094727 -1.0404024124145508 0.7999992370605469
      vertex 0.7999992370605469 -1.2124347686767578 0.7999992370605469
    endloop
  endfacet
  facet normal 0.20790992376754977 -0.9781479763302542 0
    outer loop
      vertex -0.3326234817504883 1.3314790725708008 0.7999992370605469
      vertex -0.04633903503417969 1.3923301696777344 6
      vertex -0.3326234817504883 1.3314790725708008 6
    endloop
  endfacet
  facet normal 0.20790992376754977 -0.9781479763302542 0
    outer loop
      vertex -0.04633903503417969 1.3923301696777344 6
      vertex -0.3326234817504883 1.3314790725708008 0.7999992370605469
      vertex -0.04633903503417969 1.3923301696777344 0.7999992370605469
    endloop
  endfacet
  facet normal -0.20791058642338411 0.9781478354794251 0
    outer loop
      vertex 0.532623291015625 -1.3314790725708008 0.7999992370605469
      vertex 0.2463397979736328 -1.3923301696777344 6
      vertex 0.532623291015625 -1.3314790725708008 6
    endloop
  endfacet
  facet normal -0.20791058642338411 0.9781478354794251 0
    outer loop
      vertex 0.2463397979736328 -1.3923301696777344 6
      vertex 0.532623291015625 -1.3314790725708008 0.7999992370605469
      vertex 0.2463397979736328 -1.3923301696777344 0.7999992370605469
    endloop
  endfacet
  facet normal 0.9510558088531896 0.3090191716489535 0
    outer loop
      vertex -1.1789627075195312 -0.5694303512573242 6
      vertex -1.2694063186645508 -0.2910757064819336 0.7999992370605469
      vertex -1.2694063186645508 -0.2910757064819336 6
    endloop
  endfacet
  facet normal 0.9510558088531896 0.3090191716489535 0
    outer loop
      vertex -1.2694063186645508 -0.2910757064819336 0.7999992370605469
      vertex -1.1789627075195312 -0.5694303512573242 6
      vertex -1.1789627075195312 -0.5694303512573242 0.7999992370605469
    endloop
  endfacet
  facet normal -0.5877839480257535 -0.8090179419785808 0
    outer loop
      vertex 0.7999992370605469 1.2124347686767578 0.7999992370605469
      vertex 1.0367822647094727 1.0404024124145508 6
      vertex 0.7999992370605469 1.2124347686767578 6
    endloop
  endfacet
  facet normal -0.5877839480257535 -0.8090179419785808 0
    outer loop
      vertex 1.0367822647094727 1.0404024124145508 6
      vertex 0.7999992370605469 1.2124347686767578 0.7999992370605469
      vertex 1.0367822647094727 1.0404024124145508 0.7999992370605469
    endloop
  endfacet
  facet normal -0.9945216884569988 0.10453043187818595 0
    outer loop
      vertex 1.4694061279296875 -0.2910757064819336 0.7999992370605469
      vertex 1.5 0 6
      vertex 1.5 0 0.7999992370605469
    endloop
  endfacet
  facet normal -0.9945216884569988 0.10453043187818595 0
    outer loop
      vertex 1.5 0 6
      vertex 1.4694061279296875 -0.2910757064819336 0.7999992370605469
      vertex 1.4694061279296875 -0.2910757064819336 6
    endloop
  endfacet
  facet normal -0.7431452305147767 0.6691301565189984 0
    outer loop
      vertex 1.0367822647094727 -1.0404024124145508 0.7999992370605469
      vertex 1.2326231002807617 -0.8228988647460938 6
      vertex 1.2326231002807617 -0.8228988647460938 0.7999992370605469
    endloop
  endfacet
  facet normal -0.7431452305147767 0.6691301565189984 0
    outer loop
      vertex 1.2326231002807617 -0.8228988647460938 6
      vertex 1.0367822647094727 -1.0404024124145508 0.7999992370605469
      vertex 1.0367822647094727 -1.0404024124145508 6
    endloop
  endfacet
  facet normal 0.20790992376754977 0.9781479763302542 0
    outer loop
      vertex -0.04633903503417969 -1.3923301696777344 0.7999992370605469
      vertex -0.3326234817504883 -1.3314790725708008 6
      vertex -0.04633903503417969 -1.3923301696777344 6
    endloop
  endfacet
  facet normal 0.20790992376754977 0.9781479763302542 0
    outer loop
      vertex -0.3326234817504883 -1.3314790725708008 6
      vertex -0.04633903503417969 -1.3923301696777344 0.7999992370605469
      vertex -0.3326234817504883 -1.3314790725708008 0.7999992370605469
    endloop
  endfacet
  facet normal -0.9510567664824542 0.3090162243765504 0
    outer loop
      vertex 1.3789634704589844 -0.5694303512573242 0.7999992370605469
      vertex 1.4694061279296875 -0.2910757064819336 6
      vertex 1.4694061279296875 -0.2910757064819336 0.7999992370605469
    endloop
  endfacet
  facet normal -0.9510567664824542 0.3090162243765504 0
    outer loop
      vertex 1.4694061279296875 -0.2910757064819336 6
      vertex 1.3789634704589844 -0.5694303512573242 0.7999992370605469
      vertex 1.3789634704589844 -0.5694303512573242 6
    endloop
  endfacet
  facet normal -0.7431452305147767 -0.6691301565189984 0
    outer loop
      vertex 1.2326231002807617 0.8228988647460938 0.7999992370605469
      vertex 1.0367822647094727 1.0404024124145508 6
      vertex 1.0367822647094727 1.0404024124145508 0.7999992370605469
    endloop
  endfacet
  facet normal -0.7431452305147767 -0.6691301565189984 0
    outer loop
      vertex 1.0367822647094727 1.0404024124145508 6
      vertex 1.2326231002807617 0.8228988647460938 0.7999992370605469
      vertex 1.2326231002807617 0.8228988647460938 6
    endloop
  endfacet
  facet normal 0 1 0
    outer loop
      vertex 0.2463397979736328 -1.3923301696777344 0.7999992370605469
      vertex -0.04633903503417969 -1.3923301696777344 6
      vertex 0.2463397979736328 -1.3923301696777344 6
    endloop
  endfacet
  facet normal 0 1 0
    outer loop
      vertex -0.04633903503417969 -1.3923301696777344 6
      vertex 0.2463397979736328 -1.3923301696777344 0.7999992370605469
      vertex -0.04633903503417969 -1.3923301696777344 0.7999992370605469
    endloop
  endfacet
  facet normal 0.8660264364415674 -0.49999821138112066 0
    outer loop
      vertex -1.1789627075195312 0.5694303512573242 6
      vertex -1.032623291015625 0.8228988647460938 0.7999992370605469
      vertex -1.032623291015625 0.8228988647460938 6
    endloop
  endfacet
  facet normal 0.8660264364415674 -0.49999821138112066 0
    outer loop
      vertex -1.032623291015625 0.8228988647460938 0.7999992370605469
      vertex -1.1789627075195312 0.5694303512573242 6
      vertex -1.1789627075195312 0.5694303512573242 0.7999992370605469
    endloop
  endfacet
  facet normal 0.9945220271910385 -0.10452720905021484 0
    outer loop
      vertex -1.2999992370605469 0 6
      vertex -1.2694063186645508 0.2910757064819336 0.7999992370605469
      vertex -1.2694063186645508 0.2910757064819336 6
    endloop
  endfacet
  facet normal 0.9945220271910385 -0.10452720905021484 0
    outer loop
      vertex -1.2694063186645508 0.2910757064819336 0.7999992370605469
      vertex -1.2999992370605469 0 6
      vertex -1.2999992370605469 0 0.7999992370605469
    endloop
  endfacet
  facet normal 0.8660264364415674 0.49999821138112066 0
    outer loop
      vertex -1.032623291015625 -0.8228988647460938 6
      vertex -1.1789627075195312 -0.5694303512573242 0.7999992370605469
      vertex -1.1789627075195312 -0.5694303512573242 6
    endloop
  endfacet
  facet normal 0.8660264364415674 0.49999821138112066 0
    outer loop
      vertex -1.1789627075195312 -0.5694303512573242 0.7999992370605469
      vertex -1.032623291015625 -0.8228988647460938 6
      vertex -1.032623291015625 -0.8228988647460938 0.7999992370605469
    endloop
  endfacet
  facet normal 0.7431452305147767 -0.6691301565189984 0
    outer loop
      vertex -1.032623291015625 0.8228988647460938 6
      vertex -0.8367824554443359 1.0404024124145508 0.7999992370605469
      vertex -0.8367824554443359 1.0404024124145508 6
    endloop
  endfacet
  facet normal 0.7431452305147767 -0.6691301565189984 0
    outer loop
      vertex -0.8367824554443359 1.0404024124145508 0.7999992370605469
      vertex -1.032623291015625 0.8228988647460938 6
      vertex -1.032623291015625 0.8228988647460938 0.7999992370605469
    endloop
  endfacet
  facet normal 0.5877839480257535 -0.8090179419785808 0
    outer loop
      vertex -0.8367824554443359 1.0404024124145508 0.7999992370605469
      vertex -0.5999994277954102 1.2124347686767578 6
      vertex -0.8367824554443359 1.0404024124145508 6
    endloop
  endfacet
  facet normal 0.5877839480257535 -0.8090179419785808 0
    outer loop
      vertex -0.5999994277954102 1.2124347686767578 6
      vertex -0.8367824554443359 1.0404024124145508 0.7999992370605469
      vertex -0.5999994277954102 1.2124347686767578 0.7999992370605469
    endloop
  endfacet
  facet normal 0.9945220271910385 0.10452720905021484 0
    outer loop
      vertex -1.2694063186645508 -0.2910757064819336 6
      vertex -1.2999992370605469 0 0.7999992370605469
      vertex -1.2999992370605469 0 6
    endloop
  endfacet
  facet normal 0.9945220271910385 0.10452720905021484 0
    outer loop
      vertex -1.2999992370605469 0 0.7999992370605469
      vertex -1.2694063186645508 -0.2910757064819336 6
      vertex -1.2694063186645508 -0.2910757064819336 0.7999992370605469
    endloop
  endfacet
  facet normal -0.866025025506029 0.5000006551968524 0
    outer loop
      vertex 1.2326231002807617 -0.8228988647460938 0.7999992370605469
      vertex 1.3789634704589844 -0.5694303512573242 6
      vertex 1.3789634704589844 -0.5694303512573242 0.7999992370605469
    endloop
  endfacet
  facet normal -0.866025025506029 0.5000006551968524 0
    outer loop
      vertex 1.3789634704589844 -0.5694303512573242 6
      vertex 1.2326231002807617 -0.8228988647460938 0.7999992370605469
      vertex 1.2326231002807617 -0.8228988647460938 6
    endloop
  endfacet
  facet normal 0 -1 0
    outer loop
      vertex -0.04633903503417969 1.3923301696777344 0.7999992370605469
      vertex 0.2463397979736328 1.3923301696777344 6
      vertex -0.04633903503417969 1.3923301696777344 6
    endloop
  endfacet
  facet normal 0 -1 0
    outer loop
      vertex 0.2463397979736328 1.3923301696777344 6
      vertex -0.04633903503417969 1.3923301696777344 0.7999992370605469
      vertex 0.2463397979736328 1.3923301696777344 0.7999992370605469
    endloop
  endfacet
  facet normal 0.7431452305147767 0.6691301565189984 0
    outer loop
      vertex -0.8367824554443359 -1.0404024124145508 6
      vertex -1.032623291015625 -0.8228988647460938 0.7999992370605469
      vertex -1.032623291015625 -0.8228988647460938 6
    endloop
  endfacet
  facet normal 0.7431452305147767 0.6691301565189984 0
    outer loop
      vertex -1.032623291015625 -0.8228988647460938 0.7999992370605469
      vertex -0.8367824554443359 -1.0404024124145508 6
      vertex -0.8367824554443359 -1.0404024124145508 0.7999992370605469
    endloop
  endfacet
  facet normal 0.4067391037532216 0.9135443620744568 0
    outer loop
      vertex -0.3326234817504883 -1.3314790725708008 0.7999992370605469
      vertex -0.5999994277954102 -1.2124347686767578 6
      vertex -0.3326234817504883 -1.3314790725708008 6
    endloop
  endfacet
  facet normal 0.4067391037532216 0.9135443620744568 0
    outer loop
      vertex -0.5999994277954102 -1.2124347686767578 6
      vertex -0.3326234817504883 -1.3314790725708008 0.7999992370605469
      vertex -0.5999994277954102 -1.2124347686767578 0.7999992370605469
    endloop
  endfacet
  facet normal 0.9510558088531896 -0.3090191716489535 0
    outer loop
      vertex -1.2694063186645508 0.2910757064819336 6
      vertex -1.1789627075195312 0.5694303512573242 0.7999992370605469
      vertex -1.1789627075195312 0.5694303512573242 6
    endloop
  endfacet
  facet normal 0.9510558088531896 -0.3090191716489535 0
    outer loop
      vertex -1.1789627075195312 0.5694303512573242 0.7999992370605469
      vertex -1.2694063186645508 0.2910757064819336 6
      vertex -1.2694063186645508 0.2910757064819336 0.7999992370605469
    endloop
  endfacet
  facet normal 0.5877839480257535 0.8090179419785808 0
    outer loop
      vertex -0.5999994277954102 -1.2124347686767578 0.7999992370605469
      vertex -0.8367824554443359 -1.0404024124145508 6
      vertex -0.5999994277954102 -1.2124347686767578 6
    endloop
  endfacet
  facet normal 0.5877839480257535 0.8090179419785808 0
    outer loop
      vertex -0.8367824554443359 -1.0404024124145508 6
      vertex -0.5999994277954102 -1.2124347686767578 0.7999992370605469
      vertex -0.8367824554443359 -1.0404024124145508 0.7999992370605469
    endloop
  endfacet
  facet normal 0 0 1
    outer loop
      vertex 1.4694061279296875 0.2910757064819336 0.7999992370605469
      vertex 1.4694061279296875 -0.2910757064819336 0.7999992370605469
      vertex 1.5 0 0.7999992370605469
    endloop
  endfacet
  facet normal 0 0 1
    outer loop
      vertex 1.3789634704589844 0.5694303512573242 0.7999992370605469
      vertex 1.4694061279296875 -0.2910757064819336 0.7999992370605469
      vertex 1.4694061279296875 0.2910757064819336 0.7999992370605469
    endloop
  endfacet
  facet normal 0 0 1
    outer loop
      vertex 1.3789634704589844 0.5694303512573242 0.7999992370605469
      vertex 1.3789634704589844 -0.5694303512573242 0.7999992370605469
      vertex 1.4694061279296875 -0.2910757064819336 0.7999992370605469
    endloop
  endfacet
  facet normal 0 0 1
    outer loop
      vertex 1.2326231002807617 0.8228988647460938 0.7999992370605469
      vertex 1.3789634704589844 -0.5694303512573242 0.7999992370605469
      vertex 1.3789634704589844 0.5694303512573242 0.7999992370605469
    endloop
  endfacet
  facet normal 0 0 1
    outer loop
      vertex 1.2326231002807617 0.8228988647460938 0.7999992370605469
      vertex 1.2326231002807617 -0.8228988647460938 0.7999992370605469
      vertex 1.3789634704589844 -0.5694303512573242 0.7999992370605469
    endloop
  endfacet
  facet normal 0 0 1
    outer loop
      vertex 1.0367822647094727 1.0404024124145508 0.7999992370605469
      vertex 1.2326231002807617 -0.8228988647460938 0.7999992370605469
      vertex 1.2326231002807617 0.8228988647460938 0.7999992370605469
    endloop
  endfacet
  facet normal 0 0 1
    outer loop
      vertex 1.0367822647094727 1.0404024124145508 0.7999992370605469
      vertex 1.0367822647094727 -1.0404024124145508 0.7999992370605469
      vertex 1.2326231002807617 -0.8228988647460938 0.7999992370605469
    endloop
  endfacet
  facet normal 0 0 1
    outer loop
      vertex 0.7999992370605469 1.2124347686767578 0.7999992370605469
      vertex 1.0367822647094727 -1.0404024124145508 0.7999992370605469
      vertex 1.0367822647094727 1.0404024124145508 0.7999992370605469
    endloop
  endfacet
  facet normal 0 0 1
    outer loop
      vertex 0.7999992370605469 1.2124347686767578 0.7999992370605469
      vertex 0.7999992370605469 -1.2124347686767578 0.7999992370605469
      vertex 1.0367822647094727 -1.0404024124145508 0.7999992370605469
    endloop
  endfacet
  facet normal 0 0 1
    outer loop
      vertex 0.532623291015625 1.3314790725708008 0.7999992370605469
      vertex 0.7999992370605469 -1.2124347686767578 0.7999992370605469
      vertex 0.7999992370605469 1.2124347686767578 0.7999992370605469
    endloop
  endfacet
  facet normal 0 0 1
    outer loop
      vertex 0.532623291015625 1.3314790725708008 0.7999992370605469
      vertex 0.532623291015625 -1.3314790725708008 0.7999992370605469
      vertex 0.7999992370605469 -1.2124347686767578 0.7999992370605469
    endloop
  endfacet
  facet normal 0 0 1
    outer loop
      vertex 0.2463397979736328 1.3923301696777344 0.7999992370605469
      vertex 0.532623291015625 -1.3314790725708008 0.7999992370605469
      vertex 0.532623291015625 1.3314790725708008 0.7999992370605469
    endloop
  endfacet
  facet normal 0 0 1
    outer loop
      vertex 0.2463397979736328 1.3923301696777344 0.7999992370605469
      vertex 0.2463397979736328 -1.3923301696777344 0.7999992370605469
      vertex 0.532623291015625 -1.3314790725708008 0.7999992370605469
    endloop
  endfacet
  facet normal 0 0 1
    outer loop
      vertex -0.04633903503417969 1.3923301696777344 0.7999992370605469
      vertex 0.2463397979736328 -1.3923301696777344 0.7999992370605469
      vertex 0.2463397979736328 1.3923301696777344 0.7999992370605469
    endloop
  endfacet
  facet normal 0 0 1
    outer loop
      vertex -0.04633903503417969 1.3923301696777344 0.7999992370605469
      vertex -0.04633903503417969 -1.3923301696777344 0.7999992370605469
      vertex 0.2463397979736328 -1.3923301696777344 0.7999992370605469
    endloop
  endfacet
  facet normal 0 0 1
    outer loop
      vertex -0.3326234817504883 1.3314790725708008 0.7999992370605469
      vertex -0.04633903503417969 -1.3923301696777344 0.7999992370605469
      vertex -0.04633903503417969 1.3923301696777344 0.7999992370605469
    endloop
  endfacet
  facet normal 0 0 1
    outer loop
      vertex -0.3326234817504883 1.3314790725708008 0.7999992370605469
      vertex -0.3326234817504883 -1.3314790725708008 0.7999992370605469
      vertex -0.04633903503417969 -1.3923301696777344 0.7999992370605469
    endloop
  endfacet
  facet normal 0 0 1
    outer loop
      vertex -0.5999994277954102 1.2124347686767578 0.7999992370605469
      vertex -0.3326234817504883 -1.3314790725708008 0.7999992370605469
      vertex -0.3326234817504883 1.3314790725708008 0.7999992370605469
    endloop
  endfacet
  facet normal 0 0 1
    outer loop
      vertex -0.5999994277954102 1.2124347686767578 0.7999992370605469
      vertex -0.5999994277954102 -1.2124347686767578 0.7999992370605469
      vertex -0.3326234817504883 -1.3314790725708008 0.7999992370605469
    endloop
  endfacet
  facet normal 0 0 1
    outer loop
      vertex -0.8367824554443359 1.0404024124145508 0.7999992370605469
      vertex -0.5999994277954102 -1.2124347686767578 0.7999992370605469
      vertex -0.5999994277954102 1.2124347686767578 0.7999992370605469
    endloop
  endfacet
  facet normal 0 0 1
    outer loop
      vertex -0.8367824554443359 1.0404024124145508 0.7999992370605469
      vertex -0.8367824554443359 -1.0404024124145508 0.7999992370605469
      vertex -0.5999994277954102 -1.2124347686767578 0.7999992370605469
    endloop
  endfacet
  facet normal 0 0 1
    outer loop
      vertex -1.032623291015625 0.8228988647460938 0.7999992370605469
      vertex -0.8367824554443359 -1.0404024124145508 0.7999992370605469
      vertex -0.8367824554443359 1.0404024124145508 0.7999992370605469
    endloop
  endfacet
  facet normal 0 0 1
    outer loop
      vertex -1.032623291015625 0.8228988647460938 0.7999992370605469
      vertex -1.032623291015625 -0.8228988647460938 0.7999992370605469
      vertex -0.8367824554443359 -1.0404024124145508 0.7999992370605469
    endloop
  endfacet
  facet normal 0 0 1
    outer loop
      vertex -1.1789627075195312 0.5694303512573242 0.7999992370605469
      vertex -1.032623291015625 -0.8228988647460938 0.7999992370605469
      vertex -1.032623291015625 0.8228988647460938 0.7999992370605469
    endloop
  endfacet
  facet normal 0 0 1
    outer loop
      vertex -1.1789627075195312 0.5694303512573242 0.7999992370605469
      vertex -1.1789627075195312 -0.5694303512573242 0.7999992370605469
      vertex -1.032623291015625 -0.8228988647460938 0.7999992370605469
    endloop
  endfacet
  facet normal 0 0 1
    outer loop
      vertex -1.2694063186645508 0.2910757064819336 0.7999992370605469
      vertex -1.1789627075195312 -0.5694303512573242 0.7999992370605469
      vertex -1.1789627075195312 0.5694303512573242 0.7999992370605469
    endloop
  endfacet
  facet normal 0 0 1
    outer loop
      vertex -1.2694063186645508 0.2910757064819336 0.7999992370605469
      vertex -1.2694063186645508 -0.2910757064819336 0.7999992370605469
      vertex -1.1789627075195312 -0.5694303512573242 0.7999992370605469
    endloop
  endfacet
  facet normal 0 0 1
    outer loop
      vertex -1.2694063186645508 -0.2910757064819336 0.7999992370605469
      vertex -1.2694063186645508 0.2910757064819336 0.7999992370605469
      vertex -1.2999992370605469 0 0.7999992370605469
    endloop
  endfacet
  facet normal -0.4067391037532216 0.9135443620744568 0
    outer loop
      vertex 0.7999992370605469 -1.2124347686767578 0.7999992370605469
      vertex 0.532623291015625 -1.3314790725708008 6
      vertex 0.7999992370605469 -1.2124347686767578 6
    endloop
  endfacet
  facet normal -0.4067391037532216 0.9135443620744568 0
    outer loop
      vertex 0.532623291015625 -1.3314790725708008 6
      vertex 0.7999992370605469 -1.2124347686767578 0.7999992370605469
      vertex 0.532623291015625 -1.3314790725708008 0.7999992370605469
    endloop
  endfacet
  facet normal 0.4067391037532216 -0.9135443620744568 0
    outer loop
      vertex -0.5999994277954102 1.2124347686767578 0.7999992370605469
      vertex -0.3326234817504883 1.3314790725708008 6
      vertex -0.5999994277954102 1.2124347686767578 6
    endloop
  endfacet
  facet normal 0.4067391037532216 -0.9135443620744568 0
    outer loop
      vertex -0.3326234817504883 1.3314790725708008 6
      vertex -0.5999994277954102 1.2124347686767578 0.7999992370605469
      vertex -0.3326234817504883 1.3314790725708008 0.7999992370605469
    endloop
  endfacet
endsolid OpenSCAD_Model
