<?xml version="1.0" encoding="utf-8" standalone="yes"?> <svg width="1000" height="1000" viewBox="-1 -1 27 27" xmlns="http://www.w3.org/2000/svg" shape-rendering="crispEdges" id="qr code"><rect id="qr background" fill-opacity="1" fill="rgb(255, 255, 255)" x="-1" y="-1" width="27" height="27"></rect><path fill-opacity="1" fill="rgb(0, 0, 0)" id="qr dark pixels" fill-rule="evenodd" d="M 8 0 L 9 0 L 9 2 L 10 2 L 10 3 L 9 3 L 9 4 L 8 4 z M 10 0 L 12 0 L 12 1 L 11 1 L 11 2 L 10 2 z M 13 0 L 17 0 L 17 3 L 16 3 L 16 1 L 14 1 L 14 2 L 13 2 z M 11 2 L 12 2 L 12 3 L 11 3 z M 14 2 L 15 2 L 15 3 L 14 3 z M 13 3 L 14 3 L 14 4 L 15 4 L 15 3 L 16 3 L 16 4 L 17 4 L 17 8 L 15 8 L 15 7 L 16 7 L 16 5 L 15 5 L 15 7 L 14 7 L 14 6 L 13 6 L 13 9 L 12 9 L 12 10 L 13 10 L 13 9 L 17 9 L 17 10 L 16 10 L 16 11 L 15 11 L 15 10 L 14 10 L 14 11 L 13 11 L 13 13 L 12 13 L 12 12 L 11 12 L 11 13 L 10 13 L 10 11 L 11 11 L 11 7 L 12 7 L 12 5 L 13 5 z M 10 4 L 12 4 L 12 5 L 10 5 z M 8 5 L 10 5 L 10 6 L 9 6 L 9 7 L 8 7 z M 10 6 L 11 6 L 11 7 L 10 7 z M 9 7 L 10 7 L 10 8 L 9 8 z M 0 8 L 2 8 L 2 9 L 4 9 L 4 10 L 3 10 L 3 11 L 2 11 L 2 14 L 0 14 L 0 12 L 1 12 L 1 9 L 0 9 z M 4 8 L 7 8 L 7 9 L 4 9 z M 19 8 L 20 8 L 20 9 L 19 9 z M 21 8 L 25 8 L 25 9 L 21 9 z M 8 9 L 10 9 L 10 10 L 9 10 L 9 11 L 8 11 z M 20 9 L 21 9 L 21 10 L 20 10 z M 4 10 L 5 10 L 5 13 L 4 13 L 4 14 L 5 14 L 5 15 L 6 15 L 6 16 L 8 16 L 8 17 L 5 17 L 5 16 L 3 16 L 3 17 L 0 17 L 0 16 L 2 16 L 2 15 L 3 15 L 3 11 L 4 11 z M 6 10 L 7 10 L 7 11 L 6 11 z M 19 10 L 20 10 L 20 13 L 18 13 L 18 12 L 19 12 z M 21 10 L 24 10 L 24 12 L 25 12 L 25 14 L 24 14 L 24 13 L 21 13 L 21 12 L 22 12 L 22 11 L 21 11 z M 16 11 L 18 11 L 18 12 L 16 12 z M 6 12 L 9 12 L 9 13 L 8 13 L 8 14 L 7 14 L 7 13 L 6 13 z M 11 13 L 12 13 L 12 14 L 13 14 L 13 17 L 12 17 L 12 15 L 11 15 L 11 16 L 10 16 L 10 14 L 11 14 z M 15 13 L 17 13 L 17 14 L 16 14 L 16 17 L 15 17 L 15 18 L 13 18 L 13 17 L 14 17 L 14 15 L 15 15 z M 20 13 L 21 13 L 21 14 L 20 14 z M 6 14 L 7 14 L 7 15 L 6 15 z M 17 14 L 18 14 L 18 16 L 17 16 z M 21 14 L 23 14 L 23 17 L 21 17 L 21 16 L 22 16 L 22 15 L 21 15 z M 8 15 L 9 15 L 9 16 L 8 16 z M 19 15 L 20 15 L 20 16 L 19 16 z M 24 15 L 25 15 L 25 17 L 24 17 z M 8 17 L 12 17 L 12 18 L 13 18 L 13 20 L 14 20 L 14 23 L 13 23 L 13 21 L 12 21 L 12 20 L 11 20 L 11 21 L 12 21 L 12 24 L 11 24 L 11 25 L 8 25 L 8 23 L 10 23 L 10 22 L 9 22 L 9 21 L 8 21 L 8 19 L 9 19 L 9 20 L 10 20 L 10 19 L 11 19 L 11 18 L 8 18 z M 23 17 L 24 17 L 24 19 L 23 19 z M 21 18 L 22 18 L 22 19 L 21 19 z M 15 19 L 16 19 L 16 20 L 15 20 z M 22 19 L 23 19 L 23 20 L 24 20 L 24 21 L 25 21 L 25 22 L 24 22 L 24 24 L 25 24 L 25 25 L 22 25 z M 24 19 L 25 19 L 25 20 L 24 20 z M 15 21 L 19 21 L 19 22 L 17 22 L 17 23 L 18 23 L 18 24 L 16 24 L 16 25 L 15 25 L 15 24 L 14 24 L 14 23 L 15 23 z M 19 22 L 20 22 L 20 23 L 19 23 z M 20 23 L 21 23 L 21 24 L 20 24 z M 18 24 L 19 24 L 19 25 L 18 25 z"></path><path id="qr squares" d="M0,0h7h0v0v7v0h0h-7h0v0v-7v0h0zM1,1h5h0v0v5v0h0h-5h0v0v-5v0h0zM2,2h3h0v0v3v0h0h-3h0v0v-3v0h0z M18,0h7h0v0v7v0h0h-7h0v0v-7v0h0zM19,1h5h0v0v5v0h0h-5h0v0v-5v0h0zM20,2h3h0v0v3v0h0h-3h0v0v-3v0h0z M0,18h7h0v0v7v0h0h-7h0v0v-7v0h0zM1,19h5h0v0v5v0h0h-5h0v0v-5v0h0zM2,20h3h0v0v3v0h0h-3h0v0v-3v0h0zM16,16h5h0v0v5v0h0h-5h0v0v-5v0h0zM17,17h3h0v0v3v0h0h-3h0v0v-3v0h0zM18,18h1h0v0v1v0h0h-1h0v0v-1v0h0z" fill-rule="evenodd" fill-opacity="1" fill="rgb(0, 0, 0)"></path></svg>