solid OpenSCAD_Model
  facet normal 0.99863 0.0523363 0
    outer loop
      vertex 17.9 0 7
      vertex 17.8019 1.87106 0
      vertex 17.8019 1.87106 7
    endloop
  endfacet
  facet normal 0.99863 0.0523363 0
    outer loop
      vertex 17.8019 1.87106 0
      vertex 17.9 0 7
      vertex 17.9 0 0
    endloop
  endfacet
  facet normal -0.99863 0.0523363 0
    outer loop
      vertex -17.9 0 0
      vertex -17.8019 1.87106 7
      vertex -17.8019 1.87106 0
    endloop
  endfacet
  facet normal -0.99863 0.0523363 0
    outer loop
      vertex -17.8019 1.87106 7
      vertex -17.9 0 0
      vertex -17.9 0 7
    endloop
  endfacet
  facet normal -0.0523363 0.99863 0
    outer loop
      vertex 0 17.9 0
      vertex -1.87106 17.8019 7
      vertex 0 17.9 7
    endloop
  endfacet
  facet normal -0.0523363 0.99863 0
    outer loop
      vertex -1.87106 17.8019 7
      vertex 0 17.9 0
      vertex -1.87106 17.8019 0
    endloop
  endfacet
  facet normal 0.0523363 -0.99863 0
    outer loop
      vertex 0 -17.9 0
      vertex 1.87106 -17.8019 7
      vertex 0 -17.9 7
    endloop
  endfacet
  facet normal 0.0523363 -0.99863 0
    outer loop
      vertex 1.87106 -17.8019 7
      vertex 0 -17.9 0
      vertex 1.87106 -17.8019 0
    endloop
  endfacet
  facet normal 0.62932 0.777146 -0
    outer loop
      vertex 11.9774 13.3023 0
      vertex 10.5214 14.4814 7
      vertex 11.9774 13.3023 7
    endloop
  endfacet
  facet normal 0.62932 0.777146 0
    outer loop
      vertex 10.5214 14.4814 7
      vertex 11.9774 13.3023 0
      vertex 10.5214 14.4814 0
    endloop
  endfacet
  facet normal -0.707107 0.707107 0
    outer loop
      vertex -13.3023 11.9774 0
      vertex -11.9774 13.3023 7
      vertex -11.9774 13.3023 0
    endloop
  endfacet
  facet normal -0.707107 0.707107 0
    outer loop
      vertex -11.9774 13.3023 7
      vertex -13.3023 11.9774 0
      vertex -13.3023 11.9774 7
    endloop
  endfacet
  facet normal -0.45399 0.891007 0
    outer loop
      vertex -7.28059 16.3525 0
      vertex -8.95 15.5019 7
      vertex -7.28059 16.3525 7
    endloop
  endfacet
  facet normal -0.45399 0.891007 0
    outer loop
      vertex -8.95 15.5019 7
      vertex -7.28059 16.3525 0
      vertex -8.95 15.5019 0
    endloop
  endfacet
  facet normal 0.838671 -0.544639 0
    outer loop
      vertex 14.4814 -10.5214 7
      vertex 15.5019 -8.95 0
      vertex 15.5019 -8.95 7
    endloop
  endfacet
  facet normal 0.838671 -0.544639 0
    outer loop
      vertex 15.5019 -8.95 0
      vertex 14.4814 -10.5214 7
      vertex 14.4814 -10.5214 0
    endloop
  endfacet
  facet normal 0.891007 0.45399 0
    outer loop
      vertex 16.3525 7.28059 7
      vertex 15.5019 8.95 0
      vertex 15.5019 8.95 7
    endloop
  endfacet
  facet normal 0.891007 0.45399 0
    outer loop
      vertex 15.5019 8.95 0
      vertex 16.3525 7.28059 7
      vertex 16.3525 7.28059 0
    endloop
  endfacet
  facet normal 0.358368 0.93358 -0
    outer loop
      vertex 7.28059 16.3525 0
      vertex 5.5314 17.0239 7
      vertex 7.28059 16.3525 7
    endloop
  endfacet
  facet normal 0.358368 0.93358 0
    outer loop
      vertex 5.5314 17.0239 7
      vertex 7.28059 16.3525 0
      vertex 5.5314 17.0239 0
    endloop
  endfacet
  facet normal 0.544639 0.838671 -0
    outer loop
      vertex 10.5214 14.4814 0
      vertex 8.95 15.5019 7
      vertex 10.5214 14.4814 7
    endloop
  endfacet
  facet normal 0.544639 0.838671 0
    outer loop
      vertex 8.95 15.5019 7
      vertex 10.5214 14.4814 0
      vertex 8.95 15.5019 0
    endloop
  endfacet
  facet normal -0.93358 0.358368 0
    outer loop
      vertex -17.0239 5.5314 0
      vertex -16.3525 7.28059 7
      vertex -16.3525 7.28059 0
    endloop
  endfacet
  facet normal -0.93358 0.358368 0
    outer loop
      vertex -16.3525 7.28059 7
      vertex -17.0239 5.5314 0
      vertex -17.0239 5.5314 7
    endloop
  endfacet
  facet normal 0 0 1
    outer loop
      vertex 17 0 7
      vertex 17.9 0 7
      vertex 17.8019 1.87106 7
    endloop
  endfacet
  facet normal 0 0 1
    outer loop
      vertex 16.9069 1.77698 7
      vertex 17.8019 1.87106 7
      vertex 17.5088 3.72162 7
    endloop
  endfacet
  facet normal 0 0 1
    outer loop
      vertex 17.9 0 7
      vertex 17 0 7
      vertex 17.8019 -1.87106 7
    endloop
  endfacet
  facet normal 0 0 1
    outer loop
      vertex 16.6285 3.5345 7
      vertex 17.5088 3.72162 7
      vertex 17.0239 5.5314 7
    endloop
  endfacet
  facet normal -0 0 1
    outer loop
      vertex 16.9069 -1.77698 7
      vertex 17.8019 -1.87106 7
      vertex 17 0 7
    endloop
  endfacet
  facet normal 0 0 1
    outer loop
      vertex 17.8019 -1.87106 7
      vertex 16.9069 -1.77698 7
      vertex 17.5088 -3.72162 7
    endloop
  endfacet
  facet normal 0 0 1
    outer loop
      vertex 17.8019 1.87106 7
      vertex 16.9069 1.77698 7
      vertex 17 0 7
    endloop
  endfacet
  facet normal 0 0 1
    outer loop
      vertex 17.5088 3.72162 7
      vertex 16.6285 3.5345 7
      vertex 16.9069 1.77698 7
    endloop
  endfacet
  facet normal 0 0 1
    outer loop
      vertex 16.168 5.25329 7
      vertex 17.0239 5.5314 7
      vertex 16.3525 7.28059 7
    endloop
  endfacet
  facet normal 0 0 1
    outer loop
      vertex 17.0239 5.5314 7
      vertex 16.168 5.25329 7
      vertex 16.6285 3.5345 7
    endloop
  endfacet
  facet normal 0 0 1
    outer loop
      vertex 16.3525 7.28059 7
      vertex 15.5303 6.91452 7
      vertex 16.168 5.25329 7
    endloop
  endfacet
  facet normal 0 0 1
    outer loop
      vertex 15.5019 8.95 7
      vertex 15.5303 6.91452 7
      vertex 16.3525 7.28059 7
    endloop
  endfacet
  facet normal 0 0 1
    outer loop
      vertex 15.5019 8.95 7
      vertex 14.7224 8.5 7
      vertex 15.5303 6.91452 7
    endloop
  endfacet
  facet normal 0 0 1
    outer loop
      vertex 14.4814 10.5214 7
      vertex 14.7224 8.5 7
      vertex 15.5019 8.95 7
    endloop
  endfacet
  facet normal 0 0 1
    outer loop
      vertex 14.4814 10.5214 7
      vertex 13.7533 9.99235 7
      vertex 14.7224 8.5 7
    endloop
  endfacet
  facet normal 0 0 1
    outer loop
      vertex 13.3023 11.9774 7
      vertex 13.7533 9.99235 7
      vertex 14.4814 10.5214 7
    endloop
  endfacet
  facet normal 0 0 1
    outer loop
      vertex 13.3023 11.9774 7
      vertex 12.6335 11.3752 7
      vertex 13.7533 9.99235 7
    endloop
  endfacet
  facet normal 0 0 1
    outer loop
      vertex 11.9774 13.3023 7
      vertex 12.6335 11.3752 7
      vertex 13.3023 11.9774 7
    endloop
  endfacet
  facet normal 0 0 1
    outer loop
      vertex 11.9774 13.3023 7
      vertex 11.3752 12.6335 7
      vertex 12.6335 11.3752 7
    endloop
  endfacet
  facet normal 0 0 1
    outer loop
      vertex 10.5214 14.4814 7
      vertex 11.3752 12.6335 7
      vertex 11.9774 13.3023 7
    endloop
  endfacet
  facet normal 0 0 1
    outer loop
      vertex 10.5214 14.4814 7
      vertex 9.99235 13.7533 7
      vertex 11.3752 12.6335 7
    endloop
  endfacet
  facet normal 0 0 1
    outer loop
      vertex 8.95 15.5019 7
      vertex 9.99235 13.7533 7
      vertex 10.5214 14.4814 7
    endloop
  endfacet
  facet normal 0 0 1
    outer loop
      vertex 8.95 15.5019 7
      vertex 8.5 14.7224 7
      vertex 9.99235 13.7533 7
    endloop
  endfacet
  facet normal 0 0 1
    outer loop
      vertex 7.28059 16.3525 7
      vertex 8.5 14.7224 7
      vertex 8.95 15.5019 7
    endloop
  endfacet
  facet normal 0 0 1
    outer loop
      vertex 7.28059 16.3525 7
      vertex 6.91452 15.5303 7
      vertex 8.5 14.7224 7
    endloop
  endfacet
  facet normal 0 0 1
    outer loop
      vertex 5.5314 17.0239 7
      vertex 6.91452 15.5303 7
      vertex 7.28059 16.3525 7
    endloop
  endfacet
  facet normal 0 0 1
    outer loop
      vertex 5.5314 17.0239 7
      vertex 5.25329 16.168 7
      vertex 6.91452 15.5303 7
    endloop
  endfacet
  facet normal 0 0 1
    outer loop
      vertex 3.72162 17.5088 7
      vertex 5.25329 16.168 7
      vertex 5.5314 17.0239 7
    endloop
  endfacet
  facet normal 0 0 1
    outer loop
      vertex 3.72162 17.5088 7
      vertex 3.5345 16.6285 7
      vertex 5.25329 16.168 7
    endloop
  endfacet
  facet normal 0 0 1
    outer loop
      vertex 1.87106 17.8019 7
      vertex 3.5345 16.6285 7
      vertex 3.72162 17.5088 7
    endloop
  endfacet
  facet normal 0 0 1
    outer loop
      vertex 1.87106 17.8019 7
      vertex 1.77698 16.9069 7
      vertex 3.5345 16.6285 7
    endloop
  endfacet
  facet normal 0 0 1
    outer loop
      vertex 0 17.9 7
      vertex 1.77698 16.9069 7
      vertex 1.87106 17.8019 7
    endloop
  endfacet
  facet normal 0 0 1
    outer loop
      vertex 0 17.9 7
      vertex 0 17 7
      vertex 1.77698 16.9069 7
    endloop
  endfacet
  facet normal 0 0 1
    outer loop
      vertex 0 17.9 7
      vertex -1.77698 16.9069 7
      vertex 0 17 7
    endloop
  endfacet
  facet normal -0 0 1
    outer loop
      vertex -1.87106 17.8019 7
      vertex -1.77698 16.9069 7
      vertex 0 17.9 7
    endloop
  endfacet
  facet normal 0 0 1
    outer loop
      vertex -1.87106 17.8019 7
      vertex -3.5345 16.6285 7
      vertex -1.77698 16.9069 7
    endloop
  endfacet
  facet normal -0 0 1
    outer loop
      vertex -3.72162 17.5088 7
      vertex -3.5345 16.6285 7
      vertex -1.87106 17.8019 7
    endloop
  endfacet
  facet normal 0 0 1
    outer loop
      vertex -3.72162 17.5088 7
      vertex -5.25329 16.168 7
      vertex -3.5345 16.6285 7
    endloop
  endfacet
  facet normal -0 0 1
    outer loop
      vertex -5.5314 17.0239 7
      vertex -5.25329 16.168 7
      vertex -3.72162 17.5088 7
    endloop
  endfacet
  facet normal 0 0 1
    outer loop
      vertex -5.5314 17.0239 7
      vertex -6.91452 15.5303 7
      vertex -5.25329 16.168 7
    endloop
  endfacet
  facet normal -0 0 1
    outer loop
      vertex -7.28059 16.3525 7
      vertex -6.91452 15.5303 7
      vertex -5.5314 17.0239 7
    endloop
  endfacet
  facet normal 0 0 1
    outer loop
      vertex -7.28059 16.3525 7
      vertex -8.5 14.7224 7
      vertex -6.91452 15.5303 7
    endloop
  endfacet
  facet normal -0 0 1
    outer loop
      vertex -8.95 15.5019 7
      vertex -8.5 14.7224 7
      vertex -7.28059 16.3525 7
    endloop
  endfacet
  facet normal 0 0 1
    outer loop
      vertex -8.95 15.5019 7
      vertex -9.99235 13.7533 7
      vertex -8.5 14.7224 7
    endloop
  endfacet
  facet normal -0 0 1
    outer loop
      vertex -10.5214 14.4814 7
      vertex -9.99235 13.7533 7
      vertex -8.95 15.5019 7
    endloop
  endfacet
  facet normal 0 0 1
    outer loop
      vertex -10.5214 14.4814 7
      vertex -11.3752 12.6335 7
      vertex -9.99235 13.7533 7
    endloop
  endfacet
  facet normal -0 0 1
    outer loop
      vertex -11.9774 13.3023 7
      vertex -11.3752 12.6335 7
      vertex -10.5214 14.4814 7
    endloop
  endfacet
  facet normal 0 0 1
    outer loop
      vertex -11.9774 13.3023 7
      vertex -12.6335 11.3752 7
      vertex -11.3752 12.6335 7
    endloop
  endfacet
  facet normal -0 0 1
    outer loop
      vertex -13.3023 11.9774 7
      vertex -12.6335 11.3752 7
      vertex -11.9774 13.3023 7
    endloop
  endfacet
  facet normal 0 0 1
    outer loop
      vertex -13.3023 11.9774 7
      vertex -13.7533 9.99235 7
      vertex -12.6335 11.3752 7
    endloop
  endfacet
  facet normal -0 0 1
    outer loop
      vertex -14.4814 10.5214 7
      vertex -13.7533 9.99235 7
      vertex -13.3023 11.9774 7
    endloop
  endfacet
  facet normal 0 0 1
    outer loop
      vertex -14.4814 10.5214 7
      vertex -14.7224 8.5 7
      vertex -13.7533 9.99235 7
    endloop
  endfacet
  facet normal -0 0 1
    outer loop
      vertex -15.5019 8.95 7
      vertex -14.7224 8.5 7
      vertex -14.4814 10.5214 7
    endloop
  endfacet
  facet normal 0 0 1
    outer loop
      vertex -15.5019 8.95 7
      vertex -15.5303 6.91452 7
      vertex -14.7224 8.5 7
    endloop
  endfacet
  facet normal -0 0 1
    outer loop
      vertex -16.3525 7.28059 7
      vertex -15.5303 6.91452 7
      vertex -15.5019 8.95 7
    endloop
  endfacet
  facet normal 0 0 1
    outer loop
      vertex -15.5303 6.91452 7
      vertex -16.3525 7.28059 7
      vertex -16.168 5.25329 7
    endloop
  endfacet
  facet normal -0 0 1
    outer loop
      vertex -17.0239 5.5314 7
      vertex -16.168 5.25329 7
      vertex -16.3525 7.28059 7
    endloop
  endfacet
  facet normal 0 0 1
    outer loop
      vertex -16.168 5.25329 7
      vertex -17.0239 5.5314 7
      vertex -16.6285 3.5345 7
    endloop
  endfacet
  facet normal 0 0 1
    outer loop
      vertex -16.6285 3.5345 7
      vertex -17.5088 3.72162 7
      vertex -16.9069 1.77698 7
    endloop
  endfacet
  facet normal -0 0 1
    outer loop
      vertex -17.5088 3.72162 7
      vertex -16.6285 3.5345 7
      vertex -17.0239 5.5314 7
    endloop
  endfacet
  facet normal -0 0 1
    outer loop
      vertex 16.6285 -3.5345 7
      vertex 17.5088 -3.72162 7
      vertex 16.9069 -1.77698 7
    endloop
  endfacet
  facet normal 0 0 1
    outer loop
      vertex 17.5088 -3.72162 7
      vertex 16.6285 -3.5345 7
      vertex 17.0239 -5.5314 7
    endloop
  endfacet
  facet normal -0 0 1
    outer loop
      vertex 16.168 -5.25329 7
      vertex 17.0239 -5.5314 7
      vertex 16.6285 -3.5345 7
    endloop
  endfacet
  facet normal 0 0 1
    outer loop
      vertex 17.0239 -5.5314 7
      vertex 16.168 -5.25329 7
      vertex 16.3525 -7.28059 7
    endloop
  endfacet
  facet normal -0 0 1
    outer loop
      vertex 15.5303 -6.91452 7
      vertex 16.3525 -7.28059 7
      vertex 16.168 -5.25329 7
    endloop
  endfacet
  facet normal 0 0 1
    outer loop
      vertex 15.5303 -6.91452 7
      vertex 15.5019 -8.95 7
      vertex 16.3525 -7.28059 7
    endloop
  endfacet
  facet normal -0 0 1
    outer loop
      vertex 14.7224 -8.5 7
      vertex 15.5019 -8.95 7
      vertex 15.5303 -6.91452 7
    endloop
  endfacet
  facet normal 0 0 1
    outer loop
      vertex 14.7224 -8.5 7
      vertex 14.4814 -10.5214 7
      vertex 15.5019 -8.95 7
    endloop
  endfacet
  facet normal -0 0 1
    outer loop
      vertex 13.7533 -9.99235 7
      vertex 14.4814 -10.5214 7
      vertex 14.7224 -8.5 7
    endloop
  endfacet
  facet normal 0 0 1
    outer loop
      vertex 13.7533 -9.99235 7
      vertex 13.3023 -11.9774 7
      vertex 14.4814 -10.5214 7
    endloop
  endfacet
  facet normal -0 0 1
    outer loop
      vertex 12.6335 -11.3752 7
      vertex 13.3023 -11.9774 7
      vertex 13.7533 -9.99235 7
    endloop
  endfacet
  facet normal 0 0 1
    outer loop
      vertex 12.6335 -11.3752 7
      vertex 11.9774 -13.3023 7
      vertex 13.3023 -11.9774 7
    endloop
  endfacet
  facet normal -0 0 1
    outer loop
      vertex 11.3752 -12.6335 7
      vertex 11.9774 -13.3023 7
      vertex 12.6335 -11.3752 7
    endloop
  endfacet
  facet normal 0 0 1
    outer loop
      vertex 11.3752 -12.6335 7
      vertex 10.5214 -14.4814 7
      vertex 11.9774 -13.3023 7
    endloop
  endfacet
  facet normal -0 0 1
    outer loop
      vertex 9.99235 -13.7533 7
      vertex 10.5214 -14.4814 7
      vertex 11.3752 -12.6335 7
    endloop
  endfacet
  facet normal 0 0 1
    outer loop
      vertex 9.99235 -13.7533 7
      vertex 8.95 -15.5019 7
      vertex 10.5214 -14.4814 7
    endloop
  endfacet
  facet normal -0 0 1
    outer loop
      vertex 8.5 -14.7224 7
      vertex 8.95 -15.5019 7
      vertex 9.99235 -13.7533 7
    endloop
  endfacet
  facet normal 0 0 1
    outer loop
      vertex 8.5 -14.7224 7
      vertex 7.28059 -16.3525 7
      vertex 8.95 -15.5019 7
    endloop
  endfacet
  facet normal -0 0 1
    outer loop
      vertex 6.91452 -15.5303 7
      vertex 7.28059 -16.3525 7
      vertex 8.5 -14.7224 7
    endloop
  endfacet
  facet normal 0 0 1
    outer loop
      vertex 6.91452 -15.5303 7
      vertex 5.5314 -17.0239 7
      vertex 7.28059 -16.3525 7
    endloop
  endfacet
  facet normal -0 0 1
    outer loop
      vertex 5.25329 -16.168 7
      vertex 5.5314 -17.0239 7
      vertex 6.91452 -15.5303 7
    endloop
  endfacet
  facet normal 0 0 1
    outer loop
      vertex 5.25329 -16.168 7
      vertex 3.72162 -17.5088 7
      vertex 5.5314 -17.0239 7
    endloop
  endfacet
  facet normal -0 0 1
    outer loop
      vertex 3.5345 -16.6285 7
      vertex 3.72162 -17.5088 7
      vertex 5.25329 -16.168 7
    endloop
  endfacet
  facet normal 0 0 1
    outer loop
      vertex 3.5345 -16.6285 7
      vertex 1.87106 -17.8019 7
      vertex 3.72162 -17.5088 7
    endloop
  endfacet
  facet normal -0 0 1
    outer loop
      vertex 1.77698 -16.9069 7
      vertex 1.87106 -17.8019 7
      vertex 3.5345 -16.6285 7
    endloop
  endfacet
  facet normal -0 0 1
    outer loop
      vertex 0 -17 7
      vertex 1.87106 -17.8019 7
      vertex 1.77698 -16.9069 7
    endloop
  endfacet
  facet normal 0 0 1
    outer loop
      vertex 0 -17 7
      vertex 0 -17.9 7
      vertex 1.87106 -17.8019 7
    endloop
  endfacet
  facet normal 0 0 1
    outer loop
      vertex -1.77698 -16.9069 7
      vertex 0 -17.9 7
      vertex 0 -17 7
    endloop
  endfacet
  facet normal 0 0 1
    outer loop
      vertex -1.77698 -16.9069 7
      vertex -1.87106 -17.8019 7
      vertex 0 -17.9 7
    endloop
  endfacet
  facet normal 0 0 1
    outer loop
      vertex -3.5345 -16.6285 7
      vertex -1.87106 -17.8019 7
      vertex -1.77698 -16.9069 7
    endloop
  endfacet
  facet normal 0 0 1
    outer loop
      vertex -3.5345 -16.6285 7
      vertex -3.72162 -17.5088 7
      vertex -1.87106 -17.8019 7
    endloop
  endfacet
  facet normal 0 0 1
    outer loop
      vertex -5.25329 -16.168 7
      vertex -3.72162 -17.5088 7
      vertex -3.5345 -16.6285 7
    endloop
  endfacet
  facet normal 0 0 1
    outer loop
      vertex -5.25329 -16.168 7
      vertex -5.5314 -17.0239 7
      vertex -3.72162 -17.5088 7
    endloop
  endfacet
  facet normal 0 0 1
    outer loop
      vertex -6.91452 -15.5303 7
      vertex -5.5314 -17.0239 7
      vertex -5.25329 -16.168 7
    endloop
  endfacet
  facet normal 0 0 1
    outer loop
      vertex -6.91452 -15.5303 7
      vertex -7.28059 -16.3525 7
      vertex -5.5314 -17.0239 7
    endloop
  endfacet
  facet normal 0 0 1
    outer loop
      vertex -8.5 -14.7224 7
      vertex -7.28059 -16.3525 7
      vertex -6.91452 -15.5303 7
    endloop
  endfacet
  facet normal 0 0 1
    outer loop
      vertex -8.5 -14.7224 7
      vertex -8.95 -15.5019 7
      vertex -7.28059 -16.3525 7
    endloop
  endfacet
  facet normal 0 0 1
    outer loop
      vertex -9.99235 -13.7533 7
      vertex -8.95 -15.5019 7
      vertex -8.5 -14.7224 7
    endloop
  endfacet
  facet normal 0 0 1
    outer loop
      vertex -9.99235 -13.7533 7
      vertex -10.5214 -14.4814 7
      vertex -8.95 -15.5019 7
    endloop
  endfacet
  facet normal 0 0 1
    outer loop
      vertex -11.3752 -12.6335 7
      vertex -10.5214 -14.4814 7
      vertex -9.99235 -13.7533 7
    endloop
  endfacet
  facet normal 0 0 1
    outer loop
      vertex -11.3752 -12.6335 7
      vertex -11.9774 -13.3023 7
      vertex -10.5214 -14.4814 7
    endloop
  endfacet
  facet normal 0 0 1
    outer loop
      vertex -12.6335 -11.3752 7
      vertex -11.9774 -13.3023 7
      vertex -11.3752 -12.6335 7
    endloop
  endfacet
  facet normal 0 0 1
    outer loop
      vertex -12.6335 -11.3752 7
      vertex -13.3023 -11.9774 7
      vertex -11.9774 -13.3023 7
    endloop
  endfacet
  facet normal 0 0 1
    outer loop
      vertex -13.7533 -9.99235 7
      vertex -13.3023 -11.9774 7
      vertex -12.6335 -11.3752 7
    endloop
  endfacet
  facet normal 0 0 1
    outer loop
      vertex -13.7533 -9.99235 7
      vertex -14.4814 -10.5214 7
      vertex -13.3023 -11.9774 7
    endloop
  endfacet
  facet normal 0 0 1
    outer loop
      vertex -14.7224 -8.5 7
      vertex -14.4814 -10.5214 7
      vertex -13.7533 -9.99235 7
    endloop
  endfacet
  facet normal 0 0 1
    outer loop
      vertex -14.7224 -8.5 7
      vertex -15.5019 -8.95 7
      vertex -14.4814 -10.5214 7
    endloop
  endfacet
  facet normal 0 0 1
    outer loop
      vertex -15.5303 -6.91452 7
      vertex -15.5019 -8.95 7
      vertex -14.7224 -8.5 7
    endloop
  endfacet
  facet normal 0 0 1
    outer loop
      vertex -16.3525 -7.28059 7
      vertex -15.5303 -6.91452 7
      vertex -16.168 -5.25329 7
    endloop
  endfacet
  facet normal 0 0 1
    outer loop
      vertex -15.5303 -6.91452 7
      vertex -16.3525 -7.28059 7
      vertex -15.5019 -8.95 7
    endloop
  endfacet
  facet normal 0 0 1
    outer loop
      vertex -17.0239 -5.5314 7
      vertex -16.168 -5.25329 7
      vertex -16.6285 -3.5345 7
    endloop
  endfacet
  facet normal 0 0 1
    outer loop
      vertex -17.5088 -3.72162 7
      vertex -16.6285 -3.5345 7
      vertex -16.9069 -1.77698 7
    endloop
  endfacet
  facet normal 0 0 1
    outer loop
      vertex -16.168 -5.25329 7
      vertex -17.0239 -5.5314 7
      vertex -16.3525 -7.28059 7
    endloop
  endfacet
  facet normal 0 0 1
    outer loop
      vertex -17.8019 -1.87106 7
      vertex -16.9069 -1.77698 7
      vertex -17 0 7
    endloop
  endfacet
  facet normal -0 0 1
    outer loop
      vertex -17.8019 1.87106 7
      vertex -16.9069 1.77698 7
      vertex -17.5088 3.72162 7
    endloop
  endfacet
  facet normal 0 0 1
    outer loop
      vertex -16.9069 1.77698 7
      vertex -17.8019 1.87106 7
      vertex -17 0 7
    endloop
  endfacet
  facet normal 0 0 1
    outer loop
      vertex -16.6285 -3.5345 7
      vertex -17.5088 -3.72162 7
      vertex -17.0239 -5.5314 7
    endloop
  endfacet
  facet normal 0 0 1
    outer loop
      vertex -17.9 0 7
      vertex -17 0 7
      vertex -17.8019 1.87106 7
    endloop
  endfacet
  facet normal 0 0 1
    outer loop
      vertex -16.9069 -1.77698 7
      vertex -17.8019 -1.87106 7
      vertex -17.5088 -3.72162 7
    endloop
  endfacet
  facet normal 0 0 1
    outer loop
      vertex -17 0 7
      vertex -17.9 0 7
      vertex -17.8019 -1.87106 7
    endloop
  endfacet
  facet normal -0.25882 0.965926 0
    outer loop
      vertex -3.72162 17.5088 0
      vertex -5.5314 17.0239 7
      vertex -3.72162 17.5088 7
    endloop
  endfacet
  facet normal -0.25882 0.965926 0
    outer loop
      vertex -5.5314 17.0239 7
      vertex -3.72162 17.5088 0
      vertex -5.5314 17.0239 0
    endloop
  endfacet
  facet normal 0.987688 -0.156434 0
    outer loop
      vertex 17.5088 -3.72162 7
      vertex 17.8019 -1.87106 0
      vertex 17.8019 -1.87106 7
    endloop
  endfacet
  facet normal 0.987688 -0.156434 0
    outer loop
      vertex 17.8019 -1.87106 0
      vertex 17.5088 -3.72162 7
      vertex 17.5088 -3.72162 0
    endloop
  endfacet
  facet normal -0.777146 -0.62932 0
    outer loop
      vertex -13.3023 -11.9774 0
      vertex -14.4814 -10.5214 7
      vertex -14.4814 -10.5214 0
    endloop
  endfacet
  facet normal -0.777146 -0.62932 0
    outer loop
      vertex -14.4814 -10.5214 7
      vertex -13.3023 -11.9774 0
      vertex -13.3023 -11.9774 7
    endloop
  endfacet
  facet normal 0.45399 -0.891007 0
    outer loop
      vertex 7.28059 -16.3525 0
      vertex 8.95 -15.5019 7
      vertex 7.28059 -16.3525 7
    endloop
  endfacet
  facet normal 0.45399 -0.891007 0
    outer loop
      vertex 8.95 -15.5019 7
      vertex 7.28059 -16.3525 0
      vertex 8.95 -15.5019 0
    endloop
  endfacet
  facet normal 0.965926 0.25882 0
    outer loop
      vertex 17.5088 3.72162 7
      vertex 17.0239 5.5314 0
      vertex 17.0239 5.5314 7
    endloop
  endfacet
  facet normal 0.965926 0.25882 0
    outer loop
      vertex 17.0239 5.5314 0
      vertex 17.5088 3.72162 7
      vertex 17.5088 3.72162 0
    endloop
  endfacet
  facet normal 0.987688 0.156434 0
    outer loop
      vertex 17.8019 1.87106 7
      vertex 17.5088 3.72162 0
      vertex 17.5088 3.72162 7
    endloop
  endfacet
  facet normal 0.987688 0.156434 0
    outer loop
      vertex 17.5088 3.72162 0
      vertex 17.8019 1.87106 7
      vertex 17.8019 1.87106 0
    endloop
  endfacet
  facet normal 0.93358 0.358368 0
    outer loop
      vertex 17.0239 5.5314 7
      vertex 16.3525 7.28059 0
      vertex 16.3525 7.28059 7
    endloop
  endfacet
  facet normal 0.93358 0.358368 0
    outer loop
      vertex 16.3525 7.28059 0
      vertex 17.0239 5.5314 7
      vertex 17.0239 5.5314 0
    endloop
  endfacet
  facet normal 0.777146 0.62932 0
    outer loop
      vertex 14.4814 10.5214 7
      vertex 13.3023 11.9774 0
      vertex 13.3023 11.9774 7
    endloop
  endfacet
  facet normal 0.777146 0.62932 0
    outer loop
      vertex 13.3023 11.9774 0
      vertex 14.4814 10.5214 7
      vertex 14.4814 10.5214 0
    endloop
  endfacet
  facet normal 0.707107 0.707107 0
    outer loop
      vertex 13.3023 11.9774 7
      vertex 11.9774 13.3023 0
      vertex 11.9774 13.3023 7
    endloop
  endfacet
  facet normal 0.707107 0.707107 0
    outer loop
      vertex 11.9774 13.3023 0
      vertex 13.3023 11.9774 7
      vertex 13.3023 11.9774 0
    endloop
  endfacet
  facet normal 0.838671 0.544639 0
    outer loop
      vertex 15.5019 8.95 7
      vertex 14.4814 10.5214 0
      vertex 14.4814 10.5214 7
    endloop
  endfacet
  facet normal 0.838671 0.544639 0
    outer loop
      vertex 14.4814 10.5214 0
      vertex 15.5019 8.95 7
      vertex 15.5019 8.95 0
    endloop
  endfacet
  facet normal 0.156434 0.987688 -0
    outer loop
      vertex 3.72162 17.5088 0
      vertex 1.87106 17.8019 7
      vertex 3.72162 17.5088 7
    endloop
  endfacet
  facet normal 0.156434 0.987688 0
    outer loop
      vertex 1.87106 17.8019 7
      vertex 3.72162 17.5088 0
      vertex 1.87106 17.8019 0
    endloop
  endfacet
  facet normal 0.25882 0.965926 -0
    outer loop
      vertex 5.5314 17.0239 0
      vertex 3.72162 17.5088 7
      vertex 5.5314 17.0239 7
    endloop
  endfacet
  facet normal 0.25882 0.965926 0
    outer loop
      vertex 3.72162 17.5088 7
      vertex 5.5314 17.0239 0
      vertex 3.72162 17.5088 0
    endloop
  endfacet
  facet normal 0.0523363 0.99863 -0
    outer loop
      vertex 1.87106 17.8019 0
      vertex 0 17.9 7
      vertex 1.87106 17.8019 7
    endloop
  endfacet
  facet normal 0.0523363 0.99863 0
    outer loop
      vertex 0 17.9 7
      vertex 1.87106 17.8019 0
      vertex 0 17.9 0
    endloop
  endfacet
  facet normal 0.45399 0.891007 -0
    outer loop
      vertex 8.95 15.5019 0
      vertex 7.28059 16.3525 7
      vertex 8.95 15.5019 7
    endloop
  endfacet
  facet normal 0.45399 0.891007 0
    outer loop
      vertex 7.28059 16.3525 7
      vertex 8.95 15.5019 0
      vertex 7.28059 16.3525 0
    endloop
  endfacet
  facet normal -0.838671 0.544639 0
    outer loop
      vertex -15.5019 8.95 0
      vertex -14.4814 10.5214 7
      vertex -14.4814 10.5214 0
    endloop
  endfacet
  facet normal -0.838671 0.544639 0
    outer loop
      vertex -14.4814 10.5214 7
      vertex -15.5019 8.95 0
      vertex -15.5019 8.95 7
    endloop
  endfacet
  facet normal -0.777146 0.62932 0
    outer loop
      vertex -14.4814 10.5214 0
      vertex -13.3023 11.9774 7
      vertex -13.3023 11.9774 0
    endloop
  endfacet
  facet normal -0.777146 0.62932 0
    outer loop
      vertex -13.3023 11.9774 7
      vertex -14.4814 10.5214 0
      vertex -14.4814 10.5214 7
    endloop
  endfacet
  facet normal -0.891007 0.45399 0
    outer loop
      vertex -16.3525 7.28059 0
      vertex -15.5019 8.95 7
      vertex -15.5019 8.95 0
    endloop
  endfacet
  facet normal -0.891007 0.45399 0
    outer loop
      vertex -15.5019 8.95 7
      vertex -16.3525 7.28059 0
      vertex -16.3525 7.28059 7
    endloop
  endfacet
  facet normal -0.965926 0.25882 0
    outer loop
      vertex -17.5088 3.72162 0
      vertex -17.0239 5.5314 7
      vertex -17.0239 5.5314 0
    endloop
  endfacet
  facet normal -0.965926 0.25882 0
    outer loop
      vertex -17.0239 5.5314 7
      vertex -17.5088 3.72162 0
      vertex -17.5088 3.72162 7
    endloop
  endfacet
  facet normal -0.987688 0.156434 0
    outer loop
      vertex -17.8019 1.87106 0
      vertex -17.5088 3.72162 7
      vertex -17.5088 3.72162 0
    endloop
  endfacet
  facet normal -0.987688 0.156434 0
    outer loop
      vertex -17.5088 3.72162 7
      vertex -17.8019 1.87106 0
      vertex -17.8019 1.87106 7
    endloop
  endfacet
  facet normal -0.544639 0.838671 0
    outer loop
      vertex -8.95 15.5019 0
      vertex -10.5214 14.4814 7
      vertex -8.95 15.5019 7
    endloop
  endfacet
  facet normal -0.544639 0.838671 0
    outer loop
      vertex -10.5214 14.4814 7
      vertex -8.95 15.5019 0
      vertex -10.5214 14.4814 0
    endloop
  endfacet
  facet normal -0.62932 0.777146 0
    outer loop
      vertex -10.5214 14.4814 0
      vertex -11.9774 13.3023 7
      vertex -10.5214 14.4814 7
    endloop
  endfacet
  facet normal -0.62932 0.777146 0
    outer loop
      vertex -11.9774 13.3023 7
      vertex -10.5214 14.4814 0
      vertex -11.9774 13.3023 0
    endloop
  endfacet
  facet normal -0.358368 0.93358 0
    outer loop
      vertex -5.5314 17.0239 0
      vertex -7.28059 16.3525 7
      vertex -5.5314 17.0239 7
    endloop
  endfacet
  facet normal -0.358368 0.93358 0
    outer loop
      vertex -7.28059 16.3525 7
      vertex -5.5314 17.0239 0
      vertex -7.28059 16.3525 0
    endloop
  endfacet
  facet normal -0.156434 0.987688 0
    outer loop
      vertex -1.87106 17.8019 0
      vertex -3.72162 17.5088 7
      vertex -1.87106 17.8019 7
    endloop
  endfacet
  facet normal -0.156434 0.987688 0
    outer loop
      vertex -3.72162 17.5088 7
      vertex -1.87106 17.8019 0
      vertex -3.72162 17.5088 0
    endloop
  endfacet
  facet normal 0.99863 -0.0523363 0
    outer loop
      vertex 17.8019 -1.87106 7
      vertex 17.9 0 0
      vertex 17.9 0 7
    endloop
  endfacet
  facet normal 0.99863 -0.0523363 0
    outer loop
      vertex 17.9 0 0
      vertex 17.8019 -1.87106 7
      vertex 17.8019 -1.87106 0
    endloop
  endfacet
  facet normal 0.544639 -0.838671 0
    outer loop
      vertex 8.95 -15.5019 0
      vertex 10.5214 -14.4814 7
      vertex 8.95 -15.5019 7
    endloop
  endfacet
  facet normal 0.544639 -0.838671 0
    outer loop
      vertex 10.5214 -14.4814 7
      vertex 8.95 -15.5019 0
      vertex 10.5214 -14.4814 0
    endloop
  endfacet
  facet normal 0.777146 -0.62932 0
    outer loop
      vertex 13.3023 -11.9774 7
      vertex 14.4814 -10.5214 0
      vertex 14.4814 -10.5214 7
    endloop
  endfacet
  facet normal 0.777146 -0.62932 0
    outer loop
      vertex 14.4814 -10.5214 0
      vertex 13.3023 -11.9774 7
      vertex 13.3023 -11.9774 0
    endloop
  endfacet
  facet normal -0.99863 -0.0523363 0
    outer loop
      vertex -17.8019 -1.87106 0
      vertex -17.9 0 7
      vertex -17.9 0 0
    endloop
  endfacet
  facet normal -0.99863 -0.0523363 0
    outer loop
      vertex -17.9 0 7
      vertex -17.8019 -1.87106 0
      vertex -17.8019 -1.87106 7
    endloop
  endfacet
  facet normal 0.965926 -0.25882 0
    outer loop
      vertex 17.0239 -5.5314 7
      vertex 17.5088 -3.72162 0
      vertex 17.5088 -3.72162 7
    endloop
  endfacet
  facet normal 0.965926 -0.25882 0
    outer loop
      vertex 17.5088 -3.72162 0
      vertex 17.0239 -5.5314 7
      vertex 17.0239 -5.5314 0
    endloop
  endfacet
  facet normal 0.707107 -0.707107 0
    outer loop
      vertex 11.9774 -13.3023 7
      vertex 13.3023 -11.9774 0
      vertex 13.3023 -11.9774 7
    endloop
  endfacet
  facet normal 0.707107 -0.707107 0
    outer loop
      vertex 13.3023 -11.9774 0
      vertex 11.9774 -13.3023 7
      vertex 11.9774 -13.3023 0
    endloop
  endfacet
  facet normal 0.891007 -0.45399 0
    outer loop
      vertex 15.5019 -8.95 7
      vertex 16.3525 -7.28059 0
      vertex 16.3525 -7.28059 7
    endloop
  endfacet
  facet normal 0.891007 -0.45399 0
    outer loop
      vertex 16.3525 -7.28059 0
      vertex 15.5019 -8.95 7
      vertex 15.5019 -8.95 0
    endloop
  endfacet
  facet normal -0.965926 -0.25882 0
    outer loop
      vertex -17.0239 -5.5314 0
      vertex -17.5088 -3.72162 7
      vertex -17.5088 -3.72162 0
    endloop
  endfacet
  facet normal -0.965926 -0.25882 0
    outer loop
      vertex -17.5088 -3.72162 7
      vertex -17.0239 -5.5314 0
      vertex -17.0239 -5.5314 7
    endloop
  endfacet
  facet normal -0.987688 -0.156434 0
    outer loop
      vertex -17.5088 -3.72162 0
      vertex -17.8019 -1.87106 7
      vertex -17.8019 -1.87106 0
    endloop
  endfacet
  facet normal -0.987688 -0.156434 0
    outer loop
      vertex -17.8019 -1.87106 7
      vertex -17.5088 -3.72162 0
      vertex -17.5088 -3.72162 7
    endloop
  endfacet
  facet normal 0.156434 -0.987688 0
    outer loop
      vertex 1.87106 -17.8019 0
      vertex 3.72162 -17.5088 7
      vertex 1.87106 -17.8019 7
    endloop
  endfacet
  facet normal 0.156434 -0.987688 0
    outer loop
      vertex 3.72162 -17.5088 7
      vertex 1.87106 -17.8019 0
      vertex 3.72162 -17.5088 0
    endloop
  endfacet
  facet normal 0.358368 -0.93358 0
    outer loop
      vertex 5.5314 -17.0239 0
      vertex 7.28059 -16.3525 7
      vertex 5.5314 -17.0239 7
    endloop
  endfacet
  facet normal 0.358368 -0.93358 0
    outer loop
      vertex 7.28059 -16.3525 7
      vertex 5.5314 -17.0239 0
      vertex 7.28059 -16.3525 0
    endloop
  endfacet
  facet normal 0.62932 -0.777146 0
    outer loop
      vertex 10.5214 -14.4814 0
      vertex 11.9774 -13.3023 7
      vertex 10.5214 -14.4814 7
    endloop
  endfacet
  facet normal 0.62932 -0.777146 0
    outer loop
      vertex 11.9774 -13.3023 7
      vertex 10.5214 -14.4814 0
      vertex 11.9774 -13.3023 0
    endloop
  endfacet
  facet normal 0.93358 -0.358368 0
    outer loop
      vertex 16.3525 -7.28059 7
      vertex 17.0239 -5.5314 0
      vertex 17.0239 -5.5314 7
    endloop
  endfacet
  facet normal 0.93358 -0.358368 0
    outer loop
      vertex 17.0239 -5.5314 0
      vertex 16.3525 -7.28059 7
      vertex 16.3525 -7.28059 0
    endloop
  endfacet
  facet normal -0.0523363 -0.99863 0
    outer loop
      vertex -1.87106 -17.8019 0
      vertex 0 -17.9 7
      vertex -1.87106 -17.8019 7
    endloop
  endfacet
  facet normal -0.0523363 -0.99863 -0
    outer loop
      vertex 0 -17.9 7
      vertex -1.87106 -17.8019 0
      vertex 0 -17.9 0
    endloop
  endfacet
  facet normal -0.838671 -0.544639 0
    outer loop
      vertex -14.4814 -10.5214 0
      vertex -15.5019 -8.95 7
      vertex -15.5019 -8.95 0
    endloop
  endfacet
  facet normal -0.838671 -0.544639 0
    outer loop
      vertex -15.5019 -8.95 7
      vertex -14.4814 -10.5214 0
      vertex -14.4814 -10.5214 7
    endloop
  endfacet
  facet normal -0.707107 -0.707107 0
    outer loop
      vertex -11.9774 -13.3023 0
      vertex -13.3023 -11.9774 7
      vertex -13.3023 -11.9774 0
    endloop
  endfacet
  facet normal -0.707107 -0.707107 0
    outer loop
      vertex -13.3023 -11.9774 7
      vertex -11.9774 -13.3023 0
      vertex -11.9774 -13.3023 7
    endloop
  endfacet
  facet normal -0.93358 -0.358368 0
    outer loop
      vertex -16.3525 -7.28059 0
      vertex -17.0239 -5.5314 7
      vertex -17.0239 -5.5314 0
    endloop
  endfacet
  facet normal -0.93358 -0.358368 0
    outer loop
      vertex -17.0239 -5.5314 7
      vertex -16.3525 -7.28059 0
      vertex -16.3525 -7.28059 7
    endloop
  endfacet
  facet normal 0 0 -1
    outer loop
      vertex 17 0 0
      vertex 17.9 0 0
      vertex 17.8019 -1.87106 0
    endloop
  endfacet
  facet normal 0 0 -1
    outer loop
      vertex 16.9069 -1.77698 0
      vertex 17.8019 -1.87106 0
      vertex 17.5088 -3.72162 0
    endloop
  endfacet
  facet normal 0 0 -1
    outer loop
      vertex 17.9 0 0
      vertex 17 0 0
      vertex 17.8019 1.87106 0
    endloop
  endfacet
  facet normal 0 0 -1
    outer loop
      vertex 16.6285 -3.5345 0
      vertex 17.5088 -3.72162 0
      vertex 17.0239 -5.5314 0
    endloop
  endfacet
  facet normal 0 0 -1
    outer loop
      vertex 16.9069 1.77698 0
      vertex 17.8019 1.87106 0
      vertex 17 0 0
    endloop
  endfacet
  facet normal -0 0 -1
    outer loop
      vertex 17.8019 1.87106 0
      vertex 16.9069 1.77698 0
      vertex 17.5088 3.72162 0
    endloop
  endfacet
  facet normal 0 0 -1
    outer loop
      vertex 17.8019 -1.87106 0
      vertex 16.9069 -1.77698 0
      vertex 17 0 0
    endloop
  endfacet
  facet normal 0 0 -1
    outer loop
      vertex 17.5088 -3.72162 0
      vertex 16.6285 -3.5345 0
      vertex 16.9069 -1.77698 0
    endloop
  endfacet
  facet normal 0 0 -1
    outer loop
      vertex 16.168 -5.25329 0
      vertex 17.0239 -5.5314 0
      vertex 16.3525 -7.28059 0
    endloop
  endfacet
  facet normal 0 0 -1
    outer loop
      vertex 17.0239 -5.5314 0
      vertex 16.168 -5.25329 0
      vertex 16.6285 -3.5345 0
    endloop
  endfacet
  facet normal 0 0 -1
    outer loop
      vertex 16.3525 -7.28059 0
      vertex 15.5303 -6.91452 0
      vertex 16.168 -5.25329 0
    endloop
  endfacet
  facet normal 0 0 -1
    outer loop
      vertex 15.5019 -8.95 0
      vertex 15.5303 -6.91452 0
      vertex 16.3525 -7.28059 0
    endloop
  endfacet
  facet normal 0 0 -1
    outer loop
      vertex 15.5019 -8.95 0
      vertex 14.7224 -8.5 0
      vertex 15.5303 -6.91452 0
    endloop
  endfacet
  facet normal 0 0 -1
    outer loop
      vertex 14.4814 -10.5214 0
      vertex 14.7224 -8.5 0
      vertex 15.5019 -8.95 0
    endloop
  endfacet
  facet normal 0 0 -1
    outer loop
      vertex 14.4814 -10.5214 0
      vertex 13.7533 -9.99235 0
      vertex 14.7224 -8.5 0
    endloop
  endfacet
  facet normal 0 0 -1
    outer loop
      vertex 13.3023 -11.9774 0
      vertex 13.7533 -9.99235 0
      vertex 14.4814 -10.5214 0
    endloop
  endfacet
  facet normal 0 0 -1
    outer loop
      vertex 13.3023 -11.9774 0
      vertex 12.6335 -11.3752 0
      vertex 13.7533 -9.99235 0
    endloop
  endfacet
  facet normal 0 0 -1
    outer loop
      vertex 11.9774 -13.3023 0
      vertex 12.6335 -11.3752 0
      vertex 13.3023 -11.9774 0
    endloop
  endfacet
  facet normal 0 0 -1
    outer loop
      vertex 11.9774 -13.3023 0
      vertex 11.3752 -12.6335 0
      vertex 12.6335 -11.3752 0
    endloop
  endfacet
  facet normal 0 0 -1
    outer loop
      vertex 10.5214 -14.4814 0
      vertex 11.3752 -12.6335 0
      vertex 11.9774 -13.3023 0
    endloop
  endfacet
  facet normal 0 0 -1
    outer loop
      vertex 10.5214 -14.4814 0
      vertex 9.99235 -13.7533 0
      vertex 11.3752 -12.6335 0
    endloop
  endfacet
  facet normal 0 0 -1
    outer loop
      vertex 8.95 -15.5019 0
      vertex 9.99235 -13.7533 0
      vertex 10.5214 -14.4814 0
    endloop
  endfacet
  facet normal 0 0 -1
    outer loop
      vertex 8.95 -15.5019 0
      vertex 8.5 -14.7224 0
      vertex 9.99235 -13.7533 0
    endloop
  endfacet
  facet normal 0 0 -1
    outer loop
      vertex 7.28059 -16.3525 0
      vertex 8.5 -14.7224 0
      vertex 8.95 -15.5019 0
    endloop
  endfacet
  facet normal 0 0 -1
    outer loop
      vertex 7.28059 -16.3525 0
      vertex 6.91452 -15.5303 0
      vertex 8.5 -14.7224 0
    endloop
  endfacet
  facet normal 0 0 -1
    outer loop
      vertex 5.5314 -17.0239 0
      vertex 6.91452 -15.5303 0
      vertex 7.28059 -16.3525 0
    endloop
  endfacet
  facet normal 0 0 -1
    outer loop
      vertex 5.5314 -17.0239 0
      vertex 5.25329 -16.168 0
      vertex 6.91452 -15.5303 0
    endloop
  endfacet
  facet normal 0 0 -1
    outer loop
      vertex 3.72162 -17.5088 0
      vertex 5.25329 -16.168 0
      vertex 5.5314 -17.0239 0
    endloop
  endfacet
  facet normal 0 0 -1
    outer loop
      vertex 3.72162 -17.5088 0
      vertex 3.5345 -16.6285 0
      vertex 5.25329 -16.168 0
    endloop
  endfacet
  facet normal 0 0 -1
    outer loop
      vertex 1.87106 -17.8019 0
      vertex 3.5345 -16.6285 0
      vertex 3.72162 -17.5088 0
    endloop
  endfacet
  facet normal 0 0 -1
    outer loop
      vertex 1.87106 -17.8019 0
      vertex 1.77698 -16.9069 0
      vertex 3.5345 -16.6285 0
    endloop
  endfacet
  facet normal 0 0 -1
    outer loop
      vertex 0 -17.9 0
      vertex 1.77698 -16.9069 0
      vertex 1.87106 -17.8019 0
    endloop
  endfacet
  facet normal 0 0 -1
    outer loop
      vertex 0 -17.9 0
      vertex 0 -17 0
      vertex 1.77698 -16.9069 0
    endloop
  endfacet
  facet normal 0 0 -1
    outer loop
      vertex 0 -17.9 0
      vertex -1.77698 -16.9069 0
      vertex 0 -17 0
    endloop
  endfacet
  facet normal 0 0 -1
    outer loop
      vertex -1.87106 -17.8019 0
      vertex -1.77698 -16.9069 0
      vertex 0 -17.9 0
    endloop
  endfacet
  facet normal 0 0 -1
    outer loop
      vertex -1.87106 -17.8019 0
      vertex -3.5345 -16.6285 0
      vertex -1.77698 -16.9069 0
    endloop
  endfacet
  facet normal 0 0 -1
    outer loop
      vertex -3.72162 -17.5088 0
      vertex -3.5345 -16.6285 0
      vertex -1.87106 -17.8019 0
    endloop
  endfacet
  facet normal 0 0 -1
    outer loop
      vertex -3.72162 -17.5088 0
      vertex -5.25329 -16.168 0
      vertex -3.5345 -16.6285 0
    endloop
  endfacet
  facet normal 0 0 -1
    outer loop
      vertex -5.5314 -17.0239 0
      vertex -5.25329 -16.168 0
      vertex -3.72162 -17.5088 0
    endloop
  endfacet
  facet normal 0 0 -1
    outer loop
      vertex -5.5314 -17.0239 0
      vertex -6.91452 -15.5303 0
      vertex -5.25329 -16.168 0
    endloop
  endfacet
  facet normal 0 0 -1
    outer loop
      vertex -7.28059 -16.3525 0
      vertex -6.91452 -15.5303 0
      vertex -5.5314 -17.0239 0
    endloop
  endfacet
  facet normal 0 0 -1
    outer loop
      vertex -7.28059 -16.3525 0
      vertex -8.5 -14.7224 0
      vertex -6.91452 -15.5303 0
    endloop
  endfacet
  facet normal 0 0 -1
    outer loop
      vertex -8.95 -15.5019 0
      vertex -8.5 -14.7224 0
      vertex -7.28059 -16.3525 0
    endloop
  endfacet
  facet normal 0 0 -1
    outer loop
      vertex -8.95 -15.5019 0
      vertex -9.99235 -13.7533 0
      vertex -8.5 -14.7224 0
    endloop
  endfacet
  facet normal 0 0 -1
    outer loop
      vertex -10.5214 -14.4814 0
      vertex -9.99235 -13.7533 0
      vertex -8.95 -15.5019 0
    endloop
  endfacet
  facet normal 0 0 -1
    outer loop
      vertex -10.5214 -14.4814 0
      vertex -11.3752 -12.6335 0
      vertex -9.99235 -13.7533 0
    endloop
  endfacet
  facet normal 0 0 -1
    outer loop
      vertex -11.9774 -13.3023 0
      vertex -11.3752 -12.6335 0
      vertex -10.5214 -14.4814 0
    endloop
  endfacet
  facet normal 0 0 -1
    outer loop
      vertex -11.9774 -13.3023 0
      vertex -12.6335 -11.3752 0
      vertex -11.3752 -12.6335 0
    endloop
  endfacet
  facet normal 0 0 -1
    outer loop
      vertex -13.3023 -11.9774 0
      vertex -12.6335 -11.3752 0
      vertex -11.9774 -13.3023 0
    endloop
  endfacet
  facet normal 0 0 -1
    outer loop
      vertex -13.3023 -11.9774 0
      vertex -13.7533 -9.99235 0
      vertex -12.6335 -11.3752 0
    endloop
  endfacet
  facet normal 0 0 -1
    outer loop
      vertex -14.4814 -10.5214 0
      vertex -13.7533 -9.99235 0
      vertex -13.3023 -11.9774 0
    endloop
  endfacet
  facet normal 0 0 -1
    outer loop
      vertex -14.4814 -10.5214 0
      vertex -14.7224 -8.5 0
      vertex -13.7533 -9.99235 0
    endloop
  endfacet
  facet normal 0 0 -1
    outer loop
      vertex -15.5019 -8.95 0
      vertex -14.7224 -8.5 0
      vertex -14.4814 -10.5214 0
    endloop
  endfacet
  facet normal 0 0 -1
    outer loop
      vertex -15.5019 -8.95 0
      vertex -15.5303 -6.91452 0
      vertex -14.7224 -8.5 0
    endloop
  endfacet
  facet normal 0 0 -1
    outer loop
      vertex -16.3525 -7.28059 0
      vertex -15.5303 -6.91452 0
      vertex -15.5019 -8.95 0
    endloop
  endfacet
  facet normal -0 0 -1
    outer loop
      vertex -15.5303 -6.91452 0
      vertex -16.3525 -7.28059 0
      vertex -16.168 -5.25329 0
    endloop
  endfacet
  facet normal 0 0 -1
    outer loop
      vertex -17.0239 -5.5314 0
      vertex -16.168 -5.25329 0
      vertex -16.3525 -7.28059 0
    endloop
  endfacet
  facet normal -0 0 -1
    outer loop
      vertex -16.168 -5.25329 0
      vertex -17.0239 -5.5314 0
      vertex -16.6285 -3.5345 0
    endloop
  endfacet
  facet normal -0 0 -1
    outer loop
      vertex -16.6285 -3.5345 0
      vertex -17.5088 -3.72162 0
      vertex -16.9069 -1.77698 0
    endloop
  endfacet
  facet normal 0 0 -1
    outer loop
      vertex -17.5088 -3.72162 0
      vertex -16.6285 -3.5345 0
      vertex -17.0239 -5.5314 0
    endloop
  endfacet
  facet normal 0 0 -1
    outer loop
      vertex 16.6285 3.5345 0
      vertex 17.5088 3.72162 0
      vertex 16.9069 1.77698 0
    endloop
  endfacet
  facet normal -0 0 -1
    outer loop
      vertex 17.5088 3.72162 0
      vertex 16.6285 3.5345 0
      vertex 17.0239 5.5314 0
    endloop
  endfacet
  facet normal 0 0 -1
    outer loop
      vertex 16.168 5.25329 0
      vertex 17.0239 5.5314 0
      vertex 16.6285 3.5345 0
    endloop
  endfacet
  facet normal -0 0 -1
    outer loop
      vertex 17.0239 5.5314 0
      vertex 16.168 5.25329 0
      vertex 16.3525 7.28059 0
    endloop
  endfacet
  facet normal 0 0 -1
    outer loop
      vertex 15.5303 6.91452 0
      vertex 16.3525 7.28059 0
      vertex 16.168 5.25329 0
    endloop
  endfacet
  facet normal 0 0 -1
    outer loop
      vertex 15.5303 6.91452 0
      vertex 15.5019 8.95 0
      vertex 16.3525 7.28059 0
    endloop
  endfacet
  facet normal 0 0 -1
    outer loop
      vertex 14.7224 8.5 0
      vertex 15.5019 8.95 0
      vertex 15.5303 6.91452 0
    endloop
  endfacet
  facet normal 0 0 -1
    outer loop
      vertex 14.7224 8.5 0
      vertex 14.4814 10.5214 0
      vertex 15.5019 8.95 0
    endloop
  endfacet
  facet normal 0 0 -1
    outer loop
      vertex 13.7533 9.99235 0
      vertex 14.4814 10.5214 0
      vertex 14.7224 8.5 0
    endloop
  endfacet
  facet normal 0 0 -1
    outer loop
      vertex 13.7533 9.99235 0
      vertex 13.3023 11.9774 0
      vertex 14.4814 10.5214 0
    endloop
  endfacet
  facet normal 0 0 -1
    outer loop
      vertex 12.6335 11.3752 0
      vertex 13.3023 11.9774 0
      vertex 13.7533 9.99235 0
    endloop
  endfacet
  facet normal 0 0 -1
    outer loop
      vertex 12.6335 11.3752 0
      vertex 11.9774 13.3023 0
      vertex 13.3023 11.9774 0
    endloop
  endfacet
  facet normal 0 0 -1
    outer loop
      vertex 11.3752 12.6335 0
      vertex 11.9774 13.3023 0
      vertex 12.6335 11.3752 0
    endloop
  endfacet
  facet normal 0 0 -1
    outer loop
      vertex 11.3752 12.6335 0
      vertex 10.5214 14.4814 0
      vertex 11.9774 13.3023 0
    endloop
  endfacet
  facet normal 0 0 -1
    outer loop
      vertex 9.99235 13.7533 0
      vertex 10.5214 14.4814 0
      vertex 11.3752 12.6335 0
    endloop
  endfacet
  facet normal 0 0 -1
    outer loop
      vertex 9.99235 13.7533 0
      vertex 8.95 15.5019 0
      vertex 10.5214 14.4814 0
    endloop
  endfacet
  facet normal 0 0 -1
    outer loop
      vertex 8.5 14.7224 0
      vertex 8.95 15.5019 0
      vertex 9.99235 13.7533 0
    endloop
  endfacet
  facet normal 0 0 -1
    outer loop
      vertex 8.5 14.7224 0
      vertex 7.28059 16.3525 0
      vertex 8.95 15.5019 0
    endloop
  endfacet
  facet normal 0 0 -1
    outer loop
      vertex 6.91452 15.5303 0
      vertex 7.28059 16.3525 0
      vertex 8.5 14.7224 0
    endloop
  endfacet
  facet normal 0 0 -1
    outer loop
      vertex 6.91452 15.5303 0
      vertex 5.5314 17.0239 0
      vertex 7.28059 16.3525 0
    endloop
  endfacet
  facet normal 0 0 -1
    outer loop
      vertex 5.25329 16.168 0
      vertex 5.5314 17.0239 0
      vertex 6.91452 15.5303 0
    endloop
  endfacet
  facet normal 0 0 -1
    outer loop
      vertex 5.25329 16.168 0
      vertex 3.72162 17.5088 0
      vertex 5.5314 17.0239 0
    endloop
  endfacet
  facet normal 0 0 -1
    outer loop
      vertex 3.5345 16.6285 0
      vertex 3.72162 17.5088 0
      vertex 5.25329 16.168 0
    endloop
  endfacet
  facet normal 0 0 -1
    outer loop
      vertex 3.5345 16.6285 0
      vertex 1.87106 17.8019 0
      vertex 3.72162 17.5088 0
    endloop
  endfacet
  facet normal 0 0 -1
    outer loop
      vertex 1.77698 16.9069 0
      vertex 1.87106 17.8019 0
      vertex 3.5345 16.6285 0
    endloop
  endfacet
  facet normal 0 0 -1
    outer loop
      vertex 0 17 0
      vertex 1.87106 17.8019 0
      vertex 1.77698 16.9069 0
    endloop
  endfacet
  facet normal 0 0 -1
    outer loop
      vertex 0 17 0
      vertex 0 17.9 0
      vertex 1.87106 17.8019 0
    endloop
  endfacet
  facet normal 0 0 -1
    outer loop
      vertex -1.77698 16.9069 0
      vertex 0 17.9 0
      vertex 0 17 0
    endloop
  endfacet
  facet normal 0 0 -1
    outer loop
      vertex -1.77698 16.9069 0
      vertex -1.87106 17.8019 0
      vertex 0 17.9 0
    endloop
  endfacet
  facet normal 0 0 -1
    outer loop
      vertex -3.5345 16.6285 0
      vertex -1.87106 17.8019 0
      vertex -1.77698 16.9069 0
    endloop
  endfacet
  facet normal 0 0 -1
    outer loop
      vertex -3.5345 16.6285 0
      vertex -3.72162 17.5088 0
      vertex -1.87106 17.8019 0
    endloop
  endfacet
  facet normal 0 0 -1
    outer loop
      vertex -5.25329 16.168 0
      vertex -3.72162 17.5088 0
      vertex -3.5345 16.6285 0
    endloop
  endfacet
  facet normal 0 0 -1
    outer loop
      vertex -5.25329 16.168 0
      vertex -5.5314 17.0239 0
      vertex -3.72162 17.5088 0
    endloop
  endfacet
  facet normal 0 0 -1
    outer loop
      vertex -6.91452 15.5303 0
      vertex -5.5314 17.0239 0
      vertex -5.25329 16.168 0
    endloop
  endfacet
  facet normal 0 0 -1
    outer loop
      vertex -6.91452 15.5303 0
      vertex -7.28059 16.3525 0
      vertex -5.5314 17.0239 0
    endloop
  endfacet
  facet normal 0 0 -1
    outer loop
      vertex -8.5 14.7224 0
      vertex -7.28059 16.3525 0
      vertex -6.91452 15.5303 0
    endloop
  endfacet
  facet normal 0 0 -1
    outer loop
      vertex -8.5 14.7224 0
      vertex -8.95 15.5019 0
      vertex -7.28059 16.3525 0
    endloop
  endfacet
  facet normal 0 0 -1
    outer loop
      vertex -9.99235 13.7533 0
      vertex -8.95 15.5019 0
      vertex -8.5 14.7224 0
    endloop
  endfacet
  facet normal 0 0 -1
    outer loop
      vertex -9.99235 13.7533 0
      vertex -10.5214 14.4814 0
      vertex -8.95 15.5019 0
    endloop
  endfacet
  facet normal 0 0 -1
    outer loop
      vertex -11.3752 12.6335 0
      vertex -10.5214 14.4814 0
      vertex -9.99235 13.7533 0
    endloop
  endfacet
  facet normal 0 0 -1
    outer loop
      vertex -11.3752 12.6335 0
      vertex -11.9774 13.3023 0
      vertex -10.5214 14.4814 0
    endloop
  endfacet
  facet normal 0 0 -1
    outer loop
      vertex -12.6335 11.3752 0
      vertex -11.9774 13.3023 0
      vertex -11.3752 12.6335 0
    endloop
  endfacet
  facet normal 0 0 -1
    outer loop
      vertex -12.6335 11.3752 0
      vertex -13.3023 11.9774 0
      vertex -11.9774 13.3023 0
    endloop
  endfacet
  facet normal 0 0 -1
    outer loop
      vertex -13.7533 9.99235 0
      vertex -13.3023 11.9774 0
      vertex -12.6335 11.3752 0
    endloop
  endfacet
  facet normal 0 0 -1
    outer loop
      vertex -13.7533 9.99235 0
      vertex -14.4814 10.5214 0
      vertex -13.3023 11.9774 0
    endloop
  endfacet
  facet normal 0 0 -1
    outer loop
      vertex -14.7224 8.5 0
      vertex -14.4814 10.5214 0
      vertex -13.7533 9.99235 0
    endloop
  endfacet
  facet normal 0 0 -1
    outer loop
      vertex -14.7224 8.5 0
      vertex -15.5019 8.95 0
      vertex -14.4814 10.5214 0
    endloop
  endfacet
  facet normal 0 0 -1
    outer loop
      vertex -15.5303 6.91452 0
      vertex -15.5019 8.95 0
      vertex -14.7224 8.5 0
    endloop
  endfacet
  facet normal 0 0 -1
    outer loop
      vertex -16.3525 7.28059 0
      vertex -15.5303 6.91452 0
      vertex -16.168 5.25329 0
    endloop
  endfacet
  facet normal 0 0 -1
    outer loop
      vertex -15.5303 6.91452 0
      vertex -16.3525 7.28059 0
      vertex -15.5019 8.95 0
    endloop
  endfacet
  facet normal 0 0 -1
    outer loop
      vertex -17.0239 5.5314 0
      vertex -16.168 5.25329 0
      vertex -16.6285 3.5345 0
    endloop
  endfacet
  facet normal 0 0 -1
    outer loop
      vertex -17.5088 3.72162 0
      vertex -16.6285 3.5345 0
      vertex -16.9069 1.77698 0
    endloop
  endfacet
  facet normal 0 0 -1
    outer loop
      vertex -16.168 5.25329 0
      vertex -17.0239 5.5314 0
      vertex -16.3525 7.28059 0
    endloop
  endfacet
  facet normal 0 0 -1
    outer loop
      vertex -17.8019 1.87106 0
      vertex -16.9069 1.77698 0
      vertex -17 0 0
    endloop
  endfacet
  facet normal 0 0 -1
    outer loop
      vertex -17.8019 -1.87106 0
      vertex -16.9069 -1.77698 0
      vertex -17.5088 -3.72162 0
    endloop
  endfacet
  facet normal -0 0 -1
    outer loop
      vertex -16.9069 -1.77698 0
      vertex -17.8019 -1.87106 0
      vertex -17 0 0
    endloop
  endfacet
  facet normal 0 0 -1
    outer loop
      vertex -16.6285 3.5345 0
      vertex -17.5088 3.72162 0
      vertex -17.0239 5.5314 0
    endloop
  endfacet
  facet normal 0 0 -1
    outer loop
      vertex -17.9 0 0
      vertex -17 0 0
      vertex -17.8019 -1.87106 0
    endloop
  endfacet
  facet normal 0 0 -1
    outer loop
      vertex -16.9069 1.77698 0
      vertex -17.8019 1.87106 0
      vertex -17.5088 3.72162 0
    endloop
  endfacet
  facet normal 0 0 -1
    outer loop
      vertex -17 0 0
      vertex -17.9 0 0
      vertex -17.8019 1.87106 0
    endloop
  endfacet
  facet normal 0.25882 -0.965926 0
    outer loop
      vertex 3.72162 -17.5088 0
      vertex 5.5314 -17.0239 7
      vertex 3.72162 -17.5088 7
    endloop
  endfacet
  facet normal 0.25882 -0.965926 0
    outer loop
      vertex 5.5314 -17.0239 7
      vertex 3.72162 -17.5088 0
      vertex 5.5314 -17.0239 0
    endloop
  endfacet
  facet normal -0.25882 -0.965926 0
    outer loop
      vertex -5.5314 -17.0239 0
      vertex -3.72162 -17.5088 7
      vertex -5.5314 -17.0239 7
    endloop
  endfacet
  facet normal -0.25882 -0.965926 -0
    outer loop
      vertex -3.72162 -17.5088 7
      vertex -5.5314 -17.0239 0
      vertex -3.72162 -17.5088 0
    endloop
  endfacet
  facet normal -0.156434 -0.987688 0
    outer loop
      vertex -3.72162 -17.5088 0
      vertex -1.87106 -17.8019 7
      vertex -3.72162 -17.5088 7
    endloop
  endfacet
  facet normal -0.156434 -0.987688 -0
    outer loop
      vertex -1.87106 -17.8019 7
      vertex -3.72162 -17.5088 0
      vertex -1.87106 -17.8019 0
    endloop
  endfacet
  facet normal -0.62932 -0.777146 0
    outer loop
      vertex -11.9774 -13.3023 0
      vertex -10.5214 -14.4814 7
      vertex -11.9774 -13.3023 7
    endloop
  endfacet
  facet normal -0.62932 -0.777146 -0
    outer loop
      vertex -10.5214 -14.4814 7
      vertex -11.9774 -13.3023 0
      vertex -10.5214 -14.4814 0
    endloop
  endfacet
  facet normal -0.891007 -0.45399 0
    outer loop
      vertex -15.5019 -8.95 0
      vertex -16.3525 -7.28059 7
      vertex -16.3525 -7.28059 0
    endloop
  endfacet
  facet normal -0.891007 -0.45399 0
    outer loop
      vertex -16.3525 -7.28059 7
      vertex -15.5019 -8.95 0
      vertex -15.5019 -8.95 7
    endloop
  endfacet
  facet normal -0.544639 -0.838671 0
    outer loop
      vertex -10.5214 -14.4814 0
      vertex -8.95 -15.5019 7
      vertex -10.5214 -14.4814 7
    endloop
  endfacet
  facet normal -0.544639 -0.838671 -0
    outer loop
      vertex -8.95 -15.5019 7
      vertex -10.5214 -14.4814 0
      vertex -8.95 -15.5019 0
    endloop
  endfacet
  facet normal -0.358368 -0.93358 0
    outer loop
      vertex -7.28059 -16.3525 0
      vertex -5.5314 -17.0239 7
      vertex -7.28059 -16.3525 7
    endloop
  endfacet
  facet normal -0.358368 -0.93358 -0
    outer loop
      vertex -5.5314 -17.0239 7
      vertex -7.28059 -16.3525 0
      vertex -5.5314 -17.0239 0
    endloop
  endfacet
  facet normal -0.45399 -0.891007 0
    outer loop
      vertex -8.95 -15.5019 0
      vertex -7.28059 -16.3525 7
      vertex -8.95 -15.5019 7
    endloop
  endfacet
  facet normal -0.45399 -0.891007 -0
    outer loop
      vertex -7.28059 -16.3525 7
      vertex -8.95 -15.5019 0
      vertex -7.28059 -16.3525 0
    endloop
  endfacet
  facet normal -0.99863 -0.0523362 0
    outer loop
      vertex 17 0 0
      vertex 16.9069 1.77698 7
      vertex 16.9069 1.77698 0
    endloop
  endfacet
  facet normal -0.99863 -0.0523362 0
    outer loop
      vertex 16.9069 1.77698 7
      vertex 17 0 0
      vertex 17 0 7
    endloop
  endfacet
  facet normal 0.99863 -0.0523362 0
    outer loop
      vertex -17 0 7
      vertex -16.9069 1.77698 0
      vertex -16.9069 1.77698 7
    endloop
  endfacet
  facet normal 0.99863 -0.0523362 0
    outer loop
      vertex -16.9069 1.77698 0
      vertex -17 0 7
      vertex -17 0 0
    endloop
  endfacet
  facet normal -0.0523362 -0.99863 0
    outer loop
      vertex 0 17 0
      vertex 1.77698 16.9069 7
      vertex 0 17 7
    endloop
  endfacet
  facet normal -0.0523362 -0.99863 -0
    outer loop
      vertex 1.77698 16.9069 7
      vertex 0 17 0
      vertex 1.77698 16.9069 0
    endloop
  endfacet
  facet normal 0.0523362 0.99863 -0
    outer loop
      vertex 0 -17 0
      vertex -1.77698 -16.9069 7
      vertex 0 -17 7
    endloop
  endfacet
  facet normal 0.0523362 0.99863 0
    outer loop
      vertex -1.77698 -16.9069 7
      vertex 0 -17 0
      vertex -1.77698 -16.9069 0
    endloop
  endfacet
  facet normal -0.707107 -0.707107 0
    outer loop
      vertex 12.6335 11.3752 0
      vertex 11.3752 12.6335 7
      vertex 11.3752 12.6335 0
    endloop
  endfacet
  facet normal -0.707107 -0.707107 0
    outer loop
      vertex 11.3752 12.6335 7
      vertex 12.6335 11.3752 0
      vertex 12.6335 11.3752 7
    endloop
  endfacet
  facet normal 0.62932 -0.777146 0
    outer loop
      vertex -11.3752 12.6335 0
      vertex -9.99235 13.7533 7
      vertex -11.3752 12.6335 7
    endloop
  endfacet
  facet normal 0.62932 -0.777146 0
    outer loop
      vertex -9.99235 13.7533 7
      vertex -11.3752 12.6335 0
      vertex -9.99235 13.7533 0
    endloop
  endfacet
  facet normal 0.358368 -0.93358 0
    outer loop
      vertex -6.91452 15.5303 0
      vertex -5.25329 16.168 7
      vertex -6.91452 15.5303 7
    endloop
  endfacet
  facet normal 0.358368 -0.93358 0
    outer loop
      vertex -5.25329 16.168 7
      vertex -6.91452 15.5303 0
      vertex -5.25329 16.168 0
    endloop
  endfacet
  facet normal -0.93358 -0.358368 0
    outer loop
      vertex 16.168 5.25329 0
      vertex 15.5303 6.91452 7
      vertex 15.5303 6.91452 0
    endloop
  endfacet
  facet normal -0.93358 -0.358368 0
    outer loop
      vertex 15.5303 6.91452 7
      vertex 16.168 5.25329 0
      vertex 16.168 5.25329 7
    endloop
  endfacet
  facet normal -0.987688 -0.156434 0
    outer loop
      vertex 16.9069 1.77698 0
      vertex 16.6285 3.5345 7
      vertex 16.6285 3.5345 0
    endloop
  endfacet
  facet normal -0.987688 -0.156434 0
    outer loop
      vertex 16.6285 3.5345 7
      vertex 16.9069 1.77698 0
      vertex 16.9069 1.77698 7
    endloop
  endfacet
  facet normal -0.45399 -0.891007 0
    outer loop
      vertex 6.91452 15.5303 0
      vertex 8.5 14.7224 7
      vertex 6.91452 15.5303 7
    endloop
  endfacet
  facet normal -0.45399 -0.891007 -0
    outer loop
      vertex 8.5 14.7224 7
      vertex 6.91452 15.5303 0
      vertex 8.5 14.7224 0
    endloop
  endfacet
  facet normal -0.544639 -0.83867 0
    outer loop
      vertex 8.5 14.7224 0
      vertex 9.99235 13.7533 7
      vertex 8.5 14.7224 7
    endloop
  endfacet
  facet normal -0.544639 -0.83867 -0
    outer loop
      vertex 9.99235 13.7533 7
      vertex 8.5 14.7224 0
      vertex 9.99235 13.7533 0
    endloop
  endfacet
  facet normal 0.891006 -0.453991 0
    outer loop
      vertex -15.5303 6.91452 7
      vertex -14.7224 8.5 0
      vertex -14.7224 8.5 7
    endloop
  endfacet
  facet normal 0.891006 -0.453991 0
    outer loop
      vertex -14.7224 8.5 0
      vertex -15.5303 6.91452 7
      vertex -15.5303 6.91452 0
    endloop
  endfacet
  facet normal 0.156434 -0.987688 0
    outer loop
      vertex -3.5345 16.6285 0
      vertex -1.77698 16.9069 7
      vertex -3.5345 16.6285 7
    endloop
  endfacet
  facet normal 0.156434 -0.987688 0
    outer loop
      vertex -1.77698 16.9069 7
      vertex -3.5345 16.6285 0
      vertex -1.77698 16.9069 0
    endloop
  endfacet
  facet normal -0.93358 0.358368 0
    outer loop
      vertex 15.5303 -6.91452 0
      vertex 16.168 -5.25329 7
      vertex 16.168 -5.25329 0
    endloop
  endfacet
  facet normal -0.93358 0.358368 0
    outer loop
      vertex 16.168 -5.25329 7
      vertex 15.5303 -6.91452 0
      vertex 15.5303 -6.91452 7
    endloop
  endfacet
  facet normal -0.965926 -0.258819 0
    outer loop
      vertex 16.6285 3.5345 0
      vertex 16.168 5.25329 7
      vertex 16.168 5.25329 0
    endloop
  endfacet
  facet normal -0.965926 -0.258819 0
    outer loop
      vertex 16.168 5.25329 7
      vertex 16.6285 3.5345 0
      vertex 16.6285 3.5345 7
    endloop
  endfacet
  facet normal -0.838671 -0.544639 0
    outer loop
      vertex 14.7224 8.5 0
      vertex 13.7533 9.99235 7
      vertex 13.7533 9.99235 0
    endloop
  endfacet
  facet normal -0.838671 -0.544639 0
    outer loop
      vertex 13.7533 9.99235 7
      vertex 14.7224 8.5 0
      vertex 14.7224 8.5 7
    endloop
  endfacet
  facet normal -0.777146 -0.62932 0
    outer loop
      vertex 13.7533 9.99235 0
      vertex 12.6335 11.3752 7
      vertex 12.6335 11.3752 0
    endloop
  endfacet
  facet normal -0.777146 -0.62932 0
    outer loop
      vertex 12.6335 11.3752 7
      vertex 13.7533 9.99235 0
      vertex 13.7533 9.99235 7
    endloop
  endfacet
  facet normal -0.891006 -0.453991 0
    outer loop
      vertex 15.5303 6.91452 0
      vertex 14.7224 8.5 7
      vertex 14.7224 8.5 0
    endloop
  endfacet
  facet normal -0.891006 -0.453991 0
    outer loop
      vertex 14.7224 8.5 7
      vertex 15.5303 6.91452 0
      vertex 15.5303 6.91452 7
    endloop
  endfacet
  facet normal -0.258819 -0.965926 0
    outer loop
      vertex 3.5345 16.6285 0
      vertex 5.25329 16.168 7
      vertex 3.5345 16.6285 7
    endloop
  endfacet
  facet normal -0.258819 -0.965926 -0
    outer loop
      vertex 5.25329 16.168 7
      vertex 3.5345 16.6285 0
      vertex 5.25329 16.168 0
    endloop
  endfacet
  facet normal -0.358368 -0.93358 0
    outer loop
      vertex 5.25329 16.168 0
      vertex 6.91452 15.5303 7
      vertex 5.25329 16.168 7
    endloop
  endfacet
  facet normal -0.358368 -0.93358 -0
    outer loop
      vertex 6.91452 15.5303 7
      vertex 5.25329 16.168 0
      vertex 6.91452 15.5303 0
    endloop
  endfacet
  facet normal -0.156434 -0.987688 0
    outer loop
      vertex 1.77698 16.9069 0
      vertex 3.5345 16.6285 7
      vertex 1.77698 16.9069 7
    endloop
  endfacet
  facet normal -0.156434 -0.987688 -0
    outer loop
      vertex 3.5345 16.6285 7
      vertex 1.77698 16.9069 0
      vertex 3.5345 16.6285 0
    endloop
  endfacet
  facet normal -0.62932 -0.777146 0
    outer loop
      vertex 9.99235 13.7533 0
      vertex 11.3752 12.6335 7
      vertex 9.99235 13.7533 7
    endloop
  endfacet
  facet normal -0.62932 -0.777146 -0
    outer loop
      vertex 11.3752 12.6335 7
      vertex 9.99235 13.7533 0
      vertex 11.3752 12.6335 0
    endloop
  endfacet
  facet normal 0.965926 -0.258819 0
    outer loop
      vertex -16.6285 3.5345 7
      vertex -16.168 5.25329 0
      vertex -16.168 5.25329 7
    endloop
  endfacet
  facet normal 0.965926 -0.258819 0
    outer loop
      vertex -16.168 5.25329 0
      vertex -16.6285 3.5345 7
      vertex -16.6285 3.5345 0
    endloop
  endfacet
  facet normal 0.777146 -0.62932 0
    outer loop
      vertex -13.7533 9.99235 7
      vertex -12.6335 11.3752 0
      vertex -12.6335 11.3752 7
    endloop
  endfacet
  facet normal 0.777146 -0.62932 0
    outer loop
      vertex -12.6335 11.3752 0
      vertex -13.7533 9.99235 7
      vertex -13.7533 9.99235 0
    endloop
  endfacet
  facet normal 0.707107 -0.707107 0
    outer loop
      vertex -12.6335 11.3752 7
      vertex -11.3752 12.6335 0
      vertex -11.3752 12.6335 7
    endloop
  endfacet
  facet normal 0.707107 -0.707107 0
    outer loop
      vertex -11.3752 12.6335 0
      vertex -12.6335 11.3752 7
      vertex -12.6335 11.3752 0
    endloop
  endfacet
  facet normal 0.838671 -0.544639 0
    outer loop
      vertex -14.7224 8.5 7
      vertex -13.7533 9.99235 0
      vertex -13.7533 9.99235 7
    endloop
  endfacet
  facet normal 0.838671 -0.544639 0
    outer loop
      vertex -13.7533 9.99235 0
      vertex -14.7224 8.5 7
      vertex -14.7224 8.5 0
    endloop
  endfacet
  facet normal 0.93358 -0.358368 0
    outer loop
      vertex -16.168 5.25329 7
      vertex -15.5303 6.91452 0
      vertex -15.5303 6.91452 7
    endloop
  endfacet
  facet normal 0.93358 -0.358368 0
    outer loop
      vertex -15.5303 6.91452 0
      vertex -16.168 5.25329 7
      vertex -16.168 5.25329 0
    endloop
  endfacet
  facet normal 0.987688 -0.156434 0
    outer loop
      vertex -16.9069 1.77698 7
      vertex -16.6285 3.5345 0
      vertex -16.6285 3.5345 7
    endloop
  endfacet
  facet normal 0.987688 -0.156434 0
    outer loop
      vertex -16.6285 3.5345 0
      vertex -16.9069 1.77698 7
      vertex -16.9069 1.77698 0
    endloop
  endfacet
  facet normal 0.453991 -0.891006 0
    outer loop
      vertex -8.5 14.7224 0
      vertex -6.91452 15.5303 7
      vertex -8.5 14.7224 7
    endloop
  endfacet
  facet normal 0.453991 -0.891006 0
    outer loop
      vertex -6.91452 15.5303 7
      vertex -8.5 14.7224 0
      vertex -6.91452 15.5303 0
    endloop
  endfacet
  facet normal 0.544639 -0.838671 0
    outer loop
      vertex -9.99235 13.7533 0
      vertex -8.5 14.7224 7
      vertex -9.99235 13.7533 7
    endloop
  endfacet
  facet normal 0.544639 -0.838671 0
    outer loop
      vertex -8.5 14.7224 7
      vertex -9.99235 13.7533 0
      vertex -8.5 14.7224 0
    endloop
  endfacet
  facet normal 0.258819 -0.965926 0
    outer loop
      vertex -5.25329 16.168 0
      vertex -3.5345 16.6285 7
      vertex -5.25329 16.168 7
    endloop
  endfacet
  facet normal 0.258819 -0.965926 0
    outer loop
      vertex -3.5345 16.6285 7
      vertex -5.25329 16.168 0
      vertex -3.5345 16.6285 0
    endloop
  endfacet
  facet normal 0.0523362 -0.99863 0
    outer loop
      vertex -1.77698 16.9069 0
      vertex 0 17 7
      vertex -1.77698 16.9069 7
    endloop
  endfacet
  facet normal 0.0523362 -0.99863 0
    outer loop
      vertex 0 17 7
      vertex -1.77698 16.9069 0
      vertex 0 17 0
    endloop
  endfacet
  facet normal -0.99863 0.0523362 0
    outer loop
      vertex 16.9069 -1.77698 0
      vertex 17 0 7
      vertex 17 0 0
    endloop
  endfacet
  facet normal -0.99863 0.0523362 0
    outer loop
      vertex 17 0 7
      vertex 16.9069 -1.77698 0
      vertex 16.9069 -1.77698 7
    endloop
  endfacet
  facet normal -0.0523362 0.99863 0
    outer loop
      vertex 1.77698 -16.9069 0
      vertex 0 -17 7
      vertex 1.77698 -16.9069 7
    endloop
  endfacet
  facet normal -0.0523362 0.99863 0
    outer loop
      vertex 0 -17 7
      vertex 1.77698 -16.9069 0
      vertex 0 -17 0
    endloop
  endfacet
  facet normal -0.258819 0.965926 0
    outer loop
      vertex 5.25329 -16.168 0
      vertex 3.5345 -16.6285 7
      vertex 5.25329 -16.168 7
    endloop
  endfacet
  facet normal -0.258819 0.965926 0
    outer loop
      vertex 3.5345 -16.6285 7
      vertex 5.25329 -16.168 0
      vertex 3.5345 -16.6285 0
    endloop
  endfacet
  facet normal -0.62932 0.777146 0
    outer loop
      vertex 11.3752 -12.6335 0
      vertex 9.99235 -13.7533 7
      vertex 11.3752 -12.6335 7
    endloop
  endfacet
  facet normal -0.62932 0.777146 0
    outer loop
      vertex 9.99235 -13.7533 7
      vertex 11.3752 -12.6335 0
      vertex 9.99235 -13.7533 0
    endloop
  endfacet
  facet normal -0.45399 0.891007 0
    outer loop
      vertex 8.5 -14.7224 0
      vertex 6.91452 -15.5303 7
      vertex 8.5 -14.7224 7
    endloop
  endfacet
  facet normal -0.45399 0.891007 0
    outer loop
      vertex 6.91452 -15.5303 7
      vertex 8.5 -14.7224 0
      vertex 6.91452 -15.5303 0
    endloop
  endfacet
  facet normal -0.777146 0.62932 0
    outer loop
      vertex 12.6335 -11.3752 0
      vertex 13.7533 -9.99235 7
      vertex 13.7533 -9.99235 0
    endloop
  endfacet
  facet normal -0.777146 0.62932 0
    outer loop
      vertex 13.7533 -9.99235 7
      vertex 12.6335 -11.3752 0
      vertex 12.6335 -11.3752 7
    endloop
  endfacet
  facet normal -0.891006 0.453991 0
    outer loop
      vertex 14.7224 -8.5 0
      vertex 15.5303 -6.91452 7
      vertex 15.5303 -6.91452 0
    endloop
  endfacet
  facet normal -0.891006 0.453991 0
    outer loop
      vertex 15.5303 -6.91452 7
      vertex 14.7224 -8.5 0
      vertex 14.7224 -8.5 7
    endloop
  endfacet
  facet normal 0.707107 0.707107 0
    outer loop
      vertex -11.3752 -12.6335 7
      vertex -12.6335 -11.3752 0
      vertex -12.6335 -11.3752 7
    endloop
  endfacet
  facet normal 0.707107 0.707107 0
    outer loop
      vertex -12.6335 -11.3752 0
      vertex -11.3752 -12.6335 7
      vertex -11.3752 -12.6335 0
    endloop
  endfacet
  facet normal 0.544639 0.83867 -0
    outer loop
      vertex -8.5 -14.7224 0
      vertex -9.99235 -13.7533 7
      vertex -8.5 -14.7224 7
    endloop
  endfacet
  facet normal 0.544639 0.83867 0
    outer loop
      vertex -9.99235 -13.7533 7
      vertex -8.5 -14.7224 0
      vertex -9.99235 -13.7533 0
    endloop
  endfacet
  facet normal 0.358368 0.93358 -0
    outer loop
      vertex -5.25329 -16.168 0
      vertex -6.91452 -15.5303 7
      vertex -5.25329 -16.168 7
    endloop
  endfacet
  facet normal 0.358368 0.93358 0
    outer loop
      vertex -6.91452 -15.5303 7
      vertex -5.25329 -16.168 0
      vertex -6.91452 -15.5303 0
    endloop
  endfacet
  facet normal 0.156434 0.987688 -0
    outer loop
      vertex -1.77698 -16.9069 0
      vertex -3.5345 -16.6285 7
      vertex -1.77698 -16.9069 7
    endloop
  endfacet
  facet normal 0.156434 0.987688 0
    outer loop
      vertex -3.5345 -16.6285 7
      vertex -1.77698 -16.9069 0
      vertex -3.5345 -16.6285 0
    endloop
  endfacet
  facet normal 0.891006 0.453991 0
    outer loop
      vertex -14.7224 -8.5 7
      vertex -15.5303 -6.91452 0
      vertex -15.5303 -6.91452 7
    endloop
  endfacet
  facet normal 0.891006 0.453991 0
    outer loop
      vertex -15.5303 -6.91452 0
      vertex -14.7224 -8.5 7
      vertex -14.7224 -8.5 0
    endloop
  endfacet
  facet normal 0.777146 0.62932 0
    outer loop
      vertex -12.6335 -11.3752 7
      vertex -13.7533 -9.99235 0
      vertex -13.7533 -9.99235 7
    endloop
  endfacet
  facet normal 0.777146 0.62932 0
    outer loop
      vertex -13.7533 -9.99235 0
      vertex -12.6335 -11.3752 7
      vertex -12.6335 -11.3752 0
    endloop
  endfacet
  facet normal 0.965926 0.258819 0
    outer loop
      vertex -16.168 -5.25329 7
      vertex -16.6285 -3.5345 0
      vertex -16.6285 -3.5345 7
    endloop
  endfacet
  facet normal 0.965926 0.258819 0
    outer loop
      vertex -16.6285 -3.5345 0
      vertex -16.168 -5.25329 7
      vertex -16.168 -5.25329 0
    endloop
  endfacet
  facet normal 0.99863 0.0523362 0
    outer loop
      vertex -16.9069 -1.77698 7
      vertex -17 0 0
      vertex -17 0 7
    endloop
  endfacet
  facet normal 0.99863 0.0523362 0
    outer loop
      vertex -17 0 0
      vertex -16.9069 -1.77698 7
      vertex -16.9069 -1.77698 0
    endloop
  endfacet
  facet normal -0.156434 0.987688 0
    outer loop
      vertex 3.5345 -16.6285 0
      vertex 1.77698 -16.9069 7
      vertex 3.5345 -16.6285 7
    endloop
  endfacet
  facet normal -0.156434 0.987688 0
    outer loop
      vertex 1.77698 -16.9069 7
      vertex 3.5345 -16.6285 0
      vertex 1.77698 -16.9069 0
    endloop
  endfacet
  facet normal -0.358368 0.93358 0
    outer loop
      vertex 6.91452 -15.5303 0
      vertex 5.25329 -16.168 7
      vertex 6.91452 -15.5303 7
    endloop
  endfacet
  facet normal -0.358368 0.93358 0
    outer loop
      vertex 5.25329 -16.168 7
      vertex 6.91452 -15.5303 0
      vertex 5.25329 -16.168 0
    endloop
  endfacet
  facet normal -0.707107 0.707107 0
    outer loop
      vertex 11.3752 -12.6335 0
      vertex 12.6335 -11.3752 7
      vertex 12.6335 -11.3752 0
    endloop
  endfacet
  facet normal -0.707107 0.707107 0
    outer loop
      vertex 12.6335 -11.3752 7
      vertex 11.3752 -12.6335 0
      vertex 11.3752 -12.6335 7
    endloop
  endfacet
  facet normal -0.544639 0.83867 0
    outer loop
      vertex 9.99235 -13.7533 0
      vertex 8.5 -14.7224 7
      vertex 9.99235 -13.7533 7
    endloop
  endfacet
  facet normal -0.544639 0.83867 0
    outer loop
      vertex 8.5 -14.7224 7
      vertex 9.99235 -13.7533 0
      vertex 8.5 -14.7224 0
    endloop
  endfacet
  facet normal -0.838671 0.544639 0
    outer loop
      vertex 13.7533 -9.99235 0
      vertex 14.7224 -8.5 7
      vertex 14.7224 -8.5 0
    endloop
  endfacet
  facet normal -0.838671 0.544639 0
    outer loop
      vertex 14.7224 -8.5 7
      vertex 13.7533 -9.99235 0
      vertex 13.7533 -9.99235 7
    endloop
  endfacet
  facet normal -0.987688 0.156434 0
    outer loop
      vertex 16.6285 -3.5345 0
      vertex 16.9069 -1.77698 7
      vertex 16.9069 -1.77698 0
    endloop
  endfacet
  facet normal -0.987688 0.156434 0
    outer loop
      vertex 16.9069 -1.77698 7
      vertex 16.6285 -3.5345 0
      vertex 16.6285 -3.5345 7
    endloop
  endfacet
  facet normal -0.965926 0.258819 0
    outer loop
      vertex 16.168 -5.25329 0
      vertex 16.6285 -3.5345 7
      vertex 16.6285 -3.5345 0
    endloop
  endfacet
  facet normal -0.965926 0.258819 0
    outer loop
      vertex 16.6285 -3.5345 7
      vertex 16.168 -5.25329 0
      vertex 16.168 -5.25329 7
    endloop
  endfacet
  facet normal 0.62932 0.777146 -0
    outer loop
      vertex -9.99235 -13.7533 0
      vertex -11.3752 -12.6335 7
      vertex -9.99235 -13.7533 7
    endloop
  endfacet
  facet normal 0.62932 0.777146 0
    outer loop
      vertex -11.3752 -12.6335 7
      vertex -9.99235 -13.7533 0
      vertex -11.3752 -12.6335 0
    endloop
  endfacet
  facet normal 0.45399 0.891007 -0
    outer loop
      vertex -6.91452 -15.5303 0
      vertex -8.5 -14.7224 7
      vertex -6.91452 -15.5303 7
    endloop
  endfacet
  facet normal 0.45399 0.891007 0
    outer loop
      vertex -8.5 -14.7224 7
      vertex -6.91452 -15.5303 0
      vertex -8.5 -14.7224 0
    endloop
  endfacet
  facet normal 0.258819 0.965926 -0
    outer loop
      vertex -3.5345 -16.6285 0
      vertex -5.25329 -16.168 7
      vertex -3.5345 -16.6285 7
    endloop
  endfacet
  facet normal 0.258819 0.965926 0
    outer loop
      vertex -5.25329 -16.168 7
      vertex -3.5345 -16.6285 0
      vertex -5.25329 -16.168 0
    endloop
  endfacet
  facet normal 0.838671 0.544639 0
    outer loop
      vertex -13.7533 -9.99235 7
      vertex -14.7224 -8.5 0
      vertex -14.7224 -8.5 7
    endloop
  endfacet
  facet normal 0.838671 0.544639 0
    outer loop
      vertex -14.7224 -8.5 0
      vertex -13.7533 -9.99235 7
      vertex -13.7533 -9.99235 0
    endloop
  endfacet
  facet normal 0.93358 0.358368 0
    outer loop
      vertex -15.5303 -6.91452 7
      vertex -16.168 -5.25329 0
      vertex -16.168 -5.25329 7
    endloop
  endfacet
  facet normal 0.93358 0.358368 0
    outer loop
      vertex -16.168 -5.25329 0
      vertex -15.5303 -6.91452 7
      vertex -15.5303 -6.91452 0
    endloop
  endfacet
  facet normal 0.987688 0.156434 0
    outer loop
      vertex -16.6285 -3.5345 7
      vertex -16.9069 -1.77698 0
      vertex -16.9069 -1.77698 7
    endloop
  endfacet
  facet normal 0.987688 0.156434 0
    outer loop
      vertex -16.9069 -1.77698 0
      vertex -16.6285 -3.5345 7
      vertex -16.6285 -3.5345 0
    endloop
  endfacet
endsolid OpenSCAD_Model
