solid OpenSCAD_Model
  facet normal 0.881032 0.473058 0
    outer loop
      vertex 10.1952 4.88084 2
      vertex 9.02863 7.05342 0
      vertex 9.02863 7.05342 2
    endloop
  endfacet
  facet normal 0.881032 0.473058 0
    outer loop
      vertex 9.02863 7.05342 0
      vertex 10.1952 4.88084 2
      vertex 10.1952 4.88084 0
    endloop
  endfacet
  facet normal 0.766695 0.642012 0
    outer loop
      vertex 9.02863 7.05342 2
      vertex 7.4675 8.91774 0
      vertex 7.4675 8.91774 2
    endloop
  endfacet
  facet normal 0.766695 0.642012 0
    outer loop
      vertex 7.4675 8.91774 0
      vertex 9.02863 7.05342 2
      vertex 9.02863 7.05342 0
    endloop
  endfacet
  facet normal 0.22281 0.974862 -0
    outer loop
      vertex 3.44863 11.4127 0
      vertex 1.16654 11.9343 2
      vertex 3.44863 11.4127 2
    endloop
  endfacet
  facet normal 0.22281 0.974862 0
    outer loop
      vertex 1.16654 11.9343 2
      vertex 3.44863 11.4127 0
      vertex 1.16654 11.9343 0
    endloop
  endfacet
  facet normal 0.431807 0.901966 -0
    outer loop
      vertex 5.58 10.3923 0
      vertex 3.44863 11.4127 2
      vertex 5.58 10.3923 2
    endloop
  endfacet
  facet normal 0.431807 0.901966 0
    outer loop
      vertex 3.44863 11.4127 2
      vertex 5.58 10.3923 0
      vertex 3.44863 11.4127 0
    endloop
  endfacet
  facet normal -0.431808 0.901966 0
    outer loop
      vertex -3.44863 11.4127 0
      vertex -5.58 10.3923 2
      vertex -3.44863 11.4127 2
    endloop
  endfacet
  facet normal -0.431808 0.901966 0
    outer loop
      vertex -5.58 10.3923 2
      vertex -3.44863 11.4127 0
      vertex -5.58 10.3923 0
    endloop
  endfacet
  facet normal -0.881032 0.473058 0
    outer loop
      vertex -10.1952 4.88084 0
      vertex -9.02863 7.05342 2
      vertex -9.02863 7.05342 0
    endloop
  endfacet
  facet normal -0.881032 0.473058 0
    outer loop
      vertex -9.02863 7.05342 2
      vertex -10.1952 4.88084 0
      vertex -10.1952 4.88084 2
    endloop
  endfacet
  facet normal 0.995257 -0.0972833 0
    outer loop
      vertex 10.9161 -2.49494 2
      vertex 11.16 0 0
      vertex 11.16 0 2
    endloop
  endfacet
  facet normal 0.995257 -0.0972833 0
    outer loop
      vertex 11.16 0 0
      vertex 10.9161 -2.49494 2
      vertex 10.9161 -2.49494 0
    endloop
  endfacet
  facet normal 0.957251 0.289258 0
    outer loop
      vertex 10.9161 2.49494 2
      vertex 10.1952 4.88084 0
      vertex 10.1952 4.88084 2
    endloop
  endfacet
  facet normal 0.957251 0.289258 0
    outer loop
      vertex 10.1952 4.88084 0
      vertex 10.9161 2.49494 2
      vertex 10.9161 2.49494 0
    endloop
  endfacet
  facet normal 0.615634 0.788032 -0
    outer loop
      vertex 7.4675 8.91774 0
      vertex 5.58 10.3923 2
      vertex 7.4675 8.91774 2
    endloop
  endfacet
  facet normal 0.615634 0.788032 0
    outer loop
      vertex 5.58 10.3923 2
      vertex 7.4675 8.91774 0
      vertex 5.58 10.3923 0
    endloop
  endfacet
  facet normal 0 1 -0
    outer loop
      vertex 1.16654 11.9343 0
      vertex -1.16654 11.9343 2
      vertex 1.16654 11.9343 2
    endloop
  endfacet
  facet normal 0 1 0
    outer loop
      vertex -1.16654 11.9343 2
      vertex 1.16654 11.9343 0
      vertex -1.16654 11.9343 0
    endloop
  endfacet
  facet normal -0.995257 0.0972833 0
    outer loop
      vertex -11.16 0 0
      vertex -10.9161 2.49494 2
      vertex -10.9161 2.49494 0
    endloop
  endfacet
  facet normal -0.995257 0.0972833 0
    outer loop
      vertex -10.9161 2.49494 2
      vertex -11.16 0 0
      vertex -11.16 0 2
    endloop
  endfacet
  facet normal -0.615634 0.788033 0
    outer loop
      vertex -5.58 10.3923 0
      vertex -7.4675 8.91774 2
      vertex -5.58 10.3923 2
    endloop
  endfacet
  facet normal -0.615634 0.788033 0
    outer loop
      vertex -7.4675 8.91774 2
      vertex -5.58 10.3923 0
      vertex -7.4675 8.91774 0
    endloop
  endfacet
  facet normal -0.22281 0.974862 0
    outer loop
      vertex -1.16654 11.9343 0
      vertex -3.44863 11.4127 2
      vertex -1.16654 11.9343 2
    endloop
  endfacet
  facet normal -0.22281 0.974862 0
    outer loop
      vertex -3.44863 11.4127 2
      vertex -1.16654 11.9343 0
      vertex -3.44863 11.4127 0
    endloop
  endfacet
  facet normal -0.766695 0.642012 0
    outer loop
      vertex -9.02863 7.05342 0
      vertex -7.4675 8.91774 2
      vertex -7.4675 8.91774 0
    endloop
  endfacet
  facet normal -0.766695 0.642012 0
    outer loop
      vertex -7.4675 8.91774 2
      vertex -9.02863 7.05342 0
      vertex -9.02863 7.05342 2
    endloop
  endfacet
  facet normal 0.995257 0.0972833 0
    outer loop
      vertex 11.16 0 2
      vertex 10.9161 2.49494 0
      vertex 10.9161 2.49494 2
    endloop
  endfacet
  facet normal 0.995257 0.0972833 0
    outer loop
      vertex 10.9161 2.49494 0
      vertex 11.16 0 2
      vertex 11.16 0 0
    endloop
  endfacet
  facet normal 0.957251 -0.289258 0
    outer loop
      vertex 10.1952 -4.88084 2
      vertex 10.9161 -2.49494 0
      vertex 10.9161 -2.49494 2
    endloop
  endfacet
  facet normal 0.957251 -0.289258 0
    outer loop
      vertex 10.9161 -2.49494 0
      vertex 10.1952 -4.88084 2
      vertex 10.1952 -4.88084 0
    endloop
  endfacet
  facet normal -0.881032 -0.473058 0
    outer loop
      vertex -9.02863 -7.05342 0
      vertex -10.1952 -4.88084 2
      vertex -10.1952 -4.88084 0
    endloop
  endfacet
  facet normal -0.881032 -0.473058 0
    outer loop
      vertex -10.1952 -4.88084 2
      vertex -9.02863 -7.05342 0
      vertex -9.02863 -7.05342 2
    endloop
  endfacet
  facet normal 0.615634 -0.788032 0
    outer loop
      vertex 5.58 -10.3923 0
      vertex 7.4675 -8.91774 2
      vertex 5.58 -10.3923 2
    endloop
  endfacet
  facet normal 0.615634 -0.788032 0
    outer loop
      vertex 7.4675 -8.91774 2
      vertex 5.58 -10.3923 0
      vertex 7.4675 -8.91774 0
    endloop
  endfacet
  facet normal 0 0 1
    outer loop
      vertex 8 0 2
      vertex 11.16 0 2
      vertex 10.9161 2.49494 2
    endloop
  endfacet
  facet normal 0 0 1
    outer loop
      vertex 7.76753 1.91453 2
      vertex 10.9161 2.49494 2
      vertex 10.1952 4.88084 2
    endloop
  endfacet
  facet normal 0 0 1
    outer loop
      vertex 11.16 0 2
      vertex 8 0 2
      vertex 10.9161 -2.49494 2
    endloop
  endfacet
  facet normal 0 0 1
    outer loop
      vertex 7.08365 3.71778 2
      vertex 10.1952 4.88084 2
      vertex 9.02863 7.05342 2
    endloop
  endfacet
  facet normal -0 0 1
    outer loop
      vertex 7.76753 -1.91453 2
      vertex 10.9161 -2.49494 2
      vertex 8 0 2
    endloop
  endfacet
  facet normal 0 0 1
    outer loop
      vertex 10.9161 -2.49494 2
      vertex 7.76753 -1.91453 2
      vertex 10.1952 -4.88084 2
    endloop
  endfacet
  facet normal 0 0 1
    outer loop
      vertex 10.9161 2.49494 2
      vertex 7.76753 1.91453 2
      vertex 8 0 2
    endloop
  endfacet
  facet normal 0 0 1
    outer loop
      vertex 5.98809 5.30498 2
      vertex 9.02863 7.05342 2
      vertex 7.4675 8.91774 2
    endloop
  endfacet
  facet normal 0 0 1
    outer loop
      vertex 10.1952 4.88084 2
      vertex 7.08365 3.71778 2
      vertex 7.76753 1.91453 2
    endloop
  endfacet
  facet normal 0 0 1
    outer loop
      vertex 9.02863 7.05342 2
      vertex 5.98809 5.30498 2
      vertex 7.08365 3.71778 2
    endloop
  endfacet
  facet normal 0 0 1
    outer loop
      vertex 4.54452 6.58387 2
      vertex 7.4675 8.91774 2
      vertex 5.58 10.3923 2
    endloop
  endfacet
  facet normal 0 0 1
    outer loop
      vertex 7.4675 8.91774 2
      vertex 4.54452 6.58387 2
      vertex 5.98809 5.30498 2
    endloop
  endfacet
  facet normal 0 0 1
    outer loop
      vertex 2.83684 7.48013 2
      vertex 5.58 10.3923 2
      vertex 3.44863 11.4127 2
    endloop
  endfacet
  facet normal 0 0 1
    outer loop
      vertex 5.58 10.3923 2
      vertex 2.83684 7.48013 2
      vertex 4.54452 6.58387 2
    endloop
  endfacet
  facet normal 0 0 1
    outer loop
      vertex 0.964293 7.94167 2
      vertex 3.44863 11.4127 2
      vertex 1.16654 11.9343 2
    endloop
  endfacet
  facet normal 0 0 1
    outer loop
      vertex 3.44863 11.4127 2
      vertex 0.964293 7.94167 2
      vertex 2.83684 7.48013 2
    endloop
  endfacet
  facet normal 0 0 1
    outer loop
      vertex 1.16654 11.9343 2
      vertex -0.964293 7.94167 2
      vertex 0.964293 7.94167 2
    endloop
  endfacet
  facet normal -0 0 1
    outer loop
      vertex -1.16654 11.9343 2
      vertex -0.964293 7.94167 2
      vertex 1.16654 11.9343 2
    endloop
  endfacet
  facet normal -0 0 1
    outer loop
      vertex -3.44863 11.4127 2
      vertex -0.964293 7.94167 2
      vertex -1.16654 11.9343 2
    endloop
  endfacet
  facet normal 0 0 1
    outer loop
      vertex -0.964293 7.94167 2
      vertex -3.44863 11.4127 2
      vertex -2.83684 7.48013 2
    endloop
  endfacet
  facet normal -0 0 1
    outer loop
      vertex -5.58 10.3923 2
      vertex -2.83684 7.48013 2
      vertex -3.44863 11.4127 2
    endloop
  endfacet
  facet normal 0 0 1
    outer loop
      vertex -2.83684 7.48013 2
      vertex -5.58 10.3923 2
      vertex -4.54452 6.58387 2
    endloop
  endfacet
  facet normal -0 0 1
    outer loop
      vertex -7.4675 8.91774 2
      vertex -4.54452 6.58387 2
      vertex -5.58 10.3923 2
    endloop
  endfacet
  facet normal 0 0 1
    outer loop
      vertex -4.54452 6.58387 2
      vertex -7.4675 8.91774 2
      vertex -5.98809 5.30498 2
    endloop
  endfacet
  facet normal -0 0 1
    outer loop
      vertex -9.02863 7.05342 2
      vertex -5.98809 5.30498 2
      vertex -7.4675 8.91774 2
    endloop
  endfacet
  facet normal 0 0 1
    outer loop
      vertex -5.98809 5.30498 2
      vertex -9.02863 7.05342 2
      vertex -7.08365 3.71778 2
    endloop
  endfacet
  facet normal -0 0 1
    outer loop
      vertex -10.1952 4.88084 2
      vertex -7.08365 3.71778 2
      vertex -9.02863 7.05342 2
    endloop
  endfacet
  facet normal 0 0 1
    outer loop
      vertex -7.08365 3.71778 2
      vertex -10.1952 4.88084 2
      vertex -7.76753 1.91453 2
    endloop
  endfacet
  facet normal -0 0 1
    outer loop
      vertex 7.08365 -3.71778 2
      vertex 10.1952 -4.88084 2
      vertex 7.76753 -1.91453 2
    endloop
  endfacet
  facet normal 0 0 1
    outer loop
      vertex 10.1952 -4.88084 2
      vertex 7.08365 -3.71778 2
      vertex 9.02863 -7.05342 2
    endloop
  endfacet
  facet normal -0 0 1
    outer loop
      vertex 5.98809 -5.30498 2
      vertex 9.02863 -7.05342 2
      vertex 7.08365 -3.71778 2
    endloop
  endfacet
  facet normal 0 0 1
    outer loop
      vertex 9.02863 -7.05342 2
      vertex 5.98809 -5.30498 2
      vertex 7.4675 -8.91774 2
    endloop
  endfacet
  facet normal -0 0 1
    outer loop
      vertex 4.54452 -6.58387 2
      vertex 7.4675 -8.91774 2
      vertex 5.98809 -5.30498 2
    endloop
  endfacet
  facet normal 0 0 1
    outer loop
      vertex 7.4675 -8.91774 2
      vertex 4.54452 -6.58387 2
      vertex 5.58 -10.3923 2
    endloop
  endfacet
  facet normal -0 0 1
    outer loop
      vertex 2.83684 -7.48013 2
      vertex 5.58 -10.3923 2
      vertex 4.54452 -6.58387 2
    endloop
  endfacet
  facet normal 0 0 1
    outer loop
      vertex 5.58 -10.3923 2
      vertex 2.83684 -7.48013 2
      vertex 3.44863 -11.4127 2
    endloop
  endfacet
  facet normal -0 0 1
    outer loop
      vertex 0.964293 -7.94167 2
      vertex 3.44863 -11.4127 2
      vertex 2.83684 -7.48013 2
    endloop
  endfacet
  facet normal 0 0 1
    outer loop
      vertex 3.44863 -11.4127 2
      vertex 0.964293 -7.94167 2
      vertex 1.16654 -11.9343 2
    endloop
  endfacet
  facet normal -0 0 1
    outer loop
      vertex -0.964293 -7.94167 2
      vertex 1.16654 -11.9343 2
      vertex 0.964293 -7.94167 2
    endloop
  endfacet
  facet normal 0 0 1
    outer loop
      vertex -0.964293 -7.94167 2
      vertex -1.16654 -11.9343 2
      vertex 1.16654 -11.9343 2
    endloop
  endfacet
  facet normal 0 0 1
    outer loop
      vertex -3.44863 -11.4127 2
      vertex -0.964293 -7.94167 2
      vertex -2.83684 -7.48013 2
    endloop
  endfacet
  facet normal 0 0 1
    outer loop
      vertex -0.964293 -7.94167 2
      vertex -3.44863 -11.4127 2
      vertex -1.16654 -11.9343 2
    endloop
  endfacet
  facet normal 0 0 1
    outer loop
      vertex -5.58 -10.3923 2
      vertex -2.83684 -7.48013 2
      vertex -4.54452 -6.58387 2
    endloop
  endfacet
  facet normal 0 0 1
    outer loop
      vertex -2.83684 -7.48013 2
      vertex -5.58 -10.3923 2
      vertex -3.44863 -11.4127 2
    endloop
  endfacet
  facet normal 0 0 1
    outer loop
      vertex -7.4675 -8.91774 2
      vertex -4.54452 -6.58387 2
      vertex -5.98809 -5.30498 2
    endloop
  endfacet
  facet normal 0 0 1
    outer loop
      vertex -9.02863 -7.05342 2
      vertex -5.98809 -5.30498 2
      vertex -7.08365 -3.71778 2
    endloop
  endfacet
  facet normal 0 0 1
    outer loop
      vertex -4.54452 -6.58387 2
      vertex -7.4675 -8.91774 2
      vertex -5.58 -10.3923 2
    endloop
  endfacet
  facet normal 0 0 1
    outer loop
      vertex -10.1952 -4.88084 2
      vertex -7.08365 -3.71778 2
      vertex -7.76753 -1.91453 2
    endloop
  endfacet
  facet normal 0 0 1
    outer loop
      vertex -10.9161 -2.49494 2
      vertex -7.76753 -1.91453 2
      vertex -8 0 2
    endloop
  endfacet
  facet normal -0 0 1
    outer loop
      vertex -10.9161 2.49494 2
      vertex -7.76753 1.91453 2
      vertex -10.1952 4.88084 2
    endloop
  endfacet
  facet normal 0 0 1
    outer loop
      vertex -5.98809 -5.30498 2
      vertex -9.02863 -7.05342 2
      vertex -7.4675 -8.91774 2
    endloop
  endfacet
  facet normal 0 0 1
    outer loop
      vertex -7.76753 1.91453 2
      vertex -10.9161 2.49494 2
      vertex -8 0 2
    endloop
  endfacet
  facet normal 0 0 1
    outer loop
      vertex -7.08365 -3.71778 2
      vertex -10.1952 -4.88084 2
      vertex -9.02863 -7.05342 2
    endloop
  endfacet
  facet normal 0 0 1
    outer loop
      vertex -11.16 0 2
      vertex -8 0 2
      vertex -10.9161 2.49494 2
    endloop
  endfacet
  facet normal 0 0 1
    outer loop
      vertex -7.76753 -1.91453 2
      vertex -10.9161 -2.49494 2
      vertex -10.1952 -4.88084 2
    endloop
  endfacet
  facet normal 0 0 1
    outer loop
      vertex -8 0 2
      vertex -11.16 0 2
      vertex -10.9161 -2.49494 2
    endloop
  endfacet
  facet normal -0.957251 0.289258 0
    outer loop
      vertex -10.9161 2.49494 0
      vertex -10.1952 4.88084 2
      vertex -10.1952 4.88084 0
    endloop
  endfacet
  facet normal -0.957251 0.289258 0
    outer loop
      vertex -10.1952 4.88084 2
      vertex -10.9161 2.49494 0
      vertex -10.9161 2.49494 2
    endloop
  endfacet
  facet normal 0.881032 -0.473058 0
    outer loop
      vertex 9.02863 -7.05342 2
      vertex 10.1952 -4.88084 0
      vertex 10.1952 -4.88084 2
    endloop
  endfacet
  facet normal 0.881032 -0.473058 0
    outer loop
      vertex 10.1952 -4.88084 0
      vertex 9.02863 -7.05342 2
      vertex 9.02863 -7.05342 0
    endloop
  endfacet
  facet normal -0.995257 -0.0972833 0
    outer loop
      vertex -10.9161 -2.49494 0
      vertex -11.16 0 2
      vertex -11.16 0 0
    endloop
  endfacet
  facet normal -0.995257 -0.0972833 0
    outer loop
      vertex -11.16 0 2
      vertex -10.9161 -2.49494 0
      vertex -10.9161 -2.49494 2
    endloop
  endfacet
  facet normal 0.22281 -0.974862 0
    outer loop
      vertex 1.16654 -11.9343 0
      vertex 3.44863 -11.4127 2
      vertex 1.16654 -11.9343 2
    endloop
  endfacet
  facet normal 0.22281 -0.974862 0
    outer loop
      vertex 3.44863 -11.4127 2
      vertex 1.16654 -11.9343 0
      vertex 3.44863 -11.4127 0
    endloop
  endfacet
  facet normal 0.431807 -0.901966 0
    outer loop
      vertex 3.44863 -11.4127 0
      vertex 5.58 -10.3923 2
      vertex 3.44863 -11.4127 2
    endloop
  endfacet
  facet normal 0.431807 -0.901966 0
    outer loop
      vertex 5.58 -10.3923 2
      vertex 3.44863 -11.4127 0
      vertex 5.58 -10.3923 0
    endloop
  endfacet
  facet normal -0.22281 -0.974862 0
    outer loop
      vertex -3.44863 -11.4127 0
      vertex -1.16654 -11.9343 2
      vertex -3.44863 -11.4127 2
    endloop
  endfacet
  facet normal -0.22281 -0.974862 -0
    outer loop
      vertex -1.16654 -11.9343 2
      vertex -3.44863 -11.4127 0
      vertex -1.16654 -11.9343 0
    endloop
  endfacet
  facet normal 0 -1 0
    outer loop
      vertex -1.16654 -11.9343 0
      vertex 1.16654 -11.9343 2
      vertex -1.16654 -11.9343 2
    endloop
  endfacet
  facet normal 0 -1 -0
    outer loop
      vertex 1.16654 -11.9343 2
      vertex -1.16654 -11.9343 0
      vertex 1.16654 -11.9343 0
    endloop
  endfacet
  facet normal 0 0 -1
    outer loop
      vertex 8 0 0
      vertex 11.16 0 0
      vertex 10.9161 -2.49494 0
    endloop
  endfacet
  facet normal 0 0 -1
    outer loop
      vertex 7.76753 -1.91453 0
      vertex 10.9161 -2.49494 0
      vertex 10.1952 -4.88084 0
    endloop
  endfacet
  facet normal 0 0 -1
    outer loop
      vertex 11.16 0 0
      vertex 8 0 0
      vertex 10.9161 2.49494 0
    endloop
  endfacet
  facet normal 0 0 -1
    outer loop
      vertex 7.08365 -3.71778 0
      vertex 10.1952 -4.88084 0
      vertex 9.02863 -7.05342 0
    endloop
  endfacet
  facet normal 0 0 -1
    outer loop
      vertex 7.76753 1.91453 0
      vertex 10.9161 2.49494 0
      vertex 8 0 0
    endloop
  endfacet
  facet normal -0 0 -1
    outer loop
      vertex 10.9161 2.49494 0
      vertex 7.76753 1.91453 0
      vertex 10.1952 4.88084 0
    endloop
  endfacet
  facet normal 0 0 -1
    outer loop
      vertex 10.9161 -2.49494 0
      vertex 7.76753 -1.91453 0
      vertex 8 0 0
    endloop
  endfacet
  facet normal 0 0 -1
    outer loop
      vertex 5.98809 -5.30498 0
      vertex 9.02863 -7.05342 0
      vertex 7.4675 -8.91774 0
    endloop
  endfacet
  facet normal 0 0 -1
    outer loop
      vertex 10.1952 -4.88084 0
      vertex 7.08365 -3.71778 0
      vertex 7.76753 -1.91453 0
    endloop
  endfacet
  facet normal 0 0 -1
    outer loop
      vertex 9.02863 -7.05342 0
      vertex 5.98809 -5.30498 0
      vertex 7.08365 -3.71778 0
    endloop
  endfacet
  facet normal 0 0 -1
    outer loop
      vertex 4.54452 -6.58387 0
      vertex 7.4675 -8.91774 0
      vertex 5.58 -10.3923 0
    endloop
  endfacet
  facet normal 0 0 -1
    outer loop
      vertex 7.4675 -8.91774 0
      vertex 4.54452 -6.58387 0
      vertex 5.98809 -5.30498 0
    endloop
  endfacet
  facet normal 0 0 -1
    outer loop
      vertex 2.83684 -7.48013 0
      vertex 5.58 -10.3923 0
      vertex 3.44863 -11.4127 0
    endloop
  endfacet
  facet normal 0 0 -1
    outer loop
      vertex 5.58 -10.3923 0
      vertex 2.83684 -7.48013 0
      vertex 4.54452 -6.58387 0
    endloop
  endfacet
  facet normal 0 0 -1
    outer loop
      vertex 0.964293 -7.94167 0
      vertex 3.44863 -11.4127 0
      vertex 1.16654 -11.9343 0
    endloop
  endfacet
  facet normal 0 0 -1
    outer loop
      vertex 3.44863 -11.4127 0
      vertex 0.964293 -7.94167 0
      vertex 2.83684 -7.48013 0
    endloop
  endfacet
  facet normal 0 0 -1
    outer loop
      vertex 1.16654 -11.9343 0
      vertex -0.964293 -7.94167 0
      vertex 0.964293 -7.94167 0
    endloop
  endfacet
  facet normal 0 0 -1
    outer loop
      vertex -1.16654 -11.9343 0
      vertex -0.964293 -7.94167 0
      vertex 1.16654 -11.9343 0
    endloop
  endfacet
  facet normal 0 0 -1
    outer loop
      vertex -3.44863 -11.4127 0
      vertex -0.964293 -7.94167 0
      vertex -1.16654 -11.9343 0
    endloop
  endfacet
  facet normal -0 0 -1
    outer loop
      vertex -0.964293 -7.94167 0
      vertex -3.44863 -11.4127 0
      vertex -2.83684 -7.48013 0
    endloop
  endfacet
  facet normal 0 0 -1
    outer loop
      vertex -5.58 -10.3923 0
      vertex -2.83684 -7.48013 0
      vertex -3.44863 -11.4127 0
    endloop
  endfacet
  facet normal -0 0 -1
    outer loop
      vertex -2.83684 -7.48013 0
      vertex -5.58 -10.3923 0
      vertex -4.54452 -6.58387 0
    endloop
  endfacet
  facet normal 0 0 -1
    outer loop
      vertex -7.4675 -8.91774 0
      vertex -4.54452 -6.58387 0
      vertex -5.58 -10.3923 0
    endloop
  endfacet
  facet normal -0 0 -1
    outer loop
      vertex -4.54452 -6.58387 0
      vertex -7.4675 -8.91774 0
      vertex -5.98809 -5.30498 0
    endloop
  endfacet
  facet normal 0 0 -1
    outer loop
      vertex -9.02863 -7.05342 0
      vertex -5.98809 -5.30498 0
      vertex -7.4675 -8.91774 0
    endloop
  endfacet
  facet normal -0 0 -1
    outer loop
      vertex -5.98809 -5.30498 0
      vertex -9.02863 -7.05342 0
      vertex -7.08365 -3.71778 0
    endloop
  endfacet
  facet normal 0 0 -1
    outer loop
      vertex -10.1952 -4.88084 0
      vertex -7.08365 -3.71778 0
      vertex -9.02863 -7.05342 0
    endloop
  endfacet
  facet normal -0 0 -1
    outer loop
      vertex -7.08365 -3.71778 0
      vertex -10.1952 -4.88084 0
      vertex -7.76753 -1.91453 0
    endloop
  endfacet
  facet normal 0 0 -1
    outer loop
      vertex 7.08365 3.71778 0
      vertex 10.1952 4.88084 0
      vertex 7.76753 1.91453 0
    endloop
  endfacet
  facet normal -0 0 -1
    outer loop
      vertex 10.1952 4.88084 0
      vertex 7.08365 3.71778 0
      vertex 9.02863 7.05342 0
    endloop
  endfacet
  facet normal 0 0 -1
    outer loop
      vertex 5.98809 5.30498 0
      vertex 9.02863 7.05342 0
      vertex 7.08365 3.71778 0
    endloop
  endfacet
  facet normal -0 0 -1
    outer loop
      vertex 9.02863 7.05342 0
      vertex 5.98809 5.30498 0
      vertex 7.4675 8.91774 0
    endloop
  endfacet
  facet normal 0 0 -1
    outer loop
      vertex 4.54452 6.58387 0
      vertex 7.4675 8.91774 0
      vertex 5.98809 5.30498 0
    endloop
  endfacet
  facet normal -0 0 -1
    outer loop
      vertex 7.4675 8.91774 0
      vertex 4.54452 6.58387 0
      vertex 5.58 10.3923 0
    endloop
  endfacet
  facet normal 0 0 -1
    outer loop
      vertex 2.83684 7.48013 0
      vertex 5.58 10.3923 0
      vertex 4.54452 6.58387 0
    endloop
  endfacet
  facet normal -0 0 -1
    outer loop
      vertex 5.58 10.3923 0
      vertex 2.83684 7.48013 0
      vertex 3.44863 11.4127 0
    endloop
  endfacet
  facet normal 0 0 -1
    outer loop
      vertex 0.964293 7.94167 0
      vertex 3.44863 11.4127 0
      vertex 2.83684 7.48013 0
    endloop
  endfacet
  facet normal -0 0 -1
    outer loop
      vertex 3.44863 11.4127 0
      vertex 0.964293 7.94167 0
      vertex 1.16654 11.9343 0
    endloop
  endfacet
  facet normal 0 0 -1
    outer loop
      vertex -0.964293 7.94167 0
      vertex 1.16654 11.9343 0
      vertex 0.964293 7.94167 0
    endloop
  endfacet
  facet normal 0 0 -1
    outer loop
      vertex -0.964293 7.94167 0
      vertex -1.16654 11.9343 0
      vertex 1.16654 11.9343 0
    endloop
  endfacet
  facet normal 0 0 -1
    outer loop
      vertex -3.44863 11.4127 0
      vertex -0.964293 7.94167 0
      vertex -2.83684 7.48013 0
    endloop
  endfacet
  facet normal 0 0 -1
    outer loop
      vertex -0.964293 7.94167 0
      vertex -3.44863 11.4127 0
      vertex -1.16654 11.9343 0
    endloop
  endfacet
  facet normal 0 0 -1
    outer loop
      vertex -5.58 10.3923 0
      vertex -2.83684 7.48013 0
      vertex -4.54452 6.58387 0
    endloop
  endfacet
  facet normal 0 0 -1
    outer loop
      vertex -2.83684 7.48013 0
      vertex -5.58 10.3923 0
      vertex -3.44863 11.4127 0
    endloop
  endfacet
  facet normal 0 0 -1
    outer loop
      vertex -7.4675 8.91774 0
      vertex -4.54452 6.58387 0
      vertex -5.98809 5.30498 0
    endloop
  endfacet
  facet normal 0 0 -1
    outer loop
      vertex -9.02863 7.05342 0
      vertex -5.98809 5.30498 0
      vertex -7.08365 3.71778 0
    endloop
  endfacet
  facet normal 0 0 -1
    outer loop
      vertex -4.54452 6.58387 0
      vertex -7.4675 8.91774 0
      vertex -5.58 10.3923 0
    endloop
  endfacet
  facet normal 0 0 -1
    outer loop
      vertex -10.1952 4.88084 0
      vertex -7.08365 3.71778 0
      vertex -7.76753 1.91453 0
    endloop
  endfacet
  facet normal 0 0 -1
    outer loop
      vertex -10.9161 2.49494 0
      vertex -7.76753 1.91453 0
      vertex -8 0 0
    endloop
  endfacet
  facet normal 0 0 -1
    outer loop
      vertex -10.9161 -2.49494 0
      vertex -7.76753 -1.91453 0
      vertex -10.1952 -4.88084 0
    endloop
  endfacet
  facet normal 0 0 -1
    outer loop
      vertex -5.98809 5.30498 0
      vertex -9.02863 7.05342 0
      vertex -7.4675 8.91774 0
    endloop
  endfacet
  facet normal -0 0 -1
    outer loop
      vertex -7.76753 -1.91453 0
      vertex -10.9161 -2.49494 0
      vertex -8 0 0
    endloop
  endfacet
  facet normal 0 0 -1
    outer loop
      vertex -7.08365 3.71778 0
      vertex -10.1952 4.88084 0
      vertex -9.02863 7.05342 0
    endloop
  endfacet
  facet normal 0 0 -1
    outer loop
      vertex -11.16 0 0
      vertex -8 0 0
      vertex -10.9161 -2.49494 0
    endloop
  endfacet
  facet normal 0 0 -1
    outer loop
      vertex -7.76753 1.91453 0
      vertex -10.9161 2.49494 0
      vertex -10.1952 4.88084 0
    endloop
  endfacet
  facet normal 0 0 -1
    outer loop
      vertex -8 0 0
      vertex -11.16 0 0
      vertex -10.9161 2.49494 0
    endloop
  endfacet
  facet normal -0.957251 -0.289258 0
    outer loop
      vertex -10.1952 -4.88084 0
      vertex -10.9161 -2.49494 2
      vertex -10.9161 -2.49494 0
    endloop
  endfacet
  facet normal -0.957251 -0.289258 0
    outer loop
      vertex -10.9161 -2.49494 2
      vertex -10.1952 -4.88084 0
      vertex -10.1952 -4.88084 2
    endloop
  endfacet
  facet normal -0.766695 -0.642012 0
    outer loop
      vertex -7.4675 -8.91774 0
      vertex -9.02863 -7.05342 2
      vertex -9.02863 -7.05342 0
    endloop
  endfacet
  facet normal -0.766695 -0.642012 0
    outer loop
      vertex -9.02863 -7.05342 2
      vertex -7.4675 -8.91774 0
      vertex -7.4675 -8.91774 2
    endloop
  endfacet
  facet normal 0.766695 -0.642012 0
    outer loop
      vertex 7.4675 -8.91774 2
      vertex 9.02863 -7.05342 0
      vertex 9.02863 -7.05342 2
    endloop
  endfacet
  facet normal 0.766695 -0.642012 0
    outer loop
      vertex 9.02863 -7.05342 0
      vertex 7.4675 -8.91774 2
      vertex 7.4675 -8.91774 0
    endloop
  endfacet
  facet normal -0.431807 -0.901966 0
    outer loop
      vertex -5.58 -10.3923 0
      vertex -3.44863 -11.4127 2
      vertex -5.58 -10.3923 2
    endloop
  endfacet
  facet normal -0.431807 -0.901966 -0
    outer loop
      vertex -3.44863 -11.4127 2
      vertex -5.58 -10.3923 0
      vertex -3.44863 -11.4127 0
    endloop
  endfacet
  facet normal -0.615634 -0.788032 0
    outer loop
      vertex -7.4675 -8.91774 0
      vertex -5.58 -10.3923 2
      vertex -7.4675 -8.91774 2
    endloop
  endfacet
  facet normal -0.615634 -0.788032 -0
    outer loop
      vertex -5.58 -10.3923 2
      vertex -7.4675 -8.91774 0
      vertex -5.58 -10.3923 0
    endloop
  endfacet
  facet normal 0 -1 0
    outer loop
      vertex -0.964293 7.94167 0
      vertex 0.964293 7.94167 2
      vertex -0.964293 7.94167 2
    endloop
  endfacet
  facet normal 0 -1 -0
    outer loop
      vertex 0.964293 7.94167 2
      vertex -0.964293 7.94167 0
      vertex 0.964293 7.94167 0
    endloop
  endfacet
  facet normal 0 1 -0
    outer loop
      vertex 0.964293 -7.94167 0
      vertex -0.964293 -7.94167 2
      vertex 0.964293 -7.94167 2
    endloop
  endfacet
  facet normal 0 1 0
    outer loop
      vertex -0.964293 -7.94167 2
      vertex 0.964293 -7.94167 0
      vertex -0.964293 -7.94167 0
    endloop
  endfacet
  facet normal -0.822984 -0.568065 0
    outer loop
      vertex 7.08365 3.71778 0
      vertex 5.98809 5.30498 2
      vertex 5.98809 5.30498 0
    endloop
  endfacet
  facet normal -0.822984 -0.568065 0
    outer loop
      vertex 5.98809 5.30498 2
      vertex 7.08365 3.71778 0
      vertex 7.08365 3.71778 2
    endloop
  endfacet
  facet normal 0.992709 -0.120537 0
    outer loop
      vertex -8 0 2
      vertex -7.76753 1.91453 0
      vertex -7.76753 1.91453 2
    endloop
  endfacet
  facet normal 0.992709 -0.120537 0
    outer loop
      vertex -7.76753 1.91453 0
      vertex -8 0 2
      vertex -8 0 0
    endloop
  endfacet
  facet normal 0.992709 0.120537 0
    outer loop
      vertex -7.76753 -1.91453 2
      vertex -8 0 0
      vertex -8 0 2
    endloop
  endfacet
  facet normal 0.992709 0.120537 0
    outer loop
      vertex -8 0 0
      vertex -7.76753 -1.91453 2
      vertex -7.76753 -1.91453 0
    endloop
  endfacet
  facet normal -0.663123 -0.748511 0
    outer loop
      vertex 4.54452 6.58387 0
      vertex 5.98809 5.30498 2
      vertex 4.54452 6.58387 2
    endloop
  endfacet
  facet normal -0.663123 -0.748511 -0
    outer loop
      vertex 5.98809 5.30498 2
      vertex 4.54452 6.58387 0
      vertex 5.98809 5.30498 0
    endloop
  endfacet
  facet normal -0.239316 -0.970942 0
    outer loop
      vertex 0.964293 7.94167 0
      vertex 2.83684 7.48013 2
      vertex 0.964293 7.94167 2
    endloop
  endfacet
  facet normal -0.239316 -0.970942 -0
    outer loop
      vertex 2.83684 7.48013 2
      vertex 0.964293 7.94167 0
      vertex 2.83684 7.48013 0
    endloop
  endfacet
  facet normal 0.464723 -0.885456 0
    outer loop
      vertex -4.54452 6.58387 0
      vertex -2.83684 7.48013 2
      vertex -4.54452 6.58387 2
    endloop
  endfacet
  facet normal 0.464723 -0.885456 0
    outer loop
      vertex -2.83684 7.48013 2
      vertex -4.54452 6.58387 0
      vertex -2.83684 7.48013 0
    endloop
  endfacet
  facet normal 0.935016 -0.354605 0
    outer loop
      vertex -7.76753 1.91453 2
      vertex -7.08365 3.71778 0
      vertex -7.08365 3.71778 2
    endloop
  endfacet
  facet normal 0.935016 -0.354605 0
    outer loop
      vertex -7.08365 3.71778 0
      vertex -7.76753 1.91453 2
      vertex -7.76753 1.91453 0
    endloop
  endfacet
  facet normal 0.663123 -0.748511 0
    outer loop
      vertex -5.98809 5.30498 0
      vertex -4.54452 6.58387 2
      vertex -5.98809 5.30498 2
    endloop
  endfacet
  facet normal 0.663123 -0.748511 0
    outer loop
      vertex -4.54452 6.58387 2
      vertex -5.98809 5.30498 0
      vertex -4.54452 6.58387 0
    endloop
  endfacet
  facet normal -0.992709 0.120537 0
    outer loop
      vertex 7.76753 -1.91453 0
      vertex 8 0 2
      vertex 8 0 0
    endloop
  endfacet
  facet normal -0.992709 0.120537 0
    outer loop
      vertex 8 0 2
      vertex 7.76753 -1.91453 0
      vertex 7.76753 -1.91453 2
    endloop
  endfacet
  facet normal -0.239316 0.970942 0
    outer loop
      vertex 2.83684 -7.48013 0
      vertex 0.964293 -7.94167 2
      vertex 2.83684 -7.48013 2
    endloop
  endfacet
  facet normal -0.239316 0.970942 0
    outer loop
      vertex 0.964293 -7.94167 2
      vertex 2.83684 -7.48013 0
      vertex 0.964293 -7.94167 0
    endloop
  endfacet
  facet normal -0.935016 -0.354605 0
    outer loop
      vertex 7.76753 1.91453 0
      vertex 7.08365 3.71778 2
      vertex 7.08365 3.71778 0
    endloop
  endfacet
  facet normal -0.935016 -0.354605 0
    outer loop
      vertex 7.08365 3.71778 2
      vertex 7.76753 1.91453 0
      vertex 7.76753 1.91453 2
    endloop
  endfacet
  facet normal -0.464723 -0.885456 0
    outer loop
      vertex 2.83684 7.48013 0
      vertex 4.54452 6.58387 2
      vertex 2.83684 7.48013 2
    endloop
  endfacet
  facet normal -0.464723 -0.885456 -0
    outer loop
      vertex 4.54452 6.58387 2
      vertex 2.83684 7.48013 0
      vertex 4.54452 6.58387 0
    endloop
  endfacet
  facet normal 0.822984 -0.568065 0
    outer loop
      vertex -7.08365 3.71778 2
      vertex -5.98809 5.30498 0
      vertex -5.98809 5.30498 2
    endloop
  endfacet
  facet normal 0.822984 -0.568065 0
    outer loop
      vertex -5.98809 5.30498 0
      vertex -7.08365 3.71778 2
      vertex -7.08365 3.71778 0
    endloop
  endfacet
  facet normal 0.239316 -0.970942 0
    outer loop
      vertex -2.83684 7.48013 0
      vertex -0.964293 7.94167 2
      vertex -2.83684 7.48013 2
    endloop
  endfacet
  facet normal 0.239316 -0.970942 0
    outer loop
      vertex -0.964293 7.94167 2
      vertex -2.83684 7.48013 0
      vertex -0.964293 7.94167 0
    endloop
  endfacet
  facet normal -0.992709 -0.120537 0
    outer loop
      vertex 8 0 0
      vertex 7.76753 1.91453 2
      vertex 7.76753 1.91453 0
    endloop
  endfacet
  facet normal -0.992709 -0.120537 0
    outer loop
      vertex 7.76753 1.91453 2
      vertex 8 0 0
      vertex 8 0 2
    endloop
  endfacet
  facet normal 0.663123 0.748511 -0
    outer loop
      vertex -4.54452 -6.58387 0
      vertex -5.98809 -5.30498 2
      vertex -4.54452 -6.58387 2
    endloop
  endfacet
  facet normal 0.663123 0.748511 0
    outer loop
      vertex -5.98809 -5.30498 2
      vertex -4.54452 -6.58387 0
      vertex -5.98809 -5.30498 0
    endloop
  endfacet
  facet normal 0.935016 0.354605 0
    outer loop
      vertex -7.08365 -3.71778 2
      vertex -7.76753 -1.91453 0
      vertex -7.76753 -1.91453 2
    endloop
  endfacet
  facet normal 0.935016 0.354605 0
    outer loop
      vertex -7.76753 -1.91453 0
      vertex -7.08365 -3.71778 2
      vertex -7.08365 -3.71778 0
    endloop
  endfacet
  facet normal -0.663123 0.748511 0
    outer loop
      vertex 5.98809 -5.30498 0
      vertex 4.54452 -6.58387 2
      vertex 5.98809 -5.30498 2
    endloop
  endfacet
  facet normal -0.663123 0.748511 0
    outer loop
      vertex 4.54452 -6.58387 2
      vertex 5.98809 -5.30498 0
      vertex 4.54452 -6.58387 0
    endloop
  endfacet
  facet normal -0.822984 0.568065 0
    outer loop
      vertex 5.98809 -5.30498 0
      vertex 7.08365 -3.71778 2
      vertex 7.08365 -3.71778 0
    endloop
  endfacet
  facet normal -0.822984 0.568065 0
    outer loop
      vertex 7.08365 -3.71778 2
      vertex 5.98809 -5.30498 0
      vertex 5.98809 -5.30498 2
    endloop
  endfacet
  facet normal 0.822984 0.568065 0
    outer loop
      vertex -5.98809 -5.30498 2
      vertex -7.08365 -3.71778 0
      vertex -7.08365 -3.71778 2
    endloop
  endfacet
  facet normal 0.822984 0.568065 0
    outer loop
      vertex -7.08365 -3.71778 0
      vertex -5.98809 -5.30498 2
      vertex -5.98809 -5.30498 0
    endloop
  endfacet
  facet normal -0.464723 0.885456 0
    outer loop
      vertex 4.54452 -6.58387 0
      vertex 2.83684 -7.48013 2
      vertex 4.54452 -6.58387 2
    endloop
  endfacet
  facet normal -0.464723 0.885456 0
    outer loop
      vertex 2.83684 -7.48013 2
      vertex 4.54452 -6.58387 0
      vertex 2.83684 -7.48013 0
    endloop
  endfacet
  facet normal -0.935016 0.354605 0
    outer loop
      vertex 7.08365 -3.71778 0
      vertex 7.76753 -1.91453 2
      vertex 7.76753 -1.91453 0
    endloop
  endfacet
  facet normal -0.935016 0.354605 0
    outer loop
      vertex 7.76753 -1.91453 2
      vertex 7.08365 -3.71778 0
      vertex 7.08365 -3.71778 2
    endloop
  endfacet
  facet normal 0.464723 0.885456 -0
    outer loop
      vertex -2.83684 -7.48013 0
      vertex -4.54452 -6.58387 2
      vertex -2.83684 -7.48013 2
    endloop
  endfacet
  facet normal 0.464723 0.885456 0
    outer loop
      vertex -4.54452 -6.58387 2
      vertex -2.83684 -7.48013 0
      vertex -4.54452 -6.58387 0
    endloop
  endfacet
  facet normal 0.239316 0.970942 -0
    outer loop
      vertex -0.964293 -7.94167 0
      vertex -2.83684 -7.48013 2
      vertex -0.964293 -7.94167 2
    endloop
  endfacet
  facet normal 0.239316 0.970942 0
    outer loop
      vertex -2.83684 -7.48013 2
      vertex -0.964293 -7.94167 0
      vertex -2.83684 -7.48013 0
    endloop
  endfacet
endsolid OpenSCAD_Model
