solid OpenSCAD_Model
  facet normal -0.998027 -0.0627903 0
    outer loop
      vertex 0.0465231 5.16053 0
      vertex 0 5.9 3
      vertex 0 5.9 0
    endloop
  endfacet
  facet normal -0.998027 -0.0627903 0
    outer loop
      vertex 0 5.9 3
      vertex 0.0465231 5.16053 0
      vertex 0.0465231 5.16053 3
    endloop
  endfacet
  facet normal -1 0 0
    outer loop
      vertex 0 5.9 0
      vertex 0 20 3
      vertex 0 20 0
    endloop
  endfacet
  facet normal -1 -0 0
    outer loop
      vertex 0 20 3
      vertex 0 5.9 0
      vertex 0 5.9 3
    endloop
  endfacet
  facet normal -0.904827 -0.425779 0
    outer loop
      vertex 0.72979 3.05765 0
      vertex 0.414318 3.72806 3
      vertex 0.414318 3.72806 0
    endloop
  endfacet
  facet normal -0.904827 -0.425779 0
    outer loop
      vertex 0.414318 3.72806 3
      vertex 0.72979 3.05765 0
      vertex 0.72979 3.05765 3
    endloop
  endfacet
  facet normal -0.982287 -0.187381 0
    outer loop
      vertex 0.185359 4.43273 0
      vertex 0.0465231 5.16053 3
      vertex 0.0465231 5.16053 0
    endloop
  endfacet
  facet normal -0.982287 -0.187381 0
    outer loop
      vertex 0.0465231 5.16053 3
      vertex 0.185359 4.43273 0
      vertex 0.185359 4.43273 3
    endloop
  endfacet
  facet normal -0.951057 -0.309017 0
    outer loop
      vertex 0.414318 3.72806 0
      vertex 0.185359 4.43273 3
      vertex 0.185359 4.43273 0
    endloop
  endfacet
  facet normal -0.951057 -0.309017 0
    outer loop
      vertex 0.185359 4.43273 3
      vertex 0.414318 3.72806 0
      vertex 0.414318 3.72806 3
    endloop
  endfacet
  facet normal -0.770513 -0.637424 0
    outer loop
      vertex 1.59908 1.86117 0
      vertex 1.1268 2.43207 3
      vertex 1.1268 2.43207 0
    endloop
  endfacet
  facet normal -0.770513 -0.637424 0
    outer loop
      vertex 1.1268 2.43207 3
      vertex 1.59908 1.86117 0
      vertex 1.59908 1.86117 3
    endloop
  endfacet
  facet normal 0 -1 0
    outer loop
      vertex 5.52954 0.0116415 0
      vertex 20 0.0116415 3
      vertex 5.52954 0.0116415 3
    endloop
  endfacet
  facet normal 0 -1 -0
    outer loop
      vertex 20 0.0116415 3
      vertex 5.52954 0.0116415 0
      vertex 20 0.0116415 0
    endloop
  endfacet
  facet normal -0.844327 -0.535828 0
    outer loop
      vertex 1.1268 2.43207 0
      vertex 0.72979 3.05765 3
      vertex 0.72979 3.05765 0
    endloop
  endfacet
  facet normal -0.844327 -0.535828 0
    outer loop
      vertex 0.72979 3.05765 3
      vertex 1.1268 2.43207 0
      vertex 1.1268 2.43207 3
    endloop
  endfacet
  facet normal -0.684547 -0.728969 0
    outer loop
      vertex 1.59908 1.86117 0
      vertex 2.1392 1.35397 3
      vertex 1.59908 1.86117 3
    endloop
  endfacet
  facet normal -0.684547 -0.728969 -0
    outer loop
      vertex 2.1392 1.35397 3
      vertex 1.59908 1.86117 0
      vertex 2.1392 1.35397 0
    endloop
  endfacet
  facet normal -0.368124 -0.929777 0
    outer loop
      vertex 3.3879 0.56152 0
      vertex 4.0768 0.288766 3
      vertex 3.3879 0.56152 3
    endloop
  endfacet
  facet normal -0.368124 -0.929777 -0
    outer loop
      vertex 4.0768 0.288766 3
      vertex 3.3879 0.56152 0
      vertex 4.0768 0.288766 0
    endloop
  endfacet
  facet normal -0.481754 -0.876306 0
    outer loop
      vertex 2.73862 0.918465 0
      vertex 3.3879 0.56152 3
      vertex 2.73862 0.918465 3
    endloop
  endfacet
  facet normal -0.481754 -0.876306 -0
    outer loop
      vertex 3.3879 0.56152 3
      vertex 2.73862 0.918465 0
      vertex 3.3879 0.56152 0
    endloop
  endfacet
  facet normal -0.125333 -0.992115 0
    outer loop
      vertex 4.79445 0.104505 0
      vertex 5.52954 0.0116415 3
      vertex 4.79445 0.104505 3
    endloop
  endfacet
  facet normal -0.125333 -0.992115 -0
    outer loop
      vertex 5.52954 0.0116415 3
      vertex 4.79445 0.104505 0
      vertex 5.52954 0.0116415 0
    endloop
  endfacet
  facet normal -0.24869 -0.968583 0
    outer loop
      vertex 4.0768 0.288766 0
      vertex 4.79445 0.104505 3
      vertex 4.0768 0.288766 3
    endloop
  endfacet
  facet normal -0.24869 -0.968583 -0
    outer loop
      vertex 4.79445 0.104505 3
      vertex 4.0768 0.288766 0
      vertex 4.79445 0.104505 0
    endloop
  endfacet
  facet normal -0.587785 -0.809017 0
    outer loop
      vertex 2.1392 1.35397 0
      vertex 2.73862 0.918465 3
      vertex 2.1392 1.35397 3
    endloop
  endfacet
  facet normal -0.587785 -0.809017 -0
    outer loop
      vertex 2.73862 0.918465 3
      vertex 2.1392 1.35397 0
      vertex 2.73862 0.918465 0
    endloop
  endfacet
  facet normal 0 0 1
    outer loop
      vertex 0 5.9 3
      vertex 0.9 5.9 3
      vertex 0.9 20 3
    endloop
  endfacet
  facet normal 0 -0 1
    outer loop
      vertex 0.0465231 5.16053 3
      vertex 0.9 5.9 3
      vertex 0 5.9 3
    endloop
  endfacet
  facet normal 0 0 1
    outer loop
      vertex 0.9 5.9 3
      vertex 0.414318 3.72806 3
      vertex 0.72979 3.05765 3
    endloop
  endfacet
  facet normal 0 0 1
    outer loop
      vertex 0.9 5.9 3
      vertex 0.185359 4.43273 3
      vertex 0.414318 3.72806 3
    endloop
  endfacet
  facet normal 0 0 1
    outer loop
      vertex 0 5.9 3
      vertex 0.9 20 3
      vertex 0 20 3
    endloop
  endfacet
  facet normal 0 0 1
    outer loop
      vertex 0.9 5.9 3
      vertex 0.0465231 5.16053 3
      vertex 0.185359 4.43273 3
    endloop
  endfacet
  facet normal -0 0 1
    outer loop
      vertex 5.58605 0.909866 3
      vertex 20 0.0116415 3
      vertex 20 0.909866 3
    endloop
  endfacet
  facet normal 0 0 1
    outer loop
      vertex 5.58605 0.909866 3
      vertex 5.52954 0.0116415 3
      vertex 20 0.0116415 3
    endloop
  endfacet
  facet normal 0 0 1
    outer loop
      vertex 5.44733 0.92739 3
      vertex 5.52954 0.0116415 3
      vertex 5.58605 0.909866 3
    endloop
  endfacet
  facet normal -0 0 1
    outer loop
      vertex 5.37736 0.92739 3
      vertex 5.52954 0.0116415 3
      vertex 5.44733 0.92739 3
    endloop
  endfacet
  facet normal 0 0 1
    outer loop
      vertex 5.27485 0.949179 3
      vertex 5.52954 0.0116415 3
      vertex 5.37736 0.92739 3
    endloop
  endfacet
  facet normal 0 0 1
    outer loop
      vertex 4.79445 0.104505 3
      vertex 5.27485 0.949179 3
      vertex 4.96309 0.988563 3
    endloop
  endfacet
  facet normal 0 0 1
    outer loop
      vertex 5.27485 0.949179 3
      vertex 4.79445 0.104505 3
      vertex 5.52954 0.0116415 3
    endloop
  endfacet
  facet normal 0 0 1
    outer loop
      vertex 4.35491 1.14472 3
      vertex 4.79445 0.104505 3
      vertex 4.96309 0.988563 3
    endloop
  endfacet
  facet normal 0 0 1
    outer loop
      vertex 4.35491 1.14472 3
      vertex 4.0768 0.288766 3
      vertex 4.79445 0.104505 3
    endloop
  endfacet
  facet normal 0 0 1
    outer loop
      vertex 3.7711 1.37586 3
      vertex 4.0768 0.288766 3
      vertex 4.35491 1.14472 3
    endloop
  endfacet
  facet normal 0 0 1
    outer loop
      vertex 3.3879 0.56152 3
      vertex 3.7711 1.37586 3
      vertex 3.49575 1.52724 3
    endloop
  endfacet
  facet normal 0 0 1
    outer loop
      vertex 2.73862 0.918465 3
      vertex 3.49575 1.52724 3
      vertex 3.4 1.56987 3
    endloop
  endfacet
  facet normal 0 0 1
    outer loop
      vertex 3.7711 1.37586 3
      vertex 3.3879 0.56152 3
      vertex 4.0768 0.288766 3
    endloop
  endfacet
  facet normal 0 0 1
    outer loop
      vertex 2.73862 0.918465 3
      vertex 3.4 1.56987 3
      vertex 3.34339 1.611 3
    endloop
  endfacet
  facet normal 0 0 1
    outer loop
      vertex 2.73862 0.918465 3
      vertex 3.34339 1.611 3
      vertex 3.22087 1.67836 3
    endloop
  endfacet
  facet normal 0 0 1
    outer loop
      vertex 3.49575 1.52724 3
      vertex 2.73862 0.918465 3
      vertex 3.3879 0.56152 3
    endloop
  endfacet
  facet normal 0 0 1
    outer loop
      vertex 2.71288 2.04743 3
      vertex 2.73862 0.918465 3
      vertex 3.22087 1.67836 3
    endloop
  endfacet
  facet normal 0 0 1
    outer loop
      vertex 2.1392 1.35397 3
      vertex 2.71288 2.04743 3
      vertex 2.61095 2.14315 3
    endloop
  endfacet
  facet normal 0 0 1
    outer loop
      vertex 2.1392 1.35397 3
      vertex 2.61095 2.14315 3
      vertex 2.55435 2.18428 3
    endloop
  endfacet
  facet normal 0 0 1
    outer loop
      vertex 2.1392 1.35397 3
      vertex 2.55435 2.18428 3
      vertex 2.48422 2.26216 3
    endloop
  endfacet
  facet normal 0 0 1
    outer loop
      vertex 1.59908 1.86117 3
      vertex 2.48422 2.26216 3
      vertex 2.25516 2.47726 3
    endloop
  endfacet
  facet normal 0 0 1
    outer loop
      vertex 2.71288 2.04743 3
      vertex 2.1392 1.35397 3
      vertex 2.73862 0.918465 3
    endloop
  endfacet
  facet normal 0 0 1
    outer loop
      vertex 1.59908 1.86117 3
      vertex 2.25516 2.47726 3
      vertex 1.85491 2.96107 3
    endloop
  endfacet
  facet normal 0 0 1
    outer loop
      vertex 2.48422 2.26216 3
      vertex 1.59908 1.86117 3
      vertex 2.1392 1.35397 3
    endloop
  endfacet
  facet normal 0 0 1
    outer loop
      vertex 1.1268 2.43207 3
      vertex 1.85491 2.96107 3
      vertex 1.51847 3.49123 3
    endloop
  endfacet
  facet normal 0 0 1
    outer loop
      vertex 0.72979 3.05765 3
      vertex 1.51847 3.49123 3
      vertex 1.38468 3.77555 3
    endloop
  endfacet
  facet normal 0 0 1
    outer loop
      vertex 0.72979 3.05765 3
      vertex 1.38468 3.77555 3
      vertex 1.33227 3.86632 3
    endloop
  endfacet
  facet normal 0 0 1
    outer loop
      vertex 0.72979 3.05765 3
      vertex 1.33227 3.86632 3
      vertex 1.31065 3.93287 3
    endloop
  endfacet
  facet normal 0 0 1
    outer loop
      vertex 0.72979 3.05765 3
      vertex 1.31065 3.93287 3
      vertex 1.25112 4.05938 3
    endloop
  endfacet
  facet normal 0 0 1
    outer loop
      vertex 1.85491 2.96107 3
      vertex 1.1268 2.43207 3
      vertex 1.59908 1.86117 3
    endloop
  endfacet
  facet normal 0 0 1
    outer loop
      vertex 0.72979 3.05765 3
      vertex 1.25112 4.05938 3
      vertex 1.05708 4.65655 3
    endloop
  endfacet
  facet normal 0 0 1
    outer loop
      vertex 1.00926 4.86044 3
      vertex 1.05708 4.65655 3
      vertex 1.03088 4.7939 3
    endloop
  endfacet
  facet normal 0 0 1
    outer loop
      vertex 1.05708 4.65655 3
      vertex 1.00926 4.86044 3
      vertex 0.72979 3.05765 3
    endloop
  endfacet
  facet normal 0 0 1
    outer loop
      vertex 0.939426 5.27333 3
      vertex 1.00926 4.86044 3
      vertex 0.998307 4.96467 3
    endloop
  endfacet
  facet normal 0 0 1
    outer loop
      vertex 1.00926 4.86044 3
      vertex 0.939426 5.27333 3
      vertex 0.72979 3.05765 3
    endloop
  endfacet
  facet normal 0 0 1
    outer loop
      vertex 0.9 5.9 3
      vertex 0.939426 5.27333 3
      vertex 0.9 5.89999 3
    endloop
  endfacet
  facet normal 0 0 1
    outer loop
      vertex 1.51847 3.49123 3
      vertex 0.72979 3.05765 3
      vertex 1.1268 2.43207 3
    endloop
  endfacet
  facet normal 0 0 1
    outer loop
      vertex 0.72979 3.05765 3
      vertex 0.939426 5.27333 3
      vertex 0.9 5.9 3
    endloop
  endfacet
  facet normal 0 0 1
    outer loop
      vertex 10.9 5.9 3
      vertex 11.8 5.9 3
      vertex 11.6711 7.12668 3
    endloop
  endfacet
  facet normal 0 0 1
    outer loop
      vertex 11.8 5.9 3
      vertex 10.9 5.9 3
      vertex 11.6711 4.67332 3
    endloop
  endfacet
  facet normal 0 0 1
    outer loop
      vertex 10.7907 6.93956 3
      vertex 11.6711 7.12668 3
      vertex 11.2899 8.29975 3
    endloop
  endfacet
  facet normal -0 0 1
    outer loop
      vertex 11.3238 3.60454 3
      vertex 20 2.70631 3
      vertex 20 3.60454 3
    endloop
  endfacet
  facet normal -0 0 1
    outer loop
      vertex 10.7907 4.86044 3
      vertex 11.6711 4.67332 3
      vertex 10.9 5.9 3
    endloop
  endfacet
  facet normal 0 0 1
    outer loop
      vertex 11.6711 4.67332 3
      vertex 10.7907 4.86044 3
      vertex 11.3238 3.60454 3
    endloop
  endfacet
  facet normal -0 0 1
    outer loop
      vertex 10.4677 3.86632 3
      vertex 11.3238 3.60454 3
      vertex 10.7907 4.86044 3
    endloop
  endfacet
  facet normal 0 0 1
    outer loop
      vertex 9.94508 2.96107 3
      vertex 11.3238 3.60454 3
      vertex 10.4677 3.86632 3
    endloop
  endfacet
  facet normal 0 0 1
    outer loop
      vertex 9.7157 2.70631 3
      vertex 11.3238 3.60454 3
      vertex 9.94508 2.96107 3
    endloop
  endfacet
  facet normal 0 0 1
    outer loop
      vertex 11.3238 3.60454 3
      vertex 9.7157 2.70631 3
      vertex 20 2.70631 3
    endloop
  endfacet
  facet normal -0 0 1
    outer loop
      vertex 2.7 20 3
      vertex 3.6 11.2989 3
      vertex 3.6 20 3
    endloop
  endfacet
  facet normal 0 0 1
    outer loop
      vertex 2.7 9.72155 3
      vertex 3.6 11.2989 3
      vertex 2.7 20 3
    endloop
  endfacet
  facet normal 0 0 1
    outer loop
      vertex 3.6 11.2989 3
      vertex 2.7 9.72155 3
      vertex 3.4 10.2301 3
    endloop
  endfacet
  facet normal 0 0 1
    outer loop
      vertex 11.6711 7.12668 3
      vertex 10.7907 6.93956 3
      vertex 10.9 5.9 3
    endloop
  endfacet
  facet normal 0 0 1
    outer loop
      vertex 10.4677 7.93368 3
      vertex 11.2899 8.29975 3
      vertex 10.6732 9.36793 3
    endloop
  endfacet
  facet normal 0 0 1
    outer loop
      vertex 11.2899 8.29975 3
      vertex 10.4677 7.93368 3
      vertex 10.7907 6.93956 3
    endloop
  endfacet
  facet normal 0 0 1
    outer loop
      vertex 10.6732 9.36793 3
      vertex 9.94508 8.83893 3
      vertex 10.4677 7.93368 3
    endloop
  endfacet
  facet normal 0 0 1
    outer loop
      vertex 9.84787 10.2846 3
      vertex 9.94508 8.83893 3
      vertex 10.6732 9.36793 3
    endloop
  endfacet
  facet normal 0 0 1
    outer loop
      vertex 9.84787 10.2846 3
      vertex 9.24565 9.61572 3
      vertex 9.94508 8.83893 3
    endloop
  endfacet
  facet normal 0 0 1
    outer loop
      vertex 8.85 11.0095 3
      vertex 9.24565 9.61572 3
      vertex 9.84787 10.2846 3
    endloop
  endfacet
  facet normal 0 0 1
    outer loop
      vertex 8.85 11.0095 3
      vertex 8.4 10.2301 3
      vertex 9.24565 9.61572 3
    endloop
  endfacet
  facet normal 0 0 1
    outer loop
      vertex 7.7232 11.5112 3
      vertex 8.4 10.2301 3
      vertex 8.85 11.0095 3
    endloop
  endfacet
  facet normal 0 0 1
    outer loop
      vertex 7.7232 11.5112 3
      vertex 7.44508 10.6553 3
      vertex 8.4 10.2301 3
    endloop
  endfacet
  facet normal 0 0 1
    outer loop
      vertex 6.51672 11.7677 3
      vertex 7.44508 10.6553 3
      vertex 7.7232 11.5112 3
    endloop
  endfacet
  facet normal 0 0 1
    outer loop
      vertex 6.51672 11.7677 3
      vertex 6.42264 10.8726 3
      vertex 7.44508 10.6553 3
    endloop
  endfacet
  facet normal 0 0 1
    outer loop
      vertex 6.51672 11.7677 3
      vertex 5.37736 10.8726 3
      vertex 6.42264 10.8726 3
    endloop
  endfacet
  facet normal -0 0 1
    outer loop
      vertex 5.28328 11.7677 3
      vertex 5.37736 10.8726 3
      vertex 6.51672 11.7677 3
    endloop
  endfacet
  facet normal 0 0 1
    outer loop
      vertex 5.28328 11.7677 3
      vertex 4.35491 10.6553 3
      vertex 5.37736 10.8726 3
    endloop
  endfacet
  facet normal -0 0 1
    outer loop
      vertex 4.0768 11.5112 3
      vertex 4.35491 10.6553 3
      vertex 5.28328 11.7677 3
    endloop
  endfacet
  facet normal -0 0 1
    outer loop
      vertex 3.6 11.2989 3
      vertex 4.35491 10.6553 3
      vertex 4.0768 11.5112 3
    endloop
  endfacet
  facet normal 0 0 1
    outer loop
      vertex 4.35491 10.6553 3
      vertex 3.6 11.2989 3
      vertex 3.4 10.2301 3
    endloop
  endfacet
  facet normal 0 0 -1
    outer loop
      vertex 20 0.0116415 0
      vertex 11.3238 3.60454 0
      vertex 20 3.60454 0
    endloop
  endfacet
  facet normal 0 0 -1
    outer loop
      vertex 7.85629 6.31582 0
      vertex 11.6711 7.12668 0
      vertex 7.9 5.9 0
    endloop
  endfacet
  facet normal 0 0 -1
    outer loop
      vertex 7.72709 6.71347 0
      vertex 11.2899 8.29975 0
      vertex 7.85629 6.31582 0
    endloop
  endfacet
  facet normal -0 0 -1
    outer loop
      vertex 11.2899 8.29975 0
      vertex 7.72709 6.71347 0
      vertex 10.6732 9.36793 0
    endloop
  endfacet
  facet normal -0 0 -1
    outer loop
      vertex 11.6711 7.12668 0
      vertex 7.85629 6.31582 0
      vertex 11.2899 8.29975 0
    endloop
  endfacet
  facet normal 0 0 -1
    outer loop
      vertex 11.3238 3.60454 0
      vertex 7.85629 5.48418 0
      vertex 7.9 5.9 0
    endloop
  endfacet
  facet normal 0 0 -1
    outer loop
      vertex 11.3238 3.60454 0
      vertex 7.72709 5.08653 0
      vertex 7.85629 5.48418 0
    endloop
  endfacet
  facet normal 0 0 -1
    outer loop
      vertex 5.52954 0.0116415 0
      vertex 11.3238 3.60454 0
      vertex 20 0.0116415 0
    endloop
  endfacet
  facet normal 0 0 -1
    outer loop
      vertex 11.3238 3.60454 0
      vertex 7.51803 4.72443 0
      vertex 7.72709 5.08653 0
    endloop
  endfacet
  facet normal 0 0 -1
    outer loop
      vertex 11.3238 3.60454 0
      vertex 7.23826 4.41371 0
      vertex 7.51803 4.72443 0
    endloop
  endfacet
  facet normal 0 -0 -1
    outer loop
      vertex 6.9 4.16795 0
      vertex 11.3238 3.60454 0
      vertex 5.52954 0.0116415 0
    endloop
  endfacet
  facet normal 0 0 -1
    outer loop
      vertex 11.3238 3.60454 0
      vertex 6.9 4.16795 0
      vertex 7.23826 4.41371 0
    endloop
  endfacet
  facet normal 0 0 -1
    outer loop
      vertex 6.9 4.16795 0
      vertex 5.52954 0.0116415 0
      vertex 6.51803 3.99789 0
    endloop
  endfacet
  facet normal 0 0 -1
    outer loop
      vertex 6.51803 3.99789 0
      vertex 5.52954 0.0116415 0
      vertex 6.10906 3.91096 0
    endloop
  endfacet
  facet normal -0 0 -1
    outer loop
      vertex 6.10906 3.91096 0
      vertex 5.52954 0.0116415 0
      vertex 5.69094 3.91096 0
    endloop
  endfacet
  facet normal 0 0 -1
    outer loop
      vertex 4.79445 0.104505 0
      vertex 5.69094 3.91096 0
      vertex 5.52954 0.0116415 0
    endloop
  endfacet
  facet normal -0 0 -1
    outer loop
      vertex 5.69094 3.91096 0
      vertex 4.79445 0.104505 0
      vertex 5.28197 3.99789 0
    endloop
  endfacet
  facet normal 0 0 -1
    outer loop
      vertex 4.0768 0.288766 0
      vertex 5.28197 3.99789 0
      vertex 4.79445 0.104505 0
    endloop
  endfacet
  facet normal 0 0 -1
    outer loop
      vertex 3.3879 0.56152 0
      vertex 5.28197 3.99789 0
      vertex 4.0768 0.288766 0
    endloop
  endfacet
  facet normal -0 0 -1
    outer loop
      vertex 5.28197 3.99789 0
      vertex 3.3879 0.56152 0
      vertex 4.9 4.16795 0
    endloop
  endfacet
  facet normal 0 0 -1
    outer loop
      vertex 2.73862 0.918465 0
      vertex 4.9 4.16795 0
      vertex 3.3879 0.56152 0
    endloop
  endfacet
  facet normal -0 0 -1
    outer loop
      vertex 4.9 4.16795 0
      vertex 2.73862 0.918465 0
      vertex 4.56174 4.41371 0
    endloop
  endfacet
  facet normal 0 0 -1
    outer loop
      vertex 2.1392 1.35397 0
      vertex 4.56174 4.41371 0
      vertex 2.73862 0.918465 0
    endloop
  endfacet
  facet normal 0 0 -1
    outer loop
      vertex 1.59908 1.86117 0
      vertex 4.56174 4.41371 0
      vertex 2.1392 1.35397 0
    endloop
  endfacet
  facet normal -0 0 -1
    outer loop
      vertex 4.56174 4.41371 0
      vertex 1.59908 1.86117 0
      vertex 4.28197 4.72443 0
    endloop
  endfacet
  facet normal 0 0 -1
    outer loop
      vertex 1.1268 2.43207 0
      vertex 4.28197 4.72443 0
      vertex 1.59908 1.86117 0
    endloop
  endfacet
  facet normal 0 0 -1
    outer loop
      vertex 3.9 5.9 0
      vertex 0 5.9 0
      vertex 3.6 11.2989 0
    endloop
  endfacet
  facet normal 0 0 -1
    outer loop
      vertex 0.72979 3.05765 0
      vertex 4.28197 4.72443 0
      vertex 1.1268 2.43207 0
    endloop
  endfacet
  facet normal -0 0 -1
    outer loop
      vertex 4.28197 4.72443 0
      vertex 0.72979 3.05765 0
      vertex 4.07291 5.08653 0
    endloop
  endfacet
  facet normal 0 0 -1
    outer loop
      vertex 0.414318 3.72806 0
      vertex 4.07291 5.08653 0
      vertex 0.72979 3.05765 0
    endloop
  endfacet
  facet normal -0 0 -1
    outer loop
      vertex 4.07291 5.08653 0
      vertex 0.414318 3.72806 0
      vertex 3.9437 5.48418 0
    endloop
  endfacet
  facet normal 0 0 -1
    outer loop
      vertex 0.185359 4.43273 0
      vertex 3.9437 5.48418 0
      vertex 0.414318 3.72806 0
    endloop
  endfacet
  facet normal 0 0 -1
    outer loop
      vertex 0.0465231 5.16053 0
      vertex 3.9437 5.48418 0
      vertex 0.185359 4.43273 0
    endloop
  endfacet
  facet normal -0 0 -1
    outer loop
      vertex 3.9437 5.48418 0
      vertex 0.0465231 5.16053 0
      vertex 3.9 5.9 0
    endloop
  endfacet
  facet normal -0 0 -1
    outer loop
      vertex 3.9 5.9 0
      vertex 0.0465231 5.16053 0
      vertex 0 5.9 0
    endloop
  endfacet
  facet normal 0 0 -1
    outer loop
      vertex 0 20 0
      vertex 3.6 11.2989 0
      vertex 0 5.9 0
    endloop
  endfacet
  facet normal 0 0 -1
    outer loop
      vertex 3.6 11.2989 0
      vertex 0 20 0
      vertex 3.6 20 0
    endloop
  endfacet
  facet normal 0 0 -1
    outer loop
      vertex 7.9 5.9 0
      vertex 11.8 5.9 0
      vertex 11.6711 4.67332 0
    endloop
  endfacet
  facet normal 0 0 -1
    outer loop
      vertex 7.9 5.9 0
      vertex 11.6711 4.67332 0
      vertex 11.3238 3.60454 0
    endloop
  endfacet
  facet normal 0 0 -1
    outer loop
      vertex 11.8 5.9 0
      vertex 7.9 5.9 0
      vertex 11.6711 7.12668 0
    endloop
  endfacet
  facet normal 0 0 -1
    outer loop
      vertex 7.51803 7.07557 0
      vertex 10.6732 9.36793 0
      vertex 7.72709 6.71347 0
    endloop
  endfacet
  facet normal -0 0 -1
    outer loop
      vertex 10.6732 9.36793 0
      vertex 7.51803 7.07557 0
      vertex 9.84787 10.2846 0
    endloop
  endfacet
  facet normal 0 0 -1
    outer loop
      vertex 7.23826 7.38629 0
      vertex 9.84787 10.2846 0
      vertex 7.51803 7.07557 0
    endloop
  endfacet
  facet normal -0 0 -1
    outer loop
      vertex 9.84787 10.2846 0
      vertex 7.23826 7.38629 0
      vertex 8.85 11.0095 0
    endloop
  endfacet
  facet normal 0 0 -1
    outer loop
      vertex 6.9 7.63205 0
      vertex 8.85 11.0095 0
      vertex 7.23826 7.38629 0
    endloop
  endfacet
  facet normal -0 0 -1
    outer loop
      vertex 8.85 11.0095 0
      vertex 6.9 7.63205 0
      vertex 7.7232 11.5112 0
    endloop
  endfacet
  facet normal 0 0 -1
    outer loop
      vertex 6.51803 7.80211 0
      vertex 7.7232 11.5112 0
      vertex 6.9 7.63205 0
    endloop
  endfacet
  facet normal 0 0 -1
    outer loop
      vertex 6.51803 7.80211 0
      vertex 6.51672 11.7677 0
      vertex 7.7232 11.5112 0
    endloop
  endfacet
  facet normal 0 0 -1
    outer loop
      vertex 6.10906 7.88904 0
      vertex 6.51672 11.7677 0
      vertex 6.51803 7.80211 0
    endloop
  endfacet
  facet normal 0 0 -1
    outer loop
      vertex 5.69094 7.88904 0
      vertex 6.51672 11.7677 0
      vertex 6.10906 7.88904 0
    endloop
  endfacet
  facet normal 0 0 -1
    outer loop
      vertex 5.69094 7.88904 0
      vertex 5.28328 11.7677 0
      vertex 6.51672 11.7677 0
    endloop
  endfacet
  facet normal 0 0 -1
    outer loop
      vertex 5.28197 7.80211 0
      vertex 5.28328 11.7677 0
      vertex 5.69094 7.88904 0
    endloop
  endfacet
  facet normal 0 0 -1
    outer loop
      vertex 3.6 11.2989 0
      vertex 5.28197 7.80211 0
      vertex 4.9 7.63205 0
    endloop
  endfacet
  facet normal 0 0 -1
    outer loop
      vertex 3.6 11.2989 0
      vertex 4.9 7.63205 0
      vertex 4.56174 7.38629 0
    endloop
  endfacet
  facet normal 0 0 -1
    outer loop
      vertex 3.6 11.2989 0
      vertex 4.56174 7.38629 0
      vertex 4.28197 7.07557 0
    endloop
  endfacet
  facet normal 0 0 -1
    outer loop
      vertex 5.28197 7.80211 0
      vertex 4.0768 11.5112 0
      vertex 5.28328 11.7677 0
    endloop
  endfacet
  facet normal 0 0 -1
    outer loop
      vertex 3.6 11.2989 0
      vertex 4.28197 7.07557 0
      vertex 4.07291 6.71347 0
    endloop
  endfacet
  facet normal 0 0 -1
    outer loop
      vertex 3.6 11.2989 0
      vertex 4.07291 6.71347 0
      vertex 3.9437 6.31582 0
    endloop
  endfacet
  facet normal 0 0 -1
    outer loop
      vertex 3.6 11.2989 0
      vertex 3.9437 6.31582 0
      vertex 3.9 5.9 0
    endloop
  endfacet
  facet normal 0 0 -1
    outer loop
      vertex 5.28197 7.80211 0
      vertex 3.6 11.2989 0
      vertex 4.0768 11.5112 0
    endloop
  endfacet
  facet normal 0 1 -0
    outer loop
      vertex 20 3.60454 0
      vertex 11.3238 3.60454 3
      vertex 20 3.60454 3
    endloop
  endfacet
  facet normal 0 1 0
    outer loop
      vertex 11.3238 3.60454 3
      vertex 20 3.60454 0
      vertex 11.3238 3.60454 0
    endloop
  endfacet
  facet normal 1 -0 0
    outer loop
      vertex 3.6 11.2989 3
      vertex 3.6 20 0
      vertex 3.6 20 3
    endloop
  endfacet
  facet normal 1 0 0
    outer loop
      vertex 3.6 20 0
      vertex 3.6 11.2989 3
      vertex 3.6 11.2989 0
    endloop
  endfacet
  facet normal 0.866025 0.5 0
    outer loop
      vertex 11.2899 8.29975 3
      vertex 10.6732 9.36793 0
      vertex 10.6732 9.36793 3
    endloop
  endfacet
  facet normal 0.866025 0.5 0
    outer loop
      vertex 10.6732 9.36793 0
      vertex 11.2899 8.29975 3
      vertex 11.2899 8.29975 0
    endloop
  endfacet
  facet normal 0 1 -0
    outer loop
      vertex 6.51672 11.7677 0
      vertex 5.28328 11.7677 3
      vertex 6.51672 11.7677 3
    endloop
  endfacet
  facet normal 0 1 0
    outer loop
      vertex 5.28328 11.7677 3
      vertex 6.51672 11.7677 0
      vertex 5.28328 11.7677 0
    endloop
  endfacet
  facet normal 0.743145 0.669131 0
    outer loop
      vertex 10.6732 9.36793 3
      vertex 9.84787 10.2846 0
      vertex 9.84787 10.2846 3
    endloop
  endfacet
  facet normal 0.743145 0.669131 0
    outer loop
      vertex 9.84787 10.2846 0
      vertex 10.6732 9.36793 3
      vertex 10.6732 9.36793 0
    endloop
  endfacet
  facet normal 0.207912 0.978148 -0
    outer loop
      vertex 7.7232 11.5112 0
      vertex 6.51672 11.7677 3
      vertex 7.7232 11.5112 3
    endloop
  endfacet
  facet normal 0.207912 0.978148 0
    outer loop
      vertex 6.51672 11.7677 3
      vertex 7.7232 11.5112 0
      vertex 6.51672 11.7677 0
    endloop
  endfacet
  facet normal -0.406735 0.913546 0
    outer loop
      vertex 4.0768 11.5112 0
      vertex 3.6 11.2989 3
      vertex 4.0768 11.5112 3
    endloop
  endfacet
  facet normal -0.406735 0.913546 0
    outer loop
      vertex 3.6 11.2989 3
      vertex 4.0768 11.5112 0
      vertex 3.6 11.2989 0
    endloop
  endfacet
  facet normal 0.994522 -0.104528 0
    outer loop
      vertex 11.6711 4.67332 3
      vertex 11.8 5.9 0
      vertex 11.8 5.9 3
    endloop
  endfacet
  facet normal 0.994522 -0.104528 0
    outer loop
      vertex 11.8 5.9 0
      vertex 11.6711 4.67332 3
      vertex 11.6711 4.67332 0
    endloop
  endfacet
  facet normal 0.951057 0.309017 0
    outer loop
      vertex 11.6711 7.12668 3
      vertex 11.2899 8.29975 0
      vertex 11.2899 8.29975 3
    endloop
  endfacet
  facet normal 0.951057 0.309017 0
    outer loop
      vertex 11.2899 8.29975 0
      vertex 11.6711 7.12668 3
      vertex 11.6711 7.12668 0
    endloop
  endfacet
  facet normal 0.587785 0.809017 -0
    outer loop
      vertex 9.84787 10.2846 0
      vertex 8.85 11.0095 3
      vertex 9.84787 10.2846 3
    endloop
  endfacet
  facet normal 0.587785 0.809017 0
    outer loop
      vertex 8.85 11.0095 3
      vertex 9.84787 10.2846 0
      vertex 8.85 11.0095 0
    endloop
  endfacet
  facet normal 0.406736 0.913546 -0
    outer loop
      vertex 8.85 11.0095 0
      vertex 7.7232 11.5112 3
      vertex 8.85 11.0095 3
    endloop
  endfacet
  facet normal 0.406736 0.913546 0
    outer loop
      vertex 7.7232 11.5112 3
      vertex 8.85 11.0095 0
      vertex 7.7232 11.5112 0
    endloop
  endfacet
  facet normal -0.207912 0.978148 0
    outer loop
      vertex 5.28328 11.7677 0
      vertex 4.0768 11.5112 3
      vertex 5.28328 11.7677 3
    endloop
  endfacet
  facet normal -0.207912 0.978148 0
    outer loop
      vertex 4.0768 11.5112 3
      vertex 5.28328 11.7677 0
      vertex 4.0768 11.5112 0
    endloop
  endfacet
  facet normal 0.994522 0.104528 0
    outer loop
      vertex 11.8 5.9 3
      vertex 11.6711 7.12668 0
      vertex 11.6711 7.12668 3
    endloop
  endfacet
  facet normal 0.994522 0.104528 0
    outer loop
      vertex 11.6711 7.12668 0
      vertex 11.8 5.9 3
      vertex 11.8 5.9 0
    endloop
  endfacet
  facet normal 0.951057 -0.309016 0
    outer loop
      vertex 11.3238 3.60454 3
      vertex 11.6711 4.67332 0
      vertex 11.6711 4.67332 3
    endloop
  endfacet
  facet normal 0.951057 -0.309016 0
    outer loop
      vertex 11.6711 4.67332 0
      vertex 11.3238 3.60454 3
      vertex 11.3238 3.60454 0
    endloop
  endfacet
  facet normal 0.481754 0.876306 -0
    outer loop
      vertex 3.34339 1.611 1
      vertex 3.22087 1.67836 3
      vertex 3.34339 1.611 3
    endloop
  endfacet
  facet normal 0.481754 0.876306 0
    outer loop
      vertex 3.22087 1.67836 3
      vertex 3.34339 1.611 1
      vertex 3.22087 1.67836 1
    endloop
  endfacet
  facet normal 0.481754 0.876306 -0
    outer loop
      vertex 3.7711 1.37586 1
      vertex 3.49575 1.52724 3
      vertex 3.7711 1.37586 3
    endloop
  endfacet
  facet normal 0.481754 0.876306 0
    outer loop
      vertex 3.49575 1.52724 3
      vertex 3.7711 1.37586 1
      vertex 3.49575 1.52724 1
    endloop
  endfacet
  facet normal 1 -0 0
    outer loop
      vertex 0.9 5.9 3
      vertex 0.9 20 1
      vertex 0.9 20 3
    endloop
  endfacet
  facet normal 1 0 0
    outer loop
      vertex 0.9 20 1
      vertex 0.9 5.9 3
      vertex 0.9 5.9 1
    endloop
  endfacet
  facet normal 0.998027 0.0627894 0
    outer loop
      vertex 0.939426 5.27333 3
      vertex 0.9 5.89999 1
      vertex 0.9 5.89999 3
    endloop
  endfacet
  facet normal 0.998027 0.0627894 0
    outer loop
      vertex 0.9 5.89999 1
      vertex 0.939426 5.27333 3
      vertex 0.939426 5.27333 1
    endloop
  endfacet
  facet normal 0.24869 0.968583 -0
    outer loop
      vertex 4.96309 0.988563 1
      vertex 4.35491 1.14472 3
      vertex 4.96309 0.988563 3
    endloop
  endfacet
  facet normal 0.24869 0.968583 0
    outer loop
      vertex 4.35491 1.14472 3
      vertex 4.96309 0.988563 1
      vertex 4.35491 1.14472 1
    endloop
  endfacet
  facet normal 0.587785 0.809017 -0
    outer loop
      vertex 3.22087 1.67836 1
      vertex 2.71288 2.04743 3
      vertex 3.22087 1.67836 3
    endloop
  endfacet
  facet normal 0.587785 0.809017 0
    outer loop
      vertex 2.71288 2.04743 3
      vertex 3.22087 1.67836 1
      vertex 2.71288 2.04743 1
    endloop
  endfacet
  facet normal 0.982287 0.187381 0
    outer loop
      vertex 0.998307 4.96467 3
      vertex 0.939426 5.27333 1
      vertex 0.939426 5.27333 3
    endloop
  endfacet
  facet normal 0.982287 0.187381 0
    outer loop
      vertex 0.939426 5.27333 1
      vertex 0.998307 4.96467 3
      vertex 0.998307 4.96467 1
    endloop
  endfacet
  facet normal 0.982287 0.187381 0
    outer loop
      vertex 1.05708 4.65655 3
      vertex 1.03088 4.7939 1
      vertex 1.03088 4.7939 3
    endloop
  endfacet
  facet normal 0.982287 0.187381 0
    outer loop
      vertex 1.03088 4.7939 1
      vertex 1.05708 4.65655 3
      vertex 1.05708 4.65655 1
    endloop
  endfacet
  facet normal 0 1 -0
    outer loop
      vertex 20 0.909866 1
      vertex 5.58605 0.909866 3
      vertex 20 0.909866 3
    endloop
  endfacet
  facet normal 0 1 0
    outer loop
      vertex 5.58605 0.909866 3
      vertex 20 0.909866 1
      vertex 5.58605 0.909866 1
    endloop
  endfacet
  facet normal 0.951056 0.309018 0
    outer loop
      vertex 1.25112 4.05938 3
      vertex 1.05708 4.65655 1
      vertex 1.05708 4.65655 3
    endloop
  endfacet
  facet normal 0.951056 0.309018 0
    outer loop
      vertex 1.05708 4.65655 1
      vertex 1.25112 4.05938 3
      vertex 1.25112 4.05938 1
    endloop
  endfacet
  facet normal 0.125333 0.992115 -0
    outer loop
      vertex 5.27485 0.949179 1
      vertex 4.96309 0.988563 3
      vertex 5.27485 0.949179 3
    endloop
  endfacet
  facet normal 0.125333 0.992115 0
    outer loop
      vertex 4.96309 0.988563 3
      vertex 5.27485 0.949179 1
      vertex 4.96309 0.988563 1
    endloop
  endfacet
  facet normal 0.125333 0.992115 -0
    outer loop
      vertex 5.58605 0.909866 1
      vertex 5.44733 0.92739 3
      vertex 5.58605 0.909866 3
    endloop
  endfacet
  facet normal 0.125333 0.992115 0
    outer loop
      vertex 5.44733 0.92739 3
      vertex 5.58605 0.909866 1
      vertex 5.44733 0.92739 1
    endloop
  endfacet
  facet normal 0.770513 0.637424 0
    outer loop
      vertex 2.25516 2.47726 3
      vertex 1.85491 2.96107 1
      vertex 1.85491 2.96107 3
    endloop
  endfacet
  facet normal 0.770513 0.637424 0
    outer loop
      vertex 1.85491 2.96107 1
      vertex 2.25516 2.47726 3
      vertex 2.25516 2.47726 1
    endloop
  endfacet
  facet normal 0.844329 0.535826 0
    outer loop
      vertex 1.85491 2.96107 3
      vertex 1.51847 3.49123 1
      vertex 1.51847 3.49123 3
    endloop
  endfacet
  facet normal 0.844329 0.535826 0
    outer loop
      vertex 1.51847 3.49123 1
      vertex 1.85491 2.96107 3
      vertex 1.85491 2.96107 1
    endloop
  endfacet
  facet normal 0.904827 0.425779 0
    outer loop
      vertex 1.31065 3.93287 3
      vertex 1.25112 4.05938 1
      vertex 1.25112 4.05938 3
    endloop
  endfacet
  facet normal 0.904827 0.425779 0
    outer loop
      vertex 1.25112 4.05938 1
      vertex 1.31065 3.93287 3
      vertex 1.31065 3.93287 1
    endloop
  endfacet
  facet normal 0.904827 0.425779 0
    outer loop
      vertex 1.51847 3.49123 3
      vertex 1.38468 3.77555 1
      vertex 1.38468 3.77555 3
    endloop
  endfacet
  facet normal 0.904827 0.425779 0
    outer loop
      vertex 1.38468 3.77555 1
      vertex 1.51847 3.49123 3
      vertex 1.51847 3.49123 1
    endloop
  endfacet
  facet normal 0.368126 0.929776 -0
    outer loop
      vertex 4.35491 1.14472 1
      vertex 3.7711 1.37586 3
      vertex 4.35491 1.14472 3
    endloop
  endfacet
  facet normal 0.368126 0.929776 0
    outer loop
      vertex 3.7711 1.37586 3
      vertex 4.35491 1.14472 1
      vertex 3.7711 1.37586 1
    endloop
  endfacet
  facet normal 0.684547 0.728969 -0
    outer loop
      vertex 2.48422 2.26216 1
      vertex 2.25516 2.47726 3
      vertex 2.48422 2.26216 3
    endloop
  endfacet
  facet normal 0.684547 0.728969 0
    outer loop
      vertex 2.25516 2.47726 3
      vertex 2.48422 2.26216 1
      vertex 2.25516 2.47726 1
    endloop
  endfacet
  facet normal 0.684546 0.72897 -0
    outer loop
      vertex 2.71288 2.04743 1
      vertex 2.61095 2.14315 3
      vertex 2.71288 2.04743 3
    endloop
  endfacet
  facet normal 0.684546 0.72897 0
    outer loop
      vertex 2.61095 2.14315 3
      vertex 2.71288 2.04743 1
      vertex 2.61095 2.14315 1
    endloop
  endfacet
  facet normal 0 0 1
    outer loop
      vertex 7.9 5.9 1
      vertex 10.9 5.9 1
      vertex 10.7907 6.93956 1
    endloop
  endfacet
  facet normal 0 0 1
    outer loop
      vertex 7.85629 6.31582 1
      vertex 10.7907 6.93956 1
      vertex 10.4677 7.93368 1
    endloop
  endfacet
  facet normal 0 0 1
    outer loop
      vertex 10.9 5.9 1
      vertex 7.9 5.9 1
      vertex 10.7907 4.86044 1
    endloop
  endfacet
  facet normal 0 0 1
    outer loop
      vertex 7.72709 6.71347 1
      vertex 10.4677 7.93368 1
      vertex 9.94508 8.83893 1
    endloop
  endfacet
  facet normal -0 0 1
    outer loop
      vertex 7.85629 5.48418 1
      vertex 10.7907 4.86044 1
      vertex 7.9 5.9 1
    endloop
  endfacet
  facet normal 0 0 1
    outer loop
      vertex 10.7907 4.86044 1
      vertex 7.85629 5.48418 1
      vertex 10.4677 3.86632 1
    endloop
  endfacet
  facet normal 0 0 1
    outer loop
      vertex 7.51803 7.07557 1
      vertex 9.94508 8.83893 1
      vertex 9.24565 9.61572 1
    endloop
  endfacet
  facet normal -0 0 1
    outer loop
      vertex 9.7157 2.70631 1
      vertex 20 0.909866 1
      vertex 20 2.70631 1
    endloop
  endfacet
  facet normal 0 0 1
    outer loop
      vertex 7.23826 7.38629 1
      vertex 9.24565 9.61572 1
      vertex 8.4 10.2301 1
    endloop
  endfacet
  facet normal 0 0 1
    outer loop
      vertex 10.7907 6.93956 1
      vertex 7.85629 6.31582 1
      vertex 7.9 5.9 1
    endloop
  endfacet
  facet normal 0 0 1
    outer loop
      vertex 10.4677 3.86632 1
      vertex 7.72709 5.08653 1
      vertex 9.94508 2.96107 1
    endloop
  endfacet
  facet normal -0 0 1
    outer loop
      vertex 7.51803 4.72443 1
      vertex 9.94508 2.96107 1
      vertex 7.72709 5.08653 1
    endloop
  endfacet
  facet normal 0 0 1
    outer loop
      vertex 9.94508 2.96107 1
      vertex 7.51803 4.72443 1
      vertex 9.7157 2.70631 1
    endloop
  endfacet
  facet normal -0 0 1
    outer loop
      vertex 7.23826 4.41371 1
      vertex 9.7157 2.70631 1
      vertex 7.51803 4.72443 1
    endloop
  endfacet
  facet normal -0 0 1
    outer loop
      vertex 6.9 4.16795 1
      vertex 9.7157 2.70631 1
      vertex 7.23826 4.41371 1
    endloop
  endfacet
  facet normal -0 0 1
    outer loop
      vertex 6.51803 3.99789 1
      vertex 9.7157 2.70631 1
      vertex 6.9 4.16795 1
    endloop
  endfacet
  facet normal 0 0 1
    outer loop
      vertex 5.58605 0.909866 1
      vertex 6.51803 3.99789 1
      vertex 6.10906 3.91096 1
    endloop
  endfacet
  facet normal 0 0 1
    outer loop
      vertex 5.58605 0.909866 1
      vertex 6.10906 3.91096 1
      vertex 5.69094 3.91096 1
    endloop
  endfacet
  facet normal 0 0 1
    outer loop
      vertex 9.7157 2.70631 1
      vertex 5.58605 0.909866 1
      vertex 20 0.909866 1
    endloop
  endfacet
  facet normal 0 0 1
    outer loop
      vertex 6.51803 3.99789 1
      vertex 5.58605 0.909866 1
      vertex 9.7157 2.70631 1
    endloop
  endfacet
  facet normal 0 0 1
    outer loop
      vertex 5.69094 3.91096 1
      vertex 5.44733 0.92739 1
      vertex 5.58605 0.909866 1
    endloop
  endfacet
  facet normal -0 0 1
    outer loop
      vertex 5.27485 0.949179 1
      vertex 5.44733 0.92739 1
      vertex 5.69094 3.91096 1
    endloop
  endfacet
  facet normal 0 0 1
    outer loop
      vertex 4.96309 0.988563 1
      vertex 5.69094 3.91096 1
      vertex 5.28197 3.99789 1
    endloop
  endfacet
  facet normal 0 0 1
    outer loop
      vertex 5.44733 0.92739 1
      vertex 5.27485 0.949179 1
      vertex 5.37736 0.92739 1
    endloop
  endfacet
  facet normal 0 0 1
    outer loop
      vertex 5.69094 3.91096 1
      vertex 4.96309 0.988563 1
      vertex 5.27485 0.949179 1
    endloop
  endfacet
  facet normal 0 0 1
    outer loop
      vertex 3.7711 1.37586 1
      vertex 5.28197 3.99789 1
      vertex 4.9 4.16795 1
    endloop
  endfacet
  facet normal 0 0 1
    outer loop
      vertex 3.22087 1.67836 1
      vertex 4.9 4.16795 1
      vertex 4.56174 4.41371 1
    endloop
  endfacet
  facet normal 0 0 1
    outer loop
      vertex 5.28197 3.99789 1
      vertex 4.35491 1.14472 1
      vertex 4.96309 0.988563 1
    endloop
  endfacet
  facet normal 0 0 1
    outer loop
      vertex 2.61095 2.14315 1
      vertex 4.56174 4.41371 1
      vertex 4.28197 4.72443 1
    endloop
  endfacet
  facet normal 0 0 1
    outer loop
      vertex 2.61095 2.14315 1
      vertex 4.28197 4.72443 1
      vertex 4.07291 5.08653 1
    endloop
  endfacet
  facet normal 0 0 1
    outer loop
      vertex 2.61095 2.14315 1
      vertex 4.07291 5.08653 1
      vertex 3.9437 5.48418 1
    endloop
  endfacet
  facet normal 0 0 1
    outer loop
      vertex 2.61095 2.14315 1
      vertex 3.9437 5.48418 1
      vertex 3.9 5.9 1
    endloop
  endfacet
  facet normal 0 0 1
    outer loop
      vertex 5.28197 3.99789 1
      vertex 3.7711 1.37586 1
      vertex 4.35491 1.14472 1
    endloop
  endfacet
  facet normal -0 0 1
    outer loop
      vertex 0.9 20 1
      vertex 2.7 9.72155 1
      vertex 2.7 20 1
    endloop
  endfacet
  facet normal 0 -0 1
    outer loop
      vertex 0.9 5.89999 1
      vertex 2.7 9.72155 1
      vertex 0.9 5.9 1
    endloop
  endfacet
  facet normal 0 -0 1
    outer loop
      vertex 2.48422 2.26216 1
      vertex 2.7 9.72155 1
      vertex 0.9 5.89999 1
    endloop
  endfacet
  facet normal 0 0 1
    outer loop
      vertex 2.61095 2.14315 1
      vertex 2.48422 2.26216 1
      vertex 2.55435 2.18428 1
    endloop
  endfacet
  facet normal 0 0 1
    outer loop
      vertex 2.7 9.72155 1
      vertex 2.48422 2.26216 1
      vertex 2.61095 2.14315 1
    endloop
  endfacet
  facet normal -0 -0 1
    outer loop
      vertex 1.38468 3.77555 1
      vertex 2.48422 2.26216 1
      vertex 0.9 5.89999 1
    endloop
  endfacet
  facet normal -0 -0 1
    outer loop
      vertex 1.85491 2.96107 1
      vertex 2.48422 2.26216 1
      vertex 1.38468 3.77555 1
    endloop
  endfacet
  facet normal 0 0 1
    outer loop
      vertex 2.48422 2.26216 1
      vertex 1.85491 2.96107 1
      vertex 2.25516 2.47726 1
    endloop
  endfacet
  facet normal 0 0 1
    outer loop
      vertex 1.85491 2.96107 1
      vertex 1.38468 3.77555 1
      vertex 1.51847 3.49123 1
    endloop
  endfacet
  facet normal 0 0 1
    outer loop
      vertex 1.38468 3.77555 1
      vertex 1.31065 3.93287 1
      vertex 1.33227 3.86632 1
    endloop
  endfacet
  facet normal -0 -0 1
    outer loop
      vertex 0.998307 4.96467 1
      vertex 1.38468 3.77555 1
      vertex 0.9 5.89999 1
    endloop
  endfacet
  facet normal 0 0 1
    outer loop
      vertex 1.38468 3.77555 1
      vertex 0.998307 4.96467 1
      vertex 1.31065 3.93287 1
    endloop
  endfacet
  facet normal 0 0 1
    outer loop
      vertex 1.25112 4.05938 1
      vertex 1.03088 4.7939 1
      vertex 1.05708 4.65655 1
    endloop
  endfacet
  facet normal 0 0 1
    outer loop
      vertex 1.03088 4.7939 1
      vertex 0.998307 4.96467 1
      vertex 1.00926 4.86044 1
    endloop
  endfacet
  facet normal -0 -0 1
    outer loop
      vertex 1.03088 4.7939 1
      vertex 1.31065 3.93287 1
      vertex 0.998307 4.96467 1
    endloop
  endfacet
  facet normal 0 0 1
    outer loop
      vertex 0.998307 4.96467 1
      vertex 0.9 5.89999 1
      vertex 0.939426 5.27333 1
    endloop
  endfacet
  facet normal 0 0 1
    outer loop
      vertex 2.7 9.72155 1
      vertex 0.9 20 1
      vertex 0.9 5.9 1
    endloop
  endfacet
  facet normal 0 0 1
    outer loop
      vertex 1.31065 3.93287 1
      vertex 1.03088 4.7939 1
      vertex 1.25112 4.05938 1
    endloop
  endfacet
  facet normal -0 0 1
    outer loop
      vertex 7.72709 5.08653 1
      vertex 10.4677 3.86632 1
      vertex 7.85629 5.48418 1
    endloop
  endfacet
  facet normal 0 0 1
    outer loop
      vertex 10.4677 7.93368 1
      vertex 7.72709 6.71347 1
      vertex 7.85629 6.31582 1
    endloop
  endfacet
  facet normal 0 0 1
    outer loop
      vertex 9.94508 8.83893 1
      vertex 7.51803 7.07557 1
      vertex 7.72709 6.71347 1
    endloop
  endfacet
  facet normal 0 0 1
    outer loop
      vertex 6.9 7.63205 1
      vertex 8.4 10.2301 1
      vertex 7.44508 10.6553 1
    endloop
  endfacet
  facet normal 0 0 1
    outer loop
      vertex 9.24565 9.61572 1
      vertex 7.23826 7.38629 1
      vertex 7.51803 7.07557 1
    endloop
  endfacet
  facet normal 0 0 1
    outer loop
      vertex 8.4 10.2301 1
      vertex 6.9 7.63205 1
      vertex 7.23826 7.38629 1
    endloop
  endfacet
  facet normal 0 0 1
    outer loop
      vertex 7.44508 10.6553 1
      vertex 6.51803 7.80211 1
      vertex 6.9 7.63205 1
    endloop
  endfacet
  facet normal 0 0 1
    outer loop
      vertex 6.42264 10.8726 1
      vertex 6.51803 7.80211 1
      vertex 7.44508 10.6553 1
    endloop
  endfacet
  facet normal 0 0 1
    outer loop
      vertex 6.42264 10.8726 1
      vertex 6.10906 7.88904 1
      vertex 6.51803 7.80211 1
    endloop
  endfacet
  facet normal 0 0 1
    outer loop
      vertex 6.42264 10.8726 1
      vertex 5.69094 7.88904 1
      vertex 6.10906 7.88904 1
    endloop
  endfacet
  facet normal -0 0 1
    outer loop
      vertex 5.37736 10.8726 1
      vertex 5.69094 7.88904 1
      vertex 6.42264 10.8726 1
    endloop
  endfacet
  facet normal 0 0 1
    outer loop
      vertex 5.37736 10.8726 1
      vertex 5.28197 7.80211 1
      vertex 5.69094 7.88904 1
    endloop
  endfacet
  facet normal -0 0 1
    outer loop
      vertex 4.35491 10.6553 1
      vertex 5.28197 7.80211 1
      vertex 5.37736 10.8726 1
    endloop
  endfacet
  facet normal 0 0 1
    outer loop
      vertex 5.28197 7.80211 1
      vertex 4.35491 10.6553 1
      vertex 4.9 7.63205 1
    endloop
  endfacet
  facet normal -0 0 1
    outer loop
      vertex 3.4 10.2301 1
      vertex 4.9 7.63205 1
      vertex 4.35491 10.6553 1
    endloop
  endfacet
  facet normal -0 0 1
    outer loop
      vertex 2.7 9.72155 1
      vertex 4.9 7.63205 1
      vertex 3.4 10.2301 1
    endloop
  endfacet
  facet normal 0 0 1
    outer loop
      vertex 4.9 7.63205 1
      vertex 2.7 9.72155 1
      vertex 4.56174 7.38629 1
    endloop
  endfacet
  facet normal 0 0 1
    outer loop
      vertex 4.56174 7.38629 1
      vertex 2.7 9.72155 1
      vertex 4.28197 7.07557 1
    endloop
  endfacet
  facet normal 0 0 1
    outer loop
      vertex 4.28197 7.07557 1
      vertex 2.7 9.72155 1
      vertex 4.07291 6.71347 1
    endloop
  endfacet
  facet normal 0 0 1
    outer loop
      vertex 4.9 4.16795 1
      vertex 3.49575 1.52724 1
      vertex 3.7711 1.37586 1
    endloop
  endfacet
  facet normal 0 0 1
    outer loop
      vertex 4.07291 6.71347 1
      vertex 2.7 9.72155 1
      vertex 3.9437 6.31582 1
    endloop
  endfacet
  facet normal 0 0 1
    outer loop
      vertex 3.9437 6.31582 1
      vertex 2.7 9.72155 1
      vertex 3.9 5.9 1
    endloop
  endfacet
  facet normal 0 0 1
    outer loop
      vertex 2.61095 2.14315 1
      vertex 3.9 5.9 1
      vertex 2.7 9.72155 1
    endloop
  endfacet
  facet normal 0 0 1
    outer loop
      vertex 3.49575 1.52724 1
      vertex 3.34339 1.611 1
      vertex 3.4 1.56987 1
    endloop
  endfacet
  facet normal 0 0 1
    outer loop
      vertex 4.56174 4.41371 1
      vertex 2.61095 2.14315 1
      vertex 2.71288 2.04743 1
    endloop
  endfacet
  facet normal 0 0 1
    outer loop
      vertex 4.9 4.16795 1
      vertex 3.22087 1.67836 1
      vertex 3.34339 1.611 1
    endloop
  endfacet
  facet normal 0 0 1
    outer loop
      vertex 4.9 4.16795 1
      vertex 3.34339 1.611 1
      vertex 3.49575 1.52724 1
    endloop
  endfacet
  facet normal 0 0 1
    outer loop
      vertex 4.56174 4.41371 1
      vertex 2.71288 2.04743 1
      vertex 3.22087 1.67836 1
    endloop
  endfacet
  facet normal -1 0 0
    outer loop
      vertex 2.7 9.72155 1
      vertex 2.7 20 3
      vertex 2.7 20 1
    endloop
  endfacet
  facet normal -1 -0 0
    outer loop
      vertex 2.7 20 3
      vertex 2.7 9.72155 1
      vertex 2.7 9.72155 3
    endloop
  endfacet
  facet normal 0 -1 0
    outer loop
      vertex 9.7157 2.70631 1
      vertex 20 2.70631 3
      vertex 9.7157 2.70631 3
    endloop
  endfacet
  facet normal 0 -1 -0
    outer loop
      vertex 20 2.70631 3
      vertex 9.7157 2.70631 1
      vertex 20 2.70631 1
    endloop
  endfacet
  facet normal -0.406737 -0.913545 0
    outer loop
      vertex 7.44508 10.6553 1
      vertex 8.4 10.2301 3
      vertex 7.44508 10.6553 3
    endloop
  endfacet
  facet normal -0.406737 -0.913545 -0
    outer loop
      vertex 8.4 10.2301 3
      vertex 7.44508 10.6553 1
      vertex 8.4 10.2301 1
    endloop
  endfacet
  facet normal -0.994522 0.104529 0
    outer loop
      vertex 10.7907 4.86044 1
      vertex 10.9 5.9 3
      vertex 10.9 5.9 1
    endloop
  endfacet
  facet normal -0.994522 0.104529 0
    outer loop
      vertex 10.9 5.9 3
      vertex 10.7907 4.86044 1
      vertex 10.7907 4.86044 3
    endloop
  endfacet
  facet normal 0 1 -0
    outer loop
      vertex 5.44733 0.92739 1
      vertex 5.37736 0.92739 3
      vertex 5.44733 0.92739 3
    endloop
  endfacet
  facet normal 0 1 0
    outer loop
      vertex 5.37736 0.92739 3
      vertex 5.44733 0.92739 1
      vertex 5.37736 0.92739 1
    endloop
  endfacet
  facet normal 0 -1 0
    outer loop
      vertex 5.37736 10.8726 1
      vertex 6.42264 10.8726 3
      vertex 5.37736 10.8726 3
    endloop
  endfacet
  facet normal 0 -1 -0
    outer loop
      vertex 6.42264 10.8726 3
      vertex 5.37736 10.8726 1
      vertex 6.42264 10.8726 1
    endloop
  endfacet
  facet normal 0.406737 -0.913545 0
    outer loop
      vertex 3.4 10.2301 1
      vertex 4.35491 10.6553 3
      vertex 3.4 10.2301 3
    endloop
  endfacet
  facet normal 0.406737 -0.913545 0
    outer loop
      vertex 4.35491 10.6553 3
      vertex 3.4 10.2301 1
      vertex 4.35491 10.6553 1
    endloop
  endfacet
  facet normal -0.743144 0.669131 0
    outer loop
      vertex 9.7157 2.70631 1
      vertex 9.94508 2.96107 3
      vertex 9.94508 2.96107 1
    endloop
  endfacet
  facet normal -0.743144 0.669131 0
    outer loop
      vertex 9.94508 2.96107 3
      vertex 9.7157 2.70631 1
      vertex 9.7157 2.70631 3
    endloop
  endfacet
  facet normal -0.951057 -0.309017 0
    outer loop
      vertex 10.7907 6.93956 1
      vertex 10.4677 7.93368 3
      vertex 10.4677 7.93368 1
    endloop
  endfacet
  facet normal -0.951057 -0.309017 0
    outer loop
      vertex 10.4677 7.93368 3
      vertex 10.7907 6.93956 1
      vertex 10.7907 6.93956 3
    endloop
  endfacet
  facet normal -0.866025 -0.5 0
    outer loop
      vertex 10.4677 7.93368 1
      vertex 9.94508 8.83893 3
      vertex 9.94508 8.83893 1
    endloop
  endfacet
  facet normal -0.866025 -0.5 0
    outer loop
      vertex 9.94508 8.83893 3
      vertex 10.4677 7.93368 1
      vertex 10.4677 7.93368 3
    endloop
  endfacet
  facet normal -0.743145 -0.669131 0
    outer loop
      vertex 9.94508 8.83893 1
      vertex 9.24565 9.61572 3
      vertex 9.24565 9.61572 1
    endloop
  endfacet
  facet normal -0.743145 -0.669131 0
    outer loop
      vertex 9.24565 9.61572 3
      vertex 9.94508 8.83893 1
      vertex 9.94508 8.83893 3
    endloop
  endfacet
  facet normal -0.587785 -0.809017 0
    outer loop
      vertex 8.4 10.2301 1
      vertex 9.24565 9.61572 3
      vertex 8.4 10.2301 3
    endloop
  endfacet
  facet normal -0.587785 -0.809017 -0
    outer loop
      vertex 9.24565 9.61572 3
      vertex 8.4 10.2301 1
      vertex 9.24565 9.61572 1
    endloop
  endfacet
  facet normal -0.207912 -0.978148 0
    outer loop
      vertex 6.42264 10.8726 1
      vertex 7.44508 10.6553 3
      vertex 6.42264 10.8726 3
    endloop
  endfacet
  facet normal -0.207912 -0.978148 -0
    outer loop
      vertex 7.44508 10.6553 3
      vertex 6.42264 10.8726 1
      vertex 7.44508 10.6553 1
    endloop
  endfacet
  facet normal 0.994522 0.104528 0
    outer loop
      vertex 1.00926 4.86044 3
      vertex 0.998307 4.96467 1
      vertex 0.998307 4.96467 3
    endloop
  endfacet
  facet normal 0.994522 0.104528 0
    outer loop
      vertex 0.998307 4.96467 1
      vertex 1.00926 4.86044 3
      vertex 1.00926 4.86044 1
    endloop
  endfacet
  facet normal 0.993731 0.111795 0
    outer loop
      vertex 0.9 5.89999 3
      vertex 0.9 5.9 1
      vertex 0.9 5.9 3
    endloop
  endfacet
  facet normal 0.993731 0.111795 0
    outer loop
      vertex 0.9 5.9 1
      vertex 0.9 5.89999 3
      vertex 0.9 5.89999 1
    endloop
  endfacet
  facet normal 0.587785 -0.809017 0
    outer loop
      vertex 2.7 9.72155 1
      vertex 3.4 10.2301 3
      vertex 2.7 9.72155 3
    endloop
  endfacet
  facet normal 0.587785 -0.809017 0
    outer loop
      vertex 3.4 10.2301 3
      vertex 2.7 9.72155 1
      vertex 3.4 10.2301 1
    endloop
  endfacet
  facet normal 0.207912 -0.978148 0
    outer loop
      vertex 4.35491 10.6553 1
      vertex 5.37736 10.8726 3
      vertex 4.35491 10.6553 3
    endloop
  endfacet
  facet normal 0.207912 -0.978148 0
    outer loop
      vertex 5.37736 10.8726 3
      vertex 4.35491 10.6553 1
      vertex 5.37736 10.8726 1
    endloop
  endfacet
  facet normal -0.994522 -0.104529 0
    outer loop
      vertex 10.9 5.9 1
      vertex 10.7907 6.93956 3
      vertex 10.7907 6.93956 1
    endloop
  endfacet
  facet normal -0.994522 -0.104529 0
    outer loop
      vertex 10.7907 6.93956 3
      vertex 10.9 5.9 1
      vertex 10.9 5.9 3
    endloop
  endfacet
  facet normal -0.866025 0.5 0
    outer loop
      vertex 9.94508 2.96107 1
      vertex 10.4677 3.86632 3
      vertex 10.4677 3.86632 1
    endloop
  endfacet
  facet normal -0.866025 0.5 0
    outer loop
      vertex 10.4677 3.86632 3
      vertex 9.94508 2.96107 1
      vertex 9.94508 2.96107 3
    endloop
  endfacet
  facet normal -0.951057 0.309017 0
    outer loop
      vertex 10.4677 3.86632 1
      vertex 10.7907 4.86044 3
      vertex 10.7907 4.86044 1
    endloop
  endfacet
  facet normal -0.951057 0.309017 0
    outer loop
      vertex 10.7907 4.86044 3
      vertex 10.4677 3.86632 1
      vertex 10.4677 3.86632 3
    endloop
  endfacet
  facet normal 0.406736 0.913546 -0
    outer loop
      vertex 3.49575 1.52724 1
      vertex 3.4 1.56987 3
      vertex 3.49575 1.52724 3
    endloop
  endfacet
  facet normal 0.406736 0.913546 0
    outer loop
      vertex 3.4 1.56987 3
      vertex 3.49575 1.52724 1
      vertex 3.4 1.56987 1
    endloop
  endfacet
  facet normal 0.743144 0.669132 0
    outer loop
      vertex 2.55435 2.18428 3
      vertex 2.48422 2.26216 1
      vertex 2.48422 2.26216 3
    endloop
  endfacet
  facet normal 0.743144 0.669132 0
    outer loop
      vertex 2.48422 2.26216 1
      vertex 2.55435 2.18428 3
      vertex 2.55435 2.18428 1
    endloop
  endfacet
  facet normal 0.951056 0.309018 0
    outer loop
      vertex 1.03088 4.7939 3
      vertex 1.00926 4.86044 1
      vertex 1.00926 4.86044 3
    endloop
  endfacet
  facet normal 0.951056 0.309018 0
    outer loop
      vertex 1.00926 4.86044 1
      vertex 1.03088 4.7939 3
      vertex 1.03088 4.7939 1
    endloop
  endfacet
  facet normal 0.951056 0.309017 0
    outer loop
      vertex 1.33227 3.86632 3
      vertex 1.31065 3.93287 1
      vertex 1.31065 3.93287 3
    endloop
  endfacet
  facet normal 0.951056 0.309017 0
    outer loop
      vertex 1.31065 3.93287 1
      vertex 1.33227 3.86632 3
      vertex 1.33227 3.86632 1
    endloop
  endfacet
  facet normal 0.587785 0.809017 -0
    outer loop
      vertex 3.4 1.56987 1
      vertex 3.34339 1.611 3
      vertex 3.4 1.56987 3
    endloop
  endfacet
  facet normal 0.587785 0.809017 0
    outer loop
      vertex 3.34339 1.611 3
      vertex 3.4 1.56987 1
      vertex 3.34339 1.611 1
    endloop
  endfacet
  facet normal 0.587787 0.809016 -0
    outer loop
      vertex 2.61095 2.14315 1
      vertex 2.55435 2.18428 3
      vertex 2.61095 2.14315 3
    endloop
  endfacet
  facet normal 0.587787 0.809016 0
    outer loop
      vertex 2.55435 2.18428 3
      vertex 2.61095 2.14315 1
      vertex 2.55435 2.18428 1
    endloop
  endfacet
  facet normal 0.207912 0.978148 -0
    outer loop
      vertex 5.37736 0.92739 1
      vertex 5.27485 0.949179 3
      vertex 5.37736 0.92739 3
    endloop
  endfacet
  facet normal 0.207912 0.978148 0
    outer loop
      vertex 5.27485 0.949179 3
      vertex 5.37736 0.92739 1
      vertex 5.27485 0.949179 1
    endloop
  endfacet
  facet normal 0.866025 0.500001 0
    outer loop
      vertex 1.38468 3.77555 3
      vertex 1.33227 3.86632 1
      vertex 1.33227 3.86632 3
    endloop
  endfacet
  facet normal 0.866025 0.500001 0
    outer loop
      vertex 1.33227 3.86632 1
      vertex 1.38468 3.77555 3
      vertex 1.38468 3.77555 1
    endloop
  endfacet
  facet normal -0.406736 -0.913546 0
    outer loop
      vertex 6.51803 7.80211 0
      vertex 6.9 7.63205 1
      vertex 6.51803 7.80211 1
    endloop
  endfacet
  facet normal -0.406736 -0.913546 -0
    outer loop
      vertex 6.9 7.63205 1
      vertex 6.51803 7.80211 0
      vertex 6.9 7.63205 0
    endloop
  endfacet
  facet normal -0.994522 0.104529 0
    outer loop
      vertex 7.85629 5.48418 0
      vertex 7.9 5.9 1
      vertex 7.9 5.9 0
    endloop
  endfacet
  facet normal -0.994522 0.104529 0
    outer loop
      vertex 7.9 5.9 1
      vertex 7.85629 5.48418 0
      vertex 7.85629 5.48418 1
    endloop
  endfacet
  facet normal 0.207913 0.978147 -0
    outer loop
      vertex 5.69094 3.91096 0
      vertex 5.28197 3.99789 1
      vertex 5.69094 3.91096 1
    endloop
  endfacet
  facet normal 0.207913 0.978147 0
    outer loop
      vertex 5.28197 3.99789 1
      vertex 5.69094 3.91096 0
      vertex 5.28197 3.99789 0
    endloop
  endfacet
  facet normal 0.406737 -0.913545 0
    outer loop
      vertex 4.9 7.63205 0
      vertex 5.28197 7.80211 1
      vertex 4.9 7.63205 1
    endloop
  endfacet
  facet normal 0.406737 -0.913545 0
    outer loop
      vertex 5.28197 7.80211 1
      vertex 4.9 7.63205 0
      vertex 5.28197 7.80211 0
    endloop
  endfacet
  facet normal 0.951057 -0.309016 0
    outer loop
      vertex 3.9437 6.31582 1
      vertex 4.07291 6.71347 0
      vertex 4.07291 6.71347 1
    endloop
  endfacet
  facet normal 0.951057 -0.309016 0
    outer loop
      vertex 4.07291 6.71347 0
      vertex 3.9437 6.31582 1
      vertex 3.9437 6.31582 0
    endloop
  endfacet
  facet normal 0.951057 0.309016 0
    outer loop
      vertex 4.07291 5.08653 1
      vertex 3.9437 5.48418 0
      vertex 3.9437 5.48418 1
    endloop
  endfacet
  facet normal 0.951057 0.309016 0
    outer loop
      vertex 3.9437 5.48418 0
      vertex 4.07291 5.08653 1
      vertex 4.07291 5.08653 0
    endloop
  endfacet
  facet normal -0.951056 -0.309018 0
    outer loop
      vertex 7.85629 6.31582 0
      vertex 7.72709 6.71347 1
      vertex 7.72709 6.71347 0
    endloop
  endfacet
  facet normal -0.951056 -0.309018 0
    outer loop
      vertex 7.72709 6.71347 1
      vertex 7.85629 6.31582 0
      vertex 7.85629 6.31582 1
    endloop
  endfacet
  facet normal -0.866026 -0.499999 0
    outer loop
      vertex 7.72709 6.71347 0
      vertex 7.51803 7.07557 1
      vertex 7.51803 7.07557 0
    endloop
  endfacet
  facet normal -0.866026 -0.499999 0
    outer loop
      vertex 7.51803 7.07557 1
      vertex 7.72709 6.71347 0
      vertex 7.72709 6.71347 1
    endloop
  endfacet
  facet normal -0.743144 -0.669131 0
    outer loop
      vertex 7.51803 7.07557 0
      vertex 7.23826 7.38629 1
      vertex 7.23826 7.38629 0
    endloop
  endfacet
  facet normal -0.743144 -0.669131 0
    outer loop
      vertex 7.23826 7.38629 1
      vertex 7.51803 7.07557 0
      vertex 7.51803 7.07557 1
    endloop
  endfacet
  facet normal -0.587787 -0.809016 0
    outer loop
      vertex 6.9 7.63205 0
      vertex 7.23826 7.38629 1
      vertex 6.9 7.63205 1
    endloop
  endfacet
  facet normal -0.587787 -0.809016 -0
    outer loop
      vertex 7.23826 7.38629 1
      vertex 6.9 7.63205 0
      vertex 7.23826 7.38629 0
    endloop
  endfacet
  facet normal -0.207911 -0.978148 0
    outer loop
      vertex 6.10906 7.88904 0
      vertex 6.51803 7.80211 1
      vertex 6.10906 7.88904 1
    endloop
  endfacet
  facet normal -0.207911 -0.978148 -0
    outer loop
      vertex 6.51803 7.80211 1
      vertex 6.10906 7.88904 0
      vertex 6.51803 7.80211 0
    endloop
  endfacet
  facet normal 0.20791 -0.978148 0
    outer loop
      vertex 5.28197 7.80211 0
      vertex 5.69094 7.88904 1
      vertex 5.28197 7.80211 1
    endloop
  endfacet
  facet normal 0.20791 -0.978148 0
    outer loop
      vertex 5.69094 7.88904 1
      vertex 5.28197 7.80211 0
      vertex 5.69094 7.88904 0
    endloop
  endfacet
  facet normal 0.994522 0.104529 0
    outer loop
      vertex 3.9437 5.48418 1
      vertex 3.9 5.9 0
      vertex 3.9 5.9 1
    endloop
  endfacet
  facet normal 0.994522 0.104529 0
    outer loop
      vertex 3.9 5.9 0
      vertex 3.9437 5.48418 1
      vertex 3.9437 5.48418 0
    endloop
  endfacet
  facet normal 0.866026 -0.499999 0
    outer loop
      vertex 4.07291 6.71347 1
      vertex 4.28197 7.07557 0
      vertex 4.28197 7.07557 1
    endloop
  endfacet
  facet normal 0.866026 -0.499999 0
    outer loop
      vertex 4.28197 7.07557 0
      vertex 4.07291 6.71347 1
      vertex 4.07291 6.71347 0
    endloop
  endfacet
  facet normal 0.587786 -0.809017 0
    outer loop
      vertex 4.56174 7.38629 0
      vertex 4.9 7.63205 1
      vertex 4.56174 7.38629 1
    endloop
  endfacet
  facet normal 0.587786 -0.809017 0
    outer loop
      vertex 4.9 7.63205 1
      vertex 4.56174 7.38629 0
      vertex 4.9 7.63205 0
    endloop
  endfacet
  facet normal 0.743144 -0.669131 0
    outer loop
      vertex 4.28197 7.07557 1
      vertex 4.56174 7.38629 0
      vertex 4.56174 7.38629 1
    endloop
  endfacet
  facet normal 0.743144 -0.669131 0
    outer loop
      vertex 4.56174 7.38629 0
      vertex 4.28197 7.07557 1
      vertex 4.28197 7.07557 0
    endloop
  endfacet
  facet normal -0.994522 -0.104529 0
    outer loop
      vertex 7.9 5.9 0
      vertex 7.85629 6.31582 1
      vertex 7.85629 6.31582 0
    endloop
  endfacet
  facet normal -0.994522 -0.104529 0
    outer loop
      vertex 7.85629 6.31582 1
      vertex 7.9 5.9 0
      vertex 7.9 5.9 1
    endloop
  endfacet
  facet normal -0.207913 0.978147 0
    outer loop
      vertex 6.51803 3.99789 0
      vertex 6.10906 3.91096 1
      vertex 6.51803 3.99789 1
    endloop
  endfacet
  facet normal -0.207913 0.978147 0
    outer loop
      vertex 6.10906 3.91096 1
      vertex 6.51803 3.99789 0
      vertex 6.10906 3.91096 0
    endloop
  endfacet
  facet normal -0.406735 0.913546 0
    outer loop
      vertex 6.9 4.16795 0
      vertex 6.51803 3.99789 1
      vertex 6.9 4.16795 1
    endloop
  endfacet
  facet normal -0.406735 0.913546 0
    outer loop
      vertex 6.51803 3.99789 1
      vertex 6.9 4.16795 0
      vertex 6.51803 3.99789 0
    endloop
  endfacet
  facet normal -0.587786 0.809017 0
    outer loop
      vertex 7.23826 4.41371 0
      vertex 6.9 4.16795 1
      vertex 7.23826 4.41371 1
    endloop
  endfacet
  facet normal -0.587786 0.809017 0
    outer loop
      vertex 6.9 4.16795 1
      vertex 7.23826 4.41371 0
      vertex 6.9 4.16795 0
    endloop
  endfacet
  facet normal -0.866025 0.5 0
    outer loop
      vertex 7.51803 4.72443 0
      vertex 7.72709 5.08653 1
      vertex 7.72709 5.08653 0
    endloop
  endfacet
  facet normal -0.866025 0.5 0
    outer loop
      vertex 7.72709 5.08653 1
      vertex 7.51803 4.72443 0
      vertex 7.51803 4.72443 1
    endloop
  endfacet
  facet normal 0 1 -0
    outer loop
      vertex 6.10906 3.91096 0
      vertex 5.69094 3.91096 1
      vertex 6.10906 3.91096 1
    endloop
  endfacet
  facet normal 0 1 0
    outer loop
      vertex 5.69094 3.91096 1
      vertex 6.10906 3.91096 0
      vertex 5.69094 3.91096 0
    endloop
  endfacet
  facet normal 0.587784 0.809018 -0
    outer loop
      vertex 4.9 4.16795 0
      vertex 4.56174 4.41371 1
      vertex 4.9 4.16795 1
    endloop
  endfacet
  facet normal 0.587784 0.809018 0
    outer loop
      vertex 4.56174 4.41371 1
      vertex 4.9 4.16795 0
      vertex 4.56174 4.41371 0
    endloop
  endfacet
  facet normal 0.866025 0.5 0
    outer loop
      vertex 4.28197 4.72443 1
      vertex 4.07291 5.08653 0
      vertex 4.07291 5.08653 1
    endloop
  endfacet
  facet normal 0.866025 0.5 0
    outer loop
      vertex 4.07291 5.08653 0
      vertex 4.28197 4.72443 1
      vertex 4.28197 4.72443 0
    endloop
  endfacet
  facet normal 0.743145 0.66913 0
    outer loop
      vertex 4.56174 4.41371 1
      vertex 4.28197 4.72443 0
      vertex 4.28197 4.72443 1
    endloop
  endfacet
  facet normal 0.743145 0.66913 0
    outer loop
      vertex 4.28197 4.72443 0
      vertex 4.56174 4.41371 1
      vertex 4.56174 4.41371 0
    endloop
  endfacet
  facet normal 0 -1 0
    outer loop
      vertex 5.69094 7.88904 0
      vertex 6.10906 7.88904 1
      vertex 5.69094 7.88904 1
    endloop
  endfacet
  facet normal 0 -1 -0
    outer loop
      vertex 6.10906 7.88904 1
      vertex 5.69094 7.88904 0
      vertex 6.10906 7.88904 0
    endloop
  endfacet
  facet normal 0.994522 -0.104529 0
    outer loop
      vertex 3.9 5.9 1
      vertex 3.9437 6.31582 0
      vertex 3.9437 6.31582 1
    endloop
  endfacet
  facet normal 0.994522 -0.104529 0
    outer loop
      vertex 3.9437 6.31582 0
      vertex 3.9 5.9 1
      vertex 3.9 5.9 0
    endloop
  endfacet
  facet normal -0.743145 0.66913 0
    outer loop
      vertex 7.23826 4.41371 0
      vertex 7.51803 4.72443 1
      vertex 7.51803 4.72443 0
    endloop
  endfacet
  facet normal -0.743145 0.66913 0
    outer loop
      vertex 7.51803 4.72443 1
      vertex 7.23826 4.41371 0
      vertex 7.23826 4.41371 1
    endloop
  endfacet
  facet normal -0.951056 0.309018 0
    outer loop
      vertex 7.72709 5.08653 0
      vertex 7.85629 5.48418 1
      vertex 7.85629 5.48418 0
    endloop
  endfacet
  facet normal -0.951056 0.309018 0
    outer loop
      vertex 7.85629 5.48418 1
      vertex 7.72709 5.08653 0
      vertex 7.72709 5.08653 1
    endloop
  endfacet
  facet normal 0.406736 0.913546 -0
    outer loop
      vertex 5.28197 3.99789 0
      vertex 4.9 4.16795 1
      vertex 5.28197 3.99789 1
    endloop
  endfacet
  facet normal 0.406736 0.913546 0
    outer loop
      vertex 4.9 4.16795 1
      vertex 5.28197 3.99789 0
      vertex 4.9 4.16795 0
    endloop
  endfacet
  facet normal 1 0 0
    outer loop
      vertex 20 0.909866 3
      vertex 20 0.0116415 3
      vertex 20 0.909866 1
    endloop
  endfacet
  facet normal 1 0 0
    outer loop
      vertex 20 2.70631 1
      vertex 20 3.60454 3
      vertex 20 2.70631 3
    endloop
  endfacet
  facet normal 1 0 0
    outer loop
      vertex 20 3.60454 3
      vertex 20 2.70631 1
      vertex 20 3.60454 0
    endloop
  endfacet
  facet normal 1 -0 0
    outer loop
      vertex 20 0.909866 1
      vertex 20 3.60454 0
      vertex 20 2.70631 1
    endloop
  endfacet
  facet normal 1 0 0
    outer loop
      vertex 20 0.909866 1
      vertex 20 0.0116415 0
      vertex 20 3.60454 0
    endloop
  endfacet
  facet normal 1 0 0
    outer loop
      vertex 20 0.0116415 0
      vertex 20 0.909866 1
      vertex 20 0.0116415 3
    endloop
  endfacet
  facet normal 0 1 0
    outer loop
      vertex 3.6 20 3
      vertex 2.7 20 1
      vertex 2.7 20 3
    endloop
  endfacet
  facet normal 0 1 0
    outer loop
      vertex 2.7 20 1
      vertex 3.6 20 0
      vertex 0.9 20 1
    endloop
  endfacet
  facet normal 0 1 -0
    outer loop
      vertex 3.6 20 0
      vertex 2.7 20 1
      vertex 3.6 20 3
    endloop
  endfacet
  facet normal 0 1 -0
    outer loop
      vertex 0.9 20 1
      vertex 0 20 3
      vertex 0.9 20 3
    endloop
  endfacet
  facet normal 0 1 0
    outer loop
      vertex 0.9 20 1
      vertex 0 20 0
      vertex 0 20 3
    endloop
  endfacet
  facet normal 0 1 0
    outer loop
      vertex 0 20 0
      vertex 0.9 20 1
      vertex 3.6 20 0
    endloop
  endfacet
endsolid OpenSCAD_Model
