solid OpenSCAD_Model
  facet normal -0.982287 -0.187381 0
    outer loop
      vertex 0.157084 3.75655 0
      vertex 0.0394258 4.37333 40
      vertex 0.0394258 4.37333 0
    endloop
  endfacet
  facet normal -0.982287 -0.187381 0
    outer loop
      vertex 0.0394258 4.37333 40
      vertex 0.157084 3.75655 0
      vertex 0.157084 3.75655 40
    endloop
  endfacet
  facet normal 0 -1 0
    outer loop
      vertex 4.68605 0.00986576 0
      vertex 35.314 0.00986576 40
      vertex 4.68605 0.00986576 40
    endloop
  endfacet
  facet normal 0 -1 -0
    outer loop
      vertex 35.314 0.00986576 40
      vertex 4.68605 0.00986576 0
      vertex 35.314 0.00986576 0
    endloop
  endfacet
  facet normal -0.248691 0.968583 0
    outer loop
      vertex 4.06309 39.9114 0
      vertex 3.45491 39.7553 40
      vertex 4.06309 39.9114 40
    endloop
  endfacet
  facet normal -0.248691 0.968583 0
    outer loop
      vertex 3.45491 39.7553 40
      vertex 4.06309 39.9114 0
      vertex 3.45491 39.7553 0
    endloop
  endfacet
  facet normal -0.982287 0.187381 0
    outer loop
      vertex 0.0394258 35.6267 0
      vertex 0.157084 36.2435 40
      vertex 0.157084 36.2435 0
    endloop
  endfacet
  facet normal -0.982287 0.187381 0
    outer loop
      vertex 0.157084 36.2435 40
      vertex 0.0394258 35.6267 0
      vertex 0.0394258 35.6267 40
    endloop
  endfacet
  facet normal 0.844331 -0.535823 0
    outer loop
      vertex 39.0451 2.06107 40
      vertex 39.3815 2.59123 0
      vertex 39.3815 2.59123 40
    endloop
  endfacet
  facet normal 0.844331 -0.535823 0
    outer loop
      vertex 39.3815 2.59123 0
      vertex 39.0451 2.06107 40
      vertex 39.0451 2.06107 0
    endloop
  endfacet
  facet normal -0.844329 0.535825 0
    outer loop
      vertex 0.618466 37.4088 0
      vertex 0.954914 37.9389 40
      vertex 0.954914 37.9389 0
    endloop
  endfacet
  facet normal -0.844329 0.535825 0
    outer loop
      vertex 0.954914 37.9389 40
      vertex 0.618466 37.4088 0
      vertex 0.618466 37.4088 40
    endloop
  endfacet
  facet normal 0.368127 -0.929776 0
    outer loop
      vertex 36.5451 0.244717 0
      vertex 37.1289 0.475864 40
      vertex 36.5451 0.244717 40
    endloop
  endfacet
  facet normal 0.368127 -0.929776 0
    outer loop
      vertex 37.1289 0.475864 40
      vertex 36.5451 0.244717 0
      vertex 37.1289 0.475864 0
    endloop
  endfacet
  facet normal 0.982288 0.18738 0
    outer loop
      vertex 39.9606 35.6267 40
      vertex 39.8429 36.2435 0
      vertex 39.8429 36.2435 40
    endloop
  endfacet
  facet normal 0.982288 0.18738 0
    outer loop
      vertex 39.8429 36.2435 0
      vertex 39.9606 35.6267 40
      vertex 39.9606 35.6267 0
    endloop
  endfacet
  facet normal -0.770513 -0.637424 0
    outer loop
      vertex 1.35516 1.57726 0
      vertex 0.954914 2.06107 40
      vertex 0.954914 2.06107 0
    endloop
  endfacet
  facet normal -0.770513 -0.637424 0
    outer loop
      vertex 0.954914 2.06107 40
      vertex 1.35516 1.57726 0
      vertex 1.35516 1.57726 40
    endloop
  endfacet
  facet normal -0.24869 -0.968583 0
    outer loop
      vertex 3.45491 0.244717 0
      vertex 4.06309 0.088563 40
      vertex 3.45491 0.244717 40
    endloop
  endfacet
  facet normal -0.24869 -0.968583 -0
    outer loop
      vertex 4.06309 0.088563 40
      vertex 3.45491 0.244717 0
      vertex 4.06309 0.088563 0
    endloop
  endfacet
  facet normal -0.998027 -0.0627894 0
    outer loop
      vertex 0.0394258 4.37333 0
      vertex 0 5 40
      vertex 0 5 0
    endloop
  endfacet
  facet normal -0.998027 -0.0627894 0
    outer loop
      vertex 0 5 40
      vertex 0.0394258 4.37333 0
      vertex 0.0394258 4.37333 40
    endloop
  endfacet
  facet normal -1 0 0
    outer loop
      vertex 0 5 0
      vertex 0 35 40
      vertex 0 35 0
    endloop
  endfacet
  facet normal -1 -0 0
    outer loop
      vertex 0 35 40
      vertex 0 5 0
      vertex 0 5 40
    endloop
  endfacet
  facet normal -0.998027 0.0627894 0
    outer loop
      vertex 0 35 0
      vertex 0.0394258 35.6267 40
      vertex 0.0394258 35.6267 0
    endloop
  endfacet
  facet normal -0.998027 0.0627894 0
    outer loop
      vertex 0.0394258 35.6267 40
      vertex 0 35 0
      vertex 0 35 40
    endloop
  endfacet
  facet normal 0.684545 -0.72897 0
    outer loop
      vertex 38.1871 1.14743 0
      vertex 38.6448 1.57726 40
      vertex 38.1871 1.14743 40
    endloop
  endfacet
  facet normal 0.684545 -0.72897 0
    outer loop
      vertex 38.6448 1.57726 40
      vertex 38.1871 1.14743 0
      vertex 38.6448 1.57726 0
    endloop
  endfacet
  facet normal 0.998027 0.062794 0
    outer loop
      vertex 40 35 40
      vertex 39.9606 35.6267 0
      vertex 39.9606 35.6267 40
    endloop
  endfacet
  facet normal 0.998027 0.062794 0
    outer loop
      vertex 39.9606 35.6267 0
      vertex 40 35 40
      vertex 40 35 0
    endloop
  endfacet
  facet normal 0.368127 0.929776 -0
    outer loop
      vertex 37.1289 39.5241 0
      vertex 36.5451 39.7553 40
      vertex 37.1289 39.5241 40
    endloop
  endfacet
  facet normal 0.368127 0.929776 0
    outer loop
      vertex 36.5451 39.7553 40
      vertex 37.1289 39.5241 0
      vertex 36.5451 39.7553 0
    endloop
  endfacet
  facet normal 0.125333 0.992115 -0
    outer loop
      vertex 35.9369 39.9114 0
      vertex 35.314 39.9901 40
      vertex 35.9369 39.9114 40
    endloop
  endfacet
  facet normal 0.125333 0.992115 0
    outer loop
      vertex 35.314 39.9901 40
      vertex 35.9369 39.9114 0
      vertex 35.314 39.9901 0
    endloop
  endfacet
  facet normal -0.951056 -0.309018 0
    outer loop
      vertex 0.351117 3.15938 0
      vertex 0.157084 3.75655 40
      vertex 0.157084 3.75655 0
    endloop
  endfacet
  facet normal -0.951056 -0.309018 0
    outer loop
      vertex 0.157084 3.75655 40
      vertex 0.351117 3.15938 0
      vertex 0.351117 3.15938 40
    endloop
  endfacet
  facet normal -0.684545 0.728971 0
    outer loop
      vertex 1.81288 38.8526 0
      vertex 1.35516 38.4227 40
      vertex 1.81288 38.8526 40
    endloop
  endfacet
  facet normal -0.684545 0.728971 0
    outer loop
      vertex 1.35516 38.4227 40
      vertex 1.81288 38.8526 0
      vertex 1.35516 38.4227 0
    endloop
  endfacet
  facet normal -0.904827 0.425779 0
    outer loop
      vertex 0.351117 36.8406 0
      vertex 0.618466 37.4088 40
      vertex 0.618466 37.4088 0
    endloop
  endfacet
  facet normal -0.904827 0.425779 0
    outer loop
      vertex 0.618466 37.4088 40
      vertex 0.351117 36.8406 0
      vertex 0.351117 36.8406 40
    endloop
  endfacet
  facet normal -0.951056 0.309018 0
    outer loop
      vertex 0.157084 36.2435 0
      vertex 0.351117 36.8406 40
      vertex 0.351117 36.8406 0
    endloop
  endfacet
  facet normal -0.951056 0.309018 0
    outer loop
      vertex 0.351117 36.8406 40
      vertex 0.157084 36.2435 0
      vertex 0.157084 36.2435 40
    endloop
  endfacet
  facet normal 0.481753 -0.876307 0
    outer loop
      vertex 37.1289 0.475864 0
      vertex 37.6791 0.77836 40
      vertex 37.1289 0.475864 40
    endloop
  endfacet
  facet normal 0.481753 -0.876307 0
    outer loop
      vertex 37.6791 0.77836 40
      vertex 37.1289 0.475864 0
      vertex 37.6791 0.77836 0
    endloop
  endfacet
  facet normal 0.24869 0.968583 -0
    outer loop
      vertex 36.5451 39.7553 0
      vertex 35.9369 39.9114 40
      vertex 36.5451 39.7553 40
    endloop
  endfacet
  facet normal 0.24869 0.968583 0
    outer loop
      vertex 35.9369 39.9114 40
      vertex 36.5451 39.7553 0
      vertex 35.9369 39.9114 0
    endloop
  endfacet
  facet normal 0.844331 0.535822 0
    outer loop
      vertex 39.3815 37.4088 40
      vertex 39.0451 37.9389 0
      vertex 39.0451 37.9389 40
    endloop
  endfacet
  facet normal 0.844331 0.535822 0
    outer loop
      vertex 39.0451 37.9389 0
      vertex 39.3815 37.4088 40
      vertex 39.3815 37.4088 0
    endloop
  endfacet
  facet normal 0 1 -0
    outer loop
      vertex 35.314 39.9901 0
      vertex 4.68605 39.9901 40
      vertex 35.314 39.9901 40
    endloop
  endfacet
  facet normal 0 1 0
    outer loop
      vertex 4.68605 39.9901 40
      vertex 35.314 39.9901 0
      vertex 4.68605 39.9901 0
    endloop
  endfacet
  facet normal -0.587785 -0.809017 0
    outer loop
      vertex 1.81288 1.14743 0
      vertex 2.32087 0.77836 40
      vertex 1.81288 1.14743 40
    endloop
  endfacet
  facet normal -0.587785 -0.809017 -0
    outer loop
      vertex 2.32087 0.77836 40
      vertex 1.81288 1.14743 0
      vertex 2.32087 0.77836 0
    endloop
  endfacet
  facet normal -0.368126 0.929776 0
    outer loop
      vertex 3.45491 39.7553 0
      vertex 2.8711 39.5241 40
      vertex 3.45491 39.7553 40
    endloop
  endfacet
  facet normal -0.368126 0.929776 0
    outer loop
      vertex 2.8711 39.5241 40
      vertex 3.45491 39.7553 0
      vertex 2.8711 39.5241 0
    endloop
  endfacet
  facet normal -0.587784 0.809018 0
    outer loop
      vertex 2.32087 39.2216 0
      vertex 1.81288 38.8526 40
      vertex 2.32087 39.2216 40
    endloop
  endfacet
  facet normal -0.587784 0.809018 0
    outer loop
      vertex 1.81288 38.8526 40
      vertex 2.32087 39.2216 0
      vertex 1.81288 38.8526 0
    endloop
  endfacet
  facet normal 0.587786 -0.809016 0
    outer loop
      vertex 37.6791 0.77836 0
      vertex 38.1871 1.14743 40
      vertex 37.6791 0.77836 40
    endloop
  endfacet
  facet normal 0.587786 -0.809016 0
    outer loop
      vertex 38.1871 1.14743 40
      vertex 37.6791 0.77836 0
      vertex 38.1871 1.14743 0
    endloop
  endfacet
  facet normal 0.904827 -0.425779 0
    outer loop
      vertex 39.3815 2.59123 40
      vertex 39.6489 3.15938 0
      vertex 39.6489 3.15938 40
    endloop
  endfacet
  facet normal 0.904827 -0.425779 0
    outer loop
      vertex 39.6489 3.15938 0
      vertex 39.3815 2.59123 40
      vertex 39.3815 2.59123 0
    endloop
  endfacet
  facet normal 0.982288 -0.18738 0
    outer loop
      vertex 39.8429 3.75655 40
      vertex 39.9606 4.37333 0
      vertex 39.9606 4.37333 40
    endloop
  endfacet
  facet normal 0.982288 -0.18738 0
    outer loop
      vertex 39.9606 4.37333 0
      vertex 39.8429 3.75655 40
      vertex 39.8429 3.75655 0
    endloop
  endfacet
  facet normal -0.684547 -0.728969 0
    outer loop
      vertex 1.35516 1.57726 0
      vertex 1.81288 1.14743 40
      vertex 1.35516 1.57726 40
    endloop
  endfacet
  facet normal -0.684547 -0.728969 -0
    outer loop
      vertex 1.81288 1.14743 40
      vertex 1.35516 1.57726 0
      vertex 1.81288 1.14743 0
    endloop
  endfacet
  facet normal -0.770514 0.637423 0
    outer loop
      vertex 0.954914 37.9389 0
      vertex 1.35516 38.4227 40
      vertex 1.35516 38.4227 0
    endloop
  endfacet
  facet normal -0.770514 0.637423 0
    outer loop
      vertex 1.35516 38.4227 40
      vertex 0.954914 37.9389 0
      vertex 0.954914 37.9389 40
    endloop
  endfacet
  facet normal -0.481756 0.876305 0
    outer loop
      vertex 2.8711 39.5241 0
      vertex 2.32087 39.2216 40
      vertex 2.8711 39.5241 40
    endloop
  endfacet
  facet normal -0.481756 0.876305 0
    outer loop
      vertex 2.32087 39.2216 40
      vertex 2.8711 39.5241 0
      vertex 2.32087 39.2216 0
    endloop
  endfacet
  facet normal 0.248689 -0.968583 0
    outer loop
      vertex 35.9369 0.088563 0
      vertex 36.5451 0.244717 40
      vertex 35.9369 0.088563 40
    endloop
  endfacet
  facet normal 0.248689 -0.968583 0
    outer loop
      vertex 36.5451 0.244717 40
      vertex 35.9369 0.088563 0
      vertex 36.5451 0.244717 0
    endloop
  endfacet
  facet normal 0.125333 -0.992115 0
    outer loop
      vertex 35.314 0.00986576 0
      vertex 35.9369 0.088563 40
      vertex 35.314 0.00986576 40
    endloop
  endfacet
  facet normal 0.125333 -0.992115 0
    outer loop
      vertex 35.9369 0.088563 40
      vertex 35.314 0.00986576 0
      vertex 35.9369 0.088563 0
    endloop
  endfacet
  facet normal 1 -0 0
    outer loop
      vertex 40 5 40
      vertex 40 35 0
      vertex 40 35 40
    endloop
  endfacet
  facet normal 1 0 0
    outer loop
      vertex 40 35 0
      vertex 40 5 40
      vertex 40 5 0
    endloop
  endfacet
  facet normal 0.481755 0.876306 -0
    outer loop
      vertex 37.6791 39.2216 0
      vertex 37.1289 39.5241 40
      vertex 37.6791 39.2216 40
    endloop
  endfacet
  facet normal 0.481755 0.876306 0
    outer loop
      vertex 37.1289 39.5241 40
      vertex 37.6791 39.2216 0
      vertex 37.1289 39.5241 0
    endloop
  endfacet
  facet normal 0.951056 -0.309019 0
    outer loop
      vertex 39.6489 3.15938 40
      vertex 39.8429 3.75655 0
      vertex 39.8429 3.75655 40
    endloop
  endfacet
  facet normal 0.951056 -0.309019 0
    outer loop
      vertex 39.8429 3.75655 0
      vertex 39.6489 3.15938 40
      vertex 39.6489 3.15938 0
    endloop
  endfacet
  facet normal 0.998027 -0.062794 0
    outer loop
      vertex 39.9606 4.37333 40
      vertex 40 5 0
      vertex 40 5 40
    endloop
  endfacet
  facet normal 0.998027 -0.062794 0
    outer loop
      vertex 40 5 0
      vertex 39.9606 4.37333 40
      vertex 39.9606 4.37333 0
    endloop
  endfacet
  facet normal -0.125333 0.992115 0
    outer loop
      vertex 4.68605 39.9901 0
      vertex 4.06309 39.9114 40
      vertex 4.68605 39.9901 40
    endloop
  endfacet
  facet normal -0.125333 0.992115 0
    outer loop
      vertex 4.06309 39.9114 40
      vertex 4.68605 39.9901 0
      vertex 4.06309 39.9114 0
    endloop
  endfacet
  facet normal -0.368126 -0.929776 0
    outer loop
      vertex 2.8711 0.475864 0
      vertex 3.45491 0.244717 40
      vertex 2.8711 0.475864 40
    endloop
  endfacet
  facet normal -0.368126 -0.929776 -0
    outer loop
      vertex 3.45491 0.244717 40
      vertex 2.8711 0.475864 0
      vertex 3.45491 0.244717 0
    endloop
  endfacet
  facet normal -0.904827 -0.425779 0
    outer loop
      vertex 0.618466 2.59123 0
      vertex 0.351117 3.15938 40
      vertex 0.351117 3.15938 0
    endloop
  endfacet
  facet normal -0.904827 -0.425779 0
    outer loop
      vertex 0.351117 3.15938 40
      vertex 0.618466 2.59123 0
      vertex 0.618466 2.59123 40
    endloop
  endfacet
  facet normal 0.770513 -0.637424 0
    outer loop
      vertex 38.6448 1.57726 40
      vertex 39.0451 2.06107 0
      vertex 39.0451 2.06107 40
    endloop
  endfacet
  facet normal 0.770513 -0.637424 0
    outer loop
      vertex 39.0451 2.06107 0
      vertex 38.6448 1.57726 40
      vertex 38.6448 1.57726 0
    endloop
  endfacet
  facet normal 0.904827 0.425779 0
    outer loop
      vertex 39.6489 36.8406 40
      vertex 39.3815 37.4088 0
      vertex 39.3815 37.4088 40
    endloop
  endfacet
  facet normal 0.904827 0.425779 0
    outer loop
      vertex 39.3815 37.4088 0
      vertex 39.6489 36.8406 40
      vertex 39.6489 36.8406 0
    endloop
  endfacet
  facet normal 0.951056 0.309019 0
    outer loop
      vertex 39.8429 36.2435 40
      vertex 39.6489 36.8406 0
      vertex 39.6489 36.8406 40
    endloop
  endfacet
  facet normal 0.951056 0.309019 0
    outer loop
      vertex 39.6489 36.8406 0
      vertex 39.8429 36.2435 40
      vertex 39.8429 36.2435 0
    endloop
  endfacet
  facet normal -0.481754 -0.876307 0
    outer loop
      vertex 2.32087 0.77836 0
      vertex 2.8711 0.475864 40
      vertex 2.32087 0.77836 40
    endloop
  endfacet
  facet normal -0.481754 -0.876307 -0
    outer loop
      vertex 2.8711 0.475864 40
      vertex 2.32087 0.77836 0
      vertex 2.8711 0.475864 0
    endloop
  endfacet
  facet normal -0.844329 -0.535826 0
    outer loop
      vertex 0.954914 2.06107 0
      vertex 0.618466 2.59123 40
      vertex 0.618466 2.59123 0
    endloop
  endfacet
  facet normal -0.844329 -0.535826 0
    outer loop
      vertex 0.618466 2.59123 40
      vertex 0.954914 2.06107 0
      vertex 0.954914 2.06107 40
    endloop
  endfacet
  facet normal -0.125333 -0.992115 0
    outer loop
      vertex 4.06309 0.088563 0
      vertex 4.68605 0.00986576 40
      vertex 4.06309 0.088563 40
    endloop
  endfacet
  facet normal -0.125333 -0.992115 -0
    outer loop
      vertex 4.68605 0.00986576 40
      vertex 4.06309 0.088563 0
      vertex 4.68605 0.00986576 0
    endloop
  endfacet
  facet normal 0.684544 0.728972 -0
    outer loop
      vertex 38.6448 38.4227 0
      vertex 38.1871 38.8526 40
      vertex 38.6448 38.4227 40
    endloop
  endfacet
  facet normal 0.684544 0.728972 0
    outer loop
      vertex 38.1871 38.8526 40
      vertex 38.6448 38.4227 0
      vertex 38.1871 38.8526 0
    endloop
  endfacet
  facet normal 0.770514 0.637423 0
    outer loop
      vertex 39.0451 37.9389 40
      vertex 38.6448 38.4227 0
      vertex 38.6448 38.4227 40
    endloop
  endfacet
  facet normal 0.770514 0.637423 0
    outer loop
      vertex 38.6448 38.4227 0
      vertex 39.0451 37.9389 40
      vertex 39.0451 37.9389 0
    endloop
  endfacet
  facet normal 0.587785 0.809017 -0
    outer loop
      vertex 38.1871 38.8526 0
      vertex 37.6791 39.2216 40
      vertex 38.1871 38.8526 40
    endloop
  endfacet
  facet normal 0.587785 0.809017 0
    outer loop
      vertex 37.6791 39.2216 40
      vertex 38.1871 38.8526 0
      vertex 37.6791 39.2216 0
    endloop
  endfacet
  facet normal 0 0 1
    outer loop
      vertex 35.314 39.9901 40
      vertex 40 35 40
      vertex 39.9606 35.6267 40
    endloop
  endfacet
  facet normal 0 0 1
    outer loop
      vertex 0 35 40
      vertex 40 35 40
      vertex 35.314 39.9901 40
    endloop
  endfacet
  facet normal 0 0 1
    outer loop
      vertex 35.314 39.9901 40
      vertex 39.9606 35.6267 40
      vertex 39.8429 36.2435 40
    endloop
  endfacet
  facet normal 0 0 1
    outer loop
      vertex 40 35 40
      vertex 0 35 40
      vertex 40 5 40
    endloop
  endfacet
  facet normal 0 0 1
    outer loop
      vertex 35.314 39.9901 40
      vertex 39.8429 36.2435 40
      vertex 39.6489 36.8406 40
    endloop
  endfacet
  facet normal 0 0 1
    outer loop
      vertex 40 5 40
      vertex 35.314 0.00986576 40
      vertex 39.9606 4.37333 40
    endloop
  endfacet
  facet normal 0 0 1
    outer loop
      vertex 35.314 39.9901 40
      vertex 39.6489 36.8406 40
      vertex 39.3815 37.4088 40
    endloop
  endfacet
  facet normal 0 0 1
    outer loop
      vertex 39.9606 4.37333 40
      vertex 35.314 0.00986576 40
      vertex 39.8429 3.75655 40
    endloop
  endfacet
  facet normal 0 0 1
    outer loop
      vertex 35.314 39.9901 40
      vertex 39.3815 37.4088 40
      vertex 39.0451 37.9389 40
    endloop
  endfacet
  facet normal 0 0 1
    outer loop
      vertex 39.8429 3.75655 40
      vertex 35.314 0.00986576 40
      vertex 39.6489 3.15938 40
    endloop
  endfacet
  facet normal 0 0 1
    outer loop
      vertex 35.314 39.9901 40
      vertex 39.0451 37.9389 40
      vertex 38.6448 38.4227 40
    endloop
  endfacet
  facet normal 0 0 1
    outer loop
      vertex 39.6489 3.15938 40
      vertex 35.314 0.00986576 40
      vertex 39.3815 2.59123 40
    endloop
  endfacet
  facet normal 0 0 1
    outer loop
      vertex 35.314 39.9901 40
      vertex 38.6448 38.4227 40
      vertex 38.1871 38.8526 40
    endloop
  endfacet
  facet normal 0 0 1
    outer loop
      vertex 39.3815 2.59123 40
      vertex 35.314 0.00986576 40
      vertex 39.0451 2.06107 40
    endloop
  endfacet
  facet normal 0 0 1
    outer loop
      vertex 35.314 39.9901 40
      vertex 38.1871 38.8526 40
      vertex 37.6791 39.2216 40
    endloop
  endfacet
  facet normal 0 0 1
    outer loop
      vertex 39.0451 2.06107 40
      vertex 35.314 0.00986576 40
      vertex 38.6448 1.57726 40
    endloop
  endfacet
  facet normal 0 0 1
    outer loop
      vertex 35.314 39.9901 40
      vertex 37.6791 39.2216 40
      vertex 37.1289 39.5241 40
    endloop
  endfacet
  facet normal 0 0 1
    outer loop
      vertex 38.6448 1.57726 40
      vertex 35.314 0.00986576 40
      vertex 38.1871 1.14743 40
    endloop
  endfacet
  facet normal 0 0 1
    outer loop
      vertex 35.314 39.9901 40
      vertex 37.1289 39.5241 40
      vertex 36.5451 39.7553 40
    endloop
  endfacet
  facet normal 0 0 1
    outer loop
      vertex 38.1871 1.14743 40
      vertex 35.314 0.00986576 40
      vertex 37.6791 0.77836 40
    endloop
  endfacet
  facet normal 0 0 1
    outer loop
      vertex 35.314 39.9901 40
      vertex 36.5451 39.7553 40
      vertex 35.9369 39.9114 40
    endloop
  endfacet
  facet normal 0 0 1
    outer loop
      vertex 37.6791 0.77836 40
      vertex 35.314 0.00986576 40
      vertex 37.1289 0.475864 40
    endloop
  endfacet
  facet normal 0 0 1
    outer loop
      vertex 37.1289 0.475864 40
      vertex 35.314 0.00986576 40
      vertex 36.5451 0.244717 40
    endloop
  endfacet
  facet normal 0 0 1
    outer loop
      vertex 36.5451 0.244717 40
      vertex 35.314 0.00986576 40
      vertex 35.9369 0.088563 40
    endloop
  endfacet
  facet normal 0 0 1
    outer loop
      vertex 0 35 40
      vertex 35.314 39.9901 40
      vertex 4.68605 39.9901 40
    endloop
  endfacet
  facet normal 0 0 1
    outer loop
      vertex 0 5 40
      vertex 40 5 40
      vertex 0 35 40
    endloop
  endfacet
  facet normal 0 0 1
    outer loop
      vertex 0 35 40
      vertex 4.68605 39.9901 40
      vertex 4.06309 39.9114 40
    endloop
  endfacet
  facet normal 0 0 1
    outer loop
      vertex 40 5 40
      vertex 0 5 40
      vertex 35.314 0.00986576 40
    endloop
  endfacet
  facet normal 0 0 1
    outer loop
      vertex 0 35 40
      vertex 4.06309 39.9114 40
      vertex 3.45491 39.7553 40
    endloop
  endfacet
  facet normal 0 0 1
    outer loop
      vertex 35.314 0.00986576 40
      vertex 0 5 40
      vertex 4.68605 0.00986576 40
    endloop
  endfacet
  facet normal 0 0 1
    outer loop
      vertex 0 35 40
      vertex 3.45491 39.7553 40
      vertex 2.8711 39.5241 40
    endloop
  endfacet
  facet normal 0 0 1
    outer loop
      vertex 4.68605 0.00986576 40
      vertex 0 5 40
      vertex 4.06309 0.088563 40
    endloop
  endfacet
  facet normal 0 0 1
    outer loop
      vertex 0 35 40
      vertex 2.8711 39.5241 40
      vertex 2.32087 39.2216 40
    endloop
  endfacet
  facet normal 0 0 1
    outer loop
      vertex 4.06309 0.088563 40
      vertex 0 5 40
      vertex 3.45491 0.244717 40
    endloop
  endfacet
  facet normal 0 0 1
    outer loop
      vertex 0 35 40
      vertex 2.32087 39.2216 40
      vertex 1.81288 38.8526 40
    endloop
  endfacet
  facet normal 0 0 1
    outer loop
      vertex 3.45491 0.244717 40
      vertex 0 5 40
      vertex 2.8711 0.475864 40
    endloop
  endfacet
  facet normal 0 0 1
    outer loop
      vertex 0 35 40
      vertex 1.81288 38.8526 40
      vertex 1.35516 38.4227 40
    endloop
  endfacet
  facet normal 0 0 1
    outer loop
      vertex 2.8711 0.475864 40
      vertex 0 5 40
      vertex 2.32087 0.77836 40
    endloop
  endfacet
  facet normal 0 0 1
    outer loop
      vertex 0 35 40
      vertex 1.35516 38.4227 40
      vertex 0.954914 37.9389 40
    endloop
  endfacet
  facet normal 0 0 1
    outer loop
      vertex 2.32087 0.77836 40
      vertex 0 5 40
      vertex 1.81288 1.14743 40
    endloop
  endfacet
  facet normal 0 0 1
    outer loop
      vertex 0 35 40
      vertex 0.954914 37.9389 40
      vertex 0.618466 37.4088 40
    endloop
  endfacet
  facet normal 0 0 1
    outer loop
      vertex 1.81288 1.14743 40
      vertex 0 5 40
      vertex 1.35516 1.57726 40
    endloop
  endfacet
  facet normal 0 0 1
    outer loop
      vertex 0 35 40
      vertex 0.618466 37.4088 40
      vertex 0.351117 36.8406 40
    endloop
  endfacet
  facet normal 0 0 1
    outer loop
      vertex 1.35516 1.57726 40
      vertex 0 5 40
      vertex 0.954914 2.06107 40
    endloop
  endfacet
  facet normal 0 0 1
    outer loop
      vertex 0 35 40
      vertex 0.351117 36.8406 40
      vertex 0.157084 36.2435 40
    endloop
  endfacet
  facet normal 0 0 1
    outer loop
      vertex 0.954914 2.06107 40
      vertex 0 5 40
      vertex 0.618466 2.59123 40
    endloop
  endfacet
  facet normal 0 0 1
    outer loop
      vertex 0 35 40
      vertex 0.157084 36.2435 40
      vertex 0.0394258 35.6267 40
    endloop
  endfacet
  facet normal 0 0 1
    outer loop
      vertex 0.618466 2.59123 40
      vertex 0 5 40
      vertex 0.351117 3.15938 40
    endloop
  endfacet
  facet normal 0 0 1
    outer loop
      vertex 0.351117 3.15938 40
      vertex 0 5 40
      vertex 0.157084 3.75655 40
    endloop
  endfacet
  facet normal 0 0 1
    outer loop
      vertex 0.157084 3.75655 40
      vertex 0 5 40
      vertex 0.0394258 4.37333 40
    endloop
  endfacet
  facet normal 0 0 -1
    outer loop
      vertex 35.314 0.00986576 0
      vertex 40 5 0
      vertex 39.9606 4.37333 0
    endloop
  endfacet
  facet normal 0 0 -1
    outer loop
      vertex 0 5 0
      vertex 40 5 0
      vertex 35.314 0.00986576 0
    endloop
  endfacet
  facet normal 0 0 -1
    outer loop
      vertex 35.314 0.00986576 0
      vertex 39.9606 4.37333 0
      vertex 39.8429 3.75655 0
    endloop
  endfacet
  facet normal 0 0 -1
    outer loop
      vertex 40 5 0
      vertex 0 5 0
      vertex 40 35 0
    endloop
  endfacet
  facet normal 0 0 -1
    outer loop
      vertex 35.314 0.00986576 0
      vertex 39.8429 3.75655 0
      vertex 39.6489 3.15938 0
    endloop
  endfacet
  facet normal 0 0 -1
    outer loop
      vertex 40 35 0
      vertex 35.314 39.9901 0
      vertex 39.9606 35.6267 0
    endloop
  endfacet
  facet normal 0 0 -1
    outer loop
      vertex 35.314 0.00986576 0
      vertex 39.6489 3.15938 0
      vertex 39.3815 2.59123 0
    endloop
  endfacet
  facet normal 0 0 -1
    outer loop
      vertex 39.9606 35.6267 0
      vertex 35.314 39.9901 0
      vertex 39.8429 36.2435 0
    endloop
  endfacet
  facet normal 0 0 -1
    outer loop
      vertex 35.314 0.00986576 0
      vertex 39.3815 2.59123 0
      vertex 39.0451 2.06107 0
    endloop
  endfacet
  facet normal 0 0 -1
    outer loop
      vertex 39.8429 36.2435 0
      vertex 35.314 39.9901 0
      vertex 39.6489 36.8406 0
    endloop
  endfacet
  facet normal 0 0 -1
    outer loop
      vertex 35.314 0.00986576 0
      vertex 39.0451 2.06107 0
      vertex 38.6448 1.57726 0
    endloop
  endfacet
  facet normal 0 0 -1
    outer loop
      vertex 39.6489 36.8406 0
      vertex 35.314 39.9901 0
      vertex 39.3815 37.4088 0
    endloop
  endfacet
  facet normal 0 0 -1
    outer loop
      vertex 35.314 0.00986576 0
      vertex 38.6448 1.57726 0
      vertex 38.1871 1.14743 0
    endloop
  endfacet
  facet normal 0 0 -1
    outer loop
      vertex 39.3815 37.4088 0
      vertex 35.314 39.9901 0
      vertex 39.0451 37.9389 0
    endloop
  endfacet
  facet normal 0 0 -1
    outer loop
      vertex 35.314 0.00986576 0
      vertex 38.1871 1.14743 0
      vertex 37.6791 0.77836 0
    endloop
  endfacet
  facet normal 0 0 -1
    outer loop
      vertex 39.0451 37.9389 0
      vertex 35.314 39.9901 0
      vertex 38.6448 38.4227 0
    endloop
  endfacet
  facet normal 0 0 -1
    outer loop
      vertex 35.314 0.00986576 0
      vertex 37.6791 0.77836 0
      vertex 37.1289 0.475864 0
    endloop
  endfacet
  facet normal 0 0 -1
    outer loop
      vertex 38.6448 38.4227 0
      vertex 35.314 39.9901 0
      vertex 38.1871 38.8526 0
    endloop
  endfacet
  facet normal 0 0 -1
    outer loop
      vertex 35.314 0.00986576 0
      vertex 37.1289 0.475864 0
      vertex 36.5451 0.244717 0
    endloop
  endfacet
  facet normal 0 0 -1
    outer loop
      vertex 38.1871 38.8526 0
      vertex 35.314 39.9901 0
      vertex 37.6791 39.2216 0
    endloop
  endfacet
  facet normal 0 0 -1
    outer loop
      vertex 35.314 0.00986576 0
      vertex 36.5451 0.244717 0
      vertex 35.9369 0.088563 0
    endloop
  endfacet
  facet normal 0 0 -1
    outer loop
      vertex 37.6791 39.2216 0
      vertex 35.314 39.9901 0
      vertex 37.1289 39.5241 0
    endloop
  endfacet
  facet normal 0 0 -1
    outer loop
      vertex 37.1289 39.5241 0
      vertex 35.314 39.9901 0
      vertex 36.5451 39.7553 0
    endloop
  endfacet
  facet normal 0 0 -1
    outer loop
      vertex 36.5451 39.7553 0
      vertex 35.314 39.9901 0
      vertex 35.9369 39.9114 0
    endloop
  endfacet
  facet normal 0 0 -1
    outer loop
      vertex 0 5 0
      vertex 35.314 0.00986576 0
      vertex 4.68605 0.00986576 0
    endloop
  endfacet
  facet normal 0 0 -1
    outer loop
      vertex 0 35 0
      vertex 40 35 0
      vertex 0 5 0
    endloop
  endfacet
  facet normal 0 0 -1
    outer loop
      vertex 0 5 0
      vertex 4.68605 0.00986576 0
      vertex 4.06309 0.088563 0
    endloop
  endfacet
  facet normal 0 0 -1
    outer loop
      vertex 40 35 0
      vertex 0 35 0
      vertex 35.314 39.9901 0
    endloop
  endfacet
  facet normal 0 0 -1
    outer loop
      vertex 0 5 0
      vertex 4.06309 0.088563 0
      vertex 3.45491 0.244717 0
    endloop
  endfacet
  facet normal -0 0 -1
    outer loop
      vertex 35.314 39.9901 0
      vertex 0 35 0
      vertex 4.68605 39.9901 0
    endloop
  endfacet
  facet normal 0 0 -1
    outer loop
      vertex 0 5 0
      vertex 3.45491 0.244717 0
      vertex 2.8711 0.475864 0
    endloop
  endfacet
  facet normal 0 0 -1
    outer loop
      vertex 4.68605 39.9901 0
      vertex 0 35 0
      vertex 4.06309 39.9114 0
    endloop
  endfacet
  facet normal 0 0 -1
    outer loop
      vertex 0 5 0
      vertex 2.8711 0.475864 0
      vertex 2.32087 0.77836 0
    endloop
  endfacet
  facet normal 0 0 -1
    outer loop
      vertex 4.06309 39.9114 0
      vertex 0 35 0
      vertex 3.45491 39.7553 0
    endloop
  endfacet
  facet normal 0 0 -1
    outer loop
      vertex 0 5 0
      vertex 2.32087 0.77836 0
      vertex 1.81288 1.14743 0
    endloop
  endfacet
  facet normal 0 0 -1
    outer loop
      vertex 3.45491 39.7553 0
      vertex 0 35 0
      vertex 2.8711 39.5241 0
    endloop
  endfacet
  facet normal 0 0 -1
    outer loop
      vertex 0 5 0
      vertex 1.81288 1.14743 0
      vertex 1.35516 1.57726 0
    endloop
  endfacet
  facet normal 0 0 -1
    outer loop
      vertex 2.8711 39.5241 0
      vertex 0 35 0
      vertex 2.32087 39.2216 0
    endloop
  endfacet
  facet normal 0 0 -1
    outer loop
      vertex 0 5 0
      vertex 1.35516 1.57726 0
      vertex 0.954914 2.06107 0
    endloop
  endfacet
  facet normal 0 0 -1
    outer loop
      vertex 2.32087 39.2216 0
      vertex 0 35 0
      vertex 1.81288 38.8526 0
    endloop
  endfacet
  facet normal 0 0 -1
    outer loop
      vertex 0 5 0
      vertex 0.954914 2.06107 0
      vertex 0.618466 2.59123 0
    endloop
  endfacet
  facet normal 0 0 -1
    outer loop
      vertex 1.81288 38.8526 0
      vertex 0 35 0
      vertex 1.35516 38.4227 0
    endloop
  endfacet
  facet normal 0 0 -1
    outer loop
      vertex 0 5 0
      vertex 0.618466 2.59123 0
      vertex 0.351117 3.15938 0
    endloop
  endfacet
  facet normal 0 0 -1
    outer loop
      vertex 1.35516 38.4227 0
      vertex 0 35 0
      vertex 0.954914 37.9389 0
    endloop
  endfacet
  facet normal 0 0 -1
    outer loop
      vertex 0 5 0
      vertex 0.351117 3.15938 0
      vertex 0.157084 3.75655 0
    endloop
  endfacet
  facet normal 0 0 -1
    outer loop
      vertex 0.954914 37.9389 0
      vertex 0 35 0
      vertex 0.618466 37.4088 0
    endloop
  endfacet
  facet normal 0 0 -1
    outer loop
      vertex 0 5 0
      vertex 0.157084 3.75655 0
      vertex 0.0394258 4.37333 0
    endloop
  endfacet
  facet normal 0 0 -1
    outer loop
      vertex 0.618466 37.4088 0
      vertex 0 35 0
      vertex 0.351117 36.8406 0
    endloop
  endfacet
  facet normal 0 0 -1
    outer loop
      vertex 0.351117 36.8406 0
      vertex 0 35 0
      vertex 0.157084 36.2435 0
    endloop
  endfacet
  facet normal 0 0 -1
    outer loop
      vertex 0.157084 36.2435 0
      vertex 0 35 0
      vertex 0.0394258 35.6267 0
    endloop
  endfacet
endsolid OpenSCAD_Model
