solid OpenSCAD_Model
  facet normal 0.996917 0.0784595 0
    outer loop
      vertex 9 0 2
      vertex 8.88919 1.40791 0
      vertex 8.88919 1.40791 2
    endloop
  endfacet
  facet normal 0.996917 0.0784595 0
    outer loop
      vertex 8.88919 1.40791 0
      vertex 9 0 2
      vertex 9 0 0
    endloop
  endfacet
  facet normal -0.996917 0.0784595 0
    outer loop
      vertex -9 0 0
      vertex -8.88919 1.40791 2
      vertex -8.88919 1.40791 0
    endloop
  endfacet
  facet normal -0.996917 0.0784595 0
    outer loop
      vertex -8.88919 1.40791 2
      vertex -9 0 0
      vertex -9 0 2
    endloop
  endfacet
  facet normal 0.0784595 0.996917 -0
    outer loop
      vertex 1.40791 8.88919 0
      vertex 0 9 2
      vertex 1.40791 8.88919 2
    endloop
  endfacet
  facet normal 0.0784595 0.996917 0
    outer loop
      vertex 0 9 2
      vertex 1.40791 8.88919 0
      vertex 0 9 0
    endloop
  endfacet
  facet normal 0.649448 0.760406 -0
    outer loop
      vertex 6.36396 6.36396 0
      vertex 5.29007 7.28115 2
      vertex 6.36396 6.36396 2
    endloop
  endfacet
  facet normal 0.649448 0.760406 0
    outer loop
      vertex 5.29007 7.28115 2
      vertex 6.36396 6.36396 0
      vertex 5.29007 7.28115 0
    endloop
  endfacet
  facet normal -0.649448 0.760406 0
    outer loop
      vertex -5.29007 7.28115 0
      vertex -6.36396 6.36396 2
      vertex -5.29007 7.28115 2
    endloop
  endfacet
  facet normal -0.649448 0.760406 0
    outer loop
      vertex -6.36396 6.36396 2
      vertex -5.29007 7.28115 0
      vertex -6.36396 6.36396 0
    endloop
  endfacet
  facet normal -0.233445 0.97237 0
    outer loop
      vertex -1.40791 8.88919 0
      vertex -2.78115 8.55951 2
      vertex -1.40791 8.88919 2
    endloop
  endfacet
  facet normal -0.233445 0.97237 0
    outer loop
      vertex -2.78115 8.55951 2
      vertex -1.40791 8.88919 0
      vertex -2.78115 8.55951 0
    endloop
  endfacet
  facet normal 0.85264 -0.522498 0
    outer loop
      vertex 7.28115 -5.29007 2
      vertex 8.01906 -4.08591 0
      vertex 8.01906 -4.08591 2
    endloop
  endfacet
  facet normal 0.85264 -0.522498 0
    outer loop
      vertex 8.01906 -4.08591 0
      vertex 7.28115 -5.29007 2
      vertex 7.28115 -5.29007 0
    endloop
  endfacet
  facet normal -0.760406 -0.649448 0
    outer loop
      vertex -6.36396 -6.36396 0
      vertex -7.28115 -5.29007 2
      vertex -7.28115 -5.29007 0
    endloop
  endfacet
  facet normal -0.760406 -0.649448 0
    outer loop
      vertex -7.28115 -5.29007 2
      vertex -6.36396 -6.36396 0
      vertex -6.36396 -6.36396 2
    endloop
  endfacet
  facet normal 0.923879 0.382684 0
    outer loop
      vertex 8.55951 2.78115 2
      vertex 8.01906 4.08591 0
      vertex 8.01906 4.08591 2
    endloop
  endfacet
  facet normal 0.923879 0.382684 0
    outer loop
      vertex 8.01906 4.08591 0
      vertex 8.55951 2.78115 2
      vertex 8.55951 2.78115 0
    endloop
  endfacet
  facet normal 0.97237 0.233445 0
    outer loop
      vertex 8.88919 1.40791 2
      vertex 8.55951 2.78115 0
      vertex 8.55951 2.78115 2
    endloop
  endfacet
  facet normal 0.97237 0.233445 0
    outer loop
      vertex 8.55951 2.78115 0
      vertex 8.88919 1.40791 2
      vertex 8.88919 1.40791 0
    endloop
  endfacet
  facet normal 0.760406 0.649448 0
    outer loop
      vertex 7.28115 5.29007 2
      vertex 6.36396 6.36396 0
      vertex 6.36396 6.36396 2
    endloop
  endfacet
  facet normal 0.760406 0.649448 0
    outer loop
      vertex 6.36396 6.36396 0
      vertex 7.28115 5.29007 2
      vertex 7.28115 5.29007 0
    endloop
  endfacet
  facet normal 0.382684 0.923879 -0
    outer loop
      vertex 4.08591 8.01906 0
      vertex 2.78115 8.55951 2
      vertex 4.08591 8.01906 2
    endloop
  endfacet
  facet normal 0.382684 0.923879 0
    outer loop
      vertex 2.78115 8.55951 2
      vertex 4.08591 8.01906 0
      vertex 2.78115 8.55951 0
    endloop
  endfacet
  facet normal 0.233445 0.97237 -0
    outer loop
      vertex 2.78115 8.55951 0
      vertex 1.40791 8.88919 2
      vertex 2.78115 8.55951 2
    endloop
  endfacet
  facet normal 0.233445 0.97237 0
    outer loop
      vertex 1.40791 8.88919 2
      vertex 2.78115 8.55951 0
      vertex 1.40791 8.88919 0
    endloop
  endfacet
  facet normal 0.522498 0.85264 -0
    outer loop
      vertex 5.29007 7.28115 0
      vertex 4.08591 8.01906 2
      vertex 5.29007 7.28115 2
    endloop
  endfacet
  facet normal 0.522498 0.85264 0
    outer loop
      vertex 4.08591 8.01906 2
      vertex 5.29007 7.28115 0
      vertex 4.08591 8.01906 0
    endloop
  endfacet
  facet normal -0.85264 0.522498 0
    outer loop
      vertex -8.01906 4.08591 0
      vertex -7.28115 5.29007 2
      vertex -7.28115 5.29007 0
    endloop
  endfacet
  facet normal -0.85264 0.522498 0
    outer loop
      vertex -7.28115 5.29007 2
      vertex -8.01906 4.08591 0
      vertex -8.01906 4.08591 2
    endloop
  endfacet
  facet normal -0.760406 0.649448 0
    outer loop
      vertex -7.28115 5.29007 0
      vertex -6.36396 6.36396 2
      vertex -6.36396 6.36396 0
    endloop
  endfacet
  facet normal -0.760406 0.649448 0
    outer loop
      vertex -6.36396 6.36396 2
      vertex -7.28115 5.29007 0
      vertex -7.28115 5.29007 2
    endloop
  endfacet
  facet normal -0.97237 0.233445 0
    outer loop
      vertex -8.88919 1.40791 0
      vertex -8.55951 2.78115 2
      vertex -8.55951 2.78115 0
    endloop
  endfacet
  facet normal -0.97237 0.233445 0
    outer loop
      vertex -8.55951 2.78115 2
      vertex -8.88919 1.40791 0
      vertex -8.88919 1.40791 2
    endloop
  endfacet
  facet normal 0 0 1
    outer loop
      vertex 5 0 2
      vertex 9 0 2
      vertex 8.88919 1.40791 2
    endloop
  endfacet
  facet normal 0 0 1
    outer loop
      vertex 4.93844 0.782172 2
      vertex 8.88919 1.40791 2
      vertex 8.55951 2.78115 2
    endloop
  endfacet
  facet normal 0 0 1
    outer loop
      vertex 9 0 2
      vertex 5 0 2
      vertex 8.88919 -1.40791 2
    endloop
  endfacet
  facet normal 0 0 1
    outer loop
      vertex 4.75528 1.54508 2
      vertex 8.55951 2.78115 2
      vertex 8.01906 4.08591 2
    endloop
  endfacet
  facet normal -0 0 1
    outer loop
      vertex 4.93844 -0.782172 2
      vertex 8.88919 -1.40791 2
      vertex 5 0 2
    endloop
  endfacet
  facet normal 0 0 1
    outer loop
      vertex 4.45503 2.26995 2
      vertex 8.01906 4.08591 2
      vertex 7.28115 5.29007 2
    endloop
  endfacet
  facet normal 0 0 1
    outer loop
      vertex 8.88919 -1.40791 2
      vertex 4.93844 -0.782172 2
      vertex 8.55951 -2.78115 2
    endloop
  endfacet
  facet normal 0 0 1
    outer loop
      vertex 4.04508 2.93893 2
      vertex 7.28115 5.29007 2
      vertex 6.36396 6.36396 2
    endloop
  endfacet
  facet normal -0 0 1
    outer loop
      vertex 4.75528 -1.54508 2
      vertex 8.55951 -2.78115 2
      vertex 4.93844 -0.782172 2
    endloop
  endfacet
  facet normal 0 0 1
    outer loop
      vertex 3.53553 3.53553 2
      vertex 6.36396 6.36396 2
      vertex 5.29007 7.28115 2
    endloop
  endfacet
  facet normal 0 0 1
    outer loop
      vertex 8.55951 -2.78115 2
      vertex 4.75528 -1.54508 2
      vertex 8.01906 -4.08591 2
    endloop
  endfacet
  facet normal -0 0 1
    outer loop
      vertex 4.45503 -2.26995 2
      vertex 8.01906 -4.08591 2
      vertex 4.75528 -1.54508 2
    endloop
  endfacet
  facet normal 0 0 1
    outer loop
      vertex 8.88919 1.40791 2
      vertex 4.93844 0.782172 2
      vertex 5 0 2
    endloop
  endfacet
  facet normal 0 0 1
    outer loop
      vertex 8.55951 2.78115 2
      vertex 4.75528 1.54508 2
      vertex 4.93844 0.782172 2
    endloop
  endfacet
  facet normal 0 0 1
    outer loop
      vertex 8.01906 4.08591 2
      vertex 4.45503 2.26995 2
      vertex 4.75528 1.54508 2
    endloop
  endfacet
  facet normal 0 0 1
    outer loop
      vertex 2.93893 4.04508 2
      vertex 5.29007 7.28115 2
      vertex 4.08591 8.01906 2
    endloop
  endfacet
  facet normal 0 0 1
    outer loop
      vertex 7.28115 5.29007 2
      vertex 4.04508 2.93893 2
      vertex 4.45503 2.26995 2
    endloop
  endfacet
  facet normal 0 0 1
    outer loop
      vertex 6.36396 6.36396 2
      vertex 3.53553 3.53553 2
      vertex 4.04508 2.93893 2
    endloop
  endfacet
  facet normal 0 0 1
    outer loop
      vertex 5.29007 7.28115 2
      vertex 2.93893 4.04508 2
      vertex 3.53553 3.53553 2
    endloop
  endfacet
  facet normal 0 0 1
    outer loop
      vertex 2.26995 4.45503 2
      vertex 4.08591 8.01906 2
      vertex 2.78115 8.55951 2
    endloop
  endfacet
  facet normal 0 0 1
    outer loop
      vertex 4.08591 8.01906 2
      vertex 2.26995 4.45503 2
      vertex 2.93893 4.04508 2
    endloop
  endfacet
  facet normal 0 0 1
    outer loop
      vertex 2.78115 8.55951 2
      vertex 1.54508 4.75528 2
      vertex 2.26995 4.45503 2
    endloop
  endfacet
  facet normal 0 0 1
    outer loop
      vertex 1.40791 8.88919 2
      vertex 1.54508 4.75528 2
      vertex 2.78115 8.55951 2
    endloop
  endfacet
  facet normal 0 0 1
    outer loop
      vertex 1.40791 8.88919 2
      vertex 0.782172 4.93844 2
      vertex 1.54508 4.75528 2
    endloop
  endfacet
  facet normal 0 0 1
    outer loop
      vertex 0 9 2
      vertex 0.782172 4.93844 2
      vertex 1.40791 8.88919 2
    endloop
  endfacet
  facet normal 0 0 1
    outer loop
      vertex 0 9 2
      vertex 0 5 2
      vertex 0.782172 4.93844 2
    endloop
  endfacet
  facet normal 0 0 1
    outer loop
      vertex 0 9 2
      vertex -0.782172 4.93844 2
      vertex 0 5 2
    endloop
  endfacet
  facet normal -0 0 1
    outer loop
      vertex -1.40791 8.88919 2
      vertex -0.782172 4.93844 2
      vertex 0 9 2
    endloop
  endfacet
  facet normal 0 0 1
    outer loop
      vertex -1.40791 8.88919 2
      vertex -1.54508 4.75528 2
      vertex -0.782172 4.93844 2
    endloop
  endfacet
  facet normal -0 0 1
    outer loop
      vertex -2.78115 8.55951 2
      vertex -1.54508 4.75528 2
      vertex -1.40791 8.88919 2
    endloop
  endfacet
  facet normal 0 0 1
    outer loop
      vertex -1.54508 4.75528 2
      vertex -2.78115 8.55951 2
      vertex -2.26995 4.45503 2
    endloop
  endfacet
  facet normal -0 0 1
    outer loop
      vertex -4.08591 8.01906 2
      vertex -2.26995 4.45503 2
      vertex -2.78115 8.55951 2
    endloop
  endfacet
  facet normal 0 0 1
    outer loop
      vertex -2.26995 4.45503 2
      vertex -4.08591 8.01906 2
      vertex -2.93893 4.04508 2
    endloop
  endfacet
  facet normal -0 0 1
    outer loop
      vertex -5.29007 7.28115 2
      vertex -2.93893 4.04508 2
      vertex -4.08591 8.01906 2
    endloop
  endfacet
  facet normal 0 0 1
    outer loop
      vertex -2.93893 4.04508 2
      vertex -5.29007 7.28115 2
      vertex -3.53553 3.53553 2
    endloop
  endfacet
  facet normal -0 0 1
    outer loop
      vertex -6.36396 6.36396 2
      vertex -3.53553 3.53553 2
      vertex -5.29007 7.28115 2
    endloop
  endfacet
  facet normal 0 0 1
    outer loop
      vertex -3.53553 3.53553 2
      vertex -6.36396 6.36396 2
      vertex -4.04508 2.93893 2
    endloop
  endfacet
  facet normal -0 0 1
    outer loop
      vertex -7.28115 5.29007 2
      vertex -4.04508 2.93893 2
      vertex -6.36396 6.36396 2
    endloop
  endfacet
  facet normal -0 0 1
    outer loop
      vertex -8.01906 4.08591 2
      vertex -4.45503 2.26995 2
      vertex -7.28115 5.29007 2
    endloop
  endfacet
  facet normal 0 0 1
    outer loop
      vertex -4.04508 2.93893 2
      vertex -7.28115 5.29007 2
      vertex -4.45503 2.26995 2
    endloop
  endfacet
  facet normal 0 0 1
    outer loop
      vertex 8.01906 -4.08591 2
      vertex 4.45503 -2.26995 2
      vertex 7.28115 -5.29007 2
    endloop
  endfacet
  facet normal -0 0 1
    outer loop
      vertex 4.04508 -2.93893 2
      vertex 7.28115 -5.29007 2
      vertex 4.45503 -2.26995 2
    endloop
  endfacet
  facet normal 0 0 1
    outer loop
      vertex 7.28115 -5.29007 2
      vertex 4.04508 -2.93893 2
      vertex 6.36396 -6.36396 2
    endloop
  endfacet
  facet normal -0 0 1
    outer loop
      vertex 3.53553 -3.53553 2
      vertex 6.36396 -6.36396 2
      vertex 4.04508 -2.93893 2
    endloop
  endfacet
  facet normal 0 0 1
    outer loop
      vertex 6.36396 -6.36396 2
      vertex 3.53553 -3.53553 2
      vertex 5.29007 -7.28115 2
    endloop
  endfacet
  facet normal -0 0 1
    outer loop
      vertex 2.93893 -4.04508 2
      vertex 5.29007 -7.28115 2
      vertex 3.53553 -3.53553 2
    endloop
  endfacet
  facet normal 0 0 1
    outer loop
      vertex 5.29007 -7.28115 2
      vertex 2.93893 -4.04508 2
      vertex 4.08591 -8.01906 2
    endloop
  endfacet
  facet normal -0 0 1
    outer loop
      vertex 2.26995 -4.45503 2
      vertex 4.08591 -8.01906 2
      vertex 2.93893 -4.04508 2
    endloop
  endfacet
  facet normal 0 0 1
    outer loop
      vertex 4.08591 -8.01906 2
      vertex 2.26995 -4.45503 2
      vertex 2.78115 -8.55951 2
    endloop
  endfacet
  facet normal -0 0 1
    outer loop
      vertex 1.54508 -4.75528 2
      vertex 2.78115 -8.55951 2
      vertex 2.26995 -4.45503 2
    endloop
  endfacet
  facet normal 0 0 1
    outer loop
      vertex 1.54508 -4.75528 2
      vertex 1.40791 -8.88919 2
      vertex 2.78115 -8.55951 2
    endloop
  endfacet
  facet normal -0 0 1
    outer loop
      vertex 0.782172 -4.93844 2
      vertex 1.40791 -8.88919 2
      vertex 1.54508 -4.75528 2
    endloop
  endfacet
  facet normal -0 0 1
    outer loop
      vertex 0 -5 2
      vertex 1.40791 -8.88919 2
      vertex 0.782172 -4.93844 2
    endloop
  endfacet
  facet normal 0 0 1
    outer loop
      vertex 0 -5 2
      vertex 0 -9 2
      vertex 1.40791 -8.88919 2
    endloop
  endfacet
  facet normal 0 0 1
    outer loop
      vertex -0.782172 -4.93844 2
      vertex 0 -9 2
      vertex 0 -5 2
    endloop
  endfacet
  facet normal 0 0 1
    outer loop
      vertex -0.782172 -4.93844 2
      vertex -1.40791 -8.88919 2
      vertex 0 -9 2
    endloop
  endfacet
  facet normal 0 0 1
    outer loop
      vertex -1.54508 -4.75528 2
      vertex -1.40791 -8.88919 2
      vertex -0.782172 -4.93844 2
    endloop
  endfacet
  facet normal 0 0 1
    outer loop
      vertex -2.78115 -8.55951 2
      vertex -1.54508 -4.75528 2
      vertex -2.26995 -4.45503 2
    endloop
  endfacet
  facet normal 0 0 1
    outer loop
      vertex -1.54508 -4.75528 2
      vertex -2.78115 -8.55951 2
      vertex -1.40791 -8.88919 2
    endloop
  endfacet
  facet normal 0 0 1
    outer loop
      vertex -4.08591 -8.01906 2
      vertex -2.26995 -4.45503 2
      vertex -2.93893 -4.04508 2
    endloop
  endfacet
  facet normal 0 0 1
    outer loop
      vertex -5.29007 -7.28115 2
      vertex -2.93893 -4.04508 2
      vertex -3.53553 -3.53553 2
    endloop
  endfacet
  facet normal 0 0 1
    outer loop
      vertex -6.36396 -6.36396 2
      vertex -3.53553 -3.53553 2
      vertex -4.04508 -2.93893 2
    endloop
  endfacet
  facet normal 0 0 1
    outer loop
      vertex -2.26995 -4.45503 2
      vertex -4.08591 -8.01906 2
      vertex -2.78115 -8.55951 2
    endloop
  endfacet
  facet normal 0 0 1
    outer loop
      vertex -7.28115 -5.29007 2
      vertex -4.04508 -2.93893 2
      vertex -4.45503 -2.26995 2
    endloop
  endfacet
  facet normal 0 0 1
    outer loop
      vertex -8.01906 -4.08591 2
      vertex -4.45503 -2.26995 2
      vertex -4.75528 -1.54508 2
    endloop
  endfacet
  facet normal 0 0 1
    outer loop
      vertex -8.55951 -2.78115 2
      vertex -4.75528 -1.54508 2
      vertex -4.93844 -0.782172 2
    endloop
  endfacet
  facet normal 0 0 1
    outer loop
      vertex -2.93893 -4.04508 2
      vertex -5.29007 -7.28115 2
      vertex -4.08591 -8.01906 2
    endloop
  endfacet
  facet normal 0 0 1
    outer loop
      vertex -8.88919 -1.40791 2
      vertex -4.93844 -0.782172 2
      vertex -5 0 2
    endloop
  endfacet
  facet normal 0 0 1
    outer loop
      vertex -4.45503 2.26995 2
      vertex -8.01906 4.08591 2
      vertex -4.75528 1.54508 2
    endloop
  endfacet
  facet normal -0 0 1
    outer loop
      vertex -8.55951 2.78115 2
      vertex -4.75528 1.54508 2
      vertex -8.01906 4.08591 2
    endloop
  endfacet
  facet normal 0 0 1
    outer loop
      vertex -3.53553 -3.53553 2
      vertex -6.36396 -6.36396 2
      vertex -5.29007 -7.28115 2
    endloop
  endfacet
  facet normal 0 0 1
    outer loop
      vertex -4.75528 1.54508 2
      vertex -8.55951 2.78115 2
      vertex -4.93844 0.782172 2
    endloop
  endfacet
  facet normal 0 0 1
    outer loop
      vertex -4.04508 -2.93893 2
      vertex -7.28115 -5.29007 2
      vertex -6.36396 -6.36396 2
    endloop
  endfacet
  facet normal -0 0 1
    outer loop
      vertex -8.88919 1.40791 2
      vertex -4.93844 0.782172 2
      vertex -8.55951 2.78115 2
    endloop
  endfacet
  facet normal 0 0 1
    outer loop
      vertex -4.45503 -2.26995 2
      vertex -8.01906 -4.08591 2
      vertex -7.28115 -5.29007 2
    endloop
  endfacet
  facet normal 0 0 1
    outer loop
      vertex -4.93844 0.782172 2
      vertex -8.88919 1.40791 2
      vertex -5 0 2
    endloop
  endfacet
  facet normal 0 0 1
    outer loop
      vertex -4.75528 -1.54508 2
      vertex -8.55951 -2.78115 2
      vertex -8.01906 -4.08591 2
    endloop
  endfacet
  facet normal 0 0 1
    outer loop
      vertex -9 0 2
      vertex -5 0 2
      vertex -8.88919 1.40791 2
    endloop
  endfacet
  facet normal 0 0 1
    outer loop
      vertex -4.93844 -0.782172 2
      vertex -8.88919 -1.40791 2
      vertex -8.55951 -2.78115 2
    endloop
  endfacet
  facet normal 0 0 1
    outer loop
      vertex -5 0 2
      vertex -9 0 2
      vertex -8.88919 -1.40791 2
    endloop
  endfacet
  facet normal -0.522498 0.85264 0
    outer loop
      vertex -4.08591 8.01906 0
      vertex -5.29007 7.28115 2
      vertex -4.08591 8.01906 2
    endloop
  endfacet
  facet normal -0.522498 0.85264 0
    outer loop
      vertex -5.29007 7.28115 2
      vertex -4.08591 8.01906 0
      vertex -5.29007 7.28115 0
    endloop
  endfacet
  facet normal -0.0784595 0.996917 0
    outer loop
      vertex 0 9 0
      vertex -1.40791 8.88919 2
      vertex 0 9 2
    endloop
  endfacet
  facet normal -0.0784595 0.996917 0
    outer loop
      vertex -1.40791 8.88919 2
      vertex 0 9 0
      vertex -1.40791 8.88919 0
    endloop
  endfacet
  facet normal 0.760406 -0.649448 0
    outer loop
      vertex 6.36396 -6.36396 2
      vertex 7.28115 -5.29007 0
      vertex 7.28115 -5.29007 2
    endloop
  endfacet
  facet normal 0.760406 -0.649448 0
    outer loop
      vertex 7.28115 -5.29007 0
      vertex 6.36396 -6.36396 2
      vertex 6.36396 -6.36396 0
    endloop
  endfacet
  facet normal 0.522498 -0.85264 0
    outer loop
      vertex 4.08591 -8.01906 0
      vertex 5.29007 -7.28115 2
      vertex 4.08591 -8.01906 2
    endloop
  endfacet
  facet normal 0.522498 -0.85264 0
    outer loop
      vertex 5.29007 -7.28115 2
      vertex 4.08591 -8.01906 0
      vertex 5.29007 -7.28115 0
    endloop
  endfacet
  facet normal 0.996917 -0.0784595 0
    outer loop
      vertex 8.88919 -1.40791 2
      vertex 9 0 0
      vertex 9 0 2
    endloop
  endfacet
  facet normal 0.996917 -0.0784595 0
    outer loop
      vertex 9 0 0
      vertex 8.88919 -1.40791 2
      vertex 8.88919 -1.40791 0
    endloop
  endfacet
  facet normal -0.649448 -0.760406 0
    outer loop
      vertex -6.36396 -6.36396 0
      vertex -5.29007 -7.28115 2
      vertex -6.36396 -6.36396 2
    endloop
  endfacet
  facet normal -0.649448 -0.760406 -0
    outer loop
      vertex -5.29007 -7.28115 2
      vertex -6.36396 -6.36396 0
      vertex -5.29007 -7.28115 0
    endloop
  endfacet
  facet normal -0.233445 -0.97237 0
    outer loop
      vertex -2.78115 -8.55951 0
      vertex -1.40791 -8.88919 2
      vertex -2.78115 -8.55951 2
    endloop
  endfacet
  facet normal -0.233445 -0.97237 -0
    outer loop
      vertex -1.40791 -8.88919 2
      vertex -2.78115 -8.55951 0
      vertex -1.40791 -8.88919 0
    endloop
  endfacet
  facet normal -0.996917 -0.0784595 0
    outer loop
      vertex -8.88919 -1.40791 0
      vertex -9 0 2
      vertex -9 0 0
    endloop
  endfacet
  facet normal -0.996917 -0.0784595 0
    outer loop
      vertex -9 0 2
      vertex -8.88919 -1.40791 0
      vertex -8.88919 -1.40791 2
    endloop
  endfacet
  facet normal 0 0 -1
    outer loop
      vertex 5 0 0
      vertex 9 0 0
      vertex 8.88919 -1.40791 0
    endloop
  endfacet
  facet normal 0 0 -1
    outer loop
      vertex 4.93844 -0.782172 0
      vertex 8.88919 -1.40791 0
      vertex 8.55951 -2.78115 0
    endloop
  endfacet
  facet normal 0 0 -1
    outer loop
      vertex 9 0 0
      vertex 5 0 0
      vertex 8.88919 1.40791 0
    endloop
  endfacet
  facet normal 0 0 -1
    outer loop
      vertex 4.75528 -1.54508 0
      vertex 8.55951 -2.78115 0
      vertex 8.01906 -4.08591 0
    endloop
  endfacet
  facet normal 0 0 -1
    outer loop
      vertex 4.93844 0.782172 0
      vertex 8.88919 1.40791 0
      vertex 5 0 0
    endloop
  endfacet
  facet normal 0 0 -1
    outer loop
      vertex 4.45503 -2.26995 0
      vertex 8.01906 -4.08591 0
      vertex 7.28115 -5.29007 0
    endloop
  endfacet
  facet normal -0 0 -1
    outer loop
      vertex 8.88919 1.40791 0
      vertex 4.93844 0.782172 0
      vertex 8.55951 2.78115 0
    endloop
  endfacet
  facet normal 0 0 -1
    outer loop
      vertex 4.04508 -2.93893 0
      vertex 7.28115 -5.29007 0
      vertex 6.36396 -6.36396 0
    endloop
  endfacet
  facet normal 0 0 -1
    outer loop
      vertex 4.75528 1.54508 0
      vertex 8.55951 2.78115 0
      vertex 4.93844 0.782172 0
    endloop
  endfacet
  facet normal 0 0 -1
    outer loop
      vertex 3.53553 -3.53553 0
      vertex 6.36396 -6.36396 0
      vertex 5.29007 -7.28115 0
    endloop
  endfacet
  facet normal -0 0 -1
    outer loop
      vertex 8.55951 2.78115 0
      vertex 4.75528 1.54508 0
      vertex 8.01906 4.08591 0
    endloop
  endfacet
  facet normal 0 0 -1
    outer loop
      vertex 4.45503 2.26995 0
      vertex 8.01906 4.08591 0
      vertex 4.75528 1.54508 0
    endloop
  endfacet
  facet normal 0 0 -1
    outer loop
      vertex 8.88919 -1.40791 0
      vertex 4.93844 -0.782172 0
      vertex 5 0 0
    endloop
  endfacet
  facet normal 0 0 -1
    outer loop
      vertex 8.55951 -2.78115 0
      vertex 4.75528 -1.54508 0
      vertex 4.93844 -0.782172 0
    endloop
  endfacet
  facet normal 0 0 -1
    outer loop
      vertex 8.01906 -4.08591 0
      vertex 4.45503 -2.26995 0
      vertex 4.75528 -1.54508 0
    endloop
  endfacet
  facet normal 0 0 -1
    outer loop
      vertex 2.93893 -4.04508 0
      vertex 5.29007 -7.28115 0
      vertex 4.08591 -8.01906 0
    endloop
  endfacet
  facet normal 0 0 -1
    outer loop
      vertex 7.28115 -5.29007 0
      vertex 4.04508 -2.93893 0
      vertex 4.45503 -2.26995 0
    endloop
  endfacet
  facet normal 0 0 -1
    outer loop
      vertex 6.36396 -6.36396 0
      vertex 3.53553 -3.53553 0
      vertex 4.04508 -2.93893 0
    endloop
  endfacet
  facet normal 0 0 -1
    outer loop
      vertex 5.29007 -7.28115 0
      vertex 2.93893 -4.04508 0
      vertex 3.53553 -3.53553 0
    endloop
  endfacet
  facet normal 0 0 -1
    outer loop
      vertex 2.26995 -4.45503 0
      vertex 4.08591 -8.01906 0
      vertex 2.78115 -8.55951 0
    endloop
  endfacet
  facet normal 0 0 -1
    outer loop
      vertex 4.08591 -8.01906 0
      vertex 2.26995 -4.45503 0
      vertex 2.93893 -4.04508 0
    endloop
  endfacet
  facet normal 0 0 -1
    outer loop
      vertex 2.78115 -8.55951 0
      vertex 1.54508 -4.75528 0
      vertex 2.26995 -4.45503 0
    endloop
  endfacet
  facet normal 0 0 -1
    outer loop
      vertex 1.40791 -8.88919 0
      vertex 1.54508 -4.75528 0
      vertex 2.78115 -8.55951 0
    endloop
  endfacet
  facet normal 0 0 -1
    outer loop
      vertex 1.40791 -8.88919 0
      vertex 0.782172 -4.93844 0
      vertex 1.54508 -4.75528 0
    endloop
  endfacet
  facet normal 0 0 -1
    outer loop
      vertex 0 -9 0
      vertex 0.782172 -4.93844 0
      vertex 1.40791 -8.88919 0
    endloop
  endfacet
  facet normal 0 0 -1
    outer loop
      vertex 0 -9 0
      vertex 0 -5 0
      vertex 0.782172 -4.93844 0
    endloop
  endfacet
  facet normal 0 0 -1
    outer loop
      vertex 0 -9 0
      vertex -0.782172 -4.93844 0
      vertex 0 -5 0
    endloop
  endfacet
  facet normal 0 0 -1
    outer loop
      vertex -1.40791 -8.88919 0
      vertex -0.782172 -4.93844 0
      vertex 0 -9 0
    endloop
  endfacet
  facet normal 0 0 -1
    outer loop
      vertex -1.40791 -8.88919 0
      vertex -1.54508 -4.75528 0
      vertex -0.782172 -4.93844 0
    endloop
  endfacet
  facet normal 0 0 -1
    outer loop
      vertex -2.78115 -8.55951 0
      vertex -1.54508 -4.75528 0
      vertex -1.40791 -8.88919 0
    endloop
  endfacet
  facet normal -0 0 -1
    outer loop
      vertex -1.54508 -4.75528 0
      vertex -2.78115 -8.55951 0
      vertex -2.26995 -4.45503 0
    endloop
  endfacet
  facet normal 0 0 -1
    outer loop
      vertex -4.08591 -8.01906 0
      vertex -2.26995 -4.45503 0
      vertex -2.78115 -8.55951 0
    endloop
  endfacet
  facet normal -0 0 -1
    outer loop
      vertex -2.26995 -4.45503 0
      vertex -4.08591 -8.01906 0
      vertex -2.93893 -4.04508 0
    endloop
  endfacet
  facet normal 0 0 -1
    outer loop
      vertex -5.29007 -7.28115 0
      vertex -2.93893 -4.04508 0
      vertex -4.08591 -8.01906 0
    endloop
  endfacet
  facet normal -0 0 -1
    outer loop
      vertex -2.93893 -4.04508 0
      vertex -5.29007 -7.28115 0
      vertex -3.53553 -3.53553 0
    endloop
  endfacet
  facet normal 0 0 -1
    outer loop
      vertex -6.36396 -6.36396 0
      vertex -3.53553 -3.53553 0
      vertex -5.29007 -7.28115 0
    endloop
  endfacet
  facet normal -0 0 -1
    outer loop
      vertex -3.53553 -3.53553 0
      vertex -6.36396 -6.36396 0
      vertex -4.04508 -2.93893 0
    endloop
  endfacet
  facet normal 0 0 -1
    outer loop
      vertex -7.28115 -5.29007 0
      vertex -4.04508 -2.93893 0
      vertex -6.36396 -6.36396 0
    endloop
  endfacet
  facet normal 0 0 -1
    outer loop
      vertex -8.01906 -4.08591 0
      vertex -4.45503 -2.26995 0
      vertex -7.28115 -5.29007 0
    endloop
  endfacet
  facet normal -0 0 -1
    outer loop
      vertex -4.04508 -2.93893 0
      vertex -7.28115 -5.29007 0
      vertex -4.45503 -2.26995 0
    endloop
  endfacet
  facet normal -0 0 -1
    outer loop
      vertex 8.01906 4.08591 0
      vertex 4.45503 2.26995 0
      vertex 7.28115 5.29007 0
    endloop
  endfacet
  facet normal 0 0 -1
    outer loop
      vertex 4.04508 2.93893 0
      vertex 7.28115 5.29007 0
      vertex 4.45503 2.26995 0
    endloop
  endfacet
  facet normal -0 0 -1
    outer loop
      vertex 7.28115 5.29007 0
      vertex 4.04508 2.93893 0
      vertex 6.36396 6.36396 0
    endloop
  endfacet
  facet normal 0 0 -1
    outer loop
      vertex 3.53553 3.53553 0
      vertex 6.36396 6.36396 0
      vertex 4.04508 2.93893 0
    endloop
  endfacet
  facet normal -0 0 -1
    outer loop
      vertex 6.36396 6.36396 0
      vertex 3.53553 3.53553 0
      vertex 5.29007 7.28115 0
    endloop
  endfacet
  facet normal 0 0 -1
    outer loop
      vertex 2.93893 4.04508 0
      vertex 5.29007 7.28115 0
      vertex 3.53553 3.53553 0
    endloop
  endfacet
  facet normal -0 0 -1
    outer loop
      vertex 5.29007 7.28115 0
      vertex 2.93893 4.04508 0
      vertex 4.08591 8.01906 0
    endloop
  endfacet
  facet normal 0 0 -1
    outer loop
      vertex 2.26995 4.45503 0
      vertex 4.08591 8.01906 0
      vertex 2.93893 4.04508 0
    endloop
  endfacet
  facet normal -0 0 -1
    outer loop
      vertex 4.08591 8.01906 0
      vertex 2.26995 4.45503 0
      vertex 2.78115 8.55951 0
    endloop
  endfacet
  facet normal 0 0 -1
    outer loop
      vertex 1.54508 4.75528 0
      vertex 2.78115 8.55951 0
      vertex 2.26995 4.45503 0
    endloop
  endfacet
  facet normal 0 0 -1
    outer loop
      vertex 1.54508 4.75528 0
      vertex 1.40791 8.88919 0
      vertex 2.78115 8.55951 0
    endloop
  endfacet
  facet normal 0 0 -1
    outer loop
      vertex 0.782172 4.93844 0
      vertex 1.40791 8.88919 0
      vertex 1.54508 4.75528 0
    endloop
  endfacet
  facet normal 0 0 -1
    outer loop
      vertex 0 5 0
      vertex 1.40791 8.88919 0
      vertex 0.782172 4.93844 0
    endloop
  endfacet
  facet normal 0 0 -1
    outer loop
      vertex 0 5 0
      vertex 0 9 0
      vertex 1.40791 8.88919 0
    endloop
  endfacet
  facet normal 0 0 -1
    outer loop
      vertex -0.782172 4.93844 0
      vertex 0 9 0
      vertex 0 5 0
    endloop
  endfacet
  facet normal 0 0 -1
    outer loop
      vertex -0.782172 4.93844 0
      vertex -1.40791 8.88919 0
      vertex 0 9 0
    endloop
  endfacet
  facet normal 0 0 -1
    outer loop
      vertex -1.54508 4.75528 0
      vertex -1.40791 8.88919 0
      vertex -0.782172 4.93844 0
    endloop
  endfacet
  facet normal 0 0 -1
    outer loop
      vertex -2.78115 8.55951 0
      vertex -1.54508 4.75528 0
      vertex -2.26995 4.45503 0
    endloop
  endfacet
  facet normal 0 0 -1
    outer loop
      vertex -1.54508 4.75528 0
      vertex -2.78115 8.55951 0
      vertex -1.40791 8.88919 0
    endloop
  endfacet
  facet normal 0 0 -1
    outer loop
      vertex -4.08591 8.01906 0
      vertex -2.26995 4.45503 0
      vertex -2.93893 4.04508 0
    endloop
  endfacet
  facet normal 0 0 -1
    outer loop
      vertex -5.29007 7.28115 0
      vertex -2.93893 4.04508 0
      vertex -3.53553 3.53553 0
    endloop
  endfacet
  facet normal 0 0 -1
    outer loop
      vertex -6.36396 6.36396 0
      vertex -3.53553 3.53553 0
      vertex -4.04508 2.93893 0
    endloop
  endfacet
  facet normal 0 0 -1
    outer loop
      vertex -2.26995 4.45503 0
      vertex -4.08591 8.01906 0
      vertex -2.78115 8.55951 0
    endloop
  endfacet
  facet normal 0 0 -1
    outer loop
      vertex -7.28115 5.29007 0
      vertex -4.04508 2.93893 0
      vertex -4.45503 2.26995 0
    endloop
  endfacet
  facet normal 0 0 -1
    outer loop
      vertex -8.01906 4.08591 0
      vertex -4.45503 2.26995 0
      vertex -4.75528 1.54508 0
    endloop
  endfacet
  facet normal 0 0 -1
    outer loop
      vertex -8.55951 2.78115 0
      vertex -4.75528 1.54508 0
      vertex -4.93844 0.782172 0
    endloop
  endfacet
  facet normal 0 0 -1
    outer loop
      vertex -2.93893 4.04508 0
      vertex -5.29007 7.28115 0
      vertex -4.08591 8.01906 0
    endloop
  endfacet
  facet normal 0 0 -1
    outer loop
      vertex -8.88919 1.40791 0
      vertex -4.93844 0.782172 0
      vertex -5 0 0
    endloop
  endfacet
  facet normal -0 0 -1
    outer loop
      vertex -4.45503 -2.26995 0
      vertex -8.01906 -4.08591 0
      vertex -4.75528 -1.54508 0
    endloop
  endfacet
  facet normal 0 0 -1
    outer loop
      vertex -8.55951 -2.78115 0
      vertex -4.75528 -1.54508 0
      vertex -8.01906 -4.08591 0
    endloop
  endfacet
  facet normal 0 0 -1
    outer loop
      vertex -3.53553 3.53553 0
      vertex -6.36396 6.36396 0
      vertex -5.29007 7.28115 0
    endloop
  endfacet
  facet normal -0 0 -1
    outer loop
      vertex -4.75528 -1.54508 0
      vertex -8.55951 -2.78115 0
      vertex -4.93844 -0.782172 0
    endloop
  endfacet
  facet normal 0 0 -1
    outer loop
      vertex -4.04508 2.93893 0
      vertex -7.28115 5.29007 0
      vertex -6.36396 6.36396 0
    endloop
  endfacet
  facet normal 0 0 -1
    outer loop
      vertex -8.88919 -1.40791 0
      vertex -4.93844 -0.782172 0
      vertex -8.55951 -2.78115 0
    endloop
  endfacet
  facet normal 0 0 -1
    outer loop
      vertex -4.45503 2.26995 0
      vertex -8.01906 4.08591 0
      vertex -7.28115 5.29007 0
    endloop
  endfacet
  facet normal -0 0 -1
    outer loop
      vertex -4.93844 -0.782172 0
      vertex -8.88919 -1.40791 0
      vertex -5 0 0
    endloop
  endfacet
  facet normal 0 0 -1
    outer loop
      vertex -4.75528 1.54508 0
      vertex -8.55951 2.78115 0
      vertex -8.01906 4.08591 0
    endloop
  endfacet
  facet normal 0 0 -1
    outer loop
      vertex -9 0 0
      vertex -5 0 0
      vertex -8.88919 -1.40791 0
    endloop
  endfacet
  facet normal 0 0 -1
    outer loop
      vertex -4.93844 0.782172 0
      vertex -8.88919 1.40791 0
      vertex -8.55951 2.78115 0
    endloop
  endfacet
  facet normal 0 0 -1
    outer loop
      vertex -5 0 0
      vertex -9 0 0
      vertex -8.88919 1.40791 0
    endloop
  endfacet
  facet normal 0.85264 0.522498 0
    outer loop
      vertex 8.01906 4.08591 2
      vertex 7.28115 5.29007 0
      vertex 7.28115 5.29007 2
    endloop
  endfacet
  facet normal 0.85264 0.522498 0
    outer loop
      vertex 7.28115 5.29007 0
      vertex 8.01906 4.08591 2
      vertex 8.01906 4.08591 0
    endloop
  endfacet
  facet normal -0.923879 0.382684 0
    outer loop
      vertex -8.55951 2.78115 0
      vertex -8.01906 4.08591 2
      vertex -8.01906 4.08591 0
    endloop
  endfacet
  facet normal -0.923879 0.382684 0
    outer loop
      vertex -8.01906 4.08591 2
      vertex -8.55951 2.78115 0
      vertex -8.55951 2.78115 2
    endloop
  endfacet
  facet normal -0.382684 0.923879 0
    outer loop
      vertex -2.78115 8.55951 0
      vertex -4.08591 8.01906 2
      vertex -2.78115 8.55951 2
    endloop
  endfacet
  facet normal -0.382684 0.923879 0
    outer loop
      vertex -4.08591 8.01906 2
      vertex -2.78115 8.55951 0
      vertex -4.08591 8.01906 0
    endloop
  endfacet
  facet normal 0.382684 -0.923879 0
    outer loop
      vertex 2.78115 -8.55951 0
      vertex 4.08591 -8.01906 2
      vertex 2.78115 -8.55951 2
    endloop
  endfacet
  facet normal 0.382684 -0.923879 0
    outer loop
      vertex 4.08591 -8.01906 2
      vertex 2.78115 -8.55951 0
      vertex 4.08591 -8.01906 0
    endloop
  endfacet
  facet normal 0.0784595 -0.996917 0
    outer loop
      vertex 0 -9 0
      vertex 1.40791 -8.88919 2
      vertex 0 -9 2
    endloop
  endfacet
  facet normal 0.0784595 -0.996917 0
    outer loop
      vertex 1.40791 -8.88919 2
      vertex 0 -9 0
      vertex 1.40791 -8.88919 0
    endloop
  endfacet
  facet normal 0.233445 -0.97237 0
    outer loop
      vertex 1.40791 -8.88919 0
      vertex 2.78115 -8.55951 2
      vertex 1.40791 -8.88919 2
    endloop
  endfacet
  facet normal 0.233445 -0.97237 0
    outer loop
      vertex 2.78115 -8.55951 2
      vertex 1.40791 -8.88919 0
      vertex 2.78115 -8.55951 0
    endloop
  endfacet
  facet normal 0.649448 -0.760406 0
    outer loop
      vertex 5.29007 -7.28115 0
      vertex 6.36396 -6.36396 2
      vertex 5.29007 -7.28115 2
    endloop
  endfacet
  facet normal 0.649448 -0.760406 0
    outer loop
      vertex 6.36396 -6.36396 2
      vertex 5.29007 -7.28115 0
      vertex 6.36396 -6.36396 0
    endloop
  endfacet
  facet normal 0.923879 -0.382684 0
    outer loop
      vertex 8.01906 -4.08591 2
      vertex 8.55951 -2.78115 0
      vertex 8.55951 -2.78115 2
    endloop
  endfacet
  facet normal 0.923879 -0.382684 0
    outer loop
      vertex 8.55951 -2.78115 0
      vertex 8.01906 -4.08591 2
      vertex 8.01906 -4.08591 0
    endloop
  endfacet
  facet normal 0.97237 -0.233445 0
    outer loop
      vertex 8.55951 -2.78115 2
      vertex 8.88919 -1.40791 0
      vertex 8.88919 -1.40791 2
    endloop
  endfacet
  facet normal 0.97237 -0.233445 0
    outer loop
      vertex 8.88919 -1.40791 0
      vertex 8.55951 -2.78115 2
      vertex 8.55951 -2.78115 0
    endloop
  endfacet
  facet normal -0.522498 -0.85264 0
    outer loop
      vertex -5.29007 -7.28115 0
      vertex -4.08591 -8.01906 2
      vertex -5.29007 -7.28115 2
    endloop
  endfacet
  facet normal -0.522498 -0.85264 -0
    outer loop
      vertex -4.08591 -8.01906 2
      vertex -5.29007 -7.28115 0
      vertex -4.08591 -8.01906 0
    endloop
  endfacet
  facet normal -0.382684 -0.923879 0
    outer loop
      vertex -4.08591 -8.01906 0
      vertex -2.78115 -8.55951 2
      vertex -4.08591 -8.01906 2
    endloop
  endfacet
  facet normal -0.382684 -0.923879 -0
    outer loop
      vertex -2.78115 -8.55951 2
      vertex -4.08591 -8.01906 0
      vertex -2.78115 -8.55951 0
    endloop
  endfacet
  facet normal -0.0784595 -0.996917 0
    outer loop
      vertex -1.40791 -8.88919 0
      vertex 0 -9 2
      vertex -1.40791 -8.88919 2
    endloop
  endfacet
  facet normal -0.0784595 -0.996917 -0
    outer loop
      vertex 0 -9 2
      vertex -1.40791 -8.88919 0
      vertex 0 -9 0
    endloop
  endfacet
  facet normal -0.923879 -0.382684 0
    outer loop
      vertex -8.01906 -4.08591 0
      vertex -8.55951 -2.78115 2
      vertex -8.55951 -2.78115 0
    endloop
  endfacet
  facet normal -0.923879 -0.382684 0
    outer loop
      vertex -8.55951 -2.78115 2
      vertex -8.01906 -4.08591 0
      vertex -8.01906 -4.08591 2
    endloop
  endfacet
  facet normal -0.97237 -0.233445 0
    outer loop
      vertex -8.55951 -2.78115 0
      vertex -8.88919 -1.40791 2
      vertex -8.88919 -1.40791 0
    endloop
  endfacet
  facet normal -0.97237 -0.233445 0
    outer loop
      vertex -8.88919 -1.40791 2
      vertex -8.55951 -2.78115 0
      vertex -8.55951 -2.78115 2
    endloop
  endfacet
  facet normal -0.85264 -0.522498 0
    outer loop
      vertex -7.28115 -5.29007 0
      vertex -8.01906 -4.08591 2
      vertex -8.01906 -4.08591 0
    endloop
  endfacet
  facet normal -0.85264 -0.522498 0
    outer loop
      vertex -8.01906 -4.08591 2
      vertex -7.28115 -5.29007 0
      vertex -7.28115 -5.29007 2
    endloop
  endfacet
  facet normal -0.649448 -0.760406 0
    outer loop
      vertex 2.93893 4.04508 0
      vertex 3.53553 3.53553 2
      vertex 2.93893 4.04508 2
    endloop
  endfacet
  facet normal -0.649448 -0.760406 -0
    outer loop
      vertex 3.53553 3.53553 2
      vertex 2.93893 4.04508 0
      vertex 3.53553 3.53553 0
    endloop
  endfacet
  facet normal 0.233445 0.97237 -0
    outer loop
      vertex -0.782172 -4.93844 0
      vertex -1.54508 -4.75528 2
      vertex -0.782172 -4.93844 2
    endloop
  endfacet
  facet normal 0.233445 0.97237 0
    outer loop
      vertex -1.54508 -4.75528 2
      vertex -0.782172 -4.93844 0
      vertex -1.54508 -4.75528 0
    endloop
  endfacet
  facet normal 0.233445 -0.97237 0
    outer loop
      vertex -1.54508 4.75528 0
      vertex -0.782172 4.93844 2
      vertex -1.54508 4.75528 2
    endloop
  endfacet
  facet normal 0.233445 -0.97237 0
    outer loop
      vertex -0.782172 4.93844 2
      vertex -1.54508 4.75528 0
      vertex -0.782172 4.93844 0
    endloop
  endfacet
  facet normal 0.923879 -0.382684 0
    outer loop
      vertex -4.75528 1.54508 2
      vertex -4.45503 2.26995 0
      vertex -4.45503 2.26995 2
    endloop
  endfacet
  facet normal 0.923879 -0.382684 0
    outer loop
      vertex -4.45503 2.26995 0
      vertex -4.75528 1.54508 2
      vertex -4.75528 1.54508 0
    endloop
  endfacet
  facet normal 0.923879 0.382684 0
    outer loop
      vertex -4.45503 -2.26995 2
      vertex -4.75528 -1.54508 0
      vertex -4.75528 -1.54508 2
    endloop
  endfacet
  facet normal 0.923879 0.382684 0
    outer loop
      vertex -4.75528 -1.54508 0
      vertex -4.45503 -2.26995 2
      vertex -4.45503 -2.26995 0
    endloop
  endfacet
  facet normal -0.97237 -0.233445 0
    outer loop
      vertex 4.93844 0.782172 0
      vertex 4.75528 1.54508 2
      vertex 4.75528 1.54508 0
    endloop
  endfacet
  facet normal -0.97237 -0.233445 0
    outer loop
      vertex 4.75528 1.54508 2
      vertex 4.93844 0.782172 0
      vertex 4.93844 0.782172 2
    endloop
  endfacet
  facet normal -0.923879 -0.382684 0
    outer loop
      vertex 4.75528 1.54508 0
      vertex 4.45503 2.26995 2
      vertex 4.45503 2.26995 0
    endloop
  endfacet
  facet normal -0.923879 -0.382684 0
    outer loop
      vertex 4.45503 2.26995 2
      vertex 4.75528 1.54508 0
      vertex 4.75528 1.54508 2
    endloop
  endfacet
  facet normal -0.85264 -0.522498 0
    outer loop
      vertex 4.45503 2.26995 0
      vertex 4.04508 2.93893 2
      vertex 4.04508 2.93893 0
    endloop
  endfacet
  facet normal -0.85264 -0.522498 0
    outer loop
      vertex 4.04508 2.93893 2
      vertex 4.45503 2.26995 0
      vertex 4.45503 2.26995 2
    endloop
  endfacet
  facet normal -0.760406 -0.649448 0
    outer loop
      vertex 4.04508 2.93893 0
      vertex 3.53553 3.53553 2
      vertex 3.53553 3.53553 0
    endloop
  endfacet
  facet normal -0.760406 -0.649448 0
    outer loop
      vertex 3.53553 3.53553 2
      vertex 4.04508 2.93893 0
      vertex 4.04508 2.93893 2
    endloop
  endfacet
  facet normal -0.522498 -0.85264 0
    outer loop
      vertex 2.26995 4.45503 0
      vertex 2.93893 4.04508 2
      vertex 2.26995 4.45503 2
    endloop
  endfacet
  facet normal -0.522498 -0.85264 -0
    outer loop
      vertex 2.93893 4.04508 2
      vertex 2.26995 4.45503 0
      vertex 2.93893 4.04508 0
    endloop
  endfacet
  facet normal -0.0784596 -0.996917 0
    outer loop
      vertex 0 5 0
      vertex 0.782172 4.93844 2
      vertex 0 5 2
    endloop
  endfacet
  facet normal -0.0784596 -0.996917 -0
    outer loop
      vertex 0.782172 4.93844 2
      vertex 0 5 0
      vertex 0.782172 4.93844 0
    endloop
  endfacet
  facet normal 0.996917 -0.0784596 0
    outer loop
      vertex -5 0 2
      vertex -4.93844 0.782172 0
      vertex -4.93844 0.782172 2
    endloop
  endfacet
  facet normal 0.996917 -0.0784596 0
    outer loop
      vertex -4.93844 0.782172 0
      vertex -5 0 2
      vertex -5 0 0
    endloop
  endfacet
  facet normal 0.760406 -0.649448 0
    outer loop
      vertex -4.04508 2.93893 2
      vertex -3.53553 3.53553 0
      vertex -3.53553 3.53553 2
    endloop
  endfacet
  facet normal 0.760406 -0.649448 0
    outer loop
      vertex -3.53553 3.53553 0
      vertex -4.04508 2.93893 2
      vertex -4.04508 2.93893 0
    endloop
  endfacet
  facet normal 0.0784596 -0.996917 0
    outer loop
      vertex -0.782172 4.93844 0
      vertex 0 5 2
      vertex -0.782172 4.93844 2
    endloop
  endfacet
  facet normal 0.0784596 -0.996917 0
    outer loop
      vertex 0 5 2
      vertex -0.782172 4.93844 0
      vertex 0 5 0
    endloop
  endfacet
  facet normal 0.649448 -0.760406 0
    outer loop
      vertex -3.53553 3.53553 0
      vertex -2.93893 4.04508 2
      vertex -3.53553 3.53553 2
    endloop
  endfacet
  facet normal 0.649448 -0.760406 0
    outer loop
      vertex -2.93893 4.04508 2
      vertex -3.53553 3.53553 0
      vertex -2.93893 4.04508 0
    endloop
  endfacet
  facet normal -0.996917 -0.0784596 0
    outer loop
      vertex 5 0 0
      vertex 4.93844 0.782172 2
      vertex 4.93844 0.782172 0
    endloop
  endfacet
  facet normal -0.996917 -0.0784596 0
    outer loop
      vertex 4.93844 0.782172 2
      vertex 5 0 0
      vertex 5 0 2
    endloop
  endfacet
  facet normal -0.0784596 0.996917 0
    outer loop
      vertex 0.782172 -4.93844 0
      vertex 0 -5 2
      vertex 0.782172 -4.93844 2
    endloop
  endfacet
  facet normal -0.0784596 0.996917 0
    outer loop
      vertex 0 -5 2
      vertex 0.782172 -4.93844 0
      vertex 0 -5 0
    endloop
  endfacet
  facet normal -0.923879 0.382684 0
    outer loop
      vertex 4.45503 -2.26995 0
      vertex 4.75528 -1.54508 2
      vertex 4.75528 -1.54508 0
    endloop
  endfacet
  facet normal -0.923879 0.382684 0
    outer loop
      vertex 4.75528 -1.54508 2
      vertex 4.45503 -2.26995 0
      vertex 4.45503 -2.26995 2
    endloop
  endfacet
  facet normal -0.233445 0.97237 0
    outer loop
      vertex 1.54508 -4.75528 0
      vertex 0.782172 -4.93844 2
      vertex 1.54508 -4.75528 2
    endloop
  endfacet
  facet normal -0.233445 0.97237 0
    outer loop
      vertex 0.782172 -4.93844 2
      vertex 1.54508 -4.75528 0
      vertex 0.782172 -4.93844 0
    endloop
  endfacet
  facet normal -0.760406 0.649448 0
    outer loop
      vertex 3.53553 -3.53553 0
      vertex 4.04508 -2.93893 2
      vertex 4.04508 -2.93893 0
    endloop
  endfacet
  facet normal -0.760406 0.649448 0
    outer loop
      vertex 4.04508 -2.93893 2
      vertex 3.53553 -3.53553 0
      vertex 3.53553 -3.53553 2
    endloop
  endfacet
  facet normal 0.649448 0.760406 -0
    outer loop
      vertex -2.93893 -4.04508 0
      vertex -3.53553 -3.53553 2
      vertex -2.93893 -4.04508 2
    endloop
  endfacet
  facet normal 0.649448 0.760406 0
    outer loop
      vertex -3.53553 -3.53553 2
      vertex -2.93893 -4.04508 0
      vertex -3.53553 -3.53553 0
    endloop
  endfacet
  facet normal 0.996917 0.0784596 0
    outer loop
      vertex -4.93844 -0.782172 2
      vertex -5 0 0
      vertex -5 0 2
    endloop
  endfacet
  facet normal 0.996917 0.0784596 0
    outer loop
      vertex -5 0 0
      vertex -4.93844 -0.782172 2
      vertex -4.93844 -0.782172 0
    endloop
  endfacet
  facet normal -0.382684 -0.923879 0
    outer loop
      vertex 1.54508 4.75528 0
      vertex 2.26995 4.45503 2
      vertex 1.54508 4.75528 2
    endloop
  endfacet
  facet normal -0.382684 -0.923879 -0
    outer loop
      vertex 2.26995 4.45503 2
      vertex 1.54508 4.75528 0
      vertex 2.26995 4.45503 0
    endloop
  endfacet
  facet normal -0.233445 -0.97237 0
    outer loop
      vertex 0.782172 4.93844 0
      vertex 1.54508 4.75528 2
      vertex 0.782172 4.93844 2
    endloop
  endfacet
  facet normal -0.233445 -0.97237 -0
    outer loop
      vertex 1.54508 4.75528 2
      vertex 0.782172 4.93844 0
      vertex 1.54508 4.75528 0
    endloop
  endfacet
  facet normal 0.97237 -0.233445 0
    outer loop
      vertex -4.93844 0.782172 2
      vertex -4.75528 1.54508 0
      vertex -4.75528 1.54508 2
    endloop
  endfacet
  facet normal 0.97237 -0.233445 0
    outer loop
      vertex -4.75528 1.54508 0
      vertex -4.93844 0.782172 2
      vertex -4.93844 0.782172 0
    endloop
  endfacet
  facet normal 0.382684 -0.923879 0
    outer loop
      vertex -2.26995 4.45503 0
      vertex -1.54508 4.75528 2
      vertex -2.26995 4.45503 2
    endloop
  endfacet
  facet normal 0.382684 -0.923879 0
    outer loop
      vertex -1.54508 4.75528 2
      vertex -2.26995 4.45503 0
      vertex -1.54508 4.75528 0
    endloop
  endfacet
  facet normal 0.522498 -0.85264 0
    outer loop
      vertex -2.93893 4.04508 0
      vertex -2.26995 4.45503 2
      vertex -2.93893 4.04508 2
    endloop
  endfacet
  facet normal 0.522498 -0.85264 0
    outer loop
      vertex -2.26995 4.45503 2
      vertex -2.93893 4.04508 0
      vertex -2.26995 4.45503 0
    endloop
  endfacet
  facet normal -0.996917 0.0784596 0
    outer loop
      vertex 4.93844 -0.782172 0
      vertex 5 0 2
      vertex 5 0 0
    endloop
  endfacet
  facet normal -0.996917 0.0784596 0
    outer loop
      vertex 5 0 2
      vertex 4.93844 -0.782172 0
      vertex 4.93844 -0.782172 2
    endloop
  endfacet
  facet normal -0.97237 0.233445 0
    outer loop
      vertex 4.75528 -1.54508 0
      vertex 4.93844 -0.782172 2
      vertex 4.93844 -0.782172 0
    endloop
  endfacet
  facet normal -0.97237 0.233445 0
    outer loop
      vertex 4.93844 -0.782172 2
      vertex 4.75528 -1.54508 0
      vertex 4.75528 -1.54508 2
    endloop
  endfacet
  facet normal -0.382684 0.923879 0
    outer loop
      vertex 2.26995 -4.45503 0
      vertex 1.54508 -4.75528 2
      vertex 2.26995 -4.45503 2
    endloop
  endfacet
  facet normal -0.382684 0.923879 0
    outer loop
      vertex 1.54508 -4.75528 2
      vertex 2.26995 -4.45503 0
      vertex 1.54508 -4.75528 0
    endloop
  endfacet
  facet normal -0.649448 0.760406 0
    outer loop
      vertex 3.53553 -3.53553 0
      vertex 2.93893 -4.04508 2
      vertex 3.53553 -3.53553 2
    endloop
  endfacet
  facet normal -0.649448 0.760406 0
    outer loop
      vertex 2.93893 -4.04508 2
      vertex 3.53553 -3.53553 0
      vertex 2.93893 -4.04508 0
    endloop
  endfacet
  facet normal -0.522498 0.85264 0
    outer loop
      vertex 2.93893 -4.04508 0
      vertex 2.26995 -4.45503 2
      vertex 2.93893 -4.04508 2
    endloop
  endfacet
  facet normal -0.522498 0.85264 0
    outer loop
      vertex 2.26995 -4.45503 2
      vertex 2.93893 -4.04508 0
      vertex 2.26995 -4.45503 0
    endloop
  endfacet
  facet normal -0.85264 0.522498 0
    outer loop
      vertex 4.04508 -2.93893 0
      vertex 4.45503 -2.26995 2
      vertex 4.45503 -2.26995 0
    endloop
  endfacet
  facet normal -0.85264 0.522498 0
    outer loop
      vertex 4.45503 -2.26995 2
      vertex 4.04508 -2.93893 0
      vertex 4.04508 -2.93893 2
    endloop
  endfacet
  facet normal 0.0784596 0.996917 -0
    outer loop
      vertex 0 -5 0
      vertex -0.782172 -4.93844 2
      vertex 0 -5 2
    endloop
  endfacet
  facet normal 0.0784596 0.996917 0
    outer loop
      vertex -0.782172 -4.93844 2
      vertex 0 -5 0
      vertex -0.782172 -4.93844 0
    endloop
  endfacet
  facet normal 0.522498 0.85264 -0
    outer loop
      vertex -2.26995 -4.45503 0
      vertex -2.93893 -4.04508 2
      vertex -2.26995 -4.45503 2
    endloop
  endfacet
  facet normal 0.522498 0.85264 0
    outer loop
      vertex -2.93893 -4.04508 2
      vertex -2.26995 -4.45503 0
      vertex -2.93893 -4.04508 0
    endloop
  endfacet
  facet normal 0.382684 0.923879 -0
    outer loop
      vertex -1.54508 -4.75528 0
      vertex -2.26995 -4.45503 2
      vertex -1.54508 -4.75528 2
    endloop
  endfacet
  facet normal 0.382684 0.923879 0
    outer loop
      vertex -2.26995 -4.45503 2
      vertex -1.54508 -4.75528 0
      vertex -2.26995 -4.45503 0
    endloop
  endfacet
  facet normal 0.97237 0.233445 0
    outer loop
      vertex -4.75528 -1.54508 2
      vertex -4.93844 -0.782172 0
      vertex -4.93844 -0.782172 2
    endloop
  endfacet
  facet normal 0.97237 0.233445 0
    outer loop
      vertex -4.93844 -0.782172 0
      vertex -4.75528 -1.54508 2
      vertex -4.75528 -1.54508 0
    endloop
  endfacet
  facet normal 0.760406 0.649448 0
    outer loop
      vertex -3.53553 -3.53553 2
      vertex -4.04508 -2.93893 0
      vertex -4.04508 -2.93893 2
    endloop
  endfacet
  facet normal 0.760406 0.649448 0
    outer loop
      vertex -4.04508 -2.93893 0
      vertex -3.53553 -3.53553 2
      vertex -3.53553 -3.53553 0
    endloop
  endfacet
  facet normal 0.85264 -0.522498 0
    outer loop
      vertex -4.45503 2.26995 2
      vertex -4.04508 2.93893 0
      vertex -4.04508 2.93893 2
    endloop
  endfacet
  facet normal 0.85264 -0.522498 0
    outer loop
      vertex -4.04508 2.93893 0
      vertex -4.45503 2.26995 2
      vertex -4.45503 2.26995 0
    endloop
  endfacet
  facet normal 0.85264 0.522498 0
    outer loop
      vertex -4.04508 -2.93893 2
      vertex -4.45503 -2.26995 0
      vertex -4.45503 -2.26995 2
    endloop
  endfacet
  facet normal 0.85264 0.522498 0
    outer loop
      vertex -4.45503 -2.26995 0
      vertex -4.04508 -2.93893 2
      vertex -4.04508 -2.93893 0
    endloop
  endfacet
endsolid OpenSCAD_Model
