solid OpenSCAD_Model
  facet normal 0.945925 0.324385 0
    outer loop
      vertex 2.1903 5.8 1.5
      vertex 3.54182 1.85889 1.5
      vertex 2.1903 5.8 1
    endloop
  endfacet
  facet normal 0.945926 0.324382 -0
    outer loop
      vertex 1.36727 8.2 1
      vertex 1.25 8.54197 1.5
      vertex 1.36727 8.2 1.5
    endloop
  endfacet
  facet normal 0.945926 0.324382 0
    outer loop
      vertex 1.25 8.54197 1.5
      vertex 1.36727 8.2 1
      vertex 1.25 8.54197 0
    endloop
  endfacet
  facet normal 0.945925 0.324385 1.40671e-06
    outer loop
      vertex 2.1903 5.8 1
      vertex 1.25 8.54197 0
      vertex 1.36727 8.2 1
    endloop
  endfacet
  facet normal 0.945925 0.324385 -0
    outer loop
      vertex 3.54182 1.85889 0
      vertex 2.1903 5.8 1
      vertex 3.54182 1.85889 1.5
    endloop
  endfacet
  facet normal 0.945925 0.324385 2.21001e-07
    outer loop
      vertex 2.1903 5.8 1
      vertex 3.54182 1.85889 0
      vertex 1.25 8.54197 0
    endloop
  endfacet
  facet normal -1 0 0
    outer loop
      vertex -3.88377 -0.957262 0
      vertex -3.88377 0.957262 1.5
      vertex -3.88377 0.957262 0
    endloop
  endfacet
  facet normal -1 -0 0
    outer loop
      vertex -3.88377 0.957262 1.5
      vertex -3.88377 -0.957262 0
      vertex -3.88377 -0.957262 1.5
    endloop
  endfacet
  facet normal 0.354605 -0.935016 0
    outer loop
      vertex 0.482146 -3.97083 0
      vertex 2.27226 -3.29193 1.5
      vertex 0.482146 -3.97083 1.5
    endloop
  endfacet
  facet normal 0.354605 -0.935016 0
    outer loop
      vertex 2.27226 -3.29193 1.5
      vertex 0.482146 -3.97083 0
      vertex 2.27226 -3.29193 0
    endloop
  endfacet
  facet normal 0.970941 0.239318 0
    outer loop
      vertex 4 0 1.5
      vertex 3.54182 1.85889 0
      vertex 3.54182 1.85889 1.5
    endloop
  endfacet
  facet normal 0.970941 0.239318 0
    outer loop
      vertex 3.54182 1.85889 0
      vertex 4 0 1.5
      vertex 4 0 0
    endloop
  endfacet
  facet normal 0 1 -0
    outer loop
      vertex 1.25 10 0
      vertex -1.25 10 3.5
      vertex 1.25 10 3.5
    endloop
  endfacet
  facet normal 0 1 0
    outer loop
      vertex -1.25 10 3.5
      vertex 1.25 10 0
      vertex -1.25 10 0
    endloop
  endfacet
  facet normal -0.944871 0.327442 0
    outer loop
      vertex -1.25 8.55721 0
      vertex -1.37379 8.2 1
      vertex -1.25 8.55721 1.5
    endloop
  endfacet
  facet normal -0.94487 0.327445 1.06345e-06
    outer loop
      vertex -1.25 8.55721 0
      vertex -2.20551 5.8 1
      vertex -1.37379 8.2 1
    endloop
  endfacet
  facet normal -0.94487 0.327446 3.81285e-06
    outer loop
      vertex -3.88377 0.957262 0
      vertex -2.20551 5.8 1
      vertex -1.25 8.55721 0
    endloop
  endfacet
  facet normal -0.94487 0.327446 0
    outer loop
      vertex -3.88377 0.957262 1.5
      vertex -2.20551 5.8 1
      vertex -3.88377 0.957262 0
    endloop
  endfacet
  facet normal -0.94487 0.327446 0
    outer loop
      vertex -2.20551 5.8 1
      vertex -3.88377 0.957262 1.5
      vertex -2.20551 5.8 1.5
    endloop
  endfacet
  facet normal -0.944871 0.327442 0
    outer loop
      vertex -1.25 8.55721 1.5
      vertex -1.37379 8.2 1
      vertex -1.37379 8.2 1.5
    endloop
  endfacet
  facet normal -0 0 1
    outer loop
      vertex -2.20551 5.8 1.5
      vertex -1.25 4 1.5
      vertex -1.25 5.8 1.5
    endloop
  endfacet
  facet normal 0 0 1
    outer loop
      vertex -3.88377 0.957262 1.5
      vertex -1.25 4 1.5
      vertex -2.20551 5.8 1.5
    endloop
  endfacet
  facet normal 0 -0 1
    outer loop
      vertex -1.77984 1.29313 1.5
      vertex -1.25 4 1.5
      vertex -3.88377 0.957262 1.5
    endloop
  endfacet
  facet normal 0 0 1
    outer loop
      vertex -1.77984 1.29313 1.5
      vertex -3.88377 0.957262 1.5
      vertex -2.09232 0.679837 1.5
    endloop
  endfacet
  facet normal 0 0 1
    outer loop
      vertex -1.25 4 1.5
      vertex -1.77984 1.29313 1.5
      vertex -1.29313 1.77984 1.5
    endloop
  endfacet
  facet normal -0 0 1
    outer loop
      vertex 2.09232 0.679837 1.5
      vertex 4 0 1.5
      vertex 3.54182 1.85889 1.5
    endloop
  endfacet
  facet normal 0 0 1
    outer loop
      vertex 2.09232 -0.679837 1.5
      vertex 4 0 1.5
      vertex 2.2 0 1.5
    endloop
  endfacet
  facet normal 0 0 1
    outer loop
      vertex 4 0 1.5
      vertex 2.09232 -0.679837 1.5
      vertex 3.54182 -1.85889 1.5
    endloop
  endfacet
  facet normal -0 0 1
    outer loop
      vertex 1.25 4 1.5
      vertex 3.54182 1.85889 1.5
      vertex 2.1903 5.8 1.5
    endloop
  endfacet
  facet normal 0 0 1
    outer loop
      vertex 4 0 1.5
      vertex 2.09232 0.679837 1.5
      vertex 2.2 0 1.5
    endloop
  endfacet
  facet normal 0 0 1
    outer loop
      vertex 3.54182 1.85889 1.5
      vertex 1.77984 1.29313 1.5
      vertex 2.09232 0.679837 1.5
    endloop
  endfacet
  facet normal 0 -0 1
    outer loop
      vertex 1.29313 1.77984 1.5
      vertex 3.54182 1.85889 1.5
      vertex 1.25 4 1.5
    endloop
  endfacet
  facet normal 0 0 1
    outer loop
      vertex 1.25 4 1.5
      vertex 2.1903 5.8 1.5
      vertex 1.25 5.8 1.5
    endloop
  endfacet
  facet normal 0 0 1
    outer loop
      vertex 3.54182 1.85889 1.5
      vertex 1.29313 1.77984 1.5
      vertex 1.77984 1.29313 1.5
    endloop
  endfacet
  facet normal 0 0 1
    outer loop
      vertex 1.25 4 1.5
      vertex 0.679837 2.09232 1.5
      vertex 1.29313 1.77984 1.5
    endloop
  endfacet
  facet normal 0 0 1
    outer loop
      vertex 1.25 4 1.5
      vertex 0 2.2 1.5
      vertex 0.679837 2.09232 1.5
    endloop
  endfacet
  facet normal -0 0 1
    outer loop
      vertex -1.25 4 1.5
      vertex 0 2.2 1.5
      vertex 1.25 4 1.5
    endloop
  endfacet
  facet normal 0 0 1
    outer loop
      vertex 0 2.2 1.5
      vertex -1.25 4 1.5
      vertex -0.679837 2.09232 1.5
    endloop
  endfacet
  facet normal 0 0 1
    outer loop
      vertex -0.679837 2.09232 1.5
      vertex -1.25 4 1.5
      vertex -1.29313 1.77984 1.5
    endloop
  endfacet
  facet normal -0 0 1
    outer loop
      vertex 1.77984 -1.29313 1.5
      vertex 3.54182 -1.85889 1.5
      vertex 2.09232 -0.679837 1.5
    endloop
  endfacet
  facet normal 0 0 1
    outer loop
      vertex 3.54182 -1.85889 1.5
      vertex 1.77984 -1.29313 1.5
      vertex 2.27226 -3.29193 1.5
    endloop
  endfacet
  facet normal -0 0 1
    outer loop
      vertex 1.29313 -1.77984 1.5
      vertex 2.27226 -3.29193 1.5
      vertex 1.77984 -1.29313 1.5
    endloop
  endfacet
  facet normal -0 0 1
    outer loop
      vertex 0.679837 -2.09232 1.5
      vertex 2.27226 -3.29193 1.5
      vertex 1.29313 -1.77984 1.5
    endloop
  endfacet
  facet normal 0 0 1
    outer loop
      vertex 0.679837 -2.09232 1.5
      vertex 0.482146 -3.97083 1.5
      vertex 2.27226 -3.29193 1.5
    endloop
  endfacet
  facet normal -0 0 1
    outer loop
      vertex 0 -2.2 1.5
      vertex 0.482146 -3.97083 1.5
      vertex 0.679837 -2.09232 1.5
    endloop
  endfacet
  facet normal 0 0 1
    outer loop
      vertex -1.41842 -3.74006 1.5
      vertex 0 -2.2 1.5
      vertex -0.679837 -2.09232 1.5
    endloop
  endfacet
  facet normal 0 0 1
    outer loop
      vertex -1.41842 -3.74006 1.5
      vertex -0.679837 -2.09232 1.5
      vertex -1.29313 -1.77984 1.5
    endloop
  endfacet
  facet normal 0 0 1
    outer loop
      vertex 0 -2.2 1.5
      vertex -1.41842 -3.74006 1.5
      vertex 0.482146 -3.97083 1.5
    endloop
  endfacet
  facet normal 0 0 1
    outer loop
      vertex -2.99404 -2.65249 1.5
      vertex -1.29313 -1.77984 1.5
      vertex -1.77984 -1.29313 1.5
    endloop
  endfacet
  facet normal -0 0 1
    outer loop
      vertex -3.88377 -0.957262 1.5
      vertex -1.77984 -1.29313 1.5
      vertex -2.09232 -0.679837 1.5
    endloop
  endfacet
  facet normal 0 0 1
    outer loop
      vertex -1.29313 -1.77984 1.5
      vertex -2.99404 -2.65249 1.5
      vertex -1.41842 -3.74006 1.5
    endloop
  endfacet
  facet normal 0 0 1
    outer loop
      vertex -3.88377 -0.957262 1.5
      vertex -2.09232 -0.679837 1.5
      vertex -2.2 0 1.5
    endloop
  endfacet
  facet normal 0 0 1
    outer loop
      vertex -2.09232 0.679837 1.5
      vertex -3.88377 0.957262 1.5
      vertex -2.2 0 1.5
    endloop
  endfacet
  facet normal 0 0 1
    outer loop
      vertex -3.88377 -0.957262 1.5
      vertex -2.2 0 1.5
      vertex -3.88377 0.957262 1.5
    endloop
  endfacet
  facet normal 0 0 1
    outer loop
      vertex -1.77984 -1.29313 1.5
      vertex -3.88377 -0.957262 1.5
      vertex -2.99404 -2.65249 1.5
    endloop
  endfacet
  facet normal 0 0 1
    outer loop
      vertex -1.25 8.55721 1.5
      vertex -1.37379 8.2 1.5
      vertex -1.25 8.2 1.5
    endloop
  endfacet
  facet normal 0 0 1
    outer loop
      vertex 1.25 8.54197 1.5
      vertex 1.25 8.2 1.5
      vertex 1.36727 8.2 1.5
    endloop
  endfacet
  facet normal 0.748511 -0.663122 0
    outer loop
      vertex 2.27226 -3.29193 1.5
      vertex 3.54182 -1.85889 0
      vertex 3.54182 -1.85889 1.5
    endloop
  endfacet
  facet normal 0.748511 -0.663122 0
    outer loop
      vertex 3.54182 -1.85889 0
      vertex 2.27226 -3.29193 1.5
      vertex 2.27226 -3.29193 0
    endloop
  endfacet
  facet normal 0.970941 -0.239318 0
    outer loop
      vertex 3.54182 -1.85889 1.5
      vertex 4 0 0
      vertex 4 0 1.5
    endloop
  endfacet
  facet normal 0.970941 -0.239318 0
    outer loop
      vertex 4 0 0
      vertex 3.54182 -1.85889 1.5
      vertex 3.54182 -1.85889 0
    endloop
  endfacet
  facet normal 0 0 -1
    outer loop
      vertex -1.29313 1.77984 0
      vertex -1.25 8.55721 0
      vertex -0.679837 2.09232 0
    endloop
  endfacet
  facet normal 0 0 -1
    outer loop
      vertex -3.88377 0.957262 0
      vertex -1.29313 1.77984 0
      vertex -1.77984 1.29313 0
    endloop
  endfacet
  facet normal 0 0 -1
    outer loop
      vertex -3.88377 0.957262 0
      vertex -1.77984 1.29313 0
      vertex -2.09232 0.679837 0
    endloop
  endfacet
  facet normal 0 0 -1
    outer loop
      vertex -3.88377 0.957262 0
      vertex -2.09232 0.679837 0
      vertex -2.2 0 0
    endloop
  endfacet
  facet normal -0 0 -1
    outer loop
      vertex -2.09232 -0.679837 0
      vertex -3.88377 -0.957262 0
      vertex -2.2 0 0
    endloop
  endfacet
  facet normal -0 0 -1
    outer loop
      vertex -2.2 0 0
      vertex -3.88377 -0.957262 0
      vertex -3.88377 0.957262 0
    endloop
  endfacet
  facet normal -0 0 -1
    outer loop
      vertex -1.29313 1.77984 0
      vertex -3.88377 0.957262 0
      vertex -1.25 8.55721 0
    endloop
  endfacet
  facet normal -0 0 -1
    outer loop
      vertex 4 0 0
      vertex 2.09232 -0.679837 0
      vertex 2.2 0 0
    endloop
  endfacet
  facet normal 0 0 -1
    outer loop
      vertex 3.54182 -1.85889 0
      vertex 1.77984 -1.29313 0
      vertex 2.09232 -0.679837 0
    endloop
  endfacet
  facet normal 0 0 -1
    outer loop
      vertex 2.27226 -3.29193 0
      vertex 1.29313 -1.77984 0
      vertex 1.77984 -1.29313 0
    endloop
  endfacet
  facet normal 0 0 -1
    outer loop
      vertex 2.27226 -3.29193 0
      vertex 0.679837 -2.09232 0
      vertex 1.29313 -1.77984 0
    endloop
  endfacet
  facet normal 0 0 -1
    outer loop
      vertex 0.482146 -3.97083 0
      vertex 0.679837 -2.09232 0
      vertex 2.27226 -3.29193 0
    endloop
  endfacet
  facet normal 0 0 -1
    outer loop
      vertex 0.482146 -3.97083 0
      vertex 0 -2.2 0
      vertex 0.679837 -2.09232 0
    endloop
  endfacet
  facet normal 0 0 -1
    outer loop
      vertex -1.41842 -3.74006 0
      vertex 0 -2.2 0
      vertex 0.482146 -3.97083 0
    endloop
  endfacet
  facet normal -0 0 -1
    outer loop
      vertex 0 -2.2 0
      vertex -1.41842 -3.74006 0
      vertex -0.679837 -2.09232 0
    endloop
  endfacet
  facet normal -0 0 -1
    outer loop
      vertex -0.679837 -2.09232 0
      vertex -1.41842 -3.74006 0
      vertex -1.29313 -1.77984 0
    endloop
  endfacet
  facet normal 0 0 -1
    outer loop
      vertex -2.99404 -2.65249 0
      vertex -1.29313 -1.77984 0
      vertex -1.41842 -3.74006 0
    endloop
  endfacet
  facet normal -0 0 -1
    outer loop
      vertex -1.29313 -1.77984 0
      vertex -2.99404 -2.65249 0
      vertex -1.77984 -1.29313 0
    endloop
  endfacet
  facet normal 0 0 -1
    outer loop
      vertex -1.77984 -1.29313 0
      vertex -3.88377 -0.957262 0
      vertex -2.09232 -0.679837 0
    endloop
  endfacet
  facet normal 0 0 -1
    outer loop
      vertex -3.88377 -0.957262 0
      vertex -1.77984 -1.29313 0
      vertex -2.99404 -2.65249 0
    endloop
  endfacet
  facet normal 0 0 -1
    outer loop
      vertex 2.09232 -0.679837 0
      vertex 4 0 0
      vertex 3.54182 -1.85889 0
    endloop
  endfacet
  facet normal 0 0 -1
    outer loop
      vertex 1.77984 -1.29313 0
      vertex 3.54182 -1.85889 0
      vertex 2.27226 -3.29193 0
    endloop
  endfacet
  facet normal 0 0 -1
    outer loop
      vertex 2.09232 0.679837 0
      vertex 4 0 0
      vertex 2.2 0 0
    endloop
  endfacet
  facet normal 0 0 -1
    outer loop
      vertex 4 0 0
      vertex 2.09232 0.679837 0
      vertex 3.54182 1.85889 0
    endloop
  endfacet
  facet normal 0 0 -1
    outer loop
      vertex 1.77984 1.29313 0
      vertex 3.54182 1.85889 0
      vertex 2.09232 0.679837 0
    endloop
  endfacet
  facet normal 0 0 -1
    outer loop
      vertex 1.29313 1.77984 0
      vertex 3.54182 1.85889 0
      vertex 1.77984 1.29313 0
    endloop
  endfacet
  facet normal 0 0 -1
    outer loop
      vertex 0.679837 2.09232 0
      vertex 3.54182 1.85889 0
      vertex 1.29313 1.77984 0
    endloop
  endfacet
  facet normal 0 0 -1
    outer loop
      vertex 3.54182 1.85889 0
      vertex 0.679837 2.09232 0
      vertex 1.25 8.54197 0
    endloop
  endfacet
  facet normal 0 0 -1
    outer loop
      vertex 0 2.2 0
      vertex 1.25 8.54197 0
      vertex 0.679837 2.09232 0
    endloop
  endfacet
  facet normal -0 0 -1
    outer loop
      vertex 1.25 8.54197 0
      vertex 0 2.2 0
      vertex -1.25 8.55721 0
    endloop
  endfacet
  facet normal 0 0 -1
    outer loop
      vertex -1.25 8.55721 0
      vertex 0 2.2 0
      vertex -0.679837 2.09232 0
    endloop
  endfacet
  facet normal 0 0 -1
    outer loop
      vertex 1.25 8.54197 0
      vertex -1.25 8.55721 0
      vertex 1.25 10 0
    endloop
  endfacet
  facet normal -0 0 -1
    outer loop
      vertex 1.25 10 0
      vertex -1.25 8.55721 0
      vertex -1.25 10 0
    endloop
  endfacet
  facet normal -0.120536 -0.992709 0
    outer loop
      vertex -1.41842 -3.74006 0
      vertex 0.482146 -3.97083 1.5
      vertex -1.41842 -3.74006 1.5
    endloop
  endfacet
  facet normal -0.120536 -0.992709 -0
    outer loop
      vertex 0.482146 -3.97083 1.5
      vertex -1.41842 -3.74006 0
      vertex 0.482146 -3.97083 0
    endloop
  endfacet
  facet normal -0.568064 -0.822984 0
    outer loop
      vertex -2.99404 -2.65249 0
      vertex -1.41842 -3.74006 1.5
      vertex -2.99404 -2.65249 1.5
    endloop
  endfacet
  facet normal -0.568064 -0.822984 -0
    outer loop
      vertex -1.41842 -3.74006 1.5
      vertex -2.99404 -2.65249 0
      vertex -1.41842 -3.74006 0
    endloop
  endfacet
  facet normal -0.885455 -0.464726 0
    outer loop
      vertex -2.99404 -2.65249 0
      vertex -3.88377 -0.957262 1.5
      vertex -3.88377 -0.957262 0
    endloop
  endfacet
  facet normal -0.885455 -0.464726 0
    outer loop
      vertex -3.88377 -0.957262 1.5
      vertex -2.99404 -2.65249 0
      vertex -2.99404 -2.65249 1.5
    endloop
  endfacet
  facet normal -1 0 0
    outer loop
      vertex -1.25 5.8 1.5
      vertex -1.25 4 1.5
      vertex -1.25 5.8 2.5
    endloop
  endfacet
  facet normal -1 0 0
    outer loop
      vertex -1.25 8.55721 1.5
      vertex -1.25 10 0
      vertex -1.25 8.55721 0
    endloop
  endfacet
  facet normal -1 0 0
    outer loop
      vertex -1.25 10 0
      vertex -1.25 8.55721 1.5
      vertex -1.25 10 3.5
    endloop
  endfacet
  facet normal -1 0 0
    outer loop
      vertex -1.25 8.2 2.5
      vertex -1.25 8.55721 1.5
      vertex -1.25 8.2 1.5
    endloop
  endfacet
  facet normal -1 0 0
    outer loop
      vertex -1.25 8.55721 1.5
      vertex -1.25 8.2 2.5
      vertex -1.25 10 3.5
    endloop
  endfacet
  facet normal -1 0 0
    outer loop
      vertex -1.25 5.8 2.5
      vertex -1.25 10 3.5
      vertex -1.25 8.2 2.5
    endloop
  endfacet
  facet normal -1 0 0
    outer loop
      vertex -1.25 5.8 2.5
      vertex -1.25 4 3.5
      vertex -1.25 10 3.5
    endloop
  endfacet
  facet normal -1 0 0
    outer loop
      vertex -1.25 4 3.5
      vertex -1.25 5.8 2.5
      vertex -1.25 4 1.5
    endloop
  endfacet
  facet normal -0 0 1
    outer loop
      vertex -1.25 10 3.5
      vertex 1.25 4 3.5
      vertex 1.25 10 3.5
    endloop
  endfacet
  facet normal 0 0 1
    outer loop
      vertex 1.25 4 3.5
      vertex -1.25 10 3.5
      vertex -1.25 4 3.5
    endloop
  endfacet
  facet normal 1 0 0
    outer loop
      vertex 1.25 10 3.5
      vertex 1.25 8.54197 1.5
      vertex 1.25 10 0
    endloop
  endfacet
  facet normal 1 0 0
    outer loop
      vertex 1.25 10 3.5
      vertex 1.25 8.2 2.5
      vertex 1.25 8.54197 1.5
    endloop
  endfacet
  facet normal 1 0 0
    outer loop
      vertex 1.25 10 3.5
      vertex 1.25 5.8 2.5
      vertex 1.25 8.2 2.5
    endloop
  endfacet
  facet normal 1 -0 0
    outer loop
      vertex 1.25 4 3.5
      vertex 1.25 5.8 2.5
      vertex 1.25 10 3.5
    endloop
  endfacet
  facet normal 1 0 0
    outer loop
      vertex 1.25 4 1.5
      vertex 1.25 5.8 2.5
      vertex 1.25 4 3.5
    endloop
  endfacet
  facet normal 1 0 0
    outer loop
      vertex 1.25 5.8 2.5
      vertex 1.25 4 1.5
      vertex 1.25 5.8 1.5
    endloop
  endfacet
  facet normal 1 0 0
    outer loop
      vertex 1.25 10 0
      vertex 1.25 8.54197 1.5
      vertex 1.25 8.54197 0
    endloop
  endfacet
  facet normal 1 0 0
    outer loop
      vertex 1.25 8.54197 1.5
      vertex 1.25 8.2 2.5
      vertex 1.25 8.2 1.5
    endloop
  endfacet
  facet normal 0 -1 0
    outer loop
      vertex -1.25 4 1.5
      vertex 1.25 4 3.5
      vertex -1.25 4 3.5
    endloop
  endfacet
  facet normal 0 -1 -0
    outer loop
      vertex 1.25 4 3.5
      vertex -1.25 4 1.5
      vertex 1.25 4 1.5
    endloop
  endfacet
  facet normal -0.987687 -0.156441 0
    outer loop
      vertex 2.2 0 0
      vertex 2.09232 0.679837 1.5
      vertex 2.09232 0.679837 0
    endloop
  endfacet
  facet normal -0.987687 -0.156441 0
    outer loop
      vertex 2.09232 0.679837 1.5
      vertex 2.2 0 0
      vertex 2.2 0 1.5
    endloop
  endfacet
  facet normal 0.987687 -0.156441 0
    outer loop
      vertex -2.2 0 1.5
      vertex -2.09232 0.679837 0
      vertex -2.09232 0.679837 1.5
    endloop
  endfacet
  facet normal 0.987687 -0.156441 0
    outer loop
      vertex -2.09232 0.679837 0
      vertex -2.2 0 1.5
      vertex -2.2 0 0
    endloop
  endfacet
  facet normal 0.156441 -0.987687 0
    outer loop
      vertex -0.679837 2.09232 0
      vertex 0 2.2 1.5
      vertex -0.679837 2.09232 1.5
    endloop
  endfacet
  facet normal 0.156441 -0.987687 0
    outer loop
      vertex 0 2.2 1.5
      vertex -0.679837 2.09232 0
      vertex 0 2.2 0
    endloop
  endfacet
  facet normal -0.156441 0.987687 0
    outer loop
      vertex 0.679837 -2.09232 0
      vertex 0 -2.2 1.5
      vertex 0.679837 -2.09232 1.5
    endloop
  endfacet
  facet normal -0.156441 0.987687 0
    outer loop
      vertex 0 -2.2 1.5
      vertex 0.679837 -2.09232 0
      vertex 0 -2.2 0
    endloop
  endfacet
  facet normal -0.891011 0.453981 0
    outer loop
      vertex 1.77984 -1.29313 0
      vertex 2.09232 -0.679837 1.5
      vertex 2.09232 -0.679837 0
    endloop
  endfacet
  facet normal -0.891011 0.453981 0
    outer loop
      vertex 2.09232 -0.679837 1.5
      vertex 1.77984 -1.29313 0
      vertex 1.77984 -1.29313 1.5
    endloop
  endfacet
  facet normal -0.453981 -0.891011 0
    outer loop
      vertex 0.679837 2.09232 0
      vertex 1.29313 1.77984 1.5
      vertex 0.679837 2.09232 1.5
    endloop
  endfacet
  facet normal -0.453981 -0.891011 -0
    outer loop
      vertex 1.29313 1.77984 1.5
      vertex 0.679837 2.09232 0
      vertex 1.29313 1.77984 0
    endloop
  endfacet
  facet normal -0.891011 -0.453981 0
    outer loop
      vertex 2.09232 0.679837 0
      vertex 1.77984 1.29313 1.5
      vertex 1.77984 1.29313 0
    endloop
  endfacet
  facet normal -0.891011 -0.453981 0
    outer loop
      vertex 1.77984 1.29313 1.5
      vertex 2.09232 0.679837 0
      vertex 2.09232 0.679837 1.5
    endloop
  endfacet
  facet normal -0.156441 -0.987687 0
    outer loop
      vertex 0 2.2 0
      vertex 0.679837 2.09232 1.5
      vertex 0 2.2 1.5
    endloop
  endfacet
  facet normal -0.156441 -0.987687 -0
    outer loop
      vertex 0.679837 2.09232 1.5
      vertex 0 2.2 0
      vertex 0.679837 2.09232 0
    endloop
  endfacet
  facet normal 0.707107 -0.707107 0
    outer loop
      vertex -1.77984 1.29313 1.5
      vertex -1.29313 1.77984 0
      vertex -1.29313 1.77984 1.5
    endloop
  endfacet
  facet normal 0.707107 -0.707107 0
    outer loop
      vertex -1.29313 1.77984 0
      vertex -1.77984 1.29313 1.5
      vertex -1.77984 1.29313 0
    endloop
  endfacet
  facet normal 0.891011 -0.453981 0
    outer loop
      vertex -2.09232 0.679837 1.5
      vertex -1.77984 1.29313 0
      vertex -1.77984 1.29313 1.5
    endloop
  endfacet
  facet normal 0.891011 -0.453981 0
    outer loop
      vertex -1.77984 1.29313 0
      vertex -2.09232 0.679837 1.5
      vertex -2.09232 0.679837 0
    endloop
  endfacet
  facet normal 0.453981 -0.891011 0
    outer loop
      vertex -1.29313 1.77984 0
      vertex -0.679837 2.09232 1.5
      vertex -1.29313 1.77984 1.5
    endloop
  endfacet
  facet normal 0.453981 -0.891011 0
    outer loop
      vertex -0.679837 2.09232 1.5
      vertex -1.29313 1.77984 0
      vertex -0.679837 2.09232 0
    endloop
  endfacet
  facet normal -0.987687 0.156441 0
    outer loop
      vertex 2.09232 -0.679837 0
      vertex 2.2 0 1.5
      vertex 2.2 0 0
    endloop
  endfacet
  facet normal -0.987687 0.156441 0
    outer loop
      vertex 2.2 0 1.5
      vertex 2.09232 -0.679837 0
      vertex 2.09232 -0.679837 1.5
    endloop
  endfacet
  facet normal -0.707107 -0.707107 0
    outer loop
      vertex 1.77984 1.29313 0
      vertex 1.29313 1.77984 1.5
      vertex 1.29313 1.77984 0
    endloop
  endfacet
  facet normal -0.707107 -0.707107 0
    outer loop
      vertex 1.29313 1.77984 1.5
      vertex 1.77984 1.29313 0
      vertex 1.77984 1.29313 1.5
    endloop
  endfacet
  facet normal -0.453981 0.891011 0
    outer loop
      vertex 1.29313 -1.77984 0
      vertex 0.679837 -2.09232 1.5
      vertex 1.29313 -1.77984 1.5
    endloop
  endfacet
  facet normal -0.453981 0.891011 0
    outer loop
      vertex 0.679837 -2.09232 1.5
      vertex 1.29313 -1.77984 0
      vertex 0.679837 -2.09232 0
    endloop
  endfacet
  facet normal -0.707107 0.707107 0
    outer loop
      vertex 1.29313 -1.77984 0
      vertex 1.77984 -1.29313 1.5
      vertex 1.77984 -1.29313 0
    endloop
  endfacet
  facet normal -0.707107 0.707107 0
    outer loop
      vertex 1.77984 -1.29313 1.5
      vertex 1.29313 -1.77984 0
      vertex 1.29313 -1.77984 1.5
    endloop
  endfacet
  facet normal 0.891011 0.453981 0
    outer loop
      vertex -1.77984 -1.29313 1.5
      vertex -2.09232 -0.679837 0
      vertex -2.09232 -0.679837 1.5
    endloop
  endfacet
  facet normal 0.891011 0.453981 0
    outer loop
      vertex -2.09232 -0.679837 0
      vertex -1.77984 -1.29313 1.5
      vertex -1.77984 -1.29313 0
    endloop
  endfacet
  facet normal 0.987687 0.156441 0
    outer loop
      vertex -2.09232 -0.679837 1.5
      vertex -2.2 0 0
      vertex -2.2 0 1.5
    endloop
  endfacet
  facet normal 0.987687 0.156441 0
    outer loop
      vertex -2.2 0 0
      vertex -2.09232 -0.679837 1.5
      vertex -2.09232 -0.679837 0
    endloop
  endfacet
  facet normal 0.156441 0.987687 -0
    outer loop
      vertex 0 -2.2 0
      vertex -0.679837 -2.09232 1.5
      vertex 0 -2.2 1.5
    endloop
  endfacet
  facet normal 0.156441 0.987687 0
    outer loop
      vertex -0.679837 -2.09232 1.5
      vertex 0 -2.2 0
      vertex -0.679837 -2.09232 0
    endloop
  endfacet
  facet normal 0.707107 0.707107 0
    outer loop
      vertex -1.29313 -1.77984 1.5
      vertex -1.77984 -1.29313 0
      vertex -1.77984 -1.29313 1.5
    endloop
  endfacet
  facet normal 0.707107 0.707107 0
    outer loop
      vertex -1.77984 -1.29313 0
      vertex -1.29313 -1.77984 1.5
      vertex -1.29313 -1.77984 0
    endloop
  endfacet
  facet normal 0.453981 0.891011 -0
    outer loop
      vertex -0.679837 -2.09232 0
      vertex -1.29313 -1.77984 1.5
      vertex -0.679837 -2.09232 1.5
    endloop
  endfacet
  facet normal 0.453981 0.891011 0
    outer loop
      vertex -1.29313 -1.77984 1.5
      vertex -0.679837 -2.09232 0
      vertex -1.29313 -1.77984 0
    endloop
  endfacet
  facet normal 0 0 -1
    outer loop
      vertex -1.25 5.8 2.5
      vertex 1.25 8.2 2.5
      vertex 1.25 5.8 2.5
    endloop
  endfacet
  facet normal -0 0 -1
    outer loop
      vertex 1.25 8.2 2.5
      vertex -1.25 5.8 2.5
      vertex -1.25 8.2 2.5
    endloop
  endfacet
  facet normal 0 -1 0
    outer loop
      vertex -1.37379 8.2 1
      vertex -1.25 8.2 1.5
      vertex -1.37379 8.2 1.5
    endloop
  endfacet
  facet normal 0 -1 0
    outer loop
      vertex 1.36727 8.2 1
      vertex -1.25 8.2 1.5
      vertex -1.37379 8.2 1
    endloop
  endfacet
  facet normal 0 -1 0
    outer loop
      vertex -1.25 8.2 1.5
      vertex 1.36727 8.2 1
      vertex 1.25 8.2 1.5
    endloop
  endfacet
  facet normal 0 -1 0
    outer loop
      vertex 1.25 8.2 1.5
      vertex 1.36727 8.2 1
      vertex 1.36727 8.2 1.5
    endloop
  endfacet
  facet normal 0 -1 0
    outer loop
      vertex -1.25 8.2 1.5
      vertex 1.25 8.2 2.5
      vertex -1.25 8.2 2.5
    endloop
  endfacet
  facet normal 0 -1 -0
    outer loop
      vertex 1.25 8.2 2.5
      vertex -1.25 8.2 1.5
      vertex 1.25 8.2 1.5
    endloop
  endfacet
  facet normal -0 0 1
    outer loop
      vertex -1.37379 8.2 1
      vertex 2.1903 5.8 1
      vertex 1.36727 8.2 1
    endloop
  endfacet
  facet normal 0 0 1
    outer loop
      vertex 2.1903 5.8 1
      vertex -1.37379 8.2 1
      vertex -2.20551 5.8 1
    endloop
  endfacet
  facet normal 0 1 -0
    outer loop
      vertex 2.1903 5.8 1
      vertex 1.25 5.8 1.5
      vertex 2.1903 5.8 1.5
    endloop
  endfacet
  facet normal 0 1 0
    outer loop
      vertex 1.25 5.8 1.5
      vertex 2.1903 5.8 1
      vertex -1.25 5.8 1.5
    endloop
  endfacet
  facet normal 0 1 0
    outer loop
      vertex -2.20551 5.8 1
      vertex -1.25 5.8 1.5
      vertex 2.1903 5.8 1
    endloop
  endfacet
  facet normal 0 1 0
    outer loop
      vertex -1.25 5.8 1.5
      vertex -2.20551 5.8 1
      vertex -2.20551 5.8 1.5
    endloop
  endfacet
  facet normal 0 1 -0
    outer loop
      vertex 1.25 5.8 1.5
      vertex -1.25 5.8 2.5
      vertex 1.25 5.8 2.5
    endloop
  endfacet
  facet normal 0 1 0
    outer loop
      vertex -1.25 5.8 2.5
      vertex 1.25 5.8 1.5
      vertex -1.25 5.8 1.5
    endloop
  endfacet
endsolid OpenSCAD_Model
