solid OpenSCAD_Model
  facet normal -1 0 0
    outer loop
      vertex -14.9938 -6 0
      vertex -14.9938 3.72291 20
      vertex -14.9938 3.72291 0
    endloop
  endfacet
  facet normal -1 -0 0
    outer loop
      vertex -14.9938 3.72291 20
      vertex -14.9938 -6 0
      vertex -14.9938 -6 20
    endloop
  endfacet
  facet normal 0 -1 0
    outer loop
      vertex 0.312868 -6.49384 6.02462
      vertex 4.53015 -6.49384 1
      vertex 0.618033 -6.49384 6.09789
    endloop
  endfacet
  facet normal 0 -1 0
    outer loop
      vertex 0.618033 -6.49384 6.09789
      vertex 4.53015 -6.49384 1
      vertex 7.5 -6.49384 3.96985
    endloop
  endfacet
  facet normal 0 -1 0
    outer loop
      vertex -5.53015 -6.49384 0
      vertex 4.53015 -6.49384 1
      vertex -4.53015 -6.49384 1
    endloop
  endfacet
  facet normal 0 -1 -0
    outer loop
      vertex 4.53015 -6.49384 1
      vertex -5.53015 -6.49384 0
      vertex 5.53015 -6.49384 0
    endloop
  endfacet
  facet normal 0 -1 0
    outer loop
      vertex -14.5 -6.49384 20
      vertex -7.5 -6.49384 18.1716
      vertex -9.32843 -6.49384 20
    endloop
  endfacet
  facet normal 0 -1 0
    outer loop
      vertex 0.312868 -6.49384 13.9754
      vertex 5.67157 -6.49384 20
      vertex 0 -6.49384 14
    endloop
  endfacet
  facet normal 0 -1 0
    outer loop
      vertex -7.5 -6.49384 3.96985
      vertex -7.5 -6.49384 18.1716
      vertex -14.5 -6.49384 20
    endloop
  endfacet
  facet normal 0 -1 0
    outer loop
      vertex -5.67157 -6.49384 20
      vertex -0.312868 -6.49384 13.9754
      vertex 0 -6.49384 14
    endloop
  endfacet
  facet normal 0 -1 0
    outer loop
      vertex -5.67157 -6.49384 20
      vertex -0.618033 -6.49384 13.9021
      vertex -0.312868 -6.49384 13.9754
    endloop
  endfacet
  facet normal 0 -1 0
    outer loop
      vertex -5.67157 -6.49384 20
      vertex -0.907981 -6.49384 13.782
      vertex -0.618033 -6.49384 13.9021
    endloop
  endfacet
  facet normal 0 -1 0
    outer loop
      vertex -5.67157 -6.49384 20
      vertex -1.17557 -6.49384 13.618
      vertex -0.907981 -6.49384 13.782
    endloop
  endfacet
  facet normal 0 -1 0
    outer loop
      vertex -5.67157 -6.49384 20
      vertex -1.41421 -6.49384 13.4142
      vertex -1.17557 -6.49384 13.618
    endloop
  endfacet
  facet normal 0 -1 0
    outer loop
      vertex -7.5 -6.49384 18.1716
      vertex -1.61803 -6.49384 13.1756
      vertex -1.41421 -6.49384 13.4142
    endloop
  endfacet
  facet normal 0 -1 0
    outer loop
      vertex -7.5 -6.49384 18.1716
      vertex -1.78201 -6.49384 12.908
      vertex -1.61803 -6.49384 13.1756
    endloop
  endfacet
  facet normal 0 -1 0
    outer loop
      vertex -7.5 -6.49384 18.1716
      vertex -1.90211 -6.49384 12.618
      vertex -1.78201 -6.49384 12.908
    endloop
  endfacet
  facet normal 0 -1 0
    outer loop
      vertex -7.5 -6.49384 18.1716
      vertex -1.97538 -6.49384 12.3129
      vertex -1.90211 -6.49384 12.618
    endloop
  endfacet
  facet normal 0 -1 0
    outer loop
      vertex -7.5 -6.49384 18.1716
      vertex -2 -6.49384 12
      vertex -1.97538 -6.49384 12.3129
    endloop
  endfacet
  facet normal 0 -1 0
    outer loop
      vertex -7.5 -6.49384 18.1716
      vertex -7.5 -6.49384 3.96985
      vertex -2 -6.49384 12
    endloop
  endfacet
  facet normal 0 -1 -0
    outer loop
      vertex -2 -6.49384 12
      vertex -7.5 -6.49384 3.96985
      vertex -2 -6.49384 8
    endloop
  endfacet
  facet normal 0 -1 -0
    outer loop
      vertex -2 -6.49384 8
      vertex -7.5 -6.49384 3.96985
      vertex -1.97538 -6.49384 7.68713
    endloop
  endfacet
  facet normal 0 -1 -0
    outer loop
      vertex -1.97538 -6.49384 7.68713
      vertex -7.5 -6.49384 3.96985
      vertex -1.90211 -6.49384 7.38197
    endloop
  endfacet
  facet normal 0 -1 -0
    outer loop
      vertex -1.90211 -6.49384 7.38197
      vertex -7.5 -6.49384 3.96985
      vertex -1.78201 -6.49384 7.09202
    endloop
  endfacet
  facet normal 0 -1 -0
    outer loop
      vertex -1.78201 -6.49384 7.09202
      vertex -7.5 -6.49384 3.96985
      vertex -1.61803 -6.49384 6.82443
    endloop
  endfacet
  facet normal 0 -1 -0
    outer loop
      vertex -0.618033 -6.49384 6.09789
      vertex -4.53015 -6.49384 1
      vertex -0.312868 -6.49384 6.02462
    endloop
  endfacet
  facet normal 0 -1 -0
    outer loop
      vertex -0.907981 -6.49384 6.21799
      vertex -4.53015 -6.49384 1
      vertex -0.618033 -6.49384 6.09789
    endloop
  endfacet
  facet normal 0 -1 -0
    outer loop
      vertex -1.17557 -6.49384 6.38197
      vertex -4.53015 -6.49384 1
      vertex -0.907981 -6.49384 6.21799
    endloop
  endfacet
  facet normal 0 -1 -0
    outer loop
      vertex -1.41421 -6.49384 6.58579
      vertex -4.53015 -6.49384 1
      vertex -1.17557 -6.49384 6.38197
    endloop
  endfacet
  facet normal 0 -1 0
    outer loop
      vertex -4.53015 -6.49384 1
      vertex -1.41421 -6.49384 6.58579
      vertex -7.5 -6.49384 3.96985
    endloop
  endfacet
  facet normal 0 -1 -0
    outer loop
      vertex -1.61803 -6.49384 6.82443
      vertex -7.5 -6.49384 3.96985
      vertex -1.41421 -6.49384 6.58579
    endloop
  endfacet
  facet normal 0 -1 0
    outer loop
      vertex -14.5 -6.49384 0
      vertex -7.5 -6.49384 3.96985
      vertex -14.5 -6.49384 20
    endloop
  endfacet
  facet normal 0 -1 0
    outer loop
      vertex -7.5 -6.49384 3.96985
      vertex -14.5 -6.49384 0
      vertex -10.4698 -6.49384 1
    endloop
  endfacet
  facet normal 0 -1 -0
    outer loop
      vertex -10.4698 -6.49384 1
      vertex -14.5 -6.49384 0
      vertex -9.46985 -6.49384 0
    endloop
  endfacet
  facet normal 0 -1 0
    outer loop
      vertex -1.41421 -6.49384 13.4142
      vertex -5.67157 -6.49384 20
      vertex -7.5 -6.49384 18.1716
    endloop
  endfacet
  facet normal 0 -1 0
    outer loop
      vertex -5.67157 -6.49384 20
      vertex 0 -6.49384 14
      vertex 5.67157 -6.49384 20
    endloop
  endfacet
  facet normal 0 -1 0
    outer loop
      vertex 7.5 -6.49384 18.1716
      vertex 14.5 -6.49384 20
      vertex 9.32843 -6.49384 20
    endloop
  endfacet
  facet normal 0 -1 0
    outer loop
      vertex 0.618033 -6.49384 13.9021
      vertex 5.67157 -6.49384 20
      vertex 0.312868 -6.49384 13.9754
    endloop
  endfacet
  facet normal 0 -1 0
    outer loop
      vertex 0.907981 -6.49384 13.782
      vertex 5.67157 -6.49384 20
      vertex 0.618033 -6.49384 13.9021
    endloop
  endfacet
  facet normal 0 -1 0
    outer loop
      vertex 1.17557 -6.49384 13.618
      vertex 5.67157 -6.49384 20
      vertex 0.907981 -6.49384 13.782
    endloop
  endfacet
  facet normal 0 -1 0
    outer loop
      vertex 1.41421 -6.49384 13.4142
      vertex 5.67157 -6.49384 20
      vertex 1.17557 -6.49384 13.618
    endloop
  endfacet
  facet normal 0 -1 -0
    outer loop
      vertex 5.67157 -6.49384 20
      vertex 1.41421 -6.49384 13.4142
      vertex 7.5 -6.49384 18.1716
    endloop
  endfacet
  facet normal 0 -1 0
    outer loop
      vertex 1.61803 -6.49384 13.1756
      vertex 7.5 -6.49384 18.1716
      vertex 1.41421 -6.49384 13.4142
    endloop
  endfacet
  facet normal 0 -1 0
    outer loop
      vertex 1.78201 -6.49384 12.908
      vertex 7.5 -6.49384 18.1716
      vertex 1.61803 -6.49384 13.1756
    endloop
  endfacet
  facet normal 0 -1 0
    outer loop
      vertex 1.90211 -6.49384 12.618
      vertex 7.5 -6.49384 18.1716
      vertex 1.78201 -6.49384 12.908
    endloop
  endfacet
  facet normal 0 -1 0
    outer loop
      vertex 1.97538 -6.49384 12.3129
      vertex 7.5 -6.49384 18.1716
      vertex 1.90211 -6.49384 12.618
    endloop
  endfacet
  facet normal 0 -1 0
    outer loop
      vertex 2 -6.49384 12
      vertex 7.5 -6.49384 18.1716
      vertex 1.97538 -6.49384 12.3129
    endloop
  endfacet
  facet normal 0 -1 0
    outer loop
      vertex 7.5 -6.49384 3.96985
      vertex 7.5 -6.49384 18.1716
      vertex 2 -6.49384 12
    endloop
  endfacet
  facet normal 0 -1 0
    outer loop
      vertex 7.5 -6.49384 3.96985
      vertex 2 -6.49384 12
      vertex 2 -6.49384 8
    endloop
  endfacet
  facet normal 0 -1 0
    outer loop
      vertex 7.5 -6.49384 3.96985
      vertex 2 -6.49384 8
      vertex 1.97538 -6.49384 7.68713
    endloop
  endfacet
  facet normal 0 -1 0
    outer loop
      vertex 7.5 -6.49384 3.96985
      vertex 1.97538 -6.49384 7.68713
      vertex 1.90211 -6.49384 7.38197
    endloop
  endfacet
  facet normal 0 -1 0
    outer loop
      vertex 7.5 -6.49384 3.96985
      vertex 1.90211 -6.49384 7.38197
      vertex 1.78201 -6.49384 7.09202
    endloop
  endfacet
  facet normal 0 -1 0
    outer loop
      vertex 7.5 -6.49384 3.96985
      vertex 1.78201 -6.49384 7.09202
      vertex 1.61803 -6.49384 6.82443
    endloop
  endfacet
  facet normal 0 -1 0
    outer loop
      vertex 7.5 -6.49384 3.96985
      vertex 1.61803 -6.49384 6.82443
      vertex 1.41421 -6.49384 6.58579
    endloop
  endfacet
  facet normal 0 -1 -0
    outer loop
      vertex -0.312868 -6.49384 6.02462
      vertex -4.53015 -6.49384 1
      vertex 0 -6.49384 6
    endloop
  endfacet
  facet normal 0 -1 0
    outer loop
      vertex 4.53015 -6.49384 1
      vertex 0 -6.49384 6
      vertex -4.53015 -6.49384 1
    endloop
  endfacet
  facet normal 0 -1 0
    outer loop
      vertex 0 -6.49384 6
      vertex 4.53015 -6.49384 1
      vertex 0.312868 -6.49384 6.02462
    endloop
  endfacet
  facet normal 0 -1 0
    outer loop
      vertex 7.5 -6.49384 3.96985
      vertex 0.907981 -6.49384 6.21799
      vertex 0.618033 -6.49384 6.09789
    endloop
  endfacet
  facet normal 0 -1 0
    outer loop
      vertex 7.5 -6.49384 3.96985
      vertex 1.17557 -6.49384 6.38197
      vertex 0.907981 -6.49384 6.21799
    endloop
  endfacet
  facet normal 0 -1 0
    outer loop
      vertex 7.5 -6.49384 3.96985
      vertex 1.41421 -6.49384 6.58579
      vertex 1.17557 -6.49384 6.38197
    endloop
  endfacet
  facet normal 0 -1 0
    outer loop
      vertex 7.5 -6.49384 18.1716
      vertex 7.5 -6.49384 3.96985
      vertex 14.5 -6.49384 20
    endloop
  endfacet
  facet normal 0 -1 0
    outer loop
      vertex 14.5 -6.49384 0
      vertex 7.5 -6.49384 3.96985
      vertex 10.4698 -6.49384 1
    endloop
  endfacet
  facet normal 0 -1 0
    outer loop
      vertex 7.5 -6.49384 3.96985
      vertex 14.5 -6.49384 0
      vertex 14.5 -6.49384 20
    endloop
  endfacet
  facet normal 0 -1 0
    outer loop
      vertex 14.5 -6.49384 0
      vertex 10.4698 -6.49384 1
      vertex 9.46985 -6.49384 0
    endloop
  endfacet
  facet normal 0 1 -0
    outer loop
      vertex -11 6.49384 0
      vertex -13.5 6.49384 20
      vertex -11 6.49384 20
    endloop
  endfacet
  facet normal 0 1 0
    outer loop
      vertex -13.5 6.49384 20
      vertex -11 6.49384 0
      vertex -13.5 6.49384 0
    endloop
  endfacet
  facet normal 0 1 -0
    outer loop
      vertex 13.5 6.49384 0
      vertex 11 6.49384 20
      vertex 13.5 6.49384 20
    endloop
  endfacet
  facet normal 0 1 0
    outer loop
      vertex 11 6.49384 20
      vertex 13.5 6.49384 0
      vertex 11 6.49384 0
    endloop
  endfacet
  facet normal -0.156438 -0.987688 0
    outer loop
      vertex -14.6526 -6.46967 0
      vertex -14.5 -6.49384 20
      vertex -14.6526 -6.46967 20
    endloop
  endfacet
  facet normal -0.156438 -0.987688 -0
    outer loop
      vertex -14.5 -6.49384 20
      vertex -14.6526 -6.46967 0
      vertex -14.5 -6.49384 0
    endloop
  endfacet
  facet normal -0.707301 -0.706913 0
    outer loop
      vertex -14.7903 -6.39953 0
      vertex -14.8995 -6.29027 20
      vertex -14.8995 -6.29027 0
    endloop
  endfacet
  facet normal -0.707301 -0.706913 0
    outer loop
      vertex -14.8995 -6.29027 20
      vertex -14.7903 -6.39953 0
      vertex -14.7903 -6.39953 20
    endloop
  endfacet
  facet normal 0.156438 -0.987688 0
    outer loop
      vertex 14.5 -6.49384 0
      vertex 14.6526 -6.46967 20
      vertex 14.5 -6.49384 20
    endloop
  endfacet
  facet normal 0.156438 -0.987688 0
    outer loop
      vertex 14.6526 -6.46967 20
      vertex 14.5 -6.49384 0
      vertex 14.6526 -6.46967 0
    endloop
  endfacet
  facet normal 1 -0 0
    outer loop
      vertex 14.9938 -6 20
      vertex 14.9938 3.72291 0
      vertex 14.9938 3.72291 20
    endloop
  endfacet
  facet normal 1 0 0
    outer loop
      vertex 14.9938 3.72291 0
      vertex 14.9938 -6 20
      vertex 14.9938 -6 0
    endloop
  endfacet
  facet normal 0.987759 -0.155986 0
    outer loop
      vertex 14.9697 -6.15261 20
      vertex 14.9938 -6 0
      vertex 14.9938 -6 20
    endloop
  endfacet
  facet normal 0.987759 -0.155986 0
    outer loop
      vertex 14.9938 -6 0
      vertex 14.9697 -6.15261 20
      vertex 14.9697 -6.15261 0
    endloop
  endfacet
  facet normal -0.453879 -0.891063 0
    outer loop
      vertex -14.7903 -6.39953 0
      vertex -14.6526 -6.46967 20
      vertex -14.7903 -6.39953 20
    endloop
  endfacet
  facet normal -0.453879 -0.891063 -0
    outer loop
      vertex -14.6526 -6.46967 20
      vertex -14.7903 -6.39953 0
      vertex -14.6526 -6.46967 0
    endloop
  endfacet
  facet normal -0.890853 -0.454292 0
    outer loop
      vertex -14.8995 -6.29027 0
      vertex -14.9697 -6.15261 20
      vertex -14.9697 -6.15261 0
    endloop
  endfacet
  facet normal -0.890853 -0.454292 0
    outer loop
      vertex -14.9697 -6.15261 20
      vertex -14.8995 -6.29027 0
      vertex -14.8995 -6.29027 20
    endloop
  endfacet
  facet normal -0.987759 -0.155986 0
    outer loop
      vertex -14.9697 -6.15261 0
      vertex -14.9938 -6 20
      vertex -14.9938 -6 0
    endloop
  endfacet
  facet normal -0.987759 -0.155986 0
    outer loop
      vertex -14.9938 -6 20
      vertex -14.9697 -6.15261 0
      vertex -14.9697 -6.15261 20
    endloop
  endfacet
  facet normal 0.453879 -0.891063 0
    outer loop
      vertex 14.6526 -6.46967 0
      vertex 14.7903 -6.39953 20
      vertex 14.6526 -6.46967 20
    endloop
  endfacet
  facet normal 0.453879 -0.891063 0
    outer loop
      vertex 14.7903 -6.39953 20
      vertex 14.6526 -6.46967 0
      vertex 14.7903 -6.39953 0
    endloop
  endfacet
  facet normal 0.707301 -0.706913 0
    outer loop
      vertex 14.7903 -6.39953 20
      vertex 14.8995 -6.29027 0
      vertex 14.8995 -6.29027 20
    endloop
  endfacet
  facet normal 0.707301 -0.706913 0
    outer loop
      vertex 14.8995 -6.29027 0
      vertex 14.7903 -6.39953 20
      vertex 14.7903 -6.39953 0
    endloop
  endfacet
  facet normal 0.890853 -0.454292 0
    outer loop
      vertex 14.8995 -6.29027 20
      vertex 14.9697 -6.15261 0
      vertex 14.9697 -6.15261 20
    endloop
  endfacet
  facet normal 0.890853 -0.454292 0
    outer loop
      vertex 14.9697 -6.15261 0
      vertex 14.8995 -6.29027 20
      vertex 14.8995 -6.29027 0
    endloop
  endfacet
  facet normal 0 0 1
    outer loop
      vertex -12.5 4 20
      vertex -11 6.49384 20
      vertex -12.5 5.3 20
    endloop
  endfacet
  facet normal -0 0 1
    outer loop
      vertex -13.5 6.49384 20
      vertex -12.5 5.3 20
      vertex -11 6.49384 20
    endloop
  endfacet
  facet normal 0 0 1
    outer loop
      vertex -12.5 5.3 20
      vertex -13.5 6.49384 20
      vertex -13.5 5.3 20
    endloop
  endfacet
  facet normal 0 0 1
    outer loop
      vertex -11 6.49384 20
      vertex -12.5 4 20
      vertex -11 2.53276 20
    endloop
  endfacet
  facet normal 0 0 1
    outer loop
      vertex -12.5 4 20
      vertex -13.7 2.3 20
      vertex -11 2.53276 20
    endloop
  endfacet
  facet normal 0 0 1
    outer loop
      vertex -14.9938 -6 20
      vertex -13.7 -5.2 20
      vertex -13.7 2.3 20
    endloop
  endfacet
  facet normal 0 0 1
    outer loop
      vertex -13.7 -5.2 20
      vertex -14.9938 -6 20
      vertex -14.5 -6.49384 20
    endloop
  endfacet
  facet normal 0 0 1
    outer loop
      vertex -14.5 -6.49384 20
      vertex -14.9938 -6 20
      vertex -14.6526 -6.46967 20
    endloop
  endfacet
  facet normal 0 0 1
    outer loop
      vertex -14.6526 -6.46967 20
      vertex -14.9938 -6 20
      vertex -14.7903 -6.39953 20
    endloop
  endfacet
  facet normal 0 0 1
    outer loop
      vertex -14.7903 -6.39953 20
      vertex -14.9938 -6 20
      vertex -14.8995 -6.29027 20
    endloop
  endfacet
  facet normal -0 0 1
    outer loop
      vertex -14.9938 3.72291 20
      vertex -13.7 2.3 20
      vertex -12.5 4 20
    endloop
  endfacet
  facet normal 0 0 1
    outer loop
      vertex -14.9938 -6 20
      vertex -13.7 2.3 20
      vertex -14.9938 3.72291 20
    endloop
  endfacet
  facet normal 0 0 1
    outer loop
      vertex -14.8995 -6.29027 20
      vertex -14.9938 -6 20
      vertex -14.9697 -6.15261 20
    endloop
  endfacet
  facet normal -0 0 1
    outer loop
      vertex -13.7 -5.2 20
      vertex -9.32843 -6.49384 20
      vertex -9.32843 -5.2 20
    endloop
  endfacet
  facet normal 0 0 1
    outer loop
      vertex -9.32843 -6.49384 20
      vertex -13.7 -5.2 20
      vertex -14.5 -6.49384 20
    endloop
  endfacet
  facet normal 0 0 1
    outer loop
      vertex 13.5 6.49384 20
      vertex 12.5 5.3 20
      vertex 13.5 5.3 20
    endloop
  endfacet
  facet normal 0 0 1
    outer loop
      vertex 12.5 5.3 20
      vertex 11 6.49384 20
      vertex 12.5 4 20
    endloop
  endfacet
  facet normal -0 0 1
    outer loop
      vertex 11 6.49384 20
      vertex 12.5 5.3 20
      vertex 13.5 6.49384 20
    endloop
  endfacet
  facet normal -0 0 1
    outer loop
      vertex 13.7 2.3 20
      vertex 14.9938 -6 20
      vertex 14.9938 3.72291 20
    endloop
  endfacet
  facet normal -0 0 1
    outer loop
      vertex 13.7 -5.2 20
      vertex 14.9938 -6 20
      vertex 13.7 2.3 20
    endloop
  endfacet
  facet normal 0 -0 1
    outer loop
      vertex 14.5 -6.49384 20
      vertex 14.9938 -6 20
      vertex 13.7 -5.2 20
    endloop
  endfacet
  facet normal 0 0 1
    outer loop
      vertex 14.9938 -6 20
      vertex 14.5 -6.49384 20
      vertex 14.9697 -6.15261 20
    endloop
  endfacet
  facet normal 0 0 1
    outer loop
      vertex 14.8995 -6.29027 20
      vertex 14.5 -6.49384 20
      vertex 14.7903 -6.39953 20
    endloop
  endfacet
  facet normal 0 0 1
    outer loop
      vertex 14.9697 -6.15261 20
      vertex 14.5 -6.49384 20
      vertex 14.8995 -6.29027 20
    endloop
  endfacet
  facet normal 0 0 1
    outer loop
      vertex 12.5 4 20
      vertex 13.7 2.3 20
      vertex 14.9938 3.72291 20
    endloop
  endfacet
  facet normal 0 0 1
    outer loop
      vertex 12.5 4 20
      vertex 11 2.53276 20
      vertex 13.7 2.3 20
    endloop
  endfacet
  facet normal 0 0 1
    outer loop
      vertex 11 2.53276 20
      vertex 12.5 4 20
      vertex 11 6.49384 20
    endloop
  endfacet
  facet normal 0 0 1
    outer loop
      vertex 14.7903 -6.39953 20
      vertex 14.5 -6.49384 20
      vertex 14.6526 -6.46967 20
    endloop
  endfacet
  facet normal 0 0 1
    outer loop
      vertex 9.32843 -6.49384 20
      vertex 13.7 -5.2 20
      vertex 9.32843 -5.2 20
    endloop
  endfacet
  facet normal 0 0 1
    outer loop
      vertex 13.7 -5.2 20
      vertex 9.32843 -6.49384 20
      vertex 14.5 -6.49384 20
    endloop
  endfacet
  facet normal -0 0 1
    outer loop
      vertex -5.67157 -5.2 20
      vertex 5.67157 -6.49384 20
      vertex 5.67157 -5.2 20
    endloop
  endfacet
  facet normal 0 0 1
    outer loop
      vertex 5.67157 -6.49384 20
      vertex -5.67157 -5.2 20
      vertex -5.67157 -6.49384 20
    endloop
  endfacet
  facet normal 0 0 -1
    outer loop
      vertex -9.46985 -6.49384 0
      vertex -13.7 -5.2 0
      vertex -9.46985 -5.2 0
    endloop
  endfacet
  facet normal 0 0 -1
    outer loop
      vertex -14.9938 -6 0
      vertex -13.7 -5.2 0
      vertex -14.5 -6.49384 0
    endloop
  endfacet
  facet normal 0 0 -1
    outer loop
      vertex -14.5 -6.49384 0
      vertex -13.7 -5.2 0
      vertex -9.46985 -6.49384 0
    endloop
  endfacet
  facet normal 0 0 -1
    outer loop
      vertex -11 2.53276 0
      vertex -12.5 4 0
      vertex -11 6.49384 0
    endloop
  endfacet
  facet normal 0 0 -1
    outer loop
      vertex -13.7 2.3 0
      vertex -12.5 4 0
      vertex -11 2.53276 0
    endloop
  endfacet
  facet normal 0 0 -1
    outer loop
      vertex -14.9938 -6 0
      vertex -14.5 -6.49384 0
      vertex -14.6526 -6.46967 0
    endloop
  endfacet
  facet normal 0 0 -1
    outer loop
      vertex -14.9938 -6 0
      vertex -14.6526 -6.46967 0
      vertex -14.7903 -6.39953 0
    endloop
  endfacet
  facet normal 0 0 -1
    outer loop
      vertex -14.9938 -6 0
      vertex -14.7903 -6.39953 0
      vertex -14.8995 -6.29027 0
    endloop
  endfacet
  facet normal 0 0 -1
    outer loop
      vertex -14.9938 -6 0
      vertex -14.8995 -6.29027 0
      vertex -14.9697 -6.15261 0
    endloop
  endfacet
  facet normal -0 0 -1
    outer loop
      vertex -13.7 -5.2 0
      vertex -14.9938 -6 0
      vertex -13.7 2.3 0
    endloop
  endfacet
  facet normal 0 0 -1
    outer loop
      vertex -13.7 2.3 0
      vertex -14.9938 3.72291 0
      vertex -12.5 4 0
    endloop
  endfacet
  facet normal 0 0 -1
    outer loop
      vertex -14.9938 3.72291 0
      vertex -13.7 2.3 0
      vertex -14.9938 -6 0
    endloop
  endfacet
  facet normal 0 0 -1
    outer loop
      vertex -12.5 5.3 0
      vertex -11 6.49384 0
      vertex -12.5 4 0
    endloop
  endfacet
  facet normal 0 0 -1
    outer loop
      vertex -13.5 6.49384 0
      vertex -12.5 5.3 0
      vertex -13.5 5.3 0
    endloop
  endfacet
  facet normal 0 0 -1
    outer loop
      vertex -12.5 5.3 0
      vertex -13.5 6.49384 0
      vertex -11 6.49384 0
    endloop
  endfacet
  facet normal 0 0 -1
    outer loop
      vertex 9.46985 -6.49384 0
      vertex 13.7 -5.2 0
      vertex 14.5 -6.49384 0
    endloop
  endfacet
  facet normal -0 0 -1
    outer loop
      vertex 13.7 -5.2 0
      vertex 9.46985 -6.49384 0
      vertex 9.46985 -5.2 0
    endloop
  endfacet
  facet normal 0 0 -1
    outer loop
      vertex 14.5 -6.49384 0
      vertex 14.9938 -6 0
      vertex 14.9697 -6.15261 0
    endloop
  endfacet
  facet normal 0 0 -1
    outer loop
      vertex 14.5 -6.49384 0
      vertex 14.9697 -6.15261 0
      vertex 14.8995 -6.29027 0
    endloop
  endfacet
  facet normal 0 0 -1
    outer loop
      vertex 14.5 -6.49384 0
      vertex 14.8995 -6.29027 0
      vertex 14.7903 -6.39953 0
    endloop
  endfacet
  facet normal 0 0 -1
    outer loop
      vertex 14.5 -6.49384 0
      vertex 14.7903 -6.39953 0
      vertex 14.6526 -6.46967 0
    endloop
  endfacet
  facet normal -0 0 -1
    outer loop
      vertex 14.9938 -6 0
      vertex 14.5 -6.49384 0
      vertex 13.7 -5.2 0
    endloop
  endfacet
  facet normal 0 0 -1
    outer loop
      vertex 14.9938 -6 0
      vertex 13.7 -5.2 0
      vertex 13.7 2.3 0
    endloop
  endfacet
  facet normal 0 0 -1
    outer loop
      vertex 14.9938 -6 0
      vertex 13.7 2.3 0
      vertex 14.9938 3.72291 0
    endloop
  endfacet
  facet normal 0 0 -1
    outer loop
      vertex 13.7 2.3 0
      vertex 12.5 4 0
      vertex 14.9938 3.72291 0
    endloop
  endfacet
  facet normal 0 0 -1
    outer loop
      vertex 11 6.49384 0
      vertex 12.5 4 0
      vertex 11 2.53276 0
    endloop
  endfacet
  facet normal 0 0 -1
    outer loop
      vertex 11 2.53276 0
      vertex 12.5 4 0
      vertex 13.7 2.3 0
    endloop
  endfacet
  facet normal 0 0 -1
    outer loop
      vertex 12.5 5.3 0
      vertex 13.5 6.49384 0
      vertex 13.5 5.3 0
    endloop
  endfacet
  facet normal 0 0 -1
    outer loop
      vertex 12.5 5.3 0
      vertex 11 6.49384 0
      vertex 13.5 6.49384 0
    endloop
  endfacet
  facet normal 0 0 -1
    outer loop
      vertex 12.5 4 0
      vertex 11 6.49384 0
      vertex 12.5 5.3 0
    endloop
  endfacet
  facet normal 0 0 -1
    outer loop
      vertex -5.53015 -6.49384 0
      vertex 5.53015 -5.2 0
      vertex 5.53015 -6.49384 0
    endloop
  endfacet
  facet normal -0 0 -1
    outer loop
      vertex 5.53015 -5.2 0
      vertex -5.53015 -6.49384 0
      vertex -5.53015 -5.2 0
    endloop
  endfacet
  facet normal -0.707103 0 0.707111
    outer loop
      vertex 4.67157 -5.2 21
      vertex 7.5 -6.5 23.8284
      vertex 7.5 -5.2 23.8284
    endloop
  endfacet
  facet normal -0.707103 0 0.707111
    outer loop
      vertex 7.5 -6.5 23.8284
      vertex 4.67157 -5.2 21
      vertex 4.67157 -6.5 21
    endloop
  endfacet
  facet normal 0.707107 -0 0.707107
    outer loop
      vertex 7.5 -6.5 23.8284
      vertex 10.3284 -5.2 21
      vertex 7.5 -5.2 23.8284
    endloop
  endfacet
  facet normal 0.707107 0 0.707107
    outer loop
      vertex 10.3284 -5.2 21
      vertex 7.5 -6.5 23.8284
      vertex 10.3284 -6.5 21
    endloop
  endfacet
  facet normal 0.707117 0 -0.707096
    outer loop
      vertex 10.3284 -5.2 21
      vertex 9.32843 -6.49384 20
      vertex 9.32843 -5.2 20
    endloop
  endfacet
  facet normal 0.707117 0 -0.707096
    outer loop
      vertex 10.3284 -6.5 21
      vertex 9.32843 -6.49384 20
      vertex 10.3284 -5.2 21
    endloop
  endfacet
  facet normal 0.707103 -0.00344368 -0.707103
    outer loop
      vertex 7.5 -6.5 18.1716
      vertex 9.32843 -6.49384 20
      vertex 10.3284 -6.5 21
    endloop
  endfacet
  facet normal 0.707101 0 -0.707113
    outer loop
      vertex 9.32843 -6.49384 20
      vertex 7.5 -6.5 18.1716
      vertex 7.5 -6.49384 18.1716
    endloop
  endfacet
  facet normal -0.707101 0 -0.707113
    outer loop
      vertex 7.5 -6.5 18.1716
      vertex 5.67157 -6.49384 20
      vertex 7.5 -6.49384 18.1716
    endloop
  endfacet
  facet normal -0.707103 -0.00121754 -0.70711
    outer loop
      vertex 4.67157 -6.5 21
      vertex 5.67157 -6.49384 20
      vertex 7.5 -6.5 18.1716
    endloop
  endfacet
  facet normal -0.707107 0 -0.707107
    outer loop
      vertex 4.67157 -6.5 21
      vertex 5.67157 -5.2 20
      vertex 5.67157 -6.49384 20
    endloop
  endfacet
  facet normal -0.707107 0 -0.707107
    outer loop
      vertex 5.67157 -5.2 20
      vertex 4.67157 -6.5 21
      vertex 4.67157 -5.2 21
    endloop
  endfacet
  facet normal 0 -1 0
    outer loop
      vertex 4.67157 -6.5 21
      vertex 10.3284 -6.5 21
      vertex 7.5 -6.5 23.8284
    endloop
  endfacet
  facet normal -0 -1 0
    outer loop
      vertex 10.3284 -6.5 21
      vertex 4.67157 -6.5 21
      vertex 7.5 -6.5 18.1716
    endloop
  endfacet
  facet normal 0.707103 0 0.707111
    outer loop
      vertex -7.5 -5.2 23.8284
      vertex -4.67157 -6.5 21
      vertex -4.67157 -5.2 21
    endloop
  endfacet
  facet normal 0.707103 0 0.707111
    outer loop
      vertex -4.67157 -6.5 21
      vertex -7.5 -5.2 23.8284
      vertex -7.5 -6.5 23.8284
    endloop
  endfacet
  facet normal 0.707107 0 -0.707107
    outer loop
      vertex -4.67157 -6.5 21
      vertex -5.67157 -6.49384 20
      vertex -4.67157 -5.2 21
    endloop
  endfacet
  facet normal 0.707103 -0.00121754 -0.70711
    outer loop
      vertex -7.5 -6.5 18.1716
      vertex -5.67157 -6.49384 20
      vertex -4.67157 -6.5 21
    endloop
  endfacet
  facet normal 0.707101 0 -0.707113
    outer loop
      vertex -5.67157 -6.49384 20
      vertex -7.5 -6.5 18.1716
      vertex -7.5 -6.49384 18.1716
    endloop
  endfacet
  facet normal 0.707107 0 -0.707107
    outer loop
      vertex -4.67157 -5.2 21
      vertex -5.67157 -6.49384 20
      vertex -5.67157 -5.2 20
    endloop
  endfacet
  facet normal -0.707101 -0 -0.707113
    outer loop
      vertex -7.5 -6.49384 18.1716
      vertex -7.5 -6.5 18.1716
      vertex -9.32843 -6.49384 20
    endloop
  endfacet
  facet normal -0.707117 0 -0.707096
    outer loop
      vertex -9.32843 -6.49384 20
      vertex -10.3284 -5.2 21
      vertex -9.32843 -5.2 20
    endloop
  endfacet
  facet normal -0.707117 0 -0.707096
    outer loop
      vertex -9.32843 -6.49384 20
      vertex -10.3284 -6.5 21
      vertex -10.3284 -5.2 21
    endloop
  endfacet
  facet normal -0.707103 -0.00344368 -0.707103
    outer loop
      vertex -10.3284 -6.5 21
      vertex -9.32843 -6.49384 20
      vertex -7.5 -6.5 18.1716
    endloop
  endfacet
  facet normal 0 -1 0
    outer loop
      vertex -10.3284 -6.5 21
      vertex -4.67157 -6.5 21
      vertex -7.5 -6.5 23.8284
    endloop
  endfacet
  facet normal -0 -1 0
    outer loop
      vertex -4.67157 -6.5 21
      vertex -10.3284 -6.5 21
      vertex -7.5 -6.5 18.1716
    endloop
  endfacet
  facet normal -0.707107 0 0.707107
    outer loop
      vertex -10.3284 -6.5 21
      vertex -7.5 -5.2 23.8284
      vertex -10.3284 -5.2 21
    endloop
  endfacet
  facet normal -0.707107 0 0.707107
    outer loop
      vertex -7.5 -5.2 23.8284
      vertex -10.3284 -6.5 21
      vertex -7.5 -6.5 23.8284
    endloop
  endfacet
  facet normal 1 -0 0
    outer loop
      vertex 13.5 5.3 20
      vertex 13.5 6.49384 0
      vertex 13.5 6.49384 20
    endloop
  endfacet
  facet normal 1 0 0
    outer loop
      vertex 13.5 6.49384 0
      vertex 13.5 5.3 20
      vertex 13.5 5.3 0
    endloop
  endfacet
  facet normal 1 -0 0
    outer loop
      vertex 12.5 4 20
      vertex 12.5 5.3 0
      vertex 12.5 5.3 20
    endloop
  endfacet
  facet normal 1 0 0
    outer loop
      vertex 12.5 5.3 0
      vertex 12.5 4 20
      vertex 12.5 4 0
    endloop
  endfacet
  facet normal 0.110432 0.993884 -0
    outer loop
      vertex 14.9938 3.72291 0
      vertex 12.5 4 20
      vertex 14.9938 3.72291 20
    endloop
  endfacet
  facet normal 0.110432 0.993884 0
    outer loop
      vertex 12.5 4 20
      vertex 14.9938 3.72291 0
      vertex 12.5 4 0
    endloop
  endfacet
  facet normal 0 -1 0
    outer loop
      vertex 12.5 5.3 0
      vertex 13.5 5.3 20
      vertex 12.5 5.3 20
    endloop
  endfacet
  facet normal 0 -1 -0
    outer loop
      vertex 13.5 5.3 20
      vertex 12.5 5.3 0
      vertex 13.5 5.3 0
    endloop
  endfacet
  facet normal -1 0 0
    outer loop
      vertex -13.5 5.3 0
      vertex -13.5 6.49384 20
      vertex -13.5 6.49384 0
    endloop
  endfacet
  facet normal -1 -0 0
    outer loop
      vertex -13.5 6.49384 20
      vertex -13.5 5.3 0
      vertex -13.5 5.3 20
    endloop
  endfacet
  facet normal -1 0 0
    outer loop
      vertex -12.5 4 0
      vertex -12.5 5.3 20
      vertex -12.5 5.3 0
    endloop
  endfacet
  facet normal -1 -0 0
    outer loop
      vertex -12.5 5.3 20
      vertex -12.5 4 0
      vertex -12.5 4 20
    endloop
  endfacet
  facet normal -0.110432 0.993884 0
    outer loop
      vertex -12.5 4 0
      vertex -14.9938 3.72291 20
      vertex -12.5 4 20
    endloop
  endfacet
  facet normal -0.110432 0.993884 0
    outer loop
      vertex -14.9938 3.72291 20
      vertex -12.5 4 0
      vertex -14.9938 3.72291 0
    endloop
  endfacet
  facet normal 0 -1 0
    outer loop
      vertex -13.5 5.3 0
      vertex -12.5 5.3 20
      vertex -13.5 5.3 20
    endloop
  endfacet
  facet normal 0 -1 -0
    outer loop
      vertex -12.5 5.3 20
      vertex -13.5 5.3 0
      vertex -12.5 5.3 0
    endloop
  endfacet
  facet normal -0.996919 0 -0.0784408
    outer loop
      vertex 2 -6.49384 12
      vertex 1.97538 -5.2 12.3129
      vertex 2 -5.2 12
    endloop
  endfacet
  facet normal -0.996919 -0 -0.0784408
    outer loop
      vertex 1.97538 -5.2 12.3129
      vertex 2 -6.49384 12
      vertex 1.97538 -6.49384 12.3129
    endloop
  endfacet
  facet normal 1 -0 0
    outer loop
      vertex -2 -6.49384 12
      vertex -2 -5.2 8
      vertex -2 -5.2 12
    endloop
  endfacet
  facet normal 1 0 0
    outer loop
      vertex -2 -5.2 8
      vertex -2 -6.49384 12
      vertex -2 -6.49384 8
    endloop
  endfacet
  facet normal -0.972354 0 -0.233512
    outer loop
      vertex 1.97538 -6.49384 12.3129
      vertex 1.90211 -5.2 12.618
      vertex 1.97538 -5.2 12.3129
    endloop
  endfacet
  facet normal -0.972354 -0 -0.233512
    outer loop
      vertex 1.90211 -5.2 12.618
      vertex 1.97538 -6.49384 12.3129
      vertex 1.90211 -6.49384 12.618
    endloop
  endfacet
  facet normal -0.996918 0 0.0784483
    outer loop
      vertex 1.97538 -6.49384 7.68713
      vertex 2 -5.2 8
      vertex 1.97538 -5.2 7.68713
    endloop
  endfacet
  facet normal -0.996918 0 0.0784483
    outer loop
      vertex 2 -5.2 8
      vertex 1.97538 -6.49384 7.68713
      vertex 2 -6.49384 8
    endloop
  endfacet
  facet normal -0.382682 0 -0.92388
    outer loop
      vertex 0.618033 -6.49384 13.9021
      vertex 0.907981 -5.2 13.782
      vertex 0.907981 -6.49384 13.782
    endloop
  endfacet
  facet normal -0.382682 0 -0.92388
    outer loop
      vertex 0.907981 -5.2 13.782
      vertex 0.618033 -6.49384 13.9021
      vertex 0.618033 -5.2 13.9021
    endloop
  endfacet
  facet normal 0.972354 0 -0.233512
    outer loop
      vertex -1.90211 -6.49384 12.618
      vertex -1.97538 -5.2 12.3129
      vertex -1.90211 -5.2 12.618
    endloop
  endfacet
  facet normal 0.972354 0 -0.233512
    outer loop
      vertex -1.97538 -5.2 12.3129
      vertex -1.90211 -6.49384 12.618
      vertex -1.97538 -6.49384 12.3129
    endloop
  endfacet
  facet normal 0.760349 0 -0.649515
    outer loop
      vertex -1.41421 -6.49384 13.4142
      vertex -1.61803 -5.2 13.1756
      vertex -1.41421 -5.2 13.4142
    endloop
  endfacet
  facet normal 0.760349 0 -0.649515
    outer loop
      vertex -1.61803 -5.2 13.1756
      vertex -1.41421 -6.49384 13.4142
      vertex -1.61803 -6.49384 13.1756
    endloop
  endfacet
  facet normal 0.522501 0 0.852638
    outer loop
      vertex -1.17557 -5.2 6.38197
      vertex -0.907981 -6.49384 6.21799
      vertex -0.907981 -5.2 6.21799
    endloop
  endfacet
  facet normal 0.522501 0 0.852638
    outer loop
      vertex -0.907981 -6.49384 6.21799
      vertex -1.17557 -5.2 6.38197
      vertex -1.17557 -6.49384 6.38197
    endloop
  endfacet
  facet normal -1 0 0
    outer loop
      vertex 2 -6.49384 8
      vertex 2 -5.2 12
      vertex 2 -5.2 8
    endloop
  endfacet
  facet normal -1 -0 0
    outer loop
      vertex 2 -5.2 12
      vertex 2 -6.49384 8
      vertex 2 -6.49384 12
    endloop
  endfacet
  facet normal -0.760403 0 0.649452
    outer loop
      vertex 1.41421 -6.49384 6.58579
      vertex 1.61803 -5.2 6.82443
      vertex 1.41421 -5.2 6.58579
    endloop
  endfacet
  facet normal -0.760403 0 0.649452
    outer loop
      vertex 1.61803 -5.2 6.82443
      vertex 1.41421 -6.49384 6.58579
      vertex 1.61803 -6.49384 6.82443
    endloop
  endfacet
  facet normal -0.852648 0 -0.522486
    outer loop
      vertex 1.78201 -6.49384 12.908
      vertex 1.61803 -5.2 13.1756
      vertex 1.78201 -5.2 12.908
    endloop
  endfacet
  facet normal -0.852648 -0 -0.522486
    outer loop
      vertex 1.61803 -5.2 13.1756
      vertex 1.78201 -6.49384 12.908
      vertex 1.61803 -6.49384 13.1756
    endloop
  endfacet
  facet normal 0.233555 0 -0.972344
    outer loop
      vertex -0.618033 -6.49384 13.9021
      vertex -0.312868 -5.2 13.9754
      vertex -0.312868 -6.49384 13.9754
    endloop
  endfacet
  facet normal 0.233555 0 -0.972344
    outer loop
      vertex -0.312868 -5.2 13.9754
      vertex -0.618033 -6.49384 13.9021
      vertex -0.618033 -5.2 13.9021
    endloop
  endfacet
  facet normal 0.852648 0 -0.522486
    outer loop
      vertex -1.61803 -6.49384 13.1756
      vertex -1.78201 -5.2 12.908
      vertex -1.61803 -5.2 13.1756
    endloop
  endfacet
  facet normal 0.852648 0 -0.522486
    outer loop
      vertex -1.78201 -5.2 12.908
      vertex -1.61803 -6.49384 13.1756
      vertex -1.78201 -6.49384 12.908
    endloop
  endfacet
  facet normal 0.996919 0 -0.0784408
    outer loop
      vertex -1.97538 -6.49384 12.3129
      vertex -2 -5.2 12
      vertex -1.97538 -5.2 12.3129
    endloop
  endfacet
  facet normal 0.996919 0 -0.0784408
    outer loop
      vertex -2 -5.2 12
      vertex -1.97538 -6.49384 12.3129
      vertex -2 -6.49384 12
    endloop
  endfacet
  facet normal 0.0784488 0 0.996918
    outer loop
      vertex -0.312868 -5.2 6.02462
      vertex 0 -6.49384 6
      vertex 0 -5.2 6
    endloop
  endfacet
  facet normal 0.0784488 0 0.996918
    outer loop
      vertex 0 -6.49384 6
      vertex -0.312868 -5.2 6.02462
      vertex -0.312868 -6.49384 6.02462
    endloop
  endfacet
  facet normal 0.233465 0 0.972365
    outer loop
      vertex -0.618033 -5.2 6.09789
      vertex -0.312868 -6.49384 6.02462
      vertex -0.312868 -5.2 6.02462
    endloop
  endfacet
  facet normal 0.233465 0 0.972365
    outer loop
      vertex -0.312868 -6.49384 6.02462
      vertex -0.618033 -5.2 6.09789
      vertex -0.618033 -6.49384 6.09789
    endloop
  endfacet
  facet normal -0.382682 0 0.92388
    outer loop
      vertex 0.618033 -5.2 6.09789
      vertex 0.907981 -6.49384 6.21799
      vertex 0.907981 -5.2 6.21799
    endloop
  endfacet
  facet normal -0.382682 0 0.92388
    outer loop
      vertex 0.907981 -6.49384 6.21799
      vertex 0.618033 -5.2 6.09789
      vertex 0.618033 -6.49384 6.09789
    endloop
  endfacet
  facet normal -0.233465 0 0.972365
    outer loop
      vertex 0.312868 -5.2 6.02462
      vertex 0.618033 -6.49384 6.09789
      vertex 0.618033 -5.2 6.09789
    endloop
  endfacet
  facet normal -0.233465 0 0.972365
    outer loop
      vertex 0.618033 -6.49384 6.09789
      vertex 0.312868 -5.2 6.02462
      vertex 0.312868 -6.49384 6.02462
    endloop
  endfacet
  facet normal 0.760403 -0 0.649452
    outer loop
      vertex -1.61803 -6.49384 6.82443
      vertex -1.41421 -5.2 6.58579
      vertex -1.61803 -5.2 6.82443
    endloop
  endfacet
  facet normal 0.760403 0 0.649452
    outer loop
      vertex -1.41421 -5.2 6.58579
      vertex -1.61803 -6.49384 6.82443
      vertex -1.41421 -6.49384 6.58579
    endloop
  endfacet
  facet normal 0.852639 -0 0.5225
    outer loop
      vertex -1.78201 -6.49384 7.09202
      vertex -1.61803 -5.2 6.82443
      vertex -1.78201 -5.2 7.09202
    endloop
  endfacet
  facet normal 0.852639 0 0.5225
    outer loop
      vertex -1.61803 -5.2 6.82443
      vertex -1.78201 -6.49384 7.09202
      vertex -1.61803 -6.49384 6.82443
    endloop
  endfacet
  facet normal 0.923881 -0 0.38268
    outer loop
      vertex -1.90211 -6.49384 7.38197
      vertex -1.78201 -5.2 7.09202
      vertex -1.90211 -5.2 7.38197
    endloop
  endfacet
  facet normal 0.923881 0 0.38268
    outer loop
      vertex -1.78201 -5.2 7.09202
      vertex -1.90211 -6.49384 7.38197
      vertex -1.78201 -6.49384 7.09202
    endloop
  endfacet
  facet normal 0.996918 -0 0.0784483
    outer loop
      vertex -2 -6.49384 8
      vertex -1.97538 -5.2 7.68713
      vertex -2 -5.2 8
    endloop
  endfacet
  facet normal 0.996918 0 0.0784483
    outer loop
      vertex -1.97538 -5.2 7.68713
      vertex -2 -6.49384 8
      vertex -1.97538 -6.49384 7.68713
    endloop
  endfacet
  facet normal -0.923881 0 0.38268
    outer loop
      vertex 1.78201 -6.49384 7.09202
      vertex 1.90211 -5.2 7.38197
      vertex 1.78201 -5.2 7.09202
    endloop
  endfacet
  facet normal -0.923881 0 0.38268
    outer loop
      vertex 1.90211 -5.2 7.38197
      vertex 1.78201 -6.49384 7.09202
      vertex 1.90211 -6.49384 7.38197
    endloop
  endfacet
  facet normal -0.972364 0 0.233468
    outer loop
      vertex 1.90211 -6.49384 7.38197
      vertex 1.97538 -5.2 7.68713
      vertex 1.90211 -5.2 7.38197
    endloop
  endfacet
  facet normal -0.972364 0 0.233468
    outer loop
      vertex 1.97538 -5.2 7.68713
      vertex 1.90211 -6.49384 7.38197
      vertex 1.97538 -6.49384 7.68713
    endloop
  endfacet
  facet normal -0.852639 0 0.5225
    outer loop
      vertex 1.61803 -6.49384 6.82443
      vertex 1.78201 -5.2 7.09202
      vertex 1.61803 -5.2 6.82443
    endloop
  endfacet
  facet normal -0.852639 0 0.5225
    outer loop
      vertex 1.78201 -5.2 7.09202
      vertex 1.61803 -6.49384 6.82443
      vertex 1.78201 -6.49384 7.09202
    endloop
  endfacet
  facet normal -0.923904 0 -0.382624
    outer loop
      vertex 1.90211 -6.49384 12.618
      vertex 1.78201 -5.2 12.908
      vertex 1.90211 -5.2 12.618
    endloop
  endfacet
  facet normal -0.923904 -0 -0.382624
    outer loop
      vertex 1.78201 -5.2 12.908
      vertex 1.90211 -6.49384 12.618
      vertex 1.78201 -6.49384 12.908
    endloop
  endfacet
  facet normal -0.649415 0 -0.760434
    outer loop
      vertex 1.17557 -6.49384 13.618
      vertex 1.41421 -5.2 13.4142
      vertex 1.41421 -6.49384 13.4142
    endloop
  endfacet
  facet normal -0.649415 0 -0.760434
    outer loop
      vertex 1.41421 -5.2 13.4142
      vertex 1.17557 -6.49384 13.618
      vertex 1.17557 -5.2 13.618
    endloop
  endfacet
  facet normal 0.382682 0 -0.92388
    outer loop
      vertex -0.907981 -6.49384 13.782
      vertex -0.618033 -5.2 13.9021
      vertex -0.618033 -6.49384 13.9021
    endloop
  endfacet
  facet normal 0.382682 0 -0.92388
    outer loop
      vertex -0.618033 -5.2 13.9021
      vertex -0.907981 -6.49384 13.782
      vertex -0.907981 -5.2 13.782
    endloop
  endfacet
  facet normal 0.923904 0 -0.382624
    outer loop
      vertex -1.78201 -6.49384 12.908
      vertex -1.90211 -5.2 12.618
      vertex -1.78201 -5.2 12.908
    endloop
  endfacet
  facet normal 0.923904 0 -0.382624
    outer loop
      vertex -1.90211 -5.2 12.618
      vertex -1.78201 -6.49384 12.908
      vertex -1.90211 -6.49384 12.618
    endloop
  endfacet
  facet normal 0.382682 0 0.92388
    outer loop
      vertex -0.907981 -5.2 6.21799
      vertex -0.618033 -6.49384 6.09789
      vertex -0.618033 -5.2 6.09789
    endloop
  endfacet
  facet normal 0.382682 0 0.92388
    outer loop
      vertex -0.618033 -6.49384 6.09789
      vertex -0.907981 -5.2 6.21799
      vertex -0.907981 -6.49384 6.21799
    endloop
  endfacet
  facet normal -0.0784488 0 0.996918
    outer loop
      vertex 0 -5.2 6
      vertex 0.312868 -6.49384 6.02462
      vertex 0.312868 -5.2 6.02462
    endloop
  endfacet
  facet normal -0.0784488 0 0.996918
    outer loop
      vertex 0.312868 -6.49384 6.02462
      vertex 0 -5.2 6
      vertex 0 -6.49384 6
    endloop
  endfacet
  facet normal -0.522501 0 0.852638
    outer loop
      vertex 0.907981 -5.2 6.21799
      vertex 1.17557 -6.49384 6.38197
      vertex 1.17557 -5.2 6.38197
    endloop
  endfacet
  facet normal -0.522501 0 0.852638
    outer loop
      vertex 1.17557 -6.49384 6.38197
      vertex 0.907981 -5.2 6.21799
      vertex 0.907981 -6.49384 6.21799
    endloop
  endfacet
  facet normal -0.649452 0 0.760403
    outer loop
      vertex 1.17557 -5.2 6.38197
      vertex 1.41421 -6.49384 6.58579
      vertex 1.41421 -5.2 6.58579
    endloop
  endfacet
  facet normal -0.649452 0 0.760403
    outer loop
      vertex 1.41421 -6.49384 6.58579
      vertex 1.17557 -5.2 6.38197
      vertex 1.17557 -6.49384 6.38197
    endloop
  endfacet
  facet normal 0.649452 0 0.760403
    outer loop
      vertex -1.41421 -5.2 6.58579
      vertex -1.17557 -6.49384 6.38197
      vertex -1.17557 -5.2 6.38197
    endloop
  endfacet
  facet normal 0.649452 0 0.760403
    outer loop
      vertex -1.17557 -6.49384 6.38197
      vertex -1.41421 -5.2 6.58579
      vertex -1.41421 -6.49384 6.58579
    endloop
  endfacet
  facet normal 0.972364 -0 0.233468
    outer loop
      vertex -1.97538 -6.49384 7.68713
      vertex -1.90211 -5.2 7.38197
      vertex -1.97538 -5.2 7.68713
    endloop
  endfacet
  facet normal 0.972364 0 0.233468
    outer loop
      vertex -1.90211 -5.2 7.38197
      vertex -1.97538 -6.49384 7.68713
      vertex -1.90211 -6.49384 7.38197
    endloop
  endfacet
  facet normal -0.522548 0 -0.85261
    outer loop
      vertex 0.907981 -6.49384 13.782
      vertex 1.17557 -5.2 13.618
      vertex 1.17557 -6.49384 13.618
    endloop
  endfacet
  facet normal -0.522548 0 -0.85261
    outer loop
      vertex 1.17557 -5.2 13.618
      vertex 0.907981 -6.49384 13.782
      vertex 0.907981 -5.2 13.782
    endloop
  endfacet
  facet normal -0.760349 0 -0.649515
    outer loop
      vertex 1.61803 -6.49384 13.1756
      vertex 1.41421 -5.2 13.4142
      vertex 1.61803 -5.2 13.1756
    endloop
  endfacet
  facet normal -0.760349 -0 -0.649515
    outer loop
      vertex 1.41421 -5.2 13.4142
      vertex 1.61803 -6.49384 13.1756
      vertex 1.41421 -6.49384 13.4142
    endloop
  endfacet
  facet normal 0.522548 0 -0.85261
    outer loop
      vertex -1.17557 -6.49384 13.618
      vertex -0.907981 -5.2 13.782
      vertex -0.907981 -6.49384 13.782
    endloop
  endfacet
  facet normal 0.522548 0 -0.85261
    outer loop
      vertex -0.907981 -5.2 13.782
      vertex -1.17557 -6.49384 13.618
      vertex -1.17557 -5.2 13.618
    endloop
  endfacet
  facet normal 0.649415 0 -0.760434
    outer loop
      vertex -1.41421 -6.49384 13.4142
      vertex -1.17557 -5.2 13.618
      vertex -1.17557 -6.49384 13.618
    endloop
  endfacet
  facet normal 0.649415 0 -0.760434
    outer loop
      vertex -1.17557 -5.2 13.618
      vertex -1.41421 -6.49384 13.4142
      vertex -1.41421 -5.2 13.4142
    endloop
  endfacet
  facet normal 0.0783855 0 -0.996923
    outer loop
      vertex -0.312868 -6.49384 13.9754
      vertex 0 -5.2 14
      vertex 0 -6.49384 14
    endloop
  endfacet
  facet normal 0.0783855 0 -0.996923
    outer loop
      vertex 0 -5.2 14
      vertex -0.312868 -6.49384 13.9754
      vertex -0.312868 -5.2 13.9754
    endloop
  endfacet
  facet normal -0.233555 0 -0.972344
    outer loop
      vertex 0.312868 -6.49384 13.9754
      vertex 0.618033 -5.2 13.9021
      vertex 0.618033 -6.49384 13.9021
    endloop
  endfacet
  facet normal -0.233555 0 -0.972344
    outer loop
      vertex 0.618033 -5.2 13.9021
      vertex 0.312868 -6.49384 13.9754
      vertex 0.312868 -5.2 13.9754
    endloop
  endfacet
  facet normal -0.0783855 0 -0.996923
    outer loop
      vertex 0 -6.49384 14
      vertex 0.312868 -5.2 13.9754
      vertex 0.312868 -6.49384 13.9754
    endloop
  endfacet
  facet normal -0.0783855 0 -0.996923
    outer loop
      vertex 0.312868 -5.2 13.9754
      vertex 0 -6.49384 14
      vertex 0 -5.2 14
    endloop
  endfacet
  facet normal 1 -0 0
    outer loop
      vertex -13.7 -5.2 20
      vertex -13.7 2.3 0
      vertex -13.7 2.3 20
    endloop
  endfacet
  facet normal 1 0 0
    outer loop
      vertex -13.7 2.3 0
      vertex -13.7 -5.2 20
      vertex -13.7 -5.2 0
    endloop
  endfacet
  facet normal -1 0 0
    outer loop
      vertex 13.7 -5.2 0
      vertex 13.7 2.3 20
      vertex 13.7 2.3 0
    endloop
  endfacet
  facet normal -1 -0 0
    outer loop
      vertex 13.7 2.3 20
      vertex 13.7 -5.2 0
      vertex 13.7 -5.2 20
    endloop
  endfacet
  facet normal 0 1 0
    outer loop
      vertex -0.312868 -5.2 6.02462
      vertex -4.53015 -5.2 1
      vertex -0.618033 -5.2 6.09789
    endloop
  endfacet
  facet normal 0 1 0
    outer loop
      vertex -0.618033 -5.2 6.09789
      vertex -4.53015 -5.2 1
      vertex -7.5 -5.2 3.96985
    endloop
  endfacet
  facet normal 0 1 0
    outer loop
      vertex 5.53015 -5.2 0
      vertex -4.53015 -5.2 1
      vertex 4.53015 -5.2 1
    endloop
  endfacet
  facet normal 0 1 0
    outer loop
      vertex -4.53015 -5.2 1
      vertex 5.53015 -5.2 0
      vertex -5.53015 -5.2 0
    endloop
  endfacet
  facet normal 0 1 0
    outer loop
      vertex 7.5 -5.2 3.96985
      vertex 9.32843 -5.2 20
      vertex 13.7 -5.2 20
    endloop
  endfacet
  facet normal -0 1 0
    outer loop
      vertex 1.90211 -5.2 12.618
      vertex 9.32843 -5.2 20
      vertex 1.97538 -5.2 12.3129
    endloop
  endfacet
  facet normal -0 1 0
    outer loop
      vertex 0.312868 -5.2 13.9754
      vertex 5.67157 -5.2 20
      vertex 0.618033 -5.2 13.9021
    endloop
  endfacet
  facet normal 0 1 0
    outer loop
      vertex 5.67157 -5.2 20
      vertex 0 -5.2 14
      vertex -5.67157 -5.2 20
    endloop
  endfacet
  facet normal 0 1 -0
    outer loop
      vertex -0.618033 -5.2 13.9021
      vertex -5.67157 -5.2 20
      vertex -0.312868 -5.2 13.9754
    endloop
  endfacet
  facet normal 0 1 -0
    outer loop
      vertex -0.312868 -5.2 13.9754
      vertex -5.67157 -5.2 20
      vertex 0 -5.2 14
    endloop
  endfacet
  facet normal -0 1 0
    outer loop
      vertex 0 -5.2 14
      vertex 5.67157 -5.2 20
      vertex 0.312868 -5.2 13.9754
    endloop
  endfacet
  facet normal 0 1 0
    outer loop
      vertex 5.67157 -5.2 20
      vertex 0.907981 -5.2 13.782
      vertex 0.618033 -5.2 13.9021
    endloop
  endfacet
  facet normal 0 1 0
    outer loop
      vertex 5.67157 -5.2 20
      vertex 1.17557 -5.2 13.618
      vertex 0.907981 -5.2 13.782
    endloop
  endfacet
  facet normal 0 1 0
    outer loop
      vertex 5.67157 -5.2 20
      vertex 1.41421 -5.2 13.4142
      vertex 1.17557 -5.2 13.618
    endloop
  endfacet
  facet normal 0 1 0
    outer loop
      vertex 5.67157 -5.2 20
      vertex 1.61803 -5.2 13.1756
      vertex 1.41421 -5.2 13.4142
    endloop
  endfacet
  facet normal 0 1 0
    outer loop
      vertex 5.67157 -5.2 20
      vertex 1.78201 -5.2 12.908
      vertex 1.61803 -5.2 13.1756
    endloop
  endfacet
  facet normal 0 1 0
    outer loop
      vertex 5.67157 -5.2 20
      vertex 1.90211 -5.2 12.618
      vertex 1.78201 -5.2 12.908
    endloop
  endfacet
  facet normal 0 1 0
    outer loop
      vertex 9.32843 -5.2 20
      vertex 1.90211 -5.2 12.618
      vertex 5.67157 -5.2 20
    endloop
  endfacet
  facet normal 0 1 0
    outer loop
      vertex 9.32843 -5.2 20
      vertex 2 -5.2 12
      vertex 1.97538 -5.2 12.3129
    endloop
  endfacet
  facet normal 0 1 0
    outer loop
      vertex 9.32843 -5.2 20
      vertex 7.5 -5.2 3.96985
      vertex 2 -5.2 12
    endloop
  endfacet
  facet normal 0 1 0
    outer loop
      vertex 2 -5.2 12
      vertex 7.5 -5.2 3.96985
      vertex 2 -5.2 8
    endloop
  endfacet
  facet normal 0 1 0
    outer loop
      vertex 2 -5.2 8
      vertex 7.5 -5.2 3.96985
      vertex 1.97538 -5.2 7.68713
    endloop
  endfacet
  facet normal 0 1 0
    outer loop
      vertex 1.97538 -5.2 7.68713
      vertex 7.5 -5.2 3.96985
      vertex 1.90211 -5.2 7.38197
    endloop
  endfacet
  facet normal 0 1 0
    outer loop
      vertex 1.90211 -5.2 7.38197
      vertex 7.5 -5.2 3.96985
      vertex 1.78201 -5.2 7.09202
    endloop
  endfacet
  facet normal 0 1 0
    outer loop
      vertex 1.78201 -5.2 7.09202
      vertex 7.5 -5.2 3.96985
      vertex 1.61803 -5.2 6.82443
    endloop
  endfacet
  facet normal 0 1 0
    outer loop
      vertex 0.618033 -5.2 6.09789
      vertex 4.53015 -5.2 1
      vertex 0.312868 -5.2 6.02462
    endloop
  endfacet
  facet normal 0 1 0
    outer loop
      vertex 0.907981 -5.2 6.21799
      vertex 4.53015 -5.2 1
      vertex 0.618033 -5.2 6.09789
    endloop
  endfacet
  facet normal 0 1 0
    outer loop
      vertex 1.17557 -5.2 6.38197
      vertex 4.53015 -5.2 1
      vertex 0.907981 -5.2 6.21799
    endloop
  endfacet
  facet normal 0 1 0
    outer loop
      vertex 1.41421 -5.2 6.58579
      vertex 4.53015 -5.2 1
      vertex 1.17557 -5.2 6.38197
    endloop
  endfacet
  facet normal 0 1 -0
    outer loop
      vertex 4.53015 -5.2 1
      vertex 1.41421 -5.2 6.58579
      vertex 7.5 -5.2 3.96985
    endloop
  endfacet
  facet normal 0 1 0
    outer loop
      vertex 1.61803 -5.2 6.82443
      vertex 7.5 -5.2 3.96985
      vertex 1.41421 -5.2 6.58579
    endloop
  endfacet
  facet normal 0 1 -0
    outer loop
      vertex 13.7 -5.2 0
      vertex 7.5 -5.2 3.96985
      vertex 13.7 -5.2 20
    endloop
  endfacet
  facet normal 0 1 0
    outer loop
      vertex 7.5 -5.2 3.96985
      vertex 13.7 -5.2 0
      vertex 10.4698 -5.2 1
    endloop
  endfacet
  facet normal 0 1 0
    outer loop
      vertex 10.4698 -5.2 1
      vertex 13.7 -5.2 0
      vertex 9.46985 -5.2 0
    endloop
  endfacet
  facet normal 0 1 -0
    outer loop
      vertex 9.32843 -5.2 20
      vertex 7.5 -5.2 23.8284
      vertex 10.3284 -5.2 21
    endloop
  endfacet
  facet normal 0 1 0
    outer loop
      vertex 5.67157 -5.2 20
      vertex 7.5 -5.2 23.8284
      vertex 9.32843 -5.2 20
    endloop
  endfacet
  facet normal 0 1 0
    outer loop
      vertex 7.5 -5.2 23.8284
      vertex 5.67157 -5.2 20
      vertex 4.67157 -5.2 21
    endloop
  endfacet
  facet normal 0 1 -0
    outer loop
      vertex -5.67157 -5.2 20
      vertex -7.5 -5.2 23.8284
      vertex -4.67157 -5.2 21
    endloop
  endfacet
  facet normal 0 1 0
    outer loop
      vertex -9.32843 -5.2 20
      vertex -7.5 -5.2 23.8284
      vertex -5.67157 -5.2 20
    endloop
  endfacet
  facet normal 0 1 0
    outer loop
      vertex -7.5 -5.2 23.8284
      vertex -9.32843 -5.2 20
      vertex -10.3284 -5.2 21
    endloop
  endfacet
  facet normal 0 1 -0
    outer loop
      vertex -0.907981 -5.2 13.782
      vertex -5.67157 -5.2 20
      vertex -0.618033 -5.2 13.9021
    endloop
  endfacet
  facet normal 0 1 -0
    outer loop
      vertex -1.17557 -5.2 13.618
      vertex -5.67157 -5.2 20
      vertex -0.907981 -5.2 13.782
    endloop
  endfacet
  facet normal 0 1 -0
    outer loop
      vertex -1.41421 -5.2 13.4142
      vertex -5.67157 -5.2 20
      vertex -1.17557 -5.2 13.618
    endloop
  endfacet
  facet normal 0 1 -0
    outer loop
      vertex -1.61803 -5.2 13.1756
      vertex -5.67157 -5.2 20
      vertex -1.41421 -5.2 13.4142
    endloop
  endfacet
  facet normal 0 1 -0
    outer loop
      vertex -1.78201 -5.2 12.908
      vertex -5.67157 -5.2 20
      vertex -1.61803 -5.2 13.1756
    endloop
  endfacet
  facet normal 0 1 -0
    outer loop
      vertex -1.90211 -5.2 12.618
      vertex -5.67157 -5.2 20
      vertex -1.78201 -5.2 12.908
    endloop
  endfacet
  facet normal 0 1 0
    outer loop
      vertex -5.67157 -5.2 20
      vertex -1.90211 -5.2 12.618
      vertex -9.32843 -5.2 20
    endloop
  endfacet
  facet normal 0 1 -0
    outer loop
      vertex -1.97538 -5.2 12.3129
      vertex -9.32843 -5.2 20
      vertex -1.90211 -5.2 12.618
    endloop
  endfacet
  facet normal 0 1 -0
    outer loop
      vertex -2 -5.2 12
      vertex -9.32843 -5.2 20
      vertex -1.97538 -5.2 12.3129
    endloop
  endfacet
  facet normal 0 1 -0
    outer loop
      vertex -7.5 -5.2 3.96985
      vertex -9.32843 -5.2 20
      vertex -2 -5.2 12
    endloop
  endfacet
  facet normal 0 1 0
    outer loop
      vertex -7.5 -5.2 3.96985
      vertex -2 -5.2 12
      vertex -2 -5.2 8
    endloop
  endfacet
  facet normal 0 1 0
    outer loop
      vertex -7.5 -5.2 3.96985
      vertex -2 -5.2 8
      vertex -1.97538 -5.2 7.68713
    endloop
  endfacet
  facet normal 0 1 0
    outer loop
      vertex -7.5 -5.2 3.96985
      vertex -1.97538 -5.2 7.68713
      vertex -1.90211 -5.2 7.38197
    endloop
  endfacet
  facet normal 0 1 0
    outer loop
      vertex -7.5 -5.2 3.96985
      vertex -1.90211 -5.2 7.38197
      vertex -1.78201 -5.2 7.09202
    endloop
  endfacet
  facet normal 0 1 0
    outer loop
      vertex -7.5 -5.2 3.96985
      vertex -1.78201 -5.2 7.09202
      vertex -1.61803 -5.2 6.82443
    endloop
  endfacet
  facet normal 0 1 0
    outer loop
      vertex -7.5 -5.2 3.96985
      vertex -1.61803 -5.2 6.82443
      vertex -1.41421 -5.2 6.58579
    endloop
  endfacet
  facet normal 0 1 0
    outer loop
      vertex 0.312868 -5.2 6.02462
      vertex 4.53015 -5.2 1
      vertex 0 -5.2 6
    endloop
  endfacet
  facet normal 0 1 0
    outer loop
      vertex -4.53015 -5.2 1
      vertex 0 -5.2 6
      vertex 4.53015 -5.2 1
    endloop
  endfacet
  facet normal 0 1 0
    outer loop
      vertex 0 -5.2 6
      vertex -4.53015 -5.2 1
      vertex -0.312868 -5.2 6.02462
    endloop
  endfacet
  facet normal 0 1 0
    outer loop
      vertex -7.5 -5.2 3.96985
      vertex -0.907981 -5.2 6.21799
      vertex -0.618033 -5.2 6.09789
    endloop
  endfacet
  facet normal 0 1 0
    outer loop
      vertex -7.5 -5.2 3.96985
      vertex -1.17557 -5.2 6.38197
      vertex -0.907981 -5.2 6.21799
    endloop
  endfacet
  facet normal 0 1 0
    outer loop
      vertex -7.5 -5.2 3.96985
      vertex -1.41421 -5.2 6.58579
      vertex -1.17557 -5.2 6.38197
    endloop
  endfacet
  facet normal 0 1 0
    outer loop
      vertex -9.32843 -5.2 20
      vertex -7.5 -5.2 3.96985
      vertex -13.7 -5.2 20
    endloop
  endfacet
  facet normal 0 1 0
    outer loop
      vertex -13.7 -5.2 0
      vertex -7.5 -5.2 3.96985
      vertex -10.4698 -5.2 1
    endloop
  endfacet
  facet normal 0 1 0
    outer loop
      vertex -7.5 -5.2 3.96985
      vertex -13.7 -5.2 0
      vertex -13.7 -5.2 20
    endloop
  endfacet
  facet normal 0 1 0
    outer loop
      vertex -13.7 -5.2 0
      vertex -10.4698 -5.2 1
      vertex -9.46985 -5.2 0
    endloop
  endfacet
  facet normal 0.0858888 -0.996305 0
    outer loop
      vertex -13.7 2.3 0
      vertex -11 2.53276 20
      vertex -13.7 2.3 20
    endloop
  endfacet
  facet normal 0.0858888 -0.996305 0
    outer loop
      vertex -11 2.53276 20
      vertex -13.7 2.3 0
      vertex -11 2.53276 0
    endloop
  endfacet
  facet normal -0.0858888 -0.996305 0
    outer loop
      vertex 11 2.53276 0
      vertex 13.7 2.3 20
      vertex 11 2.53276 20
    endloop
  endfacet
  facet normal -0.0858888 -0.996305 -0
    outer loop
      vertex 13.7 2.3 20
      vertex 11 2.53276 0
      vertex 13.7 2.3 0
    endloop
  endfacet
  facet normal 1 -0 0
    outer loop
      vertex -11 2.53276 20
      vertex -11 6.49384 0
      vertex -11 6.49384 20
    endloop
  endfacet
  facet normal 1 0 0
    outer loop
      vertex -11 6.49384 0
      vertex -11 2.53276 20
      vertex -11 2.53276 0
    endloop
  endfacet
  facet normal -1 0 0
    outer loop
      vertex 11 2.53276 0
      vertex 11 6.49384 20
      vertex 11 6.49384 0
    endloop
  endfacet
  facet normal -1 -0 0
    outer loop
      vertex 11 6.49384 20
      vertex 11 2.53276 0
      vertex 11 2.53276 20
    endloop
  endfacet
  facet normal 0.707107 0 -0.707107
    outer loop
      vertex 7.5 -6.49384 3.96985
      vertex 4.53015 -5.2 1
      vertex 7.5 -5.2 3.96985
    endloop
  endfacet
  facet normal 0.707107 0 -0.707107
    outer loop
      vertex 4.53015 -5.2 1
      vertex 7.5 -6.49384 3.96985
      vertex 4.53015 -6.49384 1
    endloop
  endfacet
  facet normal -0.707113 0 -0.707101
    outer loop
      vertex 10.4698 -6.49384 1
      vertex 7.5 -5.2 3.96985
      vertex 10.4698 -5.2 1
    endloop
  endfacet
  facet normal -0.707113 -0 -0.707101
    outer loop
      vertex 7.5 -5.2 3.96985
      vertex 10.4698 -6.49384 1
      vertex 7.5 -6.49384 3.96985
    endloop
  endfacet
  facet normal 0.707107 0 0.707107
    outer loop
      vertex 4.53015 -5.2 1
      vertex 5.53015 -6.49384 0
      vertex 5.53015 -5.2 0
    endloop
  endfacet
  facet normal 0.707107 0 0.707107
    outer loop
      vertex 5.53015 -6.49384 0
      vertex 4.53015 -5.2 1
      vertex 4.53015 -6.49384 1
    endloop
  endfacet
  facet normal -0.707124 0 0.707089
    outer loop
      vertex 9.46985 -6.49384 0
      vertex 10.4698 -5.2 1
      vertex 9.46985 -5.2 0
    endloop
  endfacet
  facet normal -0.707124 0 0.707089
    outer loop
      vertex 10.4698 -5.2 1
      vertex 9.46985 -6.49384 0
      vertex 10.4698 -6.49384 1
    endloop
  endfacet
  facet normal 0.707113 0 -0.707101
    outer loop
      vertex -7.5 -6.49384 3.96985
      vertex -10.4698 -5.2 1
      vertex -7.5 -5.2 3.96985
    endloop
  endfacet
  facet normal 0.707113 0 -0.707101
    outer loop
      vertex -10.4698 -5.2 1
      vertex -7.5 -6.49384 3.96985
      vertex -10.4698 -6.49384 1
    endloop
  endfacet
  facet normal -0.707107 0 -0.707107
    outer loop
      vertex -4.53015 -6.49384 1
      vertex -7.5 -5.2 3.96985
      vertex -4.53015 -5.2 1
    endloop
  endfacet
  facet normal -0.707107 -0 -0.707107
    outer loop
      vertex -7.5 -5.2 3.96985
      vertex -4.53015 -6.49384 1
      vertex -7.5 -6.49384 3.96985
    endloop
  endfacet
  facet normal -0.707107 0 0.707107
    outer loop
      vertex -5.53015 -5.2 0
      vertex -4.53015 -6.49384 1
      vertex -4.53015 -5.2 1
    endloop
  endfacet
  facet normal -0.707107 0 0.707107
    outer loop
      vertex -4.53015 -6.49384 1
      vertex -5.53015 -5.2 0
      vertex -5.53015 -6.49384 0
    endloop
  endfacet
  facet normal 0.707124 -0 0.707089
    outer loop
      vertex -10.4698 -6.49384 1
      vertex -9.46985 -5.2 0
      vertex -10.4698 -5.2 1
    endloop
  endfacet
  facet normal 0.707124 0 0.707089
    outer loop
      vertex -9.46985 -5.2 0
      vertex -10.4698 -6.49384 1
      vertex -9.46985 -6.49384 0
    endloop
  endfacet
endsolid OpenSCAD_Model
