solid OpenSCAD_Model
  facet normal 0.961772 0.273851 0
    outer loop
      vertex 2.79556 6.45 1.54962
      vertex 4.11095 1.83031 1.6
      vertex 2.79556 6.45 1.1
    endloop
  endfacet
  facet normal 0.961786 0.273802 -0
    outer loop
      vertex 2.02676 9.15 1.1
      vertex 2 9.244 1.51915
      vertex 2.02676 9.15 1.52018
    endloop
  endfacet
  facet normal 0.961786 0.273802 0
    outer loop
      vertex 2 9.244 1.51915
      vertex 2.02676 9.15 1.1
      vertex 2 9.244 0
    endloop
  endfacet
  facet normal 0.961771 0.273855 4.92219e-06
    outer loop
      vertex 2.79556 6.45 1.1
      vertex 2 9.244 0
      vertex 2.02676 9.15 1.1
    endloop
  endfacet
  facet normal 0.961772 0.273851 -0
    outer loop
      vertex 4.11095 1.83031 0
      vertex 2.79556 6.45 1.1
      vertex 4.11095 1.83031 1.6
    endloop
  endfacet
  facet normal 0.961772 0.273852 -4.8255e-06
    outer loop
      vertex 2.79556 6.45 1.1
      vertex 4.11095 1.83031 0
      vertex 2 9.244 0
    endloop
  endfacet
  facet normal -1 0 0
    outer loop
      vertex -4.40166 -0.935602 0
      vertex -4.40166 0.935602 1.6
      vertex -4.40166 0.935602 0
    endloop
  endfacet
  facet normal -1 -0 0
    outer loop
      vertex -4.40166 0.935602 1.6
      vertex -4.40166 -0.935602 0
      vertex -4.40166 -0.935602 1.6
    endloop
  endfacet
  facet normal 0.104531 -0.994522 0
    outer loop
      vertex -0.470378 -4.47535 0
      vertex 1.39058 -4.27975 1.6
      vertex -0.470378 -4.47535 1.6
    endloop
  endfacet
  facet normal 0.104531 -0.994522 0
    outer loop
      vertex 1.39058 -4.27975 1.6
      vertex -0.470378 -4.47535 0
      vertex 1.39058 -4.27975 0
    endloop
  endfacet
  facet normal 0.499999 -0.866026 0
    outer loop
      vertex 1.39058 -4.27975 0
      vertex 3.01109 -3.34415 1.6
      vertex 1.39058 -4.27975 1.6
    endloop
  endfacet
  facet normal 0.499999 -0.866026 0
    outer loop
      vertex 3.01109 -3.34415 1.6
      vertex 1.39058 -4.27975 0
      vertex 3.01109 -3.34415 0
    endloop
  endfacet
  facet normal 0 1 -0
    outer loop
      vertex 2 11 0
      vertex -2 11 4
      vertex 2 11 4
    endloop
  endfacet
  facet normal 0 1 0
    outer loop
      vertex -2 11 4
      vertex 2 11 0
      vertex -2 11 0
    endloop
  endfacet
  facet normal -0.960867 0.277012 0
    outer loop
      vertex -2 9.26575 0
      vertex -2.03337 9.15 1.1
      vertex -2 9.26575 1.51723
    endloop
  endfacet
  facet normal -0.960862 0.277027 1.75673e-06
    outer loop
      vertex -2 9.26575 0
      vertex -2.81181 6.45 1.1
      vertex -2.03337 9.15 1.1
    endloop
  endfacet
  facet normal -0.960863 0.277026 -2.44357e-06
    outer loop
      vertex -4.40166 0.935602 0
      vertex -2.81181 6.45 1.1
      vertex -2 9.26575 0
    endloop
  endfacet
  facet normal -0.960863 0.277025 0
    outer loop
      vertex -4.40166 0.935602 1.6
      vertex -2.81181 6.45 1.1
      vertex -4.40166 0.935602 0
    endloop
  endfacet
  facet normal -0.960863 0.277025 0
    outer loop
      vertex -2.81181 6.45 1.1
      vertex -4.40166 0.935602 1.6
      vertex -2.81181 6.45 1.54521
    endloop
  endfacet
  facet normal -0.960867 0.277012 0
    outer loop
      vertex -2 9.26575 1.51723
      vertex -2.03337 9.15 1.1
      vertex -2.03337 9.15 1.51838
    endloop
  endfacet
  facet normal 0.0246727 0.0179256 0.999535
    outer loop
      vertex 2.79556 6.45 1.54962
      vertex 3.01109 3.34415 1.6
      vertex 4.11095 1.83031 1.6
    endloop
  endfacet
  facet normal 0.0246678 0.0179253 0.999535
    outer loop
      vertex 3.01109 3.34415 1.6
      vertex 2.79556 6.45 1.54962
      vertex 2.39806 6.45 1.55943
    endloop
  endfacet
  facet normal 0.0246522 0.0179704 0.999535
    outer loop
      vertex 2 9.244 1.51915
      vertex 2 9.15 1.52084
      vertex 2.02676 9.15 1.52018
    endloop
  endfacet
  facet normal 0 0 -1
    outer loop
      vertex -4.40166 0.935602 0
      vertex -1.77984 1.29313 0
      vertex -2.09232 0.679837 0
    endloop
  endfacet
  facet normal 0 0 -1
    outer loop
      vertex -4.40166 0.935602 0
      vertex -2.09232 0.679837 0
      vertex -2.2 0 0
    endloop
  endfacet
  facet normal 0 0 -1
    outer loop
      vertex -4.40166 -0.935602 0
      vertex -2.09232 -0.679837 0
      vertex -3.64058 -2.64503 0
    endloop
  endfacet
  facet normal -0 0 -1
    outer loop
      vertex -2.09232 -0.679837 0
      vertex -4.40166 -0.935602 0
      vertex -2.2 0 0
    endloop
  endfacet
  facet normal -0 0 -1
    outer loop
      vertex -2.2 0 0
      vertex -4.40166 -0.935602 0
      vertex -4.40166 0.935602 0
    endloop
  endfacet
  facet normal -0 0 -1
    outer loop
      vertex -1.77984 1.29313 0
      vertex -4.40166 0.935602 0
      vertex -2 9.26575 0
    endloop
  endfacet
  facet normal -0 0 -1
    outer loop
      vertex 4.5 0 0
      vertex 2.09232 -0.679837 0
      vertex 2.2 0 0
    endloop
  endfacet
  facet normal 0 0 -1
    outer loop
      vertex 4.11095 -1.83031 0
      vertex 1.77984 -1.29313 0
      vertex 2.09232 -0.679837 0
    endloop
  endfacet
  facet normal 0 0 -1
    outer loop
      vertex 1.29313 -1.77984 0
      vertex 3.01109 -3.34415 0
      vertex 1.39058 -4.27975 0
    endloop
  endfacet
  facet normal 0 0 -1
    outer loop
      vertex 3.01109 -3.34415 0
      vertex 1.29313 -1.77984 0
      vertex 1.77984 -1.29313 0
    endloop
  endfacet
  facet normal 0 0 -1
    outer loop
      vertex 1.39058 -4.27975 0
      vertex 0.679837 -2.09232 0
      vertex 1.29313 -1.77984 0
    endloop
  endfacet
  facet normal 0 0 -1
    outer loop
      vertex 1.39058 -4.27975 0
      vertex 0 -2.2 0
      vertex 0.679837 -2.09232 0
    endloop
  endfacet
  facet normal 0 0 -1
    outer loop
      vertex -0.470378 -4.47535 0
      vertex 0 -2.2 0
      vertex 1.39058 -4.27975 0
    endloop
  endfacet
  facet normal 0 0 -1
    outer loop
      vertex -0.470378 -4.47535 0
      vertex -0.679837 -2.09232 0
      vertex 0 -2.2 0
    endloop
  endfacet
  facet normal 0 0 -1
    outer loop
      vertex -2.25 -3.89711 0
      vertex -0.679837 -2.09232 0
      vertex -0.470378 -4.47535 0
    endloop
  endfacet
  facet normal -0 0 -1
    outer loop
      vertex -0.679837 -2.09232 0
      vertex -2.25 -3.89711 0
      vertex -1.29313 -1.77984 0
    endloop
  endfacet
  facet normal 0 0 -1
    outer loop
      vertex -3.64058 -2.64503 0
      vertex -1.29313 -1.77984 0
      vertex -2.25 -3.89711 0
    endloop
  endfacet
  facet normal -0 0 -1
    outer loop
      vertex -1.77984 -1.29313 0
      vertex -3.64058 -2.64503 0
      vertex -2.09232 -0.679837 0
    endloop
  endfacet
  facet normal -0 0 -1
    outer loop
      vertex -1.29313 -1.77984 0
      vertex -3.64058 -2.64503 0
      vertex -1.77984 -1.29313 0
    endloop
  endfacet
  facet normal 0 0 -1
    outer loop
      vertex 2.09232 -0.679837 0
      vertex 4.5 0 0
      vertex 4.11095 -1.83031 0
    endloop
  endfacet
  facet normal 0 0 -1
    outer loop
      vertex 1.77984 -1.29313 0
      vertex 4.11095 -1.83031 0
      vertex 3.01109 -3.34415 0
    endloop
  endfacet
  facet normal 0 0 -1
    outer loop
      vertex 2.09232 0.679837 0
      vertex 4.5 0 0
      vertex 2.2 0 0
    endloop
  endfacet
  facet normal 0 0 -1
    outer loop
      vertex 4.5 0 0
      vertex 2.09232 0.679837 0
      vertex 4.11095 1.83031 0
    endloop
  endfacet
  facet normal 0 0 -1
    outer loop
      vertex 1.77984 1.29313 0
      vertex 4.11095 1.83031 0
      vertex 2.09232 0.679837 0
    endloop
  endfacet
  facet normal 0 0 -1
    outer loop
      vertex 1.29313 1.77984 0
      vertex 4.11095 1.83031 0
      vertex 1.77984 1.29313 0
    endloop
  endfacet
  facet normal 0 0 -1
    outer loop
      vertex 0.679837 2.09232 0
      vertex 4.11095 1.83031 0
      vertex 1.29313 1.77984 0
    endloop
  endfacet
  facet normal 0 0 -1
    outer loop
      vertex 4.11095 1.83031 0
      vertex 0.679837 2.09232 0
      vertex 2 9.244 0
    endloop
  endfacet
  facet normal 0 0 -1
    outer loop
      vertex 0 2.2 0
      vertex 2 9.244 0
      vertex 0.679837 2.09232 0
    endloop
  endfacet
  facet normal -0 0 -1
    outer loop
      vertex 2 9.244 0
      vertex 0 2.2 0
      vertex -2 9.26575 0
    endloop
  endfacet
  facet normal 0 0 -1
    outer loop
      vertex -2 9.26575 0
      vertex 0 2.2 0
      vertex -0.679837 2.09232 0
    endloop
  endfacet
  facet normal 0 0 -1
    outer loop
      vertex -2 9.26575 0
      vertex -0.679837 2.09232 0
      vertex -1.29313 1.77984 0
    endloop
  endfacet
  facet normal 0 0 -1
    outer loop
      vertex -2 9.26575 0
      vertex -1.29313 1.77984 0
      vertex -1.77984 1.29313 0
    endloop
  endfacet
  facet normal 0 0 -1
    outer loop
      vertex 2 9.244 0
      vertex -2 9.26575 0
      vertex 2 11 0
    endloop
  endfacet
  facet normal -0 0 -1
    outer loop
      vertex 2 11 0
      vertex -2 9.26575 0
      vertex -2 11 0
    endloop
  endfacet
  facet normal 0.978147 0.207915 0
    outer loop
      vertex 4.5 0 1.6
      vertex 4.11095 1.83031 0
      vertex 4.11095 1.83031 1.6
    endloop
  endfacet
  facet normal 0.978147 0.207915 0
    outer loop
      vertex 4.11095 1.83031 0
      vertex 4.5 0 1.6
      vertex 4.5 0 0
    endloop
  endfacet
  facet normal 0 0.0153211 0.999883
    outer loop
      vertex -0.432735 4.6 1.59809
      vertex -0.490048 4.6 1.59809
      vertex -0.470378 4.47535 1.6
    endloop
  endfacet
  facet normal -0 0 1
    outer loop
      vertex 2.09232 0.679837 1.6
      vertex 4.5 0 1.6
      vertex 4.11095 1.83031 1.6
    endloop
  endfacet
  facet normal 0 0 1
    outer loop
      vertex 1.77984 1.29313 1.6
      vertex 4.11095 1.83031 1.6
      vertex 3.01109 3.34415 1.6
    endloop
  endfacet
  facet normal 0 0 1
    outer loop
      vertex 4.5 0 1.6
      vertex 2.09232 0.679837 1.6
      vertex 2.2 0 1.6
    endloop
  endfacet
  facet normal 0 0 1
    outer loop
      vertex 4.5 0 1.6
      vertex 2.09232 -0.679837 1.6
      vertex 4.11095 -1.83031 1.6
    endloop
  endfacet
  facet normal 0 0 1
    outer loop
      vertex 2.09232 -0.679837 1.6
      vertex 4.5 0 1.6
      vertex 2.2 0 1.6
    endloop
  endfacet
  facet normal 0 0 1
    outer loop
      vertex 4.11095 1.83031 1.6
      vertex 1.77984 1.29313 1.6
      vertex 2.09232 0.679837 1.6
    endloop
  endfacet
  facet normal 0 0 1
    outer loop
      vertex 1.29313 1.77984 1.6
      vertex 3.01109 3.34415 1.6
      vertex 1.39058 4.27975 1.6
    endloop
  endfacet
  facet normal 0 0 1
    outer loop
      vertex 3.01109 3.34415 1.6
      vertex 1.29313 1.77984 1.6
      vertex 1.77984 1.29313 1.6
    endloop
  endfacet
  facet normal 0 0 1
    outer loop
      vertex 1.39058 4.27975 1.6
      vertex 0.679837 2.09232 1.6
      vertex 1.29313 1.77984 1.6
    endloop
  endfacet
  facet normal 0 0 1
    outer loop
      vertex 1.39058 4.27975 1.6
      vertex 0 2.2 1.6
      vertex 0.679837 2.09232 1.6
    endloop
  endfacet
  facet normal 0 0 1
    outer loop
      vertex -0.470378 4.47535 1.6
      vertex 0 2.2 1.6
      vertex 1.39058 4.27975 1.6
    endloop
  endfacet
  facet normal 0 0 1
    outer loop
      vertex -0.470378 4.47535 1.6
      vertex -0.679837 2.09232 1.6
      vertex 0 2.2 1.6
    endloop
  endfacet
  facet normal -0 0 1
    outer loop
      vertex -2.25 3.89711 1.6
      vertex -0.679837 2.09232 1.6
      vertex -0.470378 4.47535 1.6
    endloop
  endfacet
  facet normal 0 0 1
    outer loop
      vertex -0.679837 2.09232 1.6
      vertex -2.25 3.89711 1.6
      vertex -1.29313 1.77984 1.6
    endloop
  endfacet
  facet normal -0 0 1
    outer loop
      vertex -3.64058 2.64503 1.6
      vertex -1.29313 1.77984 1.6
      vertex -2.25 3.89711 1.6
    endloop
  endfacet
  facet normal 0 0 1
    outer loop
      vertex -1.77984 1.29313 1.6
      vertex -3.64058 2.64503 1.6
      vertex -2.09232 0.679837 1.6
    endloop
  endfacet
  facet normal 0 0 1
    outer loop
      vertex -1.29313 1.77984 1.6
      vertex -3.64058 2.64503 1.6
      vertex -1.77984 1.29313 1.6
    endloop
  endfacet
  facet normal -0 0 1
    outer loop
      vertex 1.77984 -1.29313 1.6
      vertex 4.11095 -1.83031 1.6
      vertex 2.09232 -0.679837 1.6
    endloop
  endfacet
  facet normal 0 0 1
    outer loop
      vertex 4.11095 -1.83031 1.6
      vertex 1.77984 -1.29313 1.6
      vertex 3.01109 -3.34415 1.6
    endloop
  endfacet
  facet normal -0 0 1
    outer loop
      vertex 1.29313 -1.77984 1.6
      vertex 3.01109 -3.34415 1.6
      vertex 1.77984 -1.29313 1.6
    endloop
  endfacet
  facet normal 0 0 1
    outer loop
      vertex 3.01109 -3.34415 1.6
      vertex 1.29313 -1.77984 1.6
      vertex 1.39058 -4.27975 1.6
    endloop
  endfacet
  facet normal -0 0 1
    outer loop
      vertex 0.679837 -2.09232 1.6
      vertex 1.39058 -4.27975 1.6
      vertex 1.29313 -1.77984 1.6
    endloop
  endfacet
  facet normal -0 0 1
    outer loop
      vertex 0 -2.2 1.6
      vertex 1.39058 -4.27975 1.6
      vertex 0.679837 -2.09232 1.6
    endloop
  endfacet
  facet normal 0 0 1
    outer loop
      vertex 0 -2.2 1.6
      vertex -0.470378 -4.47535 1.6
      vertex 1.39058 -4.27975 1.6
    endloop
  endfacet
  facet normal 0 0 1
    outer loop
      vertex -0.679837 -2.09232 1.6
      vertex -0.470378 -4.47535 1.6
      vertex 0 -2.2 1.6
    endloop
  endfacet
  facet normal 0 0 1
    outer loop
      vertex -2.25 -3.89711 1.6
      vertex -0.679837 -2.09232 1.6
      vertex -1.29313 -1.77984 1.6
    endloop
  endfacet
  facet normal 0 0 1
    outer loop
      vertex -3.64058 -2.64503 1.6
      vertex -1.29313 -1.77984 1.6
      vertex -1.77984 -1.29313 1.6
    endloop
  endfacet
  facet normal 0 0 1
    outer loop
      vertex -3.64058 -2.64503 1.6
      vertex -1.77984 -1.29313 1.6
      vertex -2.09232 -0.679837 1.6
    endloop
  endfacet
  facet normal 0 0 1
    outer loop
      vertex -0.679837 -2.09232 1.6
      vertex -2.25 -3.89711 1.6
      vertex -0.470378 -4.47535 1.6
    endloop
  endfacet
  facet normal 0 0 1
    outer loop
      vertex -4.40166 -0.935602 1.6
      vertex -2.09232 -0.679837 1.6
      vertex -2.2 0 1.6
    endloop
  endfacet
  facet normal -0 0 1
    outer loop
      vertex -4.40166 0.935602 1.6
      vertex -2.09232 0.679837 1.6
      vertex -3.64058 2.64503 1.6
    endloop
  endfacet
  facet normal 0 0 1
    outer loop
      vertex -2.09232 0.679837 1.6
      vertex -4.40166 0.935602 1.6
      vertex -2.2 0 1.6
    endloop
  endfacet
  facet normal 0 0 1
    outer loop
      vertex -1.29313 -1.77984 1.6
      vertex -3.64058 -2.64503 1.6
      vertex -2.25 -3.89711 1.6
    endloop
  endfacet
  facet normal 0 0 1
    outer loop
      vertex -4.40166 -0.935602 1.6
      vertex -2.2 0 1.6
      vertex -4.40166 0.935602 1.6
    endloop
  endfacet
  facet normal 0 0 1
    outer loop
      vertex -2.09232 -0.679837 1.6
      vertex -4.40166 -0.935602 1.6
      vertex -3.64058 -2.64503 1.6
    endloop
  endfacet
  facet normal -0.30902 -0.951056 0
    outer loop
      vertex -2.25 -3.89711 0
      vertex -0.470378 -4.47535 1.6
      vertex -2.25 -3.89711 1.6
    endloop
  endfacet
  facet normal -0.30902 -0.951056 -0
    outer loop
      vertex -0.470378 -4.47535 1.6
      vertex -2.25 -3.89711 0
      vertex -0.470378 -4.47535 0
    endloop
  endfacet
  facet normal -0.913547 -0.406734 0
    outer loop
      vertex -3.64058 -2.64503 0
      vertex -4.40166 -0.935602 1.6
      vertex -4.40166 -0.935602 0
    endloop
  endfacet
  facet normal -0.913547 -0.406734 0
    outer loop
      vertex -4.40166 -0.935602 1.6
      vertex -3.64058 -2.64503 0
      vertex -3.64058 -2.64503 1.6
    endloop
  endfacet
  facet normal 0.809019 -0.587782 0
    outer loop
      vertex 3.01109 -3.34415 1.6
      vertex 4.11095 -1.83031 0
      vertex 4.11095 -1.83031 1.6
    endloop
  endfacet
  facet normal 0.809019 -0.587782 0
    outer loop
      vertex 4.11095 -1.83031 0
      vertex 3.01109 -3.34415 1.6
      vertex 3.01109 -3.34415 0
    endloop
  endfacet
  facet normal 0.978147 -0.207915 0
    outer loop
      vertex 4.11095 -1.83031 1.6
      vertex 4.5 0 0
      vertex 4.5 0 1.6
    endloop
  endfacet
  facet normal 0.978147 -0.207915 0
    outer loop
      vertex 4.5 0 0
      vertex 4.11095 -1.83031 1.6
      vertex 4.11095 -1.83031 0
    endloop
  endfacet
  facet normal -0.0631699 0.0281243 0.997606
    outer loop
      vertex -2.81181 6.45 1.54521
      vertex -3.64058 2.64503 1.6
      vertex -2.66573 6.45 1.55446
    endloop
  endfacet
  facet normal -0.0631677 0.0281238 0.997607
    outer loop
      vertex -3.64058 2.64503 1.6
      vertex -2.81181 6.45 1.54521
      vertex -4.40166 0.935602 1.6
    endloop
  endfacet
  facet normal -0.0630795 0.0280969 0.997613
    outer loop
      vertex -2 9.26575 1.51723
      vertex -2.03337 9.15 1.51838
      vertex -2 9.15 1.52049
    endloop
  endfacet
  facet normal -0.669129 -0.743146 0
    outer loop
      vertex -3.64058 -2.64503 0
      vertex -2.25 -3.89711 1.6
      vertex -3.64058 -2.64503 1.6
    endloop
  endfacet
  facet normal -0.669129 -0.743146 -0
    outer loop
      vertex -2.25 -3.89711 1.6
      vertex -3.64058 -2.64503 0
      vertex -2.25 -3.89711 0
    endloop
  endfacet
  facet normal 0.00156393 0.0148675 0.999888
    outer loop
      vertex -0.432735 4.6 1.59809
      vertex 1.39058 4.27975 1.6
      vertex 1.39579 4.6 1.59523
    endloop
  endfacet
  facet normal 0.00156082 0.0148498 0.999889
    outer loop
      vertex 1.39058 4.27975 1.6
      vertex -0.432735 4.6 1.59809
      vertex -0.470378 4.47535 1.6
    endloop
  endfacet
  facet normal -0.00474876 0.0145771 0.999882
    outer loop
      vertex -2 6.26474 1.56667
      vertex -2.25 3.89711 1.6
      vertex -2 4.6 1.59094
    endloop
  endfacet
  facet normal -0.00473469 0.014574 0.999883
    outer loop
      vertex -2 4.6 1.59094
      vertex -0.470378 4.47535 1.6
      vertex -0.490048 4.6 1.59809
    endloop
  endfacet
  facet normal -0.00473484 0.0145722 0.999883
    outer loop
      vertex -0.470378 4.47535 1.6
      vertex -2 4.6 1.59094
      vertex -2.25 3.89711 1.6
    endloop
  endfacet
  facet normal 0.00851507 0.0147384 0.999855
    outer loop
      vertex 2 4.6 1.59009
      vertex 2.39806 6.45 1.55943
      vertex 2 6.45 1.56282
    endloop
  endfacet
  facet normal 0.00850817 0.0147399 0.999855
    outer loop
      vertex 2.39806 6.45 1.55943
      vertex 2 4.6 1.59009
      vertex 3.01109 3.34415 1.6
    endloop
  endfacet
  facet normal 0.00850574 0.0147541 0.999855
    outer loop
      vertex 1.39058 4.27975 1.6
      vertex 2 4.6 1.59009
      vertex 1.39579 4.6 1.59523
    endloop
  endfacet
  facet normal 0.0085117 0.0147427 0.999855
    outer loop
      vertex 2 4.6 1.59009
      vertex 1.39058 4.27975 1.6
      vertex 3.01109 3.34415 1.6
    endloop
  endfacet
  facet normal -0.0139966 0.0155963 0.99978
    outer loop
      vertex -2.66573 6.45 1.55446
      vertex -2 6.26474 1.56667
      vertex -2 6.45 1.56378
    endloop
  endfacet
  facet normal -0.0140085 0.0155535 0.999781
    outer loop
      vertex -2 6.26474 1.56667
      vertex -2.66573 6.45 1.55446
      vertex -2.25 3.89711 1.6
    endloop
  endfacet
  facet normal -0.0140049 0.015554 0.999781
    outer loop
      vertex -2.25 3.89711 1.6
      vertex -2.66573 6.45 1.55446
      vertex -3.64058 2.64503 1.6
    endloop
  endfacet
  facet normal -1 0 0
    outer loop
      vertex -2 6.45 1.56378
      vertex -2 6.26474 1.56667
      vertex -2 6.45 2.9
    endloop
  endfacet
  facet normal -1 0 0
    outer loop
      vertex -2 9.26575 1.51723
      vertex -2 11 0
      vertex -2 9.26575 0
    endloop
  endfacet
  facet normal -1 0 0
    outer loop
      vertex -2 11 0
      vertex -2 9.26575 1.51723
      vertex -2 11 4
    endloop
  endfacet
  facet normal -1 0 0
    outer loop
      vertex -2 9.15 2.9
      vertex -2 9.26575 1.51723
      vertex -2 9.15 1.52049
    endloop
  endfacet
  facet normal -1 0 0
    outer loop
      vertex -2 9.26575 1.51723
      vertex -2 9.15 2.9
      vertex -2 11 4
    endloop
  endfacet
  facet normal -1 0 0
    outer loop
      vertex -2 6.45 2.9
      vertex -2 11 4
      vertex -2 9.15 2.9
    endloop
  endfacet
  facet normal -1 0 0
    outer loop
      vertex -2 4.6 1.59094
      vertex -2 6.45 2.9
      vertex -2 6.26474 1.56667
    endloop
  endfacet
  facet normal -1 0 0
    outer loop
      vertex -2 6.45 2.9
      vertex -2 4.6 4
      vertex -2 11 4
    endloop
  endfacet
  facet normal -1 0 0
    outer loop
      vertex -2 4.6 4
      vertex -2 6.45 2.9
      vertex -2 4.6 1.59094
    endloop
  endfacet
  facet normal -0 0 1
    outer loop
      vertex -2 11 4
      vertex 2 4.6 4
      vertex 2 11 4
    endloop
  endfacet
  facet normal 0 0 1
    outer loop
      vertex 2 4.6 4
      vertex -2 11 4
      vertex -2 4.6 4
    endloop
  endfacet
  facet normal 1 0 0
    outer loop
      vertex 2 11 4
      vertex 2 9.244 1.51915
      vertex 2 11 0
    endloop
  endfacet
  facet normal 1 0 0
    outer loop
      vertex 2 11 4
      vertex 2 9.15 2.9
      vertex 2 9.244 1.51915
    endloop
  endfacet
  facet normal 1 0 0
    outer loop
      vertex 2 11 4
      vertex 2 6.45 2.9
      vertex 2 9.15 2.9
    endloop
  endfacet
  facet normal 1 -0 0
    outer loop
      vertex 2 4.6 4
      vertex 2 6.45 2.9
      vertex 2 11 4
    endloop
  endfacet
  facet normal 1 0 0
    outer loop
      vertex 2 4.6 1.59009
      vertex 2 6.45 2.9
      vertex 2 4.6 4
    endloop
  endfacet
  facet normal 1 0 0
    outer loop
      vertex 2 6.45 2.9
      vertex 2 4.6 1.59009
      vertex 2 6.45 1.56282
    endloop
  endfacet
  facet normal 1 0 0
    outer loop
      vertex 2 11 0
      vertex 2 9.244 1.51915
      vertex 2 9.244 0
    endloop
  endfacet
  facet normal 1 0 0
    outer loop
      vertex 2 9.244 1.51915
      vertex 2 9.15 2.9
      vertex 2 9.15 1.52084
    endloop
  endfacet
  facet normal 0 -1 0
    outer loop
      vertex -0.432735 4.6 1.59809
      vertex -2 4.6 4
      vertex -0.490048 4.6 1.59809
    endloop
  endfacet
  facet normal -0 -1 0
    outer loop
      vertex -0.490048 4.6 1.59809
      vertex -2 4.6 4
      vertex -2 4.6 1.59094
    endloop
  endfacet
  facet normal 0 -1 0
    outer loop
      vertex -2 4.6 4
      vertex -0.432735 4.6 1.59809
      vertex 2 4.6 4
    endloop
  endfacet
  facet normal 0 -1 0
    outer loop
      vertex 1.39579 4.6 1.59523
      vertex 2 4.6 4
      vertex -0.432735 4.6 1.59809
    endloop
  endfacet
  facet normal 0 -1 -0
    outer loop
      vertex 2 4.6 4
      vertex 1.39579 4.6 1.59523
      vertex 2 4.6 1.59009
    endloop
  endfacet
  facet normal -0.987687 -0.156441 0
    outer loop
      vertex 2.2 0 0
      vertex 2.09232 0.679837 1.6
      vertex 2.09232 0.679837 0
    endloop
  endfacet
  facet normal -0.987687 -0.156441 0
    outer loop
      vertex 2.09232 0.679837 1.6
      vertex 2.2 0 0
      vertex 2.2 0 1.6
    endloop
  endfacet
  facet normal 0.987687 -0.156441 0
    outer loop
      vertex -2.2 0 1.6
      vertex -2.09232 0.679837 0
      vertex -2.09232 0.679837 1.6
    endloop
  endfacet
  facet normal 0.987687 -0.156441 0
    outer loop
      vertex -2.09232 0.679837 0
      vertex -2.2 0 1.6
      vertex -2.2 0 0
    endloop
  endfacet
  facet normal 0.156441 -0.987687 0
    outer loop
      vertex -0.679837 2.09232 0
      vertex 0 2.2 1.6
      vertex -0.679837 2.09232 1.6
    endloop
  endfacet
  facet normal 0.156441 -0.987687 0
    outer loop
      vertex 0 2.2 1.6
      vertex -0.679837 2.09232 0
      vertex 0 2.2 0
    endloop
  endfacet
  facet normal -0.156441 0.987687 0
    outer loop
      vertex 0.679837 -2.09232 0
      vertex 0 -2.2 1.6
      vertex 0.679837 -2.09232 1.6
    endloop
  endfacet
  facet normal -0.156441 0.987687 0
    outer loop
      vertex 0 -2.2 1.6
      vertex 0.679837 -2.09232 0
      vertex 0 -2.2 0
    endloop
  endfacet
  facet normal -0.891011 0.453981 0
    outer loop
      vertex 1.77984 -1.29313 0
      vertex 2.09232 -0.679837 1.6
      vertex 2.09232 -0.679837 0
    endloop
  endfacet
  facet normal -0.891011 0.453981 0
    outer loop
      vertex 2.09232 -0.679837 1.6
      vertex 1.77984 -1.29313 0
      vertex 1.77984 -1.29313 1.6
    endloop
  endfacet
  facet normal -0.453981 -0.891011 0
    outer loop
      vertex 0.679837 2.09232 0
      vertex 1.29313 1.77984 1.6
      vertex 0.679837 2.09232 1.6
    endloop
  endfacet
  facet normal -0.453981 -0.891011 -0
    outer loop
      vertex 1.29313 1.77984 1.6
      vertex 0.679837 2.09232 0
      vertex 1.29313 1.77984 0
    endloop
  endfacet
  facet normal -0.891011 -0.453981 0
    outer loop
      vertex 2.09232 0.679837 0
      vertex 1.77984 1.29313 1.6
      vertex 1.77984 1.29313 0
    endloop
  endfacet
  facet normal -0.891011 -0.453981 0
    outer loop
      vertex 1.77984 1.29313 1.6
      vertex 2.09232 0.679837 0
      vertex 2.09232 0.679837 1.6
    endloop
  endfacet
  facet normal -0.156441 -0.987687 0
    outer loop
      vertex 0 2.2 0
      vertex 0.679837 2.09232 1.6
      vertex 0 2.2 1.6
    endloop
  endfacet
  facet normal -0.156441 -0.987687 -0
    outer loop
      vertex 0.679837 2.09232 1.6
      vertex 0 2.2 0
      vertex 0.679837 2.09232 0
    endloop
  endfacet
  facet normal 0.707107 -0.707107 0
    outer loop
      vertex -1.77984 1.29313 1.6
      vertex -1.29313 1.77984 0
      vertex -1.29313 1.77984 1.6
    endloop
  endfacet
  facet normal 0.707107 -0.707107 0
    outer loop
      vertex -1.29313 1.77984 0
      vertex -1.77984 1.29313 1.6
      vertex -1.77984 1.29313 0
    endloop
  endfacet
  facet normal 0.891011 -0.453981 0
    outer loop
      vertex -2.09232 0.679837 1.6
      vertex -1.77984 1.29313 0
      vertex -1.77984 1.29313 1.6
    endloop
  endfacet
  facet normal 0.891011 -0.453981 0
    outer loop
      vertex -1.77984 1.29313 0
      vertex -2.09232 0.679837 1.6
      vertex -2.09232 0.679837 0
    endloop
  endfacet
  facet normal 0.453981 -0.891011 0
    outer loop
      vertex -1.29313 1.77984 0
      vertex -0.679837 2.09232 1.6
      vertex -1.29313 1.77984 1.6
    endloop
  endfacet
  facet normal 0.453981 -0.891011 0
    outer loop
      vertex -0.679837 2.09232 1.6
      vertex -1.29313 1.77984 0
      vertex -0.679837 2.09232 0
    endloop
  endfacet
  facet normal -0.987687 0.156441 0
    outer loop
      vertex 2.09232 -0.679837 0
      vertex 2.2 0 1.6
      vertex 2.2 0 0
    endloop
  endfacet
  facet normal -0.987687 0.156441 0
    outer loop
      vertex 2.2 0 1.6
      vertex 2.09232 -0.679837 0
      vertex 2.09232 -0.679837 1.6
    endloop
  endfacet
  facet normal -0.707107 -0.707107 0
    outer loop
      vertex 1.77984 1.29313 0
      vertex 1.29313 1.77984 1.6
      vertex 1.29313 1.77984 0
    endloop
  endfacet
  facet normal -0.707107 -0.707107 0
    outer loop
      vertex 1.29313 1.77984 1.6
      vertex 1.77984 1.29313 0
      vertex 1.77984 1.29313 1.6
    endloop
  endfacet
  facet normal -0.453981 0.891011 0
    outer loop
      vertex 1.29313 -1.77984 0
      vertex 0.679837 -2.09232 1.6
      vertex 1.29313 -1.77984 1.6
    endloop
  endfacet
  facet normal -0.453981 0.891011 0
    outer loop
      vertex 0.679837 -2.09232 1.6
      vertex 1.29313 -1.77984 0
      vertex 0.679837 -2.09232 0
    endloop
  endfacet
  facet normal -0.707107 0.707107 0
    outer loop
      vertex 1.29313 -1.77984 0
      vertex 1.77984 -1.29313 1.6
      vertex 1.77984 -1.29313 0
    endloop
  endfacet
  facet normal -0.707107 0.707107 0
    outer loop
      vertex 1.77984 -1.29313 1.6
      vertex 1.29313 -1.77984 0
      vertex 1.29313 -1.77984 1.6
    endloop
  endfacet
  facet normal 0.891011 0.453981 0
    outer loop
      vertex -1.77984 -1.29313 1.6
      vertex -2.09232 -0.679837 0
      vertex -2.09232 -0.679837 1.6
    endloop
  endfacet
  facet normal 0.891011 0.453981 0
    outer loop
      vertex -2.09232 -0.679837 0
      vertex -1.77984 -1.29313 1.6
      vertex -1.77984 -1.29313 0
    endloop
  endfacet
  facet normal 0.987687 0.156441 0
    outer loop
      vertex -2.09232 -0.679837 1.6
      vertex -2.2 0 0
      vertex -2.2 0 1.6
    endloop
  endfacet
  facet normal 0.987687 0.156441 0
    outer loop
      vertex -2.2 0 0
      vertex -2.09232 -0.679837 1.6
      vertex -2.09232 -0.679837 0
    endloop
  endfacet
  facet normal 0.156441 0.987687 -0
    outer loop
      vertex 0 -2.2 0
      vertex -0.679837 -2.09232 1.6
      vertex 0 -2.2 1.6
    endloop
  endfacet
  facet normal 0.156441 0.987687 0
    outer loop
      vertex -0.679837 -2.09232 1.6
      vertex 0 -2.2 0
      vertex -0.679837 -2.09232 0
    endloop
  endfacet
  facet normal 0.707107 0.707107 0
    outer loop
      vertex -1.29313 -1.77984 1.6
      vertex -1.77984 -1.29313 0
      vertex -1.77984 -1.29313 1.6
    endloop
  endfacet
  facet normal 0.707107 0.707107 0
    outer loop
      vertex -1.77984 -1.29313 0
      vertex -1.29313 -1.77984 1.6
      vertex -1.29313 -1.77984 0
    endloop
  endfacet
  facet normal 0.453981 0.891011 -0
    outer loop
      vertex -0.679837 -2.09232 0
      vertex -1.29313 -1.77984 1.6
      vertex -0.679837 -2.09232 1.6
    endloop
  endfacet
  facet normal 0.453981 0.891011 0
    outer loop
      vertex -1.29313 -1.77984 1.6
      vertex -0.679837 -2.09232 0
      vertex -1.29313 -1.77984 0
    endloop
  endfacet
  facet normal 0 0 -1
    outer loop
      vertex -2 6.45 2.9
      vertex 2 9.15 2.9
      vertex 2 6.45 2.9
    endloop
  endfacet
  facet normal -0 0 -1
    outer loop
      vertex 2 9.15 2.9
      vertex -2 6.45 2.9
      vertex -2 9.15 2.9
    endloop
  endfacet
  facet normal 0 -1 0
    outer loop
      vertex -2 9.15 2.9
      vertex 2 9.15 1.52084
      vertex 2 9.15 2.9
    endloop
  endfacet
  facet normal 0 -1 0
    outer loop
      vertex -2 9.15 1.52049
      vertex 2 9.15 1.52084
      vertex -2 9.15 2.9
    endloop
  endfacet
  facet normal 0 -1 0
    outer loop
      vertex 2.02676 9.15 1.1
      vertex 2 9.15 1.52084
      vertex -2 9.15 1.52049
    endloop
  endfacet
  facet normal 0 -1 0
    outer loop
      vertex -2.03337 9.15 1.1
      vertex -2 9.15 1.52049
      vertex -2.03337 9.15 1.51838
    endloop
  endfacet
  facet normal 0 -1 0
    outer loop
      vertex 2.02676 9.15 1.1
      vertex -2 9.15 1.52049
      vertex -2.03337 9.15 1.1
    endloop
  endfacet
  facet normal 0 -1 0
    outer loop
      vertex 2 9.15 1.52084
      vertex 2.02676 9.15 1.1
      vertex 2.02676 9.15 1.52018
    endloop
  endfacet
  facet normal -0 0 1
    outer loop
      vertex -2.03337 9.15 1.1
      vertex 2.79556 6.45 1.1
      vertex 2.02676 9.15 1.1
    endloop
  endfacet
  facet normal 0 0 1
    outer loop
      vertex 2.79556 6.45 1.1
      vertex -2.03337 9.15 1.1
      vertex -2.81181 6.45 1.1
    endloop
  endfacet
  facet normal 0 1 0
    outer loop
      vertex 2 6.45 2.9
      vertex -2 6.45 1.56378
      vertex -2 6.45 2.9
    endloop
  endfacet
  facet normal 0 1 -0
    outer loop
      vertex 2 6.45 1.56282
      vertex -2 6.45 1.56378
      vertex 2 6.45 2.9
    endloop
  endfacet
  facet normal 0 1 0
    outer loop
      vertex 2.79556 6.45 1.1
      vertex 2 6.45 1.56282
      vertex 2.39806 6.45 1.55943
    endloop
  endfacet
  facet normal 0 1 0
    outer loop
      vertex 2 6.45 1.56282
      vertex 2.79556 6.45 1.1
      vertex -2 6.45 1.56378
    endloop
  endfacet
  facet normal 0 1 -0
    outer loop
      vertex 2.79556 6.45 1.1
      vertex 2.39806 6.45 1.55943
      vertex 2.79556 6.45 1.54962
    endloop
  endfacet
  facet normal 0 1 0
    outer loop
      vertex -2 6.45 1.56378
      vertex 2.79556 6.45 1.1
      vertex -2.81181 6.45 1.1
    endloop
  endfacet
  facet normal 0 1 0
    outer loop
      vertex -2 6.45 1.56378
      vertex -2.81181 6.45 1.1
      vertex -2.66573 6.45 1.55446
    endloop
  endfacet
  facet normal 0 1 0
    outer loop
      vertex -2.66573 6.45 1.55446
      vertex -2.81181 6.45 1.1
      vertex -2.81181 6.45 1.54521
    endloop
  endfacet
endsolid OpenSCAD_Model
