solid OpenSCAD_Model
  facet normal -1 0 0
    outer loop
      vertex -14.9938 -4.5 4
      vertex -14.9938 -1.5 21.5919
      vertex -14.9938 -0.5 4
    endloop
  endfacet
  facet normal -1 0 0
    outer loop
      vertex -14.9938 -1.5 21.5919
      vertex -14.9938 -4.5 4
      vertex -14.9938 -19.0919 4
    endloop
  endfacet
  facet normal -1 0 0
    outer loop
      vertex -14.9938 -0.5 4
      vertex -14.9938 1.5 0
      vertex -14.9938 -0.5 0
    endloop
  endfacet
  facet normal -1 0 0
    outer loop
      vertex -14.9938 -1.5 21.5919
      vertex -14.9938 1.5 0
      vertex -14.9938 -0.5 4
    endloop
  endfacet
  facet normal -1 0 0
    outer loop
      vertex -14.9938 1.5 0
      vertex -14.9938 -1.5 21.5919
      vertex -14.9938 1.5 50
    endloop
  endfacet
  facet normal -1 -0 0
    outer loop
      vertex -14.9938 1.5 50
      vertex -14.9938 -1.5 21.5919
      vertex -14.9938 -1.5 50
    endloop
  endfacet
  facet normal 0 -1 0
    outer loop
      vertex -14.5 -1.99384 21.7964
      vertex 14.5 -1.99384 50
      vertex -14.5 -1.99384 50
    endloop
  endfacet
  facet normal 0 -1 -0
    outer loop
      vertex 14.5 -1.99384 50
      vertex -14.5 -1.99384 21.7964
      vertex 14.5 -1.99384 21.7964
    endloop
  endfacet
  facet normal -0.156438 0.987688 0
    outer loop
      vertex -14.5 1.99384 0
      vertex -14.6526 1.96967 50
      vertex -14.5 1.99384 50
    endloop
  endfacet
  facet normal -0.156438 0.987688 0
    outer loop
      vertex -14.6526 1.96967 50
      vertex -14.5 1.99384 0
      vertex -14.6526 1.96967 0
    endloop
  endfacet
  facet normal 0 1 -0
    outer loop
      vertex -12.6 1.99384 0
      vertex -14.5 1.99384 50
      vertex -12.6 1.99384 50
    endloop
  endfacet
  facet normal 0 1 0
    outer loop
      vertex -14.5 1.99384 50
      vertex -12.6 1.99384 0
      vertex -14.5 1.99384 0
    endloop
  endfacet
  facet normal 0 1 -0
    outer loop
      vertex 14.5 1.99384 0
      vertex 12.6 1.99384 50
      vertex 14.5 1.99384 50
    endloop
  endfacet
  facet normal 0 1 0
    outer loop
      vertex 12.6 1.99384 50
      vertex 14.5 1.99384 0
      vertex 12.6 1.99384 0
    endloop
  endfacet
  facet normal 1 -0 0
    outer loop
      vertex 14.9938 -1.5 21.5919
      vertex 14.9938 1.5 0
      vertex 14.9938 1.5 50
    endloop
  endfacet
  facet normal 1 0 0
    outer loop
      vertex 14.9938 -1.5 21.5919
      vertex 14.9938 1.5 50
      vertex 14.9938 -1.5 50
    endloop
  endfacet
  facet normal 1 0 0
    outer loop
      vertex 14.9938 1.5 0
      vertex 14.9938 -1.5 21.5919
      vertex 14.9938 -0.5 4
    endloop
  endfacet
  facet normal 1 0 0
    outer loop
      vertex 14.9938 -1.5 21.5919
      vertex 14.9938 -4.5 4
      vertex 14.9938 -0.5 4
    endloop
  endfacet
  facet normal 1 0 -0
    outer loop
      vertex 14.9938 -4.5 4
      vertex 14.9938 -1.5 21.5919
      vertex 14.9938 -19.0919 4
    endloop
  endfacet
  facet normal 1 0 0
    outer loop
      vertex 14.9938 1.5 0
      vertex 14.9938 -0.5 4
      vertex 14.9938 -0.5 0
    endloop
  endfacet
  facet normal -0.987759 -0.155986 0
    outer loop
      vertex -14.9697 -1.65261 21.6551
      vertex -14.9938 -1.5 50
      vertex -14.9938 -1.5 21.5919
    endloop
  endfacet
  facet normal -0.987759 -0.155986 0
    outer loop
      vertex -14.9938 -1.5 50
      vertex -14.9697 -1.65261 21.6551
      vertex -14.9697 -1.65261 50
    endloop
  endfacet
  facet normal -0.890853 0.454292 0
    outer loop
      vertex -14.9697 1.65261 0
      vertex -14.8995 1.79027 50
      vertex -14.8995 1.79027 0
    endloop
  endfacet
  facet normal -0.890853 0.454292 0
    outer loop
      vertex -14.8995 1.79027 50
      vertex -14.9697 1.65261 0
      vertex -14.9697 1.65261 50
    endloop
  endfacet
  facet normal 0.890853 0.454292 0
    outer loop
      vertex 14.9697 1.65261 50
      vertex 14.8995 1.79027 0
      vertex 14.8995 1.79027 50
    endloop
  endfacet
  facet normal 0.890853 0.454292 0
    outer loop
      vertex 14.8995 1.79027 0
      vertex 14.9697 1.65261 50
      vertex 14.9697 1.65261 0
    endloop
  endfacet
  facet normal 0.156438 0.987688 -0
    outer loop
      vertex 14.6526 1.96967 0
      vertex 14.5 1.99384 50
      vertex 14.6526 1.96967 50
    endloop
  endfacet
  facet normal 0.156438 0.987688 0
    outer loop
      vertex 14.5 1.99384 50
      vertex 14.6526 1.96967 0
      vertex 14.5 1.99384 0
    endloop
  endfacet
  facet normal -0.987759 0.155986 0
    outer loop
      vertex -14.9938 1.5 0
      vertex -14.9697 1.65261 50
      vertex -14.9697 1.65261 0
    endloop
  endfacet
  facet normal -0.987759 0.155986 0
    outer loop
      vertex -14.9697 1.65261 50
      vertex -14.9938 1.5 0
      vertex -14.9938 1.5 50
    endloop
  endfacet
  facet normal -0.707301 -0.706913 0
    outer loop
      vertex -14.7903 -1.89953 21.7574
      vertex -14.8995 -1.79027 50
      vertex -14.8995 -1.79027 21.7121
    endloop
  endfacet
  facet normal -0.707301 -0.706913 0
    outer loop
      vertex -14.8995 -1.79027 50
      vertex -14.7903 -1.89953 21.7574
      vertex -14.7903 -1.89953 50
    endloop
  endfacet
  facet normal -0.890853 -0.454292 0
    outer loop
      vertex -14.8995 -1.79027 21.7121
      vertex -14.9697 -1.65261 50
      vertex -14.9697 -1.65261 21.6551
    endloop
  endfacet
  facet normal -0.890853 -0.454292 0
    outer loop
      vertex -14.9697 -1.65261 50
      vertex -14.8995 -1.79027 21.7121
      vertex -14.8995 -1.79027 50
    endloop
  endfacet
  facet normal 0.156438 -0.987688 0
    outer loop
      vertex 14.5 -1.99384 21.7964
      vertex 14.6526 -1.96967 50
      vertex 14.5 -1.99384 50
    endloop
  endfacet
  facet normal 0.156438 -0.987688 0
    outer loop
      vertex 14.6526 -1.96967 50
      vertex 14.5 -1.99384 21.7964
      vertex 14.6526 -1.96967 21.7864
    endloop
  endfacet
  facet normal 0.987759 0.155986 0
    outer loop
      vertex 14.9938 1.5 50
      vertex 14.9697 1.65261 0
      vertex 14.9697 1.65261 50
    endloop
  endfacet
  facet normal 0.987759 0.155986 0
    outer loop
      vertex 14.9697 1.65261 0
      vertex 14.9938 1.5 50
      vertex 14.9938 1.5 0
    endloop
  endfacet
  facet normal 0.707301 0.706913 0
    outer loop
      vertex 14.8995 1.79027 50
      vertex 14.7903 1.89953 0
      vertex 14.7903 1.89953 50
    endloop
  endfacet
  facet normal 0.707301 0.706913 0
    outer loop
      vertex 14.7903 1.89953 0
      vertex 14.8995 1.79027 50
      vertex 14.8995 1.79027 0
    endloop
  endfacet
  facet normal -0.453879 0.891063 0
    outer loop
      vertex -14.6526 1.96967 0
      vertex -14.7903 1.89953 50
      vertex -14.6526 1.96967 50
    endloop
  endfacet
  facet normal -0.453879 0.891063 0
    outer loop
      vertex -14.7903 1.89953 50
      vertex -14.6526 1.96967 0
      vertex -14.7903 1.89953 0
    endloop
  endfacet
  facet normal -0.156438 -0.987688 0
    outer loop
      vertex -14.6526 -1.96967 50
      vertex -14.5 -1.99384 21.7964
      vertex -14.5 -1.99384 50
    endloop
  endfacet
  facet normal -0.156438 -0.987688 0
    outer loop
      vertex -14.5 -1.99384 21.7964
      vertex -14.6526 -1.96967 50
      vertex -14.6526 -1.96967 21.7864
    endloop
  endfacet
  facet normal 0.890853 -0.454292 0
    outer loop
      vertex 14.8995 -1.79027 21.7121
      vertex 14.9697 -1.65261 50
      vertex 14.8995 -1.79027 50
    endloop
  endfacet
  facet normal 0.890853 -0.454292 0
    outer loop
      vertex 14.9697 -1.65261 50
      vertex 14.8995 -1.79027 21.7121
      vertex 14.9697 -1.65261 21.6551
    endloop
  endfacet
  facet normal 0.987759 -0.155986 0
    outer loop
      vertex 14.9697 -1.65261 21.6551
      vertex 14.9938 -1.5 50
      vertex 14.9697 -1.65261 50
    endloop
  endfacet
  facet normal 0.987759 -0.155986 0
    outer loop
      vertex 14.9938 -1.5 50
      vertex 14.9697 -1.65261 21.6551
      vertex 14.9938 -1.5 21.5919
    endloop
  endfacet
  facet normal 0.707301 -0.706913 0
    outer loop
      vertex 14.7903 -1.89953 21.7574
      vertex 14.8995 -1.79027 50
      vertex 14.7903 -1.89953 50
    endloop
  endfacet
  facet normal 0.707301 -0.706913 0
    outer loop
      vertex 14.8995 -1.79027 50
      vertex 14.7903 -1.89953 21.7574
      vertex 14.8995 -1.79027 21.7121
    endloop
  endfacet
  facet normal 0.453879 0.891063 -0
    outer loop
      vertex 14.7903 1.89953 0
      vertex 14.6526 1.96967 50
      vertex 14.7903 1.89953 50
    endloop
  endfacet
  facet normal 0.453879 0.891063 0
    outer loop
      vertex 14.6526 1.96967 50
      vertex 14.7903 1.89953 0
      vertex 14.6526 1.96967 0
    endloop
  endfacet
  facet normal -0.707301 0.706913 0
    outer loop
      vertex -14.8995 1.79027 0
      vertex -14.7903 1.89953 50
      vertex -14.7903 1.89953 0
    endloop
  endfacet
  facet normal -0.707301 0.706913 0
    outer loop
      vertex -14.7903 1.89953 50
      vertex -14.8995 1.79027 0
      vertex -14.8995 1.79027 50
    endloop
  endfacet
  facet normal 0.453879 -0.891063 0
    outer loop
      vertex 14.6526 -1.96967 21.7864
      vertex 14.7903 -1.89953 50
      vertex 14.6526 -1.96967 50
    endloop
  endfacet
  facet normal 0.453879 -0.891063 0
    outer loop
      vertex 14.7903 -1.89953 50
      vertex 14.6526 -1.96967 21.7864
      vertex 14.7903 -1.89953 21.7574
    endloop
  endfacet
  facet normal -0.453879 -0.891063 0
    outer loop
      vertex -14.7903 -1.89953 50
      vertex -14.6526 -1.96967 21.7864
      vertex -14.6526 -1.96967 50
    endloop
  endfacet
  facet normal -0.453879 -0.891063 0
    outer loop
      vertex -14.6526 -1.96967 21.7864
      vertex -14.7903 -1.89953 50
      vertex -14.7903 -1.89953 21.7574
    endloop
  endfacet
  facet normal 0 0 1
    outer loop
      vertex -12.6 1.99384 50
      vertex -13.7 0.7 50
      vertex -12.6 1.04375 50
    endloop
  endfacet
  facet normal -0 0 1
    outer loop
      vertex -14.9938 1.5 50
      vertex -13.7 0.7 50
      vertex -14.5 1.99384 50
    endloop
  endfacet
  facet normal -0 0 1
    outer loop
      vertex -14.5 1.99384 50
      vertex -13.7 0.7 50
      vertex -12.6 1.99384 50
    endloop
  endfacet
  facet normal 0 0 1
    outer loop
      vertex 14.5 1.99384 50
      vertex 14.9938 1.5 50
      vertex 14.9697 1.65261 50
    endloop
  endfacet
  facet normal 0 0 1
    outer loop
      vertex 14.9938 1.5 50
      vertex 13.7 0.7 50
      vertex 14.9938 -1.5 50
    endloop
  endfacet
  facet normal 0 0 1
    outer loop
      vertex 14.5 1.99384 50
      vertex 14.9697 1.65261 50
      vertex 14.8995 1.79027 50
    endloop
  endfacet
  facet normal -0 0 1
    outer loop
      vertex 13.7 -0.7 50
      vertex 14.9938 -1.5 50
      vertex 13.7 0.7 50
    endloop
  endfacet
  facet normal 0 0 1
    outer loop
      vertex 14.5 1.99384 50
      vertex 14.8995 1.79027 50
      vertex 14.7903 1.89953 50
    endloop
  endfacet
  facet normal 0 -0 1
    outer loop
      vertex 14.5 -1.99384 50
      vertex 14.9938 -1.5 50
      vertex 13.7 -0.7 50
    endloop
  endfacet
  facet normal 0 0 1
    outer loop
      vertex 14.5 1.99384 50
      vertex 14.7903 1.89953 50
      vertex 14.6526 1.96967 50
    endloop
  endfacet
  facet normal 0 0 1
    outer loop
      vertex 14.9938 -1.5 50
      vertex 14.5 -1.99384 50
      vertex 14.9697 -1.65261 50
    endloop
  endfacet
  facet normal 0 0 1
    outer loop
      vertex 14.9938 1.5 50
      vertex 14.5 1.99384 50
      vertex 13.7 0.7 50
    endloop
  endfacet
  facet normal 0 0 1
    outer loop
      vertex 14.9697 -1.65261 50
      vertex 14.5 -1.99384 50
      vertex 14.8995 -1.79027 50
    endloop
  endfacet
  facet normal 0 0 1
    outer loop
      vertex 14.8995 -1.79027 50
      vertex 14.5 -1.99384 50
      vertex 14.7903 -1.89953 50
    endloop
  endfacet
  facet normal -0 0 1
    outer loop
      vertex 12.6 1.99384 50
      vertex 13.7 0.7 50
      vertex 14.5 1.99384 50
    endloop
  endfacet
  facet normal 0 0 1
    outer loop
      vertex 13.7 0.7 50
      vertex 12.6 1.99384 50
      vertex 12.6 1.04375 50
    endloop
  endfacet
  facet normal 0 0 1
    outer loop
      vertex 14.7903 -1.89953 50
      vertex 14.5 -1.99384 50
      vertex 14.6526 -1.96967 50
    endloop
  endfacet
  facet normal -0 0 1
    outer loop
      vertex -13.7 -0.7 50
      vertex 14.5 -1.99384 50
      vertex 13.7 -0.7 50
    endloop
  endfacet
  facet normal 0 0 1
    outer loop
      vertex -13.7 -0.7 50
      vertex -14.5 -1.99384 50
      vertex 14.5 -1.99384 50
    endloop
  endfacet
  facet normal 0 0 1
    outer loop
      vertex -13.7 0.7 50
      vertex -14.9938 1.5 50
      vertex -13.7 -0.7 50
    endloop
  endfacet
  facet normal 0 0 1
    outer loop
      vertex -14.9938 1.5 50
      vertex -14.5 1.99384 50
      vertex -14.6526 1.96967 50
    endloop
  endfacet
  facet normal 0 0 1
    outer loop
      vertex -14.9938 -1.5 50
      vertex -13.7 -0.7 50
      vertex -14.9938 1.5 50
    endloop
  endfacet
  facet normal 0 0 1
    outer loop
      vertex -14.9938 1.5 50
      vertex -14.6526 1.96967 50
      vertex -14.7903 1.89953 50
    endloop
  endfacet
  facet normal 0 0 1
    outer loop
      vertex -13.7 -0.7 50
      vertex -14.9938 -1.5 50
      vertex -14.5 -1.99384 50
    endloop
  endfacet
  facet normal 0 0 1
    outer loop
      vertex -14.9938 1.5 50
      vertex -14.7903 1.89953 50
      vertex -14.8995 1.79027 50
    endloop
  endfacet
  facet normal 0 0 1
    outer loop
      vertex -14.5 -1.99384 50
      vertex -14.9938 -1.5 50
      vertex -14.6526 -1.96967 50
    endloop
  endfacet
  facet normal 0 0 1
    outer loop
      vertex -14.9938 1.5 50
      vertex -14.8995 1.79027 50
      vertex -14.9697 1.65261 50
    endloop
  endfacet
  facet normal 0 0 1
    outer loop
      vertex -14.6526 -1.96967 50
      vertex -14.9938 -1.5 50
      vertex -14.7903 -1.89953 50
    endloop
  endfacet
  facet normal 0 0 1
    outer loop
      vertex -14.7903 -1.89953 50
      vertex -14.9938 -1.5 50
      vertex -14.8995 -1.79027 50
    endloop
  endfacet
  facet normal 0 0 1
    outer loop
      vertex -14.8995 -1.79027 50
      vertex -14.9938 -1.5 50
      vertex -14.9697 -1.65261 50
    endloop
  endfacet
  facet normal 0 0 -1
    outer loop
      vertex -14.9938 -0.5 0
      vertex -13.7 0.7 0
      vertex -13.7 -0.5 0
    endloop
  endfacet
  facet normal 0 0 -1
    outer loop
      vertex -13.7 0.7 0
      vertex -14.9938 1.5 0
      vertex -14.5 1.99384 0
    endloop
  endfacet
  facet normal 0 0 -1
    outer loop
      vertex -14.5 1.99384 0
      vertex -14.9938 1.5 0
      vertex -14.6526 1.96967 0
    endloop
  endfacet
  facet normal 0 0 -1
    outer loop
      vertex -14.6526 1.96967 0
      vertex -14.9938 1.5 0
      vertex -14.7903 1.89953 0
    endloop
  endfacet
  facet normal 0 0 -1
    outer loop
      vertex -14.7903 1.89953 0
      vertex -14.9938 1.5 0
      vertex -14.8995 1.79027 0
    endloop
  endfacet
  facet normal -0 0 -1
    outer loop
      vertex -13.7 0.7 0
      vertex -14.9938 -0.5 0
      vertex -14.9938 1.5 0
    endloop
  endfacet
  facet normal 0 0 -1
    outer loop
      vertex -14.8995 1.79027 0
      vertex -14.9938 1.5 0
      vertex -14.9697 1.65261 0
    endloop
  endfacet
  facet normal 0 0 -1
    outer loop
      vertex -13.7 0.7 0
      vertex -12.6 1.99384 0
      vertex -12.6 1.04375 0
    endloop
  endfacet
  facet normal -0 0 -1
    outer loop
      vertex -12.6 1.99384 0
      vertex -13.7 0.7 0
      vertex -14.5 1.99384 0
    endloop
  endfacet
  facet normal 0 0 -1
    outer loop
      vertex 13.7 0.7 0
      vertex 14.9938 1.5 0
      vertex 14.9938 -0.5 0
    endloop
  endfacet
  facet normal 0 -0 -1
    outer loop
      vertex 14.5 1.99384 0
      vertex 14.9938 1.5 0
      vertex 13.7 0.7 0
    endloop
  endfacet
  facet normal 0 0 -1
    outer loop
      vertex 14.9938 1.5 0
      vertex 14.5 1.99384 0
      vertex 14.9697 1.65261 0
    endloop
  endfacet
  facet normal 0 0 -1
    outer loop
      vertex 14.9697 1.65261 0
      vertex 14.5 1.99384 0
      vertex 14.8995 1.79027 0
    endloop
  endfacet
  facet normal 0 0 -1
    outer loop
      vertex 14.8995 1.79027 0
      vertex 14.5 1.99384 0
      vertex 14.7903 1.89953 0
    endloop
  endfacet
  facet normal 0 0 -1
    outer loop
      vertex 13.7 0.7 0
      vertex 14.9938 -0.5 0
      vertex 13.7 -0.5 0
    endloop
  endfacet
  facet normal 0 0 -1
    outer loop
      vertex 14.7903 1.89953 0
      vertex 14.5 1.99384 0
      vertex 14.6526 1.96967 0
    endloop
  endfacet
  facet normal 0 0 -1
    outer loop
      vertex 12.6 1.99384 0
      vertex 13.7 0.7 0
      vertex 12.6 1.04375 0
    endloop
  endfacet
  facet normal 0 0 -1
    outer loop
      vertex 13.7 0.7 0
      vertex 12.6 1.99384 0
      vertex 14.5 1.99384 0
    endloop
  endfacet
  facet normal 1 -0 0
    outer loop
      vertex -13.7 -0.7 21.2605
      vertex -13.7 0.7 0
      vertex -13.7 0.7 50
    endloop
  endfacet
  facet normal 1 0 0
    outer loop
      vertex -13.7 -0.7 21.2605
      vertex -13.7 0.7 50
      vertex -13.7 -0.7 50
    endloop
  endfacet
  facet normal 1 0 0
    outer loop
      vertex -13.7 0.7 0
      vertex -13.7 -0.7 21.2605
      vertex -13.7 -0.5 4
    endloop
  endfacet
  facet normal 1 0 0
    outer loop
      vertex -13.7 -0.7 21.2605
      vertex -13.7 -4.5 4
      vertex -13.7 -0.5 4
    endloop
  endfacet
  facet normal 1 0 -0
    outer loop
      vertex -13.7 -4.5 4
      vertex -13.7 -0.7 21.2605
      vertex -13.7 -17.9605 4
    endloop
  endfacet
  facet normal 1 0 0
    outer loop
      vertex -13.7 0.7 0
      vertex -13.7 -0.5 4
      vertex -13.7 -0.5 0
    endloop
  endfacet
  facet normal -1 0 0
    outer loop
      vertex 13.7 -4.5 4
      vertex 13.7 -0.7 21.2605
      vertex 13.7 -0.5 4
    endloop
  endfacet
  facet normal -1 0 0
    outer loop
      vertex 13.7 -0.7 21.2605
      vertex 13.7 -4.5 4
      vertex 13.7 -17.9605 4
    endloop
  endfacet
  facet normal -1 0 0
    outer loop
      vertex 13.7 -0.5 4
      vertex 13.7 0.7 0
      vertex 13.7 -0.5 0
    endloop
  endfacet
  facet normal -1 0 0
    outer loop
      vertex 13.7 -0.7 21.2605
      vertex 13.7 0.7 0
      vertex 13.7 -0.5 4
    endloop
  endfacet
  facet normal -1 0 0
    outer loop
      vertex 13.7 0.7 0
      vertex 13.7 -0.7 21.2605
      vertex 13.7 0.7 50
    endloop
  endfacet
  facet normal -1 -0 0
    outer loop
      vertex 13.7 0.7 50
      vertex 13.7 -0.7 21.2605
      vertex 13.7 -0.7 50
    endloop
  endfacet
  facet normal 0 1 -0
    outer loop
      vertex 13.7 -0.7 21.2605
      vertex -13.7 -0.7 50
      vertex 13.7 -0.7 50
    endloop
  endfacet
  facet normal 0 1 0
    outer loop
      vertex -13.7 -0.7 50
      vertex 13.7 -0.7 21.2605
      vertex -13.7 -0.7 21.2605
    endloop
  endfacet
  facet normal 0.298275 -0.95448 0
    outer loop
      vertex -13.7 0.7 0
      vertex -12.6 1.04375 50
      vertex -13.7 0.7 50
    endloop
  endfacet
  facet normal 0.298275 -0.95448 0
    outer loop
      vertex -12.6 1.04375 50
      vertex -13.7 0.7 0
      vertex -12.6 1.04375 0
    endloop
  endfacet
  facet normal -0.298275 -0.95448 0
    outer loop
      vertex 12.6 1.04375 0
      vertex 13.7 0.7 50
      vertex 12.6 1.04375 50
    endloop
  endfacet
  facet normal -0.298275 -0.95448 -0
    outer loop
      vertex 13.7 0.7 50
      vertex 12.6 1.04375 0
      vertex 13.7 0.7 0
    endloop
  endfacet
  facet normal 1 -0 0
    outer loop
      vertex -12.6 1.04375 50
      vertex -12.6 1.99384 0
      vertex -12.6 1.99384 50
    endloop
  endfacet
  facet normal 1 0 0
    outer loop
      vertex -12.6 1.99384 0
      vertex -12.6 1.04375 50
      vertex -12.6 1.04375 0
    endloop
  endfacet
  facet normal -1 0 0
    outer loop
      vertex 12.6 1.04375 0
      vertex 12.6 1.99384 50
      vertex 12.6 1.99384 0
    endloop
  endfacet
  facet normal -1 -0 0
    outer loop
      vertex 12.6 1.99384 50
      vertex 12.6 1.04375 0
      vertex 12.6 1.04375 50
    endloop
  endfacet
  facet normal 0 -0.707106 0.707108
    outer loop
      vertex -14.5 -19.7903 4
      vertex 14.5 -1.99384 21.7964
      vertex -14.5 -1.99384 21.7964
    endloop
  endfacet
  facet normal 0 -0.707106 0.707108
    outer loop
      vertex 14.5 -1.99384 21.7964
      vertex -14.5 -19.7903 4
      vertex 14.5 -19.7903 4
    endloop
  endfacet
  facet normal 0.707399 -0.499793 0.499794
    outer loop
      vertex 14.7903 -1.89953 21.7574
      vertex 14.8995 -19.5024 4
      vertex 14.8995 -1.79027 21.7121
    endloop
  endfacet
  facet normal 0.707262 -0.49989 0.499889
    outer loop
      vertex 14.8995 -19.5024 4
      vertex 14.7903 -1.89953 21.7574
      vertex 14.7903 -19.6569 4
    endloop
  endfacet
  facet normal 0.987758 -0.110305 0.110305
    outer loop
      vertex 14.9697 -1.65261 21.6551
      vertex 14.9938 -19.0919 4
      vertex 14.9938 -1.5 21.5919
    endloop
  endfacet
  facet normal 0.987757 -0.11031 0.11031
    outer loop
      vertex 14.9938 -19.0919 4
      vertex 14.9697 -1.65261 21.6551
      vertex 14.9697 -19.3077 4
    endloop
  endfacet
  facet normal 0.890833 -0.32126 0.32126
    outer loop
      vertex 14.8995 -1.79027 21.7121
      vertex 14.9697 -19.3077 4
      vertex 14.9697 -1.65261 21.6551
    endloop
  endfacet
  facet normal 0.890871 -0.321208 0.321208
    outer loop
      vertex 14.9697 -19.3077 4
      vertex 14.8995 -1.79027 21.7121
      vertex 14.8995 -19.5024 4
    endloop
  endfacet
  facet normal -0.15652 -0.698391 0.698392
    outer loop
      vertex -14.5 -19.7903 4
      vertex -14.6526 -1.96967 21.7864
      vertex -14.6526 -19.7561 4
    endloop
  endfacet
  facet normal -0.156386 -0.698405 0.698408
    outer loop
      vertex -14.6526 -1.96967 21.7864
      vertex -14.5 -19.7903 4
      vertex -14.5 -1.99384 21.7964
    endloop
  endfacet
  facet normal 0.156386 -0.698405 0.698408
    outer loop
      vertex 14.5 -19.7903 4
      vertex 14.6526 -1.96967 21.7864
      vertex 14.5 -1.99384 21.7964
    endloop
  endfacet
  facet normal 0.15652 -0.698391 0.698392
    outer loop
      vertex 14.6526 -1.96967 21.7864
      vertex 14.5 -19.7903 4
      vertex 14.6526 -19.7561 4
    endloop
  endfacet
  facet normal -0.890833 -0.32126 0.32126
    outer loop
      vertex -14.9697 -19.3077 4
      vertex -14.8995 -1.79027 21.7121
      vertex -14.9697 -1.65261 21.6551
    endloop
  endfacet
  facet normal -0.890871 -0.321208 0.321208
    outer loop
      vertex -14.8995 -1.79027 21.7121
      vertex -14.9697 -19.3077 4
      vertex -14.8995 -19.5024 4
    endloop
  endfacet
  facet normal -0.987758 -0.110305 0.110305
    outer loop
      vertex -14.9938 -19.0919 4
      vertex -14.9697 -1.65261 21.6551
      vertex -14.9938 -1.5 21.5919
    endloop
  endfacet
  facet normal -0.987757 -0.11031 0.11031
    outer loop
      vertex -14.9697 -1.65261 21.6551
      vertex -14.9938 -19.0919 4
      vertex -14.9697 -19.3077 4
    endloop
  endfacet
  facet normal -0.707399 -0.499793 0.499794
    outer loop
      vertex -14.8995 -19.5024 4
      vertex -14.7903 -1.89953 21.7574
      vertex -14.8995 -1.79027 21.7121
    endloop
  endfacet
  facet normal -0.707262 -0.49989 0.499889
    outer loop
      vertex -14.7903 -1.89953 21.7574
      vertex -14.8995 -19.5024 4
      vertex -14.7903 -19.6569 4
    endloop
  endfacet
  facet normal 0.453687 -0.630147 0.630146
    outer loop
      vertex 14.6526 -1.96967 21.7864
      vertex 14.7903 -19.6569 4
      vertex 14.7903 -1.89953 21.7574
    endloop
  endfacet
  facet normal 0.453905 -0.630067 0.630068
    outer loop
      vertex 14.7903 -19.6569 4
      vertex 14.6526 -1.96967 21.7864
      vertex 14.6526 -19.7561 4
    endloop
  endfacet
  facet normal -0.453687 -0.630147 0.630146
    outer loop
      vertex -14.7903 -19.6569 4
      vertex -14.6526 -1.96967 21.7864
      vertex -14.7903 -1.89953 21.7574
    endloop
  endfacet
  facet normal -0.453905 -0.630067 0.630068
    outer loop
      vertex -14.6526 -1.96967 21.7864
      vertex -14.7903 -19.6569 4
      vertex -14.6526 -19.7561 4
    endloop
  endfacet
  facet normal 0 0 -1
    outer loop
      vertex 14.5 -19.7903 4
      vertex -13.7 -17.9605 4
      vertex 13.7 -17.9605 4
    endloop
  endfacet
  facet normal 0 0 -1
    outer loop
      vertex -14.5 -19.7903 4
      vertex -13.7 -17.9605 4
      vertex 14.5 -19.7903 4
    endloop
  endfacet
  facet normal 0 0 -1
    outer loop
      vertex -14.9938 -19.0919 4
      vertex -13.7 -17.9605 4
      vertex -14.5 -19.7903 4
    endloop
  endfacet
  facet normal 0 0 -1
    outer loop
      vertex -14.7903 -19.6569 4
      vertex -14.5 -19.7903 4
      vertex -14.6526 -19.7561 4
    endloop
  endfacet
  facet normal 0 0 -1
    outer loop
      vertex -14.5 -19.7903 4
      vertex -14.7903 -19.6569 4
      vertex -14.8995 -19.5024 4
    endloop
  endfacet
  facet normal 0 0 -1
    outer loop
      vertex -14.5 -19.7903 4
      vertex -14.8995 -19.5024 4
      vertex -14.9697 -19.3077 4
    endloop
  endfacet
  facet normal 0 0 -1
    outer loop
      vertex -14.5 -19.7903 4
      vertex -14.9697 -19.3077 4
      vertex -14.9938 -19.0919 4
    endloop
  endfacet
  facet normal 0 0 -1
    outer loop
      vertex -14.9938 -4.5 4
      vertex -13.7 -17.9605 4
      vertex -14.9938 -19.0919 4
    endloop
  endfacet
  facet normal 0 0 -1
    outer loop
      vertex -13.7 -17.9605 4
      vertex -14.9938 -4.5 4
      vertex -13.7 -4.5 4
    endloop
  endfacet
  facet normal 0 0 -1
    outer loop
      vertex 14.5 -19.7903 4
      vertex 14.9938 -19.0919 4
      vertex 14.9697 -19.3077 4
    endloop
  endfacet
  facet normal 0 0 -1
    outer loop
      vertex 14.5 -19.7903 4
      vertex 14.9697 -19.3077 4
      vertex 14.8995 -19.5024 4
    endloop
  endfacet
  facet normal 0 0 -1
    outer loop
      vertex 14.5 -19.7903 4
      vertex 14.8995 -19.5024 4
      vertex 14.7903 -19.6569 4
    endloop
  endfacet
  facet normal 0 0 -1
    outer loop
      vertex 14.5 -19.7903 4
      vertex 14.7903 -19.6569 4
      vertex 14.6526 -19.7561 4
    endloop
  endfacet
  facet normal -0 0 -1
    outer loop
      vertex 14.9938 -19.0919 4
      vertex 14.5 -19.7903 4
      vertex 13.7 -17.9605 4
    endloop
  endfacet
  facet normal 0 0 -1
    outer loop
      vertex 14.9938 -19.0919 4
      vertex 13.7 -17.9605 4
      vertex 14.9938 -4.5 4
    endloop
  endfacet
  facet normal -0 0 -1
    outer loop
      vertex 14.9938 -4.5 4
      vertex 13.7 -17.9605 4
      vertex 13.7 -4.5 4
    endloop
  endfacet
  facet normal 0 0 -1
    outer loop
      vertex -14.9938 -4.5 4
      vertex -13.7 -0.5 4
      vertex -13.7 -4.5 4
    endloop
  endfacet
  facet normal -0 0 -1
    outer loop
      vertex -13.7 -0.5 4
      vertex -14.9938 -4.5 4
      vertex -14.9938 -0.5 4
    endloop
  endfacet
  facet normal 0 0 -1
    outer loop
      vertex 13.7 -4.5 4
      vertex 14.9938 -0.5 4
      vertex 14.9938 -4.5 4
    endloop
  endfacet
  facet normal -0 0 -1
    outer loop
      vertex 14.9938 -0.5 4
      vertex 13.7 -4.5 4
      vertex 13.7 -0.5 4
    endloop
  endfacet
  facet normal 0 0.707107 -0.707107
    outer loop
      vertex 13.7 -17.9605 4
      vertex -13.7 -0.7 21.2605
      vertex 13.7 -0.7 21.2605
    endloop
  endfacet
  facet normal 0 0.707107 -0.707107
    outer loop
      vertex -13.7 -0.7 21.2605
      vertex 13.7 -17.9605 4
      vertex -13.7 -17.9605 4
    endloop
  endfacet
  facet normal 0 -1 0
    outer loop
      vertex -14.9938 -0.5 0
      vertex -13.7 -0.5 4
      vertex -14.9938 -0.5 4
    endloop
  endfacet
  facet normal 0 -1 -0
    outer loop
      vertex -13.7 -0.5 4
      vertex -14.9938 -0.5 0
      vertex -13.7 -0.5 0
    endloop
  endfacet
  facet normal 0 -1 0
    outer loop
      vertex 13.7 -0.5 0
      vertex 14.9938 -0.5 4
      vertex 13.7 -0.5 4
    endloop
  endfacet
  facet normal 0 -1 -0
    outer loop
      vertex 14.9938 -0.5 4
      vertex 13.7 -0.5 0
      vertex 14.9938 -0.5 0
    endloop
  endfacet
  facet normal -1 0 0
    outer loop
      vertex -14.9938 -19.25 0
      vertex -14.9938 -1 3.8
      vertex -14.9938 -1 0
    endloop
  endfacet
  facet normal -1 -0 0
    outer loop
      vertex -14.9938 -1 3.8
      vertex -14.9938 -19.25 0
      vertex -14.9938 -19.25 3.8
    endloop
  endfacet
  facet normal -0.454187 -0.890906 0
    outer loop
      vertex -14.7903 -19.6495 0
      vertex -14.6526 -19.7197 3.8
      vertex -14.7903 -19.6495 3.8
    endloop
  endfacet
  facet normal -0.454187 -0.890906 -0
    outer loop
      vertex -14.6526 -19.7197 3.8
      vertex -14.7903 -19.6495 0
      vertex -14.6526 -19.7197 0
    endloop
  endfacet
  facet normal 0 -1 0
    outer loop
      vertex -14.5 -19.7438 0
      vertex 14.5 -19.7438 3.8
      vertex -14.5 -19.7438 3.8
    endloop
  endfacet
  facet normal 0 -1 -0
    outer loop
      vertex 14.5 -19.7438 3.8
      vertex -14.5 -19.7438 0
      vertex 14.5 -19.7438 0
    endloop
  endfacet
  facet normal -0.987758 -0.155996 0
    outer loop
      vertex -14.9697 -19.4026 0
      vertex -14.9938 -19.25 3.8
      vertex -14.9938 -19.25 0
    endloop
  endfacet
  facet normal -0.987758 -0.155996 0
    outer loop
      vertex -14.9938 -19.25 3.8
      vertex -14.9697 -19.4026 0
      vertex -14.9697 -19.4026 3.8
    endloop
  endfacet
  facet normal -0.707107 -0.707107 0
    outer loop
      vertex -14.8995 -19.5403 0
      vertex -14.7903 -19.6495 3.8
      vertex -14.8995 -19.5403 3.8
    endloop
  endfacet
  facet normal -0.707107 -0.707107 -0
    outer loop
      vertex -14.7903 -19.6495 3.8
      vertex -14.8995 -19.5403 0
      vertex -14.7903 -19.6495 0
    endloop
  endfacet
  facet normal 1 -0 0
    outer loop
      vertex 14.9938 -19.25 3.8
      vertex 14.9938 -1 0
      vertex 14.9938 -1 3.8
    endloop
  endfacet
  facet normal 1 0 0
    outer loop
      vertex 14.9938 -1 0
      vertex 14.9938 -19.25 3.8
      vertex 14.9938 -19.25 0
    endloop
  endfacet
  facet normal 0.707107 -0.707107 0
    outer loop
      vertex 14.7903 -19.6495 0
      vertex 14.8995 -19.5403 3.8
      vertex 14.7903 -19.6495 3.8
    endloop
  endfacet
  facet normal 0.707107 -0.707107 0
    outer loop
      vertex 14.8995 -19.5403 3.8
      vertex 14.7903 -19.6495 0
      vertex 14.8995 -19.5403 0
    endloop
  endfacet
  facet normal 0.890906 -0.454187 0
    outer loop
      vertex 14.8995 -19.5403 3.8
      vertex 14.9697 -19.4026 0
      vertex 14.9697 -19.4026 3.8
    endloop
  endfacet
  facet normal 0.890906 -0.454187 0
    outer loop
      vertex 14.9697 -19.4026 0
      vertex 14.8995 -19.5403 3.8
      vertex 14.8995 -19.5403 0
    endloop
  endfacet
  facet normal -0.890906 -0.454187 0
    outer loop
      vertex -14.8995 -19.5403 0
      vertex -14.9697 -19.4026 3.8
      vertex -14.9697 -19.4026 0
    endloop
  endfacet
  facet normal -0.890906 -0.454187 0
    outer loop
      vertex -14.9697 -19.4026 3.8
      vertex -14.8995 -19.5403 0
      vertex -14.8995 -19.5403 3.8
    endloop
  endfacet
  facet normal -0.155996 -0.987758 0
    outer loop
      vertex -14.6526 -19.7197 0
      vertex -14.5 -19.7438 3.8
      vertex -14.6526 -19.7197 3.8
    endloop
  endfacet
  facet normal -0.155996 -0.987758 -0
    outer loop
      vertex -14.5 -19.7438 3.8
      vertex -14.6526 -19.7197 0
      vertex -14.5 -19.7438 0
    endloop
  endfacet
  facet normal 0.987758 -0.155996 0
    outer loop
      vertex 14.9697 -19.4026 3.8
      vertex 14.9938 -19.25 0
      vertex 14.9938 -19.25 3.8
    endloop
  endfacet
  facet normal 0.987758 -0.155996 0
    outer loop
      vertex 14.9938 -19.25 0
      vertex 14.9697 -19.4026 3.8
      vertex 14.9697 -19.4026 0
    endloop
  endfacet
  facet normal 0.454187 -0.890906 0
    outer loop
      vertex 14.6526 -19.7197 0
      vertex 14.7903 -19.6495 3.8
      vertex 14.6526 -19.7197 3.8
    endloop
  endfacet
  facet normal 0.454187 -0.890906 0
    outer loop
      vertex 14.7903 -19.6495 3.8
      vertex 14.6526 -19.7197 0
      vertex 14.7903 -19.6495 0
    endloop
  endfacet
  facet normal 0.155996 -0.987758 0
    outer loop
      vertex 14.5 -19.7438 0
      vertex 14.6526 -19.7197 3.8
      vertex 14.5 -19.7438 3.8
    endloop
  endfacet
  facet normal 0.155996 -0.987758 0
    outer loop
      vertex 14.6526 -19.7197 3.8
      vertex 14.5 -19.7438 0
      vertex 14.6526 -19.7197 0
    endloop
  endfacet
  facet normal -0 0 1
    outer loop
      vertex -14.9938 -1 3.8
      vertex -13.6994 -18.2 3.8
      vertex -13.6994 -1 3.8
    endloop
  endfacet
  facet normal 0 0 1
    outer loop
      vertex -13.6994 -18.2 3.8
      vertex -14.9938 -19.25 3.8
      vertex -14.5 -19.7438 3.8
    endloop
  endfacet
  facet normal 0 0 1
    outer loop
      vertex -14.5 -19.7438 3.8
      vertex -14.9938 -19.25 3.8
      vertex -14.6526 -19.7197 3.8
    endloop
  endfacet
  facet normal 0 0 1
    outer loop
      vertex -14.6526 -19.7197 3.8
      vertex -14.9938 -19.25 3.8
      vertex -14.7903 -19.6495 3.8
    endloop
  endfacet
  facet normal 0 0 1
    outer loop
      vertex -14.7903 -19.6495 3.8
      vertex -14.9938 -19.25 3.8
      vertex -14.8995 -19.5403 3.8
    endloop
  endfacet
  facet normal 0 0 1
    outer loop
      vertex -13.6994 -18.2 3.8
      vertex -14.9938 -1 3.8
      vertex -14.9938 -19.25 3.8
    endloop
  endfacet
  facet normal 0 0 1
    outer loop
      vertex -14.8995 -19.5403 3.8
      vertex -14.9938 -19.25 3.8
      vertex -14.9697 -19.4026 3.8
    endloop
  endfacet
  facet normal -0 0 1
    outer loop
      vertex 13.6994 -18.2 3.8
      vertex 14.9938 -19.25 3.8
      vertex 14.9938 -1 3.8
    endloop
  endfacet
  facet normal -0 0 1
    outer loop
      vertex 13.697 -18.2153 3.8
      vertex 14.9938 -19.25 3.8
      vertex 13.6994 -18.2 3.8
    endloop
  endfacet
  facet normal -0 0 1
    outer loop
      vertex 13.69 -18.229 3.8
      vertex 14.9938 -19.25 3.8
      vertex 13.697 -18.2153 3.8
    endloop
  endfacet
  facet normal -0 0 1
    outer loop
      vertex 13.679 -18.24 3.8
      vertex 14.9938 -19.25 3.8
      vertex 13.69 -18.229 3.8
    endloop
  endfacet
  facet normal 0 -0 1
    outer loop
      vertex 14.5 -19.7438 3.8
      vertex 14.9938 -19.25 3.8
      vertex 13.679 -18.24 3.8
    endloop
  endfacet
  facet normal 0 0 1
    outer loop
      vertex 13.6994 -18.2 3.8
      vertex 14.9938 -1 3.8
      vertex 13.6994 -1 3.8
    endloop
  endfacet
  facet normal 0 0 1
    outer loop
      vertex 14.9938 -19.25 3.8
      vertex 14.5 -19.7438 3.8
      vertex 14.9697 -19.4026 3.8
    endloop
  endfacet
  facet normal 0 0 1
    outer loop
      vertex 14.8995 -19.5403 3.8
      vertex 14.5 -19.7438 3.8
      vertex 14.7903 -19.6495 3.8
    endloop
  endfacet
  facet normal 0 0 1
    outer loop
      vertex 14.7903 -19.6495 3.8
      vertex 14.5 -19.7438 3.8
      vertex 14.6526 -19.7197 3.8
    endloop
  endfacet
  facet normal 0 0 1
    outer loop
      vertex 14.9697 -19.4026 3.8
      vertex 14.5 -19.7438 3.8
      vertex 14.8995 -19.5403 3.8
    endloop
  endfacet
  facet normal -0 0 1
    outer loop
      vertex 13.6653 -18.247 3.8
      vertex 14.5 -19.7438 3.8
      vertex 13.679 -18.24 3.8
    endloop
  endfacet
  facet normal -0 0 1
    outer loop
      vertex 13.65 -18.2494 3.8
      vertex 14.5 -19.7438 3.8
      vertex 13.6653 -18.247 3.8
    endloop
  endfacet
  facet normal -0 0 1
    outer loop
      vertex -13.65 -18.2494 3.8
      vertex 14.5 -19.7438 3.8
      vertex 13.65 -18.2494 3.8
    endloop
  endfacet
  facet normal 0 0 1
    outer loop
      vertex -13.65 -18.2494 3.8
      vertex -14.5 -19.7438 3.8
      vertex 14.5 -19.7438 3.8
    endloop
  endfacet
  facet normal 0 0 1
    outer loop
      vertex -13.6653 -18.247 3.8
      vertex -14.5 -19.7438 3.8
      vertex -13.65 -18.2494 3.8
    endloop
  endfacet
  facet normal 0 0 1
    outer loop
      vertex -13.679 -18.24 3.8
      vertex -14.5 -19.7438 3.8
      vertex -13.6653 -18.247 3.8
    endloop
  endfacet
  facet normal 0 0 1
    outer loop
      vertex -13.69 -18.229 3.8
      vertex -14.5 -19.7438 3.8
      vertex -13.679 -18.24 3.8
    endloop
  endfacet
  facet normal 0 0 1
    outer loop
      vertex -13.697 -18.2153 3.8
      vertex -14.5 -19.7438 3.8
      vertex -13.69 -18.229 3.8
    endloop
  endfacet
  facet normal 0 0 1
    outer loop
      vertex -14.5 -19.7438 3.8
      vertex -13.697 -18.2153 3.8
      vertex -13.6994 -18.2 3.8
    endloop
  endfacet
  facet normal 1 -0 0
    outer loop
      vertex -13.6994 -18.2 3.8
      vertex -13.6994 -1 0
      vertex -13.6994 -1 3.8
    endloop
  endfacet
  facet normal 1 0 0
    outer loop
      vertex -13.6994 -1 0
      vertex -13.6994 -18.2 3.8
      vertex -13.6994 -18.2 0
    endloop
  endfacet
  facet normal 0.707107 0.707107 0
    outer loop
      vertex -13.679 -18.24 3.8
      vertex -13.69 -18.229 0
      vertex -13.69 -18.229 3.8
    endloop
  endfacet
  facet normal 0.707107 0.707107 0
    outer loop
      vertex -13.69 -18.229 0
      vertex -13.679 -18.24 3.8
      vertex -13.679 -18.24 0
    endloop
  endfacet
  facet normal -0.707107 0.707107 0
    outer loop
      vertex 13.679 -18.24 0
      vertex 13.69 -18.229 3.8
      vertex 13.69 -18.229 0
    endloop
  endfacet
  facet normal -0.707107 0.707107 0
    outer loop
      vertex 13.69 -18.229 3.8
      vertex 13.679 -18.24 0
      vertex 13.679 -18.24 3.8
    endloop
  endfacet
  facet normal 0.454997 0.890493 -0
    outer loop
      vertex -13.6653 -18.247 0
      vertex -13.679 -18.24 3.8
      vertex -13.6653 -18.247 3.8
    endloop
  endfacet
  facet normal 0.454997 0.890493 0
    outer loop
      vertex -13.679 -18.24 3.8
      vertex -13.6653 -18.247 0
      vertex -13.679 -18.24 0
    endloop
  endfacet
  facet normal -1 0 0
    outer loop
      vertex 13.6994 -18.2 0
      vertex 13.6994 -1 3.8
      vertex 13.6994 -1 0
    endloop
  endfacet
  facet normal -1 -0 0
    outer loop
      vertex 13.6994 -1 3.8
      vertex 13.6994 -18.2 0
      vertex 13.6994 -18.2 3.8
    endloop
  endfacet
  facet normal 0.890493 0.454997 0
    outer loop
      vertex -13.69 -18.229 3.8
      vertex -13.697 -18.2153 0
      vertex -13.697 -18.2153 3.8
    endloop
  endfacet
  facet normal 0.890493 0.454997 0
    outer loop
      vertex -13.697 -18.2153 0
      vertex -13.69 -18.229 3.8
      vertex -13.69 -18.229 0
    endloop
  endfacet
  facet normal 0.98792 0.154968 0
    outer loop
      vertex -13.697 -18.2153 3.8
      vertex -13.6994 -18.2 0
      vertex -13.6994 -18.2 3.8
    endloop
  endfacet
  facet normal 0.98792 0.154968 0
    outer loop
      vertex -13.6994 -18.2 0
      vertex -13.697 -18.2153 3.8
      vertex -13.697 -18.2153 0
    endloop
  endfacet
  facet normal 0.154968 0.98792 -0
    outer loop
      vertex -13.65 -18.2494 0
      vertex -13.6653 -18.247 3.8
      vertex -13.65 -18.2494 3.8
    endloop
  endfacet
  facet normal 0.154968 0.98792 0
    outer loop
      vertex -13.6653 -18.247 3.8
      vertex -13.65 -18.2494 0
      vertex -13.6653 -18.247 0
    endloop
  endfacet
  facet normal -0.154968 0.98792 0
    outer loop
      vertex 13.6653 -18.247 0
      vertex 13.65 -18.2494 3.8
      vertex 13.6653 -18.247 3.8
    endloop
  endfacet
  facet normal -0.154968 0.98792 0
    outer loop
      vertex 13.65 -18.2494 3.8
      vertex 13.6653 -18.247 0
      vertex 13.65 -18.2494 0
    endloop
  endfacet
  facet normal 0 1 -0
    outer loop
      vertex 13.65 -18.2494 0
      vertex -13.65 -18.2494 3.8
      vertex 13.65 -18.2494 3.8
    endloop
  endfacet
  facet normal 0 1 0
    outer loop
      vertex -13.65 -18.2494 3.8
      vertex 13.65 -18.2494 0
      vertex -13.65 -18.2494 0
    endloop
  endfacet
  facet normal -0.890493 0.454997 0
    outer loop
      vertex 13.69 -18.229 0
      vertex 13.697 -18.2153 3.8
      vertex 13.697 -18.2153 0
    endloop
  endfacet
  facet normal -0.890493 0.454997 0
    outer loop
      vertex 13.697 -18.2153 3.8
      vertex 13.69 -18.229 0
      vertex 13.69 -18.229 3.8
    endloop
  endfacet
  facet normal -0.454997 0.890493 0
    outer loop
      vertex 13.679 -18.24 0
      vertex 13.6653 -18.247 3.8
      vertex 13.679 -18.24 3.8
    endloop
  endfacet
  facet normal -0.454997 0.890493 0
    outer loop
      vertex 13.6653 -18.247 3.8
      vertex 13.679 -18.24 0
      vertex 13.6653 -18.247 0
    endloop
  endfacet
  facet normal -0.98792 0.154968 0
    outer loop
      vertex 13.697 -18.2153 0
      vertex 13.6994 -18.2 3.8
      vertex 13.6994 -18.2 0
    endloop
  endfacet
  facet normal -0.98792 0.154968 0
    outer loop
      vertex 13.6994 -18.2 3.8
      vertex 13.697 -18.2153 0
      vertex 13.697 -18.2153 3.8
    endloop
  endfacet
  facet normal 0 1 -0
    outer loop
      vertex -13.6994 -1 0
      vertex -14.9938 -1 3.8
      vertex -13.6994 -1 3.8
    endloop
  endfacet
  facet normal 0 1 0
    outer loop
      vertex -14.9938 -1 3.8
      vertex -13.6994 -1 0
      vertex -14.9938 -1 0
    endloop
  endfacet
  facet normal 0 1 -0
    outer loop
      vertex 14.9938 -1 0
      vertex 13.6994 -1 3.8
      vertex 14.9938 -1 3.8
    endloop
  endfacet
  facet normal 0 1 0
    outer loop
      vertex 13.6994 -1 3.8
      vertex 14.9938 -1 0
      vertex 13.6994 -1 0
    endloop
  endfacet
  facet normal 0 0 -1
    outer loop
      vertex 14.9938 -19.25 0
      vertex 13.697 -18.2153 0
      vertex 13.6994 -18.2 0
    endloop
  endfacet
  facet normal 0 0 -1
    outer loop
      vertex 14.9938 -19.25 0
      vertex 13.69 -18.229 0
      vertex 13.697 -18.2153 0
    endloop
  endfacet
  facet normal 0 0 -1
    outer loop
      vertex 14.9938 -19.25 0
      vertex 13.679 -18.24 0
      vertex 13.69 -18.229 0
    endloop
  endfacet
  facet normal 0 0 -1
    outer loop
      vertex 14.5 -19.7438 0
      vertex 13.6653 -18.247 0
      vertex 13.679 -18.24 0
    endloop
  endfacet
  facet normal 0 0 -1
    outer loop
      vertex 14.5 -19.7438 0
      vertex 13.65 -18.2494 0
      vertex 13.6653 -18.247 0
    endloop
  endfacet
  facet normal 0 0 -1
    outer loop
      vertex 14.5 -19.7438 0
      vertex -13.65 -18.2494 0
      vertex 13.65 -18.2494 0
    endloop
  endfacet
  facet normal 0 0 -1
    outer loop
      vertex -14.5 -19.7438 0
      vertex -13.65 -18.2494 0
      vertex 14.5 -19.7438 0
    endloop
  endfacet
  facet normal 0 0 -1
    outer loop
      vertex -14.5 -19.7438 0
      vertex -13.6653 -18.247 0
      vertex -13.65 -18.2494 0
    endloop
  endfacet
  facet normal 0 0 -1
    outer loop
      vertex -14.5 -19.7438 0
      vertex -13.679 -18.24 0
      vertex -13.6653 -18.247 0
    endloop
  endfacet
  facet normal 0 0 -1
    outer loop
      vertex -14.9938 -19.25 0
      vertex -13.679 -18.24 0
      vertex -14.5 -19.7438 0
    endloop
  endfacet
  facet normal -0 0 -1
    outer loop
      vertex -13.679 -18.24 0
      vertex -14.9938 -19.25 0
      vertex -13.69 -18.229 0
    endloop
  endfacet
  facet normal -0 0 -1
    outer loop
      vertex -13.69 -18.229 0
      vertex -14.9938 -19.25 0
      vertex -13.697 -18.2153 0
    endloop
  endfacet
  facet normal -0 0 -1
    outer loop
      vertex -13.697 -18.2153 0
      vertex -14.9938 -19.25 0
      vertex -13.6994 -18.2 0
    endloop
  endfacet
  facet normal 0 0 -1
    outer loop
      vertex -14.9938 -19.25 0
      vertex -14.5 -19.7438 0
      vertex -14.6526 -19.7197 0
    endloop
  endfacet
  facet normal 0 0 -1
    outer loop
      vertex -14.9938 -19.25 0
      vertex -14.6526 -19.7197 0
      vertex -14.7903 -19.6495 0
    endloop
  endfacet
  facet normal 0 0 -1
    outer loop
      vertex -14.9938 -19.25 0
      vertex -14.7903 -19.6495 0
      vertex -14.8995 -19.5403 0
    endloop
  endfacet
  facet normal 0 0 -1
    outer loop
      vertex -14.9938 -19.25 0
      vertex -14.8995 -19.5403 0
      vertex -14.9697 -19.4026 0
    endloop
  endfacet
  facet normal 0 0 -1
    outer loop
      vertex -14.9938 -1 0
      vertex -13.6994 -18.2 0
      vertex -14.9938 -19.25 0
    endloop
  endfacet
  facet normal 0 0 -1
    outer loop
      vertex -13.6994 -18.2 0
      vertex -14.9938 -1 0
      vertex -13.6994 -1 0
    endloop
  endfacet
  facet normal 0 0 -1
    outer loop
      vertex 14.5 -19.7438 0
      vertex 14.9938 -19.25 0
      vertex 14.9697 -19.4026 0
    endloop
  endfacet
  facet normal 0 0 -1
    outer loop
      vertex 14.5 -19.7438 0
      vertex 14.9697 -19.4026 0
      vertex 14.8995 -19.5403 0
    endloop
  endfacet
  facet normal 0 0 -1
    outer loop
      vertex 14.5 -19.7438 0
      vertex 14.8995 -19.5403 0
      vertex 14.7903 -19.6495 0
    endloop
  endfacet
  facet normal 0 0 -1
    outer loop
      vertex 14.5 -19.7438 0
      vertex 14.7903 -19.6495 0
      vertex 14.6526 -19.7197 0
    endloop
  endfacet
  facet normal 0 0 -1
    outer loop
      vertex 13.679 -18.24 0
      vertex 14.9938 -19.25 0
      vertex 14.5 -19.7438 0
    endloop
  endfacet
  facet normal 0 0 -1
    outer loop
      vertex 14.9938 -19.25 0
      vertex 13.6994 -18.2 0
      vertex 14.9938 -1 0
    endloop
  endfacet
  facet normal -0 0 -1
    outer loop
      vertex 14.9938 -1 0
      vertex 13.6994 -18.2 0
      vertex 13.6994 -1 0
    endloop
  endfacet
endsolid OpenSCAD_Model
