solid OpenSCAD_Model
  facet normal 0 -1 0
    outer loop
      vertex -14.5 -6.49384 130
      vertex 0 -6.49384 114
      vertex 14.5 -6.49384 130
    endloop
  endfacet
  facet normal 0 -1 0
    outer loop
      vertex -14.5 -6.49384 130
      vertex -0.312868 -6.49384 113.975
      vertex 0 -6.49384 114
    endloop
  endfacet
  facet normal 0 -1 0
    outer loop
      vertex -14.5 -6.49384 130
      vertex -0.618033 -6.49384 113.902
      vertex -0.312868 -6.49384 113.975
    endloop
  endfacet
  facet normal 0 -1 0
    outer loop
      vertex -14.5 -6.49384 130
      vertex -0.907981 -6.49384 113.782
      vertex -0.618033 -6.49384 113.902
    endloop
  endfacet
  facet normal 0 -1 0
    outer loop
      vertex -14.5 -6.49384 130
      vertex -1.17557 -6.49384 113.618
      vertex -0.907981 -6.49384 113.782
    endloop
  endfacet
  facet normal 0 -1 0
    outer loop
      vertex -14.5 -6.49384 130
      vertex -1.41421 -6.49384 113.414
      vertex -1.17557 -6.49384 113.618
    endloop
  endfacet
  facet normal 0 -1 0
    outer loop
      vertex -14.5 -6.49384 130
      vertex -1.61803 -6.49384 113.176
      vertex -1.41421 -6.49384 113.414
    endloop
  endfacet
  facet normal 0 -1 0
    outer loop
      vertex -14.5 -6.49384 130
      vertex -1.78201 -6.49384 112.908
      vertex -1.61803 -6.49384 113.176
    endloop
  endfacet
  facet normal 0 -1 0
    outer loop
      vertex -14.5 -6.49384 130
      vertex -1.90211 -6.49384 112.618
      vertex -1.78201 -6.49384 112.908
    endloop
  endfacet
  facet normal 0 -1 0
    outer loop
      vertex -14.5 -6.49384 130
      vertex -1.97538 -6.49384 112.313
      vertex -1.90211 -6.49384 112.618
    endloop
  endfacet
  facet normal 0 -1 0
    outer loop
      vertex -14.5 -6.49384 130
      vertex -2 -6.49384 112
      vertex -1.97538 -6.49384 112.313
    endloop
  endfacet
  facet normal 0 -1 0
    outer loop
      vertex -14.5 -6.49384 130
      vertex -2 -6.49384 108
      vertex -2 -6.49384 112
    endloop
  endfacet
  facet normal 0 -1 0
    outer loop
      vertex -14.5 -6.49384 130
      vertex -1.97538 -6.49384 107.687
      vertex -2 -6.49384 108
    endloop
  endfacet
  facet normal 0 -1 0
    outer loop
      vertex -14.5 -6.49384 130
      vertex -1.90211 -6.49384 107.382
      vertex -1.97538 -6.49384 107.687
    endloop
  endfacet
  facet normal 0 -1 0
    outer loop
      vertex -14.5 -6.49384 130
      vertex -1.78201 -6.49384 107.092
      vertex -1.90211 -6.49384 107.382
    endloop
  endfacet
  facet normal 0 -1 0
    outer loop
      vertex -0.312868 -6.49384 106.025
      vertex 0 -6.49384 14
      vertex 0 -6.49384 106
    endloop
  endfacet
  facet normal 0 -1 0
    outer loop
      vertex -0.312868 -6.49384 13.9754
      vertex -0.312868 -6.49384 106.025
      vertex -0.618033 -6.49384 106.098
    endloop
  endfacet
  facet normal 0 -1 0
    outer loop
      vertex -0.618033 -6.49384 13.9021
      vertex -0.618033 -6.49384 106.098
      vertex -0.907981 -6.49384 106.218
    endloop
  endfacet
  facet normal 0 -1 0
    outer loop
      vertex -0.907981 -6.49384 13.782
      vertex -0.907981 -6.49384 106.218
      vertex -1.17557 -6.49384 106.382
    endloop
  endfacet
  facet normal 0 -1 0
    outer loop
      vertex -1.17557 -6.49384 13.618
      vertex -1.17557 -6.49384 106.382
      vertex -1.41421 -6.49384 106.586
    endloop
  endfacet
  facet normal 0 -1 0
    outer loop
      vertex -1.41421 -6.49384 13.4142
      vertex -1.41421 -6.49384 106.586
      vertex -1.61803 -6.49384 106.824
    endloop
  endfacet
  facet normal 0 -1 0
    outer loop
      vertex -14.5 -6.49384 0
      vertex -1.61803 -6.49384 106.824
      vertex -1.78201 -6.49384 107.092
    endloop
  endfacet
  facet normal 0 -1 0
    outer loop
      vertex -14.5 -6.49384 0
      vertex -1.78201 -6.49384 107.092
      vertex -14.5 -6.49384 130
    endloop
  endfacet
  facet normal 0 -1 0
    outer loop
      vertex -0.312868 -6.49384 106.025
      vertex -0.312868 -6.49384 13.9754
      vertex 0 -6.49384 14
    endloop
  endfacet
  facet normal 0 -1 0
    outer loop
      vertex -0.618033 -6.49384 106.098
      vertex -0.618033 -6.49384 13.9021
      vertex -0.312868 -6.49384 13.9754
    endloop
  endfacet
  facet normal 0 -1 0
    outer loop
      vertex -0.907981 -6.49384 106.218
      vertex -0.907981 -6.49384 13.782
      vertex -0.618033 -6.49384 13.9021
    endloop
  endfacet
  facet normal 0 -1 0
    outer loop
      vertex -1.17557 -6.49384 106.382
      vertex -1.17557 -6.49384 13.618
      vertex -0.907981 -6.49384 13.782
    endloop
  endfacet
  facet normal 0 -1 0
    outer loop
      vertex -1.41421 -6.49384 106.586
      vertex -1.41421 -6.49384 13.4142
      vertex -1.17557 -6.49384 13.618
    endloop
  endfacet
  facet normal 0 -1 0
    outer loop
      vertex -1.61803 -6.49384 106.824
      vertex -1.61803 -6.49384 13.1756
      vertex -1.41421 -6.49384 13.4142
    endloop
  endfacet
  facet normal 0 -1 -0
    outer loop
      vertex -1.61803 -6.49384 106.824
      vertex -14.5 -6.49384 0
      vertex -1.61803 -6.49384 13.1756
    endloop
  endfacet
  facet normal 0 -1 0
    outer loop
      vertex -1.61803 -6.49384 13.1756
      vertex -14.5 -6.49384 0
      vertex -1.78201 -6.49384 12.908
    endloop
  endfacet
  facet normal 0 -1 0
    outer loop
      vertex -1.78201 -6.49384 12.908
      vertex -14.5 -6.49384 0
      vertex -1.90211 -6.49384 12.618
    endloop
  endfacet
  facet normal 0 -1 0
    outer loop
      vertex -1.90211 -6.49384 12.618
      vertex -14.5 -6.49384 0
      vertex -1.97538 -6.49384 12.3129
    endloop
  endfacet
  facet normal 0 -1 0
    outer loop
      vertex -1.97538 -6.49384 12.3129
      vertex -14.5 -6.49384 0
      vertex -2 -6.49384 12
    endloop
  endfacet
  facet normal 0 -1 -0
    outer loop
      vertex -2 -6.49384 12
      vertex -14.5 -6.49384 0
      vertex -2 -6.49384 8
    endloop
  endfacet
  facet normal 0 -1 -0
    outer loop
      vertex -0.312868 -6.49384 6.02462
      vertex -14.5 -6.49384 0
      vertex 0 -6.49384 6
    endloop
  endfacet
  facet normal 0 -1 -0
    outer loop
      vertex -0.618033 -6.49384 6.09789
      vertex -14.5 -6.49384 0
      vertex -0.312868 -6.49384 6.02462
    endloop
  endfacet
  facet normal 0 -1 -0
    outer loop
      vertex -0.907981 -6.49384 6.21799
      vertex -14.5 -6.49384 0
      vertex -0.618033 -6.49384 6.09789
    endloop
  endfacet
  facet normal 0 -1 -0
    outer loop
      vertex -1.17557 -6.49384 6.38197
      vertex -14.5 -6.49384 0
      vertex -0.907981 -6.49384 6.21799
    endloop
  endfacet
  facet normal 0 -1 -0
    outer loop
      vertex -1.41421 -6.49384 6.58579
      vertex -14.5 -6.49384 0
      vertex -1.17557 -6.49384 6.38197
    endloop
  endfacet
  facet normal 0 -1 -0
    outer loop
      vertex -1.61803 -6.49384 6.82443
      vertex -14.5 -6.49384 0
      vertex -1.41421 -6.49384 6.58579
    endloop
  endfacet
  facet normal 0 -1 -0
    outer loop
      vertex -1.78201 -6.49384 7.09202
      vertex -14.5 -6.49384 0
      vertex -1.61803 -6.49384 6.82443
    endloop
  endfacet
  facet normal 0 -1 -0
    outer loop
      vertex -1.90211 -6.49384 7.38197
      vertex -14.5 -6.49384 0
      vertex -1.78201 -6.49384 7.09202
    endloop
  endfacet
  facet normal 0 -1 -0
    outer loop
      vertex -1.97538 -6.49384 7.68713
      vertex -14.5 -6.49384 0
      vertex -1.90211 -6.49384 7.38197
    endloop
  endfacet
  facet normal 0 -1 -0
    outer loop
      vertex -2 -6.49384 8
      vertex -14.5 -6.49384 0
      vertex -1.97538 -6.49384 7.68713
    endloop
  endfacet
  facet normal 0 -1 0
    outer loop
      vertex 0.312868 -6.49384 113.975
      vertex 14.5 -6.49384 130
      vertex 0 -6.49384 114
    endloop
  endfacet
  facet normal 0 -1 0
    outer loop
      vertex 0.618033 -6.49384 113.902
      vertex 14.5 -6.49384 130
      vertex 0.312868 -6.49384 113.975
    endloop
  endfacet
  facet normal 0 -1 0
    outer loop
      vertex 0.907981 -6.49384 113.782
      vertex 14.5 -6.49384 130
      vertex 0.618033 -6.49384 113.902
    endloop
  endfacet
  facet normal 0 -1 0
    outer loop
      vertex 1.17557 -6.49384 113.618
      vertex 14.5 -6.49384 130
      vertex 0.907981 -6.49384 113.782
    endloop
  endfacet
  facet normal 0 -1 0
    outer loop
      vertex 1.41421 -6.49384 113.414
      vertex 14.5 -6.49384 130
      vertex 1.17557 -6.49384 113.618
    endloop
  endfacet
  facet normal 0 -1 0
    outer loop
      vertex 1.61803 -6.49384 113.176
      vertex 14.5 -6.49384 130
      vertex 1.41421 -6.49384 113.414
    endloop
  endfacet
  facet normal 0 -1 0
    outer loop
      vertex 1.78201 -6.49384 112.908
      vertex 14.5 -6.49384 130
      vertex 1.61803 -6.49384 113.176
    endloop
  endfacet
  facet normal 0 -1 0
    outer loop
      vertex 1.90211 -6.49384 112.618
      vertex 14.5 -6.49384 130
      vertex 1.78201 -6.49384 112.908
    endloop
  endfacet
  facet normal 0 -1 0
    outer loop
      vertex 1.97538 -6.49384 112.313
      vertex 14.5 -6.49384 130
      vertex 1.90211 -6.49384 112.618
    endloop
  endfacet
  facet normal 0 -1 0
    outer loop
      vertex 2 -6.49384 112
      vertex 14.5 -6.49384 130
      vertex 1.97538 -6.49384 112.313
    endloop
  endfacet
  facet normal 0 -1 0
    outer loop
      vertex 2 -6.49384 108
      vertex 14.5 -6.49384 130
      vertex 2 -6.49384 112
    endloop
  endfacet
  facet normal 0 -1 0
    outer loop
      vertex 1.97538 -6.49384 107.687
      vertex 14.5 -6.49384 130
      vertex 2 -6.49384 108
    endloop
  endfacet
  facet normal 0 -1 0
    outer loop
      vertex 1.90211 -6.49384 107.382
      vertex 14.5 -6.49384 130
      vertex 1.97538 -6.49384 107.687
    endloop
  endfacet
  facet normal 0 -1 0
    outer loop
      vertex 1.78201 -6.49384 107.092
      vertex 14.5 -6.49384 130
      vertex 1.90211 -6.49384 107.382
    endloop
  endfacet
  facet normal 0 -1 0
    outer loop
      vertex 0 -6.49384 14
      vertex 0.312868 -6.49384 106.025
      vertex 0 -6.49384 106
    endloop
  endfacet
  facet normal 0 -1 0
    outer loop
      vertex 0.312868 -6.49384 13.9754
      vertex 0.312868 -6.49384 106.025
      vertex 0 -6.49384 14
    endloop
  endfacet
  facet normal 0 -1 0
    outer loop
      vertex 0.312868 -6.49384 106.025
      vertex 0.312868 -6.49384 13.9754
      vertex 0.618033 -6.49384 106.098
    endloop
  endfacet
  facet normal 0 -1 0
    outer loop
      vertex 0.618033 -6.49384 13.9021
      vertex 0.618033 -6.49384 106.098
      vertex 0.312868 -6.49384 13.9754
    endloop
  endfacet
  facet normal 0 -1 0
    outer loop
      vertex 0.618033 -6.49384 106.098
      vertex 0.618033 -6.49384 13.9021
      vertex 0.907981 -6.49384 106.218
    endloop
  endfacet
  facet normal 0 -1 0
    outer loop
      vertex 0.907981 -6.49384 13.782
      vertex 0.907981 -6.49384 106.218
      vertex 0.618033 -6.49384 13.9021
    endloop
  endfacet
  facet normal 0 -1 0
    outer loop
      vertex 0.907981 -6.49384 106.218
      vertex 0.907981 -6.49384 13.782
      vertex 1.17557 -6.49384 106.382
    endloop
  endfacet
  facet normal 0 -1 0
    outer loop
      vertex 1.17557 -6.49384 13.618
      vertex 1.17557 -6.49384 106.382
      vertex 0.907981 -6.49384 13.782
    endloop
  endfacet
  facet normal 0 -1 0
    outer loop
      vertex 1.17557 -6.49384 106.382
      vertex 1.17557 -6.49384 13.618
      vertex 1.41421 -6.49384 106.586
    endloop
  endfacet
  facet normal 0 -1 0
    outer loop
      vertex 1.41421 -6.49384 13.4142
      vertex 1.41421 -6.49384 106.586
      vertex 1.17557 -6.49384 13.618
    endloop
  endfacet
  facet normal 0 -1 0
    outer loop
      vertex 1.41421 -6.49384 106.586
      vertex 1.41421 -6.49384 13.4142
      vertex 1.61803 -6.49384 106.824
    endloop
  endfacet
  facet normal 0 -1 0
    outer loop
      vertex 1.61803 -6.49384 13.1756
      vertex 1.61803 -6.49384 106.824
      vertex 1.41421 -6.49384 13.4142
    endloop
  endfacet
  facet normal 0 -1 0
    outer loop
      vertex 14.5 -6.49384 0
      vertex 1.61803 -6.49384 106.824
      vertex 1.61803 -6.49384 13.1756
    endloop
  endfacet
  facet normal 0 -1 0
    outer loop
      vertex 1.61803 -6.49384 106.824
      vertex 14.5 -6.49384 0
      vertex 1.78201 -6.49384 107.092
    endloop
  endfacet
  facet normal 0 -1 0
    outer loop
      vertex 14.5 -6.49384 0
      vertex 1.61803 -6.49384 13.1756
      vertex 1.78201 -6.49384 12.908
    endloop
  endfacet
  facet normal 0 -1 0
    outer loop
      vertex 14.5 -6.49384 0
      vertex 1.78201 -6.49384 12.908
      vertex 1.90211 -6.49384 12.618
    endloop
  endfacet
  facet normal 0 -1 0
    outer loop
      vertex 14.5 -6.49384 0
      vertex 1.90211 -6.49384 12.618
      vertex 1.97538 -6.49384 12.3129
    endloop
  endfacet
  facet normal 0 -1 0
    outer loop
      vertex 14.5 -6.49384 0
      vertex 1.97538 -6.49384 12.3129
      vertex 2 -6.49384 12
    endloop
  endfacet
  facet normal 0 -1 0
    outer loop
      vertex 14.5 -6.49384 0
      vertex 2 -6.49384 12
      vertex 2 -6.49384 8
    endloop
  endfacet
  facet normal 0 -1 0
    outer loop
      vertex 14.5 -6.49384 0
      vertex 2 -6.49384 8
      vertex 1.97538 -6.49384 7.68713
    endloop
  endfacet
  facet normal 0 -1 0
    outer loop
      vertex 14.5 -6.49384 0
      vertex 0 -6.49384 6
      vertex -14.5 -6.49384 0
    endloop
  endfacet
  facet normal 0 -1 0
    outer loop
      vertex 0 -6.49384 6
      vertex 14.5 -6.49384 0
      vertex 0.312868 -6.49384 6.02462
    endloop
  endfacet
  facet normal 0 -1 0
    outer loop
      vertex 1.78201 -6.49384 107.092
      vertex 14.5 -6.49384 0
      vertex 14.5 -6.49384 130
    endloop
  endfacet
  facet normal 0 -1 0
    outer loop
      vertex 1.90211 -6.49384 7.38197
      vertex 14.5 -6.49384 0
      vertex 1.97538 -6.49384 7.68713
    endloop
  endfacet
  facet normal 0 -1 0
    outer loop
      vertex 1.78201 -6.49384 7.09202
      vertex 14.5 -6.49384 0
      vertex 1.90211 -6.49384 7.38197
    endloop
  endfacet
  facet normal 0 -1 0
    outer loop
      vertex 1.61803 -6.49384 6.82443
      vertex 14.5 -6.49384 0
      vertex 1.78201 -6.49384 7.09202
    endloop
  endfacet
  facet normal 0 -1 0
    outer loop
      vertex 1.41421 -6.49384 6.58579
      vertex 14.5 -6.49384 0
      vertex 1.61803 -6.49384 6.82443
    endloop
  endfacet
  facet normal 0 -1 0
    outer loop
      vertex 1.17557 -6.49384 6.38197
      vertex 14.5 -6.49384 0
      vertex 1.41421 -6.49384 6.58579
    endloop
  endfacet
  facet normal 0 -1 0
    outer loop
      vertex 0.907981 -6.49384 6.21799
      vertex 14.5 -6.49384 0
      vertex 1.17557 -6.49384 6.38197
    endloop
  endfacet
  facet normal 0 -1 0
    outer loop
      vertex 0.618033 -6.49384 6.09789
      vertex 14.5 -6.49384 0
      vertex 0.907981 -6.49384 6.21799
    endloop
  endfacet
  facet normal 0 -1 0
    outer loop
      vertex 0.312868 -6.49384 6.02462
      vertex 14.5 -6.49384 0
      vertex 0.618033 -6.49384 6.09789
    endloop
  endfacet
  facet normal -0.987759 -0.155986 0
    outer loop
      vertex -14.9697 -6.15261 0
      vertex -14.9938 -6 130
      vertex -14.9938 -6 0
    endloop
  endfacet
  facet normal -0.987759 -0.155986 0
    outer loop
      vertex -14.9938 -6 130
      vertex -14.9697 -6.15261 0
      vertex -14.9697 -6.15261 130
    endloop
  endfacet
  facet normal 0.156438 -0.987688 0
    outer loop
      vertex 14.5 -6.49384 0
      vertex 14.6526 -6.46967 130
      vertex 14.5 -6.49384 130
    endloop
  endfacet
  facet normal 0.156438 -0.987688 0
    outer loop
      vertex 14.6526 -6.46967 130
      vertex 14.5 -6.49384 0
      vertex 14.6526 -6.46967 0
    endloop
  endfacet
  facet normal 0 1 -0
    outer loop
      vertex -11 6.49384 0
      vertex -13.5 6.49384 130
      vertex -11 6.49384 130
    endloop
  endfacet
  facet normal 0 1 0
    outer loop
      vertex -13.5 6.49384 130
      vertex -11 6.49384 0
      vertex -13.5 6.49384 0
    endloop
  endfacet
  facet normal 0 1 -0
    outer loop
      vertex 13.5 6.49384 0
      vertex 11 6.49384 130
      vertex 13.5 6.49384 130
    endloop
  endfacet
  facet normal 0 1 0
    outer loop
      vertex 11 6.49384 130
      vertex 13.5 6.49384 0
      vertex 11 6.49384 0
    endloop
  endfacet
  facet normal 1 -0 0
    outer loop
      vertex 14.9938 -6 130
      vertex 14.9938 3.80603 0
      vertex 14.9938 3.80603 130
    endloop
  endfacet
  facet normal 1 0 0
    outer loop
      vertex 14.9938 3.80603 0
      vertex 14.9938 -6 130
      vertex 14.9938 -6 0
    endloop
  endfacet
  facet normal 0.453879 -0.891063 0
    outer loop
      vertex 14.6526 -6.46967 0
      vertex 14.7903 -6.39953 130
      vertex 14.6526 -6.46967 130
    endloop
  endfacet
  facet normal 0.453879 -0.891063 0
    outer loop
      vertex 14.7903 -6.39953 130
      vertex 14.6526 -6.46967 0
      vertex 14.7903 -6.39953 0
    endloop
  endfacet
  facet normal -1 0 0
    outer loop
      vertex -14.9938 -6 0
      vertex -14.9938 3.80603 130
      vertex -14.9938 3.80603 0
    endloop
  endfacet
  facet normal -1 -0 0
    outer loop
      vertex -14.9938 3.80603 130
      vertex -14.9938 -6 0
      vertex -14.9938 -6 130
    endloop
  endfacet
  facet normal -0.890853 -0.454292 0
    outer loop
      vertex -14.8995 -6.29027 0
      vertex -14.9697 -6.15261 130
      vertex -14.9697 -6.15261 0
    endloop
  endfacet
  facet normal -0.890853 -0.454292 0
    outer loop
      vertex -14.9697 -6.15261 130
      vertex -14.8995 -6.29027 0
      vertex -14.8995 -6.29027 130
    endloop
  endfacet
  facet normal 0.890853 -0.454292 0
    outer loop
      vertex 14.8995 -6.29027 130
      vertex 14.9697 -6.15261 0
      vertex 14.9697 -6.15261 130
    endloop
  endfacet
  facet normal 0.890853 -0.454292 0
    outer loop
      vertex 14.9697 -6.15261 0
      vertex 14.8995 -6.29027 130
      vertex 14.8995 -6.29027 0
    endloop
  endfacet
  facet normal 0.707301 -0.706913 0
    outer loop
      vertex 14.7903 -6.39953 130
      vertex 14.8995 -6.29027 0
      vertex 14.8995 -6.29027 130
    endloop
  endfacet
  facet normal 0.707301 -0.706913 0
    outer loop
      vertex 14.8995 -6.29027 0
      vertex 14.7903 -6.39953 130
      vertex 14.7903 -6.39953 0
    endloop
  endfacet
  facet normal -0.156438 -0.987688 0
    outer loop
      vertex -14.6526 -6.46967 0
      vertex -14.5 -6.49384 130
      vertex -14.6526 -6.46967 130
    endloop
  endfacet
  facet normal -0.156438 -0.987688 -0
    outer loop
      vertex -14.5 -6.49384 130
      vertex -14.6526 -6.46967 0
      vertex -14.5 -6.49384 0
    endloop
  endfacet
  facet normal -0.453879 -0.891063 0
    outer loop
      vertex -14.7903 -6.39953 0
      vertex -14.6526 -6.46967 130
      vertex -14.7903 -6.39953 130
    endloop
  endfacet
  facet normal -0.453879 -0.891063 -0
    outer loop
      vertex -14.6526 -6.46967 130
      vertex -14.7903 -6.39953 0
      vertex -14.6526 -6.46967 0
    endloop
  endfacet
  facet normal -0.707301 -0.706913 0
    outer loop
      vertex -14.7903 -6.39953 0
      vertex -14.8995 -6.29027 130
      vertex -14.8995 -6.29027 0
    endloop
  endfacet
  facet normal -0.707301 -0.706913 0
    outer loop
      vertex -14.8995 -6.29027 130
      vertex -14.7903 -6.39953 0
      vertex -14.7903 -6.39953 130
    endloop
  endfacet
  facet normal 0.987759 -0.155986 0
    outer loop
      vertex 14.9697 -6.15261 130
      vertex 14.9938 -6 0
      vertex 14.9938 -6 130
    endloop
  endfacet
  facet normal 0.987759 -0.155986 0
    outer loop
      vertex 14.9938 -6 0
      vertex 14.9697 -6.15261 130
      vertex 14.9697 -6.15261 0
    endloop
  endfacet
  facet normal 0 0 1
    outer loop
      vertex 13.5 6.49384 130
      vertex 12.5 5.3 130
      vertex 13.5 5.55556 130
    endloop
  endfacet
  facet normal 0 0 1
    outer loop
      vertex 11 2.97069 130
      vertex 12.5 5.3 130
      vertex 11 6.49384 130
    endloop
  endfacet
  facet normal -0 0 1
    outer loop
      vertex 11 6.49384 130
      vertex 12.5 5.3 130
      vertex 13.5 6.49384 130
    endloop
  endfacet
  facet normal -0 0 1
    outer loop
      vertex 13.7 1.9 130
      vertex 14.9938 -6 130
      vertex 14.9938 3.80603 130
    endloop
  endfacet
  facet normal -0 0 1
    outer loop
      vertex 13.7 -5.2 130
      vertex 14.9938 -6 130
      vertex 13.7 1.9 130
    endloop
  endfacet
  facet normal 0 -0 1
    outer loop
      vertex 14.5 -6.49384 130
      vertex 14.9938 -6 130
      vertex 13.7 -5.2 130
    endloop
  endfacet
  facet normal 0 0 1
    outer loop
      vertex 14.9938 -6 130
      vertex 14.5 -6.49384 130
      vertex 14.9697 -6.15261 130
    endloop
  endfacet
  facet normal 0 0 1
    outer loop
      vertex 14.9697 -6.15261 130
      vertex 14.5 -6.49384 130
      vertex 14.8995 -6.29027 130
    endloop
  endfacet
  facet normal 0 0 1
    outer loop
      vertex 14.8995 -6.29027 130
      vertex 14.5 -6.49384 130
      vertex 14.7903 -6.39953 130
    endloop
  endfacet
  facet normal 0 0 1
    outer loop
      vertex 12.5 4 130
      vertex 13.7 1.9 130
      vertex 14.9938 3.80603 130
    endloop
  endfacet
  facet normal 0 0 1
    outer loop
      vertex 12.5 5.3 130
      vertex 11 2.97069 130
      vertex 12.5 4 130
    endloop
  endfacet
  facet normal 0 0 1
    outer loop
      vertex 12.5 4 130
      vertex 11 2.97069 130
      vertex 13.7 1.9 130
    endloop
  endfacet
  facet normal 0 0 1
    outer loop
      vertex 14.7903 -6.39953 130
      vertex 14.5 -6.49384 130
      vertex 14.6526 -6.46967 130
    endloop
  endfacet
  facet normal -0 0 1
    outer loop
      vertex -13.7 -5.2 130
      vertex 14.5 -6.49384 130
      vertex 13.7 -5.2 130
    endloop
  endfacet
  facet normal 0 0 1
    outer loop
      vertex 14.5 -6.49384 130
      vertex -13.7 -5.2 130
      vertex -14.5 -6.49384 130
    endloop
  endfacet
  facet normal 0 0 1
    outer loop
      vertex -11 6.49384 130
      vertex -12.5 5.3 130
      vertex -11 2.97069 130
    endloop
  endfacet
  facet normal -0 0 1
    outer loop
      vertex -13.5 6.49384 130
      vertex -12.5 5.3 130
      vertex -11 6.49384 130
    endloop
  endfacet
  facet normal 0 0 1
    outer loop
      vertex -12.5 5.3 130
      vertex -13.5 6.49384 130
      vertex -13.5 5.55556 130
    endloop
  endfacet
  facet normal -0 0 1
    outer loop
      vertex -12.5 4 130
      vertex -11 2.97069 130
      vertex -12.5 5.3 130
    endloop
  endfacet
  facet normal 0 0 1
    outer loop
      vertex -12.5 4 130
      vertex -13.7 1.9 130
      vertex -11 2.97069 130
    endloop
  endfacet
  facet normal 0 0 1
    outer loop
      vertex -14.9938 -6 130
      vertex -13.7 -5.2 130
      vertex -13.7 1.9 130
    endloop
  endfacet
  facet normal 0 0 1
    outer loop
      vertex -13.7 -5.2 130
      vertex -14.9938 -6 130
      vertex -14.5 -6.49384 130
    endloop
  endfacet
  facet normal 0 0 1
    outer loop
      vertex -14.5 -6.49384 130
      vertex -14.9938 -6 130
      vertex -14.6526 -6.46967 130
    endloop
  endfacet
  facet normal 0 0 1
    outer loop
      vertex -14.6526 -6.46967 130
      vertex -14.9938 -6 130
      vertex -14.7903 -6.39953 130
    endloop
  endfacet
  facet normal 0 0 1
    outer loop
      vertex -14.7903 -6.39953 130
      vertex -14.9938 -6 130
      vertex -14.8995 -6.29027 130
    endloop
  endfacet
  facet normal -0 0 1
    outer loop
      vertex -14.9938 3.80603 130
      vertex -13.7 1.9 130
      vertex -12.5 4 130
    endloop
  endfacet
  facet normal 0 0 1
    outer loop
      vertex -14.9938 -6 130
      vertex -13.7 1.9 130
      vertex -14.9938 3.80603 130
    endloop
  endfacet
  facet normal 0 0 1
    outer loop
      vertex -14.8995 -6.29027 130
      vertex -14.9938 -6 130
      vertex -14.9697 -6.15261 130
    endloop
  endfacet
  facet normal 0 0 -1
    outer loop
      vertex 14.5 -6.49384 0
      vertex -13.7 -5.2 0
      vertex 13.7 -5.2 0
    endloop
  endfacet
  facet normal 0 0 -1
    outer loop
      vertex -14.9938 -6 0
      vertex -13.7 -5.2 0
      vertex -14.5 -6.49384 0
    endloop
  endfacet
  facet normal 0 0 -1
    outer loop
      vertex -14.5 -6.49384 0
      vertex -13.7 -5.2 0
      vertex 14.5 -6.49384 0
    endloop
  endfacet
  facet normal 0 0 -1
    outer loop
      vertex 14.5 -6.49384 0
      vertex 14.9938 -6 0
      vertex 14.9697 -6.15261 0
    endloop
  endfacet
  facet normal 0 0 -1
    outer loop
      vertex 14.5 -6.49384 0
      vertex 14.9697 -6.15261 0
      vertex 14.8995 -6.29027 0
    endloop
  endfacet
  facet normal 0 0 -1
    outer loop
      vertex 14.5 -6.49384 0
      vertex 14.8995 -6.29027 0
      vertex 14.7903 -6.39953 0
    endloop
  endfacet
  facet normal 0 0 -1
    outer loop
      vertex 14.5 -6.49384 0
      vertex 14.7903 -6.39953 0
      vertex 14.6526 -6.46967 0
    endloop
  endfacet
  facet normal -0 0 -1
    outer loop
      vertex 14.9938 -6 0
      vertex 14.5 -6.49384 0
      vertex 13.7 -5.2 0
    endloop
  endfacet
  facet normal 0 0 -1
    outer loop
      vertex 14.9938 -6 0
      vertex 13.7 -5.2 0
      vertex 13.7 1.9 0
    endloop
  endfacet
  facet normal 0 0 -1
    outer loop
      vertex 14.9938 -6 0
      vertex 13.7 1.9 0
      vertex 14.9938 3.80603 0
    endloop
  endfacet
  facet normal 0 0 -1
    outer loop
      vertex 13.7 1.9 0
      vertex 12.5 4 0
      vertex 14.9938 3.80603 0
    endloop
  endfacet
  facet normal -0 0 -1
    outer loop
      vertex 12.5 4 0
      vertex 11 2.97069 0
      vertex 12.5 5.3 0
    endloop
  endfacet
  facet normal 0 0 -1
    outer loop
      vertex 11 2.97069 0
      vertex 12.5 4 0
      vertex 13.7 1.9 0
    endloop
  endfacet
  facet normal 0 0 -1
    outer loop
      vertex 12.5 5.3 0
      vertex 13.5 6.49384 0
      vertex 13.5 5.55556 0
    endloop
  endfacet
  facet normal 0 0 -1
    outer loop
      vertex 12.5 5.3 0
      vertex 11 6.49384 0
      vertex 13.5 6.49384 0
    endloop
  endfacet
  facet normal 0 0 -1
    outer loop
      vertex 11 6.49384 0
      vertex 12.5 5.3 0
      vertex 11 2.97069 0
    endloop
  endfacet
  facet normal 0 0 -1
    outer loop
      vertex -12.5 5.3 0
      vertex -11 2.97069 0
      vertex -12.5 4 0
    endloop
  endfacet
  facet normal 0 0 -1
    outer loop
      vertex -13.7 1.9 0
      vertex -12.5 4 0
      vertex -11 2.97069 0
    endloop
  endfacet
  facet normal 0 0 -1
    outer loop
      vertex -14.9938 -6 0
      vertex -14.5 -6.49384 0
      vertex -14.6526 -6.46967 0
    endloop
  endfacet
  facet normal 0 0 -1
    outer loop
      vertex -14.9938 -6 0
      vertex -14.6526 -6.46967 0
      vertex -14.7903 -6.39953 0
    endloop
  endfacet
  facet normal 0 0 -1
    outer loop
      vertex -14.9938 -6 0
      vertex -14.7903 -6.39953 0
      vertex -14.8995 -6.29027 0
    endloop
  endfacet
  facet normal 0 0 -1
    outer loop
      vertex -14.9938 -6 0
      vertex -14.8995 -6.29027 0
      vertex -14.9697 -6.15261 0
    endloop
  endfacet
  facet normal -0 0 -1
    outer loop
      vertex -13.7 -5.2 0
      vertex -14.9938 -6 0
      vertex -13.7 1.9 0
    endloop
  endfacet
  facet normal 0 0 -1
    outer loop
      vertex -13.7 1.9 0
      vertex -14.9938 3.80603 0
      vertex -12.5 4 0
    endloop
  endfacet
  facet normal 0 0 -1
    outer loop
      vertex -14.9938 3.80603 0
      vertex -13.7 1.9 0
      vertex -14.9938 -6 0
    endloop
  endfacet
  facet normal 0 0 -1
    outer loop
      vertex -11 2.97069 0
      vertex -12.5 5.3 0
      vertex -11 6.49384 0
    endloop
  endfacet
  facet normal 0 0 -1
    outer loop
      vertex -13.5 6.49384 0
      vertex -12.5 5.3 0
      vertex -13.5 5.55556 0
    endloop
  endfacet
  facet normal 0 0 -1
    outer loop
      vertex -12.5 5.3 0
      vertex -13.5 6.49384 0
      vertex -11 6.49384 0
    endloop
  endfacet
  facet normal 1 -0 0
    outer loop
      vertex 13.5 5.55556 130
      vertex 13.5 6.49384 0
      vertex 13.5 6.49384 130
    endloop
  endfacet
  facet normal 1 0 0
    outer loop
      vertex 13.5 6.49384 0
      vertex 13.5 5.55556 130
      vertex 13.5 5.55556 0
    endloop
  endfacet
  facet normal 1 -0 0
    outer loop
      vertex 12.5 4 130
      vertex 12.5 5.3 0
      vertex 12.5 5.3 130
    endloop
  endfacet
  facet normal 1 0 0
    outer loop
      vertex 12.5 5.3 0
      vertex 12.5 4 130
      vertex 12.5 4 0
    endloop
  endfacet
  facet normal 0.0775467 0.996989 -0
    outer loop
      vertex 14.9938 3.80603 0
      vertex 12.5 4 130
      vertex 14.9938 3.80603 130
    endloop
  endfacet
  facet normal 0.0775467 0.996989 0
    outer loop
      vertex 12.5 4 130
      vertex 14.9938 3.80603 0
      vertex 12.5 4 0
    endloop
  endfacet
  facet normal 0.247602 -0.968862 0
    outer loop
      vertex 12.5 5.3 0
      vertex 13.5 5.55556 130
      vertex 12.5 5.3 130
    endloop
  endfacet
  facet normal 0.247602 -0.968862 0
    outer loop
      vertex 13.5 5.55556 130
      vertex 12.5 5.3 0
      vertex 13.5 5.55556 0
    endloop
  endfacet
  facet normal -1 0 0
    outer loop
      vertex -13.5 5.55556 0
      vertex -13.5 6.49384 130
      vertex -13.5 6.49384 0
    endloop
  endfacet
  facet normal -1 -0 0
    outer loop
      vertex -13.5 6.49384 130
      vertex -13.5 5.55556 0
      vertex -13.5 5.55556 130
    endloop
  endfacet
  facet normal -1 0 0
    outer loop
      vertex -12.5 4 0
      vertex -12.5 5.3 130
      vertex -12.5 5.3 0
    endloop
  endfacet
  facet normal -1 -0 0
    outer loop
      vertex -12.5 5.3 130
      vertex -12.5 4 0
      vertex -12.5 4 130
    endloop
  endfacet
  facet normal -0.0775467 0.996989 0
    outer loop
      vertex -12.5 4 0
      vertex -14.9938 3.80603 130
      vertex -12.5 4 130
    endloop
  endfacet
  facet normal -0.0775467 0.996989 0
    outer loop
      vertex -14.9938 3.80603 130
      vertex -12.5 4 0
      vertex -14.9938 3.80603 0
    endloop
  endfacet
  facet normal -0.247602 -0.968862 0
    outer loop
      vertex -13.5 5.55556 0
      vertex -12.5 5.3 130
      vertex -13.5 5.55556 130
    endloop
  endfacet
  facet normal -0.247602 -0.968862 -0
    outer loop
      vertex -12.5 5.3 130
      vertex -13.5 5.55556 0
      vertex -12.5 5.3 0
    endloop
  endfacet
  facet normal 1 -0 0
    outer loop
      vertex -13.7 -5.2 130
      vertex -13.7 1.9 0
      vertex -13.7 1.9 130
    endloop
  endfacet
  facet normal 1 0 0
    outer loop
      vertex -13.7 1.9 0
      vertex -13.7 -5.2 130
      vertex -13.7 -5.2 0
    endloop
  endfacet
  facet normal -1 0 0
    outer loop
      vertex 13.7 -5.2 0
      vertex 13.7 1.9 130
      vertex 13.7 1.9 0
    endloop
  endfacet
  facet normal -1 -0 0
    outer loop
      vertex 13.7 1.9 130
      vertex 13.7 -5.2 0
      vertex 13.7 -5.2 130
    endloop
  endfacet
  facet normal 0 1 0
    outer loop
      vertex 13.7 -5.2 130
      vertex 0 -5.2 114
      vertex -13.7 -5.2 130
    endloop
  endfacet
  facet normal 0 1 0
    outer loop
      vertex 13.7 -5.2 130
      vertex 0.312868 -5.2 113.975
      vertex 0 -5.2 114
    endloop
  endfacet
  facet normal 0 1 0
    outer loop
      vertex 13.7 -5.2 130
      vertex 0.618033 -5.2 113.902
      vertex 0.312868 -5.2 113.975
    endloop
  endfacet
  facet normal 0 1 0
    outer loop
      vertex 13.7 -5.2 130
      vertex 0.907981 -5.2 113.782
      vertex 0.618033 -5.2 113.902
    endloop
  endfacet
  facet normal 0 1 0
    outer loop
      vertex 13.7 -5.2 130
      vertex 1.17557 -5.2 113.618
      vertex 0.907981 -5.2 113.782
    endloop
  endfacet
  facet normal 0 1 0
    outer loop
      vertex 13.7 -5.2 130
      vertex 1.41421 -5.2 113.414
      vertex 1.17557 -5.2 113.618
    endloop
  endfacet
  facet normal 0 1 0
    outer loop
      vertex 13.7 -5.2 130
      vertex 1.61803 -5.2 113.176
      vertex 1.41421 -5.2 113.414
    endloop
  endfacet
  facet normal 0 1 0
    outer loop
      vertex 13.7 -5.2 130
      vertex 1.78201 -5.2 112.908
      vertex 1.61803 -5.2 113.176
    endloop
  endfacet
  facet normal 0 1 0
    outer loop
      vertex 13.7 -5.2 130
      vertex 1.90211 -5.2 112.618
      vertex 1.78201 -5.2 112.908
    endloop
  endfacet
  facet normal 0 1 0
    outer loop
      vertex 13.7 -5.2 130
      vertex 1.97538 -5.2 112.313
      vertex 1.90211 -5.2 112.618
    endloop
  endfacet
  facet normal 0 1 0
    outer loop
      vertex 13.7 -5.2 130
      vertex 2 -5.2 112
      vertex 1.97538 -5.2 112.313
    endloop
  endfacet
  facet normal 0 1 0
    outer loop
      vertex 13.7 -5.2 130
      vertex 2 -5.2 108
      vertex 2 -5.2 112
    endloop
  endfacet
  facet normal 0 1 0
    outer loop
      vertex 13.7 -5.2 130
      vertex 1.97538 -5.2 107.687
      vertex 2 -5.2 108
    endloop
  endfacet
  facet normal 0 1 0
    outer loop
      vertex 13.7 -5.2 130
      vertex 1.90211 -5.2 107.382
      vertex 1.97538 -5.2 107.687
    endloop
  endfacet
  facet normal 0 1 -0
    outer loop
      vertex 13.7 -5.2 0
      vertex 1.90211 -5.2 107.382
      vertex 13.7 -5.2 130
    endloop
  endfacet
  facet normal 0 1 0
    outer loop
      vertex 0.312868 -5.2 106.025
      vertex 0 -5.2 14
      vertex 0 -5.2 106
    endloop
  endfacet
  facet normal 0 1 0
    outer loop
      vertex 0.312868 -5.2 13.9754
      vertex 0.312868 -5.2 106.025
      vertex 0.618033 -5.2 106.098
    endloop
  endfacet
  facet normal 0 1 0
    outer loop
      vertex 0.618033 -5.2 13.9021
      vertex 0.618033 -5.2 106.098
      vertex 0.907981 -5.2 106.218
    endloop
  endfacet
  facet normal 0 1 0
    outer loop
      vertex 0.907981 -5.2 13.782
      vertex 0.907981 -5.2 106.218
      vertex 1.17557 -5.2 106.382
    endloop
  endfacet
  facet normal 0 1 0
    outer loop
      vertex 1.17557 -5.2 13.618
      vertex 1.17557 -5.2 106.382
      vertex 1.41421 -5.2 106.586
    endloop
  endfacet
  facet normal 0 1 0
    outer loop
      vertex 1.41421 -5.2 13.4142
      vertex 1.41421 -5.2 106.586
      vertex 1.61803 -5.2 106.824
    endloop
  endfacet
  facet normal 0 1 0
    outer loop
      vertex 13.7 -5.2 0
      vertex 1.61803 -5.2 106.824
      vertex 1.78201 -5.2 107.092
    endloop
  endfacet
  facet normal 0 1 0
    outer loop
      vertex 1.90211 -5.2 107.382
      vertex 13.7 -5.2 0
      vertex 1.78201 -5.2 107.092
    endloop
  endfacet
  facet normal 0 1 0
    outer loop
      vertex 0.312868 -5.2 106.025
      vertex 0.312868 -5.2 13.9754
      vertex 0 -5.2 14
    endloop
  endfacet
  facet normal 0 1 0
    outer loop
      vertex 0.618033 -5.2 106.098
      vertex 0.618033 -5.2 13.9021
      vertex 0.312868 -5.2 13.9754
    endloop
  endfacet
  facet normal 0 1 0
    outer loop
      vertex 0.907981 -5.2 106.218
      vertex 0.907981 -5.2 13.782
      vertex 0.618033 -5.2 13.9021
    endloop
  endfacet
  facet normal 0 1 0
    outer loop
      vertex 1.17557 -5.2 106.382
      vertex 1.17557 -5.2 13.618
      vertex 0.907981 -5.2 13.782
    endloop
  endfacet
  facet normal 0 1 0
    outer loop
      vertex 1.41421 -5.2 106.586
      vertex 1.41421 -5.2 13.4142
      vertex 1.17557 -5.2 13.618
    endloop
  endfacet
  facet normal 0 1 0
    outer loop
      vertex 1.61803 -5.2 106.824
      vertex 1.61803 -5.2 13.1756
      vertex 1.41421 -5.2 13.4142
    endloop
  endfacet
  facet normal 0 1 0
    outer loop
      vertex 1.61803 -5.2 106.824
      vertex 13.7 -5.2 0
      vertex 1.61803 -5.2 13.1756
    endloop
  endfacet
  facet normal 0 1 0
    outer loop
      vertex 1.61803 -5.2 13.1756
      vertex 13.7 -5.2 0
      vertex 1.78201 -5.2 12.908
    endloop
  endfacet
  facet normal 0 1 0
    outer loop
      vertex 1.78201 -5.2 12.908
      vertex 13.7 -5.2 0
      vertex 1.90211 -5.2 12.618
    endloop
  endfacet
  facet normal 0 1 0
    outer loop
      vertex 1.90211 -5.2 12.618
      vertex 13.7 -5.2 0
      vertex 1.97538 -5.2 12.3129
    endloop
  endfacet
  facet normal 0 1 0
    outer loop
      vertex 1.97538 -5.2 12.3129
      vertex 13.7 -5.2 0
      vertex 2 -5.2 12
    endloop
  endfacet
  facet normal 0 1 0
    outer loop
      vertex 2 -5.2 12
      vertex 13.7 -5.2 0
      vertex 2 -5.2 8
    endloop
  endfacet
  facet normal 0 1 0
    outer loop
      vertex 0.312868 -5.2 6.02462
      vertex 13.7 -5.2 0
      vertex 0 -5.2 6
    endloop
  endfacet
  facet normal 0 1 0
    outer loop
      vertex 0.618033 -5.2 6.09789
      vertex 13.7 -5.2 0
      vertex 0.312868 -5.2 6.02462
    endloop
  endfacet
  facet normal 0 1 0
    outer loop
      vertex 0.907981 -5.2 6.21799
      vertex 13.7 -5.2 0
      vertex 0.618033 -5.2 6.09789
    endloop
  endfacet
  facet normal 0 1 0
    outer loop
      vertex 1.17557 -5.2 6.38197
      vertex 13.7 -5.2 0
      vertex 0.907981 -5.2 6.21799
    endloop
  endfacet
  facet normal 0 1 0
    outer loop
      vertex 1.41421 -5.2 6.58579
      vertex 13.7 -5.2 0
      vertex 1.17557 -5.2 6.38197
    endloop
  endfacet
  facet normal 0 1 0
    outer loop
      vertex 1.61803 -5.2 6.82443
      vertex 13.7 -5.2 0
      vertex 1.41421 -5.2 6.58579
    endloop
  endfacet
  facet normal 0 1 0
    outer loop
      vertex 1.78201 -5.2 7.09202
      vertex 13.7 -5.2 0
      vertex 1.61803 -5.2 6.82443
    endloop
  endfacet
  facet normal 0 1 0
    outer loop
      vertex 1.90211 -5.2 7.38197
      vertex 13.7 -5.2 0
      vertex 1.78201 -5.2 7.09202
    endloop
  endfacet
  facet normal 0 1 0
    outer loop
      vertex 1.97538 -5.2 7.68713
      vertex 13.7 -5.2 0
      vertex 1.90211 -5.2 7.38197
    endloop
  endfacet
  facet normal 0 1 0
    outer loop
      vertex 2 -5.2 8
      vertex 13.7 -5.2 0
      vertex 1.97538 -5.2 7.68713
    endloop
  endfacet
  facet normal 0 1 -0
    outer loop
      vertex -0.312868 -5.2 113.975
      vertex -13.7 -5.2 130
      vertex 0 -5.2 114
    endloop
  endfacet
  facet normal 0 1 -0
    outer loop
      vertex -0.618033 -5.2 113.902
      vertex -13.7 -5.2 130
      vertex -0.312868 -5.2 113.975
    endloop
  endfacet
  facet normal 0 1 -0
    outer loop
      vertex -0.907981 -5.2 113.782
      vertex -13.7 -5.2 130
      vertex -0.618033 -5.2 113.902
    endloop
  endfacet
  facet normal 0 1 -0
    outer loop
      vertex -1.17557 -5.2 113.618
      vertex -13.7 -5.2 130
      vertex -0.907981 -5.2 113.782
    endloop
  endfacet
  facet normal 0 1 -0
    outer loop
      vertex -1.41421 -5.2 113.414
      vertex -13.7 -5.2 130
      vertex -1.17557 -5.2 113.618
    endloop
  endfacet
  facet normal 0 1 -0
    outer loop
      vertex -1.61803 -5.2 113.176
      vertex -13.7 -5.2 130
      vertex -1.41421 -5.2 113.414
    endloop
  endfacet
  facet normal 0 1 -0
    outer loop
      vertex -1.78201 -5.2 112.908
      vertex -13.7 -5.2 130
      vertex -1.61803 -5.2 113.176
    endloop
  endfacet
  facet normal 0 1 -0
    outer loop
      vertex -1.90211 -5.2 112.618
      vertex -13.7 -5.2 130
      vertex -1.78201 -5.2 112.908
    endloop
  endfacet
  facet normal 0 1 -0
    outer loop
      vertex -1.97538 -5.2 112.313
      vertex -13.7 -5.2 130
      vertex -1.90211 -5.2 112.618
    endloop
  endfacet
  facet normal 0 1 -0
    outer loop
      vertex -2 -5.2 112
      vertex -13.7 -5.2 130
      vertex -1.97538 -5.2 112.313
    endloop
  endfacet
  facet normal 0 1 -0
    outer loop
      vertex -2 -5.2 108
      vertex -13.7 -5.2 130
      vertex -2 -5.2 112
    endloop
  endfacet
  facet normal 0 1 0
    outer loop
      vertex -1.97538 -5.2 107.687
      vertex -13.7 -5.2 130
      vertex -2 -5.2 108
    endloop
  endfacet
  facet normal 0 1 0
    outer loop
      vertex -1.90211 -5.2 107.382
      vertex -13.7 -5.2 130
      vertex -1.97538 -5.2 107.687
    endloop
  endfacet
  facet normal 0 1 0
    outer loop
      vertex -13.7 -5.2 0
      vertex -1.90211 -5.2 107.382
      vertex -1.78201 -5.2 107.092
    endloop
  endfacet
  facet normal 0 1 -0
    outer loop
      vertex 0 -5.2 14
      vertex -0.312868 -5.2 106.025
      vertex 0 -5.2 106
    endloop
  endfacet
  facet normal 0 1 0
    outer loop
      vertex -0.312868 -5.2 13.9754
      vertex -0.312868 -5.2 106.025
      vertex 0 -5.2 14
    endloop
  endfacet
  facet normal 0 1 0
    outer loop
      vertex -0.312868 -5.2 106.025
      vertex -0.312868 -5.2 13.9754
      vertex -0.618033 -5.2 106.098
    endloop
  endfacet
  facet normal 0 1 0
    outer loop
      vertex -0.618033 -5.2 13.9021
      vertex -0.618033 -5.2 106.098
      vertex -0.312868 -5.2 13.9754
    endloop
  endfacet
  facet normal 0 1 0
    outer loop
      vertex -0.618033 -5.2 106.098
      vertex -0.618033 -5.2 13.9021
      vertex -0.907981 -5.2 106.218
    endloop
  endfacet
  facet normal 0 1 0
    outer loop
      vertex -0.907981 -5.2 13.782
      vertex -0.907981 -5.2 106.218
      vertex -0.618033 -5.2 13.9021
    endloop
  endfacet
  facet normal 0 1 0
    outer loop
      vertex -0.907981 -5.2 106.218
      vertex -0.907981 -5.2 13.782
      vertex -1.17557 -5.2 106.382
    endloop
  endfacet
  facet normal 0 1 0
    outer loop
      vertex -1.17557 -5.2 13.618
      vertex -1.17557 -5.2 106.382
      vertex -0.907981 -5.2 13.782
    endloop
  endfacet
  facet normal 0 1 0
    outer loop
      vertex -1.17557 -5.2 106.382
      vertex -1.17557 -5.2 13.618
      vertex -1.41421 -5.2 106.586
    endloop
  endfacet
  facet normal 0 1 0
    outer loop
      vertex -1.41421 -5.2 13.4142
      vertex -1.41421 -5.2 106.586
      vertex -1.17557 -5.2 13.618
    endloop
  endfacet
  facet normal 0 1 0
    outer loop
      vertex -1.41421 -5.2 106.586
      vertex -1.41421 -5.2 13.4142
      vertex -1.61803 -5.2 106.824
    endloop
  endfacet
  facet normal 0 1 0
    outer loop
      vertex -1.61803 -5.2 13.1756
      vertex -1.61803 -5.2 106.824
      vertex -1.41421 -5.2 13.4142
    endloop
  endfacet
  facet normal 0 1 0
    outer loop
      vertex -13.7 -5.2 0
      vertex -1.61803 -5.2 106.824
      vertex -1.61803 -5.2 13.1756
    endloop
  endfacet
  facet normal 0 1 0
    outer loop
      vertex -1.61803 -5.2 106.824
      vertex -13.7 -5.2 0
      vertex -1.78201 -5.2 107.092
    endloop
  endfacet
  facet normal 0 1 0
    outer loop
      vertex -13.7 -5.2 0
      vertex -1.61803 -5.2 13.1756
      vertex -1.78201 -5.2 12.908
    endloop
  endfacet
  facet normal 0 1 0
    outer loop
      vertex -13.7 -5.2 0
      vertex -1.78201 -5.2 12.908
      vertex -1.90211 -5.2 12.618
    endloop
  endfacet
  facet normal 0 1 0
    outer loop
      vertex -13.7 -5.2 0
      vertex -1.90211 -5.2 12.618
      vertex -1.97538 -5.2 12.3129
    endloop
  endfacet
  facet normal 0 1 0
    outer loop
      vertex -13.7 -5.2 0
      vertex -1.97538 -5.2 12.3129
      vertex -2 -5.2 12
    endloop
  endfacet
  facet normal 0 1 0
    outer loop
      vertex -13.7 -5.2 0
      vertex -2 -5.2 12
      vertex -2 -5.2 8
    endloop
  endfacet
  facet normal 0 1 0
    outer loop
      vertex -13.7 -5.2 0
      vertex -2 -5.2 8
      vertex -1.97538 -5.2 7.68713
    endloop
  endfacet
  facet normal 0 1 0
    outer loop
      vertex -13.7 -5.2 0
      vertex 0 -5.2 6
      vertex 13.7 -5.2 0
    endloop
  endfacet
  facet normal 0 1 0
    outer loop
      vertex 0 -5.2 6
      vertex -13.7 -5.2 0
      vertex -0.312868 -5.2 6.02462
    endloop
  endfacet
  facet normal 0 1 0
    outer loop
      vertex -0.312868 -5.2 6.02462
      vertex -13.7 -5.2 0
      vertex -0.618033 -5.2 6.09789
    endloop
  endfacet
  facet normal 0 1 0
    outer loop
      vertex -1.90211 -5.2 107.382
      vertex -13.7 -5.2 0
      vertex -13.7 -5.2 130
    endloop
  endfacet
  facet normal 0 1 0
    outer loop
      vertex -1.90211 -5.2 7.38197
      vertex -13.7 -5.2 0
      vertex -1.97538 -5.2 7.68713
    endloop
  endfacet
  facet normal 0 1 0
    outer loop
      vertex -1.78201 -5.2 7.09202
      vertex -13.7 -5.2 0
      vertex -1.90211 -5.2 7.38197
    endloop
  endfacet
  facet normal 0 1 0
    outer loop
      vertex -1.61803 -5.2 6.82443
      vertex -13.7 -5.2 0
      vertex -1.78201 -5.2 7.09202
    endloop
  endfacet
  facet normal 0 1 0
    outer loop
      vertex -1.41421 -5.2 6.58579
      vertex -13.7 -5.2 0
      vertex -1.61803 -5.2 6.82443
    endloop
  endfacet
  facet normal 0 1 0
    outer loop
      vertex -1.17557 -5.2 6.38197
      vertex -13.7 -5.2 0
      vertex -1.41421 -5.2 6.58579
    endloop
  endfacet
  facet normal 0 1 0
    outer loop
      vertex -0.907981 -5.2 6.21799
      vertex -13.7 -5.2 0
      vertex -1.17557 -5.2 6.38197
    endloop
  endfacet
  facet normal 0 1 0
    outer loop
      vertex -0.618033 -5.2 6.09789
      vertex -13.7 -5.2 0
      vertex -0.907981 -5.2 6.21799
    endloop
  endfacet
  facet normal 0.368626 -0.929578 0
    outer loop
      vertex -13.7 1.9 0
      vertex -11 2.97069 130
      vertex -13.7 1.9 130
    endloop
  endfacet
  facet normal 0.368626 -0.929578 0
    outer loop
      vertex -11 2.97069 130
      vertex -13.7 1.9 0
      vertex -11 2.97069 0
    endloop
  endfacet
  facet normal -0.368626 -0.929578 0
    outer loop
      vertex 11 2.97069 0
      vertex 13.7 1.9 130
      vertex 11 2.97069 130
    endloop
  endfacet
  facet normal -0.368626 -0.929578 -0
    outer loop
      vertex 13.7 1.9 130
      vertex 11 2.97069 0
      vertex 13.7 1.9 0
    endloop
  endfacet
  facet normal 1 -0 0
    outer loop
      vertex -11 2.97069 130
      vertex -11 6.49384 0
      vertex -11 6.49384 130
    endloop
  endfacet
  facet normal 1 0 0
    outer loop
      vertex -11 6.49384 0
      vertex -11 2.97069 130
      vertex -11 2.97069 0
    endloop
  endfacet
  facet normal -1 0 0
    outer loop
      vertex 11 2.97069 0
      vertex 11 6.49384 130
      vertex 11 6.49384 0
    endloop
  endfacet
  facet normal -1 -0 0
    outer loop
      vertex 11 6.49384 130
      vertex 11 2.97069 0
      vertex 11 2.97069 130
    endloop
  endfacet
  facet normal -0.996919 0 -0.0784408
    outer loop
      vertex 2 -6.49384 12
      vertex 1.97538 -5.2 12.3129
      vertex 2 -5.2 12
    endloop
  endfacet
  facet normal -0.996919 -0 -0.0784408
    outer loop
      vertex 1.97538 -5.2 12.3129
      vertex 2 -6.49384 12
      vertex 1.97538 -6.49384 12.3129
    endloop
  endfacet
  facet normal -0.972354 0 -0.233512
    outer loop
      vertex 1.97538 -6.49384 12.3129
      vertex 1.90211 -5.2 12.618
      vertex 1.97538 -5.2 12.3129
    endloop
  endfacet
  facet normal -0.972354 -0 -0.233512
    outer loop
      vertex 1.90211 -5.2 12.618
      vertex 1.97538 -6.49384 12.3129
      vertex 1.90211 -6.49384 12.618
    endloop
  endfacet
  facet normal -0.382682 0 -0.92388
    outer loop
      vertex 0.618033 -6.49384 13.9021
      vertex 0.907981 -5.2 13.782
      vertex 0.907981 -6.49384 13.782
    endloop
  endfacet
  facet normal -0.382682 0 -0.92388
    outer loop
      vertex 0.907981 -5.2 13.782
      vertex 0.618033 -6.49384 13.9021
      vertex 0.618033 -5.2 13.9021
    endloop
  endfacet
  facet normal 0.852648 0 -0.522486
    outer loop
      vertex -1.61803 -6.49384 13.1756
      vertex -1.78201 -5.2 12.908
      vertex -1.61803 -5.2 13.1756
    endloop
  endfacet
  facet normal 0.852648 0 -0.522486
    outer loop
      vertex -1.78201 -5.2 12.908
      vertex -1.61803 -6.49384 13.1756
      vertex -1.78201 -6.49384 12.908
    endloop
  endfacet
  facet normal -0.852639 0 0.5225
    outer loop
      vertex 1.61803 -6.49384 6.82443
      vertex 1.78201 -5.2 7.09202
      vertex 1.61803 -5.2 6.82443
    endloop
  endfacet
  facet normal -0.852639 0 0.5225
    outer loop
      vertex 1.78201 -5.2 7.09202
      vertex 1.61803 -6.49384 6.82443
      vertex 1.78201 -6.49384 7.09202
    endloop
  endfacet
  facet normal -0.996918 0 0.0784483
    outer loop
      vertex 1.97538 -6.49384 7.68713
      vertex 2 -5.2 8
      vertex 1.97538 -5.2 7.68713
    endloop
  endfacet
  facet normal -0.996918 0 0.0784483
    outer loop
      vertex 2 -5.2 8
      vertex 1.97538 -6.49384 7.68713
      vertex 2 -6.49384 8
    endloop
  endfacet
  facet normal -1 0 0
    outer loop
      vertex 2 -6.49384 8
      vertex 2 -5.2 12
      vertex 2 -5.2 8
    endloop
  endfacet
  facet normal -1 -0 0
    outer loop
      vertex 2 -5.2 12
      vertex 2 -6.49384 8
      vertex 2 -6.49384 12
    endloop
  endfacet
  facet normal -0.852648 0 -0.522486
    outer loop
      vertex 1.78201 -6.49384 12.908
      vertex 1.61803 -5.2 13.1756
      vertex 1.78201 -5.2 12.908
    endloop
  endfacet
  facet normal -0.852648 -0 -0.522486
    outer loop
      vertex 1.61803 -5.2 13.1756
      vertex 1.78201 -6.49384 12.908
      vertex 1.61803 -6.49384 13.1756
    endloop
  endfacet
  facet normal 0.233555 0 -0.972344
    outer loop
      vertex -0.618033 -6.49384 13.9021
      vertex -0.312868 -5.2 13.9754
      vertex -0.312868 -6.49384 13.9754
    endloop
  endfacet
  facet normal 0.233555 0 -0.972344
    outer loop
      vertex -0.312868 -5.2 13.9754
      vertex -0.618033 -6.49384 13.9021
      vertex -0.618033 -5.2 13.9021
    endloop
  endfacet
  facet normal -0.0783855 0 -0.996923
    outer loop
      vertex 0 -6.49384 14
      vertex 0.312868 -5.2 13.9754
      vertex 0.312868 -6.49384 13.9754
    endloop
  endfacet
  facet normal -0.0783855 0 -0.996923
    outer loop
      vertex 0.312868 -5.2 13.9754
      vertex 0 -6.49384 14
      vertex 0 -5.2 14
    endloop
  endfacet
  facet normal 0.923904 0 -0.382624
    outer loop
      vertex -1.78201 -6.49384 12.908
      vertex -1.90211 -5.2 12.618
      vertex -1.78201 -5.2 12.908
    endloop
  endfacet
  facet normal 0.923904 0 -0.382624
    outer loop
      vertex -1.90211 -5.2 12.618
      vertex -1.78201 -6.49384 12.908
      vertex -1.90211 -6.49384 12.618
    endloop
  endfacet
  facet normal 1 -0 0
    outer loop
      vertex -2 -6.49384 12
      vertex -2 -5.2 8
      vertex -2 -5.2 12
    endloop
  endfacet
  facet normal 1 0 0
    outer loop
      vertex -2 -5.2 8
      vertex -2 -6.49384 12
      vertex -2 -6.49384 8
    endloop
  endfacet
  facet normal 0.996918 -0 0.0784483
    outer loop
      vertex -2 -6.49384 8
      vertex -1.97538 -5.2 7.68713
      vertex -2 -5.2 8
    endloop
  endfacet
  facet normal 0.996918 0 0.0784483
    outer loop
      vertex -1.97538 -5.2 7.68713
      vertex -2 -6.49384 8
      vertex -1.97538 -6.49384 7.68713
    endloop
  endfacet
  facet normal 0.760403 -0 0.649452
    outer loop
      vertex -1.61803 -6.49384 6.82443
      vertex -1.41421 -5.2 6.58579
      vertex -1.61803 -5.2 6.82443
    endloop
  endfacet
  facet normal 0.760403 0 0.649452
    outer loop
      vertex -1.41421 -5.2 6.58579
      vertex -1.61803 -6.49384 6.82443
      vertex -1.41421 -6.49384 6.58579
    endloop
  endfacet
  facet normal 0.852639 -0 0.5225
    outer loop
      vertex -1.78201 -6.49384 7.09202
      vertex -1.61803 -5.2 6.82443
      vertex -1.78201 -5.2 7.09202
    endloop
  endfacet
  facet normal 0.852639 0 0.5225
    outer loop
      vertex -1.61803 -5.2 6.82443
      vertex -1.78201 -6.49384 7.09202
      vertex -1.61803 -6.49384 6.82443
    endloop
  endfacet
  facet normal 0.522501 0 0.852638
    outer loop
      vertex -1.17557 -5.2 6.38197
      vertex -0.907981 -6.49384 6.21799
      vertex -0.907981 -5.2 6.21799
    endloop
  endfacet
  facet normal 0.522501 0 0.852638
    outer loop
      vertex -0.907981 -6.49384 6.21799
      vertex -1.17557 -5.2 6.38197
      vertex -1.17557 -6.49384 6.38197
    endloop
  endfacet
  facet normal -0.760403 0 0.649452
    outer loop
      vertex 1.41421 -6.49384 6.58579
      vertex 1.61803 -5.2 6.82443
      vertex 1.41421 -5.2 6.58579
    endloop
  endfacet
  facet normal -0.760403 0 0.649452
    outer loop
      vertex 1.61803 -5.2 6.82443
      vertex 1.41421 -6.49384 6.58579
      vertex 1.61803 -6.49384 6.82443
    endloop
  endfacet
  facet normal -0.923904 0 -0.382624
    outer loop
      vertex 1.90211 -6.49384 12.618
      vertex 1.78201 -5.2 12.908
      vertex 1.90211 -5.2 12.618
    endloop
  endfacet
  facet normal -0.923904 -0 -0.382624
    outer loop
      vertex 1.78201 -5.2 12.908
      vertex 1.90211 -6.49384 12.618
      vertex 1.78201 -6.49384 12.908
    endloop
  endfacet
  facet normal -0.649415 0 -0.760434
    outer loop
      vertex 1.17557 -6.49384 13.618
      vertex 1.41421 -5.2 13.4142
      vertex 1.41421 -6.49384 13.4142
    endloop
  endfacet
  facet normal -0.649415 0 -0.760434
    outer loop
      vertex 1.41421 -5.2 13.4142
      vertex 1.17557 -6.49384 13.618
      vertex 1.17557 -5.2 13.618
    endloop
  endfacet
  facet normal -0.760349 0 -0.649515
    outer loop
      vertex 1.61803 -6.49384 13.1756
      vertex 1.41421 -5.2 13.4142
      vertex 1.61803 -5.2 13.1756
    endloop
  endfacet
  facet normal -0.760349 -0 -0.649515
    outer loop
      vertex 1.41421 -5.2 13.4142
      vertex 1.61803 -6.49384 13.1756
      vertex 1.41421 -6.49384 13.4142
    endloop
  endfacet
  facet normal 0.522548 0 -0.85261
    outer loop
      vertex -1.17557 -6.49384 13.618
      vertex -0.907981 -5.2 13.782
      vertex -0.907981 -6.49384 13.782
    endloop
  endfacet
  facet normal 0.522548 0 -0.85261
    outer loop
      vertex -0.907981 -5.2 13.782
      vertex -1.17557 -6.49384 13.618
      vertex -1.17557 -5.2 13.618
    endloop
  endfacet
  facet normal 0.382682 0 -0.92388
    outer loop
      vertex -0.907981 -6.49384 13.782
      vertex -0.618033 -5.2 13.9021
      vertex -0.618033 -6.49384 13.9021
    endloop
  endfacet
  facet normal 0.382682 0 -0.92388
    outer loop
      vertex -0.618033 -5.2 13.9021
      vertex -0.907981 -6.49384 13.782
      vertex -0.907981 -5.2 13.782
    endloop
  endfacet
  facet normal -0.233555 0 -0.972344
    outer loop
      vertex 0.312868 -6.49384 13.9754
      vertex 0.618033 -5.2 13.9021
      vertex 0.618033 -6.49384 13.9021
    endloop
  endfacet
  facet normal -0.233555 0 -0.972344
    outer loop
      vertex 0.618033 -5.2 13.9021
      vertex 0.312868 -6.49384 13.9754
      vertex 0.312868 -5.2 13.9754
    endloop
  endfacet
  facet normal 0.972354 0 -0.233512
    outer loop
      vertex -1.90211 -6.49384 12.618
      vertex -1.97538 -5.2 12.3129
      vertex -1.90211 -5.2 12.618
    endloop
  endfacet
  facet normal 0.972354 0 -0.233512
    outer loop
      vertex -1.97538 -5.2 12.3129
      vertex -1.90211 -6.49384 12.618
      vertex -1.97538 -6.49384 12.3129
    endloop
  endfacet
  facet normal 0.996919 0 -0.0784408
    outer loop
      vertex -1.97538 -6.49384 12.3129
      vertex -2 -5.2 12
      vertex -1.97538 -5.2 12.3129
    endloop
  endfacet
  facet normal 0.996919 0 -0.0784408
    outer loop
      vertex -2 -5.2 12
      vertex -1.97538 -6.49384 12.3129
      vertex -2 -6.49384 12
    endloop
  endfacet
  facet normal 0.233465 0 0.972365
    outer loop
      vertex -0.618033 -5.2 6.09789
      vertex -0.312868 -6.49384 6.02462
      vertex -0.312868 -5.2 6.02462
    endloop
  endfacet
  facet normal 0.233465 0 0.972365
    outer loop
      vertex -0.312868 -6.49384 6.02462
      vertex -0.618033 -5.2 6.09789
      vertex -0.618033 -6.49384 6.09789
    endloop
  endfacet
  facet normal 0.649452 0 0.760403
    outer loop
      vertex -1.41421 -5.2 6.58579
      vertex -1.17557 -6.49384 6.38197
      vertex -1.17557 -5.2 6.38197
    endloop
  endfacet
  facet normal 0.649452 0 0.760403
    outer loop
      vertex -1.17557 -6.49384 6.38197
      vertex -1.41421 -5.2 6.58579
      vertex -1.41421 -6.49384 6.58579
    endloop
  endfacet
  facet normal 0.382682 0 0.92388
    outer loop
      vertex -0.907981 -5.2 6.21799
      vertex -0.618033 -6.49384 6.09789
      vertex -0.618033 -5.2 6.09789
    endloop
  endfacet
  facet normal 0.382682 0 0.92388
    outer loop
      vertex -0.618033 -6.49384 6.09789
      vertex -0.907981 -5.2 6.21799
      vertex -0.907981 -6.49384 6.21799
    endloop
  endfacet
  facet normal 0.923881 -0 0.38268
    outer loop
      vertex -1.90211 -6.49384 7.38197
      vertex -1.78201 -5.2 7.09202
      vertex -1.90211 -5.2 7.38197
    endloop
  endfacet
  facet normal 0.923881 0 0.38268
    outer loop
      vertex -1.78201 -5.2 7.09202
      vertex -1.90211 -6.49384 7.38197
      vertex -1.78201 -6.49384 7.09202
    endloop
  endfacet
  facet normal 0.972364 -0 0.233468
    outer loop
      vertex -1.97538 -6.49384 7.68713
      vertex -1.90211 -5.2 7.38197
      vertex -1.97538 -5.2 7.68713
    endloop
  endfacet
  facet normal 0.972364 0 0.233468
    outer loop
      vertex -1.90211 -5.2 7.38197
      vertex -1.97538 -6.49384 7.68713
      vertex -1.90211 -6.49384 7.38197
    endloop
  endfacet
  facet normal -0.923881 0 0.38268
    outer loop
      vertex 1.78201 -6.49384 7.09202
      vertex 1.90211 -5.2 7.38197
      vertex 1.78201 -5.2 7.09202
    endloop
  endfacet
  facet normal -0.923881 0 0.38268
    outer loop
      vertex 1.90211 -5.2 7.38197
      vertex 1.78201 -6.49384 7.09202
      vertex 1.90211 -6.49384 7.38197
    endloop
  endfacet
  facet normal -0.972364 0 0.233468
    outer loop
      vertex 1.90211 -6.49384 7.38197
      vertex 1.97538 -5.2 7.68713
      vertex 1.90211 -5.2 7.38197
    endloop
  endfacet
  facet normal -0.972364 0 0.233468
    outer loop
      vertex 1.97538 -5.2 7.68713
      vertex 1.90211 -6.49384 7.38197
      vertex 1.97538 -6.49384 7.68713
    endloop
  endfacet
  facet normal -0.522548 0 -0.85261
    outer loop
      vertex 0.907981 -6.49384 13.782
      vertex 1.17557 -5.2 13.618
      vertex 1.17557 -6.49384 13.618
    endloop
  endfacet
  facet normal -0.522548 0 -0.85261
    outer loop
      vertex 1.17557 -5.2 13.618
      vertex 0.907981 -6.49384 13.782
      vertex 0.907981 -5.2 13.782
    endloop
  endfacet
  facet normal 0.649415 0 -0.760434
    outer loop
      vertex -1.41421 -6.49384 13.4142
      vertex -1.17557 -5.2 13.618
      vertex -1.17557 -6.49384 13.618
    endloop
  endfacet
  facet normal 0.649415 0 -0.760434
    outer loop
      vertex -1.17557 -5.2 13.618
      vertex -1.41421 -6.49384 13.4142
      vertex -1.41421 -5.2 13.4142
    endloop
  endfacet
  facet normal 0.760349 0 -0.649515
    outer loop
      vertex -1.41421 -6.49384 13.4142
      vertex -1.61803 -5.2 13.1756
      vertex -1.41421 -5.2 13.4142
    endloop
  endfacet
  facet normal 0.760349 0 -0.649515
    outer loop
      vertex -1.61803 -5.2 13.1756
      vertex -1.41421 -6.49384 13.4142
      vertex -1.61803 -6.49384 13.1756
    endloop
  endfacet
  facet normal 0.0783855 0 -0.996923
    outer loop
      vertex -0.312868 -6.49384 13.9754
      vertex 0 -5.2 14
      vertex 0 -6.49384 14
    endloop
  endfacet
  facet normal 0.0783855 0 -0.996923
    outer loop
      vertex 0 -5.2 14
      vertex -0.312868 -6.49384 13.9754
      vertex -0.312868 -5.2 13.9754
    endloop
  endfacet
  facet normal -0.382682 0 0.92388
    outer loop
      vertex 0.618033 -5.2 6.09789
      vertex 0.907981 -6.49384 6.21799
      vertex 0.907981 -5.2 6.21799
    endloop
  endfacet
  facet normal -0.382682 0 0.92388
    outer loop
      vertex 0.907981 -6.49384 6.21799
      vertex 0.618033 -5.2 6.09789
      vertex 0.618033 -6.49384 6.09789
    endloop
  endfacet
  facet normal 0.0784488 0 0.996918
    outer loop
      vertex -0.312868 -5.2 6.02462
      vertex 0 -6.49384 6
      vertex 0 -5.2 6
    endloop
  endfacet
  facet normal 0.0784488 0 0.996918
    outer loop
      vertex 0 -6.49384 6
      vertex -0.312868 -5.2 6.02462
      vertex -0.312868 -6.49384 6.02462
    endloop
  endfacet
  facet normal -0.0784488 0 0.996918
    outer loop
      vertex 0 -5.2 6
      vertex 0.312868 -6.49384 6.02462
      vertex 0.312868 -5.2 6.02462
    endloop
  endfacet
  facet normal -0.0784488 0 0.996918
    outer loop
      vertex 0.312868 -6.49384 6.02462
      vertex 0 -5.2 6
      vertex 0 -6.49384 6
    endloop
  endfacet
  facet normal -0.233465 0 0.972365
    outer loop
      vertex 0.312868 -5.2 6.02462
      vertex 0.618033 -6.49384 6.09789
      vertex 0.618033 -5.2 6.09789
    endloop
  endfacet
  facet normal -0.233465 0 0.972365
    outer loop
      vertex 0.618033 -6.49384 6.09789
      vertex 0.312868 -5.2 6.02462
      vertex 0.312868 -6.49384 6.02462
    endloop
  endfacet
  facet normal -0.522501 0 0.852638
    outer loop
      vertex 0.907981 -5.2 6.21799
      vertex 1.17557 -6.49384 6.38197
      vertex 1.17557 -5.2 6.38197
    endloop
  endfacet
  facet normal -0.522501 0 0.852638
    outer loop
      vertex 1.17557 -6.49384 6.38197
      vertex 0.907981 -5.2 6.21799
      vertex 0.907981 -6.49384 6.21799
    endloop
  endfacet
  facet normal -0.649452 0 0.760403
    outer loop
      vertex 1.17557 -5.2 6.38197
      vertex 1.41421 -6.49384 6.58579
      vertex 1.41421 -5.2 6.58579
    endloop
  endfacet
  facet normal -0.649452 0 0.760403
    outer loop
      vertex 1.41421 -6.49384 6.58579
      vertex 1.17557 -5.2 6.38197
      vertex 1.17557 -6.49384 6.38197
    endloop
  endfacet
  facet normal -0.996921 0 -0.0784159
    outer loop
      vertex 2 -6.49384 112
      vertex 1.97538 -5.2 112.313
      vertex 2 -5.2 112
    endloop
  endfacet
  facet normal -0.996921 -0 -0.0784159
    outer loop
      vertex 1.97538 -5.2 112.313
      vertex 2 -6.49384 112
      vertex 1.97538 -6.49384 112.313
    endloop
  endfacet
  facet normal -0.972337 0 -0.233584
    outer loop
      vertex 1.97538 -6.49384 112.313
      vertex 1.90211 -5.2 112.618
      vertex 1.97538 -5.2 112.313
    endloop
  endfacet
  facet normal -0.972337 -0 -0.233584
    outer loop
      vertex 1.90211 -5.2 112.618
      vertex 1.97538 -6.49384 112.313
      vertex 1.90211 -6.49384 112.618
    endloop
  endfacet
  facet normal 0.75954 0 -0.65046
    outer loop
      vertex -1.41421 -6.49384 113.414
      vertex -1.61803 -5.2 113.176
      vertex -1.41421 -5.2 113.414
    endloop
  endfacet
  facet normal 0.75954 0 -0.65046
    outer loop
      vertex -1.61803 -5.2 113.176
      vertex -1.41421 -6.49384 113.414
      vertex -1.61803 -6.49384 113.176
    endloop
  endfacet
  facet normal -0.38241 0 -0.923993
    outer loop
      vertex 0.618033 -6.49384 113.902
      vertex 0.907981 -5.2 113.782
      vertex 0.907981 -6.49384 113.782
    endloop
  endfacet
  facet normal -0.38241 0 -0.923993
    outer loop
      vertex 0.907981 -5.2 113.782
      vertex 0.618033 -6.49384 113.902
      vertex 0.618033 -5.2 113.902
    endloop
  endfacet
  facet normal 0.852995 0 -0.521919
    outer loop
      vertex -1.61803 -6.49384 113.176
      vertex -1.78201 -5.2 112.908
      vertex -1.61803 -5.2 113.176
    endloop
  endfacet
  facet normal 0.852995 0 -0.521919
    outer loop
      vertex -1.78201 -5.2 112.908
      vertex -1.61803 -6.49384 113.176
      vertex -1.78201 -6.49384 112.908
    endloop
  endfacet
  facet normal -0.649784 0 0.760119
    outer loop
      vertex 1.17557 -5.2 106.382
      vertex 1.41421 -6.49384 106.586
      vertex 1.41421 -5.2 106.586
    endloop
  endfacet
  facet normal -0.649784 0 0.760119
    outer loop
      vertex 1.41421 -6.49384 106.586
      vertex 1.17557 -5.2 106.382
      vertex 1.17557 -6.49384 106.382
    endloop
  endfacet
  facet normal -0.852995 0 0.521919
    outer loop
      vertex 1.61803 -6.49384 106.824
      vertex 1.78201 -5.2 107.092
      vertex 1.61803 -5.2 106.824
    endloop
  endfacet
  facet normal -0.852995 0 0.521919
    outer loop
      vertex 1.78201 -5.2 107.092
      vertex 1.61803 -6.49384 106.824
      vertex 1.78201 -6.49384 107.092
    endloop
  endfacet
  facet normal -0.996921 0 0.0784159
    outer loop
      vertex 1.97538 -6.49384 107.687
      vertex 2 -5.2 108
      vertex 1.97538 -5.2 107.687
    endloop
  endfacet
  facet normal -0.996921 0 0.0784159
    outer loop
      vertex 2 -5.2 108
      vertex 1.97538 -6.49384 107.687
      vertex 2 -6.49384 108
    endloop
  endfacet
  facet normal -1 0 0
    outer loop
      vertex 2 -6.49384 108
      vertex 2 -5.2 112
      vertex 2 -5.2 108
    endloop
  endfacet
  facet normal -1 -0 0
    outer loop
      vertex 2 -5.2 112
      vertex 2 -6.49384 108
      vertex 2 -6.49384 112
    endloop
  endfacet
  facet normal -0.852995 0 -0.521919
    outer loop
      vertex 1.78201 -6.49384 112.908
      vertex 1.61803 -5.2 113.176
      vertex 1.78201 -5.2 112.908
    endloop
  endfacet
  facet normal -0.852995 -0 -0.521919
    outer loop
      vertex 1.61803 -5.2 113.176
      vertex 1.78201 -6.49384 112.908
      vertex 1.61803 -6.49384 113.176
    endloop
  endfacet
  facet normal 0.232651 0 -0.97256
    outer loop
      vertex -0.618033 -6.49384 113.902
      vertex -0.312868 -5.2 113.975
      vertex -0.312868 -6.49384 113.975
    endloop
  endfacet
  facet normal 0.232651 0 -0.97256
    outer loop
      vertex -0.312868 -5.2 113.975
      vertex -0.618033 -6.49384 113.902
      vertex -0.618033 -5.2 113.902
    endloop
  endfacet
  facet normal 0.923904 0 -0.382624
    outer loop
      vertex -1.78201 -6.49384 112.908
      vertex -1.90211 -5.2 112.618
      vertex -1.78201 -5.2 112.908
    endloop
  endfacet
  facet normal 0.923904 0 -0.382624
    outer loop
      vertex -1.90211 -5.2 112.618
      vertex -1.78201 -6.49384 112.908
      vertex -1.90211 -6.49384 112.618
    endloop
  endfacet
  facet normal 1 -0 0
    outer loop
      vertex -2 -6.49384 112
      vertex -2 -5.2 108
      vertex -2 -5.2 112
    endloop
  endfacet
  facet normal 1 0 0
    outer loop
      vertex -2 -5.2 108
      vertex -2 -6.49384 112
      vertex -2 -6.49384 108
    endloop
  endfacet
  facet normal 0.996921 -0 0.0784159
    outer loop
      vertex -2 -6.49384 108
      vertex -1.97538 -5.2 107.687
      vertex -2 -5.2 108
    endloop
  endfacet
  facet normal 0.996921 0 0.0784159
    outer loop
      vertex -1.97538 -5.2 107.687
      vertex -2 -6.49384 108
      vertex -1.97538 -6.49384 107.687
    endloop
  endfacet
  facet normal 0.75954 -0 0.65046
    outer loop
      vertex -1.61803 -6.49384 106.824
      vertex -1.41421 -5.2 106.586
      vertex -1.61803 -5.2 106.824
    endloop
  endfacet
  facet normal 0.75954 0 0.65046
    outer loop
      vertex -1.41421 -5.2 106.586
      vertex -1.61803 -6.49384 106.824
      vertex -1.41421 -6.49384 106.586
    endloop
  endfacet
  facet normal 0.852995 -0 0.521919
    outer loop
      vertex -1.78201 -6.49384 107.092
      vertex -1.61803 -5.2 106.824
      vertex -1.78201 -5.2 107.092
    endloop
  endfacet
  facet normal 0.852995 0 0.521919
    outer loop
      vertex -1.61803 -5.2 106.824
      vertex -1.78201 -6.49384 107.092
      vertex -1.61803 -6.49384 106.824
    endloop
  endfacet
  facet normal 0.923904 -0 0.382624
    outer loop
      vertex -1.90211 -6.49384 107.382
      vertex -1.78201 -5.2 107.092
      vertex -1.90211 -5.2 107.382
    endloop
  endfacet
  facet normal 0.923904 0 0.382624
    outer loop
      vertex -1.78201 -5.2 107.092
      vertex -1.90211 -6.49384 107.382
      vertex -1.78201 -6.49384 107.092
    endloop
  endfacet
  facet normal -0.75954 0 0.65046
    outer loop
      vertex 1.41421 -6.49384 106.586
      vertex 1.61803 -5.2 106.824
      vertex 1.41421 -5.2 106.586
    endloop
  endfacet
  facet normal -0.75954 0 0.65046
    outer loop
      vertex 1.61803 -5.2 106.824
      vertex 1.41421 -6.49384 106.586
      vertex 1.61803 -6.49384 106.824
    endloop
  endfacet
  facet normal -0.923904 0 -0.382624
    outer loop
      vertex 1.90211 -6.49384 112.618
      vertex 1.78201 -5.2 112.908
      vertex 1.90211 -5.2 112.618
    endloop
  endfacet
  facet normal -0.923904 -0 -0.382624
    outer loop
      vertex 1.78201 -5.2 112.908
      vertex 1.90211 -6.49384 112.618
      vertex 1.78201 -6.49384 112.908
    endloop
  endfacet
  facet normal -0.522548 0 -0.85261
    outer loop
      vertex 0.907981 -6.49384 113.782
      vertex 1.17557 -5.2 113.618
      vertex 1.17557 -6.49384 113.618
    endloop
  endfacet
  facet normal -0.522548 0 -0.85261
    outer loop
      vertex 1.17557 -5.2 113.618
      vertex 0.907981 -6.49384 113.782
      vertex 0.907981 -5.2 113.782
    endloop
  endfacet
  facet normal 0.522548 0 -0.85261
    outer loop
      vertex -1.17557 -6.49384 113.618
      vertex -0.907981 -5.2 113.782
      vertex -0.907981 -6.49384 113.782
    endloop
  endfacet
  facet normal 0.522548 0 -0.85261
    outer loop
      vertex -0.907981 -5.2 113.782
      vertex -1.17557 -6.49384 113.618
      vertex -1.17557 -5.2 113.618
    endloop
  endfacet
  facet normal 0.972337 0 -0.233584
    outer loop
      vertex -1.90211 -6.49384 112.618
      vertex -1.97538 -5.2 112.313
      vertex -1.90211 -5.2 112.618
    endloop
  endfacet
  facet normal 0.972337 0 -0.233584
    outer loop
      vertex -1.97538 -5.2 112.313
      vertex -1.90211 -6.49384 112.618
      vertex -1.97538 -6.49384 112.313
    endloop
  endfacet
  facet normal 0.996921 0 -0.0784159
    outer loop
      vertex -1.97538 -6.49384 112.313
      vertex -2 -5.2 112
      vertex -1.97538 -5.2 112.313
    endloop
  endfacet
  facet normal 0.996921 0 -0.0784159
    outer loop
      vertex -2 -5.2 112
      vertex -1.97538 -6.49384 112.313
      vertex -2 -6.49384 112
    endloop
  endfacet
  facet normal 0.38241 0 0.923993
    outer loop
      vertex -0.907981 -5.2 106.218
      vertex -0.618033 -6.49384 106.098
      vertex -0.618033 -5.2 106.098
    endloop
  endfacet
  facet normal 0.38241 0 0.923993
    outer loop
      vertex -0.618033 -6.49384 106.098
      vertex -0.907981 -5.2 106.218
      vertex -0.907981 -6.49384 106.218
    endloop
  endfacet
  facet normal 0.649784 0 0.760119
    outer loop
      vertex -1.41421 -5.2 106.586
      vertex -1.17557 -6.49384 106.382
      vertex -1.17557 -5.2 106.382
    endloop
  endfacet
  facet normal 0.649784 0 0.760119
    outer loop
      vertex -1.17557 -6.49384 106.382
      vertex -1.41421 -5.2 106.586
      vertex -1.41421 -6.49384 106.586
    endloop
  endfacet
  facet normal 0.522548 0 0.85261
    outer loop
      vertex -1.17557 -5.2 106.382
      vertex -0.907981 -6.49384 106.218
      vertex -0.907981 -5.2 106.218
    endloop
  endfacet
  facet normal 0.522548 0 0.85261
    outer loop
      vertex -0.907981 -6.49384 106.218
      vertex -1.17557 -5.2 106.382
      vertex -1.17557 -6.49384 106.382
    endloop
  endfacet
  facet normal 0.972337 -0 0.233584
    outer loop
      vertex -1.97538 -6.49384 107.687
      vertex -1.90211 -5.2 107.382
      vertex -1.97538 -5.2 107.687
    endloop
  endfacet
  facet normal 0.972337 0 0.233584
    outer loop
      vertex -1.90211 -5.2 107.382
      vertex -1.97538 -6.49384 107.687
      vertex -1.90211 -6.49384 107.382
    endloop
  endfacet
  facet normal -0.923904 0 0.382624
    outer loop
      vertex 1.78201 -6.49384 107.092
      vertex 1.90211 -5.2 107.382
      vertex 1.78201 -5.2 107.092
    endloop
  endfacet
  facet normal -0.923904 0 0.382624
    outer loop
      vertex 1.90211 -5.2 107.382
      vertex 1.78201 -6.49384 107.092
      vertex 1.90211 -6.49384 107.382
    endloop
  endfacet
  facet normal -0.972337 0 0.233584
    outer loop
      vertex 1.90211 -6.49384 107.382
      vertex 1.97538 -5.2 107.687
      vertex 1.90211 -5.2 107.382
    endloop
  endfacet
  facet normal -0.972337 0 0.233584
    outer loop
      vertex 1.97538 -5.2 107.687
      vertex 1.90211 -6.49384 107.382
      vertex 1.97538 -6.49384 107.687
    endloop
  endfacet
  facet normal -0.75954 0 -0.65046
    outer loop
      vertex 1.61803 -6.49384 113.176
      vertex 1.41421 -5.2 113.414
      vertex 1.61803 -5.2 113.176
    endloop
  endfacet
  facet normal -0.75954 -0 -0.65046
    outer loop
      vertex 1.41421 -5.2 113.414
      vertex 1.61803 -6.49384 113.176
      vertex 1.41421 -6.49384 113.414
    endloop
  endfacet
  facet normal -0.649784 0 -0.760119
    outer loop
      vertex 1.17557 -6.49384 113.618
      vertex 1.41421 -5.2 113.414
      vertex 1.41421 -6.49384 113.414
    endloop
  endfacet
  facet normal -0.649784 0 -0.760119
    outer loop
      vertex 1.41421 -5.2 113.414
      vertex 1.17557 -6.49384 113.618
      vertex 1.17557 -5.2 113.618
    endloop
  endfacet
  facet normal 0.649784 0 -0.760119
    outer loop
      vertex -1.41421 -6.49384 113.414
      vertex -1.17557 -5.2 113.618
      vertex -1.17557 -6.49384 113.618
    endloop
  endfacet
  facet normal 0.649784 0 -0.760119
    outer loop
      vertex -1.17557 -5.2 113.618
      vertex -1.41421 -6.49384 113.414
      vertex -1.41421 -5.2 113.414
    endloop
  endfacet
  facet normal 0.38241 0 -0.923993
    outer loop
      vertex -0.907981 -6.49384 113.782
      vertex -0.618033 -5.2 113.902
      vertex -0.618033 -6.49384 113.902
    endloop
  endfacet
  facet normal 0.38241 0 -0.923993
    outer loop
      vertex -0.618033 -5.2 113.902
      vertex -0.907981 -6.49384 113.782
      vertex -0.907981 -5.2 113.782
    endloop
  endfacet
  facet normal 0.079652 0 -0.996823
    outer loop
      vertex -0.312868 -6.49384 113.975
      vertex 0 -5.2 114
      vertex 0 -6.49384 114
    endloop
  endfacet
  facet normal 0.079652 0 -0.996823
    outer loop
      vertex 0 -5.2 114
      vertex -0.312868 -6.49384 113.975
      vertex -0.312868 -5.2 113.975
    endloop
  endfacet
  facet normal -0.232651 0 -0.97256
    outer loop
      vertex 0.312868 -6.49384 113.975
      vertex 0.618033 -5.2 113.902
      vertex 0.618033 -6.49384 113.902
    endloop
  endfacet
  facet normal -0.232651 0 -0.97256
    outer loop
      vertex 0.618033 -5.2 113.902
      vertex 0.312868 -6.49384 113.975
      vertex 0.312868 -5.2 113.975
    endloop
  endfacet
  facet normal -0.079652 0 -0.996823
    outer loop
      vertex 0 -6.49384 114
      vertex 0.312868 -5.2 113.975
      vertex 0.312868 -6.49384 113.975
    endloop
  endfacet
  facet normal -0.079652 0 -0.996823
    outer loop
      vertex 0.312868 -5.2 113.975
      vertex 0 -6.49384 114
      vertex 0 -5.2 114
    endloop
  endfacet
  facet normal -0.38241 0 0.923993
    outer loop
      vertex 0.618033 -5.2 106.098
      vertex 0.907981 -6.49384 106.218
      vertex 0.907981 -5.2 106.218
    endloop
  endfacet
  facet normal -0.38241 0 0.923993
    outer loop
      vertex 0.907981 -6.49384 106.218
      vertex 0.618033 -5.2 106.098
      vertex 0.618033 -6.49384 106.098
    endloop
  endfacet
  facet normal -0.522548 0 0.85261
    outer loop
      vertex 0.907981 -5.2 106.218
      vertex 1.17557 -6.49384 106.382
      vertex 1.17557 -5.2 106.382
    endloop
  endfacet
  facet normal -0.522548 0 0.85261
    outer loop
      vertex 1.17557 -6.49384 106.382
      vertex 0.907981 -5.2 106.218
      vertex 0.907981 -6.49384 106.218
    endloop
  endfacet
  facet normal 0.232651 0 0.97256
    outer loop
      vertex -0.618033 -5.2 106.098
      vertex -0.312868 -6.49384 106.025
      vertex -0.312868 -5.2 106.025
    endloop
  endfacet
  facet normal 0.232651 0 0.97256
    outer loop
      vertex -0.312868 -6.49384 106.025
      vertex -0.618033 -5.2 106.098
      vertex -0.618033 -6.49384 106.098
    endloop
  endfacet
  facet normal 0.079652 0 0.996823
    outer loop
      vertex -0.312868 -5.2 106.025
      vertex 0 -6.49384 106
      vertex 0 -5.2 106
    endloop
  endfacet
  facet normal 0.079652 0 0.996823
    outer loop
      vertex 0 -6.49384 106
      vertex -0.312868 -5.2 106.025
      vertex -0.312868 -6.49384 106.025
    endloop
  endfacet
  facet normal -0.079652 0 0.996823
    outer loop
      vertex 0 -5.2 106
      vertex 0.312868 -6.49384 106.025
      vertex 0.312868 -5.2 106.025
    endloop
  endfacet
  facet normal -0.079652 0 0.996823
    outer loop
      vertex 0.312868 -6.49384 106.025
      vertex 0 -5.2 106
      vertex 0 -6.49384 106
    endloop
  endfacet
  facet normal -0.232651 0 0.97256
    outer loop
      vertex 0.312868 -5.2 106.025
      vertex 0.618033 -6.49384 106.098
      vertex 0.618033 -5.2 106.098
    endloop
  endfacet
  facet normal -0.232651 0 0.97256
    outer loop
      vertex 0.618033 -6.49384 106.098
      vertex 0.312868 -5.2 106.025
      vertex 0.312868 -6.49384 106.025
    endloop
  endfacet
endsolid OpenSCAD_Model
