solid OpenSCAD_Model
  facet normal 1 -0 0
    outer loop
      vertex 2.95 11 2
      vertex 2.95 18.9 0
      vertex 2.95 18.9 2
    endloop
  endfacet
  facet normal 1 0 0
    outer loop
      vertex 2.95 18.9 0
      vertex 2.95 11 2
      vertex 2.95 11 0
    endloop
  endfacet
  facet normal -1 0 0
    outer loop
      vertex 9.05 11 0
      vertex 9.05 18.9 2
      vertex 9.05 18.9 0
    endloop
  endfacet
  facet normal -1 -0 0
    outer loop
      vertex 9.05 18.9 2
      vertex 9.05 11 0
      vertex 9.05 11 2
    endloop
  endfacet
  facet normal 0 0 -1
    outer loop
      vertex 29.05 18.9 0
      vertex 25.0702 24.5911 0
      vertex 25.15 25.35 0
    endloop
  endfacet
  facet normal 0 0 -1
    outer loop
      vertex 29.05 18.9 0
      vertex 24.8344 23.8654 0
      vertex 25.0702 24.5911 0
    endloop
  endfacet
  facet normal 0 0 -1
    outer loop
      vertex 29.05 18.9 0
      vertex 24.4529 23.2046 0
      vertex 24.8344 23.8654 0
    endloop
  endfacet
  facet normal 0 0 -1
    outer loop
      vertex 29.05 18.9 0
      vertex 23.9423 22.6375 0
      vertex 24.4529 23.2046 0
    endloop
  endfacet
  facet normal 0 0 -1
    outer loop
      vertex 22.95 18.9 0
      vertex 23.9423 22.6375 0
      vertex 29.05 18.9 0
    endloop
  endfacet
  facet normal 0 0 -1
    outer loop
      vertex 23.9423 22.6375 0
      vertex 22.95 18.9 0
      vertex 23.325 22.189 0
    endloop
  endfacet
  facet normal 0 0 -1
    outer loop
      vertex 23.325 22.189 0
      vertex 22.95 18.9 0
      vertex 22.6279 21.8786 0
    endloop
  endfacet
  facet normal 0 0 -1
    outer loop
      vertex 43 0 0
      vertex 39.05 11 0
      vertex 43 29 0
    endloop
  endfacet
  facet normal 0 0 -1
    outer loop
      vertex 43 0 0
      vertex 32.95 11 0
      vertex 39.05 11 0
    endloop
  endfacet
  facet normal 0 0 -1
    outer loop
      vertex 32.95 11 0
      vertex 29.05 11 0
      vertex 32.95 18.9 0
    endloop
  endfacet
  facet normal 0 0 -1
    outer loop
      vertex 25.0004 2.90597 0
      vertex 32.95 11 0
      vertex 43 0 0
    endloop
  endfacet
  facet normal 0 0 -1
    outer loop
      vertex 25.0017 4.38177 0
      vertex 32.95 11 0
      vertex 25.0786 3.65 0
    endloop
  endfacet
  facet normal 0 0 -1
    outer loop
      vertex 32.95 11 0
      vertex 25.0773 3.63775 0
      vertex 25.0786 3.65 0
    endloop
  endfacet
  facet normal 0 0 -1
    outer loop
      vertex 32.95 11 0
      vertex 25.0004 2.90597 0
      vertex 25.0773 3.63775 0
    endloop
  endfacet
  facet normal 0 0 -1
    outer loop
      vertex 43 0 0
      vertex 24.9966 2.89426 0
      vertex 25.0004 2.90597 0
    endloop
  endfacet
  facet normal 0 0 -1
    outer loop
      vertex 43 0 0
      vertex 24.7692 2.19446 0
      vertex 24.9966 2.89426 0
    endloop
  endfacet
  facet normal 0 0 -1
    outer loop
      vertex 43 0 0
      vertex 24.4013 1.55724 0
      vertex 24.7692 2.19446 0
    endloop
  endfacet
  facet normal 0 0 -1
    outer loop
      vertex 43 0 0
      vertex 24.3951 1.54657 0
      vertex 24.4013 1.55724 0
    endloop
  endfacet
  facet normal 0 0 -1
    outer loop
      vertex 43 0 0
      vertex 23.9028 0.999758 0
      vertex 24.3951 1.54657 0
    endloop
  endfacet
  facet normal 0 0 -1
    outer loop
      vertex 43 0 0
      vertex 23.8945 0.990602 0
      vertex 23.9028 0.999758 0
    endloop
  endfacet
  facet normal 0 0 -1
    outer loop
      vertex 43 0 0
      vertex 23.8846 0.983361 0
      vertex 23.8945 0.990602 0
    endloop
  endfacet
  facet normal 0 0 -1
    outer loop
      vertex 43 0 0
      vertex 23.2893 0.550866 0
      vertex 23.8846 0.983361 0
    endloop
  endfacet
  facet normal 0 0 -1
    outer loop
      vertex 43 0 0
      vertex 23.278 0.545855 0
      vertex 23.2893 0.550866 0
    endloop
  endfacet
  facet normal 0 0 -1
    outer loop
      vertex 43 0 0
      vertex 22.6058 0.246575 0
      vertex 23.278 0.545855 0
    endloop
  endfacet
  facet normal 0 0 -1
    outer loop
      vertex 43 0 0
      vertex 22.5938 0.244014 0
      vertex 22.6058 0.246575 0
    endloop
  endfacet
  facet normal 0 0 -1
    outer loop
      vertex 43 0 0
      vertex 21.8741 0.0910316 0
      vertex 22.5938 0.244014 0
    endloop
  endfacet
  facet normal 0 0 -1
    outer loop
      vertex 43 0 0
      vertex 21.1259 0.0910316 0
      vertex 21.8741 0.0910316 0
    endloop
  endfacet
  facet normal 0 0 1
    outer loop
      vertex 21.1259 0.0910316 0
      vertex 20.3942 0.246575 0
      vertex 20.4062 0.244014 0
    endloop
  endfacet
  facet normal 0 0 -1
    outer loop
      vertex 0 0 0
      vertex 19.722 0.545855 0
      vertex 20.3942 0.246575 0
    endloop
  endfacet
  facet normal 0 0 -1
    outer loop
      vertex 0 0 0
      vertex 19.1154 0.983361 0
      vertex 19.7107 0.550866 0
    endloop
  endfacet
  facet normal 0 0 -1
    outer loop
      vertex 0 0 0
      vertex 18.5987 1.55724 0
      vertex 18.6049 1.54657 0
    endloop
  endfacet
  facet normal 0 0 -1
    outer loop
      vertex 0 0 0
      vertex 18.0034 2.89426 0
      vertex 18.2308 2.19446 0
    endloop
  endfacet
  facet normal 0 0 -1
    outer loop
      vertex 9.05 11 0
      vertex 17.9227 3.63775 0
      vertex 17.9996 2.90597 0
    endloop
  endfacet
  facet normal 0 0 -1
    outer loop
      vertex 17.9227 3.63775 0
      vertex 9.05 11 0
      vertex 17.9214 3.65 0
    endloop
  endfacet
  facet normal -0 0 -1
    outer loop
      vertex 18.0034 2.89426 0
      vertex 0 0 0
      vertex 17.9996 2.90597 0
    endloop
  endfacet
  facet normal -0 0 -1
    outer loop
      vertex 18.5987 1.55724 0
      vertex 0 0 0
      vertex 18.2308 2.19446 0
    endloop
  endfacet
  facet normal 0 0 -1
    outer loop
      vertex 12.95 11 0
      vertex 9.05 11 0
      vertex 12.95 18.9 0
    endloop
  endfacet
  facet normal 0 0 -1
    outer loop
      vertex 17.9214 3.65 0
      vertex 9.05 11 0
      vertex 12.95 11 0
    endloop
  endfacet
  facet normal 0 0 -1
    outer loop
      vertex 0 0 0
      vertex 18.6049 1.54657 0
      vertex 19.0972 0.999758 0
    endloop
  endfacet
  facet normal 0 0 -1
    outer loop
      vertex 0 0 0
      vertex 19.0972 0.999758 0
      vertex 19.1055 0.990602 0
    endloop
  endfacet
  facet normal -0 0 -1
    outer loop
      vertex 17.9996 2.90597 0
      vertex 0 0 0
      vertex 9.05 11 0
    endloop
  endfacet
  facet normal -0 0 -1
    outer loop
      vertex 19.1154 0.983361 0
      vertex 0 0 0
      vertex 19.1055 0.990602 0
    endloop
  endfacet
  facet normal 0 0 -1
    outer loop
      vertex 0 29 0
      vertex 2.95 11 0
      vertex 0 0 0
    endloop
  endfacet
  facet normal -0 0 -1
    outer loop
      vertex 9.05 11 0
      vertex 0 0 0
      vertex 2.95 11 0
    endloop
  endfacet
  facet normal -0 0 -1
    outer loop
      vertex 19.722 0.545855 0
      vertex 0 0 0
      vertex 19.7107 0.550866 0
    endloop
  endfacet
  facet normal -0 0 -1
    outer loop
      vertex 21.1259 0.0910316 0
      vertex 0 0 0
      vertex 20.3942 0.246575 0
    endloop
  endfacet
  facet normal 0 0 -1
    outer loop
      vertex 0 0 0
      vertex 21.1259 0.0910316 0
      vertex 43 0 0
    endloop
  endfacet
  facet normal 0 0 -1
    outer loop
      vertex 39.05 18.9 0
      vertex 43 29 0
      vertex 39.05 11 0
    endloop
  endfacet
  facet normal 0 0 -1
    outer loop
      vertex 32.95 18.9 0
      vertex 43 29 0
      vertex 39.05 18.9 0
    endloop
  endfacet
  facet normal 0 0 -1
    outer loop
      vertex 29.05 18.9 0
      vertex 32.95 18.9 0
      vertex 29.05 11 0
    endloop
  endfacet
  facet normal 0 0 -1
    outer loop
      vertex 25.15 25.35 0
      vertex 32.95 18.9 0
      vertex 29.05 18.9 0
    endloop
  endfacet
  facet normal 0 0 -1
    outer loop
      vertex 25.0702 26.1089 0
      vertex 32.95 18.9 0
      vertex 25.15 25.35 0
    endloop
  endfacet
  facet normal 0 0 -1
    outer loop
      vertex 32.95 18.9 0
      vertex 25.0702 26.1089 0
      vertex 43 29 0
    endloop
  endfacet
  facet normal 0 0 -1
    outer loop
      vertex 24.8344 26.8346 0
      vertex 43 29 0
      vertex 25.0702 26.1089 0
    endloop
  endfacet
  facet normal 0 0 -1
    outer loop
      vertex 24.4529 27.4954 0
      vertex 43 29 0
      vertex 24.8344 26.8346 0
    endloop
  endfacet
  facet normal 0 0 -1
    outer loop
      vertex 23.9423 28.0625 0
      vertex 43 29 0
      vertex 24.4529 27.4954 0
    endloop
  endfacet
  facet normal 0 0 -1
    outer loop
      vertex 23.325 28.511 0
      vertex 43 29 0
      vertex 23.9423 28.0625 0
    endloop
  endfacet
  facet normal 0 0 -1
    outer loop
      vertex 22.6279 28.8214 0
      vertex 43 29 0
      vertex 23.325 28.511 0
    endloop
  endfacet
  facet normal 0 0 -1
    outer loop
      vertex 21.8815 28.98 0
      vertex 43 29 0
      vertex 22.6279 28.8214 0
    endloop
  endfacet
  facet normal 0 0 -1
    outer loop
      vertex 21.1185 28.98 0
      vertex 43 29 0
      vertex 21.8815 28.98 0
    endloop
  endfacet
  facet normal 0 0 -1
    outer loop
      vertex 9.05 18.9 0
      vertex 17.85 25.35 0
      vertex 12.95 18.9 0
    endloop
  endfacet
  facet normal -0 0 -1
    outer loop
      vertex 17.85 25.35 0
      vertex 9.05 18.9 0
      vertex 17.9298 26.1089 0
    endloop
  endfacet
  facet normal 0 0 -1
    outer loop
      vertex 0 29 0
      vertex 17.9298 26.1089 0
      vertex 9.05 18.9 0
    endloop
  endfacet
  facet normal 0 0 -1
    outer loop
      vertex 9.05 18.9 0
      vertex 12.95 18.9 0
      vertex 9.05 11 0
    endloop
  endfacet
  facet normal 0 0 -1
    outer loop
      vertex 17.9298 26.1089 0
      vertex 0 29 0
      vertex 18.1656 26.8346 0
    endloop
  endfacet
  facet normal 0 0 -1
    outer loop
      vertex 18.1656 26.8346 0
      vertex 0 29 0
      vertex 18.5471 27.4954 0
    endloop
  endfacet
  facet normal 0 0 -1
    outer loop
      vertex 0 29 0
      vertex 9.05 18.9 0
      vertex 2.95 18.9 0
    endloop
  endfacet
  facet normal 0 0 -1
    outer loop
      vertex 18.5471 27.4954 0
      vertex 0 29 0
      vertex 19.0577 28.0625 0
    endloop
  endfacet
  facet normal 0 0 -1
    outer loop
      vertex 21.1185 28.98 0
      vertex 0 29 0
      vertex 43 29 0
    endloop
  endfacet
  facet normal 0 0 -1
    outer loop
      vertex 20.3721 28.8214 0
      vertex 0 29 0
      vertex 21.1185 28.98 0
    endloop
  endfacet
  facet normal 0 0 -1
    outer loop
      vertex 19.675 28.511 0
      vertex 0 29 0
      vertex 20.3721 28.8214 0
    endloop
  endfacet
  facet normal 0 0 -1
    outer loop
      vertex 19.0577 28.0625 0
      vertex 0 29 0
      vertex 19.675 28.511 0
    endloop
  endfacet
  facet normal 0 0 -1
    outer loop
      vertex 2.95 11 0
      vertex 0 29 0
      vertex 2.95 18.9 0
    endloop
  endfacet
  facet normal 0 0 -1
    outer loop
      vertex 25.0004 4.39403 0
      vertex 32.95 11 0
      vertex 25.0017 4.38177 0
    endloop
  endfacet
  facet normal -0 0 -1
    outer loop
      vertex 32.95 11 0
      vertex 25.0004 4.39403 0
      vertex 29.05 11 0
    endloop
  endfacet
  facet normal 0 0 -1
    outer loop
      vertex 24.9966 4.40574 0
      vertex 29.05 11 0
      vertex 25.0004 4.39403 0
    endloop
  endfacet
  facet normal 0 0 -1
    outer loop
      vertex 24.7692 5.10554 0
      vertex 29.05 11 0
      vertex 24.9966 4.40574 0
    endloop
  endfacet
  facet normal 0 0 -1
    outer loop
      vertex 24.763 5.1162 0
      vertex 29.05 11 0
      vertex 24.7692 5.10554 0
    endloop
  endfacet
  facet normal 0 0 -1
    outer loop
      vertex 24.3951 5.75343 0
      vertex 29.05 11 0
      vertex 24.763 5.1162 0
    endloop
  endfacet
  facet normal 0 0 -1
    outer loop
      vertex 23.9028 6.30024 0
      vertex 29.05 11 0
      vertex 24.3951 5.75343 0
    endloop
  endfacet
  facet normal 0 0 -1
    outer loop
      vertex 23.8945 6.3094 0
      vertex 29.05 11 0
      vertex 23.9028 6.30024 0
    endloop
  endfacet
  facet normal 0 0 -1
    outer loop
      vertex 23.8846 6.31664 0
      vertex 29.05 11 0
      vertex 23.8945 6.3094 0
    endloop
  endfacet
  facet normal 0 0 -1
    outer loop
      vertex 22.95 11 0
      vertex 23.8846 6.31664 0
      vertex 23.2893 6.74913 0
    endloop
  endfacet
  facet normal 0 0 -1
    outer loop
      vertex 22.95 11 0
      vertex 23.2893 6.74913 0
      vertex 23.278 6.75414 0
    endloop
  endfacet
  facet normal 0 0 -1
    outer loop
      vertex 23.8846 6.31664 0
      vertex 22.95 11 0
      vertex 29.05 11 0
    endloop
  endfacet
  facet normal 0 0 -1
    outer loop
      vertex 19.05 18.9 0
      vertex 22.95 18.9 0
      vertex 22.95 11 0
    endloop
  endfacet
  facet normal 0 0 -1
    outer loop
      vertex 22.6058 7.05342 0
      vertex 22.95 11 0
      vertex 23.278 6.75414 0
    endloop
  endfacet
  facet normal 0 0 -1
    outer loop
      vertex 21.8861 7.20641 0
      vertex 22.95 11 0
      vertex 22.6058 7.05342 0
    endloop
  endfacet
  facet normal 0 0 -1
    outer loop
      vertex 21.8741 7.20897 0
      vertex 22.95 11 0
      vertex 21.8861 7.20641 0
    endloop
  endfacet
  facet normal 0 0 -1
    outer loop
      vertex 19.05 18.9 0
      vertex 22.95 11 0
      vertex 19.05 11 0
    endloop
  endfacet
  facet normal 0 0 -1
    outer loop
      vertex 21.1259 7.20897 0
      vertex 22.95 11 0
      vertex 21.8741 7.20897 0
    endloop
  endfacet
  facet normal -0 0 -1
    outer loop
      vertex 22.95 11 0
      vertex 21.1259 7.20897 0
      vertex 19.05 11 0
    endloop
  endfacet
  facet normal 0 -0 -1
    outer loop
      vertex 21.1185 21.72 0
      vertex 22.95 18.9 0
      vertex 19.05 18.9 0
    endloop
  endfacet
  facet normal 0 0 -1
    outer loop
      vertex 19.05 11 0
      vertex 21.1259 7.20897 0
      vertex 21.1139 7.20641 0
    endloop
  endfacet
  facet normal 0 0 -1
    outer loop
      vertex 19.05 11 0
      vertex 21.1139 7.20641 0
      vertex 20.3942 7.05342 0
    endloop
  endfacet
  facet normal 0 0 -1
    outer loop
      vertex 22.95 18.9 0
      vertex 21.8815 21.72 0
      vertex 22.6279 21.8786 0
    endloop
  endfacet
  facet normal 0 0 -1
    outer loop
      vertex 19.05 11 0
      vertex 20.3942 7.05342 0
      vertex 19.722 6.75414 0
    endloop
  endfacet
  facet normal 0 0 -1
    outer loop
      vertex 19.05 11 0
      vertex 19.722 6.75414 0
      vertex 19.7107 6.74913 0
    endloop
  endfacet
  facet normal 0 0 -1
    outer loop
      vertex 22.95 18.9 0
      vertex 21.1185 21.72 0
      vertex 21.8815 21.72 0
    endloop
  endfacet
  facet normal 0 0 -1
    outer loop
      vertex 19.05 11 0
      vertex 19.7107 6.74913 0
      vertex 19.1154 6.31664 0
    endloop
  endfacet
  facet normal 0 0 -1
    outer loop
      vertex 19.05 11 0
      vertex 19.1154 6.31664 0
      vertex 19.1055 6.3094 0
    endloop
  endfacet
  facet normal 0 0 -1
    outer loop
      vertex 19.05 11 0
      vertex 19.1055 6.3094 0
      vertex 19.0972 6.30024 0
    endloop
  endfacet
  facet normal -0 0 -1
    outer loop
      vertex 21.1185 21.72 0
      vertex 19.05 18.9 0
      vertex 20.3721 21.8786 0
    endloop
  endfacet
  facet normal -0 0 -1
    outer loop
      vertex 20.3721 21.8786 0
      vertex 19.05 18.9 0
      vertex 19.675 22.189 0
    endloop
  endfacet
  facet normal 0 0 -1
    outer loop
      vertex 18.6049 5.75343 0
      vertex 19.05 11 0
      vertex 19.0972 6.30024 0
    endloop
  endfacet
  facet normal 0 0 -1
    outer loop
      vertex 12.95 11 0
      vertex 18.6049 5.75343 0
      vertex 18.237 5.1162 0
    endloop
  endfacet
  facet normal 0 0 -1
    outer loop
      vertex 12.95 11 0
      vertex 18.237 5.1162 0
      vertex 18.2308 5.10554 0
    endloop
  endfacet
  facet normal 0 0 -1
    outer loop
      vertex 12.95 11 0
      vertex 18.2308 5.10554 0
      vertex 18.0034 4.40574 0
    endloop
  endfacet
  facet normal 0 0 -1
    outer loop
      vertex 12.95 11 0
      vertex 18.0034 4.40574 0
      vertex 17.9996 4.39403 0
    endloop
  endfacet
  facet normal 0 0 -1
    outer loop
      vertex 12.95 11 0
      vertex 17.9983 4.38177 0
      vertex 17.9214 3.65 0
    endloop
  endfacet
  facet normal 0 0 -1
    outer loop
      vertex 18.6049 5.75343 0
      vertex 12.95 11 0
      vertex 19.05 11 0
    endloop
  endfacet
  facet normal 0 0 -1
    outer loop
      vertex 17.9983 4.38177 0
      vertex 12.95 11 0
      vertex 17.9996 4.39403 0
    endloop
  endfacet
  facet normal -0 0 -1
    outer loop
      vertex 19.675 22.189 0
      vertex 19.05 18.9 0
      vertex 19.0577 22.6375 0
    endloop
  endfacet
  facet normal 0 0 -1
    outer loop
      vertex 19.05 18.9 0
      vertex 18.5471 23.2046 0
      vertex 19.0577 22.6375 0
    endloop
  endfacet
  facet normal 0 0 -1
    outer loop
      vertex 12.95 18.9 0
      vertex 18.5471 23.2046 0
      vertex 19.05 18.9 0
    endloop
  endfacet
  facet normal -0 0 -1
    outer loop
      vertex 18.5471 23.2046 0
      vertex 12.95 18.9 0
      vertex 18.1656 23.8654 0
    endloop
  endfacet
  facet normal -0 0 -1
    outer loop
      vertex 17.9298 24.5911 0
      vertex 12.95 18.9 0
      vertex 17.85 25.35 0
    endloop
  endfacet
  facet normal -0 0 -1
    outer loop
      vertex 18.1656 23.8654 0
      vertex 12.95 18.9 0
      vertex 17.9298 24.5911 0
    endloop
  endfacet
  facet normal 0 1 -0
    outer loop
      vertex 9.05 11 0
      vertex 2.95 11 2
      vertex 9.05 11 2
    endloop
  endfacet
  facet normal 0 1 0
    outer loop
      vertex 2.95 11 2
      vertex 9.05 11 0
      vertex 2.95 11 0
    endloop
  endfacet
  facet normal 0 -1 0
    outer loop
      vertex 2.95 18.9 0
      vertex 9.05 18.9 2
      vertex 2.95 18.9 2
    endloop
  endfacet
  facet normal 0 -1 -0
    outer loop
      vertex 9.05 18.9 2
      vertex 2.95 18.9 0
      vertex 9.05 18.9 0
    endloop
  endfacet
  facet normal 1 -0 0
    outer loop
      vertex 12.95 11 2
      vertex 12.95 18.9 0
      vertex 12.95 18.9 2
    endloop
  endfacet
  facet normal 1 0 0
    outer loop
      vertex 12.95 18.9 0
      vertex 12.95 11 2
      vertex 12.95 11 0
    endloop
  endfacet
  facet normal -1 0 0
    outer loop
      vertex 19.05 11 0
      vertex 19.05 18.9 2
      vertex 19.05 18.9 0
    endloop
  endfacet
  facet normal -1 -0 0
    outer loop
      vertex 19.05 18.9 2
      vertex 19.05 11 0
      vertex 19.05 11 2
    endloop
  endfacet
  facet normal 0 -1 0
    outer loop
      vertex 12.95 18.9 0
      vertex 19.05 18.9 2
      vertex 12.95 18.9 2
    endloop
  endfacet
  facet normal 0 -1 -0
    outer loop
      vertex 19.05 18.9 2
      vertex 12.95 18.9 0
      vertex 19.05 18.9 0
    endloop
  endfacet
  facet normal 0 1 -0
    outer loop
      vertex 19.05 11 0
      vertex 12.95 11 2
      vertex 19.05 11 2
    endloop
  endfacet
  facet normal 0 1 0
    outer loop
      vertex 12.95 11 2
      vertex 19.05 11 0
      vertex 12.95 11 0
    endloop
  endfacet
  facet normal 1 -0 0
    outer loop
      vertex 22.95 11 2
      vertex 22.95 18.9 0
      vertex 22.95 18.9 2
    endloop
  endfacet
  facet normal 1 0 0
    outer loop
      vertex 22.95 18.9 0
      vertex 22.95 11 2
      vertex 22.95 11 0
    endloop
  endfacet
  facet normal -1 0 0
    outer loop
      vertex 29.05 11 0
      vertex 29.05 18.9 2
      vertex 29.05 18.9 0
    endloop
  endfacet
  facet normal -1 -0 0
    outer loop
      vertex 29.05 18.9 2
      vertex 29.05 11 0
      vertex 29.05 11 2
    endloop
  endfacet
  facet normal 0 1 -0
    outer loop
      vertex 29.05 11 0
      vertex 22.95 11 2
      vertex 29.05 11 2
    endloop
  endfacet
  facet normal 0 1 0
    outer loop
      vertex 22.95 11 2
      vertex 29.05 11 0
      vertex 22.95 11 0
    endloop
  endfacet
  facet normal 0 -1 0
    outer loop
      vertex 22.95 18.9 0
      vertex 29.05 18.9 2
      vertex 22.95 18.9 2
    endloop
  endfacet
  facet normal 0 -1 -0
    outer loop
      vertex 29.05 18.9 2
      vertex 22.95 18.9 0
      vertex 29.05 18.9 0
    endloop
  endfacet
  facet normal 1 -0 0
    outer loop
      vertex 32.95 11 2
      vertex 32.95 18.9 0
      vertex 32.95 18.9 2
    endloop
  endfacet
  facet normal 1 0 0
    outer loop
      vertex 32.95 18.9 0
      vertex 32.95 11 2
      vertex 32.95 11 0
    endloop
  endfacet
  facet normal -1 0 0
    outer loop
      vertex 39.05 11 0
      vertex 39.05 18.9 2
      vertex 39.05 18.9 0
    endloop
  endfacet
  facet normal -1 -0 0
    outer loop
      vertex 39.05 18.9 2
      vertex 39.05 11 0
      vertex 39.05 11 2
    endloop
  endfacet
  facet normal 0 1 -0
    outer loop
      vertex 39.05 11 0
      vertex 32.95 11 2
      vertex 39.05 11 2
    endloop
  endfacet
  facet normal 0 1 0
    outer loop
      vertex 32.95 11 2
      vertex 39.05 11 0
      vertex 32.95 11 0
    endloop
  endfacet
  facet normal 0 -1 0
    outer loop
      vertex 32.95 18.9 0
      vertex 39.05 18.9 2
      vertex 32.95 18.9 2
    endloop
  endfacet
  facet normal 0 -1 -0
    outer loop
      vertex 39.05 18.9 2
      vertex 32.95 18.9 0
      vertex 39.05 18.9 0
    endloop
  endfacet
  facet normal -1 0 0
    outer loop
      vertex 0 0 0
      vertex 0 29 6
      vertex 0 29 0
    endloop
  endfacet
  facet normal -1 -0 0
    outer loop
      vertex 0 29 6
      vertex 0 0 0
      vertex 0 0 6
    endloop
  endfacet
  facet normal 0 0 1
    outer loop
      vertex 43 29 6
      vertex 41 21 6
      vertex 43 16.232 6
    endloop
  endfacet
  facet normal -0 0 1
    outer loop
      vertex 23.1139 25.6931 6
      vertex 41 21 6
      vertex 43 29 6
    endloop
  endfacet
  facet normal 0 0 1
    outer loop
      vertex 41 21 6
      vertex 23.1139 25.6931 6
      vertex 23.15 25.35 6
    endloop
  endfacet
  facet normal 0 0 1
    outer loop
      vertex 43 29 6
      vertex 23.0074 26.0211 6
      vertex 23.1139 25.6931 6
    endloop
  endfacet
  facet normal 0 0 1
    outer loop
      vertex 43 29 6
      vertex 22.8349 26.3198 6
      vertex 23.0074 26.0211 6
    endloop
  endfacet
  facet normal 0 0 1
    outer loop
      vertex 43 29 6
      vertex 22.6041 26.5762 6
      vertex 22.8349 26.3198 6
    endloop
  endfacet
  facet normal 0 0 1
    outer loop
      vertex 43 29 6
      vertex 22.325 26.7789 6
      vertex 22.6041 26.5762 6
    endloop
  endfacet
  facet normal 0 0 1
    outer loop
      vertex 43 29 6
      vertex 22.0099 26.9192 6
      vertex 22.325 26.7789 6
    endloop
  endfacet
  facet normal 0 0 1
    outer loop
      vertex 43 29 6
      vertex 21.6725 26.991 6
      vertex 22.0099 26.9192 6
    endloop
  endfacet
  facet normal 0 0 1
    outer loop
      vertex 43 29 6
      vertex 21.3275 26.991 6
      vertex 21.6725 26.991 6
    endloop
  endfacet
  facet normal 0 0 1
    outer loop
      vertex 19.8861 25.6931 6
      vertex 2 21 6
      vertex 19.85 25.35 6
    endloop
  endfacet
  facet normal 0 0 1
    outer loop
      vertex 0 29 6
      vertex 19.8861 25.6931 6
      vertex 19.9926 26.0211 6
    endloop
  endfacet
  facet normal 0 0 1
    outer loop
      vertex 0 29 6
      vertex 19.9926 26.0211 6
      vertex 20.1651 26.3198 6
    endloop
  endfacet
  facet normal 0 0 1
    outer loop
      vertex 0 29 6
      vertex 20.1651 26.3198 6
      vertex 20.3959 26.5762 6
    endloop
  endfacet
  facet normal 0 0 1
    outer loop
      vertex 0 29 6
      vertex 20.3959 26.5762 6
      vertex 20.675 26.7789 6
    endloop
  endfacet
  facet normal 0 0 1
    outer loop
      vertex 0 29 6
      vertex 20.675 26.7789 6
      vertex 20.9901 26.9192 6
    endloop
  endfacet
  facet normal 0 0 1
    outer loop
      vertex 2 21 6
      vertex 0 29 6
      vertex 2 8 6
    endloop
  endfacet
  facet normal 0 0 1
    outer loop
      vertex 19.8861 25.6931 6
      vertex 0 29 6
      vertex 2 21 6
    endloop
  endfacet
  facet normal 0 0 1
    outer loop
      vertex 21.3275 26.991 6
      vertex 0 29 6
      vertex 20.9901 26.9192 6
    endloop
  endfacet
  facet normal -0 0 1
    outer loop
      vertex 0 29 6
      vertex 21.3275 26.991 6
      vertex 43 29 6
    endloop
  endfacet
  facet normal 0 0 1
    outer loop
      vertex 43 16.232 6
      vertex 41 21 6
      vertex 41 16.232 6
    endloop
  endfacet
  facet normal -0 0 1
    outer loop
      vertex 23.1139 25.0069 6
      vertex 41 21 6
      vertex 23.15 25.35 6
    endloop
  endfacet
  facet normal -0 0 1
    outer loop
      vertex 23.0074 24.6789 6
      vertex 41 21 6
      vertex 23.1139 25.0069 6
    endloop
  endfacet
  facet normal -0 0 1
    outer loop
      vertex 22.8349 24.3802 6
      vertex 41 21 6
      vertex 23.0074 24.6789 6
    endloop
  endfacet
  facet normal -0 0 1
    outer loop
      vertex 22.6041 24.1238 6
      vertex 41 21 6
      vertex 22.8349 24.3802 6
    endloop
  endfacet
  facet normal -0 0 1
    outer loop
      vertex 22.325 23.9211 6
      vertex 41 21 6
      vertex 22.6041 24.1238 6
    endloop
  endfacet
  facet normal -0 0 1
    outer loop
      vertex 22.0099 23.7808 6
      vertex 41 21 6
      vertex 22.325 23.9211 6
    endloop
  endfacet
  facet normal -0 0 1
    outer loop
      vertex 21.6725 23.709 6
      vertex 41 21 6
      vertex 22.0099 23.7808 6
    endloop
  endfacet
  facet normal -0 0 1
    outer loop
      vertex 21.3275 23.709 6
      vertex 41 21 6
      vertex 21.6725 23.709 6
    endloop
  endfacet
  facet normal 0 0 1
    outer loop
      vertex 21.3275 23.709 6
      vertex 2 21 6
      vertex 41 21 6
    endloop
  endfacet
  facet normal 0 0 1
    outer loop
      vertex 20.9901 23.7808 6
      vertex 2 21 6
      vertex 21.3275 23.709 6
    endloop
  endfacet
  facet normal 0 0 1
    outer loop
      vertex 20.675 23.9211 6
      vertex 2 21 6
      vertex 20.9901 23.7808 6
    endloop
  endfacet
  facet normal 0 0 1
    outer loop
      vertex 20.3959 24.1238 6
      vertex 2 21 6
      vertex 20.675 23.9211 6
    endloop
  endfacet
  facet normal 0 0 1
    outer loop
      vertex 20.1651 24.3802 6
      vertex 2 21 6
      vertex 20.3959 24.1238 6
    endloop
  endfacet
  facet normal 0 0 1
    outer loop
      vertex 19.9926 24.6789 6
      vertex 2 21 6
      vertex 20.1651 24.3802 6
    endloop
  endfacet
  facet normal 0 0 1
    outer loop
      vertex 19.8861 25.0069 6
      vertex 2 21 6
      vertex 19.9926 24.6789 6
    endloop
  endfacet
  facet normal 0 0 1
    outer loop
      vertex 2 21 6
      vertex 19.8861 25.0069 6
      vertex 19.85 25.35 6
    endloop
  endfacet
  facet normal 0 0 1
    outer loop
      vertex 41 8 6
      vertex 23.1139 3.99305 6
      vertex 23.15 3.65 6
    endloop
  endfacet
  facet normal 0 0 1
    outer loop
      vertex 41 8 6
      vertex 23.0074 4.32111 6
      vertex 23.1139 3.99305 6
    endloop
  endfacet
  facet normal 0 0 1
    outer loop
      vertex 41 8 6
      vertex 22.8349 4.61985 6
      vertex 23.0074 4.32111 6
    endloop
  endfacet
  facet normal 0 0 1
    outer loop
      vertex 41 8 6
      vertex 22.6041 4.87619 6
      vertex 22.8349 4.61985 6
    endloop
  endfacet
  facet normal 0 0 1
    outer loop
      vertex 41 8 6
      vertex 22.325 5.07894 6
      vertex 22.6041 4.87619 6
    endloop
  endfacet
  facet normal 0 0 1
    outer loop
      vertex 41 8 6
      vertex 22.0099 5.21924 6
      vertex 22.325 5.07894 6
    endloop
  endfacet
  facet normal 0 0 1
    outer loop
      vertex 41 8 6
      vertex 21.6725 5.29096 6
      vertex 22.0099 5.21924 6
    endloop
  endfacet
  facet normal 0 0 1
    outer loop
      vertex 41 8 6
      vertex 21.3275 5.29096 6
      vertex 21.6725 5.29096 6
    endloop
  endfacet
  facet normal 0 0 1
    outer loop
      vertex 19.8861 3.99305 6
      vertex 2 8 6
      vertex 19.85 3.65 6
    endloop
  endfacet
  facet normal 0 0 1
    outer loop
      vertex 19.9926 4.32111 6
      vertex 2 8 6
      vertex 19.8861 3.99305 6
    endloop
  endfacet
  facet normal 0 0 1
    outer loop
      vertex 20.1651 4.61985 6
      vertex 2 8 6
      vertex 19.9926 4.32111 6
    endloop
  endfacet
  facet normal 0 0 1
    outer loop
      vertex 20.3959 4.87619 6
      vertex 2 8 6
      vertex 20.1651 4.61985 6
    endloop
  endfacet
  facet normal 0 0 1
    outer loop
      vertex 20.675 5.07894 6
      vertex 2 8 6
      vertex 20.3959 4.87619 6
    endloop
  endfacet
  facet normal 0 0 1
    outer loop
      vertex 20.9901 5.21924 6
      vertex 2 8 6
      vertex 20.675 5.07894 6
    endloop
  endfacet
  facet normal 0 0 1
    outer loop
      vertex 21.3275 5.29096 6
      vertex 2 8 6
      vertex 20.9901 5.21924 6
    endloop
  endfacet
  facet normal -0 0 1
    outer loop
      vertex 2 8 6
      vertex 21.3275 5.29096 6
      vertex 41 8 6
    endloop
  endfacet
  facet normal 0 0 1
    outer loop
      vertex 41 8 6
      vertex 43 12.7679 6
      vertex 41 12.7679 6
    endloop
  endfacet
  facet normal 0 0 1
    outer loop
      vertex 43 12.7679 6
      vertex 41 8 6
      vertex 43 0 6
    endloop
  endfacet
  facet normal 0 0 1
    outer loop
      vertex 23.1139 3.30694 6
      vertex 41 8 6
      vertex 23.15 3.65 6
    endloop
  endfacet
  facet normal 0 0 1
    outer loop
      vertex 41 8 6
      vertex 23.1139 3.30694 6
      vertex 43 0 6
    endloop
  endfacet
  facet normal -0 0 1
    outer loop
      vertex 23.0074 2.97888 6
      vertex 43 0 6
      vertex 23.1139 3.30694 6
    endloop
  endfacet
  facet normal -0 0 1
    outer loop
      vertex 22.8349 2.68015 6
      vertex 43 0 6
      vertex 23.0074 2.97888 6
    endloop
  endfacet
  facet normal -0 0 1
    outer loop
      vertex 22.6041 2.42381 6
      vertex 43 0 6
      vertex 22.8349 2.68015 6
    endloop
  endfacet
  facet normal -0 0 1
    outer loop
      vertex 22.325 2.22106 6
      vertex 43 0 6
      vertex 22.6041 2.42381 6
    endloop
  endfacet
  facet normal -0 0 1
    outer loop
      vertex 22.0099 2.08076 6
      vertex 43 0 6
      vertex 22.325 2.22106 6
    endloop
  endfacet
  facet normal -0 0 1
    outer loop
      vertex 21.6725 2.00904 6
      vertex 43 0 6
      vertex 22.0099 2.08076 6
    endloop
  endfacet
  facet normal -0 0 1
    outer loop
      vertex 21.3275 2.00904 6
      vertex 43 0 6
      vertex 21.6725 2.00904 6
    endloop
  endfacet
  facet normal 0 0 1
    outer loop
      vertex 2 8 6
      vertex 19.8861 3.30694 6
      vertex 19.85 3.65 6
    endloop
  endfacet
  facet normal 0 0 1
    outer loop
      vertex 0 0 6
      vertex 19.8861 3.30694 6
      vertex 2 8 6
    endloop
  endfacet
  facet normal 0 0 1
    outer loop
      vertex 19.8861 3.30694 6
      vertex 0 0 6
      vertex 19.9926 2.97888 6
    endloop
  endfacet
  facet normal 0 0 1
    outer loop
      vertex 19.9926 2.97888 6
      vertex 0 0 6
      vertex 20.1651 2.68015 6
    endloop
  endfacet
  facet normal 0 0 1
    outer loop
      vertex 20.1651 2.68015 6
      vertex 0 0 6
      vertex 20.3959 2.42381 6
    endloop
  endfacet
  facet normal 0 0 1
    outer loop
      vertex 20.3959 2.42381 6
      vertex 0 0 6
      vertex 20.675 2.22106 6
    endloop
  endfacet
  facet normal 0 0 1
    outer loop
      vertex 21.3275 2.00904 6
      vertex 0 0 6
      vertex 43 0 6
    endloop
  endfacet
  facet normal 0 0 1
    outer loop
      vertex 20.9901 2.08076 6
      vertex 0 0 6
      vertex 21.3275 2.00904 6
    endloop
  endfacet
  facet normal 0 0 1
    outer loop
      vertex 20.675 2.22106 6
      vertex 0 0 6
      vertex 20.9901 2.08076 6
    endloop
  endfacet
  facet normal 0 0 1
    outer loop
      vertex 0 0 6
      vertex 2 8 6
      vertex 0 29 6
    endloop
  endfacet
  facet normal 1 0 0
    outer loop
      vertex 43 12.511 5.20906
      vertex 43 0 6
      vertex 43 12.511 4.79094
    endloop
  endfacet
  facet normal 1 0 0
    outer loop
      vertex 43 12.5979 5.61803
      vertex 43 0 6
      vertex 43 12.511 5.20906
    endloop
  endfacet
  facet normal 1 -0 0
    outer loop
      vertex 43 0 6
      vertex 43 12.5979 5.61803
      vertex 43 12.7679 6
    endloop
  endfacet
  facet normal 1 0 0
    outer loop
      vertex 43 16.489 4.79094
      vertex 43 29 6
      vertex 43 16.489 5.20906
    endloop
  endfacet
  facet normal 1 0 0
    outer loop
      vertex 43 29 6
      vertex 43 16.4021 5.61803
      vertex 43 16.489 5.20906
    endloop
  endfacet
  facet normal 1 0 -0
    outer loop
      vertex 43 16.4021 5.61803
      vertex 43 29 6
      vertex 43 16.232 6
    endloop
  endfacet
  facet normal 1 0 0
    outer loop
      vertex 43 16.4021 4.38197
      vertex 43 29 6
      vertex 43 16.489 4.79094
    endloop
  endfacet
  facet normal 1 0 0
    outer loop
      vertex 43 29 6
      vertex 43 16.4021 4.38197
      vertex 43 29 0
    endloop
  endfacet
  facet normal 1 -0 0
    outer loop
      vertex 43 16.232 4
      vertex 43 29 0
      vertex 43 16.4021 4.38197
    endloop
  endfacet
  facet normal 1 -0 0
    outer loop
      vertex 43 15.9863 3.66174
      vertex 43 29 0
      vertex 43 16.232 4
    endloop
  endfacet
  facet normal 1 -0 0
    outer loop
      vertex 43 15.6756 3.38197
      vertex 43 29 0
      vertex 43 15.9863 3.66174
    endloop
  endfacet
  facet normal 1 -0 0
    outer loop
      vertex 43 15.3135 3.17291
      vertex 43 29 0
      vertex 43 15.6756 3.38197
    endloop
  endfacet
  facet normal 1 -0 0
    outer loop
      vertex 43 14.9158 3.0437
      vertex 43 29 0
      vertex 43 15.3135 3.17291
    endloop
  endfacet
  facet normal 1 -0 0
    outer loop
      vertex 43 14.5 3
      vertex 43 29 0
      vertex 43 14.9158 3.0437
    endloop
  endfacet
  facet normal 1 0 0
    outer loop
      vertex 43 0 0
      vertex 43 14.5 3
      vertex 43 14.0842 3.0437
    endloop
  endfacet
  facet normal 1 0 0
    outer loop
      vertex 43 0 6
      vertex 43 12.5979 4.38197
      vertex 43 12.511 4.79094
    endloop
  endfacet
  facet normal 1 0 0
    outer loop
      vertex 43 0 0
      vertex 43 12.5979 4.38197
      vertex 43 0 6
    endloop
  endfacet
  facet normal 1 0 0
    outer loop
      vertex 43 12.5979 4.38197
      vertex 43 0 0
      vertex 43 12.7679 4
    endloop
  endfacet
  facet normal 1 0 0
    outer loop
      vertex 43 12.7679 4
      vertex 43 0 0
      vertex 43 13.0137 3.66174
    endloop
  endfacet
  facet normal 1 0 0
    outer loop
      vertex 43 13.0137 3.66174
      vertex 43 0 0
      vertex 43 13.3244 3.38197
    endloop
  endfacet
  facet normal 1 0 0
    outer loop
      vertex 43 13.3244 3.38197
      vertex 43 0 0
      vertex 43 13.6865 3.17291
    endloop
  endfacet
  facet normal 1 0 0
    outer loop
      vertex 43 14.5 3
      vertex 43 0 0
      vertex 43 29 0
    endloop
  endfacet
  facet normal 1 0 0
    outer loop
      vertex 43 13.6865 3.17291
      vertex 43 0 0
      vertex 43 14.0842 3.0437
    endloop
  endfacet
  facet normal 0 1 -0
    outer loop
      vertex 43 29 0
      vertex 0 29 6
      vertex 43 29 6
    endloop
  endfacet
  facet normal 0 1 0
    outer loop
      vertex 0 29 6
      vertex 43 29 0
      vertex 0 29 0
    endloop
  endfacet
  facet normal 0 -1 0
    outer loop
      vertex 0 0 0
      vertex 43 0 6
      vertex 0 0 6
    endloop
  endfacet
  facet normal 0 -1 -0
    outer loop
      vertex 43 0 6
      vertex 0 0 0
      vertex 43 0 0
    endloop
  endfacet
  facet normal 1 -0 0
    outer loop
      vertex 2 8 6
      vertex 2 21 2
      vertex 2 21 6
    endloop
  endfacet
  facet normal 1 0 0
    outer loop
      vertex 2 21 2
      vertex 2 8 6
      vertex 2 8 2
    endloop
  endfacet
  facet normal -1 0 0
    outer loop
      vertex 41 21 2
      vertex 41 16.489 4.79094
      vertex 41 21 6
    endloop
  endfacet
  facet normal -1 0 0
    outer loop
      vertex 41 21 2
      vertex 41 16.4021 4.38197
      vertex 41 16.489 4.79094
    endloop
  endfacet
  facet normal -1 0 0
    outer loop
      vertex 41 21 2
      vertex 41 16.232 4
      vertex 41 16.4021 4.38197
    endloop
  endfacet
  facet normal -1 0 0
    outer loop
      vertex 41 21 2
      vertex 41 15.9863 3.66174
      vertex 41 16.232 4
    endloop
  endfacet
  facet normal -1 0 0
    outer loop
      vertex 41 21 2
      vertex 41 15.6756 3.38197
      vertex 41 15.9863 3.66174
    endloop
  endfacet
  facet normal -1 0 0
    outer loop
      vertex 41 21 2
      vertex 41 15.3135 3.17291
      vertex 41 15.6756 3.38197
    endloop
  endfacet
  facet normal -1 0 0
    outer loop
      vertex 41 21 2
      vertex 41 14.9158 3.0437
      vertex 41 15.3135 3.17291
    endloop
  endfacet
  facet normal -1 0 0
    outer loop
      vertex 41 21 2
      vertex 41 14.5 3
      vertex 41 14.9158 3.0437
    endloop
  endfacet
  facet normal -1 0 0
    outer loop
      vertex 41 8 2
      vertex 41 14.5 3
      vertex 41 21 2
    endloop
  endfacet
  facet normal -1 0 0
    outer loop
      vertex 41 8 6
      vertex 41 12.511 4.79094
      vertex 41 8 2
    endloop
  endfacet
  facet normal -1 -0 0
    outer loop
      vertex 41 12.5979 4.38197
      vertex 41 8 2
      vertex 41 12.511 4.79094
    endloop
  endfacet
  facet normal -1 -0 0
    outer loop
      vertex 41 12.7679 4
      vertex 41 8 2
      vertex 41 12.5979 4.38197
    endloop
  endfacet
  facet normal -1 -0 0
    outer loop
      vertex 41 13.0137 3.66174
      vertex 41 8 2
      vertex 41 12.7679 4
    endloop
  endfacet
  facet normal -1 -0 0
    outer loop
      vertex 41 13.3244 3.38197
      vertex 41 8 2
      vertex 41 13.0137 3.66174
    endloop
  endfacet
  facet normal -1 -0 0
    outer loop
      vertex 41 13.6865 3.17291
      vertex 41 8 2
      vertex 41 13.3244 3.38197
    endloop
  endfacet
  facet normal -1 -0 0
    outer loop
      vertex 41 14.0842 3.0437
      vertex 41 8 2
      vertex 41 13.6865 3.17291
    endloop
  endfacet
  facet normal -1 -0 0
    outer loop
      vertex 41 14.5 3
      vertex 41 8 2
      vertex 41 14.0842 3.0437
    endloop
  endfacet
  facet normal -1 0 0
    outer loop
      vertex 41 16.489 5.20906
      vertex 41 21 6
      vertex 41 16.489 4.79094
    endloop
  endfacet
  facet normal -1 0 0
    outer loop
      vertex 41 16.4021 5.61803
      vertex 41 21 6
      vertex 41 16.489 5.20906
    endloop
  endfacet
  facet normal -1 -0 0
    outer loop
      vertex 41 21 6
      vertex 41 16.4021 5.61803
      vertex 41 16.232 6
    endloop
  endfacet
  facet normal -1 0 0
    outer loop
      vertex 41 12.511 4.79094
      vertex 41 8 6
      vertex 41 12.511 5.20906
    endloop
  endfacet
  facet normal -1 0 0
    outer loop
      vertex 41 12.511 5.20906
      vertex 41 8 6
      vertex 41 12.5979 5.61803
    endloop
  endfacet
  facet normal -1 0 0
    outer loop
      vertex 41 12.5979 5.61803
      vertex 41 8 6
      vertex 41 12.7679 6
    endloop
  endfacet
  facet normal 0 -1 0
    outer loop
      vertex 2 21 2
      vertex 41 21 6
      vertex 2 21 6
    endloop
  endfacet
  facet normal 0 -1 -0
    outer loop
      vertex 41 21 6
      vertex 2 21 2
      vertex 41 21 2
    endloop
  endfacet
  facet normal 0 0 1
    outer loop
      vertex 39.05 11 2
      vertex 41 21 2
      vertex 39.05 18.9 2
    endloop
  endfacet
  facet normal 0 0 1
    outer loop
      vertex 41 21 2
      vertex 32.95 18.9 2
      vertex 39.05 18.9 2
    endloop
  endfacet
  facet normal 0 0 1
    outer loop
      vertex 32.95 18.9 2
      vertex 29.05 18.9 2
      vertex 32.95 11 2
    endloop
  endfacet
  facet normal 0 0 1
    outer loop
      vertex 41 21 2
      vertex 29.05 18.9 2
      vertex 32.95 18.9 2
    endloop
  endfacet
  facet normal 0 0 1
    outer loop
      vertex 41 21 2
      vertex 22.95 18.9 2
      vertex 29.05 18.9 2
    endloop
  endfacet
  facet normal 0 0 1
    outer loop
      vertex 22.95 18.9 2
      vertex 19.05 18.9 2
      vertex 22.95 11 2
    endloop
  endfacet
  facet normal 0 0 1
    outer loop
      vertex 41 21 2
      vertex 19.05 18.9 2
      vertex 22.95 18.9 2
    endloop
  endfacet
  facet normal -0 0 1
    outer loop
      vertex 2 21 2
      vertex 19.05 18.9 2
      vertex 41 21 2
    endloop
  endfacet
  facet normal 0 0 1
    outer loop
      vertex 12.95 18.9 2
      vertex 9.05 18.9 2
      vertex 12.95 11 2
    endloop
  endfacet
  facet normal 0 0 1
    outer loop
      vertex 19.05 18.9 2
      vertex 2 21 2
      vertex 12.95 18.9 2
    endloop
  endfacet
  facet normal 0 0 1
    outer loop
      vertex 12.95 18.9 2
      vertex 2 21 2
      vertex 9.05 18.9 2
    endloop
  endfacet
  facet normal 0 0 1
    outer loop
      vertex 2.95 18.9 2
      vertex 2 21 2
      vertex 2.95 11 2
    endloop
  endfacet
  facet normal 0 0 1
    outer loop
      vertex 9.05 18.9 2
      vertex 2 21 2
      vertex 2.95 18.9 2
    endloop
  endfacet
  facet normal 0 0 1
    outer loop
      vertex 41 21 2
      vertex 39.05 11 2
      vertex 41 8 2
    endloop
  endfacet
  facet normal -0 0 1
    outer loop
      vertex 32.95 11 2
      vertex 41 8 2
      vertex 39.05 11 2
    endloop
  endfacet
  facet normal 0 0 1
    outer loop
      vertex 29.05 11 2
      vertex 32.95 11 2
      vertex 29.05 18.9 2
    endloop
  endfacet
  facet normal -0 0 1
    outer loop
      vertex 29.05 11 2
      vertex 41 8 2
      vertex 32.95 11 2
    endloop
  endfacet
  facet normal -0 0 1
    outer loop
      vertex 22.95 11 2
      vertex 41 8 2
      vertex 29.05 11 2
    endloop
  endfacet
  facet normal 0 0 1
    outer loop
      vertex 19.05 11 2
      vertex 22.95 11 2
      vertex 19.05 18.9 2
    endloop
  endfacet
  facet normal -0 0 1
    outer loop
      vertex 19.05 11 2
      vertex 41 8 2
      vertex 22.95 11 2
    endloop
  endfacet
  facet normal 0 0 1
    outer loop
      vertex 2 8 2
      vertex 19.05 11 2
      vertex 12.95 11 2
    endloop
  endfacet
  facet normal 0 0 1
    outer loop
      vertex 9.05 11 2
      vertex 12.95 11 2
      vertex 9.05 18.9 2
    endloop
  endfacet
  facet normal 0 0 1
    outer loop
      vertex 2 8 2
      vertex 12.95 11 2
      vertex 9.05 11 2
    endloop
  endfacet
  facet normal 0 0 1
    outer loop
      vertex 2 8 2
      vertex 9.05 11 2
      vertex 2.95 11 2
    endloop
  endfacet
  facet normal 0 0 1
    outer loop
      vertex 19.05 11 2
      vertex 2 8 2
      vertex 41 8 2
    endloop
  endfacet
  facet normal 0 0 1
    outer loop
      vertex 2 8 2
      vertex 2.95 11 2
      vertex 2 21 2
    endloop
  endfacet
  facet normal 0 1 -0
    outer loop
      vertex 41 8 2
      vertex 2 8 6
      vertex 41 8 6
    endloop
  endfacet
  facet normal 0 1 0
    outer loop
      vertex 2 8 6
      vertex 41 8 2
      vertex 2 8 2
    endloop
  endfacet
  facet normal 0 -0.104523 0.994522
    outer loop
      vertex 41 14.9158 3.0437
      vertex 43 14.5 3
      vertex 43 14.9158 3.0437
    endloop
  endfacet
  facet normal 0 -0.104523 0.994522
    outer loop
      vertex 43 14.5 3
      vertex 41 14.9158 3.0437
      vertex 41 14.5 3
    endloop
  endfacet
  facet normal 0 1 -0
    outer loop
      vertex 43 12.511 4.79094
      vertex 41 12.511 5.20906
      vertex 43 12.511 5.20906
    endloop
  endfacet
  facet normal 0 1 0
    outer loop
      vertex 41 12.511 5.20906
      vertex 43 12.511 4.79094
      vertex 41 12.511 4.79094
    endloop
  endfacet
  facet normal 0 -0.913513 -0.406808
    outer loop
      vertex 41 16.4021 5.61803
      vertex 43 16.232 6
      vertex 41 16.232 6
    endloop
  endfacet
  facet normal 0 -0.913513 -0.406808
    outer loop
      vertex 43 16.232 6
      vertex 41 16.4021 5.61803
      vertex 43 16.4021 5.61803
    endloop
  endfacet
  facet normal -0 0.500003 0.866024
    outer loop
      vertex 41 13.6865 3.17291
      vertex 43 13.3244 3.38197
      vertex 43 13.6865 3.17291
    endloop
  endfacet
  facet normal 0 0.500003 0.866024
    outer loop
      vertex 43 13.3244 3.38197
      vertex 41 13.6865 3.17291
      vertex 41 13.3244 3.38197
    endloop
  endfacet
  facet normal 0 -0.308994 0.951064
    outer loop
      vertex 41 15.3135 3.17291
      vertex 43 14.9158 3.0437
      vertex 43 15.3135 3.17291
    endloop
  endfacet
  facet normal 0 -0.308994 0.951064
    outer loop
      vertex 43 14.9158 3.0437
      vertex 41 15.3135 3.17291
      vertex 41 14.9158 3.0437
    endloop
  endfacet
  facet normal 0 -0.66915 0.743128
    outer loop
      vertex 41 15.9863 3.66174
      vertex 43 15.6756 3.38197
      vertex 43 15.9863 3.66174
    endloop
  endfacet
  facet normal 0 -0.66915 0.743128
    outer loop
      vertex 43 15.6756 3.38197
      vertex 41 15.9863 3.66174
      vertex 41 15.6756 3.38197
    endloop
  endfacet
  facet normal 0 -0.978162 0.207845
    outer loop
      vertex 41 16.4021 4.38197
      vertex 43 16.489 4.79094
      vertex 41 16.489 4.79094
    endloop
  endfacet
  facet normal 0 -0.978162 0.207845
    outer loop
      vertex 43 16.489 4.79094
      vertex 41 16.4021 4.38197
      vertex 43 16.4021 4.38197
    endloop
  endfacet
  facet normal 0 -0.809086 0.587691
    outer loop
      vertex 41 15.9863 3.66174
      vertex 43 16.232 4
      vertex 41 16.232 4
    endloop
  endfacet
  facet normal 0 -0.809086 0.587691
    outer loop
      vertex 43 16.232 4
      vertex 41 15.9863 3.66174
      vertex 43 15.9863 3.66174
    endloop
  endfacet
  facet normal 0 -0.978162 -0.207845
    outer loop
      vertex 41 16.489 5.20906
      vertex 43 16.4021 5.61803
      vertex 41 16.4021 5.61803
    endloop
  endfacet
  facet normal 0 -0.978162 -0.207845
    outer loop
      vertex 43 16.4021 5.61803
      vertex 41 16.489 5.20906
      vertex 43 16.489 5.20906
    endloop
  endfacet
  facet normal 0 0.978162 0.207845
    outer loop
      vertex 43 12.5979 4.38197
      vertex 41 12.511 4.79094
      vertex 43 12.511 4.79094
    endloop
  endfacet
  facet normal 0 0.978162 0.207845
    outer loop
      vertex 41 12.511 4.79094
      vertex 43 12.5979 4.38197
      vertex 41 12.5979 4.38197
    endloop
  endfacet
  facet normal 0 -0.500003 0.866024
    outer loop
      vertex 41 15.6756 3.38197
      vertex 43 15.3135 3.17291
      vertex 43 15.6756 3.38197
    endloop
  endfacet
  facet normal 0 -0.500003 0.866024
    outer loop
      vertex 43 15.3135 3.17291
      vertex 41 15.6756 3.38197
      vertex 41 15.3135 3.17291
    endloop
  endfacet
  facet normal 0 -1 0
    outer loop
      vertex 41 16.489 4.79094
      vertex 43 16.489 5.20906
      vertex 41 16.489 5.20906
    endloop
  endfacet
  facet normal 0 -1 -0
    outer loop
      vertex 43 16.489 5.20906
      vertex 41 16.489 4.79094
      vertex 43 16.489 4.79094
    endloop
  endfacet
  facet normal 0 -0.913513 0.406808
    outer loop
      vertex 41 16.232 4
      vertex 43 16.4021 4.38197
      vertex 41 16.4021 4.38197
    endloop
  endfacet
  facet normal 0 -0.913513 0.406808
    outer loop
      vertex 43 16.4021 4.38197
      vertex 41 16.232 4
      vertex 43 16.232 4
    endloop
  endfacet
  facet normal -0 0.66915 0.743128
    outer loop
      vertex 41 13.3244 3.38197
      vertex 43 13.0137 3.66174
      vertex 43 13.3244 3.38197
    endloop
  endfacet
  facet normal 0 0.66915 0.743128
    outer loop
      vertex 43 13.0137 3.66174
      vertex 41 13.3244 3.38197
      vertex 41 13.0137 3.66174
    endloop
  endfacet
  facet normal -0 0.308994 0.951064
    outer loop
      vertex 41 14.0842 3.0437
      vertex 43 13.6865 3.17291
      vertex 43 14.0842 3.0437
    endloop
  endfacet
  facet normal 0 0.308994 0.951064
    outer loop
      vertex 43 13.6865 3.17291
      vertex 41 14.0842 3.0437
      vertex 41 13.6865 3.17291
    endloop
  endfacet
  facet normal -0 0.104523 0.994522
    outer loop
      vertex 41 14.5 3
      vertex 43 14.0842 3.0437
      vertex 43 14.5 3
    endloop
  endfacet
  facet normal 0 0.104523 0.994522
    outer loop
      vertex 43 14.0842 3.0437
      vertex 41 14.5 3
      vertex 41 14.0842 3.0437
    endloop
  endfacet
  facet normal 0 0.808972 0.587847
    outer loop
      vertex 43 13.0137 3.66174
      vertex 41 12.7679 4
      vertex 43 12.7679 4
    endloop
  endfacet
  facet normal 0 0.808972 0.587847
    outer loop
      vertex 41 12.7679 4
      vertex 43 13.0137 3.66174
      vertex 41 13.0137 3.66174
    endloop
  endfacet
  facet normal 0 0.913602 0.406609
    outer loop
      vertex 43 12.7679 4
      vertex 41 12.5979 4.38197
      vertex 43 12.5979 4.38197
    endloop
  endfacet
  facet normal 0 0.913602 0.406609
    outer loop
      vertex 41 12.5979 4.38197
      vertex 43 12.7679 4
      vertex 41 12.7679 4
    endloop
  endfacet
  facet normal 0 0.978162 -0.207845
    outer loop
      vertex 43 12.511 5.20906
      vertex 41 12.5979 5.61803
      vertex 43 12.5979 5.61803
    endloop
  endfacet
  facet normal 0 0.978162 -0.207845
    outer loop
      vertex 41 12.5979 5.61803
      vertex 43 12.511 5.20906
      vertex 41 12.511 5.20906
    endloop
  endfacet
  facet normal 0 0.913602 -0.406609
    outer loop
      vertex 43 12.5979 5.61803
      vertex 41 12.7679 6
      vertex 43 12.7679 6
    endloop
  endfacet
  facet normal 0 0.913602 -0.406609
    outer loop
      vertex 41 12.7679 6
      vertex 43 12.5979 5.61803
      vertex 41 12.5979 5.61803
    endloop
  endfacet
  facet normal -0.994509 -0.104655 0
    outer loop
      vertex 23.15 3.65 2.7
      vertex 23.1139 3.99305 6
      vertex 23.1139 3.99305 2.7
    endloop
  endfacet
  facet normal -0.994509 -0.104655 0
    outer loop
      vertex 23.1139 3.99305 6
      vertex 23.15 3.65 2.7
      vertex 23.15 3.65 6
    endloop
  endfacet
  facet normal 0.207921 -0.978146 0
    outer loop
      vertex 20.9901 5.21924 2.7
      vertex 21.3275 5.29096 6
      vertex 20.9901 5.21924 6
    endloop
  endfacet
  facet normal 0.207921 -0.978146 0
    outer loop
      vertex 21.3275 5.29096 6
      vertex 20.9901 5.21924 2.7
      vertex 21.3275 5.29096 2.7
    endloop
  endfacet
  facet normal 0.587732 0.809056 -0
    outer loop
      vertex 20.675 2.22106 2.7
      vertex 20.3959 2.42381 6
      vertex 20.675 2.22106 6
    endloop
  endfacet
  facet normal 0.587732 0.809056 0
    outer loop
      vertex 20.3959 2.42381 6
      vertex 20.675 2.22106 2.7
      vertex 20.3959 2.42381 2.7
    endloop
  endfacet
  facet normal -0.587732 -0.809056 0
    outer loop
      vertex 22.325 5.07894 2.7
      vertex 22.6041 4.87619 6
      vertex 22.325 5.07894 6
    endloop
  endfacet
  facet normal -0.587732 -0.809056 -0
    outer loop
      vertex 22.6041 4.87619 6
      vertex 22.325 5.07894 2.7
      vertex 22.6041 4.87619 2.7
    endloop
  endfacet
  facet normal 0.743159 -0.669115 0
    outer loop
      vertex 20.1651 4.61985 6
      vertex 20.3959 4.87619 2.7
      vertex 20.3959 4.87619 6
    endloop
  endfacet
  facet normal 0.743159 -0.669115 0
    outer loop
      vertex 20.3959 4.87619 2.7
      vertex 20.1651 4.61985 6
      vertex 20.1651 4.61985 2.7
    endloop
  endfacet
  facet normal 0.406757 -0.913536 0
    outer loop
      vertex 20.675 5.07894 2.7
      vertex 20.9901 5.21924 6
      vertex 20.675 5.07894 6
    endloop
  endfacet
  facet normal 0.406757 -0.913536 0
    outer loop
      vertex 20.9901 5.21924 6
      vertex 20.675 5.07894 2.7
      vertex 20.9901 5.21924 2.7
    endloop
  endfacet
  facet normal -0.86599 0.500061 0
    outer loop
      vertex 22.8349 2.68015 2.7
      vertex 23.0074 2.97888 6
      vertex 23.0074 2.97888 2.7
    endloop
  endfacet
  facet normal -0.86599 0.500061 0
    outer loop
      vertex 23.0074 2.97888 6
      vertex 22.8349 2.68015 2.7
      vertex 22.8349 2.68015 6
    endloop
  endfacet
  facet normal -0.865997 -0.500049 0
    outer loop
      vertex 23.0074 4.32111 2.7
      vertex 22.8349 4.61985 6
      vertex 22.8349 4.61985 2.7
    endloop
  endfacet
  facet normal -0.865997 -0.500049 0
    outer loop
      vertex 22.8349 4.61985 6
      vertex 23.0074 4.32111 2.7
      vertex 23.0074 4.32111 6
    endloop
  endfacet
  facet normal -0.951136 -0.308773 0
    outer loop
      vertex 23.1139 3.99305 2.7
      vertex 23.0074 4.32111 6
      vertex 23.0074 4.32111 2.7
    endloop
  endfacet
  facet normal -0.951136 -0.308773 0
    outer loop
      vertex 23.0074 4.32111 6
      vertex 23.1139 3.99305 2.7
      vertex 23.1139 3.99305 6
    endloop
  endfacet
  facet normal -0.743159 -0.669115 0
    outer loop
      vertex 22.8349 4.61985 2.7
      vertex 22.6041 4.87619 6
      vertex 22.6041 4.87619 2.7
    endloop
  endfacet
  facet normal -0.743159 -0.669115 0
    outer loop
      vertex 22.6041 4.87619 6
      vertex 22.8349 4.61985 2.7
      vertex 22.8349 4.61985 6
    endloop
  endfacet
  facet normal -0.207921 -0.978146 0
    outer loop
      vertex 21.6725 5.29096 2.7
      vertex 22.0099 5.21924 6
      vertex 21.6725 5.29096 6
    endloop
  endfacet
  facet normal -0.207921 -0.978146 -0
    outer loop
      vertex 22.0099 5.21924 6
      vertex 21.6725 5.29096 2.7
      vertex 22.0099 5.21924 2.7
    endloop
  endfacet
  facet normal 0 -1 0
    outer loop
      vertex 21.3275 5.29096 2.7
      vertex 21.6725 5.29096 6
      vertex 21.3275 5.29096 6
    endloop
  endfacet
  facet normal 0 -1 -0
    outer loop
      vertex 21.6725 5.29096 6
      vertex 21.3275 5.29096 2.7
      vertex 21.6725 5.29096 2.7
    endloop
  endfacet
  facet normal -0.406757 -0.913536 0
    outer loop
      vertex 22.0099 5.21924 2.7
      vertex 22.325 5.07894 6
      vertex 22.0099 5.21924 6
    endloop
  endfacet
  facet normal -0.406757 -0.913536 -0
    outer loop
      vertex 22.325 5.07894 6
      vertex 22.0099 5.21924 2.7
      vertex 22.325 5.07894 2.7
    endloop
  endfacet
  facet normal 0.951136 -0.308773 0
    outer loop
      vertex 19.8861 3.99305 6
      vertex 19.9926 4.32111 2.7
      vertex 19.9926 4.32111 6
    endloop
  endfacet
  facet normal 0.951136 -0.308773 0
    outer loop
      vertex 19.9926 4.32111 2.7
      vertex 19.8861 3.99305 6
      vertex 19.8861 3.99305 2.7
    endloop
  endfacet
  facet normal 0.865997 -0.500049 0
    outer loop
      vertex 19.9926 4.32111 6
      vertex 20.1651 4.61985 2.7
      vertex 20.1651 4.61985 6
    endloop
  endfacet
  facet normal 0.865997 -0.500049 0
    outer loop
      vertex 20.1651 4.61985 2.7
      vertex 19.9926 4.32111 6
      vertex 19.9926 4.32111 2.7
    endloop
  endfacet
  facet normal 0.994509 -0.104655 0
    outer loop
      vertex 19.85 3.65 6
      vertex 19.8861 3.99305 2.7
      vertex 19.8861 3.99305 6
    endloop
  endfacet
  facet normal 0.994509 -0.104655 0
    outer loop
      vertex 19.8861 3.99305 2.7
      vertex 19.85 3.65 6
      vertex 19.85 3.65 2.7
    endloop
  endfacet
  facet normal 0.587732 -0.809056 0
    outer loop
      vertex 20.3959 4.87619 2.7
      vertex 20.675 5.07894 6
      vertex 20.3959 4.87619 6
    endloop
  endfacet
  facet normal 0.587732 -0.809056 0
    outer loop
      vertex 20.675 5.07894 6
      vertex 20.3959 4.87619 2.7
      vertex 20.675 5.07894 2.7
    endloop
  endfacet
  facet normal -0.207921 0.978146 0
    outer loop
      vertex 22.0099 2.08076 2.7
      vertex 21.6725 2.00904 6
      vertex 22.0099 2.08076 6
    endloop
  endfacet
  facet normal -0.207921 0.978146 0
    outer loop
      vertex 21.6725 2.00904 6
      vertex 22.0099 2.08076 2.7
      vertex 21.6725 2.00904 2.7
    endloop
  endfacet
  facet normal -0.587732 0.809056 0
    outer loop
      vertex 22.6041 2.42381 2.7
      vertex 22.325 2.22106 6
      vertex 22.6041 2.42381 6
    endloop
  endfacet
  facet normal -0.587732 0.809056 0
    outer loop
      vertex 22.325 2.22106 6
      vertex 22.6041 2.42381 2.7
      vertex 22.325 2.22106 2.7
    endloop
  endfacet
  facet normal 0.406757 0.913536 -0
    outer loop
      vertex 20.9901 2.08076 2.7
      vertex 20.675 2.22106 6
      vertex 20.9901 2.08076 6
    endloop
  endfacet
  facet normal 0.406757 0.913536 0
    outer loop
      vertex 20.675 2.22106 6
      vertex 20.9901 2.08076 2.7
      vertex 20.675 2.22106 2.7
    endloop
  endfacet
  facet normal 0 1 -0
    outer loop
      vertex 21.6725 2.00904 2.7
      vertex 21.3275 2.00904 6
      vertex 21.6725 2.00904 6
    endloop
  endfacet
  facet normal 0 1 0
    outer loop
      vertex 21.3275 2.00904 6
      vertex 21.6725 2.00904 2.7
      vertex 21.3275 2.00904 2.7
    endloop
  endfacet
  facet normal 0.743159 0.669115 0
    outer loop
      vertex 20.3959 2.42381 6
      vertex 20.1651 2.68015 2.7
      vertex 20.1651 2.68015 6
    endloop
  endfacet
  facet normal 0.743159 0.669115 0
    outer loop
      vertex 20.1651 2.68015 2.7
      vertex 20.3959 2.42381 6
      vertex 20.3959 2.42381 2.7
    endloop
  endfacet
  facet normal 0.951136 0.308773 0
    outer loop
      vertex 19.9926 2.97888 6
      vertex 19.8861 3.30694 2.7
      vertex 19.8861 3.30694 6
    endloop
  endfacet
  facet normal 0.951136 0.308773 0
    outer loop
      vertex 19.8861 3.30694 2.7
      vertex 19.9926 2.97888 6
      vertex 19.9926 2.97888 2.7
    endloop
  endfacet
  facet normal 0.994509 0.104652 0
    outer loop
      vertex 19.8861 3.30694 6
      vertex 19.85 3.65 2.7
      vertex 19.85 3.65 6
    endloop
  endfacet
  facet normal 0.994509 0.104652 0
    outer loop
      vertex 19.85 3.65 2.7
      vertex 19.8861 3.30694 6
      vertex 19.8861 3.30694 2.7
    endloop
  endfacet
  facet normal -0.406757 0.913536 0
    outer loop
      vertex 22.325 2.22106 2.7
      vertex 22.0099 2.08076 6
      vertex 22.325 2.22106 6
    endloop
  endfacet
  facet normal -0.406757 0.913536 0
    outer loop
      vertex 22.0099 2.08076 6
      vertex 22.325 2.22106 2.7
      vertex 22.0099 2.08076 2.7
    endloop
  endfacet
  facet normal -0.743159 0.669115 0
    outer loop
      vertex 22.6041 2.42381 2.7
      vertex 22.8349 2.68015 6
      vertex 22.8349 2.68015 2.7
    endloop
  endfacet
  facet normal -0.743159 0.669115 0
    outer loop
      vertex 22.8349 2.68015 6
      vertex 22.6041 2.42381 2.7
      vertex 22.6041 2.42381 6
    endloop
  endfacet
  facet normal -0.951136 0.308773 0
    outer loop
      vertex 23.0074 2.97888 2.7
      vertex 23.1139 3.30694 6
      vertex 23.1139 3.30694 2.7
    endloop
  endfacet
  facet normal -0.951136 0.308773 0
    outer loop
      vertex 23.1139 3.30694 6
      vertex 23.0074 2.97888 2.7
      vertex 23.0074 2.97888 6
    endloop
  endfacet
  facet normal 0.207921 0.978146 -0
    outer loop
      vertex 21.3275 2.00904 2.7
      vertex 20.9901 2.08076 6
      vertex 21.3275 2.00904 6
    endloop
  endfacet
  facet normal 0.207921 0.978146 0
    outer loop
      vertex 20.9901 2.08076 6
      vertex 21.3275 2.00904 2.7
      vertex 20.9901 2.08076 2.7
    endloop
  endfacet
  facet normal 0.86599 0.500061 0
    outer loop
      vertex 20.1651 2.68015 6
      vertex 19.9926 2.97888 2.7
      vertex 19.9926 2.97888 6
    endloop
  endfacet
  facet normal 0.86599 0.500061 0
    outer loop
      vertex 19.9926 2.97888 2.7
      vertex 20.1651 2.68015 6
      vertex 20.1651 2.68015 2.7
    endloop
  endfacet
  facet normal -0.994509 0.104652 0
    outer loop
      vertex 23.1139 3.30694 2.7
      vertex 23.15 3.65 6
      vertex 23.15 3.65 2.7
    endloop
  endfacet
  facet normal -0.994509 0.104652 0
    outer loop
      vertex 23.15 3.65 6
      vertex 23.1139 3.30694 2.7
      vertex 23.1139 3.30694 6
    endloop
  endfacet
  facet normal -0.99451 -0.10464 0
    outer loop
      vertex 23.15 25.35 2.8
      vertex 23.1139 25.6931 6
      vertex 23.1139 25.6931 2.8
    endloop
  endfacet
  facet normal -0.99451 -0.10464 0
    outer loop
      vertex 23.1139 25.6931 6
      vertex 23.15 25.35 2.8
      vertex 23.15 25.35 6
    endloop
  endfacet
  facet normal 0.99451 -0.10464 0
    outer loop
      vertex 19.85 25.35 6
      vertex 19.8861 25.6931 2.8
      vertex 19.8861 25.6931 6
    endloop
  endfacet
  facet normal 0.99451 -0.10464 0
    outer loop
      vertex 19.8861 25.6931 2.8
      vertex 19.85 25.35 6
      vertex 19.85 25.35 2.8
    endloop
  endfacet
  facet normal 0 -1 0
    outer loop
      vertex 21.3275 26.991 2.8
      vertex 21.6725 26.991 6
      vertex 21.3275 26.991 6
    endloop
  endfacet
  facet normal 0 -1 -0
    outer loop
      vertex 21.6725 26.991 6
      vertex 21.3275 26.991 2.8
      vertex 21.6725 26.991 2.8
    endloop
  endfacet
  facet normal 0 1 -0
    outer loop
      vertex 21.6725 23.709 2.8
      vertex 21.3275 23.709 6
      vertex 21.6725 23.709 6
    endloop
  endfacet
  facet normal 0 1 0
    outer loop
      vertex 21.3275 23.709 6
      vertex 21.6725 23.709 2.8
      vertex 21.3275 23.709 2.8
    endloop
  endfacet
  facet normal -0.587637 -0.809125 0
    outer loop
      vertex 22.325 26.7789 2.8
      vertex 22.6041 26.5762 6
      vertex 22.325 26.7789 6
    endloop
  endfacet
  facet normal -0.587637 -0.809125 -0
    outer loop
      vertex 22.6041 26.5762 6
      vertex 22.325 26.7789 2.8
      vertex 22.6041 26.5762 2.8
    endloop
  endfacet
  facet normal 0.743236 -0.669029 0
    outer loop
      vertex 20.1651 26.3198 6
      vertex 20.3959 26.5762 2.8
      vertex 20.3959 26.5762 6
    endloop
  endfacet
  facet normal 0.743236 -0.669029 0
    outer loop
      vertex 20.3959 26.5762 2.8
      vertex 20.1651 26.3198 6
      vertex 20.1651 26.3198 2.8
    endloop
  endfacet
  facet normal 0.865968 -0.500099 0
    outer loop
      vertex 19.9926 26.0211 6
      vertex 20.1651 26.3198 2.8
      vertex 20.1651 26.3198 6
    endloop
  endfacet
  facet normal 0.865968 -0.500099 0
    outer loop
      vertex 20.1651 26.3198 2.8
      vertex 19.9926 26.0211 6
      vertex 19.9926 26.0211 2.8
    endloop
  endfacet
  facet normal 0.406757 -0.913536 0
    outer loop
      vertex 20.675 26.7789 2.8
      vertex 20.9901 26.9192 6
      vertex 20.675 26.7789 6
    endloop
  endfacet
  facet normal 0.406757 -0.913536 0
    outer loop
      vertex 20.9901 26.9192 6
      vertex 20.675 26.7789 2.8
      vertex 20.9901 26.9192 2.8
    endloop
  endfacet
  facet normal -0.865968 -0.500099 0
    outer loop
      vertex 23.0074 26.0211 2.8
      vertex 22.8349 26.3198 6
      vertex 22.8349 26.3198 2.8
    endloop
  endfacet
  facet normal -0.865968 -0.500099 0
    outer loop
      vertex 22.8349 26.3198 6
      vertex 23.0074 26.0211 2.8
      vertex 23.0074 26.0211 6
    endloop
  endfacet
  facet normal -0.951119 -0.308824 0
    outer loop
      vertex 23.1139 25.6931 2.8
      vertex 23.0074 26.0211 6
      vertex 23.0074 26.0211 2.8
    endloop
  endfacet
  facet normal -0.951119 -0.308824 0
    outer loop
      vertex 23.0074 26.0211 6
      vertex 23.1139 25.6931 2.8
      vertex 23.1139 25.6931 6
    endloop
  endfacet
  facet normal -0.743236 -0.669029 0
    outer loop
      vertex 22.8349 26.3198 2.8
      vertex 22.6041 26.5762 6
      vertex 22.6041 26.5762 2.8
    endloop
  endfacet
  facet normal -0.743236 -0.669029 0
    outer loop
      vertex 22.6041 26.5762 6
      vertex 22.8349 26.3198 2.8
      vertex 22.8349 26.3198 6
    endloop
  endfacet
  facet normal -0.208143 -0.978098 0
    outer loop
      vertex 21.6725 26.991 2.8
      vertex 22.0099 26.9192 6
      vertex 21.6725 26.991 6
    endloop
  endfacet
  facet normal -0.208143 -0.978098 -0
    outer loop
      vertex 22.0099 26.9192 6
      vertex 21.6725 26.991 2.8
      vertex 22.0099 26.9192 2.8
    endloop
  endfacet
  facet normal -0.406757 -0.913536 0
    outer loop
      vertex 22.0099 26.9192 2.8
      vertex 22.325 26.7789 6
      vertex 22.0099 26.9192 6
    endloop
  endfacet
  facet normal -0.406757 -0.913536 -0
    outer loop
      vertex 22.325 26.7789 6
      vertex 22.0099 26.9192 2.8
      vertex 22.325 26.7789 2.8
    endloop
  endfacet
  facet normal 0.951119 -0.308824 0
    outer loop
      vertex 19.8861 25.6931 6
      vertex 19.9926 26.0211 2.8
      vertex 19.9926 26.0211 6
    endloop
  endfacet
  facet normal 0.951119 -0.308824 0
    outer loop
      vertex 19.9926 26.0211 2.8
      vertex 19.8861 25.6931 6
      vertex 19.8861 25.6931 2.8
    endloop
  endfacet
  facet normal 0.587637 -0.809125 0
    outer loop
      vertex 20.3959 26.5762 2.8
      vertex 20.675 26.7789 6
      vertex 20.3959 26.5762 6
    endloop
  endfacet
  facet normal 0.587637 -0.809125 0
    outer loop
      vertex 20.675 26.7789 6
      vertex 20.3959 26.5762 2.8
      vertex 20.675 26.7789 2.8
    endloop
  endfacet
  facet normal 0.208143 -0.978098 0
    outer loop
      vertex 20.9901 26.9192 2.8
      vertex 21.3275 26.991 6
      vertex 20.9901 26.9192 6
    endloop
  endfacet
  facet normal 0.208143 -0.978098 0
    outer loop
      vertex 21.3275 26.991 6
      vertex 20.9901 26.9192 2.8
      vertex 21.3275 26.991 2.8
    endloop
  endfacet
  facet normal -0.99451 0.10464 0
    outer loop
      vertex 23.1139 25.0069 2.8
      vertex 23.15 25.35 6
      vertex 23.15 25.35 2.8
    endloop
  endfacet
  facet normal -0.99451 0.10464 0
    outer loop
      vertex 23.15 25.35 6
      vertex 23.1139 25.0069 2.8
      vertex 23.1139 25.0069 6
    endloop
  endfacet
  facet normal -0.208143 0.978098 0
    outer loop
      vertex 22.0099 23.7808 2.8
      vertex 21.6725 23.709 6
      vertex 22.0099 23.7808 6
    endloop
  endfacet
  facet normal -0.208143 0.978098 0
    outer loop
      vertex 21.6725 23.709 6
      vertex 22.0099 23.7808 2.8
      vertex 21.6725 23.709 2.8
    endloop
  endfacet
  facet normal -0.743236 0.669029 0
    outer loop
      vertex 22.6041 24.1238 2.8
      vertex 22.8349 24.3802 6
      vertex 22.8349 24.3802 2.8
    endloop
  endfacet
  facet normal -0.743236 0.669029 0
    outer loop
      vertex 22.8349 24.3802 6
      vertex 22.6041 24.1238 2.8
      vertex 22.6041 24.1238 6
    endloop
  endfacet
  facet normal -0.951119 0.308824 0
    outer loop
      vertex 23.0074 24.6789 2.8
      vertex 23.1139 25.0069 6
      vertex 23.1139 25.0069 2.8
    endloop
  endfacet
  facet normal -0.951119 0.308824 0
    outer loop
      vertex 23.1139 25.0069 6
      vertex 23.0074 24.6789 2.8
      vertex 23.0074 24.6789 6
    endloop
  endfacet
  facet normal -0.865968 0.500099 0
    outer loop
      vertex 22.8349 24.3802 2.8
      vertex 23.0074 24.6789 6
      vertex 23.0074 24.6789 2.8
    endloop
  endfacet
  facet normal -0.865968 0.500099 0
    outer loop
      vertex 23.0074 24.6789 6
      vertex 22.8349 24.3802 2.8
      vertex 22.8349 24.3802 6
    endloop
  endfacet
  facet normal 0.865968 0.500099 0
    outer loop
      vertex 20.1651 24.3802 6
      vertex 19.9926 24.6789 2.8
      vertex 19.9926 24.6789 6
    endloop
  endfacet
  facet normal 0.865968 0.500099 0
    outer loop
      vertex 19.9926 24.6789 2.8
      vertex 20.1651 24.3802 6
      vertex 20.1651 24.3802 2.8
    endloop
  endfacet
  facet normal 0.99451 0.10464 0
    outer loop
      vertex 19.8861 25.0069 6
      vertex 19.85 25.35 2.8
      vertex 19.85 25.35 6
    endloop
  endfacet
  facet normal 0.99451 0.10464 0
    outer loop
      vertex 19.85 25.35 2.8
      vertex 19.8861 25.0069 6
      vertex 19.8861 25.0069 2.8
    endloop
  endfacet
  facet normal -0.587637 0.809125 0
    outer loop
      vertex 22.6041 24.1238 2.8
      vertex 22.325 23.9211 6
      vertex 22.6041 24.1238 6
    endloop
  endfacet
  facet normal -0.587637 0.809125 0
    outer loop
      vertex 22.325 23.9211 6
      vertex 22.6041 24.1238 2.8
      vertex 22.325 23.9211 2.8
    endloop
  endfacet
  facet normal -0.406757 0.913536 0
    outer loop
      vertex 22.325 23.9211 2.8
      vertex 22.0099 23.7808 6
      vertex 22.325 23.9211 6
    endloop
  endfacet
  facet normal -0.406757 0.913536 0
    outer loop
      vertex 22.0099 23.7808 6
      vertex 22.325 23.9211 2.8
      vertex 22.0099 23.7808 2.8
    endloop
  endfacet
  facet normal 0.406757 0.913536 -0
    outer loop
      vertex 20.9901 23.7808 2.8
      vertex 20.675 23.9211 6
      vertex 20.9901 23.7808 6
    endloop
  endfacet
  facet normal 0.406757 0.913536 0
    outer loop
      vertex 20.675 23.9211 6
      vertex 20.9901 23.7808 2.8
      vertex 20.675 23.9211 2.8
    endloop
  endfacet
  facet normal 0.743236 0.669029 0
    outer loop
      vertex 20.3959 24.1238 6
      vertex 20.1651 24.3802 2.8
      vertex 20.1651 24.3802 6
    endloop
  endfacet
  facet normal 0.743236 0.669029 0
    outer loop
      vertex 20.1651 24.3802 2.8
      vertex 20.3959 24.1238 6
      vertex 20.3959 24.1238 2.8
    endloop
  endfacet
  facet normal 0.951119 0.308824 0
    outer loop
      vertex 19.9926 24.6789 6
      vertex 19.8861 25.0069 2.8
      vertex 19.8861 25.0069 6
    endloop
  endfacet
  facet normal 0.951119 0.308824 0
    outer loop
      vertex 19.8861 25.0069 2.8
      vertex 19.9926 24.6789 6
      vertex 19.9926 24.6789 2.8
    endloop
  endfacet
  facet normal 0.587637 0.809125 -0
    outer loop
      vertex 20.675 23.9211 2.8
      vertex 20.3959 24.1238 6
      vertex 20.675 23.9211 6
    endloop
  endfacet
  facet normal 0.587637 0.809125 0
    outer loop
      vertex 20.3959 24.1238 6
      vertex 20.675 23.9211 2.8
      vertex 20.3959 24.1238 2.8
    endloop
  endfacet
  facet normal 0.208143 0.978098 -0
    outer loop
      vertex 21.3275 23.709 2.8
      vertex 20.9901 23.7808 6
      vertex 21.3275 23.709 6
    endloop
  endfacet
  facet normal 0.208143 0.978098 0
    outer loop
      vertex 20.9901 23.7808 6
      vertex 21.3275 23.709 2.8
      vertex 20.9901 23.7808 2.8
    endloop
  endfacet
  facet normal 0.604062 -0.547349 -0.57924
    outer loop
      vertex 20.3959 4.87619 2.7
      vertex 19.0972 6.30024 0
      vertex 19.1055 6.3094 0
    endloop
  endfacet
  facet normal 0.605854 -0.54549 -0.579121
    outer loop
      vertex 19.0972 6.30024 0
      vertex 20.3959 4.87619 2.7
      vertex 20.1651 4.61985 2.7
    endloop
  endfacet
  facet normal 0.605872 -0.545474 -0.579118
    outer loop
      vertex 19.0972 6.30024 0
      vertex 20.1651 4.61985 2.7
      vertex 18.6049 5.75343 0
    endloop
  endfacet
  facet normal 0.481189 -0.65798 -0.579241
    outer loop
      vertex 19.1154 6.31664 0
      vertex 20.3959 4.87619 2.7
      vertex 19.1055 6.3094 0
    endloop
  endfacet
  facet normal 0.479143 -0.659575 -0.579122
    outer loop
      vertex 20.3959 4.87619 2.7
      vertex 19.1154 6.31664 0
      vertex 20.675 5.07894 2.7
    endloop
  endfacet
  facet normal -0.169512 -0.797423 -0.579122
    outer loop
      vertex 22.6058 7.05342 0
      vertex 22.0099 5.21924 2.7
      vertex 21.8861 7.20641 0
    endloop
  endfacet
  facet normal 0.331586 0.744762 -0.57912
    outer loop
      vertex 20.9901 2.08076 2.7
      vertex 20.3942 0.246575 0
      vertex 19.722 0.545855 0
    endloop
  endfacet
  facet normal 0.775407 -0.251627 -0.579161
    outer loop
      vertex 19.9926 4.32111 2.7
      vertex 17.9996 4.39403 0
      vertex 18.0034 4.40574 0
    endloop
  endfacet
  facet normal 0.775387 -0.251718 -0.579149
    outer loop
      vertex 17.9996 4.39403 0
      vertex 19.9926 4.32111 2.7
      vertex 19.8861 3.99305 2.7
    endloop
  endfacet
  facet normal 0.775336 -0.251945 -0.579118
    outer loop
      vertex 18.2308 5.10554 0
      vertex 19.9926 4.32111 2.7
      vertex 18.0034 4.40574 0
    endloop
  endfacet
  facet normal 0.47917 -0.659552 -0.579126
    outer loop
      vertex 19.7107 6.74913 0
      vertex 20.675 5.07894 2.7
      vertex 19.1154 6.31664 0
    endloop
  endfacet
  facet normal -0.47917 -0.659552 -0.579126
    outer loop
      vertex 23.2893 6.74913 0
      vertex 23.8846 6.31664 0
      vertex 22.325 5.07894 2.7
    endloop
  endfacet
  facet normal -0.605872 -0.545474 -0.579118
    outer loop
      vertex 23.9028 6.30024 0
      vertex 24.3951 5.75343 0
      vertex 22.8349 4.61985 2.7
    endloop
  endfacet
  facet normal 0.81077 -0.085202 -0.57913
    outer loop
      vertex 17.9983 4.38177 0
      vertex 19.85 3.65 2.7
      vertex 17.9214 3.65 0
    endloop
  endfacet
  facet normal 0.706026 -0.407619 -0.579115
    outer loop
      vertex 18.6049 5.75343 0
      vertex 20.1651 4.61985 2.7
      vertex 18.237 5.1162 0
    endloop
  endfacet
  facet normal 0.704931 -0.409997 -0.57877
    outer loop
      vertex 20.1651 4.61985 2.7
      vertex 18.2308 5.10554 0
      vertex 18.237 5.1162 0
    endloop
  endfacet
  facet normal 0.706 -0.407662 -0.579116
    outer loop
      vertex 18.2308 5.10554 0
      vertex 20.1651 4.61985 2.7
      vertex 19.9926 4.32111 2.7
    endloop
  endfacet
  facet normal -0.331587 -0.744763 -0.579119
    outer loop
      vertex 22.6058 7.05342 0
      vertex 23.278 6.75414 0
      vertex 22.0099 5.21924 2.7
    endloop
  endfacet
  facet normal -0.775407 -0.251627 -0.579161
    outer loop
      vertex 25.0004 4.39403 0
      vertex 23.0074 4.32111 2.7
      vertex 24.9966 4.40574 0
    endloop
  endfacet
  facet normal -0.775387 -0.251718 -0.579149
    outer loop
      vertex 23.0074 4.32111 2.7
      vertex 25.0004 4.39403 0
      vertex 23.1139 3.99305 2.7
    endloop
  endfacet
  facet normal -0.706026 -0.407619 -0.579115
    outer loop
      vertex 24.3951 5.75343 0
      vertex 24.763 5.1162 0
      vertex 22.8349 4.61985 2.7
    endloop
  endfacet
  facet normal -0.705989 0.407669 -0.579125
    outer loop
      vertex 24.4013 1.55724 0
      vertex 22.8349 2.68015 2.7
      vertex 23.0074 2.97888 2.7
    endloop
  endfacet
  facet normal -0.704818 0.409547 -0.579226
    outer loop
      vertex 22.8349 2.68015 2.7
      vertex 24.4013 1.55724 0
      vertex 24.3951 1.54657 0
    endloop
  endfacet
  facet normal -0.810765 0.0852003 -0.579138
    outer loop
      vertex 25.0773 3.63775 0
      vertex 25.0004 2.90597 0
      vertex 23.1139 3.30694 2.7
    endloop
  endfacet
  facet normal -0.169504 0.797423 -0.579124
    outer loop
      vertex 22.5938 0.244014 0
      vertex 21.8741 0.0910316 0
      vertex 21.6725 2.00904 2.7
    endloop
  endfacet
  facet normal 0.810658 -0.0859589 -0.579176
    outer loop
      vertex 19.8861 3.99305 2.7
      vertex 17.9983 4.38177 0
      vertex 17.9996 4.39403 0
    endloop
  endfacet
  facet normal 0.810747 -0.085317 -0.579146
    outer loop
      vertex 17.9983 4.38177 0
      vertex 19.8861 3.99305 2.7
      vertex 19.85 3.65 2.7
    endloop
  endfacet
  facet normal 0.330445 -0.745315 -0.579061
    outer loop
      vertex 19.722 6.75414 0
      vertex 20.675 5.07894 2.7
      vertex 19.7107 6.74913 0
    endloop
  endfacet
  facet normal 0.331605 -0.744752 -0.579122
    outer loop
      vertex 20.675 5.07894 2.7
      vertex 19.722 6.75414 0
      vertex 20.9901 5.21924 2.7
    endloop
  endfacet
  facet normal -0.331605 -0.744752 -0.579122
    outer loop
      vertex 23.278 6.75414 0
      vertex 22.325 5.07894 2.7
      vertex 22.0099 5.21924 2.7
    endloop
  endfacet
  facet normal -0.330445 -0.745315 -0.579061
    outer loop
      vertex 22.325 5.07894 2.7
      vertex 23.278 6.75414 0
      vertex 23.2893 6.74913 0
    endloop
  endfacet
  facet normal 0.170102 -0.797354 -0.579044
    outer loop
      vertex 21.1259 7.20897 0
      vertex 20.9901 5.21924 2.7
      vertex 21.1139 7.20641 0
    endloop
  endfacet
  facet normal 0.169505 -0.797422 -0.579125
    outer loop
      vertex 20.9901 5.21924 2.7
      vertex 21.1259 7.20897 0
      vertex 21.3275 5.29096 2.7
    endloop
  endfacet
  facet normal 0.331587 -0.744763 -0.579119
    outer loop
      vertex 20.3942 7.05342 0
      vertex 20.9901 5.21924 2.7
      vertex 19.722 6.75414 0
    endloop
  endfacet
  facet normal 0.169512 -0.797423 -0.579122
    outer loop
      vertex 21.1139 7.20641 0
      vertex 20.9901 5.21924 2.7
      vertex 20.3942 7.05342 0
    endloop
  endfacet
  facet normal -0.775387 0.251718 -0.579148
    outer loop
      vertex 25.0004 2.90597 0
      vertex 23.0074 2.97888 2.7
      vertex 23.1139 3.30694 2.7
    endloop
  endfacet
  facet normal -0.775408 0.251627 -0.579161
    outer loop
      vertex 23.0074 2.97888 2.7
      vertex 25.0004 2.90597 0
      vertex 24.9966 2.89426 0
    endloop
  endfacet
  facet normal -0.775336 -0.251945 -0.579118
    outer loop
      vertex 24.7692 5.10554 0
      vertex 24.9966 4.40574 0
      vertex 23.0074 4.32111 2.7
    endloop
  endfacet
  facet normal -0.604062 -0.547349 -0.57924
    outer loop
      vertex 23.9028 6.30024 0
      vertex 22.6041 4.87619 2.7
      vertex 23.8945 6.3094 0
    endloop
  endfacet
  facet normal -0.605854 -0.54549 -0.579121
    outer loop
      vertex 22.6041 4.87619 2.7
      vertex 23.9028 6.30024 0
      vertex 22.8349 4.61985 2.7
    endloop
  endfacet
  facet normal -0.479143 -0.659575 -0.579122
    outer loop
      vertex 23.8846 6.31664 0
      vertex 22.6041 4.87619 2.7
      vertex 22.325 5.07894 2.7
    endloop
  endfacet
  facet normal -0.481189 -0.65798 -0.579241
    outer loop
      vertex 22.6041 4.87619 2.7
      vertex 23.8846 6.31664 0
      vertex 23.8945 6.3094 0
    endloop
  endfacet
  facet normal -0.775336 0.251945 -0.579118
    outer loop
      vertex 24.9966 2.89426 0
      vertex 24.7692 2.19446 0
      vertex 23.0074 2.97888 2.7
    endloop
  endfacet
  facet normal -0.605873 0.545473 -0.579118
    outer loop
      vertex 24.3951 1.54657 0
      vertex 23.9028 0.999758 0
      vertex 22.8349 2.68015 2.7
    endloop
  endfacet
  facet normal 0.169504 0.797423 -0.579124
    outer loop
      vertex 21.3275 2.00904 2.7
      vertex 21.1259 0.0910316 0
      vertex 20.4062 0.244014 0
    endloop
  endfacet
  facet normal 0 0.815239 -0.579124
    outer loop
      vertex 21.8741 0.0910316 0
      vertex 21.3275 2.00904 2.7
      vertex 21.6725 2.00904 2.7
    endloop
  endfacet
  facet normal 0 0.815239 -0.579124
    outer loop
      vertex 21.3275 2.00904 2.7
      vertex 21.8741 0.0910316 0
      vertex 21.1259 0.0910316 0
    endloop
  endfacet
  facet normal -0.169505 -0.797422 -0.579125
    outer loop
      vertex 21.8741 7.20897 0
      vertex 22.0099 5.21924 2.7
      vertex 21.6725 5.29096 2.7
    endloop
  endfacet
  facet normal -0.170102 -0.797354 -0.579044
    outer loop
      vertex 22.0099 5.21924 2.7
      vertex 21.8741 7.20897 0
      vertex 21.8861 7.20641 0
    endloop
  endfacet
  facet normal -0.810712 0.0860348 -0.579089
    outer loop
      vertex 25.0773 3.63775 0
      vertex 23.15 3.65 2.7
      vertex 25.0786 3.65 0
    endloop
  endfacet
  facet normal -0.810764 0.0853162 -0.579122
    outer loop
      vertex 23.15 3.65 2.7
      vertex 25.0773 3.63775 0
      vertex 23.1139 3.30694 2.7
    endloop
  endfacet
  facet normal -0.704931 -0.409997 -0.57877
    outer loop
      vertex 24.7692 5.10554 0
      vertex 22.8349 4.61985 2.7
      vertex 24.763 5.1162 0
    endloop
  endfacet
  facet normal -0.706 -0.407662 -0.579116
    outer loop
      vertex 22.8349 4.61985 2.7
      vertex 24.7692 5.10554 0
      vertex 23.0074 4.32111 2.7
    endloop
  endfacet
  facet normal -0.810658 -0.0859589 -0.579176
    outer loop
      vertex 25.0017 4.38177 0
      vertex 23.1139 3.99305 2.7
      vertex 25.0004 4.39403 0
    endloop
  endfacet
  facet normal -0.810747 -0.085317 -0.579146
    outer loop
      vertex 23.1139 3.99305 2.7
      vertex 25.0017 4.38177 0
      vertex 23.15 3.65 2.7
    endloop
  endfacet
  facet normal -0.331586 0.744762 -0.57912
    outer loop
      vertex 23.278 0.545855 0
      vertex 22.6058 0.246575 0
      vertex 22.0099 2.08076 2.7
    endloop
  endfacet
  facet normal -0.706022 0.407623 -0.579117
    outer loop
      vertex 24.7692 2.19446 0
      vertex 24.4013 1.55724 0
      vertex 23.0074 2.97888 2.7
    endloop
  endfacet
  facet normal 0.775387 0.251718 -0.579148
    outer loop
      vertex 19.9926 2.97888 2.7
      vertex 17.9996 2.90597 0
      vertex 19.8861 3.30694 2.7
    endloop
  endfacet
  facet normal 0.775408 0.251627 -0.579161
    outer loop
      vertex 17.9996 2.90597 0
      vertex 19.9926 2.97888 2.7
      vertex 18.0034 2.89426 0
    endloop
  endfacet
  facet normal 0.775336 0.251945 -0.579118
    outer loop
      vertex 19.9926 2.97888 2.7
      vertex 18.2308 2.19446 0
      vertex 18.0034 2.89426 0
    endloop
  endfacet
  facet normal 0.169505 0.797422 -0.579125
    outer loop
      vertex 20.4062 0.244014 0
      vertex 20.9901 2.08076 2.7
      vertex 21.3275 2.00904 2.7
    endloop
  endfacet
  facet normal 0.170149 0.797263 -0.579155
    outer loop
      vertex 20.9901 2.08076 2.7
      vertex 20.4062 0.244014 0
      vertex 20.3942 0.246575 0
    endloop
  endfacet
  facet normal 0 -0.815239 -0.579125
    outer loop
      vertex 21.1259 7.20897 0
      vertex 21.6725 5.29096 2.7
      vertex 21.3275 5.29096 2.7
    endloop
  endfacet
  facet normal 0 -0.815239 -0.579125
    outer loop
      vertex 21.6725 5.29096 2.7
      vertex 21.1259 7.20897 0
      vertex 21.8741 7.20897 0
    endloop
  endfacet
  facet normal -0.81077 -0.085202 -0.57913
    outer loop
      vertex 25.0017 4.38177 0
      vertex 25.0786 3.65 0
      vertex 23.15 3.65 2.7
    endloop
  endfacet
  facet normal -0.479173 0.659549 -0.579127
    outer loop
      vertex 23.8846 0.983361 0
      vertex 23.2893 0.550866 0
      vertex 22.325 2.22106 2.7
    endloop
  endfacet
  facet normal -0.330499 0.745288 -0.579065
    outer loop
      vertex 23.278 0.545855 0
      vertex 22.325 2.22106 2.7
      vertex 23.2893 0.550866 0
    endloop
  endfacet
  facet normal -0.331605 0.744752 -0.579123
    outer loop
      vertex 22.325 2.22106 2.7
      vertex 23.278 0.545855 0
      vertex 22.0099 2.08076 2.7
    endloop
  endfacet
  facet normal -0.481232 0.657947 -0.579243
    outer loop
      vertex 23.8846 0.983361 0
      vertex 22.6041 2.42381 2.7
      vertex 23.8945 0.990602 0
    endloop
  endfacet
  facet normal -0.479143 0.659576 -0.579122
    outer loop
      vertex 22.6041 2.42381 2.7
      vertex 23.8846 0.983361 0
      vertex 22.325 2.22106 2.7
    endloop
  endfacet
  facet normal -0.605853 0.54549 -0.579122
    outer loop
      vertex 23.9028 0.999758 0
      vertex 22.6041 2.42381 2.7
      vertex 22.8349 2.68015 2.7
    endloop
  endfacet
  facet normal -0.603939 0.547476 -0.579248
    outer loop
      vertex 22.6041 2.42381 2.7
      vertex 23.9028 0.999758 0
      vertex 23.8945 0.990602 0
    endloop
  endfacet
  facet normal -0.170149 0.797263 -0.579155
    outer loop
      vertex 22.5938 0.244014 0
      vertex 22.0099 2.08076 2.7
      vertex 22.6058 0.246575 0
    endloop
  endfacet
  facet normal -0.169505 0.797422 -0.579125
    outer loop
      vertex 22.0099 2.08076 2.7
      vertex 22.5938 0.244014 0
      vertex 21.6725 2.00904 2.7
    endloop
  endfacet
  facet normal 0.705989 0.407669 -0.579125
    outer loop
      vertex 20.1651 2.68015 2.7
      vertex 18.5987 1.55724 0
      vertex 19.9926 2.97888 2.7
    endloop
  endfacet
  facet normal 0.704818 0.409547 -0.579226
    outer loop
      vertex 18.5987 1.55724 0
      vertex 20.1651 2.68015 2.7
      vertex 18.6049 1.54657 0
    endloop
  endfacet
  facet normal 0.706022 0.407623 -0.579117
    outer loop
      vertex 19.9926 2.97888 2.7
      vertex 18.5987 1.55724 0
      vertex 18.2308 2.19446 0
    endloop
  endfacet
  facet normal 0.810712 0.0860348 -0.579089
    outer loop
      vertex 19.85 3.65 2.7
      vertex 17.9227 3.63775 0
      vertex 17.9214 3.65 0
    endloop
  endfacet
  facet normal 0.810764 0.0853162 -0.579122
    outer loop
      vertex 17.9227 3.63775 0
      vertex 19.85 3.65 2.7
      vertex 19.8861 3.30694 2.7
    endloop
  endfacet
  facet normal 0.810765 0.0852003 -0.579138
    outer loop
      vertex 19.8861 3.30694 2.7
      vertex 17.9996 2.90597 0
      vertex 17.9227 3.63775 0
    endloop
  endfacet
  facet normal 0.331605 0.744752 -0.579123
    outer loop
      vertex 19.722 0.545855 0
      vertex 20.675 2.22106 2.7
      vertex 20.9901 2.08076 2.7
    endloop
  endfacet
  facet normal 0.330499 0.745288 -0.579065
    outer loop
      vertex 20.675 2.22106 2.7
      vertex 19.722 0.545855 0
      vertex 19.7107 0.550866 0
    endloop
  endfacet
  facet normal 0.605873 0.545473 -0.579118
    outer loop
      vertex 20.1651 2.68015 2.7
      vertex 19.0972 0.999758 0
      vertex 18.6049 1.54657 0
    endloop
  endfacet
  facet normal 0.605853 0.54549 -0.579122
    outer loop
      vertex 20.3959 2.42381 2.7
      vertex 19.0972 0.999758 0
      vertex 20.1651 2.68015 2.7
    endloop
  endfacet
  facet normal 0.603939 0.547476 -0.579248
    outer loop
      vertex 19.0972 0.999758 0
      vertex 20.3959 2.42381 2.7
      vertex 19.1055 0.990602 0
    endloop
  endfacet
  facet normal 0.479143 0.659576 -0.579122
    outer loop
      vertex 19.1154 0.983361 0
      vertex 20.3959 2.42381 2.7
      vertex 20.675 2.22106 2.7
    endloop
  endfacet
  facet normal 0.481232 0.657947 -0.579243
    outer loop
      vertex 20.3959 2.42381 2.7
      vertex 19.1154 0.983361 0
      vertex 19.1055 0.990602 0
    endloop
  endfacet
  facet normal 0.479173 0.659549 -0.579127
    outer loop
      vertex 20.675 2.22106 2.7
      vertex 19.7107 0.550866 0
      vertex 19.1154 0.983361 0
    endloop
  endfacet
  facet normal 0.605923 -0.545425 -0.579111
    outer loop
      vertex 20.3959 26.5762 2.8
      vertex 20.1651 26.3198 2.8
      vertex 19.0577 28.0625 0
    endloop
  endfacet
  facet normal 0.706032 -0.407614 -0.579112
    outer loop
      vertex 18.5471 27.4954 0
      vertex 19.9926 26.0211 2.8
      vertex 18.1656 26.8346 0
    endloop
  endfacet
  facet normal 0.47907 -0.659638 -0.579111
    outer loop
      vertex 20.675 26.7789 2.8
      vertex 20.3959 26.5762 2.8
      vertex 19.0577 28.0625 0
    endloop
  endfacet
  facet normal -0.169446 -0.797441 -0.579116
    outer loop
      vertex 21.8815 28.98 0
      vertex 22.6279 28.8214 0
      vertex 21.6725 26.991 2.8
    endloop
  endfacet
  facet normal 0.331612 0.744739 -0.579135
    outer loop
      vertex 20.9901 23.7808 2.8
      vertex 20.3721 21.8786 0
      vertex 19.675 22.189 0
    endloop
  endfacet
  facet normal 0.775385 -0.251764 -0.579132
    outer loop
      vertex 19.9926 26.0211 2.8
      vertex 19.8861 25.6931 2.8
      vertex 17.9298 26.1089 0
    endloop
  endfacet
  facet normal 0.775347 -0.251932 -0.579109
    outer loop
      vertex 18.1656 26.8346 0
      vertex 19.9926 26.0211 2.8
      vertex 17.9298 26.1089 0
    endloop
  endfacet
  facet normal 0.479186 -0.659536 -0.579131
    outer loop
      vertex 19.675 28.511 0
      vertex 20.675 26.7789 2.8
      vertex 19.0577 28.0625 0
    endloop
  endfacet
  facet normal -0.479186 -0.659536 -0.579131
    outer loop
      vertex 23.325 28.511 0
      vertex 23.9423 28.0625 0
      vertex 22.325 26.7789 2.8
    endloop
  endfacet
  facet normal -0.605851 -0.545491 -0.579124
    outer loop
      vertex 23.9423 28.0625 0
      vertex 24.4529 27.4954 0
      vertex 22.8349 26.3198 2.8
    endloop
  endfacet
  facet normal 0.810768 -0.085254 -0.579126
    outer loop
      vertex 17.9298 26.1089 0
      vertex 19.8861 25.6931 2.8
      vertex 17.85 25.35 0
    endloop
  endfacet
  facet normal 0.605851 -0.545491 -0.579124
    outer loop
      vertex 19.0577 28.0625 0
      vertex 20.1651 26.3198 2.8
      vertex 18.5471 27.4954 0
    endloop
  endfacet
  facet normal 0.70597 -0.4077 -0.579126
    outer loop
      vertex 20.1651 26.3198 2.8
      vertex 19.9926 26.0211 2.8
      vertex 18.5471 27.4954 0
    endloop
  endfacet
  facet normal -0.331612 -0.744739 -0.579135
    outer loop
      vertex 22.6279 28.8214 0
      vertex 23.325 28.511 0
      vertex 22.0099 26.9192 2.8
    endloop
  endfacet
  facet normal -0.706032 -0.407614 -0.579112
    outer loop
      vertex 24.4529 27.4954 0
      vertex 24.8344 26.8346 0
      vertex 23.0074 26.0211 2.8
    endloop
  endfacet
  facet normal -0.605923 0.545425 -0.579111
    outer loop
      vertex 22.8349 24.3802 2.8
      vertex 23.9423 22.6375 0
      vertex 22.6041 24.1238 2.8
    endloop
  endfacet
  facet normal -0.810771 0.0852543 -0.579122
    outer loop
      vertex 25.15 25.35 0
      vertex 25.0702 24.5911 0
      vertex 23.15 25.35 2.8
    endloop
  endfacet
  facet normal 0.810761 0.0853059 -0.579129
    outer loop
      vertex 19.85 25.35 2.8
      vertex 19.8861 25.0069 2.8
      vertex 17.9298 24.5911 0
    endloop
  endfacet
  facet normal 0.810767 -0.0853066 -0.579119
    outer loop
      vertex 19.8861 25.6931 2.8
      vertex 19.85 25.35 2.8
      vertex 17.85 25.35 0
    endloop
  endfacet
  facet normal 0.331602 -0.744745 -0.579134
    outer loop
      vertex 20.9901 26.9192 2.8
      vertex 20.675 26.7789 2.8
      vertex 19.675 28.511 0
    endloop
  endfacet
  facet normal -0.331602 -0.744745 -0.579134
    outer loop
      vertex 23.325 28.511 0
      vertex 22.325 26.7789 2.8
      vertex 22.0099 26.9192 2.8
    endloop
  endfacet
  facet normal 0.169446 -0.797441 -0.579116
    outer loop
      vertex 21.1185 28.98 0
      vertex 21.3275 26.991 2.8
      vertex 20.3721 28.8214 0
    endloop
  endfacet
  facet normal 0.331612 -0.744739 -0.579135
    outer loop
      vertex 20.3721 28.8214 0
      vertex 20.9901 26.9192 2.8
      vertex 19.675 28.511 0
    endloop
  endfacet
  facet normal 0.169683 -0.797367 -0.579149
    outer loop
      vertex 21.3275 26.991 2.8
      vertex 20.9901 26.9192 2.8
      vertex 20.3721 28.8214 0
    endloop
  endfacet
  facet normal -0.775385 0.251764 -0.579132
    outer loop
      vertex 23.1139 25.0069 2.8
      vertex 25.0702 24.5911 0
      vertex 23.0074 24.6789 2.8
    endloop
  endfacet
  facet normal -0.70597 -0.4077 -0.579126
    outer loop
      vertex 24.4529 27.4954 0
      vertex 23.0074 26.0211 2.8
      vertex 22.8349 26.3198 2.8
    endloop
  endfacet
  facet normal -0.605923 -0.545425 -0.579111
    outer loop
      vertex 23.9423 28.0625 0
      vertex 22.8349 26.3198 2.8
      vertex 22.6041 26.5762 2.8
    endloop
  endfacet
  facet normal -0.47907 -0.659638 -0.579111
    outer loop
      vertex 23.9423 28.0625 0
      vertex 22.6041 26.5762 2.8
      vertex 22.325 26.7789 2.8
    endloop
  endfacet
  facet normal -0.775347 0.251932 -0.579109
    outer loop
      vertex 25.0702 24.5911 0
      vertex 24.8344 23.8654 0
      vertex 23.0074 24.6789 2.8
    endloop
  endfacet
  facet normal 0.775347 0.251932 -0.579109
    outer loop
      vertex 19.9926 24.6789 2.8
      vertex 18.1656 23.8654 0
      vertex 17.9298 24.5911 0
    endloop
  endfacet
  facet normal 0.605851 0.545491 -0.579124
    outer loop
      vertex 20.1651 24.3802 2.8
      vertex 19.0577 22.6375 0
      vertex 18.5471 23.2046 0
    endloop
  endfacet
  facet normal 0.169443 0.797427 -0.579136
    outer loop
      vertex 20.9901 23.7808 2.8
      vertex 21.1185 21.72 0
      vertex 20.3721 21.8786 0
    endloop
  endfacet
  facet normal 0 0.815246 -0.579115
    outer loop
      vertex 21.8815 21.72 0
      vertex 21.3275 23.709 2.8
      vertex 21.6725 23.709 2.8
    endloop
  endfacet
  facet normal 0 0.815246 -0.579115
    outer loop
      vertex 21.3275 23.709 2.8
      vertex 21.8815 21.72 0
      vertex 21.1185 21.72 0
    endloop
  endfacet
  facet normal -0.169683 -0.797367 -0.579149
    outer loop
      vertex 22.6279 28.8214 0
      vertex 22.0099 26.9192 2.8
      vertex 21.6725 26.991 2.8
    endloop
  endfacet
  facet normal -0.810767 -0.0853066 -0.579119
    outer loop
      vertex 25.15 25.35 0
      vertex 23.15 25.35 2.8
      vertex 23.1139 25.6931 2.8
    endloop
  endfacet
  facet normal -0.775385 -0.251764 -0.579132
    outer loop
      vertex 25.0702 26.1089 0
      vertex 23.1139 25.6931 2.8
      vertex 23.0074 26.0211 2.8
    endloop
  endfacet
  facet normal -0.775347 -0.251932 -0.579109
    outer loop
      vertex 24.8344 26.8346 0
      vertex 25.0702 26.1089 0
      vertex 23.0074 26.0211 2.8
    endloop
  endfacet
  facet normal -0.810768 -0.085254 -0.579126
    outer loop
      vertex 25.0702 26.1089 0
      vertex 25.15 25.35 0
      vertex 23.1139 25.6931 2.8
    endloop
  endfacet
  facet normal -0.605851 0.545491 -0.579124
    outer loop
      vertex 24.4529 23.2046 0
      vertex 23.9423 22.6375 0
      vertex 22.8349 24.3802 2.8
    endloop
  endfacet
  facet normal -0.331612 0.744739 -0.579135
    outer loop
      vertex 23.325 22.189 0
      vertex 22.6279 21.8786 0
      vertex 22.0099 23.7808 2.8
    endloop
  endfacet
  facet normal 0.810771 0.0852543 -0.579122
    outer loop
      vertex 19.85 25.35 2.8
      vertex 17.9298 24.5911 0
      vertex 17.85 25.35 0
    endloop
  endfacet
  facet normal 0.706026 0.407611 -0.579121
    outer loop
      vertex 20.1651 24.3802 2.8
      vertex 18.5471 23.2046 0
      vertex 18.1656 23.8654 0
    endloop
  endfacet
  facet normal 0.331602 0.744745 -0.579134
    outer loop
      vertex 20.675 23.9211 2.8
      vertex 20.9901 23.7808 2.8
      vertex 19.675 22.189 0
    endloop
  endfacet
  facet normal 0 -0.815246 -0.579115
    outer loop
      vertex 21.1185 28.98 0
      vertex 21.6725 26.991 2.8
      vertex 21.3275 26.991 2.8
    endloop
  endfacet
  facet normal 0 -0.815246 -0.579115
    outer loop
      vertex 21.6725 26.991 2.8
      vertex 21.1185 28.98 0
      vertex 21.8815 28.98 0
    endloop
  endfacet
  facet normal -0.810761 0.0853059 -0.579129
    outer loop
      vertex 23.15 25.35 2.8
      vertex 25.0702 24.5911 0
      vertex 23.1139 25.0069 2.8
    endloop
  endfacet
  facet normal -0.479186 0.659536 -0.579131
    outer loop
      vertex 23.9423 22.6375 0
      vertex 23.325 22.189 0
      vertex 22.325 23.9211 2.8
    endloop
  endfacet
  facet normal -0.331602 0.744745 -0.579134
    outer loop
      vertex 22.325 23.9211 2.8
      vertex 23.325 22.189 0
      vertex 22.0099 23.7808 2.8
    endloop
  endfacet
  facet normal -0.706026 0.407611 -0.579121
    outer loop
      vertex 24.8344 23.8654 0
      vertex 24.4529 23.2046 0
      vertex 22.8349 24.3802 2.8
    endloop
  endfacet
  facet normal -0.705982 0.407706 -0.579107
    outer loop
      vertex 23.0074 24.6789 2.8
      vertex 24.8344 23.8654 0
      vertex 22.8349 24.3802 2.8
    endloop
  endfacet
  facet normal -0.169689 0.797398 -0.579104
    outer loop
      vertex 22.0099 23.7808 2.8
      vertex 21.8815 21.72 0
      vertex 21.6725 23.709 2.8
    endloop
  endfacet
  facet normal -0.169443 0.797427 -0.579136
    outer loop
      vertex 22.0099 23.7808 2.8
      vertex 22.6279 21.8786 0
      vertex 21.8815 21.72 0
    endloop
  endfacet
  facet normal 0.775385 0.251764 -0.579132
    outer loop
      vertex 19.8861 25.0069 2.8
      vertex 19.9926 24.6789 2.8
      vertex 17.9298 24.5911 0
    endloop
  endfacet
  facet normal 0.605923 0.545425 -0.579111
    outer loop
      vertex 20.1651 24.3802 2.8
      vertex 20.3959 24.1238 2.8
      vertex 19.0577 22.6375 0
    endloop
  endfacet
  facet normal 0.169689 0.797398 -0.579104
    outer loop
      vertex 21.3275 23.709 2.8
      vertex 21.1185 21.72 0
      vertex 20.9901 23.7808 2.8
    endloop
  endfacet
  facet normal 0.47907 0.659638 -0.579111
    outer loop
      vertex 20.3959 24.1238 2.8
      vertex 20.675 23.9211 2.8
      vertex 19.0577 22.6375 0
    endloop
  endfacet
  facet normal 0.479186 0.659536 -0.579131
    outer loop
      vertex 20.675 23.9211 2.8
      vertex 19.675 22.189 0
      vertex 19.0577 22.6375 0
    endloop
  endfacet
  facet normal -0.47907 0.659638 -0.579111
    outer loop
      vertex 22.6041 24.1238 2.8
      vertex 23.9423 22.6375 0
      vertex 22.325 23.9211 2.8
    endloop
  endfacet
  facet normal 0.705982 0.407706 -0.579107
    outer loop
      vertex 19.9926 24.6789 2.8
      vertex 20.1651 24.3802 2.8
      vertex 18.1656 23.8654 0
    endloop
  endfacet
endsolid OpenSCAD_Model
