solid OpenSCAD_Model
  facet normal 0.649452 0.760402 -0
    outer loop
      vertex 2.79307 2.79307 0
      vertex 2.32175 3.19562 2.6
      vertex 2.79307 2.79307 2.6
    endloop
  endfacet
  facet normal 0.649452 0.760402 0
    outer loop
      vertex 2.32175 3.19562 2.6
      vertex 2.79307 2.79307 0
      vertex 2.32175 3.19562 0
    endloop
  endfacet
  facet normal -0.233451 -0.972369 0
    outer loop
      vertex -1.22062 -3.75667 0
      vertex -0.617916 -3.90137 2.6
      vertex -1.22062 -3.75667 2.6
    endloop
  endfacet
  facet normal -0.233451 -0.972369 -0
    outer loop
      vertex -0.617916 -3.90137 2.6
      vertex -1.22062 -3.75667 0
      vertex -0.617916 -3.90137 0
    endloop
  endfacet
  facet normal -0.233451 0.972369 0
    outer loop
      vertex -0.617916 3.90137 0
      vertex -1.22062 3.75667 2.6
      vertex -0.617916 3.90137 2.6
    endloop
  endfacet
  facet normal -0.233451 0.972369 0
    outer loop
      vertex -1.22062 3.75667 2.6
      vertex -0.617916 3.90137 0
      vertex -1.22062 3.75667 0
    endloop
  endfacet
  facet normal -0.923877 0.38269 0
    outer loop
      vertex -3.75667 1.22062 0
      vertex -3.51947 1.79326 2.6
      vertex -3.51947 1.79326 0
    endloop
  endfacet
  facet normal -0.923877 0.38269 0
    outer loop
      vertex -3.51947 1.79326 2.6
      vertex -3.75667 1.22062 0
      vertex -3.75667 1.22062 2.6
    endloop
  endfacet
  facet normal 0.972369 0.233451 0
    outer loop
      vertex 3.90137 0.617916 2.6
      vertex 3.75667 1.22062 0
      vertex 3.75667 1.22062 2.6
    endloop
  endfacet
  facet normal 0.972369 0.233451 0
    outer loop
      vertex 3.75667 1.22062 0
      vertex 3.90137 0.617916 2.6
      vertex 3.90137 0.617916 0
    endloop
  endfacet
  facet normal 0.923877 0.38269 0
    outer loop
      vertex 3.75667 1.22062 2.6
      vertex 3.51947 1.79326 0
      vertex 3.51947 1.79326 2.6
    endloop
  endfacet
  facet normal 0.923877 0.38269 0
    outer loop
      vertex 3.51947 1.79326 0
      vertex 3.75667 1.22062 2.6
      vertex 3.75667 1.22062 0
    endloop
  endfacet
  facet normal 0.852647 0.522488 0
    outer loop
      vertex 3.51947 1.79326 2.6
      vertex 3.19562 2.32175 0
      vertex 3.19562 2.32175 2.6
    endloop
  endfacet
  facet normal 0.852647 0.522488 0
    outer loop
      vertex 3.19562 2.32175 0
      vertex 3.51947 1.79326 2.6
      vertex 3.51947 1.79326 0
    endloop
  endfacet
  facet normal 0.760402 0.649452 0
    outer loop
      vertex 3.19562 2.32175 2.6
      vertex 2.79307 2.79307 0
      vertex 2.79307 2.79307 2.6
    endloop
  endfacet
  facet normal 0.760402 0.649452 0
    outer loop
      vertex 2.79307 2.79307 0
      vertex 3.19562 2.32175 2.6
      vertex 3.19562 2.32175 0
    endloop
  endfacet
  facet normal 0.38269 0.923877 -0
    outer loop
      vertex 1.79326 3.51947 0
      vertex 1.22062 3.75667 2.6
      vertex 1.79326 3.51947 2.6
    endloop
  endfacet
  facet normal 0.38269 0.923877 0
    outer loop
      vertex 1.22062 3.75667 2.6
      vertex 1.79326 3.51947 0
      vertex 1.22062 3.75667 0
    endloop
  endfacet
  facet normal 0.0784574 0.996917 -0
    outer loop
      vertex 0.617916 3.90137 0
      vertex 0 3.95 2.6
      vertex 0.617916 3.90137 2.6
    endloop
  endfacet
  facet normal 0.0784574 0.996917 0
    outer loop
      vertex 0 3.95 2.6
      vertex 0.617916 3.90137 0
      vertex 0 3.95 0
    endloop
  endfacet
  facet normal -0.996917 0.0784574 0
    outer loop
      vertex -3.95 0 0
      vertex -3.90137 0.617916 2.6
      vertex -3.90137 0.617916 0
    endloop
  endfacet
  facet normal -0.996917 0.0784574 0
    outer loop
      vertex -3.90137 0.617916 2.6
      vertex -3.95 0 0
      vertex -3.95 0 2.6
    endloop
  endfacet
  facet normal -0.760402 0.649452 0
    outer loop
      vertex -3.19562 2.32175 0
      vertex -2.79307 2.79307 2.6
      vertex -2.79307 2.79307 0
    endloop
  endfacet
  facet normal -0.760402 0.649452 0
    outer loop
      vertex -2.79307 2.79307 2.6
      vertex -3.19562 2.32175 0
      vertex -3.19562 2.32175 2.6
    endloop
  endfacet
  facet normal -0.0784574 0.996917 0
    outer loop
      vertex 0 3.95 0
      vertex -0.617916 3.90137 2.6
      vertex 0 3.95 2.6
    endloop
  endfacet
  facet normal -0.0784574 0.996917 0
    outer loop
      vertex -0.617916 3.90137 2.6
      vertex 0 3.95 0
      vertex -0.617916 3.90137 0
    endloop
  endfacet
  facet normal -0.649452 0.760402 0
    outer loop
      vertex -2.32175 3.19562 0
      vertex -2.79307 2.79307 2.6
      vertex -2.32175 3.19562 2.6
    endloop
  endfacet
  facet normal -0.649452 0.760402 0
    outer loop
      vertex -2.79307 2.79307 2.6
      vertex -2.32175 3.19562 0
      vertex -2.79307 2.79307 0
    endloop
  endfacet
  facet normal 0.996917 0.0784574 0
    outer loop
      vertex 3.95 0 2.6
      vertex 3.90137 0.617916 0
      vertex 3.90137 0.617916 2.6
    endloop
  endfacet
  facet normal 0.996917 0.0784574 0
    outer loop
      vertex 3.90137 0.617916 0
      vertex 3.95 0 2.6
      vertex 3.95 0 0
    endloop
  endfacet
  facet normal 0.0784574 -0.996917 0
    outer loop
      vertex 0 -3.95 0
      vertex 0.617916 -3.90137 2.6
      vertex 0 -3.95 2.6
    endloop
  endfacet
  facet normal 0.0784574 -0.996917 0
    outer loop
      vertex 0.617916 -3.90137 2.6
      vertex 0 -3.95 0
      vertex 0.617916 -3.90137 0
    endloop
  endfacet
  facet normal 0.233451 -0.972369 0
    outer loop
      vertex 0.617916 -3.90137 0
      vertex 1.22062 -3.75667 2.6
      vertex 0.617916 -3.90137 2.6
    endloop
  endfacet
  facet normal 0.233451 -0.972369 0
    outer loop
      vertex 1.22062 -3.75667 2.6
      vertex 0.617916 -3.90137 0
      vertex 1.22062 -3.75667 0
    endloop
  endfacet
  facet normal 0.760402 -0.649452 0
    outer loop
      vertex 2.79307 -2.79307 2.6
      vertex 3.19562 -2.32175 0
      vertex 3.19562 -2.32175 2.6
    endloop
  endfacet
  facet normal 0.760402 -0.649452 0
    outer loop
      vertex 3.19562 -2.32175 0
      vertex 2.79307 -2.79307 2.6
      vertex 2.79307 -2.79307 0
    endloop
  endfacet
  facet normal -0.0784574 -0.996917 0
    outer loop
      vertex -0.617916 -3.90137 0
      vertex 0 -3.95 2.6
      vertex -0.617916 -3.90137 2.6
    endloop
  endfacet
  facet normal -0.0784574 -0.996917 -0
    outer loop
      vertex 0 -3.95 2.6
      vertex -0.617916 -3.90137 0
      vertex 0 -3.95 0
    endloop
  endfacet
  facet normal -0.649452 -0.760402 0
    outer loop
      vertex -2.79307 -2.79307 0
      vertex -2.32175 -3.19562 2.6
      vertex -2.79307 -2.79307 2.6
    endloop
  endfacet
  facet normal -0.649452 -0.760402 -0
    outer loop
      vertex -2.32175 -3.19562 2.6
      vertex -2.79307 -2.79307 0
      vertex -2.32175 -3.19562 0
    endloop
  endfacet
  facet normal -0.996917 -0.0784574 0
    outer loop
      vertex -3.90137 -0.617916 0
      vertex -3.95 0 2.6
      vertex -3.95 0 0
    endloop
  endfacet
  facet normal -0.996917 -0.0784574 0
    outer loop
      vertex -3.95 0 2.6
      vertex -3.90137 -0.617916 0
      vertex -3.90137 -0.617916 2.6
    endloop
  endfacet
  facet normal 0 0 -1
    outer loop
      vertex 2.15 0 0
      vertex 3.95 0 0
      vertex 3.90137 -0.617916 0
    endloop
  endfacet
  facet normal 0 0 -1
    outer loop
      vertex 2.12353 -0.336333 0
      vertex 3.90137 -0.617916 0
      vertex 3.75667 -1.22062 0
    endloop
  endfacet
  facet normal 0 0 -1
    outer loop
      vertex 3.95 0 0
      vertex 2.15 0 0
      vertex 3.90137 0.617916 0
    endloop
  endfacet
  facet normal 0 0 -1
    outer loop
      vertex 2.04477 -0.664386 0
      vertex 3.75667 -1.22062 0
      vertex 3.51947 -1.79326 0
    endloop
  endfacet
  facet normal 0 0 -1
    outer loop
      vertex 2.12353 0.336333 0
      vertex 3.90137 0.617916 0
      vertex 2.15 0 0
    endloop
  endfacet
  facet normal 0 0 -1
    outer loop
      vertex 1.91566 -0.976079 0
      vertex 3.51947 -1.79326 0
      vertex 3.19562 -2.32175 0
    endloop
  endfacet
  facet normal -0 0 -1
    outer loop
      vertex 3.90137 0.617916 0
      vertex 2.12353 0.336333 0
      vertex 3.75667 1.22062 0
    endloop
  endfacet
  facet normal 0 0 -1
    outer loop
      vertex 1.73939 -1.26374 0
      vertex 3.19562 -2.32175 0
      vertex 2.79307 -2.79307 0
    endloop
  endfacet
  facet normal 0 0 -1
    outer loop
      vertex 2.04477 0.664386 0
      vertex 3.75667 1.22062 0
      vertex 2.12353 0.336333 0
    endloop
  endfacet
  facet normal 0 0 -1
    outer loop
      vertex 1.52028 -1.52028 0
      vertex 2.79307 -2.79307 0
      vertex 2.32175 -3.19562 0
    endloop
  endfacet
  facet normal -0 0 -1
    outer loop
      vertex 3.75667 1.22062 0
      vertex 2.04477 0.664386 0
      vertex 3.51947 1.79326 0
    endloop
  endfacet
  facet normal 0 0 -1
    outer loop
      vertex 1.91566 0.976079 0
      vertex 3.51947 1.79326 0
      vertex 2.04477 0.664386 0
    endloop
  endfacet
  facet normal 0 0 -1
    outer loop
      vertex 3.90137 -0.617916 0
      vertex 2.12353 -0.336333 0
      vertex 2.15 0 0
    endloop
  endfacet
  facet normal 0 0 -1
    outer loop
      vertex 3.75667 -1.22062 0
      vertex 2.04477 -0.664386 0
      vertex 2.12353 -0.336333 0
    endloop
  endfacet
  facet normal 0 0 -1
    outer loop
      vertex 3.51947 -1.79326 0
      vertex 1.91566 -0.976079 0
      vertex 2.04477 -0.664386 0
    endloop
  endfacet
  facet normal 0 0 -1
    outer loop
      vertex 1.26374 -1.73939 0
      vertex 2.32175 -3.19562 0
      vertex 1.79326 -3.51947 0
    endloop
  endfacet
  facet normal 0 0 -1
    outer loop
      vertex 3.19562 -2.32175 0
      vertex 1.73939 -1.26374 0
      vertex 1.91566 -0.976079 0
    endloop
  endfacet
  facet normal 0 0 -1
    outer loop
      vertex 2.79307 -2.79307 0
      vertex 1.52028 -1.52028 0
      vertex 1.73939 -1.26374 0
    endloop
  endfacet
  facet normal 0 0 -1
    outer loop
      vertex 2.32175 -3.19562 0
      vertex 1.26374 -1.73939 0
      vertex 1.52028 -1.52028 0
    endloop
  endfacet
  facet normal 0 0 -1
    outer loop
      vertex 0.976079 -1.91566 0
      vertex 1.79326 -3.51947 0
      vertex 1.22062 -3.75667 0
    endloop
  endfacet
  facet normal 0 0 -1
    outer loop
      vertex 1.79326 -3.51947 0
      vertex 0.976079 -1.91566 0
      vertex 1.26374 -1.73939 0
    endloop
  endfacet
  facet normal 0 0 -1
    outer loop
      vertex 1.22062 -3.75667 0
      vertex 0.664386 -2.04477 0
      vertex 0.976079 -1.91566 0
    endloop
  endfacet
  facet normal 0 0 -1
    outer loop
      vertex 0.617916 -3.90137 0
      vertex 0.664386 -2.04477 0
      vertex 1.22062 -3.75667 0
    endloop
  endfacet
  facet normal 0 0 -1
    outer loop
      vertex 0.617916 -3.90137 0
      vertex 0.336333 -2.12353 0
      vertex 0.664386 -2.04477 0
    endloop
  endfacet
  facet normal 0 0 -1
    outer loop
      vertex 0 -3.95 0
      vertex 0.336333 -2.12353 0
      vertex 0.617916 -3.90137 0
    endloop
  endfacet
  facet normal 0 0 -1
    outer loop
      vertex 0 -3.95 0
      vertex 0 -2.15 0
      vertex 0.336333 -2.12353 0
    endloop
  endfacet
  facet normal 0 0 -1
    outer loop
      vertex 0 -3.95 0
      vertex -0.336333 -2.12353 0
      vertex 0 -2.15 0
    endloop
  endfacet
  facet normal 0 0 -1
    outer loop
      vertex -0.617916 -3.90137 0
      vertex -0.336333 -2.12353 0
      vertex 0 -3.95 0
    endloop
  endfacet
  facet normal 0 0 -1
    outer loop
      vertex -0.617916 -3.90137 0
      vertex -0.664386 -2.04477 0
      vertex -0.336333 -2.12353 0
    endloop
  endfacet
  facet normal 0 0 -1
    outer loop
      vertex -1.22062 -3.75667 0
      vertex -0.664386 -2.04477 0
      vertex -0.617916 -3.90137 0
    endloop
  endfacet
  facet normal -0 0 -1
    outer loop
      vertex -0.664386 -2.04477 0
      vertex -1.22062 -3.75667 0
      vertex -0.976079 -1.91566 0
    endloop
  endfacet
  facet normal 0 0 -1
    outer loop
      vertex -1.79326 -3.51947 0
      vertex -0.976079 -1.91566 0
      vertex -1.22062 -3.75667 0
    endloop
  endfacet
  facet normal -0 0 -1
    outer loop
      vertex -0.976079 -1.91566 0
      vertex -1.79326 -3.51947 0
      vertex -1.26374 -1.73939 0
    endloop
  endfacet
  facet normal 0 0 -1
    outer loop
      vertex -2.32175 -3.19562 0
      vertex -1.26374 -1.73939 0
      vertex -1.79326 -3.51947 0
    endloop
  endfacet
  facet normal -0 0 -1
    outer loop
      vertex -1.26374 -1.73939 0
      vertex -2.32175 -3.19562 0
      vertex -1.52028 -1.52028 0
    endloop
  endfacet
  facet normal 0 0 -1
    outer loop
      vertex -2.79307 -2.79307 0
      vertex -1.52028 -1.52028 0
      vertex -2.32175 -3.19562 0
    endloop
  endfacet
  facet normal -0 0 -1
    outer loop
      vertex -1.52028 -1.52028 0
      vertex -2.79307 -2.79307 0
      vertex -1.73939 -1.26374 0
    endloop
  endfacet
  facet normal 0 0 -1
    outer loop
      vertex -3.19562 -2.32175 0
      vertex -1.73939 -1.26374 0
      vertex -2.79307 -2.79307 0
    endloop
  endfacet
  facet normal 0 0 -1
    outer loop
      vertex -3.51947 -1.79326 0
      vertex -1.91566 -0.976079 0
      vertex -3.19562 -2.32175 0
    endloop
  endfacet
  facet normal -0 0 -1
    outer loop
      vertex -1.73939 -1.26374 0
      vertex -3.19562 -2.32175 0
      vertex -1.91566 -0.976079 0
    endloop
  endfacet
  facet normal -0 0 -1
    outer loop
      vertex 3.51947 1.79326 0
      vertex 1.91566 0.976079 0
      vertex 3.19562 2.32175 0
    endloop
  endfacet
  facet normal 0 0 -1
    outer loop
      vertex 1.73939 1.26374 0
      vertex 3.19562 2.32175 0
      vertex 1.91566 0.976079 0
    endloop
  endfacet
  facet normal -0 0 -1
    outer loop
      vertex 3.19562 2.32175 0
      vertex 1.73939 1.26374 0
      vertex 2.79307 2.79307 0
    endloop
  endfacet
  facet normal 0 0 -1
    outer loop
      vertex 1.52028 1.52028 0
      vertex 2.79307 2.79307 0
      vertex 1.73939 1.26374 0
    endloop
  endfacet
  facet normal -0 0 -1
    outer loop
      vertex 2.79307 2.79307 0
      vertex 1.52028 1.52028 0
      vertex 2.32175 3.19562 0
    endloop
  endfacet
  facet normal 0 0 -1
    outer loop
      vertex 1.26374 1.73939 0
      vertex 2.32175 3.19562 0
      vertex 1.52028 1.52028 0
    endloop
  endfacet
  facet normal -0 0 -1
    outer loop
      vertex 2.32175 3.19562 0
      vertex 1.26374 1.73939 0
      vertex 1.79326 3.51947 0
    endloop
  endfacet
  facet normal 0 0 -1
    outer loop
      vertex 0.976079 1.91566 0
      vertex 1.79326 3.51947 0
      vertex 1.26374 1.73939 0
    endloop
  endfacet
  facet normal -0 0 -1
    outer loop
      vertex 1.79326 3.51947 0
      vertex 0.976079 1.91566 0
      vertex 1.22062 3.75667 0
    endloop
  endfacet
  facet normal 0 0 -1
    outer loop
      vertex 0.664386 2.04477 0
      vertex 1.22062 3.75667 0
      vertex 0.976079 1.91566 0
    endloop
  endfacet
  facet normal 0 0 -1
    outer loop
      vertex 0.664386 2.04477 0
      vertex 0.617916 3.90137 0
      vertex 1.22062 3.75667 0
    endloop
  endfacet
  facet normal 0 0 -1
    outer loop
      vertex 0.336333 2.12353 0
      vertex 0.617916 3.90137 0
      vertex 0.664386 2.04477 0
    endloop
  endfacet
  facet normal 0 0 -1
    outer loop
      vertex 0 2.15 0
      vertex 0.617916 3.90137 0
      vertex 0.336333 2.12353 0
    endloop
  endfacet
  facet normal 0 0 -1
    outer loop
      vertex 0 2.15 0
      vertex 0 3.95 0
      vertex 0.617916 3.90137 0
    endloop
  endfacet
  facet normal 0 0 -1
    outer loop
      vertex -0.336333 2.12353 0
      vertex 0 3.95 0
      vertex 0 2.15 0
    endloop
  endfacet
  facet normal 0 0 -1
    outer loop
      vertex -0.336333 2.12353 0
      vertex -0.617916 3.90137 0
      vertex 0 3.95 0
    endloop
  endfacet
  facet normal 0 0 -1
    outer loop
      vertex -0.664386 2.04477 0
      vertex -0.617916 3.90137 0
      vertex -0.336333 2.12353 0
    endloop
  endfacet
  facet normal 0 0 -1
    outer loop
      vertex -1.22062 3.75667 0
      vertex -0.664386 2.04477 0
      vertex -0.976079 1.91566 0
    endloop
  endfacet
  facet normal 0 0 -1
    outer loop
      vertex -0.664386 2.04477 0
      vertex -1.22062 3.75667 0
      vertex -0.617916 3.90137 0
    endloop
  endfacet
  facet normal 0 0 -1
    outer loop
      vertex -1.79326 3.51947 0
      vertex -0.976079 1.91566 0
      vertex -1.26374 1.73939 0
    endloop
  endfacet
  facet normal 0 0 -1
    outer loop
      vertex -2.32175 3.19562 0
      vertex -1.26374 1.73939 0
      vertex -1.52028 1.52028 0
    endloop
  endfacet
  facet normal 0 0 -1
    outer loop
      vertex -2.79307 2.79307 0
      vertex -1.52028 1.52028 0
      vertex -1.73939 1.26374 0
    endloop
  endfacet
  facet normal 0 0 -1
    outer loop
      vertex -0.976079 1.91566 0
      vertex -1.79326 3.51947 0
      vertex -1.22062 3.75667 0
    endloop
  endfacet
  facet normal 0 0 -1
    outer loop
      vertex -3.19562 2.32175 0
      vertex -1.73939 1.26374 0
      vertex -1.91566 0.976079 0
    endloop
  endfacet
  facet normal 0 0 -1
    outer loop
      vertex -3.51947 1.79326 0
      vertex -1.91566 0.976079 0
      vertex -2.04477 0.664386 0
    endloop
  endfacet
  facet normal 0 0 -1
    outer loop
      vertex -3.75667 1.22062 0
      vertex -2.04477 0.664386 0
      vertex -2.12353 0.336333 0
    endloop
  endfacet
  facet normal 0 0 -1
    outer loop
      vertex -1.26374 1.73939 0
      vertex -2.32175 3.19562 0
      vertex -1.79326 3.51947 0
    endloop
  endfacet
  facet normal 0 0 -1
    outer loop
      vertex -3.90137 0.617916 0
      vertex -2.12353 0.336333 0
      vertex -2.15 0 0
    endloop
  endfacet
  facet normal -0 0 -1
    outer loop
      vertex -1.91566 -0.976079 0
      vertex -3.51947 -1.79326 0
      vertex -2.04477 -0.664386 0
    endloop
  endfacet
  facet normal 0 0 -1
    outer loop
      vertex -3.75667 -1.22062 0
      vertex -2.04477 -0.664386 0
      vertex -3.51947 -1.79326 0
    endloop
  endfacet
  facet normal 0 0 -1
    outer loop
      vertex -1.52028 1.52028 0
      vertex -2.79307 2.79307 0
      vertex -2.32175 3.19562 0
    endloop
  endfacet
  facet normal -0 0 -1
    outer loop
      vertex -2.04477 -0.664386 0
      vertex -3.75667 -1.22062 0
      vertex -2.12353 -0.336333 0
    endloop
  endfacet
  facet normal 0 0 -1
    outer loop
      vertex -1.73939 1.26374 0
      vertex -3.19562 2.32175 0
      vertex -2.79307 2.79307 0
    endloop
  endfacet
  facet normal 0 0 -1
    outer loop
      vertex -3.90137 -0.617916 0
      vertex -2.12353 -0.336333 0
      vertex -3.75667 -1.22062 0
    endloop
  endfacet
  facet normal 0 0 -1
    outer loop
      vertex -1.91566 0.976079 0
      vertex -3.51947 1.79326 0
      vertex -3.19562 2.32175 0
    endloop
  endfacet
  facet normal -0 0 -1
    outer loop
      vertex -2.12353 -0.336333 0
      vertex -3.90137 -0.617916 0
      vertex -2.15 0 0
    endloop
  endfacet
  facet normal 0 0 -1
    outer loop
      vertex -2.04477 0.664386 0
      vertex -3.75667 1.22062 0
      vertex -3.51947 1.79326 0
    endloop
  endfacet
  facet normal 0 0 -1
    outer loop
      vertex -3.95 0 0
      vertex -2.15 0 0
      vertex -3.90137 -0.617916 0
    endloop
  endfacet
  facet normal 0 0 -1
    outer loop
      vertex -2.12353 0.336333 0
      vertex -3.90137 0.617916 0
      vertex -3.75667 1.22062 0
    endloop
  endfacet
  facet normal 0 0 -1
    outer loop
      vertex -2.15 0 0
      vertex -3.95 0 0
      vertex -3.90137 0.617916 0
    endloop
  endfacet
  facet normal -0.760402 -0.649452 0
    outer loop
      vertex -2.79307 -2.79307 0
      vertex -3.19562 -2.32175 2.6
      vertex -3.19562 -2.32175 0
    endloop
  endfacet
  facet normal -0.760402 -0.649452 0
    outer loop
      vertex -3.19562 -2.32175 2.6
      vertex -2.79307 -2.79307 0
      vertex -2.79307 -2.79307 2.6
    endloop
  endfacet
  facet normal 0.522488 0.852647 -0
    outer loop
      vertex 2.32175 3.19562 0
      vertex 1.79326 3.51947 2.6
      vertex 2.32175 3.19562 2.6
    endloop
  endfacet
  facet normal 0.522488 0.852647 0
    outer loop
      vertex 1.79326 3.51947 2.6
      vertex 2.32175 3.19562 0
      vertex 1.79326 3.51947 0
    endloop
  endfacet
  facet normal 0.233451 0.972369 -0
    outer loop
      vertex 1.22062 3.75667 0
      vertex 0.617916 3.90137 2.6
      vertex 1.22062 3.75667 2.6
    endloop
  endfacet
  facet normal 0.233451 0.972369 0
    outer loop
      vertex 0.617916 3.90137 2.6
      vertex 1.22062 3.75667 0
      vertex 0.617916 3.90137 0
    endloop
  endfacet
  facet normal 0 0 1
    outer loop
      vertex 2.15 0 2.6
      vertex 3.95 0 2.6
      vertex 3.90137 0.617916 2.6
    endloop
  endfacet
  facet normal 0 0 1
    outer loop
      vertex 2.12353 0.336333 2.6
      vertex 3.90137 0.617916 2.6
      vertex 3.75667 1.22062 2.6
    endloop
  endfacet
  facet normal 0 0 1
    outer loop
      vertex 3.95 0 2.6
      vertex 2.15 0 2.6
      vertex 3.90137 -0.617916 2.6
    endloop
  endfacet
  facet normal 0 0 1
    outer loop
      vertex 2.04477 0.664386 2.6
      vertex 3.75667 1.22062 2.6
      vertex 3.51947 1.79326 2.6
    endloop
  endfacet
  facet normal -0 0 1
    outer loop
      vertex 2.12353 -0.336333 2.6
      vertex 3.90137 -0.617916 2.6
      vertex 2.15 0 2.6
    endloop
  endfacet
  facet normal 0 0 1
    outer loop
      vertex 1.91566 0.976079 2.6
      vertex 3.51947 1.79326 2.6
      vertex 3.19562 2.32175 2.6
    endloop
  endfacet
  facet normal 0 0 1
    outer loop
      vertex 3.90137 -0.617916 2.6
      vertex 2.12353 -0.336333 2.6
      vertex 3.75667 -1.22062 2.6
    endloop
  endfacet
  facet normal 0 0 1
    outer loop
      vertex 1.73939 1.26374 2.6
      vertex 3.19562 2.32175 2.6
      vertex 2.79307 2.79307 2.6
    endloop
  endfacet
  facet normal -0 0 1
    outer loop
      vertex 2.04477 -0.664386 2.6
      vertex 3.75667 -1.22062 2.6
      vertex 2.12353 -0.336333 2.6
    endloop
  endfacet
  facet normal 0 0 1
    outer loop
      vertex 1.52028 1.52028 2.6
      vertex 2.79307 2.79307 2.6
      vertex 2.32175 3.19562 2.6
    endloop
  endfacet
  facet normal 0 0 1
    outer loop
      vertex 3.75667 -1.22062 2.6
      vertex 2.04477 -0.664386 2.6
      vertex 3.51947 -1.79326 2.6
    endloop
  endfacet
  facet normal -0 0 1
    outer loop
      vertex 1.91566 -0.976079 2.6
      vertex 3.51947 -1.79326 2.6
      vertex 2.04477 -0.664386 2.6
    endloop
  endfacet
  facet normal 0 0 1
    outer loop
      vertex 3.90137 0.617916 2.6
      vertex 2.12353 0.336333 2.6
      vertex 2.15 0 2.6
    endloop
  endfacet
  facet normal 0 0 1
    outer loop
      vertex 3.75667 1.22062 2.6
      vertex 2.04477 0.664386 2.6
      vertex 2.12353 0.336333 2.6
    endloop
  endfacet
  facet normal 0 0 1
    outer loop
      vertex 3.51947 1.79326 2.6
      vertex 1.91566 0.976079 2.6
      vertex 2.04477 0.664386 2.6
    endloop
  endfacet
  facet normal 0 0 1
    outer loop
      vertex 1.26374 1.73939 2.6
      vertex 2.32175 3.19562 2.6
      vertex 1.79326 3.51947 2.6
    endloop
  endfacet
  facet normal 0 0 1
    outer loop
      vertex 3.19562 2.32175 2.6
      vertex 1.73939 1.26374 2.6
      vertex 1.91566 0.976079 2.6
    endloop
  endfacet
  facet normal 0 0 1
    outer loop
      vertex 2.79307 2.79307 2.6
      vertex 1.52028 1.52028 2.6
      vertex 1.73939 1.26374 2.6
    endloop
  endfacet
  facet normal 0 0 1
    outer loop
      vertex 2.32175 3.19562 2.6
      vertex 1.26374 1.73939 2.6
      vertex 1.52028 1.52028 2.6
    endloop
  endfacet
  facet normal 0 0 1
    outer loop
      vertex 0.976079 1.91566 2.6
      vertex 1.79326 3.51947 2.6
      vertex 1.22062 3.75667 2.6
    endloop
  endfacet
  facet normal 0 0 1
    outer loop
      vertex 1.79326 3.51947 2.6
      vertex 0.976079 1.91566 2.6
      vertex 1.26374 1.73939 2.6
    endloop
  endfacet
  facet normal 0 0 1
    outer loop
      vertex 1.22062 3.75667 2.6
      vertex 0.664386 2.04477 2.6
      vertex 0.976079 1.91566 2.6
    endloop
  endfacet
  facet normal 0 0 1
    outer loop
      vertex 0.617916 3.90137 2.6
      vertex 0.664386 2.04477 2.6
      vertex 1.22062 3.75667 2.6
    endloop
  endfacet
  facet normal 0 0 1
    outer loop
      vertex 0.617916 3.90137 2.6
      vertex 0.336333 2.12353 2.6
      vertex 0.664386 2.04477 2.6
    endloop
  endfacet
  facet normal 0 0 1
    outer loop
      vertex 0 3.95 2.6
      vertex 0.336333 2.12353 2.6
      vertex 0.617916 3.90137 2.6
    endloop
  endfacet
  facet normal 0 0 1
    outer loop
      vertex 0 3.95 2.6
      vertex 0 2.15 2.6
      vertex 0.336333 2.12353 2.6
    endloop
  endfacet
  facet normal 0 0 1
    outer loop
      vertex 0 3.95 2.6
      vertex -0.336333 2.12353 2.6
      vertex 0 2.15 2.6
    endloop
  endfacet
  facet normal -0 0 1
    outer loop
      vertex -0.617916 3.90137 2.6
      vertex -0.336333 2.12353 2.6
      vertex 0 3.95 2.6
    endloop
  endfacet
  facet normal 0 0 1
    outer loop
      vertex -0.617916 3.90137 2.6
      vertex -0.664386 2.04477 2.6
      vertex -0.336333 2.12353 2.6
    endloop
  endfacet
  facet normal -0 0 1
    outer loop
      vertex -1.22062 3.75667 2.6
      vertex -0.664386 2.04477 2.6
      vertex -0.617916 3.90137 2.6
    endloop
  endfacet
  facet normal 0 0 1
    outer loop
      vertex -0.664386 2.04477 2.6
      vertex -1.22062 3.75667 2.6
      vertex -0.976079 1.91566 2.6
    endloop
  endfacet
  facet normal -0 0 1
    outer loop
      vertex -1.79326 3.51947 2.6
      vertex -0.976079 1.91566 2.6
      vertex -1.22062 3.75667 2.6
    endloop
  endfacet
  facet normal 0 0 1
    outer loop
      vertex -0.976079 1.91566 2.6
      vertex -1.79326 3.51947 2.6
      vertex -1.26374 1.73939 2.6
    endloop
  endfacet
  facet normal -0 0 1
    outer loop
      vertex -2.32175 3.19562 2.6
      vertex -1.26374 1.73939 2.6
      vertex -1.79326 3.51947 2.6
    endloop
  endfacet
  facet normal 0 0 1
    outer loop
      vertex -1.26374 1.73939 2.6
      vertex -2.32175 3.19562 2.6
      vertex -1.52028 1.52028 2.6
    endloop
  endfacet
  facet normal -0 0 1
    outer loop
      vertex -2.79307 2.79307 2.6
      vertex -1.52028 1.52028 2.6
      vertex -2.32175 3.19562 2.6
    endloop
  endfacet
  facet normal 0 0 1
    outer loop
      vertex -1.52028 1.52028 2.6
      vertex -2.79307 2.79307 2.6
      vertex -1.73939 1.26374 2.6
    endloop
  endfacet
  facet normal -0 0 1
    outer loop
      vertex -3.19562 2.32175 2.6
      vertex -1.73939 1.26374 2.6
      vertex -2.79307 2.79307 2.6
    endloop
  endfacet
  facet normal -0 0 1
    outer loop
      vertex -3.51947 1.79326 2.6
      vertex -1.91566 0.976079 2.6
      vertex -3.19562 2.32175 2.6
    endloop
  endfacet
  facet normal 0 0 1
    outer loop
      vertex -1.73939 1.26374 2.6
      vertex -3.19562 2.32175 2.6
      vertex -1.91566 0.976079 2.6
    endloop
  endfacet
  facet normal 0 0 1
    outer loop
      vertex 3.51947 -1.79326 2.6
      vertex 1.91566 -0.976079 2.6
      vertex 3.19562 -2.32175 2.6
    endloop
  endfacet
  facet normal -0 0 1
    outer loop
      vertex 1.73939 -1.26374 2.6
      vertex 3.19562 -2.32175 2.6
      vertex 1.91566 -0.976079 2.6
    endloop
  endfacet
  facet normal 0 0 1
    outer loop
      vertex 3.19562 -2.32175 2.6
      vertex 1.73939 -1.26374 2.6
      vertex 2.79307 -2.79307 2.6
    endloop
  endfacet
  facet normal -0 0 1
    outer loop
      vertex 1.52028 -1.52028 2.6
      vertex 2.79307 -2.79307 2.6
      vertex 1.73939 -1.26374 2.6
    endloop
  endfacet
  facet normal 0 0 1
    outer loop
      vertex 2.79307 -2.79307 2.6
      vertex 1.52028 -1.52028 2.6
      vertex 2.32175 -3.19562 2.6
    endloop
  endfacet
  facet normal -0 0 1
    outer loop
      vertex 1.26374 -1.73939 2.6
      vertex 2.32175 -3.19562 2.6
      vertex 1.52028 -1.52028 2.6
    endloop
  endfacet
  facet normal 0 0 1
    outer loop
      vertex 2.32175 -3.19562 2.6
      vertex 1.26374 -1.73939 2.6
      vertex 1.79326 -3.51947 2.6
    endloop
  endfacet
  facet normal -0 0 1
    outer loop
      vertex 0.976079 -1.91566 2.6
      vertex 1.79326 -3.51947 2.6
      vertex 1.26374 -1.73939 2.6
    endloop
  endfacet
  facet normal 0 0 1
    outer loop
      vertex 1.79326 -3.51947 2.6
      vertex 0.976079 -1.91566 2.6
      vertex 1.22062 -3.75667 2.6
    endloop
  endfacet
  facet normal -0 0 1
    outer loop
      vertex 0.664386 -2.04477 2.6
      vertex 1.22062 -3.75667 2.6
      vertex 0.976079 -1.91566 2.6
    endloop
  endfacet
  facet normal 0 0 1
    outer loop
      vertex 0.664386 -2.04477 2.6
      vertex 0.617916 -3.90137 2.6
      vertex 1.22062 -3.75667 2.6
    endloop
  endfacet
  facet normal -0 0 1
    outer loop
      vertex 0.336333 -2.12353 2.6
      vertex 0.617916 -3.90137 2.6
      vertex 0.664386 -2.04477 2.6
    endloop
  endfacet
  facet normal -0 0 1
    outer loop
      vertex 0 -2.15 2.6
      vertex 0.617916 -3.90137 2.6
      vertex 0.336333 -2.12353 2.6
    endloop
  endfacet
  facet normal 0 0 1
    outer loop
      vertex 0 -2.15 2.6
      vertex 0 -3.95 2.6
      vertex 0.617916 -3.90137 2.6
    endloop
  endfacet
  facet normal 0 0 1
    outer loop
      vertex -0.336333 -2.12353 2.6
      vertex 0 -3.95 2.6
      vertex 0 -2.15 2.6
    endloop
  endfacet
  facet normal 0 0 1
    outer loop
      vertex -0.336333 -2.12353 2.6
      vertex -0.617916 -3.90137 2.6
      vertex 0 -3.95 2.6
    endloop
  endfacet
  facet normal 0 0 1
    outer loop
      vertex -0.664386 -2.04477 2.6
      vertex -0.617916 -3.90137 2.6
      vertex -0.336333 -2.12353 2.6
    endloop
  endfacet
  facet normal 0 0 1
    outer loop
      vertex -1.22062 -3.75667 2.6
      vertex -0.664386 -2.04477 2.6
      vertex -0.976079 -1.91566 2.6
    endloop
  endfacet
  facet normal 0 0 1
    outer loop
      vertex -0.664386 -2.04477 2.6
      vertex -1.22062 -3.75667 2.6
      vertex -0.617916 -3.90137 2.6
    endloop
  endfacet
  facet normal 0 0 1
    outer loop
      vertex -1.79326 -3.51947 2.6
      vertex -0.976079 -1.91566 2.6
      vertex -1.26374 -1.73939 2.6
    endloop
  endfacet
  facet normal 0 0 1
    outer loop
      vertex -2.32175 -3.19562 2.6
      vertex -1.26374 -1.73939 2.6
      vertex -1.52028 -1.52028 2.6
    endloop
  endfacet
  facet normal 0 0 1
    outer loop
      vertex -2.79307 -2.79307 2.6
      vertex -1.52028 -1.52028 2.6
      vertex -1.73939 -1.26374 2.6
    endloop
  endfacet
  facet normal 0 0 1
    outer loop
      vertex -0.976079 -1.91566 2.6
      vertex -1.79326 -3.51947 2.6
      vertex -1.22062 -3.75667 2.6
    endloop
  endfacet
  facet normal 0 0 1
    outer loop
      vertex -3.19562 -2.32175 2.6
      vertex -1.73939 -1.26374 2.6
      vertex -1.91566 -0.976079 2.6
    endloop
  endfacet
  facet normal 0 0 1
    outer loop
      vertex -3.51947 -1.79326 2.6
      vertex -1.91566 -0.976079 2.6
      vertex -2.04477 -0.664386 2.6
    endloop
  endfacet
  facet normal 0 0 1
    outer loop
      vertex -3.75667 -1.22062 2.6
      vertex -2.04477 -0.664386 2.6
      vertex -2.12353 -0.336333 2.6
    endloop
  endfacet
  facet normal 0 0 1
    outer loop
      vertex -1.26374 -1.73939 2.6
      vertex -2.32175 -3.19562 2.6
      vertex -1.79326 -3.51947 2.6
    endloop
  endfacet
  facet normal 0 0 1
    outer loop
      vertex -3.90137 -0.617916 2.6
      vertex -2.12353 -0.336333 2.6
      vertex -2.15 0 2.6
    endloop
  endfacet
  facet normal 0 0 1
    outer loop
      vertex -1.91566 0.976079 2.6
      vertex -3.51947 1.79326 2.6
      vertex -2.04477 0.664386 2.6
    endloop
  endfacet
  facet normal -0 0 1
    outer loop
      vertex -3.75667 1.22062 2.6
      vertex -2.04477 0.664386 2.6
      vertex -3.51947 1.79326 2.6
    endloop
  endfacet
  facet normal 0 0 1
    outer loop
      vertex -1.52028 -1.52028 2.6
      vertex -2.79307 -2.79307 2.6
      vertex -2.32175 -3.19562 2.6
    endloop
  endfacet
  facet normal 0 0 1
    outer loop
      vertex -2.04477 0.664386 2.6
      vertex -3.75667 1.22062 2.6
      vertex -2.12353 0.336333 2.6
    endloop
  endfacet
  facet normal 0 0 1
    outer loop
      vertex -1.73939 -1.26374 2.6
      vertex -3.19562 -2.32175 2.6
      vertex -2.79307 -2.79307 2.6
    endloop
  endfacet
  facet normal -0 0 1
    outer loop
      vertex -3.90137 0.617916 2.6
      vertex -2.12353 0.336333 2.6
      vertex -3.75667 1.22062 2.6
    endloop
  endfacet
  facet normal 0 0 1
    outer loop
      vertex -1.91566 -0.976079 2.6
      vertex -3.51947 -1.79326 2.6
      vertex -3.19562 -2.32175 2.6
    endloop
  endfacet
  facet normal 0 0 1
    outer loop
      vertex -2.12353 0.336333 2.6
      vertex -3.90137 0.617916 2.6
      vertex -2.15 0 2.6
    endloop
  endfacet
  facet normal 0 0 1
    outer loop
      vertex -2.04477 -0.664386 2.6
      vertex -3.75667 -1.22062 2.6
      vertex -3.51947 -1.79326 2.6
    endloop
  endfacet
  facet normal 0 0 1
    outer loop
      vertex -3.95 0 2.6
      vertex -2.15 0 2.6
      vertex -3.90137 0.617916 2.6
    endloop
  endfacet
  facet normal 0 0 1
    outer loop
      vertex -2.12353 -0.336333 2.6
      vertex -3.90137 -0.617916 2.6
      vertex -3.75667 -1.22062 2.6
    endloop
  endfacet
  facet normal 0 0 1
    outer loop
      vertex -2.15 0 2.6
      vertex -3.95 0 2.6
      vertex -3.90137 -0.617916 2.6
    endloop
  endfacet
  facet normal -0.972369 0.233451 0
    outer loop
      vertex -3.90137 0.617916 0
      vertex -3.75667 1.22062 2.6
      vertex -3.75667 1.22062 0
    endloop
  endfacet
  facet normal -0.972369 0.233451 0
    outer loop
      vertex -3.75667 1.22062 2.6
      vertex -3.90137 0.617916 0
      vertex -3.90137 0.617916 2.6
    endloop
  endfacet
  facet normal -0.852647 0.522488 0
    outer loop
      vertex -3.51947 1.79326 0
      vertex -3.19562 2.32175 2.6
      vertex -3.19562 2.32175 0
    endloop
  endfacet
  facet normal -0.852647 0.522488 0
    outer loop
      vertex -3.19562 2.32175 2.6
      vertex -3.51947 1.79326 0
      vertex -3.51947 1.79326 2.6
    endloop
  endfacet
  facet normal -0.522488 0.852647 0
    outer loop
      vertex -1.79326 3.51947 0
      vertex -2.32175 3.19562 2.6
      vertex -1.79326 3.51947 2.6
    endloop
  endfacet
  facet normal -0.522488 0.852647 0
    outer loop
      vertex -2.32175 3.19562 2.6
      vertex -1.79326 3.51947 0
      vertex -2.32175 3.19562 0
    endloop
  endfacet
  facet normal -0.38269 0.923877 0
    outer loop
      vertex -1.22062 3.75667 0
      vertex -1.79326 3.51947 2.6
      vertex -1.22062 3.75667 2.6
    endloop
  endfacet
  facet normal -0.38269 0.923877 0
    outer loop
      vertex -1.79326 3.51947 2.6
      vertex -1.22062 3.75667 0
      vertex -1.79326 3.51947 0
    endloop
  endfacet
  facet normal 0.972369 -0.233451 0
    outer loop
      vertex 3.75667 -1.22062 2.6
      vertex 3.90137 -0.617916 0
      vertex 3.90137 -0.617916 2.6
    endloop
  endfacet
  facet normal 0.972369 -0.233451 0
    outer loop
      vertex 3.90137 -0.617916 0
      vertex 3.75667 -1.22062 2.6
      vertex 3.75667 -1.22062 0
    endloop
  endfacet
  facet normal 0.649452 -0.760402 0
    outer loop
      vertex 2.32175 -3.19562 0
      vertex 2.79307 -2.79307 2.6
      vertex 2.32175 -3.19562 2.6
    endloop
  endfacet
  facet normal 0.649452 -0.760402 0
    outer loop
      vertex 2.79307 -2.79307 2.6
      vertex 2.32175 -3.19562 0
      vertex 2.79307 -2.79307 0
    endloop
  endfacet
  facet normal 0.38269 -0.923877 0
    outer loop
      vertex 1.22062 -3.75667 0
      vertex 1.79326 -3.51947 2.6
      vertex 1.22062 -3.75667 2.6
    endloop
  endfacet
  facet normal 0.38269 -0.923877 0
    outer loop
      vertex 1.79326 -3.51947 2.6
      vertex 1.22062 -3.75667 0
      vertex 1.79326 -3.51947 0
    endloop
  endfacet
  facet normal 0.852647 -0.522488 0
    outer loop
      vertex 3.19562 -2.32175 2.6
      vertex 3.51947 -1.79326 0
      vertex 3.51947 -1.79326 2.6
    endloop
  endfacet
  facet normal 0.852647 -0.522488 0
    outer loop
      vertex 3.51947 -1.79326 0
      vertex 3.19562 -2.32175 2.6
      vertex 3.19562 -2.32175 0
    endloop
  endfacet
  facet normal -0.522488 -0.852647 0
    outer loop
      vertex -2.32175 -3.19562 0
      vertex -1.79326 -3.51947 2.6
      vertex -2.32175 -3.19562 2.6
    endloop
  endfacet
  facet normal -0.522488 -0.852647 -0
    outer loop
      vertex -1.79326 -3.51947 2.6
      vertex -2.32175 -3.19562 0
      vertex -1.79326 -3.51947 0
    endloop
  endfacet
  facet normal -0.972369 -0.233451 0
    outer loop
      vertex -3.75667 -1.22062 0
      vertex -3.90137 -0.617916 2.6
      vertex -3.90137 -0.617916 0
    endloop
  endfacet
  facet normal -0.972369 -0.233451 0
    outer loop
      vertex -3.90137 -0.617916 2.6
      vertex -3.75667 -1.22062 0
      vertex -3.75667 -1.22062 2.6
    endloop
  endfacet
  facet normal -0.923877 -0.38269 0
    outer loop
      vertex -3.51947 -1.79326 0
      vertex -3.75667 -1.22062 2.6
      vertex -3.75667 -1.22062 0
    endloop
  endfacet
  facet normal -0.923877 -0.38269 0
    outer loop
      vertex -3.75667 -1.22062 2.6
      vertex -3.51947 -1.79326 0
      vertex -3.51947 -1.79326 2.6
    endloop
  endfacet
  facet normal 0.996917 -0.0784574 0
    outer loop
      vertex 3.90137 -0.617916 2.6
      vertex 3.95 0 0
      vertex 3.95 0 2.6
    endloop
  endfacet
  facet normal 0.996917 -0.0784574 0
    outer loop
      vertex 3.95 0 0
      vertex 3.90137 -0.617916 2.6
      vertex 3.90137 -0.617916 0
    endloop
  endfacet
  facet normal 0.522488 -0.852647 0
    outer loop
      vertex 1.79326 -3.51947 0
      vertex 2.32175 -3.19562 2.6
      vertex 1.79326 -3.51947 2.6
    endloop
  endfacet
  facet normal 0.522488 -0.852647 0
    outer loop
      vertex 2.32175 -3.19562 2.6
      vertex 1.79326 -3.51947 0
      vertex 2.32175 -3.19562 0
    endloop
  endfacet
  facet normal 0.923877 -0.38269 0
    outer loop
      vertex 3.51947 -1.79326 2.6
      vertex 3.75667 -1.22062 0
      vertex 3.75667 -1.22062 2.6
    endloop
  endfacet
  facet normal 0.923877 -0.38269 0
    outer loop
      vertex 3.75667 -1.22062 0
      vertex 3.51947 -1.79326 2.6
      vertex 3.51947 -1.79326 0
    endloop
  endfacet
  facet normal -0.38269 -0.923877 0
    outer loop
      vertex -1.79326 -3.51947 0
      vertex -1.22062 -3.75667 2.6
      vertex -1.79326 -3.51947 2.6
    endloop
  endfacet
  facet normal -0.38269 -0.923877 -0
    outer loop
      vertex -1.22062 -3.75667 2.6
      vertex -1.79326 -3.51947 0
      vertex -1.22062 -3.75667 0
    endloop
  endfacet
  facet normal -0.852647 -0.522488 0
    outer loop
      vertex -3.19562 -2.32175 0
      vertex -3.51947 -1.79326 2.6
      vertex -3.51947 -1.79326 0
    endloop
  endfacet
  facet normal -0.852647 -0.522488 0
    outer loop
      vertex -3.51947 -1.79326 2.6
      vertex -3.19562 -2.32175 0
      vertex -3.19562 -2.32175 2.6
    endloop
  endfacet
  facet normal -0.649455 -0.7604 0
    outer loop
      vertex 1.26374 1.73939 0
      vertex 1.52028 1.52028 2.6
      vertex 1.26374 1.73939 2.6
    endloop
  endfacet
  facet normal -0.649455 -0.7604 -0
    outer loop
      vertex 1.52028 1.52028 2.6
      vertex 1.26374 1.73939 0
      vertex 1.52028 1.52028 0
    endloop
  endfacet
  facet normal 0.923877 -0.38269 0
    outer loop
      vertex -2.04477 0.664386 2.6
      vertex -1.91566 0.976079 0
      vertex -1.91566 0.976079 2.6
    endloop
  endfacet
  facet normal 0.923877 -0.38269 0
    outer loop
      vertex -1.91566 0.976079 0
      vertex -2.04477 0.664386 2.6
      vertex -2.04477 0.664386 0
    endloop
  endfacet
  facet normal -0.996917 0.0784592 0
    outer loop
      vertex 2.12353 -0.336333 0
      vertex 2.15 0 2.6
      vertex 2.15 0 0
    endloop
  endfacet
  facet normal -0.996917 0.0784592 0
    outer loop
      vertex 2.15 0 2.6
      vertex 2.12353 -0.336333 0
      vertex 2.12353 -0.336333 2.6
    endloop
  endfacet
  facet normal 0.38269 0.923877 -0
    outer loop
      vertex -0.664386 -2.04477 0
      vertex -0.976079 -1.91566 2.6
      vertex -0.664386 -2.04477 2.6
    endloop
  endfacet
  facet normal 0.38269 0.923877 0
    outer loop
      vertex -0.976079 -1.91566 2.6
      vertex -0.664386 -2.04477 0
      vertex -0.976079 -1.91566 0
    endloop
  endfacet
  facet normal 0.38269 -0.923877 0
    outer loop
      vertex -0.976079 1.91566 0
      vertex -0.664386 2.04477 2.6
      vertex -0.976079 1.91566 2.6
    endloop
  endfacet
  facet normal 0.38269 -0.923877 0
    outer loop
      vertex -0.664386 2.04477 2.6
      vertex -0.976079 1.91566 0
      vertex -0.664386 2.04477 0
    endloop
  endfacet
  facet normal 0.852652 -0.522479 0
    outer loop
      vertex -1.91566 0.976079 2.6
      vertex -1.73939 1.26374 0
      vertex -1.73939 1.26374 2.6
    endloop
  endfacet
  facet normal 0.852652 -0.522479 0
    outer loop
      vertex -1.73939 1.26374 0
      vertex -1.91566 0.976079 2.6
      vertex -1.91566 0.976079 0
    endloop
  endfacet
  facet normal 0.852652 0.522479 0
    outer loop
      vertex -1.73939 -1.26374 2.6
      vertex -1.91566 -0.976079 0
      vertex -1.91566 -0.976079 2.6
    endloop
  endfacet
  facet normal 0.852652 0.522479 0
    outer loop
      vertex -1.91566 -0.976079 0
      vertex -1.73939 -1.26374 2.6
      vertex -1.73939 -1.26374 0
    endloop
  endfacet
  facet normal -0.923877 -0.38269 0
    outer loop
      vertex 2.04477 0.664386 0
      vertex 1.91566 0.976079 2.6
      vertex 1.91566 0.976079 0
    endloop
  endfacet
  facet normal -0.923877 -0.38269 0
    outer loop
      vertex 1.91566 0.976079 2.6
      vertex 2.04477 0.664386 0
      vertex 2.04477 0.664386 2.6
    endloop
  endfacet
  facet normal -0.852652 -0.522479 0
    outer loop
      vertex 1.91566 0.976079 0
      vertex 1.73939 1.26374 2.6
      vertex 1.73939 1.26374 0
    endloop
  endfacet
  facet normal -0.852652 -0.522479 0
    outer loop
      vertex 1.73939 1.26374 2.6
      vertex 1.91566 0.976079 0
      vertex 1.91566 0.976079 2.6
    endloop
  endfacet
  facet normal -0.7604 -0.649455 0
    outer loop
      vertex 1.73939 1.26374 0
      vertex 1.52028 1.52028 2.6
      vertex 1.52028 1.52028 0
    endloop
  endfacet
  facet normal -0.7604 -0.649455 0
    outer loop
      vertex 1.52028 1.52028 2.6
      vertex 1.73939 1.26374 0
      vertex 1.73939 1.26374 2.6
    endloop
  endfacet
  facet normal -0.522479 -0.852652 0
    outer loop
      vertex 0.976079 1.91566 0
      vertex 1.26374 1.73939 2.6
      vertex 0.976079 1.91566 2.6
    endloop
  endfacet
  facet normal -0.522479 -0.852652 -0
    outer loop
      vertex 1.26374 1.73939 2.6
      vertex 0.976079 1.91566 0
      vertex 1.26374 1.73939 0
    endloop
  endfacet
  facet normal -0.38269 -0.923877 0
    outer loop
      vertex 0.664386 2.04477 0
      vertex 0.976079 1.91566 2.6
      vertex 0.664386 2.04477 2.6
    endloop
  endfacet
  facet normal -0.38269 -0.923877 -0
    outer loop
      vertex 0.976079 1.91566 2.6
      vertex 0.664386 2.04477 0
      vertex 0.976079 1.91566 0
    endloop
  endfacet
  facet normal 0.7604 -0.649455 0
    outer loop
      vertex -1.73939 1.26374 2.6
      vertex -1.52028 1.52028 0
      vertex -1.52028 1.52028 2.6
    endloop
  endfacet
  facet normal 0.7604 -0.649455 0
    outer loop
      vertex -1.52028 1.52028 0
      vertex -1.73939 1.26374 2.6
      vertex -1.73939 1.26374 0
    endloop
  endfacet
  facet normal 0.522479 -0.852652 0
    outer loop
      vertex -1.26374 1.73939 0
      vertex -0.976079 1.91566 2.6
      vertex -1.26374 1.73939 2.6
    endloop
  endfacet
  facet normal 0.522479 -0.852652 0
    outer loop
      vertex -0.976079 1.91566 2.6
      vertex -1.26374 1.73939 0
      vertex -0.976079 1.91566 0
    endloop
  endfacet
  facet normal 0.649455 -0.7604 0
    outer loop
      vertex -1.52028 1.52028 0
      vertex -1.26374 1.73939 2.6
      vertex -1.52028 1.52028 2.6
    endloop
  endfacet
  facet normal 0.649455 -0.7604 0
    outer loop
      vertex -1.26374 1.73939 2.6
      vertex -1.52028 1.52028 0
      vertex -1.26374 1.73939 0
    endloop
  endfacet
  facet normal -0.996917 -0.0784592 0
    outer loop
      vertex 2.15 0 0
      vertex 2.12353 0.336333 2.6
      vertex 2.12353 0.336333 0
    endloop
  endfacet
  facet normal -0.996917 -0.0784592 0
    outer loop
      vertex 2.12353 0.336333 2.6
      vertex 2.15 0 0
      vertex 2.15 0 2.6
    endloop
  endfacet
  facet normal -0.38269 0.923877 0
    outer loop
      vertex 0.976079 -1.91566 0
      vertex 0.664386 -2.04477 2.6
      vertex 0.976079 -1.91566 2.6
    endloop
  endfacet
  facet normal -0.38269 0.923877 0
    outer loop
      vertex 0.664386 -2.04477 2.6
      vertex 0.976079 -1.91566 0
      vertex 0.664386 -2.04477 0
    endloop
  endfacet
  facet normal -0.7604 0.649455 0
    outer loop
      vertex 1.52028 -1.52028 0
      vertex 1.73939 -1.26374 2.6
      vertex 1.73939 -1.26374 0
    endloop
  endfacet
  facet normal -0.7604 0.649455 0
    outer loop
      vertex 1.73939 -1.26374 2.6
      vertex 1.52028 -1.52028 0
      vertex 1.52028 -1.52028 2.6
    endloop
  endfacet
  facet normal -0.522479 0.852652 0
    outer loop
      vertex 1.26374 -1.73939 0
      vertex 0.976079 -1.91566 2.6
      vertex 1.26374 -1.73939 2.6
    endloop
  endfacet
  facet normal -0.522479 0.852652 0
    outer loop
      vertex 0.976079 -1.91566 2.6
      vertex 1.26374 -1.73939 0
      vertex 0.976079 -1.91566 0
    endloop
  endfacet
  facet normal 0.0784592 0.996917 -0
    outer loop
      vertex 0 -2.15 0
      vertex -0.336333 -2.12353 2.6
      vertex 0 -2.15 2.6
    endloop
  endfacet
  facet normal 0.0784592 0.996917 0
    outer loop
      vertex -0.336333 -2.12353 2.6
      vertex 0 -2.15 0
      vertex -0.336333 -2.12353 0
    endloop
  endfacet
  facet normal 0.522479 0.852652 -0
    outer loop
      vertex -0.976079 -1.91566 0
      vertex -1.26374 -1.73939 2.6
      vertex -0.976079 -1.91566 2.6
    endloop
  endfacet
  facet normal 0.522479 0.852652 0
    outer loop
      vertex -1.26374 -1.73939 2.6
      vertex -0.976079 -1.91566 0
      vertex -1.26374 -1.73939 0
    endloop
  endfacet
  facet normal 0.649455 0.7604 -0
    outer loop
      vertex -1.26374 -1.73939 0
      vertex -1.52028 -1.52028 2.6
      vertex -1.26374 -1.73939 2.6
    endloop
  endfacet
  facet normal 0.649455 0.7604 0
    outer loop
      vertex -1.52028 -1.52028 2.6
      vertex -1.26374 -1.73939 0
      vertex -1.52028 -1.52028 0
    endloop
  endfacet
  facet normal 0.972369 0.233449 0
    outer loop
      vertex -2.04477 -0.664386 2.6
      vertex -2.12353 -0.336333 0
      vertex -2.12353 -0.336333 2.6
    endloop
  endfacet
  facet normal 0.972369 0.233449 0
    outer loop
      vertex -2.12353 -0.336333 0
      vertex -2.04477 -0.664386 2.6
      vertex -2.04477 -0.664386 0
    endloop
  endfacet
  facet normal -0.972369 -0.233449 0
    outer loop
      vertex 2.12353 0.336333 0
      vertex 2.04477 0.664386 2.6
      vertex 2.04477 0.664386 0
    endloop
  endfacet
  facet normal -0.972369 -0.233449 0
    outer loop
      vertex 2.04477 0.664386 2.6
      vertex 2.12353 0.336333 0
      vertex 2.12353 0.336333 2.6
    endloop
  endfacet
  facet normal -0.0784592 -0.996917 0
    outer loop
      vertex 0 2.15 0
      vertex 0.336333 2.12353 2.6
      vertex 0 2.15 2.6
    endloop
  endfacet
  facet normal -0.0784592 -0.996917 -0
    outer loop
      vertex 0.336333 2.12353 2.6
      vertex 0 2.15 0
      vertex 0.336333 2.12353 0
    endloop
  endfacet
  facet normal -0.233449 -0.972369 0
    outer loop
      vertex 0.336333 2.12353 0
      vertex 0.664386 2.04477 2.6
      vertex 0.336333 2.12353 2.6
    endloop
  endfacet
  facet normal -0.233449 -0.972369 -0
    outer loop
      vertex 0.664386 2.04477 2.6
      vertex 0.336333 2.12353 0
      vertex 0.664386 2.04477 0
    endloop
  endfacet
  facet normal 0.996917 -0.0784592 0
    outer loop
      vertex -2.15 0 2.6
      vertex -2.12353 0.336333 0
      vertex -2.12353 0.336333 2.6
    endloop
  endfacet
  facet normal 0.996917 -0.0784592 0
    outer loop
      vertex -2.12353 0.336333 0
      vertex -2.15 0 2.6
      vertex -2.15 0 0
    endloop
  endfacet
  facet normal 0.972369 -0.233449 0
    outer loop
      vertex -2.12353 0.336333 2.6
      vertex -2.04477 0.664386 0
      vertex -2.04477 0.664386 2.6
    endloop
  endfacet
  facet normal 0.972369 -0.233449 0
    outer loop
      vertex -2.04477 0.664386 0
      vertex -2.12353 0.336333 2.6
      vertex -2.12353 0.336333 0
    endloop
  endfacet
  facet normal 0.0784592 -0.996917 0
    outer loop
      vertex -0.336333 2.12353 0
      vertex 0 2.15 2.6
      vertex -0.336333 2.12353 2.6
    endloop
  endfacet
  facet normal 0.0784592 -0.996917 0
    outer loop
      vertex 0 2.15 2.6
      vertex -0.336333 2.12353 0
      vertex 0 2.15 0
    endloop
  endfacet
  facet normal 0.233449 -0.972369 0
    outer loop
      vertex -0.664386 2.04477 0
      vertex -0.336333 2.12353 2.6
      vertex -0.664386 2.04477 2.6
    endloop
  endfacet
  facet normal 0.233449 -0.972369 0
    outer loop
      vertex -0.336333 2.12353 2.6
      vertex -0.664386 2.04477 0
      vertex -0.336333 2.12353 0
    endloop
  endfacet
  facet normal -0.0784592 0.996917 0
    outer loop
      vertex 0.336333 -2.12353 0
      vertex 0 -2.15 2.6
      vertex 0.336333 -2.12353 2.6
    endloop
  endfacet
  facet normal -0.0784592 0.996917 0
    outer loop
      vertex 0 -2.15 2.6
      vertex 0.336333 -2.12353 0
      vertex 0 -2.15 0
    endloop
  endfacet
  facet normal -0.972369 0.233449 0
    outer loop
      vertex 2.04477 -0.664386 0
      vertex 2.12353 -0.336333 2.6
      vertex 2.12353 -0.336333 0
    endloop
  endfacet
  facet normal -0.972369 0.233449 0
    outer loop
      vertex 2.12353 -0.336333 2.6
      vertex 2.04477 -0.664386 0
      vertex 2.04477 -0.664386 2.6
    endloop
  endfacet
  facet normal -0.923877 0.38269 0
    outer loop
      vertex 1.91566 -0.976079 0
      vertex 2.04477 -0.664386 2.6
      vertex 2.04477 -0.664386 0
    endloop
  endfacet
  facet normal -0.923877 0.38269 0
    outer loop
      vertex 2.04477 -0.664386 2.6
      vertex 1.91566 -0.976079 0
      vertex 1.91566 -0.976079 2.6
    endloop
  endfacet
  facet normal -0.233449 0.972369 0
    outer loop
      vertex 0.664386 -2.04477 0
      vertex 0.336333 -2.12353 2.6
      vertex 0.664386 -2.04477 2.6
    endloop
  endfacet
  facet normal -0.233449 0.972369 0
    outer loop
      vertex 0.336333 -2.12353 2.6
      vertex 0.664386 -2.04477 0
      vertex 0.336333 -2.12353 0
    endloop
  endfacet
  facet normal -0.649455 0.7604 0
    outer loop
      vertex 1.52028 -1.52028 0
      vertex 1.26374 -1.73939 2.6
      vertex 1.52028 -1.52028 2.6
    endloop
  endfacet
  facet normal -0.649455 0.7604 0
    outer loop
      vertex 1.26374 -1.73939 2.6
      vertex 1.52028 -1.52028 0
      vertex 1.26374 -1.73939 0
    endloop
  endfacet
  facet normal 0.233449 0.972369 -0
    outer loop
      vertex -0.336333 -2.12353 0
      vertex -0.664386 -2.04477 2.6
      vertex -0.336333 -2.12353 2.6
    endloop
  endfacet
  facet normal 0.233449 0.972369 0
    outer loop
      vertex -0.664386 -2.04477 2.6
      vertex -0.336333 -2.12353 0
      vertex -0.664386 -2.04477 0
    endloop
  endfacet
  facet normal 0.923877 0.38269 0
    outer loop
      vertex -1.91566 -0.976079 2.6
      vertex -2.04477 -0.664386 0
      vertex -2.04477 -0.664386 2.6
    endloop
  endfacet
  facet normal 0.923877 0.38269 0
    outer loop
      vertex -2.04477 -0.664386 0
      vertex -1.91566 -0.976079 2.6
      vertex -1.91566 -0.976079 0
    endloop
  endfacet
  facet normal 0.996917 0.0784592 0
    outer loop
      vertex -2.12353 -0.336333 2.6
      vertex -2.15 0 0
      vertex -2.15 0 2.6
    endloop
  endfacet
  facet normal 0.996917 0.0784592 0
    outer loop
      vertex -2.15 0 0
      vertex -2.12353 -0.336333 2.6
      vertex -2.12353 -0.336333 0
    endloop
  endfacet
  facet normal 0.7604 0.649455 0
    outer loop
      vertex -1.52028 -1.52028 2.6
      vertex -1.73939 -1.26374 0
      vertex -1.73939 -1.26374 2.6
    endloop
  endfacet
  facet normal 0.7604 0.649455 0
    outer loop
      vertex -1.73939 -1.26374 0
      vertex -1.52028 -1.52028 2.6
      vertex -1.52028 -1.52028 0
    endloop
  endfacet
  facet normal -0.852652 0.522479 0
    outer loop
      vertex 1.73939 -1.26374 0
      vertex 1.91566 -0.976079 2.6
      vertex 1.91566 -0.976079 0
    endloop
  endfacet
  facet normal -0.852652 0.522479 0
    outer loop
      vertex 1.91566 -0.976079 2.6
      vertex 1.73939 -1.26374 0
      vertex 1.73939 -1.26374 2.6
    endloop
  endfacet
endsolid OpenSCAD_Model
