solid OpenSCAD_Model
  facet normal -0.110616 0.110616 0.987688
    outer loop
      vertex 68.5802 72.8411 17.5228
      vertex -70.7107 -70.7107 18
      vertex 70.7107 70.7107 18
    endloop
  endfacet
  facet normal -0.110616 0.110616 0.987688
    outer loop
      vertex -70.7107 -70.7107 18
      vertex 68.5802 72.8411 17.5228
      vertex -72.8411 -68.5802 17.5228
    endloop
  endfacet
  facet normal -0.6984 0.6984 -0.156443
    outer loop
      vertex 64.1538 77.2675 5.23708
      vertex -77.605 -63.8164 8.25
      vertex 63.8164 77.605 8.25
    endloop
  endfacet
  facet normal -0.6984 0.6984 -0.156443
    outer loop
      vertex -77.605 -63.8164 8.25
      vertex 64.1538 77.2675 5.23708
      vertex -77.2675 -64.1538 5.23708
    endloop
  endfacet
  facet normal -0.707102 -0.707112 -2.23204e-05
    outer loop
      vertex -71.7194 -69.7019 7.78648
      vertex -77.605 -63.8164 8.25
      vertex -77.2675 -64.1538 5.23708
    endloop
  endfacet
  facet normal -0.70711 -0.707103 2.34532e-05
    outer loop
      vertex -71.3341 -70.0872 7.03648
      vertex -77.2675 -64.1538 5.23708
      vertex -76.2883 -65.1331 2.51909
    endloop
  endfacet
  facet normal -0.707101 -0.707113 1.3572e-06
    outer loop
      vertex -77.605 -63.8164 8.25
      vertex -71.7194 -69.7019 7.78648
      vertex -71.7713 -69.65 8.25
    endloop
  endfacet
  facet normal -0.707094 -0.70712 -1.47223e-05
    outer loop
      vertex -71.0384 -70.3829 6.82342
      vertex -76.2883 -65.1331 2.51909
      vertex -74.763 -66.6583 0.362084
    endloop
  endfacet
  facet normal -0.707101 -0.707113 -1.3572e-06
    outer loop
      vertex -71.7194 -69.7019 8.71352
      vertex -77.605 -63.8164 8.25
      vertex -71.7713 -69.65 8.25
    endloop
  endfacet
  facet normal -0.707156 -0.707057 5.7315e-05
    outer loop
      vertex -71.0384 -70.3829 6.82342
      vertex -74.763 -66.6583 0.362084
      vertex -74.2606 -67.1608 0
    endloop
  endfacet
  facet normal -0.70714 -0.707073 -0.000145082
    outer loop
      vertex -71.5688 -69.8526 9.13168
      vertex -77.2675 -64.1538 11.2629
      vertex -71.7194 -69.7019 8.71352
    endloop
  endfacet
  facet normal -0.70708 -0.707133 0.00017546
    outer loop
      vertex -71.3341 -70.0872 9.46352
      vertex -77.2675 -64.1538 11.2629
      vertex -71.5688 -69.8526 9.13168
    endloop
  endfacet
  facet normal -0.707102 -0.707112 2.23206e-05
    outer loop
      vertex -77.605 -63.8164 8.25
      vertex -71.7194 -69.7019 8.71352
      vertex -77.2675 -64.1538 11.2629
    endloop
  endfacet
  facet normal -0.70714 -0.707073 0.000145082
    outer loop
      vertex -77.2675 -64.1538 5.23708
      vertex -71.5688 -69.8526 7.36832
      vertex -71.7194 -69.7019 7.78648
    endloop
  endfacet
  facet normal -0.70708 -0.707133 -0.00017546
    outer loop
      vertex -77.2675 -64.1538 5.23708
      vertex -71.3341 -70.0872 7.03648
      vertex -71.5688 -69.8526 7.36832
    endloop
  endfacet
  facet normal -0.707104 -0.70711 8.74376e-06
    outer loop
      vertex -76.2883 -65.1331 2.51909
      vertex -71.0384 -70.3829 6.82342
      vertex -71.3341 -70.0872 7.03648
    endloop
  endfacet
  facet normal -0.707203 -0.70701 0.000101505
    outer loop
      vertex -74.2606 -67.1608 0
      vertex -70.7107 -70.7107 6.75
      vertex -71.0384 -70.3829 6.82342
    endloop
  endfacet
  facet normal -0.707107 -0.707107 -1.52017e-15
    outer loop
      vertex -67.1608 -74.2606 0
      vertex -70.7107 -70.7107 6.75
      vertex -74.2606 -67.1608 0
    endloop
  endfacet
  facet normal -0.70701 -0.707203 0.000101505
    outer loop
      vertex -70.7107 -70.7107 6.75
      vertex -67.1608 -74.2606 0
      vertex -70.3829 -71.0384 6.82342
    endloop
  endfacet
  facet normal -0.707057 -0.707156 5.7315e-05
    outer loop
      vertex -66.6583 -74.763 0.362084
      vertex -70.3829 -71.0384 6.82342
      vertex -67.1608 -74.2606 0
    endloop
  endfacet
  facet normal -0.707113 -0.707101 1.3572e-06
    outer loop
      vertex -63.8164 -77.605 8.25
      vertex -69.65 -71.7713 8.25
      vertex -69.7019 -71.7194 7.78648
    endloop
  endfacet
  facet normal -0.70712 -0.707094 -1.47223e-05
    outer loop
      vertex -65.1331 -76.2883 2.51909
      vertex -70.3829 -71.0384 6.82342
      vertex -66.6583 -74.763 0.362084
    endloop
  endfacet
  facet normal -0.70711 -0.707104 8.74376e-06
    outer loop
      vertex -70.3829 -71.0384 6.82342
      vertex -65.1331 -76.2883 2.51909
      vertex -70.0872 -71.3341 7.03648
    endloop
  endfacet
  facet normal -0.707103 -0.70711 2.34532e-05
    outer loop
      vertex -64.1538 -77.2675 5.23708
      vertex -70.0872 -71.3341 7.03648
      vertex -65.1331 -76.2883 2.51909
    endloop
  endfacet
  facet normal -0.707133 -0.70708 -0.00017546
    outer loop
      vertex -70.0872 -71.3341 7.03648
      vertex -64.1538 -77.2675 5.23708
      vertex -69.8526 -71.5688 7.36832
    endloop
  endfacet
  facet normal -0.707113 -0.707101 2.21117e-05
    outer loop
      vertex -69.65 -71.7713 8.25
      vertex -63.8164 -77.605 8.25
      vertex -64.1538 -77.2675 11.2629
    endloop
  endfacet
  facet normal -0.707073 -0.70714 0.000145082
    outer loop
      vertex -69.8526 -71.5688 7.36832
      vertex -64.1538 -77.2675 5.23708
      vertex -69.7019 -71.7194 7.78648
    endloop
  endfacet
  facet normal -0.707112 -0.707102 -2.23204e-05
    outer loop
      vertex -69.7019 -71.7194 7.78648
      vertex -64.1538 -77.2675 5.23708
      vertex -63.8164 -77.605 8.25
    endloop
  endfacet
  facet normal -0.707101 -0.707113 -2.1725e-05
    outer loop
      vertex -69.65 -71.7713 8.25
      vertex -64.1538 -77.2675 11.2629
      vertex -65.1331 -76.2883 13.9809
    endloop
  endfacet
  facet normal -0.707122 -0.707092 1.14447e-05
    outer loop
      vertex -69.65 -71.7713 8.25
      vertex -65.1331 -76.2883 13.9809
      vertex -66.6583 -74.763 16.1379
    endloop
  endfacet
  facet normal -0.707107 -0.707107 0
    outer loop
      vertex -69.65 -71.7713 8.25
      vertex -66.6583 -74.763 16.1379
      vertex -68.5802 -72.8411 17.5228
    endloop
  endfacet
  facet normal -0.70711 -0.707103 -2.34532e-05
    outer loop
      vertex -77.2675 -64.1538 11.2629
      vertex -71.3341 -70.0872 9.46352
      vertex -76.2883 -65.1331 13.9809
    endloop
  endfacet
  facet normal -0.707104 -0.70711 -8.74377e-06
    outer loop
      vertex -71.0384 -70.3829 9.67658
      vertex -76.2883 -65.1331 13.9809
      vertex -71.3341 -70.0872 9.46352
    endloop
  endfacet
  facet normal -0.707094 -0.70712 1.47223e-05
    outer loop
      vertex -76.2883 -65.1331 13.9809
      vertex -71.0384 -70.3829 9.67658
      vertex -74.763 -66.6583 16.1379
    endloop
  endfacet
  facet normal -0.707202 -0.707011 -0.000110143
    outer loop
      vertex -70.7107 -70.7107 9.75
      vertex -74.763 -66.6583 16.1379
      vertex -71.0384 -70.3829 9.67658
    endloop
  endfacet
  facet normal -0.70711 -0.707104 7.59678e-06
    outer loop
      vertex -74.763 -66.6583 16.1379
      vertex -70.7107 -70.7107 9.75
      vertex -72.8411 -68.5802 17.5228
    endloop
  endfacet
  facet normal -0.707123 -0.70709 0
    outer loop
      vertex -70.7107 -70.7107 9.75
      vertex -70.7107 -70.7107 18
      vertex -72.8411 -68.5802 17.5228
    endloop
  endfacet
  facet normal -0.707004 -0.707209 -4.71421e-05
    outer loop
      vertex -68.5802 -72.8411 17.5228
      vertex -70.7107 -70.7107 9.75
      vertex -70.3829 -71.0384 9.67658
    endloop
  endfacet
  facet normal -0.707107 -0.707107 0
    outer loop
      vertex -68.5802 -72.8411 17.5228
      vertex -70.3829 -71.0384 9.67658
      vertex -70.0872 -71.3341 9.46352
    endloop
  endfacet
  facet normal -0.707226 -0.706988 4.45639e-05
    outer loop
      vertex -68.5802 -72.8411 17.5228
      vertex -70.0872 -71.3341 9.46352
      vertex -69.8526 -71.5688 9.13168
    endloop
  endfacet
  facet normal -0.706933 -0.70728 -4.41585e-05
    outer loop
      vertex -68.5802 -72.8411 17.5228
      vertex -69.8526 -71.5688 9.13168
      vertex -69.7019 -71.7194 8.71352
    endloop
  endfacet
  facet normal -0.707107 -0.707107 1.10872e-14
    outer loop
      vertex -68.5802 -72.8411 17.5228
      vertex -69.7019 -71.7194 8.71352
      vertex -69.65 -71.7713 8.25
    endloop
  endfacet
  facet normal -0.70709 -0.707123 0
    outer loop
      vertex -70.7107 -70.7107 9.75
      vertex -68.5802 -72.8411 17.5228
      vertex -70.7107 -70.7107 18
    endloop
  endfacet
  facet normal -0.499997 0.499997 -0.707111
    outer loop
      vertex -74.763 -66.6583 0.362084
      vertex 65.1331 76.2883 2.51909
      vertex 66.6583 74.763 0.362084
    endloop
  endfacet
  facet normal -0.499997 0.499997 -0.707111
    outer loop
      vertex 65.1331 76.2883 2.51909
      vertex -74.763 -66.6583 0.362084
      vertex -76.2883 -65.1331 2.51909
    endloop
  endfacet
  facet normal -0.321041 0.321041 -0.890991
    outer loop
      vertex -74.2606 -67.1608 0
      vertex 66.6583 74.763 0.362084
      vertex 67.1608 74.2606 0
    endloop
  endfacet
  facet normal -0.321041 0.321041 -0.890991
    outer loop
      vertex 66.6583 74.763 0.362084
      vertex -74.2606 -67.1608 0
      vertex -74.763 -66.6583 0.362084
    endloop
  endfacet
  facet normal -0.630038 0.630038 -0.453986
    outer loop
      vertex -76.2883 -65.1331 2.51909
      vertex 64.1538 77.2675 5.23708
      vertex 65.1331 76.2883 2.51909
    endloop
  endfacet
  facet normal -0.630038 0.630038 -0.453986
    outer loop
      vertex 64.1538 77.2675 5.23708
      vertex -76.2883 -65.1331 2.51909
      vertex -77.2675 -64.1538 5.23708
    endloop
  endfacet
  facet normal -0.630039 0.630039 0.453985
    outer loop
      vertex 64.1538 77.2675 11.2629
      vertex -76.2883 -65.1331 13.9809
      vertex 65.1331 76.2883 13.9809
    endloop
  endfacet
  facet normal -0.630039 0.630039 0.453985
    outer loop
      vertex -76.2883 -65.1331 13.9809
      vertex 64.1538 77.2675 11.2629
      vertex -77.2675 -64.1538 11.2629
    endloop
  endfacet
  facet normal -0.499997 0.499997 0.707112
    outer loop
      vertex 65.1331 76.2883 13.9809
      vertex -74.763 -66.6583 16.1379
      vertex 66.6583 74.763 16.1379
    endloop
  endfacet
  facet normal -0.499997 0.499997 0.707112
    outer loop
      vertex -74.763 -66.6583 16.1379
      vertex 65.1331 76.2883 13.9809
      vertex -76.2883 -65.1331 13.9809
    endloop
  endfacet
  facet normal -0.6984 0.6984 0.156444
    outer loop
      vertex -77.605 -63.8164 8.25
      vertex 64.1538 77.2675 11.2629
      vertex 63.8164 77.605 8.25
    endloop
  endfacet
  facet normal -0.6984 0.6984 0.156444
    outer loop
      vertex 64.1538 77.2675 11.2629
      vertex -77.605 -63.8164 8.25
      vertex -77.2675 -64.1538 11.2629
    endloop
  endfacet
  facet normal 0.321041 -0.321041 -0.890991
    outer loop
      vertex -66.6583 -74.763 0.362084
      vertex 74.2606 67.1608 0
      vertex 74.763 66.6583 0.362084
    endloop
  endfacet
  facet normal 0.321041 -0.321041 -0.890991
    outer loop
      vertex 74.2606 67.1608 0
      vertex -66.6583 -74.763 0.362084
      vertex -67.1608 -74.2606 0
    endloop
  endfacet
  facet normal 0.499997 -0.499997 0.707112
    outer loop
      vertex 74.763 66.6583 16.1379
      vertex -65.1331 -76.2883 13.9809
      vertex 76.2883 65.1331 13.9809
    endloop
  endfacet
  facet normal 0.499997 -0.499997 0.707112
    outer loop
      vertex -65.1331 -76.2883 13.9809
      vertex 74.763 66.6583 16.1379
      vertex -66.6583 -74.763 16.1379
    endloop
  endfacet
  facet normal 0.110616 -0.110616 0.987688
    outer loop
      vertex 70.7107 70.7107 18
      vertex -68.5802 -72.8411 17.5228
      vertex 72.8411 68.5802 17.5228
    endloop
  endfacet
  facet normal 0.110616 -0.110616 0.987688
    outer loop
      vertex -68.5802 -72.8411 17.5228
      vertex 70.7107 70.7107 18
      vertex -70.7107 -70.7107 18
    endloop
  endfacet
  facet normal -0.321024 0.321024 0.891004
    outer loop
      vertex 66.6583 74.763 16.1379
      vertex -72.8411 -68.5802 17.5228
      vertex 68.5802 72.8411 17.5228
    endloop
  endfacet
  facet normal -0.321024 0.321024 0.891004
    outer loop
      vertex -72.8411 -68.5802 17.5228
      vertex 66.6583 74.763 16.1379
      vertex -74.763 -66.6583 16.1379
    endloop
  endfacet
  facet normal 0.707113 0.707101 -1.3572e-06
    outer loop
      vertex 63.8164 77.605 8.25
      vertex 69.7019 71.7194 8.71352
      vertex 69.65 71.7713 8.25
    endloop
  endfacet
  facet normal 0.706997 0.707217 -9.00031e-05
    outer loop
      vertex 66.6583 74.763 16.1379
      vertex 69.8526 71.5688 9.13168
      vertex 69.7019 71.7194 8.71352
    endloop
  endfacet
  facet normal 0.707194 0.70702 8.96675e-05
    outer loop
      vertex 66.6583 74.763 16.1379
      vertex 70.0872 71.3341 9.46352
      vertex 69.8526 71.5688 9.13168
    endloop
  endfacet
  facet normal 0.707107 0.707107 0
    outer loop
      vertex 66.6583 74.763 16.1379
      vertex 70.3829 71.0384 9.67658
      vertex 70.0872 71.3341 9.46352
    endloop
  endfacet
  facet normal 0.70709 0.707123 -0
    outer loop
      vertex 70.7107 70.7107 9.75
      vertex 68.5802 72.8411 17.5228
      vertex 70.7107 70.7107 18
    endloop
  endfacet
  facet normal 0.707011 0.707202 -0.000110143
    outer loop
      vertex 66.6583 74.763 16.1379
      vertex 70.7107 70.7107 9.75
      vertex 70.3829 71.0384 9.67658
    endloop
  endfacet
  facet normal 0.707123 0.70709 0
    outer loop
      vertex 72.8411 68.5802 17.5228
      vertex 70.7107 70.7107 9.75
      vertex 70.7107 70.7107 18
    endloop
  endfacet
  facet normal 0.70711 0.707104 7.59678e-06
    outer loop
      vertex 74.763 66.6583 16.1379
      vertex 70.7107 70.7107 9.75
      vertex 72.8411 68.5802 17.5228
    endloop
  endfacet
  facet normal 0.707202 0.707011 -0.000110143
    outer loop
      vertex 70.7107 70.7107 9.75
      vertex 74.763 66.6583 16.1379
      vertex 71.0384 70.3829 9.67658
    endloop
  endfacet
  facet normal 0.707094 0.70712 1.47223e-05
    outer loop
      vertex 76.2883 65.1331 13.9809
      vertex 71.0384 70.3829 9.67658
      vertex 74.763 66.6583 16.1379
    endloop
  endfacet
  facet normal 0.707104 0.70711 -8.74377e-06
    outer loop
      vertex 71.0384 70.3829 9.67658
      vertex 76.2883 65.1331 13.9809
      vertex 71.3341 70.0872 9.46352
    endloop
  endfacet
  facet normal 0.70711 0.707103 -2.34532e-05
    outer loop
      vertex 77.2675 64.1538 11.2629
      vertex 71.3341 70.0872 9.46352
      vertex 76.2883 65.1331 13.9809
    endloop
  endfacet
  facet normal 0.707112 0.707102 2.23206e-05
    outer loop
      vertex 69.7019 71.7194 8.71352
      vertex 63.8164 77.605 8.25
      vertex 64.1538 77.2675 11.2629
    endloop
  endfacet
  facet normal 0.707102 0.707112 -2.23205e-05
    outer loop
      vertex 69.7019 71.7194 8.71352
      vertex 64.1538 77.2675 11.2629
      vertex 65.1331 76.2883 13.9809
    endloop
  endfacet
  facet normal 0.707113 0.707101 1.3572e-06
    outer loop
      vertex 69.7019 71.7194 7.78648
      vertex 63.8164 77.605 8.25
      vertex 69.65 71.7713 8.25
    endloop
  endfacet
  facet normal 0.707121 0.707092 1.20305e-05
    outer loop
      vertex 69.7019 71.7194 8.71352
      vertex 65.1331 76.2883 13.9809
      vertex 66.6583 74.763 16.1379
    endloop
  endfacet
  facet normal 0.707112 0.707102 -2.23204e-05
    outer loop
      vertex 63.8164 77.605 8.25
      vertex 69.7019 71.7194 7.78648
      vertex 64.1538 77.2675 5.23708
    endloop
  endfacet
  facet normal 0.707073 0.70714 0.000145082
    outer loop
      vertex 69.8526 71.5688 7.36832
      vertex 64.1538 77.2675 5.23708
      vertex 69.7019 71.7194 7.78648
    endloop
  endfacet
  facet normal 0.707104 0.70711 7.59678e-06
    outer loop
      vertex 70.7107 70.7107 9.75
      vertex 66.6583 74.763 16.1379
      vertex 68.5802 72.8411 17.5228
    endloop
  endfacet
  facet normal 0.707133 0.70708 -0.00017546
    outer loop
      vertex 70.0872 71.3341 7.03648
      vertex 64.1538 77.2675 5.23708
      vertex 69.8526 71.5688 7.36832
    endloop
  endfacet
  facet normal 0.707103 0.70711 2.34532e-05
    outer loop
      vertex 64.1538 77.2675 5.23708
      vertex 70.0872 71.3341 7.03648
      vertex 65.1331 76.2883 2.51909
    endloop
  endfacet
  facet normal 0.70711 0.707104 8.74376e-06
    outer loop
      vertex 70.3829 71.0384 6.82342
      vertex 65.1331 76.2883 2.51909
      vertex 70.0872 71.3341 7.03648
    endloop
  endfacet
  facet normal 0.70712 0.707094 -1.47223e-05
    outer loop
      vertex 65.1331 76.2883 2.51909
      vertex 70.3829 71.0384 6.82342
      vertex 66.6583 74.763 0.362084
    endloop
  endfacet
  facet normal 0.707057 0.707156 5.7315e-05
    outer loop
      vertex 66.6583 74.763 0.362084
      vertex 70.3829 71.0384 6.82342
      vertex 67.1608 74.2606 0
    endloop
  endfacet
  facet normal 0.70701 0.707203 0.000101505
    outer loop
      vertex 70.7107 70.7107 6.75
      vertex 67.1608 74.2606 0
      vertex 70.3829 71.0384 6.82342
    endloop
  endfacet
  facet normal 0.707203 0.70701 0.000101505
    outer loop
      vertex 74.2606 67.1608 0
      vertex 70.7107 70.7107 6.75
      vertex 71.0384 70.3829 6.82342
    endloop
  endfacet
  facet normal 0.707104 0.70711 8.74376e-06
    outer loop
      vertex 76.2883 65.1331 2.51909
      vertex 71.0384 70.3829 6.82342
      vertex 71.3341 70.0872 7.03648
    endloop
  endfacet
  facet normal 0.70708 0.707133 -0.00017546
    outer loop
      vertex 77.2675 64.1538 5.23708
      vertex 71.3341 70.0872 7.03648
      vertex 71.5688 69.8526 7.36832
    endloop
  endfacet
  facet normal 0.70708 0.707133 0.00017546
    outer loop
      vertex 71.3341 70.0872 9.46352
      vertex 77.2675 64.1538 11.2629
      vertex 71.5688 69.8526 9.13168
    endloop
  endfacet
  facet normal 0.707107 0.707107 -1.49396e-15
    outer loop
      vertex 70.7107 70.7107 6.75
      vertex 74.2606 67.1608 0
      vertex 67.1608 74.2606 0
    endloop
  endfacet
  facet normal 0.70714 0.707073 0.000145082
    outer loop
      vertex 77.2675 64.1538 5.23708
      vertex 71.5688 69.8526 7.36832
      vertex 71.7194 69.7019 7.78648
    endloop
  endfacet
  facet normal 0.70714 0.707073 -0.000145082
    outer loop
      vertex 71.5688 69.8526 9.13168
      vertex 77.2675 64.1538 11.2629
      vertex 71.7194 69.7019 8.71352
    endloop
  endfacet
  facet normal 0.707102 0.707112 2.23206e-05
    outer loop
      vertex 77.605 63.8164 8.25
      vertex 71.7194 69.7019 8.71352
      vertex 77.2675 64.1538 11.2629
    endloop
  endfacet
  facet normal 0.707102 0.707112 -2.23204e-05
    outer loop
      vertex 77.2675 64.1538 5.23708
      vertex 71.7194 69.7019 7.78648
      vertex 77.605 63.8164 8.25
    endloop
  endfacet
  facet normal 0.707101 0.707113 -1.3572e-06
    outer loop
      vertex 71.7194 69.7019 8.71352
      vertex 77.605 63.8164 8.25
      vertex 71.7713 69.65 8.25
    endloop
  endfacet
  facet normal 0.707101 0.707113 1.3572e-06
    outer loop
      vertex 71.7713 69.65 8.25
      vertex 77.605 63.8164 8.25
      vertex 71.7194 69.7019 7.78648
    endloop
  endfacet
  facet normal 0.70711 0.707103 2.34532e-05
    outer loop
      vertex 71.3341 70.0872 7.03648
      vertex 77.2675 64.1538 5.23708
      vertex 76.2883 65.1331 2.51909
    endloop
  endfacet
  facet normal 0.707094 0.70712 -1.47223e-05
    outer loop
      vertex 71.0384 70.3829 6.82342
      vertex 76.2883 65.1331 2.51909
      vertex 74.763 66.6583 0.362084
    endloop
  endfacet
  facet normal 0.707156 0.707057 5.7315e-05
    outer loop
      vertex 71.0384 70.3829 6.82342
      vertex 74.763 66.6583 0.362084
      vertex 74.2606 67.1608 0
    endloop
  endfacet
  facet normal 0.6984 -0.6984 -0.156443
    outer loop
      vertex 77.605 63.8164 8.25
      vertex -64.1538 -77.2675 5.23708
      vertex 77.2675 64.1538 5.23708
    endloop
  endfacet
  facet normal 0.6984 -0.6984 -0.156443
    outer loop
      vertex -64.1538 -77.2675 5.23708
      vertex 77.605 63.8164 8.25
      vertex -63.8164 -77.605 8.25
    endloop
  endfacet
  facet normal 0.499997 -0.499997 -0.707111
    outer loop
      vertex -65.1331 -76.2883 2.51909
      vertex 74.763 66.6583 0.362084
      vertex 76.2883 65.1331 2.51909
    endloop
  endfacet
  facet normal 0.499997 -0.499997 -0.707111
    outer loop
      vertex 74.763 66.6583 0.362084
      vertex -65.1331 -76.2883 2.51909
      vertex -66.6583 -74.763 0.362084
    endloop
  endfacet
  facet normal 0.630039 -0.630039 0.453985
    outer loop
      vertex -64.1538 -77.2675 11.2629
      vertex 76.2883 65.1331 13.9809
      vertex -65.1331 -76.2883 13.9809
    endloop
  endfacet
  facet normal 0.630039 -0.630039 0.453985
    outer loop
      vertex 76.2883 65.1331 13.9809
      vertex -64.1538 -77.2675 11.2629
      vertex 77.2675 64.1538 11.2629
    endloop
  endfacet
  facet normal 0.321024 -0.321024 0.891004
    outer loop
      vertex 72.8411 68.5802 17.5228
      vertex -66.6583 -74.763 16.1379
      vertex 74.763 66.6583 16.1379
    endloop
  endfacet
  facet normal 0.321024 -0.321024 0.891004
    outer loop
      vertex -66.6583 -74.763 16.1379
      vertex 72.8411 68.5802 17.5228
      vertex -68.5802 -72.8411 17.5228
    endloop
  endfacet
  facet normal 0.630038 -0.630038 -0.453986
    outer loop
      vertex 76.2883 65.1331 2.51909
      vertex -64.1538 -77.2675 5.23708
      vertex -65.1331 -76.2883 2.51909
    endloop
  endfacet
  facet normal 0.630038 -0.630038 -0.453986
    outer loop
      vertex -64.1538 -77.2675 5.23708
      vertex 76.2883 65.1331 2.51909
      vertex 77.2675 64.1538 5.23708
    endloop
  endfacet
  facet normal 0.6984 -0.6984 0.156444
    outer loop
      vertex -64.1538 -77.2675 11.2629
      vertex 77.605 63.8164 8.25
      vertex 77.2675 64.1538 11.2629
    endloop
  endfacet
  facet normal 0.6984 -0.6984 0.156444
    outer loop
      vertex 77.605 63.8164 8.25
      vertex -64.1538 -77.2675 11.2629
      vertex -63.8164 -77.605 8.25
    endloop
  endfacet
  facet normal 0.110627 -0.110627 0.987686
    outer loop
      vertex 70.3829 71.0384 6.82342
      vertex -70.7107 -70.7107 6.75
      vertex 70.7107 70.7107 6.75
    endloop
  endfacet
  facet normal 0.110627 -0.110627 0.987686
    outer loop
      vertex -70.7107 -70.7107 6.75
      vertex 70.3829 71.0384 6.82342
      vertex -71.0384 -70.3829 6.82342
    endloop
  endfacet
  facet normal 0.110627 -0.110627 -0.987686
    outer loop
      vertex -70.7107 -70.7107 9.75
      vertex 70.3829 71.0384 9.67658
      vertex 70.7107 70.7107 9.75
    endloop
  endfacet
  facet normal 0.110627 -0.110627 -0.987686
    outer loop
      vertex 70.3829 71.0384 9.67658
      vertex -70.7107 -70.7107 9.75
      vertex -71.0384 -70.3829 9.67658
    endloop
  endfacet
  facet normal 0.698405 -0.698405 0.1564
    outer loop
      vertex -71.7713 -69.65 8.25
      vertex 69.7019 71.7194 7.78648
      vertex 69.65 71.7713 8.25
    endloop
  endfacet
  facet normal 0.698405 -0.698405 0.1564
    outer loop
      vertex 69.7019 71.7194 7.78648
      vertex -71.7713 -69.65 8.25
      vertex -71.7194 -69.7019 7.78648
    endloop
  endfacet
  facet normal 0.499996 -0.499996 0.707112
    outer loop
      vertex 69.8526 71.5688 7.36832
      vertex -71.3341 -70.0872 7.03648
      vertex 70.0872 71.3341 7.03648
    endloop
  endfacet
  facet normal 0.499996 -0.499996 0.707112
    outer loop
      vertex -71.3341 -70.0872 7.03648
      vertex 69.8526 71.5688 7.36832
      vertex -71.5688 -69.8526 7.36832
    endloop
  endfacet
  facet normal 0.321002 -0.321002 0.891019
    outer loop
      vertex 70.0872 71.3341 7.03648
      vertex -71.0384 -70.3829 6.82342
      vertex 70.3829 71.0384 6.82342
    endloop
  endfacet
  facet normal 0.321002 -0.321002 0.891019
    outer loop
      vertex -71.0384 -70.3829 6.82342
      vertex 70.0872 71.3341 7.03648
      vertex -71.3341 -70.0872 7.03648
    endloop
  endfacet
  facet normal 0.630044 -0.630044 0.45397
    outer loop
      vertex -71.7194 -69.7019 7.78648
      vertex 69.8526 71.5688 7.36832
      vertex 69.7019 71.7194 7.78648
    endloop
  endfacet
  facet normal 0.630044 -0.630044 0.45397
    outer loop
      vertex 69.8526 71.5688 7.36832
      vertex -71.7194 -69.7019 7.78648
      vertex -71.5688 -69.8526 7.36832
    endloop
  endfacet
  facet normal 0.630044 -0.630044 -0.45397
    outer loop
      vertex 69.8526 71.5688 9.13168
      vertex -71.7194 -69.7019 8.71352
      vertex 69.7019 71.7194 8.71352
    endloop
  endfacet
  facet normal 0.630044 -0.630044 -0.45397
    outer loop
      vertex -71.7194 -69.7019 8.71352
      vertex 69.8526 71.5688 9.13168
      vertex -71.5688 -69.8526 9.13168
    endloop
  endfacet
  facet normal 0.499996 -0.499996 -0.707112
    outer loop
      vertex -71.3341 -70.0872 9.46352
      vertex 69.8526 71.5688 9.13168
      vertex 70.0872 71.3341 9.46352
    endloop
  endfacet
  facet normal 0.499996 -0.499996 -0.707112
    outer loop
      vertex 69.8526 71.5688 9.13168
      vertex -71.3341 -70.0872 9.46352
      vertex -71.5688 -69.8526 9.13168
    endloop
  endfacet
  facet normal 0.698405 -0.698405 -0.1564
    outer loop
      vertex 69.7019 71.7194 8.71352
      vertex -71.7713 -69.65 8.25
      vertex 69.65 71.7713 8.25
    endloop
  endfacet
  facet normal 0.698405 -0.698405 -0.1564
    outer loop
      vertex -71.7713 -69.65 8.25
      vertex 69.7019 71.7194 8.71352
      vertex -71.7194 -69.7019 8.71352
    endloop
  endfacet
  facet normal -0.321002 0.321002 0.891019
    outer loop
      vertex 71.0384 70.3829 6.82342
      vertex -70.0872 -71.3341 7.03648
      vertex 71.3341 70.0872 7.03648
    endloop
  endfacet
  facet normal -0.321002 0.321002 0.891019
    outer loop
      vertex -70.0872 -71.3341 7.03648
      vertex 71.0384 70.3829 6.82342
      vertex -70.3829 -71.0384 6.82342
    endloop
  endfacet
  facet normal -0.499996 0.499996 -0.707112
    outer loop
      vertex -69.8526 -71.5688 9.13168
      vertex 71.3341 70.0872 9.46352
      vertex 71.5688 69.8526 9.13168
    endloop
  endfacet
  facet normal -0.499996 0.499996 -0.707112
    outer loop
      vertex 71.3341 70.0872 9.46352
      vertex -69.8526 -71.5688 9.13168
      vertex -70.0872 -71.3341 9.46352
    endloop
  endfacet
  facet normal -0.110627 0.110627 -0.987686
    outer loop
      vertex -70.3829 -71.0384 9.67658
      vertex 70.7107 70.7107 9.75
      vertex 71.0384 70.3829 9.67658
    endloop
  endfacet
  facet normal -0.110627 0.110627 -0.987686
    outer loop
      vertex 70.7107 70.7107 9.75
      vertex -70.3829 -71.0384 9.67658
      vertex -70.7107 -70.7107 9.75
    endloop
  endfacet
  facet normal 0.321002 -0.321002 -0.891019
    outer loop
      vertex -71.0384 -70.3829 9.67658
      vertex 70.0872 71.3341 9.46352
      vertex 70.3829 71.0384 9.67658
    endloop
  endfacet
  facet normal 0.321002 -0.321002 -0.891019
    outer loop
      vertex 70.0872 71.3341 9.46352
      vertex -71.0384 -70.3829 9.67658
      vertex -71.3341 -70.0872 9.46352
    endloop
  endfacet
  facet normal -0.110627 0.110627 0.987686
    outer loop
      vertex 70.7107 70.7107 6.75
      vertex -70.3829 -71.0384 6.82342
      vertex 71.0384 70.3829 6.82342
    endloop
  endfacet
  facet normal -0.110627 0.110627 0.987686
    outer loop
      vertex -70.3829 -71.0384 6.82342
      vertex 70.7107 70.7107 6.75
      vertex -70.7107 -70.7107 6.75
    endloop
  endfacet
  facet normal -0.698405 0.698405 0.1564
    outer loop
      vertex -69.7019 -71.7194 7.78648
      vertex 71.7713 69.65 8.25
      vertex 71.7194 69.7019 7.78648
    endloop
  endfacet
  facet normal -0.698405 0.698405 0.1564
    outer loop
      vertex 71.7713 69.65 8.25
      vertex -69.7019 -71.7194 7.78648
      vertex -69.65 -71.7713 8.25
    endloop
  endfacet
  facet normal -0.499996 0.499996 0.707112
    outer loop
      vertex 71.3341 70.0872 7.03648
      vertex -69.8526 -71.5688 7.36832
      vertex 71.5688 69.8526 7.36832
    endloop
  endfacet
  facet normal -0.499996 0.499996 0.707112
    outer loop
      vertex -69.8526 -71.5688 7.36832
      vertex 71.3341 70.0872 7.03648
      vertex -70.0872 -71.3341 7.03648
    endloop
  endfacet
  facet normal -0.630044 0.630044 -0.45397
    outer loop
      vertex 71.7194 69.7019 8.71352
      vertex -69.8526 -71.5688 9.13168
      vertex 71.5688 69.8526 9.13168
    endloop
  endfacet
  facet normal -0.630044 0.630044 -0.45397
    outer loop
      vertex -69.8526 -71.5688 9.13168
      vertex 71.7194 69.7019 8.71352
      vertex -69.7019 -71.7194 8.71352
    endloop
  endfacet
  facet normal -0.321002 0.321002 -0.891019
    outer loop
      vertex -70.0872 -71.3341 9.46352
      vertex 71.0384 70.3829 9.67658
      vertex 71.3341 70.0872 9.46352
    endloop
  endfacet
  facet normal -0.321002 0.321002 -0.891019
    outer loop
      vertex 71.0384 70.3829 9.67658
      vertex -70.0872 -71.3341 9.46352
      vertex -70.3829 -71.0384 9.67658
    endloop
  endfacet
  facet normal -0.630044 0.630044 0.45397
    outer loop
      vertex -69.8526 -71.5688 7.36832
      vertex 71.7194 69.7019 7.78648
      vertex 71.5688 69.8526 7.36832
    endloop
  endfacet
  facet normal -0.630044 0.630044 0.45397
    outer loop
      vertex 71.7194 69.7019 7.78648
      vertex -69.8526 -71.5688 7.36832
      vertex -69.7019 -71.7194 7.78648
    endloop
  endfacet
  facet normal -0.698405 0.698405 -0.1564
    outer loop
      vertex 71.7713 69.65 8.25
      vertex -69.7019 -71.7194 8.71352
      vertex 71.7194 69.7019 8.71352
    endloop
  endfacet
  facet normal -0.698405 0.698405 -0.1564
    outer loop
      vertex -69.7019 -71.7194 8.71352
      vertex 71.7713 69.65 8.25
      vertex -69.65 -71.7713 8.25
    endloop
  endfacet
  facet normal 0 0 -1
    outer loop
      vertex -67.1608 -74.2606 0
      vertex 67.1608 74.2606 0
      vertex 74.2606 67.1608 0
    endloop
  endfacet
  facet normal 0 0 -1
    outer loop
      vertex 67.1608 74.2606 0
      vertex -67.1608 -74.2606 0
      vertex -74.2606 -67.1608 0
    endloop
  endfacet
endsolid OpenSCAD_Model
