solid OpenSCAD_Model
  facet normal 0.649436 0.760416 -0
    outer loop
      vertex 11.4905 11.4905 0
      vertex 9.55151 13.1465 15
      vertex 11.4905 11.4905 15
    endloop
  endfacet
  facet normal 0.649436 0.760416 0
    outer loop
      vertex 9.55151 13.1465 15
      vertex 11.4905 11.4905 0
      vertex 9.55151 13.1465 0
    endloop
  endfacet
  facet normal -0.972376 0.23342 0
    outer loop
      vertex -16.0499 2.54206 0
      vertex -15.4547 5.02153 15
      vertex -15.4547 5.02153 0
    endloop
  endfacet
  facet normal -0.972376 0.23342 0
    outer loop
      vertex -15.4547 5.02153 15
      vertex -16.0499 2.54206 0
      vertex -16.0499 2.54206 15
    endloop
  endfacet
  facet normal -0.23342 -0.972376 0
    outer loop
      vertex -5.02153 -15.4547 0
      vertex -2.54206 -16.0499 15
      vertex -5.02153 -15.4547 15
    endloop
  endfacet
  facet normal -0.23342 -0.972376 -0
    outer loop
      vertex -2.54206 -16.0499 15
      vertex -5.02153 -15.4547 0
      vertex -2.54206 -16.0499 0
    endloop
  endfacet
  facet normal -0.2305 0.973072 0
    outer loop
      vertex -5 15.4598 0
      vertex -5.02153 15.4547 15
      vertex -5 15.4598 15
    endloop
  endfacet
  facet normal -0.2305 0.973072 0
    outer loop
      vertex -5.02153 15.4547 15
      vertex -5 15.4598 0
      vertex -5.02153 15.4547 0
    endloop
  endfacet
  facet normal -0.923881 0.382679 0
    outer loop
      vertex -15.4547 5.02153 0
      vertex -14.4789 7.37735 15
      vertex -14.4789 7.37735 0
    endloop
  endfacet
  facet normal -0.923881 0.382679 0
    outer loop
      vertex -14.4789 7.37735 15
      vertex -15.4547 5.02153 0
      vertex -15.4547 5.02153 15
    endloop
  endfacet
  facet normal 0.923881 0.382679 0
    outer loop
      vertex 15.4547 5.02153 15
      vertex 14.4789 7.37735 0
      vertex 14.4789 7.37735 15
    endloop
  endfacet
  facet normal 0.923881 0.382679 0
    outer loop
      vertex 14.4789 7.37735 0
      vertex 15.4547 5.02153 15
      vertex 15.4547 5.02153 0
    endloop
  endfacet
  facet normal 0.852627 0.522519 0
    outer loop
      vertex 14.4789 7.37735 15
      vertex 13.1465 9.55151 0
      vertex 13.1465 9.55151 15
    endloop
  endfacet
  facet normal 0.852627 0.522519 0
    outer loop
      vertex 13.1465 9.55151 0
      vertex 14.4789 7.37735 15
      vertex 14.4789 7.37735 0
    endloop
  endfacet
  facet normal 0.760416 0.649436 0
    outer loop
      vertex 13.1465 9.55151 15
      vertex 11.4905 11.4905 0
      vertex 11.4905 11.4905 15
    endloop
  endfacet
  facet normal 0.760416 0.649436 0
    outer loop
      vertex 11.4905 11.4905 0
      vertex 13.1465 9.55151 15
      vertex 13.1465 9.55151 0
    endloop
  endfacet
  facet normal 0.382679 0.923881 -0
    outer loop
      vertex 7.37735 14.4789 0
      vertex 5.02153 15.4547 15
      vertex 7.37735 14.4789 15
    endloop
  endfacet
  facet normal 0.382679 0.923881 0
    outer loop
      vertex 5.02153 15.4547 15
      vertex 7.37735 14.4789 0
      vertex 5.02153 15.4547 0
    endloop
  endfacet
  facet normal -0.996916 0.0784729 0
    outer loop
      vertex -16.25 0 0
      vertex -16.0499 2.54206 15
      vertex -16.0499 2.54206 0
    endloop
  endfacet
  facet normal -0.996916 0.0784729 0
    outer loop
      vertex -16.0499 2.54206 15
      vertex -16.25 0 0
      vertex -16.25 0 15
    endloop
  endfacet
  facet normal -0.760416 0.649436 0
    outer loop
      vertex -13.1465 9.55151 0
      vertex -11.4905 11.4905 15
      vertex -11.4905 11.4905 0
    endloop
  endfacet
  facet normal -0.760416 0.649436 0
    outer loop
      vertex -11.4905 11.4905 15
      vertex -13.1465 9.55151 0
      vertex -13.1465 9.55151 15
    endloop
  endfacet
  facet normal -0.382679 0.923881 0
    outer loop
      vertex -5.02153 15.4547 0
      vertex -7.37735 14.4789 15
      vertex -5.02153 15.4547 15
    endloop
  endfacet
  facet normal -0.382679 0.923881 0
    outer loop
      vertex -7.37735 14.4789 15
      vertex -5.02153 15.4547 0
      vertex -7.37735 14.4789 0
    endloop
  endfacet
  facet normal 0.996916 0.0784729 0
    outer loop
      vertex 16.25 0 15
      vertex 16.0499 2.54206 0
      vertex 16.0499 2.54206 15
    endloop
  endfacet
  facet normal 0.996916 0.0784729 0
    outer loop
      vertex 16.0499 2.54206 0
      vertex 16.25 0 15
      vertex 16.25 0 0
    endloop
  endfacet
  facet normal 0.0784729 -0.996916 0
    outer loop
      vertex 0 -16.25 0
      vertex 2.54206 -16.0499 15
      vertex 0 -16.25 15
    endloop
  endfacet
  facet normal 0.0784729 -0.996916 0
    outer loop
      vertex 2.54206 -16.0499 15
      vertex 0 -16.25 0
      vertex 2.54206 -16.0499 0
    endloop
  endfacet
  facet normal 0.23342 -0.972376 0
    outer loop
      vertex 2.54206 -16.0499 0
      vertex 5.02153 -15.4547 15
      vertex 2.54206 -16.0499 15
    endloop
  endfacet
  facet normal 0.23342 -0.972376 0
    outer loop
      vertex 5.02153 -15.4547 15
      vertex 2.54206 -16.0499 0
      vertex 5.02153 -15.4547 0
    endloop
  endfacet
  facet normal 0.382679 -0.923881 0
    outer loop
      vertex 5.02153 -15.4547 0
      vertex 7.37735 -14.4789 15
      vertex 5.02153 -15.4547 15
    endloop
  endfacet
  facet normal 0.382679 -0.923881 0
    outer loop
      vertex 7.37735 -14.4789 15
      vertex 5.02153 -15.4547 0
      vertex 7.37735 -14.4789 0
    endloop
  endfacet
  facet normal 0.760416 -0.649436 0
    outer loop
      vertex 11.4905 -11.4905 15
      vertex 13.1465 -9.55151 0
      vertex 13.1465 -9.55151 15
    endloop
  endfacet
  facet normal 0.760416 -0.649436 0
    outer loop
      vertex 13.1465 -9.55151 0
      vertex 11.4905 -11.4905 15
      vertex 11.4905 -11.4905 0
    endloop
  endfacet
  facet normal -0.0784729 -0.996916 0
    outer loop
      vertex -2.54206 -16.0499 0
      vertex 0 -16.25 15
      vertex -2.54206 -16.0499 15
    endloop
  endfacet
  facet normal -0.0784729 -0.996916 -0
    outer loop
      vertex 0 -16.25 15
      vertex -2.54206 -16.0499 0
      vertex 0 -16.25 0
    endloop
  endfacet
  facet normal -0.649436 -0.760416 0
    outer loop
      vertex -11.4905 -11.4905 0
      vertex -9.55151 -13.1465 15
      vertex -11.4905 -11.4905 15
    endloop
  endfacet
  facet normal -0.649436 -0.760416 -0
    outer loop
      vertex -9.55151 -13.1465 15
      vertex -11.4905 -11.4905 0
      vertex -9.55151 -13.1465 0
    endloop
  endfacet
  facet normal -0.923881 -0.382679 0
    outer loop
      vertex -14.4789 -7.37735 0
      vertex -15.4547 -5.02153 15
      vertex -15.4547 -5.02153 0
    endloop
  endfacet
  facet normal -0.923881 -0.382679 0
    outer loop
      vertex -15.4547 -5.02153 15
      vertex -14.4789 -7.37735 0
      vertex -14.4789 -7.37735 15
    endloop
  endfacet
  facet normal -0.996916 -0.0784729 0
    outer loop
      vertex -16.0499 -2.54206 0
      vertex -16.25 0 15
      vertex -16.25 0 0
    endloop
  endfacet
  facet normal -0.996916 -0.0784729 0
    outer loop
      vertex -16.25 0 15
      vertex -16.0499 -2.54206 0
      vertex -16.0499 -2.54206 15
    endloop
  endfacet
  facet normal 0 0 -1
    outer loop
      vertex 11 0 0
      vertex 16.25 0 0
      vertex 16.0499 -2.54206 0
    endloop
  endfacet
  facet normal 0 0 -1
    outer loop
      vertex 10.8646 -1.72078 0
      vertex 16.0499 -2.54206 0
      vertex 15.4547 -5.02153 0
    endloop
  endfacet
  facet normal 0 0 -1
    outer loop
      vertex 16.25 0 0
      vertex 11 0 0
      vertex 16.0499 2.54206 0
    endloop
  endfacet
  facet normal 0 0 -1
    outer loop
      vertex 10.4616 -3.39919 0
      vertex 15.4547 -5.02153 0
      vertex 14.4789 -7.37735 0
    endloop
  endfacet
  facet normal 0 0 -1
    outer loop
      vertex 10.8646 1.72078 0
      vertex 16.0499 2.54206 0
      vertex 11 0 0
    endloop
  endfacet
  facet normal 0 0 -1
    outer loop
      vertex 9.80107 -4.99389 0
      vertex 14.4789 -7.37735 0
      vertex 13.1465 -9.55151 0
    endloop
  endfacet
  facet normal -0 0 -1
    outer loop
      vertex 16.0499 2.54206 0
      vertex 10.8646 1.72078 0
      vertex 15.4547 5.02153 0
    endloop
  endfacet
  facet normal 0 0 -1
    outer loop
      vertex 8.89919 -6.46564 0
      vertex 13.1465 -9.55151 0
      vertex 11.4905 -11.4905 0
    endloop
  endfacet
  facet normal 0 0 -1
    outer loop
      vertex 10.4616 3.39919 0
      vertex 15.4547 5.02153 0
      vertex 10.8646 1.72078 0
    endloop
  endfacet
  facet normal -0 0 -1
    outer loop
      vertex 15.4547 5.02153 0
      vertex 10.4616 3.39919 0
      vertex 14.4789 7.37735 0
    endloop
  endfacet
  facet normal 0 0 -1
    outer loop
      vertex 16.0499 -2.54206 0
      vertex 10.8646 -1.72078 0
      vertex 11 0 0
    endloop
  endfacet
  facet normal 0 0 -1
    outer loop
      vertex 15.4547 -5.02153 0
      vertex 10.4616 -3.39919 0
      vertex 10.8646 -1.72078 0
    endloop
  endfacet
  facet normal 0 0 -1
    outer loop
      vertex 14.4789 -7.37735 0
      vertex 9.80107 -4.99389 0
      vertex 10.4616 -3.39919 0
    endloop
  endfacet
  facet normal 0 0 -1
    outer loop
      vertex 7.77817 -7.77817 0
      vertex 11.4905 -11.4905 0
      vertex 9.55151 -13.1465 0
    endloop
  endfacet
  facet normal 0 0 -1
    outer loop
      vertex 13.1465 -9.55151 0
      vertex 8.89919 -6.46564 0
      vertex 9.80107 -4.99389 0
    endloop
  endfacet
  facet normal 0 0 -1
    outer loop
      vertex 11.4905 -11.4905 0
      vertex 7.77817 -7.77817 0
      vertex 8.89919 -6.46564 0
    endloop
  endfacet
  facet normal 0 0 -1
    outer loop
      vertex 6.46564 -8.89919 0
      vertex 9.55151 -13.1465 0
      vertex 7.37735 -14.4789 0
    endloop
  endfacet
  facet normal 0 0 -1
    outer loop
      vertex 9.55151 -13.1465 0
      vertex 6.46564 -8.89919 0
      vertex 7.77817 -7.77817 0
    endloop
  endfacet
  facet normal 0 0 -1
    outer loop
      vertex 4.99389 -9.80107 0
      vertex 7.37735 -14.4789 0
      vertex 5.02153 -15.4547 0
    endloop
  endfacet
  facet normal 0 0 -1
    outer loop
      vertex 7.37735 -14.4789 0
      vertex 4.99389 -9.80107 0
      vertex 6.46564 -8.89919 0
    endloop
  endfacet
  facet normal 0 0 -1
    outer loop
      vertex 5.02153 -15.4547 0
      vertex 3.39919 -10.4616 0
      vertex 4.99389 -9.80107 0
    endloop
  endfacet
  facet normal 0 0 -1
    outer loop
      vertex 2.54206 -16.0499 0
      vertex 3.39919 -10.4616 0
      vertex 5.02153 -15.4547 0
    endloop
  endfacet
  facet normal 0 0 -1
    outer loop
      vertex 2.54206 -16.0499 0
      vertex 1.72078 -10.8646 0
      vertex 3.39919 -10.4616 0
    endloop
  endfacet
  facet normal 0 0 -1
    outer loop
      vertex 0 -16.25 0
      vertex 1.72078 -10.8646 0
      vertex 2.54206 -16.0499 0
    endloop
  endfacet
  facet normal 0 0 -1
    outer loop
      vertex 0 -16.25 0
      vertex 0 -11 0
      vertex 1.72078 -10.8646 0
    endloop
  endfacet
  facet normal 0 0 -1
    outer loop
      vertex 0 -16.25 0
      vertex -1.72078 -10.8646 0
      vertex 0 -11 0
    endloop
  endfacet
  facet normal 0 0 -1
    outer loop
      vertex -2.54206 -16.0499 0
      vertex -1.72078 -10.8646 0
      vertex 0 -16.25 0
    endloop
  endfacet
  facet normal 0 0 -1
    outer loop
      vertex -2.54206 -16.0499 0
      vertex -3.39919 -10.4616 0
      vertex -1.72078 -10.8646 0
    endloop
  endfacet
  facet normal 0 0 -1
    outer loop
      vertex -5.02153 -15.4547 0
      vertex -3.39919 -10.4616 0
      vertex -2.54206 -16.0499 0
    endloop
  endfacet
  facet normal -0 0 -1
    outer loop
      vertex -3.39919 -10.4616 0
      vertex -5.02153 -15.4547 0
      vertex -4.99389 -9.80107 0
    endloop
  endfacet
  facet normal 0 0 -1
    outer loop
      vertex -7.37735 -14.4789 0
      vertex -4.99389 -9.80107 0
      vertex -5.02153 -15.4547 0
    endloop
  endfacet
  facet normal -0 0 -1
    outer loop
      vertex -4.99389 -9.80107 0
      vertex -7.37735 -14.4789 0
      vertex -6.46564 -8.89919 0
    endloop
  endfacet
  facet normal 0 0 -1
    outer loop
      vertex -9.55151 -13.1465 0
      vertex -6.46564 -8.89919 0
      vertex -7.37735 -14.4789 0
    endloop
  endfacet
  facet normal -0 0 -1
    outer loop
      vertex -6.46564 -8.89919 0
      vertex -9.55151 -13.1465 0
      vertex -7.77817 -7.77817 0
    endloop
  endfacet
  facet normal 0 0 -1
    outer loop
      vertex -11.4905 -11.4905 0
      vertex -7.77817 -7.77817 0
      vertex -9.55151 -13.1465 0
    endloop
  endfacet
  facet normal -0 0 -1
    outer loop
      vertex -7.77817 -7.77817 0
      vertex -11.4905 -11.4905 0
      vertex -8.89919 -6.46564 0
    endloop
  endfacet
  facet normal 0 0 -1
    outer loop
      vertex -13.1465 -9.55151 0
      vertex -8.89919 -6.46564 0
      vertex -11.4905 -11.4905 0
    endloop
  endfacet
  facet normal -0 0 -1
    outer loop
      vertex -8.89919 -6.46564 0
      vertex -13.1465 -9.55151 0
      vertex -9.80107 -4.99389 0
    endloop
  endfacet
  facet normal -0 0 -1
    outer loop
      vertex -9.80107 -4.99389 0
      vertex -14.4789 -7.37735 0
      vertex -10.4616 -3.39919 0
    endloop
  endfacet
  facet normal 0 0 -1
    outer loop
      vertex -14.4789 -7.37735 0
      vertex -9.80107 -4.99389 0
      vertex -13.1465 -9.55151 0
    endloop
  endfacet
  facet normal 0 0 -1
    outer loop
      vertex 9.80107 4.99389 0
      vertex 14.4789 7.37735 0
      vertex 10.4616 3.39919 0
    endloop
  endfacet
  facet normal -0 0 -1
    outer loop
      vertex 14.4789 7.37735 0
      vertex 9.80107 4.99389 0
      vertex 13.1465 9.55151 0
    endloop
  endfacet
  facet normal 0 0 -1
    outer loop
      vertex 8.89919 6.46564 0
      vertex 13.1465 9.55151 0
      vertex 9.80107 4.99389 0
    endloop
  endfacet
  facet normal -0 0 -1
    outer loop
      vertex 13.1465 9.55151 0
      vertex 8.89919 6.46564 0
      vertex 11.4905 11.4905 0
    endloop
  endfacet
  facet normal 0 0 -1
    outer loop
      vertex 7.77817 7.77817 0
      vertex 11.4905 11.4905 0
      vertex 8.89919 6.46564 0
    endloop
  endfacet
  facet normal -0 0 -1
    outer loop
      vertex 11.4905 11.4905 0
      vertex 7.77817 7.77817 0
      vertex 9.55151 13.1465 0
    endloop
  endfacet
  facet normal 0 0 -1
    outer loop
      vertex 6.46564 8.89919 0
      vertex 9.55151 13.1465 0
      vertex 7.77817 7.77817 0
    endloop
  endfacet
  facet normal -0 0 -1
    outer loop
      vertex 9.55151 13.1465 0
      vertex 6.46564 8.89919 0
      vertex 7.37735 14.4789 0
    endloop
  endfacet
  facet normal 0 0 -1
    outer loop
      vertex 5 9.79733 0
      vertex 7.37735 14.4789 0
      vertex 6.46564 8.89919 0
    endloop
  endfacet
  facet normal -0 0 -1
    outer loop
      vertex 7.37735 14.4789 0
      vertex 5 9.79733 0
      vertex 5.02153 15.4547 0
    endloop
  endfacet
  facet normal -0 0 -1
    outer loop
      vertex 5.02153 15.4547 0
      vertex 5 9.79733 0
      vertex 5 15.4598 0
    endloop
  endfacet
  facet normal 0 0 -1
    outer loop
      vertex -5 9.79733 0
      vertex -5.02153 15.4547 0
      vertex -5 15.4598 0
    endloop
  endfacet
  facet normal 0 0 -1
    outer loop
      vertex -7.37735 14.4789 0
      vertex -5 9.79733 0
      vertex -6.46564 8.89919 0
    endloop
  endfacet
  facet normal 0 0 -1
    outer loop
      vertex -5 9.79733 0
      vertex -7.37735 14.4789 0
      vertex -5.02153 15.4547 0
    endloop
  endfacet
  facet normal 0 0 -1
    outer loop
      vertex -9.55151 13.1465 0
      vertex -6.46564 8.89919 0
      vertex -7.77817 7.77817 0
    endloop
  endfacet
  facet normal 0 0 -1
    outer loop
      vertex -11.4905 11.4905 0
      vertex -7.77817 7.77817 0
      vertex -8.89919 6.46564 0
    endloop
  endfacet
  facet normal 0 0 -1
    outer loop
      vertex -6.46564 8.89919 0
      vertex -9.55151 13.1465 0
      vertex -7.37735 14.4789 0
    endloop
  endfacet
  facet normal 0 0 -1
    outer loop
      vertex -13.1465 9.55151 0
      vertex -8.89919 6.46564 0
      vertex -9.80107 4.99389 0
    endloop
  endfacet
  facet normal 0 0 -1
    outer loop
      vertex -14.4789 7.37735 0
      vertex -9.80107 4.99389 0
      vertex -10.4616 3.39919 0
    endloop
  endfacet
  facet normal 0 0 -1
    outer loop
      vertex -15.4547 5.02153 0
      vertex -10.4616 3.39919 0
      vertex -10.8646 1.72078 0
    endloop
  endfacet
  facet normal 0 0 -1
    outer loop
      vertex -7.77817 7.77817 0
      vertex -11.4905 11.4905 0
      vertex -9.55151 13.1465 0
    endloop
  endfacet
  facet normal 0 0 -1
    outer loop
      vertex -16.0499 2.54206 0
      vertex -10.8646 1.72078 0
      vertex -11 0 0
    endloop
  endfacet
  facet normal 0 0 -1
    outer loop
      vertex -15.4547 -5.02153 0
      vertex -10.4616 -3.39919 0
      vertex -14.4789 -7.37735 0
    endloop
  endfacet
  facet normal -0 0 -1
    outer loop
      vertex -10.4616 -3.39919 0
      vertex -15.4547 -5.02153 0
      vertex -10.8646 -1.72078 0
    endloop
  endfacet
  facet normal 0 0 -1
    outer loop
      vertex -8.89919 6.46564 0
      vertex -13.1465 9.55151 0
      vertex -11.4905 11.4905 0
    endloop
  endfacet
  facet normal 0 0 -1
    outer loop
      vertex -16.0499 -2.54206 0
      vertex -10.8646 -1.72078 0
      vertex -15.4547 -5.02153 0
    endloop
  endfacet
  facet normal 0 0 -1
    outer loop
      vertex -9.80107 4.99389 0
      vertex -14.4789 7.37735 0
      vertex -13.1465 9.55151 0
    endloop
  endfacet
  facet normal -0 0 -1
    outer loop
      vertex -10.8646 -1.72078 0
      vertex -16.0499 -2.54206 0
      vertex -11 0 0
    endloop
  endfacet
  facet normal 0 0 -1
    outer loop
      vertex -10.4616 3.39919 0
      vertex -15.4547 5.02153 0
      vertex -14.4789 7.37735 0
    endloop
  endfacet
  facet normal 0 0 -1
    outer loop
      vertex -16.25 0 0
      vertex -11 0 0
      vertex -16.0499 -2.54206 0
    endloop
  endfacet
  facet normal 0 0 -1
    outer loop
      vertex -10.8646 1.72078 0
      vertex -16.0499 2.54206 0
      vertex -15.4547 5.02153 0
    endloop
  endfacet
  facet normal 0 0 -1
    outer loop
      vertex -11 0 0
      vertex -16.25 0 0
      vertex -16.0499 2.54206 0
    endloop
  endfacet
  facet normal 0.972376 0.23342 0
    outer loop
      vertex 16.0499 2.54206 15
      vertex 15.4547 5.02153 0
      vertex 15.4547 5.02153 15
    endloop
  endfacet
  facet normal 0.972376 0.23342 0
    outer loop
      vertex 15.4547 5.02153 0
      vertex 16.0499 2.54206 15
      vertex 16.0499 2.54206 0
    endloop
  endfacet
  facet normal 0.522519 0.852627 -0
    outer loop
      vertex 9.55151 13.1465 0
      vertex 7.37735 14.4789 15
      vertex 9.55151 13.1465 15
    endloop
  endfacet
  facet normal 0.522519 0.852627 0
    outer loop
      vertex 7.37735 14.4789 15
      vertex 9.55151 13.1465 0
      vertex 7.37735 14.4789 0
    endloop
  endfacet
  facet normal 0.2305 0.973072 -0
    outer loop
      vertex 5.02153 15.4547 0
      vertex 5 15.4598 15
      vertex 5.02153 15.4547 15
    endloop
  endfacet
  facet normal 0.2305 0.973072 0
    outer loop
      vertex 5 15.4598 15
      vertex 5.02153 15.4547 0
      vertex 5 15.4598 0
    endloop
  endfacet
  facet normal -0 0 1
    outer loop
      vertex -5.02153 15.4547 15
      vertex -5 9.79733 15
      vertex -5 15.4598 15
    endloop
  endfacet
  facet normal -0 0 1
    outer loop
      vertex -7.37735 14.4789 15
      vertex -5 9.79733 15
      vertex -5.02153 15.4547 15
    endloop
  endfacet
  facet normal 0 0 1
    outer loop
      vertex -5 9.79733 15
      vertex -7.37735 14.4789 15
      vertex -6.46564 8.89919 15
    endloop
  endfacet
  facet normal -0 0 1
    outer loop
      vertex -9.55151 13.1465 15
      vertex -6.46564 8.89919 15
      vertex -7.37735 14.4789 15
    endloop
  endfacet
  facet normal 0 0 1
    outer loop
      vertex -6.46564 8.89919 15
      vertex -9.55151 13.1465 15
      vertex -7.77817 7.77817 15
    endloop
  endfacet
  facet normal -0 0 1
    outer loop
      vertex -11.4905 11.4905 15
      vertex -7.77817 7.77817 15
      vertex -9.55151 13.1465 15
    endloop
  endfacet
  facet normal 0 0 1
    outer loop
      vertex -7.77817 7.77817 15
      vertex -11.4905 11.4905 15
      vertex -8.89919 6.46564 15
    endloop
  endfacet
  facet normal -0 0 1
    outer loop
      vertex -13.1465 9.55151 15
      vertex -8.89919 6.46564 15
      vertex -11.4905 11.4905 15
    endloop
  endfacet
  facet normal 0 0 1
    outer loop
      vertex -8.89919 6.46564 15
      vertex -13.1465 9.55151 15
      vertex -9.80107 4.99389 15
    endloop
  endfacet
  facet normal 0 0 1
    outer loop
      vertex -9.80107 4.99389 15
      vertex -14.4789 7.37735 15
      vertex -10.4616 3.39919 15
    endloop
  endfacet
  facet normal -0 0 1
    outer loop
      vertex -14.4789 7.37735 15
      vertex -9.80107 4.99389 15
      vertex -13.1465 9.55151 15
    endloop
  endfacet
  facet normal 0 0 1
    outer loop
      vertex 11 0 15
      vertex 16.25 0 15
      vertex 16.0499 2.54206 15
    endloop
  endfacet
  facet normal 0 0 1
    outer loop
      vertex 10.8646 1.72078 15
      vertex 16.0499 2.54206 15
      vertex 15.4547 5.02153 15
    endloop
  endfacet
  facet normal 0 0 1
    outer loop
      vertex 16.25 0 15
      vertex 11 0 15
      vertex 16.0499 -2.54206 15
    endloop
  endfacet
  facet normal 0 0 1
    outer loop
      vertex 10.4616 3.39919 15
      vertex 15.4547 5.02153 15
      vertex 14.4789 7.37735 15
    endloop
  endfacet
  facet normal -0 0 1
    outer loop
      vertex 10.8646 -1.72078 15
      vertex 16.0499 -2.54206 15
      vertex 11 0 15
    endloop
  endfacet
  facet normal 0 0 1
    outer loop
      vertex 9.80107 4.99389 15
      vertex 14.4789 7.37735 15
      vertex 13.1465 9.55151 15
    endloop
  endfacet
  facet normal 0 0 1
    outer loop
      vertex 16.0499 -2.54206 15
      vertex 10.8646 -1.72078 15
      vertex 15.4547 -5.02153 15
    endloop
  endfacet
  facet normal 0 0 1
    outer loop
      vertex 8.89919 6.46564 15
      vertex 13.1465 9.55151 15
      vertex 11.4905 11.4905 15
    endloop
  endfacet
  facet normal -0 0 1
    outer loop
      vertex 10.4616 -3.39919 15
      vertex 15.4547 -5.02153 15
      vertex 10.8646 -1.72078 15
    endloop
  endfacet
  facet normal 0 0 1
    outer loop
      vertex 15.4547 -5.02153 15
      vertex 10.4616 -3.39919 15
      vertex 14.4789 -7.37735 15
    endloop
  endfacet
  facet normal 0 0 1
    outer loop
      vertex 16.0499 2.54206 15
      vertex 10.8646 1.72078 15
      vertex 11 0 15
    endloop
  endfacet
  facet normal 0 0 1
    outer loop
      vertex 15.4547 5.02153 15
      vertex 10.4616 3.39919 15
      vertex 10.8646 1.72078 15
    endloop
  endfacet
  facet normal 0 0 1
    outer loop
      vertex 14.4789 7.37735 15
      vertex 9.80107 4.99389 15
      vertex 10.4616 3.39919 15
    endloop
  endfacet
  facet normal 0 0 1
    outer loop
      vertex 7.77817 7.77817 15
      vertex 11.4905 11.4905 15
      vertex 9.55151 13.1465 15
    endloop
  endfacet
  facet normal 0 0 1
    outer loop
      vertex 13.1465 9.55151 15
      vertex 8.89919 6.46564 15
      vertex 9.80107 4.99389 15
    endloop
  endfacet
  facet normal 0 0 1
    outer loop
      vertex 11.4905 11.4905 15
      vertex 7.77817 7.77817 15
      vertex 8.89919 6.46564 15
    endloop
  endfacet
  facet normal 0 0 1
    outer loop
      vertex 6.46564 8.89919 15
      vertex 9.55151 13.1465 15
      vertex 7.37735 14.4789 15
    endloop
  endfacet
  facet normal 0 0 1
    outer loop
      vertex 9.55151 13.1465 15
      vertex 6.46564 8.89919 15
      vertex 7.77817 7.77817 15
    endloop
  endfacet
  facet normal 0 0 1
    outer loop
      vertex 5 9.79733 15
      vertex 7.37735 14.4789 15
      vertex 5.02153 15.4547 15
    endloop
  endfacet
  facet normal 0 0 1
    outer loop
      vertex 5 9.79733 15
      vertex 5.02153 15.4547 15
      vertex 5 15.4598 15
    endloop
  endfacet
  facet normal 0 0 1
    outer loop
      vertex 7.37735 14.4789 15
      vertex 5 9.79733 15
      vertex 6.46564 8.89919 15
    endloop
  endfacet
  facet normal -0 0 1
    outer loop
      vertex 9.80107 -4.99389 15
      vertex 14.4789 -7.37735 15
      vertex 10.4616 -3.39919 15
    endloop
  endfacet
  facet normal 0 0 1
    outer loop
      vertex 14.4789 -7.37735 15
      vertex 9.80107 -4.99389 15
      vertex 13.1465 -9.55151 15
    endloop
  endfacet
  facet normal -0 0 1
    outer loop
      vertex 8.89919 -6.46564 15
      vertex 13.1465 -9.55151 15
      vertex 9.80107 -4.99389 15
    endloop
  endfacet
  facet normal 0 0 1
    outer loop
      vertex 13.1465 -9.55151 15
      vertex 8.89919 -6.46564 15
      vertex 11.4905 -11.4905 15
    endloop
  endfacet
  facet normal -0 0 1
    outer loop
      vertex 7.77817 -7.77817 15
      vertex 11.4905 -11.4905 15
      vertex 8.89919 -6.46564 15
    endloop
  endfacet
  facet normal 0 0 1
    outer loop
      vertex 11.4905 -11.4905 15
      vertex 7.77817 -7.77817 15
      vertex 9.55151 -13.1465 15
    endloop
  endfacet
  facet normal -0 0 1
    outer loop
      vertex 6.46564 -8.89919 15
      vertex 9.55151 -13.1465 15
      vertex 7.77817 -7.77817 15
    endloop
  endfacet
  facet normal 0 0 1
    outer loop
      vertex 9.55151 -13.1465 15
      vertex 6.46564 -8.89919 15
      vertex 7.37735 -14.4789 15
    endloop
  endfacet
  facet normal -0 0 1
    outer loop
      vertex 4.99389 -9.80107 15
      vertex 7.37735 -14.4789 15
      vertex 6.46564 -8.89919 15
    endloop
  endfacet
  facet normal 0 0 1
    outer loop
      vertex 7.37735 -14.4789 15
      vertex 4.99389 -9.80107 15
      vertex 5.02153 -15.4547 15
    endloop
  endfacet
  facet normal -0 0 1
    outer loop
      vertex 3.39919 -10.4616 15
      vertex 5.02153 -15.4547 15
      vertex 4.99389 -9.80107 15
    endloop
  endfacet
  facet normal 0 0 1
    outer loop
      vertex 3.39919 -10.4616 15
      vertex 2.54206 -16.0499 15
      vertex 5.02153 -15.4547 15
    endloop
  endfacet
  facet normal -0 0 1
    outer loop
      vertex 1.72078 -10.8646 15
      vertex 2.54206 -16.0499 15
      vertex 3.39919 -10.4616 15
    endloop
  endfacet
  facet normal -0 0 1
    outer loop
      vertex 0 -11 15
      vertex 2.54206 -16.0499 15
      vertex 1.72078 -10.8646 15
    endloop
  endfacet
  facet normal 0 0 1
    outer loop
      vertex 0 -11 15
      vertex 0 -16.25 15
      vertex 2.54206 -16.0499 15
    endloop
  endfacet
  facet normal 0 0 1
    outer loop
      vertex -1.72078 -10.8646 15
      vertex 0 -16.25 15
      vertex 0 -11 15
    endloop
  endfacet
  facet normal 0 0 1
    outer loop
      vertex -1.72078 -10.8646 15
      vertex -2.54206 -16.0499 15
      vertex 0 -16.25 15
    endloop
  endfacet
  facet normal 0 0 1
    outer loop
      vertex -3.39919 -10.4616 15
      vertex -2.54206 -16.0499 15
      vertex -1.72078 -10.8646 15
    endloop
  endfacet
  facet normal 0 0 1
    outer loop
      vertex -5.02153 -15.4547 15
      vertex -3.39919 -10.4616 15
      vertex -4.99389 -9.80107 15
    endloop
  endfacet
  facet normal 0 0 1
    outer loop
      vertex -3.39919 -10.4616 15
      vertex -5.02153 -15.4547 15
      vertex -2.54206 -16.0499 15
    endloop
  endfacet
  facet normal 0 0 1
    outer loop
      vertex -7.37735 -14.4789 15
      vertex -4.99389 -9.80107 15
      vertex -6.46564 -8.89919 15
    endloop
  endfacet
  facet normal 0 0 1
    outer loop
      vertex -4.99389 -9.80107 15
      vertex -7.37735 -14.4789 15
      vertex -5.02153 -15.4547 15
    endloop
  endfacet
  facet normal 0 0 1
    outer loop
      vertex -9.55151 -13.1465 15
      vertex -6.46564 -8.89919 15
      vertex -7.77817 -7.77817 15
    endloop
  endfacet
  facet normal 0 0 1
    outer loop
      vertex -11.4905 -11.4905 15
      vertex -7.77817 -7.77817 15
      vertex -8.89919 -6.46564 15
    endloop
  endfacet
  facet normal 0 0 1
    outer loop
      vertex -6.46564 -8.89919 15
      vertex -9.55151 -13.1465 15
      vertex -7.37735 -14.4789 15
    endloop
  endfacet
  facet normal 0 0 1
    outer loop
      vertex -13.1465 -9.55151 15
      vertex -8.89919 -6.46564 15
      vertex -9.80107 -4.99389 15
    endloop
  endfacet
  facet normal 0 0 1
    outer loop
      vertex -14.4789 -7.37735 15
      vertex -9.80107 -4.99389 15
      vertex -10.4616 -3.39919 15
    endloop
  endfacet
  facet normal 0 0 1
    outer loop
      vertex -15.4547 -5.02153 15
      vertex -10.4616 -3.39919 15
      vertex -10.8646 -1.72078 15
    endloop
  endfacet
  facet normal 0 0 1
    outer loop
      vertex -7.77817 -7.77817 15
      vertex -11.4905 -11.4905 15
      vertex -9.55151 -13.1465 15
    endloop
  endfacet
  facet normal 0 0 1
    outer loop
      vertex -16.0499 -2.54206 15
      vertex -10.8646 -1.72078 15
      vertex -11 0 15
    endloop
  endfacet
  facet normal -0 0 1
    outer loop
      vertex -15.4547 5.02153 15
      vertex -10.4616 3.39919 15
      vertex -14.4789 7.37735 15
    endloop
  endfacet
  facet normal 0 0 1
    outer loop
      vertex -10.4616 3.39919 15
      vertex -15.4547 5.02153 15
      vertex -10.8646 1.72078 15
    endloop
  endfacet
  facet normal 0 0 1
    outer loop
      vertex -8.89919 -6.46564 15
      vertex -13.1465 -9.55151 15
      vertex -11.4905 -11.4905 15
    endloop
  endfacet
  facet normal -0 0 1
    outer loop
      vertex -16.0499 2.54206 15
      vertex -10.8646 1.72078 15
      vertex -15.4547 5.02153 15
    endloop
  endfacet
  facet normal 0 0 1
    outer loop
      vertex -9.80107 -4.99389 15
      vertex -14.4789 -7.37735 15
      vertex -13.1465 -9.55151 15
    endloop
  endfacet
  facet normal 0 0 1
    outer loop
      vertex -10.8646 1.72078 15
      vertex -16.0499 2.54206 15
      vertex -11 0 15
    endloop
  endfacet
  facet normal 0 0 1
    outer loop
      vertex -10.4616 -3.39919 15
      vertex -15.4547 -5.02153 15
      vertex -14.4789 -7.37735 15
    endloop
  endfacet
  facet normal 0 0 1
    outer loop
      vertex -16.25 0 15
      vertex -11 0 15
      vertex -16.0499 2.54206 15
    endloop
  endfacet
  facet normal 0 0 1
    outer loop
      vertex -10.8646 -1.72078 15
      vertex -16.0499 -2.54206 15
      vertex -15.4547 -5.02153 15
    endloop
  endfacet
  facet normal 0 0 1
    outer loop
      vertex -11 0 15
      vertex -16.25 0 15
      vertex -16.0499 -2.54206 15
    endloop
  endfacet
  facet normal -0.852627 0.522519 0
    outer loop
      vertex -14.4789 7.37735 0
      vertex -13.1465 9.55151 15
      vertex -13.1465 9.55151 0
    endloop
  endfacet
  facet normal -0.852627 0.522519 0
    outer loop
      vertex -13.1465 9.55151 15
      vertex -14.4789 7.37735 0
      vertex -14.4789 7.37735 15
    endloop
  endfacet
  facet normal -0.522519 0.852627 0
    outer loop
      vertex -7.37735 14.4789 0
      vertex -9.55151 13.1465 15
      vertex -7.37735 14.4789 15
    endloop
  endfacet
  facet normal -0.522519 0.852627 0
    outer loop
      vertex -9.55151 13.1465 15
      vertex -7.37735 14.4789 0
      vertex -9.55151 13.1465 0
    endloop
  endfacet
  facet normal -0.649436 0.760416 0
    outer loop
      vertex -9.55151 13.1465 0
      vertex -11.4905 11.4905 15
      vertex -9.55151 13.1465 15
    endloop
  endfacet
  facet normal -0.649436 0.760416 0
    outer loop
      vertex -11.4905 11.4905 15
      vertex -9.55151 13.1465 0
      vertex -11.4905 11.4905 0
    endloop
  endfacet
  facet normal 0.972376 -0.23342 0
    outer loop
      vertex 15.4547 -5.02153 15
      vertex 16.0499 -2.54206 0
      vertex 16.0499 -2.54206 15
    endloop
  endfacet
  facet normal 0.972376 -0.23342 0
    outer loop
      vertex 16.0499 -2.54206 0
      vertex 15.4547 -5.02153 15
      vertex 15.4547 -5.02153 0
    endloop
  endfacet
  facet normal 0.522519 -0.852627 0
    outer loop
      vertex 7.37735 -14.4789 0
      vertex 9.55151 -13.1465 15
      vertex 7.37735 -14.4789 15
    endloop
  endfacet
  facet normal 0.522519 -0.852627 0
    outer loop
      vertex 9.55151 -13.1465 15
      vertex 7.37735 -14.4789 0
      vertex 9.55151 -13.1465 0
    endloop
  endfacet
  facet normal 0.923881 -0.382679 0
    outer loop
      vertex 14.4789 -7.37735 15
      vertex 15.4547 -5.02153 0
      vertex 15.4547 -5.02153 15
    endloop
  endfacet
  facet normal 0.923881 -0.382679 0
    outer loop
      vertex 15.4547 -5.02153 0
      vertex 14.4789 -7.37735 15
      vertex 14.4789 -7.37735 0
    endloop
  endfacet
  facet normal -0.382679 -0.923881 0
    outer loop
      vertex -7.37735 -14.4789 0
      vertex -5.02153 -15.4547 15
      vertex -7.37735 -14.4789 15
    endloop
  endfacet
  facet normal -0.382679 -0.923881 -0
    outer loop
      vertex -5.02153 -15.4547 15
      vertex -7.37735 -14.4789 0
      vertex -5.02153 -15.4547 0
    endloop
  endfacet
  facet normal -0.972376 -0.23342 0
    outer loop
      vertex -15.4547 -5.02153 0
      vertex -16.0499 -2.54206 15
      vertex -16.0499 -2.54206 0
    endloop
  endfacet
  facet normal -0.972376 -0.23342 0
    outer loop
      vertex -16.0499 -2.54206 15
      vertex -15.4547 -5.02153 0
      vertex -15.4547 -5.02153 15
    endloop
  endfacet
  facet normal -0.852627 -0.522519 0
    outer loop
      vertex -13.1465 -9.55151 0
      vertex -14.4789 -7.37735 15
      vertex -14.4789 -7.37735 0
    endloop
  endfacet
  facet normal -0.852627 -0.522519 0
    outer loop
      vertex -14.4789 -7.37735 15
      vertex -13.1465 -9.55151 0
      vertex -13.1465 -9.55151 15
    endloop
  endfacet
  facet normal 0.996916 -0.0784729 0
    outer loop
      vertex 16.0499 -2.54206 15
      vertex 16.25 0 0
      vertex 16.25 0 15
    endloop
  endfacet
  facet normal 0.996916 -0.0784729 0
    outer loop
      vertex 16.25 0 0
      vertex 16.0499 -2.54206 15
      vertex 16.0499 -2.54206 0
    endloop
  endfacet
  facet normal 0.649436 -0.760416 0
    outer loop
      vertex 9.55151 -13.1465 0
      vertex 11.4905 -11.4905 15
      vertex 9.55151 -13.1465 15
    endloop
  endfacet
  facet normal 0.649436 -0.760416 0
    outer loop
      vertex 11.4905 -11.4905 15
      vertex 9.55151 -13.1465 0
      vertex 11.4905 -11.4905 0
    endloop
  endfacet
  facet normal 0.852627 -0.522519 0
    outer loop
      vertex 13.1465 -9.55151 15
      vertex 14.4789 -7.37735 0
      vertex 14.4789 -7.37735 15
    endloop
  endfacet
  facet normal 0.852627 -0.522519 0
    outer loop
      vertex 14.4789 -7.37735 0
      vertex 13.1465 -9.55151 15
      vertex 13.1465 -9.55151 0
    endloop
  endfacet
  facet normal -0.522519 -0.852627 0
    outer loop
      vertex -9.55151 -13.1465 0
      vertex -7.37735 -14.4789 15
      vertex -9.55151 -13.1465 15
    endloop
  endfacet
  facet normal -0.522519 -0.852627 -0
    outer loop
      vertex -7.37735 -14.4789 15
      vertex -9.55151 -13.1465 0
      vertex -7.37735 -14.4789 0
    endloop
  endfacet
  facet normal -0.760416 -0.649436 0
    outer loop
      vertex -11.4905 -11.4905 0
      vertex -13.1465 -9.55151 15
      vertex -13.1465 -9.55151 0
    endloop
  endfacet
  facet normal -0.760416 -0.649436 0
    outer loop
      vertex -13.1465 -9.55151 15
      vertex -11.4905 -11.4905 0
      vertex -11.4905 -11.4905 15
    endloop
  endfacet
  facet normal -0.649453 -0.760402 0
    outer loop
      vertex 6.46564 8.89919 0
      vertex 7.77817 7.77817 15
      vertex 6.46564 8.89919 15
    endloop
  endfacet
  facet normal -0.649453 -0.760402 -0
    outer loop
      vertex 7.77817 7.77817 15
      vertex 6.46564 8.89919 0
      vertex 7.77817 7.77817 0
    endloop
  endfacet
  facet normal 0.233472 0.972363 -0
    outer loop
      vertex -1.72078 -10.8646 0
      vertex -3.39919 -10.4616 15
      vertex -1.72078 -10.8646 15
    endloop
  endfacet
  facet normal 0.233472 0.972363 0
    outer loop
      vertex -3.39919 -10.4616 15
      vertex -1.72078 -10.8646 0
      vertex -3.39919 -10.4616 0
    endloop
  endfacet
  facet normal 0.923883 -0.382675 0
    outer loop
      vertex -10.4616 3.39919 15
      vertex -9.80107 4.99389 0
      vertex -9.80107 4.99389 15
    endloop
  endfacet
  facet normal 0.923883 -0.382675 0
    outer loop
      vertex -9.80107 4.99389 0
      vertex -10.4616 3.39919 15
      vertex -10.4616 3.39919 0
    endloop
  endfacet
  facet normal -0.972363 -0.233472 0
    outer loop
      vertex 10.8646 1.72078 0
      vertex 10.4616 3.39919 15
      vertex 10.4616 3.39919 0
    endloop
  endfacet
  facet normal -0.972363 -0.233472 0
    outer loop
      vertex 10.4616 3.39919 15
      vertex 10.8646 1.72078 0
      vertex 10.8646 1.72078 15
    endloop
  endfacet
  facet normal -0.923883 -0.382675 0
    outer loop
      vertex 10.4616 3.39919 0
      vertex 9.80107 4.99389 15
      vertex 9.80107 4.99389 0
    endloop
  endfacet
  facet normal -0.923883 -0.382675 0
    outer loop
      vertex 9.80107 4.99389 15
      vertex 10.4616 3.39919 0
      vertex 10.4616 3.39919 15
    endloop
  endfacet
  facet normal -0.852643 -0.522495 0
    outer loop
      vertex 9.80107 4.99389 0
      vertex 8.89919 6.46564 15
      vertex 8.89919 6.46564 0
    endloop
  endfacet
  facet normal -0.852643 -0.522495 0
    outer loop
      vertex 8.89919 6.46564 15
      vertex 9.80107 4.99389 0
      vertex 9.80107 4.99389 15
    endloop
  endfacet
  facet normal -0.760402 -0.649453 0
    outer loop
      vertex 8.89919 6.46564 0
      vertex 7.77817 7.77817 15
      vertex 7.77817 7.77817 0
    endloop
  endfacet
  facet normal -0.760402 -0.649453 0
    outer loop
      vertex 7.77817 7.77817 15
      vertex 8.89919 6.46564 0
      vertex 8.89919 6.46564 15
    endloop
  endfacet
  facet normal 0.996919 -0.0784428 0
    outer loop
      vertex -11 0 15
      vertex -10.8646 1.72078 0
      vertex -10.8646 1.72078 15
    endloop
  endfacet
  facet normal 0.996919 -0.0784428 0
    outer loop
      vertex -10.8646 1.72078 0
      vertex -11 0 15
      vertex -11 0 0
    endloop
  endfacet
  facet normal 0.760402 -0.649453 0
    outer loop
      vertex -8.89919 6.46564 15
      vertex -7.77817 7.77817 0
      vertex -7.77817 7.77817 15
    endloop
  endfacet
  facet normal 0.760402 -0.649453 0
    outer loop
      vertex -7.77817 7.77817 0
      vertex -8.89919 6.46564 15
      vertex -8.89919 6.46564 0
    endloop
  endfacet
  facet normal -0.996919 -0.0784428 0
    outer loop
      vertex 11 0 0
      vertex 10.8646 1.72078 15
      vertex 10.8646 1.72078 0
    endloop
  endfacet
  facet normal -0.996919 -0.0784428 0
    outer loop
      vertex 10.8646 1.72078 15
      vertex 11 0 0
      vertex 11 0 15
    endloop
  endfacet
  facet normal -0.0784428 0.996919 0
    outer loop
      vertex 1.72078 -10.8646 0
      vertex 0 -11 15
      vertex 1.72078 -10.8646 15
    endloop
  endfacet
  facet normal -0.0784428 0.996919 0
    outer loop
      vertex 0 -11 15
      vertex 1.72078 -10.8646 0
      vertex 0 -11 0
    endloop
  endfacet
  facet normal -0.233472 0.972363 0
    outer loop
      vertex 3.39919 -10.4616 0
      vertex 1.72078 -10.8646 15
      vertex 3.39919 -10.4616 15
    endloop
  endfacet
  facet normal -0.233472 0.972363 0
    outer loop
      vertex 1.72078 -10.8646 15
      vertex 3.39919 -10.4616 0
      vertex 1.72078 -10.8646 0
    endloop
  endfacet
  facet normal -0.382675 0.923883 0
    outer loop
      vertex 4.99389 -9.80107 0
      vertex 3.39919 -10.4616 15
      vertex 4.99389 -9.80107 15
    endloop
  endfacet
  facet normal -0.382675 0.923883 0
    outer loop
      vertex 3.39919 -10.4616 15
      vertex 4.99389 -9.80107 0
      vertex 3.39919 -10.4616 0
    endloop
  endfacet
  facet normal -0.760402 0.649453 0
    outer loop
      vertex 7.77817 -7.77817 0
      vertex 8.89919 -6.46564 15
      vertex 8.89919 -6.46564 0
    endloop
  endfacet
  facet normal -0.760402 0.649453 0
    outer loop
      vertex 8.89919 -6.46564 15
      vertex 7.77817 -7.77817 0
      vertex 7.77817 -7.77817 15
    endloop
  endfacet
  facet normal 0.0784428 0.996919 -0
    outer loop
      vertex 0 -11 0
      vertex -1.72078 -10.8646 15
      vertex 0 -11 15
    endloop
  endfacet
  facet normal 0.0784428 0.996919 0
    outer loop
      vertex -1.72078 -10.8646 15
      vertex 0 -11 0
      vertex -1.72078 -10.8646 0
    endloop
  endfacet
  facet normal 0.649453 0.760402 -0
    outer loop
      vertex -6.46564 -8.89919 0
      vertex -7.77817 -7.77817 15
      vertex -6.46564 -8.89919 15
    endloop
  endfacet
  facet normal 0.649453 0.760402 0
    outer loop
      vertex -7.77817 -7.77817 15
      vertex -6.46564 -8.89919 0
      vertex -7.77817 -7.77817 0
    endloop
  endfacet
  facet normal 0.923883 0.382675 0
    outer loop
      vertex -9.80107 -4.99389 15
      vertex -10.4616 -3.39919 0
      vertex -10.4616 -3.39919 15
    endloop
  endfacet
  facet normal 0.923883 0.382675 0
    outer loop
      vertex -10.4616 -3.39919 0
      vertex -9.80107 -4.99389 15
      vertex -9.80107 -4.99389 0
    endloop
  endfacet
  facet normal 0.996919 0.0784428 0
    outer loop
      vertex -10.8646 -1.72078 15
      vertex -11 0 0
      vertex -11 0 15
    endloop
  endfacet
  facet normal 0.996919 0.0784428 0
    outer loop
      vertex -11 0 0
      vertex -10.8646 -1.72078 15
      vertex -10.8646 -1.72078 0
    endloop
  endfacet
  facet normal -0.522496 -0.852642 0
    outer loop
      vertex 5 9.79733 0
      vertex 6.46564 8.89919 15
      vertex 5 9.79733 15
    endloop
  endfacet
  facet normal -0.522496 -0.852642 -0
    outer loop
      vertex 6.46564 8.89919 15
      vertex 5 9.79733 0
      vertex 6.46564 8.89919 0
    endloop
  endfacet
  facet normal 0.972363 -0.233472 0
    outer loop
      vertex -10.8646 1.72078 15
      vertex -10.4616 3.39919 0
      vertex -10.4616 3.39919 15
    endloop
  endfacet
  facet normal 0.972363 -0.233472 0
    outer loop
      vertex -10.4616 3.39919 0
      vertex -10.8646 1.72078 15
      vertex -10.8646 1.72078 0
    endloop
  endfacet
  facet normal 0.852643 -0.522495 0
    outer loop
      vertex -9.80107 4.99389 15
      vertex -8.89919 6.46564 0
      vertex -8.89919 6.46564 15
    endloop
  endfacet
  facet normal 0.852643 -0.522495 0
    outer loop
      vertex -8.89919 6.46564 0
      vertex -9.80107 4.99389 15
      vertex -9.80107 4.99389 0
    endloop
  endfacet
  facet normal 0.522496 -0.852642 0
    outer loop
      vertex -6.46564 8.89919 0
      vertex -5 9.79733 15
      vertex -6.46564 8.89919 15
    endloop
  endfacet
  facet normal 0.522496 -0.852642 0
    outer loop
      vertex -5 9.79733 15
      vertex -6.46564 8.89919 0
      vertex -5 9.79733 0
    endloop
  endfacet
  facet normal 0.649453 -0.760402 0
    outer loop
      vertex -7.77817 7.77817 0
      vertex -6.46564 8.89919 15
      vertex -7.77817 7.77817 15
    endloop
  endfacet
  facet normal 0.649453 -0.760402 0
    outer loop
      vertex -6.46564 8.89919 15
      vertex -7.77817 7.77817 0
      vertex -6.46564 8.89919 0
    endloop
  endfacet
  facet normal -0.972363 0.233472 0
    outer loop
      vertex 10.4616 -3.39919 0
      vertex 10.8646 -1.72078 15
      vertex 10.8646 -1.72078 0
    endloop
  endfacet
  facet normal -0.972363 0.233472 0
    outer loop
      vertex 10.8646 -1.72078 15
      vertex 10.4616 -3.39919 0
      vertex 10.4616 -3.39919 15
    endloop
  endfacet
  facet normal -0.522495 0.852643 0
    outer loop
      vertex 6.46564 -8.89919 0
      vertex 4.99389 -9.80107 15
      vertex 6.46564 -8.89919 15
    endloop
  endfacet
  facet normal -0.522495 0.852643 0
    outer loop
      vertex 4.99389 -9.80107 15
      vertex 6.46564 -8.89919 0
      vertex 4.99389 -9.80107 0
    endloop
  endfacet
  facet normal -0.923883 0.382675 0
    outer loop
      vertex 9.80107 -4.99389 0
      vertex 10.4616 -3.39919 15
      vertex 10.4616 -3.39919 0
    endloop
  endfacet
  facet normal -0.923883 0.382675 0
    outer loop
      vertex 10.4616 -3.39919 15
      vertex 9.80107 -4.99389 0
      vertex 9.80107 -4.99389 15
    endloop
  endfacet
  facet normal 0.382675 0.923883 -0
    outer loop
      vertex -3.39919 -10.4616 0
      vertex -4.99389 -9.80107 15
      vertex -3.39919 -10.4616 15
    endloop
  endfacet
  facet normal 0.382675 0.923883 0
    outer loop
      vertex -4.99389 -9.80107 15
      vertex -3.39919 -10.4616 0
      vertex -4.99389 -9.80107 0
    endloop
  endfacet
  facet normal 0.972363 0.233472 0
    outer loop
      vertex -10.4616 -3.39919 15
      vertex -10.8646 -1.72078 0
      vertex -10.8646 -1.72078 15
    endloop
  endfacet
  facet normal 0.972363 0.233472 0
    outer loop
      vertex -10.8646 -1.72078 0
      vertex -10.4616 -3.39919 15
      vertex -10.4616 -3.39919 0
    endloop
  endfacet
  facet normal 0.852643 0.522495 0
    outer loop
      vertex -8.89919 -6.46564 15
      vertex -9.80107 -4.99389 0
      vertex -9.80107 -4.99389 15
    endloop
  endfacet
  facet normal 0.852643 0.522495 0
    outer loop
      vertex -9.80107 -4.99389 0
      vertex -8.89919 -6.46564 15
      vertex -8.89919 -6.46564 0
    endloop
  endfacet
  facet normal 0.760402 0.649453 0
    outer loop
      vertex -7.77817 -7.77817 15
      vertex -8.89919 -6.46564 0
      vertex -8.89919 -6.46564 15
    endloop
  endfacet
  facet normal 0.760402 0.649453 0
    outer loop
      vertex -8.89919 -6.46564 0
      vertex -7.77817 -7.77817 15
      vertex -7.77817 -7.77817 0
    endloop
  endfacet
  facet normal -0.996919 0.0784428 0
    outer loop
      vertex 10.8646 -1.72078 0
      vertex 11 0 15
      vertex 11 0 0
    endloop
  endfacet
  facet normal -0.996919 0.0784428 0
    outer loop
      vertex 11 0 15
      vertex 10.8646 -1.72078 0
      vertex 10.8646 -1.72078 15
    endloop
  endfacet
  facet normal -0.649453 0.760402 0
    outer loop
      vertex 7.77817 -7.77817 0
      vertex 6.46564 -8.89919 15
      vertex 7.77817 -7.77817 15
    endloop
  endfacet
  facet normal -0.649453 0.760402 0
    outer loop
      vertex 6.46564 -8.89919 15
      vertex 7.77817 -7.77817 0
      vertex 6.46564 -8.89919 0
    endloop
  endfacet
  facet normal -0.852643 0.522495 0
    outer loop
      vertex 8.89919 -6.46564 0
      vertex 9.80107 -4.99389 15
      vertex 9.80107 -4.99389 0
    endloop
  endfacet
  facet normal -0.852643 0.522495 0
    outer loop
      vertex 9.80107 -4.99389 15
      vertex 8.89919 -6.46564 0
      vertex 8.89919 -6.46564 15
    endloop
  endfacet
  facet normal 0.522495 0.852643 -0
    outer loop
      vertex -4.99389 -9.80107 0
      vertex -6.46564 -8.89919 15
      vertex -4.99389 -9.80107 15
    endloop
  endfacet
  facet normal 0.522495 0.852643 0
    outer loop
      vertex -6.46564 -8.89919 15
      vertex -4.99389 -9.80107 0
      vertex -6.46564 -8.89919 0
    endloop
  endfacet
  facet normal 1 -0 0
    outer loop
      vertex -5 9.79733 15
      vertex -5 15.4598 0
      vertex -5 15.4598 15
    endloop
  endfacet
  facet normal 1 0 0
    outer loop
      vertex -5 15.4598 0
      vertex -5 9.79733 15
      vertex -5 9.79733 0
    endloop
  endfacet
  facet normal -1 0 0
    outer loop
      vertex 5 9.79733 0
      vertex 5 15.4598 15
      vertex 5 15.4598 0
    endloop
  endfacet
  facet normal -1 -0 0
    outer loop
      vertex 5 15.4598 15
      vertex 5 9.79733 0
      vertex 5 9.79733 15
    endloop
  endfacet
endsolid OpenSCAD_Model
