solid OpenSCAD_Model
  facet normal 0.996917 0.0784587 0
    outer loop
      vertex 4.75 0 3.4
      vertex 4.69152 0.743063 0
      vertex 4.69152 0.743063 3.4
    endloop
  endfacet
  facet normal 0.996917 0.0784587 0
    outer loop
      vertex 4.69152 0.743063 0
      vertex 4.75 0 3.4
      vertex 4.75 0 0
    endloop
  endfacet
  facet normal -0.996917 0.0784587 0
    outer loop
      vertex -4.75 0 0
      vertex -4.69152 0.743063 3.4
      vertex -4.69152 0.743063 0
    endloop
  endfacet
  facet normal -0.996917 0.0784587 0
    outer loop
      vertex -4.69152 0.743063 3.4
      vertex -4.75 0 0
      vertex -4.75 0 3.4
    endloop
  endfacet
  facet normal 0.0784587 0.996917 -0
    outer loop
      vertex 0.743063 4.69152 0
      vertex 0 4.75 3.4
      vertex 0.743063 4.69152 3.4
    endloop
  endfacet
  facet normal 0.0784587 0.996917 0
    outer loop
      vertex 0 4.75 3.4
      vertex 0.743063 4.69152 0
      vertex 0 4.75 0
    endloop
  endfacet
  facet normal -0.76041 -0.649444 0
    outer loop
      vertex -3.35876 -3.35876 0
      vertex -3.84283 -2.79198 3.4
      vertex -3.84283 -2.79198 0
    endloop
  endfacet
  facet normal -0.76041 -0.649444 0
    outer loop
      vertex -3.84283 -2.79198 3.4
      vertex -3.35876 -3.35876 0
      vertex -3.35876 -3.35876 3.4
    endloop
  endfacet
  facet normal 0.76041 0.649444 0
    outer loop
      vertex 3.84283 2.79198 3.4
      vertex 3.35876 3.35876 0
      vertex 3.35876 3.35876 3.4
    endloop
  endfacet
  facet normal 0.76041 0.649444 0
    outer loop
      vertex 3.35876 3.35876 0
      vertex 3.84283 2.79198 3.4
      vertex 3.84283 2.79198 0
    endloop
  endfacet
  facet normal -0.649444 0.76041 0
    outer loop
      vertex -2.79198 3.84283 0
      vertex -3.35876 3.35876 3.4
      vertex -2.79198 3.84283 3.4
    endloop
  endfacet
  facet normal -0.649444 0.76041 0
    outer loop
      vertex -3.35876 3.35876 3.4
      vertex -2.79198 3.84283 0
      vertex -3.35876 3.35876 0
    endloop
  endfacet
  facet normal -0.233444 0.97237 0
    outer loop
      vertex -0.743063 4.69152 0
      vertex -1.46783 4.51752 3.4
      vertex -0.743063 4.69152 3.4
    endloop
  endfacet
  facet normal -0.233444 0.97237 0
    outer loop
      vertex -1.46783 4.51752 3.4
      vertex -0.743063 4.69152 0
      vertex -1.46783 4.51752 0
    endloop
  endfacet
  facet normal 0.852642 -0.522495 0
    outer loop
      vertex 3.84283 -2.79198 3.4
      vertex 4.23228 -2.15645 0
      vertex 4.23228 -2.15645 3.4
    endloop
  endfacet
  facet normal 0.852642 -0.522495 0
    outer loop
      vertex 4.23228 -2.15645 0
      vertex 3.84283 -2.79198 3.4
      vertex 3.84283 -2.79198 0
    endloop
  endfacet
  facet normal 0 0 -1
    outer loop
      vertex 1.65 0 0
      vertex 4.75 0 0
      vertex 4.69152 -0.743063 0
    endloop
  endfacet
  facet normal 0 0 -1
    outer loop
      vertex 1.56924 -0.509877 0
      vertex 4.69152 -0.743063 0
      vertex 4.51752 -1.46783 0
    endloop
  endfacet
  facet normal 0 0 -1
    outer loop
      vertex 4.75 0 0
      vertex 1.65 0 0
      vertex 4.69152 0.743063 0
    endloop
  endfacet
  facet normal 0 0 -1
    outer loop
      vertex 1.56924 -0.509877 0
      vertex 4.51752 -1.46783 0
      vertex 4.23228 -2.15645 0
    endloop
  endfacet
  facet normal 0 0 -1
    outer loop
      vertex 1.56924 0.509877 0
      vertex 4.69152 0.743063 0
      vertex 1.65 0 0
    endloop
  endfacet
  facet normal 0 0 -1
    outer loop
      vertex 1.33488 -0.969845 0
      vertex 4.23228 -2.15645 0
      vertex 3.84283 -2.79198 0
    endloop
  endfacet
  facet normal -0 0 -1
    outer loop
      vertex 4.69152 0.743063 0
      vertex 1.56924 0.509877 0
      vertex 4.51752 1.46783 0
    endloop
  endfacet
  facet normal 0 0 -1
    outer loop
      vertex 1.33488 -0.969845 0
      vertex 3.84283 -2.79198 0
      vertex 3.35876 -3.35876 0
    endloop
  endfacet
  facet normal -0 0 -1
    outer loop
      vertex 4.51752 1.46783 0
      vertex 1.56924 0.509877 0
      vertex 4.23228 2.15645 0
    endloop
  endfacet
  facet normal 0 0 -1
    outer loop
      vertex 0.969845 -1.33488 0
      vertex 3.35876 -3.35876 0
      vertex 2.79198 -3.84283 0
    endloop
  endfacet
  facet normal 0 0 -1
    outer loop
      vertex 1.33488 0.969845 0
      vertex 4.23228 2.15645 0
      vertex 1.56924 0.509877 0
    endloop
  endfacet
  facet normal 0 0 -1
    outer loop
      vertex 0.969845 -1.33488 0
      vertex 2.79198 -3.84283 0
      vertex 2.15645 -4.23228 0
    endloop
  endfacet
  facet normal -0 0 -1
    outer loop
      vertex 4.23228 2.15645 0
      vertex 1.33488 0.969845 0
      vertex 3.84283 2.79198 0
    endloop
  endfacet
  facet normal -0 0 -1
    outer loop
      vertex 3.84283 2.79198 0
      vertex 1.33488 0.969845 0
      vertex 3.35876 3.35876 0
    endloop
  endfacet
  facet normal 0 0 -1
    outer loop
      vertex 4.69152 -0.743063 0
      vertex 1.56924 -0.509877 0
      vertex 1.65 0 0
    endloop
  endfacet
  facet normal 0 0 -1
    outer loop
      vertex 0.509877 -1.56924 0
      vertex 2.15645 -4.23228 0
      vertex 1.46783 -4.51752 0
    endloop
  endfacet
  facet normal 0 0 -1
    outer loop
      vertex 4.23228 -2.15645 0
      vertex 1.33488 -0.969845 0
      vertex 1.56924 -0.509877 0
    endloop
  endfacet
  facet normal 0 0 -1
    outer loop
      vertex 3.35876 -3.35876 0
      vertex 0.969845 -1.33488 0
      vertex 1.33488 -0.969845 0
    endloop
  endfacet
  facet normal 0 0 -1
    outer loop
      vertex 0.509877 -1.56924 0
      vertex 1.46783 -4.51752 0
      vertex 0.743063 -4.69152 0
    endloop
  endfacet
  facet normal 0 0 -1
    outer loop
      vertex 2.15645 -4.23228 0
      vertex 0.509877 -1.56924 0
      vertex 0.969845 -1.33488 0
    endloop
  endfacet
  facet normal 0 0 -1
    outer loop
      vertex 0 -1.65 0
      vertex 0.743063 -4.69152 0
      vertex 0 -4.75 0
    endloop
  endfacet
  facet normal 0 0 -1
    outer loop
      vertex 0.743063 -4.69152 0
      vertex 0 -1.65 0
      vertex 0.509877 -1.56924 0
    endloop
  endfacet
  facet normal 0 0 -1
    outer loop
      vertex -0.743063 -4.69152 0
      vertex 0 -1.65 0
      vertex 0 -4.75 0
    endloop
  endfacet
  facet normal -0 0 -1
    outer loop
      vertex 0 -1.65 0
      vertex -0.743063 -4.69152 0
      vertex -0.509877 -1.56924 0
    endloop
  endfacet
  facet normal 0 0 -1
    outer loop
      vertex -1.46783 -4.51752 0
      vertex -0.509877 -1.56924 0
      vertex -0.743063 -4.69152 0
    endloop
  endfacet
  facet normal 0 0 -1
    outer loop
      vertex -2.15645 -4.23228 0
      vertex -0.509877 -1.56924 0
      vertex -1.46783 -4.51752 0
    endloop
  endfacet
  facet normal -0 0 -1
    outer loop
      vertex -0.509877 -1.56924 0
      vertex -2.15645 -4.23228 0
      vertex -0.969845 -1.33488 0
    endloop
  endfacet
  facet normal 0 0 -1
    outer loop
      vertex -2.79198 -3.84283 0
      vertex -0.969845 -1.33488 0
      vertex -2.15645 -4.23228 0
    endloop
  endfacet
  facet normal 0 0 -1
    outer loop
      vertex -3.35876 -3.35876 0
      vertex -0.969845 -1.33488 0
      vertex -2.79198 -3.84283 0
    endloop
  endfacet
  facet normal -0 0 -1
    outer loop
      vertex -0.969845 -1.33488 0
      vertex -3.35876 -3.35876 0
      vertex -1.33488 -0.969845 0
    endloop
  endfacet
  facet normal 0 0 -1
    outer loop
      vertex 0.969845 1.33488 0
      vertex 3.35876 3.35876 0
      vertex 1.33488 0.969845 0
    endloop
  endfacet
  facet normal -0 0 -1
    outer loop
      vertex 3.35876 3.35876 0
      vertex 0.969845 1.33488 0
      vertex 2.79198 3.84283 0
    endloop
  endfacet
  facet normal -0 0 -1
    outer loop
      vertex 2.79198 3.84283 0
      vertex 0.969845 1.33488 0
      vertex 2.15645 4.23228 0
    endloop
  endfacet
  facet normal 0 0 -1
    outer loop
      vertex 0.509877 1.56924 0
      vertex 2.15645 4.23228 0
      vertex 0.969845 1.33488 0
    endloop
  endfacet
  facet normal -0 0 -1
    outer loop
      vertex 2.15645 4.23228 0
      vertex 0.509877 1.56924 0
      vertex 1.46783 4.51752 0
    endloop
  endfacet
  facet normal -0 0 -1
    outer loop
      vertex 1.46783 4.51752 0
      vertex 0.509877 1.56924 0
      vertex 0.743063 4.69152 0
    endloop
  endfacet
  facet normal 0 0 -1
    outer loop
      vertex 0 1.65 0
      vertex 0.743063 4.69152 0
      vertex 0.509877 1.56924 0
    endloop
  endfacet
  facet normal 0 0 -1
    outer loop
      vertex 0 1.65 0
      vertex 0 4.75 0
      vertex 0.743063 4.69152 0
    endloop
  endfacet
  facet normal 0 0 -1
    outer loop
      vertex -0.743063 4.69152 0
      vertex 0 1.65 0
      vertex -0.509877 1.56924 0
    endloop
  endfacet
  facet normal 0 0 -1
    outer loop
      vertex 0 1.65 0
      vertex -0.743063 4.69152 0
      vertex 0 4.75 0
    endloop
  endfacet
  facet normal 0 0 -1
    outer loop
      vertex -2.15645 4.23228 0
      vertex -0.509877 1.56924 0
      vertex -0.969845 1.33488 0
    endloop
  endfacet
  facet normal 0 0 -1
    outer loop
      vertex -3.35876 3.35876 0
      vertex -0.969845 1.33488 0
      vertex -1.33488 0.969845 0
    endloop
  endfacet
  facet normal 0 0 -1
    outer loop
      vertex -0.509877 1.56924 0
      vertex -1.46783 4.51752 0
      vertex -0.743063 4.69152 0
    endloop
  endfacet
  facet normal 0 0 -1
    outer loop
      vertex -4.23228 2.15645 0
      vertex -1.33488 0.969845 0
      vertex -1.56924 0.509877 0
    endloop
  endfacet
  facet normal 0 0 -1
    outer loop
      vertex -4.69152 0.743063 0
      vertex -1.56924 0.509877 0
      vertex -1.65 0 0
    endloop
  endfacet
  facet normal 0 0 -1
    outer loop
      vertex -3.84283 -2.79198 0
      vertex -1.33488 -0.969845 0
      vertex -3.35876 -3.35876 0
    endloop
  endfacet
  facet normal 0 0 -1
    outer loop
      vertex -0.509877 1.56924 0
      vertex -2.15645 4.23228 0
      vertex -1.46783 4.51752 0
    endloop
  endfacet
  facet normal 0 0 -1
    outer loop
      vertex -4.23228 -2.15645 0
      vertex -1.33488 -0.969845 0
      vertex -3.84283 -2.79198 0
    endloop
  endfacet
  facet normal 0 0 -1
    outer loop
      vertex -0.969845 1.33488 0
      vertex -2.79198 3.84283 0
      vertex -2.15645 4.23228 0
    endloop
  endfacet
  facet normal -0 0 -1
    outer loop
      vertex -1.33488 -0.969845 0
      vertex -4.23228 -2.15645 0
      vertex -1.56924 -0.509877 0
    endloop
  endfacet
  facet normal 0 0 -1
    outer loop
      vertex -0.969845 1.33488 0
      vertex -3.35876 3.35876 0
      vertex -2.79198 3.84283 0
    endloop
  endfacet
  facet normal 0 0 -1
    outer loop
      vertex -4.51752 -1.46783 0
      vertex -1.56924 -0.509877 0
      vertex -4.23228 -2.15645 0
    endloop
  endfacet
  facet normal 0 0 -1
    outer loop
      vertex -1.33488 0.969845 0
      vertex -3.84283 2.79198 0
      vertex -3.35876 3.35876 0
    endloop
  endfacet
  facet normal 0 0 -1
    outer loop
      vertex -4.69152 -0.743063 0
      vertex -1.56924 -0.509877 0
      vertex -4.51752 -1.46783 0
    endloop
  endfacet
  facet normal 0 0 -1
    outer loop
      vertex -1.33488 0.969845 0
      vertex -4.23228 2.15645 0
      vertex -3.84283 2.79198 0
    endloop
  endfacet
  facet normal -0 0 -1
    outer loop
      vertex -1.56924 -0.509877 0
      vertex -4.69152 -0.743063 0
      vertex -1.65 0 0
    endloop
  endfacet
  facet normal 0 0 -1
    outer loop
      vertex -1.56924 0.509877 0
      vertex -4.51752 1.46783 0
      vertex -4.23228 2.15645 0
    endloop
  endfacet
  facet normal 0 0 -1
    outer loop
      vertex -4.75 0 0
      vertex -1.65 0 0
      vertex -4.69152 -0.743063 0
    endloop
  endfacet
  facet normal 0 0 -1
    outer loop
      vertex -1.56924 0.509877 0
      vertex -4.69152 0.743063 0
      vertex -4.51752 1.46783 0
    endloop
  endfacet
  facet normal 0 0 -1
    outer loop
      vertex -1.65 0 0
      vertex -4.75 0 0
      vertex -4.69152 0.743063 0
    endloop
  endfacet
  facet normal 0.923878 0.382688 0
    outer loop
      vertex 4.51752 1.46783 3.4
      vertex 4.23228 2.15645 0
      vertex 4.23228 2.15645 3.4
    endloop
  endfacet
  facet normal 0.923878 0.382688 0
    outer loop
      vertex 4.23228 2.15645 0
      vertex 4.51752 1.46783 3.4
      vertex 4.51752 1.46783 0
    endloop
  endfacet
  facet normal 0.97237 0.233444 0
    outer loop
      vertex 4.69152 0.743063 3.4
      vertex 4.51752 1.46783 0
      vertex 4.51752 1.46783 3.4
    endloop
  endfacet
  facet normal 0.97237 0.233444 0
    outer loop
      vertex 4.51752 1.46783 0
      vertex 4.69152 0.743063 3.4
      vertex 4.69152 0.743063 0
    endloop
  endfacet
  facet normal 0.852642 0.522495 0
    outer loop
      vertex 4.23228 2.15645 3.4
      vertex 3.84283 2.79198 0
      vertex 3.84283 2.79198 3.4
    endloop
  endfacet
  facet normal 0.852642 0.522495 0
    outer loop
      vertex 3.84283 2.79198 0
      vertex 4.23228 2.15645 3.4
      vertex 4.23228 2.15645 0
    endloop
  endfacet
  facet normal 0.382688 0.923878 -0
    outer loop
      vertex 2.15645 4.23228 0
      vertex 1.46783 4.51752 3.4
      vertex 2.15645 4.23228 3.4
    endloop
  endfacet
  facet normal 0.382688 0.923878 0
    outer loop
      vertex 1.46783 4.51752 3.4
      vertex 2.15645 4.23228 0
      vertex 1.46783 4.51752 0
    endloop
  endfacet
  facet normal 0.233444 0.97237 -0
    outer loop
      vertex 1.46783 4.51752 0
      vertex 0.743063 4.69152 3.4
      vertex 1.46783 4.51752 3.4
    endloop
  endfacet
  facet normal 0.233444 0.97237 0
    outer loop
      vertex 0.743063 4.69152 3.4
      vertex 1.46783 4.51752 0
      vertex 0.743063 4.69152 0
    endloop
  endfacet
  facet normal 0.649444 0.76041 -0
    outer loop
      vertex 3.35876 3.35876 0
      vertex 2.79198 3.84283 3.4
      vertex 3.35876 3.35876 3.4
    endloop
  endfacet
  facet normal 0.649444 0.76041 0
    outer loop
      vertex 2.79198 3.84283 3.4
      vertex 3.35876 3.35876 0
      vertex 2.79198 3.84283 0
    endloop
  endfacet
  facet normal -0.923878 0.382688 0
    outer loop
      vertex -4.51752 1.46783 0
      vertex -4.23228 2.15645 3.4
      vertex -4.23228 2.15645 0
    endloop
  endfacet
  facet normal -0.923878 0.382688 0
    outer loop
      vertex -4.23228 2.15645 3.4
      vertex -4.51752 1.46783 0
      vertex -4.51752 1.46783 3.4
    endloop
  endfacet
  facet normal -0.76041 0.649444 0
    outer loop
      vertex -3.84283 2.79198 0
      vertex -3.35876 3.35876 3.4
      vertex -3.35876 3.35876 0
    endloop
  endfacet
  facet normal -0.76041 0.649444 0
    outer loop
      vertex -3.35876 3.35876 3.4
      vertex -3.84283 2.79198 0
      vertex -3.84283 2.79198 3.4
    endloop
  endfacet
  facet normal -0.97237 0.233444 0
    outer loop
      vertex -4.69152 0.743063 0
      vertex -4.51752 1.46783 3.4
      vertex -4.51752 1.46783 0
    endloop
  endfacet
  facet normal -0.97237 0.233444 0
    outer loop
      vertex -4.51752 1.46783 3.4
      vertex -4.69152 0.743063 0
      vertex -4.69152 0.743063 3.4
    endloop
  endfacet
  facet normal 0 0 1
    outer loop
      vertex 1.65 0 3.4
      vertex 4.75 0 3.4
      vertex 4.69152 0.743063 3.4
    endloop
  endfacet
  facet normal 0 0 1
    outer loop
      vertex 1.56924 0.509877 3.4
      vertex 4.69152 0.743063 3.4
      vertex 4.51752 1.46783 3.4
    endloop
  endfacet
  facet normal 0 0 1
    outer loop
      vertex 4.75 0 3.4
      vertex 1.65 0 3.4
      vertex 4.69152 -0.743063 3.4
    endloop
  endfacet
  facet normal 0 0 1
    outer loop
      vertex 1.56924 0.509877 3.4
      vertex 4.51752 1.46783 3.4
      vertex 4.23228 2.15645 3.4
    endloop
  endfacet
  facet normal -0 0 1
    outer loop
      vertex 1.56924 -0.509877 3.4
      vertex 4.69152 -0.743063 3.4
      vertex 1.65 0 3.4
    endloop
  endfacet
  facet normal 0 0 1
    outer loop
      vertex 1.33488 0.969845 3.4
      vertex 4.23228 2.15645 3.4
      vertex 3.84283 2.79198 3.4
    endloop
  endfacet
  facet normal 0 0 1
    outer loop
      vertex 4.69152 -0.743063 3.4
      vertex 1.56924 -0.509877 3.4
      vertex 4.51752 -1.46783 3.4
    endloop
  endfacet
  facet normal 0 0 1
    outer loop
      vertex 1.33488 0.969845 3.4
      vertex 3.84283 2.79198 3.4
      vertex 3.35876 3.35876 3.4
    endloop
  endfacet
  facet normal 0 0 1
    outer loop
      vertex 4.51752 -1.46783 3.4
      vertex 1.56924 -0.509877 3.4
      vertex 4.23228 -2.15645 3.4
    endloop
  endfacet
  facet normal 0 0 1
    outer loop
      vertex 0.969845 1.33488 3.4
      vertex 3.35876 3.35876 3.4
      vertex 2.79198 3.84283 3.4
    endloop
  endfacet
  facet normal -0 0 1
    outer loop
      vertex 1.33488 -0.969845 3.4
      vertex 4.23228 -2.15645 3.4
      vertex 1.56924 -0.509877 3.4
    endloop
  endfacet
  facet normal 0 0 1
    outer loop
      vertex 0.969845 1.33488 3.4
      vertex 2.79198 3.84283 3.4
      vertex 2.15645 4.23228 3.4
    endloop
  endfacet
  facet normal 0 0 1
    outer loop
      vertex 4.23228 -2.15645 3.4
      vertex 1.33488 -0.969845 3.4
      vertex 3.84283 -2.79198 3.4
    endloop
  endfacet
  facet normal 0 0 1
    outer loop
      vertex 3.84283 -2.79198 3.4
      vertex 1.33488 -0.969845 3.4
      vertex 3.35876 -3.35876 3.4
    endloop
  endfacet
  facet normal 0 0 1
    outer loop
      vertex 4.69152 0.743063 3.4
      vertex 1.56924 0.509877 3.4
      vertex 1.65 0 3.4
    endloop
  endfacet
  facet normal 0 0 1
    outer loop
      vertex 0.509877 1.56924 3.4
      vertex 2.15645 4.23228 3.4
      vertex 1.46783 4.51752 3.4
    endloop
  endfacet
  facet normal 0 0 1
    outer loop
      vertex 4.23228 2.15645 3.4
      vertex 1.33488 0.969845 3.4
      vertex 1.56924 0.509877 3.4
    endloop
  endfacet
  facet normal 0 0 1
    outer loop
      vertex 3.35876 3.35876 3.4
      vertex 0.969845 1.33488 3.4
      vertex 1.33488 0.969845 3.4
    endloop
  endfacet
  facet normal 0 0 1
    outer loop
      vertex 0.509877 1.56924 3.4
      vertex 1.46783 4.51752 3.4
      vertex 0.743063 4.69152 3.4
    endloop
  endfacet
  facet normal 0 0 1
    outer loop
      vertex 2.15645 4.23228 3.4
      vertex 0.509877 1.56924 3.4
      vertex 0.969845 1.33488 3.4
    endloop
  endfacet
  facet normal 0 0 1
    outer loop
      vertex 0 1.65 3.4
      vertex 0.743063 4.69152 3.4
      vertex 0 4.75 3.4
    endloop
  endfacet
  facet normal 0 0 1
    outer loop
      vertex 0.743063 4.69152 3.4
      vertex 0 1.65 3.4
      vertex 0.509877 1.56924 3.4
    endloop
  endfacet
  facet normal -0 0 1
    outer loop
      vertex -0.743063 4.69152 3.4
      vertex 0 1.65 3.4
      vertex 0 4.75 3.4
    endloop
  endfacet
  facet normal 0 0 1
    outer loop
      vertex 0 1.65 3.4
      vertex -0.743063 4.69152 3.4
      vertex -0.509877 1.56924 3.4
    endloop
  endfacet
  facet normal -0 0 1
    outer loop
      vertex -1.46783 4.51752 3.4
      vertex -0.509877 1.56924 3.4
      vertex -0.743063 4.69152 3.4
    endloop
  endfacet
  facet normal -0 0 1
    outer loop
      vertex -2.15645 4.23228 3.4
      vertex -0.509877 1.56924 3.4
      vertex -1.46783 4.51752 3.4
    endloop
  endfacet
  facet normal 0 0 1
    outer loop
      vertex -0.509877 1.56924 3.4
      vertex -2.15645 4.23228 3.4
      vertex -0.969845 1.33488 3.4
    endloop
  endfacet
  facet normal -0 0 1
    outer loop
      vertex -2.79198 3.84283 3.4
      vertex -0.969845 1.33488 3.4
      vertex -2.15645 4.23228 3.4
    endloop
  endfacet
  facet normal -0 0 1
    outer loop
      vertex -3.35876 3.35876 3.4
      vertex -0.969845 1.33488 3.4
      vertex -2.79198 3.84283 3.4
    endloop
  endfacet
  facet normal 0 0 1
    outer loop
      vertex -0.969845 1.33488 3.4
      vertex -3.35876 3.35876 3.4
      vertex -1.33488 0.969845 3.4
    endloop
  endfacet
  facet normal -0 0 1
    outer loop
      vertex 0.969845 -1.33488 3.4
      vertex 3.35876 -3.35876 3.4
      vertex 1.33488 -0.969845 3.4
    endloop
  endfacet
  facet normal 0 0 1
    outer loop
      vertex 3.35876 -3.35876 3.4
      vertex 0.969845 -1.33488 3.4
      vertex 2.79198 -3.84283 3.4
    endloop
  endfacet
  facet normal 0 0 1
    outer loop
      vertex 2.79198 -3.84283 3.4
      vertex 0.969845 -1.33488 3.4
      vertex 2.15645 -4.23228 3.4
    endloop
  endfacet
  facet normal -0 0 1
    outer loop
      vertex 0.509877 -1.56924 3.4
      vertex 2.15645 -4.23228 3.4
      vertex 0.969845 -1.33488 3.4
    endloop
  endfacet
  facet normal 0 0 1
    outer loop
      vertex 2.15645 -4.23228 3.4
      vertex 0.509877 -1.56924 3.4
      vertex 1.46783 -4.51752 3.4
    endloop
  endfacet
  facet normal 0 0 1
    outer loop
      vertex 1.46783 -4.51752 3.4
      vertex 0.509877 -1.56924 3.4
      vertex 0.743063 -4.69152 3.4
    endloop
  endfacet
  facet normal -0 0 1
    outer loop
      vertex 0 -1.65 3.4
      vertex 0.743063 -4.69152 3.4
      vertex 0.509877 -1.56924 3.4
    endloop
  endfacet
  facet normal 0 0 1
    outer loop
      vertex 0 -1.65 3.4
      vertex 0 -4.75 3.4
      vertex 0.743063 -4.69152 3.4
    endloop
  endfacet
  facet normal 0 0 1
    outer loop
      vertex -0.743063 -4.69152 3.4
      vertex 0 -1.65 3.4
      vertex -0.509877 -1.56924 3.4
    endloop
  endfacet
  facet normal 0 0 1
    outer loop
      vertex 0 -1.65 3.4
      vertex -0.743063 -4.69152 3.4
      vertex 0 -4.75 3.4
    endloop
  endfacet
  facet normal 0 0 1
    outer loop
      vertex -2.15645 -4.23228 3.4
      vertex -0.509877 -1.56924 3.4
      vertex -0.969845 -1.33488 3.4
    endloop
  endfacet
  facet normal 0 0 1
    outer loop
      vertex -3.35876 -3.35876 3.4
      vertex -0.969845 -1.33488 3.4
      vertex -1.33488 -0.969845 3.4
    endloop
  endfacet
  facet normal 0 0 1
    outer loop
      vertex -0.509877 -1.56924 3.4
      vertex -1.46783 -4.51752 3.4
      vertex -0.743063 -4.69152 3.4
    endloop
  endfacet
  facet normal 0 0 1
    outer loop
      vertex -4.23228 -2.15645 3.4
      vertex -1.33488 -0.969845 3.4
      vertex -1.56924 -0.509877 3.4
    endloop
  endfacet
  facet normal 0 0 1
    outer loop
      vertex -4.69152 -0.743063 3.4
      vertex -1.56924 -0.509877 3.4
      vertex -1.65 0 3.4
    endloop
  endfacet
  facet normal -0 0 1
    outer loop
      vertex -3.84283 2.79198 3.4
      vertex -1.33488 0.969845 3.4
      vertex -3.35876 3.35876 3.4
    endloop
  endfacet
  facet normal 0 0 1
    outer loop
      vertex -0.509877 -1.56924 3.4
      vertex -2.15645 -4.23228 3.4
      vertex -1.46783 -4.51752 3.4
    endloop
  endfacet
  facet normal -0 0 1
    outer loop
      vertex -4.23228 2.15645 3.4
      vertex -1.33488 0.969845 3.4
      vertex -3.84283 2.79198 3.4
    endloop
  endfacet
  facet normal 0 0 1
    outer loop
      vertex -0.969845 -1.33488 3.4
      vertex -2.79198 -3.84283 3.4
      vertex -2.15645 -4.23228 3.4
    endloop
  endfacet
  facet normal 0 0 1
    outer loop
      vertex -1.33488 0.969845 3.4
      vertex -4.23228 2.15645 3.4
      vertex -1.56924 0.509877 3.4
    endloop
  endfacet
  facet normal 0 0 1
    outer loop
      vertex -0.969845 -1.33488 3.4
      vertex -3.35876 -3.35876 3.4
      vertex -2.79198 -3.84283 3.4
    endloop
  endfacet
  facet normal -0 0 1
    outer loop
      vertex -4.51752 1.46783 3.4
      vertex -1.56924 0.509877 3.4
      vertex -4.23228 2.15645 3.4
    endloop
  endfacet
  facet normal 0 0 1
    outer loop
      vertex -1.33488 -0.969845 3.4
      vertex -3.84283 -2.79198 3.4
      vertex -3.35876 -3.35876 3.4
    endloop
  endfacet
  facet normal -0 0 1
    outer loop
      vertex -4.69152 0.743063 3.4
      vertex -1.56924 0.509877 3.4
      vertex -4.51752 1.46783 3.4
    endloop
  endfacet
  facet normal 0 0 1
    outer loop
      vertex -1.33488 -0.969845 3.4
      vertex -4.23228 -2.15645 3.4
      vertex -3.84283 -2.79198 3.4
    endloop
  endfacet
  facet normal 0 0 1
    outer loop
      vertex -1.56924 0.509877 3.4
      vertex -4.69152 0.743063 3.4
      vertex -1.65 0 3.4
    endloop
  endfacet
  facet normal 0 0 1
    outer loop
      vertex -1.56924 -0.509877 3.4
      vertex -4.51752 -1.46783 3.4
      vertex -4.23228 -2.15645 3.4
    endloop
  endfacet
  facet normal 0 0 1
    outer loop
      vertex -4.75 0 3.4
      vertex -1.65 0 3.4
      vertex -4.69152 0.743063 3.4
    endloop
  endfacet
  facet normal 0 0 1
    outer loop
      vertex -1.56924 -0.509877 3.4
      vertex -4.69152 -0.743063 3.4
      vertex -4.51752 -1.46783 3.4
    endloop
  endfacet
  facet normal 0 0 1
    outer loop
      vertex -1.65 0 3.4
      vertex -4.75 0 3.4
      vertex -4.69152 -0.743063 3.4
    endloop
  endfacet
  facet normal -0.0784587 0.996917 0
    outer loop
      vertex 0 4.75 0
      vertex -0.743063 4.69152 3.4
      vertex 0 4.75 3.4
    endloop
  endfacet
  facet normal -0.0784587 0.996917 0
    outer loop
      vertex -0.743063 4.69152 3.4
      vertex 0 4.75 0
      vertex -0.743063 4.69152 0
    endloop
  endfacet
  facet normal 0.522495 -0.852642 0
    outer loop
      vertex 2.15645 -4.23228 0
      vertex 2.79198 -3.84283 3.4
      vertex 2.15645 -4.23228 3.4
    endloop
  endfacet
  facet normal 0.522495 -0.852642 0
    outer loop
      vertex 2.79198 -3.84283 3.4
      vertex 2.15645 -4.23228 0
      vertex 2.79198 -3.84283 0
    endloop
  endfacet
  facet normal -0.382688 -0.923878 0
    outer loop
      vertex -2.15645 -4.23228 0
      vertex -1.46783 -4.51752 3.4
      vertex -2.15645 -4.23228 3.4
    endloop
  endfacet
  facet normal -0.382688 -0.923878 -0
    outer loop
      vertex -1.46783 -4.51752 3.4
      vertex -2.15645 -4.23228 0
      vertex -1.46783 -4.51752 0
    endloop
  endfacet
  facet normal -0.649444 -0.76041 0
    outer loop
      vertex -3.35876 -3.35876 0
      vertex -2.79198 -3.84283 3.4
      vertex -3.35876 -3.35876 3.4
    endloop
  endfacet
  facet normal -0.649444 -0.76041 -0
    outer loop
      vertex -2.79198 -3.84283 3.4
      vertex -3.35876 -3.35876 0
      vertex -2.79198 -3.84283 0
    endloop
  endfacet
  facet normal -0.233444 -0.97237 0
    outer loop
      vertex -1.46783 -4.51752 0
      vertex -0.743063 -4.69152 3.4
      vertex -1.46783 -4.51752 3.4
    endloop
  endfacet
  facet normal -0.233444 -0.97237 -0
    outer loop
      vertex -0.743063 -4.69152 3.4
      vertex -1.46783 -4.51752 0
      vertex -0.743063 -4.69152 0
    endloop
  endfacet
  facet normal -0.996917 -0.0784587 0
    outer loop
      vertex -4.69152 -0.743063 0
      vertex -4.75 0 3.4
      vertex -4.75 0 0
    endloop
  endfacet
  facet normal -0.996917 -0.0784587 0
    outer loop
      vertex -4.75 0 3.4
      vertex -4.69152 -0.743063 0
      vertex -4.69152 -0.743063 3.4
    endloop
  endfacet
  facet normal 0.522495 0.852642 -0
    outer loop
      vertex 2.79198 3.84283 0
      vertex 2.15645 4.23228 3.4
      vertex 2.79198 3.84283 3.4
    endloop
  endfacet
  facet normal 0.522495 0.852642 0
    outer loop
      vertex 2.15645 4.23228 3.4
      vertex 2.79198 3.84283 0
      vertex 2.15645 4.23228 0
    endloop
  endfacet
  facet normal -0.852642 0.522495 0
    outer loop
      vertex -4.23228 2.15645 0
      vertex -3.84283 2.79198 3.4
      vertex -3.84283 2.79198 0
    endloop
  endfacet
  facet normal -0.852642 0.522495 0
    outer loop
      vertex -3.84283 2.79198 3.4
      vertex -4.23228 2.15645 0
      vertex -4.23228 2.15645 3.4
    endloop
  endfacet
  facet normal -0.382688 0.923878 0
    outer loop
      vertex -1.46783 4.51752 0
      vertex -2.15645 4.23228 3.4
      vertex -1.46783 4.51752 3.4
    endloop
  endfacet
  facet normal -0.382688 0.923878 0
    outer loop
      vertex -2.15645 4.23228 3.4
      vertex -1.46783 4.51752 0
      vertex -2.15645 4.23228 0
    endloop
  endfacet
  facet normal -0.522495 0.852642 0
    outer loop
      vertex -2.15645 4.23228 0
      vertex -2.79198 3.84283 3.4
      vertex -2.15645 4.23228 3.4
    endloop
  endfacet
  facet normal -0.522495 0.852642 0
    outer loop
      vertex -2.79198 3.84283 3.4
      vertex -2.15645 4.23228 0
      vertex -2.79198 3.84283 0
    endloop
  endfacet
  facet normal 0.996917 -0.0784587 0
    outer loop
      vertex 4.69152 -0.743063 3.4
      vertex 4.75 0 0
      vertex 4.75 0 3.4
    endloop
  endfacet
  facet normal 0.996917 -0.0784587 0
    outer loop
      vertex 4.75 0 0
      vertex 4.69152 -0.743063 3.4
      vertex 4.69152 -0.743063 0
    endloop
  endfacet
  facet normal 0.0784587 -0.996917 0
    outer loop
      vertex 0 -4.75 0
      vertex 0.743063 -4.69152 3.4
      vertex 0 -4.75 3.4
    endloop
  endfacet
  facet normal 0.0784587 -0.996917 0
    outer loop
      vertex 0.743063 -4.69152 3.4
      vertex 0 -4.75 0
      vertex 0.743063 -4.69152 0
    endloop
  endfacet
  facet normal 0.382688 -0.923878 0
    outer loop
      vertex 1.46783 -4.51752 0
      vertex 2.15645 -4.23228 3.4
      vertex 1.46783 -4.51752 3.4
    endloop
  endfacet
  facet normal 0.382688 -0.923878 0
    outer loop
      vertex 2.15645 -4.23228 3.4
      vertex 1.46783 -4.51752 0
      vertex 2.15645 -4.23228 0
    endloop
  endfacet
  facet normal 0.649444 -0.76041 0
    outer loop
      vertex 2.79198 -3.84283 0
      vertex 3.35876 -3.35876 3.4
      vertex 2.79198 -3.84283 3.4
    endloop
  endfacet
  facet normal 0.649444 -0.76041 0
    outer loop
      vertex 3.35876 -3.35876 3.4
      vertex 2.79198 -3.84283 0
      vertex 3.35876 -3.35876 0
    endloop
  endfacet
  facet normal 0.923878 -0.382688 0
    outer loop
      vertex 4.23228 -2.15645 3.4
      vertex 4.51752 -1.46783 0
      vertex 4.51752 -1.46783 3.4
    endloop
  endfacet
  facet normal 0.923878 -0.382688 0
    outer loop
      vertex 4.51752 -1.46783 0
      vertex 4.23228 -2.15645 3.4
      vertex 4.23228 -2.15645 0
    endloop
  endfacet
  facet normal 0.97237 -0.233444 0
    outer loop
      vertex 4.51752 -1.46783 3.4
      vertex 4.69152 -0.743063 0
      vertex 4.69152 -0.743063 3.4
    endloop
  endfacet
  facet normal 0.97237 -0.233444 0
    outer loop
      vertex 4.69152 -0.743063 0
      vertex 4.51752 -1.46783 3.4
      vertex 4.51752 -1.46783 0
    endloop
  endfacet
  facet normal -0.522495 -0.852642 0
    outer loop
      vertex -2.79198 -3.84283 0
      vertex -2.15645 -4.23228 3.4
      vertex -2.79198 -3.84283 3.4
    endloop
  endfacet
  facet normal -0.522495 -0.852642 -0
    outer loop
      vertex -2.15645 -4.23228 3.4
      vertex -2.79198 -3.84283 0
      vertex -2.15645 -4.23228 0
    endloop
  endfacet
  facet normal -0.0784587 -0.996917 0
    outer loop
      vertex -0.743063 -4.69152 0
      vertex 0 -4.75 3.4
      vertex -0.743063 -4.69152 3.4
    endloop
  endfacet
  facet normal -0.0784587 -0.996917 -0
    outer loop
      vertex 0 -4.75 3.4
      vertex -0.743063 -4.69152 0
      vertex 0 -4.75 0
    endloop
  endfacet
  facet normal -0.923878 -0.382688 0
    outer loop
      vertex -4.23228 -2.15645 0
      vertex -4.51752 -1.46783 3.4
      vertex -4.51752 -1.46783 0
    endloop
  endfacet
  facet normal -0.923878 -0.382688 0
    outer loop
      vertex -4.51752 -1.46783 3.4
      vertex -4.23228 -2.15645 0
      vertex -4.23228 -2.15645 3.4
    endloop
  endfacet
  facet normal -0.97237 -0.233444 0
    outer loop
      vertex -4.51752 -1.46783 0
      vertex -4.69152 -0.743063 3.4
      vertex -4.69152 -0.743063 0
    endloop
  endfacet
  facet normal -0.97237 -0.233444 0
    outer loop
      vertex -4.69152 -0.743063 3.4
      vertex -4.51752 -1.46783 0
      vertex -4.51752 -1.46783 3.4
    endloop
  endfacet
  facet normal 0.233444 -0.97237 0
    outer loop
      vertex 0.743063 -4.69152 0
      vertex 1.46783 -4.51752 3.4
      vertex 0.743063 -4.69152 3.4
    endloop
  endfacet
  facet normal 0.233444 -0.97237 0
    outer loop
      vertex 1.46783 -4.51752 3.4
      vertex 0.743063 -4.69152 0
      vertex 1.46783 -4.51752 0
    endloop
  endfacet
  facet normal 0.76041 -0.649444 0
    outer loop
      vertex 3.35876 -3.35876 3.4
      vertex 3.84283 -2.79198 0
      vertex 3.84283 -2.79198 3.4
    endloop
  endfacet
  facet normal 0.76041 -0.649444 0
    outer loop
      vertex 3.84283 -2.79198 0
      vertex 3.35876 -3.35876 3.4
      vertex 3.35876 -3.35876 0
    endloop
  endfacet
  facet normal -0.852642 -0.522495 0
    outer loop
      vertex -3.84283 -2.79198 0
      vertex -4.23228 -2.15645 3.4
      vertex -4.23228 -2.15645 0
    endloop
  endfacet
  facet normal -0.852642 -0.522495 0
    outer loop
      vertex -4.23228 -2.15645 3.4
      vertex -3.84283 -2.79198 0
      vertex -3.84283 -2.79198 3.4
    endloop
  endfacet
  facet normal -0.987687 -0.156441 0
    outer loop
      vertex 1.65 0 0
      vertex 1.56924 0.509877 3.4
      vertex 1.56924 0.509877 0
    endloop
  endfacet
  facet normal -0.987687 -0.156441 0
    outer loop
      vertex 1.56924 0.509877 3.4
      vertex 1.65 0 0
      vertex 1.65 0 3.4
    endloop
  endfacet
  facet normal 0.987687 -0.156441 0
    outer loop
      vertex -1.65 0 3.4
      vertex -1.56924 0.509877 0
      vertex -1.56924 0.509877 3.4
    endloop
  endfacet
  facet normal 0.987687 -0.156441 0
    outer loop
      vertex -1.56924 0.509877 0
      vertex -1.65 0 3.4
      vertex -1.65 0 0
    endloop
  endfacet
  facet normal -0.156441 -0.987687 0
    outer loop
      vertex 0 1.65 0
      vertex 0.509877 1.56924 3.4
      vertex 0 1.65 3.4
    endloop
  endfacet
  facet normal -0.156441 -0.987687 -0
    outer loop
      vertex 0.509877 1.56924 3.4
      vertex 0 1.65 0
      vertex 0.509877 1.56924 0
    endloop
  endfacet
  facet normal 0.156441 0.987687 -0
    outer loop
      vertex 0 -1.65 0
      vertex -0.509877 -1.56924 3.4
      vertex 0 -1.65 3.4
    endloop
  endfacet
  facet normal 0.156441 0.987687 0
    outer loop
      vertex -0.509877 -1.56924 3.4
      vertex 0 -1.65 0
      vertex -0.509877 -1.56924 0
    endloop
  endfacet
  facet normal -0.707107 -0.707107 0
    outer loop
      vertex 1.33488 0.969845 0
      vertex 0.969845 1.33488 3.4
      vertex 0.969845 1.33488 0
    endloop
  endfacet
  facet normal -0.707107 -0.707107 0
    outer loop
      vertex 0.969845 1.33488 3.4
      vertex 1.33488 0.969845 0
      vertex 1.33488 0.969845 3.4
    endloop
  endfacet
  facet normal -0.891011 -0.453982 0
    outer loop
      vertex 1.56924 0.509877 0
      vertex 1.33488 0.969845 3.4
      vertex 1.33488 0.969845 0
    endloop
  endfacet
  facet normal -0.891011 -0.453982 0
    outer loop
      vertex 1.33488 0.969845 3.4
      vertex 1.56924 0.509877 0
      vertex 1.56924 0.509877 3.4
    endloop
  endfacet
  facet normal -0.453982 -0.891011 0
    outer loop
      vertex 0.509877 1.56924 0
      vertex 0.969845 1.33488 3.4
      vertex 0.509877 1.56924 3.4
    endloop
  endfacet
  facet normal -0.453982 -0.891011 -0
    outer loop
      vertex 0.969845 1.33488 3.4
      vertex 0.509877 1.56924 0
      vertex 0.969845 1.33488 0
    endloop
  endfacet
  facet normal 0.453982 -0.891011 0
    outer loop
      vertex -0.969845 1.33488 0
      vertex -0.509877 1.56924 3.4
      vertex -0.969845 1.33488 3.4
    endloop
  endfacet
  facet normal 0.453982 -0.891011 0
    outer loop
      vertex -0.509877 1.56924 3.4
      vertex -0.969845 1.33488 0
      vertex -0.509877 1.56924 0
    endloop
  endfacet
  facet normal 0.707107 -0.707107 0
    outer loop
      vertex -1.33488 0.969845 3.4
      vertex -0.969845 1.33488 0
      vertex -0.969845 1.33488 3.4
    endloop
  endfacet
  facet normal 0.707107 -0.707107 0
    outer loop
      vertex -0.969845 1.33488 0
      vertex -1.33488 0.969845 3.4
      vertex -1.33488 0.969845 0
    endloop
  endfacet
  facet normal 0.156441 -0.987687 0
    outer loop
      vertex -0.509877 1.56924 0
      vertex 0 1.65 3.4
      vertex -0.509877 1.56924 3.4
    endloop
  endfacet
  facet normal 0.156441 -0.987687 0
    outer loop
      vertex 0 1.65 3.4
      vertex -0.509877 1.56924 0
      vertex 0 1.65 0
    endloop
  endfacet
  facet normal -0.891011 0.453982 0
    outer loop
      vertex 1.33488 -0.969845 0
      vertex 1.56924 -0.509877 3.4
      vertex 1.56924 -0.509877 0
    endloop
  endfacet
  facet normal -0.891011 0.453982 0
    outer loop
      vertex 1.56924 -0.509877 3.4
      vertex 1.33488 -0.969845 0
      vertex 1.33488 -0.969845 3.4
    endloop
  endfacet
  facet normal 0.707107 0.707107 0
    outer loop
      vertex -0.969845 -1.33488 3.4
      vertex -1.33488 -0.969845 0
      vertex -1.33488 -0.969845 3.4
    endloop
  endfacet
  facet normal 0.707107 0.707107 0
    outer loop
      vertex -1.33488 -0.969845 0
      vertex -0.969845 -1.33488 3.4
      vertex -0.969845 -1.33488 0
    endloop
  endfacet
  facet normal 0.987687 0.156441 0
    outer loop
      vertex -1.56924 -0.509877 3.4
      vertex -1.65 0 0
      vertex -1.65 0 3.4
    endloop
  endfacet
  facet normal 0.987687 0.156441 0
    outer loop
      vertex -1.65 0 0
      vertex -1.56924 -0.509877 3.4
      vertex -1.56924 -0.509877 0
    endloop
  endfacet
  facet normal 0.891011 -0.453982 0
    outer loop
      vertex -1.56924 0.509877 3.4
      vertex -1.33488 0.969845 0
      vertex -1.33488 0.969845 3.4
    endloop
  endfacet
  facet normal 0.891011 -0.453982 0
    outer loop
      vertex -1.33488 0.969845 0
      vertex -1.56924 0.509877 3.4
      vertex -1.56924 0.509877 0
    endloop
  endfacet
  facet normal -0.156441 0.987687 0
    outer loop
      vertex 0.509877 -1.56924 0
      vertex 0 -1.65 3.4
      vertex 0.509877 -1.56924 3.4
    endloop
  endfacet
  facet normal -0.156441 0.987687 0
    outer loop
      vertex 0 -1.65 3.4
      vertex 0.509877 -1.56924 0
      vertex 0 -1.65 0
    endloop
  endfacet
  facet normal -0.707107 0.707107 0
    outer loop
      vertex 0.969845 -1.33488 0
      vertex 1.33488 -0.969845 3.4
      vertex 1.33488 -0.969845 0
    endloop
  endfacet
  facet normal -0.707107 0.707107 0
    outer loop
      vertex 1.33488 -0.969845 3.4
      vertex 0.969845 -1.33488 0
      vertex 0.969845 -1.33488 3.4
    endloop
  endfacet
  facet normal 0.453982 0.891011 -0
    outer loop
      vertex -0.509877 -1.56924 0
      vertex -0.969845 -1.33488 3.4
      vertex -0.509877 -1.56924 3.4
    endloop
  endfacet
  facet normal 0.453982 0.891011 0
    outer loop
      vertex -0.969845 -1.33488 3.4
      vertex -0.509877 -1.56924 0
      vertex -0.969845 -1.33488 0
    endloop
  endfacet
  facet normal 0.891011 0.453982 0
    outer loop
      vertex -1.33488 -0.969845 3.4
      vertex -1.56924 -0.509877 0
      vertex -1.56924 -0.509877 3.4
    endloop
  endfacet
  facet normal 0.891011 0.453982 0
    outer loop
      vertex -1.56924 -0.509877 0
      vertex -1.33488 -0.969845 3.4
      vertex -1.33488 -0.969845 0
    endloop
  endfacet
  facet normal -0.987687 0.156441 0
    outer loop
      vertex 1.56924 -0.509877 0
      vertex 1.65 0 3.4
      vertex 1.65 0 0
    endloop
  endfacet
  facet normal -0.987687 0.156441 0
    outer loop
      vertex 1.65 0 3.4
      vertex 1.56924 -0.509877 0
      vertex 1.56924 -0.509877 3.4
    endloop
  endfacet
  facet normal -0.453982 0.891011 0
    outer loop
      vertex 0.969845 -1.33488 0
      vertex 0.509877 -1.56924 3.4
      vertex 0.969845 -1.33488 3.4
    endloop
  endfacet
  facet normal -0.453982 0.891011 0
    outer loop
      vertex 0.509877 -1.56924 3.4
      vertex 0.969845 -1.33488 0
      vertex 0.509877 -1.56924 0
    endloop
  endfacet
endsolid OpenSCAD_Model
