solid OpenSCAD_Model
  facet normal 0.852628 0.522518 0
    outer loop
      vertex 2.27207 1.15768 7
      vertex 2.06299 1.49885 0
      vertex 2.06299 1.49885 7
    endloop
  endfacet
  facet normal 0.852628 0.522518 0
    outer loop
      vertex 2.06299 1.49885 0
      vertex 2.27207 1.15768 7
      vertex 2.27207 1.15768 0
    endloop
  endfacet
  facet normal -0.972365 0.233467 0
    outer loop
      vertex -2.51861 0.398908 0
      vertex -2.42519 0.787992 7
      vertex -2.42519 0.787992 0
    endloop
  endfacet
  facet normal -0.972365 0.233467 0
    outer loop
      vertex -2.42519 0.787992 7
      vertex -2.51861 0.398908 0
      vertex -2.51861 0.398908 7
    endloop
  endfacet
  facet normal 0.760407 0.649446 0
    outer loop
      vertex 2.06299 1.49885 7
      vertex 1.80312 1.80312 0
      vertex 1.80312 1.80312 7
    endloop
  endfacet
  facet normal 0.760407 0.649446 0
    outer loop
      vertex 1.80312 1.80312 0
      vertex 2.06299 1.49885 7
      vertex 2.06299 1.49885 0
    endloop
  endfacet
  facet normal 0.233467 0.972365 -0
    outer loop
      vertex 0.787992 2.42519 0
      vertex 0.398908 2.51861 7
      vertex 0.787992 2.42519 7
    endloop
  endfacet
  facet normal 0.233467 0.972365 0
    outer loop
      vertex 0.398908 2.51861 7
      vertex 0.787992 2.42519 0
      vertex 0.398908 2.51861 0
    endloop
  endfacet
  facet normal -0.522518 0.852628 0
    outer loop
      vertex -1.15768 2.27207 0
      vertex -1.49885 2.06299 7
      vertex -1.15768 2.27207 7
    endloop
  endfacet
  facet normal -0.522518 0.852628 0
    outer loop
      vertex -1.49885 2.06299 7
      vertex -1.15768 2.27207 0
      vertex -1.49885 2.06299 0
    endloop
  endfacet
  facet normal -0.923888 0.382663 0
    outer loop
      vertex -2.42519 0.787992 0
      vertex -2.27207 1.15768 7
      vertex -2.27207 1.15768 0
    endloop
  endfacet
  facet normal -0.923888 0.382663 0
    outer loop
      vertex -2.27207 1.15768 7
      vertex -2.42519 0.787992 0
      vertex -2.42519 0.787992 7
    endloop
  endfacet
  facet normal 0.996918 -0.0784473 0
    outer loop
      vertex 2.51861 -0.398908 7
      vertex 2.55 0 0
      vertex 2.55 0 7
    endloop
  endfacet
  facet normal 0.996918 -0.0784473 0
    outer loop
      vertex 2.55 0 0
      vertex 2.51861 -0.398908 7
      vertex 2.51861 -0.398908 0
    endloop
  endfacet
  facet normal 0.649446 0.760407 -0
    outer loop
      vertex 1.80312 1.80312 0
      vertex 1.49885 2.06299 7
      vertex 1.80312 1.80312 7
    endloop
  endfacet
  facet normal 0.649446 0.760407 0
    outer loop
      vertex 1.49885 2.06299 7
      vertex 1.80312 1.80312 0
      vertex 1.49885 2.06299 0
    endloop
  endfacet
  facet normal -0.0784473 0.996918 0
    outer loop
      vertex 0 2.55 0
      vertex -0.398908 2.51861 7
      vertex 0 2.55 7
    endloop
  endfacet
  facet normal -0.0784473 0.996918 0
    outer loop
      vertex -0.398908 2.51861 7
      vertex 0 2.55 0
      vertex -0.398908 2.51861 0
    endloop
  endfacet
  facet normal 0.522518 0.852628 -0
    outer loop
      vertex 1.49885 2.06299 0
      vertex 1.15768 2.27207 7
      vertex 1.49885 2.06299 7
    endloop
  endfacet
  facet normal 0.522518 0.852628 0
    outer loop
      vertex 1.15768 2.27207 7
      vertex 1.49885 2.06299 0
      vertex 1.15768 2.27207 0
    endloop
  endfacet
  facet normal -0.996918 0.0784473 0
    outer loop
      vertex -2.55 0 0
      vertex -2.51861 0.398908 7
      vertex -2.51861 0.398908 0
    endloop
  endfacet
  facet normal -0.996918 0.0784473 0
    outer loop
      vertex -2.51861 0.398908 7
      vertex -2.55 0 0
      vertex -2.55 0 7
    endloop
  endfacet
  facet normal -0.852628 0.522518 0
    outer loop
      vertex -2.27207 1.15768 0
      vertex -2.06299 1.49885 7
      vertex -2.06299 1.49885 0
    endloop
  endfacet
  facet normal -0.852628 0.522518 0
    outer loop
      vertex -2.06299 1.49885 7
      vertex -2.27207 1.15768 0
      vertex -2.27207 1.15768 7
    endloop
  endfacet
  facet normal -0.649446 0.760407 0
    outer loop
      vertex -1.49885 2.06299 0
      vertex -1.80312 1.80312 7
      vertex -1.49885 2.06299 7
    endloop
  endfacet
  facet normal -0.649446 0.760407 0
    outer loop
      vertex -1.80312 1.80312 7
      vertex -1.49885 2.06299 0
      vertex -1.80312 1.80312 0
    endloop
  endfacet
  facet normal -0.382663 0.923888 0
    outer loop
      vertex -0.787992 2.42519 0
      vertex -1.15768 2.27207 7
      vertex -0.787992 2.42519 7
    endloop
  endfacet
  facet normal -0.382663 0.923888 0
    outer loop
      vertex -1.15768 2.27207 7
      vertex -0.787992 2.42519 0
      vertex -1.15768 2.27207 0
    endloop
  endfacet
  facet normal -0.760407 0.649446 0
    outer loop
      vertex -2.06299 1.49885 0
      vertex -1.80312 1.80312 7
      vertex -1.80312 1.80312 0
    endloop
  endfacet
  facet normal -0.760407 0.649446 0
    outer loop
      vertex -1.80312 1.80312 7
      vertex -2.06299 1.49885 0
      vertex -2.06299 1.49885 7
    endloop
  endfacet
  facet normal 0.996918 0.0784473 0
    outer loop
      vertex 2.55 0 7
      vertex 2.51861 0.398908 0
      vertex 2.51861 0.398908 7
    endloop
  endfacet
  facet normal 0.996918 0.0784473 0
    outer loop
      vertex 2.51861 0.398908 0
      vertex 2.55 0 7
      vertex 2.55 0 0
    endloop
  endfacet
  facet normal 0.649446 -0.760407 0
    outer loop
      vertex 1.49885 -2.06299 0
      vertex 1.80312 -1.80312 7
      vertex 1.49885 -2.06299 7
    endloop
  endfacet
  facet normal 0.649446 -0.760407 0
    outer loop
      vertex 1.80312 -1.80312 7
      vertex 1.49885 -2.06299 0
      vertex 1.80312 -1.80312 0
    endloop
  endfacet
  facet normal 0.972365 0.233467 0
    outer loop
      vertex 2.51861 0.398908 7
      vertex 2.42519 0.787992 0
      vertex 2.42519 0.787992 7
    endloop
  endfacet
  facet normal 0.972365 0.233467 0
    outer loop
      vertex 2.42519 0.787992 0
      vertex 2.51861 0.398908 7
      vertex 2.51861 0.398908 0
    endloop
  endfacet
  facet normal 0.923888 0.382663 0
    outer loop
      vertex 2.42519 0.787992 7
      vertex 2.27207 1.15768 0
      vertex 2.27207 1.15768 7
    endloop
  endfacet
  facet normal 0.923888 0.382663 0
    outer loop
      vertex 2.27207 1.15768 0
      vertex 2.42519 0.787992 7
      vertex 2.42519 0.787992 0
    endloop
  endfacet
  facet normal 0.0784473 0.996918 -0
    outer loop
      vertex 0.398908 2.51861 0
      vertex 0 2.55 7
      vertex 0.398908 2.51861 7
    endloop
  endfacet
  facet normal 0.0784473 0.996918 0
    outer loop
      vertex 0 2.55 7
      vertex 0.398908 2.51861 0
      vertex 0 2.55 0
    endloop
  endfacet
  facet normal 0.382663 0.923888 -0
    outer loop
      vertex 1.15768 2.27207 0
      vertex 0.787992 2.42519 7
      vertex 1.15768 2.27207 7
    endloop
  endfacet
  facet normal 0.382663 0.923888 0
    outer loop
      vertex 0.787992 2.42519 7
      vertex 1.15768 2.27207 0
      vertex 0.787992 2.42519 0
    endloop
  endfacet
  facet normal 0 0 1
    outer loop
      vertex 1.55 0 7
      vertex 2.55 0 7
      vertex 2.51861 0.398908 7
    endloop
  endfacet
  facet normal 0 0 1
    outer loop
      vertex 1.53092 0.242473 7
      vertex 2.51861 0.398908 7
      vertex 2.42519 0.787992 7
    endloop
  endfacet
  facet normal 0 0 1
    outer loop
      vertex 2.55 0 7
      vertex 1.55 0 7
      vertex 2.51861 -0.398908 7
    endloop
  endfacet
  facet normal 0 0 1
    outer loop
      vertex 1.47414 0.478976 7
      vertex 2.42519 0.787992 7
      vertex 2.27207 1.15768 7
    endloop
  endfacet
  facet normal -0 0 1
    outer loop
      vertex 1.53092 -0.242473 7
      vertex 2.51861 -0.398908 7
      vertex 1.55 0 7
    endloop
  endfacet
  facet normal 0 0 1
    outer loop
      vertex 1.38106 0.703685 7
      vertex 2.27207 1.15768 7
      vertex 2.06299 1.49885 7
    endloop
  endfacet
  facet normal 0 0 1
    outer loop
      vertex 2.51861 -0.398908 7
      vertex 1.53092 -0.242473 7
      vertex 2.42519 -0.787992 7
    endloop
  endfacet
  facet normal 0 0 1
    outer loop
      vertex 1.25398 0.911067 7
      vertex 2.06299 1.49885 7
      vertex 1.80312 1.80312 7
    endloop
  endfacet
  facet normal -0 0 1
    outer loop
      vertex 1.47414 -0.478976 7
      vertex 2.42519 -0.787992 7
      vertex 1.53092 -0.242473 7
    endloop
  endfacet
  facet normal 0 0 1
    outer loop
      vertex 2.42519 -0.787992 7
      vertex 1.47414 -0.478976 7
      vertex 2.27207 -1.15768 7
    endloop
  endfacet
  facet normal 0 0 1
    outer loop
      vertex 2.51861 0.398908 7
      vertex 1.53092 0.242473 7
      vertex 1.55 0 7
    endloop
  endfacet
  facet normal 0 0 1
    outer loop
      vertex 1.09601 1.09601 7
      vertex 1.80312 1.80312 7
      vertex 1.49885 2.06299 7
    endloop
  endfacet
  facet normal 0 0 1
    outer loop
      vertex 2.42519 0.787992 7
      vertex 1.47414 0.478976 7
      vertex 1.53092 0.242473 7
    endloop
  endfacet
  facet normal 0 0 1
    outer loop
      vertex 2.27207 1.15768 7
      vertex 1.38106 0.703685 7
      vertex 1.47414 0.478976 7
    endloop
  endfacet
  facet normal 0 0 1
    outer loop
      vertex 2.06299 1.49885 7
      vertex 1.25398 0.911067 7
      vertex 1.38106 0.703685 7
    endloop
  endfacet
  facet normal 0 0 1
    outer loop
      vertex 0.911067 1.25398 7
      vertex 1.49885 2.06299 7
      vertex 1.15768 2.27207 7
    endloop
  endfacet
  facet normal 0 0 1
    outer loop
      vertex 1.80312 1.80312 7
      vertex 1.09601 1.09601 7
      vertex 1.25398 0.911067 7
    endloop
  endfacet
  facet normal 0 0 1
    outer loop
      vertex 1.49885 2.06299 7
      vertex 0.911067 1.25398 7
      vertex 1.09601 1.09601 7
    endloop
  endfacet
  facet normal 0 0 1
    outer loop
      vertex 0.703685 1.38106 7
      vertex 1.15768 2.27207 7
      vertex 0.787992 2.42519 7
    endloop
  endfacet
  facet normal 0 0 1
    outer loop
      vertex 1.15768 2.27207 7
      vertex 0.703685 1.38106 7
      vertex 0.911067 1.25398 7
    endloop
  endfacet
  facet normal 0 0 1
    outer loop
      vertex 0.787992 2.42519 7
      vertex 0.478976 1.47414 7
      vertex 0.703685 1.38106 7
    endloop
  endfacet
  facet normal 0 0 1
    outer loop
      vertex 0.398908 2.51861 7
      vertex 0.478976 1.47414 7
      vertex 0.787992 2.42519 7
    endloop
  endfacet
  facet normal 0 0 1
    outer loop
      vertex 0.398908 2.51861 7
      vertex 0.242473 1.53092 7
      vertex 0.478976 1.47414 7
    endloop
  endfacet
  facet normal 0 0 1
    outer loop
      vertex 0 2.55 7
      vertex 0.242473 1.53092 7
      vertex 0.398908 2.51861 7
    endloop
  endfacet
  facet normal 0 0 1
    outer loop
      vertex 0 2.55 7
      vertex 0 1.55 7
      vertex 0.242473 1.53092 7
    endloop
  endfacet
  facet normal 0 0 1
    outer loop
      vertex 0 2.55 7
      vertex -0.242473 1.53092 7
      vertex 0 1.55 7
    endloop
  endfacet
  facet normal -0 0 1
    outer loop
      vertex -0.398908 2.51861 7
      vertex -0.242473 1.53092 7
      vertex 0 2.55 7
    endloop
  endfacet
  facet normal 0 0 1
    outer loop
      vertex -0.398908 2.51861 7
      vertex -0.478976 1.47414 7
      vertex -0.242473 1.53092 7
    endloop
  endfacet
  facet normal -0 0 1
    outer loop
      vertex -0.787992 2.42519 7
      vertex -0.478976 1.47414 7
      vertex -0.398908 2.51861 7
    endloop
  endfacet
  facet normal 0 0 1
    outer loop
      vertex -0.478976 1.47414 7
      vertex -0.787992 2.42519 7
      vertex -0.703685 1.38106 7
    endloop
  endfacet
  facet normal -0 0 1
    outer loop
      vertex -1.15768 2.27207 7
      vertex -0.703685 1.38106 7
      vertex -0.787992 2.42519 7
    endloop
  endfacet
  facet normal 0 0 1
    outer loop
      vertex -0.703685 1.38106 7
      vertex -1.15768 2.27207 7
      vertex -0.911067 1.25398 7
    endloop
  endfacet
  facet normal -0 0 1
    outer loop
      vertex -1.49885 2.06299 7
      vertex -0.911067 1.25398 7
      vertex -1.15768 2.27207 7
    endloop
  endfacet
  facet normal 0 0 1
    outer loop
      vertex -0.911067 1.25398 7
      vertex -1.49885 2.06299 7
      vertex -1.09601 1.09601 7
    endloop
  endfacet
  facet normal -0 0 1
    outer loop
      vertex -1.80312 1.80312 7
      vertex -1.09601 1.09601 7
      vertex -1.49885 2.06299 7
    endloop
  endfacet
  facet normal 0 0 1
    outer loop
      vertex -1.09601 1.09601 7
      vertex -1.80312 1.80312 7
      vertex -1.25398 0.911067 7
    endloop
  endfacet
  facet normal -0 0 1
    outer loop
      vertex -2.06299 1.49885 7
      vertex -1.25398 0.911067 7
      vertex -1.80312 1.80312 7
    endloop
  endfacet
  facet normal 0 0 1
    outer loop
      vertex -1.25398 0.911067 7
      vertex -2.06299 1.49885 7
      vertex -1.38106 0.703685 7
    endloop
  endfacet
  facet normal -0 0 1
    outer loop
      vertex -2.27207 1.15768 7
      vertex -1.38106 0.703685 7
      vertex -2.06299 1.49885 7
    endloop
  endfacet
  facet normal 0 0 1
    outer loop
      vertex -1.38106 0.703685 7
      vertex -2.27207 1.15768 7
      vertex -1.47414 0.478976 7
    endloop
  endfacet
  facet normal -0 0 1
    outer loop
      vertex 1.38106 -0.703685 7
      vertex 2.27207 -1.15768 7
      vertex 1.47414 -0.478976 7
    endloop
  endfacet
  facet normal 0 0 1
    outer loop
      vertex 2.27207 -1.15768 7
      vertex 1.38106 -0.703685 7
      vertex 2.06299 -1.49885 7
    endloop
  endfacet
  facet normal -0 0 1
    outer loop
      vertex 1.25398 -0.911067 7
      vertex 2.06299 -1.49885 7
      vertex 1.38106 -0.703685 7
    endloop
  endfacet
  facet normal 0 0 1
    outer loop
      vertex 2.06299 -1.49885 7
      vertex 1.25398 -0.911067 7
      vertex 1.80312 -1.80312 7
    endloop
  endfacet
  facet normal -0 0 1
    outer loop
      vertex 1.09601 -1.09601 7
      vertex 1.80312 -1.80312 7
      vertex 1.25398 -0.911067 7
    endloop
  endfacet
  facet normal 0 0 1
    outer loop
      vertex 1.80312 -1.80312 7
      vertex 1.09601 -1.09601 7
      vertex 1.49885 -2.06299 7
    endloop
  endfacet
  facet normal -0 0 1
    outer loop
      vertex 0.911067 -1.25398 7
      vertex 1.49885 -2.06299 7
      vertex 1.09601 -1.09601 7
    endloop
  endfacet
  facet normal 0 0 1
    outer loop
      vertex 1.49885 -2.06299 7
      vertex 0.911067 -1.25398 7
      vertex 1.15768 -2.27207 7
    endloop
  endfacet
  facet normal -0 0 1
    outer loop
      vertex 0.703685 -1.38106 7
      vertex 1.15768 -2.27207 7
      vertex 0.911067 -1.25398 7
    endloop
  endfacet
  facet normal 0 0 1
    outer loop
      vertex 1.15768 -2.27207 7
      vertex 0.703685 -1.38106 7
      vertex 0.787992 -2.42519 7
    endloop
  endfacet
  facet normal -0 0 1
    outer loop
      vertex 0.478976 -1.47414 7
      vertex 0.787992 -2.42519 7
      vertex 0.703685 -1.38106 7
    endloop
  endfacet
  facet normal 0 0 1
    outer loop
      vertex 0.478976 -1.47414 7
      vertex 0.398908 -2.51861 7
      vertex 0.787992 -2.42519 7
    endloop
  endfacet
  facet normal -0 0 1
    outer loop
      vertex 0.242473 -1.53092 7
      vertex 0.398908 -2.51861 7
      vertex 0.478976 -1.47414 7
    endloop
  endfacet
  facet normal -0 0 1
    outer loop
      vertex 0 -1.55 7
      vertex 0.398908 -2.51861 7
      vertex 0.242473 -1.53092 7
    endloop
  endfacet
  facet normal 0 0 1
    outer loop
      vertex 0 -1.55 7
      vertex 0 -2.55 7
      vertex 0.398908 -2.51861 7
    endloop
  endfacet
  facet normal 0 0 1
    outer loop
      vertex -0.242473 -1.53092 7
      vertex 0 -2.55 7
      vertex 0 -1.55 7
    endloop
  endfacet
  facet normal 0 0 1
    outer loop
      vertex -0.242473 -1.53092 7
      vertex -0.398908 -2.51861 7
      vertex 0 -2.55 7
    endloop
  endfacet
  facet normal 0 0 1
    outer loop
      vertex -0.478976 -1.47414 7
      vertex -0.398908 -2.51861 7
      vertex -0.242473 -1.53092 7
    endloop
  endfacet
  facet normal 0 0 1
    outer loop
      vertex -0.787992 -2.42519 7
      vertex -0.478976 -1.47414 7
      vertex -0.703685 -1.38106 7
    endloop
  endfacet
  facet normal 0 0 1
    outer loop
      vertex -0.478976 -1.47414 7
      vertex -0.787992 -2.42519 7
      vertex -0.398908 -2.51861 7
    endloop
  endfacet
  facet normal 0 0 1
    outer loop
      vertex -1.15768 -2.27207 7
      vertex -0.703685 -1.38106 7
      vertex -0.911067 -1.25398 7
    endloop
  endfacet
  facet normal 0 0 1
    outer loop
      vertex -1.49885 -2.06299 7
      vertex -0.911067 -1.25398 7
      vertex -1.09601 -1.09601 7
    endloop
  endfacet
  facet normal 0 0 1
    outer loop
      vertex -0.703685 -1.38106 7
      vertex -1.15768 -2.27207 7
      vertex -0.787992 -2.42519 7
    endloop
  endfacet
  facet normal 0 0 1
    outer loop
      vertex -1.80312 -1.80312 7
      vertex -1.09601 -1.09601 7
      vertex -1.25398 -0.911067 7
    endloop
  endfacet
  facet normal 0 0 1
    outer loop
      vertex -2.06299 -1.49885 7
      vertex -1.25398 -0.911067 7
      vertex -1.38106 -0.703685 7
    endloop
  endfacet
  facet normal 0 0 1
    outer loop
      vertex -2.27207 -1.15768 7
      vertex -1.38106 -0.703685 7
      vertex -1.47414 -0.478976 7
    endloop
  endfacet
  facet normal 0 0 1
    outer loop
      vertex -0.911067 -1.25398 7
      vertex -1.49885 -2.06299 7
      vertex -1.15768 -2.27207 7
    endloop
  endfacet
  facet normal 0 0 1
    outer loop
      vertex -2.42519 -0.787992 7
      vertex -1.47414 -0.478976 7
      vertex -1.53092 -0.242473 7
    endloop
  endfacet
  facet normal 0 0 1
    outer loop
      vertex -2.51861 -0.398908 7
      vertex -1.53092 -0.242473 7
      vertex -1.55 0 7
    endloop
  endfacet
  facet normal -0 0 1
    outer loop
      vertex -2.42519 0.787992 7
      vertex -1.47414 0.478976 7
      vertex -2.27207 1.15768 7
    endloop
  endfacet
  facet normal 0 0 1
    outer loop
      vertex -1.09601 -1.09601 7
      vertex -1.80312 -1.80312 7
      vertex -1.49885 -2.06299 7
    endloop
  endfacet
  facet normal 0 0 1
    outer loop
      vertex -1.47414 0.478976 7
      vertex -2.42519 0.787992 7
      vertex -1.53092 0.242473 7
    endloop
  endfacet
  facet normal 0 0 1
    outer loop
      vertex -1.25398 -0.911067 7
      vertex -2.06299 -1.49885 7
      vertex -1.80312 -1.80312 7
    endloop
  endfacet
  facet normal -0 0 1
    outer loop
      vertex -2.51861 0.398908 7
      vertex -1.53092 0.242473 7
      vertex -2.42519 0.787992 7
    endloop
  endfacet
  facet normal 0 0 1
    outer loop
      vertex -1.38106 -0.703685 7
      vertex -2.27207 -1.15768 7
      vertex -2.06299 -1.49885 7
    endloop
  endfacet
  facet normal 0 0 1
    outer loop
      vertex -1.53092 0.242473 7
      vertex -2.51861 0.398908 7
      vertex -1.55 0 7
    endloop
  endfacet
  facet normal 0 0 1
    outer loop
      vertex -1.47414 -0.478976 7
      vertex -2.42519 -0.787992 7
      vertex -2.27207 -1.15768 7
    endloop
  endfacet
  facet normal 0 0 1
    outer loop
      vertex -2.55 0 7
      vertex -1.55 0 7
      vertex -2.51861 0.398908 7
    endloop
  endfacet
  facet normal 0 0 1
    outer loop
      vertex -1.53092 -0.242473 7
      vertex -2.51861 -0.398908 7
      vertex -2.42519 -0.787992 7
    endloop
  endfacet
  facet normal 0 0 1
    outer loop
      vertex -1.55 0 7
      vertex -2.55 0 7
      vertex -2.51861 -0.398908 7
    endloop
  endfacet
  facet normal -0.233467 0.972365 0
    outer loop
      vertex -0.398908 2.51861 0
      vertex -0.787992 2.42519 7
      vertex -0.398908 2.51861 7
    endloop
  endfacet
  facet normal -0.233467 0.972365 0
    outer loop
      vertex -0.787992 2.42519 7
      vertex -0.398908 2.51861 0
      vertex -0.787992 2.42519 0
    endloop
  endfacet
  facet normal 0.852628 -0.522518 0
    outer loop
      vertex 2.06299 -1.49885 7
      vertex 2.27207 -1.15768 0
      vertex 2.27207 -1.15768 7
    endloop
  endfacet
  facet normal 0.852628 -0.522518 0
    outer loop
      vertex 2.27207 -1.15768 0
      vertex 2.06299 -1.49885 7
      vertex 2.06299 -1.49885 0
    endloop
  endfacet
  facet normal -0.996918 -0.0784473 0
    outer loop
      vertex -2.51861 -0.398908 0
      vertex -2.55 0 7
      vertex -2.55 0 0
    endloop
  endfacet
  facet normal -0.996918 -0.0784473 0
    outer loop
      vertex -2.55 0 7
      vertex -2.51861 -0.398908 0
      vertex -2.51861 -0.398908 7
    endloop
  endfacet
  facet normal -0.852628 -0.522518 0
    outer loop
      vertex -2.06299 -1.49885 0
      vertex -2.27207 -1.15768 7
      vertex -2.27207 -1.15768 0
    endloop
  endfacet
  facet normal -0.852628 -0.522518 0
    outer loop
      vertex -2.27207 -1.15768 7
      vertex -2.06299 -1.49885 0
      vertex -2.06299 -1.49885 7
    endloop
  endfacet
  facet normal 0.233467 -0.972365 0
    outer loop
      vertex 0.398908 -2.51861 0
      vertex 0.787992 -2.42519 7
      vertex 0.398908 -2.51861 7
    endloop
  endfacet
  facet normal 0.233467 -0.972365 0
    outer loop
      vertex 0.787992 -2.42519 7
      vertex 0.398908 -2.51861 0
      vertex 0.787992 -2.42519 0
    endloop
  endfacet
  facet normal 0.923888 -0.382663 0
    outer loop
      vertex 2.27207 -1.15768 7
      vertex 2.42519 -0.787992 0
      vertex 2.42519 -0.787992 7
    endloop
  endfacet
  facet normal 0.923888 -0.382663 0
    outer loop
      vertex 2.42519 -0.787992 0
      vertex 2.27207 -1.15768 7
      vertex 2.27207 -1.15768 0
    endloop
  endfacet
  facet normal 0.972365 -0.233467 0
    outer loop
      vertex 2.42519 -0.787992 7
      vertex 2.51861 -0.398908 0
      vertex 2.51861 -0.398908 7
    endloop
  endfacet
  facet normal 0.972365 -0.233467 0
    outer loop
      vertex 2.51861 -0.398908 0
      vertex 2.42519 -0.787992 7
      vertex 2.42519 -0.787992 0
    endloop
  endfacet
  facet normal -0.0784473 -0.996918 0
    outer loop
      vertex -0.398908 -2.51861 0
      vertex 0 -2.55 7
      vertex -0.398908 -2.51861 7
    endloop
  endfacet
  facet normal -0.0784473 -0.996918 -0
    outer loop
      vertex 0 -2.55 7
      vertex -0.398908 -2.51861 0
      vertex 0 -2.55 0
    endloop
  endfacet
  facet normal 0.0784473 -0.996918 0
    outer loop
      vertex 0 -2.55 0
      vertex 0.398908 -2.51861 7
      vertex 0 -2.55 7
    endloop
  endfacet
  facet normal 0.0784473 -0.996918 0
    outer loop
      vertex 0.398908 -2.51861 7
      vertex 0 -2.55 0
      vertex 0.398908 -2.51861 0
    endloop
  endfacet
  facet normal 0 0 -1
    outer loop
      vertex 1.55 0 0
      vertex 2.55 0 0
      vertex 2.51861 -0.398908 0
    endloop
  endfacet
  facet normal 0 0 -1
    outer loop
      vertex 1.53092 -0.242473 0
      vertex 2.51861 -0.398908 0
      vertex 2.42519 -0.787992 0
    endloop
  endfacet
  facet normal 0 0 -1
    outer loop
      vertex 2.55 0 0
      vertex 1.55 0 0
      vertex 2.51861 0.398908 0
    endloop
  endfacet
  facet normal 0 0 -1
    outer loop
      vertex 1.47414 -0.478976 0
      vertex 2.42519 -0.787992 0
      vertex 2.27207 -1.15768 0
    endloop
  endfacet
  facet normal 0 0 -1
    outer loop
      vertex 1.53092 0.242473 0
      vertex 2.51861 0.398908 0
      vertex 1.55 0 0
    endloop
  endfacet
  facet normal 0 0 -1
    outer loop
      vertex 1.38106 -0.703685 0
      vertex 2.27207 -1.15768 0
      vertex 2.06299 -1.49885 0
    endloop
  endfacet
  facet normal -0 0 -1
    outer loop
      vertex 2.51861 0.398908 0
      vertex 1.53092 0.242473 0
      vertex 2.42519 0.787992 0
    endloop
  endfacet
  facet normal 0 0 -1
    outer loop
      vertex 1.25398 -0.911067 0
      vertex 2.06299 -1.49885 0
      vertex 1.80312 -1.80312 0
    endloop
  endfacet
  facet normal 0 0 -1
    outer loop
      vertex 1.47414 0.478976 0
      vertex 2.42519 0.787992 0
      vertex 1.53092 0.242473 0
    endloop
  endfacet
  facet normal -0 0 -1
    outer loop
      vertex 2.42519 0.787992 0
      vertex 1.47414 0.478976 0
      vertex 2.27207 1.15768 0
    endloop
  endfacet
  facet normal 0 0 -1
    outer loop
      vertex 2.51861 -0.398908 0
      vertex 1.53092 -0.242473 0
      vertex 1.55 0 0
    endloop
  endfacet
  facet normal 0 0 -1
    outer loop
      vertex 1.09601 -1.09601 0
      vertex 1.80312 -1.80312 0
      vertex 1.49885 -2.06299 0
    endloop
  endfacet
  facet normal 0 0 -1
    outer loop
      vertex 2.42519 -0.787992 0
      vertex 1.47414 -0.478976 0
      vertex 1.53092 -0.242473 0
    endloop
  endfacet
  facet normal 0 0 -1
    outer loop
      vertex 2.27207 -1.15768 0
      vertex 1.38106 -0.703685 0
      vertex 1.47414 -0.478976 0
    endloop
  endfacet
  facet normal 0 0 -1
    outer loop
      vertex 2.06299 -1.49885 0
      vertex 1.25398 -0.911067 0
      vertex 1.38106 -0.703685 0
    endloop
  endfacet
  facet normal 0 0 -1
    outer loop
      vertex 0.911067 -1.25398 0
      vertex 1.49885 -2.06299 0
      vertex 1.15768 -2.27207 0
    endloop
  endfacet
  facet normal 0 0 -1
    outer loop
      vertex 1.80312 -1.80312 0
      vertex 1.09601 -1.09601 0
      vertex 1.25398 -0.911067 0
    endloop
  endfacet
  facet normal 0 0 -1
    outer loop
      vertex 1.49885 -2.06299 0
      vertex 0.911067 -1.25398 0
      vertex 1.09601 -1.09601 0
    endloop
  endfacet
  facet normal 0 0 -1
    outer loop
      vertex 0.703685 -1.38106 0
      vertex 1.15768 -2.27207 0
      vertex 0.787992 -2.42519 0
    endloop
  endfacet
  facet normal 0 0 -1
    outer loop
      vertex 1.15768 -2.27207 0
      vertex 0.703685 -1.38106 0
      vertex 0.911067 -1.25398 0
    endloop
  endfacet
  facet normal 0 0 -1
    outer loop
      vertex 0.787992 -2.42519 0
      vertex 0.478976 -1.47414 0
      vertex 0.703685 -1.38106 0
    endloop
  endfacet
  facet normal 0 0 -1
    outer loop
      vertex 0.398908 -2.51861 0
      vertex 0.478976 -1.47414 0
      vertex 0.787992 -2.42519 0
    endloop
  endfacet
  facet normal 0 0 -1
    outer loop
      vertex 0.398908 -2.51861 0
      vertex 0.242473 -1.53092 0
      vertex 0.478976 -1.47414 0
    endloop
  endfacet
  facet normal 0 0 -1
    outer loop
      vertex 0 -2.55 0
      vertex 0.242473 -1.53092 0
      vertex 0.398908 -2.51861 0
    endloop
  endfacet
  facet normal 0 0 -1
    outer loop
      vertex 0 -2.55 0
      vertex 0 -1.55 0
      vertex 0.242473 -1.53092 0
    endloop
  endfacet
  facet normal 0 0 -1
    outer loop
      vertex 0 -2.55 0
      vertex -0.242473 -1.53092 0
      vertex 0 -1.55 0
    endloop
  endfacet
  facet normal 0 0 -1
    outer loop
      vertex -0.398908 -2.51861 0
      vertex -0.242473 -1.53092 0
      vertex 0 -2.55 0
    endloop
  endfacet
  facet normal 0 0 -1
    outer loop
      vertex -0.398908 -2.51861 0
      vertex -0.478976 -1.47414 0
      vertex -0.242473 -1.53092 0
    endloop
  endfacet
  facet normal 0 0 -1
    outer loop
      vertex -0.787992 -2.42519 0
      vertex -0.478976 -1.47414 0
      vertex -0.398908 -2.51861 0
    endloop
  endfacet
  facet normal -0 0 -1
    outer loop
      vertex -0.478976 -1.47414 0
      vertex -0.787992 -2.42519 0
      vertex -0.703685 -1.38106 0
    endloop
  endfacet
  facet normal 0 0 -1
    outer loop
      vertex -1.15768 -2.27207 0
      vertex -0.703685 -1.38106 0
      vertex -0.787992 -2.42519 0
    endloop
  endfacet
  facet normal -0 0 -1
    outer loop
      vertex -0.703685 -1.38106 0
      vertex -1.15768 -2.27207 0
      vertex -0.911067 -1.25398 0
    endloop
  endfacet
  facet normal 0 0 -1
    outer loop
      vertex -1.49885 -2.06299 0
      vertex -0.911067 -1.25398 0
      vertex -1.15768 -2.27207 0
    endloop
  endfacet
  facet normal -0 0 -1
    outer loop
      vertex -0.911067 -1.25398 0
      vertex -1.49885 -2.06299 0
      vertex -1.09601 -1.09601 0
    endloop
  endfacet
  facet normal 0 0 -1
    outer loop
      vertex -1.80312 -1.80312 0
      vertex -1.09601 -1.09601 0
      vertex -1.49885 -2.06299 0
    endloop
  endfacet
  facet normal -0 0 -1
    outer loop
      vertex -1.09601 -1.09601 0
      vertex -1.80312 -1.80312 0
      vertex -1.25398 -0.911067 0
    endloop
  endfacet
  facet normal 0 0 -1
    outer loop
      vertex -2.06299 -1.49885 0
      vertex -1.25398 -0.911067 0
      vertex -1.80312 -1.80312 0
    endloop
  endfacet
  facet normal -0 0 -1
    outer loop
      vertex -1.25398 -0.911067 0
      vertex -2.06299 -1.49885 0
      vertex -1.38106 -0.703685 0
    endloop
  endfacet
  facet normal 0 0 -1
    outer loop
      vertex -2.27207 -1.15768 0
      vertex -1.38106 -0.703685 0
      vertex -2.06299 -1.49885 0
    endloop
  endfacet
  facet normal -0 0 -1
    outer loop
      vertex -1.38106 -0.703685 0
      vertex -2.27207 -1.15768 0
      vertex -1.47414 -0.478976 0
    endloop
  endfacet
  facet normal 0 0 -1
    outer loop
      vertex 1.38106 0.703685 0
      vertex 2.27207 1.15768 0
      vertex 1.47414 0.478976 0
    endloop
  endfacet
  facet normal -0 0 -1
    outer loop
      vertex 2.27207 1.15768 0
      vertex 1.38106 0.703685 0
      vertex 2.06299 1.49885 0
    endloop
  endfacet
  facet normal 0 0 -1
    outer loop
      vertex 1.25398 0.911067 0
      vertex 2.06299 1.49885 0
      vertex 1.38106 0.703685 0
    endloop
  endfacet
  facet normal -0 0 -1
    outer loop
      vertex 2.06299 1.49885 0
      vertex 1.25398 0.911067 0
      vertex 1.80312 1.80312 0
    endloop
  endfacet
  facet normal 0 0 -1
    outer loop
      vertex 1.09601 1.09601 0
      vertex 1.80312 1.80312 0
      vertex 1.25398 0.911067 0
    endloop
  endfacet
  facet normal -0 0 -1
    outer loop
      vertex 1.80312 1.80312 0
      vertex 1.09601 1.09601 0
      vertex 1.49885 2.06299 0
    endloop
  endfacet
  facet normal 0 0 -1
    outer loop
      vertex 0.911067 1.25398 0
      vertex 1.49885 2.06299 0
      vertex 1.09601 1.09601 0
    endloop
  endfacet
  facet normal -0 0 -1
    outer loop
      vertex 1.49885 2.06299 0
      vertex 0.911067 1.25398 0
      vertex 1.15768 2.27207 0
    endloop
  endfacet
  facet normal 0 0 -1
    outer loop
      vertex 0.703685 1.38106 0
      vertex 1.15768 2.27207 0
      vertex 0.911067 1.25398 0
    endloop
  endfacet
  facet normal -0 0 -1
    outer loop
      vertex 1.15768 2.27207 0
      vertex 0.703685 1.38106 0
      vertex 0.787992 2.42519 0
    endloop
  endfacet
  facet normal 0 0 -1
    outer loop
      vertex 0.478976 1.47414 0
      vertex 0.787992 2.42519 0
      vertex 0.703685 1.38106 0
    endloop
  endfacet
  facet normal 0 0 -1
    outer loop
      vertex 0.478976 1.47414 0
      vertex 0.398908 2.51861 0
      vertex 0.787992 2.42519 0
    endloop
  endfacet
  facet normal 0 0 -1
    outer loop
      vertex 0.242473 1.53092 0
      vertex 0.398908 2.51861 0
      vertex 0.478976 1.47414 0
    endloop
  endfacet
  facet normal 0 0 -1
    outer loop
      vertex 0 1.55 0
      vertex 0.398908 2.51861 0
      vertex 0.242473 1.53092 0
    endloop
  endfacet
  facet normal 0 0 -1
    outer loop
      vertex 0 1.55 0
      vertex 0 2.55 0
      vertex 0.398908 2.51861 0
    endloop
  endfacet
  facet normal 0 0 -1
    outer loop
      vertex -0.242473 1.53092 0
      vertex 0 2.55 0
      vertex 0 1.55 0
    endloop
  endfacet
  facet normal 0 0 -1
    outer loop
      vertex -0.242473 1.53092 0
      vertex -0.398908 2.51861 0
      vertex 0 2.55 0
    endloop
  endfacet
  facet normal 0 0 -1
    outer loop
      vertex -0.478976 1.47414 0
      vertex -0.398908 2.51861 0
      vertex -0.242473 1.53092 0
    endloop
  endfacet
  facet normal 0 0 -1
    outer loop
      vertex -0.787992 2.42519 0
      vertex -0.478976 1.47414 0
      vertex -0.703685 1.38106 0
    endloop
  endfacet
  facet normal 0 0 -1
    outer loop
      vertex -0.478976 1.47414 0
      vertex -0.787992 2.42519 0
      vertex -0.398908 2.51861 0
    endloop
  endfacet
  facet normal 0 0 -1
    outer loop
      vertex -1.15768 2.27207 0
      vertex -0.703685 1.38106 0
      vertex -0.911067 1.25398 0
    endloop
  endfacet
  facet normal 0 0 -1
    outer loop
      vertex -1.49885 2.06299 0
      vertex -0.911067 1.25398 0
      vertex -1.09601 1.09601 0
    endloop
  endfacet
  facet normal 0 0 -1
    outer loop
      vertex -0.703685 1.38106 0
      vertex -1.15768 2.27207 0
      vertex -0.787992 2.42519 0
    endloop
  endfacet
  facet normal 0 0 -1
    outer loop
      vertex -1.80312 1.80312 0
      vertex -1.09601 1.09601 0
      vertex -1.25398 0.911067 0
    endloop
  endfacet
  facet normal 0 0 -1
    outer loop
      vertex -2.06299 1.49885 0
      vertex -1.25398 0.911067 0
      vertex -1.38106 0.703685 0
    endloop
  endfacet
  facet normal 0 0 -1
    outer loop
      vertex -2.27207 1.15768 0
      vertex -1.38106 0.703685 0
      vertex -1.47414 0.478976 0
    endloop
  endfacet
  facet normal 0 0 -1
    outer loop
      vertex -0.911067 1.25398 0
      vertex -1.49885 2.06299 0
      vertex -1.15768 2.27207 0
    endloop
  endfacet
  facet normal 0 0 -1
    outer loop
      vertex -2.42519 0.787992 0
      vertex -1.47414 0.478976 0
      vertex -1.53092 0.242473 0
    endloop
  endfacet
  facet normal 0 0 -1
    outer loop
      vertex -2.51861 0.398908 0
      vertex -1.53092 0.242473 0
      vertex -1.55 0 0
    endloop
  endfacet
  facet normal 0 0 -1
    outer loop
      vertex -2.42519 -0.787992 0
      vertex -1.47414 -0.478976 0
      vertex -2.27207 -1.15768 0
    endloop
  endfacet
  facet normal 0 0 -1
    outer loop
      vertex -1.09601 1.09601 0
      vertex -1.80312 1.80312 0
      vertex -1.49885 2.06299 0
    endloop
  endfacet
  facet normal -0 0 -1
    outer loop
      vertex -1.47414 -0.478976 0
      vertex -2.42519 -0.787992 0
      vertex -1.53092 -0.242473 0
    endloop
  endfacet
  facet normal 0 0 -1
    outer loop
      vertex -1.25398 0.911067 0
      vertex -2.06299 1.49885 0
      vertex -1.80312 1.80312 0
    endloop
  endfacet
  facet normal 0 0 -1
    outer loop
      vertex -2.51861 -0.398908 0
      vertex -1.53092 -0.242473 0
      vertex -2.42519 -0.787992 0
    endloop
  endfacet
  facet normal 0 0 -1
    outer loop
      vertex -1.38106 0.703685 0
      vertex -2.27207 1.15768 0
      vertex -2.06299 1.49885 0
    endloop
  endfacet
  facet normal -0 0 -1
    outer loop
      vertex -1.53092 -0.242473 0
      vertex -2.51861 -0.398908 0
      vertex -1.55 0 0
    endloop
  endfacet
  facet normal 0 0 -1
    outer loop
      vertex -1.47414 0.478976 0
      vertex -2.42519 0.787992 0
      vertex -2.27207 1.15768 0
    endloop
  endfacet
  facet normal 0 0 -1
    outer loop
      vertex -2.55 0 0
      vertex -1.55 0 0
      vertex -2.51861 -0.398908 0
    endloop
  endfacet
  facet normal 0 0 -1
    outer loop
      vertex -1.53092 0.242473 0
      vertex -2.51861 0.398908 0
      vertex -2.42519 0.787992 0
    endloop
  endfacet
  facet normal 0 0 -1
    outer loop
      vertex -1.55 0 0
      vertex -2.55 0 0
      vertex -2.51861 0.398908 0
    endloop
  endfacet
  facet normal -0.923888 -0.382663 0
    outer loop
      vertex -2.27207 -1.15768 0
      vertex -2.42519 -0.787992 7
      vertex -2.42519 -0.787992 0
    endloop
  endfacet
  facet normal -0.923888 -0.382663 0
    outer loop
      vertex -2.42519 -0.787992 7
      vertex -2.27207 -1.15768 0
      vertex -2.27207 -1.15768 7
    endloop
  endfacet
  facet normal -0.972365 -0.233467 0
    outer loop
      vertex -2.42519 -0.787992 0
      vertex -2.51861 -0.398908 7
      vertex -2.51861 -0.398908 0
    endloop
  endfacet
  facet normal -0.972365 -0.233467 0
    outer loop
      vertex -2.51861 -0.398908 7
      vertex -2.42519 -0.787992 0
      vertex -2.42519 -0.787992 7
    endloop
  endfacet
  facet normal 0.522518 -0.852628 0
    outer loop
      vertex 1.15768 -2.27207 0
      vertex 1.49885 -2.06299 7
      vertex 1.15768 -2.27207 7
    endloop
  endfacet
  facet normal 0.522518 -0.852628 0
    outer loop
      vertex 1.49885 -2.06299 7
      vertex 1.15768 -2.27207 0
      vertex 1.49885 -2.06299 0
    endloop
  endfacet
  facet normal 0.382663 -0.923888 0
    outer loop
      vertex 0.787992 -2.42519 0
      vertex 1.15768 -2.27207 7
      vertex 0.787992 -2.42519 7
    endloop
  endfacet
  facet normal 0.382663 -0.923888 0
    outer loop
      vertex 1.15768 -2.27207 7
      vertex 0.787992 -2.42519 0
      vertex 1.15768 -2.27207 0
    endloop
  endfacet
  facet normal 0.760407 -0.649446 0
    outer loop
      vertex 1.80312 -1.80312 7
      vertex 2.06299 -1.49885 0
      vertex 2.06299 -1.49885 7
    endloop
  endfacet
  facet normal 0.760407 -0.649446 0
    outer loop
      vertex 2.06299 -1.49885 0
      vertex 1.80312 -1.80312 7
      vertex 1.80312 -1.80312 0
    endloop
  endfacet
  facet normal -0.522518 -0.852628 0
    outer loop
      vertex -1.49885 -2.06299 0
      vertex -1.15768 -2.27207 7
      vertex -1.49885 -2.06299 7
    endloop
  endfacet
  facet normal -0.522518 -0.852628 -0
    outer loop
      vertex -1.15768 -2.27207 7
      vertex -1.49885 -2.06299 0
      vertex -1.15768 -2.27207 0
    endloop
  endfacet
  facet normal -0.760407 -0.649446 0
    outer loop
      vertex -1.80312 -1.80312 0
      vertex -2.06299 -1.49885 7
      vertex -2.06299 -1.49885 0
    endloop
  endfacet
  facet normal -0.760407 -0.649446 0
    outer loop
      vertex -2.06299 -1.49885 7
      vertex -1.80312 -1.80312 0
      vertex -1.80312 -1.80312 7
    endloop
  endfacet
  facet normal -0.649446 -0.760407 0
    outer loop
      vertex -1.80312 -1.80312 0
      vertex -1.49885 -2.06299 7
      vertex -1.80312 -1.80312 7
    endloop
  endfacet
  facet normal -0.649446 -0.760407 -0
    outer loop
      vertex -1.49885 -2.06299 7
      vertex -1.80312 -1.80312 0
      vertex -1.49885 -2.06299 0
    endloop
  endfacet
  facet normal -0.382663 -0.923888 0
    outer loop
      vertex -1.15768 -2.27207 0
      vertex -0.787992 -2.42519 7
      vertex -1.15768 -2.27207 7
    endloop
  endfacet
  facet normal -0.382663 -0.923888 -0
    outer loop
      vertex -0.787992 -2.42519 7
      vertex -1.15768 -2.27207 0
      vertex -0.787992 -2.42519 0
    endloop
  endfacet
  facet normal -0.233467 -0.972365 0
    outer loop
      vertex -0.787992 -2.42519 0
      vertex -0.398908 -2.51861 7
      vertex -0.787992 -2.42519 7
    endloop
  endfacet
  facet normal -0.233467 -0.972365 -0
    outer loop
      vertex -0.398908 -2.51861 7
      vertex -0.787992 -2.42519 0
      vertex -0.398908 -2.51861 0
    endloop
  endfacet
  facet normal -0.522487 -0.852647 0
    outer loop
      vertex 0.703685 1.38106 0
      vertex 0.911067 1.25398 7
      vertex 0.703685 1.38106 7
    endloop
  endfacet
  facet normal -0.522487 -0.852647 -0
    outer loop
      vertex 0.911067 1.25398 7
      vertex 0.703685 1.38106 0
      vertex 0.911067 1.25398 0
    endloop
  endfacet
  facet normal 0.233448 0.972369 -0
    outer loop
      vertex -0.242473 -1.53092 0
      vertex -0.478976 -1.47414 7
      vertex -0.242473 -1.53092 7
    endloop
  endfacet
  facet normal 0.233448 0.972369 0
    outer loop
      vertex -0.478976 -1.47414 7
      vertex -0.242473 -1.53092 0
      vertex -0.478976 -1.47414 0
    endloop
  endfacet
  facet normal 0.233448 -0.972369 0
    outer loop
      vertex -0.478976 1.47414 0
      vertex -0.242473 1.53092 7
      vertex -0.478976 1.47414 7
    endloop
  endfacet
  facet normal 0.233448 -0.972369 0
    outer loop
      vertex -0.242473 1.53092 7
      vertex -0.478976 1.47414 0
      vertex -0.242473 1.53092 0
    endloop
  endfacet
  facet normal 0.923876 -0.382692 0
    outer loop
      vertex -1.47414 0.478976 7
      vertex -1.38106 0.703685 0
      vertex -1.38106 0.703685 7
    endloop
  endfacet
  facet normal 0.923876 -0.382692 0
    outer loop
      vertex -1.38106 0.703685 0
      vertex -1.47414 0.478976 7
      vertex -1.47414 0.478976 0
    endloop
  endfacet
  facet normal -0.852647 -0.522487 0
    outer loop
      vertex 1.38106 0.703685 0
      vertex 1.25398 0.911067 7
      vertex 1.25398 0.911067 0
    endloop
  endfacet
  facet normal -0.852647 -0.522487 0
    outer loop
      vertex 1.25398 0.911067 7
      vertex 1.38106 0.703685 0
      vertex 1.38106 0.703685 7
    endloop
  endfacet
  facet normal -0.972369 -0.233448 0
    outer loop
      vertex 1.53092 0.242473 0
      vertex 1.47414 0.478976 7
      vertex 1.47414 0.478976 0
    endloop
  endfacet
  facet normal -0.972369 -0.233448 0
    outer loop
      vertex 1.47414 0.478976 7
      vertex 1.53092 0.242473 0
      vertex 1.53092 0.242473 7
    endloop
  endfacet
  facet normal -0.760378 -0.649481 0
    outer loop
      vertex 1.25398 0.911067 0
      vertex 1.09601 1.09601 7
      vertex 1.09601 1.09601 0
    endloop
  endfacet
  facet normal -0.760378 -0.649481 0
    outer loop
      vertex 1.09601 1.09601 7
      vertex 1.25398 0.911067 0
      vertex 1.25398 0.911067 7
    endloop
  endfacet
  facet normal -0.649481 -0.760378 0
    outer loop
      vertex 0.911067 1.25398 0
      vertex 1.09601 1.09601 7
      vertex 0.911067 1.25398 7
    endloop
  endfacet
  facet normal -0.649481 -0.760378 -0
    outer loop
      vertex 1.09601 1.09601 7
      vertex 0.911067 1.25398 0
      vertex 1.09601 1.09601 0
    endloop
  endfacet
  facet normal -0.382692 -0.923876 0
    outer loop
      vertex 0.478976 1.47414 0
      vertex 0.703685 1.38106 7
      vertex 0.478976 1.47414 7
    endloop
  endfacet
  facet normal -0.382692 -0.923876 -0
    outer loop
      vertex 0.703685 1.38106 7
      vertex 0.478976 1.47414 0
      vertex 0.703685 1.38106 0
    endloop
  endfacet
  facet normal -0.0784467 -0.996918 0
    outer loop
      vertex 0 1.55 0
      vertex 0.242473 1.53092 7
      vertex 0 1.55 7
    endloop
  endfacet
  facet normal -0.0784467 -0.996918 -0
    outer loop
      vertex 0.242473 1.53092 7
      vertex 0 1.55 0
      vertex 0.242473 1.53092 0
    endloop
  endfacet
  facet normal -0.233448 -0.972369 0
    outer loop
      vertex 0.242473 1.53092 0
      vertex 0.478976 1.47414 7
      vertex 0.242473 1.53092 7
    endloop
  endfacet
  facet normal -0.233448 -0.972369 -0
    outer loop
      vertex 0.478976 1.47414 7
      vertex 0.242473 1.53092 0
      vertex 0.478976 1.47414 0
    endloop
  endfacet
  facet normal 0.996918 -0.0784467 0
    outer loop
      vertex -1.55 0 7
      vertex -1.53092 0.242473 0
      vertex -1.53092 0.242473 7
    endloop
  endfacet
  facet normal 0.996918 -0.0784467 0
    outer loop
      vertex -1.53092 0.242473 0
      vertex -1.55 0 7
      vertex -1.55 0 0
    endloop
  endfacet
  facet normal 0.760378 -0.649481 0
    outer loop
      vertex -1.25398 0.911067 7
      vertex -1.09601 1.09601 0
      vertex -1.09601 1.09601 7
    endloop
  endfacet
  facet normal 0.760378 -0.649481 0
    outer loop
      vertex -1.09601 1.09601 0
      vertex -1.25398 0.911067 7
      vertex -1.25398 0.911067 0
    endloop
  endfacet
  facet normal 0.0784467 -0.996918 0
    outer loop
      vertex -0.242473 1.53092 0
      vertex 0 1.55 7
      vertex -0.242473 1.53092 7
    endloop
  endfacet
  facet normal 0.0784467 -0.996918 0
    outer loop
      vertex 0 1.55 7
      vertex -0.242473 1.53092 0
      vertex 0 1.55 0
    endloop
  endfacet
  facet normal 0.649481 -0.760378 0
    outer loop
      vertex -1.09601 1.09601 0
      vertex -0.911067 1.25398 7
      vertex -1.09601 1.09601 7
    endloop
  endfacet
  facet normal 0.649481 -0.760378 0
    outer loop
      vertex -0.911067 1.25398 7
      vertex -1.09601 1.09601 0
      vertex -0.911067 1.25398 0
    endloop
  endfacet
  facet normal -0.996918 -0.0784467 0
    outer loop
      vertex 1.55 0 0
      vertex 1.53092 0.242473 7
      vertex 1.53092 0.242473 0
    endloop
  endfacet
  facet normal -0.996918 -0.0784467 0
    outer loop
      vertex 1.53092 0.242473 7
      vertex 1.55 0 0
      vertex 1.55 0 7
    endloop
  endfacet
  facet normal -0.382692 0.923876 0
    outer loop
      vertex 0.703685 -1.38106 0
      vertex 0.478976 -1.47414 7
      vertex 0.703685 -1.38106 7
    endloop
  endfacet
  facet normal -0.382692 0.923876 0
    outer loop
      vertex 0.478976 -1.47414 7
      vertex 0.703685 -1.38106 0
      vertex 0.478976 -1.47414 0
    endloop
  endfacet
  facet normal -0.522487 0.852647 0
    outer loop
      vertex 0.911067 -1.25398 0
      vertex 0.703685 -1.38106 7
      vertex 0.911067 -1.25398 7
    endloop
  endfacet
  facet normal -0.522487 0.852647 0
    outer loop
      vertex 0.703685 -1.38106 7
      vertex 0.911067 -1.25398 0
      vertex 0.703685 -1.38106 0
    endloop
  endfacet
  facet normal -0.852647 0.522487 0
    outer loop
      vertex 1.25398 -0.911067 0
      vertex 1.38106 -0.703685 7
      vertex 1.38106 -0.703685 0
    endloop
  endfacet
  facet normal -0.852647 0.522487 0
    outer loop
      vertex 1.38106 -0.703685 7
      vertex 1.25398 -0.911067 0
      vertex 1.25398 -0.911067 7
    endloop
  endfacet
  facet normal 0.0784467 0.996918 -0
    outer loop
      vertex 0 -1.55 0
      vertex -0.242473 -1.53092 7
      vertex 0 -1.55 7
    endloop
  endfacet
  facet normal 0.0784467 0.996918 0
    outer loop
      vertex -0.242473 -1.53092 7
      vertex 0 -1.55 0
      vertex -0.242473 -1.53092 0
    endloop
  endfacet
  facet normal 0.649481 0.760378 -0
    outer loop
      vertex -0.911067 -1.25398 0
      vertex -1.09601 -1.09601 7
      vertex -0.911067 -1.25398 7
    endloop
  endfacet
  facet normal 0.649481 0.760378 0
    outer loop
      vertex -1.09601 -1.09601 7
      vertex -0.911067 -1.25398 0
      vertex -1.09601 -1.09601 0
    endloop
  endfacet
  facet normal 0.996918 0.0784467 0
    outer loop
      vertex -1.53092 -0.242473 7
      vertex -1.55 0 0
      vertex -1.55 0 7
    endloop
  endfacet
  facet normal 0.996918 0.0784467 0
    outer loop
      vertex -1.55 0 0
      vertex -1.53092 -0.242473 7
      vertex -1.53092 -0.242473 0
    endloop
  endfacet
  facet normal 0.760378 0.649481 0
    outer loop
      vertex -1.09601 -1.09601 7
      vertex -1.25398 -0.911067 0
      vertex -1.25398 -0.911067 7
    endloop
  endfacet
  facet normal 0.760378 0.649481 0
    outer loop
      vertex -1.25398 -0.911067 0
      vertex -1.09601 -1.09601 7
      vertex -1.09601 -1.09601 0
    endloop
  endfacet
  facet normal -0.923876 -0.382692 0
    outer loop
      vertex 1.47414 0.478976 0
      vertex 1.38106 0.703685 7
      vertex 1.38106 0.703685 0
    endloop
  endfacet
  facet normal -0.923876 -0.382692 0
    outer loop
      vertex 1.38106 0.703685 7
      vertex 1.47414 0.478976 0
      vertex 1.47414 0.478976 7
    endloop
  endfacet
  facet normal 0.972369 -0.233448 0
    outer loop
      vertex -1.53092 0.242473 7
      vertex -1.47414 0.478976 0
      vertex -1.47414 0.478976 7
    endloop
  endfacet
  facet normal 0.972369 -0.233448 0
    outer loop
      vertex -1.47414 0.478976 0
      vertex -1.53092 0.242473 7
      vertex -1.53092 0.242473 0
    endloop
  endfacet
  facet normal 0.852647 -0.522487 0
    outer loop
      vertex -1.38106 0.703685 7
      vertex -1.25398 0.911067 0
      vertex -1.25398 0.911067 7
    endloop
  endfacet
  facet normal 0.852647 -0.522487 0
    outer loop
      vertex -1.25398 0.911067 0
      vertex -1.38106 0.703685 7
      vertex -1.38106 0.703685 0
    endloop
  endfacet
  facet normal 0.522487 -0.852647 0
    outer loop
      vertex -0.911067 1.25398 0
      vertex -0.703685 1.38106 7
      vertex -0.911067 1.25398 7
    endloop
  endfacet
  facet normal 0.522487 -0.852647 0
    outer loop
      vertex -0.703685 1.38106 7
      vertex -0.911067 1.25398 0
      vertex -0.703685 1.38106 0
    endloop
  endfacet
  facet normal 0.382692 -0.923876 0
    outer loop
      vertex -0.703685 1.38106 0
      vertex -0.478976 1.47414 7
      vertex -0.703685 1.38106 7
    endloop
  endfacet
  facet normal 0.382692 -0.923876 0
    outer loop
      vertex -0.478976 1.47414 7
      vertex -0.703685 1.38106 0
      vertex -0.478976 1.47414 0
    endloop
  endfacet
  facet normal -0.972369 0.233448 0
    outer loop
      vertex 1.47414 -0.478976 0
      vertex 1.53092 -0.242473 7
      vertex 1.53092 -0.242473 0
    endloop
  endfacet
  facet normal -0.972369 0.233448 0
    outer loop
      vertex 1.53092 -0.242473 7
      vertex 1.47414 -0.478976 0
      vertex 1.47414 -0.478976 7
    endloop
  endfacet
  facet normal -0.0784467 0.996918 0
    outer loop
      vertex 0.242473 -1.53092 0
      vertex 0 -1.55 7
      vertex 0.242473 -1.53092 7
    endloop
  endfacet
  facet normal -0.0784467 0.996918 0
    outer loop
      vertex 0 -1.55 7
      vertex 0.242473 -1.53092 0
      vertex 0 -1.55 0
    endloop
  endfacet
  facet normal -0.233448 0.972369 0
    outer loop
      vertex 0.478976 -1.47414 0
      vertex 0.242473 -1.53092 7
      vertex 0.478976 -1.47414 7
    endloop
  endfacet
  facet normal -0.233448 0.972369 0
    outer loop
      vertex 0.242473 -1.53092 7
      vertex 0.478976 -1.47414 0
      vertex 0.242473 -1.53092 0
    endloop
  endfacet
  facet normal -0.760378 0.649481 0
    outer loop
      vertex 1.09601 -1.09601 0
      vertex 1.25398 -0.911067 7
      vertex 1.25398 -0.911067 0
    endloop
  endfacet
  facet normal -0.760378 0.649481 0
    outer loop
      vertex 1.25398 -0.911067 7
      vertex 1.09601 -1.09601 0
      vertex 1.09601 -1.09601 7
    endloop
  endfacet
  facet normal -0.649481 0.760378 0
    outer loop
      vertex 1.09601 -1.09601 0
      vertex 0.911067 -1.25398 7
      vertex 1.09601 -1.09601 7
    endloop
  endfacet
  facet normal -0.649481 0.760378 0
    outer loop
      vertex 0.911067 -1.25398 7
      vertex 1.09601 -1.09601 0
      vertex 0.911067 -1.25398 0
    endloop
  endfacet
  facet normal -0.923876 0.382692 0
    outer loop
      vertex 1.38106 -0.703685 0
      vertex 1.47414 -0.478976 7
      vertex 1.47414 -0.478976 0
    endloop
  endfacet
  facet normal -0.923876 0.382692 0
    outer loop
      vertex 1.47414 -0.478976 7
      vertex 1.38106 -0.703685 0
      vertex 1.38106 -0.703685 7
    endloop
  endfacet
  facet normal 0.522487 0.852647 -0
    outer loop
      vertex -0.703685 -1.38106 0
      vertex -0.911067 -1.25398 7
      vertex -0.703685 -1.38106 7
    endloop
  endfacet
  facet normal 0.522487 0.852647 0
    outer loop
      vertex -0.911067 -1.25398 7
      vertex -0.703685 -1.38106 0
      vertex -0.911067 -1.25398 0
    endloop
  endfacet
  facet normal 0.972369 0.233448 0
    outer loop
      vertex -1.47414 -0.478976 7
      vertex -1.53092 -0.242473 0
      vertex -1.53092 -0.242473 7
    endloop
  endfacet
  facet normal 0.972369 0.233448 0
    outer loop
      vertex -1.53092 -0.242473 0
      vertex -1.47414 -0.478976 7
      vertex -1.47414 -0.478976 0
    endloop
  endfacet
  facet normal 0.923876 0.382692 0
    outer loop
      vertex -1.38106 -0.703685 7
      vertex -1.47414 -0.478976 0
      vertex -1.47414 -0.478976 7
    endloop
  endfacet
  facet normal 0.923876 0.382692 0
    outer loop
      vertex -1.47414 -0.478976 0
      vertex -1.38106 -0.703685 7
      vertex -1.38106 -0.703685 0
    endloop
  endfacet
  facet normal -0.996918 0.0784467 0
    outer loop
      vertex 1.53092 -0.242473 0
      vertex 1.55 0 7
      vertex 1.55 0 0
    endloop
  endfacet
  facet normal -0.996918 0.0784467 0
    outer loop
      vertex 1.55 0 7
      vertex 1.53092 -0.242473 0
      vertex 1.53092 -0.242473 7
    endloop
  endfacet
  facet normal 0.382692 0.923876 -0
    outer loop
      vertex -0.478976 -1.47414 0
      vertex -0.703685 -1.38106 7
      vertex -0.478976 -1.47414 7
    endloop
  endfacet
  facet normal 0.382692 0.923876 0
    outer loop
      vertex -0.703685 -1.38106 7
      vertex -0.478976 -1.47414 0
      vertex -0.703685 -1.38106 0
    endloop
  endfacet
  facet normal 0.852647 0.522487 0
    outer loop
      vertex -1.25398 -0.911067 7
      vertex -1.38106 -0.703685 0
      vertex -1.38106 -0.703685 7
    endloop
  endfacet
  facet normal 0.852647 0.522487 0
    outer loop
      vertex -1.38106 -0.703685 0
      vertex -1.25398 -0.911067 7
      vertex -1.25398 -0.911067 0
    endloop
  endfacet
endsolid OpenSCAD_Model
