solid OpenSCAD_Model
  facet normal 0 0 -1
    outer loop
      vertex -2.25 3.897113800048828 0.0008459091186523438
      vertex -1.5 2.5980758666992188 0.0008459091186523438
      vertex -2.0073909759521484 2.229434013366699 0.0008459091186523438
    endloop
  endfacet
  facet normal 0 0 -1
    outer loop
      vertex -1.5 2.5980758666992188 0.0008459091186523438
      vertex -2.25 3.897113800048828 0.0008459091186523438
      vertex -2 3.897113800048828 0.0008459091186523438
    endloop
  endfacet
  facet normal 0 0 -1
    outer loop
      vertex -2.4270505905151367 1.7633552551269531 0.0008459091186523438
      vertex -2.25 3.897113800048828 0.0008459091186523438
      vertex -2.0073909759521484 2.229434013366699 0.0008459091186523438
    endloop
  endfacet
  facet normal 0 0 -1
    outer loop
      vertex -2.740635871887207 1.2202091217041016 0.0008459091186523438
      vertex -2.25 3.897113800048828 0.0008459091186523438
      vertex -2.4270505905151367 1.7633552551269531 0.0008459091186523438
    endloop
  endfacet
  facet normal 0 0 -1
    outer loop
      vertex -4.5 0 0.0008459091186523438
      vertex -2.740635871887207 1.2202091217041016 0.0008459091186523438
      vertex -2.9344425201416016 0.6237344741821289 0.0008459091186523438
    endloop
  endfacet
  facet normal 0 0 -1
    outer loop
      vertex -2.740635871887207 1.2202091217041016 0.0008459091186523438
      vertex -4.5 0 0.0008459091186523438
      vertex -2.25 3.897113800048828 0.0008459091186523438
    endloop
  endfacet
  facet normal 0 0 -1
    outer loop
      vertex -4.5 0 0.0008459091186523438
      vertex -2.9344425201416016 0.6237344741821289 0.0008459091186523438
      vertex -3 0 0.0008459091186523438
    endloop
  endfacet
  facet normal 0 0 -1
    outer loop
      vertex -0.9270505905151367 2.8531694412231445 0.0008459091186523438
      vertex -0.5 3.897113800048828 0.0008459091186523438
      vertex -0.3135852813720703 2.983565330505371 0.0008459091186523438
    endloop
  endfacet
  facet normal 0 0 -1
    outer loop
      vertex -0.9270505905151367 2.8531694412231445 0.0008459091186523438
      vertex -1 3.897113800048828 0.0008459091186523438
      vertex -0.5 3.897113800048828 0.0008459091186523438
    endloop
  endfacet
  facet normal 0 0 -1
    outer loop
      vertex -1.5 2.5980758666992188 0.0008459091186523438
      vertex -1 3.897113800048828 0.0008459091186523438
      vertex -0.9270505905151367 2.8531694412231445 0.0008459091186523438
    endloop
  endfacet
  facet normal 0 0 -1
    outer loop
      vertex -2 3.897113800048828 0.0008459091186523438
      vertex -1 3.897113800048828 0.0008459091186523438
      vertex -1.5 2.5980758666992188 0.0008459091186523438
    endloop
  endfacet
  facet normal 0 0 -1
    outer loop
      vertex -1 3.897113800048828 0.0008459091186523438
      vertex -2 3.897113800048828 0.0008459091186523438
      vertex -1 25.5 0.0008459091186523438
    endloop
  endfacet
  facet normal 0 0 -1
    outer loop
      vertex -1 25.5 0.0008459091186523438
      vertex -2 3.897113800048828 0.0008459091186523438
      vertex -2 25.5 0.0008459091186523438
    endloop
  endfacet
  facet normal 0 0 -1
    outer loop
      vertex 0.9270505905151367 2.8531694412231445 0.0008459091186523438
      vertex 1 3.897113800048828 0.0008459091186523438
      vertex 1.5 2.5980758666992188 0.0008459091186523438
    endloop
  endfacet
  facet normal 0 0 -1
    outer loop
      vertex 0.9270505905151367 2.8531694412231445 0.0008459091186523438
      vertex 0.5 3.897113800048828 0.0008459091186523438
      vertex 1 3.897113800048828 0.0008459091186523438
    endloop
  endfacet
  facet normal 0 0 -1
    outer loop
      vertex 0.3135852813720703 2.983565330505371 0.0008459091186523438
      vertex 0.5 3.897113800048828 0.0008459091186523438
      vertex 0.9270505905151367 2.8531694412231445 0.0008459091186523438
    endloop
  endfacet
  facet normal 0 0 -1
    outer loop
      vertex -0.5 3.897113800048828 0.0008459091186523438
      vertex 0.5 3.897113800048828 0.0008459091186523438
      vertex 0.3135852813720703 2.983565330505371 0.0008459091186523438
    endloop
  endfacet
  facet normal 0 0 -1
    outer loop
      vertex -0.5 3.897113800048828 0.0008459091186523438
      vertex 0.3135852813720703 2.983565330505371 0.0008459091186523438
      vertex -0.3135852813720703 2.983565330505371 0.0008459091186523438
    endloop
  endfacet
  facet normal 0 0 -1
    outer loop
      vertex 0.5 3.897113800048828 0.0008459091186523438
      vertex -0.5 3.897113800048828 0.0008459091186523438
      vertex 0.5 25.5 0.0008459091186523438
    endloop
  endfacet
  facet normal 0 0 -1
    outer loop
      vertex 0.5 25.5 0.0008459091186523438
      vertex -0.5 3.897113800048828 0.0008459091186523438
      vertex -0.5 25.5 0.0008459091186523438
    endloop
  endfacet
  facet normal 0 0 -1
    outer loop
      vertex 4.5 0 0.0008459091186523438
      vertex 2.9344425201416016 -0.6237344741821289 0.0008459091186523438
      vertex 3 0 0.0008459091186523438
    endloop
  endfacet
  facet normal 0 0 -1
    outer loop
      vertex 4.5 0 0.0008459091186523438
      vertex 2.740635871887207 -1.2202091217041016 0.0008459091186523438
      vertex 2.9344425201416016 -0.6237344741821289 0.0008459091186523438
    endloop
  endfacet
  facet normal 0 0 -1
    outer loop
      vertex 4.5 0 0.0008459091186523438
      vertex 2.4270505905151367 -1.7633552551269531 0.0008459091186523438
      vertex 2.740635871887207 -1.2202091217041016 0.0008459091186523438
    endloop
  endfacet
  facet normal 0 0 -1
    outer loop
      vertex 2.25 -3.897113800048828 0.0008459091186523438
      vertex 2.4270505905151367 -1.7633552551269531 0.0008459091186523438
      vertex 4.5 0 0.0008459091186523438
    endloop
  endfacet
  facet normal 0 0 -1
    outer loop
      vertex 2.25 -3.897113800048828 0.0008459091186523438
      vertex 2.0073909759521484 -2.229434013366699 0.0008459091186523438
      vertex 2.4270505905151367 -1.7633552551269531 0.0008459091186523438
    endloop
  endfacet
  facet normal 0 0 -1
    outer loop
      vertex 2.25 -3.897113800048828 0.0008459091186523438
      vertex 1.5 -2.5980758666992188 0.0008459091186523438
      vertex 2.0073909759521484 -2.229434013366699 0.0008459091186523438
    endloop
  endfacet
  facet normal 0 0 -1
    outer loop
      vertex 2.25 -3.897113800048828 0.0008459091186523438
      vertex 0.9270505905151367 -2.8531694412231445 0.0008459091186523438
      vertex 1.5 -2.5980758666992188 0.0008459091186523438
    endloop
  endfacet
  facet normal 0 0 -1
    outer loop
      vertex 2.25 -3.897113800048828 0.0008459091186523438
      vertex 0.3135852813720703 -2.983565330505371 0.0008459091186523438
      vertex 0.9270505905151367 -2.8531694412231445 0.0008459091186523438
    endloop
  endfacet
  facet normal 0 0 -1
    outer loop
      vertex 2.25 -3.897113800048828 0.0008459091186523438
      vertex -0.3135852813720703 -2.983565330505371 0.0008459091186523438
      vertex 0.3135852813720703 -2.983565330505371 0.0008459091186523438
    endloop
  endfacet
  facet normal 0 0 -1
    outer loop
      vertex -2.25 -3.897113800048828 0.0008459091186523438
      vertex -0.3135852813720703 -2.983565330505371 0.0008459091186523438
      vertex 2.25 -3.897113800048828 0.0008459091186523438
    endloop
  endfacet
  facet normal 0 0 -1
    outer loop
      vertex -0.3135852813720703 -2.983565330505371 0.0008459091186523438
      vertex -2.25 -3.897113800048828 0.0008459091186523438
      vertex -0.9270505905151367 -2.8531694412231445 0.0008459091186523438
    endloop
  endfacet
  facet normal 0 0 -1
    outer loop
      vertex -2.25 -3.897113800048828 0.0008459091186523438
      vertex -1.5 -2.5980758666992188 0.0008459091186523438
      vertex -0.9270505905151367 -2.8531694412231445 0.0008459091186523438
    endloop
  endfacet
  facet normal 0 0 -1
    outer loop
      vertex -2.25 -3.897113800048828 0.0008459091186523438
      vertex -2.0073909759521484 -2.229434013366699 0.0008459091186523438
      vertex -1.5 -2.5980758666992188 0.0008459091186523438
    endloop
  endfacet
  facet normal 0 0 -1
    outer loop
      vertex -2.25 -3.897113800048828 0.0008459091186523438
      vertex -2.4270505905151367 -1.7633552551269531 0.0008459091186523438
      vertex -2.0073909759521484 -2.229434013366699 0.0008459091186523438
    endloop
  endfacet
  facet normal 0 0 -1
    outer loop
      vertex -2.25 -3.897113800048828 0.0008459091186523438
      vertex -2.740635871887207 -1.2202091217041016 0.0008459091186523438
      vertex -2.4270505905151367 -1.7633552551269531 0.0008459091186523438
    endloop
  endfacet
  facet normal 0 0 -1
    outer loop
      vertex -4.5 0 0.0008459091186523438
      vertex -2.740635871887207 -1.2202091217041016 0.0008459091186523438
      vertex -2.25 -3.897113800048828 0.0008459091186523438
    endloop
  endfacet
  facet normal 0 0 -1
    outer loop
      vertex -2.9344425201416016 -0.6237344741821289 0.0008459091186523438
      vertex -4.5 0 0.0008459091186523438
      vertex -3 0 0.0008459091186523438
    endloop
  endfacet
  facet normal 0 0 -1
    outer loop
      vertex -2.740635871887207 -1.2202091217041016 0.0008459091186523438
      vertex -4.5 0 0.0008459091186523438
      vertex -2.9344425201416016 -0.6237344741821289 0.0008459091186523438
    endloop
  endfacet
  facet normal 0 0 -1
    outer loop
      vertex 2.9344425201416016 0.6237344741821289 0.0008459091186523438
      vertex 4.5 0 0.0008459091186523438
      vertex 3 0 0.0008459091186523438
    endloop
  endfacet
  facet normal 0 0 -1
    outer loop
      vertex 2.740635871887207 1.2202091217041016 0.0008459091186523438
      vertex 4.5 0 0.0008459091186523438
      vertex 2.9344425201416016 0.6237344741821289 0.0008459091186523438
    endloop
  endfacet
  facet normal 0 0 -1
    outer loop
      vertex 2.4270505905151367 1.7633552551269531 0.0008459091186523438
      vertex 4.5 0 0.0008459091186523438
      vertex 2.740635871887207 1.2202091217041016 0.0008459091186523438
    endloop
  endfacet
  facet normal 0 0 -1
    outer loop
      vertex 2.4270505905151367 1.7633552551269531 0.0008459091186523438
      vertex 2.25 3.897113800048828 0.0008459091186523438
      vertex 4.5 0 0.0008459091186523438
    endloop
  endfacet
  facet normal 0 0 -1
    outer loop
      vertex 2.0073909759521484 2.229434013366699 0.0008459091186523438
      vertex 2.25 3.897113800048828 0.0008459091186523438
      vertex 2.4270505905151367 1.7633552551269531 0.0008459091186523438
    endloop
  endfacet
  facet normal 0 0 -1
    outer loop
      vertex 1.5 2.5980758666992188 0.0008459091186523438
      vertex 2.25 3.897113800048828 0.0008459091186523438
      vertex 2.0073909759521484 2.229434013366699 0.0008459091186523438
    endloop
  endfacet
  facet normal 0 0 -1
    outer loop
      vertex 2.25 3.897113800048828 0.0008459091186523438
      vertex 1.5 2.5980758666992188 0.0008459091186523438
      vertex 2 3.897113800048828 0.0008459091186523438
    endloop
  endfacet
  facet normal 0 0 -1
    outer loop
      vertex 1 3.897113800048828 0.0008459091186523438
      vertex 2 3.897113800048828 0.0008459091186523438
      vertex 1.5 2.5980758666992188 0.0008459091186523438
    endloop
  endfacet
  facet normal 0 0 -1
    outer loop
      vertex 2 3.897113800048828 0.0008459091186523438
      vertex 1 3.897113800048828 0.0008459091186523438
      vertex 2 25.5 0.0008459091186523438
    endloop
  endfacet
  facet normal 0 0 -1
    outer loop
      vertex 2 25.5 0.0008459091186523438
      vertex 1 3.897113800048828 0.0008459091186523438
      vertex 1 25.5 0.0008459091186523438
    endloop
  endfacet
  facet normal -0.7431444958978269 -0.669130972393869 0
    outer loop
      vertex 2.4270505905151367 1.7633552551269531 0.0008459091186523438
      vertex 2.0073909759521484 2.229434013366699 2
      vertex 2.0073909759521484 2.229434013366699 0.0008459091186523438
    endloop
  endfacet
  facet normal -0.7431444958978269 -0.669130972393869 0
    outer loop
      vertex 2.0073909759521484 2.229434013366699 2
      vertex 2.4270505905151367 1.7633552551269531 0.0008459091186523438
      vertex 2.4270505905151367 1.7633552551269531 2
    endloop
  endfacet
  facet normal -0.9510563818202772 -0.3090174082457539 0
    outer loop
      vertex 2.9344425201416016 0.6237344741821289 0.0008459091186523438
      vertex 2.740635871887207 1.2202091217041016 2
      vertex 2.740635871887207 1.2202091217041016 0.0008459091186523438
    endloop
  endfacet
  facet normal -0.9510563818202772 -0.3090174082457539 0
    outer loop
      vertex 2.740635871887207 1.2202091217041016 2
      vertex 2.9344425201416016 0.6237344741821289 0.0008459091186523438
      vertex 2.9344425201416016 0.6237344741821289 2
    endloop
  endfacet
  facet normal 0 -1 0
    outer loop
      vertex -0.3135852813720703 2.983565330505371 0.0008459091186523438
      vertex 0.3135852813720703 2.983565330505371 2
      vertex -0.3135852813720703 2.983565330505371 2
    endloop
  endfacet
  facet normal 0 -1 0
    outer loop
      vertex 0.3135852813720703 2.983565330505371 2
      vertex -0.3135852813720703 2.983565330505371 0.0008459091186523438
      vertex 0.3135852813720703 2.983565330505371 0.0008459091186523438
    endloop
  endfacet
  facet normal 0.20791140472882785 -0.9781476615438416 0
    outer loop
      vertex -0.9270505905151367 2.8531694412231445 0.0008459091186523438
      vertex -0.3135852813720703 2.983565330505371 2
      vertex -0.9270505905151367 2.8531694412231445 2
    endloop
  endfacet
  facet normal 0.20791140472882785 -0.9781476615438416 0
    outer loop
      vertex -0.3135852813720703 2.983565330505371 2
      vertex -0.9270505905151367 2.8531694412231445 0.0008459091186523438
      vertex -0.3135852813720703 2.983565330505371 0.0008459091186523438
    endloop
  endfacet
  facet normal -0.9945218381929021 -0.10452900725354299 0
    outer loop
      vertex 3 0 0.0008459091186523438
      vertex 2.9344425201416016 0.6237344741821289 2
      vertex 2.9344425201416016 0.6237344741821289 0.0008459091186523438
    endloop
  endfacet
  facet normal -0.9945218381929021 -0.10452900725354299 0
    outer loop
      vertex 2.9344425201416016 0.6237344741821289 2
      vertex 3 0 0.0008459091186523438
      vertex 3 0 2
    endloop
  endfacet
  facet normal 0 1 0
    outer loop
      vertex 0.3135852813720703 -2.983565330505371 0.0008459091186523438
      vertex -0.3135852813720703 -2.983565330505371 2
      vertex 0.3135852813720703 -2.983565330505371 2
    endloop
  endfacet
  facet normal 0 1 0
    outer loop
      vertex -0.3135852813720703 -2.983565330505371 2
      vertex 0.3135852813720703 -2.983565330505371 0.0008459091186523438
      vertex -0.3135852813720703 -2.983565330505371 0.0008459091186523438
    endloop
  endfacet
  facet normal 0.5877860151326232 0.8090164401385868 0
    outer loop
      vertex -1.5 -2.5980758666992188 0.0008459091186523438
      vertex -2.0073909759521484 -2.229434013366699 2
      vertex -1.5 -2.5980758666992188 2
    endloop
  endfacet
  facet normal 0.5877860151326232 0.8090164401385868 0
    outer loop
      vertex -2.0073909759521484 -2.229434013366699 2
      vertex -1.5 -2.5980758666992188 0.0008459091186523438
      vertex -2.0073909759521484 -2.229434013366699 0.0008459091186523438
    endloop
  endfacet
  facet normal 0.9945218381929021 0.10452900725354299 0
    outer loop
      vertex -2.9344425201416016 -0.6237344741821289 2
      vertex -3 0 0.0008459091186523438
      vertex -3 0 2
    endloop
  endfacet
  facet normal 0.9945218381929021 0.10452900725354299 0
    outer loop
      vertex -3 0 0.0008459091186523438
      vertex -2.9344425201416016 -0.6237344741821289 2
      vertex -2.9344425201416016 -0.6237344741821289 0.0008459091186523438
    endloop
  endfacet
  facet normal 0.40673672583179743 -0.9135454207972525 0
    outer loop
      vertex -1.5 2.5980758666992188 0.0008459091186523438
      vertex -0.9270505905151367 2.8531694412231445 2
      vertex -1.5 2.5980758666992188 2
    endloop
  endfacet
  facet normal 0.40673672583179743 -0.9135454207972525 0
    outer loop
      vertex -0.9270505905151367 2.8531694412231445 2
      vertex -1.5 2.5980758666992188 0.0008459091186523438
      vertex -0.9270505905151367 2.8531694412231445 0.0008459091186523438
    endloop
  endfacet
  facet normal -0.5877860151326232 0.8090164401385868 0
    outer loop
      vertex 2.0073909759521484 -2.229434013366699 0.0008459091186523438
      vertex 1.5 -2.5980758666992188 2
      vertex 2.0073909759521484 -2.229434013366699 2
    endloop
  endfacet
  facet normal -0.5877860151326232 0.8090164401385868 0
    outer loop
      vertex 1.5 -2.5980758666992188 2
      vertex 2.0073909759521484 -2.229434013366699 0.0008459091186523438
      vertex 1.5 -2.5980758666992188 0.0008459091186523438
    endloop
  endfacet
  facet normal -0.9510563818202772 0.3090174082457539 0
    outer loop
      vertex 2.740635871887207 -1.2202091217041016 0.0008459091186523438
      vertex 2.9344425201416016 -0.6237344741821289 2
      vertex 2.9344425201416016 -0.6237344741821289 0.0008459091186523438
    endloop
  endfacet
  facet normal -0.9510563818202772 0.3090174082457539 0
    outer loop
      vertex 2.9344425201416016 -0.6237344741821289 2
      vertex 2.740635871887207 -1.2202091217041016 0.0008459091186523438
      vertex 2.740635871887207 -1.2202091217041016 2
    endloop
  endfacet
  facet normal 0.8660256005332054 -0.49999965922098494 0
    outer loop
      vertex -2.740635871887207 1.2202091217041016 2
      vertex -2.4270505905151367 1.7633552551269531 0.0008459091186523438
      vertex -2.4270505905151367 1.7633552551269531 2
    endloop
  endfacet
  facet normal 0.8660256005332054 -0.49999965922098494 0
    outer loop
      vertex -2.4270505905151367 1.7633552551269531 0.0008459091186523438
      vertex -2.740635871887207 1.2202091217041016 2
      vertex -2.740635871887207 1.2202091217041016 0.0008459091186523438
    endloop
  endfacet
  facet normal -0.5877860151326232 -0.8090164401385868 0
    outer loop
      vertex 1.5 2.5980758666992188 0.0008459091186523438
      vertex 2.0073909759521484 2.229434013366699 2
      vertex 1.5 2.5980758666992188 2
    endloop
  endfacet
  facet normal -0.5877860151326232 -0.8090164401385868 0
    outer loop
      vertex 2.0073909759521484 2.229434013366699 2
      vertex 1.5 2.5980758666992188 0.0008459091186523438
      vertex 2.0073909759521484 2.229434013366699 0.0008459091186523438
    endloop
  endfacet
  facet normal 0.5877860151326232 -0.8090164401385868 0
    outer loop
      vertex -2.0073909759521484 2.229434013366699 0.0008459091186523438
      vertex -1.5 2.5980758666992188 2
      vertex -2.0073909759521484 2.229434013366699 2
    endloop
  endfacet
  facet normal 0.5877860151326232 -0.8090164401385868 0
    outer loop
      vertex -1.5 2.5980758666992188 2
      vertex -2.0073909759521484 2.229434013366699 0.0008459091186523438
      vertex -1.5 2.5980758666992188 0.0008459091186523438
    endloop
  endfacet
  facet normal -0.7431444958978269 0.669130972393869 0
    outer loop
      vertex 2.0073909759521484 -2.229434013366699 0.0008459091186523438
      vertex 2.4270505905151367 -1.7633552551269531 2
      vertex 2.4270505905151367 -1.7633552551269531 0.0008459091186523438
    endloop
  endfacet
  facet normal -0.7431444958978269 0.669130972393869 0
    outer loop
      vertex 2.4270505905151367 -1.7633552551269531 2
      vertex 2.0073909759521484 -2.229434013366699 0.0008459091186523438
      vertex 2.0073909759521484 -2.229434013366699 2
    endloop
  endfacet
  facet normal -0.8660256005332054 0.49999965922098494 0
    outer loop
      vertex 2.4270505905151367 -1.7633552551269531 0.0008459091186523438
      vertex 2.740635871887207 -1.2202091217041016 2
      vertex 2.740635871887207 -1.2202091217041016 0.0008459091186523438
    endloop
  endfacet
  facet normal -0.8660256005332054 0.49999965922098494 0
    outer loop
      vertex 2.740635871887207 -1.2202091217041016 2
      vertex 2.4270505905151367 -1.7633552551269531 0.0008459091186523438
      vertex 2.4270505905151367 -1.7633552551269531 2
    endloop
  endfacet
  facet normal 0.7431444958978269 0.669130972393869 0
    outer loop
      vertex -2.0073909759521484 -2.229434013366699 2
      vertex -2.4270505905151367 -1.7633552551269531 0.0008459091186523438
      vertex -2.4270505905151367 -1.7633552551269531 2
    endloop
  endfacet
  facet normal 0.7431444958978269 0.669130972393869 0
    outer loop
      vertex -2.4270505905151367 -1.7633552551269531 0.0008459091186523438
      vertex -2.0073909759521484 -2.229434013366699 2
      vertex -2.0073909759521484 -2.229434013366699 0.0008459091186523438
    endloop
  endfacet
  facet normal -0.20791140472882785 0.9781476615438416 0
    outer loop
      vertex 0.9270505905151367 -2.8531694412231445 0.0008459091186523438
      vertex 0.3135852813720703 -2.983565330505371 2
      vertex 0.9270505905151367 -2.8531694412231445 2
    endloop
  endfacet
  facet normal -0.20791140472882785 0.9781476615438416 0
    outer loop
      vertex 0.3135852813720703 -2.983565330505371 2
      vertex 0.9270505905151367 -2.8531694412231445 0.0008459091186523438
      vertex 0.3135852813720703 -2.983565330505371 0.0008459091186523438
    endloop
  endfacet
  facet normal -0.40673672583179743 0.9135454207972525 0
    outer loop
      vertex 1.5 -2.5980758666992188 0.0008459091186523438
      vertex 0.9270505905151367 -2.8531694412231445 2
      vertex 1.5 -2.5980758666992188 2
    endloop
  endfacet
  facet normal -0.40673672583179743 0.9135454207972525 0
    outer loop
      vertex 0.9270505905151367 -2.8531694412231445 2
      vertex 1.5 -2.5980758666992188 0.0008459091186523438
      vertex 0.9270505905151367 -2.8531694412231445 0.0008459091186523438
    endloop
  endfacet
  facet normal -0.20791140472882785 -0.9781476615438416 0
    outer loop
      vertex 0.3135852813720703 2.983565330505371 0.0008459091186523438
      vertex 0.9270505905151367 2.8531694412231445 2
      vertex 0.3135852813720703 2.983565330505371 2
    endloop
  endfacet
  facet normal -0.20791140472882785 -0.9781476615438416 0
    outer loop
      vertex 0.9270505905151367 2.8531694412231445 2
      vertex 0.3135852813720703 2.983565330505371 0.0008459091186523438
      vertex 0.9270505905151367 2.8531694412231445 0.0008459091186523438
    endloop
  endfacet
  facet normal -0.9945218381929021 0.10452900725354299 0
    outer loop
      vertex 2.9344425201416016 -0.6237344741821289 0.0008459091186523438
      vertex 3 0 2
      vertex 3 0 0.0008459091186523438
    endloop
  endfacet
  facet normal -0.9945218381929021 0.10452900725354299 0
    outer loop
      vertex 3 0 2
      vertex 2.9344425201416016 -0.6237344741821289 0.0008459091186523438
      vertex 2.9344425201416016 -0.6237344741821289 2
    endloop
  endfacet
  facet normal 0.9510563818202772 0.3090174082457539 0
    outer loop
      vertex -2.740635871887207 -1.2202091217041016 2
      vertex -2.9344425201416016 -0.6237344741821289 0.0008459091186523438
      vertex -2.9344425201416016 -0.6237344741821289 2
    endloop
  endfacet
  facet normal 0.9510563818202772 0.3090174082457539 0
    outer loop
      vertex -2.9344425201416016 -0.6237344741821289 0.0008459091186523438
      vertex -2.740635871887207 -1.2202091217041016 2
      vertex -2.740635871887207 -1.2202091217041016 0.0008459091186523438
    endloop
  endfacet
  facet normal -0.40673672583179743 -0.9135454207972525 0
    outer loop
      vertex 0.9270505905151367 2.8531694412231445 0.0008459091186523438
      vertex 1.5 2.5980758666992188 2
      vertex 0.9270505905151367 2.8531694412231445 2
    endloop
  endfacet
  facet normal -0.40673672583179743 -0.9135454207972525 0
    outer loop
      vertex 1.5 2.5980758666992188 2
      vertex 0.9270505905151367 2.8531694412231445 0.0008459091186523438
      vertex 1.5 2.5980758666992188 0.0008459091186523438
    endloop
  endfacet
  facet normal 0.20791140472882785 0.9781476615438416 0
    outer loop
      vertex -0.3135852813720703 -2.983565330505371 0.0008459091186523438
      vertex -0.9270505905151367 -2.8531694412231445 2
      vertex -0.3135852813720703 -2.983565330505371 2
    endloop
  endfacet
  facet normal 0.20791140472882785 0.9781476615438416 0
    outer loop
      vertex -0.9270505905151367 -2.8531694412231445 2
      vertex -0.3135852813720703 -2.983565330505371 0.0008459091186523438
      vertex -0.9270505905151367 -2.8531694412231445 0.0008459091186523438
    endloop
  endfacet
  facet normal 0.40673672583179743 0.9135454207972525 0
    outer loop
      vertex -0.9270505905151367 -2.8531694412231445 0.0008459091186523438
      vertex -1.5 -2.5980758666992188 2
      vertex -0.9270505905151367 -2.8531694412231445 2
    endloop
  endfacet
  facet normal 0.40673672583179743 0.9135454207972525 0
    outer loop
      vertex -1.5 -2.5980758666992188 2
      vertex -0.9270505905151367 -2.8531694412231445 0.0008459091186523438
      vertex -1.5 -2.5980758666992188 0.0008459091186523438
    endloop
  endfacet
  facet normal 0.9945218381929021 -0.10452900725354299 0
    outer loop
      vertex -3 0 2
      vertex -2.9344425201416016 0.6237344741821289 0.0008459091186523438
      vertex -2.9344425201416016 0.6237344741821289 2
    endloop
  endfacet
  facet normal 0.9945218381929021 -0.10452900725354299 0
    outer loop
      vertex -2.9344425201416016 0.6237344741821289 0.0008459091186523438
      vertex -3 0 2
      vertex -3 0 0.0008459091186523438
    endloop
  endfacet
  facet normal 0.8660256005332054 0.49999965922098494 0
    outer loop
      vertex -2.4270505905151367 -1.7633552551269531 2
      vertex -2.740635871887207 -1.2202091217041016 0.0008459091186523438
      vertex -2.740635871887207 -1.2202091217041016 2
    endloop
  endfacet
  facet normal 0.8660256005332054 0.49999965922098494 0
    outer loop
      vertex -2.740635871887207 -1.2202091217041016 0.0008459091186523438
      vertex -2.4270505905151367 -1.7633552551269531 2
      vertex -2.4270505905151367 -1.7633552551269531 0.0008459091186523438
    endloop
  endfacet
  facet normal 0.7431444958978269 -0.669130972393869 0
    outer loop
      vertex -2.4270505905151367 1.7633552551269531 2
      vertex -2.0073909759521484 2.229434013366699 0.0008459091186523438
      vertex -2.0073909759521484 2.229434013366699 2
    endloop
  endfacet
  facet normal 0.7431444958978269 -0.669130972393869 0
    outer loop
      vertex -2.0073909759521484 2.229434013366699 0.0008459091186523438
      vertex -2.4270505905151367 1.7633552551269531 2
      vertex -2.4270505905151367 1.7633552551269531 0.0008459091186523438
    endloop
  endfacet
  facet normal -0.8660256005332054 -0.49999965922098494 0
    outer loop
      vertex 2.740635871887207 1.2202091217041016 0.0008459091186523438
      vertex 2.4270505905151367 1.7633552551269531 2
      vertex 2.4270505905151367 1.7633552551269531 0.0008459091186523438
    endloop
  endfacet
  facet normal -0.8660256005332054 -0.49999965922098494 0
    outer loop
      vertex 2.4270505905151367 1.7633552551269531 2
      vertex 2.740635871887207 1.2202091217041016 0.0008459091186523438
      vertex 2.740635871887207 1.2202091217041016 2
    endloop
  endfacet
  facet normal 0.9510563818202772 -0.3090174082457539 0
    outer loop
      vertex -2.9344425201416016 0.6237344741821289 2
      vertex -2.740635871887207 1.2202091217041016 0.0008459091186523438
      vertex -2.740635871887207 1.2202091217041016 2
    endloop
  endfacet
  facet normal 0.9510563818202772 -0.3090174082457539 0
    outer loop
      vertex -2.740635871887207 1.2202091217041016 0.0008459091186523438
      vertex -2.9344425201416016 0.6237344741821289 2
      vertex -2.9344425201416016 0.6237344741821289 0.0008459091186523438
    endloop
  endfacet
  facet normal 0 1 0
    outer loop
      vertex -0.5 3.897113800048828 0.0008459091186523438
      vertex -1 3.897113800048828 0.39999961853027344
      vertex -0.5 3.897113800048828 0.39999961853027344
    endloop
  endfacet
  facet normal 0 1 0
    outer loop
      vertex -1 3.897113800048828 0.39999961853027344
      vertex -0.5 3.897113800048828 0.0008459091186523438
      vertex -1 3.897113800048828 0.0008459091186523438
    endloop
  endfacet
  facet normal 0 1 0
    outer loop
      vertex 1 3.897113800048828 0.0008459091186523438
      vertex 0.5 3.897113800048828 0.39999961853027344
      vertex 1 3.897113800048828 0.39999961853027344
    endloop
  endfacet
  facet normal 0 1 0
    outer loop
      vertex 0.5 3.897113800048828 0.39999961853027344
      vertex 1 3.897113800048828 0.0008459091186523438
      vertex 0.5 3.897113800048828 0.0008459091186523438
    endloop
  endfacet
  facet normal 0 1 0
    outer loop
      vertex 1 3.897113800048828 0.39999961853027344
      vertex 2.25 3.897113800048828 2
      vertex 2 3.897113800048828 0.39999961853027344
    endloop
  endfacet
  facet normal 0 1 0
    outer loop
      vertex 2.25 3.897113800048828 0.0008459091186523438
      vertex 2 3.897113800048828 0.39999961853027344
      vertex 2.25 3.897113800048828 2
    endloop
  endfacet
  facet normal 0 1 0
    outer loop
      vertex 2 3.897113800048828 0.39999961853027344
      vertex 2.25 3.897113800048828 0.0008459091186523438
      vertex 2 3.897113800048828 0.0008459091186523438
    endloop
  endfacet
  facet normal 0 1 0
    outer loop
      vertex 0.5 3.897113800048828 0.39999961853027344
      vertex 2.25 3.897113800048828 2
      vertex 1 3.897113800048828 0.39999961853027344
    endloop
  endfacet
  facet normal 0 1 0
    outer loop
      vertex 2.25 3.897113800048828 2
      vertex 0.5 3.897113800048828 0.39999961853027344
      vertex -2.25 3.897113800048828 2
    endloop
  endfacet
  facet normal 0 1 0
    outer loop
      vertex -0.5 3.897113800048828 0.39999961853027344
      vertex -2.25 3.897113800048828 2
      vertex 0.5 3.897113800048828 0.39999961853027344
    endloop
  endfacet
  facet normal 0 1 0
    outer loop
      vertex -1 3.897113800048828 0.39999961853027344
      vertex -2.25 3.897113800048828 2
      vertex -0.5 3.897113800048828 0.39999961853027344
    endloop
  endfacet
  facet normal 0 1 0
    outer loop
      vertex -2 3.897113800048828 0.39999961853027344
      vertex -2.25 3.897113800048828 2
      vertex -1 3.897113800048828 0.39999961853027344
    endloop
  endfacet
  facet normal 0 1 0
    outer loop
      vertex -2.25 3.897113800048828 0.0008459091186523438
      vertex -2 3.897113800048828 0.39999961853027344
      vertex -2 3.897113800048828 0.0008459091186523438
    endloop
  endfacet
  facet normal 0 1 0
    outer loop
      vertex -2 3.897113800048828 0.39999961853027344
      vertex -2.25 3.897113800048828 0.0008459091186523438
      vertex -2.25 3.897113800048828 2
    endloop
  endfacet
  facet normal -0.8660253750632597 -0.5000000497465381 0
    outer loop
      vertex -2.25 -3.897113800048828 0.0008459091186523438
      vertex -4.5 0 2
      vertex -4.5 0 0.0008459091186523438
    endloop
  endfacet
  facet normal -0.8660253750632597 -0.5000000497465381 0
    outer loop
      vertex -4.5 0 2
      vertex -2.25 -3.897113800048828 0.0008459091186523438
      vertex -2.25 -3.897113800048828 2
    endloop
  endfacet
  facet normal 0.8660253750632597 0.5000000497465381 0
    outer loop
      vertex 4.5 0 2
      vertex 2.25 3.897113800048828 0.0008459091186523438
      vertex 2.25 3.897113800048828 2
    endloop
  endfacet
  facet normal 0.8660253750632597 0.5000000497465381 0
    outer loop
      vertex 2.25 3.897113800048828 0.0008459091186523438
      vertex 4.5 0 2
      vertex 4.5 0 0.0008459091186523438
    endloop
  endfacet
  facet normal 0 -1 0
    outer loop
      vertex -2.25 -3.897113800048828 0.0008459091186523438
      vertex 2.25 -3.897113800048828 2
      vertex -2.25 -3.897113800048828 2
    endloop
  endfacet
  facet normal 0 -1 0
    outer loop
      vertex 2.25 -3.897113800048828 2
      vertex -2.25 -3.897113800048828 0.0008459091186523438
      vertex 2.25 -3.897113800048828 0.0008459091186523438
    endloop
  endfacet
  facet normal -0.8660253750632597 0.5000000497465381 0
    outer loop
      vertex -4.5 0 0.0008459091186523438
      vertex -2.25 3.897113800048828 2
      vertex -2.25 3.897113800048828 0.0008459091186523438
    endloop
  endfacet
  facet normal -0.8660253750632597 0.5000000497465381 0
    outer loop
      vertex -2.25 3.897113800048828 2
      vertex -4.5 0 0.0008459091186523438
      vertex -4.5 0 2
    endloop
  endfacet
  facet normal 0 0 1
    outer loop
      vertex 4.5 0 2
      vertex 2.9344425201416016 0.6237344741821289 2
      vertex 3 0 2
    endloop
  endfacet
  facet normal 0 0 1
    outer loop
      vertex 4.5 0 2
      vertex 2.740635871887207 1.2202091217041016 2
      vertex 2.9344425201416016 0.6237344741821289 2
    endloop
  endfacet
  facet normal 0 0 1
    outer loop
      vertex 4.5 0 2
      vertex 2.4270505905151367 1.7633552551269531 2
      vertex 2.740635871887207 1.2202091217041016 2
    endloop
  endfacet
  facet normal 0 0 1
    outer loop
      vertex 2.25 3.897113800048828 2
      vertex 2.4270505905151367 1.7633552551269531 2
      vertex 4.5 0 2
    endloop
  endfacet
  facet normal 0 0 1
    outer loop
      vertex 2.25 3.897113800048828 2
      vertex 2.0073909759521484 2.229434013366699 2
      vertex 2.4270505905151367 1.7633552551269531 2
    endloop
  endfacet
  facet normal 0 0 1
    outer loop
      vertex 2.25 3.897113800048828 2
      vertex 1.5 2.5980758666992188 2
      vertex 2.0073909759521484 2.229434013366699 2
    endloop
  endfacet
  facet normal 0 0 1
    outer loop
      vertex 2.25 3.897113800048828 2
      vertex 0.9270505905151367 2.8531694412231445 2
      vertex 1.5 2.5980758666992188 2
    endloop
  endfacet
  facet normal 0 0 1
    outer loop
      vertex 2.25 3.897113800048828 2
      vertex 0.3135852813720703 2.983565330505371 2
      vertex 0.9270505905151367 2.8531694412231445 2
    endloop
  endfacet
  facet normal 0 0 1
    outer loop
      vertex 2.25 3.897113800048828 2
      vertex -0.3135852813720703 2.983565330505371 2
      vertex 0.3135852813720703 2.983565330505371 2
    endloop
  endfacet
  facet normal 0 0 1
    outer loop
      vertex -2.25 3.897113800048828 2
      vertex -0.3135852813720703 2.983565330505371 2
      vertex 2.25 3.897113800048828 2
    endloop
  endfacet
  facet normal 0 0 1
    outer loop
      vertex -0.3135852813720703 2.983565330505371 2
      vertex -2.25 3.897113800048828 2
      vertex -0.9270505905151367 2.8531694412231445 2
    endloop
  endfacet
  facet normal 0 0 1
    outer loop
      vertex -2.25 3.897113800048828 2
      vertex -1.5 2.5980758666992188 2
      vertex -0.9270505905151367 2.8531694412231445 2
    endloop
  endfacet
  facet normal 0 0 1
    outer loop
      vertex -2.25 3.897113800048828 2
      vertex -2.0073909759521484 2.229434013366699 2
      vertex -1.5 2.5980758666992188 2
    endloop
  endfacet
  facet normal 0 0 1
    outer loop
      vertex -2.25 3.897113800048828 2
      vertex -2.4270505905151367 1.7633552551269531 2
      vertex -2.0073909759521484 2.229434013366699 2
    endloop
  endfacet
  facet normal 0 0 1
    outer loop
      vertex -2.25 3.897113800048828 2
      vertex -2.740635871887207 1.2202091217041016 2
      vertex -2.4270505905151367 1.7633552551269531 2
    endloop
  endfacet
  facet normal 0 0 1
    outer loop
      vertex -4.5 0 2
      vertex -2.740635871887207 1.2202091217041016 2
      vertex -2.25 3.897113800048828 2
    endloop
  endfacet
  facet normal 0 0 1
    outer loop
      vertex -2.9344425201416016 0.6237344741821289 2
      vertex -4.5 0 2
      vertex -3 0 2
    endloop
  endfacet
  facet normal 0 0 1
    outer loop
      vertex -2.740635871887207 1.2202091217041016 2
      vertex -4.5 0 2
      vertex -2.9344425201416016 0.6237344741821289 2
    endloop
  endfacet
  facet normal 0 0 1
    outer loop
      vertex 2.9344425201416016 -0.6237344741821289 2
      vertex 4.5 0 2
      vertex 3 0 2
    endloop
  endfacet
  facet normal 0 0 1
    outer loop
      vertex 2.740635871887207 -1.2202091217041016 2
      vertex 4.5 0 2
      vertex 2.9344425201416016 -0.6237344741821289 2
    endloop
  endfacet
  facet normal 0 0 1
    outer loop
      vertex 2.4270505905151367 -1.7633552551269531 2
      vertex 4.5 0 2
      vertex 2.740635871887207 -1.2202091217041016 2
    endloop
  endfacet
  facet normal 0 0 1
    outer loop
      vertex 2.4270505905151367 -1.7633552551269531 2
      vertex 2.25 -3.897113800048828 2
      vertex 4.5 0 2
    endloop
  endfacet
  facet normal 0 0 1
    outer loop
      vertex 2.0073909759521484 -2.229434013366699 2
      vertex 2.25 -3.897113800048828 2
      vertex 2.4270505905151367 -1.7633552551269531 2
    endloop
  endfacet
  facet normal 0 0 1
    outer loop
      vertex 1.5 -2.5980758666992188 2
      vertex 2.25 -3.897113800048828 2
      vertex 2.0073909759521484 -2.229434013366699 2
    endloop
  endfacet
  facet normal 0 0 1
    outer loop
      vertex 0.9270505905151367 -2.8531694412231445 2
      vertex 2.25 -3.897113800048828 2
      vertex 1.5 -2.5980758666992188 2
    endloop
  endfacet
  facet normal 0 0 1
    outer loop
      vertex 0.3135852813720703 -2.983565330505371 2
      vertex 2.25 -3.897113800048828 2
      vertex 0.9270505905151367 -2.8531694412231445 2
    endloop
  endfacet
  facet normal 0 0 1
    outer loop
      vertex -0.3135852813720703 -2.983565330505371 2
      vertex 2.25 -3.897113800048828 2
      vertex 0.3135852813720703 -2.983565330505371 2
    endloop
  endfacet
  facet normal 0 0 1
    outer loop
      vertex -2.25 -3.897113800048828 2
      vertex -0.3135852813720703 -2.983565330505371 2
      vertex -0.9270505905151367 -2.8531694412231445 2
    endloop
  endfacet
  facet normal 0 0 1
    outer loop
      vertex -0.3135852813720703 -2.983565330505371 2
      vertex -2.25 -3.897113800048828 2
      vertex 2.25 -3.897113800048828 2
    endloop
  endfacet
  facet normal 0 0 1
    outer loop
      vertex -1.5 -2.5980758666992188 2
      vertex -2.25 -3.897113800048828 2
      vertex -0.9270505905151367 -2.8531694412231445 2
    endloop
  endfacet
  facet normal 0 0 1
    outer loop
      vertex -2.0073909759521484 -2.229434013366699 2
      vertex -2.25 -3.897113800048828 2
      vertex -1.5 -2.5980758666992188 2
    endloop
  endfacet
  facet normal 0 0 1
    outer loop
      vertex -2.4270505905151367 -1.7633552551269531 2
      vertex -2.25 -3.897113800048828 2
      vertex -2.0073909759521484 -2.229434013366699 2
    endloop
  endfacet
  facet normal 0 0 1
    outer loop
      vertex -2.740635871887207 -1.2202091217041016 2
      vertex -2.25 -3.897113800048828 2
      vertex -2.4270505905151367 -1.7633552551269531 2
    endloop
  endfacet
  facet normal 0 0 1
    outer loop
      vertex -4.5 0 2
      vertex -2.740635871887207 -1.2202091217041016 2
      vertex -2.9344425201416016 -0.6237344741821289 2
    endloop
  endfacet
  facet normal 0 0 1
    outer loop
      vertex -2.740635871887207 -1.2202091217041016 2
      vertex -4.5 0 2
      vertex -2.25 -3.897113800048828 2
    endloop
  endfacet
  facet normal 0 0 1
    outer loop
      vertex -4.5 0 2
      vertex -2.9344425201416016 -0.6237344741821289 2
      vertex -3 0 2
    endloop
  endfacet
  facet normal 0.8660253750632597 -0.5000000497465381 0
    outer loop
      vertex 2.25 -3.897113800048828 2
      vertex 4.5 0 0.0008459091186523438
      vertex 4.5 0 2
    endloop
  endfacet
  facet normal 0.8660253750632597 -0.5000000497465381 0
    outer loop
      vertex 4.5 0 0.0008459091186523438
      vertex 2.25 -3.897113800048828 2
      vertex 2.25 -3.897113800048828 0.0008459091186523438
    endloop
  endfacet
  facet normal 1 0 0
    outer loop
      vertex -1 3.897113800048828 0.39999961853027344
      vertex -1 25.5 0.0008459091186523438
      vertex -1 25.5 0.39999961853027344
    endloop
  endfacet
  facet normal 1 0 0
    outer loop
      vertex -1 25.5 0.0008459091186523438
      vertex -1 3.897113800048828 0.39999961853027344
      vertex -1 3.897113800048828 0.0008459091186523438
    endloop
  endfacet
  facet normal 0 0 1
    outer loop
      vertex -2 25.5 0.39999961853027344
      vertex -1 3.897113800048828 0.39999961853027344
      vertex -1 25.5 0.39999961853027344
    endloop
  endfacet
  facet normal 0 0 1
    outer loop
      vertex -1 3.897113800048828 0.39999961853027344
      vertex -2 25.5 0.39999961853027344
      vertex -2 3.897113800048828 0.39999961853027344
    endloop
  endfacet
  facet normal -1 0 0
    outer loop
      vertex -2 3.897113800048828 0.0008459091186523438
      vertex -2 25.5 0.39999961853027344
      vertex -2 25.5 0.0008459091186523438
    endloop
  endfacet
  facet normal -1 0 0
    outer loop
      vertex -2 25.5 0.39999961853027344
      vertex -2 3.897113800048828 0.0008459091186523438
      vertex -2 3.897113800048828 0.39999961853027344
    endloop
  endfacet
  facet normal 0 1 0
    outer loop
      vertex -1 25.5 0.0008459091186523438
      vertex -2 25.5 0.39999961853027344
      vertex -1 25.5 0.39999961853027344
    endloop
  endfacet
  facet normal 0 1 0
    outer loop
      vertex -2 25.5 0.39999961853027344
      vertex -1 25.5 0.0008459091186523438
      vertex -2 25.5 0.0008459091186523438
    endloop
  endfacet
  facet normal 1 0 0
    outer loop
      vertex 0.5 3.897113800048828 0.39999961853027344
      vertex 0.5 25.5 0.0008459091186523438
      vertex 0.5 25.5 0.39999961853027344
    endloop
  endfacet
  facet normal 1 0 0
    outer loop
      vertex 0.5 25.5 0.0008459091186523438
      vertex 0.5 3.897113800048828 0.39999961853027344
      vertex 0.5 3.897113800048828 0.0008459091186523438
    endloop
  endfacet
  facet normal 0 0 1
    outer loop
      vertex -0.5 25.5 0.39999961853027344
      vertex 0.5 3.897113800048828 0.39999961853027344
      vertex 0.5 25.5 0.39999961853027344
    endloop
  endfacet
  facet normal 0 0 1
    outer loop
      vertex 0.5 3.897113800048828 0.39999961853027344
      vertex -0.5 25.5 0.39999961853027344
      vertex -0.5 3.897113800048828 0.39999961853027344
    endloop
  endfacet
  facet normal -1 0 0
    outer loop
      vertex -0.5 3.897113800048828 0.0008459091186523438
      vertex -0.5 25.5 0.39999961853027344
      vertex -0.5 25.5 0.0008459091186523438
    endloop
  endfacet
  facet normal -1 0 0
    outer loop
      vertex -0.5 25.5 0.39999961853027344
      vertex -0.5 3.897113800048828 0.0008459091186523438
      vertex -0.5 3.897113800048828 0.39999961853027344
    endloop
  endfacet
  facet normal 0 1 0
    outer loop
      vertex 0.5 25.5 0.0008459091186523438
      vertex -0.5 25.5 0.39999961853027344
      vertex 0.5 25.5 0.39999961853027344
    endloop
  endfacet
  facet normal 0 1 0
    outer loop
      vertex -0.5 25.5 0.39999961853027344
      vertex 0.5 25.5 0.0008459091186523438
      vertex -0.5 25.5 0.0008459091186523438
    endloop
  endfacet
  facet normal 1 0 0
    outer loop
      vertex 2 3.897113800048828 0.39999961853027344
      vertex 2 25.5 0.0008459091186523438
      vertex 2 25.5 0.39999961853027344
    endloop
  endfacet
  facet normal 1 0 0
    outer loop
      vertex 2 25.5 0.0008459091186523438
      vertex 2 3.897113800048828 0.39999961853027344
      vertex 2 3.897113800048828 0.0008459091186523438
    endloop
  endfacet
  facet normal 0 0 1
    outer loop
      vertex 1 25.5 0.39999961853027344
      vertex 2 3.897113800048828 0.39999961853027344
      vertex 2 25.5 0.39999961853027344
    endloop
  endfacet
  facet normal 0 0 1
    outer loop
      vertex 2 3.897113800048828 0.39999961853027344
      vertex 1 25.5 0.39999961853027344
      vertex 1 3.897113800048828 0.39999961853027344
    endloop
  endfacet
  facet normal -1 0 0
    outer loop
      vertex 1 3.897113800048828 0.0008459091186523438
      vertex 1 25.5 0.39999961853027344
      vertex 1 25.5 0.0008459091186523438
    endloop
  endfacet
  facet normal -1 0 0
    outer loop
      vertex 1 25.5 0.39999961853027344
      vertex 1 3.897113800048828 0.0008459091186523438
      vertex 1 3.897113800048828 0.39999961853027344
    endloop
  endfacet
  facet normal 0 1 0
    outer loop
      vertex 2 25.5 0.0008459091186523438
      vertex 1 25.5 0.39999961853027344
      vertex 2 25.5 0.39999961853027344
    endloop
  endfacet
  facet normal 0 1 0
    outer loop
      vertex 1 25.5 0.39999961853027344
      vertex 2 25.5 0.0008459091186523438
      vertex 1 25.5 0.0008459091186523438
    endloop
  endfacet
endsolid OpenSCAD_Model
