solid OpenSCAD_Model
  facet normal 0.841879 0.539666 0
    outer loop
      vertex 11.7352 8.51587 -1
      vertex 11.7307 8.52289 -1.4
      vertex 11.7307 8.52289 -1.00001
    endloop
  endfacet
  facet normal 0.844326 0.535831 -9.48366e-05
    outer loop
      vertex 12.6875 7.0153 -1
      vertex 11.7307 8.52289 -1.4
      vertex 11.7352 8.51587 -1
    endloop
  endfacet
  facet normal 0.845045 0.534695 -0
    outer loop
      vertex 12.7064 6.98543 -1.4
      vertex 12.6875 7.0153 -1
      vertex 12.7064 6.98543 -1.00004
    endloop
  endfacet
  facet normal 0.844328 0.535826 -0.000118298
    outer loop
      vertex 12.6875 7.0153 -1
      vertex 12.7064 6.98543 -1.4
      vertex 11.7307 8.52289 -1.4
    endloop
  endfacet
  facet normal 0.368128 0.929775 -9.38525e-07
    outer loop
      vertex 4.48075 13.7903 -1.4
      vertex 4.4954 13.7845 -1
      vertex 6.1424 13.1324 -1
    endloop
  endfacet
  facet normal 0.367301 0.930102 -0
    outer loop
      vertex 6.1738 13.12 -1.4
      vertex 6.1424 13.1324 -1
      vertex 6.1738 13.12 -1.00004
    endloop
  endfacet
  facet normal 0.368112 0.929781 7.35895e-05
    outer loop
      vertex 4.48075 13.7903 -1.4
      vertex 6.1424 13.1324 -1
      vertex 6.1738 13.12 -1.4
    endloop
  endfacet
  facet normal 0.368106 0.929784 0
    outer loop
      vertex 4.4954 13.7845 -1
      vertex 4.48075 13.7903 -1.4
      vertex 4.48075 13.7903 -1.00002
    endloop
  endfacet
  facet normal -0.368119 0.929779 -2.16012e-05
    outer loop
      vertex -6.1738 13.12 -1.4
      vertex -6.15387 13.1279 -1
      vertex -4.50834 13.7794 -1
    endloop
  endfacet
  facet normal -0.367435 0.930049 0
    outer loop
      vertex -4.48075 13.7903 -1.4
      vertex -4.50834 13.7794 -1
      vertex -4.48075 13.7903 -1.00003
    endloop
  endfacet
  facet normal -0.368112 0.929781 -5.40004e-05
    outer loop
      vertex -6.1738 13.12 -1.4
      vertex -4.50834 13.7794 -1
      vertex -4.48075 13.7903 -1.4
    endloop
  endfacet
  facet normal -0.368494 0.92963 0
    outer loop
      vertex -6.15387 13.1279 -1
      vertex -6.1738 13.12 -1.4
      vertex -6.1738 13.12 -1.00002
    endloop
  endfacet
  facet normal 0.998028 -0.0627768 0
    outer loop
      vertex 14.3879 -1.78217 -1
      vertex 14.5 0 -1.4
      vertex 14.5 0 -1
    endloop
  endfacet
  facet normal 0.998048 -0.062449 0
    outer loop
      vertex 14.3857 -1.81733 -1.4
      vertex 14.3879 -1.78217 -1
      vertex 14.3857 -1.81733 -1.00004
    endloop
  endfacet
  facet normal 0.998028 -0.0627704 2.83675e-05
    outer loop
      vertex 14.3879 -1.78217 -1
      vertex 14.3857 -1.81733 -1.4
      vertex 14.5 0 -1.4
    endloop
  endfacet
  facet normal 0.368106 -0.929784 0
    outer loop
      vertex 4.48075 -13.7903 -1.4
      vertex 4.4954 -13.7845 -1
      vertex 4.48075 -13.7903 -1.00002
    endloop
  endfacet
  facet normal 0.368128 -0.929775 -9.38525e-07
    outer loop
      vertex 4.4954 -13.7845 -1
      vertex 4.48075 -13.7903 -1.4
      vertex 6.1424 -13.1324 -1
    endloop
  endfacet
  facet normal 0.368112 -0.929781 7.35895e-05
    outer loop
      vertex 6.1738 -13.12 -1.4
      vertex 6.1424 -13.1324 -1
      vertex 4.48075 -13.7903 -1.4
    endloop
  endfacet
  facet normal 0.367301 -0.930102 0
    outer loop
      vertex 6.1424 -13.1324 -1
      vertex 6.1738 -13.12 -1.4
      vertex 6.1738 -13.12 -1.00004
    endloop
  endfacet
  facet normal 0.982741 0.184987 0
    outer loop
      vertex 14.0485 3.58475 -1
      vertex 14.0445 3.606 -1.4
      vertex 14.0445 3.606 -1.00003
    endloop
  endfacet
  facet normal 0.982282 0.18741 0.000133362
    outer loop
      vertex 14.3799 1.84777 -1
      vertex 14.0445 3.606 -1.4
      vertex 14.0485 3.58475 -1
    endloop
  endfacet
  facet normal 0.982327 0.187171 -0
    outer loop
      vertex 14.3857 1.81733 -1.4
      vertex 14.3799 1.84777 -1
      vertex 14.3857 1.81733 -1.00004
    endloop
  endfacet
  facet normal 0.982288 0.187378 -1.62582e-05
    outer loop
      vertex 14.3799 1.84777 -1
      vertex 14.3857 1.81733 -1.4
      vertex 14.0445 3.606 -1.4
    endloop
  endfacet
  facet normal 0.68479 0.72874 -0
    outer loop
      vertex 10.57 9.92593 -1.4
      vertex 10.5506 9.94416 -1
      vertex 10.57 9.92593 -1.00003
    endloop
  endfacet
  facet normal 0.684556 0.72896 -2.1379e-05
    outer loop
      vertex 10.5506 9.94416 -1
      vertex 10.57 9.92593 -1.4
      vertex 9.26239 11.1539 -1
    endloop
  endfacet
  facet normal 0.684549 0.728967 -6.77464e-05
    outer loop
      vertex 9.24265 11.1724 -1.4
      vertex 9.26239 11.1539 -1
      vertex 10.57 9.92593 -1.4
    endloop
  endfacet
  facet normal 0.683818 0.729652 0
    outer loop
      vertex 9.26239 11.1539 -1
      vertex 9.24265 11.1724 -1.4
      vertex 9.24265 11.1724 -1.00003
    endloop
  endfacet
  facet normal 0.123509 0.992344 -0
    outer loop
      vertex 2.71703 14.2432 -1.4
      vertex 2.69614 14.2458 -1
      vertex 2.71703 14.2432 -1.00003
    endloop
  endfacet
  facet normal 0.125358 0.992112 9.81111e-05
    outer loop
      vertex 2.69614 14.2458 -1
      vertex 2.71703 14.2432 -1.4
      vertex 0.94156 14.4675 -1
    endloop
  endfacet
  facet normal 0.125321 0.992116 -6.99486e-05
    outer loop
      vertex 0.910462 14.4714 -1.4
      vertex 0.94156 14.4675 -1
      vertex 2.71703 14.2432 -1.4
    endloop
  endfacet
  facet normal 0.124435 0.992228 0
    outer loop
      vertex 0.94156 14.4675 -1
      vertex 0.910462 14.4714 -1.4
      vertex 0.910462 14.4714 -1.00004
    endloop
  endfacet
  facet normal -0.13581 0.990735 0
    outer loop
      vertex -0.910462 14.4714 -1.4
      vertex -0.911921 14.4712 -1
      vertex -0.910462 14.4714 -1
    endloop
  endfacet
  facet normal -0.125314 0.992117 3.89775e-05
    outer loop
      vertex -0.911921 14.4712 -1
      vertex -0.910462 14.4714 -1.4
      vertex -2.68218 14.2476 -1
    endloop
  endfacet
  facet normal -0.125321 0.992116 5.31434e-06
    outer loop
      vertex -2.71703 14.2432 -1.4
      vertex -2.68218 14.2476 -1
      vertex -0.910462 14.4714 -1.4
    endloop
  endfacet
  facet normal -0.125261 0.992124 0
    outer loop
      vertex -2.68218 14.2476 -1
      vertex -2.71703 14.2432 -1.4
      vertex -2.71703 14.2432 -1.00004
    endloop
  endfacet
  facet normal -0.68458 0.728937 -0.000145492
    outer loop
      vertex -9.24265 11.1724 -1.4
      vertex -9.8732 10.5803 -1
      vertex -9.25317 11.1626 -1
    endloop
  endfacet
  facet normal -0.681624 0.731703 0
    outer loop
      vertex -9.24265 11.1724 -1.4
      vertex -9.25317 11.1626 -1
      vertex -9.24265 11.1724 -1.00001
    endloop
  endfacet
  facet normal -0.684523 0.728992 2.51907e-05
    outer loop
      vertex -9.8732 10.5803 -1
      vertex -9.24265 11.1724 -1.4
      vertex -10.0533 10.4112 -1.4
    endloop
  endfacet
  facet normal -0.684493 0.729019 0
    outer loop
      vertex -9.8732 10.5803 -1
      vertex -10.0533 10.4112 -1.4
      vertex -10.0533 10.4112 -1
    endloop
  endfacet
  facet normal 0.998048 0.062449 0
    outer loop
      vertex 14.3879 1.78217 -1
      vertex 14.3857 1.81733 -1.4
      vertex 14.3857 1.81733 -1.00004
    endloop
  endfacet
  facet normal 0.998028 0.0627768 -0
    outer loop
      vertex 14.5 0 -1.4
      vertex 14.3879 1.78217 -1
      vertex 14.5 0 -1
    endloop
  endfacet
  facet normal 0.998028 0.0627704 2.83675e-05
    outer loop
      vertex 14.3879 1.78217 -1
      vertex 14.5 0 -1.4
      vertex 14.3857 1.81733 -1.4
    endloop
  endfacet
  facet normal 0.589339 -0.807886 0
    outer loop
      vertex 7.76949 -12.2428 -1.4
      vertex 7.77936 -12.2356 -1
      vertex 7.76949 -12.2428 -1.00001
    endloop
  endfacet
  facet normal 0.587776 -0.809024 5.90634e-05
    outer loop
      vertex 7.77936 -12.2356 -1
      vertex 7.76949 -12.2428 -1.4
      vertex 9.21565 -11.1921 -1
    endloop
  endfacet
  facet normal 0.587816 -0.808994 -0.000165367
    outer loop
      vertex 9.24265 -11.1724 -1.4
      vertex 9.21565 -11.1921 -1
      vertex 7.76949 -12.2428 -1.4
    endloop
  endfacet
  facet normal 0.589416 -0.807829 0
    outer loop
      vertex 9.21565 -11.1921 -1
      vertex 9.24265 -11.1724 -1.4
      vertex 9.24265 -11.1724 -1.00003
    endloop
  endfacet
  facet normal 0.902616 -0.430448 0
    outer loop
      vertex 13.4753 -5.35144 -1
      vertex 13.4818 -5.33781 -1.4
      vertex 13.4818 -5.33781 -1.00002
    endloop
  endfacet
  facet normal 0.904832 -0.425769 0.000195449
    outer loop
      vertex 12.7209 -6.95467 -1
      vertex 13.4818 -5.33781 -1.4
      vertex 13.4753 -5.35144 -1
    endloop
  endfacet
  facet normal 0.904539 -0.426392 0
    outer loop
      vertex 12.7064 -6.98543 -1.4
      vertex 12.7209 -6.95467 -1
      vertex 12.7064 -6.98543 -1.00004
    endloop
  endfacet
  facet normal 0.904808 -0.425819 -5.37985e-05
    outer loop
      vertex 12.7209 -6.95467 -1
      vertex 12.7064 -6.98543 -1.4
      vertex 13.4818 -5.33781 -1.4
    endloop
  endfacet
  facet normal -0.125314 -0.992117 3.89775e-05
    outer loop
      vertex -0.910462 -14.4714 -1.4
      vertex -0.911921 -14.4712 -1
      vertex -2.68218 -14.2476 -1
    endloop
  endfacet
  facet normal -0.125261 -0.992124 0
    outer loop
      vertex -2.71703 -14.2432 -1.4
      vertex -2.68218 -14.2476 -1
      vertex -2.71703 -14.2432 -1.00004
    endloop
  endfacet
  facet normal -0.125321 -0.992116 5.31434e-06
    outer loop
      vertex -0.910462 -14.4714 -1.4
      vertex -2.68218 -14.2476 -1
      vertex -2.71703 -14.2432 -1.4
    endloop
  endfacet
  facet normal -0.13581 -0.990735 0
    outer loop
      vertex -0.911921 -14.4712 -1
      vertex -0.910462 -14.4714 -1.4
      vertex -0.910462 -14.4714 -1
    endloop
  endfacet
  facet normal 0.248639 -0.968596 -0.000164364
    outer loop
      vertex 4.48075 -13.7903 -1.4
      vertex 4.45842 -13.7961 -1
      vertex 2.74475 -14.236 -1
    endloop
  endfacet
  facet normal 0.251398 -0.967884 0
    outer loop
      vertex 2.71703 -14.2432 -1.4
      vertex 2.74475 -14.236 -1
      vertex 2.71703 -14.2432 -1.00003
    endloop
  endfacet
  facet normal 0.248718 -0.968576 0.000198244
    outer loop
      vertex 4.48075 -13.7903 -1.4
      vertex 2.74475 -14.236 -1
      vertex 2.71703 -14.2432 -1.4
    endloop
  endfacet
  facet normal 0.251398 -0.967884 0
    outer loop
      vertex 4.45842 -13.7961 -1
      vertex 4.48075 -13.7903 -1.4
      vertex 4.48075 -13.7903 -1.00002
    endloop
  endfacet
  facet normal 0.770323 0.637654 0
    outer loop
      vertex 10.5911 9.90044 -1
      vertex 10.57 9.92593 -1.4
      vertex 10.57 9.92593 -1.00003
    endloop
  endfacet
  facet normal 0.770517 0.63742 7.72472e-06
    outer loop
      vertex 11.7307 8.52289 -1.4
      vertex 10.5911 9.90044 -1
      vertex 11.7222 8.53316 -1
    endloop
  endfacet
  facet normal 0.770369 0.637598 -0
    outer loop
      vertex 11.7307 8.52289 -1.4
      vertex 11.7222 8.53316 -1
      vertex 11.7307 8.52289 -1.00001
    endloop
  endfacet
  facet normal 0.770512 0.637425 -2.45769e-05
    outer loop
      vertex 10.5911 9.90044 -1
      vertex 11.7307 8.52289 -1.4
      vertex 10.57 9.92593 -1.4
    endloop
  endfacet
  facet normal 0 1 0
    outer loop
      vertex -0.910462 14.4714 -1.4
      vertex -0.909621 14.4714 -1
      vertex 0.875133 14.4714 -1
    endloop
  endfacet
  facet normal 0 1 -0
    outer loop
      vertex 0.910462 14.4714 -1.4
      vertex 0.875133 14.4714 -1
      vertex 0.910462 14.4714 -1.00004
    endloop
  endfacet
  facet normal 0 1 0
    outer loop
      vertex -0.910462 14.4714 -1.4
      vertex 0.875133 14.4714 -1
      vertex 0.910462 14.4714 -1.4
    endloop
  endfacet
  facet normal 0 1 0
    outer loop
      vertex -0.909621 14.4714 -1
      vertex -0.910462 14.4714 -1.4
      vertex -0.910462 14.4714 -1
    endloop
  endfacet
  facet normal 0.251398 0.967884 -0
    outer loop
      vertex 4.48075 13.7903 -1.4
      vertex 4.45842 13.7961 -1
      vertex 4.48075 13.7903 -1.00002
    endloop
  endfacet
  facet normal 0.248639 0.968596 -0.000164364
    outer loop
      vertex 4.45842 13.7961 -1
      vertex 4.48075 13.7903 -1.4
      vertex 2.74475 14.236 -1
    endloop
  endfacet
  facet normal 0.248718 0.968576 0.000198244
    outer loop
      vertex 2.71703 14.2432 -1.4
      vertex 2.74475 14.236 -1
      vertex 4.48075 13.7903 -1.4
    endloop
  endfacet
  facet normal 0.251398 0.967884 0
    outer loop
      vertex 2.74475 14.236 -1
      vertex 2.71703 14.2432 -1.4
      vertex 2.71703 14.2432 -1.00003
    endloop
  endfacet
  facet normal 0.587776 0.809024 5.90634e-05
    outer loop
      vertex 7.76949 12.2428 -1.4
      vertex 7.77936 12.2356 -1
      vertex 9.21565 11.1921 -1
    endloop
  endfacet
  facet normal 0.589416 0.807829 -0
    outer loop
      vertex 9.24265 11.1724 -1.4
      vertex 9.21565 11.1921 -1
      vertex 9.24265 11.1724 -1.00003
    endloop
  endfacet
  facet normal 0.587816 0.808994 -0.000165367
    outer loop
      vertex 7.76949 12.2428 -1.4
      vertex 9.21565 11.1921 -1
      vertex 9.24265 11.1724 -1.4
    endloop
  endfacet
  facet normal 0.589339 0.807886 0
    outer loop
      vertex 7.77936 12.2356 -1
      vertex 7.76949 12.2428 -1.4
      vertex 7.76949 12.2428 -1.00001
    endloop
  endfacet
  facet normal 0.478294 0.8782 -0
    outer loop
      vertex 7.76949 12.2428 -1.4
      vertex 7.76288 12.2464 -1
      vertex 7.76949 12.2428 -1.00001
    endloop
  endfacet
  facet normal 0.481741 0.876314 7.39528e-05
    outer loop
      vertex 7.76288 12.2464 -1
      vertex 7.76949 12.2428 -1.4
      vertex 6.20486 13.1029 -1
    endloop
  endfacet
  facet normal 0.481738 0.876315 5.55588e-05
    outer loop
      vertex 6.1738 13.12 -1.4
      vertex 6.20486 13.1029 -1
      vertex 7.76949 12.2428 -1.4
    endloop
  endfacet
  facet normal 0.482287 0.876013 0
    outer loop
      vertex 6.20486 13.1029 -1
      vertex 6.1738 13.12 -1.4
      vertex 6.1738 13.12 -1.00004
    endloop
  endfacet
  facet normal -0.479729 0.877417 0
    outer loop
      vertex -6.1738 13.12 -1.4
      vertex -6.18642 13.1131 -1
      vertex -6.1738 13.12 -1.00002
    endloop
  endfacet
  facet normal -0.481787 0.876289 -8.43902e-05
    outer loop
      vertex -6.18642 13.1131 -1
      vertex -6.1738 13.12 -1.4
      vertex -7.73952 12.2592 -1
    endloop
  endfacet
  facet normal -0.481738 0.876315 0.000165258
    outer loop
      vertex -7.76949 12.2428 -1.4
      vertex -7.73952 12.2592 -1
      vertex -6.1738 13.12 -1.4
    endloop
  endfacet
  facet normal -0.480041 0.877246 0
    outer loop
      vertex -7.73952 12.2592 -1
      vertex -7.76949 12.2428 -1.4
      vertex -7.76949 12.2428 -1.00004
    endloop
  endfacet
  facet normal -0.587774 0.809025 -0.000121492
    outer loop
      vertex -9.24265 11.1724 -1.4
      vertex -9.2353 11.1778 -1
      vertex -7.79804 12.222 -1
    endloop
  endfacet
  facet normal -0.588845 0.808246 0
    outer loop
      vertex -7.76949 12.2428 -1.4
      vertex -7.79804 12.222 -1
      vertex -7.76949 12.2428 -1.00004
    endloop
  endfacet
  facet normal -0.587816 0.808994 0.000112313
    outer loop
      vertex -9.24265 11.1724 -1.4
      vertex -7.79804 12.222 -1
      vertex -7.76949 12.2428 -1.4
    endloop
  endfacet
  facet normal -0.592076 0.805882 0
    outer loop
      vertex -9.2353 11.1778 -1
      vertex -9.24265 11.1724 -1.4
      vertex -9.24265 11.1724 -1.00001
    endloop
  endfacet
  facet normal 0.982327 -0.187171 0
    outer loop
      vertex 14.3799 -1.84777 -1
      vertex 14.3857 -1.81733 -1.4
      vertex 14.3857 -1.81733 -1.00004
    endloop
  endfacet
  facet normal 0.982282 -0.18741 0.000133362
    outer loop
      vertex 14.0445 -3.606 -1.4
      vertex 14.3799 -1.84777 -1
      vertex 14.0485 -3.58475 -1
    endloop
  endfacet
  facet normal 0.982741 -0.184987 0
    outer loop
      vertex 14.0445 -3.606 -1.4
      vertex 14.0485 -3.58475 -1
      vertex 14.0445 -3.606 -1.00003
    endloop
  endfacet
  facet normal 0.982288 -0.187378 -1.62582e-05
    outer loop
      vertex 14.3799 -1.84777 -1
      vertex 14.0445 -3.606 -1.4
      vertex 14.3857 -1.81733 -1.4
    endloop
  endfacet
  facet normal 0.770369 -0.637598 0
    outer loop
      vertex 11.7222 -8.53316 -1
      vertex 11.7307 -8.52289 -1.4
      vertex 11.7307 -8.52289 -1.00001
    endloop
  endfacet
  facet normal 0.770517 -0.63742 7.72472e-06
    outer loop
      vertex 10.5911 -9.90044 -1
      vertex 11.7307 -8.52289 -1.4
      vertex 11.7222 -8.53316 -1
    endloop
  endfacet
  facet normal 0.770323 -0.637654 0
    outer loop
      vertex 10.57 -9.92593 -1.4
      vertex 10.5911 -9.90044 -1
      vertex 10.57 -9.92593 -1.00003
    endloop
  endfacet
  facet normal 0.770512 -0.637425 -2.45769e-05
    outer loop
      vertex 10.5911 -9.90044 -1
      vertex 10.57 -9.92593 -1.4
      vertex 11.7307 -8.52289 -1.4
    endloop
  endfacet
  facet normal 0.845045 -0.534695 0
    outer loop
      vertex 12.6875 -7.0153 -1
      vertex 12.7064 -6.98543 -1.4
      vertex 12.7064 -6.98543 -1.00004
    endloop
  endfacet
  facet normal 0.844326 -0.535831 -9.48366e-05
    outer loop
      vertex 11.7307 -8.52289 -1.4
      vertex 12.6875 -7.0153 -1
      vertex 11.7352 -8.51587 -1
    endloop
  endfacet
  facet normal 0.841879 -0.539666 0
    outer loop
      vertex 11.7307 -8.52289 -1.4
      vertex 11.7352 -8.51587 -1
      vertex 11.7307 -8.52289 -1.00001
    endloop
  endfacet
  facet normal 0.844328 -0.535826 -0.000118298
    outer loop
      vertex 12.6875 -7.0153 -1
      vertex 11.7307 -8.52289 -1.4
      vertex 12.7064 -6.98543 -1.4
    endloop
  endfacet
  facet normal -0.247617 -0.968858 0
    outer loop
      vertex -4.48075 -13.7903 -1.4
      vertex -4.45923 -13.7958 -1
      vertex -4.48075 -13.7903 -1.00003
    endloop
  endfacet
  facet normal -0.248688 -0.968584 6.14071e-05
    outer loop
      vertex -4.45923 -13.7958 -1
      vertex -4.48075 -13.7903 -1.4
      vertex -2.7467 -14.2355 -1
    endloop
  endfacet
  facet normal -0.248718 -0.968576 0.000196466
    outer loop
      vertex -2.71703 -14.2432 -1.4
      vertex -2.7467 -14.2355 -1
      vertex -4.48075 -13.7903 -1.4
    endloop
  endfacet
  facet normal -0.2512 -0.967935 0
    outer loop
      vertex -2.7467 -14.2355 -1
      vertex -2.71703 -14.2432 -1.4
      vertex -2.71703 -14.2432 -1.00004
    endloop
  endfacet
  facet normal 0.125358 -0.992112 9.81111e-05
    outer loop
      vertex 2.71703 -14.2432 -1.4
      vertex 2.69614 -14.2458 -1
      vertex 0.94156 -14.4675 -1
    endloop
  endfacet
  facet normal 0.124435 -0.992228 0
    outer loop
      vertex 0.910462 -14.4714 -1.4
      vertex 0.94156 -14.4675 -1
      vertex 0.910462 -14.4714 -1.00004
    endloop
  endfacet
  facet normal 0.125321 -0.992116 -6.99486e-05
    outer loop
      vertex 2.71703 -14.2432 -1.4
      vertex 0.94156 -14.4675 -1
      vertex 0.910462 -14.4714 -1.4
    endloop
  endfacet
  facet normal 0.123509 -0.992344 0
    outer loop
      vertex 2.69614 -14.2458 -1
      vertex 2.71703 -14.2432 -1.4
      vertex 2.71703 -14.2432 -1.00003
    endloop
  endfacet
  facet normal 0.684556 -0.72896 -2.1379e-05
    outer loop
      vertex 10.57 -9.92593 -1.4
      vertex 10.5506 -9.94416 -1
      vertex 9.26239 -11.1539 -1
    endloop
  endfacet
  facet normal 0.683818 -0.729652 0
    outer loop
      vertex 9.24265 -11.1724 -1.4
      vertex 9.26239 -11.1539 -1
      vertex 9.24265 -11.1724 -1.00003
    endloop
  endfacet
  facet normal 0.684549 -0.728967 -6.77464e-05
    outer loop
      vertex 10.57 -9.92593 -1.4
      vertex 9.26239 -11.1539 -1
      vertex 9.24265 -11.1724 -1.4
    endloop
  endfacet
  facet normal 0.68479 -0.72874 0
    outer loop
      vertex 10.5506 -9.94416 -1
      vertex 10.57 -9.92593 -1.4
      vertex 10.57 -9.92593 -1.00003
    endloop
  endfacet
  facet normal 0.904539 0.426392 0
    outer loop
      vertex 12.7209 6.95467 -1
      vertex 12.7064 6.98543 -1.4
      vertex 12.7064 6.98543 -1.00004
    endloop
  endfacet
  facet normal 0.904832 0.425769 0.000195449
    outer loop
      vertex 13.4818 5.33781 -1.4
      vertex 12.7209 6.95467 -1
      vertex 13.4753 5.35144 -1
    endloop
  endfacet
  facet normal 0.902616 0.430448 -0
    outer loop
      vertex 13.4818 5.33781 -1.4
      vertex 13.4753 5.35144 -1
      vertex 13.4818 5.33781 -1.00002
    endloop
  endfacet
  facet normal 0.904808 0.425819 -5.37985e-05
    outer loop
      vertex 12.7209 6.95467 -1
      vertex 13.4818 5.33781 -1.4
      vertex 12.7064 6.98543 -1.4
    endloop
  endfacet
  facet normal 0.952005 0.306082 0
    outer loop
      vertex 13.4886 5.31666 -1
      vertex 13.4818 5.33781 -1.4
      vertex 13.4818 5.33781 -1.00002
    endloop
  endfacet
  facet normal 0.951059 0.309008 0.000170802
    outer loop
      vertex 14.0354 3.63373 -1
      vertex 13.4818 5.33781 -1.4
      vertex 13.4886 5.31666 -1
    endloop
  endfacet
  facet normal 0.950146 0.311804 -0
    outer loop
      vertex 14.0445 3.606 -1.4
      vertex 14.0354 3.63373 -1
      vertex 14.0445 3.606 -1.00003
    endloop
  endfacet
  facet normal 0.951056 0.309017 0.000213901
    outer loop
      vertex 14.0354 3.63373 -1
      vertex 14.0445 3.606 -1.4
      vertex 13.4818 5.33781 -1.4
    endloop
  endfacet
  facet normal -0 0 1
    outer loop
      vertex 0.0837307 0.0785036 -1
      vertex 14.5 0 -1
      vertex 14.3879 1.78217 -1
    endloop
  endfacet
  facet normal 0 0 1
    outer loop
      vertex 0.0800781 0.130733 -1
      vertex 14.3879 1.78217 -1
      vertex 14.3799 1.84777 -1
    endloop
  endfacet
  facet normal 0 0 1
    outer loop
      vertex 0.0855579 -0.0261784 -1
      vertex 14.5 0 -1
      vertex 0.0855579 0.0261784 -1
    endloop
  endfacet
  facet normal 0 0 1
    outer loop
      vertex 0.0673189 0.234652 -1
      vertex 14.3799 1.84777 -1
      vertex 14.0485 3.58475 -1
    endloop
  endfacet
  facet normal 0 0 1
    outer loop
      vertex 14.5 0 -1
      vertex 0.0837307 0.0785036 -1
      vertex 0.0855579 0.0261784 -1
    endloop
  endfacet
  facet normal 0 0 1
    outer loop
      vertex 0.0582266 0.286213 -1
      vertex 14.0485 3.58475 -1
      vertex 14.0354 3.63373 -1
    endloop
  endfacet
  facet normal 0 0 1
    outer loop
      vertex 14.5 0 -1
      vertex 0.0837307 -0.0785036 -1
      vertex 14.3879 -1.78217 -1
    endloop
  endfacet
  facet normal 0 0 1
    outer loop
      vertex 0.0346746 0.388228 -1
      vertex 14.0354 3.63373 -1
      vertex 13.4886 5.31666 -1
    endloop
  endfacet
  facet normal 0 0 1
    outer loop
      vertex 0.0837307 -0.0785036 -1
      vertex 14.5 0 -1
      vertex 0.0855579 -0.0261784 -1
    endloop
  endfacet
  facet normal 0 0 1
    outer loop
      vertex 0.00406361 0.488352 -1
      vertex 13.4886 5.31666 -1
      vertex 13.4753 5.35144 -1
    endloop
  endfacet
  facet normal 0 0 1
    outer loop
      vertex 14.3879 -1.78217 -1
      vertex 0.0800781 -0.130733 -1
      vertex 14.3799 -1.84777 -1
    endloop
  endfacet
  facet normal 0 0 1
    outer loop
      vertex -0.0138426 0.537552 -1
      vertex 13.4753 5.35144 -1
      vertex 12.7209 6.95467 -1
    endloop
  endfacet
  facet normal -0 0 1
    outer loop
      vertex 0.0800781 -0.130733 -1
      vertex 14.3879 -1.78217 -1
      vertex 0.0837307 -0.0785036 -1
    endloop
  endfacet
  facet normal 0 0 1
    outer loop
      vertex -0.0334558 0.586096 -1
      vertex 12.7209 6.95467 -1
      vertex 12.6875 7.0153 -1
    endloop
  endfacet
  facet normal -0 0 1
    outer loop
      vertex 0.0673189 -0.234652 -1
      vertex 14.3799 -1.84777 -1
      vertex 0.074605 -0.182803 -1
    endloop
  endfacet
  facet normal 0 0 1
    outer loop
      vertex -0.0777035 0.680985 -1
      vertex 12.6875 7.0153 -1
      vertex 11.7352 8.51587 -1
    endloop
  endfacet
  facet normal -0 0 1
    outer loop
      vertex 0.074605 -0.182803 -1
      vertex 14.3799 -1.84777 -1
      vertex 0.0800781 -0.130733 -1
    endloop
  endfacet
  facet normal 0 0 1
    outer loop
      vertex -0.102283 0.727214 -1
      vertex 11.7352 8.51587 -1
      vertex 11.7222 8.53316 -1
    endloop
  endfacet
  facet normal -0 0 1
    outer loop
      vertex 0.0582266 -0.286213 -1
      vertex 14.0485 -3.58475 -1
      vertex 0.0673189 -0.234652 -1
    endloop
  endfacet
  facet normal 0 0 1
    outer loop
      vertex -0.156207 0.816958 -1
      vertex 11.7222 8.53316 -1
      vertex 10.5911 9.90044 -1
    endloop
  endfacet
  facet normal 0 0 1
    outer loop
      vertex 14.3799 -1.84777 -1
      vertex 0.0673189 -0.234652 -1
      vertex 14.0485 -3.58475 -1
    endloop
  endfacet
  facet normal 0 0 1
    outer loop
      vertex -0.21626 0.902722 -1
      vertex 10.5911 9.90044 -1
      vertex 10.5506 9.94416 -1
    endloop
  endfacet
  facet normal -0 0 1
    outer loop
      vertex 0.0473413 -0.337426 -1
      vertex 14.0354 -3.63373 -1
      vertex 0.0582266 -0.286213 -1
    endloop
  endfacet
  facet normal 0 0 1
    outer loop
      vertex -0.248494 0.94398 -1
      vertex 10.5506 9.94416 -1
      vertex 9.26239 11.1539 -1
    endloop
  endfacet
  facet normal 0 0 1
    outer loop
      vertex 14.0485 -3.58475 -1
      vertex 0.0582266 -0.286213 -1
      vertex 14.0354 -3.63373 -1
    endloop
  endfacet
  facet normal 0 0 1
    outer loop
      vertex -0.317183 1.023 -1
      vertex 9.26239 11.1539 -1
      vertex 9.21565 11.1921 -1
    endloop
  endfacet
  facet normal 0 0 1
    outer loop
      vertex 14.0354 -3.63373 -1
      vertex 0.0346746 -0.388228 -1
      vertex 13.4886 -5.31666 -1
    endloop
  endfacet
  facet normal 0 0 1
    outer loop
      vertex -0.353553 1.06066 -1
      vertex 9.21565 11.1921 -1
      vertex 7.77936 12.2356 -1
    endloop
  endfacet
  facet normal -0 0 1
    outer loop
      vertex 0.0346746 -0.388228 -1
      vertex 14.0354 -3.63373 -1
      vertex 0.0473413 -0.337426 -1
    endloop
  endfacet
  facet normal 0 0 1
    outer loop
      vertex -0.353553 1.06066 -1
      vertex 7.77936 12.2356 -1
      vertex 7.76288 12.2464 -1
    endloop
  endfacet
  facet normal -0 0 1
    outer loop
      vertex 0.00406361 -0.488352 -1
      vertex 13.4886 -5.31666 -1
      vertex 0.0202427 -0.438557 -1
    endloop
  endfacet
  facet normal 0 0 1
    outer loop
      vertex -0.353553 1.06066 -1
      vertex 7.76288 12.2464 -1
      vertex 6.20486 13.1029 -1
    endloop
  endfacet
  facet normal -0 0 1
    outer loop
      vertex 0.0202427 -0.438557 -1
      vertex 13.4886 -5.31666 -1
      vertex 0.0346746 -0.388228 -1
    endloop
  endfacet
  facet normal 0 0 1
    outer loop
      vertex -0.353553 1.06066 -1
      vertex 6.20486 13.1029 -1
      vertex 6.1424 13.1324 -1
    endloop
  endfacet
  facet normal -0 0 1
    outer loop
      vertex -0.0138426 -0.537552 -1
      vertex 13.4753 -5.35144 -1
      vertex 0.00406361 -0.488352 -1
    endloop
  endfacet
  facet normal 0 0 1
    outer loop
      vertex -0.353553 1.06066 -1
      vertex 6.1424 13.1324 -1
      vertex 4.4954 13.7845 -1
    endloop
  endfacet
  facet normal 0 0 1
    outer loop
      vertex 13.4886 -5.31666 -1
      vertex 0.00406361 -0.488352 -1
      vertex 13.4753 -5.35144 -1
    endloop
  endfacet
  facet normal 0 0 1
    outer loop
      vertex -0.353553 1.06066 -1
      vertex 4.4954 13.7845 -1
      vertex 4.45842 13.7961 -1
    endloop
  endfacet
  facet normal -0 0 1
    outer loop
      vertex -0.0334558 -0.586096 -1
      vertex 12.7209 -6.95467 -1
      vertex -0.0138426 -0.537552 -1
    endloop
  endfacet
  facet normal 0 0 1
    outer loop
      vertex -0.353553 1.06066 -1
      vertex 4.45842 13.7961 -1
      vertex 2.74475 14.236 -1
    endloop
  endfacet
  facet normal 0 0 1
    outer loop
      vertex 13.4753 -5.35144 -1
      vertex -0.0138426 -0.537552 -1
      vertex 12.7209 -6.95467 -1
    endloop
  endfacet
  facet normal 0 0 1
    outer loop
      vertex -0.353553 1.06066 -1
      vertex 2.74475 14.236 -1
      vertex 2.69614 14.2458 -1
    endloop
  endfacet
  facet normal -0 0 1
    outer loop
      vertex -0.0547514 -0.633927 -1
      vertex 12.6875 -7.0153 -1
      vertex -0.0334558 -0.586096 -1
    endloop
  endfacet
  facet normal 0 0 1
    outer loop
      vertex -0.353553 1.06066 -1
      vertex 2.69614 14.2458 -1
      vertex 0.94156 14.4675 -1
    endloop
  endfacet
  facet normal 0 0 1
    outer loop
      vertex 12.7209 -6.95467 -1
      vertex -0.0334558 -0.586096 -1
      vertex 12.6875 -7.0153 -1
    endloop
  endfacet
  facet normal 0 0 1
    outer loop
      vertex -0.353553 1.06066 -1
      vertex 0.94156 14.4675 -1
      vertex 0.875133 14.4714 -1
    endloop
  endfacet
  facet normal 0 0 1
    outer loop
      vertex 12.6875 -7.0153 -1
      vertex -0.0777035 -0.680985 -1
      vertex 11.7352 -8.51587 -1
    endloop
  endfacet
  facet normal -0 0 1
    outer loop
      vertex -0.102283 -0.727214 -1
      vertex 11.7352 -8.51587 -1
      vertex -0.0777035 -0.680985 -1
    endloop
  endfacet
  facet normal -0 0 1
    outer loop
      vertex -0.0777035 -0.680985 -1
      vertex 12.6875 -7.0153 -1
      vertex -0.0547514 -0.633927 -1
    endloop
  endfacet
  facet normal 0 0 1
    outer loop
      vertex 14.3879 1.78217 -1
      vertex 0.0800781 0.130733 -1
      vertex 0.0837307 0.0785036 -1
    endloop
  endfacet
  facet normal 0 0 1
    outer loop
      vertex 14.3799 1.84777 -1
      vertex 0.074605 0.182803 -1
      vertex 0.0800781 0.130733 -1
    endloop
  endfacet
  facet normal 0 0 1
    outer loop
      vertex 14.3799 1.84777 -1
      vertex 0.0673189 0.234652 -1
      vertex 0.074605 0.182803 -1
    endloop
  endfacet
  facet normal 0 0 1
    outer loop
      vertex 14.0485 3.58475 -1
      vertex 0.0582266 0.286213 -1
      vertex 0.0673189 0.234652 -1
    endloop
  endfacet
  facet normal 0 0 1
    outer loop
      vertex 14.0354 3.63373 -1
      vertex 0.0473413 0.337426 -1
      vertex 0.0582266 0.286213 -1
    endloop
  endfacet
  facet normal 0 0 1
    outer loop
      vertex 14.0354 3.63373 -1
      vertex 0.0346746 0.388228 -1
      vertex 0.0473413 0.337426 -1
    endloop
  endfacet
  facet normal 0 0 1
    outer loop
      vertex 13.4886 5.31666 -1
      vertex 0.0202427 0.438557 -1
      vertex 0.0346746 0.388228 -1
    endloop
  endfacet
  facet normal 0 0 1
    outer loop
      vertex 13.4886 5.31666 -1
      vertex 0.00406361 0.488352 -1
      vertex 0.0202427 0.438557 -1
    endloop
  endfacet
  facet normal 0 0 1
    outer loop
      vertex 13.4753 5.35144 -1
      vertex -0.0138426 0.537552 -1
      vertex 0.00406361 0.488352 -1
    endloop
  endfacet
  facet normal 0 0 1
    outer loop
      vertex 12.7209 6.95467 -1
      vertex -0.0334558 0.586096 -1
      vertex -0.0138426 0.537552 -1
    endloop
  endfacet
  facet normal 0 0 1
    outer loop
      vertex 12.6875 7.0153 -1
      vertex -0.0547514 0.633927 -1
      vertex -0.0334558 0.586096 -1
    endloop
  endfacet
  facet normal 0 0 1
    outer loop
      vertex 12.6875 7.0153 -1
      vertex -0.0777035 0.680985 -1
      vertex -0.0547514 0.633927 -1
    endloop
  endfacet
  facet normal 0 0 1
    outer loop
      vertex 11.7352 8.51587 -1
      vertex -0.102283 0.727214 -1
      vertex -0.0777035 0.680985 -1
    endloop
  endfacet
  facet normal 0 0 1
    outer loop
      vertex 11.7222 8.53316 -1
      vertex -0.128462 0.772556 -1
      vertex -0.102283 0.727214 -1
    endloop
  endfacet
  facet normal 0 0 1
    outer loop
      vertex 11.7222 8.53316 -1
      vertex -0.156207 0.816958 -1
      vertex -0.128462 0.772556 -1
    endloop
  endfacet
  facet normal 0 0 1
    outer loop
      vertex 10.5911 9.90044 -1
      vertex -0.185485 0.860364 -1
      vertex -0.156207 0.816958 -1
    endloop
  endfacet
  facet normal 0 0 1
    outer loop
      vertex 10.5911 9.90044 -1
      vertex -0.21626 0.902722 -1
      vertex -0.185485 0.860364 -1
    endloop
  endfacet
  facet normal 0 0 1
    outer loop
      vertex 10.5506 9.94416 -1
      vertex -0.248494 0.94398 -1
      vertex -0.21626 0.902722 -1
    endloop
  endfacet
  facet normal 0 0 1
    outer loop
      vertex 9.26239 11.1539 -1
      vertex -0.282148 0.984088 -1
      vertex -0.248494 0.94398 -1
    endloop
  endfacet
  facet normal 0 0 1
    outer loop
      vertex 9.26239 11.1539 -1
      vertex -0.317183 1.023 -1
      vertex -0.282148 0.984088 -1
    endloop
  endfacet
  facet normal 0 0 1
    outer loop
      vertex 9.21565 11.1921 -1
      vertex -0.353553 1.06066 -1
      vertex -0.317183 1.023 -1
    endloop
  endfacet
  facet normal -0 0 1
    outer loop
      vertex -0.909621 14.4714 -1
      vertex -0.353553 1.06066 -1
      vertex 0.875133 14.4714 -1
    endloop
  endfacet
  facet normal -0 0 1
    outer loop
      vertex -0.911921 14.4712 -1
      vertex -0.353553 1.06066 -1
      vertex -0.909621 14.4714 -1
    endloop
  endfacet
  facet normal -0 0 1
    outer loop
      vertex -2.68218 14.2476 -1
      vertex -0.353553 1.06066 -1
      vertex -0.911921 14.4712 -1
    endloop
  endfacet
  facet normal -0 0 1
    outer loop
      vertex -2.7467 14.2355 -1
      vertex -0.353553 1.06066 -1
      vertex -2.68218 14.2476 -1
    endloop
  endfacet
  facet normal -0 0 1
    outer loop
      vertex -4.45923 13.7958 -1
      vertex -0.353553 1.06066 -1
      vertex -2.7467 14.2355 -1
    endloop
  endfacet
  facet normal -0 0 1
    outer loop
      vertex -4.50834 13.7794 -1
      vertex -0.353553 1.06066 -1
      vertex -4.45923 13.7958 -1
    endloop
  endfacet
  facet normal -0 0 1
    outer loop
      vertex -6.15387 13.1279 -1
      vertex -0.353553 1.06066 -1
      vertex -4.50834 13.7794 -1
    endloop
  endfacet
  facet normal -0 0 1
    outer loop
      vertex -6.18642 13.1131 -1
      vertex -0.353553 1.06066 -1
      vertex -6.15387 13.1279 -1
    endloop
  endfacet
  facet normal -0 0 1
    outer loop
      vertex -7.73952 12.2592 -1
      vertex -0.353553 1.06066 -1
      vertex -6.18642 13.1131 -1
    endloop
  endfacet
  facet normal -0 0 1
    outer loop
      vertex -7.79804 12.222 -1
      vertex -0.353553 1.06066 -1
      vertex -7.73952 12.2592 -1
    endloop
  endfacet
  facet normal -0 0 1
    outer loop
      vertex -9.2353 11.1778 -1
      vertex -0.353553 1.06066 -1
      vertex -7.79804 12.222 -1
    endloop
  endfacet
  facet normal -0 0 1
    outer loop
      vertex -9.25317 11.1626 -1
      vertex -0.353553 1.06066 -1
      vertex -9.2353 11.1778 -1
    endloop
  endfacet
  facet normal 0 0 1
    outer loop
      vertex -0.353553 1.06066 -1
      vertex -9.25317 11.1626 -1
      vertex -9.8732 10.5803 -1
    endloop
  endfacet
  facet normal 0 0 1
    outer loop
      vertex 11.7352 -8.51587 -1
      vertex -0.102283 -0.727214 -1
      vertex 11.7222 -8.53316 -1
    endloop
  endfacet
  facet normal -0 0 1
    outer loop
      vertex -0.128462 -0.772556 -1
      vertex 11.7222 -8.53316 -1
      vertex -0.102283 -0.727214 -1
    endloop
  endfacet
  facet normal -0 0 1
    outer loop
      vertex -0.156207 -0.816958 -1
      vertex 11.7222 -8.53316 -1
      vertex -0.128462 -0.772556 -1
    endloop
  endfacet
  facet normal 0 0 1
    outer loop
      vertex 11.7222 -8.53316 -1
      vertex -0.156207 -0.816958 -1
      vertex 10.5911 -9.90044 -1
    endloop
  endfacet
  facet normal -0 0 1
    outer loop
      vertex -0.185485 -0.860364 -1
      vertex 10.5911 -9.90044 -1
      vertex -0.156207 -0.816958 -1
    endloop
  endfacet
  facet normal -0 0 1
    outer loop
      vertex -0.21626 -0.902722 -1
      vertex 10.5911 -9.90044 -1
      vertex -0.185485 -0.860364 -1
    endloop
  endfacet
  facet normal 0 0 1
    outer loop
      vertex 10.5911 -9.90044 -1
      vertex -0.21626 -0.902722 -1
      vertex 10.5506 -9.94416 -1
    endloop
  endfacet
  facet normal -0 0 1
    outer loop
      vertex -0.248494 -0.94398 -1
      vertex 10.5506 -9.94416 -1
      vertex -0.21626 -0.902722 -1
    endloop
  endfacet
  facet normal 0 0 1
    outer loop
      vertex 10.5506 -9.94416 -1
      vertex -0.248494 -0.94398 -1
      vertex 9.26239 -11.1539 -1
    endloop
  endfacet
  facet normal -0 0 1
    outer loop
      vertex -0.282148 -0.984088 -1
      vertex 9.26239 -11.1539 -1
      vertex -0.248494 -0.94398 -1
    endloop
  endfacet
  facet normal -0 0 1
    outer loop
      vertex -0.317183 -1.023 -1
      vertex 9.26239 -11.1539 -1
      vertex -0.282148 -0.984088 -1
    endloop
  endfacet
  facet normal 0 0 1
    outer loop
      vertex 9.26239 -11.1539 -1
      vertex -0.317183 -1.023 -1
      vertex 9.21565 -11.1921 -1
    endloop
  endfacet
  facet normal -0 0 1
    outer loop
      vertex -0.353553 -1.06066 -1
      vertex 9.21565 -11.1921 -1
      vertex -0.317183 -1.023 -1
    endloop
  endfacet
  facet normal 0 0 1
    outer loop
      vertex 9.21565 -11.1921 -1
      vertex -0.353553 -1.06066 -1
      vertex 7.77936 -12.2356 -1
    endloop
  endfacet
  facet normal 0 0 1
    outer loop
      vertex 7.77936 -12.2356 -1
      vertex -0.353553 -1.06066 -1
      vertex 7.76288 -12.2464 -1
    endloop
  endfacet
  facet normal 0 0 1
    outer loop
      vertex 7.76288 -12.2464 -1
      vertex -0.353553 -1.06066 -1
      vertex 6.20486 -13.1029 -1
    endloop
  endfacet
  facet normal 0 0 1
    outer loop
      vertex 6.20486 -13.1029 -1
      vertex -0.353553 -1.06066 -1
      vertex 6.1424 -13.1324 -1
    endloop
  endfacet
  facet normal 0 0 1
    outer loop
      vertex 6.1424 -13.1324 -1
      vertex -0.353553 -1.06066 -1
      vertex 4.4954 -13.7845 -1
    endloop
  endfacet
  facet normal 0 0 1
    outer loop
      vertex 4.4954 -13.7845 -1
      vertex -0.353553 -1.06066 -1
      vertex 4.45842 -13.7961 -1
    endloop
  endfacet
  facet normal 0 0 1
    outer loop
      vertex 4.45842 -13.7961 -1
      vertex -0.353553 -1.06066 -1
      vertex 2.74475 -14.236 -1
    endloop
  endfacet
  facet normal 0 0 1
    outer loop
      vertex 2.74475 -14.236 -1
      vertex -0.353553 -1.06066 -1
      vertex 2.69614 -14.2458 -1
    endloop
  endfacet
  facet normal 0 0 1
    outer loop
      vertex 2.69614 -14.2458 -1
      vertex -0.353553 -1.06066 -1
      vertex 0.94156 -14.4675 -1
    endloop
  endfacet
  facet normal 0 0 1
    outer loop
      vertex 0.94156 -14.4675 -1
      vertex -0.353553 -1.06066 -1
      vertex 0.875133 -14.4714 -1
    endloop
  endfacet
  facet normal 0 0 1
    outer loop
      vertex -0.353553 -1.06066 -1
      vertex -0.909621 -14.4714 -1
      vertex 0.875133 -14.4714 -1
    endloop
  endfacet
  facet normal 0 0 1
    outer loop
      vertex -0.353553 -1.06066 -1
      vertex -0.911921 -14.4712 -1
      vertex -0.909621 -14.4714 -1
    endloop
  endfacet
  facet normal 0 0 1
    outer loop
      vertex -0.353553 -1.06066 -1
      vertex -2.68218 -14.2476 -1
      vertex -0.911921 -14.4712 -1
    endloop
  endfacet
  facet normal 0 0 1
    outer loop
      vertex -0.353553 -1.06066 -1
      vertex -2.7467 -14.2355 -1
      vertex -2.68218 -14.2476 -1
    endloop
  endfacet
  facet normal 0 0 1
    outer loop
      vertex -0.353553 -1.06066 -1
      vertex -4.45923 -13.7958 -1
      vertex -2.7467 -14.2355 -1
    endloop
  endfacet
  facet normal 0 0 1
    outer loop
      vertex -0.353553 -1.06066 -1
      vertex -4.50834 -13.7794 -1
      vertex -4.45923 -13.7958 -1
    endloop
  endfacet
  facet normal 0 0 1
    outer loop
      vertex -0.353553 -1.06066 -1
      vertex -6.15387 -13.1279 -1
      vertex -4.50834 -13.7794 -1
    endloop
  endfacet
  facet normal 0 0 1
    outer loop
      vertex -0.353553 -1.06066 -1
      vertex -6.18642 -13.1131 -1
      vertex -6.15387 -13.1279 -1
    endloop
  endfacet
  facet normal 0 0 1
    outer loop
      vertex -0.353553 -1.06066 -1
      vertex -7.73952 -12.2592 -1
      vertex -6.18642 -13.1131 -1
    endloop
  endfacet
  facet normal 0 0 1
    outer loop
      vertex -0.353553 -1.06066 -1
      vertex -7.79804 -12.222 -1
      vertex -7.73952 -12.2592 -1
    endloop
  endfacet
  facet normal 0 0 1
    outer loop
      vertex -0.353553 -1.06066 -1
      vertex -9.2353 -11.1778 -1
      vertex -7.79804 -12.222 -1
    endloop
  endfacet
  facet normal 0 0 1
    outer loop
      vertex -0.353553 -1.06066 -1
      vertex -9.25317 -11.1626 -1
      vertex -9.2353 -11.1778 -1
    endloop
  endfacet
  facet normal 0 -0 1
    outer loop
      vertex -9.25317 -11.1626 -1
      vertex -0.353553 -1.06066 -1
      vertex -9.8732 -10.5803 -1
    endloop
  endfacet
  facet normal 0 0 1
    outer loop
      vertex -0.2 0 -1
      vertex 0.0855579 0.0261784 -1
      vertex 0.0837307 0.0785036 -1
    endloop
  endfacet
  facet normal 0 0 1
    outer loop
      vertex 0.0855579 0.0261784 -1
      vertex -0.2 0 -1
      vertex 0.0855579 -0.0261784 -1
    endloop
  endfacet
  facet normal 0 0 1
    outer loop
      vertex -0.212311 0.156434 -1
      vertex 0.0837307 0.0785036 -1
      vertex 0.0800781 0.130733 -1
    endloop
  endfacet
  facet normal 0 0 1
    outer loop
      vertex 0.0855579 -0.0261784 -1
      vertex -0.2 0 -1
      vertex 0.0837307 -0.0785036 -1
    endloop
  endfacet
  facet normal -0 0 1
    outer loop
      vertex -0.212311 0.156434 -1
      vertex 0.0800781 0.130733 -1
      vertex 0.074605 0.182803 -1
    endloop
  endfacet
  facet normal 0 0 1
    outer loop
      vertex -0.212311 -0.156434 -1
      vertex 0.0837307 -0.0785036 -1
      vertex -0.2 0 -1
    endloop
  endfacet
  facet normal 0 0 1
    outer loop
      vertex -0.212311 0.156434 -1
      vertex 0.074605 0.182803 -1
      vertex 0.0673189 0.234652 -1
    endloop
  endfacet
  facet normal 0 0 1
    outer loop
      vertex 0.0837307 -0.0785036 -1
      vertex -0.212311 -0.156434 -1
      vertex 0.0800781 -0.130733 -1
    endloop
  endfacet
  facet normal 0 0 1
    outer loop
      vertex -0.212311 0.156434 -1
      vertex 0.0673189 0.234652 -1
      vertex 0.0582266 0.286213 -1
    endloop
  endfacet
  facet normal 0 0 1
    outer loop
      vertex 0.0800781 -0.130733 -1
      vertex -0.212311 -0.156434 -1
      vertex 0.074605 -0.182803 -1
    endloop
  endfacet
  facet normal -0 0 1
    outer loop
      vertex -0.248943 0.309016 -1
      vertex 0.0582266 0.286213 -1
      vertex 0.0473413 0.337426 -1
    endloop
  endfacet
  facet normal 0 0 1
    outer loop
      vertex 0.074605 -0.182803 -1
      vertex -0.212311 -0.156434 -1
      vertex 0.0673189 -0.234652 -1
    endloop
  endfacet
  facet normal 0 0 1
    outer loop
      vertex -0.248943 0.309016 -1
      vertex 0.0473413 0.337426 -1
      vertex 0.0346746 0.388228 -1
    endloop
  endfacet
  facet normal 0 0 1
    outer loop
      vertex 0.0673189 -0.234652 -1
      vertex -0.212311 -0.156434 -1
      vertex 0.0582266 -0.286213 -1
    endloop
  endfacet
  facet normal 0 0 1
    outer loop
      vertex -0.248943 0.309016 -1
      vertex 0.0346746 0.388228 -1
      vertex 0.0202427 0.438557 -1
    endloop
  endfacet
  facet normal 0 0 1
    outer loop
      vertex -0.248943 -0.309016 -1
      vertex 0.0582266 -0.286213 -1
      vertex -0.212311 -0.156434 -1
    endloop
  endfacet
  facet normal 0 0 1
    outer loop
      vertex -0.248943 0.309016 -1
      vertex 0.0202427 0.438557 -1
      vertex 0.00406361 0.488352 -1
    endloop
  endfacet
  facet normal 0 0 1
    outer loop
      vertex 0.0582266 -0.286213 -1
      vertex -0.248943 -0.309016 -1
      vertex 0.0473413 -0.337426 -1
    endloop
  endfacet
  facet normal 0 0 1
    outer loop
      vertex -0.308993 0.45399 -1
      vertex 0.00406361 0.488352 -1
      vertex -0.0138426 0.537552 -1
    endloop
  endfacet
  facet normal 0 0 1
    outer loop
      vertex 0.0473413 -0.337426 -1
      vertex -0.248943 -0.309016 -1
      vertex 0.0346746 -0.388228 -1
    endloop
  endfacet
  facet normal 0 0 1
    outer loop
      vertex -0.308993 0.45399 -1
      vertex -0.0138426 0.537552 -1
      vertex -0.0334558 0.586096 -1
    endloop
  endfacet
  facet normal 0 0 1
    outer loop
      vertex 0.0346746 -0.388228 -1
      vertex -0.248943 -0.309016 -1
      vertex 0.0202427 -0.438557 -1
    endloop
  endfacet
  facet normal 0 0 1
    outer loop
      vertex -0.308993 0.45399 -1
      vertex -0.0334558 0.586096 -1
      vertex -0.0547514 0.633927 -1
    endloop
  endfacet
  facet normal 0 0 1
    outer loop
      vertex 0.0202427 -0.438557 -1
      vertex -0.248943 -0.309016 -1
      vertex 0.00406361 -0.488352 -1
    endloop
  endfacet
  facet normal 0 0 1
    outer loop
      vertex -0.308993 0.45399 -1
      vertex -0.0547514 0.633927 -1
      vertex -0.0777035 0.680985 -1
    endloop
  endfacet
  facet normal -0 0 1
    outer loop
      vertex -0.308993 -0.45399 -1
      vertex 0.00406361 -0.488352 -1
      vertex -0.248943 -0.309016 -1
    endloop
  endfacet
  facet normal 0 0 1
    outer loop
      vertex -0.390983 0.587785 -1
      vertex -0.0777035 0.680985 -1
      vertex -0.102283 0.727214 -1
    endloop
  endfacet
  facet normal 0 0 1
    outer loop
      vertex 0.00406361 -0.488352 -1
      vertex -0.308993 -0.45399 -1
      vertex -0.0138426 -0.537552 -1
    endloop
  endfacet
  facet normal 0 0 1
    outer loop
      vertex -0.390983 0.587785 -1
      vertex -0.102283 0.727214 -1
      vertex -0.128462 0.772556 -1
    endloop
  endfacet
  facet normal 0 0 1
    outer loop
      vertex -0.0138426 -0.537552 -1
      vertex -0.308993 -0.45399 -1
      vertex -0.0334558 -0.586096 -1
    endloop
  endfacet
  facet normal 0 0 1
    outer loop
      vertex -0.390983 0.587785 -1
      vertex -0.128462 0.772556 -1
      vertex -0.156207 0.816958 -1
    endloop
  endfacet
  facet normal 0 0 1
    outer loop
      vertex -0.0334558 -0.586096 -1
      vertex -0.308993 -0.45399 -1
      vertex -0.0547514 -0.633927 -1
    endloop
  endfacet
  facet normal 0 0 1
    outer loop
      vertex -0.390983 0.587785 -1
      vertex -0.156207 0.816958 -1
      vertex -0.185485 0.860364 -1
    endloop
  endfacet
  facet normal 0 0 1
    outer loop
      vertex -0.0547514 -0.633927 -1
      vertex -0.308993 -0.45399 -1
      vertex -0.0777035 -0.680985 -1
    endloop
  endfacet
  facet normal -0 0 1
    outer loop
      vertex -0.390983 -0.587785 -1
      vertex -0.0777035 -0.680985 -1
      vertex -0.308993 -0.45399 -1
    endloop
  endfacet
  facet normal 0 0 1
    outer loop
      vertex 0.0837307 0.0785036 -1
      vertex -0.212311 0.156434 -1
      vertex -0.2 0 -1
    endloop
  endfacet
  facet normal 0 0 1
    outer loop
      vertex -0.492892 0.707107 -1
      vertex -0.185485 0.860364 -1
      vertex -0.21626 0.902722 -1
    endloop
  endfacet
  facet normal 0 0 1
    outer loop
      vertex -0.492892 0.707107 -1
      vertex -0.21626 0.902722 -1
      vertex -0.248494 0.94398 -1
    endloop
  endfacet
  facet normal 0 0 1
    outer loop
      vertex 0.0582266 0.286213 -1
      vertex -0.248943 0.309016 -1
      vertex -0.212311 0.156434 -1
    endloop
  endfacet
  facet normal 0 0 1
    outer loop
      vertex -0.492892 0.707107 -1
      vertex -0.248494 0.94398 -1
      vertex -0.282148 0.984088 -1
    endloop
  endfacet
  facet normal 0 0 1
    outer loop
      vertex 0.00406361 0.488352 -1
      vertex -0.308993 0.45399 -1
      vertex -0.248943 0.309016 -1
    endloop
  endfacet
  facet normal 0 0 1
    outer loop
      vertex -0.492892 0.707107 -1
      vertex -0.282148 0.984088 -1
      vertex -0.317183 1.023 -1
    endloop
  endfacet
  facet normal 0 0 1
    outer loop
      vertex -0.492892 0.707107 -1
      vertex -0.317183 1.023 -1
      vertex -0.353553 1.06066 -1
    endloop
  endfacet
  facet normal 0 0 1
    outer loop
      vertex -0.0777035 0.680985 -1
      vertex -0.390983 0.587785 -1
      vertex -0.308993 0.45399 -1
    endloop
  endfacet
  facet normal 0 0 1
    outer loop
      vertex -0.185485 0.860364 -1
      vertex -0.492892 0.707107 -1
      vertex -0.390983 0.587785 -1
    endloop
  endfacet
  facet normal -0 0 1
    outer loop
      vertex -10.0533 10.4112 -1
      vertex -0.353553 1.06066 -1
      vertex -9.8732 10.5803 -1
    endloop
  endfacet
  facet normal 0 0 1
    outer loop
      vertex -0.353553 1.06066 -1
      vertex -10.0533 10.4112 -1
      vertex -0.492892 0.707107 -1
    endloop
  endfacet
  facet normal 0 0 1
    outer loop
      vertex -0.0777035 -0.680985 -1
      vertex -0.390983 -0.587785 -1
      vertex -0.102283 -0.727214 -1
    endloop
  endfacet
  facet normal 0 0 1
    outer loop
      vertex -0.102283 -0.727214 -1
      vertex -0.390983 -0.587785 -1
      vertex -0.128462 -0.772556 -1
    endloop
  endfacet
  facet normal 0 0 1
    outer loop
      vertex -0.128462 -0.772556 -1
      vertex -0.390983 -0.587785 -1
      vertex -0.156207 -0.816958 -1
    endloop
  endfacet
  facet normal 0 0 1
    outer loop
      vertex -0.156207 -0.816958 -1
      vertex -0.390983 -0.587785 -1
      vertex -0.185485 -0.860364 -1
    endloop
  endfacet
  facet normal -0 0 1
    outer loop
      vertex -0.492892 -0.707107 -1
      vertex -0.185485 -0.860364 -1
      vertex -0.390983 -0.587785 -1
    endloop
  endfacet
  facet normal 0 0 1
    outer loop
      vertex -0.185485 -0.860364 -1
      vertex -0.492892 -0.707107 -1
      vertex -0.21626 -0.902722 -1
    endloop
  endfacet
  facet normal 0 0 1
    outer loop
      vertex -0.21626 -0.902722 -1
      vertex -0.492892 -0.707107 -1
      vertex -0.248494 -0.94398 -1
    endloop
  endfacet
  facet normal 0 0 1
    outer loop
      vertex -0.248494 -0.94398 -1
      vertex -0.492892 -0.707107 -1
      vertex -0.282148 -0.984088 -1
    endloop
  endfacet
  facet normal 0 0 1
    outer loop
      vertex -0.282148 -0.984088 -1
      vertex -0.492892 -0.707107 -1
      vertex -0.317183 -1.023 -1
    endloop
  endfacet
  facet normal 0 0 1
    outer loop
      vertex -0.317183 -1.023 -1
      vertex -0.492892 -0.707107 -1
      vertex -0.353553 -1.06066 -1
    endloop
  endfacet
  facet normal 0 0 1
    outer loop
      vertex -10.0533 -10.4112 -1
      vertex -0.353553 -1.06066 -1
      vertex -0.492892 -0.707107 -1
    endloop
  endfacet
  facet normal 0 0 1
    outer loop
      vertex -0.353553 -1.06066 -1
      vertex -10.0533 -10.4112 -1
      vertex -9.8732 -10.5803 -1
    endloop
  endfacet
  facet normal -0.248688 0.968584 6.14071e-05
    outer loop
      vertex -4.48075 13.7903 -1.4
      vertex -4.45923 13.7958 -1
      vertex -2.7467 14.2355 -1
    endloop
  endfacet
  facet normal -0.2512 0.967935 0
    outer loop
      vertex -2.71703 14.2432 -1.4
      vertex -2.7467 14.2355 -1
      vertex -2.71703 14.2432 -1.00004
    endloop
  endfacet
  facet normal -0.248718 0.968576 0.000196466
    outer loop
      vertex -4.48075 13.7903 -1.4
      vertex -2.7467 14.2355 -1
      vertex -2.71703 14.2432 -1.4
    endloop
  endfacet
  facet normal -0.247617 0.968858 0
    outer loop
      vertex -4.45923 13.7958 -1
      vertex -4.48075 13.7903 -1.4
      vertex -4.48075 13.7903 -1.00003
    endloop
  endfacet
  facet normal -0.368494 -0.92963 0
    outer loop
      vertex -6.1738 -13.12 -1.4
      vertex -6.15387 -13.1279 -1
      vertex -6.1738 -13.12 -1.00002
    endloop
  endfacet
  facet normal -0.368119 -0.929779 -2.16012e-05
    outer loop
      vertex -6.15387 -13.1279 -1
      vertex -6.1738 -13.12 -1.4
      vertex -4.50834 -13.7794 -1
    endloop
  endfacet
  facet normal -0.368112 -0.929781 -5.40004e-05
    outer loop
      vertex -4.48075 -13.7903 -1.4
      vertex -4.50834 -13.7794 -1
      vertex -6.1738 -13.12 -1.4
    endloop
  endfacet
  facet normal -0.367435 -0.930049 0
    outer loop
      vertex -4.50834 -13.7794 -1
      vertex -4.48075 -13.7903 -1.4
      vertex -4.48075 -13.7903 -1.00003
    endloop
  endfacet
  facet normal 0.481741 -0.876314 7.39528e-05
    outer loop
      vertex 7.76949 -12.2428 -1.4
      vertex 7.76288 -12.2464 -1
      vertex 6.20486 -13.1029 -1
    endloop
  endfacet
  facet normal 0.482287 -0.876013 0
    outer loop
      vertex 6.1738 -13.12 -1.4
      vertex 6.20486 -13.1029 -1
      vertex 6.1738 -13.12 -1.00004
    endloop
  endfacet
  facet normal 0.481738 -0.876315 5.55588e-05
    outer loop
      vertex 7.76949 -12.2428 -1.4
      vertex 6.20486 -13.1029 -1
      vertex 6.1738 -13.12 -1.4
    endloop
  endfacet
  facet normal 0.478294 -0.8782 0
    outer loop
      vertex 7.76288 -12.2464 -1
      vertex 7.76949 -12.2428 -1.4
      vertex 7.76949 -12.2428 -1.00001
    endloop
  endfacet
  facet normal 0.950146 -0.311804 0
    outer loop
      vertex 14.0354 -3.63373 -1
      vertex 14.0445 -3.606 -1.4
      vertex 14.0445 -3.606 -1.00003
    endloop
  endfacet
  facet normal 0.951059 -0.309008 0.000170802
    outer loop
      vertex 13.4818 -5.33781 -1.4
      vertex 14.0354 -3.63373 -1
      vertex 13.4886 -5.31666 -1
    endloop
  endfacet
  facet normal 0.952005 -0.306082 0
    outer loop
      vertex 13.4818 -5.33781 -1.4
      vertex 13.4886 -5.31666 -1
      vertex 13.4818 -5.33781 -1.00002
    endloop
  endfacet
  facet normal 0.951056 -0.309017 0.000213901
    outer loop
      vertex 14.0354 -3.63373 -1
      vertex 13.4818 -5.33781 -1.4
      vertex 14.0445 -3.606 -1.4
    endloop
  endfacet
  facet normal -0.684493 -0.729019 0
    outer loop
      vertex -10.0533 -10.4112 -1.4
      vertex -9.8732 -10.5803 -1
      vertex -10.0533 -10.4112 -1
    endloop
  endfacet
  facet normal -0.684523 -0.728992 2.51907e-05
    outer loop
      vertex -9.24265 -11.1724 -1.4
      vertex -9.8732 -10.5803 -1
      vertex -10.0533 -10.4112 -1.4
    endloop
  endfacet
  facet normal -0.68458 -0.728937 -0.000145492
    outer loop
      vertex -9.8732 -10.5803 -1
      vertex -9.24265 -11.1724 -1.4
      vertex -9.25317 -11.1626 -1
    endloop
  endfacet
  facet normal -0.681624 -0.731703 0
    outer loop
      vertex -9.25317 -11.1626 -1
      vertex -9.24265 -11.1724 -1.4
      vertex -9.24265 -11.1724 -1.00001
    endloop
  endfacet
  facet normal 0 -1 0
    outer loop
      vertex -0.910462 -14.4714 -1.4
      vertex -0.909621 -14.4714 -1
      vertex -0.910462 -14.4714 -1
    endloop
  endfacet
  facet normal 0 -1 -0
    outer loop
      vertex -0.909621 -14.4714 -1
      vertex -0.910462 -14.4714 -1.4
      vertex 0.875133 -14.4714 -1
    endloop
  endfacet
  facet normal 0 -1 0
    outer loop
      vertex 0.910462 -14.4714 -1.4
      vertex 0.875133 -14.4714 -1
      vertex -0.910462 -14.4714 -1.4
    endloop
  endfacet
  facet normal 0 -1 0
    outer loop
      vertex 0.875133 -14.4714 -1
      vertex 0.910462 -14.4714 -1.4
      vertex 0.910462 -14.4714 -1.00004
    endloop
  endfacet
  facet normal -0.592076 -0.805882 0
    outer loop
      vertex -9.24265 -11.1724 -1.4
      vertex -9.2353 -11.1778 -1
      vertex -9.24265 -11.1724 -1.00001
    endloop
  endfacet
  facet normal -0.587774 -0.809025 -0.000121492
    outer loop
      vertex -9.2353 -11.1778 -1
      vertex -9.24265 -11.1724 -1.4
      vertex -7.79804 -12.222 -1
    endloop
  endfacet
  facet normal -0.587816 -0.808994 0.000112313
    outer loop
      vertex -7.76949 -12.2428 -1.4
      vertex -7.79804 -12.222 -1
      vertex -9.24265 -11.1724 -1.4
    endloop
  endfacet
  facet normal -0.588845 -0.808246 0
    outer loop
      vertex -7.79804 -12.222 -1
      vertex -7.76949 -12.2428 -1.4
      vertex -7.76949 -12.2428 -1.00004
    endloop
  endfacet
  facet normal -0.481787 -0.876289 -8.43902e-05
    outer loop
      vertex -6.1738 -13.12 -1.4
      vertex -6.18642 -13.1131 -1
      vertex -7.73952 -12.2592 -1
    endloop
  endfacet
  facet normal -0.480041 -0.877246 0
    outer loop
      vertex -7.76949 -12.2428 -1.4
      vertex -7.73952 -12.2592 -1
      vertex -7.76949 -12.2428 -1.00004
    endloop
  endfacet
  facet normal -0.481738 -0.876315 0.000165258
    outer loop
      vertex -6.1738 -13.12 -1.4
      vertex -7.73952 -12.2592 -1
      vertex -7.76949 -12.2428 -1.4
    endloop
  endfacet
  facet normal -0.479729 -0.877417 0
    outer loop
      vertex -6.18642 -13.1131 -1
      vertex -6.1738 -13.12 -1.4
      vertex -6.1738 -13.12 -1.00002
    endloop
  endfacet
  facet normal -0.00998436 0.0117382 0.999881
    outer loop
      vertex -9.24265 11.1724 -1.00001
      vertex -9.25317 11.1626 -1
      vertex -9.2353 11.1778 -1
    endloop
  endfacet
  facet normal -0.00958882 0.0150843 0.99984
    outer loop
      vertex -7.76949 12.2428 -1.00004
      vertex -7.79804 12.222 -1
      vertex -7.73952 12.2592 -1
    endloop
  endfacet
  facet normal -0.00782535 0.0172105 0.999821
    outer loop
      vertex -6.1738 13.12 -1.00002
      vertex -6.18642 13.1131 -1
      vertex -6.15387 13.1279 -1
    endloop
  endfacet
  facet normal -0.00593933 0.0177854 0.999824
    outer loop
      vertex -4.48075 13.7903 -1.00003
      vertex -4.50834 13.7794 -1
      vertex -4.45923 13.7958 -1
    endloop
  endfacet
  facet normal -0.00351178 0.0187256 0.999818
    outer loop
      vertex -2.71703 14.2432 -1.00004
      vertex -2.7467 14.2355 -1
      vertex -2.68218 14.2476 -1
    endloop
  endfacet
  facet normal -0 0 1
    outer loop
      vertex -0.910462 14.4714 -1
      vertex -0.911921 14.4712 -1
      vertex -0.909621 14.4714 -1
    endloop
  endfacet
  facet normal 0.001132 0.0192809 0.999813
    outer loop
      vertex 0.910462 14.4714 -1.00004
      vertex 0.875133 14.4714 -1
      vertex 0.94156 14.4675 -1
    endloop
  endfacet
  facet normal 0.00375239 0.0186126 0.99982
    outer loop
      vertex 2.71703 14.2432 -1.00003
      vertex 2.69614 14.2458 -1
      vertex 2.74475 14.236 -1
    endloop
  endfacet
  facet normal 0.00520754 0.0166013 0.999849
    outer loop
      vertex 4.48075 13.7903 -1.00002
      vertex 4.45842 13.7961 -1
      vertex 4.4954 13.7845 -1
    endloop
  endfacet
  facet normal 0.0077723 0.0164562 0.999834
    outer loop
      vertex 6.1738 13.12 -1.00004
      vertex 6.1424 13.1324 -1
      vertex 6.20486 13.1029 -1
    endloop
  endfacet
  facet normal 0.00895403 0.0136632 0.999867
    outer loop
      vertex 7.76949 12.2428 -1.00001
      vertex 7.76288 12.2464 -1
      vertex 7.77936 12.2356 -1
    endloop
  endfacet
  facet normal 0.0103582 0.0126739 0.999866
    outer loop
      vertex 9.24265 11.1724 -1.00003
      vertex 9.21565 11.1921 -1
      vertex 9.26239 11.1539 -1
    endloop
  endfacet
  facet normal 0.011938 0.0110588 0.999868
    outer loop
      vertex 10.57 9.92593 -1.00003
      vertex 10.5506 9.94416 -1
      vertex 10.5911 9.90044 -1
    endloop
  endfacet
  facet normal 0.0128486 0.00966059 0.999871
    outer loop
      vertex 11.7307 8.52289 -1.00001
      vertex 11.7222 8.53316 -1
      vertex 11.7352 8.51587 -1
    endloop
  endfacet
  facet normal 0.0163561 0.00901029 0.999826
    outer loop
      vertex 12.7064 6.98543 -1.00004
      vertex 12.6875 7.0153 -1
      vertex 12.7209 6.95467 -1
    endloop
  endfacet
  facet normal 0.0155278 0.00593787 0.999862
    outer loop
      vertex 13.4818 5.33781 -1.00002
      vertex 13.4753 5.35144 -1
      vertex 13.4886 5.31666 -1
    endloop
  endfacet
  facet normal 0.0178176 0.00476543 0.99983
    outer loop
      vertex 14.0445 3.606 -1.00003
      vertex 14.0354 3.63373 -1
      vertex 14.0485 3.58475 -1
    endloop
  endfacet
  facet normal 0.0191553 0.00233601 0.999814
    outer loop
      vertex 14.3857 1.81733 -1.00004
      vertex 14.3799 1.84777 -1
      vertex 14.3879 1.78217 -1
    endloop
  endfacet
  facet normal 0.0191553 -0.00233601 0.999814
    outer loop
      vertex 14.3879 -1.78217 -1
      vertex 14.3799 -1.84777 -1
      vertex 14.3857 -1.81733 -1.00004
    endloop
  endfacet
  facet normal 0.0178176 -0.00476543 0.99983
    outer loop
      vertex 14.0485 -3.58475 -1
      vertex 14.0354 -3.63373 -1
      vertex 14.0445 -3.606 -1.00003
    endloop
  endfacet
  facet normal 0.0155278 -0.00593787 0.999862
    outer loop
      vertex 13.4886 -5.31666 -1
      vertex 13.4753 -5.35144 -1
      vertex 13.4818 -5.33781 -1.00002
    endloop
  endfacet
  facet normal 0.0163561 -0.00901029 0.999826
    outer loop
      vertex 12.7209 -6.95467 -1
      vertex 12.6875 -7.0153 -1
      vertex 12.7064 -6.98543 -1.00004
    endloop
  endfacet
  facet normal 0.0128486 -0.00966059 0.999871
    outer loop
      vertex 11.7352 -8.51587 -1
      vertex 11.7222 -8.53316 -1
      vertex 11.7307 -8.52289 -1.00001
    endloop
  endfacet
  facet normal 0.011938 -0.0110588 0.999868
    outer loop
      vertex 10.5911 -9.90044 -1
      vertex 10.5506 -9.94416 -1
      vertex 10.57 -9.92593 -1.00003
    endloop
  endfacet
  facet normal 0.0103582 -0.0126739 0.999866
    outer loop
      vertex 9.26239 -11.1539 -1
      vertex 9.21565 -11.1921 -1
      vertex 9.24265 -11.1724 -1.00003
    endloop
  endfacet
  facet normal 0.00895403 -0.0136632 0.999867
    outer loop
      vertex 7.77936 -12.2356 -1
      vertex 7.76288 -12.2464 -1
      vertex 7.76949 -12.2428 -1.00001
    endloop
  endfacet
  facet normal 0.0077723 -0.0164562 0.999834
    outer loop
      vertex 6.20486 -13.1029 -1
      vertex 6.1424 -13.1324 -1
      vertex 6.1738 -13.12 -1.00004
    endloop
  endfacet
  facet normal 0.00520754 -0.0166013 0.999849
    outer loop
      vertex 4.4954 -13.7845 -1
      vertex 4.45842 -13.7961 -1
      vertex 4.48075 -13.7903 -1.00002
    endloop
  endfacet
  facet normal 0.00375239 -0.0186126 0.99982
    outer loop
      vertex 2.74475 -14.236 -1
      vertex 2.69614 -14.2458 -1
      vertex 2.71703 -14.2432 -1.00003
    endloop
  endfacet
  facet normal 0.001132 -0.0192809 0.999813
    outer loop
      vertex 0.94156 -14.4675 -1
      vertex 0.875133 -14.4714 -1
      vertex 0.910462 -14.4714 -1.00004
    endloop
  endfacet
  facet normal 0 0 1
    outer loop
      vertex -0.909621 -14.4714 -1
      vertex -0.911921 -14.4712 -1
      vertex -0.910462 -14.4714 -1
    endloop
  endfacet
  facet normal -0.00351178 -0.0187256 0.999818
    outer loop
      vertex -2.68218 -14.2476 -1
      vertex -2.7467 -14.2355 -1
      vertex -2.71703 -14.2432 -1.00004
    endloop
  endfacet
  facet normal -0.00593933 -0.0177854 0.999824
    outer loop
      vertex -4.45923 -13.7958 -1
      vertex -4.50834 -13.7794 -1
      vertex -4.48075 -13.7903 -1.00003
    endloop
  endfacet
  facet normal -0.00782535 -0.0172105 0.999821
    outer loop
      vertex -6.15387 -13.1279 -1
      vertex -6.18642 -13.1131 -1
      vertex -6.1738 -13.12 -1.00002
    endloop
  endfacet
  facet normal -0.00958882 -0.0150843 0.99984
    outer loop
      vertex -7.73952 -12.2592 -1
      vertex -7.79804 -12.222 -1
      vertex -7.76949 -12.2428 -1.00004
    endloop
  endfacet
  facet normal -0.00998436 -0.0117382 0.999881
    outer loop
      vertex -9.2353 -11.1778 -1
      vertex -9.25317 -11.1626 -1
      vertex -9.24265 -11.1724 -1.00001
    endloop
  endfacet
  facet normal -0.712361 0.701813 0
    outer loop
      vertex -10.0533 -10.4112 -1.4
      vertex -0.492892 -0.707107 -1
      vertex -0.492892 -0.707107 -1.4
    endloop
  endfacet
  facet normal -0.712361 0.701813 0
    outer loop
      vertex -0.492892 -0.707107 -1
      vertex -10.0533 -10.4112 -1.4
      vertex -10.0533 -10.4112 -1
    endloop
  endfacet
  facet normal -0.996918 0.0784552 0
    outer loop
      vertex -0.212311 -0.156434 -1.4
      vertex -0.2 0 -1
      vertex -0.2 0 -1.4
    endloop
  endfacet
  facet normal -0.996918 0.0784552 0
    outer loop
      vertex -0.2 0 -1
      vertex -0.212311 -0.156434 -1.4
      vertex -0.212311 -0.156434 -1
    endloop
  endfacet
  facet normal -0.760411 0.649442 0
    outer loop
      vertex -0.492892 -0.707107 -1.4
      vertex -0.390983 -0.587785 -1
      vertex -0.390983 -0.587785 -1.4
    endloop
  endfacet
  facet normal -0.760411 0.649442 0
    outer loop
      vertex -0.390983 -0.587785 -1
      vertex -0.492892 -0.707107 -1.4
      vertex -0.492892 -0.707107 -1
    endloop
  endfacet
  facet normal -0.712361 -0.701813 0
    outer loop
      vertex -0.492892 0.707107 -1.4
      vertex -10.0533 10.4112 -1
      vertex -10.0533 10.4112 -1.4
    endloop
  endfacet
  facet normal -0.712361 -0.701813 0
    outer loop
      vertex -10.0533 10.4112 -1
      vertex -0.492892 0.707107 -1.4
      vertex -0.492892 0.707107 -1
    endloop
  endfacet
  facet normal -0.996918 -0.0784552 0
    outer loop
      vertex -0.2 0 -1.4
      vertex -0.212311 0.156434 -1
      vertex -0.212311 0.156434 -1.4
    endloop
  endfacet
  facet normal -0.996918 -0.0784552 0
    outer loop
      vertex -0.212311 0.156434 -1
      vertex -0.2 0 -1.4
      vertex -0.2 0 -1
    endloop
  endfacet
  facet normal -0.972369 -0.233447 0
    outer loop
      vertex -0.212311 0.156434 -1.4
      vertex -0.248943 0.309016 -1
      vertex -0.248943 0.309016 -1.4
    endloop
  endfacet
  facet normal -0.972369 -0.233447 0
    outer loop
      vertex -0.248943 0.309016 -1
      vertex -0.212311 0.156434 -1.4
      vertex -0.212311 0.156434 -1
    endloop
  endfacet
  facet normal -0.760411 -0.649442 0
    outer loop
      vertex -0.390983 0.587785 -1.4
      vertex -0.492892 0.707107 -1
      vertex -0.492892 0.707107 -1.4
    endloop
  endfacet
  facet normal -0.760411 -0.649442 0
    outer loop
      vertex -0.492892 0.707107 -1
      vertex -0.390983 0.587785 -1.4
      vertex -0.390983 0.587785 -1
    endloop
  endfacet
  facet normal -0.92388 0.382682 0
    outer loop
      vertex -0.308993 -0.45399 -1.4
      vertex -0.248943 -0.309016 -1
      vertex -0.248943 -0.309016 -1.4
    endloop
  endfacet
  facet normal -0.92388 0.382682 0
    outer loop
      vertex -0.248943 -0.309016 -1
      vertex -0.308993 -0.45399 -1.4
      vertex -0.308993 -0.45399 -1
    endloop
  endfacet
  facet normal -0.972369 0.233447 0
    outer loop
      vertex -0.248943 -0.309016 -1.4
      vertex -0.212311 -0.156434 -1
      vertex -0.212311 -0.156434 -1.4
    endloop
  endfacet
  facet normal -0.972369 0.233447 0
    outer loop
      vertex -0.212311 -0.156434 -1
      vertex -0.248943 -0.309016 -1.4
      vertex -0.248943 -0.309016 -1
    endloop
  endfacet
  facet normal -0.92388 -0.382682 0
    outer loop
      vertex -0.248943 0.309016 -1.4
      vertex -0.308993 0.45399 -1
      vertex -0.308993 0.45399 -1.4
    endloop
  endfacet
  facet normal -0.92388 -0.382682 0
    outer loop
      vertex -0.308993 0.45399 -1
      vertex -0.248943 0.309016 -1.4
      vertex -0.248943 0.309016 -1
    endloop
  endfacet
  facet normal -0.852639 -0.5225 0
    outer loop
      vertex -0.308993 0.45399 -1.4
      vertex -0.390983 0.587785 -1
      vertex -0.390983 0.587785 -1.4
    endloop
  endfacet
  facet normal -0.852639 -0.5225 0
    outer loop
      vertex -0.390983 0.587785 -1
      vertex -0.308993 0.45399 -1.4
      vertex -0.308993 0.45399 -1
    endloop
  endfacet
  facet normal -0.852639 0.5225 0
    outer loop
      vertex -0.390983 -0.587785 -1.4
      vertex -0.308993 -0.45399 -1
      vertex -0.308993 -0.45399 -1.4
    endloop
  endfacet
  facet normal -0.852639 0.5225 0
    outer loop
      vertex -0.308993 -0.45399 -1
      vertex -0.390983 -0.587785 -1.4
      vertex -0.390983 -0.587785 -1
    endloop
  endfacet
  facet normal 0 0 -1
    outer loop
      vertex -0.2 0 -1.4
      vertex 14.5 0 -1.4
      vertex 14.3857 -1.81733 -1.4
    endloop
  endfacet
  facet normal 0 0 -1
    outer loop
      vertex -0.212311 -0.156434 -1.4
      vertex 14.3857 -1.81733 -1.4
      vertex 14.0445 -3.606 -1.4
    endloop
  endfacet
  facet normal 0 0 -1
    outer loop
      vertex 14.5 0 -1.4
      vertex -0.2 0 -1.4
      vertex 14.3857 1.81733 -1.4
    endloop
  endfacet
  facet normal 0 0 -1
    outer loop
      vertex -0.248943 -0.309016 -1.4
      vertex 14.0445 -3.606 -1.4
      vertex 13.4818 -5.33781 -1.4
    endloop
  endfacet
  facet normal 0 0 -1
    outer loop
      vertex -0.212311 0.156434 -1.4
      vertex 14.3857 1.81733 -1.4
      vertex -0.2 0 -1.4
    endloop
  endfacet
  facet normal 0 0 -1
    outer loop
      vertex -0.248943 -0.309016 -1.4
      vertex 13.4818 -5.33781 -1.4
      vertex 12.7064 -6.98543 -1.4
    endloop
  endfacet
  facet normal -0 0 -1
    outer loop
      vertex 14.3857 1.81733 -1.4
      vertex -0.212311 0.156434 -1.4
      vertex 14.0445 3.606 -1.4
    endloop
  endfacet
  facet normal 0 0 -1
    outer loop
      vertex -0.308993 -0.45399 -1.4
      vertex 12.7064 -6.98543 -1.4
      vertex 11.7307 -8.52289 -1.4
    endloop
  endfacet
  facet normal 0 0 -1
    outer loop
      vertex -0.248943 0.309016 -1.4
      vertex 14.0445 3.606 -1.4
      vertex -0.212311 0.156434 -1.4
    endloop
  endfacet
  facet normal 0 0 -1
    outer loop
      vertex -0.390983 -0.587785 -1.4
      vertex 11.7307 -8.52289 -1.4
      vertex 10.57 -9.92593 -1.4
    endloop
  endfacet
  facet normal -0 0 -1
    outer loop
      vertex 14.0445 3.606 -1.4
      vertex -0.248943 0.309016 -1.4
      vertex 13.4818 5.33781 -1.4
    endloop
  endfacet
  facet normal 0 0 -1
    outer loop
      vertex -0.390983 -0.587785 -1.4
      vertex 10.57 -9.92593 -1.4
      vertex 9.24265 -11.1724 -1.4
    endloop
  endfacet
  facet normal -0 0 -1
    outer loop
      vertex 13.4818 5.33781 -1.4
      vertex -0.248943 0.309016 -1.4
      vertex 12.7064 6.98543 -1.4
    endloop
  endfacet
  facet normal 0 0 -1
    outer loop
      vertex -0.492892 -0.707107 -1.4
      vertex 9.24265 -11.1724 -1.4
      vertex 7.76949 -12.2428 -1.4
    endloop
  endfacet
  facet normal 0 0 -1
    outer loop
      vertex -0.308993 0.45399 -1.4
      vertex 12.7064 6.98543 -1.4
      vertex -0.248943 0.309016 -1.4
    endloop
  endfacet
  facet normal 0 0 -1
    outer loop
      vertex -0.492892 -0.707107 -1.4
      vertex 7.76949 -12.2428 -1.4
      vertex 6.1738 -13.12 -1.4
    endloop
  endfacet
  facet normal -0 0 -1
    outer loop
      vertex 12.7064 6.98543 -1.4
      vertex -0.308993 0.45399 -1.4
      vertex 11.7307 8.52289 -1.4
    endloop
  endfacet
  facet normal 0 0 -1
    outer loop
      vertex -0.492892 -0.707107 -1.4
      vertex 6.1738 -13.12 -1.4
      vertex 4.48075 -13.7903 -1.4
    endloop
  endfacet
  facet normal 0 0 -1
    outer loop
      vertex -0.390983 0.587785 -1.4
      vertex 11.7307 8.52289 -1.4
      vertex -0.308993 0.45399 -1.4
    endloop
  endfacet
  facet normal 0 0 -1
    outer loop
      vertex -0.492892 -0.707107 -1.4
      vertex 4.48075 -13.7903 -1.4
      vertex 2.71703 -14.2432 -1.4
    endloop
  endfacet
  facet normal -0 0 -1
    outer loop
      vertex 11.7307 8.52289 -1.4
      vertex -0.390983 0.587785 -1.4
      vertex 10.57 9.92593 -1.4
    endloop
  endfacet
  facet normal 0 0 -1
    outer loop
      vertex -0.492892 -0.707107 -1.4
      vertex 2.71703 -14.2432 -1.4
      vertex 0.910462 -14.4714 -1.4
    endloop
  endfacet
  facet normal -0 0 -1
    outer loop
      vertex 10.57 9.92593 -1.4
      vertex -0.390983 0.587785 -1.4
      vertex 9.24265 11.1724 -1.4
    endloop
  endfacet
  facet normal 0 0 -1
    outer loop
      vertex -0.492892 0.707107 -1.4
      vertex 9.24265 11.1724 -1.4
      vertex -0.390983 0.587785 -1.4
    endloop
  endfacet
  facet normal 0 0 -1
    outer loop
      vertex 14.3857 -1.81733 -1.4
      vertex -0.212311 -0.156434 -1.4
      vertex -0.2 0 -1.4
    endloop
  endfacet
  facet normal 0 0 -1
    outer loop
      vertex 14.0445 -3.606 -1.4
      vertex -0.248943 -0.309016 -1.4
      vertex -0.212311 -0.156434 -1.4
    endloop
  endfacet
  facet normal 0 0 -1
    outer loop
      vertex 12.7064 -6.98543 -1.4
      vertex -0.308993 -0.45399 -1.4
      vertex -0.248943 -0.309016 -1.4
    endloop
  endfacet
  facet normal 0 0 -1
    outer loop
      vertex 11.7307 -8.52289 -1.4
      vertex -0.390983 -0.587785 -1.4
      vertex -0.308993 -0.45399 -1.4
    endloop
  endfacet
  facet normal 0 0 -1
    outer loop
      vertex 9.24265 -11.1724 -1.4
      vertex -0.492892 -0.707107 -1.4
      vertex -0.390983 -0.587785 -1.4
    endloop
  endfacet
  facet normal 0 0 -1
    outer loop
      vertex -0.910462 -14.4714 -1.4
      vertex -0.492892 -0.707107 -1.4
      vertex 0.910462 -14.4714 -1.4
    endloop
  endfacet
  facet normal 0 0 -1
    outer loop
      vertex -2.71703 -14.2432 -1.4
      vertex -0.492892 -0.707107 -1.4
      vertex -0.910462 -14.4714 -1.4
    endloop
  endfacet
  facet normal 0 0 -1
    outer loop
      vertex -4.48075 -13.7903 -1.4
      vertex -0.492892 -0.707107 -1.4
      vertex -2.71703 -14.2432 -1.4
    endloop
  endfacet
  facet normal 0 0 -1
    outer loop
      vertex -6.1738 -13.12 -1.4
      vertex -0.492892 -0.707107 -1.4
      vertex -4.48075 -13.7903 -1.4
    endloop
  endfacet
  facet normal 0 0 -1
    outer loop
      vertex -7.76949 -12.2428 -1.4
      vertex -0.492892 -0.707107 -1.4
      vertex -6.1738 -13.12 -1.4
    endloop
  endfacet
  facet normal 0 0 -1
    outer loop
      vertex -9.24265 -11.1724 -1.4
      vertex -0.492892 -0.707107 -1.4
      vertex -7.76949 -12.2428 -1.4
    endloop
  endfacet
  facet normal 0 0 -1
    outer loop
      vertex -0.492892 -0.707107 -1.4
      vertex -9.24265 -11.1724 -1.4
      vertex -10.0533 -10.4112 -1.4
    endloop
  endfacet
  facet normal -0 0 -1
    outer loop
      vertex 9.24265 11.1724 -1.4
      vertex -0.492892 0.707107 -1.4
      vertex 7.76949 12.2428 -1.4
    endloop
  endfacet
  facet normal -0 0 -1
    outer loop
      vertex 7.76949 12.2428 -1.4
      vertex -0.492892 0.707107 -1.4
      vertex 6.1738 13.12 -1.4
    endloop
  endfacet
  facet normal -0 0 -1
    outer loop
      vertex 6.1738 13.12 -1.4
      vertex -0.492892 0.707107 -1.4
      vertex 4.48075 13.7903 -1.4
    endloop
  endfacet
  facet normal -0 0 -1
    outer loop
      vertex 4.48075 13.7903 -1.4
      vertex -0.492892 0.707107 -1.4
      vertex 2.71703 14.2432 -1.4
    endloop
  endfacet
  facet normal -0 0 -1
    outer loop
      vertex 2.71703 14.2432 -1.4
      vertex -0.492892 0.707107 -1.4
      vertex 0.910462 14.4714 -1.4
    endloop
  endfacet
  facet normal 0 0 -1
    outer loop
      vertex -0.492892 0.707107 -1.4
      vertex -0.910462 14.4714 -1.4
      vertex 0.910462 14.4714 -1.4
    endloop
  endfacet
  facet normal 0 0 -1
    outer loop
      vertex -0.492892 0.707107 -1.4
      vertex -2.71703 14.2432 -1.4
      vertex -0.910462 14.4714 -1.4
    endloop
  endfacet
  facet normal 0 0 -1
    outer loop
      vertex -0.492892 0.707107 -1.4
      vertex -4.48075 13.7903 -1.4
      vertex -2.71703 14.2432 -1.4
    endloop
  endfacet
  facet normal 0 0 -1
    outer loop
      vertex -0.492892 0.707107 -1.4
      vertex -6.1738 13.12 -1.4
      vertex -4.48075 13.7903 -1.4
    endloop
  endfacet
  facet normal 0 0 -1
    outer loop
      vertex -0.492892 0.707107 -1.4
      vertex -7.76949 12.2428 -1.4
      vertex -6.1738 13.12 -1.4
    endloop
  endfacet
  facet normal 0 0 -1
    outer loop
      vertex -0.492892 0.707107 -1.4
      vertex -9.24265 11.1724 -1.4
      vertex -7.76949 12.2428 -1.4
    endloop
  endfacet
  facet normal 0 -0 -1
    outer loop
      vertex -9.24265 11.1724 -1.4
      vertex -0.492892 0.707107 -1.4
      vertex -10.0533 10.4112 -1.4
    endloop
  endfacet
endsolid OpenSCAD_Model
