solid OpenSCAD_Model
  facet normal 0.996918 0.0784554 0
    outer loop
      vertex 1.35 0 6
      vertex 1.33338 0.211187 0
      vertex 1.33338 0.211187 6
    endloop
  endfacet
  facet normal 0.996918 0.0784554 0
    outer loop
      vertex 1.33338 0.211187 0
      vertex 1.35 0 6
      vertex 1.35 0 0
    endloop
  endfacet
  facet normal 0.972373 0.233433 0
    outer loop
      vertex 1.33338 0.211187 6
      vertex 1.28393 0.417173 0
      vertex 1.28393 0.417173 6
    endloop
  endfacet
  facet normal 0.972373 0.233433 0
    outer loop
      vertex 1.28393 0.417173 0
      vertex 1.33338 0.211187 6
      vertex 1.33338 0.211187 0
    endloop
  endfacet
  facet normal 0.923875 0.382694 0
    outer loop
      vertex 1.28393 0.417173 6
      vertex 1.20286 0.612887 0
      vertex 1.20286 0.612887 6
    endloop
  endfacet
  facet normal 0.923875 0.382694 0
    outer loop
      vertex 1.20286 0.612887 0
      vertex 1.28393 0.417173 6
      vertex 1.28393 0.417173 0
    endloop
  endfacet
  facet normal 0.852632 0.522513 0
    outer loop
      vertex 1.20286 0.612887 6
      vertex 1.09217 0.79351 0
      vertex 1.09217 0.79351 6
    endloop
  endfacet
  facet normal 0.852632 0.522513 0
    outer loop
      vertex 1.09217 0.79351 0
      vertex 1.20286 0.612887 6
      vertex 1.20286 0.612887 0
    endloop
  endfacet
  facet normal 0.760412 0.649441 0
    outer loop
      vertex 1.09217 0.79351 6
      vertex 0.954594 0.954594 0
      vertex 0.954594 0.954594 6
    endloop
  endfacet
  facet normal 0.760412 0.649441 0
    outer loop
      vertex 0.954594 0.954594 0
      vertex 1.09217 0.79351 6
      vertex 1.09217 0.79351 0
    endloop
  endfacet
  facet normal 0.649441 0.760412 -0
    outer loop
      vertex 0.954594 0.954594 0
      vertex 0.79351 1.09217 6
      vertex 0.954594 0.954594 6
    endloop
  endfacet
  facet normal 0.649441 0.760412 0
    outer loop
      vertex 0.79351 1.09217 6
      vertex 0.954594 0.954594 0
      vertex 0.79351 1.09217 0
    endloop
  endfacet
  facet normal 0.522513 0.852632 -0
    outer loop
      vertex 0.79351 1.09217 0
      vertex 0.612887 1.20286 6
      vertex 0.79351 1.09217 6
    endloop
  endfacet
  facet normal 0.522513 0.852632 0
    outer loop
      vertex 0.612887 1.20286 6
      vertex 0.79351 1.09217 0
      vertex 0.612887 1.20286 0
    endloop
  endfacet
  facet normal 0.382694 0.923875 -0
    outer loop
      vertex 0.612887 1.20286 0
      vertex 0.417173 1.28393 6
      vertex 0.612887 1.20286 6
    endloop
  endfacet
  facet normal 0.382694 0.923875 0
    outer loop
      vertex 0.417173 1.28393 6
      vertex 0.612887 1.20286 0
      vertex 0.417173 1.28393 0
    endloop
  endfacet
  facet normal 0.233433 0.972373 -0
    outer loop
      vertex 0.417173 1.28393 0
      vertex 0.211187 1.33338 6
      vertex 0.417173 1.28393 6
    endloop
  endfacet
  facet normal 0.233433 0.972373 0
    outer loop
      vertex 0.211187 1.33338 6
      vertex 0.417173 1.28393 0
      vertex 0.211187 1.33338 0
    endloop
  endfacet
  facet normal 0.0784554 0.996918 -0
    outer loop
      vertex 0.211187 1.33338 0
      vertex 8.26609e-017 1.35 6
      vertex 0.211187 1.33338 6
    endloop
  endfacet
  facet normal 0.0784554 0.996918 0
    outer loop
      vertex 8.26609e-017 1.35 6
      vertex 0.211187 1.33338 0
      vertex 8.26609e-017 1.35 0
    endloop
  endfacet
  facet normal -0.0784554 0.996918 0
    outer loop
      vertex 8.26609e-017 1.35 0
      vertex -0.211187 1.33338 6
      vertex 8.26609e-017 1.35 6
    endloop
  endfacet
  facet normal -0.0784554 0.996918 0
    outer loop
      vertex -0.211187 1.33338 6
      vertex 8.26609e-017 1.35 0
      vertex -0.211187 1.33338 0
    endloop
  endfacet
  facet normal -0.233433 0.972373 0
    outer loop
      vertex -0.211187 1.33338 0
      vertex -0.417173 1.28393 6
      vertex -0.211187 1.33338 6
    endloop
  endfacet
  facet normal -0.233433 0.972373 0
    outer loop
      vertex -0.417173 1.28393 6
      vertex -0.211187 1.33338 0
      vertex -0.417173 1.28393 0
    endloop
  endfacet
  facet normal -0.382694 0.923875 0
    outer loop
      vertex -0.417173 1.28393 0
      vertex -0.612887 1.20286 6
      vertex -0.417173 1.28393 6
    endloop
  endfacet
  facet normal -0.382694 0.923875 0
    outer loop
      vertex -0.612887 1.20286 6
      vertex -0.417173 1.28393 0
      vertex -0.612887 1.20286 0
    endloop
  endfacet
  facet normal -0.522513 0.852632 0
    outer loop
      vertex -0.612887 1.20286 0
      vertex -0.79351 1.09217 6
      vertex -0.612887 1.20286 6
    endloop
  endfacet
  facet normal -0.522513 0.852632 0
    outer loop
      vertex -0.79351 1.09217 6
      vertex -0.612887 1.20286 0
      vertex -0.79351 1.09217 0
    endloop
  endfacet
  facet normal -0.649441 0.760412 0
    outer loop
      vertex -0.79351 1.09217 0
      vertex -0.954594 0.954594 6
      vertex -0.79351 1.09217 6
    endloop
  endfacet
  facet normal -0.649441 0.760412 0
    outer loop
      vertex -0.954594 0.954594 6
      vertex -0.79351 1.09217 0
      vertex -0.954594 0.954594 0
    endloop
  endfacet
  facet normal -0.760412 0.649441 0
    outer loop
      vertex -1.09217 0.79351 0
      vertex -0.954594 0.954594 6
      vertex -0.954594 0.954594 0
    endloop
  endfacet
  facet normal -0.760412 0.649441 0
    outer loop
      vertex -0.954594 0.954594 6
      vertex -1.09217 0.79351 0
      vertex -1.09217 0.79351 6
    endloop
  endfacet
  facet normal -0.852632 0.522513 0
    outer loop
      vertex -1.20286 0.612887 0
      vertex -1.09217 0.79351 6
      vertex -1.09217 0.79351 0
    endloop
  endfacet
  facet normal -0.852632 0.522513 0
    outer loop
      vertex -1.09217 0.79351 6
      vertex -1.20286 0.612887 0
      vertex -1.20286 0.612887 6
    endloop
  endfacet
  facet normal -0.923875 0.382694 0
    outer loop
      vertex -1.28393 0.417173 0
      vertex -1.20286 0.612887 6
      vertex -1.20286 0.612887 0
    endloop
  endfacet
  facet normal -0.923875 0.382694 0
    outer loop
      vertex -1.20286 0.612887 6
      vertex -1.28393 0.417173 0
      vertex -1.28393 0.417173 6
    endloop
  endfacet
  facet normal -0.972373 0.233433 0
    outer loop
      vertex -1.33338 0.211187 0
      vertex -1.28393 0.417173 6
      vertex -1.28393 0.417173 0
    endloop
  endfacet
  facet normal -0.972373 0.233433 0
    outer loop
      vertex -1.28393 0.417173 6
      vertex -1.33338 0.211187 0
      vertex -1.33338 0.211187 6
    endloop
  endfacet
  facet normal -0.996918 0.0784554 0
    outer loop
      vertex -1.35 1.65322e-016 0
      vertex -1.33338 0.211187 6
      vertex -1.33338 0.211187 0
    endloop
  endfacet
  facet normal -0.996918 0.0784554 0
    outer loop
      vertex -1.33338 0.211187 6
      vertex -1.35 1.65322e-016 0
      vertex -1.35 1.65322e-016 6
    endloop
  endfacet
  facet normal -0.996918 -0.0784554 0
    outer loop
      vertex -1.33338 -0.211187 0
      vertex -1.35 1.65322e-016 6
      vertex -1.35 1.65322e-016 0
    endloop
  endfacet
  facet normal -0.996918 -0.0784554 0
    outer loop
      vertex -1.35 1.65322e-016 6
      vertex -1.33338 -0.211187 0
      vertex -1.33338 -0.211187 6
    endloop
  endfacet
  facet normal -0.972373 -0.233433 0
    outer loop
      vertex -1.28393 -0.417173 0
      vertex -1.33338 -0.211187 6
      vertex -1.33338 -0.211187 0
    endloop
  endfacet
  facet normal -0.972373 -0.233433 0
    outer loop
      vertex -1.33338 -0.211187 6
      vertex -1.28393 -0.417173 0
      vertex -1.28393 -0.417173 6
    endloop
  endfacet
  facet normal -0.923875 -0.382694 0
    outer loop
      vertex -1.20286 -0.612887 0
      vertex -1.28393 -0.417173 6
      vertex -1.28393 -0.417173 0
    endloop
  endfacet
  facet normal -0.923875 -0.382694 0
    outer loop
      vertex -1.28393 -0.417173 6
      vertex -1.20286 -0.612887 0
      vertex -1.20286 -0.612887 6
    endloop
  endfacet
  facet normal -0.852632 -0.522513 0
    outer loop
      vertex -1.09217 -0.79351 0
      vertex -1.20286 -0.612887 6
      vertex -1.20286 -0.612887 0
    endloop
  endfacet
  facet normal -0.852632 -0.522513 0
    outer loop
      vertex -1.20286 -0.612887 6
      vertex -1.09217 -0.79351 0
      vertex -1.09217 -0.79351 6
    endloop
  endfacet
  facet normal -0.760412 -0.649441 0
    outer loop
      vertex -0.954594 -0.954594 0
      vertex -1.09217 -0.79351 6
      vertex -1.09217 -0.79351 0
    endloop
  endfacet
  facet normal -0.760412 -0.649441 0
    outer loop
      vertex -1.09217 -0.79351 6
      vertex -0.954594 -0.954594 0
      vertex -0.954594 -0.954594 6
    endloop
  endfacet
  facet normal -0.649441 -0.760412 0
    outer loop
      vertex -0.954594 -0.954594 0
      vertex -0.79351 -1.09217 6
      vertex -0.954594 -0.954594 6
    endloop
  endfacet
  facet normal -0.649441 -0.760412 -0
    outer loop
      vertex -0.79351 -1.09217 6
      vertex -0.954594 -0.954594 0
      vertex -0.79351 -1.09217 0
    endloop
  endfacet
  facet normal -0.522513 -0.852632 0
    outer loop
      vertex -0.79351 -1.09217 0
      vertex -0.612887 -1.20286 6
      vertex -0.79351 -1.09217 6
    endloop
  endfacet
  facet normal -0.522513 -0.852632 -0
    outer loop
      vertex -0.612887 -1.20286 6
      vertex -0.79351 -1.09217 0
      vertex -0.612887 -1.20286 0
    endloop
  endfacet
  facet normal -0.382694 -0.923875 0
    outer loop
      vertex -0.612887 -1.20286 0
      vertex -0.417173 -1.28393 6
      vertex -0.612887 -1.20286 6
    endloop
  endfacet
  facet normal -0.382694 -0.923875 -0
    outer loop
      vertex -0.417173 -1.28393 6
      vertex -0.612887 -1.20286 0
      vertex -0.417173 -1.28393 0
    endloop
  endfacet
  facet normal -0.233433 -0.972373 0
    outer loop
      vertex -0.417173 -1.28393 0
      vertex -0.211187 -1.33338 6
      vertex -0.417173 -1.28393 6
    endloop
  endfacet
  facet normal -0.233433 -0.972373 -0
    outer loop
      vertex -0.211187 -1.33338 6
      vertex -0.417173 -1.28393 0
      vertex -0.211187 -1.33338 0
    endloop
  endfacet
  facet normal -0.0784554 -0.996918 0
    outer loop
      vertex -0.211187 -1.33338 0
      vertex -2.47983e-016 -1.35 6
      vertex -0.211187 -1.33338 6
    endloop
  endfacet
  facet normal -0.0784554 -0.996918 -0
    outer loop
      vertex -2.47983e-016 -1.35 6
      vertex -0.211187 -1.33338 0
      vertex -2.47983e-016 -1.35 0
    endloop
  endfacet
  facet normal 0.0784554 -0.996918 0
    outer loop
      vertex -2.47983e-016 -1.35 0
      vertex 0.211187 -1.33338 6
      vertex -2.47983e-016 -1.35 6
    endloop
  endfacet
  facet normal 0.0784554 -0.996918 0
    outer loop
      vertex 0.211187 -1.33338 6
      vertex -2.47983e-016 -1.35 0
      vertex 0.211187 -1.33338 0
    endloop
  endfacet
  facet normal 0.233433 -0.972373 0
    outer loop
      vertex 0.211187 -1.33338 0
      vertex 0.417173 -1.28393 6
      vertex 0.211187 -1.33338 6
    endloop
  endfacet
  facet normal 0.233433 -0.972373 0
    outer loop
      vertex 0.417173 -1.28393 6
      vertex 0.211187 -1.33338 0
      vertex 0.417173 -1.28393 0
    endloop
  endfacet
  facet normal 0.382694 -0.923875 0
    outer loop
      vertex 0.417173 -1.28393 0
      vertex 0.612887 -1.20286 6
      vertex 0.417173 -1.28393 6
    endloop
  endfacet
  facet normal 0.382694 -0.923875 0
    outer loop
      vertex 0.612887 -1.20286 6
      vertex 0.417173 -1.28393 0
      vertex 0.612887 -1.20286 0
    endloop
  endfacet
  facet normal 0.522513 -0.852632 0
    outer loop
      vertex 0.612887 -1.20286 0
      vertex 0.79351 -1.09217 6
      vertex 0.612887 -1.20286 6
    endloop
  endfacet
  facet normal 0.522513 -0.852632 0
    outer loop
      vertex 0.79351 -1.09217 6
      vertex 0.612887 -1.20286 0
      vertex 0.79351 -1.09217 0
    endloop
  endfacet
  facet normal 0.649441 -0.760412 0
    outer loop
      vertex 0.79351 -1.09217 0
      vertex 0.954594 -0.954594 6
      vertex 0.79351 -1.09217 6
    endloop
  endfacet
  facet normal 0.649441 -0.760412 0
    outer loop
      vertex 0.954594 -0.954594 6
      vertex 0.79351 -1.09217 0
      vertex 0.954594 -0.954594 0
    endloop
  endfacet
  facet normal 0.760412 -0.649441 0
    outer loop
      vertex 0.954594 -0.954594 6
      vertex 1.09217 -0.79351 0
      vertex 1.09217 -0.79351 6
    endloop
  endfacet
  facet normal 0.760412 -0.649441 0
    outer loop
      vertex 1.09217 -0.79351 0
      vertex 0.954594 -0.954594 6
      vertex 0.954594 -0.954594 0
    endloop
  endfacet
  facet normal 0.852632 -0.522513 0
    outer loop
      vertex 1.09217 -0.79351 6
      vertex 1.20286 -0.612887 0
      vertex 1.20286 -0.612887 6
    endloop
  endfacet
  facet normal 0.852632 -0.522513 0
    outer loop
      vertex 1.20286 -0.612887 0
      vertex 1.09217 -0.79351 6
      vertex 1.09217 -0.79351 0
    endloop
  endfacet
  facet normal 0.923875 -0.382694 0
    outer loop
      vertex 1.20286 -0.612887 6
      vertex 1.28393 -0.417173 0
      vertex 1.28393 -0.417173 6
    endloop
  endfacet
  facet normal 0.923875 -0.382694 0
    outer loop
      vertex 1.28393 -0.417173 0
      vertex 1.20286 -0.612887 6
      vertex 1.20286 -0.612887 0
    endloop
  endfacet
  facet normal 0.972373 -0.233433 0
    outer loop
      vertex 1.28393 -0.417173 6
      vertex 1.33338 -0.211187 0
      vertex 1.33338 -0.211187 6
    endloop
  endfacet
  facet normal 0.972373 -0.233433 0
    outer loop
      vertex 1.33338 -0.211187 0
      vertex 1.28393 -0.417173 6
      vertex 1.28393 -0.417173 0
    endloop
  endfacet
  facet normal 0.996918 -0.0784554 0
    outer loop
      vertex 1.33338 -0.211187 6
      vertex 1.35 0 0
      vertex 1.35 0 6
    endloop
  endfacet
  facet normal 0.996918 -0.0784554 0
    outer loop
      vertex 1.35 0 0
      vertex 1.33338 -0.211187 6
      vertex 1.33338 -0.211187 0
    endloop
  endfacet
  facet normal 0 0 -1
    outer loop
      vertex 1.33338 -0.211187 0
      vertex 1.33338 0.211187 0
      vertex 1.35 0 0
    endloop
  endfacet
  facet normal 0 0 -1
    outer loop
      vertex 1.28393 -0.417173 0
      vertex 1.33338 0.211187 0
      vertex 1.33338 -0.211187 0
    endloop
  endfacet
  facet normal 0 0 -1
    outer loop
      vertex 1.28393 -0.417173 0
      vertex 1.28393 0.417173 0
      vertex 1.33338 0.211187 0
    endloop
  endfacet
  facet normal 0 0 -1
    outer loop
      vertex 1.20286 -0.612887 0
      vertex 1.28393 0.417173 0
      vertex 1.28393 -0.417173 0
    endloop
  endfacet
  facet normal 0 0 -1
    outer loop
      vertex 1.20286 -0.612887 0
      vertex 1.20286 0.612887 0
      vertex 1.28393 0.417173 0
    endloop
  endfacet
  facet normal 0 0 -1
    outer loop
      vertex 1.09217 -0.79351 0
      vertex 1.20286 0.612887 0
      vertex 1.20286 -0.612887 0
    endloop
  endfacet
  facet normal 0 0 -1
    outer loop
      vertex 1.09217 -0.79351 0
      vertex 1.09217 0.79351 0
      vertex 1.20286 0.612887 0
    endloop
  endfacet
  facet normal 0 0 -1
    outer loop
      vertex 0.954594 -0.954594 0
      vertex 1.09217 0.79351 0
      vertex 1.09217 -0.79351 0
    endloop
  endfacet
  facet normal 0 0 -1
    outer loop
      vertex 0.954594 -0.954594 0
      vertex 0.954594 0.954594 0
      vertex 1.09217 0.79351 0
    endloop
  endfacet
  facet normal 0 0 -1
    outer loop
      vertex 0.79351 -1.09217 0
      vertex 0.954594 0.954594 0
      vertex 0.954594 -0.954594 0
    endloop
  endfacet
  facet normal 0 0 -1
    outer loop
      vertex 0.79351 -1.09217 0
      vertex 0.79351 1.09217 0
      vertex 0.954594 0.954594 0
    endloop
  endfacet
  facet normal 0 0 -1
    outer loop
      vertex 0.612887 -1.20286 0
      vertex 0.79351 1.09217 0
      vertex 0.79351 -1.09217 0
    endloop
  endfacet
  facet normal 0 0 -1
    outer loop
      vertex 0.612887 -1.20286 0
      vertex 0.612887 1.20286 0
      vertex 0.79351 1.09217 0
    endloop
  endfacet
  facet normal 0 0 -1
    outer loop
      vertex 0.417173 -1.28393 0
      vertex 0.612887 1.20286 0
      vertex 0.612887 -1.20286 0
    endloop
  endfacet
  facet normal 0 0 -1
    outer loop
      vertex 0.417173 -1.28393 0
      vertex 0.417173 1.28393 0
      vertex 0.612887 1.20286 0
    endloop
  endfacet
  facet normal 0 0 -1
    outer loop
      vertex 0.211187 -1.33338 0
      vertex 0.417173 1.28393 0
      vertex 0.417173 -1.28393 0
    endloop
  endfacet
  facet normal 0 0 -1
    outer loop
      vertex 0.211187 -1.33338 0
      vertex 0.211187 1.33338 0
      vertex 0.417173 1.28393 0
    endloop
  endfacet
  facet normal 0 0 -1
    outer loop
      vertex 0.211187 -1.33338 0
      vertex 8.26609e-017 1.35 0
      vertex 0.211187 1.33338 0
    endloop
  endfacet
  facet normal 0 0 -1
    outer loop
      vertex -2.47983e-016 -1.35 0
      vertex 8.26609e-017 1.35 0
      vertex 0.211187 -1.33338 0
    endloop
  endfacet
  facet normal 0 0 -1
    outer loop
      vertex -0.211187 -1.33338 0
      vertex 8.26609e-017 1.35 0
      vertex -2.47983e-016 -1.35 0
    endloop
  endfacet
  facet normal 0 0 -1
    outer loop
      vertex -0.211187 -1.33338 0
      vertex -0.211187 1.33338 0
      vertex 8.26609e-017 1.35 0
    endloop
  endfacet
  facet normal 0 0 -1
    outer loop
      vertex -0.417173 -1.28393 0
      vertex -0.211187 1.33338 0
      vertex -0.211187 -1.33338 0
    endloop
  endfacet
  facet normal 0 0 -1
    outer loop
      vertex -0.417173 -1.28393 0
      vertex -0.417173 1.28393 0
      vertex -0.211187 1.33338 0
    endloop
  endfacet
  facet normal 0 0 -1
    outer loop
      vertex -0.612887 -1.20286 0
      vertex -0.417173 1.28393 0
      vertex -0.417173 -1.28393 0
    endloop
  endfacet
  facet normal 0 0 -1
    outer loop
      vertex -0.612887 -1.20286 0
      vertex -0.612887 1.20286 0
      vertex -0.417173 1.28393 0
    endloop
  endfacet
  facet normal 0 0 -1
    outer loop
      vertex -0.79351 -1.09217 0
      vertex -0.612887 1.20286 0
      vertex -0.612887 -1.20286 0
    endloop
  endfacet
  facet normal 0 0 -1
    outer loop
      vertex -0.79351 -1.09217 0
      vertex -0.79351 1.09217 0
      vertex -0.612887 1.20286 0
    endloop
  endfacet
  facet normal 0 0 -1
    outer loop
      vertex -0.954594 -0.954594 0
      vertex -0.79351 1.09217 0
      vertex -0.79351 -1.09217 0
    endloop
  endfacet
  facet normal 0 0 -1
    outer loop
      vertex -0.954594 -0.954594 0
      vertex -0.954594 0.954594 0
      vertex -0.79351 1.09217 0
    endloop
  endfacet
  facet normal 0 0 -1
    outer loop
      vertex -1.09217 -0.79351 0
      vertex -0.954594 0.954594 0
      vertex -0.954594 -0.954594 0
    endloop
  endfacet
  facet normal 0 0 -1
    outer loop
      vertex -1.09217 -0.79351 0
      vertex -1.09217 0.79351 0
      vertex -0.954594 0.954594 0
    endloop
  endfacet
  facet normal 0 0 -1
    outer loop
      vertex -1.20286 -0.612887 0
      vertex -1.09217 0.79351 0
      vertex -1.09217 -0.79351 0
    endloop
  endfacet
  facet normal 0 0 -1
    outer loop
      vertex -1.20286 -0.612887 0
      vertex -1.20286 0.612887 0
      vertex -1.09217 0.79351 0
    endloop
  endfacet
  facet normal 0 0 -1
    outer loop
      vertex -1.28393 -0.417173 0
      vertex -1.20286 0.612887 0
      vertex -1.20286 -0.612887 0
    endloop
  endfacet
  facet normal 0 0 -1
    outer loop
      vertex -1.28393 -0.417173 0
      vertex -1.28393 0.417173 0
      vertex -1.20286 0.612887 0
    endloop
  endfacet
  facet normal 0 0 -1
    outer loop
      vertex -1.33338 -0.211187 0
      vertex -1.28393 0.417173 0
      vertex -1.28393 -0.417173 0
    endloop
  endfacet
  facet normal 0 0 -1
    outer loop
      vertex -1.33338 -0.211187 0
      vertex -1.33338 0.211187 0
      vertex -1.28393 0.417173 0
    endloop
  endfacet
  facet normal 0 -0 -1
    outer loop
      vertex -1.33338 0.211187 0
      vertex -1.33338 -0.211187 0
      vertex -1.35 1.65322e-016 0
    endloop
  endfacet
  facet normal 0 0 1
    outer loop
      vertex 1.33338 0.211187 6
      vertex 1.33338 -0.211187 6
      vertex 1.35 0 6
    endloop
  endfacet
  facet normal 0 0 1
    outer loop
      vertex 1.28393 0.417173 6
      vertex 1.33338 -0.211187 6
      vertex 1.33338 0.211187 6
    endloop
  endfacet
  facet normal 0 0 1
    outer loop
      vertex 1.28393 0.417173 6
      vertex 1.28393 -0.417173 6
      vertex 1.33338 -0.211187 6
    endloop
  endfacet
  facet normal 0 0 1
    outer loop
      vertex 1.20286 0.612887 6
      vertex 1.28393 -0.417173 6
      vertex 1.28393 0.417173 6
    endloop
  endfacet
  facet normal 0 0 1
    outer loop
      vertex 1.20286 0.612887 6
      vertex 1.20286 -0.612887 6
      vertex 1.28393 -0.417173 6
    endloop
  endfacet
  facet normal 0 0 1
    outer loop
      vertex 1.09217 0.79351 6
      vertex 1.20286 -0.612887 6
      vertex 1.20286 0.612887 6
    endloop
  endfacet
  facet normal 0 0 1
    outer loop
      vertex 1.09217 0.79351 6
      vertex 1.09217 -0.79351 6
      vertex 1.20286 -0.612887 6
    endloop
  endfacet
  facet normal 0 0 1
    outer loop
      vertex 0.954594 0.954594 6
      vertex 1.09217 -0.79351 6
      vertex 1.09217 0.79351 6
    endloop
  endfacet
  facet normal 0 0 1
    outer loop
      vertex 0.954594 0.954594 6
      vertex 0.954594 -0.954594 6
      vertex 1.09217 -0.79351 6
    endloop
  endfacet
  facet normal 0 0 1
    outer loop
      vertex 0.79351 1.09217 6
      vertex 0.954594 -0.954594 6
      vertex 0.954594 0.954594 6
    endloop
  endfacet
  facet normal 0 0 1
    outer loop
      vertex 0.79351 1.09217 6
      vertex 0.79351 -1.09217 6
      vertex 0.954594 -0.954594 6
    endloop
  endfacet
  facet normal 0 0 1
    outer loop
      vertex 0.612887 1.20286 6
      vertex 0.79351 -1.09217 6
      vertex 0.79351 1.09217 6
    endloop
  endfacet
  facet normal 0 0 1
    outer loop
      vertex 0.612887 1.20286 6
      vertex 0.612887 -1.20286 6
      vertex 0.79351 -1.09217 6
    endloop
  endfacet
  facet normal 0 0 1
    outer loop
      vertex 0.417173 1.28393 6
      vertex 0.612887 -1.20286 6
      vertex 0.612887 1.20286 6
    endloop
  endfacet
  facet normal 0 0 1
    outer loop
      vertex 0.417173 1.28393 6
      vertex 0.417173 -1.28393 6
      vertex 0.612887 -1.20286 6
    endloop
  endfacet
  facet normal 0 0 1
    outer loop
      vertex 0.211187 1.33338 6
      vertex 0.417173 -1.28393 6
      vertex 0.417173 1.28393 6
    endloop
  endfacet
  facet normal 0 0 1
    outer loop
      vertex 0.211187 1.33338 6
      vertex 0.211187 -1.33338 6
      vertex 0.417173 -1.28393 6
    endloop
  endfacet
  facet normal 0 0 1
    outer loop
      vertex 8.26609e-017 1.35 6
      vertex 0.211187 -1.33338 6
      vertex 0.211187 1.33338 6
    endloop
  endfacet
  facet normal 0 0 1
    outer loop
      vertex 8.26609e-017 1.35 6
      vertex -2.47983e-016 -1.35 6
      vertex 0.211187 -1.33338 6
    endloop
  endfacet
  facet normal -0 0 1
    outer loop
      vertex -0.211187 1.33338 6
      vertex -2.47983e-016 -1.35 6
      vertex 8.26609e-017 1.35 6
    endloop
  endfacet
  facet normal 0 0 1
    outer loop
      vertex -0.211187 1.33338 6
      vertex -0.211187 -1.33338 6
      vertex -2.47983e-016 -1.35 6
    endloop
  endfacet
  facet normal -0 0 1
    outer loop
      vertex -0.417173 1.28393 6
      vertex -0.211187 -1.33338 6
      vertex -0.211187 1.33338 6
    endloop
  endfacet
  facet normal 0 0 1
    outer loop
      vertex -0.417173 1.28393 6
      vertex -0.417173 -1.28393 6
      vertex -0.211187 -1.33338 6
    endloop
  endfacet
  facet normal -0 0 1
    outer loop
      vertex -0.612887 1.20286 6
      vertex -0.417173 -1.28393 6
      vertex -0.417173 1.28393 6
    endloop
  endfacet
  facet normal 0 0 1
    outer loop
      vertex -0.612887 1.20286 6
      vertex -0.612887 -1.20286 6
      vertex -0.417173 -1.28393 6
    endloop
  endfacet
  facet normal -0 0 1
    outer loop
      vertex -0.79351 1.09217 6
      vertex -0.612887 -1.20286 6
      vertex -0.612887 1.20286 6
    endloop
  endfacet
  facet normal 0 0 1
    outer loop
      vertex -0.79351 1.09217 6
      vertex -0.79351 -1.09217 6
      vertex -0.612887 -1.20286 6
    endloop
  endfacet
  facet normal -0 0 1
    outer loop
      vertex -0.954594 0.954594 6
      vertex -0.79351 -1.09217 6
      vertex -0.79351 1.09217 6
    endloop
  endfacet
  facet normal 0 0 1
    outer loop
      vertex -0.954594 0.954594 6
      vertex -0.954594 -0.954594 6
      vertex -0.79351 -1.09217 6
    endloop
  endfacet
  facet normal -0 0 1
    outer loop
      vertex -1.09217 0.79351 6
      vertex -0.954594 -0.954594 6
      vertex -0.954594 0.954594 6
    endloop
  endfacet
  facet normal 0 0 1
    outer loop
      vertex -1.09217 0.79351 6
      vertex -1.09217 -0.79351 6
      vertex -0.954594 -0.954594 6
    endloop
  endfacet
  facet normal -0 0 1
    outer loop
      vertex -1.20286 0.612887 6
      vertex -1.09217 -0.79351 6
      vertex -1.09217 0.79351 6
    endloop
  endfacet
  facet normal 0 0 1
    outer loop
      vertex -1.20286 0.612887 6
      vertex -1.20286 -0.612887 6
      vertex -1.09217 -0.79351 6
    endloop
  endfacet
  facet normal -0 0 1
    outer loop
      vertex -1.28393 0.417173 6
      vertex -1.20286 -0.612887 6
      vertex -1.20286 0.612887 6
    endloop
  endfacet
  facet normal 0 0 1
    outer loop
      vertex -1.28393 0.417173 6
      vertex -1.28393 -0.417173 6
      vertex -1.20286 -0.612887 6
    endloop
  endfacet
  facet normal -0 0 1
    outer loop
      vertex -1.33338 0.211187 6
      vertex -1.28393 -0.417173 6
      vertex -1.28393 0.417173 6
    endloop
  endfacet
  facet normal 0 0 1
    outer loop
      vertex -1.33338 0.211187 6
      vertex -1.33338 -0.211187 6
      vertex -1.28393 -0.417173 6
    endloop
  endfacet
  facet normal 0 -0 1
    outer loop
      vertex -1.33338 -0.211187 6
      vertex -1.33338 0.211187 6
      vertex -1.35 1.65322e-016 6
    endloop
  endfacet
endsolid OpenSCAD_Model
