solid OpenSCAD_Model
  facet normal -1 0 0
    outer loop
      vertex -5 25 -3
      vertex -5 22.25 -0.349999
      vertex -5 25 3
    endloop
  endfacet
  facet normal -1 0 0
    outer loop
      vertex -5 25 -3
      vertex -5 21.75 -0.349999
      vertex -5 22.25 -0.349999
    endloop
  endfacet
  facet normal -1 0 0
    outer loop
      vertex -5 21.75 -0.349999
      vertex -5 -21.75 -0.349999
      vertex -5 21.75 3
    endloop
  endfacet
  facet normal -1 0 0
    outer loop
      vertex -5 25 -3
      vertex -5 -21.75 -0.349999
      vertex -5 21.75 -0.349999
    endloop
  endfacet
  facet normal -1 0 0
    outer loop
      vertex -5 -25 -3
      vertex -5 -21.75 -0.349999
      vertex -5 25 -3
    endloop
  endfacet
  facet normal -1 -0 0
    outer loop
      vertex -5 -21.75 -0.349999
      vertex -5 -25 -3
      vertex -5 -22.25 -0.349999
    endloop
  endfacet
  facet normal -1 0 0
    outer loop
      vertex -5 -25 3
      vertex -5 -22.25 -0.349999
      vertex -5 -25 -3
    endloop
  endfacet
  facet normal -1 0 0
    outer loop
      vertex -5 -22.25 -0.349999
      vertex -5 -25 3
      vertex -5 -22.25 3
    endloop
  endfacet
  facet normal -1 -0 0
    outer loop
      vertex -5 25 3
      vertex -5 22.25 -0.349999
      vertex -5 22.25 3
    endloop
  endfacet
  facet normal -1 -0 0
    outer loop
      vertex -5 21.75 3
      vertex -5 -21.75 -0.349999
      vertex -5 -21.75 3
    endloop
  endfacet
  facet normal -0 0 1
    outer loop
      vertex 2.15 -22.25 3
      vertex 5 -25 3
      vertex 5 -22.25 3
    endloop
  endfacet
  facet normal 0 0 1
    outer loop
      vertex 5 -25 3
      vertex 2.15 -22.25 3
      vertex 2.15 -25 3
    endloop
  endfacet
  facet normal -0 0 1
    outer loop
      vertex -5 -22.25 3
      vertex -2.15 -25 3
      vertex -2.15 -22.25 3
    endloop
  endfacet
  facet normal 0 0 1
    outer loop
      vertex -2.15 -25 3
      vertex -5 -22.25 3
      vertex -5 -25 3
    endloop
  endfacet
  facet normal -0 0 1
    outer loop
      vertex 2.15 25 3
      vertex 5 22.25 3
      vertex 5 25 3
    endloop
  endfacet
  facet normal 0 0 1
    outer loop
      vertex 5 22.25 3
      vertex 2.15 25 3
      vertex 2.15 22.25 3
    endloop
  endfacet
  facet normal -0 0 1
    outer loop
      vertex -5 25 3
      vertex -2.15 22.25 3
      vertex -2.15 25 3
    endloop
  endfacet
  facet normal 0 0 1
    outer loop
      vertex -2.15 22.25 3
      vertex -5 25 3
      vertex -5 22.25 3
    endloop
  endfacet
  facet normal 0 0 1
    outer loop
      vertex -2.15 21.75 3
      vertex -3.43314 5.232 3
      vertex -2.15 5.232 3
    endloop
  endfacet
  facet normal 0 0 1
    outer loop
      vertex -3.43314 5.232 3
      vertex -5 21.75 3
      vertex -3.43314 2 3
    endloop
  endfacet
  facet normal -0 0 1
    outer loop
      vertex -5 21.75 3
      vertex -3.43314 5.232 3
      vertex -2.15 21.75 3
    endloop
  endfacet
  facet normal -0 0 1
    outer loop
      vertex -3.43314 2 3
      vertex -2.15 -21.75 3
      vertex -2.15 2 3
    endloop
  endfacet
  facet normal 0 0 1
    outer loop
      vertex -5 -21.75 3
      vertex -3.43314 2 3
      vertex -5 21.75 3
    endloop
  endfacet
  facet normal 0 0 1
    outer loop
      vertex -3.43314 2 3
      vertex -5 -21.75 3
      vertex -2.15 -21.75 3
    endloop
  endfacet
  facet normal 0 0 1
    outer loop
      vertex 3.43314 2 3
      vertex 5 21.75 3
      vertex 3.43314 5.232 3
    endloop
  endfacet
  facet normal -0 0 1
    outer loop
      vertex 2.15 21.75 3
      vertex 3.43314 5.232 3
      vertex 5 21.75 3
    endloop
  endfacet
  facet normal 0 0 1
    outer loop
      vertex 3.43314 5.232 3
      vertex 2.15 21.75 3
      vertex 2.15 5.232 3
    endloop
  endfacet
  facet normal 0 0 1
    outer loop
      vertex 5 21.75 3
      vertex 3.43314 2 3
      vertex 5 -21.75 3
    endloop
  endfacet
  facet normal 0 0 1
    outer loop
      vertex 2.15 -21.75 3
      vertex 3.43314 2 3
      vertex 2.15 2 3
    endloop
  endfacet
  facet normal 0 0 1
    outer loop
      vertex 3.43314 2 3
      vertex 2.15 -21.75 3
      vertex 5 -21.75 3
    endloop
  endfacet
  facet normal 1 0 0
    outer loop
      vertex 5 -22.25 3
      vertex 5 -25 3
      vertex 5 -22.25 -0.349999
    endloop
  endfacet
  facet normal 1 0 0
    outer loop
      vertex 5 21.75 3
      vertex 5 -21.75 3
      vertex 5 21.75 -0.349999
    endloop
  endfacet
  facet normal 1 0 0
    outer loop
      vertex 5 22.25 -0.349999
      vertex 5 25 3
      vertex 5 22.25 3
    endloop
  endfacet
  facet normal 1 0 0
    outer loop
      vertex 5 25 3
      vertex 5 22.25 -0.349999
      vertex 5 25 -3
    endloop
  endfacet
  facet normal 1 -0 0
    outer loop
      vertex 5 21.75 -0.349999
      vertex 5 25 -3
      vertex 5 22.25 -0.349999
    endloop
  endfacet
  facet normal 1 0 0
    outer loop
      vertex 5 -21.75 -0.349999
      vertex 5 21.75 -0.349999
      vertex 5 -21.75 3
    endloop
  endfacet
  facet normal 1 0 0
    outer loop
      vertex 5 21.75 -0.349999
      vertex 5 -21.75 -0.349999
      vertex 5 25 -3
    endloop
  endfacet
  facet normal 1 0 0
    outer loop
      vertex 5 -25 -3
      vertex 5 -21.75 -0.349999
      vertex 5 -22.25 -0.349999
    endloop
  endfacet
  facet normal 1 0 0
    outer loop
      vertex 5 -21.75 -0.349999
      vertex 5 -25 -3
      vertex 5 25 -3
    endloop
  endfacet
  facet normal 1 0 0
    outer loop
      vertex 5 -25 -3
      vertex 5 -22.25 -0.349999
      vertex 5 -25 3
    endloop
  endfacet
  facet normal 0 1 0
    outer loop
      vertex 5 25 3
      vertex 2.15 25 2
      vertex 2.15 25 3
    endloop
  endfacet
  facet normal 0 1 0
    outer loop
      vertex 5 25 3
      vertex 2.12353 25 1.66367
      vertex 2.15 25 2
    endloop
  endfacet
  facet normal 0 1 0
    outer loop
      vertex 5 25 3
      vertex 2.04477 25 1.33561
      vertex 2.12353 25 1.66367
    endloop
  endfacet
  facet normal 0 1 0
    outer loop
      vertex 5 25 3
      vertex 1.91566 25 1.02392
      vertex 2.04477 25 1.33561
    endloop
  endfacet
  facet normal 0 1 -0
    outer loop
      vertex 5 25 -3
      vertex 1.91566 25 1.02392
      vertex 5 25 3
    endloop
  endfacet
  facet normal 0 1 0
    outer loop
      vertex 1.91566 25 1.02392
      vertex 5 25 -3
      vertex 1.73939 25 0.736261
    endloop
  endfacet
  facet normal 0 1 0
    outer loop
      vertex 1.73939 25 0.736261
      vertex 5 25 -3
      vertex 1.52028 25 0.47972
    endloop
  endfacet
  facet normal 0 1 0
    outer loop
      vertex 0.336333 25 -0.123529
      vertex 5 25 -3
      vertex 0 25 -0.15
    endloop
  endfacet
  facet normal 0 1 0
    outer loop
      vertex 0.664386 25 -0.0447712
      vertex 5 25 -3
      vertex 0.336333 25 -0.123529
    endloop
  endfacet
  facet normal 0 1 0
    outer loop
      vertex 0.976079 25 0.0843353
      vertex 5 25 -3
      vertex 0.664386 25 -0.0447712
    endloop
  endfacet
  facet normal 0 1 0
    outer loop
      vertex 1.26374 25 0.260613
      vertex 5 25 -3
      vertex 0.976079 25 0.0843353
    endloop
  endfacet
  facet normal 0 1 0
    outer loop
      vertex 1.52028 25 0.47972
      vertex 5 25 -3
      vertex 1.26374 25 0.260613
    endloop
  endfacet
  facet normal 0 1 -0
    outer loop
      vertex -2.15 25 2
      vertex -5 25 3
      vertex -2.15 25 3
    endloop
  endfacet
  facet normal 0 1 0
    outer loop
      vertex -2.12353 25 1.66367
      vertex -5 25 3
      vertex -2.15 25 2
    endloop
  endfacet
  facet normal 0 1 0
    outer loop
      vertex -2.04477 25 1.33561
      vertex -5 25 3
      vertex -2.12353 25 1.66367
    endloop
  endfacet
  facet normal 0 1 0
    outer loop
      vertex -1.91566 25 1.02392
      vertex -5 25 3
      vertex -2.04477 25 1.33561
    endloop
  endfacet
  facet normal 0 1 0
    outer loop
      vertex -5 25 -3
      vertex -1.91566 25 1.02392
      vertex -1.73939 25 0.736261
    endloop
  endfacet
  facet normal 0 1 0
    outer loop
      vertex -5 25 -3
      vertex -1.73939 25 0.736261
      vertex -1.52028 25 0.47972
    endloop
  endfacet
  facet normal 0 1 0
    outer loop
      vertex -5 25 -3
      vertex -1.52028 25 0.47972
      vertex -1.26374 25 0.260613
    endloop
  endfacet
  facet normal 0 1 0
    outer loop
      vertex -5 25 -3
      vertex 0 25 -0.15
      vertex 5 25 -3
    endloop
  endfacet
  facet normal 0 1 0
    outer loop
      vertex 0 25 -0.15
      vertex -5 25 -3
      vertex -0.336333 25 -0.123529
    endloop
  endfacet
  facet normal 0 1 0
    outer loop
      vertex -0.336333 25 -0.123529
      vertex -5 25 -3
      vertex -0.664386 25 -0.0447712
    endloop
  endfacet
  facet normal 0 1 0
    outer loop
      vertex -1.91566 25 1.02392
      vertex -5 25 -3
      vertex -5 25 3
    endloop
  endfacet
  facet normal 0 1 0
    outer loop
      vertex -0.976079 25 0.0843353
      vertex -5 25 -3
      vertex -1.26374 25 0.260613
    endloop
  endfacet
  facet normal 0 1 0
    outer loop
      vertex -0.664386 25 -0.0447712
      vertex -5 25 -3
      vertex -0.976079 25 0.0843353
    endloop
  endfacet
  facet normal 0 0 -1
    outer loop
      vertex -5 -25 -3
      vertex 5 25 -3
      vertex 5 -25 -3
    endloop
  endfacet
  facet normal -0 0 -1
    outer loop
      vertex 5 25 -3
      vertex -5 -25 -3
      vertex -5 25 -3
    endloop
  endfacet
  facet normal 0 -1 0
    outer loop
      vertex -5 -25 3
      vertex -2.15 -25 2
      vertex -2.15 -25 3
    endloop
  endfacet
  facet normal 0 -1 0
    outer loop
      vertex -5 -25 3
      vertex -2.12353 -25 1.66367
      vertex -2.15 -25 2
    endloop
  endfacet
  facet normal 0 -1 0
    outer loop
      vertex -5 -25 3
      vertex -2.04477 -25 1.33561
      vertex -2.12353 -25 1.66367
    endloop
  endfacet
  facet normal 0 -1 0
    outer loop
      vertex -5 -25 3
      vertex -1.91566 -25 1.02392
      vertex -2.04477 -25 1.33561
    endloop
  endfacet
  facet normal 0 -1 0
    outer loop
      vertex -5 -25 -3
      vertex -1.91566 -25 1.02392
      vertex -5 -25 3
    endloop
  endfacet
  facet normal 0 -1 -0
    outer loop
      vertex -1.91566 -25 1.02392
      vertex -5 -25 -3
      vertex -1.73939 -25 0.736261
    endloop
  endfacet
  facet normal 0 -1 -0
    outer loop
      vertex -1.73939 -25 0.736261
      vertex -5 -25 -3
      vertex -1.52028 -25 0.47972
    endloop
  endfacet
  facet normal 0 -1 -0
    outer loop
      vertex -0.336333 -25 -0.123529
      vertex -5 -25 -3
      vertex 0 -25 -0.15
    endloop
  endfacet
  facet normal 0 -1 -0
    outer loop
      vertex -0.664386 -25 -0.0447712
      vertex -5 -25 -3
      vertex -0.336333 -25 -0.123529
    endloop
  endfacet
  facet normal 0 -1 -0
    outer loop
      vertex -0.976079 -25 0.0843353
      vertex -5 -25 -3
      vertex -0.664386 -25 -0.0447712
    endloop
  endfacet
  facet normal 0 -1 -0
    outer loop
      vertex -1.26374 -25 0.260613
      vertex -5 -25 -3
      vertex -0.976079 -25 0.0843353
    endloop
  endfacet
  facet normal 0 -1 -0
    outer loop
      vertex -1.52028 -25 0.47972
      vertex -5 -25 -3
      vertex -1.26374 -25 0.260613
    endloop
  endfacet
  facet normal 0 -1 0
    outer loop
      vertex 2.15 -25 2
      vertex 5 -25 3
      vertex 2.15 -25 3
    endloop
  endfacet
  facet normal 0 -1 0
    outer loop
      vertex 2.12353 -25 1.66367
      vertex 5 -25 3
      vertex 2.15 -25 2
    endloop
  endfacet
  facet normal 0 -1 0
    outer loop
      vertex 2.04477 -25 1.33561
      vertex 5 -25 3
      vertex 2.12353 -25 1.66367
    endloop
  endfacet
  facet normal 0 -1 0
    outer loop
      vertex 1.91566 -25 1.02392
      vertex 5 -25 3
      vertex 2.04477 -25 1.33561
    endloop
  endfacet
  facet normal 0 -1 0
    outer loop
      vertex 5 -25 -3
      vertex 1.91566 -25 1.02392
      vertex 1.73939 -25 0.736261
    endloop
  endfacet
  facet normal 0 -1 0
    outer loop
      vertex 5 -25 -3
      vertex 1.73939 -25 0.736261
      vertex 1.52028 -25 0.47972
    endloop
  endfacet
  facet normal 0 -1 0
    outer loop
      vertex 5 -25 -3
      vertex 1.52028 -25 0.47972
      vertex 1.26374 -25 0.260613
    endloop
  endfacet
  facet normal 0 -1 0
    outer loop
      vertex 5 -25 -3
      vertex 0 -25 -0.15
      vertex -5 -25 -3
    endloop
  endfacet
  facet normal 0 -1 0
    outer loop
      vertex 0 -25 -0.15
      vertex 5 -25 -3
      vertex 0.336333 -25 -0.123529
    endloop
  endfacet
  facet normal 0 -1 0
    outer loop
      vertex 0.336333 -25 -0.123529
      vertex 5 -25 -3
      vertex 0.664386 -25 -0.0447712
    endloop
  endfacet
  facet normal 0 -1 0
    outer loop
      vertex 1.91566 -25 1.02392
      vertex 5 -25 -3
      vertex 5 -25 3
    endloop
  endfacet
  facet normal 0 -1 0
    outer loop
      vertex 0.976079 -25 0.0843353
      vertex 5 -25 -3
      vertex 1.26374 -25 0.260613
    endloop
  endfacet
  facet normal 0 -1 0
    outer loop
      vertex 0.664386 -25 -0.0447712
      vertex 5 -25 -3
      vertex 0.976079 -25 0.0843353
    endloop
  endfacet
  facet normal 1 -0 0
    outer loop
      vertex -2.15 -25 3
      vertex -2.15 -22.25 2
      vertex -2.15 -22.25 3
    endloop
  endfacet
  facet normal 1 0 0
    outer loop
      vertex -2.15 -22.25 2
      vertex -2.15 -25 3
      vertex -2.15 -25 2
    endloop
  endfacet
  facet normal 1 -0 0
    outer loop
      vertex -2.15 22.25 3
      vertex -2.15 25 2
      vertex -2.15 25 3
    endloop
  endfacet
  facet normal 1 0 0
    outer loop
      vertex -2.15 25 2
      vertex -2.15 22.25 3
      vertex -2.15 22.25 2
    endloop
  endfacet
  facet normal 1 -0 0
    outer loop
      vertex -2.15 5.232 3
      vertex -2.15 21.75 2
      vertex -2.15 21.75 3
    endloop
  endfacet
  facet normal 1 0 0
    outer loop
      vertex -2.15 21.75 2
      vertex -2.15 5.232 3
      vertex -2.15 5.232 2
    endloop
  endfacet
  facet normal 1 -0 0
    outer loop
      vertex -2.15 -21.75 3
      vertex -2.15 2 2
      vertex -2.15 2 3
    endloop
  endfacet
  facet normal 1 0 0
    outer loop
      vertex -2.15 2 2
      vertex -2.15 -21.75 3
      vertex -2.15 -21.75 2
    endloop
  endfacet
  facet normal 0.760401 -0 0.649454
    outer loop
      vertex -1.73939 -25 0.736261
      vertex -1.52028 -22.25 0.47972
      vertex -1.73939 -22.25 0.736261
    endloop
  endfacet
  facet normal 0.760401 0 0.649454
    outer loop
      vertex -1.52028 -22.25 0.47972
      vertex -1.73939 -25 0.736261
      vertex -1.52028 -25 0.47972
    endloop
  endfacet
  facet normal 0.760401 -0 0.649454
    outer loop
      vertex -1.73939 22.25 0.736261
      vertex -1.52028 25 0.47972
      vertex -1.73939 25 0.736261
    endloop
  endfacet
  facet normal 0.760401 0 0.649454
    outer loop
      vertex -1.52028 25 0.47972
      vertex -1.73939 22.25 0.736261
      vertex -1.52028 22.25 0.47972
    endloop
  endfacet
  facet normal 0.760401 -0 0.649454
    outer loop
      vertex -1.73939 5.232 0.736261
      vertex -1.52028 21.75 0.47972
      vertex -1.73939 21.75 0.736261
    endloop
  endfacet
  facet normal 0.760401 0 0.649454
    outer loop
      vertex -1.52028 21.75 0.47972
      vertex -1.73939 5.232 0.736261
      vertex -1.52028 5.232 0.47972
    endloop
  endfacet
  facet normal 0.760401 -0 0.649454
    outer loop
      vertex -1.73939 -21.75 0.736261
      vertex -1.52028 2 0.47972
      vertex -1.73939 2 0.736261
    endloop
  endfacet
  facet normal 0.760401 0 0.649454
    outer loop
      vertex -1.52028 2 0.47972
      vertex -1.73939 -21.75 0.736261
      vertex -1.52028 -21.75 0.47972
    endloop
  endfacet
  facet normal -1 0 0
    outer loop
      vertex 2.15 -25 2
      vertex 2.15 -22.25 3
      vertex 2.15 -22.25 2
    endloop
  endfacet
  facet normal -1 -0 0
    outer loop
      vertex 2.15 -22.25 3
      vertex 2.15 -25 2
      vertex 2.15 -25 3
    endloop
  endfacet
  facet normal -1 0 0
    outer loop
      vertex 2.15 22.25 2
      vertex 2.15 25 3
      vertex 2.15 25 2
    endloop
  endfacet
  facet normal -1 -0 0
    outer loop
      vertex 2.15 25 3
      vertex 2.15 22.25 2
      vertex 2.15 22.25 3
    endloop
  endfacet
  facet normal -1 0 0
    outer loop
      vertex 2.15 5.232 2
      vertex 2.15 21.75 3
      vertex 2.15 21.75 2
    endloop
  endfacet
  facet normal -1 -0 0
    outer loop
      vertex 2.15 21.75 3
      vertex 2.15 5.232 2
      vertex 2.15 5.232 3
    endloop
  endfacet
  facet normal -1 0 0
    outer loop
      vertex 2.15 -21.75 2
      vertex 2.15 2 3
      vertex 2.15 2 2
    endloop
  endfacet
  facet normal -1 -0 0
    outer loop
      vertex 2.15 2 3
      vertex 2.15 -21.75 2
      vertex 2.15 -21.75 3
    endloop
  endfacet
  facet normal -0.996917 0 0.0784598
    outer loop
      vertex 2.12353 -25 1.66367
      vertex 2.15 -22.25 2
      vertex 2.12353 -22.25 1.66367
    endloop
  endfacet
  facet normal -0.996917 0 0.0784598
    outer loop
      vertex 2.15 -22.25 2
      vertex 2.12353 -25 1.66367
      vertex 2.15 -25 2
    endloop
  endfacet
  facet normal -0.996917 0 0.0784598
    outer loop
      vertex 2.12353 22.25 1.66367
      vertex 2.15 25 2
      vertex 2.12353 25 1.66367
    endloop
  endfacet
  facet normal -0.996917 0 0.0784598
    outer loop
      vertex 2.15 25 2
      vertex 2.12353 22.25 1.66367
      vertex 2.15 22.25 2
    endloop
  endfacet
  facet normal -0.996917 0 0.0784598
    outer loop
      vertex 2.12353 5.232 1.66367
      vertex 2.15 21.75 2
      vertex 2.12353 21.75 1.66367
    endloop
  endfacet
  facet normal -0.996917 0 0.0784598
    outer loop
      vertex 2.15 21.75 2
      vertex 2.12353 5.232 1.66367
      vertex 2.15 5.232 2
    endloop
  endfacet
  facet normal -0.996917 0 0.0784598
    outer loop
      vertex 2.12353 -21.75 1.66367
      vertex 2.15 2 2
      vertex 2.12353 2 1.66367
    endloop
  endfacet
  facet normal -0.996917 0 0.0784598
    outer loop
      vertex 2.15 2 2
      vertex 2.12353 -21.75 1.66367
      vertex 2.15 -21.75 2
    endloop
  endfacet
  facet normal 0.382681 0 0.923881
    outer loop
      vertex -0.976079 -22.25 0.0843353
      vertex -0.664386 -25 -0.0447712
      vertex -0.664386 -22.25 -0.0447712
    endloop
  endfacet
  facet normal 0.382681 0 0.923881
    outer loop
      vertex -0.664386 -25 -0.0447712
      vertex -0.976079 -22.25 0.0843353
      vertex -0.976079 -25 0.0843353
    endloop
  endfacet
  facet normal 0.382681 0 0.923881
    outer loop
      vertex -0.976079 25 0.0843353
      vertex -0.664386 22.25 -0.0447712
      vertex -0.664386 25 -0.0447712
    endloop
  endfacet
  facet normal 0.382681 0 0.923881
    outer loop
      vertex -0.664386 22.25 -0.0447712
      vertex -0.976079 25 0.0843353
      vertex -0.976079 22.25 0.0843353
    endloop
  endfacet
  facet normal 0.382681 0 0.923881
    outer loop
      vertex -0.976079 21.75 0.0843353
      vertex -0.664386 5.232 -0.0447712
      vertex -0.664386 21.75 -0.0447712
    endloop
  endfacet
  facet normal 0.382681 0 0.923881
    outer loop
      vertex -0.664386 5.232 -0.0447712
      vertex -0.976079 21.75 0.0843353
      vertex -0.976079 5.232 0.0843353
    endloop
  endfacet
  facet normal 0.382681 0 0.923881
    outer loop
      vertex -0.976079 2 0.0843353
      vertex -0.664386 -21.75 -0.0447712
      vertex -0.664386 2 -0.0447712
    endloop
  endfacet
  facet normal 0.382681 0 0.923881
    outer loop
      vertex -0.664386 -21.75 -0.0447712
      vertex -0.976079 2 0.0843353
      vertex -0.976079 -21.75 0.0843353
    endloop
  endfacet
  facet normal 0.522496 0 0.852642
    outer loop
      vertex -1.26374 -22.25 0.260613
      vertex -0.976079 -25 0.0843353
      vertex -0.976079 -22.25 0.0843353
    endloop
  endfacet
  facet normal 0.522496 0 0.852642
    outer loop
      vertex -0.976079 -25 0.0843353
      vertex -1.26374 -22.25 0.260613
      vertex -1.26374 -25 0.260613
    endloop
  endfacet
  facet normal 0.522496 0 0.852642
    outer loop
      vertex -1.26374 25 0.260613
      vertex -0.976079 22.25 0.0843353
      vertex -0.976079 25 0.0843353
    endloop
  endfacet
  facet normal 0.522496 0 0.852642
    outer loop
      vertex -0.976079 22.25 0.0843353
      vertex -1.26374 25 0.260613
      vertex -1.26374 22.25 0.260613
    endloop
  endfacet
  facet normal 0.522496 0 0.852642
    outer loop
      vertex -1.26374 21.75 0.260613
      vertex -0.976079 5.232 0.0843353
      vertex -0.976079 21.75 0.0843353
    endloop
  endfacet
  facet normal 0.522496 0 0.852642
    outer loop
      vertex -0.976079 5.232 0.0843353
      vertex -1.26374 21.75 0.260613
      vertex -1.26374 5.232 0.260613
    endloop
  endfacet
  facet normal 0.522496 0 0.852642
    outer loop
      vertex -1.26374 2 0.260613
      vertex -0.976079 -21.75 0.0843353
      vertex -0.976079 2 0.0843353
    endloop
  endfacet
  facet normal 0.522496 0 0.852642
    outer loop
      vertex -0.976079 -21.75 0.0843353
      vertex -1.26374 2 0.260613
      vertex -1.26374 -21.75 0.260613
    endloop
  endfacet
  facet normal 0.0784621 0 0.996917
    outer loop
      vertex -0.336333 -22.25 -0.123529
      vertex 0 -25 -0.15
      vertex 0 -22.25 -0.15
    endloop
  endfacet
  facet normal 0.0784621 0 0.996917
    outer loop
      vertex 0 -25 -0.15
      vertex -0.336333 -22.25 -0.123529
      vertex -0.336333 -25 -0.123529
    endloop
  endfacet
  facet normal 0.0784621 0 0.996917
    outer loop
      vertex -0.336333 25 -0.123529
      vertex 0 22.25 -0.15
      vertex 0 25 -0.15
    endloop
  endfacet
  facet normal 0.0784621 0 0.996917
    outer loop
      vertex 0 22.25 -0.15
      vertex -0.336333 25 -0.123529
      vertex -0.336333 22.25 -0.123529
    endloop
  endfacet
  facet normal 0.0784621 0 0.996917
    outer loop
      vertex -0.336333 21.75 -0.123529
      vertex 0 5.232 -0.15
      vertex 0 21.75 -0.15
    endloop
  endfacet
  facet normal 0.0784621 0 0.996917
    outer loop
      vertex 0 5.232 -0.15
      vertex -0.336333 21.75 -0.123529
      vertex -0.336333 5.232 -0.123529
    endloop
  endfacet
  facet normal 0.0784621 0 0.996917
    outer loop
      vertex -0.336333 2 -0.123529
      vertex 0 -21.75 -0.15
      vertex 0 2 -0.15
    endloop
  endfacet
  facet normal 0.0784621 0 0.996917
    outer loop
      vertex 0 -21.75 -0.15
      vertex -0.336333 2 -0.123529
      vertex -0.336333 -21.75 -0.123529
    endloop
  endfacet
  facet normal 0.64945 0 0.760404
    outer loop
      vertex -1.52028 -22.25 0.47972
      vertex -1.26374 -25 0.260613
      vertex -1.26374 -22.25 0.260613
    endloop
  endfacet
  facet normal 0.64945 0 0.760404
    outer loop
      vertex -1.26374 -25 0.260613
      vertex -1.52028 -22.25 0.47972
      vertex -1.52028 -25 0.47972
    endloop
  endfacet
  facet normal 0.64945 0 0.760404
    outer loop
      vertex -1.52028 25 0.47972
      vertex -1.26374 22.25 0.260613
      vertex -1.26374 25 0.260613
    endloop
  endfacet
  facet normal 0.64945 0 0.760404
    outer loop
      vertex -1.26374 22.25 0.260613
      vertex -1.52028 25 0.47972
      vertex -1.52028 22.25 0.47972
    endloop
  endfacet
  facet normal 0.64945 0 0.760404
    outer loop
      vertex -1.52028 21.75 0.47972
      vertex -1.26374 5.232 0.260613
      vertex -1.26374 21.75 0.260613
    endloop
  endfacet
  facet normal 0.64945 0 0.760404
    outer loop
      vertex -1.26374 5.232 0.260613
      vertex -1.52028 21.75 0.47972
      vertex -1.52028 5.232 0.47972
    endloop
  endfacet
  facet normal 0.64945 0 0.760404
    outer loop
      vertex -1.52028 2 0.47972
      vertex -1.26374 -21.75 0.260613
      vertex -1.26374 2 0.260613
    endloop
  endfacet
  facet normal 0.64945 0 0.760404
    outer loop
      vertex -1.26374 -21.75 0.260613
      vertex -1.52028 2 0.47972
      vertex -1.52028 -21.75 0.47972
    endloop
  endfacet
  facet normal 0.85265 -0 0.522482
    outer loop
      vertex -1.91566 -25 1.02392
      vertex -1.73939 -22.25 0.736261
      vertex -1.91566 -22.25 1.02392
    endloop
  endfacet
  facet normal 0.85265 0 0.522482
    outer loop
      vertex -1.73939 -22.25 0.736261
      vertex -1.91566 -25 1.02392
      vertex -1.73939 -25 0.736261
    endloop
  endfacet
  facet normal 0.85265 -0 0.522482
    outer loop
      vertex -1.91566 22.25 1.02392
      vertex -1.73939 25 0.736261
      vertex -1.91566 25 1.02392
    endloop
  endfacet
  facet normal 0.85265 0 0.522482
    outer loop
      vertex -1.73939 25 0.736261
      vertex -1.91566 22.25 1.02392
      vertex -1.73939 22.25 0.736261
    endloop
  endfacet
  facet normal 0.85265 -0 0.522482
    outer loop
      vertex -1.91566 5.232 1.02392
      vertex -1.73939 21.75 0.736261
      vertex -1.91566 21.75 1.02392
    endloop
  endfacet
  facet normal 0.85265 0 0.522482
    outer loop
      vertex -1.73939 21.75 0.736261
      vertex -1.91566 5.232 1.02392
      vertex -1.73939 5.232 0.736261
    endloop
  endfacet
  facet normal 0.85265 -0 0.522482
    outer loop
      vertex -1.91566 -21.75 1.02392
      vertex -1.73939 2 0.736261
      vertex -1.91566 2 1.02392
    endloop
  endfacet
  facet normal 0.85265 0 0.522482
    outer loop
      vertex -1.73939 2 0.736261
      vertex -1.91566 -21.75 1.02392
      vertex -1.73939 -21.75 0.736261
    endloop
  endfacet
  facet normal 0.97237 -0 0.233445
    outer loop
      vertex -2.12353 -25 1.66367
      vertex -2.04477 -22.25 1.33561
      vertex -2.12353 -22.25 1.66367
    endloop
  endfacet
  facet normal 0.97237 0 0.233445
    outer loop
      vertex -2.04477 -22.25 1.33561
      vertex -2.12353 -25 1.66367
      vertex -2.04477 -25 1.33561
    endloop
  endfacet
  facet normal 0.97237 -0 0.233445
    outer loop
      vertex -2.12353 22.25 1.66367
      vertex -2.04477 25 1.33561
      vertex -2.12353 25 1.66367
    endloop
  endfacet
  facet normal 0.97237 0 0.233445
    outer loop
      vertex -2.04477 25 1.33561
      vertex -2.12353 22.25 1.66367
      vertex -2.04477 22.25 1.33561
    endloop
  endfacet
  facet normal 0.97237 -0 0.233445
    outer loop
      vertex -2.12353 5.232 1.66367
      vertex -2.04477 21.75 1.33561
      vertex -2.12353 21.75 1.66367
    endloop
  endfacet
  facet normal 0.97237 0 0.233445
    outer loop
      vertex -2.04477 21.75 1.33561
      vertex -2.12353 5.232 1.66367
      vertex -2.04477 5.232 1.33561
    endloop
  endfacet
  facet normal 0.97237 -0 0.233445
    outer loop
      vertex -2.12353 -21.75 1.66367
      vertex -2.04477 2 1.33561
      vertex -2.12353 2 1.66367
    endloop
  endfacet
  facet normal 0.97237 0 0.233445
    outer loop
      vertex -2.04477 2 1.33561
      vertex -2.12353 -21.75 1.66367
      vertex -2.04477 -21.75 1.33561
    endloop
  endfacet
  facet normal -0.85265 0 0.522482
    outer loop
      vertex 1.73939 -25 0.736261
      vertex 1.91566 -22.25 1.02392
      vertex 1.73939 -22.25 0.736261
    endloop
  endfacet
  facet normal -0.85265 0 0.522482
    outer loop
      vertex 1.91566 -22.25 1.02392
      vertex 1.73939 -25 0.736261
      vertex 1.91566 -25 1.02392
    endloop
  endfacet
  facet normal -0.85265 0 0.522482
    outer loop
      vertex 1.73939 22.25 0.736261
      vertex 1.91566 25 1.02392
      vertex 1.73939 25 0.736261
    endloop
  endfacet
  facet normal -0.85265 0 0.522482
    outer loop
      vertex 1.91566 25 1.02392
      vertex 1.73939 22.25 0.736261
      vertex 1.91566 22.25 1.02392
    endloop
  endfacet
  facet normal -0.85265 0 0.522482
    outer loop
      vertex 1.73939 5.232 0.736261
      vertex 1.91566 21.75 1.02392
      vertex 1.73939 21.75 0.736261
    endloop
  endfacet
  facet normal -0.85265 0 0.522482
    outer loop
      vertex 1.91566 21.75 1.02392
      vertex 1.73939 5.232 0.736261
      vertex 1.91566 5.232 1.02392
    endloop
  endfacet
  facet normal -0.85265 0 0.522482
    outer loop
      vertex 1.73939 -21.75 0.736261
      vertex 1.91566 2 1.02392
      vertex 1.73939 2 0.736261
    endloop
  endfacet
  facet normal -0.85265 0 0.522482
    outer loop
      vertex 1.91566 2 1.02392
      vertex 1.73939 -21.75 0.736261
      vertex 1.91566 -21.75 1.02392
    endloop
  endfacet
  facet normal -0.0784621 0 0.996917
    outer loop
      vertex 0 -22.25 -0.15
      vertex 0.336333 -25 -0.123529
      vertex 0.336333 -22.25 -0.123529
    endloop
  endfacet
  facet normal -0.0784621 0 0.996917
    outer loop
      vertex 0.336333 -25 -0.123529
      vertex 0 -22.25 -0.15
      vertex 0 -25 -0.15
    endloop
  endfacet
  facet normal -0.0784621 0 0.996917
    outer loop
      vertex 0 25 -0.15
      vertex 0.336333 22.25 -0.123529
      vertex 0.336333 25 -0.123529
    endloop
  endfacet
  facet normal -0.0784621 0 0.996917
    outer loop
      vertex 0.336333 22.25 -0.123529
      vertex 0 25 -0.15
      vertex 0 22.25 -0.15
    endloop
  endfacet
  facet normal -0.0784621 0 0.996917
    outer loop
      vertex 0 21.75 -0.15
      vertex 0.336333 5.232 -0.123529
      vertex 0.336333 21.75 -0.123529
    endloop
  endfacet
  facet normal -0.0784621 0 0.996917
    outer loop
      vertex 0.336333 5.232 -0.123529
      vertex 0 21.75 -0.15
      vertex 0 5.232 -0.15
    endloop
  endfacet
  facet normal -0.0784621 0 0.996917
    outer loop
      vertex 0 2 -0.15
      vertex 0.336333 -21.75 -0.123529
      vertex 0.336333 2 -0.123529
    endloop
  endfacet
  facet normal -0.0784621 0 0.996917
    outer loop
      vertex 0.336333 -21.75 -0.123529
      vertex 0 2 -0.15
      vertex 0 -21.75 -0.15
    endloop
  endfacet
  facet normal -0.233443 0 0.97237
    outer loop
      vertex 0.336333 -22.25 -0.123529
      vertex 0.664386 -25 -0.0447712
      vertex 0.664386 -22.25 -0.0447712
    endloop
  endfacet
  facet normal -0.233443 0 0.97237
    outer loop
      vertex 0.664386 -25 -0.0447712
      vertex 0.336333 -22.25 -0.123529
      vertex 0.336333 -25 -0.123529
    endloop
  endfacet
  facet normal -0.233443 0 0.97237
    outer loop
      vertex 0.336333 25 -0.123529
      vertex 0.664386 22.25 -0.0447712
      vertex 0.664386 25 -0.0447712
    endloop
  endfacet
  facet normal -0.233443 0 0.97237
    outer loop
      vertex 0.664386 22.25 -0.0447712
      vertex 0.336333 25 -0.123529
      vertex 0.336333 22.25 -0.123529
    endloop
  endfacet
  facet normal -0.233443 0 0.97237
    outer loop
      vertex 0.336333 21.75 -0.123529
      vertex 0.664386 5.232 -0.0447712
      vertex 0.664386 21.75 -0.0447712
    endloop
  endfacet
  facet normal -0.233443 0 0.97237
    outer loop
      vertex 0.664386 5.232 -0.0447712
      vertex 0.336333 21.75 -0.123529
      vertex 0.336333 5.232 -0.123529
    endloop
  endfacet
  facet normal -0.233443 0 0.97237
    outer loop
      vertex 0.336333 2 -0.123529
      vertex 0.664386 -21.75 -0.0447712
      vertex 0.664386 2 -0.0447712
    endloop
  endfacet
  facet normal -0.233443 0 0.97237
    outer loop
      vertex 0.664386 -21.75 -0.0447712
      vertex 0.336333 2 -0.123529
      vertex 0.336333 -21.75 -0.123529
    endloop
  endfacet
  facet normal 0.233443 0 0.97237
    outer loop
      vertex -0.664386 -22.25 -0.0447712
      vertex -0.336333 -25 -0.123529
      vertex -0.336333 -22.25 -0.123529
    endloop
  endfacet
  facet normal 0.233443 0 0.97237
    outer loop
      vertex -0.336333 -25 -0.123529
      vertex -0.664386 -22.25 -0.0447712
      vertex -0.664386 -25 -0.0447712
    endloop
  endfacet
  facet normal 0.233443 0 0.97237
    outer loop
      vertex -0.664386 25 -0.0447712
      vertex -0.336333 22.25 -0.123529
      vertex -0.336333 25 -0.123529
    endloop
  endfacet
  facet normal 0.233443 0 0.97237
    outer loop
      vertex -0.336333 22.25 -0.123529
      vertex -0.664386 25 -0.0447712
      vertex -0.664386 22.25 -0.0447712
    endloop
  endfacet
  facet normal 0.233443 0 0.97237
    outer loop
      vertex -0.664386 21.75 -0.0447712
      vertex -0.336333 5.232 -0.123529
      vertex -0.336333 21.75 -0.123529
    endloop
  endfacet
  facet normal 0.233443 0 0.97237
    outer loop
      vertex -0.336333 5.232 -0.123529
      vertex -0.664386 21.75 -0.0447712
      vertex -0.664386 5.232 -0.0447712
    endloop
  endfacet
  facet normal 0.233443 0 0.97237
    outer loop
      vertex -0.664386 2 -0.0447712
      vertex -0.336333 -21.75 -0.123529
      vertex -0.336333 2 -0.123529
    endloop
  endfacet
  facet normal 0.233443 0 0.97237
    outer loop
      vertex -0.336333 -21.75 -0.123529
      vertex -0.664386 2 -0.0447712
      vertex -0.664386 -21.75 -0.0447712
    endloop
  endfacet
  facet normal 0.996917 -0 0.0784598
    outer loop
      vertex -2.15 -25 2
      vertex -2.12353 -22.25 1.66367
      vertex -2.15 -22.25 2
    endloop
  endfacet
  facet normal 0.996917 0 0.0784598
    outer loop
      vertex -2.12353 -22.25 1.66367
      vertex -2.15 -25 2
      vertex -2.12353 -25 1.66367
    endloop
  endfacet
  facet normal 0.996917 -0 0.0784598
    outer loop
      vertex -2.15 22.25 2
      vertex -2.12353 25 1.66367
      vertex -2.15 25 2
    endloop
  endfacet
  facet normal 0.996917 0 0.0784598
    outer loop
      vertex -2.12353 25 1.66367
      vertex -2.15 22.25 2
      vertex -2.12353 22.25 1.66367
    endloop
  endfacet
  facet normal 0.996917 -0 0.0784598
    outer loop
      vertex -2.15 5.232 2
      vertex -2.12353 21.75 1.66367
      vertex -2.15 21.75 2
    endloop
  endfacet
  facet normal 0.996917 0 0.0784598
    outer loop
      vertex -2.12353 21.75 1.66367
      vertex -2.15 5.232 2
      vertex -2.12353 5.232 1.66367
    endloop
  endfacet
  facet normal 0.996917 -0 0.0784598
    outer loop
      vertex -2.15 -21.75 2
      vertex -2.12353 2 1.66367
      vertex -2.15 2 2
    endloop
  endfacet
  facet normal 0.996917 0 0.0784598
    outer loop
      vertex -2.12353 2 1.66367
      vertex -2.15 -21.75 2
      vertex -2.12353 -21.75 1.66367
    endloop
  endfacet
  facet normal 0.923876 -0 0.382693
    outer loop
      vertex -2.04477 -25 1.33561
      vertex -1.91566 -22.25 1.02392
      vertex -2.04477 -22.25 1.33561
    endloop
  endfacet
  facet normal 0.923876 0 0.382693
    outer loop
      vertex -1.91566 -22.25 1.02392
      vertex -2.04477 -25 1.33561
      vertex -1.91566 -25 1.02392
    endloop
  endfacet
  facet normal 0.923876 -0 0.382693
    outer loop
      vertex -2.04477 22.25 1.33561
      vertex -1.91566 25 1.02392
      vertex -2.04477 25 1.33561
    endloop
  endfacet
  facet normal 0.923876 0 0.382693
    outer loop
      vertex -1.91566 25 1.02392
      vertex -2.04477 22.25 1.33561
      vertex -1.91566 22.25 1.02392
    endloop
  endfacet
  facet normal 0.923876 -0 0.382693
    outer loop
      vertex -2.04477 5.232 1.33561
      vertex -1.91566 21.75 1.02392
      vertex -2.04477 21.75 1.33561
    endloop
  endfacet
  facet normal 0.923876 0 0.382693
    outer loop
      vertex -1.91566 21.75 1.02392
      vertex -2.04477 5.232 1.33561
      vertex -1.91566 5.232 1.02392
    endloop
  endfacet
  facet normal 0.923876 -0 0.382693
    outer loop
      vertex -2.04477 -21.75 1.33561
      vertex -1.91566 2 1.02392
      vertex -2.04477 2 1.33561
    endloop
  endfacet
  facet normal 0.923876 0 0.382693
    outer loop
      vertex -1.91566 2 1.02392
      vertex -2.04477 -21.75 1.33561
      vertex -1.91566 -21.75 1.02392
    endloop
  endfacet
  facet normal -0.97237 0 0.233445
    outer loop
      vertex 2.04477 -25 1.33561
      vertex 2.12353 -22.25 1.66367
      vertex 2.04477 -22.25 1.33561
    endloop
  endfacet
  facet normal -0.97237 0 0.233445
    outer loop
      vertex 2.12353 -22.25 1.66367
      vertex 2.04477 -25 1.33561
      vertex 2.12353 -25 1.66367
    endloop
  endfacet
  facet normal -0.97237 0 0.233445
    outer loop
      vertex 2.04477 22.25 1.33561
      vertex 2.12353 25 1.66367
      vertex 2.04477 25 1.33561
    endloop
  endfacet
  facet normal -0.97237 0 0.233445
    outer loop
      vertex 2.12353 25 1.66367
      vertex 2.04477 22.25 1.33561
      vertex 2.12353 22.25 1.66367
    endloop
  endfacet
  facet normal -0.97237 0 0.233445
    outer loop
      vertex 2.04477 5.232 1.33561
      vertex 2.12353 21.75 1.66367
      vertex 2.04477 21.75 1.33561
    endloop
  endfacet
  facet normal -0.97237 0 0.233445
    outer loop
      vertex 2.12353 21.75 1.66367
      vertex 2.04477 5.232 1.33561
      vertex 2.12353 5.232 1.66367
    endloop
  endfacet
  facet normal -0.97237 0 0.233445
    outer loop
      vertex 2.04477 -21.75 1.33561
      vertex 2.12353 2 1.66367
      vertex 2.04477 2 1.33561
    endloop
  endfacet
  facet normal -0.97237 0 0.233445
    outer loop
      vertex 2.12353 2 1.66367
      vertex 2.04477 -21.75 1.33561
      vertex 2.12353 -21.75 1.66367
    endloop
  endfacet
  facet normal -0.923876 0 0.382693
    outer loop
      vertex 1.91566 -25 1.02392
      vertex 2.04477 -22.25 1.33561
      vertex 1.91566 -22.25 1.02392
    endloop
  endfacet
  facet normal -0.923876 0 0.382693
    outer loop
      vertex 2.04477 -22.25 1.33561
      vertex 1.91566 -25 1.02392
      vertex 2.04477 -25 1.33561
    endloop
  endfacet
  facet normal -0.923876 0 0.382693
    outer loop
      vertex 1.91566 22.25 1.02392
      vertex 2.04477 25 1.33561
      vertex 1.91566 25 1.02392
    endloop
  endfacet
  facet normal -0.923876 0 0.382693
    outer loop
      vertex 2.04477 25 1.33561
      vertex 1.91566 22.25 1.02392
      vertex 2.04477 22.25 1.33561
    endloop
  endfacet
  facet normal -0.923876 0 0.382693
    outer loop
      vertex 1.91566 5.232 1.02392
      vertex 2.04477 21.75 1.33561
      vertex 1.91566 21.75 1.02392
    endloop
  endfacet
  facet normal -0.923876 0 0.382693
    outer loop
      vertex 2.04477 21.75 1.33561
      vertex 1.91566 5.232 1.02392
      vertex 2.04477 5.232 1.33561
    endloop
  endfacet
  facet normal -0.923876 0 0.382693
    outer loop
      vertex 1.91566 -21.75 1.02392
      vertex 2.04477 2 1.33561
      vertex 1.91566 2 1.02392
    endloop
  endfacet
  facet normal -0.923876 0 0.382693
    outer loop
      vertex 2.04477 2 1.33561
      vertex 1.91566 -21.75 1.02392
      vertex 2.04477 -21.75 1.33561
    endloop
  endfacet
  facet normal -0.760401 0 0.649454
    outer loop
      vertex 1.52028 -25 0.47972
      vertex 1.73939 -22.25 0.736261
      vertex 1.52028 -22.25 0.47972
    endloop
  endfacet
  facet normal -0.760401 0 0.649454
    outer loop
      vertex 1.73939 -22.25 0.736261
      vertex 1.52028 -25 0.47972
      vertex 1.73939 -25 0.736261
    endloop
  endfacet
  facet normal -0.760401 0 0.649454
    outer loop
      vertex 1.52028 22.25 0.47972
      vertex 1.73939 25 0.736261
      vertex 1.52028 25 0.47972
    endloop
  endfacet
  facet normal -0.760401 0 0.649454
    outer loop
      vertex 1.73939 25 0.736261
      vertex 1.52028 22.25 0.47972
      vertex 1.73939 22.25 0.736261
    endloop
  endfacet
  facet normal -0.760401 0 0.649454
    outer loop
      vertex 1.52028 5.232 0.47972
      vertex 1.73939 21.75 0.736261
      vertex 1.52028 21.75 0.47972
    endloop
  endfacet
  facet normal -0.760401 0 0.649454
    outer loop
      vertex 1.73939 21.75 0.736261
      vertex 1.52028 5.232 0.47972
      vertex 1.73939 5.232 0.736261
    endloop
  endfacet
  facet normal -0.760401 0 0.649454
    outer loop
      vertex 1.52028 -21.75 0.47972
      vertex 1.73939 2 0.736261
      vertex 1.52028 2 0.47972
    endloop
  endfacet
  facet normal -0.760401 0 0.649454
    outer loop
      vertex 1.73939 2 0.736261
      vertex 1.52028 -21.75 0.47972
      vertex 1.73939 -21.75 0.736261
    endloop
  endfacet
  facet normal -0.522496 0 0.852642
    outer loop
      vertex 0.976079 -22.25 0.0843353
      vertex 1.26374 -25 0.260613
      vertex 1.26374 -22.25 0.260613
    endloop
  endfacet
  facet normal -0.522496 0 0.852642
    outer loop
      vertex 1.26374 -25 0.260613
      vertex 0.976079 -22.25 0.0843353
      vertex 0.976079 -25 0.0843353
    endloop
  endfacet
  facet normal -0.522496 0 0.852642
    outer loop
      vertex 0.976079 25 0.0843353
      vertex 1.26374 22.25 0.260613
      vertex 1.26374 25 0.260613
    endloop
  endfacet
  facet normal -0.522496 0 0.852642
    outer loop
      vertex 1.26374 22.25 0.260613
      vertex 0.976079 25 0.0843353
      vertex 0.976079 22.25 0.0843353
    endloop
  endfacet
  facet normal -0.522496 0 0.852642
    outer loop
      vertex 0.976079 21.75 0.0843353
      vertex 1.26374 5.232 0.260613
      vertex 1.26374 21.75 0.260613
    endloop
  endfacet
  facet normal -0.522496 0 0.852642
    outer loop
      vertex 1.26374 5.232 0.260613
      vertex 0.976079 21.75 0.0843353
      vertex 0.976079 5.232 0.0843353
    endloop
  endfacet
  facet normal -0.522496 0 0.852642
    outer loop
      vertex 0.976079 2 0.0843353
      vertex 1.26374 -21.75 0.260613
      vertex 1.26374 2 0.260613
    endloop
  endfacet
  facet normal -0.522496 0 0.852642
    outer loop
      vertex 1.26374 -21.75 0.260613
      vertex 0.976079 2 0.0843353
      vertex 0.976079 -21.75 0.0843353
    endloop
  endfacet
  facet normal -0.64945 0 0.760404
    outer loop
      vertex 1.26374 -22.25 0.260613
      vertex 1.52028 -25 0.47972
      vertex 1.52028 -22.25 0.47972
    endloop
  endfacet
  facet normal -0.64945 0 0.760404
    outer loop
      vertex 1.52028 -25 0.47972
      vertex 1.26374 -22.25 0.260613
      vertex 1.26374 -25 0.260613
    endloop
  endfacet
  facet normal -0.64945 0 0.760404
    outer loop
      vertex 1.26374 25 0.260613
      vertex 1.52028 22.25 0.47972
      vertex 1.52028 25 0.47972
    endloop
  endfacet
  facet normal -0.64945 0 0.760404
    outer loop
      vertex 1.52028 22.25 0.47972
      vertex 1.26374 25 0.260613
      vertex 1.26374 22.25 0.260613
    endloop
  endfacet
  facet normal -0.64945 0 0.760404
    outer loop
      vertex 1.26374 21.75 0.260613
      vertex 1.52028 5.232 0.47972
      vertex 1.52028 21.75 0.47972
    endloop
  endfacet
  facet normal -0.64945 0 0.760404
    outer loop
      vertex 1.52028 5.232 0.47972
      vertex 1.26374 21.75 0.260613
      vertex 1.26374 5.232 0.260613
    endloop
  endfacet
  facet normal -0.64945 0 0.760404
    outer loop
      vertex 1.26374 2 0.260613
      vertex 1.52028 -21.75 0.47972
      vertex 1.52028 2 0.47972
    endloop
  endfacet
  facet normal -0.64945 0 0.760404
    outer loop
      vertex 1.52028 -21.75 0.47972
      vertex 1.26374 2 0.260613
      vertex 1.26374 -21.75 0.260613
    endloop
  endfacet
  facet normal -0.382681 0 0.923881
    outer loop
      vertex 0.664386 -22.25 -0.0447712
      vertex 0.976079 -25 0.0843353
      vertex 0.976079 -22.25 0.0843353
    endloop
  endfacet
  facet normal -0.382681 0 0.923881
    outer loop
      vertex 0.976079 -25 0.0843353
      vertex 0.664386 -22.25 -0.0447712
      vertex 0.664386 -25 -0.0447712
    endloop
  endfacet
  facet normal -0.382681 0 0.923881
    outer loop
      vertex 0.664386 25 -0.0447712
      vertex 0.976079 22.25 0.0843353
      vertex 0.976079 25 0.0843353
    endloop
  endfacet
  facet normal -0.382681 0 0.923881
    outer loop
      vertex 0.976079 22.25 0.0843353
      vertex 0.664386 25 -0.0447712
      vertex 0.664386 22.25 -0.0447712
    endloop
  endfacet
  facet normal -0.382681 0 0.923881
    outer loop
      vertex 0.664386 21.75 -0.0447712
      vertex 0.976079 5.232 0.0843353
      vertex 0.976079 21.75 0.0843353
    endloop
  endfacet
  facet normal -0.382681 0 0.923881
    outer loop
      vertex 0.976079 5.232 0.0843353
      vertex 0.664386 21.75 -0.0447712
      vertex 0.664386 5.232 -0.0447712
    endloop
  endfacet
  facet normal -0.382681 0 0.923881
    outer loop
      vertex 0.664386 2 -0.0447712
      vertex 0.976079 -21.75 0.0843353
      vertex 0.976079 2 0.0843353
    endloop
  endfacet
  facet normal -0.382681 0 0.923881
    outer loop
      vertex 0.976079 -21.75 0.0843353
      vertex 0.664386 2 -0.0447712
      vertex 0.664386 -21.75 -0.0447712
    endloop
  endfacet
  facet normal -0 0 1
    outer loop
      vertex -5 22.25 -0.349999
      vertex 5 21.75 -0.349999
      vertex 5 22.25 -0.349999
    endloop
  endfacet
  facet normal 0 0 1
    outer loop
      vertex 5 21.75 -0.349999
      vertex -5 22.25 -0.349999
      vertex -5 21.75 -0.349999
    endloop
  endfacet
  facet normal 0 1 0
    outer loop
      vertex 5 21.75 3
      vertex 2.15 21.75 2
      vertex 2.15 21.75 3
    endloop
  endfacet
  facet normal 0 1 0
    outer loop
      vertex 5 21.75 3
      vertex 2.12353 21.75 1.66367
      vertex 2.15 21.75 2
    endloop
  endfacet
  facet normal 0 1 -0
    outer loop
      vertex 5 21.75 -0.349999
      vertex 2.12353 21.75 1.66367
      vertex 5 21.75 3
    endloop
  endfacet
  facet normal 0 1 0
    outer loop
      vertex 2.12353 21.75 1.66367
      vertex 5 21.75 -0.349999
      vertex 2.04477 21.75 1.33561
    endloop
  endfacet
  facet normal 0 1 0
    outer loop
      vertex 2.04477 21.75 1.33561
      vertex 5 21.75 -0.349999
      vertex 1.91566 21.75 1.02392
    endloop
  endfacet
  facet normal 0 1 0
    outer loop
      vertex 1.91566 21.75 1.02392
      vertex 5 21.75 -0.349999
      vertex 1.73939 21.75 0.736261
    endloop
  endfacet
  facet normal 0 1 0
    outer loop
      vertex 1.73939 21.75 0.736261
      vertex 5 21.75 -0.349999
      vertex 1.52028 21.75 0.47972
    endloop
  endfacet
  facet normal 0 1 0
    outer loop
      vertex 0.336333 21.75 -0.123529
      vertex 5 21.75 -0.349999
      vertex 0 21.75 -0.15
    endloop
  endfacet
  facet normal 0 1 0
    outer loop
      vertex 0.664386 21.75 -0.0447712
      vertex 5 21.75 -0.349999
      vertex 0.336333 21.75 -0.123529
    endloop
  endfacet
  facet normal 0 1 0
    outer loop
      vertex 0.976079 21.75 0.0843353
      vertex 5 21.75 -0.349999
      vertex 0.664386 21.75 -0.0447712
    endloop
  endfacet
  facet normal 0 1 0
    outer loop
      vertex 1.26374 21.75 0.260613
      vertex 5 21.75 -0.349999
      vertex 0.976079 21.75 0.0843353
    endloop
  endfacet
  facet normal 0 1 0
    outer loop
      vertex 1.52028 21.75 0.47972
      vertex 5 21.75 -0.349999
      vertex 1.26374 21.75 0.260613
    endloop
  endfacet
  facet normal 0 1 -0
    outer loop
      vertex -2.15 21.75 2
      vertex -5 21.75 3
      vertex -2.15 21.75 3
    endloop
  endfacet
  facet normal 0 1 0
    outer loop
      vertex -2.12353 21.75 1.66367
      vertex -5 21.75 3
      vertex -2.15 21.75 2
    endloop
  endfacet
  facet normal 0 1 0
    outer loop
      vertex -5 21.75 -0.349999
      vertex -2.12353 21.75 1.66367
      vertex -2.04477 21.75 1.33561
    endloop
  endfacet
  facet normal 0 1 0
    outer loop
      vertex -5 21.75 -0.349999
      vertex -2.04477 21.75 1.33561
      vertex -1.91566 21.75 1.02392
    endloop
  endfacet
  facet normal 0 1 0
    outer loop
      vertex -5 21.75 -0.349999
      vertex -1.91566 21.75 1.02392
      vertex -1.73939 21.75 0.736261
    endloop
  endfacet
  facet normal 0 1 0
    outer loop
      vertex -5 21.75 -0.349999
      vertex -1.73939 21.75 0.736261
      vertex -1.52028 21.75 0.47972
    endloop
  endfacet
  facet normal 0 1 0
    outer loop
      vertex -5 21.75 -0.349999
      vertex -1.52028 21.75 0.47972
      vertex -1.26374 21.75 0.260613
    endloop
  endfacet
  facet normal 0 1 0
    outer loop
      vertex -2.12353 21.75 1.66367
      vertex -5 21.75 -0.349999
      vertex -5 21.75 3
    endloop
  endfacet
  facet normal 0 1 0
    outer loop
      vertex -0.976079 21.75 0.0843353
      vertex -5 21.75 -0.349999
      vertex -1.26374 21.75 0.260613
    endloop
  endfacet
  facet normal 0 1 0
    outer loop
      vertex -0.664386 21.75 -0.0447712
      vertex -5 21.75 -0.349999
      vertex -0.976079 21.75 0.0843353
    endloop
  endfacet
  facet normal 0 1 0
    outer loop
      vertex -0.336333 21.75 -0.123529
      vertex -5 21.75 -0.349999
      vertex -0.664386 21.75 -0.0447712
    endloop
  endfacet
  facet normal 0 1 0
    outer loop
      vertex 0 21.75 -0.15
      vertex -5 21.75 -0.349999
      vertex -0.336333 21.75 -0.123529
    endloop
  endfacet
  facet normal 0 1 0
    outer loop
      vertex -5 21.75 -0.349999
      vertex 0 21.75 -0.15
      vertex 5 21.75 -0.349999
    endloop
  endfacet
  facet normal 0 -1 0
    outer loop
      vertex -5 22.25 3
      vertex -2.15 22.25 2
      vertex -2.15 22.25 3
    endloop
  endfacet
  facet normal 0 -1 0
    outer loop
      vertex -5 22.25 3
      vertex -2.12353 22.25 1.66367
      vertex -2.15 22.25 2
    endloop
  endfacet
  facet normal 0 -1 0
    outer loop
      vertex -5 22.25 -0.349999
      vertex -2.12353 22.25 1.66367
      vertex -5 22.25 3
    endloop
  endfacet
  facet normal 0 -1 -0
    outer loop
      vertex -2.12353 22.25 1.66367
      vertex -5 22.25 -0.349999
      vertex -2.04477 22.25 1.33561
    endloop
  endfacet
  facet normal 0 -1 -0
    outer loop
      vertex -2.04477 22.25 1.33561
      vertex -5 22.25 -0.349999
      vertex -1.91566 22.25 1.02392
    endloop
  endfacet
  facet normal 0 -1 -0
    outer loop
      vertex -1.91566 22.25 1.02392
      vertex -5 22.25 -0.349999
      vertex -1.73939 22.25 0.736261
    endloop
  endfacet
  facet normal 0 -1 -0
    outer loop
      vertex -1.73939 22.25 0.736261
      vertex -5 22.25 -0.349999
      vertex -1.52028 22.25 0.47972
    endloop
  endfacet
  facet normal 0 -1 -0
    outer loop
      vertex -0.336333 22.25 -0.123529
      vertex -5 22.25 -0.349999
      vertex 0 22.25 -0.15
    endloop
  endfacet
  facet normal 0 -1 -0
    outer loop
      vertex -0.664386 22.25 -0.0447712
      vertex -5 22.25 -0.349999
      vertex -0.336333 22.25 -0.123529
    endloop
  endfacet
  facet normal 0 -1 -0
    outer loop
      vertex -0.976079 22.25 0.0843353
      vertex -5 22.25 -0.349999
      vertex -0.664386 22.25 -0.0447712
    endloop
  endfacet
  facet normal 0 -1 -0
    outer loop
      vertex -1.26374 22.25 0.260613
      vertex -5 22.25 -0.349999
      vertex -0.976079 22.25 0.0843353
    endloop
  endfacet
  facet normal 0 -1 -0
    outer loop
      vertex -1.52028 22.25 0.47972
      vertex -5 22.25 -0.349999
      vertex -1.26374 22.25 0.260613
    endloop
  endfacet
  facet normal 0 -1 0
    outer loop
      vertex 2.15 22.25 2
      vertex 5 22.25 3
      vertex 2.15 22.25 3
    endloop
  endfacet
  facet normal 0 -1 0
    outer loop
      vertex 2.12353 22.25 1.66367
      vertex 5 22.25 3
      vertex 2.15 22.25 2
    endloop
  endfacet
  facet normal 0 -1 0
    outer loop
      vertex 5 22.25 -0.349999
      vertex 2.12353 22.25 1.66367
      vertex 2.04477 22.25 1.33561
    endloop
  endfacet
  facet normal 0 -1 0
    outer loop
      vertex 5 22.25 -0.349999
      vertex 2.04477 22.25 1.33561
      vertex 1.91566 22.25 1.02392
    endloop
  endfacet
  facet normal 0 -1 0
    outer loop
      vertex 5 22.25 -0.349999
      vertex 1.91566 22.25 1.02392
      vertex 1.73939 22.25 0.736261
    endloop
  endfacet
  facet normal 0 -1 0
    outer loop
      vertex 5 22.25 -0.349999
      vertex 1.73939 22.25 0.736261
      vertex 1.52028 22.25 0.47972
    endloop
  endfacet
  facet normal 0 -1 0
    outer loop
      vertex 5 22.25 -0.349999
      vertex 1.52028 22.25 0.47972
      vertex 1.26374 22.25 0.260613
    endloop
  endfacet
  facet normal 0 -1 0
    outer loop
      vertex 2.12353 22.25 1.66367
      vertex 5 22.25 -0.349999
      vertex 5 22.25 3
    endloop
  endfacet
  facet normal 0 -1 0
    outer loop
      vertex 0.976079 22.25 0.0843353
      vertex 5 22.25 -0.349999
      vertex 1.26374 22.25 0.260613
    endloop
  endfacet
  facet normal 0 -1 0
    outer loop
      vertex 0.664386 22.25 -0.0447712
      vertex 5 22.25 -0.349999
      vertex 0.976079 22.25 0.0843353
    endloop
  endfacet
  facet normal 0 -1 0
    outer loop
      vertex 0.336333 22.25 -0.123529
      vertex 5 22.25 -0.349999
      vertex 0.664386 22.25 -0.0447712
    endloop
  endfacet
  facet normal 0 -1 0
    outer loop
      vertex 0 22.25 -0.15
      vertex 5 22.25 -0.349999
      vertex 0.336333 22.25 -0.123529
    endloop
  endfacet
  facet normal 0 -1 0
    outer loop
      vertex 5 22.25 -0.349999
      vertex 0 22.25 -0.15
      vertex -5 22.25 -0.349999
    endloop
  endfacet
  facet normal 0 -1 0
    outer loop
      vertex -5 -21.75 3
      vertex -2.15 -21.75 2
      vertex -2.15 -21.75 3
    endloop
  endfacet
  facet normal 0 -1 0
    outer loop
      vertex -5 -21.75 3
      vertex -2.12353 -21.75 1.66367
      vertex -2.15 -21.75 2
    endloop
  endfacet
  facet normal 0 -1 0
    outer loop
      vertex -5 -21.75 -0.349999
      vertex -2.12353 -21.75 1.66367
      vertex -5 -21.75 3
    endloop
  endfacet
  facet normal 0 -1 -0
    outer loop
      vertex -2.12353 -21.75 1.66367
      vertex -5 -21.75 -0.349999
      vertex -2.04477 -21.75 1.33561
    endloop
  endfacet
  facet normal 0 -1 -0
    outer loop
      vertex -2.04477 -21.75 1.33561
      vertex -5 -21.75 -0.349999
      vertex -1.91566 -21.75 1.02392
    endloop
  endfacet
  facet normal 0 -1 -0
    outer loop
      vertex -1.91566 -21.75 1.02392
      vertex -5 -21.75 -0.349999
      vertex -1.73939 -21.75 0.736261
    endloop
  endfacet
  facet normal 0 -1 -0
    outer loop
      vertex -1.73939 -21.75 0.736261
      vertex -5 -21.75 -0.349999
      vertex -1.52028 -21.75 0.47972
    endloop
  endfacet
  facet normal 0 -1 -0
    outer loop
      vertex -0.336333 -21.75 -0.123529
      vertex -5 -21.75 -0.349999
      vertex 0 -21.75 -0.15
    endloop
  endfacet
  facet normal 0 -1 -0
    outer loop
      vertex -0.664386 -21.75 -0.0447712
      vertex -5 -21.75 -0.349999
      vertex -0.336333 -21.75 -0.123529
    endloop
  endfacet
  facet normal 0 -1 -0
    outer loop
      vertex -0.976079 -21.75 0.0843353
      vertex -5 -21.75 -0.349999
      vertex -0.664386 -21.75 -0.0447712
    endloop
  endfacet
  facet normal 0 -1 -0
    outer loop
      vertex -1.26374 -21.75 0.260613
      vertex -5 -21.75 -0.349999
      vertex -0.976079 -21.75 0.0843353
    endloop
  endfacet
  facet normal 0 -1 -0
    outer loop
      vertex -1.52028 -21.75 0.47972
      vertex -5 -21.75 -0.349999
      vertex -1.26374 -21.75 0.260613
    endloop
  endfacet
  facet normal 0 -1 0
    outer loop
      vertex 2.15 -21.75 2
      vertex 5 -21.75 3
      vertex 2.15 -21.75 3
    endloop
  endfacet
  facet normal 0 -1 0
    outer loop
      vertex 2.12353 -21.75 1.66367
      vertex 5 -21.75 3
      vertex 2.15 -21.75 2
    endloop
  endfacet
  facet normal 0 -1 0
    outer loop
      vertex 5 -21.75 -0.349999
      vertex 2.12353 -21.75 1.66367
      vertex 2.04477 -21.75 1.33561
    endloop
  endfacet
  facet normal 0 -1 0
    outer loop
      vertex 5 -21.75 -0.349999
      vertex 2.04477 -21.75 1.33561
      vertex 1.91566 -21.75 1.02392
    endloop
  endfacet
  facet normal 0 -1 0
    outer loop
      vertex 5 -21.75 -0.349999
      vertex 1.91566 -21.75 1.02392
      vertex 1.73939 -21.75 0.736261
    endloop
  endfacet
  facet normal 0 -1 0
    outer loop
      vertex 5 -21.75 -0.349999
      vertex 1.73939 -21.75 0.736261
      vertex 1.52028 -21.75 0.47972
    endloop
  endfacet
  facet normal 0 -1 0
    outer loop
      vertex 5 -21.75 -0.349999
      vertex 1.52028 -21.75 0.47972
      vertex 1.26374 -21.75 0.260613
    endloop
  endfacet
  facet normal 0 -1 0
    outer loop
      vertex 2.12353 -21.75 1.66367
      vertex 5 -21.75 -0.349999
      vertex 5 -21.75 3
    endloop
  endfacet
  facet normal 0 -1 0
    outer loop
      vertex 0.976079 -21.75 0.0843353
      vertex 5 -21.75 -0.349999
      vertex 1.26374 -21.75 0.260613
    endloop
  endfacet
  facet normal 0 -1 0
    outer loop
      vertex 0.664386 -21.75 -0.0447712
      vertex 5 -21.75 -0.349999
      vertex 0.976079 -21.75 0.0843353
    endloop
  endfacet
  facet normal 0 -1 0
    outer loop
      vertex 0.336333 -21.75 -0.123529
      vertex 5 -21.75 -0.349999
      vertex 0.664386 -21.75 -0.0447712
    endloop
  endfacet
  facet normal 0 -1 0
    outer loop
      vertex 0 -21.75 -0.15
      vertex 5 -21.75 -0.349999
      vertex 0.336333 -21.75 -0.123529
    endloop
  endfacet
  facet normal 0 -1 0
    outer loop
      vertex 5 -21.75 -0.349999
      vertex 0 -21.75 -0.15
      vertex -5 -21.75 -0.349999
    endloop
  endfacet
  facet normal -0 0 1
    outer loop
      vertex -5 -21.75 -0.349999
      vertex 5 -22.25 -0.349999
      vertex 5 -21.75 -0.349999
    endloop
  endfacet
  facet normal 0 0 1
    outer loop
      vertex 5 -22.25 -0.349999
      vertex -5 -21.75 -0.349999
      vertex -5 -22.25 -0.349999
    endloop
  endfacet
  facet normal 0 1 0
    outer loop
      vertex 5 -22.25 3
      vertex 2.15 -22.25 2
      vertex 2.15 -22.25 3
    endloop
  endfacet
  facet normal 0 1 0
    outer loop
      vertex 5 -22.25 3
      vertex 2.12353 -22.25 1.66367
      vertex 2.15 -22.25 2
    endloop
  endfacet
  facet normal 0 1 -0
    outer loop
      vertex 5 -22.25 -0.349999
      vertex 2.12353 -22.25 1.66367
      vertex 5 -22.25 3
    endloop
  endfacet
  facet normal 0 1 0
    outer loop
      vertex 2.12353 -22.25 1.66367
      vertex 5 -22.25 -0.349999
      vertex 2.04477 -22.25 1.33561
    endloop
  endfacet
  facet normal 0 1 0
    outer loop
      vertex 2.04477 -22.25 1.33561
      vertex 5 -22.25 -0.349999
      vertex 1.91566 -22.25 1.02392
    endloop
  endfacet
  facet normal 0 1 0
    outer loop
      vertex 1.91566 -22.25 1.02392
      vertex 5 -22.25 -0.349999
      vertex 1.73939 -22.25 0.736261
    endloop
  endfacet
  facet normal 0 1 0
    outer loop
      vertex 1.73939 -22.25 0.736261
      vertex 5 -22.25 -0.349999
      vertex 1.52028 -22.25 0.47972
    endloop
  endfacet
  facet normal 0 1 0
    outer loop
      vertex 0.336333 -22.25 -0.123529
      vertex 5 -22.25 -0.349999
      vertex 0 -22.25 -0.15
    endloop
  endfacet
  facet normal 0 1 0
    outer loop
      vertex 0.664386 -22.25 -0.0447712
      vertex 5 -22.25 -0.349999
      vertex 0.336333 -22.25 -0.123529
    endloop
  endfacet
  facet normal 0 1 0
    outer loop
      vertex 0.976079 -22.25 0.0843353
      vertex 5 -22.25 -0.349999
      vertex 0.664386 -22.25 -0.0447712
    endloop
  endfacet
  facet normal 0 1 0
    outer loop
      vertex 1.26374 -22.25 0.260613
      vertex 5 -22.25 -0.349999
      vertex 0.976079 -22.25 0.0843353
    endloop
  endfacet
  facet normal 0 1 0
    outer loop
      vertex 1.52028 -22.25 0.47972
      vertex 5 -22.25 -0.349999
      vertex 1.26374 -22.25 0.260613
    endloop
  endfacet
  facet normal 0 1 -0
    outer loop
      vertex -2.15 -22.25 2
      vertex -5 -22.25 3
      vertex -2.15 -22.25 3
    endloop
  endfacet
  facet normal 0 1 0
    outer loop
      vertex -2.12353 -22.25 1.66367
      vertex -5 -22.25 3
      vertex -2.15 -22.25 2
    endloop
  endfacet
  facet normal 0 1 0
    outer loop
      vertex -5 -22.25 -0.349999
      vertex -2.12353 -22.25 1.66367
      vertex -2.04477 -22.25 1.33561
    endloop
  endfacet
  facet normal 0 1 0
    outer loop
      vertex -5 -22.25 -0.349999
      vertex -2.04477 -22.25 1.33561
      vertex -1.91566 -22.25 1.02392
    endloop
  endfacet
  facet normal 0 1 0
    outer loop
      vertex -5 -22.25 -0.349999
      vertex -1.91566 -22.25 1.02392
      vertex -1.73939 -22.25 0.736261
    endloop
  endfacet
  facet normal 0 1 0
    outer loop
      vertex -5 -22.25 -0.349999
      vertex -1.73939 -22.25 0.736261
      vertex -1.52028 -22.25 0.47972
    endloop
  endfacet
  facet normal 0 1 0
    outer loop
      vertex -5 -22.25 -0.349999
      vertex -1.52028 -22.25 0.47972
      vertex -1.26374 -22.25 0.260613
    endloop
  endfacet
  facet normal 0 1 0
    outer loop
      vertex -2.12353 -22.25 1.66367
      vertex -5 -22.25 -0.349999
      vertex -5 -22.25 3
    endloop
  endfacet
  facet normal 0 1 0
    outer loop
      vertex -0.976079 -22.25 0.0843353
      vertex -5 -22.25 -0.349999
      vertex -1.26374 -22.25 0.260613
    endloop
  endfacet
  facet normal 0 1 0
    outer loop
      vertex -0.664386 -22.25 -0.0447712
      vertex -5 -22.25 -0.349999
      vertex -0.976079 -22.25 0.0843353
    endloop
  endfacet
  facet normal 0 1 0
    outer loop
      vertex -0.336333 -22.25 -0.123529
      vertex -5 -22.25 -0.349999
      vertex -0.664386 -22.25 -0.0447712
    endloop
  endfacet
  facet normal 0 1 0
    outer loop
      vertex 0 -22.25 -0.15
      vertex -5 -22.25 -0.349999
      vertex -0.336333 -22.25 -0.123529
    endloop
  endfacet
  facet normal 0 1 0
    outer loop
      vertex -5 -22.25 -0.349999
      vertex 0 -22.25 -0.15
      vertex 5 -22.25 -0.349999
    endloop
  endfacet
  facet normal 0.5 0 0.866025
    outer loop
      vertex -3.43314 5.232 0.0178747
      vertex 0 2 -1.96425
      vertex 0 5.232 -1.96425
    endloop
  endfacet
  facet normal 0.5 0 0.866025
    outer loop
      vertex 0 2 -1.96425
      vertex -3.43314 5.232 0.0178747
      vertex -3.43314 2 0.0178747
    endloop
  endfacet
  facet normal -1 0 0
    outer loop
      vertex 3.43314 2 0.0178747
      vertex 3.43314 5.232 3
      vertex 3.43314 5.232 0.0178747
    endloop
  endfacet
  facet normal -1 -0 0
    outer loop
      vertex 3.43314 5.232 3
      vertex 3.43314 2 0.0178747
      vertex 3.43314 2 3
    endloop
  endfacet
  facet normal -0.5 0 0.866025
    outer loop
      vertex 0 5.232 -1.96425
      vertex 3.43314 2 0.0178747
      vertex 3.43314 5.232 0.0178747
    endloop
  endfacet
  facet normal -0.5 0 0.866025
    outer loop
      vertex 3.43314 2 0.0178747
      vertex 0 5.232 -1.96425
      vertex 0 2 -1.96425
    endloop
  endfacet
  facet normal 0 1 0
    outer loop
      vertex 3.43314 2 3
      vertex 2.15 2 2
      vertex 2.15 2 3
    endloop
  endfacet
  facet normal 0 1 0
    outer loop
      vertex 3.43314 2 3
      vertex 2.12353 2 1.66367
      vertex 2.15 2 2
    endloop
  endfacet
  facet normal 0 1 -0
    outer loop
      vertex 3.43314 2 0.0178747
      vertex 2.12353 2 1.66367
      vertex 3.43314 2 3
    endloop
  endfacet
  facet normal 0 1 0
    outer loop
      vertex 2.12353 2 1.66367
      vertex 3.43314 2 0.0178747
      vertex 2.04477 2 1.33561
    endloop
  endfacet
  facet normal 0 1 0
    outer loop
      vertex 2.04477 2 1.33561
      vertex 3.43314 2 0.0178747
      vertex 1.91566 2 1.02392
    endloop
  endfacet
  facet normal 0 1 0
    outer loop
      vertex 1.91566 2 1.02392
      vertex 3.43314 2 0.0178747
      vertex 1.73939 2 0.736261
    endloop
  endfacet
  facet normal 0 1 0
    outer loop
      vertex 3.43314 2 0.0178747
      vertex 1.52028 2 0.47972
      vertex 1.73939 2 0.736261
    endloop
  endfacet
  facet normal 0 1 0
    outer loop
      vertex 3.43314 2 0.0178747
      vertex 1.26374 2 0.260613
      vertex 1.52028 2 0.47972
    endloop
  endfacet
  facet normal 0 1 0
    outer loop
      vertex 3.43314 2 0.0178747
      vertex 0.976079 2 0.0843353
      vertex 1.26374 2 0.260613
    endloop
  endfacet
  facet normal 0 1 0
    outer loop
      vertex 0 2 -1.96425
      vertex 0.976079 2 0.0843353
      vertex 3.43314 2 0.0178747
    endloop
  endfacet
  facet normal 0 1 0
    outer loop
      vertex 0.976079 2 0.0843353
      vertex 0 2 -1.96425
      vertex 0.664386 2 -0.0447712
    endloop
  endfacet
  facet normal 0 1 0
    outer loop
      vertex 0.664386 2 -0.0447712
      vertex 0 2 -1.96425
      vertex 0.336333 2 -0.123529
    endloop
  endfacet
  facet normal 0 1 0
    outer loop
      vertex 0.336333 2 -0.123529
      vertex 0 2 -1.96425
      vertex 0 2 -0.15
    endloop
  endfacet
  facet normal 0 1 -0
    outer loop
      vertex -2.15 2 2
      vertex -3.43314 2 3
      vertex -2.15 2 3
    endloop
  endfacet
  facet normal 0 1 0
    outer loop
      vertex -2.12353 2 1.66367
      vertex -3.43314 2 3
      vertex -2.15 2 2
    endloop
  endfacet
  facet normal 0 1 0
    outer loop
      vertex -3.43314 2 0.0178747
      vertex -2.12353 2 1.66367
      vertex -2.04477 2 1.33561
    endloop
  endfacet
  facet normal 0 1 0
    outer loop
      vertex -3.43314 2 0.0178747
      vertex -2.04477 2 1.33561
      vertex -1.91566 2 1.02392
    endloop
  endfacet
  facet normal 0 1 0
    outer loop
      vertex -3.43314 2 0.0178747
      vertex -1.91566 2 1.02392
      vertex -1.73939 2 0.736261
    endloop
  endfacet
  facet normal 0 1 0
    outer loop
      vertex -2.12353 2 1.66367
      vertex -3.43314 2 0.0178747
      vertex -3.43314 2 3
    endloop
  endfacet
  facet normal 0 1 0
    outer loop
      vertex -1.52028 2 0.47972
      vertex -3.43314 2 0.0178747
      vertex -1.73939 2 0.736261
    endloop
  endfacet
  facet normal 0 1 0
    outer loop
      vertex -1.26374 2 0.260613
      vertex -3.43314 2 0.0178747
      vertex -1.52028 2 0.47972
    endloop
  endfacet
  facet normal 0 1 0
    outer loop
      vertex -0.976079 2 0.0843353
      vertex -3.43314 2 0.0178747
      vertex -1.26374 2 0.260613
    endloop
  endfacet
  facet normal 0 1 0
    outer loop
      vertex 0 2 -1.96425
      vertex -0.976079 2 0.0843353
      vertex -0.664386 2 -0.0447712
    endloop
  endfacet
  facet normal 0 1 0
    outer loop
      vertex 0 2 -1.96425
      vertex -0.664386 2 -0.0447712
      vertex -0.336333 2 -0.123529
    endloop
  endfacet
  facet normal 0 1 -0
    outer loop
      vertex 0 2 -1.96425
      vertex -0.336333 2 -0.123529
      vertex 0 2 -0.15
    endloop
  endfacet
  facet normal 0 1 0
    outer loop
      vertex -0.976079 2 0.0843353
      vertex 0 2 -1.96425
      vertex -3.43314 2 0.0178747
    endloop
  endfacet
  facet normal 1 -0 0
    outer loop
      vertex -3.43314 2 3
      vertex -3.43314 5.232 0.0178747
      vertex -3.43314 5.232 3
    endloop
  endfacet
  facet normal 1 0 0
    outer loop
      vertex -3.43314 5.232 0.0178747
      vertex -3.43314 2 3
      vertex -3.43314 2 0.0178747
    endloop
  endfacet
  facet normal 0 -1 0
    outer loop
      vertex -3.43314 5.232 3
      vertex -2.15 5.232 2
      vertex -2.15 5.232 3
    endloop
  endfacet
  facet normal 0 -1 0
    outer loop
      vertex -3.43314 5.232 3
      vertex -2.12353 5.232 1.66367
      vertex -2.15 5.232 2
    endloop
  endfacet
  facet normal 0 -1 0
    outer loop
      vertex -3.43314 5.232 0.0178747
      vertex -2.12353 5.232 1.66367
      vertex -3.43314 5.232 3
    endloop
  endfacet
  facet normal 0 -1 -0
    outer loop
      vertex -2.12353 5.232 1.66367
      vertex -3.43314 5.232 0.0178747
      vertex -2.04477 5.232 1.33561
    endloop
  endfacet
  facet normal 0 -1 -0
    outer loop
      vertex -2.04477 5.232 1.33561
      vertex -3.43314 5.232 0.0178747
      vertex -1.91566 5.232 1.02392
    endloop
  endfacet
  facet normal 0 -1 -0
    outer loop
      vertex -1.91566 5.232 1.02392
      vertex -3.43314 5.232 0.0178747
      vertex -1.73939 5.232 0.736261
    endloop
  endfacet
  facet normal 0 -1 0
    outer loop
      vertex -3.43314 5.232 0.0178747
      vertex -1.52028 5.232 0.47972
      vertex -1.73939 5.232 0.736261
    endloop
  endfacet
  facet normal 0 -1 0
    outer loop
      vertex -3.43314 5.232 0.0178747
      vertex -1.26374 5.232 0.260613
      vertex -1.52028 5.232 0.47972
    endloop
  endfacet
  facet normal 0 -1 0
    outer loop
      vertex -3.43314 5.232 0.0178747
      vertex -0.976079 5.232 0.0843353
      vertex -1.26374 5.232 0.260613
    endloop
  endfacet
  facet normal 0 -1 0
    outer loop
      vertex 0 5.232 -1.96425
      vertex -0.976079 5.232 0.0843353
      vertex -3.43314 5.232 0.0178747
    endloop
  endfacet
  facet normal 0 -1 0
    outer loop
      vertex -0.976079 5.232 0.0843353
      vertex 0 5.232 -1.96425
      vertex -0.664386 5.232 -0.0447712
    endloop
  endfacet
  facet normal 0 -1 0
    outer loop
      vertex -0.664386 5.232 -0.0447712
      vertex 0 5.232 -1.96425
      vertex -0.336333 5.232 -0.123529
    endloop
  endfacet
  facet normal 0 -1 0
    outer loop
      vertex -0.336333 5.232 -0.123529
      vertex 0 5.232 -1.96425
      vertex 0 5.232 -0.15
    endloop
  endfacet
  facet normal 0 -1 0
    outer loop
      vertex 2.15 5.232 2
      vertex 3.43314 5.232 3
      vertex 2.15 5.232 3
    endloop
  endfacet
  facet normal 0 -1 0
    outer loop
      vertex 2.12353 5.232 1.66367
      vertex 3.43314 5.232 3
      vertex 2.15 5.232 2
    endloop
  endfacet
  facet normal 0 -1 0
    outer loop
      vertex 3.43314 5.232 0.0178747
      vertex 2.12353 5.232 1.66367
      vertex 2.04477 5.232 1.33561
    endloop
  endfacet
  facet normal 0 -1 0
    outer loop
      vertex 3.43314 5.232 0.0178747
      vertex 2.04477 5.232 1.33561
      vertex 1.91566 5.232 1.02392
    endloop
  endfacet
  facet normal 0 -1 0
    outer loop
      vertex 3.43314 5.232 0.0178747
      vertex 1.91566 5.232 1.02392
      vertex 1.73939 5.232 0.736261
    endloop
  endfacet
  facet normal 0 -1 0
    outer loop
      vertex 2.12353 5.232 1.66367
      vertex 3.43314 5.232 0.0178747
      vertex 3.43314 5.232 3
    endloop
  endfacet
  facet normal 0 -1 0
    outer loop
      vertex 1.52028 5.232 0.47972
      vertex 3.43314 5.232 0.0178747
      vertex 1.73939 5.232 0.736261
    endloop
  endfacet
  facet normal 0 -1 0
    outer loop
      vertex 1.26374 5.232 0.260613
      vertex 3.43314 5.232 0.0178747
      vertex 1.52028 5.232 0.47972
    endloop
  endfacet
  facet normal 0 -1 0
    outer loop
      vertex 0.976079 5.232 0.0843353
      vertex 3.43314 5.232 0.0178747
      vertex 1.26374 5.232 0.260613
    endloop
  endfacet
  facet normal 0 -1 0
    outer loop
      vertex 0 5.232 -1.96425
      vertex 0.976079 5.232 0.0843353
      vertex 0.664386 5.232 -0.0447712
    endloop
  endfacet
  facet normal 0 -1 0
    outer loop
      vertex 0 5.232 -1.96425
      vertex 0.664386 5.232 -0.0447712
      vertex 0.336333 5.232 -0.123529
    endloop
  endfacet
  facet normal 0 -1 0
    outer loop
      vertex 0 5.232 -1.96425
      vertex 0.336333 5.232 -0.123529
      vertex 0 5.232 -0.15
    endloop
  endfacet
  facet normal 0 -1 -0
    outer loop
      vertex 0.976079 5.232 0.0843353
      vertex 0 5.232 -1.96425
      vertex 3.43314 5.232 0.0178747
    endloop
  endfacet
endsolid OpenSCAD_Model
