solid OpenSCAD_Model
  facet normal 0 0 -1
    outer loop
      vertex -6.755291903030811 -4.90800685664215 0
      vertex -3.25 -5.629165124598851 0
      vertex -5.904341622907672 -5.904341622907672 0
    endloop
  endfacet
  facet normal 0 0 -1
    outer loop
      vertex -4.90800685664215 -6.755291903030811 0
      vertex -5.904341622907672 -5.904341622907672 0
      vertex -3.25 -5.629165124598851 0
    endloop
  endfacet
  facet normal -0.760405965600031 -0.6494480483301835 0
    outer loop
      vertex -6.755291903030811 -4.90800685664215 0
      vertex -5.904341622907672 -5.904341622907672 0
      vertex -6.755291903030811 -4.90800685664215 15
    endloop
  endfacet
  facet normal -0.6494480483301835 -0.760405965600031 0
    outer loop
      vertex -4.90800685664215 -6.755291903030811 0
      vertex -4.90800685664215 -6.755291903030811 15
      vertex -5.904341622907672 -5.904341622907672 0
    endloop
  endfacet
  facet normal 0 0 -1
    outer loop
      vertex -7.941321911064532 -2.5802919030308105 0
      vertex -8.2471976439694 -1.3062277830859277 0
      vertex -7.941321911064532 2.5802919030308105 0
    endloop
  endfacet
  facet normal 0 0 -1
    outer loop
      vertex -7.439904476972871 -3.790820672825215 0
      vertex -7.941321911064532 -2.5802919030308105 0
      vertex -7.439904476972871 3.790820672825215 0
    endloop
  endfacet
  facet normal 0 0 -1
    outer loop
      vertex -6.755291903030811 -4.90800685664215 0
      vertex -7.439904476972871 -3.790820672825215 0
      vertex -6.755291903030811 4.90800685664215 0
    endloop
  endfacet
  facet normal 0 0 -1
    outer loop
      vertex -6.755291903030811 -4.90800685664215 0
      vertex -6.5 0 0
      vertex -3.25 -5.629165124598851 0
    endloop
  endfacet
  facet normal -0.9238795325112868 -0.3826834323650896 0
    outer loop
      vertex -7.439904476972871 -3.790820672825215 0
      vertex -7.941321911064532 -2.5802919030308105 15
      vertex -7.941321911064532 -2.5802919030308105 0
    endloop
  endfacet
  facet normal -0.8526401643540923 -0.5224985647159486 0
    outer loop
      vertex -6.755291903030811 -4.90800685664215 0
      vertex -7.439904476972871 -3.790820672825215 15
      vertex -7.439904476972871 -3.790820672825215 0
    endloop
  endfacet
  facet normal -0.9723699203976764 -0.2334453638559062 0
    outer loop
      vertex -7.941321911064532 -2.5802919030308105 0
      vertex -8.2471976439694 -1.3062277830859277 15
      vertex -8.2471976439694 -1.3062277830859277 0
    endloop
  endfacet
  facet normal -0.9969173337331281 -0.07845909572784442 0
    outer loop
      vertex -8.2471976439694 -1.3062277830859277 0
      vertex -8.35 0 15
      vertex -8.35 0 0
    endloop
  endfacet
  facet normal 0 0 -1
    outer loop
      vertex -4.90800685664215 -6.755291903030811 0
      vertex -3.25 -5.629165124598851 0
      vertex -3.790820672825215 -7.439904476972871 0
    endloop
  endfacet
  facet normal 0 0 -1
    outer loop
      vertex -3.790820672825215 -7.439904476972871 0
      vertex -3.25 -5.629165124598851 0
      vertex -2.5802919030308105 -7.941321911064532 0
    endloop
  endfacet
  facet normal 0 0 -1
    outer loop
      vertex -2.5802919030308105 -7.941321911064532 0
      vertex -3.25 -5.629165124598851 0
      vertex 3.25 -5.629165124598851 0
    endloop
  endfacet
  facet normal 0 0 -1
    outer loop
      vertex -2.5802919030308105 -7.941321911064532 0
      vertex 3.25 -5.629165124598851 0
      vertex -1.3062277830859277 -8.2471976439694 0
    endloop
  endfacet
  facet normal -0.5224985647159486 -0.8526401643540923 0
    outer loop
      vertex -4.90800685664215 -6.755291903030811 0
      vertex -3.790820672825215 -7.439904476972871 0
      vertex -3.790820672825215 -7.439904476972871 15
    endloop
  endfacet
  facet normal -0.3826834323650896 -0.9238795325112868 0
    outer loop
      vertex -3.790820672825215 -7.439904476972871 0
      vertex -2.5802919030308105 -7.941321911064532 0
      vertex -2.5802919030308105 -7.941321911064532 15
    endloop
  endfacet
  facet normal -0.2334453638559062 -0.9723699203976764 0
    outer loop
      vertex -2.5802919030308105 -7.941321911064532 0
      vertex -1.3062277830859277 -8.2471976439694 0
      vertex -1.3062277830859277 -8.2471976439694 15
    endloop
  endfacet
  facet normal -0.07845909572784442 -0.9969173337331281 0
    outer loop
      vertex -1.3062277830859277 -8.2471976439694 0
      vertex 0 -8.35 0
      vertex 0 -8.35 15
    endloop
  endfacet
  facet normal -0.8526401643540923 -0.5224985647159486 0
    outer loop
      vertex -6.755291903030811 -4.90800685664215 0
      vertex -6.755291903030811 -4.90800685664215 15
      vertex -7.439904476972871 -3.790820672825215 15
    endloop
  endfacet
  facet normal -0.5224985647159486 -0.8526401643540923 0
    outer loop
      vertex -4.90800685664215 -6.755291903030811 0
      vertex -3.790820672825215 -7.439904476972871 15
      vertex -4.90800685664215 -6.755291903030811 15
    endloop
  endfacet
  facet normal -0.760405965600031 -0.6494480483301835 0
    outer loop
      vertex -5.904341622907672 -5.904341622907672 0
      vertex -5.904341622907672 -5.904341622907672 15
      vertex -6.755291903030811 -4.90800685664215 15
    endloop
  endfacet
  facet normal -0.6494480483301835 -0.760405965600031 0
    outer loop
      vertex -5.904341622907672 -5.904341622907672 0
      vertex -4.90800685664215 -6.755291903030811 15
      vertex -5.904341622907672 -5.904341622907672 15
    endloop
  endfacet
  facet normal 0 0 1
    outer loop
      vertex -4.90800685664215 -6.755291903030811 15
      vertex -6.5 0 15
      vertex -5.904341622907672 -5.904341622907672 15
    endloop
  endfacet
  facet normal 0 0 1
    outer loop
      vertex -4.90800685664215 -6.755291903030811 15
      vertex -3.790820672825215 -7.439904476972871 15
      vertex -6.5 0 15
    endloop
  endfacet
  facet normal 0 0 1
    outer loop
      vertex -3.790820672825215 -7.439904476972871 15
      vertex -3.25 -5.629165124598851 15
      vertex -6.5 0 15
    endloop
  endfacet
  facet normal -0.9238795325112868 -0.3826834323650896 0
    outer loop
      vertex -7.439904476972871 -3.790820672825215 0
      vertex -7.439904476972871 -3.790820672825215 15
      vertex -7.941321911064532 -2.5802919030308105 15
    endloop
  endfacet
  facet normal -0.9723699203976764 -0.2334453638559062 0
    outer loop
      vertex -7.941321911064532 -2.5802919030308105 0
      vertex -7.941321911064532 -2.5802919030308105 15
      vertex -8.2471976439694 -1.3062277830859277 15
    endloop
  endfacet
  facet normal -0.9969173337331281 -0.07845909572784442 0
    outer loop
      vertex -8.2471976439694 -1.3062277830859277 0
      vertex -8.2471976439694 -1.3062277830859277 15
      vertex -8.35 0 15
    endloop
  endfacet
  facet normal 0 0 1
    outer loop
      vertex -6.755291903030811 -4.90800685664215 15
      vertex -5.904341622907672 -5.904341622907672 15
      vertex -6.5 0 15
    endloop
  endfacet
  facet normal 0 0 1
    outer loop
      vertex -7.439904476972871 -3.790820672825215 15
      vertex -7.941321911064532 2.5802919030308105 15
      vertex -7.941321911064532 -2.5802919030308105 15
    endloop
  endfacet
  facet normal 0 0 1
    outer loop
      vertex -7.941321911064532 -2.5802919030308105 15
      vertex -8.2471976439694 1.3062277830859277 15
      vertex -8.2471976439694 -1.3062277830859277 15
    endloop
  endfacet
  facet normal 0 0 1
    outer loop
      vertex -6.755291903030811 -4.90800685664215 15
      vertex -7.439904476972871 3.790820672825215 15
      vertex -7.439904476972871 -3.790820672825215 15
    endloop
  endfacet
  facet normal -0.3826834323650896 -0.9238795325112868 0
    outer loop
      vertex -3.790820672825215 -7.439904476972871 0
      vertex -2.5802919030308105 -7.941321911064532 15
      vertex -3.790820672825215 -7.439904476972871 15
    endloop
  endfacet
  facet normal -0.2334453638559062 -0.9723699203976764 0
    outer loop
      vertex -2.5802919030308105 -7.941321911064532 0
      vertex -1.3062277830859277 -8.2471976439694 15
      vertex -2.5802919030308105 -7.941321911064532 15
    endloop
  endfacet
  facet normal -0.07845909572784442 -0.9969173337331281 0
    outer loop
      vertex -1.3062277830859277 -8.2471976439694 0
      vertex 0 -8.35 15
      vertex -1.3062277830859277 -8.2471976439694 15
    endloop
  endfacet
  facet normal 0 0 1
    outer loop
      vertex -3.790820672825215 -7.439904476972871 15
      vertex -2.5802919030308105 -7.941321911064532 15
      vertex -3.25 -5.629165124598851 15
    endloop
  endfacet
  facet normal 0 0 1
    outer loop
      vertex -2.5802919030308105 -7.941321911064532 15
      vertex -1.3062277830859277 -8.2471976439694 15
      vertex -3.25 -5.629165124598851 15
    endloop
  endfacet
  facet normal 0 0 1
    outer loop
      vertex -1.3062277830859277 -8.2471976439694 15
      vertex 0 -8.35 15
      vertex -3.25 -5.629165124598851 15
    endloop
  endfacet
  facet normal 0 0 1
    outer loop
      vertex 0 -8.35 15
      vertex 1.3062277830859277 -8.2471976439694 15
      vertex -3.25 -5.629165124598851 15
    endloop
  endfacet
  facet normal 0 0 -1
    outer loop
      vertex -8.2471976439694 -1.3062277830859277 0
      vertex -8.35 0 0
      vertex -8.2471976439694 1.3062277830859277 0
    endloop
  endfacet
  facet normal 0 0 -1
    outer loop
      vertex -8.2471976439694 -1.3062277830859277 0
      vertex -8.2471976439694 1.3062277830859277 0
      vertex -7.941321911064532 2.5802919030308105 0
    endloop
  endfacet
  facet normal 0 0 -1
    outer loop
      vertex -7.941321911064532 -2.5802919030308105 0
      vertex -7.941321911064532 2.5802919030308105 0
      vertex -7.439904476972871 3.790820672825215 0
    endloop
  endfacet
  facet normal 0 0 -1
    outer loop
      vertex -6.755291903030811 -4.90800685664215 0
      vertex -6.755291903030811 4.90800685664215 0
      vertex -6.5 0 0
    endloop
  endfacet
  facet normal 0 0 -1
    outer loop
      vertex -7.439904476972871 -3.790820672825215 0
      vertex -7.439904476972871 3.790820672825215 0
      vertex -6.755291903030811 4.90800685664215 0
    endloop
  endfacet
  facet normal 0 0 -1
    outer loop
      vertex -6.755291903030811 4.90800685664215 0
      vertex -5.904341622907672 5.904341622907672 0
      vertex -6.5 0 0
    endloop
  endfacet
  facet normal -0.9969173337331281 0.07845909572784442 0
    outer loop
      vertex -8.35 0 0
      vertex -8.2471976439694 1.3062277830859277 15
      vertex -8.2471976439694 1.3062277830859277 0
    endloop
  endfacet
  facet normal -0.9723699203976764 0.2334453638559062 0
    outer loop
      vertex -8.2471976439694 1.3062277830859277 0
      vertex -7.941321911064532 2.5802919030308105 15
      vertex -7.941321911064532 2.5802919030308105 0
    endloop
  endfacet
  facet normal -0.9238795325112868 0.3826834323650896 0
    outer loop
      vertex -7.941321911064532 2.5802919030308105 0
      vertex -7.439904476972871 3.790820672825215 15
      vertex -7.439904476972871 3.790820672825215 0
    endloop
  endfacet
  facet normal 0 0 -1
    outer loop
      vertex -5.904341622907672 5.904341622907672 0
      vertex -4.90800685664215 6.755291903030811 0
      vertex -6.5 0 0
    endloop
  endfacet
  facet normal 0 0 -1
    outer loop
      vertex -4.90800685664215 6.755291903030811 0
      vertex -3.790820672825215 7.439904476972871 0
      vertex -6.5 0 0
    endloop
  endfacet
  facet normal 0 0 -1
    outer loop
      vertex -3.790820672825215 7.439904476972871 0
      vertex -3.25 5.629165124598851 0
      vertex -6.5 0 0
    endloop
  endfacet
  facet normal -0.8526401643540923 0.5224985647159486 0
    outer loop
      vertex -7.439904476972871 3.790820672825215 0
      vertex -6.755291903030811 4.90800685664215 15
      vertex -6.755291903030811 4.90800685664215 0
    endloop
  endfacet
  facet normal -0.760405965600031 0.6494480483301835 0
    outer loop
      vertex -6.755291903030811 4.90800685664215 0
      vertex -5.904341622907672 5.904341622907672 15
      vertex -5.904341622907672 5.904341622907672 0
    endloop
  endfacet
  facet normal -0.6494480483301835 0.760405965600031 0
    outer loop
      vertex -5.904341622907672 5.904341622907672 0
      vertex -5.904341622907672 5.904341622907672 15
      vertex -4.90800685664215 6.755291903030811 0
    endloop
  endfacet
  facet normal -0.5224985647159486 0.8526401643540923 0
    outer loop
      vertex -4.90800685664215 6.755291903030811 0
      vertex -4.90800685664215 6.755291903030811 15
      vertex -3.790820672825215 7.439904476972871 0
    endloop
  endfacet
  facet normal 0 0 -1
    outer loop
      vertex -3.790820672825215 7.439904476972871 0
      vertex -2.5802919030308105 7.941321911064532 0
      vertex -3.25 5.629165124598851 0
    endloop
  endfacet
  facet normal 0 0 -1
    outer loop
      vertex -2.5802919030308105 7.941321911064532 0
      vertex -1.3062277830859277 8.2471976439694 0
      vertex -3.25 5.629165124598851 0
    endloop
  endfacet
  facet normal 0 0 -1
    outer loop
      vertex -1.3062277830859277 8.2471976439694 0
      vertex 0 8.35 0
      vertex -3.25 5.629165124598851 0
    endloop
  endfacet
  facet normal 0 0 -1
    outer loop
      vertex 0 8.35 0
      vertex 1.3062277830859277 8.2471976439694 0
      vertex -3.25 5.629165124598851 0
    endloop
  endfacet
  facet normal -0.3826834323650896 0.9238795325112868 0
    outer loop
      vertex -3.790820672825215 7.439904476972871 0
      vertex -3.790820672825215 7.439904476972871 15
      vertex -2.5802919030308105 7.941321911064532 0
    endloop
  endfacet
  facet normal -0.2334453638559062 0.9723699203976764 0
    outer loop
      vertex -2.5802919030308105 7.941321911064532 0
      vertex -2.5802919030308105 7.941321911064532 15
      vertex -1.3062277830859277 8.2471976439694 0
    endloop
  endfacet
  facet normal -0.07845909572784442 0.9969173337331281 0
    outer loop
      vertex -1.3062277830859277 8.2471976439694 0
      vertex -1.3062277830859277 8.2471976439694 15
      vertex 0 8.35 0
    endloop
  endfacet
  facet normal -0.9969173337331281 0.07845909572784442 0
    outer loop
      vertex -8.35 0 0
      vertex -8.35 0 15
      vertex -8.2471976439694 1.3062277830859277 15
    endloop
  endfacet
  facet normal -0.9723699203976764 0.2334453638559062 0
    outer loop
      vertex -8.2471976439694 1.3062277830859277 0
      vertex -8.2471976439694 1.3062277830859277 15
      vertex -7.941321911064532 2.5802919030308105 15
    endloop
  endfacet
  facet normal -0.9238795325112868 0.3826834323650896 0
    outer loop
      vertex -7.941321911064532 2.5802919030308105 0
      vertex -7.941321911064532 2.5802919030308105 15
      vertex -7.439904476972871 3.790820672825215 15
    endloop
  endfacet
  facet normal -0.8526401643540923 0.5224985647159486 0
    outer loop
      vertex -7.439904476972871 3.790820672825215 0
      vertex -7.439904476972871 3.790820672825215 15
      vertex -6.755291903030811 4.90800685664215 15
    endloop
  endfacet
  facet normal 0 0 1
    outer loop
      vertex -8.2471976439694 -1.3062277830859277 15
      vertex -8.2471976439694 1.3062277830859277 15
      vertex -8.35 0 15
    endloop
  endfacet
  facet normal 0 0 1
    outer loop
      vertex -7.941321911064532 -2.5802919030308105 15
      vertex -7.941321911064532 2.5802919030308105 15
      vertex -8.2471976439694 1.3062277830859277 15
    endloop
  endfacet
  facet normal 0 0 1
    outer loop
      vertex -7.439904476972871 -3.790820672825215 15
      vertex -7.439904476972871 3.790820672825215 15
      vertex -7.941321911064532 2.5802919030308105 15
    endloop
  endfacet
  facet normal 0 0 1
    outer loop
      vertex -6.755291903030811 -4.90800685664215 15
      vertex -6.5 0 15
      vertex -6.755291903030811 4.90800685664215 15
    endloop
  endfacet
  facet normal 0 0 1
    outer loop
      vertex -6.755291903030811 -4.90800685664215 15
      vertex -6.755291903030811 4.90800685664215 15
      vertex -7.439904476972871 3.790820672825215 15
    endloop
  endfacet
  facet normal 0 0 1
    outer loop
      vertex -6.755291903030811 4.90800685664215 15
      vertex -6.5 0 15
      vertex -3.25 5.629165124598851 15
    endloop
  endfacet
  facet normal -0.760405965600031 0.6494480483301835 0
    outer loop
      vertex -6.755291903030811 4.90800685664215 0
      vertex -6.755291903030811 4.90800685664215 15
      vertex -5.904341622907672 5.904341622907672 15
    endloop
  endfacet
  facet normal -0.6494480483301835 0.760405965600031 0
    outer loop
      vertex -4.90800685664215 6.755291903030811 0
      vertex -5.904341622907672 5.904341622907672 15
      vertex -4.90800685664215 6.755291903030811 15
    endloop
  endfacet
  facet normal 0 0 1
    outer loop
      vertex -6.755291903030811 4.90800685664215 15
      vertex -3.25 5.629165124598851 15
      vertex -5.904341622907672 5.904341622907672 15
    endloop
  endfacet
  facet normal 0 0 1
    outer loop
      vertex -5.904341622907672 5.904341622907672 15
      vertex -3.25 5.629165124598851 15
      vertex -4.90800685664215 6.755291903030811 15
    endloop
  endfacet
  facet normal -0.5224985647159486 0.8526401643540923 0
    outer loop
      vertex -3.790820672825215 7.439904476972871 0
      vertex -4.90800685664215 6.755291903030811 15
      vertex -3.790820672825215 7.439904476972871 15
    endloop
  endfacet
  facet normal -0.3826834323650896 0.9238795325112868 0
    outer loop
      vertex -2.5802919030308105 7.941321911064532 0
      vertex -3.790820672825215 7.439904476972871 15
      vertex -2.5802919030308105 7.941321911064532 15
    endloop
  endfacet
  facet normal -0.2334453638559062 0.9723699203976764 0
    outer loop
      vertex -1.3062277830859277 8.2471976439694 0
      vertex -2.5802919030308105 7.941321911064532 15
      vertex -1.3062277830859277 8.2471976439694 15
    endloop
  endfacet
  facet normal -0.07845909572784442 0.9969173337331281 0
    outer loop
      vertex -1.3062277830859277 8.2471976439694 15
      vertex 0 8.35 15
      vertex 0 8.35 0
    endloop
  endfacet
  facet normal 0 0 1
    outer loop
      vertex -4.90800685664215 6.755291903030811 15
      vertex -3.25 5.629165124598851 15
      vertex -3.790820672825215 7.439904476972871 15
    endloop
  endfacet
  facet normal 0 0 1
    outer loop
      vertex -3.790820672825215 7.439904476972871 15
      vertex -3.25 5.629165124598851 15
      vertex -2.5802919030308105 7.941321911064532 15
    endloop
  endfacet
  facet normal 0 0 1
    outer loop
      vertex -2.5802919030308105 7.941321911064532 15
      vertex -3.25 5.629165124598851 15
      vertex 3.25 5.629165124598851 15
    endloop
  endfacet
  facet normal 0 0 1
    outer loop
      vertex -2.5802919030308105 7.941321911064532 15
      vertex 3.25 5.629165124598851 15
      vertex -1.3062277830859277 8.2471976439694 15
    endloop
  endfacet
  facet normal 0 0 -1
    outer loop
      vertex -1.3062277830859277 -8.2471976439694 0
      vertex 3.25 -5.629165124598851 0
      vertex 0 -8.35 0
    endloop
  endfacet
  facet normal 0 0 -1
    outer loop
      vertex 0 -8.35 0
      vertex 3.25 -5.629165124598851 0
      vertex 1.3062277830859277 -8.2471976439694 0
    endloop
  endfacet
  facet normal 0 0 -1
    outer loop
      vertex 1.3062277830859277 -8.2471976439694 0
      vertex 3.25 -5.629165124598851 0
      vertex 2.5802919030308105 -7.941321911064532 0
    endloop
  endfacet
  facet normal 0 0 -1
    outer loop
      vertex 2.5802919030308105 -7.941321911064532 0
      vertex 3.25 -5.629165124598851 0
      vertex 3.790820672825215 -7.439904476972871 0
    endloop
  endfacet
  facet normal 0.07845909572784442 -0.9969173337331281 0
    outer loop
      vertex 0 -8.35 0
      vertex 1.3062277830859277 -8.2471976439694 0
      vertex 1.3062277830859277 -8.2471976439694 15
    endloop
  endfacet
  facet normal 0.2334453638559062 -0.9723699203976764 0
    outer loop
      vertex 1.3062277830859277 -8.2471976439694 0
      vertex 2.5802919030308105 -7.941321911064532 0
      vertex 2.5802919030308105 -7.941321911064532 15
    endloop
  endfacet
  facet normal 0.3826834323650896 -0.9238795325112868 0
    outer loop
      vertex 2.5802919030308105 -7.941321911064532 0
      vertex 3.790820672825215 -7.439904476972871 0
      vertex 3.790820672825215 -7.439904476972871 15
    endloop
  endfacet
  facet normal 0 0 -1
    outer loop
      vertex 3.790820672825215 -7.439904476972871 0
      vertex 3.25 -5.629165124598851 0
      vertex 6.5 0 0
    endloop
  endfacet
  facet normal 0 0 -1
    outer loop
      vertex 3.790820672825215 -7.439904476972871 0
      vertex 6.5 0 0
      vertex 4.90800685664215 -6.755291903030811 0
    endloop
  endfacet
  facet normal 0 0 -1
    outer loop
      vertex 4.90800685664215 -6.755291903030811 0
      vertex 6.5 0 0
      vertex 5.904341622907672 -5.904341622907672 0
    endloop
  endfacet
  facet normal 0.5224985647159486 -0.8526401643540923 0
    outer loop
      vertex 3.790820672825215 -7.439904476972871 0
      vertex 4.90800685664215 -6.755291903030811 0
      vertex 4.90800685664215 -6.755291903030811 15
    endloop
  endfacet
  facet normal 0.6494480483301835 -0.760405965600031 0
    outer loop
      vertex 4.90800685664215 -6.755291903030811 0
      vertex 5.904341622907672 -5.904341622907672 0
      vertex 5.904341622907672 -5.904341622907672 15
    endloop
  endfacet
  facet normal 0.760405965600031 -0.6494480483301835 0
    outer loop
      vertex 5.904341622907672 -5.904341622907672 0
      vertex 6.755291903030811 -4.90800685664215 0
      vertex 5.904341622907672 -5.904341622907672 15
    endloop
  endfacet
  facet normal 0.8526401643540923 -0.5224985647159486 0
    outer loop
      vertex 6.755291903030811 -4.90800685664215 0
      vertex 7.439904476972871 -3.790820672825215 0
      vertex 6.755291903030811 -4.90800685664215 15
    endloop
  endfacet
  facet normal 0 0 -1
    outer loop
      vertex 5.904341622907672 -5.904341622907672 0
      vertex 6.5 0 0
      vertex 6.755291903030811 -4.90800685664215 0
    endloop
  endfacet
  facet normal 0 0 -1
    outer loop
      vertex 6.755291903030811 -4.90800685664215 0
      vertex 7.439904476972871 3.790820672825215 0
      vertex 7.439904476972871 -3.790820672825215 0
    endloop
  endfacet
  facet normal 0 0 -1
    outer loop
      vertex 7.439904476972871 -3.790820672825215 0
      vertex 7.941321911064532 2.5802919030308105 0
      vertex 7.941321911064532 -2.5802919030308105 0
    endloop
  endfacet
  facet normal 0 0 -1
    outer loop
      vertex 7.941321911064532 -2.5802919030308105 0
      vertex 8.2471976439694 1.3062277830859277 0
      vertex 8.2471976439694 -1.3062277830859277 0
    endloop
  endfacet
  facet normal 0.9238795325112868 -0.3826834323650896 0
    outer loop
      vertex 7.439904476972871 -3.790820672825215 0
      vertex 7.941321911064532 -2.5802919030308105 0
      vertex 7.439904476972871 -3.790820672825215 15
    endloop
  endfacet
  facet normal 0.9723699203976764 -0.2334453638559062 0
    outer loop
      vertex 7.941321911064532 -2.5802919030308105 0
      vertex 8.2471976439694 -1.3062277830859277 0
      vertex 7.941321911064532 -2.5802919030308105 15
    endloop
  endfacet
  facet normal 0.9969173337331281 -0.07845909572784442 0
    outer loop
      vertex 8.2471976439694 -1.3062277830859277 0
      vertex 8.35 0 0
      vertex 8.2471976439694 -1.3062277830859277 15
    endloop
  endfacet
  facet normal 0.07845909572784442 -0.9969173337331281 0
    outer loop
      vertex 0 -8.35 0
      vertex 1.3062277830859277 -8.2471976439694 15
      vertex 0 -8.35 15
    endloop
  endfacet
  facet normal 0.2334453638559062 -0.9723699203976764 0
    outer loop
      vertex 1.3062277830859277 -8.2471976439694 0
      vertex 2.5802919030308105 -7.941321911064532 15
      vertex 1.3062277830859277 -8.2471976439694 15
    endloop
  endfacet
  facet normal 0.3826834323650896 -0.9238795325112868 0
    outer loop
      vertex 2.5802919030308105 -7.941321911064532 0
      vertex 3.790820672825215 -7.439904476972871 15
      vertex 2.5802919030308105 -7.941321911064532 15
    endloop
  endfacet
  facet normal 0.5224985647159486 -0.8526401643540923 0
    outer loop
      vertex 3.790820672825215 -7.439904476972871 0
      vertex 4.90800685664215 -6.755291903030811 15
      vertex 3.790820672825215 -7.439904476972871 15
    endloop
  endfacet
  facet normal 0 0 1
    outer loop
      vertex 1.3062277830859277 -8.2471976439694 15
      vertex 2.5802919030308105 -7.941321911064532 15
      vertex -3.25 -5.629165124598851 15
    endloop
  endfacet
  facet normal 0 0 1
    outer loop
      vertex 2.5802919030308105 -7.941321911064532 15
      vertex 3.25 -5.629165124598851 15
      vertex -3.25 -5.629165124598851 15
    endloop
  endfacet
  facet normal 0 0 1
    outer loop
      vertex 2.5802919030308105 -7.941321911064532 15
      vertex 3.790820672825215 -7.439904476972871 15
      vertex 3.25 -5.629165124598851 15
    endloop
  endfacet
  facet normal 0 0 1
    outer loop
      vertex 3.790820672825215 -7.439904476972871 15
      vertex 4.90800685664215 -6.755291903030811 15
      vertex 3.25 -5.629165124598851 15
    endloop
  endfacet
  facet normal 0.6494480483301835 -0.760405965600031 0
    outer loop
      vertex 4.90800685664215 -6.755291903030811 0
      vertex 5.904341622907672 -5.904341622907672 15
      vertex 4.90800685664215 -6.755291903030811 15
    endloop
  endfacet
  facet normal 0.760405965600031 -0.6494480483301835 0
    outer loop
      vertex 6.755291903030811 -4.90800685664215 0
      vertex 6.755291903030811 -4.90800685664215 15
      vertex 5.904341622907672 -5.904341622907672 15
    endloop
  endfacet
  facet normal 0 0 1
    outer loop
      vertex 4.90800685664215 -6.755291903030811 15
      vertex 5.904341622907672 -5.904341622907672 15
      vertex 3.25 -5.629165124598851 15
    endloop
  endfacet
  facet normal 0 0 1
    outer loop
      vertex 5.904341622907672 -5.904341622907672 15
      vertex 6.755291903030811 -4.90800685664215 15
      vertex 3.25 -5.629165124598851 15
    endloop
  endfacet
  facet normal 0.8526401643540923 -0.5224985647159486 0
    outer loop
      vertex 7.439904476972871 -3.790820672825215 0
      vertex 7.439904476972871 -3.790820672825215 15
      vertex 6.755291903030811 -4.90800685664215 15
    endloop
  endfacet
  facet normal 0.9238795325112868 -0.3826834323650896 0
    outer loop
      vertex 7.941321911064532 -2.5802919030308105 0
      vertex 7.941321911064532 -2.5802919030308105 15
      vertex 7.439904476972871 -3.790820672825215 15
    endloop
  endfacet
  facet normal 0.9723699203976764 -0.2334453638559062 0
    outer loop
      vertex 8.2471976439694 -1.3062277830859277 0
      vertex 8.2471976439694 -1.3062277830859277 15
      vertex 7.941321911064532 -2.5802919030308105 15
    endloop
  endfacet
  facet normal 0.9969173337331281 -0.07845909572784442 0
    outer loop
      vertex 8.2471976439694 -1.3062277830859277 15
      vertex 8.35 0 0
      vertex 8.35 0 15
    endloop
  endfacet
  facet normal 0 0 1
    outer loop
      vertex 6.755291903030811 -4.90800685664215 15
      vertex 6.5 0 15
      vertex 3.25 -5.629165124598851 15
    endloop
  endfacet
  facet normal 0 0 1
    outer loop
      vertex 6.755291903030811 -4.90800685664215 15
      vertex 7.439904476972871 -3.790820672825215 15
      vertex 6.755291903030811 4.90800685664215 15
    endloop
  endfacet
  facet normal 0 0 1
    outer loop
      vertex 7.439904476972871 -3.790820672825215 15
      vertex 7.941321911064532 -2.5802919030308105 15
      vertex 7.439904476972871 3.790820672825215 15
    endloop
  endfacet
  facet normal 0 0 1
    outer loop
      vertex 7.941321911064532 -2.5802919030308105 15
      vertex 8.2471976439694 -1.3062277830859277 15
      vertex 7.941321911064532 2.5802919030308105 15
    endloop
  endfacet
  facet normal 0 0 -1
    outer loop
      vertex 1.3062277830859277 8.2471976439694 0
      vertex 2.5802919030308105 7.941321911064532 0
      vertex -3.25 5.629165124598851 0
    endloop
  endfacet
  facet normal 0 0 -1
    outer loop
      vertex 2.5802919030308105 7.941321911064532 0
      vertex 3.25 5.629165124598851 0
      vertex -3.25 5.629165124598851 0
    endloop
  endfacet
  facet normal 0 0 -1
    outer loop
      vertex 2.5802919030308105 7.941321911064532 0
      vertex 3.790820672825215 7.439904476972871 0
      vertex 3.25 5.629165124598851 0
    endloop
  endfacet
  facet normal 0 0 -1
    outer loop
      vertex 3.790820672825215 7.439904476972871 0
      vertex 4.90800685664215 6.755291903030811 0
      vertex 3.25 5.629165124598851 0
    endloop
  endfacet
  facet normal 0.07845909572784442 0.9969173337331281 0
    outer loop
      vertex 0 8.35 0
      vertex 0 8.35 15
      vertex 1.3062277830859277 8.2471976439694 0
    endloop
  endfacet
  facet normal 0.2334453638559062 0.9723699203976764 0
    outer loop
      vertex 1.3062277830859277 8.2471976439694 0
      vertex 1.3062277830859277 8.2471976439694 15
      vertex 2.5802919030308105 7.941321911064532 0
    endloop
  endfacet
  facet normal 0.3826834323650896 0.9238795325112868 0
    outer loop
      vertex 2.5802919030308105 7.941321911064532 0
      vertex 2.5802919030308105 7.941321911064532 15
      vertex 3.790820672825215 7.439904476972871 0
    endloop
  endfacet
  facet normal 0.5224985647159486 0.8526401643540923 0
    outer loop
      vertex 3.790820672825215 7.439904476972871 0
      vertex 3.790820672825215 7.439904476972871 15
      vertex 4.90800685664215 6.755291903030811 0
    endloop
  endfacet
  facet normal 0 0 -1
    outer loop
      vertex 6.755291903030811 4.90800685664215 0
      vertex 6.5 0 0
      vertex 3.25 5.629165124598851 0
    endloop
  endfacet
  facet normal 0 0 -1
    outer loop
      vertex 6.755291903030811 -4.90800685664215 0
      vertex 6.5 0 0
      vertex 6.755291903030811 4.90800685664215 0
    endloop
  endfacet
  facet normal 0 0 -1
    outer loop
      vertex 6.755291903030811 -4.90800685664215 0
      vertex 6.755291903030811 4.90800685664215 0
      vertex 7.439904476972871 3.790820672825215 0
    endloop
  endfacet
  facet normal 0 0 -1
    outer loop
      vertex 7.439904476972871 -3.790820672825215 0
      vertex 7.439904476972871 3.790820672825215 0
      vertex 7.941321911064532 2.5802919030308105 0
    endloop
  endfacet
  facet normal 0 0 -1
    outer loop
      vertex 7.941321911064532 -2.5802919030308105 0
      vertex 7.941321911064532 2.5802919030308105 0
      vertex 8.2471976439694 1.3062277830859277 0
    endloop
  endfacet
  facet normal 0 0 -1
    outer loop
      vertex 8.2471976439694 -1.3062277830859277 0
      vertex 8.2471976439694 1.3062277830859277 0
      vertex 8.35 0 0
    endloop
  endfacet
  facet normal 0.9969173337331281 0.07845909572784442 0
    outer loop
      vertex 8.35 0 0
      vertex 8.2471976439694 1.3062277830859277 0
      vertex 8.35 0 15
    endloop
  endfacet
  facet normal 0.9723699203976764 0.2334453638559062 0
    outer loop
      vertex 8.2471976439694 1.3062277830859277 0
      vertex 7.941321911064532 2.5802919030308105 0
      vertex 8.2471976439694 1.3062277830859277 15
    endloop
  endfacet
  facet normal 0.8526401643540923 0.5224985647159486 0
    outer loop
      vertex 7.439904476972871 3.790820672825215 0
      vertex 6.755291903030811 4.90800685664215 0
      vertex 7.439904476972871 3.790820672825215 15
    endloop
  endfacet
  facet normal 0.9238795325112868 0.3826834323650896 0
    outer loop
      vertex 7.941321911064532 2.5802919030308105 0
      vertex 7.439904476972871 3.790820672825215 0
      vertex 7.941321911064532 2.5802919030308105 15
    endloop
  endfacet
  facet normal 0 0 -1
    outer loop
      vertex 5.904341622907672 5.904341622907672 0
      vertex 3.25 5.629165124598851 0
      vertex 4.90800685664215 6.755291903030811 0
    endloop
  endfacet
  facet normal 0 0 -1
    outer loop
      vertex 5.904341622907672 5.904341622907672 0
      vertex 6.755291903030811 4.90800685664215 0
      vertex 3.25 5.629165124598851 0
    endloop
  endfacet
  facet normal 0.6494480483301835 0.760405965600031 0
    outer loop
      vertex 5.904341622907672 5.904341622907672 0
      vertex 4.90800685664215 6.755291903030811 0
      vertex 4.90800685664215 6.755291903030811 15
    endloop
  endfacet
  facet normal 0.760405965600031 0.6494480483301835 0
    outer loop
      vertex 5.904341622907672 5.904341622907672 0
      vertex 6.755291903030811 4.90800685664215 15
      vertex 6.755291903030811 4.90800685664215 0
    endloop
  endfacet
  facet normal 0.07845909572784442 0.9969173337331281 0
    outer loop
      vertex 1.3062277830859277 8.2471976439694 0
      vertex 0 8.35 15
      vertex 1.3062277830859277 8.2471976439694 15
    endloop
  endfacet
  facet normal 0.2334453638559062 0.9723699203976764 0
    outer loop
      vertex 2.5802919030308105 7.941321911064532 0
      vertex 1.3062277830859277 8.2471976439694 15
      vertex 2.5802919030308105 7.941321911064532 15
    endloop
  endfacet
  facet normal 0.3826834323650896 0.9238795325112868 0
    outer loop
      vertex 3.790820672825215 7.439904476972871 0
      vertex 2.5802919030308105 7.941321911064532 15
      vertex 3.790820672825215 7.439904476972871 15
    endloop
  endfacet
  facet normal 0 0 1
    outer loop
      vertex -1.3062277830859277 8.2471976439694 15
      vertex 3.25 5.629165124598851 15
      vertex 0 8.35 15
    endloop
  endfacet
  facet normal 0 0 1
    outer loop
      vertex 0 8.35 15
      vertex 3.25 5.629165124598851 15
      vertex 1.3062277830859277 8.2471976439694 15
    endloop
  endfacet
  facet normal 0 0 1
    outer loop
      vertex 1.3062277830859277 8.2471976439694 15
      vertex 3.25 5.629165124598851 15
      vertex 2.5802919030308105 7.941321911064532 15
    endloop
  endfacet
  facet normal 0 0 1
    outer loop
      vertex 2.5802919030308105 7.941321911064532 15
      vertex 3.25 5.629165124598851 15
      vertex 3.790820672825215 7.439904476972871 15
    endloop
  endfacet
  facet normal 0.9969173337331281 0.07845909572784442 0
    outer loop
      vertex 8.2471976439694 1.3062277830859277 0
      vertex 8.2471976439694 1.3062277830859277 15
      vertex 8.35 0 15
    endloop
  endfacet
  facet normal 0.9723699203976764 0.2334453638559062 0
    outer loop
      vertex 7.941321911064532 2.5802919030308105 0
      vertex 7.941321911064532 2.5802919030308105 15
      vertex 8.2471976439694 1.3062277830859277 15
    endloop
  endfacet
  facet normal 0.9238795325112868 0.3826834323650896 0
    outer loop
      vertex 7.439904476972871 3.790820672825215 0
      vertex 7.439904476972871 3.790820672825215 15
      vertex 7.941321911064532 2.5802919030308105 15
    endloop
  endfacet
  facet normal 0 0 1
    outer loop
      vertex 6.755291903030811 -4.90800685664215 15
      vertex 6.755291903030811 4.90800685664215 15
      vertex 6.5 0 15
    endloop
  endfacet
  facet normal 0 0 1
    outer loop
      vertex 7.439904476972871 -3.790820672825215 15
      vertex 7.439904476972871 3.790820672825215 15
      vertex 6.755291903030811 4.90800685664215 15
    endloop
  endfacet
  facet normal 0 0 1
    outer loop
      vertex 8.2471976439694 -1.3062277830859277 15
      vertex 8.35 0 15
      vertex 8.2471976439694 1.3062277830859277 15
    endloop
  endfacet
  facet normal 0 0 1
    outer loop
      vertex 8.2471976439694 -1.3062277830859277 15
      vertex 8.2471976439694 1.3062277830859277 15
      vertex 7.941321911064532 2.5802919030308105 15
    endloop
  endfacet
  facet normal 0 0 1
    outer loop
      vertex 7.941321911064532 -2.5802919030308105 15
      vertex 7.941321911064532 2.5802919030308105 15
      vertex 7.439904476972871 3.790820672825215 15
    endloop
  endfacet
  facet normal 0 0 1
    outer loop
      vertex 5.904341622907672 5.904341622907672 15
      vertex 6.5 0 15
      vertex 6.755291903030811 4.90800685664215 15
    endloop
  endfacet
  facet normal 0.6494480483301835 0.760405965600031 0
    outer loop
      vertex 5.904341622907672 5.904341622907672 0
      vertex 4.90800685664215 6.755291903030811 15
      vertex 5.904341622907672 5.904341622907672 15
    endloop
  endfacet
  facet normal 0.760405965600031 0.6494480483301835 0
    outer loop
      vertex 5.904341622907672 5.904341622907672 0
      vertex 5.904341622907672 5.904341622907672 15
      vertex 6.755291903030811 4.90800685664215 15
    endloop
  endfacet
  facet normal 0.5224985647159486 0.8526401643540923 0
    outer loop
      vertex 4.90800685664215 6.755291903030811 0
      vertex 3.790820672825215 7.439904476972871 15
      vertex 4.90800685664215 6.755291903030811 15
    endloop
  endfacet
  facet normal 0.8526401643540923 0.5224985647159486 0
    outer loop
      vertex 6.755291903030811 4.90800685664215 0
      vertex 6.755291903030811 4.90800685664215 15
      vertex 7.439904476972871 3.790820672825215 15
    endloop
  endfacet
  facet normal 0 0 1
    outer loop
      vertex 3.790820672825215 7.439904476972871 15
      vertex 3.25 5.629165124598851 15
      vertex 6.5 0 15
    endloop
  endfacet
  facet normal 0 0 1
    outer loop
      vertex 3.790820672825215 7.439904476972871 15
      vertex 6.5 0 15
      vertex 4.90800685664215 6.755291903030811 15
    endloop
  endfacet
  facet normal 0 0 1
    outer loop
      vertex 5.904341622907672 5.904341622907672 15
      vertex 4.90800685664215 6.755291903030811 15
      vertex 6.5 0 15
    endloop
  endfacet
  facet normal 0.8660254037844386 0.5000000000000001 0
    outer loop
      vertex -3.25 -5.629165124598851 0
      vertex -6.5 0 0
      vertex -6.5 0 15
    endloop
  endfacet
  facet normal 0 1 0
    outer loop
      vertex -3.25 -5.629165124598851 15
      vertex 3.25 -5.629165124598851 0
      vertex -3.25 -5.629165124598851 0
    endloop
  endfacet
  facet normal 0.8660254037844386 0.5000000000000001 0
    outer loop
      vertex -3.25 -5.629165124598851 0
      vertex -6.5 0 15
      vertex -3.25 -5.629165124598851 15
    endloop
  endfacet
  facet normal 0.8660254037844386 -0.5000000000000001 0
    outer loop
      vertex -6.5 0 0
      vertex -3.25 5.629165124598851 0
      vertex -3.25 5.629165124598851 15
    endloop
  endfacet
  facet normal 0.8660254037844386 -0.5000000000000001 0
    outer loop
      vertex -3.25 5.629165124598851 15
      vertex -6.5 0 15
      vertex -6.5 0 0
    endloop
  endfacet
  facet normal 0 -1 0
    outer loop
      vertex 3.25 5.629165124598851 15
      vertex -3.25 5.629165124598851 15
      vertex -3.25 5.629165124598851 0
    endloop
  endfacet
  facet normal -0.8660254037844386 0.5000000000000001 0
    outer loop
      vertex 6.5 0 0
      vertex 3.25 -5.629165124598851 0
      vertex 3.25 -5.629165124598851 15
    endloop
  endfacet
  facet normal 0 1 0
    outer loop
      vertex 3.25 -5.629165124598851 0
      vertex -3.25 -5.629165124598851 15
      vertex 3.25 -5.629165124598851 15
    endloop
  endfacet
  facet normal -0.8660254037844386 0.5000000000000001 0
    outer loop
      vertex 3.25 -5.629165124598851 15
      vertex 6.5 0 15
      vertex 6.5 0 0
    endloop
  endfacet
  facet normal 0 -1 0
    outer loop
      vertex 3.25 5.629165124598851 15
      vertex -3.25 5.629165124598851 0
      vertex 3.25 5.629165124598851 0
    endloop
  endfacet
  facet normal -0.8660254037844386 -0.5000000000000001 0
    outer loop
      vertex 3.25 5.629165124598851 0
      vertex 6.5 0 0
      vertex 6.5 0 15
    endloop
  endfacet
  facet normal -0.8660254037844386 -0.5000000000000001 0
    outer loop
      vertex 3.25 5.629165124598851 0
      vertex 6.5 0 15
      vertex 3.25 5.629165124598851 15
    endloop
  endfacet
endsolid OpenSCAD_Model
