solid OpenSCAD_Model
  facet normal -0.707107 0 0.707107
    outer loop
      vertex -23.3345 -20 0
      vertex -22.3345 20 1
      vertex -23.3345 20 0
    endloop
  endfacet
  facet normal -0.707107 0 0.707107
    outer loop
      vertex -22.3345 20 1
      vertex -23.3345 -20 0
      vertex -22.3345 -20 1
    endloop
  endfacet
  facet normal 0 -1 0
    outer loop
      vertex -23.3345 -20 0
      vertex 22.3345 -20 1
      vertex -22.3345 -20 1
    endloop
  endfacet
  facet normal 0 -1 -0
    outer loop
      vertex 22.3345 -20 1
      vertex -23.3345 -20 0
      vertex 23.3345 -20 0
    endloop
  endfacet
  facet normal 0.707107 -0 0.707107
    outer loop
      vertex 22.3345 -20 1
      vertex 23.3345 20 0
      vertex 22.3345 20 1
    endloop
  endfacet
  facet normal 0.707107 0 0.707107
    outer loop
      vertex 23.3345 20 0
      vertex 22.3345 -20 1
      vertex 23.3345 -20 0
    endloop
  endfacet
  facet normal 0 1 0
    outer loop
      vertex 23.3345 20 0
      vertex -22.3345 20 1
      vertex 22.3345 20 1
    endloop
  endfacet
  facet normal 0 1 0
    outer loop
      vertex -22.3345 20 1
      vertex 23.3345 20 0
      vertex -23.3345 20 0
    endloop
  endfacet
  facet normal -0 0 1
    outer loop
      vertex 18.4432 -4.02744 1
      vertex 22.3345 -20 1
      vertex 22.3345 20 1
    endloop
  endfacet
  facet normal 0 0 1
    outer loop
      vertex 22.3345 -20 1
      vertex 18.4432 -4.02744 1
      vertex 18.526 -5.20499 1
    endloop
  endfacet
  facet normal -0 0 1
    outer loop
      vertex 17.8341 5.66168 1
      vertex 18.4432 -4.02744 1
      vertex 22.3345 20 1
    endloop
  endfacet
  facet normal 0 0 1
    outer loop
      vertex 17.8341 5.66168 1
      vertex 22.3345 20 1
      vertex 17.908 6.69398 1
    endloop
  endfacet
  facet normal 0 0 1
    outer loop
      vertex 22.3345 20 1
      vertex 17.7751 8.08949 1
      vertex 17.908 6.69398 1
    endloop
  endfacet
  facet normal 0 0 1
    outer loop
      vertex 22.3345 20 1
      vertex 17.3765 9.33299 1
      vertex 17.7751 8.08949 1
    endloop
  endfacet
  facet normal 0 0 1
    outer loop
      vertex 22.3345 20 1
      vertex 16.7121 10.4245 1
      vertex 17.3765 9.33299 1
    endloop
  endfacet
  facet normal 0 0 1
    outer loop
      vertex 22.3345 20 1
      vertex 15.782 11.364 1
      vertex 16.7121 10.4245 1
    endloop
  endfacet
  facet normal 0 0 1
    outer loop
      vertex 22.3345 20 1
      vertex 14.6225 12.1196 1
      vertex 15.782 11.364 1
    endloop
  endfacet
  facet normal 0 0 1
    outer loop
      vertex 22.3345 20 1
      vertex 13.27 12.6592 1
      vertex 14.6225 12.1196 1
    endloop
  endfacet
  facet normal 0 0 1
    outer loop
      vertex 22.3345 20 1
      vertex 11.7245 12.983 1
      vertex 13.27 12.6592 1
    endloop
  endfacet
  facet normal 0 0 1
    outer loop
      vertex 22.3345 20 1
      vertex 9.98599 13.091 1
      vertex 11.7245 12.983 1
    endloop
  endfacet
  facet normal 0 0 1
    outer loop
      vertex 22.3345 20 1
      vertex 8.28642 12.9808 1
      vertex 9.98599 13.091 1
    endloop
  endfacet
  facet normal 0 0 1
    outer loop
      vertex 22.3345 20 1
      vertex 6.76874 12.6502 1
      vertex 8.28642 12.9808 1
    endloop
  endfacet
  facet normal -0 0 1
    outer loop
      vertex -7.32849 12.707 1
      vertex 6.76874 12.6502 1
      vertex 22.3345 20 1
    endloop
  endfacet
  facet normal 0 0 1
    outer loop
      vertex 2.2263 5.69705 1
      vertex 1.65712 -4.06918 1
      vertex 1.91849 -2.99474 1
    endloop
  endfacet
  facet normal 0 0 1
    outer loop
      vertex -7.32849 -9.42799 1
      vertex 2.2263 5.69705 1
      vertex -7.32849 12.707 1
    endloop
  endfacet
  facet normal 0 0 1
    outer loop
      vertex 1.65712 -4.06918 1
      vertex -7.32849 -9.42799 1
      vertex 1.56999 -5.241 1
    endloop
  endfacet
  facet normal 0 0 1
    outer loop
      vertex -7.32849 12.707 1
      vertex 2.153 6.72899 1
      vertex 2.28587 8.08031 1
    endloop
  endfacet
  facet normal 0 0 1
    outer loop
      vertex 2.2263 5.69705 1
      vertex -7.32849 -9.42799 1
      vertex 1.65712 -4.06918 1
    endloop
  endfacet
  facet normal 0 0 1
    outer loop
      vertex 2.68449 9.29724 1
      vertex -7.32849 12.707 1
      vertex 2.28587 8.08031 1
    endloop
  endfacet
  facet normal 0 0 1
    outer loop
      vertex 3.34886 10.3798 1
      vertex -7.32849 12.707 1
      vertex 2.68449 9.29724 1
    endloop
  endfacet
  facet normal 0 0 1
    outer loop
      vertex 4.27899 11.328 1
      vertex -7.32849 12.707 1
      vertex 3.34886 10.3798 1
    endloop
  endfacet
  facet normal 0 0 1
    outer loop
      vertex 5.43292 12.0993 1
      vertex -7.32849 12.707 1
      vertex 4.27899 11.328 1
    endloop
  endfacet
  facet normal 0 0 1
    outer loop
      vertex 6.76874 12.6502 1
      vertex -7.32849 12.707 1
      vertex 5.43292 12.0993 1
    endloop
  endfacet
  facet normal -0 0 1
    outer loop
      vertex -22.3345 20 1
      vertex -7.32849 12.707 1
      vertex 22.3345 20 1
    endloop
  endfacet
  facet normal 0 0 1
    outer loop
      vertex -22.3345 20 1
      vertex -16.1235 5.66699 1
      vertex -16.1235 8.66399 1
    endloop
  endfacet
  facet normal 0 0 1
    outer loop
      vertex -16.1235 5.66699 1
      vertex -22.3345 -20 1
      vertex -16.8455 -9.42799 1
    endloop
  endfacet
  facet normal 0 0 1
    outer loop
      vertex -22.3345 -20 1
      vertex -16.1235 5.66699 1
      vertex -22.3345 20 1
    endloop
  endfacet
  facet normal 0 0 1
    outer loop
      vertex -10.2545 12.707 1
      vertex -22.3345 20 1
      vertex -16.1235 8.66399 1
    endloop
  endfacet
  facet normal 0 0 1
    outer loop
      vertex -7.32849 12.707 1
      vertex -22.3345 20 1
      vertex -10.2545 12.707 1
    endloop
  endfacet
  facet normal -0 0 1
    outer loop
      vertex 18.3892 -6.83443 1
      vertex 22.3345 -20 1
      vertex 18.526 -5.20499 1
    endloop
  endfacet
  facet normal -0 0 1
    outer loop
      vertex 17.979 -8.27374 1
      vertex 22.3345 -20 1
      vertex 18.3892 -6.83443 1
    endloop
  endfacet
  facet normal -0 0 1
    outer loop
      vertex 17.2952 -9.52293 1
      vertex 22.3345 -20 1
      vertex 17.979 -8.27374 1
    endloop
  endfacet
  facet normal -0 0 1
    outer loop
      vertex 16.338 -10.582 1
      vertex 22.3345 -20 1
      vertex 17.2952 -9.52293 1
    endloop
  endfacet
  facet normal -0 0 1
    outer loop
      vertex 15.1249 -11.425 1
      vertex 22.3345 -20 1
      vertex 16.338 -10.582 1
    endloop
  endfacet
  facet normal -0 0 1
    outer loop
      vertex 13.6737 -12.0272 1
      vertex 22.3345 -20 1
      vertex 15.1249 -11.425 1
    endloop
  endfacet
  facet normal -0 0 1
    outer loop
      vertex 11.9844 -12.3885 1
      vertex 22.3345 -20 1
      vertex 13.6737 -12.0272 1
    endloop
  endfacet
  facet normal -0 0 1
    outer loop
      vertex 10.057 -12.509 1
      vertex 22.3345 -20 1
      vertex 11.9844 -12.3885 1
    endloop
  endfacet
  facet normal 0 0 1
    outer loop
      vertex 8.17162 -12.3907 1
      vertex 22.3345 -20 1
      vertex 10.057 -12.509 1
    endloop
  endfacet
  facet normal -0 0 1
    outer loop
      vertex -1.28348 -12.125 1
      vertex 8.17162 -12.3907 1
      vertex 6.50349 -12.036 1
    endloop
  endfacet
  facet normal 0 0 1
    outer loop
      vertex -1.28348 -12.125 1
      vertex 6.50349 -12.036 1
      vertex 5.05261 -11.4447 1
    endloop
  endfacet
  facet normal 0 0 1
    outer loop
      vertex -1.28348 -9.42799 1
      vertex 1.71056 -6.8835 1
      vertex 1.56999 -5.241 1
    endloop
  endfacet
  facet normal 0 0 1
    outer loop
      vertex -1.28348 -9.42799 1
      vertex 2.13225 -8.327 1
      vertex 1.71056 -6.8835 1
    endloop
  endfacet
  facet normal -0 0 1
    outer loop
      vertex -1.28348 -9.42799 1
      vertex 2.83505 -9.57149 1
      vertex 2.13225 -8.327 1
    endloop
  endfacet
  facet normal 0 0 1
    outer loop
      vertex -1.28348 -12.125 1
      vertex 2.83505 -9.57149 1
      vertex -1.28348 -9.42799 1
    endloop
  endfacet
  facet normal 0 0 1
    outer loop
      vertex 2.83505 -9.57149 1
      vertex -1.28348 -12.125 1
      vertex 3.81898 -10.617 1
    endloop
  endfacet
  facet normal 0 0 1
    outer loop
      vertex 3.81898 -10.617 1
      vertex -1.28348 -12.125 1
      vertex 5.05261 -11.4447 1
    endloop
  endfacet
  facet normal 0 0 1
    outer loop
      vertex 8.17162 -12.3907 1
      vertex -1.28348 -12.125 1
      vertex 22.3345 -20 1
    endloop
  endfacet
  facet normal 0 0 1
    outer loop
      vertex -22.3345 -20 1
      vertex -1.28348 -12.125 1
      vertex -16.8455 -12.125 1
    endloop
  endfacet
  facet normal 0 0 1
    outer loop
      vertex -1.28348 -12.125 1
      vertex -22.3345 -20 1
      vertex 22.3345 -20 1
    endloop
  endfacet
  facet normal 0 0 1
    outer loop
      vertex -16.8455 -9.42799 1
      vertex -22.3345 -20 1
      vertex -16.8455 -12.125 1
    endloop
  endfacet
  facet normal 0 0 1
    outer loop
      vertex 18.4432 -4.02744 1
      vertex 17.8341 5.66168 1
      vertex 18.195 -2.95274 1
    endloop
  endfacet
  facet normal -0 0 1
    outer loop
      vertex 17.6125 4.69774 1
      vertex 18.195 -2.95274 1
      vertex 17.8341 5.66168 1
    endloop
  endfacet
  facet normal 0 0 1
    outer loop
      vertex 18.195 -2.95274 1
      vertex 17.6125 4.69774 1
      vertex 17.7812 -1.98093 1
    endloop
  endfacet
  facet normal -0 0 1
    outer loop
      vertex 17.2431 3.80219 1
      vertex 17.7812 -1.98093 1
      vertex 17.6125 4.69774 1
    endloop
  endfacet
  facet normal 0 0 1
    outer loop
      vertex 17.2431 3.80219 1
      vertex 17.202 -1.112 1
      vertex 17.7812 -1.98093 1
    endloop
  endfacet
  facet normal -0 0 1
    outer loop
      vertex 16.726 2.97499 1
      vertex 17.202 -1.112 1
      vertex 17.2431 3.80219 1
    endloop
  endfacet
  facet normal 0 0 1
    outer loop
      vertex 16.726 2.97499 1
      vertex 16.4743 -0.371933 1
      vertex 17.202 -1.112 1
    endloop
  endfacet
  facet normal -0 0 1
    outer loop
      vertex 16.0809 2.2558 1
      vertex 16.4743 -0.371933 1
      vertex 16.726 2.97499 1
    endloop
  endfacet
  facet normal 0 0 1
    outer loop
      vertex 16.0809 2.2558 1
      vertex 15.6142 0.21225 1
      vertex 16.4743 -0.371933 1
    endloop
  endfacet
  facet normal -0 0 1
    outer loop
      vertex 15.3277 1.68425 1
      vertex 15.6142 0.21225 1
      vertex 16.0809 2.2558 1
    endloop
  endfacet
  facet normal 0 0 1
    outer loop
      vertex 15.3277 1.68425 1
      vertex 14.6218 0.640549 1
      vertex 15.6142 0.21225 1
    endloop
  endfacet
  facet normal -0 0 1
    outer loop
      vertex 14.4664 1.2603 1
      vertex 14.6218 0.640549 1
      vertex 15.3277 1.68425 1
    endloop
  endfacet
  facet normal 0 0 1
    outer loop
      vertex 13.497 0.912994 1
      vertex 14.4664 1.2603 1
      vertex 13.497 0.983994 1
    endloop
  endfacet
  facet normal 0 0 1
    outer loop
      vertex 14.4664 1.2603 1
      vertex 13.497 0.912994 1
      vertex 14.6218 0.640549 1
    endloop
  endfacet
  facet normal 0 0 1
    outer loop
      vertex 5.56699 1.25537 1
      vertex 6.528 0.877991 1
      vertex 6.528 0.947998 1
    endloop
  endfacet
  facet normal 0 0 1
    outer loop
      vertex 5.56699 1.25537 1
      vertex 5.49149 0.619247 1
      vertex 6.528 0.877991 1
    endloop
  endfacet
  facet normal 0 0 1
    outer loop
      vertex 4.713 1.70149 1
      vertex 5.49149 0.619247 1
      vertex 5.56699 1.25537 1
    endloop
  endfacet
  facet normal 0 0 1
    outer loop
      vertex 4.713 1.70149 1
      vertex 4.55199 0.196991 1
      vertex 5.49149 0.619247 1
    endloop
  endfacet
  facet normal 0 0 1
    outer loop
      vertex 3.96599 2.28636 1
      vertex 4.55199 0.196991 1
      vertex 4.713 1.70149 1
    endloop
  endfacet
  facet normal 0 0 1
    outer loop
      vertex 3.96599 2.28636 1
      vertex 3.70949 -0.388748 1
      vertex 4.55199 0.196991 1
    endloop
  endfacet
  facet normal 0 0 1
    outer loop
      vertex 3.32599 3.00999 1
      vertex 3.70949 -0.388748 1
      vertex 3.96599 2.28636 1
    endloop
  endfacet
  facet normal 0 0 1
    outer loop
      vertex 3.32599 3.00999 1
      vertex 2.96399 -1.13799 1
      vertex 3.70949 -0.388748 1
    endloop
  endfacet
  facet normal 0 0 1
    outer loop
      vertex 2.81281 3.83755 1
      vertex 2.96399 -1.13799 1
      vertex 3.32599 3.00999 1
    endloop
  endfacet
  facet normal 0 0 1
    outer loop
      vertex 2.35411 -2.01768 1
      vertex 2.81281 3.83755 1
      vertex 2.44624 4.73325 1
    endloop
  endfacet
  facet normal 0 0 1
    outer loop
      vertex 2.81281 3.83755 1
      vertex 2.35411 -2.01768 1
      vertex 2.96399 -1.13799 1
    endloop
  endfacet
  facet normal 0 0 1
    outer loop
      vertex 1.91849 -2.99474 1
      vertex 2.44624 4.73325 1
      vertex 2.2263 5.69705 1
    endloop
  endfacet
  facet normal 0 0 1
    outer loop
      vertex -7.32849 12.707 1
      vertex 2.2263 5.69705 1
      vertex 2.153 6.72899 1
    endloop
  endfacet
  facet normal 0 0 1
    outer loop
      vertex 2.44624 4.73325 1
      vertex 1.91849 -2.99474 1
      vertex 2.35411 -2.01768 1
    endloop
  endfacet
  facet normal 0 0 1
    outer loop
      vertex 1.56999 -5.241 1
      vertex -7.32849 -9.42799 1
      vertex -1.28348 -9.42799 1
    endloop
  endfacet
  facet normal -0 0 1
    outer loop
      vertex -16.1235 5.66699 1
      vertex -10.5185 -9.42799 1
      vertex -10.5185 9.67499 1
    endloop
  endfacet
  facet normal 0 0 1
    outer loop
      vertex -10.5185 -9.42799 1
      vertex -16.1235 5.66699 1
      vertex -16.8455 -9.42799 1
    endloop
  endfacet
  facet normal 0 0 1
    outer loop
      vertex 12.1977 -0.526489 1
      vertex 15.23 -4.907 1
      vertex 15.1439 -3.81844 1
    endloop
  endfacet
  facet normal 0 0 1
    outer loop
      vertex 10.092 -10.13 1
      vertex 15.23 -4.907 1
      vertex 11.1614 -0.305618 1
    endloop
  endfacet
  facet normal 0 0 1
    outer loop
      vertex 13.0949 -0.894623 1
      vertex 15.1439 -3.81844 1
      vertex 14.8857 -2.87274 1
    endloop
  endfacet
  facet normal 0 0 1
    outer loop
      vertex 15.23 -4.907 1
      vertex 10.092 -10.13 1
      vertex 15.1505 -6.17767 1
    endloop
  endfacet
  facet normal 0 0 1
    outer loop
      vertex 13.0949 -0.894623 1
      vertex 14.8857 -2.87274 1
      vertex 14.4554 -2.06993 1
    endloop
  endfacet
  facet normal 0 0 1
    outer loop
      vertex 15.23 -4.907 1
      vertex 12.1977 -0.526489 1
      vertex 11.1614 -0.305618 1
    endloop
  endfacet
  facet normal 0 0 1
    outer loop
      vertex 13.0949 -0.894623 1
      vertex 14.4554 -2.06993 1
      vertex 13.853 -1.40999 1
    endloop
  endfacet
  facet normal 0 -0 1
    outer loop
      vertex 13.2397 -9.42799 1
      vertex 14.5145 -8.16518 1
      vertex 12.356 -9.81799 1
    endloop
  endfacet
  facet normal 0 0 1
    outer loop
      vertex 15.1439 -3.81844 1
      vertex 13.0949 -0.894623 1
      vertex 12.1977 -0.526489 1
    endloop
  endfacet
  facet normal 0 0 1
    outer loop
      vertex 14.5145 -8.16518 1
      vertex 13.2397 -9.42799 1
      vertex 13.958 -8.88199 1
    endloop
  endfacet
  facet normal 0 0 1
    outer loop
      vertex 15.1505 -6.17767 1
      vertex 11.3067 -10.052 1
      vertex 14.912 -7.26375 1
    endloop
  endfacet
  facet normal 0 0 1
    outer loop
      vertex 14.912 -7.26375 1
      vertex 12.356 -9.81799 1
      vertex 14.5145 -8.16518 1
    endloop
  endfacet
  facet normal 0 -0 1
    outer loop
      vertex 12.356 -9.81799 1
      vertex 14.912 -7.26375 1
      vertex 11.3067 -10.052 1
    endloop
  endfacet
  facet normal 0 0 1
    outer loop
      vertex 15.1505 -6.17767 1
      vertex 10.092 -10.13 1
      vertex 11.3067 -10.052 1
    endloop
  endfacet
  facet normal 0 0 1
    outer loop
      vertex 9.98599 -0.231995 1
      vertex 10.092 -10.13 1
      vertex 11.1614 -0.305618 1
    endloop
  endfacet
  facet normal 0 0 1
    outer loop
      vertex 4.84799 -4.97699 1
      vertex 9.98599 -0.231995 1
      vertex 8.84268 -0.311111 1
    endloop
  endfacet
  facet normal 0 0 1
    outer loop
      vertex 4.84799 -4.97699 1
      vertex 8.84268 -0.311111 1
      vertex 7.83174 -0.548492 1
    endloop
  endfacet
  facet normal 0 0 1
    outer loop
      vertex 9.98599 -0.231995 1
      vertex 4.84799 -4.97699 1
      vertex 10.092 -10.13 1
    endloop
  endfacet
  facet normal 0 0 1
    outer loop
      vertex 4.93292 -3.92969 1
      vertex 7.83174 -0.548492 1
      vertex 6.95319 -0.944122 1
    endloop
  endfacet
  facet normal 0 0 1
    outer loop
      vertex 4.93292 -3.92969 1
      vertex 6.95319 -0.944122 1
      vertex 6.20699 -1.49799 1
    endloop
  endfacet
  facet normal 0 0 1
    outer loop
      vertex 10.092 -10.13 1
      vertex 4.84799 -4.97699 1
      vertex 7.79774 -9.80792 1
    endloop
  endfacet
  facet normal 0 0 1
    outer loop
      vertex 5.18774 -3.00075 1
      vertex 6.20699 -1.49799 1
      vertex 5.61243 -2.19019 1
    endloop
  endfacet
  facet normal 0 0 1
    outer loop
      vertex 6.20699 -1.49799 1
      vertex 5.18774 -3.00075 1
      vertex 4.93292 -3.92969 1
    endloop
  endfacet
  facet normal -0 -0 1
    outer loop
      vertex 5.17574 -7.23143 1
      vertex 7.79774 -9.80792 1
      vertex 4.84799 -4.97699 1
    endloop
  endfacet
  facet normal 0 0 1
    outer loop
      vertex 7.83174 -0.548492 1
      vertex 4.93292 -3.92969 1
      vertex 4.84799 -4.97699 1
    endloop
  endfacet
  facet normal 0 0 1
    outer loop
      vertex 7.79774 -9.80792 1
      vertex 5.17574 -7.23143 1
      vertex 6.159 -8.84174 1
    endloop
  endfacet
  facet normal 0 0 1
    outer loop
      vertex 12.0109 10.4657 1
      vertex 14.613 6.517 1
      vertex 14.3239 8.35974 1
    endloop
  endfacet
  facet normal 0 0 1
    outer loop
      vertex 9.987 10.729 1
      vertex 14.613 6.517 1
      vertex 12.0109 10.4657 1
    endloop
  endfacet
  facet normal 0 -0 1
    outer loop
      vertex 11.9977 2.40474 1
      vertex 14.5396 5.44281 1
      vertex 11.0767 2.21143 1
    endloop
  endfacet
  facet normal 0 0 1
    outer loop
      vertex 12.0109 10.4657 1
      vertex 14.3239 8.35974 1
      vertex 13.4565 9.67599 1
    endloop
  endfacet
  facet normal 0 -0 1
    outer loop
      vertex 11.0767 2.21143 1
      vertex 14.613 6.517 1
      vertex 9.987 10.729 1
    endloop
  endfacet
  facet normal 0 0 1
    outer loop
      vertex 14.3195 4.52824 1
      vertex 12.7852 2.72693 1
      vertex 13.9526 3.7733 1
    endloop
  endfacet
  facet normal 0 -0 1
    outer loop
      vertex 12.7852 2.72693 1
      vertex 14.3195 4.52824 1
      vertex 11.9977 2.40474 1
    endloop
  endfacet
  facet normal 0 0 1
    outer loop
      vertex 13.9526 3.7733 1
      vertex 12.7852 2.72693 1
      vertex 13.439 3.17799 1
    endloop
  endfacet
  facet normal 0 0 1
    outer loop
      vertex 14.5396 5.44281 1
      vertex 11.9977 2.40474 1
      vertex 14.3195 4.52824 1
    endloop
  endfacet
  facet normal 0 0 1
    outer loop
      vertex 14.613 6.517 1
      vertex 11.0767 2.21143 1
      vertex 14.5396 5.44281 1
    endloop
  endfacet
  facet normal 0 0 1
    outer loop
      vertex 11.0767 2.21143 1
      vertex 9.987 10.729 1
      vertex 10.022 2.14699 1
    endloop
  endfacet
  facet normal 0 0 1
    outer loop
      vertex 9.987 10.729 1
      vertex 8.9808 2.21693 1
      vertex 10.022 2.14699 1
    endloop
  endfacet
  facet normal -0 0 1
    outer loop
      vertex 8.93231 10.6629 1
      vertex 8.9808 2.21693 1
      vertex 9.987 10.729 1
    endloop
  endfacet
  facet normal -0 0 1
    outer loop
      vertex 5.396 6.517 1
      vertex 8.9808 2.21693 1
      vertex 8.93231 10.6629 1
    endloop
  endfacet
  facet normal 0 0 1
    outer loop
      vertex 5.46936 7.50049 1
      vertex 8.93231 10.6629 1
      vertex 8.01125 10.4645 1
    endloop
  endfacet
  facet normal -0 -0 1
    outer loop
      vertex 5.47156 5.5143 1
      vertex 8.9808 2.21693 1
      vertex 5.396 6.517 1
    endloop
  endfacet
  facet normal 0 0 1
    outer loop
      vertex 5.46936 7.50049 1
      vertex 8.01125 10.4645 1
      vertex 7.2238 10.1339 1
    endloop
  endfacet
  facet normal 0 0 1
    outer loop
      vertex 8.9808 2.21693 1
      vertex 5.47156 5.5143 1
      vertex 8.06424 2.42674 1
    endloop
  endfacet
  facet normal 0 0 1
    outer loop
      vertex 5.6895 8.35399 1
      vertex 7.2238 10.1339 1
      vertex 6.56999 9.67099 1
    endloop
  endfacet
  facet normal 0 0 1
    outer loop
      vertex 8.06424 2.42674 1
      vertex 5.47156 5.5143 1
      vertex 7.27231 2.77643 1
    endloop
  endfacet
  facet normal 0 0 1
    outer loop
      vertex 5.6895 8.35399 1
      vertex 6.56999 9.67099 1
      vertex 6.05637 9.0775 1
    endloop
  endfacet
  facet normal -0 -0 1
    outer loop
      vertex 5.69824 4.63824 1
      vertex 7.27231 2.77643 1
      vertex 5.47156 5.5143 1
    endloop
  endfacet
  facet normal 0 0 1
    outer loop
      vertex 7.2238 10.1339 1
      vertex 5.6895 8.35399 1
      vertex 5.46936 7.50049 1
    endloop
  endfacet
  facet normal 0 0 1
    outer loop
      vertex 7.27231 2.77643 1
      vertex 5.69824 4.63824 1
      vertex 6.605 3.26599 1
    endloop
  endfacet
  facet normal 0 0 1
    outer loop
      vertex 8.93231 10.6629 1
      vertex 5.46936 7.50049 1
      vertex 5.396 6.517 1
    endloop
  endfacet
  facet normal 0 0 1
    outer loop
      vertex 6.605 3.26599 1
      vertex 5.69824 4.63824 1
      vertex 6.07605 3.88881 1
    endloop
  endfacet
  facet normal 0 0 -1
    outer loop
      vertex -10.5185 -9.42799 0
      vertex -16.1235 5.66699 0
      vertex -10.5185 9.67499 0
    endloop
  endfacet
  facet normal 0 0 -1
    outer loop
      vertex -23.3345 -20 0
      vertex -16.1235 5.66699 0
      vertex -16.8455 -9.42799 0
    endloop
  endfacet
  facet normal 0 0 -1
    outer loop
      vertex -16.8455 -9.42799 0
      vertex -16.1235 5.66699 0
      vertex -10.5185 -9.42799 0
    endloop
  endfacet
  facet normal 0 0 -1
    outer loop
      vertex 6.528 0.877991 0
      vertex 5.56699 1.25537 0
      vertex 6.528 0.947998 0
    endloop
  endfacet
  facet normal 0 0 -1
    outer loop
      vertex 5.49149 0.619247 0
      vertex 5.56699 1.25537 0
      vertex 6.528 0.877991 0
    endloop
  endfacet
  facet normal 0 0 -1
    outer loop
      vertex 5.49149 0.619247 0
      vertex 4.713 1.70149 0
      vertex 5.56699 1.25537 0
    endloop
  endfacet
  facet normal 0 0 -1
    outer loop
      vertex 4.55199 0.196991 0
      vertex 4.713 1.70149 0
      vertex 5.49149 0.619247 0
    endloop
  endfacet
  facet normal 0 0 -1
    outer loop
      vertex 4.55199 0.196991 0
      vertex 3.96599 2.28636 0
      vertex 4.713 1.70149 0
    endloop
  endfacet
  facet normal 0 0 -1
    outer loop
      vertex 3.70949 -0.388748 0
      vertex 3.96599 2.28636 0
      vertex 4.55199 0.196991 0
    endloop
  endfacet
  facet normal 0 0 -1
    outer loop
      vertex 3.70949 -0.388748 0
      vertex 3.32599 3.00999 0
      vertex 3.96599 2.28636 0
    endloop
  endfacet
  facet normal 0 0 -1
    outer loop
      vertex 2.96399 -1.13799 0
      vertex 3.32599 3.00999 0
      vertex 3.70949 -0.388748 0
    endloop
  endfacet
  facet normal 0 0 -1
    outer loop
      vertex 2.96399 -1.13799 0
      vertex 2.81281 3.83755 0
      vertex 3.32599 3.00999 0
    endloop
  endfacet
  facet normal 0 0 -1
    outer loop
      vertex 2.35411 -2.01768 0
      vertex 2.81281 3.83755 0
      vertex 2.96399 -1.13799 0
    endloop
  endfacet
  facet normal -0 0 -1
    outer loop
      vertex 2.81281 3.83755 0
      vertex 2.35411 -2.01768 0
      vertex 2.44624 4.73325 0
    endloop
  endfacet
  facet normal 0 0 -1
    outer loop
      vertex 1.91849 -2.99474 0
      vertex 2.44624 4.73325 0
      vertex 2.35411 -2.01768 0
    endloop
  endfacet
  facet normal 0 0 -1
    outer loop
      vertex -7.32849 12.707 0
      vertex 2.44624 4.73325 0
      vertex 1.91849 -2.99474 0
    endloop
  endfacet
  facet normal 0 0 -1
    outer loop
      vertex 2.44624 4.73325 0
      vertex -7.32849 12.707 0
      vertex 2.2263 5.69705 0
    endloop
  endfacet
  facet normal 0 0 -1
    outer loop
      vertex 23.3345 20 0
      vertex 17.8341 5.66168 0
      vertex 17.908 6.69398 0
    endloop
  endfacet
  facet normal 0 0 -1
    outer loop
      vertex 17.6125 4.69774 0
      vertex 18.195 -2.95274 0
      vertex 17.7812 -1.98093 0
    endloop
  endfacet
  facet normal 0 0 -1
    outer loop
      vertex 18.195 -2.95274 0
      vertex 17.6125 4.69774 0
      vertex 17.8341 5.66168 0
    endloop
  endfacet
  facet normal 0 0 -1
    outer loop
      vertex 17.7812 -1.98093 0
      vertex 17.2431 3.80219 0
      vertex 17.6125 4.69774 0
    endloop
  endfacet
  facet normal 0 0 -1
    outer loop
      vertex 17.202 -1.112 0
      vertex 17.2431 3.80219 0
      vertex 17.7812 -1.98093 0
    endloop
  endfacet
  facet normal 0 0 -1
    outer loop
      vertex 17.202 -1.112 0
      vertex 16.726 2.97499 0
      vertex 17.2431 3.80219 0
    endloop
  endfacet
  facet normal 0 0 -1
    outer loop
      vertex 16.4743 -0.371933 0
      vertex 16.726 2.97499 0
      vertex 17.202 -1.112 0
    endloop
  endfacet
  facet normal 0 0 -1
    outer loop
      vertex 16.4743 -0.371933 0
      vertex 16.0809 2.2558 0
      vertex 16.726 2.97499 0
    endloop
  endfacet
  facet normal 0 0 -1
    outer loop
      vertex 15.6142 0.21225 0
      vertex 16.0809 2.2558 0
      vertex 16.4743 -0.371933 0
    endloop
  endfacet
  facet normal 0 0 -1
    outer loop
      vertex 15.6142 0.21225 0
      vertex 15.3277 1.68425 0
      vertex 16.0809 2.2558 0
    endloop
  endfacet
  facet normal 0 0 -1
    outer loop
      vertex 14.6218 0.640549 0
      vertex 15.3277 1.68425 0
      vertex 15.6142 0.21225 0
    endloop
  endfacet
  facet normal 0 0 -1
    outer loop
      vertex 14.6218 0.640549 0
      vertex 14.4664 1.2603 0
      vertex 15.3277 1.68425 0
    endloop
  endfacet
  facet normal 0 0 -1
    outer loop
      vertex 13.497 0.912994 0
      vertex 14.4664 1.2603 0
      vertex 14.6218 0.640549 0
    endloop
  endfacet
  facet normal 0 0 -1
    outer loop
      vertex 14.4664 1.2603 0
      vertex 13.497 0.912994 0
      vertex 13.497 0.983994 0
    endloop
  endfacet
  facet normal 0 0 -1
    outer loop
      vertex 18.4432 -4.02744 0
      vertex 23.3345 -20 0
      vertex 18.526 -5.20499 0
    endloop
  endfacet
  facet normal 0 0 -1
    outer loop
      vertex 23.3345 -20 0
      vertex 18.3892 -6.83443 0
      vertex 18.526 -5.20499 0
    endloop
  endfacet
  facet normal 0 0 -1
    outer loop
      vertex 23.3345 -20 0
      vertex 17.979 -8.27374 0
      vertex 18.3892 -6.83443 0
    endloop
  endfacet
  facet normal 0 0 -1
    outer loop
      vertex 23.3345 -20 0
      vertex 17.2952 -9.52293 0
      vertex 17.979 -8.27374 0
    endloop
  endfacet
  facet normal 0 0 -1
    outer loop
      vertex 23.3345 -20 0
      vertex 16.338 -10.582 0
      vertex 17.2952 -9.52293 0
    endloop
  endfacet
  facet normal 0 0 -1
    outer loop
      vertex 23.3345 -20 0
      vertex 15.1249 -11.425 0
      vertex 16.338 -10.582 0
    endloop
  endfacet
  facet normal 0 0 -1
    outer loop
      vertex 23.3345 -20 0
      vertex 13.6737 -12.0272 0
      vertex 15.1249 -11.425 0
    endloop
  endfacet
  facet normal 0 0 -1
    outer loop
      vertex 23.3345 -20 0
      vertex 11.9844 -12.3885 0
      vertex 13.6737 -12.0272 0
    endloop
  endfacet
  facet normal 0 0 -1
    outer loop
      vertex 23.3345 -20 0
      vertex 10.057 -12.509 0
      vertex 11.9844 -12.3885 0
    endloop
  endfacet
  facet normal 0 0 -1
    outer loop
      vertex 23.3345 -20 0
      vertex 8.17162 -12.3907 0
      vertex 10.057 -12.509 0
    endloop
  endfacet
  facet normal 0 0 -1
    outer loop
      vertex -1.28348 -12.125 0
      vertex 8.17162 -12.3907 0
      vertex 23.3345 -20 0
    endloop
  endfacet
  facet normal 0 0 -1
    outer loop
      vertex 8.17162 -12.3907 0
      vertex -1.28348 -12.125 0
      vertex 6.50349 -12.036 0
    endloop
  endfacet
  facet normal -0 0 -1
    outer loop
      vertex 2.13225 -8.327 0
      vertex -1.28348 -9.42799 0
      vertex 1.71056 -6.8835 0
    endloop
  endfacet
  facet normal 0 0 -1
    outer loop
      vertex 2.83505 -9.57149 0
      vertex -1.28348 -9.42799 0
      vertex 2.13225 -8.327 0
    endloop
  endfacet
  facet normal 0 0 -1
    outer loop
      vertex -1.28348 -9.42799 0
      vertex 2.83505 -9.57149 0
      vertex -1.28348 -12.125 0
    endloop
  endfacet
  facet normal -0 0 -1
    outer loop
      vertex 3.81898 -10.617 0
      vertex -1.28348 -12.125 0
      vertex 2.83505 -9.57149 0
    endloop
  endfacet
  facet normal -0 0 -1
    outer loop
      vertex 5.05261 -11.4447 0
      vertex -1.28348 -12.125 0
      vertex 3.81898 -10.617 0
    endloop
  endfacet
  facet normal -0 0 -1
    outer loop
      vertex 6.50349 -12.036 0
      vertex -1.28348 -12.125 0
      vertex 5.05261 -11.4447 0
    endloop
  endfacet
  facet normal 0 0 -1
    outer loop
      vertex -23.3345 -20 0
      vertex -1.28348 -12.125 0
      vertex 23.3345 -20 0
    endloop
  endfacet
  facet normal -0 0 -1
    outer loop
      vertex -16.8455 -12.125 0
      vertex -23.3345 -20 0
      vertex -16.8455 -9.42799 0
    endloop
  endfacet
  facet normal -0 0 -1
    outer loop
      vertex -1.28348 -12.125 0
      vertex -23.3345 -20 0
      vertex -16.8455 -12.125 0
    endloop
  endfacet
  facet normal 0 0 -1
    outer loop
      vertex 23.3345 -20 0
      vertex 18.4432 -4.02744 0
      vertex 23.3345 20 0
    endloop
  endfacet
  facet normal 0 0 -1
    outer loop
      vertex 17.8341 5.66168 0
      vertex 18.4432 -4.02744 0
      vertex 18.195 -2.95274 0
    endloop
  endfacet
  facet normal 0 0 -1
    outer loop
      vertex 17.8341 5.66168 0
      vertex 23.3345 20 0
      vertex 18.4432 -4.02744 0
    endloop
  endfacet
  facet normal 0 0 -1
    outer loop
      vertex 17.7751 8.08949 0
      vertex 23.3345 20 0
      vertex 17.908 6.69398 0
    endloop
  endfacet
  facet normal 0 0 -1
    outer loop
      vertex 17.3765 9.33299 0
      vertex 23.3345 20 0
      vertex 17.7751 8.08949 0
    endloop
  endfacet
  facet normal 0 0 -1
    outer loop
      vertex 16.7121 10.4245 0
      vertex 23.3345 20 0
      vertex 17.3765 9.33299 0
    endloop
  endfacet
  facet normal 0 0 -1
    outer loop
      vertex 15.782 11.364 0
      vertex 23.3345 20 0
      vertex 16.7121 10.4245 0
    endloop
  endfacet
  facet normal 0 0 -1
    outer loop
      vertex 14.6225 12.1196 0
      vertex 23.3345 20 0
      vertex 15.782 11.364 0
    endloop
  endfacet
  facet normal 0 0 -1
    outer loop
      vertex 13.27 12.6592 0
      vertex 23.3345 20 0
      vertex 14.6225 12.1196 0
    endloop
  endfacet
  facet normal 0 0 -1
    outer loop
      vertex 11.7245 12.983 0
      vertex 23.3345 20 0
      vertex 13.27 12.6592 0
    endloop
  endfacet
  facet normal 0 0 -1
    outer loop
      vertex 9.98599 13.091 0
      vertex 23.3345 20 0
      vertex 11.7245 12.983 0
    endloop
  endfacet
  facet normal 0 0 -1
    outer loop
      vertex 8.28642 12.9808 0
      vertex 23.3345 20 0
      vertex 9.98599 13.091 0
    endloop
  endfacet
  facet normal 0 0 -1
    outer loop
      vertex -7.32849 12.707 0
      vertex 8.28642 12.9808 0
      vertex 6.76874 12.6502 0
    endloop
  endfacet
  facet normal 0 0 -1
    outer loop
      vertex -7.32849 12.707 0
      vertex 6.76874 12.6502 0
      vertex 5.43292 12.0993 0
    endloop
  endfacet
  facet normal 0 0 -1
    outer loop
      vertex -7.32849 -9.42799 0
      vertex 1.91849 -2.99474 0
      vertex 1.65712 -4.06918 0
    endloop
  endfacet
  facet normal 0 0 -1
    outer loop
      vertex -7.32849 -9.42799 0
      vertex 1.65712 -4.06918 0
      vertex 1.56999 -5.241 0
    endloop
  endfacet
  facet normal -0 0 -1
    outer loop
      vertex 1.71056 -6.8835 0
      vertex -1.28348 -9.42799 0
      vertex 1.56999 -5.241 0
    endloop
  endfacet
  facet normal 0 0 -1
    outer loop
      vertex -7.32849 -9.42799 0
      vertex 1.56999 -5.241 0
      vertex -1.28348 -9.42799 0
    endloop
  endfacet
  facet normal -0 0 -1
    outer loop
      vertex 1.91849 -2.99474 0
      vertex -7.32849 -9.42799 0
      vertex -7.32849 12.707 0
    endloop
  endfacet
  facet normal 0 0 -1
    outer loop
      vertex 2.2263 5.69705 0
      vertex -7.32849 12.707 0
      vertex 2.153 6.72899 0
    endloop
  endfacet
  facet normal 0 0 -1
    outer loop
      vertex 2.153 6.72899 0
      vertex -7.32849 12.707 0
      vertex 2.28587 8.08031 0
    endloop
  endfacet
  facet normal 0 0 -1
    outer loop
      vertex 2.28587 8.08031 0
      vertex -7.32849 12.707 0
      vertex 2.68449 9.29724 0
    endloop
  endfacet
  facet normal 0 0 -1
    outer loop
      vertex -7.32849 12.707 0
      vertex 3.34886 10.3798 0
      vertex 2.68449 9.29724 0
    endloop
  endfacet
  facet normal 0 0 -1
    outer loop
      vertex -7.32849 12.707 0
      vertex 4.27899 11.328 0
      vertex 3.34886 10.3798 0
    endloop
  endfacet
  facet normal 0 0 -1
    outer loop
      vertex -7.32849 12.707 0
      vertex 5.43292 12.0993 0
      vertex 4.27899 11.328 0
    endloop
  endfacet
  facet normal -0 0 -1
    outer loop
      vertex 8.28642 12.9808 0
      vertex -7.32849 12.707 0
      vertex 23.3345 20 0
    endloop
  endfacet
  facet normal 0 0 -1
    outer loop
      vertex -23.3345 20 0
      vertex -7.32849 12.707 0
      vertex -10.2545 12.707 0
    endloop
  endfacet
  facet normal -0 0 -1
    outer loop
      vertex -16.1235 5.66699 0
      vertex -23.3345 -20 0
      vertex -23.3345 20 0
    endloop
  endfacet
  facet normal 0 0 -1
    outer loop
      vertex -7.32849 12.707 0
      vertex -23.3345 20 0
      vertex 23.3345 20 0
    endloop
  endfacet
  facet normal 0 0 -1
    outer loop
      vertex -16.1235 8.66399 0
      vertex -23.3345 20 0
      vertex -10.2545 12.707 0
    endloop
  endfacet
  facet normal 0 0 -1
    outer loop
      vertex -16.1235 5.66699 0
      vertex -23.3345 20 0
      vertex -16.1235 8.66399 0
    endloop
  endfacet
  facet normal 0 0 -1
    outer loop
      vertex 10.092 -10.13 0
      vertex 15.23 -4.907 0
      vertex 15.1505 -6.17767 0
    endloop
  endfacet
  facet normal 0 0 -1
    outer loop
      vertex 11.3067 -10.052 0
      vertex 15.1505 -6.17767 0
      vertex 14.912 -7.26375 0
    endloop
  endfacet
  facet normal 0 0 -1
    outer loop
      vertex 10.092 -10.13 0
      vertex 15.1505 -6.17767 0
      vertex 11.3067 -10.052 0
    endloop
  endfacet
  facet normal 0 0 -1
    outer loop
      vertex 12.356 -9.81799 0
      vertex 14.912 -7.26375 0
      vertex 14.5145 -8.16518 0
    endloop
  endfacet
  facet normal -0 -0 -1
    outer loop
      vertex 12.1977 -0.526489 0
      vertex 15.23 -4.907 0
      vertex 11.1614 -0.305618 0
    endloop
  endfacet
  facet normal 0 0 -1
    outer loop
      vertex 13.2397 -9.42799 0
      vertex 14.5145 -8.16518 0
      vertex 13.958 -8.88199 0
    endloop
  endfacet
  facet normal 0 0 -1
    outer loop
      vertex 14.912 -7.26375 0
      vertex 12.356 -9.81799 0
      vertex 11.3067 -10.052 0
    endloop
  endfacet
  facet normal 0 0 -1
    outer loop
      vertex 14.5145 -8.16518 0
      vertex 13.2397 -9.42799 0
      vertex 12.356 -9.81799 0
    endloop
  endfacet
  facet normal 0 0 -1
    outer loop
      vertex 15.23 -4.907 0
      vertex 12.1977 -0.526489 0
      vertex 15.1439 -3.81844 0
    endloop
  endfacet
  facet normal 0 0 -1
    outer loop
      vertex 14.8857 -2.87274 0
      vertex 13.0949 -0.894623 0
      vertex 14.4554 -2.06993 0
    endloop
  endfacet
  facet normal 0 0 -1
    outer loop
      vertex 14.4554 -2.06993 0
      vertex 13.0949 -0.894623 0
      vertex 13.853 -1.40999 0
    endloop
  endfacet
  facet normal 0 0 -1
    outer loop
      vertex 15.1439 -3.81844 0
      vertex 13.0949 -0.894623 0
      vertex 14.8857 -2.87274 0
    endloop
  endfacet
  facet normal -0 -0 -1
    outer loop
      vertex 13.0949 -0.894623 0
      vertex 15.1439 -3.81844 0
      vertex 12.1977 -0.526489 0
    endloop
  endfacet
  facet normal -0 0 -1
    outer loop
      vertex 15.23 -4.907 0
      vertex 10.092 -10.13 0
      vertex 11.1614 -0.305618 0
    endloop
  endfacet
  facet normal 0 0 -1
    outer loop
      vertex 10.092 -10.13 0
      vertex 9.98599 -0.231995 0
      vertex 11.1614 -0.305618 0
    endloop
  endfacet
  facet normal 0 0 -1
    outer loop
      vertex 4.84799 -4.97699 0
      vertex 9.98599 -0.231995 0
      vertex 10.092 -10.13 0
    endloop
  endfacet
  facet normal 0 0 -1
    outer loop
      vertex 9.98599 -0.231995 0
      vertex 4.84799 -4.97699 0
      vertex 8.84268 -0.311111 0
    endloop
  endfacet
  facet normal 0 0 -1
    outer loop
      vertex 4.84799 -4.97699 0
      vertex 10.092 -10.13 0
      vertex 7.79774 -9.80792 0
    endloop
  endfacet
  facet normal 0 0 -1
    outer loop
      vertex 8.84268 -0.311111 0
      vertex 4.84799 -4.97699 0
      vertex 7.83174 -0.548492 0
    endloop
  endfacet
  facet normal 0 -0 -1
    outer loop
      vertex 4.93292 -3.92969 0
      vertex 7.83174 -0.548492 0
      vertex 4.84799 -4.97699 0
    endloop
  endfacet
  facet normal 0 0 -1
    outer loop
      vertex 5.17574 -7.23143 0
      vertex 7.79774 -9.80792 0
      vertex 6.159 -8.84174 0
    endloop
  endfacet
  facet normal 0 0 -1
    outer loop
      vertex 7.83174 -0.548492 0
      vertex 4.93292 -3.92969 0
      vertex 6.95319 -0.944122 0
    endloop
  endfacet
  facet normal 0 0 -1
    outer loop
      vertex 6.95319 -0.944122 0
      vertex 4.93292 -3.92969 0
      vertex 6.20699 -1.49799 0
    endloop
  endfacet
  facet normal 0 0 -1
    outer loop
      vertex 7.79774 -9.80792 0
      vertex 5.17574 -7.23143 0
      vertex 4.84799 -4.97699 0
    endloop
  endfacet
  facet normal 0 -0 -1
    outer loop
      vertex 5.18774 -3.00075 0
      vertex 6.20699 -1.49799 0
      vertex 4.93292 -3.92969 0
    endloop
  endfacet
  facet normal 0 0 -1
    outer loop
      vertex 6.20699 -1.49799 0
      vertex 5.18774 -3.00075 0
      vertex 5.61243 -2.19019 0
    endloop
  endfacet
  facet normal 0 0 -1
    outer loop
      vertex 11.0767 2.21143 0
      vertex 14.613 6.517 0
      vertex 14.5396 5.44281 0
    endloop
  endfacet
  facet normal 0 0 -1
    outer loop
      vertex 11.9977 2.40474 0
      vertex 14.5396 5.44281 0
      vertex 14.3195 4.52824 0
    endloop
  endfacet
  facet normal 0 0 -1
    outer loop
      vertex 12.7852 2.72693 0
      vertex 14.3195 4.52824 0
      vertex 13.9526 3.7733 0
    endloop
  endfacet
  facet normal 0 0 -1
    outer loop
      vertex 14.5396 5.44281 0
      vertex 11.9977 2.40474 0
      vertex 11.0767 2.21143 0
    endloop
  endfacet
  facet normal 0 0 -1
    outer loop
      vertex 12.7852 2.72693 0
      vertex 13.9526 3.7733 0
      vertex 13.439 3.17799 0
    endloop
  endfacet
  facet normal 0 0 -1
    outer loop
      vertex 14.3195 4.52824 0
      vertex 12.7852 2.72693 0
      vertex 11.9977 2.40474 0
    endloop
  endfacet
  facet normal -0 0 -1
    outer loop
      vertex 14.613 6.517 0
      vertex 11.0767 2.21143 0
      vertex 9.987 10.729 0
    endloop
  endfacet
  facet normal 0 0 -1
    outer loop
      vertex 14.3239 8.35974 0
      vertex 12.0109 10.4657 0
      vertex 13.4565 9.67599 0
    endloop
  endfacet
  facet normal 0 0 -1
    outer loop
      vertex 14.613 6.517 0
      vertex 12.0109 10.4657 0
      vertex 14.3239 8.35974 0
    endloop
  endfacet
  facet normal 0 0 -1
    outer loop
      vertex 9.987 10.729 0
      vertex 11.0767 2.21143 0
      vertex 10.022 2.14699 0
    endloop
  endfacet
  facet normal 0 0 -1
    outer loop
      vertex 14.613 6.517 0
      vertex 9.987 10.729 0
      vertex 12.0109 10.4657 0
    endloop
  endfacet
  facet normal 0 0 -1
    outer loop
      vertex 8.9808 2.21693 0
      vertex 9.987 10.729 0
      vertex 10.022 2.14699 0
    endloop
  endfacet
  facet normal 0 0 -1
    outer loop
      vertex 8.9808 2.21693 0
      vertex 8.93231 10.6629 0
      vertex 9.987 10.729 0
    endloop
  endfacet
  facet normal 0 0 -1
    outer loop
      vertex 5.47156 5.5143 0
      vertex 8.9808 2.21693 0
      vertex 8.06424 2.42674 0
    endloop
  endfacet
  facet normal 0 0 -1
    outer loop
      vertex 8.9808 2.21693 0
      vertex 5.396 6.517 0
      vertex 8.93231 10.6629 0
    endloop
  endfacet
  facet normal 0 0 -1
    outer loop
      vertex 5.47156 5.5143 0
      vertex 8.06424 2.42674 0
      vertex 7.27231 2.77643 0
    endloop
  endfacet
  facet normal 0 -0 -1
    outer loop
      vertex 5.46936 7.50049 0
      vertex 8.93231 10.6629 0
      vertex 5.396 6.517 0
    endloop
  endfacet
  facet normal 0 0 -1
    outer loop
      vertex 5.69824 4.63824 0
      vertex 7.27231 2.77643 0
      vertex 6.605 3.26599 0
    endloop
  endfacet
  facet normal 0 0 -1
    outer loop
      vertex 8.93231 10.6629 0
      vertex 5.46936 7.50049 0
      vertex 8.01125 10.4645 0
    endloop
  endfacet
  facet normal 0 0 -1
    outer loop
      vertex 5.69824 4.63824 0
      vertex 6.605 3.26599 0
      vertex 6.07605 3.88881 0
    endloop
  endfacet
  facet normal 0 0 -1
    outer loop
      vertex 8.01125 10.4645 0
      vertex 5.46936 7.50049 0
      vertex 7.2238 10.1339 0
    endloop
  endfacet
  facet normal 0 0 -1
    outer loop
      vertex 7.27231 2.77643 0
      vertex 5.69824 4.63824 0
      vertex 5.47156 5.5143 0
    endloop
  endfacet
  facet normal 0 -0 -1
    outer loop
      vertex 5.6895 8.35399 0
      vertex 7.2238 10.1339 0
      vertex 5.46936 7.50049 0
    endloop
  endfacet
  facet normal 0 0 -1
    outer loop
      vertex 8.9808 2.21693 0
      vertex 5.47156 5.5143 0
      vertex 5.396 6.517 0
    endloop
  endfacet
  facet normal 0 0 -1
    outer loop
      vertex 7.2238 10.1339 0
      vertex 5.6895 8.35399 0
      vertex 6.56999 9.67099 0
    endloop
  endfacet
  facet normal 0 0 -1
    outer loop
      vertex 6.56999 9.67099 0
      vertex 5.6895 8.35399 0
      vertex 6.05637 9.0775 0
    endloop
  endfacet
  facet normal -0.209153 0.977883 0
    outer loop
      vertex 13.6737 -12.0272 0
      vertex 11.9844 -12.3885 1
      vertex 13.6737 -12.0272 1
    endloop
  endfacet
  facet normal -0.209153 0.977883 0
    outer loop
      vertex 11.9844 -12.3885 1
      vertex 13.6737 -12.0272 0
      vertex 11.9844 -12.3885 0
    endloop
  endfacet
  facet normal -0.383274 0.923635 0
    outer loop
      vertex 15.1249 -11.425 0
      vertex 13.6737 -12.0272 1
      vertex 15.1249 -11.425 1
    endloop
  endfacet
  facet normal -0.383274 0.923635 0
    outer loop
      vertex 13.6737 -12.0272 1
      vertex 15.1249 -11.425 0
      vertex 13.6737 -12.0272 0
    endloop
  endfacet
  facet normal -0.570693 0.821163 0
    outer loop
      vertex 16.338 -10.582 0
      vertex 15.1249 -11.425 1
      vertex 16.338 -10.582 1
    endloop
  endfacet
  facet normal -0.570693 0.821163 0
    outer loop
      vertex 15.1249 -11.425 1
      vertex 16.338 -10.582 0
      vertex 15.1249 -11.425 0
    endloop
  endfacet
  facet normal -0.741865 0.670549 0
    outer loop
      vertex 16.338 -10.582 0
      vertex 17.2952 -9.52293 1
      vertex 17.2952 -9.52293 0
    endloop
  endfacet
  facet normal -0.741865 0.670549 0
    outer loop
      vertex 17.2952 -9.52293 1
      vertex 16.338 -10.582 0
      vertex 16.338 -10.582 1
    endloop
  endfacet
  facet normal -0.877195 0.480134 0
    outer loop
      vertex 17.2952 -9.52293 0
      vertex 17.979 -8.27374 1
      vertex 17.979 -8.27374 0
    endloop
  endfacet
  facet normal -0.877195 0.480134 0
    outer loop
      vertex 17.979 -8.27374 1
      vertex 17.2952 -9.52293 0
      vertex 17.2952 -9.52293 1
    endloop
  endfacet
  facet normal -0.961698 0.274112 0
    outer loop
      vertex 17.979 -8.27374 0
      vertex 18.3892 -6.83443 1
      vertex 18.3892 -6.83443 0
    endloop
  endfacet
  facet normal -0.961698 0.274112 0
    outer loop
      vertex 18.3892 -6.83443 1
      vertex 17.979 -8.27374 0
      vertex 17.979 -8.27374 1
    endloop
  endfacet
  facet normal -0.996497 0.0836301 0
    outer loop
      vertex 18.3892 -6.83443 0
      vertex 18.526 -5.20499 1
      vertex 18.526 -5.20499 0
    endloop
  endfacet
  facet normal -0.996497 0.0836301 0
    outer loop
      vertex 18.526 -5.20499 1
      vertex 18.3892 -6.83443 0
      vertex 18.3892 -6.83443 1
    endloop
  endfacet
  facet normal -0.99754 -0.0700987 0
    outer loop
      vertex 18.526 -5.20499 0
      vertex 18.4432 -4.02744 1
      vertex 18.4432 -4.02744 0
    endloop
  endfacet
  facet normal -0.99754 -0.0700987 0
    outer loop
      vertex 18.4432 -4.02744 1
      vertex 18.526 -5.20499 0
      vertex 18.526 -5.20499 1
    endloop
  endfacet
  facet normal -0.974344 -0.225066 0
    outer loop
      vertex 18.4432 -4.02744 0
      vertex 18.195 -2.95274 1
      vertex 18.195 -2.95274 0
    endloop
  endfacet
  facet normal -0.974344 -0.225066 0
    outer loop
      vertex 18.195 -2.95274 1
      vertex 18.4432 -4.02744 0
      vertex 18.4432 -4.02744 1
    endloop
  endfacet
  facet normal -0.920085 -0.391718 0
    outer loop
      vertex 18.195 -2.95274 0
      vertex 17.7812 -1.98093 1
      vertex 17.7812 -1.98093 0
    endloop
  endfacet
  facet normal -0.920085 -0.391718 0
    outer loop
      vertex 17.7812 -1.98093 1
      vertex 18.195 -2.95274 0
      vertex 18.195 -2.95274 1
    endloop
  endfacet
  facet normal -0.832064 -0.55468 0
    outer loop
      vertex 17.7812 -1.98093 0
      vertex 17.202 -1.112 1
      vertex 17.202 -1.112 0
    endloop
  endfacet
  facet normal -0.832064 -0.55468 0
    outer loop
      vertex 17.202 -1.112 1
      vertex 17.7812 -1.98093 0
      vertex 17.7812 -1.98093 1
    endloop
  endfacet
  facet normal -0.713043 -0.70112 0
    outer loop
      vertex 17.202 -1.112 0
      vertex 16.4743 -0.371933 1
      vertex 16.4743 -0.371933 0
    endloop
  endfacet
  facet normal -0.713043 -0.70112 0
    outer loop
      vertex 16.4743 -0.371933 1
      vertex 17.202 -1.112 0
      vertex 17.202 -1.112 1
    endloop
  endfacet
  facet normal -0.561876 -0.827221 0
    outer loop
      vertex 15.6142 0.21225 0
      vertex 16.4743 -0.371933 1
      vertex 15.6142 0.21225 1
    endloop
  endfacet
  facet normal -0.561876 -0.827221 -0
    outer loop
      vertex 16.4743 -0.371933 1
      vertex 15.6142 0.21225 0
      vertex 16.4743 -0.371933 0
    endloop
  endfacet
  facet normal -0.39624 -0.918147 0
    outer loop
      vertex 14.6218 0.640549 0
      vertex 15.6142 0.21225 1
      vertex 14.6218 0.640549 1
    endloop
  endfacet
  facet normal -0.39624 -0.918147 -0
    outer loop
      vertex 15.6142 0.21225 1
      vertex 14.6218 0.640549 0
      vertex 15.6142 0.21225 0
    endloop
  endfacet
  facet normal -0.235406 -0.971897 0
    outer loop
      vertex 13.497 0.912994 0
      vertex 14.6218 0.640549 1
      vertex 13.497 0.912994 1
    endloop
  endfacet
  facet normal -0.235406 -0.971897 -0
    outer loop
      vertex 14.6218 0.640549 1
      vertex 13.497 0.912994 0
      vertex 14.6218 0.640549 0
    endloop
  endfacet
  facet normal -1 0 0
    outer loop
      vertex 13.497 0.912994 0
      vertex 13.497 0.983994 1
      vertex 13.497 0.983994 0
    endloop
  endfacet
  facet normal -1 -0 0
    outer loop
      vertex 13.497 0.983994 1
      vertex 13.497 0.912994 0
      vertex 13.497 0.912994 1
    endloop
  endfacet
  facet normal -0.274101 0.961701 0
    outer loop
      vertex 14.4664 1.2603 0
      vertex 13.497 0.983994 1
      vertex 14.4664 1.2603 1
    endloop
  endfacet
  facet normal -0.274101 0.961701 0
    outer loop
      vertex 13.497 0.983994 1
      vertex 14.4664 1.2603 0
      vertex 13.497 0.983994 0
    endloop
  endfacet
  facet normal -0.441616 0.897204 0
    outer loop
      vertex 15.3277 1.68425 0
      vertex 14.4664 1.2603 1
      vertex 15.3277 1.68425 1
    endloop
  endfacet
  facet normal -0.441616 0.897204 0
    outer loop
      vertex 14.4664 1.2603 1
      vertex 15.3277 1.68425 0
      vertex 14.4664 1.2603 0
    endloop
  endfacet
  facet normal -0.604496 0.796608 0
    outer loop
      vertex 16.0809 2.2558 0
      vertex 15.3277 1.68425 1
      vertex 16.0809 2.2558 1
    endloop
  endfacet
  facet normal -0.604496 0.796608 0
    outer loop
      vertex 15.3277 1.68425 1
      vertex 16.0809 2.2558 0
      vertex 15.3277 1.68425 0
    endloop
  endfacet
  facet normal -0.744429 0.667701 0
    outer loop
      vertex 16.0809 2.2558 0
      vertex 16.726 2.97499 1
      vertex 16.726 2.97499 0
    endloop
  endfacet
  facet normal -0.744429 0.667701 0
    outer loop
      vertex 16.726 2.97499 1
      vertex 16.0809 2.2558 0
      vertex 16.0809 2.2558 1
    endloop
  endfacet
  facet normal -0.847941 0.53009 0
    outer loop
      vertex 16.726 2.97499 0
      vertex 17.2431 3.80219 1
      vertex 17.2431 3.80219 0
    endloop
  endfacet
  facet normal -0.847941 0.53009 0
    outer loop
      vertex 17.2431 3.80219 1
      vertex 16.726 2.97499 0
      vertex 16.726 2.97499 1
    endloop
  endfacet
  facet normal -0.924455 0.38129 0
    outer loop
      vertex 17.2431 3.80219 0
      vertex 17.6125 4.69774 1
      vertex 17.6125 4.69774 0
    endloop
  endfacet
  facet normal -0.924455 0.38129 0
    outer loop
      vertex 17.6125 4.69774 1
      vertex 17.2431 3.80219 0
      vertex 17.2431 3.80219 1
    endloop
  endfacet
  facet normal -0.974571 0.224078 0
    outer loop
      vertex 17.6125 4.69774 0
      vertex 17.8341 5.66168 1
      vertex 17.8341 5.66168 0
    endloop
  endfacet
  facet normal -0.974571 0.224078 0
    outer loop
      vertex 17.8341 5.66168 1
      vertex 17.6125 4.69774 0
      vertex 17.6125 4.69774 1
    endloop
  endfacet
  facet normal -0.99745 0.0713738 0
    outer loop
      vertex 17.8341 5.66168 0
      vertex 17.908 6.69398 1
      vertex 17.908 6.69398 0
    endloop
  endfacet
  facet normal -0.99745 0.0713738 0
    outer loop
      vertex 17.908 6.69398 1
      vertex 17.8341 5.66168 0
      vertex 17.8341 5.66168 1
    endloop
  endfacet
  facet normal -0.995498 -0.0947865 0
    outer loop
      vertex 17.908 6.69398 0
      vertex 17.7751 8.08949 1
      vertex 17.7751 8.08949 0
    endloop
  endfacet
  facet normal -0.995498 -0.0947865 0
    outer loop
      vertex 17.7751 8.08949 1
      vertex 17.908 6.69398 0
      vertex 17.908 6.69398 1
    endloop
  endfacet
  facet normal -0.952268 -0.305262 0
    outer loop
      vertex 17.7751 8.08949 0
      vertex 17.3765 9.33299 1
      vertex 17.3765 9.33299 0
    endloop
  endfacet
  facet normal -0.952268 -0.305262 0
    outer loop
      vertex 17.3765 9.33299 1
      vertex 17.7751 8.08949 0
      vertex 17.7751 8.08949 1
    endloop
  endfacet
  facet normal -0.854203 -0.51994 0
    outer loop
      vertex 17.3765 9.33299 0
      vertex 16.7121 10.4245 1
      vertex 16.7121 10.4245 0
    endloop
  endfacet
  facet normal -0.854203 -0.51994 0
    outer loop
      vertex 16.7121 10.4245 1
      vertex 17.3765 9.33299 0
      vertex 17.3765 9.33299 1
    endloop
  endfacet
  facet normal -0.710647 -0.703549 0
    outer loop
      vertex 16.7121 10.4245 0
      vertex 15.782 11.364 1
      vertex 15.782 11.364 0
    endloop
  endfacet
  facet normal -0.710647 -0.703549 0
    outer loop
      vertex 15.782 11.364 1
      vertex 16.7121 10.4245 0
      vertex 16.7121 10.4245 1
    endloop
  endfacet
  facet normal -0.545943 -0.837823 0
    outer loop
      vertex 14.6225 12.1196 0
      vertex 15.782 11.364 1
      vertex 14.6225 12.1196 1
    endloop
  endfacet
  facet normal -0.545943 -0.837823 -0
    outer loop
      vertex 15.782 11.364 1
      vertex 14.6225 12.1196 0
      vertex 15.782 11.364 0
    endloop
  endfacet
  facet normal -0.370612 -0.928788 0
    outer loop
      vertex 13.27 12.6592 0
      vertex 14.6225 12.1196 1
      vertex 13.27 12.6592 1
    endloop
  endfacet
  facet normal -0.370612 -0.928788 -0
    outer loop
      vertex 14.6225 12.1196 1
      vertex 13.27 12.6592 0
      vertex 14.6225 12.1196 0
    endloop
  endfacet
  facet normal -0.205063 -0.978749 0
    outer loop
      vertex 11.7245 12.983 0
      vertex 13.27 12.6592 1
      vertex 11.7245 12.983 1
    endloop
  endfacet
  facet normal -0.205063 -0.978749 -0
    outer loop
      vertex 13.27 12.6592 1
      vertex 11.7245 12.983 0
      vertex 13.27 12.6592 0
    endloop
  endfacet
  facet normal -0.0619692 -0.998078 0
    outer loop
      vertex 9.98599 13.091 0
      vertex 11.7245 12.983 1
      vertex 9.98599 13.091 1
    endloop
  endfacet
  facet normal -0.0619692 -0.998078 -0
    outer loop
      vertex 11.7245 12.983 1
      vertex 9.98599 13.091 0
      vertex 11.7245 12.983 0
    endloop
  endfacet
  facet normal 0.0646945 -0.997905 0
    outer loop
      vertex 8.28642 12.9808 0
      vertex 9.98599 13.091 1
      vertex 8.28642 12.9808 1
    endloop
  endfacet
  facet normal 0.0646945 -0.997905 0
    outer loop
      vertex 9.98599 13.091 1
      vertex 8.28642 12.9808 0
      vertex 9.98599 13.091 0
    endloop
  endfacet
  facet normal 0.21282 -0.977091 0
    outer loop
      vertex 6.76874 12.6502 0
      vertex 8.28642 12.9808 1
      vertex 6.76874 12.6502 1
    endloop
  endfacet
  facet normal 0.21282 -0.977091 0
    outer loop
      vertex 8.28642 12.9808 1
      vertex 6.76874 12.6502 0
      vertex 8.28642 12.9808 0
    endloop
  endfacet
  facet normal 0.381278 -0.924461 0
    outer loop
      vertex 5.43292 12.0993 0
      vertex 6.76874 12.6502 1
      vertex 5.43292 12.0993 1
    endloop
  endfacet
  facet normal 0.381278 -0.924461 0
    outer loop
      vertex 6.76874 12.6502 1
      vertex 5.43292 12.0993 0
      vertex 6.76874 12.6502 0
    endloop
  endfacet
  facet normal 0.555712 -0.831375 0
    outer loop
      vertex 4.27899 11.328 0
      vertex 5.43292 12.0993 1
      vertex 4.27899 11.328 1
    endloop
  endfacet
  facet normal 0.555712 -0.831375 0
    outer loop
      vertex 5.43292 12.0993 1
      vertex 4.27899 11.328 0
      vertex 5.43292 12.0993 0
    endloop
  endfacet
  facet normal 0.713869 -0.700279 0
    outer loop
      vertex 3.34886 10.3798 1
      vertex 4.27899 11.328 0
      vertex 4.27899 11.328 1
    endloop
  endfacet
  facet normal 0.713869 -0.700279 0
    outer loop
      vertex 4.27899 11.328 0
      vertex 3.34886 10.3798 1
      vertex 3.34886 10.3798 0
    endloop
  endfacet
  facet normal 0.852299 -0.523054 0
    outer loop
      vertex 2.68449 9.29724 1
      vertex 3.34886 10.3798 0
      vertex 3.34886 10.3798 1
    endloop
  endfacet
  facet normal 0.852299 -0.523054 0
    outer loop
      vertex 3.34886 10.3798 0
      vertex 2.68449 9.29724 1
      vertex 2.68449 9.29724 0
    endloop
  endfacet
  facet normal 0.950316 -0.311287 0
    outer loop
      vertex 2.28587 8.08031 1
      vertex 2.68449 9.29724 0
      vertex 2.68449 9.29724 1
    endloop
  endfacet
  facet normal 0.950316 -0.311287 0
    outer loop
      vertex 2.68449 9.29724 0
      vertex 2.28587 8.08031 1
      vertex 2.28587 8.08031 0
    endloop
  endfacet
  facet normal 0.9952 -0.0978569 0
    outer loop
      vertex 2.153 6.72899 1
      vertex 2.28587 8.08031 0
      vertex 2.28587 8.08031 1
    endloop
  endfacet
  facet normal 0.9952 -0.0978569 0
    outer loop
      vertex 2.28587 8.08031 0
      vertex 2.153 6.72899 1
      vertex 2.153 6.72899 0
    endloop
  endfacet
  facet normal 0.997487 0.0708561 0
    outer loop
      vertex 2.2263 5.69705 1
      vertex 2.153 6.72899 0
      vertex 2.153 6.72899 1
    endloop
  endfacet
  facet normal 0.997487 0.0708561 0
    outer loop
      vertex 2.153 6.72899 0
      vertex 2.2263 5.69705 1
      vertex 2.2263 5.69705 0
    endloop
  endfacet
  facet normal 0.974937 0.22248 0
    outer loop
      vertex 2.44624 4.73325 1
      vertex 2.2263 5.69705 0
      vertex 2.2263 5.69705 1
    endloop
  endfacet
  facet normal 0.974937 0.22248 0
    outer loop
      vertex 2.2263 5.69705 0
      vertex 2.44624 4.73325 1
      vertex 2.44624 4.73325 0
    endloop
  endfacet
  facet normal 0.925495 0.378759 0
    outer loop
      vertex 2.81281 3.83755 1
      vertex 2.44624 4.73325 0
      vertex 2.44624 4.73325 1
    endloop
  endfacet
  facet normal 0.925495 0.378759 0
    outer loop
      vertex 2.44624 4.73325 0
      vertex 2.81281 3.83755 1
      vertex 2.81281 3.83755 0
    endloop
  endfacet
  facet normal 0.849858 0.527011 0
    outer loop
      vertex 3.32599 3.00999 1
      vertex 2.81281 3.83755 0
      vertex 2.81281 3.83755 1
    endloop
  endfacet
  facet normal 0.849858 0.527011 0
    outer loop
      vertex 2.81281 3.83755 0
      vertex 3.32599 3.00999 1
      vertex 3.32599 3.00999 0
    endloop
  endfacet
  facet normal 0.749067 0.662494 0
    outer loop
      vertex 3.96599 2.28636 1
      vertex 3.32599 3.00999 0
      vertex 3.32599 3.00999 1
    endloop
  endfacet
  facet normal 0.749067 0.662494 0
    outer loop
      vertex 3.32599 3.00999 0
      vertex 3.96599 2.28636 1
      vertex 3.96599 2.28636 0
    endloop
  endfacet
  facet normal 0.616474 0.787375 -0
    outer loop
      vertex 4.713 1.70149 0
      vertex 3.96599 2.28636 1
      vertex 4.713 1.70149 1
    endloop
  endfacet
  facet normal 0.616474 0.787375 0
    outer loop
      vertex 3.96599 2.28636 1
      vertex 4.713 1.70149 0
      vertex 3.96599 2.28636 0
    endloop
  endfacet
  facet normal 0.463024 0.886346 -0
    outer loop
      vertex 5.56699 1.25537 0
      vertex 4.713 1.70149 1
      vertex 5.56699 1.25537 1
    endloop
  endfacet
  facet normal 0.463024 0.886346 0
    outer loop
      vertex 4.713 1.70149 1
      vertex 5.56699 1.25537 0
      vertex 4.713 1.70149 0
    endloop
  endfacet
  facet normal 0.30464 0.952468 -0
    outer loop
      vertex 6.528 0.947998 0
      vertex 5.56699 1.25537 1
      vertex 6.528 0.947998 1
    endloop
  endfacet
  facet normal 0.30464 0.952468 0
    outer loop
      vertex 5.56699 1.25537 1
      vertex 6.528 0.947998 0
      vertex 5.56699 1.25537 0
    endloop
  endfacet
  facet normal 1 -0 0
    outer loop
      vertex 6.528 0.877991 1
      vertex 6.528 0.947998 0
      vertex 6.528 0.947998 1
    endloop
  endfacet
  facet normal 1 0 0
    outer loop
      vertex 6.528 0.947998 0
      vertex 6.528 0.877991 1
      vertex 6.528 0.877991 0
    endloop
  endfacet
  facet normal 0.242196 -0.970227 0
    outer loop
      vertex 5.49149 0.619247 0
      vertex 6.528 0.877991 1
      vertex 5.49149 0.619247 1
    endloop
  endfacet
  facet normal 0.242196 -0.970227 0
    outer loop
      vertex 6.528 0.877991 1
      vertex 5.49149 0.619247 0
      vertex 6.528 0.877991 0
    endloop
  endfacet
  facet normal 0.409946 -0.91211 0
    outer loop
      vertex 4.55199 0.196991 0
      vertex 5.49149 0.619247 1
      vertex 4.55199 0.196991 1
    endloop
  endfacet
  facet normal 0.409946 -0.91211 0
    outer loop
      vertex 5.49149 0.619247 1
      vertex 4.55199 0.196991 0
      vertex 5.49149 0.619247 0
    endloop
  endfacet
  facet normal 0.570837 -0.821064 0
    outer loop
      vertex 3.70949 -0.388748 0
      vertex 4.55199 0.196991 1
      vertex 3.70949 -0.388748 1
    endloop
  endfacet
  facet normal 0.570837 -0.821064 0
    outer loop
      vertex 4.55199 0.196991 1
      vertex 3.70949 -0.388748 0
      vertex 4.55199 0.196991 0
    endloop
  endfacet
  facet normal 0.708873 -0.705336 0
    outer loop
      vertex 2.96399 -1.13799 1
      vertex 3.70949 -0.388748 0
      vertex 3.70949 -0.388748 1
    endloop
  endfacet
  facet normal 0.708873 -0.705336 0
    outer loop
      vertex 3.70949 -0.388748 0
      vertex 2.96399 -1.13799 1
      vertex 2.96399 -1.13799 0
    endloop
  endfacet
  facet normal 0.821818 -0.56975 0
    outer loop
      vertex 2.35411 -2.01768 1
      vertex 2.96399 -1.13799 0
      vertex 2.96399 -1.13799 1
    endloop
  endfacet
  facet normal 0.821818 -0.56975 0
    outer loop
      vertex 2.96399 -1.13799 0
      vertex 2.35411 -2.01768 1
      vertex 2.35411 -2.01768 0
    endloop
  endfacet
  facet normal 0.913333 -0.407214 0
    outer loop
      vertex 1.91849 -2.99474 1
      vertex 2.35411 -2.01768 0
      vertex 2.35411 -2.01768 1
    endloop
  endfacet
  facet normal 0.913333 -0.407214 0
    outer loop
      vertex 2.35411 -2.01768 0
      vertex 1.91849 -2.99474 1
      vertex 1.91849 -2.99474 0
    endloop
  endfacet
  facet normal 0.971664 -0.236365 0
    outer loop
      vertex 1.65712 -4.06918 1
      vertex 1.91849 -2.99474 0
      vertex 1.91849 -2.99474 1
    endloop
  endfacet
  facet normal 0.971664 -0.236365 0
    outer loop
      vertex 1.91849 -2.99474 0
      vertex 1.65712 -4.06918 1
      vertex 1.65712 -4.06918 0
    endloop
  endfacet
  facet normal 0.997247 -0.0741482 0
    outer loop
      vertex 1.56999 -5.241 1
      vertex 1.65712 -4.06918 0
      vertex 1.65712 -4.06918 1
    endloop
  endfacet
  facet normal 0.997247 -0.0741482 0
    outer loop
      vertex 1.65712 -4.06918 0
      vertex 1.56999 -5.241 1
      vertex 1.56999 -5.241 0
    endloop
  endfacet
  facet normal 0.996358 0.0852675 0
    outer loop
      vertex 1.71056 -6.8835 1
      vertex 1.56999 -5.241 0
      vertex 1.56999 -5.241 1
    endloop
  endfacet
  facet normal 0.996358 0.0852675 0
    outer loop
      vertex 1.56999 -5.241 0
      vertex 1.71056 -6.8835 1
      vertex 1.71056 -6.8835 0
    endloop
  endfacet
  facet normal 0.95988 0.280412 0
    outer loop
      vertex 2.13225 -8.327 1
      vertex 1.71056 -6.8835 0
      vertex 1.71056 -6.8835 1
    endloop
  endfacet
  facet normal 0.95988 0.280412 0
    outer loop
      vertex 1.71056 -6.8835 0
      vertex 2.13225 -8.327 1
      vertex 2.13225 -8.327 0
    endloop
  endfacet
  facet normal 0.870744 0.491737 0
    outer loop
      vertex 2.83505 -9.57149 1
      vertex 2.13225 -8.327 0
      vertex 2.13225 -8.327 1
    endloop
  endfacet
  facet normal 0.870744 0.491737 0
    outer loop
      vertex 2.13225 -8.327 0
      vertex 2.83505 -9.57149 1
      vertex 2.83505 -9.57149 0
    endloop
  endfacet
  facet normal 0.728224 0.685339 0
    outer loop
      vertex 3.81898 -10.617 1
      vertex 2.83505 -9.57149 0
      vertex 2.83505 -9.57149 1
    endloop
  endfacet
  facet normal 0.728224 0.685339 0
    outer loop
      vertex 2.83505 -9.57149 0
      vertex 3.81898 -10.617 1
      vertex 3.81898 -10.617 0
    endloop
  endfacet
  facet normal 0.557186 0.830387 -0
    outer loop
      vertex 5.05261 -11.4447 0
      vertex 3.81898 -10.617 1
      vertex 5.05261 -11.4447 1
    endloop
  endfacet
  facet normal 0.557186 0.830387 0
    outer loop
      vertex 3.81898 -10.617 1
      vertex 5.05261 -11.4447 0
      vertex 3.81898 -10.617 0
    endloop
  endfacet
  facet normal 0.377378 0.926059 -0
    outer loop
      vertex 6.50349 -12.036 0
      vertex 5.05261 -11.4447 1
      vertex 6.50349 -12.036 1
    endloop
  endfacet
  facet normal 0.377378 0.926059 0
    outer loop
      vertex 5.05261 -11.4447 1
      vertex 6.50349 -12.036 0
      vertex 5.05261 -11.4447 0
    endloop
  endfacet
  facet normal 0.208013 0.978126 -0
    outer loop
      vertex 8.17162 -12.3907 0
      vertex 6.50349 -12.036 1
      vertex 8.17162 -12.3907 1
    endloop
  endfacet
  facet normal 0.208013 0.978126 0
    outer loop
      vertex 6.50349 -12.036 1
      vertex 8.17162 -12.3907 0
      vertex 6.50349 -12.036 0
    endloop
  endfacet
  facet normal 0.0625915 0.998039 -0
    outer loop
      vertex 10.057 -12.509 0
      vertex 8.17162 -12.3907 1
      vertex 10.057 -12.509 1
    endloop
  endfacet
  facet normal 0.0625915 0.998039 0
    outer loop
      vertex 8.17162 -12.3907 1
      vertex 10.057 -12.509 0
      vertex 8.17162 -12.3907 0
    endloop
  endfacet
  facet normal -0.062364 0.998053 0
    outer loop
      vertex 11.9844 -12.3885 0
      vertex 10.057 -12.509 1
      vertex 11.9844 -12.3885 1
    endloop
  endfacet
  facet normal -0.062364 0.998053 0
    outer loop
      vertex 10.057 -12.509 1
      vertex 11.9844 -12.3885 0
      vertex 10.057 -12.509 0
    endloop
  endfacet
  facet normal -0.223136 -0.974787 0
    outer loop
      vertex 8.06424 2.42674 0
      vertex 8.9808 2.21693 1
      vertex 8.06424 2.42674 1
    endloop
  endfacet
  facet normal -0.223136 -0.974787 -0
    outer loop
      vertex 8.9808 2.21693 1
      vertex 8.06424 2.42674 0
      vertex 8.9808 2.21693 0
    endloop
  endfacet
  facet normal -0.403934 -0.914788 0
    outer loop
      vertex 7.27231 2.77643 0
      vertex 8.06424 2.42674 1
      vertex 7.27231 2.77643 1
    endloop
  endfacet
  facet normal -0.403934 -0.914788 -0
    outer loop
      vertex 8.06424 2.42674 1
      vertex 7.27231 2.77643 0
      vertex 8.06424 2.42674 0
    endloop
  endfacet
  facet normal -0.591521 -0.80629 0
    outer loop
      vertex 6.605 3.26599 0
      vertex 7.27231 2.77643 1
      vertex 6.605 3.26599 1
    endloop
  endfacet
  facet normal -0.591521 -0.80629 -0
    outer loop
      vertex 7.27231 2.77643 1
      vertex 6.605 3.26599 0
      vertex 7.27231 2.77643 0
    endloop
  endfacet
  facet normal -0.762211 -0.647329 0
    outer loop
      vertex 6.605 3.26599 0
      vertex 6.07605 3.88881 1
      vertex 6.07605 3.88881 0
    endloop
  endfacet
  facet normal -0.762211 -0.647329 0
    outer loop
      vertex 6.07605 3.88881 1
      vertex 6.605 3.26599 0
      vertex 6.605 3.26599 1
    endloop
  endfacet
  facet normal -0.89295 -0.450156 0
    outer loop
      vertex 6.07605 3.88881 0
      vertex 5.69824 4.63824 1
      vertex 5.69824 4.63824 0
    endloop
  endfacet
  facet normal -0.89295 -0.450156 0
    outer loop
      vertex 5.69824 4.63824 1
      vertex 6.07605 3.88881 0
      vertex 6.07605 3.88881 1
    endloop
  endfacet
  facet normal -0.968115 -0.250506 0
    outer loop
      vertex 5.69824 4.63824 0
      vertex 5.47156 5.5143 1
      vertex 5.47156 5.5143 0
    endloop
  endfacet
  facet normal -0.968115 -0.250506 0
    outer loop
      vertex 5.47156 5.5143 1
      vertex 5.69824 4.63824 0
      vertex 5.69824 4.63824 1
    endloop
  endfacet
  facet normal -0.997173 -0.0751449 0
    outer loop
      vertex 5.47156 5.5143 0
      vertex 5.396 6.517 1
      vertex 5.396 6.517 0
    endloop
  endfacet
  facet normal -0.997173 -0.0751449 0
    outer loop
      vertex 5.396 6.517 1
      vertex 5.47156 5.5143 0
      vertex 5.47156 5.5143 1
    endloop
  endfacet
  facet normal -0.997229 0.0743892 0
    outer loop
      vertex 5.396 6.517 0
      vertex 5.46936 7.50049 1
      vertex 5.46936 7.50049 0
    endloop
  endfacet
  facet normal -0.997229 0.0743892 0
    outer loop
      vertex 5.46936 7.50049 1
      vertex 5.396 6.517 0
      vertex 5.396 6.517 1
    endloop
  endfacet
  facet normal -0.96831 0.249751 0
    outer loop
      vertex 5.46936 7.50049 0
      vertex 5.6895 8.35399 1
      vertex 5.6895 8.35399 0
    endloop
  endfacet
  facet normal -0.96831 0.249751 0
    outer loop
      vertex 5.6895 8.35399 1
      vertex 5.46936 7.50049 0
      vertex 5.46936 7.50049 1
    endloop
  endfacet
  facet normal -0.891892 0.452248 0
    outer loop
      vertex 5.6895 8.35399 0
      vertex 6.05637 9.0775 1
      vertex 6.05637 9.0775 0
    endloop
  endfacet
  facet normal -0.891892 0.452248 0
    outer loop
      vertex 6.05637 9.0775 1
      vertex 5.6895 8.35399 0
      vertex 5.6895 8.35399 1
    endloop
  endfacet
  facet normal -0.756151 0.654397 0
    outer loop
      vertex 6.05637 9.0775 0
      vertex 6.56999 9.67099 1
      vertex 6.56999 9.67099 0
    endloop
  endfacet
  facet normal -0.756151 0.654397 0
    outer loop
      vertex 6.56999 9.67099 1
      vertex 6.05637 9.0775 0
      vertex 6.05637 9.0775 1
    endloop
  endfacet
  facet normal -0.577819 0.816165 0
    outer loop
      vertex 7.2238 10.1339 0
      vertex 6.56999 9.67099 1
      vertex 7.2238 10.1339 1
    endloop
  endfacet
  facet normal -0.577819 0.816165 0
    outer loop
      vertex 6.56999 9.67099 1
      vertex 7.2238 10.1339 0
      vertex 6.56999 9.67099 0
    endloop
  endfacet
  facet normal -0.387133 0.922024 0
    outer loop
      vertex 8.01125 10.4645 0
      vertex 7.2238 10.1339 1
      vertex 8.01125 10.4645 1
    endloop
  endfacet
  facet normal -0.387133 0.922024 0
    outer loop
      vertex 7.2238 10.1339 1
      vertex 8.01125 10.4645 0
      vertex 7.2238 10.1339 0
    endloop
  endfacet
  facet normal -0.210552 0.977583 0
    outer loop
      vertex 8.93231 10.6629 0
      vertex 8.01125 10.4645 1
      vertex 8.93231 10.6629 1
    endloop
  endfacet
  facet normal -0.210552 0.977583 0
    outer loop
      vertex 8.01125 10.4645 1
      vertex 8.93231 10.6629 0
      vertex 8.01125 10.4645 0
    endloop
  endfacet
  facet normal -0.0625653 0.998041 0
    outer loop
      vertex 9.987 10.729 0
      vertex 8.93231 10.6629 1
      vertex 9.987 10.729 1
    endloop
  endfacet
  facet normal -0.0625653 0.998041 0
    outer loop
      vertex 8.93231 10.6629 1
      vertex 9.987 10.729 0
      vertex 8.93231 10.6629 0
    endloop
  endfacet
  facet normal 0.128984 0.991647 -0
    outer loop
      vertex 12.0109 10.4657 0
      vertex 9.987 10.729 1
      vertex 12.0109 10.4657 1
    endloop
  endfacet
  facet normal 0.128984 0.991647 0
    outer loop
      vertex 9.987 10.729 1
      vertex 12.0109 10.4657 0
      vertex 9.987 10.729 0
    endloop
  endfacet
  facet normal 0.479424 0.877584 -0
    outer loop
      vertex 13.4565 9.67599 0
      vertex 12.0109 10.4657 1
      vertex 13.4565 9.67599 1
    endloop
  endfacet
  facet normal 0.479424 0.877584 0
    outer loop
      vertex 12.0109 10.4657 1
      vertex 13.4565 9.67599 0
      vertex 12.0109 10.4657 0
    endloop
  endfacet
  facet normal 0.835005 0.550243 0
    outer loop
      vertex 14.3239 8.35974 1
      vertex 13.4565 9.67599 0
      vertex 13.4565 9.67599 1
    endloop
  endfacet
  facet normal 0.835005 0.550243 0
    outer loop
      vertex 13.4565 9.67599 0
      vertex 14.3239 8.35974 1
      vertex 14.3239 8.35974 0
    endloop
  endfacet
  facet normal 0.987914 0.155002 0
    outer loop
      vertex 14.613 6.517 1
      vertex 14.3239 8.35974 0
      vertex 14.3239 8.35974 1
    endloop
  endfacet
  facet normal 0.987914 0.155002 0
    outer loop
      vertex 14.3239 8.35974 0
      vertex 14.613 6.517 1
      vertex 14.613 6.517 0
    endloop
  endfacet
  facet normal 0.997675 -0.0681528 0
    outer loop
      vertex 14.5396 5.44281 1
      vertex 14.613 6.517 0
      vertex 14.613 6.517 1
    endloop
  endfacet
  facet normal 0.997675 -0.0681528 0
    outer loop
      vertex 14.613 6.517 0
      vertex 14.5396 5.44281 1
      vertex 14.5396 5.44281 0
    endloop
  endfacet
  facet normal 0.972236 -0.234004 0
    outer loop
      vertex 14.3195 4.52824 1
      vertex 14.5396 5.44281 0
      vertex 14.5396 5.44281 1
    endloop
  endfacet
  facet normal 0.972236 -0.234004 0
    outer loop
      vertex 14.5396 5.44281 0
      vertex 14.3195 4.52824 1
      vertex 14.3195 4.52824 0
    endloop
  endfacet
  facet normal 0.899424 -0.437078 0
    outer loop
      vertex 13.9526 3.7733 1
      vertex 14.3195 4.52824 0
      vertex 14.3195 4.52824 1
    endloop
  endfacet
  facet normal 0.899424 -0.437078 0
    outer loop
      vertex 14.3195 4.52824 0
      vertex 13.9526 3.7733 1
      vertex 13.9526 3.7733 0
    endloop
  endfacet
  facet normal 0.757139 -0.653254 0
    outer loop
      vertex 13.439 3.17799 1
      vertex 13.9526 3.7733 0
      vertex 13.9526 3.7733 1
    endloop
  endfacet
  facet normal 0.757139 -0.653254 0
    outer loop
      vertex 13.9526 3.7733 0
      vertex 13.439 3.17799 1
      vertex 13.439 3.17799 0
    endloop
  endfacet
  facet normal 0.567872 -0.823117 0
    outer loop
      vertex 12.7852 2.72693 0
      vertex 13.439 3.17799 1
      vertex 12.7852 2.72693 1
    endloop
  endfacet
  facet normal 0.567872 -0.823117 0
    outer loop
      vertex 13.439 3.17799 1
      vertex 12.7852 2.72693 0
      vertex 13.439 3.17799 0
    endloop
  endfacet
  facet normal 0.378686 -0.925525 0
    outer loop
      vertex 11.9977 2.40474 0
      vertex 12.7852 2.72693 1
      vertex 11.9977 2.40474 1
    endloop
  endfacet
  facet normal 0.378686 -0.925525 0
    outer loop
      vertex 12.7852 2.72693 1
      vertex 11.9977 2.40474 0
      vertex 12.7852 2.72693 0
    endloop
  endfacet
  facet normal 0.205405 -0.978677 0
    outer loop
      vertex 11.0767 2.21143 0
      vertex 11.9977 2.40474 1
      vertex 11.0767 2.21143 1
    endloop
  endfacet
  facet normal 0.205405 -0.978677 0
    outer loop
      vertex 11.9977 2.40474 1
      vertex 11.0767 2.21143 0
      vertex 11.9977 2.40474 0
    endloop
  endfacet
  facet normal 0.0609829 -0.998139 0
    outer loop
      vertex 10.022 2.14699 0
      vertex 11.0767 2.21143 1
      vertex 10.022 2.14699 1
    endloop
  endfacet
  facet normal 0.0609829 -0.998139 0
    outer loop
      vertex 11.0767 2.21143 1
      vertex 10.022 2.14699 0
      vertex 11.0767 2.21143 0
    endloop
  endfacet
  facet normal -0.0670285 -0.997751 0
    outer loop
      vertex 8.9808 2.21693 0
      vertex 10.022 2.14699 1
      vertex 8.9808 2.21693 1
    endloop
  endfacet
  facet normal -0.0670285 -0.997751 -0
    outer loop
      vertex 10.022 2.14699 1
      vertex 8.9808 2.21693 0
      vertex 10.022 2.14699 0
    endloop
  endfacet
  facet normal -0.507886 -0.861424 0
    outer loop
      vertex 6.159 -8.84174 0
      vertex 7.79774 -9.80792 1
      vertex 6.159 -8.84174 1
    endloop
  endfacet
  facet normal -0.507886 -0.861424 -0
    outer loop
      vertex 7.79774 -9.80792 1
      vertex 6.159 -8.84174 0
      vertex 7.79774 -9.80792 0
    endloop
  endfacet
  facet normal -0.853474 -0.521136 0
    outer loop
      vertex 6.159 -8.84174 0
      vertex 5.17574 -7.23143 1
      vertex 5.17574 -7.23143 0
    endloop
  endfacet
  facet normal -0.853474 -0.521136 0
    outer loop
      vertex 5.17574 -7.23143 1
      vertex 6.159 -8.84174 0
      vertex 6.159 -8.84174 1
    endloop
  endfacet
  facet normal -0.989597 -0.143865 0
    outer loop
      vertex 5.17574 -7.23143 0
      vertex 4.84799 -4.97699 1
      vertex 4.84799 -4.97699 0
    endloop
  endfacet
  facet normal -0.989597 -0.143865 0
    outer loop
      vertex 4.84799 -4.97699 1
      vertex 5.17574 -7.23143 0
      vertex 5.17574 -7.23143 1
    endloop
  endfacet
  facet normal -0.996728 0.0808291 0
    outer loop
      vertex 4.84799 -4.97699 0
      vertex 4.93292 -3.92969 1
      vertex 4.93292 -3.92969 0
    endloop
  endfacet
  facet normal -0.996728 0.0808291 0
    outer loop
      vertex 4.93292 -3.92969 1
      vertex 4.84799 -4.97699 0
      vertex 4.84799 -4.97699 1
    endloop
  endfacet
  facet normal -0.964374 0.264542 0
    outer loop
      vertex 4.93292 -3.92969 0
      vertex 5.18774 -3.00075 1
      vertex 5.18774 -3.00075 0
    endloop
  endfacet
  facet normal -0.964374 0.264542 0
    outer loop
      vertex 5.18774 -3.00075 1
      vertex 4.93292 -3.92969 0
      vertex 4.93292 -3.92969 1
    endloop
  endfacet
  facet normal -0.885786 0.464095 0
    outer loop
      vertex 5.18774 -3.00075 0
      vertex 5.61243 -2.19019 1
      vertex 5.61243 -2.19019 0
    endloop
  endfacet
  facet normal -0.885786 0.464095 0
    outer loop
      vertex 5.61243 -2.19019 1
      vertex 5.18774 -3.00075 0
      vertex 5.18774 -3.00075 1
    endloop
  endfacet
  facet normal -0.758582 0.651577 0
    outer loop
      vertex 5.61243 -2.19019 0
      vertex 6.20699 -1.49799 1
      vertex 6.20699 -1.49799 0
    endloop
  endfacet
  facet normal -0.758582 0.651577 0
    outer loop
      vertex 6.20699 -1.49799 1
      vertex 5.61243 -2.19019 0
      vertex 5.61243 -2.19019 1
    endloop
  endfacet
  facet normal -0.596007 0.802979 0
    outer loop
      vertex 6.95319 -0.944122 0
      vertex 6.20699 -1.49799 1
      vertex 6.95319 -0.944122 1
    endloop
  endfacet
  facet normal -0.596007 0.802979 0
    outer loop
      vertex 6.20699 -1.49799 1
      vertex 6.95319 -0.944122 0
      vertex 6.20699 -1.49799 0
    endloop
  endfacet
  facet normal -0.410606 0.911813 0
    outer loop
      vertex 7.83174 -0.548492 0
      vertex 6.95319 -0.944122 1
      vertex 7.83174 -0.548492 1
    endloop
  endfacet
  facet normal -0.410606 0.911813 0
    outer loop
      vertex 6.95319 -0.944122 1
      vertex 7.83174 -0.548492 0
      vertex 6.95319 -0.944122 0
    endloop
  endfacet
  facet normal -0.228595 0.973522 0
    outer loop
      vertex 8.84268 -0.311111 0
      vertex 7.83174 -0.548492 1
      vertex 8.84268 -0.311111 1
    endloop
  endfacet
  facet normal -0.228595 0.973522 0
    outer loop
      vertex 7.83174 -0.548492 1
      vertex 8.84268 -0.311111 0
      vertex 7.83174 -0.548492 0
    endloop
  endfacet
  facet normal -0.0690347 0.997614 0
    outer loop
      vertex 9.98599 -0.231995 0
      vertex 8.84268 -0.311111 1
      vertex 9.98599 -0.231995 1
    endloop
  endfacet
  facet normal -0.0690347 0.997614 0
    outer loop
      vertex 8.84268 -0.311111 1
      vertex 9.98599 -0.231995 0
      vertex 8.84268 -0.311111 0
    endloop
  endfacet
  facet normal 0.062513 0.998044 -0
    outer loop
      vertex 11.1614 -0.305618 0
      vertex 9.98599 -0.231995 1
      vertex 11.1614 -0.305618 1
    endloop
  endfacet
  facet normal 0.062513 0.998044 0
    outer loop
      vertex 9.98599 -0.231995 1
      vertex 11.1614 -0.305618 0
      vertex 9.98599 -0.231995 0
    endloop
  endfacet
  facet normal 0.208449 0.978033 -0
    outer loop
      vertex 12.1977 -0.526489 0
      vertex 11.1614 -0.305618 1
      vertex 12.1977 -0.526489 1
    endloop
  endfacet
  facet normal 0.208449 0.978033 0
    outer loop
      vertex 11.1614 -0.305618 1
      vertex 12.1977 -0.526489 0
      vertex 11.1614 -0.305618 0
    endloop
  endfacet
  facet normal 0.379607 0.925148 -0
    outer loop
      vertex 13.0949 -0.894623 0
      vertex 12.1977 -0.526489 1
      vertex 13.0949 -0.894623 1
    endloop
  endfacet
  facet normal 0.379607 0.925148 0
    outer loop
      vertex 12.1977 -0.526489 1
      vertex 13.0949 -0.894623 0
      vertex 12.1977 -0.526489 0
    endloop
  endfacet
  facet normal 0.562218 0.826989 -0
    outer loop
      vertex 13.853 -1.40999 0
      vertex 13.0949 -0.894623 1
      vertex 13.853 -1.40999 1
    endloop
  endfacet
  facet normal 0.562218 0.826989 0
    outer loop
      vertex 13.0949 -0.894623 1
      vertex 13.853 -1.40999 0
      vertex 13.0949 -0.894623 0
    endloop
  endfacet
  facet normal 0.738555 0.674194 0
    outer loop
      vertex 14.4554 -2.06993 1
      vertex 13.853 -1.40999 0
      vertex 13.853 -1.40999 1
    endloop
  endfacet
  facet normal 0.738555 0.674194 0
    outer loop
      vertex 13.853 -1.40999 0
      vertex 14.4554 -2.06993 1
      vertex 14.4554 -2.06993 0
    endloop
  endfacet
  facet normal 0.881372 0.472423 0
    outer loop
      vertex 14.8857 -2.87274 1
      vertex 14.4554 -2.06993 0
      vertex 14.4554 -2.06993 1
    endloop
  endfacet
  facet normal 0.881372 0.472423 0
    outer loop
      vertex 14.4554 -2.06993 0
      vertex 14.8857 -2.87274 1
      vertex 14.8857 -2.87274 0
    endloop
  endfacet
  facet normal 0.964692 0.263381 0
    outer loop
      vertex 15.1439 -3.81844 1
      vertex 14.8857 -2.87274 0
      vertex 14.8857 -2.87274 1
    endloop
  endfacet
  facet normal 0.964692 0.263381 0
    outer loop
      vertex 14.8857 -2.87274 0
      vertex 15.1439 -3.81844 1
      vertex 15.1439 -3.81844 0
    endloop
  endfacet
  facet normal 0.996889 0.0788121 0
    outer loop
      vertex 15.23 -4.907 1
      vertex 15.1439 -3.81844 0
      vertex 15.1439 -3.81844 1
    endloop
  endfacet
  facet normal 0.996889 0.0788121 0
    outer loop
      vertex 15.1439 -3.81844 0
      vertex 15.23 -4.907 1
      vertex 15.23 -4.907 0
    endloop
  endfacet
  facet normal 0.998049 -0.0624417 0
    outer loop
      vertex 15.1505 -6.17767 1
      vertex 15.23 -4.907 0
      vertex 15.23 -4.907 1
    endloop
  endfacet
  facet normal 0.998049 -0.0624417 0
    outer loop
      vertex 15.23 -4.907 0
      vertex 15.1505 -6.17767 1
      vertex 15.1505 -6.17767 0
    endloop
  endfacet
  facet normal 0.976725 -0.214496 0
    outer loop
      vertex 14.912 -7.26375 1
      vertex 15.1505 -6.17767 0
      vertex 15.1505 -6.17767 1
    endloop
  endfacet
  facet normal 0.976725 -0.214496 0
    outer loop
      vertex 15.1505 -6.17767 0
      vertex 14.912 -7.26375 1
      vertex 14.912 -7.26375 0
    endloop
  endfacet
  facet normal 0.914992 -0.403472 0
    outer loop
      vertex 14.5145 -8.16518 1
      vertex 14.912 -7.26375 0
      vertex 14.912 -7.26375 1
    endloop
  endfacet
  facet normal 0.914992 -0.403472 0
    outer loop
      vertex 14.912 -7.26375 0
      vertex 14.5145 -8.16518 1
      vertex 14.5145 -8.16518 0
    endloop
  endfacet
  facet normal 0.789895 -0.613242 0
    outer loop
      vertex 13.958 -8.88199 1
      vertex 14.5145 -8.16518 0
      vertex 14.5145 -8.16518 1
    endloop
  endfacet
  facet normal 0.789895 -0.613242 0
    outer loop
      vertex 14.5145 -8.16518 0
      vertex 13.958 -8.88199 1
      vertex 13.958 -8.88199 0
    endloop
  endfacet
  facet normal 0.60518 -0.796089 0
    outer loop
      vertex 13.2397 -9.42799 0
      vertex 13.958 -8.88199 1
      vertex 13.2397 -9.42799 1
    endloop
  endfacet
  facet normal 0.60518 -0.796089 0
    outer loop
      vertex 13.958 -8.88199 1
      vertex 13.2397 -9.42799 0
      vertex 13.958 -8.88199 0
    endloop
  endfacet
  facet normal 0.403732 -0.914877 0
    outer loop
      vertex 12.356 -9.81799 0
      vertex 13.2397 -9.42799 1
      vertex 12.356 -9.81799 1
    endloop
  endfacet
  facet normal 0.403732 -0.914877 0
    outer loop
      vertex 13.2397 -9.42799 1
      vertex 12.356 -9.81799 0
      vertex 13.2397 -9.42799 0
    endloop
  endfacet
  facet normal 0.217665 -0.976023 0
    outer loop
      vertex 11.3067 -10.052 0
      vertex 12.356 -9.81799 1
      vertex 11.3067 -10.052 1
    endloop
  endfacet
  facet normal 0.217665 -0.976023 0
    outer loop
      vertex 12.356 -9.81799 1
      vertex 11.3067 -10.052 0
      vertex 12.356 -9.81799 0
    endloop
  endfacet
  facet normal 0.0640811 -0.997945 0
    outer loop
      vertex 10.092 -10.13 0
      vertex 11.3067 -10.052 1
      vertex 10.092 -10.13 1
    endloop
  endfacet
  facet normal 0.0640811 -0.997945 0
    outer loop
      vertex 11.3067 -10.052 1
      vertex 10.092 -10.13 0
      vertex 11.3067 -10.052 0
    endloop
  endfacet
  facet normal -0.139017 -0.99029 0
    outer loop
      vertex 7.79774 -9.80792 0
      vertex 10.092 -10.13 1
      vertex 7.79774 -9.80792 1
    endloop
  endfacet
  facet normal -0.139017 -0.99029 -0
    outer loop
      vertex 10.092 -10.13 1
      vertex 7.79774 -9.80792 0
      vertex 10.092 -10.13 0
    endloop
  endfacet
  facet normal 0 -1 0
    outer loop
      vertex -7.32849 -9.42799 0
      vertex -1.28348 -9.42799 1
      vertex -7.32849 -9.42799 1
    endloop
  endfacet
  facet normal 0 -1 -0
    outer loop
      vertex -1.28348 -9.42799 1
      vertex -7.32849 -9.42799 0
      vertex -1.28348 -9.42799 0
    endloop
  endfacet
  facet normal -1 0 0
    outer loop
      vertex -7.32849 -9.42799 0
      vertex -7.32849 12.707 1
      vertex -7.32849 12.707 0
    endloop
  endfacet
  facet normal -1 -0 0
    outer loop
      vertex -7.32849 12.707 1
      vertex -7.32849 -9.42799 0
      vertex -7.32849 -9.42799 1
    endloop
  endfacet
  facet normal 0 -1 0
    outer loop
      vertex -10.2545 12.707 0
      vertex -7.32849 12.707 1
      vertex -10.2545 12.707 1
    endloop
  endfacet
  facet normal 0 -1 -0
    outer loop
      vertex -7.32849 12.707 1
      vertex -10.2545 12.707 0
      vertex -7.32849 12.707 0
    endloop
  endfacet
  facet normal 0.567296 -0.823514 0
    outer loop
      vertex -16.1235 8.66399 0
      vertex -10.2545 12.707 1
      vertex -16.1235 8.66399 1
    endloop
  endfacet
  facet normal 0.567296 -0.823514 0
    outer loop
      vertex -10.2545 12.707 1
      vertex -16.1235 8.66399 0
      vertex -10.2545 12.707 0
    endloop
  endfacet
  facet normal 1 -0 0
    outer loop
      vertex -16.1235 5.66699 1
      vertex -16.1235 8.66399 0
      vertex -16.1235 8.66399 1
    endloop
  endfacet
  facet normal 1 0 0
    outer loop
      vertex -16.1235 8.66399 0
      vertex -16.1235 5.66699 1
      vertex -16.1235 5.66699 0
    endloop
  endfacet
  facet normal -0.581663 0.81343 0
    outer loop
      vertex -10.5185 9.67499 0
      vertex -16.1235 5.66699 1
      vertex -10.5185 9.67499 1
    endloop
  endfacet
  facet normal -0.581663 0.81343 0
    outer loop
      vertex -16.1235 5.66699 1
      vertex -10.5185 9.67499 0
      vertex -16.1235 5.66699 0
    endloop
  endfacet
  facet normal 1 -0 0
    outer loop
      vertex -10.5185 -9.42799 1
      vertex -10.5185 9.67499 0
      vertex -10.5185 9.67499 1
    endloop
  endfacet
  facet normal 1 0 0
    outer loop
      vertex -10.5185 9.67499 0
      vertex -10.5185 -9.42799 1
      vertex -10.5185 -9.42799 0
    endloop
  endfacet
  facet normal 0 -1 0
    outer loop
      vertex -16.8455 -9.42799 0
      vertex -10.5185 -9.42799 1
      vertex -16.8455 -9.42799 1
    endloop
  endfacet
  facet normal 0 -1 -0
    outer loop
      vertex -10.5185 -9.42799 1
      vertex -16.8455 -9.42799 0
      vertex -10.5185 -9.42799 0
    endloop
  endfacet
  facet normal 1 -0 0
    outer loop
      vertex -16.8455 -12.125 1
      vertex -16.8455 -9.42799 0
      vertex -16.8455 -9.42799 1
    endloop
  endfacet
  facet normal 1 0 0
    outer loop
      vertex -16.8455 -9.42799 0
      vertex -16.8455 -12.125 1
      vertex -16.8455 -12.125 0
    endloop
  endfacet
  facet normal 0 1 -0
    outer loop
      vertex -1.28348 -12.125 0
      vertex -16.8455 -12.125 1
      vertex -1.28348 -12.125 1
    endloop
  endfacet
  facet normal 0 1 0
    outer loop
      vertex -16.8455 -12.125 1
      vertex -1.28348 -12.125 0
      vertex -16.8455 -12.125 0
    endloop
  endfacet
  facet normal -1 0 0
    outer loop
      vertex -1.28348 -12.125 0
      vertex -1.28348 -9.42799 1
      vertex -1.28348 -9.42799 0
    endloop
  endfacet
  facet normal -1 -0 0
    outer loop
      vertex -1.28348 -9.42799 1
      vertex -1.28348 -12.125 0
      vertex -1.28348 -12.125 1
    endloop
  endfacet
endsolid OpenSCAD_Model
