solid OpenSCAD_Model
  facet normal 1 -0 0
    outer loop
      vertex 5 0 12
      vertex 5 20 6
      vertex 5 20 12
    endloop
  endfacet
  facet normal 1 0 0
    outer loop
      vertex 5 20 6
      vertex 5 0 12
      vertex 5 0 6
    endloop
  endfacet
  facet normal 0 0 -1
    outer loop
      vertex 5 0 12
      vertex 15 20 12
      vertex 15 0 12
    endloop
  endfacet
  facet normal -0 0 -1
    outer loop
      vertex 15 20 12
      vertex 5 0 12
      vertex 5 20 12
    endloop
  endfacet
  facet normal -1 0 0
    outer loop
      vertex 15 0 6
      vertex 15 20 12
      vertex 15 20 6
    endloop
  endfacet
  facet normal -1 -0 0
    outer loop
      vertex 15 20 12
      vertex 15 0 6
      vertex 15 0 12
    endloop
  endfacet
  facet normal 0 1 -0
    outer loop
      vertex 10 20 2
      vertex 7 20 3
      vertex 10 20 3
    endloop
  endfacet
  facet normal 0 1 0
    outer loop
      vertex 7 20 3
      vertex 10 20 2
      vertex 7 20 2
    endloop
  endfacet
  facet normal 0 1 -0
    outer loop
      vertex 15 20 2
      vertex 12 20 3
      vertex 15 20 3
    endloop
  endfacet
  facet normal 0 1 0
    outer loop
      vertex 12 20 3
      vertex 15 20 2
      vertex 12 20 2
    endloop
  endfacet
  facet normal 0 1 0
    outer loop
      vertex 20 20 26
      vertex 15 20 12
      vertex 0 20 26
    endloop
  endfacet
  facet normal 0 1 -0
    outer loop
      vertex 20 20 0
      vertex 15 20 12
      vertex 20 20 26
    endloop
  endfacet
  facet normal 0 1 0
    outer loop
      vertex 15 20 3
      vertex 15 20 6
      vertex 17 20 3
    endloop
  endfacet
  facet normal 0 1 0
    outer loop
      vertex 15 20 12
      vertex 17 20 3
      vertex 15 20 6
    endloop
  endfacet
  facet normal 0 1 0
    outer loop
      vertex 15 20 12
      vertex 20 20 0
      vertex 17 20 3
    endloop
  endfacet
  facet normal 0 1 0
    outer loop
      vertex 20 20 0
      vertex 15 20 2
      vertex 17 20 2
    endloop
  endfacet
  facet normal 0 1 0
    outer loop
      vertex 15 20 2
      vertex 20 20 0
      vertex 12 20 2
    endloop
  endfacet
  facet normal 0 1 0
    outer loop
      vertex 12 20 2
      vertex 20 20 0
      vertex 10 20 2
    endloop
  endfacet
  facet normal 0 1 0
    outer loop
      vertex 0 20 0
      vertex 10 20 2
      vertex 20 20 0
    endloop
  endfacet
  facet normal 0 1 0
    outer loop
      vertex 10 20 2
      vertex 0 20 0
      vertex 7 20 2
    endloop
  endfacet
  facet normal 0 1 0
    outer loop
      vertex 17 20 3
      vertex 20 20 0
      vertex 17 20 2
    endloop
  endfacet
  facet normal 0 1 -0
    outer loop
      vertex 5 20 12
      vertex 0 20 26
      vertex 15 20 12
    endloop
  endfacet
  facet normal 0 1 0
    outer loop
      vertex 0 20 0
      vertex 5 20 12
      vertex 5 20 6
    endloop
  endfacet
  facet normal 0 1 0
    outer loop
      vertex 12 20 3
      vertex 15 20 6
      vertex 15 20 3
    endloop
  endfacet
  facet normal 0 1 0
    outer loop
      vertex 10 20 3
      vertex 15 20 6
      vertex 12 20 3
    endloop
  endfacet
  facet normal 0 1 0
    outer loop
      vertex 15 20 6
      vertex 10 20 3
      vertex 5 20 6
    endloop
  endfacet
  facet normal 0 1 -0
    outer loop
      vertex 7 20 3
      vertex 5 20 6
      vertex 10 20 3
    endloop
  endfacet
  facet normal 0 1 0
    outer loop
      vertex 5 20 3
      vertex 5 20 6
      vertex 7 20 3
    endloop
  endfacet
  facet normal 0 1 0
    outer loop
      vertex 0 20 0
      vertex 5 20 6
      vertex 5 20 3
    endloop
  endfacet
  facet normal 0 1 0
    outer loop
      vertex 0 20 0
      vertex 5 20 3
      vertex 5 20 2
    endloop
  endfacet
  facet normal 0 1 0
    outer loop
      vertex 5 20 12
      vertex 0 20 0
      vertex 0 20 26
    endloop
  endfacet
  facet normal 0 1 0
    outer loop
      vertex 7 20 2
      vertex 0 20 0
      vertex 5 20 2
    endloop
  endfacet
  facet normal -0 0 1
    outer loop
      vertex 5 20 6
      vertex 15 0 6
      vertex 15 20 6
    endloop
  endfacet
  facet normal 0 0 1
    outer loop
      vertex 15 0 6
      vertex 5 20 6
      vertex 5 0 6
    endloop
  endfacet
  facet normal 0 -1 0
    outer loop
      vertex 12 0 2
      vertex 15 0 3
      vertex 12 0 3
    endloop
  endfacet
  facet normal 0 -1 -0
    outer loop
      vertex 15 0 3
      vertex 12 0 2
      vertex 15 0 2
    endloop
  endfacet
  facet normal 0 -1 0
    outer loop
      vertex 7 0 2
      vertex 10 0 3
      vertex 7 0 3
    endloop
  endfacet
  facet normal 0 -1 -0
    outer loop
      vertex 10 0 3
      vertex 7 0 2
      vertex 10 0 2
    endloop
  endfacet
  facet normal 0 -1 0
    outer loop
      vertex 0 0 26
      vertex 5 0 12
      vertex 20 0 26
    endloop
  endfacet
  facet normal 0 -1 0
    outer loop
      vertex 0 0 0
      vertex 5 0 12
      vertex 0 0 26
    endloop
  endfacet
  facet normal 0 -1 0
    outer loop
      vertex 7 0 3
      vertex 5 0 6
      vertex 5 0 3
    endloop
  endfacet
  facet normal 0 -1 -0
    outer loop
      vertex 5 0 12
      vertex 0 0 0
      vertex 5 0 6
    endloop
  endfacet
  facet normal 0 -1 -0
    outer loop
      vertex 5 0 6
      vertex 0 0 0
      vertex 5 0 3
    endloop
  endfacet
  facet normal 0 -1 0
    outer loop
      vertex 0 0 0
      vertex 7 0 2
      vertex 5 0 2
    endloop
  endfacet
  facet normal 0 -1 -0
    outer loop
      vertex 7 0 2
      vertex 0 0 0
      vertex 10 0 2
    endloop
  endfacet
  facet normal 0 -1 0
    outer loop
      vertex 20 0 0
      vertex 10 0 2
      vertex 0 0 0
    endloop
  endfacet
  facet normal 0 -1 0
    outer loop
      vertex 12 0 2
      vertex 20 0 0
      vertex 15 0 2
    endloop
  endfacet
  facet normal 0 -1 0
    outer loop
      vertex 10 0 2
      vertex 20 0 0
      vertex 12 0 2
    endloop
  endfacet
  facet normal 0 -1 -0
    outer loop
      vertex 5 0 3
      vertex 0 0 0
      vertex 5 0 2
    endloop
  endfacet
  facet normal 0 -1 0
    outer loop
      vertex 15 0 12
      vertex 20 0 26
      vertex 5 0 12
    endloop
  endfacet
  facet normal 0 -1 0
    outer loop
      vertex 17 0 3
      vertex 15 0 12
      vertex 15 0 6
    endloop
  endfacet
  facet normal 0 -1 0
    outer loop
      vertex 10 0 3
      vertex 5 0 6
      vertex 7 0 3
    endloop
  endfacet
  facet normal 0 -1 0
    outer loop
      vertex 5 0 6
      vertex 10 0 3
      vertex 15 0 6
    endloop
  endfacet
  facet normal 0 -1 0
    outer loop
      vertex 12 0 3
      vertex 15 0 6
      vertex 10 0 3
    endloop
  endfacet
  facet normal 0 -1 0
    outer loop
      vertex 15 0 3
      vertex 15 0 6
      vertex 12 0 3
    endloop
  endfacet
  facet normal 0 -1 0
    outer loop
      vertex 17 0 3
      vertex 15 0 6
      vertex 15 0 3
    endloop
  endfacet
  facet normal 0 -1 0
    outer loop
      vertex 20 0 0
      vertex 15 0 12
      vertex 17 0 3
    endloop
  endfacet
  facet normal 0 -1 0
    outer loop
      vertex 20 0 0
      vertex 17 0 3
      vertex 17 0 2
    endloop
  endfacet
  facet normal 0 -1 0
    outer loop
      vertex 15 0 12
      vertex 20 0 0
      vertex 20 0 26
    endloop
  endfacet
  facet normal 0 -1 0
    outer loop
      vertex 15 0 2
      vertex 20 0 0
      vertex 17 0 2
    endloop
  endfacet
  facet normal 1 -0 0
    outer loop
      vertex 5 0 3
      vertex 5 20 2
      vertex 5 20 3
    endloop
  endfacet
  facet normal 1 0 0
    outer loop
      vertex 5 20 2
      vertex 5 0 3
      vertex 5 0 2
    endloop
  endfacet
  facet normal 0 0 -1
    outer loop
      vertex 5 0 3
      vertex 7 20 3
      vertex 7 0 3
    endloop
  endfacet
  facet normal -0 0 -1
    outer loop
      vertex 7 20 3
      vertex 5 0 3
      vertex 5 20 3
    endloop
  endfacet
  facet normal -1 0 0
    outer loop
      vertex 7 0 2
      vertex 7 20 3
      vertex 7 20 2
    endloop
  endfacet
  facet normal -1 -0 0
    outer loop
      vertex 7 20 3
      vertex 7 0 2
      vertex 7 0 3
    endloop
  endfacet
  facet normal -0 0 1
    outer loop
      vertex 5 20 2
      vertex 7 0 2
      vertex 7 20 2
    endloop
  endfacet
  facet normal 0 0 1
    outer loop
      vertex 7 0 2
      vertex 5 20 2
      vertex 5 0 2
    endloop
  endfacet
  facet normal -1 0 0
    outer loop
      vertex 0 20 0
      vertex 0 15 13
      vertex 0 20 26
    endloop
  endfacet
  facet normal -1 0 0
    outer loop
      vertex 0 20 0
      vertex 0 5 13
      vertex 0 15 13
    endloop
  endfacet
  facet normal -1 0 0
    outer loop
      vertex 0 0 26
      vertex 0 5 13
      vertex 0 0 0
    endloop
  endfacet
  facet normal -1 0 0
    outer loop
      vertex 0 0 0
      vertex 0 5 13
      vertex 0 20 0
    endloop
  endfacet
  facet normal -1 0 0
    outer loop
      vertex 0 15 19
      vertex 0 20 26
      vertex 0 15 13
    endloop
  endfacet
  facet normal -1 0 0
    outer loop
      vertex 0 5 19
      vertex 0 20 26
      vertex 0 15 19
    endloop
  endfacet
  facet normal -1 0 0
    outer loop
      vertex 0 5 19
      vertex 0 0 26
      vertex 0 20 26
    endloop
  endfacet
  facet normal -1 0 0
    outer loop
      vertex 0 5 13
      vertex 0 0 26
      vertex 0 5 19
    endloop
  endfacet
  facet normal 0 0 -1
    outer loop
      vertex 0 5 19
      vertex 20 15 19
      vertex 20 5 19
    endloop
  endfacet
  facet normal -0 0 -1
    outer loop
      vertex 20 15 19
      vertex 0 5 19
      vertex 0 15 19
    endloop
  endfacet
  facet normal 1 0 0
    outer loop
      vertex 20 15 13
      vertex 20 20 26
      vertex 20 15 19
    endloop
  endfacet
  facet normal 1 0 0
    outer loop
      vertex 20 20 26
      vertex 20 5 19
      vertex 20 15 19
    endloop
  endfacet
  facet normal 1 0 0
    outer loop
      vertex 20 5 19
      vertex 20 0 26
      vertex 20 5 13
    endloop
  endfacet
  facet normal 1 -0 0
    outer loop
      vertex 20 0 26
      vertex 20 5 19
      vertex 20 20 26
    endloop
  endfacet
  facet normal 1 0 0
    outer loop
      vertex 20 20 26
      vertex 20 15 13
      vertex 20 20 0
    endloop
  endfacet
  facet normal 1 -0 0
    outer loop
      vertex 20 5 13
      vertex 20 20 0
      vertex 20 15 13
    endloop
  endfacet
  facet normal 1 0 0
    outer loop
      vertex 20 5 13
      vertex 20 0 0
      vertex 20 20 0
    endloop
  endfacet
  facet normal 1 0 0
    outer loop
      vertex 20 0 0
      vertex 20 5 13
      vertex 20 0 26
    endloop
  endfacet
  facet normal -0 0 1
    outer loop
      vertex 0 15 13
      vertex 20 5 13
      vertex 20 15 13
    endloop
  endfacet
  facet normal 0 0 1
    outer loop
      vertex 20 5 13
      vertex 0 15 13
      vertex 0 5 13
    endloop
  endfacet
  facet normal 0 1 -0
    outer loop
      vertex 20 5 13
      vertex 0 5 19
      vertex 20 5 19
    endloop
  endfacet
  facet normal 0 1 0
    outer loop
      vertex 0 5 19
      vertex 20 5 13
      vertex 0 5 13
    endloop
  endfacet
  facet normal 0 -1 0
    outer loop
      vertex 0 15 13
      vertex 20 15 19
      vertex 0 15 19
    endloop
  endfacet
  facet normal 0 -1 -0
    outer loop
      vertex 20 15 19
      vertex 0 15 13
      vertex 20 15 13
    endloop
  endfacet
  facet normal 1 -0 0
    outer loop
      vertex 10 0 3
      vertex 10 20 2
      vertex 10 20 3
    endloop
  endfacet
  facet normal 1 0 0
    outer loop
      vertex 10 20 2
      vertex 10 0 3
      vertex 10 0 2
    endloop
  endfacet
  facet normal 0 0 -1
    outer loop
      vertex 10 0 3
      vertex 12 20 3
      vertex 12 0 3
    endloop
  endfacet
  facet normal -0 0 -1
    outer loop
      vertex 12 20 3
      vertex 10 0 3
      vertex 10 20 3
    endloop
  endfacet
  facet normal -1 0 0
    outer loop
      vertex 12 0 2
      vertex 12 20 3
      vertex 12 20 2
    endloop
  endfacet
  facet normal -1 -0 0
    outer loop
      vertex 12 20 3
      vertex 12 0 2
      vertex 12 0 3
    endloop
  endfacet
  facet normal -0 0 1
    outer loop
      vertex 10 20 2
      vertex 12 0 2
      vertex 12 20 2
    endloop
  endfacet
  facet normal 0 0 1
    outer loop
      vertex 12 0 2
      vertex 10 20 2
      vertex 10 0 2
    endloop
  endfacet
  facet normal 0 -1 0
    outer loop
      vertex 2.55532e-009 20 20
      vertex 7.07107 20 26
      vertex 2.55532e-009 20 26
    endloop
  endfacet
  facet normal 0 -1 -0
    outer loop
      vertex 7.07107 20 26
      vertex 2.55532e-009 20 20
      vertex 7.07107 20 20
    endloop
  endfacet
  facet normal 0 0 1
    outer loop
      vertex 20 20 26
      vertex 7.07107 20 26
      vertex 20 7.07107 26
    endloop
  endfacet
  facet normal -0 0 1
    outer loop
      vertex 12.9289 2.55532e-009 26
      vertex 20 0 26
      vertex 20 2.55532e-009 26
    endloop
  endfacet
  facet normal -0 0 1
    outer loop
      vertex 0 20 26
      vertex 2.55532e-009 12.9289 26
      vertex 2.55532e-009 20 26
    endloop
  endfacet
  facet normal 0 0 1
    outer loop
      vertex 12.9289 2.55532e-009 26
      vertex 0 0 26
      vertex 20 0 26
    endloop
  endfacet
  facet normal 0 0 1
    outer loop
      vertex 2.55532e-009 12.9289 26
      vertex 0 0 26
      vertex 12.9289 2.55532e-009 26
    endloop
  endfacet
  facet normal 0 0 1
    outer loop
      vertex 0 0 26
      vertex 2.55532e-009 12.9289 26
      vertex 0 20 26
    endloop
  endfacet
  facet normal 0 0 0
    outer loop
      vertex 20 20 26
      vertex 20 7.07107 26
      vertex 20 2.55532e-009 26
    endloop
  endfacet
  facet normal 0 0 0
    outer loop
      vertex 0 20 26
      vertex 2.55532e-009 20 26
      vertex 7.07107 20 26
    endloop
  endfacet
  facet normal 0 0 0
    outer loop
      vertex 20 2.55532e-009 26
      vertex 20 0 26
      vertex 20 20 26
    endloop
  endfacet
  facet normal 0 0 0
    outer loop
      vertex 0 20 26
      vertex 7.07107 20 26
      vertex 20 20 26
    endloop
  endfacet
  facet normal -9.42055e-017 1 0
    outer loop
      vertex 20 2.55532e-009 20
      vertex 12.9289 2.55532e-009 26
      vertex 20 2.55532e-009 26
    endloop
  endfacet
  facet normal -9.42055e-017 1 0
    outer loop
      vertex 12.9289 2.55532e-009 26
      vertex 20 2.55532e-009 20
      vertex 12.9289 2.55532e-009 20
    endloop
  endfacet
  facet normal 0 0 1
    outer loop
      vertex 20 7.07107 20
      vertex 12.9289 2.55532e-009 20
      vertex 20 2.55532e-009 20
    endloop
  endfacet
  facet normal 0 0 1
    outer loop
      vertex 7.07107 20 20
      vertex 12.9289 2.55532e-009 20
      vertex 20 7.07107 20
    endloop
  endfacet
  facet normal 0 0 1
    outer loop
      vertex 7.07107 20 20
      vertex 2.55532e-009 12.9289 20
      vertex 12.9289 2.55532e-009 20
    endloop
  endfacet
  facet normal 0 -0 1
    outer loop
      vertex 2.55532e-009 12.9289 20
      vertex 7.07107 20 20
      vertex 2.55532e-009 20 20
    endloop
  endfacet
  facet normal -1 0 0
    outer loop
      vertex 20 2.55532e-009 20
      vertex 20 7.07107 26
      vertex 20 7.07107 20
    endloop
  endfacet
  facet normal -1 -0 0
    outer loop
      vertex 20 7.07107 26
      vertex 20 2.55532e-009 20
      vertex 20 2.55532e-009 26
    endloop
  endfacet
  facet normal 1 6.28037e-017 0
    outer loop
      vertex 2.55532e-009 12.9289 26
      vertex 2.55532e-009 20 20
      vertex 2.55532e-009 20 26
    endloop
  endfacet
  facet normal 1 6.28037e-017 0
    outer loop
      vertex 2.55532e-009 20 20
      vertex 2.55532e-009 12.9289 26
      vertex 2.55532e-009 12.9289 20
    endloop
  endfacet
  facet normal 0.707107 0.707107 0
    outer loop
      vertex 12.9289 2.55532e-009 26
      vertex 2.55532e-009 12.9289 20
      vertex 2.55532e-009 12.9289 26
    endloop
  endfacet
  facet normal 0.707107 0.707107 0
    outer loop
      vertex 2.55532e-009 12.9289 20
      vertex 12.9289 2.55532e-009 26
      vertex 12.9289 2.55532e-009 20
    endloop
  endfacet
  facet normal -0.707107 -0.707107 0
    outer loop
      vertex 20 7.07107 20
      vertex 7.07107 20 26
      vertex 7.07107 20 20
    endloop
  endfacet
  facet normal -0.707107 -0.707107 0
    outer loop
      vertex 7.07107 20 26
      vertex 20 7.07107 20
      vertex 20 7.07107 26
    endloop
  endfacet
  facet normal 1 -0 0
    outer loop
      vertex 15 0 3
      vertex 15 20 2
      vertex 15 20 3
    endloop
  endfacet
  facet normal 1 0 0
    outer loop
      vertex 15 20 2
      vertex 15 0 3
      vertex 15 0 2
    endloop
  endfacet
  facet normal 0 0 -1
    outer loop
      vertex 15 0 3
      vertex 17 20 3
      vertex 17 0 3
    endloop
  endfacet
  facet normal -0 0 -1
    outer loop
      vertex 17 20 3
      vertex 15 0 3
      vertex 15 20 3
    endloop
  endfacet
  facet normal -1 0 0
    outer loop
      vertex 17 0 2
      vertex 17 20 3
      vertex 17 20 2
    endloop
  endfacet
  facet normal -1 -0 0
    outer loop
      vertex 17 20 3
      vertex 17 0 2
      vertex 17 0 3
    endloop
  endfacet
  facet normal -0 0 1
    outer loop
      vertex 15 20 2
      vertex 17 0 2
      vertex 17 20 2
    endloop
  endfacet
  facet normal 0 0 1
    outer loop
      vertex 17 0 2
      vertex 15 20 2
      vertex 15 0 2
    endloop
  endfacet
  facet normal 0 0 -1
    outer loop
      vertex 0 0 0
      vertex 20 20 0
      vertex 20 0 0
    endloop
  endfacet
  facet normal -0 0 -1
    outer loop
      vertex 20 20 0
      vertex 0 0 0
      vertex 0 20 0
    endloop
  endfacet
endsolid OpenSCAD_Model
