solid OpenSCAD_Model
  facet normal 0.125337 0.992114 -0
    outer loop
      vertex 22.1558 24.938 0
      vertex 21.7198 24.9931 10
      vertex 22.1558 24.938 10
    endloop
  endfacet
  facet normal 0.125337 0.992114 0
    outer loop
      vertex 21.7198 24.9931 10
      vertex 22.1558 24.938 0
      vertex 21.7198 24.9931 0
    endloop
  endfacet
  facet normal 0.982288 0.187379 0
    outer loop
      vertex 24.9724 21.9387 10
      vertex 24.89 22.3704 0
      vertex 24.89 22.3704 10
    endloop
  endfacet
  facet normal 0.982288 0.187379 0
    outer loop
      vertex 24.89 22.3704 0
      vertex 24.9724 21.9387 10
      vertex 24.9724 21.9387 0
    endloop
  endfacet
  facet normal -0.125335 -0.992114 0
    outer loop
      vertex 2.84416 0.0619946 0
      vertex 3.28023 0.00690556 10
      vertex 2.84416 0.0619946 10
    endloop
  endfacet
  facet normal -0.125335 -0.992114 -0
    outer loop
      vertex 3.28023 0.00690556 10
      vertex 2.84416 0.0619946 0
      vertex 3.28023 0.00690556 0
    endloop
  endfacet
  facet normal 0.904828 -0.425777 0
    outer loop
      vertex 24.5671 1.81386 10
      vertex 24.7542 2.21156 0
      vertex 24.7542 2.21156 10
    endloop
  endfacet
  facet normal 0.904828 -0.425777 0
    outer loop
      vertex 24.7542 2.21156 0
      vertex 24.5671 1.81386 10
      vertex 24.5671 1.81386 0
    endloop
  endfacet
  facet normal -0.248687 0.968584 0
    outer loop
      vertex 2.84416 24.938 0
      vertex 2.41844 24.8287 10
      vertex 2.84416 24.938 10
    endloop
  endfacet
  facet normal -0.248687 0.968584 0
    outer loop
      vertex 2.41844 24.8287 10
      vertex 2.84416 24.938 0
      vertex 2.41844 24.8287 0
    endloop
  endfacet
  facet normal 0 1 -0
    outer loop
      vertex 21.7198 24.9931 0
      vertex 3.28023 24.9931 10
      vertex 21.7198 24.9931 10
    endloop
  endfacet
  facet normal 0 1 0
    outer loop
      vertex 3.28023 24.9931 10
      vertex 21.7198 24.9931 0
      vertex 3.28023 24.9931 0
    endloop
  endfacet
  facet normal 0 -1 0
    outer loop
      vertex 3.28023 0.00690556 0
      vertex 21.7198 0.00690556 10
      vertex 3.28023 0.00690556 10
    endloop
  endfacet
  facet normal 0 -1 -0
    outer loop
      vertex 21.7198 0.00690556 10
      vertex 3.28023 0.00690556 0
      vertex 21.7198 0.00690556 0
    endloop
  endfacet
  facet normal -0.844327 0.535828 0
    outer loop
      vertex 0.432926 23.1861 0
      vertex 0.66844 23.5572 10
      vertex 0.66844 23.5572 0
    endloop
  endfacet
  facet normal -0.844327 0.535828 0
    outer loop
      vertex 0.66844 23.5572 10
      vertex 0.432926 23.1861 0
      vertex 0.432926 23.1861 10
    endloop
  endfacet
  facet normal 1 -0 0
    outer loop
      vertex 25 3.5 10
      vertex 25 21.5 0
      vertex 25 21.5 10
    endloop
  endfacet
  facet normal 1 0 0
    outer loop
      vertex 25 21.5 0
      vertex 25 3.5 10
      vertex 25 3.5 0
    endloop
  endfacet
  facet normal 0.982288 -0.187379 0
    outer loop
      vertex 24.89 2.62959 10
      vertex 24.9724 3.06133 0
      vertex 24.9724 3.06133 10
    endloop
  endfacet
  facet normal 0.982288 -0.187379 0
    outer loop
      vertex 24.9724 3.06133 0
      vertex 24.89 2.62959 10
      vertex 24.89 2.62959 0
    endloop
  endfacet
  facet normal 0.24869 -0.968583 0
    outer loop
      vertex 22.1558 0.0619946 0
      vertex 22.5816 0.171302 10
      vertex 22.1558 0.0619946 10
    endloop
  endfacet
  facet normal 0.24869 -0.968583 0
    outer loop
      vertex 22.5816 0.171302 10
      vertex 22.1558 0.0619946 0
      vertex 22.5816 0.171302 0
    endloop
  endfacet
  facet normal -1 0 0
    outer loop
      vertex 0 3.5 0
      vertex 0 21.5 10
      vertex 0 21.5 0
    endloop
  endfacet
  facet normal -1 -0 0
    outer loop
      vertex 0 21.5 10
      vertex 0 3.5 0
      vertex 0 3.5 10
    endloop
  endfacet
  facet normal 0.248688 0.968584 -0
    outer loop
      vertex 22.5816 24.8287 0
      vertex 22.1558 24.938 10
      vertex 22.5816 24.8287 10
    endloop
  endfacet
  facet normal 0.248688 0.968584 0
    outer loop
      vertex 22.1558 24.938 10
      vertex 22.5816 24.8287 0
      vertex 22.1558 24.938 0
    endloop
  endfacet
  facet normal 0.998027 0.0627924 0
    outer loop
      vertex 25 21.5 10
      vertex 24.9724 21.9387 0
      vertex 24.9724 21.9387 10
    endloop
  endfacet
  facet normal 0.998027 0.0627924 0
    outer loop
      vertex 24.9724 21.9387 0
      vertex 25 21.5 10
      vertex 25 21.5 0
    endloop
  endfacet
  facet normal 0.125335 -0.992114 0
    outer loop
      vertex 21.7198 0.00690556 0
      vertex 22.1558 0.0619946 10
      vertex 21.7198 0.00690556 10
    endloop
  endfacet
  facet normal 0.125335 -0.992114 0
    outer loop
      vertex 22.1558 0.0619946 10
      vertex 21.7198 0.00690556 0
      vertex 22.1558 0.0619946 0
    endloop
  endfacet
  facet normal -0.684548 0.728967 0
    outer loop
      vertex 1.26902 24.1968 0
      vertex 0.948609 23.8959 10
      vertex 1.26902 24.1968 10
    endloop
  endfacet
  facet normal -0.684548 0.728967 0
    outer loop
      vertex 0.948609 23.8959 10
      vertex 1.26902 24.1968 0
      vertex 0.948609 23.8959 0
    endloop
  endfacet
  facet normal -0.951057 -0.309017 0
    outer loop
      vertex 0.245782 2.21156 0
      vertex 0.109959 2.62959 10
      vertex 0.109959 2.62959 0
    endloop
  endfacet
  facet normal -0.951057 -0.309017 0
    outer loop
      vertex 0.109959 2.62959 10
      vertex 0.245782 2.21156 0
      vertex 0.245782 2.21156 10
    endloop
  endfacet
  facet normal -0.125337 0.992114 0
    outer loop
      vertex 3.28023 24.9931 0
      vertex 2.84416 24.938 10
      vertex 3.28023 24.9931 10
    endloop
  endfacet
  facet normal -0.125337 0.992114 0
    outer loop
      vertex 2.84416 24.938 10
      vertex 3.28023 24.9931 0
      vertex 2.84416 24.938 0
    endloop
  endfacet
  facet normal 0.684548 0.728967 -0
    outer loop
      vertex 24.0514 23.8959 0
      vertex 23.731 24.1968 10
      vertex 24.0514 23.8959 10
    endloop
  endfacet
  facet normal 0.684548 0.728967 0
    outer loop
      vertex 23.731 24.1968 10
      vertex 24.0514 23.8959 0
      vertex 23.731 24.1968 0
    endloop
  endfacet
  facet normal 0.368124 -0.929777 0
    outer loop
      vertex 22.5816 0.171302 0
      vertex 22.9902 0.333105 10
      vertex 22.5816 0.171302 10
    endloop
  endfacet
  facet normal 0.368124 -0.929777 0
    outer loop
      vertex 22.9902 0.333105 10
      vertex 22.5816 0.171302 0
      vertex 22.9902 0.333105 0
    endloop
  endfacet
  facet normal 0.684547 -0.728968 0
    outer loop
      vertex 23.731 0.803204 0
      vertex 24.0514 1.10408 10
      vertex 23.731 0.803204 10
    endloop
  endfacet
  facet normal 0.684547 -0.728968 0
    outer loop
      vertex 24.0514 1.10408 10
      vertex 23.731 0.803204 0
      vertex 24.0514 1.10408 0
    endloop
  endfacet
  facet normal 0.844326 -0.535829 0
    outer loop
      vertex 24.3316 1.44275 10
      vertex 24.5671 1.81386 0
      vertex 24.5671 1.81386 10
    endloop
  endfacet
  facet normal 0.844326 -0.535829 0
    outer loop
      vertex 24.5671 1.81386 0
      vertex 24.3316 1.44275 10
      vertex 24.3316 1.44275 0
    endloop
  endfacet
  facet normal -0.368127 0.929776 0
    outer loop
      vertex 2.41844 24.8287 0
      vertex 2.00977 24.6669 10
      vertex 2.41844 24.8287 10
    endloop
  endfacet
  facet normal -0.368127 0.929776 0
    outer loop
      vertex 2.00977 24.6669 10
      vertex 2.41844 24.8287 0
      vertex 2.00977 24.6669 0
    endloop
  endfacet
  facet normal -0.998027 0.0627903 0
    outer loop
      vertex 0 21.5 0
      vertex 0.0275984 21.9387 10
      vertex 0.0275984 21.9387 0
    endloop
  endfacet
  facet normal -0.998027 0.0627903 0
    outer loop
      vertex 0.0275984 21.9387 10
      vertex 0 21.5 0
      vertex 0 21.5 10
    endloop
  endfacet
  facet normal -0.770513 0.637424 0
    outer loop
      vertex 0.66844 23.5572 0
      vertex 0.948609 23.8959 10
      vertex 0.948609 23.8959 0
    endloop
  endfacet
  facet normal -0.770513 0.637424 0
    outer loop
      vertex 0.948609 23.8959 10
      vertex 0.66844 23.5572 0
      vertex 0.66844 23.5572 10
    endloop
  endfacet
  facet normal -0.844328 -0.535826 0
    outer loop
      vertex 0.66844 1.44275 0
      vertex 0.432926 1.81386 10
      vertex 0.432926 1.81386 0
    endloop
  endfacet
  facet normal -0.844328 -0.535826 0
    outer loop
      vertex 0.432926 1.81386 10
      vertex 0.66844 1.44275 0
      vertex 0.66844 1.44275 10
    endloop
  endfacet
  facet normal -0.982287 0.187381 0
    outer loop
      vertex 0.0275984 21.9387 0
      vertex 0.109959 22.3704 10
      vertex 0.109959 22.3704 0
    endloop
  endfacet
  facet normal -0.982287 0.187381 0
    outer loop
      vertex 0.109959 22.3704 10
      vertex 0.0275984 21.9387 0
      vertex 0.0275984 21.9387 10
    endloop
  endfacet
  facet normal 0.368126 0.929776 -0
    outer loop
      vertex 22.9902 24.6669 0
      vertex 22.5816 24.8287 10
      vertex 22.9902 24.6669 10
    endloop
  endfacet
  facet normal 0.368126 0.929776 0
    outer loop
      vertex 22.5816 24.8287 10
      vertex 22.9902 24.6669 0
      vertex 22.5816 24.8287 0
    endloop
  endfacet
  facet normal -0.481752 0.876307 0
    outer loop
      vertex 2.00977 24.6669 0
      vertex 1.62461 24.4551 10
      vertex 2.00977 24.6669 10
    endloop
  endfacet
  facet normal -0.481752 0.876307 0
    outer loop
      vertex 1.62461 24.4551 10
      vertex 2.00977 24.6669 0
      vertex 1.62461 24.4551 0
    endloop
  endfacet
  facet normal 0.844325 0.535831 0
    outer loop
      vertex 24.5671 23.1861 10
      vertex 24.3316 23.5572 0
      vertex 24.3316 23.5572 10
    endloop
  endfacet
  facet normal 0.844325 0.535831 0
    outer loop
      vertex 24.3316 23.5572 0
      vertex 24.5671 23.1861 10
      vertex 24.5671 23.1861 0
    endloop
  endfacet
  facet normal 0.951056 -0.309019 0
    outer loop
      vertex 24.7542 2.21156 10
      vertex 24.89 2.62959 0
      vertex 24.89 2.62959 10
    endloop
  endfacet
  facet normal 0.951056 -0.309019 0
    outer loop
      vertex 24.89 2.62959 0
      vertex 24.7542 2.21156 10
      vertex 24.7542 2.21156 0
    endloop
  endfacet
  facet normal -0.587784 -0.809018 0
    outer loop
      vertex 1.26902 0.803204 0
      vertex 1.62461 0.544852 10
      vertex 1.26902 0.803204 10
    endloop
  endfacet
  facet normal -0.587784 -0.809018 -0
    outer loop
      vertex 1.62461 0.544852 10
      vertex 1.26902 0.803204 0
      vertex 1.62461 0.544852 0
    endloop
  endfacet
  facet normal -0.481754 -0.876306 0
    outer loop
      vertex 1.62461 0.544852 0
      vertex 2.00977 0.333105 10
      vertex 1.62461 0.544852 10
    endloop
  endfacet
  facet normal -0.481754 -0.876306 -0
    outer loop
      vertex 2.00977 0.333105 10
      vertex 1.62461 0.544852 0
      vertex 2.00977 0.333105 0
    endloop
  endfacet
  facet normal -0.904827 -0.425779 0
    outer loop
      vertex 0.432926 1.81386 0
      vertex 0.245782 2.21156 10
      vertex 0.245782 2.21156 0
    endloop
  endfacet
  facet normal -0.904827 -0.425779 0
    outer loop
      vertex 0.245782 2.21156 10
      vertex 0.432926 1.81386 0
      vertex 0.432926 1.81386 10
    endloop
  endfacet
  facet normal -0.998027 -0.0627901 0
    outer loop
      vertex 0.0275984 3.06133 0
      vertex 0 3.5 10
      vertex 0 3.5 0
    endloop
  endfacet
  facet normal -0.998027 -0.0627901 0
    outer loop
      vertex 0 3.5 10
      vertex 0.0275984 3.06133 0
      vertex 0.0275984 3.06133 10
    endloop
  endfacet
  facet normal -0.587783 0.809019 0
    outer loop
      vertex 1.62461 24.4551 0
      vertex 1.26902 24.1968 10
      vertex 1.62461 24.4551 10
    endloop
  endfacet
  facet normal -0.587783 0.809019 0
    outer loop
      vertex 1.26902 24.1968 10
      vertex 1.62461 24.4551 0
      vertex 1.26902 24.1968 0
    endloop
  endfacet
  facet normal 0.481752 0.876307 -0
    outer loop
      vertex 23.3754 24.4551 0
      vertex 22.9902 24.6669 10
      vertex 23.3754 24.4551 10
    endloop
  endfacet
  facet normal 0.481752 0.876307 0
    outer loop
      vertex 22.9902 24.6669 10
      vertex 23.3754 24.4551 0
      vertex 22.9902 24.6669 0
    endloop
  endfacet
  facet normal 0.587783 0.809019 -0
    outer loop
      vertex 23.731 24.1968 0
      vertex 23.3754 24.4551 10
      vertex 23.731 24.1968 10
    endloop
  endfacet
  facet normal 0.587783 0.809019 0
    outer loop
      vertex 23.3754 24.4551 10
      vertex 23.731 24.1968 0
      vertex 23.3754 24.4551 0
    endloop
  endfacet
  facet normal 0.770514 0.637422 0
    outer loop
      vertex 24.3316 23.5572 10
      vertex 24.0514 23.8959 0
      vertex 24.0514 23.8959 10
    endloop
  endfacet
  facet normal 0.770514 0.637422 0
    outer loop
      vertex 24.0514 23.8959 0
      vertex 24.3316 23.5572 10
      vertex 24.3316 23.5572 0
    endloop
  endfacet
  facet normal 0.587784 -0.809018 0
    outer loop
      vertex 23.3754 0.544852 0
      vertex 23.731 0.803204 10
      vertex 23.3754 0.544852 10
    endloop
  endfacet
  facet normal 0.587784 -0.809018 0
    outer loop
      vertex 23.731 0.803204 10
      vertex 23.3754 0.544852 0
      vertex 23.731 0.803204 0
    endloop
  endfacet
  facet normal 0.770514 -0.637424 0
    outer loop
      vertex 24.0514 1.10408 10
      vertex 24.3316 1.44275 0
      vertex 24.3316 1.44275 10
    endloop
  endfacet
  facet normal 0.770514 -0.637424 0
    outer loop
      vertex 24.3316 1.44275 0
      vertex 24.0514 1.10408 10
      vertex 24.0514 1.10408 0
    endloop
  endfacet
  facet normal -0.684547 -0.728968 0
    outer loop
      vertex 0.948609 1.10408 0
      vertex 1.26902 0.803204 10
      vertex 0.948609 1.10408 10
    endloop
  endfacet
  facet normal -0.684547 -0.728968 -0
    outer loop
      vertex 1.26902 0.803204 10
      vertex 0.948609 1.10408 0
      vertex 1.26902 0.803204 0
    endloop
  endfacet
  facet normal -0.982287 -0.187381 0
    outer loop
      vertex 0.109959 2.62959 0
      vertex 0.0275984 3.06133 10
      vertex 0.0275984 3.06133 0
    endloop
  endfacet
  facet normal -0.982287 -0.187381 0
    outer loop
      vertex 0.0275984 3.06133 10
      vertex 0.109959 2.62959 0
      vertex 0.109959 2.62959 10
    endloop
  endfacet
  facet normal 0.951056 0.309019 0
    outer loop
      vertex 24.89 22.3704 10
      vertex 24.7542 22.7884 0
      vertex 24.7542 22.7884 10
    endloop
  endfacet
  facet normal 0.951056 0.309019 0
    outer loop
      vertex 24.7542 22.7884 0
      vertex 24.89 22.3704 10
      vertex 24.89 22.3704 0
    endloop
  endfacet
  facet normal -0.248689 -0.968583 0
    outer loop
      vertex 2.41844 0.171302 0
      vertex 2.84416 0.0619946 10
      vertex 2.41844 0.171302 10
    endloop
  endfacet
  facet normal -0.248689 -0.968583 -0
    outer loop
      vertex 2.84416 0.0619946 10
      vertex 2.41844 0.171302 0
      vertex 2.84416 0.0619946 0
    endloop
  endfacet
  facet normal 0.904828 0.425776 0
    outer loop
      vertex 24.7542 22.7884 10
      vertex 24.5671 23.1861 0
      vertex 24.5671 23.1861 10
    endloop
  endfacet
  facet normal 0.904828 0.425776 0
    outer loop
      vertex 24.5671 23.1861 0
      vertex 24.7542 22.7884 10
      vertex 24.7542 22.7884 0
    endloop
  endfacet
  facet normal 0.481754 -0.876306 0
    outer loop
      vertex 22.9902 0.333105 0
      vertex 23.3754 0.544852 10
      vertex 22.9902 0.333105 10
    endloop
  endfacet
  facet normal 0.481754 -0.876306 0
    outer loop
      vertex 23.3754 0.544852 10
      vertex 22.9902 0.333105 0
      vertex 23.3754 0.544852 0
    endloop
  endfacet
  facet normal 0.998027 -0.0627923 0
    outer loop
      vertex 24.9724 3.06133 10
      vertex 25 3.5 0
      vertex 25 3.5 10
    endloop
  endfacet
  facet normal 0.998027 -0.0627923 0
    outer loop
      vertex 25 3.5 0
      vertex 24.9724 3.06133 10
      vertex 24.9724 3.06133 0
    endloop
  endfacet
  facet normal -0.770513 -0.637425 0
    outer loop
      vertex 0.948609 1.10408 0
      vertex 0.66844 1.44275 10
      vertex 0.66844 1.44275 0
    endloop
  endfacet
  facet normal -0.770513 -0.637425 0
    outer loop
      vertex 0.66844 1.44275 10
      vertex 0.948609 1.10408 0
      vertex 0.948609 1.10408 10
    endloop
  endfacet
  facet normal -0.368125 -0.929776 0
    outer loop
      vertex 2.00977 0.333105 0
      vertex 2.41844 0.171302 10
      vertex 2.00977 0.333105 10
    endloop
  endfacet
  facet normal -0.368125 -0.929776 -0
    outer loop
      vertex 2.41844 0.171302 10
      vertex 2.00977 0.333105 0
      vertex 2.41844 0.171302 0
    endloop
  endfacet
  facet normal -0.951056 0.309017 0
    outer loop
      vertex 0.109959 22.3704 0
      vertex 0.245782 22.7884 10
      vertex 0.245782 22.7884 0
    endloop
  endfacet
  facet normal -0.951056 0.309017 0
    outer loop
      vertex 0.245782 22.7884 10
      vertex 0.109959 22.3704 0
      vertex 0.109959 22.3704 10
    endloop
  endfacet
  facet normal -0.904828 0.425778 0
    outer loop
      vertex 0.245782 22.7884 0
      vertex 0.432926 23.1861 10
      vertex 0.432926 23.1861 0
    endloop
  endfacet
  facet normal -0.904828 0.425778 0
    outer loop
      vertex 0.432926 23.1861 10
      vertex 0.245782 22.7884 0
      vertex 0.245782 22.7884 10
    endloop
  endfacet
  facet normal 0 0 -1
    outer loop
      vertex 21.7198 0.00690556 0
      vertex 25 3.5 0
      vertex 24.9724 3.06133 0
    endloop
  endfacet
  facet normal 0 0 -1
    outer loop
      vertex 0 3.5 0
      vertex 25 3.5 0
      vertex 21.7198 0.00690556 0
    endloop
  endfacet
  facet normal 0 0 -1
    outer loop
      vertex 21.7198 0.00690556 0
      vertex 24.9724 3.06133 0
      vertex 24.89 2.62959 0
    endloop
  endfacet
  facet normal 0 0 -1
    outer loop
      vertex 25 3.5 0
      vertex 0 3.5 0
      vertex 25 21.5 0
    endloop
  endfacet
  facet normal 0 0 -1
    outer loop
      vertex 21.7198 0.00690556 0
      vertex 24.89 2.62959 0
      vertex 24.7542 2.21156 0
    endloop
  endfacet
  facet normal 0 0 -1
    outer loop
      vertex 25 21.5 0
      vertex 21.7198 24.9931 0
      vertex 24.9724 21.9387 0
    endloop
  endfacet
  facet normal 0 0 -1
    outer loop
      vertex 21.7198 0.00690556 0
      vertex 24.7542 2.21156 0
      vertex 24.5671 1.81386 0
    endloop
  endfacet
  facet normal 0 0 -1
    outer loop
      vertex 24.9724 21.9387 0
      vertex 21.7198 24.9931 0
      vertex 24.89 22.3704 0
    endloop
  endfacet
  facet normal 0 0 -1
    outer loop
      vertex 21.7198 0.00690556 0
      vertex 24.5671 1.81386 0
      vertex 24.3316 1.44275 0
    endloop
  endfacet
  facet normal 0 0 -1
    outer loop
      vertex 24.89 22.3704 0
      vertex 21.7198 24.9931 0
      vertex 24.7542 22.7884 0
    endloop
  endfacet
  facet normal 0 0 -1
    outer loop
      vertex 21.7198 0.00690556 0
      vertex 24.3316 1.44275 0
      vertex 24.0514 1.10408 0
    endloop
  endfacet
  facet normal 0 0 -1
    outer loop
      vertex 24.7542 22.7884 0
      vertex 21.7198 24.9931 0
      vertex 24.5671 23.1861 0
    endloop
  endfacet
  facet normal 0 0 -1
    outer loop
      vertex 21.7198 0.00690556 0
      vertex 24.0514 1.10408 0
      vertex 23.731 0.803204 0
    endloop
  endfacet
  facet normal 0 0 -1
    outer loop
      vertex 24.5671 23.1861 0
      vertex 21.7198 24.9931 0
      vertex 24.3316 23.5572 0
    endloop
  endfacet
  facet normal 0 0 -1
    outer loop
      vertex 21.7198 0.00690556 0
      vertex 23.731 0.803204 0
      vertex 23.3754 0.544852 0
    endloop
  endfacet
  facet normal 0 0 -1
    outer loop
      vertex 24.3316 23.5572 0
      vertex 21.7198 24.9931 0
      vertex 24.0514 23.8959 0
    endloop
  endfacet
  facet normal 0 0 -1
    outer loop
      vertex 21.7198 0.00690556 0
      vertex 23.3754 0.544852 0
      vertex 22.9902 0.333105 0
    endloop
  endfacet
  facet normal 0 0 -1
    outer loop
      vertex 24.0514 23.8959 0
      vertex 21.7198 24.9931 0
      vertex 23.731 24.1968 0
    endloop
  endfacet
  facet normal 0 0 -1
    outer loop
      vertex 21.7198 0.00690556 0
      vertex 22.9902 0.333105 0
      vertex 22.5816 0.171302 0
    endloop
  endfacet
  facet normal 0 0 -1
    outer loop
      vertex 23.731 24.1968 0
      vertex 21.7198 24.9931 0
      vertex 23.3754 24.4551 0
    endloop
  endfacet
  facet normal 0 0 -1
    outer loop
      vertex 21.7198 0.00690556 0
      vertex 22.5816 0.171302 0
      vertex 22.1558 0.0619946 0
    endloop
  endfacet
  facet normal 0 0 -1
    outer loop
      vertex 23.3754 24.4551 0
      vertex 21.7198 24.9931 0
      vertex 22.9902 24.6669 0
    endloop
  endfacet
  facet normal 0 0 -1
    outer loop
      vertex 22.9902 24.6669 0
      vertex 21.7198 24.9931 0
      vertex 22.5816 24.8287 0
    endloop
  endfacet
  facet normal 0 0 -1
    outer loop
      vertex 22.5816 24.8287 0
      vertex 21.7198 24.9931 0
      vertex 22.1558 24.938 0
    endloop
  endfacet
  facet normal 0 0 -1
    outer loop
      vertex 0 3.5 0
      vertex 21.7198 0.00690556 0
      vertex 3.28023 0.00690556 0
    endloop
  endfacet
  facet normal 0 0 -1
    outer loop
      vertex 0 21.5 0
      vertex 25 21.5 0
      vertex 0 3.5 0
    endloop
  endfacet
  facet normal 0 0 -1
    outer loop
      vertex 0 3.5 0
      vertex 3.28023 0.00690556 0
      vertex 2.84416 0.0619946 0
    endloop
  endfacet
  facet normal 0 0 -1
    outer loop
      vertex 25 21.5 0
      vertex 0 21.5 0
      vertex 21.7198 24.9931 0
    endloop
  endfacet
  facet normal 0 0 -1
    outer loop
      vertex 0 3.5 0
      vertex 2.84416 0.0619946 0
      vertex 2.41844 0.171302 0
    endloop
  endfacet
  facet normal -0 0 -1
    outer loop
      vertex 21.7198 24.9931 0
      vertex 0 21.5 0
      vertex 3.28023 24.9931 0
    endloop
  endfacet
  facet normal 0 0 -1
    outer loop
      vertex 0 3.5 0
      vertex 2.41844 0.171302 0
      vertex 2.00977 0.333105 0
    endloop
  endfacet
  facet normal 0 0 -1
    outer loop
      vertex 3.28023 24.9931 0
      vertex 0 21.5 0
      vertex 2.84416 24.938 0
    endloop
  endfacet
  facet normal 0 0 -1
    outer loop
      vertex 0 3.5 0
      vertex 2.00977 0.333105 0
      vertex 1.62461 0.544852 0
    endloop
  endfacet
  facet normal 0 0 -1
    outer loop
      vertex 2.84416 24.938 0
      vertex 0 21.5 0
      vertex 2.41844 24.8287 0
    endloop
  endfacet
  facet normal 0 0 -1
    outer loop
      vertex 0 3.5 0
      vertex 1.62461 0.544852 0
      vertex 1.26902 0.803204 0
    endloop
  endfacet
  facet normal 0 0 -1
    outer loop
      vertex 2.41844 24.8287 0
      vertex 0 21.5 0
      vertex 2.00977 24.6669 0
    endloop
  endfacet
  facet normal 0 0 -1
    outer loop
      vertex 0 3.5 0
      vertex 1.26902 0.803204 0
      vertex 0.948609 1.10408 0
    endloop
  endfacet
  facet normal 0 0 -1
    outer loop
      vertex 2.00977 24.6669 0
      vertex 0 21.5 0
      vertex 1.62461 24.4551 0
    endloop
  endfacet
  facet normal 0 0 -1
    outer loop
      vertex 0 3.5 0
      vertex 0.948609 1.10408 0
      vertex 0.66844 1.44275 0
    endloop
  endfacet
  facet normal 0 0 -1
    outer loop
      vertex 1.62461 24.4551 0
      vertex 0 21.5 0
      vertex 1.26902 24.1968 0
    endloop
  endfacet
  facet normal 0 0 -1
    outer loop
      vertex 0 3.5 0
      vertex 0.66844 1.44275 0
      vertex 0.432926 1.81386 0
    endloop
  endfacet
  facet normal 0 0 -1
    outer loop
      vertex 1.26902 24.1968 0
      vertex 0 21.5 0
      vertex 0.948609 23.8959 0
    endloop
  endfacet
  facet normal 0 0 -1
    outer loop
      vertex 0 3.5 0
      vertex 0.432926 1.81386 0
      vertex 0.245782 2.21156 0
    endloop
  endfacet
  facet normal 0 0 -1
    outer loop
      vertex 0.948609 23.8959 0
      vertex 0 21.5 0
      vertex 0.66844 23.5572 0
    endloop
  endfacet
  facet normal 0 0 -1
    outer loop
      vertex 0 3.5 0
      vertex 0.245782 2.21156 0
      vertex 0.109959 2.62959 0
    endloop
  endfacet
  facet normal 0 0 -1
    outer loop
      vertex 0.66844 23.5572 0
      vertex 0 21.5 0
      vertex 0.432926 23.1861 0
    endloop
  endfacet
  facet normal 0 0 -1
    outer loop
      vertex 0 3.5 0
      vertex 0.109959 2.62959 0
      vertex 0.0275984 3.06133 0
    endloop
  endfacet
  facet normal 0 0 -1
    outer loop
      vertex 0.432926 23.1861 0
      vertex 0 21.5 0
      vertex 0.245782 22.7884 0
    endloop
  endfacet
  facet normal 0 0 -1
    outer loop
      vertex 0.245782 22.7884 0
      vertex 0 21.5 0
      vertex 0.109959 22.3704 0
    endloop
  endfacet
  facet normal 0 0 -1
    outer loop
      vertex 0.109959 22.3704 0
      vertex 0 21.5 0
      vertex 0.0275984 21.9387 0
    endloop
  endfacet
  facet normal 0 0 1
    outer loop
      vertex 9.7984 5.80563 10
      vertex 0 3.5 10
      vertex 9.75885 5.29678 10
    endloop
  endfacet
  facet normal 0 0 1
    outer loop
      vertex 9.85898 6.33904 10
      vertex 0 3.5 10
      vertex 9.7984 5.80563 10
    endloop
  endfacet
  facet normal 0 0 1
    outer loop
      vertex 9.94058 6.897 10
      vertex 0 3.5 10
      vertex 9.85898 6.33904 10
    endloop
  endfacet
  facet normal 0 0 1
    outer loop
      vertex 10.0432 7.47954 10
      vertex 0 3.5 10
      vertex 9.94058 6.897 10
    endloop
  endfacet
  facet normal 0 0 1
    outer loop
      vertex 10.1669 8.08664 10
      vertex 0 3.5 10
      vertex 10.0432 7.47954 10
    endloop
  endfacet
  facet normal 0 0 1
    outer loop
      vertex 10.3116 8.71829 10
      vertex 0 3.5 10
      vertex 10.1669 8.08664 10
    endloop
  endfacet
  facet normal 0 0 1
    outer loop
      vertex 10.4773 9.37451 10
      vertex 0 3.5 10
      vertex 10.3116 8.71829 10
    endloop
  endfacet
  facet normal 0 0 1
    outer loop
      vertex 0 3.5 10
      vertex 10.4773 9.37451 10
      vertex 7.51733 18.7165 10
    endloop
  endfacet
  facet normal 0 0 1
    outer loop
      vertex 10.6631 10.04 10
      vertex 7.51733 18.7165 10
      vertex 10.4773 9.37451 10
    endloop
  endfacet
  facet normal 0 0 1
    outer loop
      vertex 10.8681 10.6995 10
      vertex 7.51733 18.7165 10
      vertex 10.6631 10.04 10
    endloop
  endfacet
  facet normal 0 0 1
    outer loop
      vertex 11.0921 11.353 10
      vertex 7.51733 18.7165 10
      vertex 10.8681 10.6995 10
    endloop
  endfacet
  facet normal 0 0 1
    outer loop
      vertex 11.3353 12.0005 10
      vertex 7.51733 18.7165 10
      vertex 11.0921 11.353 10
    endloop
  endfacet
  facet normal 0 0 1
    outer loop
      vertex 11.5977 12.642 10
      vertex 7.51733 18.7165 10
      vertex 11.3353 12.0005 10
    endloop
  endfacet
  facet normal 0 0 1
    outer loop
      vertex 11.8791 13.2775 10
      vertex 7.51733 18.7165 10
      vertex 11.5977 12.642 10
    endloop
  endfacet
  facet normal 0 0 1
    outer loop
      vertex 12.1797 13.907 10
      vertex 7.51733 18.7165 10
      vertex 11.8791 13.2775 10
    endloop
  endfacet
  facet normal 0 0 1
    outer loop
      vertex 12.4993 14.5305 10
      vertex 7.51733 18.7165 10
      vertex 12.1797 13.907 10
    endloop
  endfacet
  facet normal 0 0 1
    outer loop
      vertex 12.8315 15.1391 10
      vertex 7.51733 18.7165 10
      vertex 12.4993 14.5305 10
    endloop
  endfacet
  facet normal 0 0 1
    outer loop
      vertex 13.1688 15.7232 10
      vertex 7.51733 18.7165 10
      vertex 12.8315 15.1391 10
    endloop
  endfacet
  facet normal 0 0 1
    outer loop
      vertex 13.5114 16.2831 10
      vertex 7.51733 18.7165 10
      vertex 13.1688 15.7232 10
    endloop
  endfacet
  facet normal 0 0 1
    outer loop
      vertex 13.8593 16.8185 10
      vertex 7.51733 18.7165 10
      vertex 13.5114 16.2831 10
    endloop
  endfacet
  facet normal 0 0 1
    outer loop
      vertex 14.2124 17.3296 10
      vertex 7.51733 18.7165 10
      vertex 13.8593 16.8185 10
    endloop
  endfacet
  facet normal 0 0 1
    outer loop
      vertex 14.5708 17.8162 10
      vertex 7.51733 18.7165 10
      vertex 14.2124 17.3296 10
    endloop
  endfacet
  facet normal 0 0 1
    outer loop
      vertex 14.9344 18.2785 10
      vertex 7.51733 18.7165 10
      vertex 14.5708 17.8162 10
    endloop
  endfacet
  facet normal -0 0 1
    outer loop
      vertex 7.51733 18.7165 10
      vertex 14.9344 18.2785 10
      vertex 15.3033 18.7165 10
    endloop
  endfacet
  facet normal 0 0 1
    outer loop
      vertex 17.8083 20.5565 10
      vertex 25 21.5 10
      vertex 24.9724 21.9387 10
    endloop
  endfacet
  facet normal 0 0 1
    outer loop
      vertex 17.429 18.6163 10
      vertex 25 21.5 10
      vertex 17.8083 19.0385 10
    endloop
  endfacet
  facet normal 0 0 1
    outer loop
      vertex 17.8083 20.5565 10
      vertex 24.9724 21.9387 10
      vertex 24.89 22.3704 10
    endloop
  endfacet
  facet normal 0 0 1
    outer loop
      vertex 17.0506 18.1608 10
      vertex 25 21.5 10
      vertex 17.429 18.6163 10
    endloop
  endfacet
  facet normal 0 0 1
    outer loop
      vertex 17.8083 20.5565 10
      vertex 24.89 22.3704 10
      vertex 24.7542 22.7884 10
    endloop
  endfacet
  facet normal 0 0 1
    outer loop
      vertex 25 21.5 10
      vertex 17.0506 18.1608 10
      vertex 25 3.5 10
    endloop
  endfacet
  facet normal 0 0 1
    outer loop
      vertex 17.8083 20.5565 10
      vertex 24.7542 22.7884 10
      vertex 24.5671 23.1861 10
    endloop
  endfacet
  facet normal -0 0 1
    outer loop
      vertex 16.673 17.672 10
      vertex 25 3.5 10
      vertex 17.0506 18.1608 10
    endloop
  endfacet
  facet normal 0 0 1
    outer loop
      vertex 17.8083 20.5565 10
      vertex 24.5671 23.1861 10
      vertex 24.3316 23.5572 10
    endloop
  endfacet
  facet normal -0 0 1
    outer loop
      vertex 16.2963 17.1497 10
      vertex 25 3.5 10
      vertex 16.673 17.672 10
    endloop
  endfacet
  facet normal 0 0 1
    outer loop
      vertex 17.8083 20.5565 10
      vertex 24.3316 23.5572 10
      vertex 24.0514 23.8959 10
    endloop
  endfacet
  facet normal -0 0 1
    outer loop
      vertex 15.9205 16.5942 10
      vertex 25 3.5 10
      vertex 16.2963 17.1497 10
    endloop
  endfacet
  facet normal 0 0 1
    outer loop
      vertex 17.8083 20.5565 10
      vertex 24.0514 23.8959 10
      vertex 23.731 24.1968 10
    endloop
  endfacet
  facet normal -0 0 1
    outer loop
      vertex 15.5456 16.0053 10
      vertex 25 3.5 10
      vertex 15.9205 16.5942 10
    endloop
  endfacet
  facet normal 0 0 1
    outer loop
      vertex 17.8083 20.5565 10
      vertex 23.731 24.1968 10
      vertex 23.3754 24.4551 10
    endloop
  endfacet
  facet normal -0 0 1
    outer loop
      vertex 15.1715 15.3831 10
      vertex 25 3.5 10
      vertex 15.5456 16.0053 10
    endloop
  endfacet
  facet normal 0 0 1
    outer loop
      vertex 17.8083 20.5565 10
      vertex 23.3754 24.4551 10
      vertex 22.9902 24.6669 10
    endloop
  endfacet
  facet normal -0 0 1
    outer loop
      vertex 14.7983 14.7275 10
      vertex 25 3.5 10
      vertex 15.1715 15.3831 10
    endloop
  endfacet
  facet normal 0 0 1
    outer loop
      vertex 17.8083 20.5565 10
      vertex 22.9902 24.6669 10
      vertex 22.5816 24.8287 10
    endloop
  endfacet
  facet normal -0 0 1
    outer loop
      vertex 14.4362 14.0531 10
      vertex 25 3.5 10
      vertex 14.7983 14.7275 10
    endloop
  endfacet
  facet normal 0 0 1
    outer loop
      vertex 17.8083 20.5565 10
      vertex 22.5816 24.8287 10
      vertex 22.1558 24.938 10
    endloop
  endfacet
  facet normal -0 0 1
    outer loop
      vertex 14.0952 13.3739 10
      vertex 25 3.5 10
      vertex 14.4362 14.0531 10
    endloop
  endfacet
  facet normal 0 0 1
    outer loop
      vertex 17.8083 20.5565 10
      vertex 22.1558 24.938 10
      vertex 21.7198 24.9931 10
    endloop
  endfacet
  facet normal -0 0 1
    outer loop
      vertex 13.7754 12.69 10
      vertex 25 3.5 10
      vertex 14.0952 13.3739 10
    endloop
  endfacet
  facet normal 0 0 1
    outer loop
      vertex 25 21.5 10
      vertex 17.8083 20.5565 10
      vertex 17.8083 19.0385 10
    endloop
  endfacet
  facet normal 0 0 1
    outer loop
      vertex 21.7198 24.9931 10
      vertex 7.51733 20.5565 10
      vertex 17.8083 20.5565 10
    endloop
  endfacet
  facet normal -0 0 1
    outer loop
      vertex 0 21.5 10
      vertex 7.51733 20.5565 10
      vertex 3.28023 24.9931 10
    endloop
  endfacet
  facet normal -0 0 1
    outer loop
      vertex 3.28023 24.9931 10
      vertex 7.51733 20.5565 10
      vertex 21.7198 24.9931 10
    endloop
  endfacet
  facet normal -0 0 1
    outer loop
      vertex 13.4768 12.0013 10
      vertex 25 3.5 10
      vertex 13.7754 12.69 10
    endloop
  endfacet
  facet normal -0 0 1
    outer loop
      vertex 13.1994 11.3077 10
      vertex 25 3.5 10
      vertex 13.4768 12.0013 10
    endloop
  endfacet
  facet normal -0 0 1
    outer loop
      vertex 12.9432 10.6095 10
      vertex 25 3.5 10
      vertex 13.1994 11.3077 10
    endloop
  endfacet
  facet normal -0 0 1
    outer loop
      vertex 12.7082 9.90637 10
      vertex 25 3.5 10
      vertex 12.9432 10.6095 10
    endloop
  endfacet
  facet normal -0 0 1
    outer loop
      vertex 12.4943 9.1985 10
      vertex 25 3.5 10
      vertex 12.7082 9.90637 10
    endloop
  endfacet
  facet normal -0 0 1
    outer loop
      vertex 12.3547 8.69203 10
      vertex 25 3.5 10
      vertex 12.4943 9.1985 10
    endloop
  endfacet
  facet normal -0 0 1
    outer loop
      vertex 12.2282 8.17363 10
      vertex 25 3.5 10
      vertex 12.3547 8.69203 10
    endloop
  endfacet
  facet normal -0 0 1
    outer loop
      vertex 12.1149 7.6433 10
      vertex 25 3.5 10
      vertex 12.2282 8.17363 10
    endloop
  endfacet
  facet normal 0 -0 1
    outer loop
      vertex 21.7198 0.00690556 10
      vertex 25 3.5 10
      vertex 12.1149 7.6433 10
    endloop
  endfacet
  facet normal 0 0 1
    outer loop
      vertex 24.9724 3.06133 10
      vertex 21.7198 0.00690556 10
      vertex 24.89 2.62959 10
    endloop
  endfacet
  facet normal 0 0 1
    outer loop
      vertex 24.5671 1.81386 10
      vertex 21.7198 0.00690556 10
      vertex 24.3316 1.44275 10
    endloop
  endfacet
  facet normal 0 0 1
    outer loop
      vertex 24.0514 1.10408 10
      vertex 21.7198 0.00690556 10
      vertex 23.731 0.803204 10
    endloop
  endfacet
  facet normal 0 0 1
    outer loop
      vertex 23.3754 0.544852 10
      vertex 21.7198 0.00690556 10
      vertex 22.9902 0.333105 10
    endloop
  endfacet
  facet normal 0 0 1
    outer loop
      vertex 22.5816 0.171302 10
      vertex 21.7198 0.00690556 10
      vertex 22.1558 0.0619946 10
    endloop
  endfacet
  facet normal 0 0 1
    outer loop
      vertex 22.9902 0.333105 10
      vertex 21.7198 0.00690556 10
      vertex 22.5816 0.171302 10
    endloop
  endfacet
  facet normal 0 0 1
    outer loop
      vertex 23.731 0.803204 10
      vertex 21.7198 0.00690556 10
      vertex 23.3754 0.544852 10
    endloop
  endfacet
  facet normal 0 0 1
    outer loop
      vertex 24.3316 1.44275 10
      vertex 21.7198 0.00690556 10
      vertex 24.0514 1.10408 10
    endloop
  endfacet
  facet normal 0 0 1
    outer loop
      vertex 24.7542 2.21156 10
      vertex 21.7198 0.00690556 10
      vertex 24.5671 1.81386 10
    endloop
  endfacet
  facet normal 0 0 1
    outer loop
      vertex 24.89 2.62959 10
      vertex 21.7198 0.00690556 10
      vertex 24.7542 2.21156 10
    endloop
  endfacet
  facet normal 0 0 1
    outer loop
      vertex 25 3.5 10
      vertex 21.7198 0.00690556 10
      vertex 24.9724 3.06133 10
    endloop
  endfacet
  facet normal -0 0 1
    outer loop
      vertex 12.0148 7.10101 10
      vertex 21.7198 0.00690556 10
      vertex 12.1149 7.6433 10
    endloop
  endfacet
  facet normal -0 0 1
    outer loop
      vertex 11.9279 6.54678 10
      vertex 21.7198 0.00690556 10
      vertex 12.0148 7.10101 10
    endloop
  endfacet
  facet normal -0 0 1
    outer loop
      vertex 11.8542 5.98064 10
      vertex 21.7198 0.00690556 10
      vertex 11.9279 6.54678 10
    endloop
  endfacet
  facet normal -0 0 1
    outer loop
      vertex 11.7937 5.40254 10
      vertex 21.7198 0.00690556 10
      vertex 11.8542 5.98064 10
    endloop
  endfacet
  facet normal -0 0 1
    outer loop
      vertex 11.7463 4.8125 10
      vertex 21.7198 0.00690556 10
      vertex 11.7937 5.40254 10
    endloop
  endfacet
  facet normal 0 0 1
    outer loop
      vertex 3.28023 0.00690556 10
      vertex 11.7463 4.8125 10
      vertex 9.74034 4.8125 10
    endloop
  endfacet
  facet normal 0 0 1
    outer loop
      vertex 7.51733 20.5565 10
      vertex 0 21.5 10
      vertex 7.51733 18.7165 10
    endloop
  endfacet
  facet normal 0 0 1
    outer loop
      vertex 11.7463 4.8125 10
      vertex 3.28023 0.00690556 10
      vertex 21.7198 0.00690556 10
    endloop
  endfacet
  facet normal 0 0 1
    outer loop
      vertex 0 3.5 10
      vertex 7.51733 18.7165 10
      vertex 0 21.5 10
    endloop
  endfacet
  facet normal 0 0 1
    outer loop
      vertex 0 21.5 10
      vertex 3.28023 24.9931 10
      vertex 2.84416 24.938 10
    endloop
  endfacet
  facet normal 0 0 1
    outer loop
      vertex 9.75885 5.29678 10
      vertex 0 3.5 10
      vertex 9.74034 4.8125 10
    endloop
  endfacet
  facet normal 0 0 1
    outer loop
      vertex 0 21.5 10
      vertex 2.84416 24.938 10
      vertex 2.41844 24.8287 10
    endloop
  endfacet
  facet normal 0 0 1
    outer loop
      vertex 9.74034 4.8125 10
      vertex 0 3.5 10
      vertex 3.28023 0.00690556 10
    endloop
  endfacet
  facet normal 0 0 1
    outer loop
      vertex 0 21.5 10
      vertex 2.41844 24.8287 10
      vertex 2.00977 24.6669 10
    endloop
  endfacet
  facet normal 0 0 1
    outer loop
      vertex 3.28023 0.00690556 10
      vertex 0 3.5 10
      vertex 2.84416 0.0619946 10
    endloop
  endfacet
  facet normal 0 0 1
    outer loop
      vertex 0 21.5 10
      vertex 2.00977 24.6669 10
      vertex 1.62461 24.4551 10
    endloop
  endfacet
  facet normal 0 0 1
    outer loop
      vertex 2.84416 0.0619946 10
      vertex 0 3.5 10
      vertex 2.41844 0.171302 10
    endloop
  endfacet
  facet normal 0 0 1
    outer loop
      vertex 0 21.5 10
      vertex 1.62461 24.4551 10
      vertex 1.26902 24.1968 10
    endloop
  endfacet
  facet normal 0 0 1
    outer loop
      vertex 2.41844 0.171302 10
      vertex 0 3.5 10
      vertex 2.00977 0.333105 10
    endloop
  endfacet
  facet normal 0 0 1
    outer loop
      vertex 0 21.5 10
      vertex 1.26902 24.1968 10
      vertex 0.948609 23.8959 10
    endloop
  endfacet
  facet normal 0 0 1
    outer loop
      vertex 2.00977 0.333105 10
      vertex 0 3.5 10
      vertex 1.62461 0.544852 10
    endloop
  endfacet
  facet normal 0 0 1
    outer loop
      vertex 0 21.5 10
      vertex 0.948609 23.8959 10
      vertex 0.66844 23.5572 10
    endloop
  endfacet
  facet normal 0 0 1
    outer loop
      vertex 1.62461 0.544852 10
      vertex 0 3.5 10
      vertex 1.26902 0.803204 10
    endloop
  endfacet
  facet normal 0 0 1
    outer loop
      vertex 0 21.5 10
      vertex 0.66844 23.5572 10
      vertex 0.432926 23.1861 10
    endloop
  endfacet
  facet normal 0 0 1
    outer loop
      vertex 1.26902 0.803204 10
      vertex 0 3.5 10
      vertex 0.948609 1.10408 10
    endloop
  endfacet
  facet normal 0 0 1
    outer loop
      vertex 0 21.5 10
      vertex 0.432926 23.1861 10
      vertex 0.245782 22.7884 10
    endloop
  endfacet
  facet normal 0 0 1
    outer loop
      vertex 0.948609 1.10408 10
      vertex 0 3.5 10
      vertex 0.66844 1.44275 10
    endloop
  endfacet
  facet normal 0 0 1
    outer loop
      vertex 0 21.5 10
      vertex 0.245782 22.7884 10
      vertex 0.109959 22.3704 10
    endloop
  endfacet
  facet normal 0 0 1
    outer loop
      vertex 0.66844 1.44275 10
      vertex 0 3.5 10
      vertex 0.432926 1.81386 10
    endloop
  endfacet
  facet normal 0 0 1
    outer loop
      vertex 0 21.5 10
      vertex 0.109959 22.3704 10
      vertex 0.0275984 21.9387 10
    endloop
  endfacet
  facet normal 0 0 1
    outer loop
      vertex 0.432926 1.81386 10
      vertex 0 3.5 10
      vertex 0.245782 2.21156 10
    endloop
  endfacet
  facet normal 0 0 1
    outer loop
      vertex 0.245782 2.21156 10
      vertex 0 3.5 10
      vertex 0.109959 2.62959 10
    endloop
  endfacet
  facet normal 0 0 1
    outer loop
      vertex 0.109959 2.62959 10
      vertex 0 3.5 10
      vertex 0.0275984 3.06133 10
    endloop
  endfacet
  facet normal 0 0 1
    outer loop
      vertex 17.8083 20.5565 9
      vertex 17.429 18.6163 9
      vertex 17.8083 19.0385 9
    endloop
  endfacet
  facet normal -0 0 1
    outer loop
      vertex 15.3033 18.7165 9
      vertex 17.429 18.6163 9
      vertex 17.8083 20.5565 9
    endloop
  endfacet
  facet normal 0 0 1
    outer loop
      vertex 17.429 18.6163 9
      vertex 15.3033 18.7165 9
      vertex 17.0506 18.1608 9
    endloop
  endfacet
  facet normal 0 0 1
    outer loop
      vertex 17.0506 18.1608 9
      vertex 15.3033 18.7165 9
      vertex 16.673 17.672 9
    endloop
  endfacet
  facet normal -0 0 1
    outer loop
      vertex 14.9344 18.2785 9
      vertex 16.673 17.672 9
      vertex 15.3033 18.7165 9
    endloop
  endfacet
  facet normal 0 0 1
    outer loop
      vertex 16.673 17.672 9
      vertex 14.9344 18.2785 9
      vertex 16.2963 17.1497 9
    endloop
  endfacet
  facet normal -0 0 1
    outer loop
      vertex 14.5708 17.8162 9
      vertex 16.2963 17.1497 9
      vertex 14.9344 18.2785 9
    endloop
  endfacet
  facet normal -0 0 1
    outer loop
      vertex 7.51733 20.5565 9
      vertex 15.3033 18.7165 9
      vertex 17.8083 20.5565 9
    endloop
  endfacet
  facet normal 0 0 1
    outer loop
      vertex 15.3033 18.7165 9
      vertex 7.51733 20.5565 9
      vertex 7.51733 18.7165 9
    endloop
  endfacet
  facet normal 0 0 1
    outer loop
      vertex 16.2963 17.1497 9
      vertex 14.5708 17.8162 9
      vertex 15.9205 16.5942 9
    endloop
  endfacet
  facet normal -0 0 1
    outer loop
      vertex 14.2124 17.3296 9
      vertex 15.9205 16.5942 9
      vertex 14.5708 17.8162 9
    endloop
  endfacet
  facet normal 0 0 1
    outer loop
      vertex 15.9205 16.5942 9
      vertex 14.2124 17.3296 9
      vertex 15.5456 16.0053 9
    endloop
  endfacet
  facet normal -0 0 1
    outer loop
      vertex 13.8593 16.8185 9
      vertex 15.5456 16.0053 9
      vertex 14.2124 17.3296 9
    endloop
  endfacet
  facet normal 0 0 1
    outer loop
      vertex 15.5456 16.0053 9
      vertex 13.8593 16.8185 9
      vertex 15.1715 15.3831 9
    endloop
  endfacet
  facet normal -0 0 1
    outer loop
      vertex 13.5114 16.2831 9
      vertex 15.1715 15.3831 9
      vertex 13.8593 16.8185 9
    endloop
  endfacet
  facet normal 0 0 1
    outer loop
      vertex 15.1715 15.3831 9
      vertex 13.5114 16.2831 9
      vertex 14.7983 14.7275 9
    endloop
  endfacet
  facet normal -0 0 1
    outer loop
      vertex 13.1688 15.7232 9
      vertex 14.7983 14.7275 9
      vertex 13.5114 16.2831 9
    endloop
  endfacet
  facet normal -0 0 1
    outer loop
      vertex 12.8315 15.1391 9
      vertex 14.7983 14.7275 9
      vertex 13.1688 15.7232 9
    endloop
  endfacet
  facet normal 0 0 1
    outer loop
      vertex 14.7983 14.7275 9
      vertex 12.8315 15.1391 9
      vertex 14.4362 14.0531 9
    endloop
  endfacet
  facet normal -0 0 1
    outer loop
      vertex 12.4993 14.5305 9
      vertex 14.4362 14.0531 9
      vertex 12.8315 15.1391 9
    endloop
  endfacet
  facet normal 0 0 1
    outer loop
      vertex 14.4362 14.0531 9
      vertex 12.4993 14.5305 9
      vertex 14.0952 13.3739 9
    endloop
  endfacet
  facet normal -0 0 1
    outer loop
      vertex 12.1797 13.907 9
      vertex 14.0952 13.3739 9
      vertex 12.4993 14.5305 9
    endloop
  endfacet
  facet normal 0 0 1
    outer loop
      vertex 14.0952 13.3739 9
      vertex 12.1797 13.907 9
      vertex 13.7754 12.69 9
    endloop
  endfacet
  facet normal -0 0 1
    outer loop
      vertex 11.8791 13.2775 9
      vertex 13.7754 12.69 9
      vertex 12.1797 13.907 9
    endloop
  endfacet
  facet normal 0 0 1
    outer loop
      vertex 13.7754 12.69 9
      vertex 11.8791 13.2775 9
      vertex 13.4768 12.0013 9
    endloop
  endfacet
  facet normal -0 0 1
    outer loop
      vertex 11.5977 12.642 9
      vertex 13.4768 12.0013 9
      vertex 11.8791 13.2775 9
    endloop
  endfacet
  facet normal 0 0 1
    outer loop
      vertex 13.4768 12.0013 9
      vertex 11.5977 12.642 9
      vertex 13.1994 11.3077 9
    endloop
  endfacet
  facet normal -0 0 1
    outer loop
      vertex 11.3353 12.0005 9
      vertex 13.1994 11.3077 9
      vertex 11.5977 12.642 9
    endloop
  endfacet
  facet normal -0 0 1
    outer loop
      vertex 11.0921 11.353 9
      vertex 13.1994 11.3077 9
      vertex 11.3353 12.0005 9
    endloop
  endfacet
  facet normal 0 0 1
    outer loop
      vertex 13.1994 11.3077 9
      vertex 11.0921 11.353 9
      vertex 12.9432 10.6095 9
    endloop
  endfacet
  facet normal -0 0 1
    outer loop
      vertex 10.8681 10.6995 9
      vertex 12.9432 10.6095 9
      vertex 11.0921 11.353 9
    endloop
  endfacet
  facet normal 0 0 1
    outer loop
      vertex 12.9432 10.6095 9
      vertex 10.8681 10.6995 9
      vertex 12.7082 9.90637 9
    endloop
  endfacet
  facet normal -0 0 1
    outer loop
      vertex 10.6631 10.04 9
      vertex 12.7082 9.90637 9
      vertex 10.8681 10.6995 9
    endloop
  endfacet
  facet normal 0 0 1
    outer loop
      vertex 12.7082 9.90637 9
      vertex 10.6631 10.04 9
      vertex 12.4943 9.1985 9
    endloop
  endfacet
  facet normal -0 0 1
    outer loop
      vertex 10.4773 9.37451 9
      vertex 12.4943 9.1985 9
      vertex 10.6631 10.04 9
    endloop
  endfacet
  facet normal 0 0 1
    outer loop
      vertex 12.4943 9.1985 9
      vertex 10.4773 9.37451 9
      vertex 12.3547 8.69203 9
    endloop
  endfacet
  facet normal -0 0 1
    outer loop
      vertex 10.3116 8.71829 9
      vertex 12.3547 8.69203 9
      vertex 10.4773 9.37451 9
    endloop
  endfacet
  facet normal 0 0 1
    outer loop
      vertex 12.3547 8.69203 9
      vertex 10.3116 8.71829 9
      vertex 12.2282 8.17363 9
    endloop
  endfacet
  facet normal 0 0 1
    outer loop
      vertex 10.1669 8.08664 9
      vertex 12.2282 8.17363 9
      vertex 10.3116 8.71829 9
    endloop
  endfacet
  facet normal 0 0 1
    outer loop
      vertex 12.2282 8.17363 9
      vertex 10.1669 8.08664 9
      vertex 12.1149 7.6433 9
    endloop
  endfacet
  facet normal 0 0 1
    outer loop
      vertex 10.0432 7.47954 9
      vertex 12.1149 7.6433 9
      vertex 10.1669 8.08664 9
    endloop
  endfacet
  facet normal 0 0 1
    outer loop
      vertex 12.1149 7.6433 9
      vertex 10.0432 7.47954 9
      vertex 12.0148 7.10101 9
    endloop
  endfacet
  facet normal 0 0 1
    outer loop
      vertex 9.94058 6.897 9
      vertex 12.0148 7.10101 9
      vertex 10.0432 7.47954 9
    endloop
  endfacet
  facet normal 0 0 1
    outer loop
      vertex 12.0148 7.10101 9
      vertex 9.94058 6.897 9
      vertex 11.9279 6.54678 9
    endloop
  endfacet
  facet normal 0 0 1
    outer loop
      vertex 9.85898 6.33904 9
      vertex 11.9279 6.54678 9
      vertex 9.94058 6.897 9
    endloop
  endfacet
  facet normal 0 0 1
    outer loop
      vertex 11.9279 6.54678 9
      vertex 9.85898 6.33904 9
      vertex 11.8542 5.98064 9
    endloop
  endfacet
  facet normal 0 0 1
    outer loop
      vertex 9.7984 5.80563 9
      vertex 11.8542 5.98064 9
      vertex 9.85898 6.33904 9
    endloop
  endfacet
  facet normal 0 0 1
    outer loop
      vertex 11.8542 5.98064 9
      vertex 9.7984 5.80563 9
      vertex 11.7937 5.40254 9
    endloop
  endfacet
  facet normal 0 0 1
    outer loop
      vertex 9.75885 5.29678 9
      vertex 11.7937 5.40254 9
      vertex 9.7984 5.80563 9
    endloop
  endfacet
  facet normal 0 0 1
    outer loop
      vertex 11.7937 5.40254 9
      vertex 9.75885 5.29678 9
      vertex 11.7463 4.8125 9
    endloop
  endfacet
  facet normal 0 0 1
    outer loop
      vertex 11.7463 4.8125 9
      vertex 9.75885 5.29678 9
      vertex 9.74034 4.8125 9
    endloop
  endfacet
  facet normal -0.994563 0.10414 0
    outer loop
      vertex 11.7937 5.40254 9
      vertex 11.8542 5.98064 10
      vertex 11.8542 5.98064 9
    endloop
  endfacet
  facet normal -0.994563 0.10414 0
    outer loop
      vertex 11.8542 5.98064 10
      vertex 11.7937 5.40254 9
      vertex 11.7937 5.40254 10
    endloop
  endfacet
  facet normal -0.99163 0.129115 0
    outer loop
      vertex 11.8542 5.98064 9
      vertex 11.9279 6.54678 10
      vertex 11.9279 6.54678 9
    endloop
  endfacet
  facet normal -0.99163 0.129115 0
    outer loop
      vertex 11.9279 6.54678 10
      vertex 11.8542 5.98064 9
      vertex 11.8542 5.98064 10
    endloop
  endfacet
  facet normal -0.987926 0.154926 0
    outer loop
      vertex 11.9279 6.54678 9
      vertex 12.0148 7.10101 10
      vertex 12.0148 7.10101 9
    endloop
  endfacet
  facet normal -0.987926 0.154926 0
    outer loop
      vertex 12.0148 7.10101 10
      vertex 11.9279 6.54678 9
      vertex 11.9279 6.54678 10
    endloop
  endfacet
  facet normal -0.983392 0.181493 0
    outer loop
      vertex 12.0148 7.10101 9
      vertex 12.1149 7.6433 10
      vertex 12.1149 7.6433 9
    endloop
  endfacet
  facet normal -0.983392 0.181493 0
    outer loop
      vertex 12.1149 7.6433 10
      vertex 12.0148 7.10101 9
      vertex 12.0148 7.10101 10
    endloop
  endfacet
  facet normal -0.977939 0.208891 0
    outer loop
      vertex 12.1149 7.6433 9
      vertex 12.2282 8.17363 10
      vertex 12.2282 8.17363 9
    endloop
  endfacet
  facet normal -0.977939 0.208891 0
    outer loop
      vertex 12.2282 8.17363 10
      vertex 12.1149 7.6433 9
      vertex 12.1149 7.6433 10
    endloop
  endfacet
  facet normal -0.971503 0.237028 0
    outer loop
      vertex 12.2282 8.17363 9
      vertex 12.3547 8.69203 10
      vertex 12.3547 8.69203 9
    endloop
  endfacet
  facet normal -0.971503 0.237028 0
    outer loop
      vertex 12.3547 8.69203 10
      vertex 12.2282 8.17363 9
      vertex 12.2282 8.17363 10
    endloop
  endfacet
  facet normal -0.964025 0.26581 0
    outer loop
      vertex 12.3547 8.69203 9
      vertex 12.4943 9.1985 10
      vertex 12.4943 9.1985 9
    endloop
  endfacet
  facet normal -0.964025 0.26581 0
    outer loop
      vertex 12.4943 9.1985 10
      vertex 12.3547 8.69203 9
      vertex 12.3547 8.69203 10
    endloop
  endfacet
  facet normal -0.957275 0.289178 0
    outer loop
      vertex 12.4943 9.1985 9
      vertex 12.7082 9.90637 10
      vertex 12.7082 9.90637 9
    endloop
  endfacet
  facet normal -0.957275 0.289178 0
    outer loop
      vertex 12.7082 9.90637 10
      vertex 12.4943 9.1985 9
      vertex 12.4943 9.1985 10
    endloop
  endfacet
  facet normal -0.948411 0.317043 0
    outer loop
      vertex 12.7082 9.90637 9
      vertex 12.9432 10.6095 10
      vertex 12.9432 10.6095 9
    endloop
  endfacet
  facet normal -0.948411 0.317043 0
    outer loop
      vertex 12.9432 10.6095 10
      vertex 12.7082 9.90637 9
      vertex 12.7082 9.90637 10
    endloop
  endfacet
  facet normal -0.938802 0.344458 0
    outer loop
      vertex 12.9432 10.6095 9
      vertex 13.1994 11.3077 10
      vertex 13.1994 11.3077 9
    endloop
  endfacet
  facet normal -0.938802 0.344458 0
    outer loop
      vertex 13.1994 11.3077 10
      vertex 12.9432 10.6095 9
      vertex 12.9432 10.6095 10
    endloop
  endfacet
  facet normal -0.928477 0.371391 0
    outer loop
      vertex 13.1994 11.3077 9
      vertex 13.4768 12.0013 10
      vertex 13.4768 12.0013 9
    endloop
  endfacet
  facet normal -0.928477 0.371391 0
    outer loop
      vertex 13.4768 12.0013 10
      vertex 13.1994 11.3077 9
      vertex 13.1994 11.3077 10
    endloop
  endfacet
  facet normal -0.917481 0.39778 0
    outer loop
      vertex 13.4768 12.0013 9
      vertex 13.7754 12.69 10
      vertex 13.7754 12.69 9
    endloop
  endfacet
  facet normal -0.917481 0.39778 0
    outer loop
      vertex 13.7754 12.69 10
      vertex 13.4768 12.0013 9
      vertex 13.4768 12.0013 10
    endloop
  endfacet
  facet normal -0.90588 0.423535 0
    outer loop
      vertex 13.7754 12.69 9
      vertex 14.0952 13.3739 10
      vertex 14.0952 13.3739 9
    endloop
  endfacet
  facet normal -0.90588 0.423535 0
    outer loop
      vertex 14.0952 13.3739 10
      vertex 13.7754 12.69 9
      vertex 13.7754 12.69 10
    endloop
  endfacet
  facet normal -0.893695 0.448675 0
    outer loop
      vertex 14.0952 13.3739 9
      vertex 14.4362 14.0531 10
      vertex 14.4362 14.0531 9
    endloop
  endfacet
  facet normal -0.893695 0.448675 0
    outer loop
      vertex 14.4362 14.0531 10
      vertex 14.0952 13.3739 9
      vertex 14.0952 13.3739 10
    endloop
  endfacet
  facet normal -0.881006 0.473105 0
    outer loop
      vertex 14.4362 14.0531 9
      vertex 14.7983 14.7275 10
      vertex 14.7983 14.7275 9
    endloop
  endfacet
  facet normal -0.881006 0.473105 0
    outer loop
      vertex 14.7983 14.7275 10
      vertex 14.4362 14.0531 9
      vertex 14.4362 14.0531 10
    endloop
  endfacet
  facet normal -0.86906 0.494707 0
    outer loop
      vertex 14.7983 14.7275 9
      vertex 15.1715 15.3831 10
      vertex 15.1715 15.3831 9
    endloop
  endfacet
  facet normal -0.86906 0.494707 0
    outer loop
      vertex 15.1715 15.3831 10
      vertex 14.7983 14.7275 9
      vertex 14.7983 14.7275 10
    endloop
  endfacet
  facet normal -0.857051 0.515231 0
    outer loop
      vertex 15.1715 15.3831 9
      vertex 15.5456 16.0053 10
      vertex 15.5456 16.0053 9
    endloop
  endfacet
  facet normal -0.857051 0.515231 0
    outer loop
      vertex 15.5456 16.0053 10
      vertex 15.1715 15.3831 9
      vertex 15.1715 15.3831 10
    endloop
  endfacet
  facet normal -0.843535 0.537075 0
    outer loop
      vertex 15.5456 16.0053 9
      vertex 15.9205 16.5942 10
      vertex 15.9205 16.5942 9
    endloop
  endfacet
  facet normal -0.843535 0.537075 0
    outer loop
      vertex 15.9205 16.5942 10
      vertex 15.5456 16.0053 9
      vertex 15.5456 16.0053 10
    endloop
  endfacet
  facet normal -0.82829 0.5603 0
    outer loop
      vertex 15.9205 16.5942 9
      vertex 16.2963 17.1497 10
      vertex 16.2963 17.1497 9
    endloop
  endfacet
  facet normal -0.82829 0.5603 0
    outer loop
      vertex 16.2963 17.1497 10
      vertex 15.9205 16.5942 9
      vertex 15.9205 16.5942 10
    endloop
  endfacet
  facet normal -0.811012 0.585029 0
    outer loop
      vertex 16.2963 17.1497 9
      vertex 16.673 17.672 10
      vertex 16.673 17.672 9
    endloop
  endfacet
  facet normal -0.811012 0.585029 0
    outer loop
      vertex 16.673 17.672 10
      vertex 16.2963 17.1497 9
      vertex 16.2963 17.1497 10
    endloop
  endfacet
  facet normal -0.791448 0.611237 0
    outer loop
      vertex 16.673 17.672 9
      vertex 17.0506 18.1608 10
      vertex 17.0506 18.1608 9
    endloop
  endfacet
  facet normal -0.791448 0.611237 0
    outer loop
      vertex 17.0506 18.1608 10
      vertex 16.673 17.672 9
      vertex 16.673 17.672 10
    endloop
  endfacet
  facet normal -0.769167 0.639048 0
    outer loop
      vertex 17.0506 18.1608 9
      vertex 17.429 18.6163 10
      vertex 17.429 18.6163 9
    endloop
  endfacet
  facet normal -0.769167 0.639048 0
    outer loop
      vertex 17.429 18.6163 10
      vertex 17.0506 18.1608 9
      vertex 17.0506 18.1608 10
    endloop
  endfacet
  facet normal -0.743871 0.668323 0
    outer loop
      vertex 17.429 18.6163 9
      vertex 17.8083 19.0385 10
      vertex 17.8083 19.0385 9
    endloop
  endfacet
  facet normal -0.743871 0.668323 0
    outer loop
      vertex 17.8083 19.0385 10
      vertex 17.429 18.6163 9
      vertex 17.429 18.6163 10
    endloop
  endfacet
  facet normal -1 0 0
    outer loop
      vertex 17.8083 19.0385 9
      vertex 17.8083 20.5565 10
      vertex 17.8083 20.5565 9
    endloop
  endfacet
  facet normal -1 -0 0
    outer loop
      vertex 17.8083 20.5565 10
      vertex 17.8083 19.0385 9
      vertex 17.8083 19.0385 10
    endloop
  endfacet
  facet normal 0 -1 0
    outer loop
      vertex 7.51733 20.5565 9
      vertex 17.8083 20.5565 10
      vertex 7.51733 20.5565 10
    endloop
  endfacet
  facet normal 0 -1 -0
    outer loop
      vertex 17.8083 20.5565 10
      vertex 7.51733 20.5565 9
      vertex 17.8083 20.5565 9
    endloop
  endfacet
  facet normal 1 -0 0
    outer loop
      vertex 7.51733 18.7165 10
      vertex 7.51733 20.5565 9
      vertex 7.51733 20.5565 10
    endloop
  endfacet
  facet normal 1 0 0
    outer loop
      vertex 7.51733 20.5565 9
      vertex 7.51733 18.7165 10
      vertex 7.51733 18.7165 9
    endloop
  endfacet
  facet normal 0 1 -0
    outer loop
      vertex 15.3033 18.7165 9
      vertex 7.51733 18.7165 10
      vertex 15.3033 18.7165 10
    endloop
  endfacet
  facet normal 0 1 0
    outer loop
      vertex 7.51733 18.7165 10
      vertex 15.3033 18.7165 9
      vertex 7.51733 18.7165 9
    endloop
  endfacet
  facet normal 0.764836 -0.644225 0
    outer loop
      vertex 14.9344 18.2785 10
      vertex 15.3033 18.7165 9
      vertex 15.3033 18.7165 10
    endloop
  endfacet
  facet normal 0.764836 -0.644225 0
    outer loop
      vertex 15.3033 18.7165 9
      vertex 14.9344 18.2785 10
      vertex 14.9344 18.2785 9
    endloop
  endfacet
  facet normal 0.78601 -0.618213 0
    outer loop
      vertex 14.5708 17.8162 10
      vertex 14.9344 18.2785 9
      vertex 14.9344 18.2785 10
    endloop
  endfacet
  facet normal 0.78601 -0.618213 0
    outer loop
      vertex 14.9344 18.2785 9
      vertex 14.5708 17.8162 10
      vertex 14.5708 17.8162 9
    endloop
  endfacet
  facet normal 0.805232 -0.59296 0
    outer loop
      vertex 14.2124 17.3296 10
      vertex 14.5708 17.8162 9
      vertex 14.5708 17.8162 10
    endloop
  endfacet
  facet normal 0.805232 -0.59296 0
    outer loop
      vertex 14.5708 17.8162 9
      vertex 14.2124 17.3296 10
      vertex 14.2124 17.3296 9
    endloop
  endfacet
  facet normal 0.822714 -0.568455 0
    outer loop
      vertex 13.8593 16.8185 10
      vertex 14.2124 17.3296 9
      vertex 14.2124 17.3296 10
    endloop
  endfacet
  facet normal 0.822714 -0.568455 0
    outer loop
      vertex 14.2124 17.3296 9
      vertex 13.8593 16.8185 10
      vertex 13.8593 16.8185 9
    endloop
  endfacet
  facet normal 0.838554 -0.544818 0
    outer loop
      vertex 13.5114 16.2831 10
      vertex 13.8593 16.8185 9
      vertex 13.8593 16.8185 10
    endloop
  endfacet
  facet normal 0.838554 -0.544818 0
    outer loop
      vertex 13.8593 16.8185 9
      vertex 13.5114 16.2831 10
      vertex 13.5114 16.2831 9
    endloop
  endfacet
  facet normal 0.852935 -0.522018 0
    outer loop
      vertex 13.1688 15.7232 10
      vertex 13.5114 16.2831 9
      vertex 13.5114 16.2831 10
    endloop
  endfacet
  facet normal 0.852935 -0.522018 0
    outer loop
      vertex 13.5114 16.2831 9
      vertex 13.1688 15.7232 10
      vertex 13.1688 15.7232 9
    endloop
  endfacet
  facet normal 0.865965 -0.500104 0
    outer loop
      vertex 12.8315 15.1391 10
      vertex 13.1688 15.7232 9
      vertex 13.1688 15.7232 10
    endloop
  endfacet
  facet normal 0.865965 -0.500104 0
    outer loop
      vertex 13.1688 15.7232 9
      vertex 12.8315 15.1391 10
      vertex 12.8315 15.1391 9
    endloop
  endfacet
  facet normal 0.877797 -0.479033 0
    outer loop
      vertex 12.4993 14.5305 10
      vertex 12.8315 15.1391 9
      vertex 12.8315 15.1391 10
    endloop
  endfacet
  facet normal 0.877797 -0.479033 0
    outer loop
      vertex 12.8315 15.1391 9
      vertex 12.4993 14.5305 10
      vertex 12.4993 14.5305 9
    endloop
  endfacet
  facet normal 0.889847 -0.456259 0
    outer loop
      vertex 12.1797 13.907 10
      vertex 12.4993 14.5305 9
      vertex 12.4993 14.5305 10
    endloop
  endfacet
  facet normal 0.889847 -0.456259 0
    outer loop
      vertex 12.4993 14.5305 9
      vertex 12.1797 13.907 10
      vertex 12.1797 13.907 9
    endloop
  endfacet
  facet normal 0.902412 -0.430874 0
    outer loop
      vertex 11.8791 13.2775 10
      vertex 12.1797 13.907 9
      vertex 12.1797 13.907 10
    endloop
  endfacet
  facet normal 0.902412 -0.430874 0
    outer loop
      vertex 12.1797 13.907 9
      vertex 11.8791 13.2775 10
      vertex 11.8791 13.2775 9
    endloop
  endfacet
  facet normal 0.91435 -0.404924 0
    outer loop
      vertex 11.5977 12.642 10
      vertex 11.8791 13.2775 9
      vertex 11.8791 13.2775 10
    endloop
  endfacet
  facet normal 0.91435 -0.404924 0
    outer loop
      vertex 11.8791 13.2775 9
      vertex 11.5977 12.642 10
      vertex 11.5977 12.642 9
    endloop
  endfacet
  facet normal 0.925606 -0.37849 0
    outer loop
      vertex 11.3353 12.0005 10
      vertex 11.5977 12.642 9
      vertex 11.5977 12.642 10
    endloop
  endfacet
  facet normal 0.925606 -0.37849 0
    outer loop
      vertex 11.5977 12.642 9
      vertex 11.3353 12.0005 10
      vertex 11.3353 12.0005 9
    endloop
  endfacet
  facet normal 0.936146 -0.351612 0
    outer loop
      vertex 11.0921 11.353 10
      vertex 11.3353 12.0005 9
      vertex 11.3353 12.0005 10
    endloop
  endfacet
  facet normal 0.936146 -0.351612 0
    outer loop
      vertex 11.3353 12.0005 9
      vertex 11.0921 11.353 10
      vertex 11.0921 11.353 9
    endloop
  endfacet
  facet normal 0.945945 -0.324327 0
    outer loop
      vertex 10.8681 10.6995 10
      vertex 11.0921 11.353 9
      vertex 11.0921 11.353 10
    endloop
  endfacet
  facet normal 0.945945 -0.324327 0
    outer loop
      vertex 11.0921 11.353 9
      vertex 10.8681 10.6995 10
      vertex 10.8681 10.6995 9
    endloop
  endfacet
  facet normal 0.954954 -0.296754 0
    outer loop
      vertex 10.6631 10.04 10
      vertex 10.8681 10.6995 9
      vertex 10.8681 10.6995 10
    endloop
  endfacet
  facet normal 0.954954 -0.296754 0
    outer loop
      vertex 10.8681 10.6995 9
      vertex 10.6631 10.04 10
      vertex 10.6631 10.04 9
    endloop
  endfacet
  facet normal 0.963164 -0.268915 0
    outer loop
      vertex 10.4773 9.37451 10
      vertex 10.6631 10.04 9
      vertex 10.6631 10.04 10
    endloop
  endfacet
  facet normal 0.963164 -0.268915 0
    outer loop
      vertex 10.6631 10.04 9
      vertex 10.4773 9.37451 10
      vertex 10.4773 9.37451 9
    endloop
  endfacet
  facet normal 0.969554 -0.24488 0
    outer loop
      vertex 10.3116 8.71829 10
      vertex 10.4773 9.37451 9
      vertex 10.4773 9.37451 10
    endloop
  endfacet
  facet normal 0.969554 -0.24488 0
    outer loop
      vertex 10.4773 9.37451 9
      vertex 10.3116 8.71829 10
      vertex 10.3116 8.71829 9
    endloop
  endfacet
  facet normal 0.974751 -0.223296 0
    outer loop
      vertex 10.1669 8.08664 10
      vertex 10.3116 8.71829 9
      vertex 10.3116 8.71829 10
    endloop
  endfacet
  facet normal 0.974751 -0.223296 0
    outer loop
      vertex 10.3116 8.71829 9
      vertex 10.1669 8.08664 10
      vertex 10.1669 8.08664 9
    endloop
  endfacet
  facet normal 0.979875 -0.19961 0
    outer loop
      vertex 10.0432 7.47954 10
      vertex 10.1669 8.08664 9
      vertex 10.1669 8.08664 10
    endloop
  endfacet
  facet normal 0.979875 -0.19961 0
    outer loop
      vertex 10.1669 8.08664 9
      vertex 10.0432 7.47954 10
      vertex 10.0432 7.47954 9
    endloop
  endfacet
  facet normal 0.984828 -0.173532 0
    outer loop
      vertex 9.94058 6.897 10
      vertex 10.0432 7.47954 9
      vertex 10.0432 7.47954 10
    endloop
  endfacet
  facet normal 0.984828 -0.173532 0
    outer loop
      vertex 10.0432 7.47954 9
      vertex 9.94058 6.897 10
      vertex 9.94058 6.897 9
    endloop
  endfacet
  facet normal 0.989474 -0.144713 0
    outer loop
      vertex 9.85898 6.33904 10
      vertex 9.94058 6.897 9
      vertex 9.94058 6.897 10
    endloop
  endfacet
  facet normal 0.989474 -0.144713 0
    outer loop
      vertex 9.94058 6.897 9
      vertex 9.85898 6.33904 10
      vertex 9.85898 6.33904 9
    endloop
  endfacet
  facet normal 0.993613 -0.112843 0
    outer loop
      vertex 9.7984 5.80563 10
      vertex 9.85898 6.33904 9
      vertex 9.85898 6.33904 10
    endloop
  endfacet
  facet normal 0.993613 -0.112843 0
    outer loop
      vertex 9.85898 6.33904 9
      vertex 9.7984 5.80563 10
      vertex 9.7984 5.80563 9
    endloop
  endfacet
  facet normal 0.996993 -0.0774921 0
    outer loop
      vertex 9.75885 5.29678 10
      vertex 9.7984 5.80563 9
      vertex 9.7984 5.80563 10
    endloop
  endfacet
  facet normal 0.996993 -0.0774921 0
    outer loop
      vertex 9.7984 5.80563 9
      vertex 9.75885 5.29678 10
      vertex 9.75885 5.29678 9
    endloop
  endfacet
  facet normal 0.99927 -0.0381913 0
    outer loop
      vertex 9.74034 4.8125 10
      vertex 9.75885 5.29678 9
      vertex 9.75885 5.29678 10
    endloop
  endfacet
  facet normal 0.99927 -0.0381913 0
    outer loop
      vertex 9.75885 5.29678 9
      vertex 9.74034 4.8125 10
      vertex 9.74034 4.8125 9
    endloop
  endfacet
  facet normal 0 1 -0
    outer loop
      vertex 11.7463 4.8125 9
      vertex 9.74034 4.8125 10
      vertex 11.7463 4.8125 10
    endloop
  endfacet
  facet normal 0 1 0
    outer loop
      vertex 9.74034 4.8125 10
      vertex 11.7463 4.8125 9
      vertex 9.74034 4.8125 9
    endloop
  endfacet
  facet normal -0.996796 0.079988 0
    outer loop
      vertex 11.7463 4.8125 9
      vertex 11.7937 5.40254 10
      vertex 11.7937 5.40254 9
    endloop
  endfacet
  facet normal -0.996796 0.079988 0
    outer loop
      vertex 11.7937 5.40254 10
      vertex 11.7463 4.8125 9
      vertex 11.7463 4.8125 10
    endloop
  endfacet
endsolid OpenSCAD_Model
