solid OpenSCAD_Model
  facet normal 0.649446 0.760408 -0
    outer loop
      vertex 8.83883 8.83883 0
      vertex 7.34731 10.1127 5
      vertex 8.83883 8.83883 5
    endloop
  endfacet
  facet normal 0.649446 0.760408 0
    outer loop
      vertex 7.34731 10.1127 5
      vertex 8.83883 8.83883 0
      vertex 7.34731 10.1127 0
    endloop
  endfacet
  facet normal -0.382672 0.923884 0
    outer loop
      vertex -3.86271 11.8882 0
      vertex -5.67488 11.1376 5
      vertex -3.86271 11.8882 5
    endloop
  endfacet
  facet normal -0.382672 0.923884 0
    outer loop
      vertex -5.67488 11.1376 5
      vertex -3.86271 11.8882 0
      vertex -5.67488 11.1376 0
    endloop
  endfacet
  facet normal -0.852633 0.522511 0
    outer loop
      vertex -11.1376 5.67488 0
      vertex -10.1127 7.34731 5
      vertex -10.1127 7.34731 0
    endloop
  endfacet
  facet normal -0.852633 0.522511 0
    outer loop
      vertex -10.1127 7.34731 5
      vertex -11.1376 5.67488 0
      vertex -11.1376 5.67488 5
    endloop
  endfacet
  facet normal 0.923884 0.382672 0
    outer loop
      vertex 11.8882 3.86271 5
      vertex 11.1376 5.67488 0
      vertex 11.1376 5.67488 5
    endloop
  endfacet
  facet normal 0.923884 0.382672 0
    outer loop
      vertex 11.1376 5.67488 0
      vertex 11.8882 3.86271 5
      vertex 11.8882 3.86271 0
    endloop
  endfacet
  facet normal 0.852633 0.522511 0
    outer loop
      vertex 11.1376 5.67488 5
      vertex 10.1127 7.34731 0
      vertex 10.1127 7.34731 5
    endloop
  endfacet
  facet normal 0.852633 0.522511 0
    outer loop
      vertex 10.1127 7.34731 0
      vertex 11.1376 5.67488 5
      vertex 11.1376 5.67488 0
    endloop
  endfacet
  facet normal 0.760408 0.649446 0
    outer loop
      vertex 10.1127 7.34731 5
      vertex 8.83883 8.83883 0
      vertex 8.83883 8.83883 5
    endloop
  endfacet
  facet normal 0.760408 0.649446 0
    outer loop
      vertex 8.83883 8.83883 0
      vertex 10.1127 7.34731 5
      vertex 10.1127 7.34731 0
    endloop
  endfacet
  facet normal 0.522511 0.852633 -0
    outer loop
      vertex 7.34731 10.1127 0
      vertex 5.67488 11.1376 5
      vertex 7.34731 10.1127 5
    endloop
  endfacet
  facet normal 0.522511 0.852633 0
    outer loop
      vertex 5.67488 11.1376 5
      vertex 7.34731 10.1127 0
      vertex 5.67488 11.1376 0
    endloop
  endfacet
  facet normal 0.0784613 0.996917 -0
    outer loop
      vertex 1.95543 12.3461 0
      vertex 0 12.5 5
      vertex 1.95543 12.3461 5
    endloop
  endfacet
  facet normal 0.0784613 0.996917 0
    outer loop
      vertex 0 12.5 5
      vertex 1.95543 12.3461 0
      vertex 0 12.5 0
    endloop
  endfacet
  facet normal -0.996917 0.0784613 0
    outer loop
      vertex -12.5 0 0
      vertex -12.3461 1.95543 5
      vertex -12.3461 1.95543 0
    endloop
  endfacet
  facet normal -0.996917 0.0784613 0
    outer loop
      vertex -12.3461 1.95543 5
      vertex -12.5 0 0
      vertex -12.5 0 5
    endloop
  endfacet
  facet normal -0.760408 0.649446 0
    outer loop
      vertex -10.1127 7.34731 0
      vertex -8.83883 8.83883 5
      vertex -8.83883 8.83883 0
    endloop
  endfacet
  facet normal -0.760408 0.649446 0
    outer loop
      vertex -8.83883 8.83883 5
      vertex -10.1127 7.34731 0
      vertex -10.1127 7.34731 5
    endloop
  endfacet
  facet normal -0.522511 0.852633 0
    outer loop
      vertex -5.67488 11.1376 0
      vertex -7.34731 10.1127 5
      vertex -5.67488 11.1376 5
    endloop
  endfacet
  facet normal -0.522511 0.852633 0
    outer loop
      vertex -7.34731 10.1127 5
      vertex -5.67488 11.1376 0
      vertex -7.34731 10.1127 0
    endloop
  endfacet
  facet normal -0.0784613 0.996917 0
    outer loop
      vertex 0 12.5 0
      vertex -1.95543 12.3461 5
      vertex 0 12.5 5
    endloop
  endfacet
  facet normal -0.0784613 0.996917 0
    outer loop
      vertex -1.95543 12.3461 5
      vertex 0 12.5 0
      vertex -1.95543 12.3461 0
    endloop
  endfacet
  facet normal -0.649446 0.760408 0
    outer loop
      vertex -7.34731 10.1127 0
      vertex -8.83883 8.83883 5
      vertex -7.34731 10.1127 5
    endloop
  endfacet
  facet normal -0.649446 0.760408 0
    outer loop
      vertex -8.83883 8.83883 5
      vertex -7.34731 10.1127 0
      vertex -8.83883 8.83883 0
    endloop
  endfacet
  facet normal 0.996917 0.0784613 0
    outer loop
      vertex 12.5 0 5
      vertex 12.3461 1.95543 0
      vertex 12.3461 1.95543 5
    endloop
  endfacet
  facet normal 0.996917 0.0784613 0
    outer loop
      vertex 12.3461 1.95543 0
      vertex 12.5 0 5
      vertex 12.5 0 0
    endloop
  endfacet
  facet normal 0.0784613 -0.996917 0
    outer loop
      vertex 0 -12.5 0
      vertex 1.95543 -12.3461 5
      vertex 0 -12.5 5
    endloop
  endfacet
  facet normal 0.0784613 -0.996917 0
    outer loop
      vertex 1.95543 -12.3461 5
      vertex 0 -12.5 0
      vertex 1.95543 -12.3461 0
    endloop
  endfacet
  facet normal 0.760408 -0.649446 0
    outer loop
      vertex 8.83883 -8.83883 5
      vertex 10.1127 -7.34731 0
      vertex 10.1127 -7.34731 5
    endloop
  endfacet
  facet normal 0.760408 -0.649446 0
    outer loop
      vertex 10.1127 -7.34731 0
      vertex 8.83883 -8.83883 5
      vertex 8.83883 -8.83883 0
    endloop
  endfacet
  facet normal 0.923884 -0.382672 0
    outer loop
      vertex 11.1376 -5.67488 5
      vertex 11.8882 -3.86271 0
      vertex 11.8882 -3.86271 5
    endloop
  endfacet
  facet normal 0.923884 -0.382672 0
    outer loop
      vertex 11.8882 -3.86271 0
      vertex 11.1376 -5.67488 5
      vertex 11.1376 -5.67488 0
    endloop
  endfacet
  facet normal 0.382672 -0.923884 0
    outer loop
      vertex 3.86271 -11.8882 0
      vertex 5.67488 -11.1376 5
      vertex 3.86271 -11.8882 5
    endloop
  endfacet
  facet normal 0.382672 -0.923884 0
    outer loop
      vertex 5.67488 -11.1376 5
      vertex 3.86271 -11.8882 0
      vertex 5.67488 -11.1376 0
    endloop
  endfacet
  facet normal 0.522511 -0.852633 0
    outer loop
      vertex 5.67488 -11.1376 0
      vertex 7.34731 -10.1127 5
      vertex 5.67488 -11.1376 5
    endloop
  endfacet
  facet normal 0.522511 -0.852633 0
    outer loop
      vertex 7.34731 -10.1127 5
      vertex 5.67488 -11.1376 0
      vertex 7.34731 -10.1127 0
    endloop
  endfacet
  facet normal -0.0784613 -0.996917 0
    outer loop
      vertex -1.95543 -12.3461 0
      vertex 0 -12.5 5
      vertex -1.95543 -12.3461 5
    endloop
  endfacet
  facet normal -0.0784613 -0.996917 -0
    outer loop
      vertex 0 -12.5 5
      vertex -1.95543 -12.3461 0
      vertex 0 -12.5 0
    endloop
  endfacet
  facet normal -0.649446 -0.760408 0
    outer loop
      vertex -8.83883 -8.83883 0
      vertex -7.34731 -10.1127 5
      vertex -8.83883 -8.83883 5
    endloop
  endfacet
  facet normal -0.649446 -0.760408 -0
    outer loop
      vertex -7.34731 -10.1127 5
      vertex -8.83883 -8.83883 0
      vertex -7.34731 -10.1127 0
    endloop
  endfacet
  facet normal -0.852633 -0.522511 0
    outer loop
      vertex -10.1127 -7.34731 0
      vertex -11.1376 -5.67488 5
      vertex -11.1376 -5.67488 0
    endloop
  endfacet
  facet normal -0.852633 -0.522511 0
    outer loop
      vertex -11.1376 -5.67488 5
      vertex -10.1127 -7.34731 0
      vertex -10.1127 -7.34731 5
    endloop
  endfacet
  facet normal -0.996917 -0.0784613 0
    outer loop
      vertex -12.3461 -1.95543 0
      vertex -12.5 0 5
      vertex -12.5 0 0
    endloop
  endfacet
  facet normal -0.996917 -0.0784613 0
    outer loop
      vertex -12.5 0 5
      vertex -12.3461 -1.95543 0
      vertex -12.3461 -1.95543 5
    endloop
  endfacet
  facet normal 0 0 -1
    outer loop
      vertex 11 0 0
      vertex 12.5 0 0
      vertex 12.3461 -1.95543 0
    endloop
  endfacet
  facet normal 0 0 -1
    outer loop
      vertex 10.8646 -1.72078 0
      vertex 12.3461 -1.95543 0
      vertex 11.8882 -3.86271 0
    endloop
  endfacet
  facet normal 0 0 -1
    outer loop
      vertex 12.5 0 0
      vertex 11 0 0
      vertex 12.3461 1.95543 0
    endloop
  endfacet
  facet normal 0 0 -1
    outer loop
      vertex 10.4616 -3.39919 0
      vertex 11.8882 -3.86271 0
      vertex 11.1376 -5.67488 0
    endloop
  endfacet
  facet normal 0 0 -1
    outer loop
      vertex 10.8646 1.72078 0
      vertex 12.3461 1.95543 0
      vertex 11 0 0
    endloop
  endfacet
  facet normal -0 0 -1
    outer loop
      vertex 12.3461 1.95543 0
      vertex 10.8646 1.72078 0
      vertex 11.8882 3.86271 0
    endloop
  endfacet
  facet normal 0 0 -1
    outer loop
      vertex 12.3461 -1.95543 0
      vertex 10.8646 -1.72078 0
      vertex 11 0 0
    endloop
  endfacet
  facet normal 0 0 -1
    outer loop
      vertex 11.8882 -3.86271 0
      vertex 10.4616 -3.39919 0
      vertex 10.8646 -1.72078 0
    endloop
  endfacet
  facet normal 0 0 -1
    outer loop
      vertex 9.80107 -4.99389 0
      vertex 11.1376 -5.67488 0
      vertex 10.1127 -7.34731 0
    endloop
  endfacet
  facet normal 0 0 -1
    outer loop
      vertex 11.1376 -5.67488 0
      vertex 9.80107 -4.99389 0
      vertex 10.4616 -3.39919 0
    endloop
  endfacet
  facet normal 0 0 -1
    outer loop
      vertex 10.1127 -7.34731 0
      vertex 8.89919 -6.46564 0
      vertex 9.80107 -4.99389 0
    endloop
  endfacet
  facet normal 0 0 -1
    outer loop
      vertex 8.83883 -8.83883 0
      vertex 8.89919 -6.46564 0
      vertex 10.1127 -7.34731 0
    endloop
  endfacet
  facet normal 0 0 -1
    outer loop
      vertex 8.83883 -8.83883 0
      vertex 7.77817 -7.77817 0
      vertex 8.89919 -6.46564 0
    endloop
  endfacet
  facet normal 0 0 -1
    outer loop
      vertex 7.34731 -10.1127 0
      vertex 7.77817 -7.77817 0
      vertex 8.83883 -8.83883 0
    endloop
  endfacet
  facet normal 0 0 -1
    outer loop
      vertex 7.34731 -10.1127 0
      vertex 6.46564 -8.89919 0
      vertex 7.77817 -7.77817 0
    endloop
  endfacet
  facet normal 0 0 -1
    outer loop
      vertex 5.67488 -11.1376 0
      vertex 6.46564 -8.89919 0
      vertex 7.34731 -10.1127 0
    endloop
  endfacet
  facet normal 0 0 -1
    outer loop
      vertex 5.67488 -11.1376 0
      vertex 4.99389 -9.80107 0
      vertex 6.46564 -8.89919 0
    endloop
  endfacet
  facet normal 0 0 -1
    outer loop
      vertex 3.86271 -11.8882 0
      vertex 4.99389 -9.80107 0
      vertex 5.67488 -11.1376 0
    endloop
  endfacet
  facet normal 0 0 -1
    outer loop
      vertex 3.86271 -11.8882 0
      vertex 3.39919 -10.4616 0
      vertex 4.99389 -9.80107 0
    endloop
  endfacet
  facet normal 0 0 -1
    outer loop
      vertex 1.95543 -12.3461 0
      vertex 3.39919 -10.4616 0
      vertex 3.86271 -11.8882 0
    endloop
  endfacet
  facet normal 0 0 -1
    outer loop
      vertex 1.95543 -12.3461 0
      vertex 1.72078 -10.8646 0
      vertex 3.39919 -10.4616 0
    endloop
  endfacet
  facet normal 0 0 -1
    outer loop
      vertex 0 -12.5 0
      vertex 1.72078 -10.8646 0
      vertex 1.95543 -12.3461 0
    endloop
  endfacet
  facet normal 0 0 -1
    outer loop
      vertex 0 -12.5 0
      vertex 0 -11 0
      vertex 1.72078 -10.8646 0
    endloop
  endfacet
  facet normal 0 0 -1
    outer loop
      vertex 0 -12.5 0
      vertex -1.72078 -10.8646 0
      vertex 0 -11 0
    endloop
  endfacet
  facet normal 0 0 -1
    outer loop
      vertex -1.95543 -12.3461 0
      vertex -1.72078 -10.8646 0
      vertex 0 -12.5 0
    endloop
  endfacet
  facet normal 0 0 -1
    outer loop
      vertex -1.95543 -12.3461 0
      vertex -3.39919 -10.4616 0
      vertex -1.72078 -10.8646 0
    endloop
  endfacet
  facet normal 0 0 -1
    outer loop
      vertex -3.86271 -11.8882 0
      vertex -3.39919 -10.4616 0
      vertex -1.95543 -12.3461 0
    endloop
  endfacet
  facet normal 0 0 -1
    outer loop
      vertex -3.86271 -11.8882 0
      vertex -4.99389 -9.80107 0
      vertex -3.39919 -10.4616 0
    endloop
  endfacet
  facet normal 0 0 -1
    outer loop
      vertex -5.67488 -11.1376 0
      vertex -4.99389 -9.80107 0
      vertex -3.86271 -11.8882 0
    endloop
  endfacet
  facet normal 0 0 -1
    outer loop
      vertex -5.67488 -11.1376 0
      vertex -6.46564 -8.89919 0
      vertex -4.99389 -9.80107 0
    endloop
  endfacet
  facet normal 0 0 -1
    outer loop
      vertex -7.34731 -10.1127 0
      vertex -6.46564 -8.89919 0
      vertex -5.67488 -11.1376 0
    endloop
  endfacet
  facet normal 0 0 -1
    outer loop
      vertex -7.34731 -10.1127 0
      vertex -7.77817 -7.77817 0
      vertex -6.46564 -8.89919 0
    endloop
  endfacet
  facet normal 0 0 -1
    outer loop
      vertex -8.83883 -8.83883 0
      vertex -7.77817 -7.77817 0
      vertex -7.34731 -10.1127 0
    endloop
  endfacet
  facet normal 0 0 -1
    outer loop
      vertex -8.83883 -8.83883 0
      vertex -8.89919 -6.46564 0
      vertex -7.77817 -7.77817 0
    endloop
  endfacet
  facet normal 0 0 -1
    outer loop
      vertex -10.1127 -7.34731 0
      vertex -8.89919 -6.46564 0
      vertex -8.83883 -8.83883 0
    endloop
  endfacet
  facet normal -0 0 -1
    outer loop
      vertex -8.89919 -6.46564 0
      vertex -10.1127 -7.34731 0
      vertex -9.80107 -4.99389 0
    endloop
  endfacet
  facet normal 0 0 -1
    outer loop
      vertex -11.1376 -5.67488 0
      vertex -9.80107 -4.99389 0
      vertex -10.1127 -7.34731 0
    endloop
  endfacet
  facet normal -0 0 -1
    outer loop
      vertex -9.80107 -4.99389 0
      vertex -11.1376 -5.67488 0
      vertex -10.4616 -3.39919 0
    endloop
  endfacet
  facet normal -0 0 -1
    outer loop
      vertex -10.4616 -3.39919 0
      vertex -11.8882 -3.86271 0
      vertex -10.8646 -1.72078 0
    endloop
  endfacet
  facet normal 0 0 -1
    outer loop
      vertex -11.8882 -3.86271 0
      vertex -10.4616 -3.39919 0
      vertex -11.1376 -5.67488 0
    endloop
  endfacet
  facet normal 0 0 -1
    outer loop
      vertex 10.4616 3.39919 0
      vertex 11.8882 3.86271 0
      vertex 10.8646 1.72078 0
    endloop
  endfacet
  facet normal -0 0 -1
    outer loop
      vertex 11.8882 3.86271 0
      vertex 10.4616 3.39919 0
      vertex 11.1376 5.67488 0
    endloop
  endfacet
  facet normal 0 0 -1
    outer loop
      vertex 9.80107 4.99389 0
      vertex 11.1376 5.67488 0
      vertex 10.4616 3.39919 0
    endloop
  endfacet
  facet normal -0 0 -1
    outer loop
      vertex 11.1376 5.67488 0
      vertex 9.80107 4.99389 0
      vertex 10.1127 7.34731 0
    endloop
  endfacet
  facet normal 0 0 -1
    outer loop
      vertex 8.89919 6.46564 0
      vertex 10.1127 7.34731 0
      vertex 9.80107 4.99389 0
    endloop
  endfacet
  facet normal 0 0 -1
    outer loop
      vertex 8.89919 6.46564 0
      vertex 8.83883 8.83883 0
      vertex 10.1127 7.34731 0
    endloop
  endfacet
  facet normal 0 0 -1
    outer loop
      vertex 7.77817 7.77817 0
      vertex 8.83883 8.83883 0
      vertex 8.89919 6.46564 0
    endloop
  endfacet
  facet normal 0 0 -1
    outer loop
      vertex 7.77817 7.77817 0
      vertex 7.34731 10.1127 0
      vertex 8.83883 8.83883 0
    endloop
  endfacet
  facet normal 0 0 -1
    outer loop
      vertex 6.46564 8.89919 0
      vertex 7.34731 10.1127 0
      vertex 7.77817 7.77817 0
    endloop
  endfacet
  facet normal 0 0 -1
    outer loop
      vertex 6.46564 8.89919 0
      vertex 5.67488 11.1376 0
      vertex 7.34731 10.1127 0
    endloop
  endfacet
  facet normal 0 0 -1
    outer loop
      vertex 4.99389 9.80107 0
      vertex 5.67488 11.1376 0
      vertex 6.46564 8.89919 0
    endloop
  endfacet
  facet normal 0 0 -1
    outer loop
      vertex 4.99389 9.80107 0
      vertex 3.86271 11.8882 0
      vertex 5.67488 11.1376 0
    endloop
  endfacet
  facet normal 0 0 -1
    outer loop
      vertex 3.39919 10.4616 0
      vertex 3.86271 11.8882 0
      vertex 4.99389 9.80107 0
    endloop
  endfacet
  facet normal 0 0 -1
    outer loop
      vertex 3.39919 10.4616 0
      vertex 1.95543 12.3461 0
      vertex 3.86271 11.8882 0
    endloop
  endfacet
  facet normal 0 0 -1
    outer loop
      vertex 1.72078 10.8646 0
      vertex 1.95543 12.3461 0
      vertex 3.39919 10.4616 0
    endloop
  endfacet
  facet normal 0 0 -1
    outer loop
      vertex 0 11 0
      vertex 1.95543 12.3461 0
      vertex 1.72078 10.8646 0
    endloop
  endfacet
  facet normal 0 0 -1
    outer loop
      vertex 0 11 0
      vertex 0 12.5 0
      vertex 1.95543 12.3461 0
    endloop
  endfacet
  facet normal 0 0 -1
    outer loop
      vertex -1.72078 10.8646 0
      vertex 0 12.5 0
      vertex 0 11 0
    endloop
  endfacet
  facet normal 0 0 -1
    outer loop
      vertex -1.72078 10.8646 0
      vertex -1.95543 12.3461 0
      vertex 0 12.5 0
    endloop
  endfacet
  facet normal 0 0 -1
    outer loop
      vertex -3.39919 10.4616 0
      vertex -1.95543 12.3461 0
      vertex -1.72078 10.8646 0
    endloop
  endfacet
  facet normal 0 0 -1
    outer loop
      vertex -3.39919 10.4616 0
      vertex -3.86271 11.8882 0
      vertex -1.95543 12.3461 0
    endloop
  endfacet
  facet normal 0 0 -1
    outer loop
      vertex -4.99389 9.80107 0
      vertex -3.86271 11.8882 0
      vertex -3.39919 10.4616 0
    endloop
  endfacet
  facet normal 0 0 -1
    outer loop
      vertex -4.99389 9.80107 0
      vertex -5.67488 11.1376 0
      vertex -3.86271 11.8882 0
    endloop
  endfacet
  facet normal 0 0 -1
    outer loop
      vertex -6.46564 8.89919 0
      vertex -5.67488 11.1376 0
      vertex -4.99389 9.80107 0
    endloop
  endfacet
  facet normal 0 0 -1
    outer loop
      vertex -6.46564 8.89919 0
      vertex -7.34731 10.1127 0
      vertex -5.67488 11.1376 0
    endloop
  endfacet
  facet normal 0 0 -1
    outer loop
      vertex -7.77817 7.77817 0
      vertex -7.34731 10.1127 0
      vertex -6.46564 8.89919 0
    endloop
  endfacet
  facet normal 0 0 -1
    outer loop
      vertex -7.77817 7.77817 0
      vertex -8.83883 8.83883 0
      vertex -7.34731 10.1127 0
    endloop
  endfacet
  facet normal 0 0 -1
    outer loop
      vertex -8.89919 6.46564 0
      vertex -8.83883 8.83883 0
      vertex -7.77817 7.77817 0
    endloop
  endfacet
  facet normal 0 0 -1
    outer loop
      vertex -10.1127 7.34731 0
      vertex -8.89919 6.46564 0
      vertex -9.80107 4.99389 0
    endloop
  endfacet
  facet normal 0 0 -1
    outer loop
      vertex -8.89919 6.46564 0
      vertex -10.1127 7.34731 0
      vertex -8.83883 8.83883 0
    endloop
  endfacet
  facet normal 0 0 -1
    outer loop
      vertex -11.1376 5.67488 0
      vertex -9.80107 4.99389 0
      vertex -10.4616 3.39919 0
    endloop
  endfacet
  facet normal 0 0 -1
    outer loop
      vertex -11.8882 3.86271 0
      vertex -10.4616 3.39919 0
      vertex -10.8646 1.72078 0
    endloop
  endfacet
  facet normal 0 0 -1
    outer loop
      vertex -9.80107 4.99389 0
      vertex -11.1376 5.67488 0
      vertex -10.1127 7.34731 0
    endloop
  endfacet
  facet normal 0 0 -1
    outer loop
      vertex -12.3461 1.95543 0
      vertex -10.8646 1.72078 0
      vertex -11 0 0
    endloop
  endfacet
  facet normal 0 0 -1
    outer loop
      vertex -12.3461 -1.95543 0
      vertex -10.8646 -1.72078 0
      vertex -11.8882 -3.86271 0
    endloop
  endfacet
  facet normal -0 0 -1
    outer loop
      vertex -10.8646 -1.72078 0
      vertex -12.3461 -1.95543 0
      vertex -11 0 0
    endloop
  endfacet
  facet normal 0 0 -1
    outer loop
      vertex -10.4616 3.39919 0
      vertex -11.8882 3.86271 0
      vertex -11.1376 5.67488 0
    endloop
  endfacet
  facet normal 0 0 -1
    outer loop
      vertex -12.5 0 0
      vertex -11 0 0
      vertex -12.3461 -1.95543 0
    endloop
  endfacet
  facet normal 0 0 -1
    outer loop
      vertex -10.8646 1.72078 0
      vertex -12.3461 1.95543 0
      vertex -11.8882 3.86271 0
    endloop
  endfacet
  facet normal 0 0 -1
    outer loop
      vertex -11 0 0
      vertex -12.5 0 0
      vertex -12.3461 1.95543 0
    endloop
  endfacet
  facet normal 0.97237 0.233447 0
    outer loop
      vertex 12.3461 1.95543 5
      vertex 11.8882 3.86271 0
      vertex 11.8882 3.86271 5
    endloop
  endfacet
  facet normal 0.97237 0.233447 0
    outer loop
      vertex 11.8882 3.86271 0
      vertex 12.3461 1.95543 5
      vertex 12.3461 1.95543 0
    endloop
  endfacet
  facet normal 0.382672 0.923884 -0
    outer loop
      vertex 5.67488 11.1376 0
      vertex 3.86271 11.8882 5
      vertex 5.67488 11.1376 5
    endloop
  endfacet
  facet normal 0.382672 0.923884 0
    outer loop
      vertex 3.86271 11.8882 5
      vertex 5.67488 11.1376 0
      vertex 3.86271 11.8882 0
    endloop
  endfacet
  facet normal 0.233447 0.97237 -0
    outer loop
      vertex 3.86271 11.8882 0
      vertex 1.95543 12.3461 5
      vertex 3.86271 11.8882 5
    endloop
  endfacet
  facet normal 0.233447 0.97237 0
    outer loop
      vertex 1.95543 12.3461 5
      vertex 3.86271 11.8882 0
      vertex 1.95543 12.3461 0
    endloop
  endfacet
  facet normal 0 0 1
    outer loop
      vertex 11 0 5
      vertex 12.5 0 5
      vertex 12.3461 1.95543 5
    endloop
  endfacet
  facet normal 0 0 1
    outer loop
      vertex 10.8646 1.72078 5
      vertex 12.3461 1.95543 5
      vertex 11.8882 3.86271 5
    endloop
  endfacet
  facet normal 0 0 1
    outer loop
      vertex 12.5 0 5
      vertex 11 0 5
      vertex 12.3461 -1.95543 5
    endloop
  endfacet
  facet normal 0 0 1
    outer loop
      vertex 10.4616 3.39919 5
      vertex 11.8882 3.86271 5
      vertex 11.1376 5.67488 5
    endloop
  endfacet
  facet normal -0 0 1
    outer loop
      vertex 10.8646 -1.72078 5
      vertex 12.3461 -1.95543 5
      vertex 11 0 5
    endloop
  endfacet
  facet normal 0 0 1
    outer loop
      vertex 12.3461 -1.95543 5
      vertex 10.8646 -1.72078 5
      vertex 11.8882 -3.86271 5
    endloop
  endfacet
  facet normal 0 0 1
    outer loop
      vertex 12.3461 1.95543 5
      vertex 10.8646 1.72078 5
      vertex 11 0 5
    endloop
  endfacet
  facet normal 0 0 1
    outer loop
      vertex 11.8882 3.86271 5
      vertex 10.4616 3.39919 5
      vertex 10.8646 1.72078 5
    endloop
  endfacet
  facet normal 0 0 1
    outer loop
      vertex 9.80107 4.99389 5
      vertex 11.1376 5.67488 5
      vertex 10.1127 7.34731 5
    endloop
  endfacet
  facet normal 0 0 1
    outer loop
      vertex 11.1376 5.67488 5
      vertex 9.80107 4.99389 5
      vertex 10.4616 3.39919 5
    endloop
  endfacet
  facet normal 0 0 1
    outer loop
      vertex 10.1127 7.34731 5
      vertex 8.89919 6.46564 5
      vertex 9.80107 4.99389 5
    endloop
  endfacet
  facet normal 0 0 1
    outer loop
      vertex 8.83883 8.83883 5
      vertex 8.89919 6.46564 5
      vertex 10.1127 7.34731 5
    endloop
  endfacet
  facet normal 0 0 1
    outer loop
      vertex 8.83883 8.83883 5
      vertex 7.77817 7.77817 5
      vertex 8.89919 6.46564 5
    endloop
  endfacet
  facet normal 0 0 1
    outer loop
      vertex 7.34731 10.1127 5
      vertex 7.77817 7.77817 5
      vertex 8.83883 8.83883 5
    endloop
  endfacet
  facet normal 0 0 1
    outer loop
      vertex 7.34731 10.1127 5
      vertex 6.46564 8.89919 5
      vertex 7.77817 7.77817 5
    endloop
  endfacet
  facet normal 0 0 1
    outer loop
      vertex 5.67488 11.1376 5
      vertex 6.46564 8.89919 5
      vertex 7.34731 10.1127 5
    endloop
  endfacet
  facet normal 0 0 1
    outer loop
      vertex 5.67488 11.1376 5
      vertex 4.99389 9.80107 5
      vertex 6.46564 8.89919 5
    endloop
  endfacet
  facet normal 0 0 1
    outer loop
      vertex 3.86271 11.8882 5
      vertex 4.99389 9.80107 5
      vertex 5.67488 11.1376 5
    endloop
  endfacet
  facet normal 0 0 1
    outer loop
      vertex 3.86271 11.8882 5
      vertex 3.39919 10.4616 5
      vertex 4.99389 9.80107 5
    endloop
  endfacet
  facet normal 0 0 1
    outer loop
      vertex 1.95543 12.3461 5
      vertex 3.39919 10.4616 5
      vertex 3.86271 11.8882 5
    endloop
  endfacet
  facet normal 0 0 1
    outer loop
      vertex 1.95543 12.3461 5
      vertex 1.72078 10.8646 5
      vertex 3.39919 10.4616 5
    endloop
  endfacet
  facet normal 0 0 1
    outer loop
      vertex 0 12.5 5
      vertex 1.72078 10.8646 5
      vertex 1.95543 12.3461 5
    endloop
  endfacet
  facet normal 0 0 1
    outer loop
      vertex 0 12.5 5
      vertex 0 11 5
      vertex 1.72078 10.8646 5
    endloop
  endfacet
  facet normal 0 0 1
    outer loop
      vertex 0 12.5 5
      vertex -1.72078 10.8646 5
      vertex 0 11 5
    endloop
  endfacet
  facet normal -0 0 1
    outer loop
      vertex -1.95543 12.3461 5
      vertex -1.72078 10.8646 5
      vertex 0 12.5 5
    endloop
  endfacet
  facet normal 0 0 1
    outer loop
      vertex -1.95543 12.3461 5
      vertex -3.39919 10.4616 5
      vertex -1.72078 10.8646 5
    endloop
  endfacet
  facet normal -0 0 1
    outer loop
      vertex -3.86271 11.8882 5
      vertex -3.39919 10.4616 5
      vertex -1.95543 12.3461 5
    endloop
  endfacet
  facet normal 0 0 1
    outer loop
      vertex -3.86271 11.8882 5
      vertex -4.99389 9.80107 5
      vertex -3.39919 10.4616 5
    endloop
  endfacet
  facet normal -0 0 1
    outer loop
      vertex -5.67488 11.1376 5
      vertex -4.99389 9.80107 5
      vertex -3.86271 11.8882 5
    endloop
  endfacet
  facet normal 0 0 1
    outer loop
      vertex -5.67488 11.1376 5
      vertex -6.46564 8.89919 5
      vertex -4.99389 9.80107 5
    endloop
  endfacet
  facet normal -0 0 1
    outer loop
      vertex -7.34731 10.1127 5
      vertex -6.46564 8.89919 5
      vertex -5.67488 11.1376 5
    endloop
  endfacet
  facet normal 0 0 1
    outer loop
      vertex -7.34731 10.1127 5
      vertex -7.77817 7.77817 5
      vertex -6.46564 8.89919 5
    endloop
  endfacet
  facet normal -0 0 1
    outer loop
      vertex -8.83883 8.83883 5
      vertex -7.77817 7.77817 5
      vertex -7.34731 10.1127 5
    endloop
  endfacet
  facet normal 0 0 1
    outer loop
      vertex -8.83883 8.83883 5
      vertex -8.89919 6.46564 5
      vertex -7.77817 7.77817 5
    endloop
  endfacet
  facet normal -0 0 1
    outer loop
      vertex -10.1127 7.34731 5
      vertex -8.89919 6.46564 5
      vertex -8.83883 8.83883 5
    endloop
  endfacet
  facet normal 0 0 1
    outer loop
      vertex -8.89919 6.46564 5
      vertex -10.1127 7.34731 5
      vertex -9.80107 4.99389 5
    endloop
  endfacet
  facet normal -0 0 1
    outer loop
      vertex -11.1376 5.67488 5
      vertex -9.80107 4.99389 5
      vertex -10.1127 7.34731 5
    endloop
  endfacet
  facet normal 0 0 1
    outer loop
      vertex -9.80107 4.99389 5
      vertex -11.1376 5.67488 5
      vertex -10.4616 3.39919 5
    endloop
  endfacet
  facet normal 0 0 1
    outer loop
      vertex -10.4616 3.39919 5
      vertex -11.8882 3.86271 5
      vertex -10.8646 1.72078 5
    endloop
  endfacet
  facet normal -0 0 1
    outer loop
      vertex -11.8882 3.86271 5
      vertex -10.4616 3.39919 5
      vertex -11.1376 5.67488 5
    endloop
  endfacet
  facet normal -0 0 1
    outer loop
      vertex 10.4616 -3.39919 5
      vertex 11.8882 -3.86271 5
      vertex 10.8646 -1.72078 5
    endloop
  endfacet
  facet normal 0 0 1
    outer loop
      vertex 11.8882 -3.86271 5
      vertex 10.4616 -3.39919 5
      vertex 11.1376 -5.67488 5
    endloop
  endfacet
  facet normal -0 0 1
    outer loop
      vertex 9.80107 -4.99389 5
      vertex 11.1376 -5.67488 5
      vertex 10.4616 -3.39919 5
    endloop
  endfacet
  facet normal 0 0 1
    outer loop
      vertex 11.1376 -5.67488 5
      vertex 9.80107 -4.99389 5
      vertex 10.1127 -7.34731 5
    endloop
  endfacet
  facet normal -0 0 1
    outer loop
      vertex 8.89919 -6.46564 5
      vertex 10.1127 -7.34731 5
      vertex 9.80107 -4.99389 5
    endloop
  endfacet
  facet normal 0 0 1
    outer loop
      vertex 8.89919 -6.46564 5
      vertex 8.83883 -8.83883 5
      vertex 10.1127 -7.34731 5
    endloop
  endfacet
  facet normal -0 0 1
    outer loop
      vertex 7.77817 -7.77817 5
      vertex 8.83883 -8.83883 5
      vertex 8.89919 -6.46564 5
    endloop
  endfacet
  facet normal 0 0 1
    outer loop
      vertex 7.77817 -7.77817 5
      vertex 7.34731 -10.1127 5
      vertex 8.83883 -8.83883 5
    endloop
  endfacet
  facet normal -0 0 1
    outer loop
      vertex 6.46564 -8.89919 5
      vertex 7.34731 -10.1127 5
      vertex 7.77817 -7.77817 5
    endloop
  endfacet
  facet normal 0 0 1
    outer loop
      vertex 6.46564 -8.89919 5
      vertex 5.67488 -11.1376 5
      vertex 7.34731 -10.1127 5
    endloop
  endfacet
  facet normal -0 0 1
    outer loop
      vertex 4.99389 -9.80107 5
      vertex 5.67488 -11.1376 5
      vertex 6.46564 -8.89919 5
    endloop
  endfacet
  facet normal 0 0 1
    outer loop
      vertex 4.99389 -9.80107 5
      vertex 3.86271 -11.8882 5
      vertex 5.67488 -11.1376 5
    endloop
  endfacet
  facet normal -0 0 1
    outer loop
      vertex 3.39919 -10.4616 5
      vertex 3.86271 -11.8882 5
      vertex 4.99389 -9.80107 5
    endloop
  endfacet
  facet normal 0 0 1
    outer loop
      vertex 3.39919 -10.4616 5
      vertex 1.95543 -12.3461 5
      vertex 3.86271 -11.8882 5
    endloop
  endfacet
  facet normal -0 0 1
    outer loop
      vertex 1.72078 -10.8646 5
      vertex 1.95543 -12.3461 5
      vertex 3.39919 -10.4616 5
    endloop
  endfacet
  facet normal -0 0 1
    outer loop
      vertex 0 -11 5
      vertex 1.95543 -12.3461 5
      vertex 1.72078 -10.8646 5
    endloop
  endfacet
  facet normal 0 0 1
    outer loop
      vertex 0 -11 5
      vertex 0 -12.5 5
      vertex 1.95543 -12.3461 5
    endloop
  endfacet
  facet normal 0 0 1
    outer loop
      vertex -1.72078 -10.8646 5
      vertex 0 -12.5 5
      vertex 0 -11 5
    endloop
  endfacet
  facet normal 0 0 1
    outer loop
      vertex -1.72078 -10.8646 5
      vertex -1.95543 -12.3461 5
      vertex 0 -12.5 5
    endloop
  endfacet
  facet normal 0 0 1
    outer loop
      vertex -3.39919 -10.4616 5
      vertex -1.95543 -12.3461 5
      vertex -1.72078 -10.8646 5
    endloop
  endfacet
  facet normal 0 0 1
    outer loop
      vertex -3.39919 -10.4616 5
      vertex -3.86271 -11.8882 5
      vertex -1.95543 -12.3461 5
    endloop
  endfacet
  facet normal 0 0 1
    outer loop
      vertex -4.99389 -9.80107 5
      vertex -3.86271 -11.8882 5
      vertex -3.39919 -10.4616 5
    endloop
  endfacet
  facet normal 0 0 1
    outer loop
      vertex -4.99389 -9.80107 5
      vertex -5.67488 -11.1376 5
      vertex -3.86271 -11.8882 5
    endloop
  endfacet
  facet normal 0 0 1
    outer loop
      vertex -6.46564 -8.89919 5
      vertex -5.67488 -11.1376 5
      vertex -4.99389 -9.80107 5
    endloop
  endfacet
  facet normal 0 0 1
    outer loop
      vertex -6.46564 -8.89919 5
      vertex -7.34731 -10.1127 5
      vertex -5.67488 -11.1376 5
    endloop
  endfacet
  facet normal 0 0 1
    outer loop
      vertex -7.77817 -7.77817 5
      vertex -7.34731 -10.1127 5
      vertex -6.46564 -8.89919 5
    endloop
  endfacet
  facet normal 0 0 1
    outer loop
      vertex -7.77817 -7.77817 5
      vertex -8.83883 -8.83883 5
      vertex -7.34731 -10.1127 5
    endloop
  endfacet
  facet normal 0 0 1
    outer loop
      vertex -8.89919 -6.46564 5
      vertex -8.83883 -8.83883 5
      vertex -7.77817 -7.77817 5
    endloop
  endfacet
  facet normal 0 0 1
    outer loop
      vertex -10.1127 -7.34731 5
      vertex -8.89919 -6.46564 5
      vertex -9.80107 -4.99389 5
    endloop
  endfacet
  facet normal 0 0 1
    outer loop
      vertex -8.89919 -6.46564 5
      vertex -10.1127 -7.34731 5
      vertex -8.83883 -8.83883 5
    endloop
  endfacet
  facet normal 0 0 1
    outer loop
      vertex -11.1376 -5.67488 5
      vertex -9.80107 -4.99389 5
      vertex -10.4616 -3.39919 5
    endloop
  endfacet
  facet normal 0 0 1
    outer loop
      vertex -11.8882 -3.86271 5
      vertex -10.4616 -3.39919 5
      vertex -10.8646 -1.72078 5
    endloop
  endfacet
  facet normal 0 0 1
    outer loop
      vertex -9.80107 -4.99389 5
      vertex -11.1376 -5.67488 5
      vertex -10.1127 -7.34731 5
    endloop
  endfacet
  facet normal 0 0 1
    outer loop
      vertex -12.3461 -1.95543 5
      vertex -10.8646 -1.72078 5
      vertex -11 0 5
    endloop
  endfacet
  facet normal -0 0 1
    outer loop
      vertex -12.3461 1.95543 5
      vertex -10.8646 1.72078 5
      vertex -11.8882 3.86271 5
    endloop
  endfacet
  facet normal 0 0 1
    outer loop
      vertex -10.8646 1.72078 5
      vertex -12.3461 1.95543 5
      vertex -11 0 5
    endloop
  endfacet
  facet normal 0 0 1
    outer loop
      vertex -10.4616 -3.39919 5
      vertex -11.8882 -3.86271 5
      vertex -11.1376 -5.67488 5
    endloop
  endfacet
  facet normal 0 0 1
    outer loop
      vertex -12.5 0 5
      vertex -11 0 5
      vertex -12.3461 1.95543 5
    endloop
  endfacet
  facet normal 0 0 1
    outer loop
      vertex -10.8646 -1.72078 5
      vertex -12.3461 -1.95543 5
      vertex -11.8882 -3.86271 5
    endloop
  endfacet
  facet normal 0 0 1
    outer loop
      vertex -11 0 5
      vertex -12.5 0 5
      vertex -12.3461 -1.95543 5
    endloop
  endfacet
  facet normal -0.923884 0.382672 0
    outer loop
      vertex -11.8882 3.86271 0
      vertex -11.1376 5.67488 5
      vertex -11.1376 5.67488 0
    endloop
  endfacet
  facet normal -0.923884 0.382672 0
    outer loop
      vertex -11.1376 5.67488 5
      vertex -11.8882 3.86271 0
      vertex -11.8882 3.86271 5
    endloop
  endfacet
  facet normal -0.97237 0.233447 0
    outer loop
      vertex -12.3461 1.95543 0
      vertex -11.8882 3.86271 5
      vertex -11.8882 3.86271 0
    endloop
  endfacet
  facet normal -0.97237 0.233447 0
    outer loop
      vertex -11.8882 3.86271 5
      vertex -12.3461 1.95543 0
      vertex -12.3461 1.95543 5
    endloop
  endfacet
  facet normal -0.233447 0.97237 0
    outer loop
      vertex -1.95543 12.3461 0
      vertex -3.86271 11.8882 5
      vertex -1.95543 12.3461 5
    endloop
  endfacet
  facet normal -0.233447 0.97237 0
    outer loop
      vertex -3.86271 11.8882 5
      vertex -1.95543 12.3461 0
      vertex -3.86271 11.8882 0
    endloop
  endfacet
  facet normal 0.996917 -0.0784613 0
    outer loop
      vertex 12.3461 -1.95543 5
      vertex 12.5 0 0
      vertex 12.5 0 5
    endloop
  endfacet
  facet normal 0.996917 -0.0784613 0
    outer loop
      vertex 12.5 0 0
      vertex 12.3461 -1.95543 5
      vertex 12.3461 -1.95543 0
    endloop
  endfacet
  facet normal 0.233447 -0.97237 0
    outer loop
      vertex 1.95543 -12.3461 0
      vertex 3.86271 -11.8882 5
      vertex 1.95543 -12.3461 5
    endloop
  endfacet
  facet normal 0.233447 -0.97237 0
    outer loop
      vertex 3.86271 -11.8882 5
      vertex 1.95543 -12.3461 0
      vertex 3.86271 -11.8882 0
    endloop
  endfacet
  facet normal 0.649446 -0.760408 0
    outer loop
      vertex 7.34731 -10.1127 0
      vertex 8.83883 -8.83883 5
      vertex 7.34731 -10.1127 5
    endloop
  endfacet
  facet normal 0.649446 -0.760408 0
    outer loop
      vertex 8.83883 -8.83883 5
      vertex 7.34731 -10.1127 0
      vertex 8.83883 -8.83883 0
    endloop
  endfacet
  facet normal -0.382672 -0.923884 0
    outer loop
      vertex -5.67488 -11.1376 0
      vertex -3.86271 -11.8882 5
      vertex -5.67488 -11.1376 5
    endloop
  endfacet
  facet normal -0.382672 -0.923884 -0
    outer loop
      vertex -3.86271 -11.8882 5
      vertex -5.67488 -11.1376 0
      vertex -3.86271 -11.8882 0
    endloop
  endfacet
  facet normal -0.522511 -0.852633 0
    outer loop
      vertex -7.34731 -10.1127 0
      vertex -5.67488 -11.1376 5
      vertex -7.34731 -10.1127 5
    endloop
  endfacet
  facet normal -0.522511 -0.852633 -0
    outer loop
      vertex -5.67488 -11.1376 5
      vertex -7.34731 -10.1127 0
      vertex -5.67488 -11.1376 0
    endloop
  endfacet
  facet normal -0.97237 -0.233447 0
    outer loop
      vertex -11.8882 -3.86271 0
      vertex -12.3461 -1.95543 5
      vertex -12.3461 -1.95543 0
    endloop
  endfacet
  facet normal -0.97237 -0.233447 0
    outer loop
      vertex -12.3461 -1.95543 5
      vertex -11.8882 -3.86271 0
      vertex -11.8882 -3.86271 5
    endloop
  endfacet
  facet normal -0.760408 -0.649446 0
    outer loop
      vertex -8.83883 -8.83883 0
      vertex -10.1127 -7.34731 5
      vertex -10.1127 -7.34731 0
    endloop
  endfacet
  facet normal -0.760408 -0.649446 0
    outer loop
      vertex -10.1127 -7.34731 5
      vertex -8.83883 -8.83883 0
      vertex -8.83883 -8.83883 5
    endloop
  endfacet
  facet normal 0.97237 -0.233447 0
    outer loop
      vertex 11.8882 -3.86271 5
      vertex 12.3461 -1.95543 0
      vertex 12.3461 -1.95543 5
    endloop
  endfacet
  facet normal 0.97237 -0.233447 0
    outer loop
      vertex 12.3461 -1.95543 0
      vertex 11.8882 -3.86271 5
      vertex 11.8882 -3.86271 0
    endloop
  endfacet
  facet normal 0.852633 -0.522511 0
    outer loop
      vertex 10.1127 -7.34731 5
      vertex 11.1376 -5.67488 0
      vertex 11.1376 -5.67488 5
    endloop
  endfacet
  facet normal 0.852633 -0.522511 0
    outer loop
      vertex 11.1376 -5.67488 0
      vertex 10.1127 -7.34731 5
      vertex 10.1127 -7.34731 0
    endloop
  endfacet
  facet normal -0.233447 -0.97237 0
    outer loop
      vertex -3.86271 -11.8882 0
      vertex -1.95543 -12.3461 5
      vertex -3.86271 -11.8882 5
    endloop
  endfacet
  facet normal -0.233447 -0.97237 -0
    outer loop
      vertex -1.95543 -12.3461 5
      vertex -3.86271 -11.8882 0
      vertex -1.95543 -12.3461 0
    endloop
  endfacet
  facet normal -0.923884 -0.382672 0
    outer loop
      vertex -11.1376 -5.67488 0
      vertex -11.8882 -3.86271 5
      vertex -11.8882 -3.86271 0
    endloop
  endfacet
  facet normal -0.923884 -0.382672 0
    outer loop
      vertex -11.8882 -3.86271 5
      vertex -11.1376 -5.67488 0
      vertex -11.1376 -5.67488 5
    endloop
  endfacet
  facet normal -0.649453 -0.760402 0
    outer loop
      vertex 6.46564 8.89919 0
      vertex 7.77817 7.77817 5
      vertex 6.46564 8.89919 5
    endloop
  endfacet
  facet normal -0.649453 -0.760402 -0
    outer loop
      vertex 7.77817 7.77817 5
      vertex 6.46564 8.89919 0
      vertex 7.77817 7.77817 0
    endloop
  endfacet
  facet normal 0.233472 0.972363 -0
    outer loop
      vertex -1.72078 -10.8646 0
      vertex -3.39919 -10.4616 5
      vertex -1.72078 -10.8646 5
    endloop
  endfacet
  facet normal 0.233472 0.972363 0
    outer loop
      vertex -3.39919 -10.4616 5
      vertex -1.72078 -10.8646 0
      vertex -3.39919 -10.4616 0
    endloop
  endfacet
  facet normal 0.233472 -0.972363 0
    outer loop
      vertex -3.39919 10.4616 0
      vertex -1.72078 10.8646 5
      vertex -3.39919 10.4616 5
    endloop
  endfacet
  facet normal 0.233472 -0.972363 0
    outer loop
      vertex -1.72078 10.8646 5
      vertex -3.39919 10.4616 0
      vertex -1.72078 10.8646 0
    endloop
  endfacet
  facet normal 0.923883 -0.382675 0
    outer loop
      vertex -10.4616 3.39919 5
      vertex -9.80107 4.99389 0
      vertex -9.80107 4.99389 5
    endloop
  endfacet
  facet normal 0.923883 -0.382675 0
    outer loop
      vertex -9.80107 4.99389 0
      vertex -10.4616 3.39919 5
      vertex -10.4616 3.39919 0
    endloop
  endfacet
  facet normal -0.923883 -0.382675 0
    outer loop
      vertex 10.4616 3.39919 0
      vertex 9.80107 4.99389 5
      vertex 9.80107 4.99389 0
    endloop
  endfacet
  facet normal -0.923883 -0.382675 0
    outer loop
      vertex 9.80107 4.99389 5
      vertex 10.4616 3.39919 0
      vertex 10.4616 3.39919 5
    endloop
  endfacet
  facet normal -0.852643 -0.522495 0
    outer loop
      vertex 9.80107 4.99389 0
      vertex 8.89919 6.46564 5
      vertex 8.89919 6.46564 0
    endloop
  endfacet
  facet normal -0.852643 -0.522495 0
    outer loop
      vertex 8.89919 6.46564 5
      vertex 9.80107 4.99389 0
      vertex 9.80107 4.99389 5
    endloop
  endfacet
  facet normal -0.760402 -0.649453 0
    outer loop
      vertex 8.89919 6.46564 0
      vertex 7.77817 7.77817 5
      vertex 7.77817 7.77817 0
    endloop
  endfacet
  facet normal -0.760402 -0.649453 0
    outer loop
      vertex 7.77817 7.77817 5
      vertex 8.89919 6.46564 0
      vertex 8.89919 6.46564 5
    endloop
  endfacet
  facet normal -0.382675 -0.923883 0
    outer loop
      vertex 3.39919 10.4616 0
      vertex 4.99389 9.80107 5
      vertex 3.39919 10.4616 5
    endloop
  endfacet
  facet normal -0.382675 -0.923883 -0
    outer loop
      vertex 4.99389 9.80107 5
      vertex 3.39919 10.4616 0
      vertex 4.99389 9.80107 0
    endloop
  endfacet
  facet normal -0.0784428 -0.996919 0
    outer loop
      vertex 0 11 0
      vertex 1.72078 10.8646 5
      vertex 0 11 5
    endloop
  endfacet
  facet normal -0.0784428 -0.996919 -0
    outer loop
      vertex 1.72078 10.8646 5
      vertex 0 11 0
      vertex 1.72078 10.8646 0
    endloop
  endfacet
  facet normal 0.996919 -0.0784428 0
    outer loop
      vertex -11 0 5
      vertex -10.8646 1.72078 0
      vertex -10.8646 1.72078 5
    endloop
  endfacet
  facet normal 0.996919 -0.0784428 0
    outer loop
      vertex -10.8646 1.72078 0
      vertex -11 0 5
      vertex -11 0 0
    endloop
  endfacet
  facet normal 0.760402 -0.649453 0
    outer loop
      vertex -8.89919 6.46564 5
      vertex -7.77817 7.77817 0
      vertex -7.77817 7.77817 5
    endloop
  endfacet
  facet normal 0.760402 -0.649453 0
    outer loop
      vertex -7.77817 7.77817 0
      vertex -8.89919 6.46564 5
      vertex -8.89919 6.46564 0
    endloop
  endfacet
  facet normal 0.382675 -0.923883 0
    outer loop
      vertex -4.99389 9.80107 0
      vertex -3.39919 10.4616 5
      vertex -4.99389 9.80107 5
    endloop
  endfacet
  facet normal 0.382675 -0.923883 0
    outer loop
      vertex -3.39919 10.4616 5
      vertex -4.99389 9.80107 0
      vertex -3.39919 10.4616 0
    endloop
  endfacet
  facet normal 0.0784428 -0.996919 0
    outer loop
      vertex -1.72078 10.8646 0
      vertex 0 11 5
      vertex -1.72078 10.8646 5
    endloop
  endfacet
  facet normal 0.0784428 -0.996919 0
    outer loop
      vertex 0 11 5
      vertex -1.72078 10.8646 0
      vertex 0 11 0
    endloop
  endfacet
  facet normal -0.996919 -0.0784428 0
    outer loop
      vertex 11 0 0
      vertex 10.8646 1.72078 5
      vertex 10.8646 1.72078 0
    endloop
  endfacet
  facet normal -0.996919 -0.0784428 0
    outer loop
      vertex 10.8646 1.72078 5
      vertex 11 0 0
      vertex 11 0 5
    endloop
  endfacet
  facet normal -0.0784428 0.996919 0
    outer loop
      vertex 1.72078 -10.8646 0
      vertex 0 -11 5
      vertex 1.72078 -10.8646 5
    endloop
  endfacet
  facet normal -0.0784428 0.996919 0
    outer loop
      vertex 0 -11 5
      vertex 1.72078 -10.8646 0
      vertex 0 -11 0
    endloop
  endfacet
  facet normal -0.233472 0.972363 0
    outer loop
      vertex 3.39919 -10.4616 0
      vertex 1.72078 -10.8646 5
      vertex 3.39919 -10.4616 5
    endloop
  endfacet
  facet normal -0.233472 0.972363 0
    outer loop
      vertex 1.72078 -10.8646 5
      vertex 3.39919 -10.4616 0
      vertex 1.72078 -10.8646 0
    endloop
  endfacet
  facet normal -0.382675 0.923883 0
    outer loop
      vertex 4.99389 -9.80107 0
      vertex 3.39919 -10.4616 5
      vertex 4.99389 -9.80107 5
    endloop
  endfacet
  facet normal -0.382675 0.923883 0
    outer loop
      vertex 3.39919 -10.4616 5
      vertex 4.99389 -9.80107 0
      vertex 3.39919 -10.4616 0
    endloop
  endfacet
  facet normal -0.760402 0.649453 0
    outer loop
      vertex 7.77817 -7.77817 0
      vertex 8.89919 -6.46564 5
      vertex 8.89919 -6.46564 0
    endloop
  endfacet
  facet normal -0.760402 0.649453 0
    outer loop
      vertex 8.89919 -6.46564 5
      vertex 7.77817 -7.77817 0
      vertex 7.77817 -7.77817 5
    endloop
  endfacet
  facet normal 0.0784428 0.996919 -0
    outer loop
      vertex 0 -11 0
      vertex -1.72078 -10.8646 5
      vertex 0 -11 5
    endloop
  endfacet
  facet normal 0.0784428 0.996919 0
    outer loop
      vertex -1.72078 -10.8646 5
      vertex 0 -11 0
      vertex -1.72078 -10.8646 0
    endloop
  endfacet
  facet normal 0.649453 0.760402 -0
    outer loop
      vertex -6.46564 -8.89919 0
      vertex -7.77817 -7.77817 5
      vertex -6.46564 -8.89919 5
    endloop
  endfacet
  facet normal 0.649453 0.760402 0
    outer loop
      vertex -7.77817 -7.77817 5
      vertex -6.46564 -8.89919 0
      vertex -7.77817 -7.77817 0
    endloop
  endfacet
  facet normal 0.923883 0.382675 0
    outer loop
      vertex -9.80107 -4.99389 5
      vertex -10.4616 -3.39919 0
      vertex -10.4616 -3.39919 5
    endloop
  endfacet
  facet normal 0.923883 0.382675 0
    outer loop
      vertex -10.4616 -3.39919 0
      vertex -9.80107 -4.99389 5
      vertex -9.80107 -4.99389 0
    endloop
  endfacet
  facet normal 0.996919 0.0784428 0
    outer loop
      vertex -10.8646 -1.72078 5
      vertex -11 0 0
      vertex -11 0 5
    endloop
  endfacet
  facet normal 0.996919 0.0784428 0
    outer loop
      vertex -11 0 0
      vertex -10.8646 -1.72078 5
      vertex -10.8646 -1.72078 0
    endloop
  endfacet
  facet normal -0.972363 -0.233472 0
    outer loop
      vertex 10.8646 1.72078 0
      vertex 10.4616 3.39919 5
      vertex 10.4616 3.39919 0
    endloop
  endfacet
  facet normal -0.972363 -0.233472 0
    outer loop
      vertex 10.4616 3.39919 5
      vertex 10.8646 1.72078 0
      vertex 10.8646 1.72078 5
    endloop
  endfacet
  facet normal -0.522495 -0.852643 0
    outer loop
      vertex 4.99389 9.80107 0
      vertex 6.46564 8.89919 5
      vertex 4.99389 9.80107 5
    endloop
  endfacet
  facet normal -0.522495 -0.852643 -0
    outer loop
      vertex 6.46564 8.89919 5
      vertex 4.99389 9.80107 0
      vertex 6.46564 8.89919 0
    endloop
  endfacet
  facet normal -0.233472 -0.972363 0
    outer loop
      vertex 1.72078 10.8646 0
      vertex 3.39919 10.4616 5
      vertex 1.72078 10.8646 5
    endloop
  endfacet
  facet normal -0.233472 -0.972363 -0
    outer loop
      vertex 3.39919 10.4616 5
      vertex 1.72078 10.8646 0
      vertex 3.39919 10.4616 0
    endloop
  endfacet
  facet normal 0.972363 -0.233472 0
    outer loop
      vertex -10.8646 1.72078 5
      vertex -10.4616 3.39919 0
      vertex -10.4616 3.39919 5
    endloop
  endfacet
  facet normal 0.972363 -0.233472 0
    outer loop
      vertex -10.4616 3.39919 0
      vertex -10.8646 1.72078 5
      vertex -10.8646 1.72078 0
    endloop
  endfacet
  facet normal 0.852643 -0.522495 0
    outer loop
      vertex -9.80107 4.99389 5
      vertex -8.89919 6.46564 0
      vertex -8.89919 6.46564 5
    endloop
  endfacet
  facet normal 0.852643 -0.522495 0
    outer loop
      vertex -8.89919 6.46564 0
      vertex -9.80107 4.99389 5
      vertex -9.80107 4.99389 0
    endloop
  endfacet
  facet normal 0.522495 -0.852643 0
    outer loop
      vertex -6.46564 8.89919 0
      vertex -4.99389 9.80107 5
      vertex -6.46564 8.89919 5
    endloop
  endfacet
  facet normal 0.522495 -0.852643 0
    outer loop
      vertex -4.99389 9.80107 5
      vertex -6.46564 8.89919 0
      vertex -4.99389 9.80107 0
    endloop
  endfacet
  facet normal 0.649453 -0.760402 0
    outer loop
      vertex -7.77817 7.77817 0
      vertex -6.46564 8.89919 5
      vertex -7.77817 7.77817 5
    endloop
  endfacet
  facet normal 0.649453 -0.760402 0
    outer loop
      vertex -6.46564 8.89919 5
      vertex -7.77817 7.77817 0
      vertex -6.46564 8.89919 0
    endloop
  endfacet
  facet normal -0.972363 0.233472 0
    outer loop
      vertex 10.4616 -3.39919 0
      vertex 10.8646 -1.72078 5
      vertex 10.8646 -1.72078 0
    endloop
  endfacet
  facet normal -0.972363 0.233472 0
    outer loop
      vertex 10.8646 -1.72078 5
      vertex 10.4616 -3.39919 0
      vertex 10.4616 -3.39919 5
    endloop
  endfacet
  facet normal -0.522495 0.852643 0
    outer loop
      vertex 6.46564 -8.89919 0
      vertex 4.99389 -9.80107 5
      vertex 6.46564 -8.89919 5
    endloop
  endfacet
  facet normal -0.522495 0.852643 0
    outer loop
      vertex 4.99389 -9.80107 5
      vertex 6.46564 -8.89919 0
      vertex 4.99389 -9.80107 0
    endloop
  endfacet
  facet normal -0.923883 0.382675 0
    outer loop
      vertex 9.80107 -4.99389 0
      vertex 10.4616 -3.39919 5
      vertex 10.4616 -3.39919 0
    endloop
  endfacet
  facet normal -0.923883 0.382675 0
    outer loop
      vertex 10.4616 -3.39919 5
      vertex 9.80107 -4.99389 0
      vertex 9.80107 -4.99389 5
    endloop
  endfacet
  facet normal 0.382675 0.923883 -0
    outer loop
      vertex -3.39919 -10.4616 0
      vertex -4.99389 -9.80107 5
      vertex -3.39919 -10.4616 5
    endloop
  endfacet
  facet normal 0.382675 0.923883 0
    outer loop
      vertex -4.99389 -9.80107 5
      vertex -3.39919 -10.4616 0
      vertex -4.99389 -9.80107 0
    endloop
  endfacet
  facet normal 0.972363 0.233472 0
    outer loop
      vertex -10.4616 -3.39919 5
      vertex -10.8646 -1.72078 0
      vertex -10.8646 -1.72078 5
    endloop
  endfacet
  facet normal 0.972363 0.233472 0
    outer loop
      vertex -10.8646 -1.72078 0
      vertex -10.4616 -3.39919 5
      vertex -10.4616 -3.39919 0
    endloop
  endfacet
  facet normal 0.852643 0.522495 0
    outer loop
      vertex -8.89919 -6.46564 5
      vertex -9.80107 -4.99389 0
      vertex -9.80107 -4.99389 5
    endloop
  endfacet
  facet normal 0.852643 0.522495 0
    outer loop
      vertex -9.80107 -4.99389 0
      vertex -8.89919 -6.46564 5
      vertex -8.89919 -6.46564 0
    endloop
  endfacet
  facet normal 0.760402 0.649453 0
    outer loop
      vertex -7.77817 -7.77817 5
      vertex -8.89919 -6.46564 0
      vertex -8.89919 -6.46564 5
    endloop
  endfacet
  facet normal 0.760402 0.649453 0
    outer loop
      vertex -8.89919 -6.46564 0
      vertex -7.77817 -7.77817 5
      vertex -7.77817 -7.77817 0
    endloop
  endfacet
  facet normal -0.996919 0.0784428 0
    outer loop
      vertex 10.8646 -1.72078 0
      vertex 11 0 5
      vertex 11 0 0
    endloop
  endfacet
  facet normal -0.996919 0.0784428 0
    outer loop
      vertex 11 0 5
      vertex 10.8646 -1.72078 0
      vertex 10.8646 -1.72078 5
    endloop
  endfacet
  facet normal -0.649453 0.760402 0
    outer loop
      vertex 7.77817 -7.77817 0
      vertex 6.46564 -8.89919 5
      vertex 7.77817 -7.77817 5
    endloop
  endfacet
  facet normal -0.649453 0.760402 0
    outer loop
      vertex 6.46564 -8.89919 5
      vertex 7.77817 -7.77817 0
      vertex 6.46564 -8.89919 0
    endloop
  endfacet
  facet normal -0.852643 0.522495 0
    outer loop
      vertex 8.89919 -6.46564 0
      vertex 9.80107 -4.99389 5
      vertex 9.80107 -4.99389 0
    endloop
  endfacet
  facet normal -0.852643 0.522495 0
    outer loop
      vertex 9.80107 -4.99389 5
      vertex 8.89919 -6.46564 0
      vertex 8.89919 -6.46564 5
    endloop
  endfacet
  facet normal 0.522495 0.852643 -0
    outer loop
      vertex -4.99389 -9.80107 0
      vertex -6.46564 -8.89919 5
      vertex -4.99389 -9.80107 5
    endloop
  endfacet
  facet normal 0.522495 0.852643 0
    outer loop
      vertex -6.46564 -8.89919 5
      vertex -4.99389 -9.80107 0
      vertex -6.46564 -8.89919 0
    endloop
  endfacet
endsolid OpenSCAD_Model
