solid OpenSCAD_Model
  facet normal -1 0 0
    outer loop
      vertex 17 2.5 0
      vertex 17 17.5 5
      vertex 17 17.5 0
    endloop
  endfacet
  facet normal -1 -0 0
    outer loop
      vertex 17 17.5 5
      vertex 17 2.5 0
      vertex 17 2.5 5
    endloop
  endfacet
  facet normal -0 0 1
    outer loop
      vertex 17 17.5 5
      vertex 23 2.5 5
      vertex 23 17.5 5
    endloop
  endfacet
  facet normal 0 0 1
    outer loop
      vertex 23 2.5 5
      vertex 17 17.5 5
      vertex 17 2.5 5
    endloop
  endfacet
  facet normal 1 -0 0
    outer loop
      vertex 23 2.5 5
      vertex 23 17.5 0
      vertex 23 17.5 5
    endloop
  endfacet
  facet normal 1 0 0
    outer loop
      vertex 23 17.5 0
      vertex 23 2.5 5
      vertex 23 2.5 0
    endloop
  endfacet
  facet normal 0 1 -0
    outer loop
      vertex 23 17.5 0
      vertex 17 17.5 5
      vertex 23 17.5 5
    endloop
  endfacet
  facet normal 0 1 0
    outer loop
      vertex 17 17.5 5
      vertex 23 17.5 0
      vertex 17 17.5 0
    endloop
  endfacet
  facet normal 0 0 -1
    outer loop
      vertex 17 2.5 0
      vertex 23 17.5 0
      vertex 23 2.5 0
    endloop
  endfacet
  facet normal -0 0 -1
    outer loop
      vertex 23 17.5 0
      vertex 17 2.5 0
      vertex 17 17.5 0
    endloop
  endfacet
  facet normal 0 -1 0
    outer loop
      vertex 17 2.5 0
      vertex 23 2.5 5
      vertex 17 2.5 5
    endloop
  endfacet
  facet normal 0 -1 -0
    outer loop
      vertex 23 2.5 5
      vertex 17 2.5 0
      vertex 23 2.5 0
    endloop
  endfacet
  facet normal -1 0 0
    outer loop
      vertex 17 -17.5 0
      vertex 17 -2.5 5
      vertex 17 -2.5 0
    endloop
  endfacet
  facet normal -1 -0 0
    outer loop
      vertex 17 -2.5 5
      vertex 17 -17.5 0
      vertex 17 -17.5 5
    endloop
  endfacet
  facet normal -0 0 1
    outer loop
      vertex 17 -2.5 5
      vertex 23 -17.5 5
      vertex 23 -2.5 5
    endloop
  endfacet
  facet normal 0 0 1
    outer loop
      vertex 23 -17.5 5
      vertex 17 -2.5 5
      vertex 17 -17.5 5
    endloop
  endfacet
  facet normal 1 -0 0
    outer loop
      vertex 23 -17.5 5
      vertex 23 -2.5 0
      vertex 23 -2.5 5
    endloop
  endfacet
  facet normal 1 0 0
    outer loop
      vertex 23 -2.5 0
      vertex 23 -17.5 5
      vertex 23 -17.5 0
    endloop
  endfacet
  facet normal 0 1 -0
    outer loop
      vertex 23 -2.5 0
      vertex 17 -2.5 5
      vertex 23 -2.5 5
    endloop
  endfacet
  facet normal 0 1 0
    outer loop
      vertex 17 -2.5 5
      vertex 23 -2.5 0
      vertex 17 -2.5 0
    endloop
  endfacet
  facet normal 0 0 -1
    outer loop
      vertex 17 -17.5 0
      vertex 23 -2.5 0
      vertex 23 -17.5 0
    endloop
  endfacet
  facet normal -0 0 -1
    outer loop
      vertex 23 -2.5 0
      vertex 17 -17.5 0
      vertex 17 -2.5 0
    endloop
  endfacet
  facet normal 0 -1 0
    outer loop
      vertex 17 -17.5 0
      vertex 23 -17.5 5
      vertex 17 -17.5 5
    endloop
  endfacet
  facet normal 0 -1 -0
    outer loop
      vertex 23 -17.5 5
      vertex 17 -17.5 0
      vertex 23 -17.5 0
    endloop
  endfacet
endsolid OpenSCAD_Model
