solid OpenSCAD_Model
  facet normal 1 -0 0
    outer loop
      vertex 9.95955 -2.02939 6
      vertex 9.95955 -1.97061 -1
      vertex 9.95955 -1.97061 6
    endloop
  endfacet
  facet normal 1 0 0
    outer loop
      vertex 9.95955 -1.97061 -1
      vertex 9.95955 -2.02939 6
      vertex 9.95955 -2.02939 -1
    endloop
  endfacet
  facet normal 0.308953 -0.951077 0
    outer loop
      vertex 9.95955 -1.97061 -1
      vertex 10 -1.95747 6
      vertex 9.95955 -1.97061 6
    endloop
  endfacet
  facet normal 0.308953 -0.951077 0
    outer loop
      vertex 10 -1.95747 6
      vertex 9.95955 -1.97061 -1
      vertex 10 -1.95747 -1
    endloop
  endfacet
  facet normal 0 0 -1
    outer loop
      vertex 9.95955 -2.02939 6
      vertex 10 -1.95747 6
      vertex 10 -2.04253 6
    endloop
  endfacet
  facet normal 0 0 -1
    outer loop
      vertex 10 -1.95747 6
      vertex 9.95955 -2.02939 6
      vertex 9.95955 -1.97061 6
    endloop
  endfacet
  facet normal 0.308953 0.951077 -0
    outer loop
      vertex 10 -2.04253 -1
      vertex 9.95955 -2.02939 6
      vertex 10 -2.04253 6
    endloop
  endfacet
  facet normal 0.308953 0.951077 0
    outer loop
      vertex 9.95955 -2.02939 6
      vertex 10 -2.04253 -1
      vertex 9.95955 -2.02939 -1
    endloop
  endfacet
  facet normal -0 0 1
    outer loop
      vertex 9.95955 -1.97061 -1
      vertex 10 -2.04253 -1
      vertex 10 -1.95747 -1
    endloop
  endfacet
  facet normal 0 0 1
    outer loop
      vertex 10 -2.04253 -1
      vertex 9.95955 -1.97061 -1
      vertex 9.95955 -2.02939 -1
    endloop
  endfacet
  facet normal 0 0 1
    outer loop
      vertex 2 -9.95 -1
      vertex 2.04253 -10 -1
      vertex 2.04755 -9.98455 -1
    endloop
  endfacet
  facet normal 0 0 1
    outer loop
      vertex 2 -9.95 -1
      vertex 1.95747 -10 -1
      vertex 2.04253 -10 -1
    endloop
  endfacet
  facet normal 0 -0 1
    outer loop
      vertex 1.95747 -10 -1
      vertex 2 -9.95 -1
      vertex 1.95245 -9.98455 -1
    endloop
  endfacet
  facet normal 0.587818 -0.808994 0
    outer loop
      vertex 1.95245 -9.98455 -1
      vertex 2 -9.95 6
      vertex 1.95245 -9.98455 6
    endloop
  endfacet
  facet normal 0.587818 -0.808994 0
    outer loop
      vertex 2 -9.95 6
      vertex 1.95245 -9.98455 -1
      vertex 2 -9.95 -1
    endloop
  endfacet
  facet normal 0.951057 0.309016 0
    outer loop
      vertex 1.95747 -10 6
      vertex 1.95245 -9.98455 -1
      vertex 1.95245 -9.98455 6
    endloop
  endfacet
  facet normal 0.951057 0.309016 0
    outer loop
      vertex 1.95245 -9.98455 -1
      vertex 1.95747 -10 6
      vertex 1.95747 -10 -1
    endloop
  endfacet
  facet normal -0.951057 0.309016 0
    outer loop
      vertex 2.04253 -10 -1
      vertex 2.04755 -9.98455 6
      vertex 2.04755 -9.98455 -1
    endloop
  endfacet
  facet normal -0.951057 0.309016 0
    outer loop
      vertex 2.04755 -9.98455 6
      vertex 2.04253 -10 -1
      vertex 2.04253 -10 6
    endloop
  endfacet
  facet normal 0 0 -1
    outer loop
      vertex 2.04253 -10 6
      vertex 2 -9.95 6
      vertex 2.04755 -9.98455 6
    endloop
  endfacet
  facet normal 0 0 -1
    outer loop
      vertex 1.95747 -10 6
      vertex 2 -9.95 6
      vertex 2.04253 -10 6
    endloop
  endfacet
  facet normal 0 0 -1
    outer loop
      vertex 2 -9.95 6
      vertex 1.95747 -10 6
      vertex 1.95245 -9.98455 6
    endloop
  endfacet
  facet normal -0.587818 -0.808994 0
    outer loop
      vertex 2 -9.95 -1
      vertex 2.04755 -9.98455 6
      vertex 2 -9.95 6
    endloop
  endfacet
  facet normal -0.587818 -0.808994 -0
    outer loop
      vertex 2.04755 -9.98455 6
      vertex 2 -9.95 -1
      vertex 2.04755 -9.98455 -1
    endloop
  endfacet
  facet normal 0.677286 0.677287 0.287344
    outer loop
      vertex 11.4602 -15 -115
      vertex 2.47487 -8.13173 -110.01
      vertex 9.34315 -15 -110.01
    endloop
  endfacet
  facet normal 0.677286 0.677285 0.287348
    outer loop
      vertex 2.47487 -8.13173 -110.01
      vertex 11.4602 -15 -115
      vertex 3.53341 -7.07319 -115
    endloop
  endfacet
  facet normal -0.677286 -0.677285 0.287348
    outer loop
      vertex 7.07319 -3.53341 -115
      vertex 15 -9.34315 -110.01
      vertex 8.13173 -2.47487 -110.01
    endloop
  endfacet
  facet normal -0.677285 -0.677287 0.287345
    outer loop
      vertex 15 -9.34315 -110.01
      vertex 7.07319 -3.53341 -115
      vertex 15 -11.4602 -115
    endloop
  endfacet
  facet normal 0.707107 -0.707107 1.42223e-16
    outer loop
      vertex 8.13173 -2.47487 -110.01
      vertex 3.53341 -7.07319 -115
      vertex 7.07319 -3.53341 -115
    endloop
  endfacet
  facet normal 0.707107 -0.707107 1.33494e-16
    outer loop
      vertex 3.53341 -7.07319 -115
      vertex 8.13173 -2.47487 -110.01
      vertex 2.47487 -8.13173 -110.01
    endloop
  endfacet
  facet normal 0 0 -1
    outer loop
      vertex 12.1468 -15 -110.01
      vertex 9.34315 -15 -110.01
      vertex 12.1468 -14.0729 -110.01
    endloop
  endfacet
  facet normal 0 0 -1
    outer loop
      vertex 13.2366 -12.5729 -110.01
      vertex 15 -9.34315 -110.01
      vertex 15 -12 -110.01
    endloop
  endfacet
  facet normal 0 0 -1
    outer loop
      vertex 9.34315 -15 -110.01
      vertex 13.2366 -12.5729 -110.01
      vertex 12.1468 -14.0729 -110.01
    endloop
  endfacet
  facet normal 0 0 -1
    outer loop
      vertex 2.47487 -8.13173 -110.01
      vertex 13.2366 -12.5729 -110.01
      vertex 9.34315 -15 -110.01
    endloop
  endfacet
  facet normal 0 0 -1
    outer loop
      vertex 13.2366 -12.5729 -110.01
      vertex 8.13173 -2.47487 -110.01
      vertex 15 -9.34315 -110.01
    endloop
  endfacet
  facet normal 0 0 -1
    outer loop
      vertex 13.2366 -12.5729 -110.01
      vertex 2.47487 -8.13173 -110.01
      vertex 8.13173 -2.47487 -110.01
    endloop
  endfacet
  facet normal 0.707107 0.707107 1.42223e-16
    outer loop
      vertex 2.47487 8.13173 -110.01
      vertex 7.07319 3.53341 -115
      vertex 3.53341 7.07319 -115
    endloop
  endfacet
  facet normal 0.707107 0.707107 1.33494e-16
    outer loop
      vertex 7.07319 3.53341 -115
      vertex 2.47487 8.13173 -110.01
      vertex 8.13173 2.47487 -110.01
    endloop
  endfacet
  facet normal -0.677285 0.677287 0.287345
    outer loop
      vertex 7.07319 3.53341 -115
      vertex 15 9.34315 -110.01
      vertex 15 11.4602 -115
    endloop
  endfacet
  facet normal -0.677286 0.677285 0.287348
    outer loop
      vertex 15 9.34315 -110.01
      vertex 7.07319 3.53341 -115
      vertex 8.13173 2.47487 -110.01
    endloop
  endfacet
  facet normal 0.677286 -0.677287 0.287344
    outer loop
      vertex 2.47487 8.13173 -110.01
      vertex 11.4602 15 -115
      vertex 9.34315 15 -110.01
    endloop
  endfacet
  facet normal 0.677286 -0.677285 0.287348
    outer loop
      vertex 11.4602 15 -115
      vertex 2.47487 8.13173 -110.01
      vertex 3.53341 7.07319 -115
    endloop
  endfacet
  facet normal 0 0 -1
    outer loop
      vertex 15 9.34315 -110.01
      vertex 14.0729 12.1468 -110.01
      vertex 15 12.1468 -110.01
    endloop
  endfacet
  facet normal 0 0 -1
    outer loop
      vertex 15 9.34315 -110.01
      vertex 12.5729 13.2366 -110.01
      vertex 14.0729 12.1468 -110.01
    endloop
  endfacet
  facet normal 0 0 -1
    outer loop
      vertex 12.5729 13.2366 -110.01
      vertex 9.34315 15 -110.01
      vertex 12 15 -110.01
    endloop
  endfacet
  facet normal 0 0 -1
    outer loop
      vertex 8.13173 2.47487 -110.01
      vertex 12.5729 13.2366 -110.01
      vertex 15 9.34315 -110.01
    endloop
  endfacet
  facet normal 0 0 -1
    outer loop
      vertex 2.47487 8.13173 -110.01
      vertex 12.5729 13.2366 -110.01
      vertex 8.13173 2.47487 -110.01
    endloop
  endfacet
  facet normal -0 0 -1
    outer loop
      vertex 12.5729 13.2366 -110.01
      vertex 2.47487 8.13173 -110.01
      vertex 9.34315 15 -110.01
    endloop
  endfacet
  facet normal -0.707107 0.707107 1.42223e-16
    outer loop
      vertex -7.07319 3.53341 -115
      vertex -2.47487 8.13173 -110.01
      vertex -3.53341 7.07319 -115
    endloop
  endfacet
  facet normal -0.707107 0.707107 1.77991e-16
    outer loop
      vertex -2.47487 8.13173 -110.01
      vertex -7.07319 3.53341 -115
      vertex -8.13173 2.47487 -110.01
    endloop
  endfacet
  facet normal 0.677285 0.677287 0.287345
    outer loop
      vertex -15 9.34315 -110.01
      vertex -7.07319 3.53341 -115
      vertex -15 11.4602 -115
    endloop
  endfacet
  facet normal 0.677286 0.677285 0.287348
    outer loop
      vertex -7.07319 3.53341 -115
      vertex -15 9.34315 -110.01
      vertex -8.13173 2.47487 -110.01
    endloop
  endfacet
  facet normal 0 0 -1
    outer loop
      vertex -13.2366 12.5729 -110.01
      vertex -2.47487 8.13173 -110.01
      vertex -8.13173 2.47487 -110.01
    endloop
  endfacet
  facet normal 0 0 -1
    outer loop
      vertex -2.47487 8.13173 -110.01
      vertex -13.2366 12.5729 -110.01
      vertex -9.34315 15 -110.01
    endloop
  endfacet
  facet normal 0 0 -1
    outer loop
      vertex -9.34315 15 -110.01
      vertex -13.2366 12.5729 -110.01
      vertex -12.1468 14.0729 -110.01
    endloop
  endfacet
  facet normal 0 0 -1
    outer loop
      vertex -15 9.34315 -110.01
      vertex -13.2366 12.5729 -110.01
      vertex -8.13173 2.47487 -110.01
    endloop
  endfacet
  facet normal 0 0 -1
    outer loop
      vertex -13.2366 12.5729 -110.01
      vertex -15 9.34315 -110.01
      vertex -15 12 -110.01
    endloop
  endfacet
  facet normal -0 0 -1
    outer loop
      vertex -9.34315 15 -110.01
      vertex -12.1468 14.0729 -110.01
      vertex -12.1468 15 -110.01
    endloop
  endfacet
  facet normal -0.677286 -0.677287 0.287344
    outer loop
      vertex -11.4602 15 -115
      vertex -2.47487 8.13173 -110.01
      vertex -9.34315 15 -110.01
    endloop
  endfacet
  facet normal -0.677286 -0.677285 0.287348
    outer loop
      vertex -2.47487 8.13173 -110.01
      vertex -11.4602 15 -115
      vertex -3.53341 7.07319 -115
    endloop
  endfacet
  facet normal -0.707107 -0.707107 1.42223e-16
    outer loop
      vertex -3.53341 -7.07319 -115
      vertex -8.13173 -2.47487 -110.01
      vertex -7.07319 -3.53341 -115
    endloop
  endfacet
  facet normal -0.707107 -0.707107 1.77991e-16
    outer loop
      vertex -8.13173 -2.47487 -110.01
      vertex -3.53341 -7.07319 -115
      vertex -2.47487 -8.13173 -110.01
    endloop
  endfacet
  facet normal -0.677286 0.677285 0.287348
    outer loop
      vertex -11.4602 -15 -115
      vertex -2.47487 -8.13173 -110.01
      vertex -3.53341 -7.07319 -115
    endloop
  endfacet
  facet normal -0.677286 0.677287 0.287344
    outer loop
      vertex -2.47487 -8.13173 -110.01
      vertex -11.4602 -15 -115
      vertex -9.34315 -15 -110.01
    endloop
  endfacet
  facet normal 0 0 -1
    outer loop
      vertex -12.5729 -13.2366 -110.01
      vertex -2.47487 -8.13173 -110.01
      vertex -9.34315 -15 -110.01
    endloop
  endfacet
  facet normal 0 0 -1
    outer loop
      vertex -12.5729 -13.2366 -110.01
      vertex -9.34315 -15 -110.01
      vertex -12 -15 -110.01
    endloop
  endfacet
  facet normal -0 0 -1
    outer loop
      vertex -2.47487 -8.13173 -110.01
      vertex -12.5729 -13.2366 -110.01
      vertex -8.13173 -2.47487 -110.01
    endloop
  endfacet
  facet normal 0 0 -1
    outer loop
      vertex -15 -9.34315 -110.01
      vertex -12.5729 -13.2366 -110.01
      vertex -14.0729 -12.1468 -110.01
    endloop
  endfacet
  facet normal 0 0 -1
    outer loop
      vertex -15 -9.34315 -110.01
      vertex -14.0729 -12.1468 -110.01
      vertex -15 -12.1468 -110.01
    endloop
  endfacet
  facet normal 0 0 -1
    outer loop
      vertex -12.5729 -13.2366 -110.01
      vertex -15 -9.34315 -110.01
      vertex -8.13173 -2.47487 -110.01
    endloop
  endfacet
  facet normal 0.677286 -0.677285 0.287348
    outer loop
      vertex -15 -9.34315 -110.01
      vertex -7.07319 -3.53341 -115
      vertex -8.13173 -2.47487 -110.01
    endloop
  endfacet
  facet normal 0.677285 -0.677287 0.287345
    outer loop
      vertex -7.07319 -3.53341 -115
      vertex -15 -9.34315 -110.01
      vertex -15 -11.4602 -115
    endloop
  endfacet
  facet normal -0.677286 -0.677285 -0.287348
    outer loop
      vertex 15 -9.34315 110.01
      vertex 7.07319 -3.53341 115
      vertex 8.13173 -2.47487 110.01
    endloop
  endfacet
  facet normal -0.677285 -0.677287 -0.287345
    outer loop
      vertex 7.07319 -3.53341 115
      vertex 15 -9.34315 110.01
      vertex 15 -11.4602 115
    endloop
  endfacet
  facet normal 0.677286 0.677285 -0.287348
    outer loop
      vertex 11.4602 -15 115
      vertex 2.47487 -8.13173 110.01
      vertex 3.53341 -7.07319 115
    endloop
  endfacet
  facet normal 0.677286 0.677287 -0.287344
    outer loop
      vertex 2.47487 -8.13173 110.01
      vertex 11.4602 -15 115
      vertex 9.34315 -15 110.01
    endloop
  endfacet
  facet normal 0.707107 -0.707107 -1.42223e-16
    outer loop
      vertex 3.53341 -7.07319 115
      vertex 8.13173 -2.47487 110.01
      vertex 7.07319 -3.53341 115
    endloop
  endfacet
  facet normal 0.707107 -0.707107 -1.77991e-16
    outer loop
      vertex 8.13173 -2.47487 110.01
      vertex 3.53341 -7.07319 115
      vertex 2.47487 -8.13173 110.01
    endloop
  endfacet
  facet normal 0 0 1
    outer loop
      vertex 15 -9.34315 110.01
      vertex 9.34315 -15 110.01
      vertex 15 -15 110.01
    endloop
  endfacet
  facet normal 0 0 1
    outer loop
      vertex 8.13173 -2.47487 110.01
      vertex 9.34315 -15 110.01
      vertex 15 -9.34315 110.01
    endloop
  endfacet
  facet normal 0 0 1
    outer loop
      vertex 9.34315 -15 110.01
      vertex 8.13173 -2.47487 110.01
      vertex 2.47487 -8.13173 110.01
    endloop
  endfacet
  facet normal -0.707107 -0.707107 -1.42223e-16
    outer loop
      vertex -8.13173 -2.47487 110.01
      vertex -3.53341 -7.07319 115
      vertex -7.07319 -3.53341 115
    endloop
  endfacet
  facet normal -0.707107 -0.707107 -1.33494e-16
    outer loop
      vertex -3.53341 -7.07319 115
      vertex -8.13173 -2.47487 110.01
      vertex -2.47487 -8.13173 110.01
    endloop
  endfacet
  facet normal -0.677286 0.677287 -0.287344
    outer loop
      vertex -11.4602 -15 115
      vertex -2.47487 -8.13173 110.01
      vertex -9.34315 -15 110.01
    endloop
  endfacet
  facet normal -0.677286 0.677285 -0.287348
    outer loop
      vertex -2.47487 -8.13173 110.01
      vertex -11.4602 -15 115
      vertex -3.53341 -7.07319 115
    endloop
  endfacet
  facet normal 0.677286 -0.677285 -0.287348
    outer loop
      vertex -7.07319 -3.53341 115
      vertex -15 -9.34315 110.01
      vertex -8.13173 -2.47487 110.01
    endloop
  endfacet
  facet normal 0.677285 -0.677287 -0.287345
    outer loop
      vertex -15 -9.34315 110.01
      vertex -7.07319 -3.53341 115
      vertex -15 -11.4602 115
    endloop
  endfacet
  facet normal 0 0 1
    outer loop
      vertex -8.13173 -2.47487 110.01
      vertex -9.34315 -15 110.01
      vertex -2.47487 -8.13173 110.01
    endloop
  endfacet
  facet normal -0 0 1
    outer loop
      vertex -15 -9.34315 110.01
      vertex -9.34315 -15 110.01
      vertex -8.13173 -2.47487 110.01
    endloop
  endfacet
  facet normal 0 0 1
    outer loop
      vertex -9.34315 -15 110.01
      vertex -15 -9.34315 110.01
      vertex -15 -15 110.01
    endloop
  endfacet
  facet normal -0.707107 0.707107 -1.42223e-16
    outer loop
      vertex -2.47487 8.13173 110.01
      vertex -7.07319 3.53341 115
      vertex -3.53341 7.07319 115
    endloop
  endfacet
  facet normal -0.707107 0.707107 -1.33494e-16
    outer loop
      vertex -7.07319 3.53341 115
      vertex -2.47487 8.13173 110.01
      vertex -8.13173 2.47487 110.01
    endloop
  endfacet
  facet normal -0.677286 -0.677287 -0.287344
    outer loop
      vertex -2.47487 8.13173 110.01
      vertex -11.4602 15 115
      vertex -9.34315 15 110.01
    endloop
  endfacet
  facet normal -0.677286 -0.677285 -0.287348
    outer loop
      vertex -11.4602 15 115
      vertex -2.47487 8.13173 110.01
      vertex -3.53341 7.07319 115
    endloop
  endfacet
  facet normal 0 0 1
    outer loop
      vertex -9.34315 15 110.01
      vertex -8.13173 2.47487 110.01
      vertex -2.47487 8.13173 110.01
    endloop
  endfacet
  facet normal 0 0 1
    outer loop
      vertex -15 9.34315 110.01
      vertex -9.34315 15 110.01
      vertex -15 15 110.01
    endloop
  endfacet
  facet normal 0 0 1
    outer loop
      vertex -9.34315 15 110.01
      vertex -15 9.34315 110.01
      vertex -8.13173 2.47487 110.01
    endloop
  endfacet
  facet normal 0.677285 0.677287 -0.287345
    outer loop
      vertex -7.07319 3.53341 115
      vertex -15 9.34315 110.01
      vertex -15 11.4602 115
    endloop
  endfacet
  facet normal 0.677286 0.677285 -0.287348
    outer loop
      vertex -15 9.34315 110.01
      vertex -7.07319 3.53341 115
      vertex -8.13173 2.47487 110.01
    endloop
  endfacet
  facet normal 0.707107 0.707107 -1.42223e-16
    outer loop
      vertex 7.07319 3.53341 115
      vertex 2.47487 8.13173 110.01
      vertex 3.53341 7.07319 115
    endloop
  endfacet
  facet normal 0.707107 0.707107 -1.77991e-16
    outer loop
      vertex 2.47487 8.13173 110.01
      vertex 7.07319 3.53341 115
      vertex 8.13173 2.47487 110.01
    endloop
  endfacet
  facet normal -0.677285 0.677287 -0.287345
    outer loop
      vertex 15 9.34315 110.01
      vertex 7.07319 3.53341 115
      vertex 15 11.4602 115
    endloop
  endfacet
  facet normal -0.677286 0.677285 -0.287348
    outer loop
      vertex 7.07319 3.53341 115
      vertex 15 9.34315 110.01
      vertex 8.13173 2.47487 110.01
    endloop
  endfacet
  facet normal -0 0 1
    outer loop
      vertex 9.34315 15 110.01
      vertex 15 9.34315 110.01
      vertex 15 15 110.01
    endloop
  endfacet
  facet normal 0 0 1
    outer loop
      vertex 9.34315 15 110.01
      vertex 8.13173 2.47487 110.01
      vertex 15 9.34315 110.01
    endloop
  endfacet
  facet normal 0 -0 1
    outer loop
      vertex 8.13173 2.47487 110.01
      vertex 9.34315 15 110.01
      vertex 2.47487 8.13173 110.01
    endloop
  endfacet
  facet normal 0.677286 -0.677287 -0.287344
    outer loop
      vertex 11.4602 15 115
      vertex 2.47487 8.13173 110.01
      vertex 9.34315 15 110.01
    endloop
  endfacet
  facet normal 0.677286 -0.677285 -0.287348
    outer loop
      vertex 2.47487 8.13173 110.01
      vertex 11.4602 15 115
      vertex 3.53341 7.07319 115
    endloop
  endfacet
  facet normal 0.957826 0.287348 0
    outer loop
      vertex -2.5 -15 115
      vertex -4 -10 -115
      vertex -4 -10 115
    endloop
  endfacet
  facet normal 0.957826 0.287348 0
    outer loop
      vertex -4 -10 -115
      vertex -2.5 -15 115
      vertex -2.5 -15 -115
    endloop
  endfacet
  facet normal -0.957826 0.287348 0
    outer loop
      vertex 2.5 -15 -115
      vertex 4 -10 115
      vertex 4 -10 -115
    endloop
  endfacet
  facet normal -0.957826 0.287348 0
    outer loop
      vertex 4 -10 115
      vertex 2.5 -15 -115
      vertex 2.5 -15 115
    endloop
  endfacet
  facet normal 0 -1 0
    outer loop
      vertex -12 -15 -110
      vertex -15 -15 110.01
      vertex -15 -15 -110
    endloop
  endfacet
  facet normal 0 -1 0
    outer loop
      vertex -9.34315 -15 110.01
      vertex -2.5 -15 115
      vertex -11.4602 -15 115
    endloop
  endfacet
  facet normal 0 -1 0
    outer loop
      vertex -15 -15 110.01
      vertex -12 -15 -110
      vertex -9.34315 -15 110.01
    endloop
  endfacet
  facet normal 0 -1 0
    outer loop
      vertex -9.34315 -15 -110.01
      vertex -9.34315 -15 110.01
      vertex -12 -15 -110
    endloop
  endfacet
  facet normal 0 -1 0
    outer loop
      vertex -9.34315 -15 -110.01
      vertex -12 -15 -110
      vertex -12 -15 -110.01
    endloop
  endfacet
  facet normal 0 -1 0
    outer loop
      vertex -9.34315 -15 110.01
      vertex -9.34315 -15 -110.01
      vertex -2.5 -15 115
    endloop
  endfacet
  facet normal 0 -1 0
    outer loop
      vertex -9.34315 -15 -110.01
      vertex -2.5 -15 -115
      vertex -2.5 -15 115
    endloop
  endfacet
  facet normal 0 -1 0
    outer loop
      vertex -2.5 -15 -115
      vertex -9.34315 -15 -110.01
      vertex -11.4602 -15 -115
    endloop
  endfacet
  facet normal 0 -1 0
    outer loop
      vertex 2.5 -15 115
      vertex 9.34315 -15 110.01
      vertex 11.4602 -15 115
    endloop
  endfacet
  facet normal 0 -1 0
    outer loop
      vertex 9.34315 -15 110.01
      vertex 12.1468 -15 -110
      vertex 15 -15 110.01
    endloop
  endfacet
  facet normal 0 -1 0
    outer loop
      vertex 9.34315 -15 -110.01
      vertex 9.34315 -15 110.01
      vertex 2.5 -15 115
    endloop
  endfacet
  facet normal 0 -1 0
    outer loop
      vertex 9.34315 -15 110.01
      vertex 9.34315 -15 -110.01
      vertex 12.1468 -15 -110
    endloop
  endfacet
  facet normal 0 -1 0
    outer loop
      vertex 2.5 -15 -115
      vertex 9.34315 -15 -110.01
      vertex 2.5 -15 115
    endloop
  endfacet
  facet normal 0 -1 -0
    outer loop
      vertex 9.34315 -15 -110.01
      vertex 2.5 -15 -115
      vertex 11.4602 -15 -115
    endloop
  endfacet
  facet normal 0 -1 -0
    outer loop
      vertex 15 -15 110.01
      vertex 12.1468 -15 -110
      vertex 15 -15 -110
    endloop
  endfacet
  facet normal 0 -1 -0
    outer loop
      vertex 12.1468 -15 -110
      vertex 9.34315 -15 -110.01
      vertex 12.1468 -15 -110.01
    endloop
  endfacet
  facet normal 0 -1 0
    outer loop
      vertex -4 -10 115
      vertex 1.95747 -10 6
      vertex 4 -10 115
    endloop
  endfacet
  facet normal 0 -1 0
    outer loop
      vertex -4 -10 115
      vertex 1.95747 -10 -1
      vertex 1.95747 -10 6
    endloop
  endfacet
  facet normal 0 -1 0
    outer loop
      vertex 4 -10 -115
      vertex 1.95747 -10 -1
      vertex -4 -10 -115
    endloop
  endfacet
  facet normal 0 -1 0
    outer loop
      vertex -4 -10 -115
      vertex 1.95747 -10 -1
      vertex -4 -10 115
    endloop
  endfacet
  facet normal 0 -1 0
    outer loop
      vertex 2.04253 -10 6
      vertex 4 -10 115
      vertex 1.95747 -10 6
    endloop
  endfacet
  facet normal 0 -1 0
    outer loop
      vertex 2.04253 -10 -1
      vertex 4 -10 115
      vertex 2.04253 -10 6
    endloop
  endfacet
  facet normal 0 -1 0
    outer loop
      vertex 2.04253 -10 -1
      vertex 4 -10 -115
      vertex 4 -10 115
    endloop
  endfacet
  facet normal 0 -1 0
    outer loop
      vertex 1.95747 -10 -1
      vertex 4 -10 -115
      vertex 2.04253 -10 -1
    endloop
  endfacet
  facet normal -0.287348 0.957826 0
    outer loop
      vertex 15 -2.5 -115
      vertex 10 -4 115
      vertex 15 -2.5 115
    endloop
  endfacet
  facet normal -0.287348 0.957826 0
    outer loop
      vertex 10 -4 115
      vertex 15 -2.5 -115
      vertex 10 -4 -115
    endloop
  endfacet
  facet normal -0.287348 -0.957826 0
    outer loop
      vertex 10 4 -115
      vertex 15 2.5 115
      vertex 10 4 115
    endloop
  endfacet
  facet normal -0.287348 -0.957826 -0
    outer loop
      vertex 15 2.5 115
      vertex 10 4 -115
      vertex 15 2.5 -115
    endloop
  endfacet
  facet normal 1 0 0
    outer loop
      vertex 10 4 115
      vertex 10 -1.95747 6
      vertex 10 4 -115
    endloop
  endfacet
  facet normal 1 -0 0
    outer loop
      vertex 10 -4 115
      vertex 10 -1.95747 6
      vertex 10 4 115
    endloop
  endfacet
  facet normal 1 0 0
    outer loop
      vertex 10 -2.04253 6
      vertex 10 -4 115
      vertex 10 -2.04253 -1
    endloop
  endfacet
  facet normal 1 0 0
    outer loop
      vertex 10 -1.95747 6
      vertex 10 -4 115
      vertex 10 -2.04253 6
    endloop
  endfacet
  facet normal 1 -0 0
    outer loop
      vertex 10 -1.95747 -1
      vertex 10 4 -115
      vertex 10 -1.95747 6
    endloop
  endfacet
  facet normal 1 0 0
    outer loop
      vertex 10 -4 -115
      vertex 10 -1.95747 -1
      vertex 10 -2.04253 -1
    endloop
  endfacet
  facet normal 1 0 0
    outer loop
      vertex 10 -1.95747 -1
      vertex 10 -4 -115
      vertex 10 4 -115
    endloop
  endfacet
  facet normal 1 0 0
    outer loop
      vertex 10 -4 -115
      vertex 10 -2.04253 -1
      vertex 10 -4 115
    endloop
  endfacet
  facet normal 1 0 0
    outer loop
      vertex 15 -9.34315 110.01
      vertex 15 -12 -110
      vertex 15 -9.34315 -110.01
    endloop
  endfacet
  facet normal 1 -0 0
    outer loop
      vertex 15 -15 110.01
      vertex 15 -12 -110
      vertex 15 -9.34315 110.01
    endloop
  endfacet
  facet normal 1 0 0
    outer loop
      vertex 15 -12 -110
      vertex 15 -15 110.01
      vertex 15 -15 -110
    endloop
  endfacet
  facet normal 1 0 0
    outer loop
      vertex 15 -2.5 115
      vertex 15 -9.34315 110.01
      vertex 15 -2.5 -115
    endloop
  endfacet
  facet normal 1 0 -0
    outer loop
      vertex 15 -9.34315 110.01
      vertex 15 -2.5 115
      vertex 15 -11.4602 115
    endloop
  endfacet
  facet normal 1 -0 0
    outer loop
      vertex 15 -9.34315 -110.01
      vertex 15 -2.5 -115
      vertex 15 -9.34315 110.01
    endloop
  endfacet
  facet normal 1 0 0
    outer loop
      vertex 15 -2.5 -115
      vertex 15 -9.34315 -110.01
      vertex 15 -11.4602 -115
    endloop
  endfacet
  facet normal 1 0 0
    outer loop
      vertex 15 -9.34315 -110.01
      vertex 15 -12 -110
      vertex 15 -12 -110.01
    endloop
  endfacet
  facet normal 1 0 0
    outer loop
      vertex 15 9.34315 110.01
      vertex 15 2.5 115
      vertex 15 9.34315 -110.01
    endloop
  endfacet
  facet normal 1 -0 0
    outer loop
      vertex 15 2.5 115
      vertex 15 9.34315 110.01
      vertex 15 11.4602 115
    endloop
  endfacet
  facet normal 1 0 0
    outer loop
      vertex 15 15 110.01
      vertex 15 12.1468 -110
      vertex 15 15 -110
    endloop
  endfacet
  facet normal 1 -0 0
    outer loop
      vertex 15 9.34315 110.01
      vertex 15 12.1468 -110
      vertex 15 15 110.01
    endloop
  endfacet
  facet normal 1 0 0
    outer loop
      vertex 15 9.34315 -110.01
      vertex 15 12.1468 -110
      vertex 15 9.34315 110.01
    endloop
  endfacet
  facet normal 1 0 0
    outer loop
      vertex 15 12.1468 -110
      vertex 15 9.34315 -110.01
      vertex 15 12.1468 -110.01
    endloop
  endfacet
  facet normal 1 0 0
    outer loop
      vertex 15 9.34315 -110.01
      vertex 15 2.5 -115
      vertex 15 11.4602 -115
    endloop
  endfacet
  facet normal 1 0 0
    outer loop
      vertex 15 2.5 -115
      vertex 15 9.34315 -110.01
      vertex 15 2.5 115
    endloop
  endfacet
  facet normal -0.957826 -0.287348 0
    outer loop
      vertex 4 10 -115
      vertex 2.5 15 115
      vertex 2.5 15 -115
    endloop
  endfacet
  facet normal -0.957826 -0.287348 0
    outer loop
      vertex 2.5 15 115
      vertex 4 10 -115
      vertex 4 10 115
    endloop
  endfacet
  facet normal 0.957826 -0.287348 0
    outer loop
      vertex -4 10 115
      vertex -2.5 15 -115
      vertex -2.5 15 115
    endloop
  endfacet
  facet normal 0.957826 -0.287348 0
    outer loop
      vertex -2.5 15 -115
      vertex -4 10 115
      vertex -4 10 -115
    endloop
  endfacet
  facet normal 0 1 -0
    outer loop
      vertex 4 10 -115
      vertex -4 10 115
      vertex 4 10 115
    endloop
  endfacet
  facet normal 0 1 0
    outer loop
      vertex -4 10 115
      vertex 4 10 -115
      vertex -4 10 -115
    endloop
  endfacet
  facet normal 0 1 0
    outer loop
      vertex 12 15 -110
      vertex 15 15 110.01
      vertex 15 15 -110
    endloop
  endfacet
  facet normal 0 1 -0
    outer loop
      vertex 9.34315 15 110.01
      vertex 2.5 15 115
      vertex 11.4602 15 115
    endloop
  endfacet
  facet normal 0 1 0
    outer loop
      vertex 15 15 110.01
      vertex 12 15 -110
      vertex 9.34315 15 110.01
    endloop
  endfacet
  facet normal 0 1 0
    outer loop
      vertex 9.34315 15 -110.01
      vertex 9.34315 15 110.01
      vertex 12 15 -110
    endloop
  endfacet
  facet normal 0 1 0
    outer loop
      vertex 9.34315 15 -110.01
      vertex 12 15 -110
      vertex 12 15 -110.01
    endloop
  endfacet
  facet normal 0 1 0
    outer loop
      vertex 9.34315 15 110.01
      vertex 9.34315 15 -110.01
      vertex 2.5 15 115
    endloop
  endfacet
  facet normal 0 1 0
    outer loop
      vertex 9.34315 15 -110.01
      vertex 2.5 15 -115
      vertex 2.5 15 115
    endloop
  endfacet
  facet normal 0 1 0
    outer loop
      vertex 2.5 15 -115
      vertex 9.34315 15 -110.01
      vertex 11.4602 15 -115
    endloop
  endfacet
  facet normal 0 1 0
    outer loop
      vertex -2.5 15 115
      vertex -9.34315 15 110.01
      vertex -11.4602 15 115
    endloop
  endfacet
  facet normal 0 1 0
    outer loop
      vertex -9.34315 15 110.01
      vertex -12.1468 15 -110
      vertex -15 15 110.01
    endloop
  endfacet
  facet normal 0 1 0
    outer loop
      vertex -9.34315 15 -110.01
      vertex -9.34315 15 110.01
      vertex -2.5 15 115
    endloop
  endfacet
  facet normal 0 1 0
    outer loop
      vertex -9.34315 15 110.01
      vertex -9.34315 15 -110.01
      vertex -12.1468 15 -110
    endloop
  endfacet
  facet normal 0 1 -0
    outer loop
      vertex -2.5 15 -115
      vertex -9.34315 15 -110.01
      vertex -2.5 15 115
    endloop
  endfacet
  facet normal 0 1 0
    outer loop
      vertex -9.34315 15 -110.01
      vertex -2.5 15 -115
      vertex -11.4602 15 -115
    endloop
  endfacet
  facet normal 0 1 0
    outer loop
      vertex -15 15 110.01
      vertex -12.1468 15 -110
      vertex -15 15 -110
    endloop
  endfacet
  facet normal 0 1 0
    outer loop
      vertex -12.1468 15 -110
      vertex -9.34315 15 -110.01
      vertex -12.1468 15 -110.01
    endloop
  endfacet
  facet normal 0.287348 -0.957826 0
    outer loop
      vertex -15 2.5 -115
      vertex -10 4 115
      vertex -15 2.5 115
    endloop
  endfacet
  facet normal 0.287348 -0.957826 0
    outer loop
      vertex -10 4 115
      vertex -15 2.5 -115
      vertex -10 4 -115
    endloop
  endfacet
  facet normal 0.287348 0.957826 -0
    outer loop
      vertex -10 -4 -115
      vertex -15 -2.5 115
      vertex -10 -4 115
    endloop
  endfacet
  facet normal 0.287348 0.957826 0
    outer loop
      vertex -15 -2.5 115
      vertex -10 -4 -115
      vertex -15 -2.5 -115
    endloop
  endfacet
  facet normal -1 -0 0
    outer loop
      vertex -15 9.34315 -110.01
      vertex -15 2.5 -115
      vertex -15 9.34315 110.01
    endloop
  endfacet
  facet normal -1 0 0
    outer loop
      vertex -15 2.5 -115
      vertex -15 9.34315 -110.01
      vertex -15 11.4602 -115
    endloop
  endfacet
  facet normal -1 0 0
    outer loop
      vertex -15 12 -110.01
      vertex -15 9.34315 -110.01
      vertex -15 12 -110
    endloop
  endfacet
  facet normal -1 0 0
    outer loop
      vertex -15 12 -110
      vertex -15 15 110.01
      vertex -15 15 -110
    endloop
  endfacet
  facet normal -1 0 0
    outer loop
      vertex -15 9.34315 110.01
      vertex -15 12 -110
      vertex -15 9.34315 -110.01
    endloop
  endfacet
  facet normal -1 0 0
    outer loop
      vertex -15 12 -110
      vertex -15 9.34315 110.01
      vertex -15 15 110.01
    endloop
  endfacet
  facet normal -1 0 0
    outer loop
      vertex -15 9.34315 110.01
      vertex -15 2.5 115
      vertex -15 11.4602 115
    endloop
  endfacet
  facet normal -1 0 0
    outer loop
      vertex -15 2.5 115
      vertex -15 9.34315 110.01
      vertex -15 2.5 -115
    endloop
  endfacet
  facet normal -1 0 0
    outer loop
      vertex -15 -12.1468 -110
      vertex -15 -9.34315 -110.01
      vertex -15 -12.1468 -110.01
    endloop
  endfacet
  facet normal -1 0 0
    outer loop
      vertex -15 -9.34315 -110.01
      vertex -15 -12.1468 -110
      vertex -15 -9.34315 110.01
    endloop
  endfacet
  facet normal -1 0 0
    outer loop
      vertex -15 -15 110.01
      vertex -15 -12.1468 -110
      vertex -15 -15 -110
    endloop
  endfacet
  facet normal -1 0 0
    outer loop
      vertex -15 -12.1468 -110
      vertex -15 -15 110.01
      vertex -15 -9.34315 110.01
    endloop
  endfacet
  facet normal -1 0 0
    outer loop
      vertex -15 -2.5 -115
      vertex -15 -9.34315 -110.01
      vertex -15 -2.5 115
    endloop
  endfacet
  facet normal -1 0 -0
    outer loop
      vertex -15 -9.34315 -110.01
      vertex -15 -2.5 -115
      vertex -15 -11.4602 -115
    endloop
  endfacet
  facet normal -1 0 0
    outer loop
      vertex -15 -9.34315 110.01
      vertex -15 -2.5 115
      vertex -15 -9.34315 -110.01
    endloop
  endfacet
  facet normal -1 -0 0
    outer loop
      vertex -15 -2.5 115
      vertex -15 -9.34315 110.01
      vertex -15 -11.4602 115
    endloop
  endfacet
  facet normal -1 0 0
    outer loop
      vertex -10 -4 -115
      vertex -10 4 115
      vertex -10 4 -115
    endloop
  endfacet
  facet normal -1 -0 0
    outer loop
      vertex -10 4 115
      vertex -10 -4 -115
      vertex -10 -4 115
    endloop
  endfacet
  facet normal -0.978147 -0.207915 0
    outer loop
      vertex 4.5 0 -114.51
      vertex 4.11095 1.83031 114.51
      vertex 4.11095 1.83031 -114.51
    endloop
  endfacet
  facet normal -0.978147 -0.207915 0
    outer loop
      vertex 4.11095 1.83031 114.51
      vertex 4.5 0 -114.51
      vertex 4.5 0 114.51
    endloop
  endfacet
  facet normal -0.104531 -0.994522 0
    outer loop
      vertex -0.470378 4.47535 -114.51
      vertex 1.39058 4.27975 114.51
      vertex -0.470378 4.47535 114.51
    endloop
  endfacet
  facet normal -0.104531 -0.994522 -0
    outer loop
      vertex 1.39058 4.27975 114.51
      vertex -0.470378 4.47535 -114.51
      vertex 1.39058 4.27975 -114.51
    endloop
  endfacet
  facet normal -0.809019 -0.587782 0
    outer loop
      vertex 4.11095 1.83031 -114.51
      vertex 3.01109 3.34415 114.51
      vertex 3.01109 3.34415 -114.51
    endloop
  endfacet
  facet normal -0.809019 -0.587782 0
    outer loop
      vertex 3.01109 3.34415 114.51
      vertex 4.11095 1.83031 -114.51
      vertex 4.11095 1.83031 114.51
    endloop
  endfacet
  facet normal -0.104531 0.994522 0
    outer loop
      vertex 1.39058 -4.27975 -114.51
      vertex -0.470378 -4.47535 114.51
      vertex 1.39058 -4.27975 114.51
    endloop
  endfacet
  facet normal -0.104531 0.994522 0
    outer loop
      vertex -0.470378 -4.47535 114.51
      vertex 1.39058 -4.27975 -114.51
      vertex -0.470378 -4.47535 -114.51
    endloop
  endfacet
  facet normal -0.499999 0.866026 0
    outer loop
      vertex 3.01109 -3.34415 -114.51
      vertex 1.39058 -4.27975 114.51
      vertex 3.01109 -3.34415 114.51
    endloop
  endfacet
  facet normal -0.499999 0.866026 0
    outer loop
      vertex 1.39058 -4.27975 114.51
      vertex 3.01109 -3.34415 -114.51
      vertex 1.39058 -4.27975 -114.51
    endloop
  endfacet
  facet normal -0.499999 -0.866026 0
    outer loop
      vertex 1.39058 4.27975 -114.51
      vertex 3.01109 3.34415 114.51
      vertex 1.39058 4.27975 114.51
    endloop
  endfacet
  facet normal -0.499999 -0.866026 -0
    outer loop
      vertex 3.01109 3.34415 114.51
      vertex 1.39058 4.27975 -114.51
      vertex 3.01109 3.34415 -114.51
    endloop
  endfacet
  facet normal 0.669129 -0.743146 0
    outer loop
      vertex -3.64058 2.64503 -114.51
      vertex -2.25 3.89711 114.51
      vertex -3.64058 2.64503 114.51
    endloop
  endfacet
  facet normal 0.669129 -0.743146 0
    outer loop
      vertex -2.25 3.89711 114.51
      vertex -3.64058 2.64503 -114.51
      vertex -2.25 3.89711 -114.51
    endloop
  endfacet
  facet normal 0.913547 -0.406734 0
    outer loop
      vertex -4.40166 0.935602 114.51
      vertex -3.64058 2.64503 -114.51
      vertex -3.64058 2.64503 114.51
    endloop
  endfacet
  facet normal 0.913547 -0.406734 0
    outer loop
      vertex -3.64058 2.64503 -114.51
      vertex -4.40166 0.935602 114.51
      vertex -4.40166 0.935602 -114.51
    endloop
  endfacet
  facet normal 0.30902 -0.951056 0
    outer loop
      vertex -2.25 3.89711 -114.51
      vertex -0.470378 4.47535 114.51
      vertex -2.25 3.89711 114.51
    endloop
  endfacet
  facet normal 0.30902 -0.951056 0
    outer loop
      vertex -0.470378 4.47535 114.51
      vertex -2.25 3.89711 -114.51
      vertex -0.470378 4.47535 -114.51
    endloop
  endfacet
  facet normal -0.978147 0.207915 0
    outer loop
      vertex 4.11095 -1.83031 -114.51
      vertex 4.5 0 114.51
      vertex 4.5 0 -114.51
    endloop
  endfacet
  facet normal -0.978147 0.207915 0
    outer loop
      vertex 4.5 0 114.51
      vertex 4.11095 -1.83031 -114.51
      vertex 4.11095 -1.83031 114.51
    endloop
  endfacet
  facet normal 1 -0 0
    outer loop
      vertex -4.40166 -0.935602 114.51
      vertex -4.40166 0.935602 -114.51
      vertex -4.40166 0.935602 114.51
    endloop
  endfacet
  facet normal 1 0 0
    outer loop
      vertex -4.40166 0.935602 -114.51
      vertex -4.40166 -0.935602 114.51
      vertex -4.40166 -0.935602 -114.51
    endloop
  endfacet
  facet normal 0.30902 0.951056 -0
    outer loop
      vertex -0.470378 -4.47535 -114.51
      vertex -2.25 -3.89711 114.51
      vertex -0.470378 -4.47535 114.51
    endloop
  endfacet
  facet normal 0.30902 0.951056 0
    outer loop
      vertex -2.25 -3.89711 114.51
      vertex -0.470378 -4.47535 -114.51
      vertex -2.25 -3.89711 -114.51
    endloop
  endfacet
  facet normal -0.809019 0.587782 0
    outer loop
      vertex 3.01109 -3.34415 -114.51
      vertex 4.11095 -1.83031 114.51
      vertex 4.11095 -1.83031 -114.51
    endloop
  endfacet
  facet normal -0.809019 0.587782 0
    outer loop
      vertex 4.11095 -1.83031 114.51
      vertex 3.01109 -3.34415 -114.51
      vertex 3.01109 -3.34415 114.51
    endloop
  endfacet
  facet normal 0.669129 0.743146 -0
    outer loop
      vertex -2.25 -3.89711 -114.51
      vertex -3.64058 -2.64503 114.51
      vertex -2.25 -3.89711 114.51
    endloop
  endfacet
  facet normal 0.669129 0.743146 0
    outer loop
      vertex -3.64058 -2.64503 114.51
      vertex -2.25 -3.89711 -114.51
      vertex -3.64058 -2.64503 -114.51
    endloop
  endfacet
  facet normal 0.913547 0.406734 0
    outer loop
      vertex -3.64058 -2.64503 114.51
      vertex -4.40166 -0.935602 -114.51
      vertex -4.40166 -0.935602 114.51
    endloop
  endfacet
  facet normal 0.913547 0.406734 0
    outer loop
      vertex -4.40166 -0.935602 -114.51
      vertex -3.64058 -2.64503 114.51
      vertex -3.64058 -2.64503 -114.51
    endloop
  endfacet
  facet normal -0.699253 -0.148632 -0.699253
    outer loop
      vertex 4.56637 1.99301 -115
      vertex 4.99 0 -115
      vertex 4.5 0 -114.51
    endloop
  endfacet
  facet normal -0.0747249 -0.710962 -0.699249
    outer loop
      vertex 1.50478 4.74968 -115
      vertex -0.470378 4.47535 -114.51
      vertex -0.521597 4.96266 -115
    endloop
  endfacet
  facet normal 0.653065 0.290763 -0.699258
    outer loop
      vertex -4.40166 -0.935602 -114.51
      vertex -4.05222 -2.89886 -115
      vertex -4.88096 -1.03748 -115
    endloop
  endfacet
  facet normal -0.57836 -0.420157 -0.699262
    outer loop
      vertex 4.11095 1.83031 -114.51
      vertex 4.5366 2.05989 -115
      vertex 4.55859 2.02962 -115
    endloop
  endfacet
  facet normal -0.578342 -0.420186 -0.69926
    outer loop
      vertex 4.5366 2.05989 -115
      vertex 4.11095 1.83031 -114.51
      vertex 3.01109 3.34415 -114.51
    endloop
  endfacet
  facet normal -0.699253 0.148632 -0.699253
    outer loop
      vertex 4.99 0 -115
      vertex 4.56637 -1.99301 -115
      vertex 4.5 0 -114.51
    endloop
  endfacet
  facet normal 0.22091 -0.679883 -0.699256
    outer loop
      vertex -2.25 3.89711 -114.51
      vertex -2.45941 4.33303 -115
      vertex -0.470378 4.47535 -114.51
    endloop
  endfacet
  facet normal 0.220842 -0.67991 -0.699251
    outer loop
      vertex -2.45941 4.33303 -115
      vertex -2.25 3.89711 -114.51
      vertex -2.495 4.32147 -115
    endloop
  endfacet
  facet normal 0.714869 0 -0.699259
    outer loop
      vertex -4.40166 -0.935602 -114.51
      vertex -4.88096 1.03748 -115
      vertex -4.40166 0.935602 -114.51
    endloop
  endfacet
  facet normal 0.714869 0 -0.699259
    outer loop
      vertex -4.88096 1.03748 -115
      vertex -4.40166 -0.935602 -114.51
      vertex -4.88096 -1.03748 -115
    endloop
  endfacet
  facet normal -0.0746876 0.710964 -0.699251
    outer loop
      vertex 1.50478 -4.74968 -115
      vertex 1.39058 -4.27975 -114.51
      vertex 1.542 -4.74577 -115
    endloop
  endfacet
  facet normal -0.0747267 0.710958 -0.699253
    outer loop
      vertex 1.39058 -4.27975 -114.51
      vertex 1.50478 -4.74968 -115
      vertex -0.470378 -4.47535 -114.51
    endloop
  endfacet
  facet normal -0.357495 0.619072 -0.699248
    outer loop
      vertex 1.39058 -4.27975 -114.51
      vertex 1.5744 -4.72706 -115
      vertex 1.542 -4.74577 -115
    endloop
  endfacet
  facet normal -0.357437 0.6191 -0.699252
    outer loop
      vertex 1.5744 -4.72706 -115
      vertex 1.39058 -4.27975 -114.51
      vertex 3.01109 -3.34415 -114.51
    endloop
  endfacet
  facet normal -0.69925 -0.148632 -0.699255
    outer loop
      vertex 4.11095 1.83031 -114.51
      vertex 4.56637 1.99301 -115
      vertex 4.5 0 -114.51
    endloop
  endfacet
  facet normal -0.699259 -0.1486 -0.699253
    outer loop
      vertex 4.56637 1.99301 -115
      vertex 4.11095 1.83031 -114.51
      vertex 4.55859 2.02962 -115
    endloop
  endfacet
  facet normal 0.220908 -0.67989 -0.699249
    outer loop
      vertex -0.521597 4.96266 -115
      vertex -0.470378 4.47535 -114.51
      vertex -2.45941 4.33303 -115
    endloop
  endfacet
  facet normal -0.357437 -0.6191 -0.699252
    outer loop
      vertex 1.39058 4.27975 -114.51
      vertex 1.5744 4.72706 -115
      vertex 3.01109 3.34415 -114.51
    endloop
  endfacet
  facet normal -0.357495 -0.619072 -0.699248
    outer loop
      vertex 1.5744 4.72706 -115
      vertex 1.39058 4.27975 -114.51
      vertex 1.542 4.74577 -115
    endloop
  endfacet
  facet normal -0.0747267 -0.710958 -0.699253
    outer loop
      vertex 1.50478 4.74968 -115
      vertex 1.39058 4.27975 -114.51
      vertex -0.470378 4.47535 -114.51
    endloop
  endfacet
  facet normal -0.0746876 -0.710964 -0.699251
    outer loop
      vertex 1.39058 4.27975 -114.51
      vertex 1.50478 4.74968 -115
      vertex 1.542 4.74577 -115
    endloop
  endfacet
  facet normal -0.357438 -0.619101 -0.699251
    outer loop
      vertex 3.33896 3.70829 -115
      vertex 3.01109 3.34415 -114.51
      vertex 1.5744 4.72706 -115
    endloop
  endfacet
  facet normal -0.578346 -0.420196 -0.69925
    outer loop
      vertex 3.33896 3.70829 -115
      vertex 4.5366 2.05989 -115
      vertex 3.01109 3.34415 -114.51
    endloop
  endfacet
  facet normal 0.653089 -0.290729 -0.699251
    outer loop
      vertex -3.64058 2.64503 -114.51
      vertex -4.05222 2.89886 -115
      vertex -4.037 2.93305 -115
    endloop
  endfacet
  facet normal 0.65307 -0.290763 -0.699254
    outer loop
      vertex -4.05222 2.89886 -115
      vertex -3.64058 2.64503 -114.51
      vertex -4.40166 0.935602 -114.51
    endloop
  endfacet
  facet normal 0.478341 -0.531253 -0.699256
    outer loop
      vertex -3.64058 2.64503 -114.51
      vertex -4.00919 2.95809 -115
      vertex -2.25 3.89711 -114.51
    endloop
  endfacet
  facet normal 0.47834 -0.531255 -0.699256
    outer loop
      vertex -4.00919 2.95809 -115
      vertex -3.64058 2.64503 -114.51
      vertex -4.037 2.93305 -115
    endloop
  endfacet
  facet normal 0.478341 -0.531253 -0.699257
    outer loop
      vertex -2.495 4.32147 -115
      vertex -2.25 3.89711 -114.51
      vertex -4.00919 2.95809 -115
    endloop
  endfacet
  facet normal 0.478341 0.531253 -0.699257
    outer loop
      vertex -2.25 -3.89711 -114.51
      vertex -2.495 -4.32147 -115
      vertex -4.00919 -2.95809 -115
    endloop
  endfacet
  facet normal 0.653089 0.290729 -0.699251
    outer loop
      vertex -4.05222 -2.89886 -115
      vertex -3.64058 -2.64503 -114.51
      vertex -4.037 -2.93305 -115
    endloop
  endfacet
  facet normal 0.65307 0.290763 -0.699254
    outer loop
      vertex -3.64058 -2.64503 -114.51
      vertex -4.05222 -2.89886 -115
      vertex -4.40166 -0.935602 -114.51
    endloop
  endfacet
  facet normal 0.478341 0.531253 -0.699256
    outer loop
      vertex -4.00919 -2.95809 -115
      vertex -3.64058 -2.64503 -114.51
      vertex -2.25 -3.89711 -114.51
    endloop
  endfacet
  facet normal 0.47834 0.531255 -0.699256
    outer loop
      vertex -3.64058 -2.64503 -114.51
      vertex -4.00919 -2.95809 -115
      vertex -4.037 -2.93305 -115
    endloop
  endfacet
  facet normal -0.0747249 0.710962 -0.699249
    outer loop
      vertex -0.470378 -4.47535 -114.51
      vertex 1.50478 -4.74968 -115
      vertex -0.521597 -4.96266 -115
    endloop
  endfacet
  facet normal -0.357438 0.619101 -0.699251
    outer loop
      vertex 3.01109 -3.34415 -114.51
      vertex 3.33896 -3.70829 -115
      vertex 1.5744 -4.72706 -115
    endloop
  endfacet
  facet normal 0.653065 -0.290763 -0.699258
    outer loop
      vertex -4.05222 2.89886 -115
      vertex -4.40166 0.935602 -114.51
      vertex -4.88096 1.03748 -115
    endloop
  endfacet
  facet normal 0.22091 0.679883 -0.699256
    outer loop
      vertex -2.45941 -4.33303 -115
      vertex -2.25 -3.89711 -114.51
      vertex -0.470378 -4.47535 -114.51
    endloop
  endfacet
  facet normal 0.220842 0.67991 -0.699251
    outer loop
      vertex -2.25 -3.89711 -114.51
      vertex -2.45941 -4.33303 -115
      vertex -2.495 -4.32147 -115
    endloop
  endfacet
  facet normal 0.220908 0.67989 -0.699249
    outer loop
      vertex -0.470378 -4.47535 -114.51
      vertex -0.521597 -4.96266 -115
      vertex -2.45941 -4.33303 -115
    endloop
  endfacet
  facet normal -0.578346 0.420196 -0.69925
    outer loop
      vertex 4.5366 -2.05989 -115
      vertex 3.33896 -3.70829 -115
      vertex 3.01109 -3.34415 -114.51
    endloop
  endfacet
  facet normal -0.57836 0.420157 -0.699262
    outer loop
      vertex 4.5366 -2.05989 -115
      vertex 4.11095 -1.83031 -114.51
      vertex 4.55859 -2.02962 -115
    endloop
  endfacet
  facet normal -0.578342 0.420186 -0.69926
    outer loop
      vertex 4.11095 -1.83031 -114.51
      vertex 4.5366 -2.05989 -115
      vertex 3.01109 -3.34415 -114.51
    endloop
  endfacet
  facet normal -0.699259 0.1486 -0.699253
    outer loop
      vertex 4.11095 -1.83031 -114.51
      vertex 4.56637 -1.99301 -115
      vertex 4.55859 -2.02962 -115
    endloop
  endfacet
  facet normal -0.69925 0.148632 -0.699255
    outer loop
      vertex 4.56637 -1.99301 -115
      vertex 4.11095 -1.83031 -114.51
      vertex 4.5 0 -114.51
    endloop
  endfacet
  facet normal -0.699253 0.148632 0.699253
    outer loop
      vertex 4.56637 -1.99301 115
      vertex 4.99 0 115
      vertex 4.5 0 114.51
    endloop
  endfacet
  facet normal -0.0747249 0.710962 0.699249
    outer loop
      vertex 1.50478 -4.74968 115
      vertex -0.470378 -4.47535 114.51
      vertex -0.521597 -4.96266 115
    endloop
  endfacet
  facet normal 0.653065 -0.290763 0.699258
    outer loop
      vertex -4.40166 0.935602 114.51
      vertex -4.05222 2.89886 115
      vertex -4.88096 1.03748 115
    endloop
  endfacet
  facet normal -0.57836 0.420157 0.699262
    outer loop
      vertex 4.11095 -1.83031 114.51
      vertex 4.5366 -2.05989 115
      vertex 4.55859 -2.02962 115
    endloop
  endfacet
  facet normal -0.578342 0.420186 0.69926
    outer loop
      vertex 4.5366 -2.05989 115
      vertex 4.11095 -1.83031 114.51
      vertex 3.01109 -3.34415 114.51
    endloop
  endfacet
  facet normal -0.699253 -0.148632 0.699253
    outer loop
      vertex 4.99 0 115
      vertex 4.56637 1.99301 115
      vertex 4.5 0 114.51
    endloop
  endfacet
  facet normal 0.22091 0.679883 0.699256
    outer loop
      vertex -2.25 -3.89711 114.51
      vertex -2.45941 -4.33303 115
      vertex -0.470378 -4.47535 114.51
    endloop
  endfacet
  facet normal 0.220842 0.67991 0.699251
    outer loop
      vertex -2.45941 -4.33303 115
      vertex -2.25 -3.89711 114.51
      vertex -2.495 -4.32147 115
    endloop
  endfacet
  facet normal 0.714869 0 0.699259
    outer loop
      vertex -4.88096 1.03748 115
      vertex -4.40166 -0.935602 114.51
      vertex -4.40166 0.935602 114.51
    endloop
  endfacet
  facet normal 0.714869 0 0.699259
    outer loop
      vertex -4.40166 -0.935602 114.51
      vertex -4.88096 1.03748 115
      vertex -4.88096 -1.03748 115
    endloop
  endfacet
  facet normal -0.0747267 -0.710958 0.699253
    outer loop
      vertex 1.39058 4.27975 114.51
      vertex 1.50478 4.74968 115
      vertex -0.470378 4.47535 114.51
    endloop
  endfacet
  facet normal -0.0746876 -0.710964 0.699251
    outer loop
      vertex 1.50478 4.74968 115
      vertex 1.39058 4.27975 114.51
      vertex 1.542 4.74577 115
    endloop
  endfacet
  facet normal -0.357495 -0.619072 0.699248
    outer loop
      vertex 1.39058 4.27975 114.51
      vertex 1.5744 4.72706 115
      vertex 1.542 4.74577 115
    endloop
  endfacet
  facet normal -0.357437 -0.6191 0.699252
    outer loop
      vertex 1.5744 4.72706 115
      vertex 1.39058 4.27975 114.51
      vertex 3.01109 3.34415 114.51
    endloop
  endfacet
  facet normal -0.69925 0.148632 0.699255
    outer loop
      vertex 4.11095 -1.83031 114.51
      vertex 4.56637 -1.99301 115
      vertex 4.5 0 114.51
    endloop
  endfacet
  facet normal -0.699259 0.1486 0.699253
    outer loop
      vertex 4.56637 -1.99301 115
      vertex 4.11095 -1.83031 114.51
      vertex 4.55859 -2.02962 115
    endloop
  endfacet
  facet normal 0.220908 0.67989 0.699249
    outer loop
      vertex -0.521597 -4.96266 115
      vertex -0.470378 -4.47535 114.51
      vertex -2.45941 -4.33303 115
    endloop
  endfacet
  facet normal -0.357437 0.6191 0.699252
    outer loop
      vertex 1.39058 -4.27975 114.51
      vertex 1.5744 -4.72706 115
      vertex 3.01109 -3.34415 114.51
    endloop
  endfacet
  facet normal -0.357495 0.619072 0.699248
    outer loop
      vertex 1.5744 -4.72706 115
      vertex 1.39058 -4.27975 114.51
      vertex 1.542 -4.74577 115
    endloop
  endfacet
  facet normal -0.0746876 0.710964 0.699251
    outer loop
      vertex 1.39058 -4.27975 114.51
      vertex 1.50478 -4.74968 115
      vertex 1.542 -4.74577 115
    endloop
  endfacet
  facet normal -0.0747267 0.710958 0.699253
    outer loop
      vertex 1.50478 -4.74968 115
      vertex 1.39058 -4.27975 114.51
      vertex -0.470378 -4.47535 114.51
    endloop
  endfacet
  facet normal -0.357438 0.619101 0.699251
    outer loop
      vertex 3.33896 -3.70829 115
      vertex 3.01109 -3.34415 114.51
      vertex 1.5744 -4.72706 115
    endloop
  endfacet
  facet normal -0.578346 0.420196 0.69925
    outer loop
      vertex 3.33896 -3.70829 115
      vertex 4.5366 -2.05989 115
      vertex 3.01109 -3.34415 114.51
    endloop
  endfacet
  facet normal 0.653089 0.290729 0.699251
    outer loop
      vertex -3.64058 -2.64503 114.51
      vertex -4.05222 -2.89886 115
      vertex -4.037 -2.93305 115
    endloop
  endfacet
  facet normal 0.65307 0.290763 0.699254
    outer loop
      vertex -4.05222 -2.89886 115
      vertex -3.64058 -2.64503 114.51
      vertex -4.40166 -0.935602 114.51
    endloop
  endfacet
  facet normal 0.478341 0.531253 0.699256
    outer loop
      vertex -3.64058 -2.64503 114.51
      vertex -4.00919 -2.95809 115
      vertex -2.25 -3.89711 114.51
    endloop
  endfacet
  facet normal 0.47834 0.531255 0.699256
    outer loop
      vertex -4.00919 -2.95809 115
      vertex -3.64058 -2.64503 114.51
      vertex -4.037 -2.93305 115
    endloop
  endfacet
  facet normal 0.478341 0.531253 0.699257
    outer loop
      vertex -2.495 -4.32147 115
      vertex -2.25 -3.89711 114.51
      vertex -4.00919 -2.95809 115
    endloop
  endfacet
  facet normal 0.478341 -0.531253 0.699257
    outer loop
      vertex -2.25 3.89711 114.51
      vertex -2.495 4.32147 115
      vertex -4.00919 2.95809 115
    endloop
  endfacet
  facet normal 0.653089 -0.290729 0.699251
    outer loop
      vertex -4.05222 2.89886 115
      vertex -3.64058 2.64503 114.51
      vertex -4.037 2.93305 115
    endloop
  endfacet
  facet normal 0.65307 -0.290763 0.699254
    outer loop
      vertex -3.64058 2.64503 114.51
      vertex -4.05222 2.89886 115
      vertex -4.40166 0.935602 114.51
    endloop
  endfacet
  facet normal 0.478341 -0.531253 0.699256
    outer loop
      vertex -4.00919 2.95809 115
      vertex -3.64058 2.64503 114.51
      vertex -2.25 3.89711 114.51
    endloop
  endfacet
  facet normal 0.47834 -0.531255 0.699256
    outer loop
      vertex -3.64058 2.64503 114.51
      vertex -4.00919 2.95809 115
      vertex -4.037 2.93305 115
    endloop
  endfacet
  facet normal -0.0747249 -0.710962 0.699249
    outer loop
      vertex -0.470378 4.47535 114.51
      vertex 1.50478 4.74968 115
      vertex -0.521597 4.96266 115
    endloop
  endfacet
  facet normal -0.357438 -0.619101 0.699251
    outer loop
      vertex 3.01109 3.34415 114.51
      vertex 3.33896 3.70829 115
      vertex 1.5744 4.72706 115
    endloop
  endfacet
  facet normal 0.653065 0.290763 0.699258
    outer loop
      vertex -4.05222 -2.89886 115
      vertex -4.40166 -0.935602 114.51
      vertex -4.88096 -1.03748 115
    endloop
  endfacet
  facet normal 0.22091 -0.679883 0.699256
    outer loop
      vertex -2.45941 4.33303 115
      vertex -2.25 3.89711 114.51
      vertex -0.470378 4.47535 114.51
    endloop
  endfacet
  facet normal 0.220842 -0.67991 0.699251
    outer loop
      vertex -2.25 3.89711 114.51
      vertex -2.45941 4.33303 115
      vertex -2.495 4.32147 115
    endloop
  endfacet
  facet normal 0.220908 -0.67989 0.699249
    outer loop
      vertex -0.470378 4.47535 114.51
      vertex -0.521597 4.96266 115
      vertex -2.45941 4.33303 115
    endloop
  endfacet
  facet normal -0.578346 -0.420196 0.69925
    outer loop
      vertex 4.5366 2.05989 115
      vertex 3.33896 3.70829 115
      vertex 3.01109 3.34415 114.51
    endloop
  endfacet
  facet normal -0.57836 -0.420157 0.699262
    outer loop
      vertex 4.5366 2.05989 115
      vertex 4.11095 1.83031 114.51
      vertex 4.55859 2.02962 115
    endloop
  endfacet
  facet normal -0.578342 -0.420186 0.69926
    outer loop
      vertex 4.11095 1.83031 114.51
      vertex 4.5366 2.05989 115
      vertex 3.01109 3.34415 114.51
    endloop
  endfacet
  facet normal -0.699259 -0.1486 0.699253
    outer loop
      vertex 4.11095 1.83031 114.51
      vertex 4.56637 1.99301 115
      vertex 4.55859 2.02962 115
    endloop
  endfacet
  facet normal -0.69925 -0.148632 0.699255
    outer loop
      vertex 4.56637 1.99301 115
      vertex 4.11095 1.83031 114.51
      vertex 4.5 0 114.51
    endloop
  endfacet
  facet normal 0 0 -1
    outer loop
      vertex -2.5 -15 -115
      vertex -11.4602 -15 -115
      vertex -4 -10 -115
    endloop
  endfacet
  facet normal 0 0 -1
    outer loop
      vertex 11.4602 -15 -115
      vertex 2.5 -15 -115
      vertex 4 -10 -115
    endloop
  endfacet
  facet normal 0 0 -1
    outer loop
      vertex 4 -10 -115
      vertex 3.53341 -7.07319 -115
      vertex 11.4602 -15 -115
    endloop
  endfacet
  facet normal 0 0 -1
    outer loop
      vertex 3.53341 -7.07319 -115
      vertex 1.5744 -4.72706 -115
      vertex 3.33896 -3.70829 -115
    endloop
  endfacet
  facet normal 0 0 -1
    outer loop
      vertex -3.53341 -7.07319 -115
      vertex 3.53341 -7.07319 -115
      vertex 4 -10 -115
    endloop
  endfacet
  facet normal 0 0 -1
    outer loop
      vertex 3.53341 -7.07319 -115
      vertex 1.542 -4.74577 -115
      vertex 1.5744 -4.72706 -115
    endloop
  endfacet
  facet normal 0 0 -1
    outer loop
      vertex 3.53341 -7.07319 -115
      vertex 1.50478 -4.74968 -115
      vertex 1.542 -4.74577 -115
    endloop
  endfacet
  facet normal 0 0 -1
    outer loop
      vertex 3.53341 -7.07319 -115
      vertex -0.521597 -4.96266 -115
      vertex 1.50478 -4.74968 -115
    endloop
  endfacet
  facet normal 0 0 -1
    outer loop
      vertex 3.53341 -7.07319 -115
      vertex -3.53341 -7.07319 -115
      vertex -0.521597 -4.96266 -115
    endloop
  endfacet
  facet normal -0 0 -1
    outer loop
      vertex -0.521597 -4.96266 -115
      vertex -3.53341 -7.07319 -115
      vertex -2.45941 -4.33303 -115
    endloop
  endfacet
  facet normal -0 0 -1
    outer loop
      vertex -2.45941 -4.33303 -115
      vertex -3.53341 -7.07319 -115
      vertex -2.495 -4.32147 -115
    endloop
  endfacet
  facet normal 0 0 -1
    outer loop
      vertex -4 -10 -115
      vertex -3.53341 -7.07319 -115
      vertex 4 -10 -115
    endloop
  endfacet
  facet normal 0 0 -1
    outer loop
      vertex -3.53341 -7.07319 -115
      vertex -4 -10 -115
      vertex -11.4602 -15 -115
    endloop
  endfacet
  facet normal 0 0 -1
    outer loop
      vertex 4.56637 1.99301 -115
      vertex 7.07319 3.53341 -115
      vertex 4.99 0 -115
    endloop
  endfacet
  facet normal 0 0 -1
    outer loop
      vertex 4.55859 2.02962 -115
      vertex 7.07319 3.53341 -115
      vertex 4.56637 1.99301 -115
    endloop
  endfacet
  facet normal 0 0 -1
    outer loop
      vertex 4.5366 2.05989 -115
      vertex 7.07319 3.53341 -115
      vertex 4.55859 2.02962 -115
    endloop
  endfacet
  facet normal 0 0 -1
    outer loop
      vertex 3.33896 3.70829 -115
      vertex 7.07319 3.53341 -115
      vertex 4.5366 2.05989 -115
    endloop
  endfacet
  facet normal 0 0 -1
    outer loop
      vertex 7.07319 3.53341 -115
      vertex 3.33896 3.70829 -115
      vertex 3.53341 7.07319 -115
    endloop
  endfacet
  facet normal 0 0 -1
    outer loop
      vertex 15 -11.4602 -115
      vertex 10 -4 -115
      vertex 15 -2.5 -115
    endloop
  endfacet
  facet normal 0 0 -1
    outer loop
      vertex 10 -4 -115
      vertex 7.07319 -3.53341 -115
      vertex 10 4 -115
    endloop
  endfacet
  facet normal 0 0 -1
    outer loop
      vertex 7.07319 -3.53341 -115
      vertex 10 -4 -115
      vertex 15 -11.4602 -115
    endloop
  endfacet
  facet normal 0 0 -1
    outer loop
      vertex 10 4 -115
      vertex 15 11.4602 -115
      vertex 15 2.5 -115
    endloop
  endfacet
  facet normal -0 0 -1
    outer loop
      vertex 10 4 -115
      vertex 7.07319 3.53341 -115
      vertex 15 11.4602 -115
    endloop
  endfacet
  facet normal 0 0 -1
    outer loop
      vertex 7.07319 -3.53341 -115
      vertex 7.07319 3.53341 -115
      vertex 10 4 -115
    endloop
  endfacet
  facet normal 0 0 -1
    outer loop
      vertex 7.07319 -3.53341 -115
      vertex 4.99 0 -115
      vertex 7.07319 3.53341 -115
    endloop
  endfacet
  facet normal 0 0 -1
    outer loop
      vertex 7.07319 -3.53341 -115
      vertex 4.56637 -1.99301 -115
      vertex 4.99 0 -115
    endloop
  endfacet
  facet normal 0 0 -1
    outer loop
      vertex 7.07319 -3.53341 -115
      vertex 4.55859 -2.02962 -115
      vertex 4.56637 -1.99301 -115
    endloop
  endfacet
  facet normal 0 0 -1
    outer loop
      vertex 7.07319 -3.53341 -115
      vertex 4.5366 -2.05989 -115
      vertex 4.55859 -2.02962 -115
    endloop
  endfacet
  facet normal 0 0 -1
    outer loop
      vertex 3.33896 -3.70829 -115
      vertex 7.07319 -3.53341 -115
      vertex 3.53341 -7.07319 -115
    endloop
  endfacet
  facet normal -0 0 -1
    outer loop
      vertex 7.07319 -3.53341 -115
      vertex 3.33896 -3.70829 -115
      vertex 4.5366 -2.05989 -115
    endloop
  endfacet
  facet normal 0 0 -1
    outer loop
      vertex 3.53341 7.07319 -115
      vertex 4 10 -115
      vertex 11.4602 15 -115
    endloop
  endfacet
  facet normal 0 0 -1
    outer loop
      vertex 1.5744 4.72706 -115
      vertex 3.53341 7.07319 -115
      vertex 3.33896 3.70829 -115
    endloop
  endfacet
  facet normal 0 0 -1
    outer loop
      vertex 1.542 4.74577 -115
      vertex 3.53341 7.07319 -115
      vertex 1.5744 4.72706 -115
    endloop
  endfacet
  facet normal 0 0 -1
    outer loop
      vertex 1.50478 4.74968 -115
      vertex 3.53341 7.07319 -115
      vertex 1.542 4.74577 -115
    endloop
  endfacet
  facet normal 0 0 -1
    outer loop
      vertex -0.521597 4.96266 -115
      vertex 3.53341 7.07319 -115
      vertex 1.50478 4.74968 -115
    endloop
  endfacet
  facet normal 0 0 -1
    outer loop
      vertex -3.53341 7.07319 -115
      vertex 3.53341 7.07319 -115
      vertex -0.521597 4.96266 -115
    endloop
  endfacet
  facet normal 0 0 -1
    outer loop
      vertex -3.53341 7.07319 -115
      vertex -0.521597 4.96266 -115
      vertex -2.45941 4.33303 -115
    endloop
  endfacet
  facet normal 0 0 -1
    outer loop
      vertex -3.53341 7.07319 -115
      vertex -2.45941 4.33303 -115
      vertex -2.495 4.32147 -115
    endloop
  endfacet
  facet normal 0 0 -1
    outer loop
      vertex 3.53341 7.07319 -115
      vertex -3.53341 7.07319 -115
      vertex 4 10 -115
    endloop
  endfacet
  facet normal 0 0 -1
    outer loop
      vertex -3.53341 7.07319 -115
      vertex -4 10 -115
      vertex 4 10 -115
    endloop
  endfacet
  facet normal -0 -0 -1
    outer loop
      vertex -4 10 -115
      vertex -3.53341 7.07319 -115
      vertex -11.4602 15 -115
    endloop
  endfacet
  facet normal -0 0 -1
    outer loop
      vertex 11.4602 15 -115
      vertex 4 10 -115
      vertex 2.5 15 -115
    endloop
  endfacet
  facet normal 0 0 -1
    outer loop
      vertex -4.00919 2.95809 -115
      vertex -3.53341 7.07319 -115
      vertex -2.495 4.32147 -115
    endloop
  endfacet
  facet normal 0 0 -1
    outer loop
      vertex -7.07319 3.53341 -115
      vertex -4.00919 2.95809 -115
      vertex -4.037 2.93305 -115
    endloop
  endfacet
  facet normal 0 0 -1
    outer loop
      vertex -7.07319 3.53341 -115
      vertex -4.037 2.93305 -115
      vertex -4.05222 2.89886 -115
    endloop
  endfacet
  facet normal 0 0 -1
    outer loop
      vertex -7.07319 3.53341 -115
      vertex -4.05222 2.89886 -115
      vertex -4.88096 1.03748 -115
    endloop
  endfacet
  facet normal 0 0 -1
    outer loop
      vertex -7.07319 3.53341 -115
      vertex -4.88096 1.03748 -115
      vertex -7.07319 -3.53341 -115
    endloop
  endfacet
  facet normal 0 0 -1
    outer loop
      vertex -4.00919 2.95809 -115
      vertex -7.07319 3.53341 -115
      vertex -3.53341 7.07319 -115
    endloop
  endfacet
  facet normal -0 0 -1
    outer loop
      vertex -7.07319 -3.53341 -115
      vertex -10 -4 -115
      vertex -7.07319 3.53341 -115
    endloop
  endfacet
  facet normal 0 0 -1
    outer loop
      vertex -15 -11.4602 -115
      vertex -10 -4 -115
      vertex -7.07319 -3.53341 -115
    endloop
  endfacet
  facet normal -0 0 -1
    outer loop
      vertex -10 -4 -115
      vertex -15 -11.4602 -115
      vertex -15 -2.5 -115
    endloop
  endfacet
  facet normal 0 0 -1
    outer loop
      vertex -3.53341 -7.07319 -115
      vertex -4.00919 -2.95809 -115
      vertex -2.495 -4.32147 -115
    endloop
  endfacet
  facet normal 0 0 -1
    outer loop
      vertex -7.07319 -3.53341 -115
      vertex -4.00919 -2.95809 -115
      vertex -3.53341 -7.07319 -115
    endloop
  endfacet
  facet normal -0 0 -1
    outer loop
      vertex -4.00919 -2.95809 -115
      vertex -7.07319 -3.53341 -115
      vertex -4.037 -2.93305 -115
    endloop
  endfacet
  facet normal -0 0 -1
    outer loop
      vertex -4.037 -2.93305 -115
      vertex -7.07319 -3.53341 -115
      vertex -4.05222 -2.89886 -115
    endloop
  endfacet
  facet normal -0 0 -1
    outer loop
      vertex -4.88096 -1.03748 -115
      vertex -7.07319 -3.53341 -115
      vertex -4.88096 1.03748 -115
    endloop
  endfacet
  facet normal -0 0 -1
    outer loop
      vertex -4.05222 -2.89886 -115
      vertex -7.07319 -3.53341 -115
      vertex -4.88096 -1.03748 -115
    endloop
  endfacet
  facet normal -0 0 -1
    outer loop
      vertex -2.5 15 -115
      vertex -4 10 -115
      vertex -11.4602 15 -115
    endloop
  endfacet
  facet normal 0 0 -1
    outer loop
      vertex -10 4 -115
      vertex -7.07319 3.53341 -115
      vertex -10 -4 -115
    endloop
  endfacet
  facet normal 0 0 -1
    outer loop
      vertex -10 4 -115
      vertex -15 11.4602 -115
      vertex -7.07319 3.53341 -115
    endloop
  endfacet
  facet normal 0 0 -1
    outer loop
      vertex -15 11.4602 -115
      vertex -10 4 -115
      vertex -15 2.5 -115
    endloop
  endfacet
  facet normal 0 0 1
    outer loop
      vertex -2.5 15 115
      vertex -11.4602 15 115
      vertex -4 10 115
    endloop
  endfacet
  facet normal 0 0 1
    outer loop
      vertex 11.4602 15 115
      vertex 2.5 15 115
      vertex 4 10 115
    endloop
  endfacet
  facet normal -0 0 1
    outer loop
      vertex 4 10 115
      vertex 3.53341 7.07319 115
      vertex 11.4602 15 115
    endloop
  endfacet
  facet normal 0 0 1
    outer loop
      vertex 3.53341 7.07319 115
      vertex 1.5744 4.72706 115
      vertex 3.33896 3.70829 115
    endloop
  endfacet
  facet normal 0 0 1
    outer loop
      vertex -3.53341 7.07319 115
      vertex 3.53341 7.07319 115
      vertex 4 10 115
    endloop
  endfacet
  facet normal 0 0 1
    outer loop
      vertex 3.53341 7.07319 115
      vertex 1.542 4.74577 115
      vertex 1.5744 4.72706 115
    endloop
  endfacet
  facet normal 0 0 1
    outer loop
      vertex 3.53341 7.07319 115
      vertex 1.50478 4.74968 115
      vertex 1.542 4.74577 115
    endloop
  endfacet
  facet normal 0 0 1
    outer loop
      vertex 3.53341 7.07319 115
      vertex -0.521597 4.96266 115
      vertex 1.50478 4.74968 115
    endloop
  endfacet
  facet normal 0 0 1
    outer loop
      vertex 3.53341 7.07319 115
      vertex -3.53341 7.07319 115
      vertex -0.521597 4.96266 115
    endloop
  endfacet
  facet normal 0 0 1
    outer loop
      vertex -0.521597 4.96266 115
      vertex -3.53341 7.07319 115
      vertex -2.45941 4.33303 115
    endloop
  endfacet
  facet normal 0 0 1
    outer loop
      vertex -2.45941 4.33303 115
      vertex -3.53341 7.07319 115
      vertex -2.495 4.32147 115
    endloop
  endfacet
  facet normal -0 0 1
    outer loop
      vertex -4 10 115
      vertex -3.53341 7.07319 115
      vertex 4 10 115
    endloop
  endfacet
  facet normal 0 0 1
    outer loop
      vertex -3.53341 7.07319 115
      vertex -4 10 115
      vertex -11.4602 15 115
    endloop
  endfacet
  facet normal -0 0 1
    outer loop
      vertex 4.56637 -1.99301 115
      vertex 7.07319 -3.53341 115
      vertex 4.99 0 115
    endloop
  endfacet
  facet normal -0 0 1
    outer loop
      vertex 4.55859 -2.02962 115
      vertex 7.07319 -3.53341 115
      vertex 4.56637 -1.99301 115
    endloop
  endfacet
  facet normal -0 0 1
    outer loop
      vertex 4.5366 -2.05989 115
      vertex 7.07319 -3.53341 115
      vertex 4.55859 -2.02962 115
    endloop
  endfacet
  facet normal 0 0 1
    outer loop
      vertex 3.33896 -3.70829 115
      vertex 7.07319 -3.53341 115
      vertex 4.5366 -2.05989 115
    endloop
  endfacet
  facet normal 0 0 1
    outer loop
      vertex 7.07319 -3.53341 115
      vertex 3.33896 -3.70829 115
      vertex 3.53341 -7.07319 115
    endloop
  endfacet
  facet normal 0 0 1
    outer loop
      vertex 15 11.4602 115
      vertex 10 4 115
      vertex 15 2.5 115
    endloop
  endfacet
  facet normal 0 0 1
    outer loop
      vertex 10 4 115
      vertex 7.07319 3.53341 115
      vertex 10 -4 115
    endloop
  endfacet
  facet normal 0 0 1
    outer loop
      vertex 7.07319 3.53341 115
      vertex 10 4 115
      vertex 15 11.4602 115
    endloop
  endfacet
  facet normal -0 0 1
    outer loop
      vertex 10 -4 115
      vertex 15 -11.4602 115
      vertex 15 -2.5 115
    endloop
  endfacet
  facet normal 0 0 1
    outer loop
      vertex 10 -4 115
      vertex 7.07319 -3.53341 115
      vertex 15 -11.4602 115
    endloop
  endfacet
  facet normal 0 0 1
    outer loop
      vertex 7.07319 3.53341 115
      vertex 7.07319 -3.53341 115
      vertex 10 -4 115
    endloop
  endfacet
  facet normal 0 0 1
    outer loop
      vertex 7.07319 3.53341 115
      vertex 4.99 0 115
      vertex 7.07319 -3.53341 115
    endloop
  endfacet
  facet normal 0 0 1
    outer loop
      vertex 7.07319 3.53341 115
      vertex 4.56637 1.99301 115
      vertex 4.99 0 115
    endloop
  endfacet
  facet normal 0 0 1
    outer loop
      vertex 7.07319 3.53341 115
      vertex 4.55859 2.02962 115
      vertex 4.56637 1.99301 115
    endloop
  endfacet
  facet normal 0 0 1
    outer loop
      vertex 7.07319 3.53341 115
      vertex 4.5366 2.05989 115
      vertex 4.55859 2.02962 115
    endloop
  endfacet
  facet normal -0 0 1
    outer loop
      vertex 3.33896 3.70829 115
      vertex 7.07319 3.53341 115
      vertex 3.53341 7.07319 115
    endloop
  endfacet
  facet normal 0 0 1
    outer loop
      vertex 7.07319 3.53341 115
      vertex 3.33896 3.70829 115
      vertex 4.5366 2.05989 115
    endloop
  endfacet
  facet normal 0 0 1
    outer loop
      vertex 3.53341 -7.07319 115
      vertex 4 -10 115
      vertex 11.4602 -15 115
    endloop
  endfacet
  facet normal -0 0 1
    outer loop
      vertex 1.5744 -4.72706 115
      vertex 3.53341 -7.07319 115
      vertex 3.33896 -3.70829 115
    endloop
  endfacet
  facet normal -0 0 1
    outer loop
      vertex 1.542 -4.74577 115
      vertex 3.53341 -7.07319 115
      vertex 1.5744 -4.72706 115
    endloop
  endfacet
  facet normal -0 0 1
    outer loop
      vertex 1.50478 -4.74968 115
      vertex 3.53341 -7.07319 115
      vertex 1.542 -4.74577 115
    endloop
  endfacet
  facet normal -0 0 1
    outer loop
      vertex -0.521597 -4.96266 115
      vertex 3.53341 -7.07319 115
      vertex 1.50478 -4.74968 115
    endloop
  endfacet
  facet normal 0 0 1
    outer loop
      vertex -3.53341 -7.07319 115
      vertex 3.53341 -7.07319 115
      vertex -0.521597 -4.96266 115
    endloop
  endfacet
  facet normal 0 0 1
    outer loop
      vertex -3.53341 -7.07319 115
      vertex -0.521597 -4.96266 115
      vertex -2.45941 -4.33303 115
    endloop
  endfacet
  facet normal 0 0 1
    outer loop
      vertex -3.53341 -7.07319 115
      vertex -2.45941 -4.33303 115
      vertex -2.495 -4.32147 115
    endloop
  endfacet
  facet normal 0 0 1
    outer loop
      vertex 3.53341 -7.07319 115
      vertex -3.53341 -7.07319 115
      vertex 4 -10 115
    endloop
  endfacet
  facet normal 0 0 1
    outer loop
      vertex -3.53341 -7.07319 115
      vertex -4 -10 115
      vertex 4 -10 115
    endloop
  endfacet
  facet normal 0 -0 1
    outer loop
      vertex -4 -10 115
      vertex -3.53341 -7.07319 115
      vertex -11.4602 -15 115
    endloop
  endfacet
  facet normal 0 0 1
    outer loop
      vertex 11.4602 -15 115
      vertex 4 -10 115
      vertex 2.5 -15 115
    endloop
  endfacet
  facet normal 0 0 1
    outer loop
      vertex -4.00919 -2.95809 115
      vertex -3.53341 -7.07319 115
      vertex -2.495 -4.32147 115
    endloop
  endfacet
  facet normal 0 0 1
    outer loop
      vertex -7.07319 -3.53341 115
      vertex -4.00919 -2.95809 115
      vertex -4.037 -2.93305 115
    endloop
  endfacet
  facet normal 0 0 1
    outer loop
      vertex -7.07319 -3.53341 115
      vertex -4.037 -2.93305 115
      vertex -4.05222 -2.89886 115
    endloop
  endfacet
  facet normal 0 0 1
    outer loop
      vertex -7.07319 -3.53341 115
      vertex -4.05222 -2.89886 115
      vertex -4.88096 -1.03748 115
    endloop
  endfacet
  facet normal 0 0 1
    outer loop
      vertex -7.07319 -3.53341 115
      vertex -4.88096 -1.03748 115
      vertex -7.07319 3.53341 115
    endloop
  endfacet
  facet normal 0 0 1
    outer loop
      vertex -4.00919 -2.95809 115
      vertex -7.07319 -3.53341 115
      vertex -3.53341 -7.07319 115
    endloop
  endfacet
  facet normal 0 0 1
    outer loop
      vertex -7.07319 3.53341 115
      vertex -10 4 115
      vertex -7.07319 -3.53341 115
    endloop
  endfacet
  facet normal 0 0 1
    outer loop
      vertex -15 11.4602 115
      vertex -10 4 115
      vertex -7.07319 3.53341 115
    endloop
  endfacet
  facet normal 0 0 1
    outer loop
      vertex -10 4 115
      vertex -15 11.4602 115
      vertex -15 2.5 115
    endloop
  endfacet
  facet normal 0 0 1
    outer loop
      vertex -3.53341 7.07319 115
      vertex -4.00919 2.95809 115
      vertex -2.495 4.32147 115
    endloop
  endfacet
  facet normal -0 0 1
    outer loop
      vertex -7.07319 3.53341 115
      vertex -4.00919 2.95809 115
      vertex -3.53341 7.07319 115
    endloop
  endfacet
  facet normal 0 0 1
    outer loop
      vertex -4.00919 2.95809 115
      vertex -7.07319 3.53341 115
      vertex -4.037 2.93305 115
    endloop
  endfacet
  facet normal 0 0 1
    outer loop
      vertex -4.037 2.93305 115
      vertex -7.07319 3.53341 115
      vertex -4.05222 2.89886 115
    endloop
  endfacet
  facet normal 0 0 1
    outer loop
      vertex -4.88096 1.03748 115
      vertex -7.07319 3.53341 115
      vertex -4.88096 -1.03748 115
    endloop
  endfacet
  facet normal 0 0 1
    outer loop
      vertex -4.05222 2.89886 115
      vertex -7.07319 3.53341 115
      vertex -4.88096 1.03748 115
    endloop
  endfacet
  facet normal 0 0 1
    outer loop
      vertex -2.5 -15 115
      vertex -4 -10 115
      vertex -11.4602 -15 115
    endloop
  endfacet
  facet normal 0 0 1
    outer loop
      vertex -10 -4 115
      vertex -7.07319 -3.53341 115
      vertex -10 4 115
    endloop
  endfacet
  facet normal -0 0 1
    outer loop
      vertex -10 -4 115
      vertex -15 -11.4602 115
      vertex -7.07319 -3.53341 115
    endloop
  endfacet
  facet normal 0 0 1
    outer loop
      vertex -15 -11.4602 115
      vertex -10 -4 115
      vertex -15 -2.5 115
    endloop
  endfacet
  facet normal 0.951067 0.308986 0
    outer loop
      vertex -12 -15 -110.01
      vertex -12.5729 -13.2366 -115
      vertex -12.5729 -13.2366 -110.01
    endloop
  endfacet
  facet normal 0.951067 0.308986 0
    outer loop
      vertex -12.5729 -13.2366 -115
      vertex -12 -15 -110.01
      vertex -12 -15 -115
    endloop
  endfacet
  facet normal -0.951067 0.308986 0
    outer loop
      vertex -18 -15 -115
      vertex -17.4271 -13.2366 -110
      vertex -17.4271 -13.2366 -115
    endloop
  endfacet
  facet normal -0.951067 0.308986 0
    outer loop
      vertex -17.4271 -13.2366 -110
      vertex -18 -15 -115
      vertex -18 -15 -110
    endloop
  endfacet
  facet normal 0 1 0
    outer loop
      vertex -14.0729 -12.1468 -110.01
      vertex -14.0729 -12.1468 -115
      vertex -15 -12.1468 -110.01
    endloop
  endfacet
  facet normal 0 1 -0
    outer loop
      vertex -15 -12.1468 -110.01
      vertex -15.9271 -12.1468 -110
      vertex -15 -12.1468 -110
    endloop
  endfacet
  facet normal 0 1 0
    outer loop
      vertex -15.9271 -12.1468 -115
      vertex -15 -12.1468 -110.01
      vertex -14.0729 -12.1468 -115
    endloop
  endfacet
  facet normal 0 1 0
    outer loop
      vertex -15 -12.1468 -110.01
      vertex -15.9271 -12.1468 -115
      vertex -15.9271 -12.1468 -110
    endloop
  endfacet
  facet normal 0.58778 0.809021 -0
    outer loop
      vertex -12.5729 -13.2366 -115
      vertex -14.0729 -12.1468 -110.01
      vertex -12.5729 -13.2366 -110.01
    endloop
  endfacet
  facet normal 0.58778 0.809021 0
    outer loop
      vertex -14.0729 -12.1468 -110.01
      vertex -12.5729 -13.2366 -115
      vertex -14.0729 -12.1468 -115
    endloop
  endfacet
  facet normal 0 0 1
    outer loop
      vertex -15 -12.1468 -110
      vertex -15.9271 -12.1468 -110
      vertex -15 -15 -110
    endloop
  endfacet
  facet normal -0 0 1
    outer loop
      vertex -15 -15 -110
      vertex -12.5729 -16.7634 -110
      vertex -12 -15 -110
    endloop
  endfacet
  facet normal 0 0 1
    outer loop
      vertex -12.5729 -16.7634 -110
      vertex -15 -15 -110
      vertex -14.0729 -17.8532 -110
    endloop
  endfacet
  facet normal 0 0 1
    outer loop
      vertex -15 -15 -110
      vertex -15.9271 -17.8532 -110
      vertex -14.0729 -17.8532 -110
    endloop
  endfacet
  facet normal -0 0 1
    outer loop
      vertex -17.4271 -13.2366 -110
      vertex -15 -15 -110
      vertex -15.9271 -12.1468 -110
    endloop
  endfacet
  facet normal 0 0 1
    outer loop
      vertex -18 -15 -110
      vertex -15 -15 -110
      vertex -17.4271 -13.2366 -110
    endloop
  endfacet
  facet normal 0 0 1
    outer loop
      vertex -15 -15 -110
      vertex -17.4271 -16.7634 -110
      vertex -15.9271 -17.8532 -110
    endloop
  endfacet
  facet normal 0 0 1
    outer loop
      vertex -15 -15 -110
      vertex -18 -15 -110
      vertex -17.4271 -16.7634 -110
    endloop
  endfacet
  facet normal -0.58778 0.809021 0
    outer loop
      vertex -15.9271 -12.1468 -115
      vertex -17.4271 -13.2366 -110
      vertex -15.9271 -12.1468 -110
    endloop
  endfacet
  facet normal -0.58778 0.809021 0
    outer loop
      vertex -17.4271 -13.2366 -110
      vertex -15.9271 -12.1468 -115
      vertex -17.4271 -13.2366 -115
    endloop
  endfacet
  facet normal 0.951067 -0.308986 0
    outer loop
      vertex -12.5729 -16.7634 -110
      vertex -12 -15 -110.01
      vertex -12 -15 -110
    endloop
  endfacet
  facet normal 0.951067 -0.308986 0
    outer loop
      vertex -12 -15 -110.01
      vertex -12.5729 -16.7634 -110
      vertex -12 -15 -115
    endloop
  endfacet
  facet normal 0.951067 -0.308986 0
    outer loop
      vertex -12 -15 -115
      vertex -12.5729 -16.7634 -110
      vertex -12.5729 -16.7634 -115
    endloop
  endfacet
  facet normal 0.58778 -0.809021 0
    outer loop
      vertex -14.0729 -17.8532 -115
      vertex -12.5729 -16.7634 -110
      vertex -14.0729 -17.8532 -110
    endloop
  endfacet
  facet normal 0.58778 -0.809021 0
    outer loop
      vertex -12.5729 -16.7634 -110
      vertex -14.0729 -17.8532 -115
      vertex -12.5729 -16.7634 -115
    endloop
  endfacet
  facet normal -0.951067 -0.308986 0
    outer loop
      vertex -17.4271 -16.7634 -115
      vertex -18 -15 -110
      vertex -18 -15 -115
    endloop
  endfacet
  facet normal -0.951067 -0.308986 0
    outer loop
      vertex -18 -15 -110
      vertex -17.4271 -16.7634 -115
      vertex -17.4271 -16.7634 -110
    endloop
  endfacet
  facet normal 0 -1 0
    outer loop
      vertex -15.9271 -17.8532 -115
      vertex -14.0729 -17.8532 -110
      vertex -15.9271 -17.8532 -110
    endloop
  endfacet
  facet normal 0 -1 -0
    outer loop
      vertex -14.0729 -17.8532 -110
      vertex -15.9271 -17.8532 -115
      vertex -14.0729 -17.8532 -115
    endloop
  endfacet
  facet normal 0 0 -1
    outer loop
      vertex -12.5729 -16.7634 -115
      vertex -12.5729 -13.2366 -115
      vertex -12 -15 -115
    endloop
  endfacet
  facet normal 0 0 -1
    outer loop
      vertex -14.0729 -17.8532 -115
      vertex -12.5729 -13.2366 -115
      vertex -12.5729 -16.7634 -115
    endloop
  endfacet
  facet normal 0 0 -1
    outer loop
      vertex -14.0729 -17.8532 -115
      vertex -14.0729 -12.1468 -115
      vertex -12.5729 -13.2366 -115
    endloop
  endfacet
  facet normal 0 0 -1
    outer loop
      vertex -15.9271 -17.8532 -115
      vertex -14.0729 -12.1468 -115
      vertex -14.0729 -17.8532 -115
    endloop
  endfacet
  facet normal 0 0 -1
    outer loop
      vertex -15.9271 -17.8532 -115
      vertex -15.9271 -12.1468 -115
      vertex -14.0729 -12.1468 -115
    endloop
  endfacet
  facet normal 0 0 -1
    outer loop
      vertex -17.4271 -16.7634 -115
      vertex -15.9271 -12.1468 -115
      vertex -15.9271 -17.8532 -115
    endloop
  endfacet
  facet normal 0 0 -1
    outer loop
      vertex -17.4271 -16.7634 -115
      vertex -17.4271 -13.2366 -115
      vertex -15.9271 -12.1468 -115
    endloop
  endfacet
  facet normal 0 -0 -1
    outer loop
      vertex -17.4271 -13.2366 -115
      vertex -17.4271 -16.7634 -115
      vertex -18 -15 -115
    endloop
  endfacet
  facet normal -0.58778 -0.809021 0
    outer loop
      vertex -17.4271 -16.7634 -115
      vertex -15.9271 -17.8532 -110
      vertex -17.4271 -16.7634 -110
    endloop
  endfacet
  facet normal -0.58778 -0.809021 -0
    outer loop
      vertex -15.9271 -17.8532 -110
      vertex -17.4271 -16.7634 -115
      vertex -15.9271 -17.8532 -115
    endloop
  endfacet
  facet normal -0.308986 0.951067 0
    outer loop
      vertex 15 -12 -115
      vertex 13.2366 -12.5729 -110.01
      vertex 15 -12 -110.01
    endloop
  endfacet
  facet normal -0.308986 0.951067 0
    outer loop
      vertex 13.2366 -12.5729 -110.01
      vertex 15 -12 -115
      vertex 13.2366 -12.5729 -115
    endloop
  endfacet
  facet normal -1 0 0
    outer loop
      vertex 12.1468 -14.0729 -115
      vertex 12.1468 -15 -110.01
      vertex 12.1468 -14.0729 -110.01
    endloop
  endfacet
  facet normal -1 0 0
    outer loop
      vertex 12.1468 -15.9271 -115
      vertex 12.1468 -15 -110.01
      vertex 12.1468 -14.0729 -115
    endloop
  endfacet
  facet normal -1 0 0
    outer loop
      vertex 12.1468 -15.9271 -110
      vertex 12.1468 -15 -110.01
      vertex 12.1468 -15.9271 -115
    endloop
  endfacet
  facet normal -1 0 0
    outer loop
      vertex 12.1468 -15 -110.01
      vertex 12.1468 -15.9271 -110
      vertex 12.1468 -15 -110
    endloop
  endfacet
  facet normal -0.809021 0.58778 0
    outer loop
      vertex 12.1468 -14.0729 -115
      vertex 13.2366 -12.5729 -110.01
      vertex 13.2366 -12.5729 -115
    endloop
  endfacet
  facet normal -0.809021 0.58778 0
    outer loop
      vertex 13.2366 -12.5729 -110.01
      vertex 12.1468 -14.0729 -115
      vertex 12.1468 -14.0729 -110.01
    endloop
  endfacet
  facet normal -0.809021 -0.58778 0
    outer loop
      vertex 13.2366 -17.4271 -115
      vertex 12.1468 -15.9271 -110
      vertex 12.1468 -15.9271 -115
    endloop
  endfacet
  facet normal -0.809021 -0.58778 0
    outer loop
      vertex 12.1468 -15.9271 -110
      vertex 13.2366 -17.4271 -115
      vertex 13.2366 -17.4271 -110
    endloop
  endfacet
  facet normal 0 0 -1
    outer loop
      vertex 16.7634 -17.4271 -115
      vertex 17.8532 -14.0729 -115
      vertex 17.8532 -15.9271 -115
    endloop
  endfacet
  facet normal 0 0 -1
    outer loop
      vertex 16.7634 -17.4271 -115
      vertex 16.7634 -12.5729 -115
      vertex 17.8532 -14.0729 -115
    endloop
  endfacet
  facet normal 0 0 -1
    outer loop
      vertex 15 -18 -115
      vertex 16.7634 -12.5729 -115
      vertex 16.7634 -17.4271 -115
    endloop
  endfacet
  facet normal 0 0 -1
    outer loop
      vertex 15 -18 -115
      vertex 15 -12 -115
      vertex 16.7634 -12.5729 -115
    endloop
  endfacet
  facet normal 0 0 -1
    outer loop
      vertex 13.2366 -17.4271 -115
      vertex 15 -12 -115
      vertex 15 -18 -115
    endloop
  endfacet
  facet normal 0 0 -1
    outer loop
      vertex 13.2366 -17.4271 -115
      vertex 13.2366 -12.5729 -115
      vertex 15 -12 -115
    endloop
  endfacet
  facet normal 0 0 -1
    outer loop
      vertex 12.1468 -15.9271 -115
      vertex 13.2366 -12.5729 -115
      vertex 13.2366 -17.4271 -115
    endloop
  endfacet
  facet normal 0 0 -1
    outer loop
      vertex 13.2366 -12.5729 -115
      vertex 12.1468 -15.9271 -115
      vertex 12.1468 -14.0729 -115
    endloop
  endfacet
  facet normal 0 0 1
    outer loop
      vertex 15 -15 -110
      vertex 17.8532 -14.0729 -110
      vertex 16.7634 -12.5729 -110
    endloop
  endfacet
  facet normal 0 0 1
    outer loop
      vertex 17.8532 -14.0729 -110
      vertex 15 -15 -110
      vertex 17.8532 -15.9271 -110
    endloop
  endfacet
  facet normal 0 0 1
    outer loop
      vertex 15 -15 -110
      vertex 16.7634 -12.5729 -110
      vertex 15 -12 -110
    endloop
  endfacet
  facet normal 0 0 1
    outer loop
      vertex 17.8532 -15.9271 -110
      vertex 15 -15 -110
      vertex 16.7634 -17.4271 -110
    endloop
  endfacet
  facet normal 0 0 1
    outer loop
      vertex 15 -15 -110
      vertex 15 -18 -110
      vertex 16.7634 -17.4271 -110
    endloop
  endfacet
  facet normal 0 0 1
    outer loop
      vertex 15 -15 -110
      vertex 13.2366 -17.4271 -110
      vertex 15 -18 -110
    endloop
  endfacet
  facet normal 0 0 1
    outer loop
      vertex 12.1468 -15.9271 -110
      vertex 15 -15 -110
      vertex 12.1468 -15 -110
    endloop
  endfacet
  facet normal 0 0 1
    outer loop
      vertex 15 -15 -110
      vertex 12.1468 -15.9271 -110
      vertex 13.2366 -17.4271 -110
    endloop
  endfacet
  facet normal -0.308986 -0.951067 0
    outer loop
      vertex 13.2366 -17.4271 -115
      vertex 15 -18 -110
      vertex 13.2366 -17.4271 -110
    endloop
  endfacet
  facet normal -0.308986 -0.951067 -0
    outer loop
      vertex 15 -18 -110
      vertex 13.2366 -17.4271 -115
      vertex 15 -18 -115
    endloop
  endfacet
  facet normal 0.308986 0.951067 0
    outer loop
      vertex 16.7634 -12.5729 -110
      vertex 15 -12 -110.01
      vertex 15 -12 -110
    endloop
  endfacet
  facet normal 0.308986 0.951067 -0
    outer loop
      vertex 16.7634 -12.5729 -115
      vertex 15 -12 -110.01
      vertex 16.7634 -12.5729 -110
    endloop
  endfacet
  facet normal 0.308986 0.951067 0
    outer loop
      vertex 15 -12 -110.01
      vertex 16.7634 -12.5729 -115
      vertex 15 -12 -115
    endloop
  endfacet
  facet normal 0.809021 0.58778 0
    outer loop
      vertex 17.8532 -14.0729 -110
      vertex 16.7634 -12.5729 -115
      vertex 16.7634 -12.5729 -110
    endloop
  endfacet
  facet normal 0.809021 0.58778 0
    outer loop
      vertex 16.7634 -12.5729 -115
      vertex 17.8532 -14.0729 -110
      vertex 17.8532 -14.0729 -115
    endloop
  endfacet
  facet normal 0.308986 -0.951067 0
    outer loop
      vertex 15 -18 -115
      vertex 16.7634 -17.4271 -110
      vertex 15 -18 -110
    endloop
  endfacet
  facet normal 0.308986 -0.951067 0
    outer loop
      vertex 16.7634 -17.4271 -110
      vertex 15 -18 -115
      vertex 16.7634 -17.4271 -115
    endloop
  endfacet
  facet normal 1 -0 0
    outer loop
      vertex 17.8532 -15.9271 -110
      vertex 17.8532 -14.0729 -115
      vertex 17.8532 -14.0729 -110
    endloop
  endfacet
  facet normal 1 0 0
    outer loop
      vertex 17.8532 -14.0729 -115
      vertex 17.8532 -15.9271 -110
      vertex 17.8532 -15.9271 -115
    endloop
  endfacet
  facet normal 0.809021 -0.58778 0
    outer loop
      vertex 16.7634 -17.4271 -110
      vertex 17.8532 -15.9271 -115
      vertex 17.8532 -15.9271 -110
    endloop
  endfacet
  facet normal 0.809021 -0.58778 0
    outer loop
      vertex 17.8532 -15.9271 -115
      vertex 16.7634 -17.4271 -110
      vertex 16.7634 -17.4271 -115
    endloop
  endfacet
  facet normal -0.951067 -0.308986 0
    outer loop
      vertex 12.5729 13.2366 -115
      vertex 12 15 -110.01
      vertex 12 15 -115
    endloop
  endfacet
  facet normal -0.951067 -0.308986 0
    outer loop
      vertex 12 15 -110.01
      vertex 12.5729 13.2366 -115
      vertex 12.5729 13.2366 -110.01
    endloop
  endfacet
  facet normal -0.58778 -0.809021 0
    outer loop
      vertex 12.5729 13.2366 -115
      vertex 14.0729 12.1468 -110.01
      vertex 12.5729 13.2366 -110.01
    endloop
  endfacet
  facet normal -0.58778 -0.809021 -0
    outer loop
      vertex 14.0729 12.1468 -110.01
      vertex 12.5729 13.2366 -115
      vertex 14.0729 12.1468 -115
    endloop
  endfacet
  facet normal 0.58778 -0.809021 0
    outer loop
      vertex 15.9271 12.1468 -115
      vertex 17.4271 13.2366 -110
      vertex 15.9271 12.1468 -110
    endloop
  endfacet
  facet normal 0.58778 -0.809021 0
    outer loop
      vertex 17.4271 13.2366 -110
      vertex 15.9271 12.1468 -115
      vertex 17.4271 13.2366 -115
    endloop
  endfacet
  facet normal 0 0 1
    outer loop
      vertex 15 15 -110
      vertex 18 15 -110
      vertex 17.4271 16.7634 -110
    endloop
  endfacet
  facet normal 0 0 1
    outer loop
      vertex 15 15 -110
      vertex 17.4271 16.7634 -110
      vertex 15.9271 17.8532 -110
    endloop
  endfacet
  facet normal 0 0 1
    outer loop
      vertex 18 15 -110
      vertex 15 15 -110
      vertex 17.4271 13.2366 -110
    endloop
  endfacet
  facet normal 0 0 1
    outer loop
      vertex 17.4271 13.2366 -110
      vertex 15 15 -110
      vertex 15.9271 12.1468 -110
    endloop
  endfacet
  facet normal -0 0 1
    outer loop
      vertex 14.0729 17.8532 -110
      vertex 15 15 -110
      vertex 15.9271 17.8532 -110
    endloop
  endfacet
  facet normal -0 0 1
    outer loop
      vertex 12.5729 16.7634 -110
      vertex 15 15 -110
      vertex 14.0729 17.8532 -110
    endloop
  endfacet
  facet normal 0 0 1
    outer loop
      vertex 15 15 -110
      vertex 12.5729 16.7634 -110
      vertex 12 15 -110
    endloop
  endfacet
  facet normal 0 0 1
    outer loop
      vertex 15.9271 12.1468 -110
      vertex 15 15 -110
      vertex 15 12.1468 -110
    endloop
  endfacet
  facet normal 0.951067 0.308986 0
    outer loop
      vertex 18 15 -110
      vertex 17.4271 16.7634 -115
      vertex 17.4271 16.7634 -110
    endloop
  endfacet
  facet normal 0.951067 0.308986 0
    outer loop
      vertex 17.4271 16.7634 -115
      vertex 18 15 -110
      vertex 18 15 -115
    endloop
  endfacet
  facet normal 0 -1 0
    outer loop
      vertex 14.0729 12.1468 -110.01
      vertex 14.0729 12.1468 -115
      vertex 15 12.1468 -110.01
    endloop
  endfacet
  facet normal 0 -1 0
    outer loop
      vertex 15 12.1468 -110.01
      vertex 15.9271 12.1468 -110
      vertex 15 12.1468 -110
    endloop
  endfacet
  facet normal 0 -1 0
    outer loop
      vertex 15.9271 12.1468 -115
      vertex 15 12.1468 -110.01
      vertex 14.0729 12.1468 -115
    endloop
  endfacet
  facet normal 0 -1 0
    outer loop
      vertex 15 12.1468 -110.01
      vertex 15.9271 12.1468 -115
      vertex 15.9271 12.1468 -110
    endloop
  endfacet
  facet normal 0.951067 -0.308986 0
    outer loop
      vertex 17.4271 13.2366 -110
      vertex 18 15 -115
      vertex 18 15 -110
    endloop
  endfacet
  facet normal 0.951067 -0.308986 0
    outer loop
      vertex 18 15 -115
      vertex 17.4271 13.2366 -110
      vertex 17.4271 13.2366 -115
    endloop
  endfacet
  facet normal -0.951067 0.308986 0
    outer loop
      vertex 12 15 -115
      vertex 12.5729 16.7634 -110
      vertex 12.5729 16.7634 -115
    endloop
  endfacet
  facet normal -0.951067 0.308986 0
    outer loop
      vertex 12 15 -110.01
      vertex 12.5729 16.7634 -110
      vertex 12 15 -115
    endloop
  endfacet
  facet normal -0.951067 0.308986 0
    outer loop
      vertex 12.5729 16.7634 -110
      vertex 12 15 -110.01
      vertex 12 15 -110
    endloop
  endfacet
  facet normal 0 0 -1
    outer loop
      vertex 17.4271 13.2366 -115
      vertex 17.4271 16.7634 -115
      vertex 18 15 -115
    endloop
  endfacet
  facet normal 0 0 -1
    outer loop
      vertex 15.9271 12.1468 -115
      vertex 17.4271 16.7634 -115
      vertex 17.4271 13.2366 -115
    endloop
  endfacet
  facet normal 0 0 -1
    outer loop
      vertex 15.9271 12.1468 -115
      vertex 15.9271 17.8532 -115
      vertex 17.4271 16.7634 -115
    endloop
  endfacet
  facet normal 0 0 -1
    outer loop
      vertex 14.0729 12.1468 -115
      vertex 15.9271 17.8532 -115
      vertex 15.9271 12.1468 -115
    endloop
  endfacet
  facet normal 0 0 -1
    outer loop
      vertex 14.0729 12.1468 -115
      vertex 14.0729 17.8532 -115
      vertex 15.9271 17.8532 -115
    endloop
  endfacet
  facet normal 0 0 -1
    outer loop
      vertex 12.5729 13.2366 -115
      vertex 14.0729 17.8532 -115
      vertex 14.0729 12.1468 -115
    endloop
  endfacet
  facet normal 0 0 -1
    outer loop
      vertex 12.5729 13.2366 -115
      vertex 12.5729 16.7634 -115
      vertex 14.0729 17.8532 -115
    endloop
  endfacet
  facet normal 0 -0 -1
    outer loop
      vertex 12.5729 16.7634 -115
      vertex 12.5729 13.2366 -115
      vertex 12 15 -115
    endloop
  endfacet
  facet normal -0.58778 0.809021 0
    outer loop
      vertex 14.0729 17.8532 -115
      vertex 12.5729 16.7634 -110
      vertex 14.0729 17.8532 -110
    endloop
  endfacet
  facet normal -0.58778 0.809021 0
    outer loop
      vertex 12.5729 16.7634 -110
      vertex 14.0729 17.8532 -115
      vertex 12.5729 16.7634 -115
    endloop
  endfacet
  facet normal 0 1 -0
    outer loop
      vertex 15.9271 17.8532 -115
      vertex 14.0729 17.8532 -110
      vertex 15.9271 17.8532 -110
    endloop
  endfacet
  facet normal 0 1 0
    outer loop
      vertex 14.0729 17.8532 -110
      vertex 15.9271 17.8532 -115
      vertex 14.0729 17.8532 -115
    endloop
  endfacet
  facet normal 0.58778 0.809021 -0
    outer loop
      vertex 17.4271 16.7634 -115
      vertex 15.9271 17.8532 -110
      vertex 17.4271 16.7634 -110
    endloop
  endfacet
  facet normal 0.58778 0.809021 0
    outer loop
      vertex 15.9271 17.8532 -110
      vertex 17.4271 16.7634 -115
      vertex 15.9271 17.8532 -115
    endloop
  endfacet
  facet normal 0.308986 -0.951067 0
    outer loop
      vertex -15 12 -115
      vertex -13.2366 12.5729 -110.01
      vertex -15 12 -110.01
    endloop
  endfacet
  facet normal 0.308986 -0.951067 0
    outer loop
      vertex -13.2366 12.5729 -110.01
      vertex -15 12 -115
      vertex -13.2366 12.5729 -115
    endloop
  endfacet
  facet normal 0.308986 0.951067 -0
    outer loop
      vertex -13.2366 17.4271 -115
      vertex -15 18 -110
      vertex -13.2366 17.4271 -110
    endloop
  endfacet
  facet normal 0.308986 0.951067 0
    outer loop
      vertex -15 18 -110
      vertex -13.2366 17.4271 -115
      vertex -15 18 -115
    endloop
  endfacet
  facet normal 0.809021 -0.58778 0
    outer loop
      vertex -13.2366 12.5729 -110.01
      vertex -12.1468 14.0729 -115
      vertex -12.1468 14.0729 -110.01
    endloop
  endfacet
  facet normal 0.809021 -0.58778 0
    outer loop
      vertex -12.1468 14.0729 -115
      vertex -13.2366 12.5729 -110.01
      vertex -13.2366 12.5729 -115
    endloop
  endfacet
  facet normal 0.809021 0.58778 0
    outer loop
      vertex -12.1468 15.9271 -110
      vertex -13.2366 17.4271 -115
      vertex -13.2366 17.4271 -110
    endloop
  endfacet
  facet normal 0.809021 0.58778 0
    outer loop
      vertex -13.2366 17.4271 -115
      vertex -12.1468 15.9271 -110
      vertex -12.1468 15.9271 -115
    endloop
  endfacet
  facet normal 0 0 -1
    outer loop
      vertex -13.2366 12.5729 -115
      vertex -12.1468 15.9271 -115
      vertex -12.1468 14.0729 -115
    endloop
  endfacet
  facet normal 0 0 -1
    outer loop
      vertex -13.2366 12.5729 -115
      vertex -13.2366 17.4271 -115
      vertex -12.1468 15.9271 -115
    endloop
  endfacet
  facet normal 0 0 -1
    outer loop
      vertex -15 12 -115
      vertex -13.2366 17.4271 -115
      vertex -13.2366 12.5729 -115
    endloop
  endfacet
  facet normal 0 0 -1
    outer loop
      vertex -15 12 -115
      vertex -15 18 -115
      vertex -13.2366 17.4271 -115
    endloop
  endfacet
  facet normal 0 0 -1
    outer loop
      vertex -16.7634 12.5729 -115
      vertex -15 18 -115
      vertex -15 12 -115
    endloop
  endfacet
  facet normal 0 0 -1
    outer loop
      vertex -16.7634 12.5729 -115
      vertex -16.7634 17.4271 -115
      vertex -15 18 -115
    endloop
  endfacet
  facet normal 0 0 -1
    outer loop
      vertex -17.8532 14.0729 -115
      vertex -16.7634 17.4271 -115
      vertex -16.7634 12.5729 -115
    endloop
  endfacet
  facet normal 0 0 -1
    outer loop
      vertex -16.7634 17.4271 -115
      vertex -17.8532 14.0729 -115
      vertex -17.8532 15.9271 -115
    endloop
  endfacet
  facet normal -0.308986 0.951067 0
    outer loop
      vertex -15 18 -115
      vertex -16.7634 17.4271 -110
      vertex -15 18 -110
    endloop
  endfacet
  facet normal -0.308986 0.951067 0
    outer loop
      vertex -16.7634 17.4271 -110
      vertex -15 18 -115
      vertex -16.7634 17.4271 -115
    endloop
  endfacet
  facet normal 0 0 1
    outer loop
      vertex -15 15 -110
      vertex -12.1468 15.9271 -110
      vertex -13.2366 17.4271 -110
    endloop
  endfacet
  facet normal 0 0 1
    outer loop
      vertex -15 15 -110
      vertex -13.2366 17.4271 -110
      vertex -15 18 -110
    endloop
  endfacet
  facet normal 0 0 1
    outer loop
      vertex -12.1468 15.9271 -110
      vertex -15 15 -110
      vertex -12.1468 15 -110
    endloop
  endfacet
  facet normal -0 0 1
    outer loop
      vertex -16.7634 17.4271 -110
      vertex -15 15 -110
      vertex -15 18 -110
    endloop
  endfacet
  facet normal -0 0 1
    outer loop
      vertex -17.8532 15.9271 -110
      vertex -15 15 -110
      vertex -16.7634 17.4271 -110
    endloop
  endfacet
  facet normal 0 0 1
    outer loop
      vertex -15 15 -110
      vertex -16.7634 12.5729 -110
      vertex -15 12 -110
    endloop
  endfacet
  facet normal 0 0 1
    outer loop
      vertex -17.8532 14.0729 -110
      vertex -15 15 -110
      vertex -17.8532 15.9271 -110
    endloop
  endfacet
  facet normal 0 0 1
    outer loop
      vertex -15 15 -110
      vertex -17.8532 14.0729 -110
      vertex -16.7634 12.5729 -110
    endloop
  endfacet
  facet normal 1 0 0
    outer loop
      vertex -12.1468 15 -110.01
      vertex -12.1468 15.9271 -110
      vertex -12.1468 15 -110
    endloop
  endfacet
  facet normal 1 0 0
    outer loop
      vertex -12.1468 15.9271 -110
      vertex -12.1468 15 -110.01
      vertex -12.1468 15.9271 -115
    endloop
  endfacet
  facet normal 1 0 0
    outer loop
      vertex -12.1468 14.0729 -115
      vertex -12.1468 15 -110.01
      vertex -12.1468 14.0729 -110.01
    endloop
  endfacet
  facet normal 1 0 0
    outer loop
      vertex -12.1468 15 -110.01
      vertex -12.1468 14.0729 -115
      vertex -12.1468 15.9271 -115
    endloop
  endfacet
  facet normal -0.308986 -0.951067 0
    outer loop
      vertex -16.7634 12.5729 -110
      vertex -15 12 -110.01
      vertex -15 12 -110
    endloop
  endfacet
  facet normal -0.308986 -0.951067 0
    outer loop
      vertex -16.7634 12.5729 -115
      vertex -15 12 -110.01
      vertex -16.7634 12.5729 -110
    endloop
  endfacet
  facet normal -0.308986 -0.951067 -0
    outer loop
      vertex -15 12 -110.01
      vertex -16.7634 12.5729 -115
      vertex -15 12 -115
    endloop
  endfacet
  facet normal -1 0 0
    outer loop
      vertex -17.8532 14.0729 -115
      vertex -17.8532 15.9271 -110
      vertex -17.8532 15.9271 -115
    endloop
  endfacet
  facet normal -1 -0 0
    outer loop
      vertex -17.8532 15.9271 -110
      vertex -17.8532 14.0729 -115
      vertex -17.8532 14.0729 -110
    endloop
  endfacet
  facet normal -0.809021 -0.58778 0
    outer loop
      vertex -16.7634 12.5729 -115
      vertex -17.8532 14.0729 -110
      vertex -17.8532 14.0729 -115
    endloop
  endfacet
  facet normal -0.809021 -0.58778 0
    outer loop
      vertex -17.8532 14.0729 -110
      vertex -16.7634 12.5729 -115
      vertex -16.7634 12.5729 -110
    endloop
  endfacet
  facet normal -0.809021 0.58778 0
    outer loop
      vertex -17.8532 15.9271 -115
      vertex -16.7634 17.4271 -110
      vertex -16.7634 17.4271 -115
    endloop
  endfacet
  facet normal -0.809021 0.58778 0
    outer loop
      vertex -16.7634 17.4271 -110
      vertex -17.8532 15.9271 -115
      vertex -17.8532 15.9271 -110
    endloop
  endfacet
endsolid OpenSCAD_Model
