solid OpenSCAD_Model
  facet normal -0.97437 0.224952 0
    outer loop
      vertex -29.246 49.8925 0
      vertex -31.2818 41.0745 10
      vertex -29.246 49.8925 20
    endloop
  endfacet
  facet normal -0.974049 0.226332 0.00128215
    outer loop
      vertex -29.246 49.8925 0
      vertex -31.282 41.0737 9.98928
      vertex -31.2818 41.0745 10
    endloop
  endfacet
  facet normal -0.974402 0.224813 -0.000130684
    outer loop
      vertex -29.246 49.8925 0
      vertex -31.2869 41.0523 9.7106
      vertex -31.282 41.0737 9.98928
    endloop
  endfacet
  facet normal -0.974395 0.224842 -0.000102016
    outer loop
      vertex -29.246 49.8925 0
      vertex -31.3021 40.9863 9.42832
      vertex -31.2869 41.0523 9.7106
    endloop
  endfacet
  facet normal -0.974359 0.225001 5.58429e-05
    outer loop
      vertex -29.246 49.8925 0
      vertex -31.3262 40.882 9.17005
      vertex -31.3021 40.9863 9.42832
    endloop
  endfacet
  facet normal -0.974733 0.223369 -0.001633
    outer loop
      vertex -29.246 49.8925 0
      vertex -31.3271 40.878 9.16012
      vertex -31.3262 40.882 9.17005
    endloop
  endfacet
  facet normal -0.974344 0.225064 0.000123203
    outer loop
      vertex -29.246 49.8925 0
      vertex -31.36 40.7357 8.92176
      vertex -31.3271 40.878 9.16012
    endloop
  endfacet
  facet normal -0.973933 0.226825 0.00202807
    outer loop
      vertex -29.246 49.8925 0
      vertex -31.3613 40.7302 8.9126
      vertex -31.36 40.7357 8.92176
    endloop
  endfacet
  facet normal -0.975333 0.220691 -0.00460917
    outer loop
      vertex -29.246 49.8925 0
      vertex -31.3628 40.7234 8.90442
      vertex -31.3613 40.7302 8.9126
    endloop
  endfacet
  facet normal -0.974339 0.225087 0.000153237
    outer loop
      vertex -29.246 49.8925 0
      vertex -31.4037 40.5465 8.69185
      vertex -31.3628 40.7234 8.90442
    endloop
  endfacet
  facet normal -0.975008 0.222147 -0.00317455
    outer loop
      vertex -29.246 49.8925 0
      vertex -31.4055 40.5385 8.68487
      vertex -31.4037 40.5465 8.69185
    endloop
  endfacet
  facet normal -0.974377 0.22492 -3.09991e-05
    outer loop
      vertex -29.246 49.8925 0
      vertex -31.4533 40.3314 8.50332
      vertex -31.4055 40.5385 8.68487
    endloop
  endfacet
  facet normal -0.974375 0.224931 -1.73719e-05
    outer loop
      vertex -29.246 49.8925 0
      vertex -31.5069 40.0992 8.35726
      vertex -31.4533 40.3314 8.50332
    endloop
  endfacet
  facet normal -0.974065 0.226265 0.00162898
    outer loop
      vertex -29.246 49.8925 0
      vertex -31.509 40.0902 8.35164
      vertex -31.5069 40.0992 8.35726
    endloop
  endfacet
  facet normal -0.974611 0.223902 -0.00129133
    outer loop
      vertex -29.246 49.8925 0
      vertex -31.5112 40.0806 8.34752
      vertex -31.509 40.0902 8.35164
    endloop
  endfacet
  facet normal -0.974376 0.224926 -2.45709e-05
    outer loop
      vertex -29.246 49.8925 0
      vertex -31.5693 39.8289 8.24055
      vertex -31.5112 40.0806 8.34752
    endloop
  endfacet
  facet normal -0.974364 0.224979 4.33284e-05
    outer loop
      vertex -29.246 49.8925 0
      vertex -31.6328 39.5539 8.17278
      vertex -31.5693 39.8289 8.24055
    endloop
  endfacet
  facet normal -0.974373 0.224939 -9.82117e-06
    outer loop
      vertex -29.246 49.8925 0
      vertex -31.6955 39.2823 8.15084
      vertex -31.6328 39.5539 8.17278
    endloop
  endfacet
  facet normal -0.97437 0.22495 5.27957e-06
    outer loop
      vertex -33.7 30.6 0
      vertex -31.6955 39.2823 8.15084
      vertex -29.246 49.8925 0
    endloop
  endfacet
  facet normal -0.974393 0.224851 0.000116712
    outer loop
      vertex -31.6955 39.2823 8.15084
      vertex -33.7 30.6 0
      vertex -31.6979 39.2719 8.15
    endloop
  endfacet
  facet normal -0.974373 0.224937 2.01094e-05
    outer loop
      vertex -31.6979 39.2719 8.15
      vertex -33.7 30.6 0
      vertex -31.763 38.9899 8.17278
    endloop
  endfacet
  facet normal -0.974327 0.225136 -0.000195564
    outer loop
      vertex -31.763 38.9899 8.17278
      vertex -33.7 30.6 0
      vertex -31.8242 38.7251 8.23804
    endloop
  endfacet
  facet normal -0.975279 0.22094 0.00416022
    outer loop
      vertex -31.8242 38.7251 8.23804
      vertex -33.7 30.6 0
      vertex -31.8265 38.7149 8.24055
    endloop
  endfacet
  facet normal -0.974376 0.224927 2.79046e-05
    outer loop
      vertex -31.8265 38.7149 8.24055
      vertex -33.7 30.6 0
      vertex -31.8846 38.4632 8.34752
    endloop
  endfacet
  facet normal -0.973401 0.229071 -0.00408689
    outer loop
      vertex -31.8846 38.4632 8.34752
      vertex -33.7 30.6 0
      vertex -31.8869 38.4535 8.35164
    endloop
  endfacet
  facet normal -0.9739 0.226972 -0.00181273
    outer loop
      vertex -33.7 30.6 0
      vertex -31.9938 37.9905 8.70003
      vertex -31.9922 37.9973 8.69185
    endloop
  endfacet
  facet normal -0.974355 0.225016 -4.94815e-05
    outer loop
      vertex -33.7 30.6 0
      vertex -32.0928 37.5615 9.41838
      vertex -32.0687 37.6658 9.16012
    endloop
  endfacet
  facet normal -0.973386 0.229148 -0.00326096
    outer loop
      vertex -33.7 30.6 0
      vertex -32.0943 37.5551 9.43877
      vertex -32.0937 37.5575 9.42832
    endloop
  endfacet
  facet normal -0.97441 0.224776 0.000127757
    outer loop
      vertex -33.7 30.6 0
      vertex -32.1139 37.4701 9.98928
      vertex -32.109 37.4915 9.7106
    endloop
  endfacet
  facet normal -0.973968 0.226684 -0.00125434
    outer loop
      vertex -32.1139 37.4701 9.98928
      vertex -33.7 30.6 0
      vertex -32.1141 37.4693 10
    endloop
  endfacet
  facet normal -0.974357 0.225009 -4.59423e-05
    outer loop
      vertex -32.0943 37.5551 9.43877
      vertex -33.7 30.6 0
      vertex -32.109 37.4915 9.7106
    endloop
  endfacet
  facet normal -0.974809 0.223037 0.00149089
    outer loop
      vertex -32.0928 37.5615 9.41838
      vertex -33.7 30.6 0
      vertex -32.0937 37.5575 9.42832
    endloop
  endfacet
  facet normal -0.974384 0.224892 5.09866e-05
    outer loop
      vertex -32.0346 37.8136 8.9126
      vertex -33.7 30.6 0
      vertex -32.0687 37.6658 9.16012
    endloop
  endfacet
  facet normal -0.974395 0.224844 9.22313e-05
    outer loop
      vertex -31.9938 37.9905 8.70003
      vertex -33.7 30.6 0
      vertex -32.0346 37.8136 8.9126
    endloop
  endfacet
  facet normal -0.974347 0.22505 -8.89596e-05
    outer loop
      vertex -31.9425 38.2124 8.50332
      vertex -33.7 30.6 0
      vertex -31.9922 37.9973 8.69185
    endloop
  endfacet
  facet normal -0.974405 0.2248 0.0001471
    outer loop
      vertex -31.8869 38.4535 8.35164
      vertex -33.7 30.6 0
      vertex -31.9425 38.2124 8.50332
    endloop
  endfacet
  facet normal -0.974049 0.226334 -0.00128436
    outer loop
      vertex -31.282 41.0737 10.0107
      vertex -29.246 49.8925 20
      vertex -31.2818 41.0745 10
    endloop
  endfacet
  facet normal -0.974402 0.224813 0.000130675
    outer loop
      vertex -31.2869 41.0523 10.2894
      vertex -29.246 49.8925 20
      vertex -31.282 41.0737 10.0107
    endloop
  endfacet
  facet normal -0.974395 0.224842 0.00010201
    outer loop
      vertex -31.3021 40.9863 10.5717
      vertex -29.246 49.8925 20
      vertex -31.2869 41.0523 10.2894
    endloop
  endfacet
  facet normal -0.974358 0.225001 -5.58535e-05
    outer loop
      vertex -31.3262 40.882 10.8299
      vertex -29.246 49.8925 20
      vertex -31.3021 40.9863 10.5717
    endloop
  endfacet
  facet normal -0.974731 0.223377 0.00162487
    outer loop
      vertex -31.3271 40.878 10.8399
      vertex -29.246 49.8925 20
      vertex -31.3262 40.882 10.8299
    endloop
  endfacet
  facet normal -0.974344 0.225064 -0.000123223
    outer loop
      vertex -31.36 40.7357 11.0782
      vertex -29.246 49.8925 20
      vertex -31.3271 40.878 10.8399
    endloop
  endfacet
  facet normal -0.973935 0.22682 -0.0020225
    outer loop
      vertex -31.3613 40.7302 11.0874
      vertex -29.246 49.8925 20
      vertex -31.36 40.7357 11.0782
    endloop
  endfacet
  facet normal -0.975331 0.220697 0.00460294
    outer loop
      vertex -31.3628 40.7234 11.0956
      vertex -29.246 49.8925 20
      vertex -31.3613 40.7302 11.0874
    endloop
  endfacet
  facet normal -0.974339 0.225087 -0.000153265
    outer loop
      vertex -31.4037 40.5465 11.3081
      vertex -29.246 49.8925 20
      vertex -31.3628 40.7234 11.0956
    endloop
  endfacet
  facet normal -0.975007 0.22215 0.00317014
    outer loop
      vertex -31.4055 40.5385 11.3151
      vertex -29.246 49.8925 20
      vertex -31.4037 40.5465 11.3081
    endloop
  endfacet
  facet normal -0.974377 0.22492 3.09949e-05
    outer loop
      vertex -31.4533 40.3314 11.4967
      vertex -29.246 49.8925 20
      vertex -31.4055 40.5385 11.3151
    endloop
  endfacet
  facet normal -0.974375 0.224931 1.73748e-05
    outer loop
      vertex -31.5069 40.0992 11.6427
      vertex -29.246 49.8925 20
      vertex -31.4533 40.3314 11.4967
    endloop
  endfacet
  facet normal -0.974066 0.226257 -0.00161924
    outer loop
      vertex -31.509 40.0902 11.6484
      vertex -29.246 49.8925 20
      vertex -31.5069 40.0992 11.6427
    endloop
  endfacet
  facet normal -0.974611 0.223901 0.00129344
    outer loop
      vertex -31.5112 40.0806 11.6525
      vertex -29.246 49.8925 20
      vertex -31.509 40.0902 11.6484
    endloop
  endfacet
  facet normal -0.974376 0.224926 2.45686e-05
    outer loop
      vertex -31.5693 39.8289 11.7595
      vertex -29.246 49.8925 20
      vertex -31.5112 40.0806 11.6525
    endloop
  endfacet
  facet normal -0.974364 0.224979 -4.33389e-05
    outer loop
      vertex -31.6328 39.5539 11.8272
      vertex -29.246 49.8925 20
      vertex -31.5693 39.8289 11.7595
    endloop
  endfacet
  facet normal -0.974373 0.224939 9.81866e-06
    outer loop
      vertex -31.6955 39.2823 11.8492
      vertex -29.246 49.8925 20
      vertex -31.6328 39.5539 11.8272
    endloop
  endfacet
  facet normal -0.974393 0.224851 -0.000116192
    outer loop
      vertex -33.7 30.6 20
      vertex -31.6955 39.2823 11.8492
      vertex -31.6979 39.2719 11.85
    endloop
  endfacet
  facet normal -0.974373 0.224937 -2.0108e-05
    outer loop
      vertex -33.7 30.6 20
      vertex -31.6979 39.2719 11.85
      vertex -31.763 38.9899 11.8272
    endloop
  endfacet
  facet normal -0.974327 0.225136 0.0001956
    outer loop
      vertex -33.7 30.6 20
      vertex -31.763 38.9899 11.8272
      vertex -31.8242 38.7251 11.762
    endloop
  endfacet
  facet normal -0.975279 0.220936 -0.00416348
    outer loop
      vertex -33.7 30.6 20
      vertex -31.8242 38.7251 11.762
      vertex -31.8265 38.7149 11.7595
    endloop
  endfacet
  facet normal -0.974376 0.224927 -2.79024e-05
    outer loop
      vertex -33.7 30.6 20
      vertex -31.8265 38.7149 11.7595
      vertex -31.8846 38.4632 11.6525
    endloop
  endfacet
  facet normal -0.9734 0.229076 0.00409257
    outer loop
      vertex -33.7 30.6 20
      vertex -31.8846 38.4632 11.6525
      vertex -31.8869 38.4535 11.6484
    endloop
  endfacet
  facet normal -0.974405 0.2248 -0.000147094
    outer loop
      vertex -33.7 30.6 20
      vertex -31.8869 38.4535 11.6484
      vertex -31.9425 38.2124 11.4967
    endloop
  endfacet
  facet normal -0.974395 0.224844 -9.22248e-05
    outer loop
      vertex -33.7 30.6 20
      vertex -31.9938 37.9905 11.3
      vertex -32.0346 37.8136 11.0874
    endloop
  endfacet
  facet normal -0.97481 0.223032 -0.00149478
    outer loop
      vertex -33.7 30.6 20
      vertex -32.0928 37.5615 10.5816
      vertex -32.0937 37.5575 10.5717
    endloop
  endfacet
  facet normal -0.974357 0.225009 4.59461e-05
    outer loop
      vertex -33.7 30.6 20
      vertex -32.0943 37.5551 10.5612
      vertex -32.109 37.4915 10.2894
    endloop
  endfacet
  facet normal -0.973967 0.226687 0.00125645
    outer loop
      vertex -33.7 30.6 20
      vertex -32.1139 37.4701 10.0107
      vertex -32.1141 37.4693 10
    endloop
  endfacet
  facet normal -0.97437 0.224951 0
    outer loop
      vertex -33.7 30.6 20
      vertex -32.1141 37.4693 10
      vertex -33.7 30.6 0
    endloop
  endfacet
  facet normal -0.97441 0.224776 -0.000127749
    outer loop
      vertex -32.1139 37.4701 10.0107
      vertex -33.7 30.6 20
      vertex -32.109 37.4915 10.2894
    endloop
  endfacet
  facet normal -0.97339 0.229133 0.00324912
    outer loop
      vertex -32.0943 37.5551 10.5612
      vertex -33.7 30.6 20
      vertex -32.0937 37.5575 10.5717
    endloop
  endfacet
  facet normal -0.974355 0.225016 4.94765e-05
    outer loop
      vertex -32.0928 37.5615 10.5816
      vertex -33.7 30.6 20
      vertex -32.0687 37.6658 10.8399
    endloop
  endfacet
  facet normal -0.97437 0.22495 -5.27959e-06
    outer loop
      vertex -31.6955 39.2823 11.8492
      vertex -33.7 30.6 20
      vertex -29.246 49.8925 20
    endloop
  endfacet
  facet normal -0.974347 0.22505 8.89452e-05
    outer loop
      vertex -31.9922 37.9973 11.3081
      vertex -33.7 30.6 20
      vertex -31.9425 38.2124 11.4967
    endloop
  endfacet
  facet normal -0.973897 0.226982 0.00182174
    outer loop
      vertex -31.9938 37.9905 11.3
      vertex -33.7 30.6 20
      vertex -31.9922 37.9973 11.3081
    endloop
  endfacet
  facet normal -0.974384 0.224892 -5.0989e-05
    outer loop
      vertex -32.0687 37.6658 10.8399
      vertex -33.7 30.6 20
      vertex -32.0346 37.8136 11.0874
    endloop
  endfacet
  facet normal 0 0 1
    outer loop
      vertex -14.2126 26.101 20
      vertex -15.3374 21.2291 20
      vertex -15.3093 21.2227 20
    endloop
  endfacet
  facet normal 0 0 1
    outer loop
      vertex -29.246 49.8925 20
      vertex -14.2126 26.101 20
      vertex -9.75857 45.3935 20
    endloop
  endfacet
  facet normal 0 0 1
    outer loop
      vertex -14.2126 26.101 20
      vertex -29.246 49.8925 20
      vertex -33.7 30.6 20
    endloop
  endfacet
  facet normal 0 0 1
    outer loop
      vertex 35 37 20
      vertex 25 35 20
      vertex 35 30 20
    endloop
  endfacet
  facet normal 0 0 1
    outer loop
      vertex 21.4437 43.3214 20
      vertex 25 35 20
      vertex 35 37 20
    endloop
  endfacet
  facet normal 0 0 1
    outer loop
      vertex 21.4437 43.3214 20
      vertex 17 35 20
      vertex 25 35 20
    endloop
  endfacet
  facet normal 0 0 1
    outer loop
      vertex -8.63381 50.2654 20
      vertex 17 35 20
      vertex 21.4437 43.3214 20
    endloop
  endfacet
  facet normal 0 0 1
    outer loop
      vertex 6 30 20
      vertex 1 19 20
      vertex 6 17.5 20
    endloop
  endfacet
  facet normal 0 0 1
    outer loop
      vertex -15.3093 21.2227 20
      vertex 1 11 20
      vertex 1 19 20
    endloop
  endfacet
  facet normal 0 0 1
    outer loop
      vertex 17 35 20
      vertex -8.63381 50.2654 20
      vertex 6 30 20
    endloop
  endfacet
  facet normal -0 0 1
    outer loop
      vertex -9.75857 45.3935 20
      vertex 6 30 20
      vertex -8.63381 50.2654 20
    endloop
  endfacet
  facet normal 0 0 1
    outer loop
      vertex -14.2126 26.101 20
      vertex 6 30 20
      vertex -9.75857 45.3935 20
    endloop
  endfacet
  facet normal 0 0 1
    outer loop
      vertex 6 30 20
      vertex -14.2126 26.101 20
      vertex 1 19 20
    endloop
  endfacet
  facet normal -0 0 1
    outer loop
      vertex -15.3093 21.2227 20
      vertex 1 19 20
      vertex -14.2126 26.101 20
    endloop
  endfacet
  facet normal 0 0 1
    outer loop
      vertex 1 11 20
      vertex -15.3093 21.2227 20
      vertex -15.3301 21.2051 20
    endloop
  endfacet
  facet normal 0 0 1
    outer loop
      vertex 1 11 20
      vertex -15.3301 21.2051 20
      vertex 0 3 20
    endloop
  endfacet
  facet normal 0 0 1
    outer loop
      vertex 35 30 20
      vertex 25 35 20
      vertex 23.5 30 20
    endloop
  endfacet
  facet normal 0 0 1
    outer loop
      vertex 18.5 30 20
      vertex 17 35 20
      vertex 6 30 20
    endloop
  endfacet
  facet normal -0 0 1
    outer loop
      vertex 0 3 20
      vertex 6 0 20
      vertex 6 12.5 20
    endloop
  endfacet
  facet normal 0 0 1
    outer loop
      vertex 0 3 20
      vertex 6 12.5 20
      vertex 1 11 20
    endloop
  endfacet
  facet normal 0 0 1
    outer loop
      vertex 6 0 20
      vertex 0 3 20
      vertex 3 0 20
    endloop
  endfacet
  facet normal 0.22495 0.97437 -0
    outer loop
      vertex -9.75857 45.3935 0
      vertex -29.246 49.8925 20
      vertex -9.75857 45.3935 20
    endloop
  endfacet
  facet normal 0.22495 0.97437 0
    outer loop
      vertex -29.246 49.8925 20
      vertex -9.75857 45.3935 0
      vertex -29.246 49.8925 0
    endloop
  endfacet
  facet normal 0 0 -1
    outer loop
      vertex 0 3 0
      vertex 6 0 0
      vertex 3 0 0
    endloop
  endfacet
  facet normal 0 0 -1
    outer loop
      vertex 6 0 0
      vertex 0 3 0
      vertex 6 12.5 0
    endloop
  endfacet
  facet normal 0 0 -1
    outer loop
      vertex -15.3301 21.2051 0
      vertex 1 11 0
      vertex 0 3 0
    endloop
  endfacet
  facet normal 0 0 -1
    outer loop
      vertex 6 12.5 0
      vertex 0 3 0
      vertex 1 11 0
    endloop
  endfacet
  facet normal 0 0 -1
    outer loop
      vertex 6 17.5 0
      vertex 1 19 0
      vertex 6 30 0
    endloop
  endfacet
  facet normal 0 0 -1
    outer loop
      vertex 18.5 30 0
      vertex 6 30 0
      vertex 17 35 0
    endloop
  endfacet
  facet normal 0 0 -1
    outer loop
      vertex 35 30 0
      vertex 25 35 0
      vertex 35 37 0
    endloop
  endfacet
  facet normal 0 -0 -1
    outer loop
      vertex 25 35 0
      vertex 35 30 0
      vertex 23.5 30 0
    endloop
  endfacet
  facet normal 0 0 -1
    outer loop
      vertex 25 35 0
      vertex 21.4437 43.3214 0
      vertex 35 37 0
    endloop
  endfacet
  facet normal 0 0 -1
    outer loop
      vertex 17 35 0
      vertex 21.4437 43.3214 0
      vertex 25 35 0
    endloop
  endfacet
  facet normal 0 0 -1
    outer loop
      vertex -8.63381 50.2654 0
      vertex 17 35 0
      vertex 6 30 0
    endloop
  endfacet
  facet normal 0 0 -1
    outer loop
      vertex 17 35 0
      vertex -8.63381 50.2654 0
      vertex 21.4437 43.3214 0
    endloop
  endfacet
  facet normal 0 0 -1
    outer loop
      vertex -14.2126 26.101 0
      vertex 6 30 0
      vertex 1 19 0
    endloop
  endfacet
  facet normal 0 -0 -1
    outer loop
      vertex -15.3093 21.2227 0
      vertex 1 11 0
      vertex -15.3301 21.2051 0
    endloop
  endfacet
  facet normal 0 0 -1
    outer loop
      vertex 6 30 0
      vertex -9.75857 45.3935 0
      vertex -8.63381 50.2654 0
    endloop
  endfacet
  facet normal -0 0 -1
    outer loop
      vertex 6 30 0
      vertex -14.2126 26.101 0
      vertex -9.75857 45.3935 0
    endloop
  endfacet
  facet normal 0 0 -1
    outer loop
      vertex 1 19 0
      vertex -15.3093 21.2227 0
      vertex -14.2126 26.101 0
    endloop
  endfacet
  facet normal 0 0 -1
    outer loop
      vertex 1 11 0
      vertex -15.3093 21.2227 0
      vertex 1 19 0
    endloop
  endfacet
  facet normal 0 0 -1
    outer loop
      vertex -14.2126 26.101 0
      vertex -29.246 49.8925 0
      vertex -9.75857 45.3935 0
    endloop
  endfacet
  facet normal 0 -0 -1
    outer loop
      vertex -29.246 49.8925 0
      vertex -14.2126 26.101 0
      vertex -33.7 30.6 0
    endloop
  endfacet
  facet normal 0 0 -1
    outer loop
      vertex -14.2126 26.101 0
      vertex -15.3093 21.2227 0
      vertex -15.3374 21.2291 0
    endloop
  endfacet
  facet normal -0.22495 -0.97437 0
    outer loop
      vertex -33.7 30.6 0
      vertex -14.2126 26.101 20
      vertex -33.7 30.6 20
    endloop
  endfacet
  facet normal -0.22495 -0.97437 -0
    outer loop
      vertex -14.2126 26.101 20
      vertex -33.7 30.6 0
      vertex -14.2126 26.101 0
    endloop
  endfacet
  facet normal -0.974369 0.224957 0
    outer loop
      vertex -15.3374 21.2291 0
      vertex -14.2126 26.101 20
      vertex -14.2126 26.101 0
    endloop
  endfacet
  facet normal -0.974369 0.224957 0
    outer loop
      vertex -14.2126 26.101 20
      vertex -15.3374 21.2291 0
      vertex -15.3374 21.2291 20
    endloop
  endfacet
  facet normal -0.97437 0.22495 0
    outer loop
      vertex -9.75857 45.3935 0
      vertex -8.63381 50.2654 20
      vertex -8.63381 50.2654 0
    endloop
  endfacet
  facet normal -0.97437 0.22495 0
    outer loop
      vertex -8.63381 50.2654 20
      vertex -9.75857 45.3935 0
      vertex -9.75857 45.3935 20
    endloop
  endfacet
  facet normal 0.224953 0.97437 -0
    outer loop
      vertex 21.4437 43.3214 0
      vertex -8.63381 50.2654 20
      vertex 21.4437 43.3214 20
    endloop
  endfacet
  facet normal 0.224953 0.97437 0
    outer loop
      vertex -8.63381 50.2654 20
      vertex 21.4437 43.3214 0
      vertex -8.63381 50.2654 0
    endloop
  endfacet
  facet normal -0.222071 -0.97503 0
    outer loop
      vertex -15.3374 21.2291 0
      vertex -15.3093 21.2227 20
      vertex -15.3374 21.2291 20
    endloop
  endfacet
  facet normal -0.222071 -0.97503 -0
    outer loop
      vertex -15.3093 21.2227 20
      vertex -15.3374 21.2291 0
      vertex -15.3093 21.2227 0
    endloop
  endfacet
  facet normal 0 -1 0
    outer loop
      vertex 3 0 0
      vertex 6 0 20
      vertex 3 0 20
    endloop
  endfacet
  facet normal 0 -1 -0
    outer loop
      vertex 6 0 20
      vertex 3 0 0
      vertex 6 0 0
    endloop
  endfacet
  facet normal -0.707107 -0.707107 0
    outer loop
      vertex 3 0 0
      vertex 0 3 20
      vertex 0 3 0
    endloop
  endfacet
  facet normal -0.707107 -0.707107 0
    outer loop
      vertex 0 3 20
      vertex 3 0 0
      vertex 3 0 20
    endloop
  endfacet
  facet normal 1 -0 0
    outer loop
      vertex 35 30 20
      vertex 35 37 0
      vertex 35 37 20
    endloop
  endfacet
  facet normal 1 0 0
    outer loop
      vertex 35 37 0
      vertex 35 30 20
      vertex 35 30 0
    endloop
  endfacet
  facet normal -0.764922 -0.644123 0
    outer loop
      vertex 0 3 0
      vertex -15.3301 21.2051 20
      vertex -15.3301 21.2051 0
    endloop
  endfacet
  facet normal -0.764922 -0.644123 0
    outer loop
      vertex -15.3301 21.2051 20
      vertex 0 3 0
      vertex 0 3 20
    endloop
  endfacet
  facet normal -0.645942 0.763386 0
    outer loop
      vertex -15.3093 21.2227 0
      vertex -15.3301 21.2051 20
      vertex -15.3093 21.2227 20
    endloop
  endfacet
  facet normal -0.645942 0.763386 0
    outer loop
      vertex -15.3301 21.2051 20
      vertex -15.3093 21.2227 0
      vertex -15.3301 21.2051 0
    endloop
  endfacet
  facet normal 0.422618 0.906308 -0
    outer loop
      vertex 35 37 0
      vertex 21.4437 43.3214 20
      vertex 35 37 20
    endloop
  endfacet
  facet normal 0.422618 0.906308 0
    outer loop
      vertex 21.4437 43.3214 20
      vertex 35 37 0
      vertex 21.4437 43.3214 0
    endloop
  endfacet
  facet normal 1 -0 0
    outer loop
      vertex 6 0 20
      vertex 6 12.5 0
      vertex 6 12.5 20
    endloop
  endfacet
  facet normal 1 0 0
    outer loop
      vertex 6 12.5 0
      vertex 6 0 20
      vertex 6 0 0
    endloop
  endfacet
  facet normal 1 -0 0
    outer loop
      vertex 6 17.5 20
      vertex 6 30 0
      vertex 6 30 20
    endloop
  endfacet
  facet normal 1 0 0
    outer loop
      vertex 6 30 0
      vertex 6 17.5 20
      vertex 6 17.5 0
    endloop
  endfacet
  facet normal 0 -1 0
    outer loop
      vertex 23.5 30 0
      vertex 35 30 20
      vertex 23.5 30 20
    endloop
  endfacet
  facet normal 0 -1 -0
    outer loop
      vertex 35 30 20
      vertex 23.5 30 0
      vertex 35 30 0
    endloop
  endfacet
  facet normal 0 -1 0
    outer loop
      vertex 6 30 0
      vertex 18.5 30 20
      vertex 6 30 20
    endloop
  endfacet
  facet normal 0 -1 -0
    outer loop
      vertex 18.5 30 20
      vertex 6 30 0
      vertex 18.5 30 0
    endloop
  endfacet
  facet normal -0.287348 0.957826 0
    outer loop
      vertex 6 12.5 0
      vertex 1 11 20
      vertex 6 12.5 20
    endloop
  endfacet
  facet normal -0.287348 0.957826 0
    outer loop
      vertex 1 11 20
      vertex 6 12.5 0
      vertex 1 11 0
    endloop
  endfacet
  facet normal -0.287348 -0.957826 0
    outer loop
      vertex 1 19 0
      vertex 6 17.5 20
      vertex 1 19 20
    endloop
  endfacet
  facet normal -0.287348 -0.957826 -0
    outer loop
      vertex 6 17.5 20
      vertex 1 19 0
      vertex 6 17.5 0
    endloop
  endfacet
  facet normal 1 -0 0
    outer loop
      vertex 1 11 20
      vertex 1 19 0
      vertex 1 19 20
    endloop
  endfacet
  facet normal 1 0 0
    outer loop
      vertex 1 19 0
      vertex 1 11 20
      vertex 1 11 0
    endloop
  endfacet
  facet normal 0.957826 0.287348 0
    outer loop
      vertex 18.5 30 20
      vertex 17 35 0
      vertex 17 35 20
    endloop
  endfacet
  facet normal 0.957826 0.287348 0
    outer loop
      vertex 17 35 0
      vertex 18.5 30 20
      vertex 18.5 30 0
    endloop
  endfacet
  facet normal -0.957826 0.287348 0
    outer loop
      vertex 23.5 30 0
      vertex 25 35 20
      vertex 25 35 0
    endloop
  endfacet
  facet normal -0.957826 0.287348 0
    outer loop
      vertex 25 35 20
      vertex 23.5 30 0
      vertex 23.5 30 20
    endloop
  endfacet
  facet normal 0 -1 0
    outer loop
      vertex 17 35 0
      vertex 25 35 20
      vertex 17 35 20
    endloop
  endfacet
  facet normal 0 -1 -0
    outer loop
      vertex 25 35 20
      vertex 17 35 0
      vertex 25 35 0
    endloop
  endfacet
  facet normal -0.0176513 -0.0764566 0.996917
    outer loop
      vertex -6.29921 33.7052 8.17278
      vertex -31.6328 39.5539 8.17278
      vertex -31.6955 39.2823 8.15084
    endloop
  endfacet
  facet normal -0.0176513 -0.0764563 0.996917
    outer loop
      vertex -31.6955 39.2823 8.15084
      vertex -6.36431 33.4232 8.15
      vertex -6.29921 33.7052 8.17278
    endloop
  endfacet
  facet normal -0.0176492 -0.0764474 0.996917
    outer loop
      vertex -6.36431 33.4232 8.15
      vertex -31.6955 39.2823 8.15084
      vertex -31.6979 39.2719 8.15
    endloop
  endfacet
  facet normal -0.974436 0.224666 0
    outer loop
      vertex -5.96852 35.1375 9.42832
      vertex -5.95328 35.2036 10.2894
      vertex -5.95328 35.2036 9.7106
    endloop
  endfacet
  facet normal -0.974436 0.224666 0
    outer loop
      vertex -5.95328 35.2036 10.2894
      vertex -5.96852 35.1375 9.42832
      vertex -5.96852 35.1375 10.5717
    endloop
  endfacet
  facet normal -0.191674 -0.830236 -0.523421
    outer loop
      vertex -31.36 40.7357 11.0782
      vertex -6.02763 34.8815 11.0874
      vertex -31.3613 40.7302 11.0874
    endloop
  endfacet
  facet normal -0.191795 -0.830759 -0.522546
    outer loop
      vertex -6.02763 34.8815 11.0874
      vertex -31.36 40.7357 11.0782
      vertex -5.99351 35.0293 10.8399
    endloop
  endfacet
  facet normal 0.0525222 0.2275 0.972361
    outer loop
      vertex -6.42941 33.1412 8.17278
      vertex -31.763 38.9899 8.17278
      vertex -31.8242 38.7251 8.23804
    endloop
  endfacet
  facet normal -0.974369 0.224956 0
    outer loop
      vertex -6.42941 33.1412 8.17278
      vertex -6.17538 34.2415 11.6484
      vertex -6.17538 34.2415 8.35164
    endloop
  endfacet
  facet normal -0.974369 0.224956 0
    outer loop
      vertex -6.17538 34.2415 11.6484
      vertex -6.42941 33.1412 8.17278
      vertex -6.42941 33.1412 11.8272
    endloop
  endfacet
  facet normal -0.224255 -0.971361 0.0785344
    outer loop
      vertex -5.95328 35.2036 9.7106
      vertex -31.282 41.0737 9.98928
      vertex -31.2869 41.0523 9.7106
    endloop
  endfacet
  facet normal -0.146086 -0.632773 0.760432
    outer loop
      vertex -31.4037 40.5465 8.69185
      vertex -6.1197 34.4827 8.50332
      vertex -6.07004 34.6978 8.69185
    endloop
  endfacet
  facet normal -0.145793 -0.631584 0.761476
    outer loop
      vertex -6.1197 34.4827 8.50332
      vertex -31.4037 40.5465 8.69185
      vertex -31.4055 40.5385 8.68487
    endloop
  endfacet
  facet normal -0.974422 0.224727 -0.000131686
    outer loop
      vertex -5.99351 35.0293 10.8399
      vertex -5.96852 35.1375 10.5717
      vertex -6.02763 34.8815 11.0874
    endloop
  endfacet
  facet normal -0.207811 -0.900115 0.382895
    outer loop
      vertex -5.96852 35.1375 9.42832
      vertex -31.3021 40.9863 9.42832
      vertex -31.3262 40.882 9.17005
    endloop
  endfacet
  facet normal -0.974372 0.224942 8.94318e-05
    outer loop
      vertex -6.17538 34.2415 8.35164
      vertex -6.36431 33.4232 8.15
      vertex -6.42941 33.1412 8.17278
    endloop
  endfacet
  facet normal 0.224255 0.971365 -0.0784813
    outer loop
      vertex -6.78047 31.6206 10
      vertex -32.1139 37.4701 10.0107
      vertex -6.77535 31.6428 10.2894
    endloop
  endfacet
  facet normal 0.224285 0.97149 -0.076827
    outer loop
      vertex -32.1139 37.4701 10.0107
      vertex -6.78047 31.6206 10
      vertex -32.1141 37.4693 10
    endloop
  endfacet
  facet normal -0.974372 0.224942 -8.94258e-05
    outer loop
      vertex -6.36431 33.4232 11.85
      vertex -6.17538 34.2415 11.6484
      vertex -6.42941 33.1412 11.8272
    endloop
  endfacet
  facet normal 0.171042 0.740856 -0.64952
    outer loop
      vertex -6.70099 31.9648 11.0874
      vertex -31.9922 37.9973 11.3081
      vertex -6.65858 32.1485 11.3081
    endloop
  endfacet
  facet normal 0.170301 0.737879 -0.653094
    outer loop
      vertex -31.9922 37.9973 11.3081
      vertex -6.70099 31.9648 11.0874
      vertex -31.9938 37.9905 11.3
    endloop
  endfacet
  facet normal -0.974377 0.224922 0.000176665
    outer loop
      vertex -6.17538 34.2415 8.35164
      vertex -6.29921 33.7052 8.17278
      vertex -6.36431 33.4232 8.15
    endloop
  endfacet
  facet normal -0.974422 0.224727 0.000131708
    outer loop
      vertex -5.96852 35.1375 9.42832
      vertex -5.99351 35.0293 9.16012
      vertex -6.02763 34.8815 8.9126
    endloop
  endfacet
  facet normal -0.171311 -0.741953 0.648196
    outer loop
      vertex -6.07004 34.6978 8.69185
      vertex -31.3613 40.7302 8.9126
      vertex -31.3628 40.7234 8.90442
    endloop
  endfacet
  facet normal -0.171055 -0.740928 0.649435
    outer loop
      vertex -31.3613 40.7302 8.9126
      vertex -6.07004 34.6978 8.69185
      vertex -6.02763 34.8815 8.9126
    endloop
  endfacet
  facet normal -0.171047 -0.740892 0.649478
    outer loop
      vertex -6.07004 34.6978 8.69185
      vertex -31.3628 40.7234 8.90442
      vertex -31.4037 40.5465 8.69185
    endloop
  endfacet
  facet normal -0.0525217 -0.227497 0.972361
    outer loop
      vertex -31.5693 39.8289 8.24055
      vertex -6.29921 33.7052 8.17278
      vertex -6.23571 33.9802 8.24055
    endloop
  endfacet
  facet normal -0.0525217 -0.227497 0.972361
    outer loop
      vertex -6.29921 33.7052 8.17278
      vertex -31.5693 39.8289 8.24055
      vertex -31.6328 39.5539 8.17278
    endloop
  endfacet
  facet normal -0.146126 -0.632943 -0.760283
    outer loop
      vertex -31.4055 40.5385 11.3151
      vertex -6.1197 34.4827 11.4967
      vertex -31.4533 40.3314 11.4967
    endloop
  endfacet
  facet normal -0.224307 -0.971497 0.0766846
    outer loop
      vertex -5.95328 35.2036 9.7106
      vertex -31.2818 41.0745 10
      vertex -31.282 41.0737 9.98928
    endloop
  endfacet
  facet normal -0.224265 -0.971389 0.0781554
    outer loop
      vertex -31.2818 41.0745 10
      vertex -5.95328 35.2036 9.7106
      vertex -5.94815 35.2257 10
    endloop
  endfacet
  facet normal -0.218746 -0.947479 0.233309
    outer loop
      vertex -5.96852 35.1375 9.42832
      vertex -31.2869 41.0523 9.7106
      vertex -31.3021 40.9863 9.42832
    endloop
  endfacet
  facet normal -0.218723 -0.947399 0.233656
    outer loop
      vertex -31.2869 41.0523 9.7106
      vertex -5.96852 35.1375 9.42832
      vertex -5.95328 35.2036 9.7106
    endloop
  endfacet
  facet normal -0.207925 -0.900624 0.381634
    outer loop
      vertex -5.99351 35.0293 9.16012
      vertex -31.3262 40.882 9.17005
      vertex -31.3271 40.878 9.16012
    endloop
  endfacet
  facet normal -0.207839 -0.900253 0.382555
    outer loop
      vertex -31.3262 40.882 9.17005
      vertex -5.99351 35.0293 9.16012
      vertex -5.96852 35.1375 9.42832
    endloop
  endfacet
  facet normal -0.97437 0.224953 0
    outer loop
      vertex -6.17538 34.2415 8.35164
      vertex -5.96852 35.1375 10.5717
      vertex -5.96852 35.1375 9.42832
    endloop
  endfacet
  facet normal -0.97437 0.224953 0
    outer loop
      vertex -5.96852 35.1375 10.5717
      vertex -6.17538 34.2415 8.35164
      vertex -6.17538 34.2415 11.6484
    endloop
  endfacet
  facet normal 0.14609 0.632776 0.760429
    outer loop
      vertex -31.9425 38.2124 8.50332
      vertex -6.65858 32.1485 8.69185
      vertex -6.60893 32.3636 8.50332
    endloop
  endfacet
  facet normal 0.146085 0.632758 0.760445
    outer loop
      vertex -6.65858 32.1485 8.69185
      vertex -31.9425 38.2124 8.50332
      vertex -31.9922 37.9973 8.69185
    endloop
  endfacet
  facet normal 0.207955 0.900755 0.381306
    outer loop
      vertex -6.7601 31.7088 9.42832
      vertex -32.0928 37.5615 9.41838
      vertex -32.0937 37.5575 9.42832
    endloop
  endfacet
  facet normal 0.207812 0.900137 0.382841
    outer loop
      vertex -32.0928 37.5615 9.41838
      vertex -6.7601 31.7088 9.42832
      vertex -6.73511 31.8171 9.16012
    endloop
  endfacet
  facet normal 0.171059 0.740927 0.649435
    outer loop
      vertex -31.9922 37.9973 8.69185
      vertex -6.70099 31.9648 8.9126
      vertex -6.65858 32.1485 8.69185
    endloop
  endfacet
  facet normal 0.171064 0.740949 0.649408
    outer loop
      vertex -6.70099 31.9648 8.9126
      vertex -31.9922 37.9973 8.69185
      vertex -31.9938 37.9905 8.70003
    endloop
  endfacet
  facet normal -0.974384 0.224889 -4.68235e-05
    outer loop
      vertex -6.55325 32.6048 8.35164
      vertex -6.70099 31.9648 8.9126
      vertex -6.7601 31.7088 9.42832
    endloop
  endfacet
  facet normal -0.974404 0.224803 -0.000127844
    outer loop
      vertex -6.60893 32.3636 8.50332
      vertex -6.65858 32.1485 8.69185
      vertex -6.70099 31.9648 8.9126
    endloop
  endfacet
  facet normal -0.974388 0.224875 -9.27436e-05
    outer loop
      vertex -6.1197 34.4827 11.4967
      vertex -6.07004 34.6978 11.3081
      vertex -6.17538 34.2415 11.6484
    endloop
  endfacet
  facet normal 0.117539 0.50912 -0.852632
    outer loop
      vertex -6.60893 32.3636 11.4967
      vertex -31.8869 38.4535 11.6484
      vertex -6.55325 32.6048 11.6484
    endloop
  endfacet
  facet normal 0.117581 0.509292 -0.852524
    outer loop
      vertex -31.8869 38.4535 11.6484
      vertex -6.60893 32.3636 11.4967
      vertex -31.9425 38.2124 11.4967
    endloop
  endfacet
  facet normal 0.0524766 0.227302 -0.972409
    outer loop
      vertex -31.763 38.9899 11.8272
      vertex -6.42941 33.1412 11.8272
      vertex -31.8242 38.7251 11.762
    endloop
  endfacet
  facet normal -0.146103 -0.632843 0.760371
    outer loop
      vertex -6.1197 34.4827 8.50332
      vertex -31.4055 40.5385 8.68487
      vertex -31.4533 40.3314 8.50332
    endloop
  endfacet
  facet normal -0.117551 -0.509173 0.852599
    outer loop
      vertex -6.1197 34.4827 8.50332
      vertex -31.4533 40.3314 8.50332
      vertex -31.5069 40.0992 8.35726
    endloop
  endfacet
  facet normal -0.117529 -0.509071 0.852663
    outer loop
      vertex -31.5069 40.0992 8.35726
      vertex -6.17538 34.2415 8.35164
      vertex -6.1197 34.4827 8.50332
    endloop
  endfacet
  facet normal -0.11688 -0.506266 0.85442
    outer loop
      vertex -6.17538 34.2415 8.35164
      vertex -31.5069 40.0992 8.35726
      vertex -31.509 40.0902 8.35164
    endloop
  endfacet
  facet normal -0.974388 0.224875 9.28344e-05
    outer loop
      vertex -6.07004 34.6978 8.69185
      vertex -6.1197 34.4827 8.50332
      vertex -6.17538 34.2415 8.35164
    endloop
  endfacet
  facet normal -0.224303 -0.971486 -0.0768271
    outer loop
      vertex -31.2818 41.0745 10
      vertex -5.95328 35.2036 10.2894
      vertex -31.282 41.0737 10.0107
    endloop
  endfacet
  facet normal -0.224265 -0.971389 -0.0781554
    outer loop
      vertex -5.95328 35.2036 10.2894
      vertex -31.2818 41.0745 10
      vertex -5.94815 35.2257 10
    endloop
  endfacet
  facet normal -0.974101 0.226115 0
    outer loop
      vertex -5.95328 35.2036 10.2894
      vertex -5.94815 35.2257 10
      vertex -5.95328 35.2036 9.7106
    endloop
  endfacet
  facet normal 0.08609 0.372897 0.92387
    outer loop
      vertex -31.8846 38.4632 8.34752
      vertex -6.55325 32.6048 8.35164
      vertex -6.49291 32.8661 8.24055
    endloop
  endfacet
  facet normal 0.0859207 0.372166 0.924181
    outer loop
      vertex -6.55325 32.6048 8.35164
      vertex -31.8846 38.4632 8.34752
      vertex -31.8869 38.4535 8.35164
    endloop
  endfacet
  facet normal -0.974384 0.224889 4.68293e-05
    outer loop
      vertex -6.70099 31.9648 11.0874
      vertex -6.55325 32.6048 11.6484
      vertex -6.7601 31.7088 10.5717
    endloop
  endfacet
  facet normal -0.974371 0.224947 0
    outer loop
      vertex -6.7601 31.7088 9.42832
      vertex -6.42941 33.1412 11.8272
      vertex -6.42941 33.1412 8.17278
    endloop
  endfacet
  facet normal -0.974371 0.224947 0
    outer loop
      vertex -6.42941 33.1412 11.8272
      vertex -6.7601 31.7088 9.42832
      vertex -6.7601 31.7088 10.5717
    endloop
  endfacet
  facet normal 0.224255 0.971361 0.0785344
    outer loop
      vertex -6.77535 31.6428 9.7106
      vertex -32.109 37.4915 9.7106
      vertex -32.1139 37.4701 9.98928
    endloop
  endfacet
  facet normal 0.207806 0.90011 0.382907
    outer loop
      vertex -6.73511 31.8171 9.16012
      vertex -32.0687 37.6658 9.16012
      vertex -32.0928 37.5615 9.41838
    endloop
  endfacet
  facet normal -0.974408 0.224787 -0.000529487
    outer loop
      vertex -6.42941 33.1412 8.17278
      vertex -6.49291 32.8661 8.24055
      vertex -6.55325 32.6048 8.35164
    endloop
  endfacet
  facet normal -0.974368 0.22496 1.47111e-05
    outer loop
      vertex -6.42941 33.1412 8.17278
      vertex -6.55325 32.6048 8.35164
      vertex -6.7601 31.7088 9.42832
    endloop
  endfacet
  facet normal -0.0176682 -0.0765226 -0.996911
    outer loop
      vertex -6.36431 33.4232 11.85
      vertex -31.6955 39.2823 11.8492
      vertex -6.29921 33.7052 11.8272
    endloop
  endfacet
  facet normal -0.0168136 -0.0728279 -0.997203
    outer loop
      vertex -31.6955 39.2823 11.8492
      vertex -6.36431 33.4232 11.85
      vertex -31.6979 39.2719 11.85
    endloop
  endfacet
  facet normal -0.974377 0.224922 -0.000176793
    outer loop
      vertex -6.29921 33.7052 11.8272
      vertex -6.17538 34.2415 11.6484
      vertex -6.36431 33.4232 11.85
    endloop
  endfacet
  facet normal -0.191793 -0.830751 -0.522559
    outer loop
      vertex -31.3271 40.878 10.8399
      vertex -5.99351 35.0293 10.8399
      vertex -31.36 40.7357 11.0782
    endloop
  endfacet
  facet normal -0.974378 0.224915 -3.34493e-05
    outer loop
      vertex -6.02763 34.8815 11.0874
      vertex -5.96852 35.1375 10.5717
      vertex -6.17538 34.2415 11.6484
    endloop
  endfacet
  facet normal -0.0860854 -0.372878 -0.923878
    outer loop
      vertex -31.5112 40.0806 11.6525
      vertex -6.23571 33.9802 11.7595
      vertex -31.5693 39.8289 11.7595
    endloop
  endfacet
  facet normal -0.974284 0.225323 -4.78285e-05
    outer loop
      vertex -6.77535 31.6428 10.2894
      vertex -6.7601 31.7088 10.5717
      vertex -6.78047 31.6206 10
    endloop
  endfacet
  facet normal 0.191832 0.830904 -0.522302
    outer loop
      vertex -6.73511 31.8171 10.8399
      vertex -32.0346 37.8136 11.0874
      vertex -6.70099 31.9648 11.0874
    endloop
  endfacet
  facet normal 0.191797 0.830765 -0.522535
    outer loop
      vertex -32.0346 37.8136 11.0874
      vertex -6.73511 31.8171 10.8399
      vertex -32.0687 37.6658 10.8399
    endloop
  endfacet
  facet normal 0.17107 0.740974 -0.649379
    outer loop
      vertex -31.9938 37.9905 11.3
      vertex -6.70099 31.9648 11.0874
      vertex -32.0346 37.8136 11.0874
    endloop
  endfacet
  facet normal -0.191444 -0.829242 0.525078
    outer loop
      vertex -6.02763 34.8815 8.9126
      vertex -31.36 40.7357 8.92176
      vertex -31.3613 40.7302 8.9126
    endloop
  endfacet
  facet normal -0.1918 -0.830777 0.522516
    outer loop
      vertex -31.36 40.7357 8.92176
      vertex -6.02763 34.8815 8.9126
      vertex -5.99351 35.0293 9.16012
    endloop
  endfacet
  facet normal -0.191806 -0.830808 0.522464
    outer loop
      vertex -5.99351 35.0293 9.16012
      vertex -31.3271 40.878 9.16012
      vertex -31.36 40.7357 8.92176
    endloop
  endfacet
  facet normal -0.0860904 -0.3729 0.923869
    outer loop
      vertex -31.509 40.0902 8.35164
      vertex -6.23571 33.9802 8.24055
      vertex -6.17538 34.2415 8.35164
    endloop
  endfacet
  facet normal -0.0868499 -0.376017 0.922533
    outer loop
      vertex -6.23571 33.9802 8.24055
      vertex -31.509 40.0902 8.35164
      vertex -31.5112 40.0806 8.34752
    endloop
  endfacet
  facet normal -0.974354 0.225021 -0.000136576
    outer loop
      vertex -6.17538 34.2415 8.35164
      vertex -6.23571 33.9802 8.24055
      vertex -6.29921 33.7052 8.17278
    endloop
  endfacet
  facet normal 0.0525054 0.227423 0.97238
    outer loop
      vertex -31.8242 38.7251 8.23804
      vertex -6.49291 32.8661 8.24055
      vertex -6.42941 33.1412 8.17278
    endloop
  endfacet
  facet normal 0.0525094 0.22744 0.972375
    outer loop
      vertex -6.49291 32.8661 8.24055
      vertex -31.8242 38.7251 8.23804
      vertex -31.8265 38.7149 8.24055
    endloop
  endfacet
  facet normal 0.0176667 0.076523 -0.996911
    outer loop
      vertex -6.42941 33.1412 11.8272
      vertex -31.6979 39.2719 11.85
      vertex -6.36431 33.4232 11.85
    endloop
  endfacet
  facet normal 0.0176667 0.076523 -0.996911
    outer loop
      vertex -31.6979 39.2719 11.85
      vertex -6.42941 33.1412 11.8272
      vertex -31.763 38.9899 11.8272
    endloop
  endfacet
  facet normal -0.974368 0.22496 -1.47088e-05
    outer loop
      vertex -6.55325 32.6048 11.6484
      vertex -6.42941 33.1412 11.8272
      vertex -6.7601 31.7088 10.5717
    endloop
  endfacet
  facet normal 0.146121 0.632912 -0.760309
    outer loop
      vertex -6.65858 32.1485 11.3081
      vertex -31.9425 38.2124 11.4967
      vertex -6.60893 32.3636 11.4967
    endloop
  endfacet
  facet normal 0.146117 0.632894 -0.760326
    outer loop
      vertex -31.9425 38.2124 11.4967
      vertex -6.65858 32.1485 11.3081
      vertex -31.9922 37.9973 11.3081
    endloop
  endfacet
  facet normal 0.224255 0.971361 -0.0785288
    outer loop
      vertex -32.109 37.4915 10.2894
      vertex -6.77535 31.6428 10.2894
      vertex -32.1139 37.4701 10.0107
    endloop
  endfacet
  facet normal -0.974352 0.225029 0
    outer loop
      vertex -6.7601 31.7088 10.5717
      vertex -6.7601 31.7088 9.42832
      vertex -6.78047 31.6206 10
    endloop
  endfacet
  facet normal 0.191836 0.830922 0.522271
    outer loop
      vertex -32.0346 37.8136 8.9126
      vertex -6.73511 31.8171 9.16012
      vertex -6.70099 31.9648 8.9126
    endloop
  endfacet
  facet normal 0.191801 0.830784 0.522504
    outer loop
      vertex -6.73511 31.8171 9.16012
      vertex -32.0346 37.8136 8.9126
      vertex -32.0687 37.6658 9.16012
    endloop
  endfacet
  facet normal -0.974223 0.225586 0.000317445
    outer loop
      vertex -6.70099 31.9648 8.9126
      vertex -6.73511 31.8171 9.16012
      vertex -6.7601 31.7088 9.42832
    endloop
  endfacet
  facet normal 0.117528 0.509071 0.852663
    outer loop
      vertex -31.8869 38.4535 8.35164
      vertex -6.60893 32.3636 8.50332
      vertex -6.55325 32.6048 8.35164
    endloop
  endfacet
  facet normal 0.11757 0.509243 0.852554
    outer loop
      vertex -6.60893 32.3636 8.50332
      vertex -31.8869 38.4535 8.35164
      vertex -31.9425 38.2124 8.50332
    endloop
  endfacet
  facet normal -0.974374 0.224935 7.95233e-06
    outer loop
      vertex -6.55325 32.6048 8.35164
      vertex -6.60893 32.3636 8.50332
      vertex -6.70099 31.9648 8.9126
    endloop
  endfacet
  facet normal -0.974354 0.225021 0.000136353
    outer loop
      vertex -6.23571 33.9802 11.7595
      vertex -6.17538 34.2415 11.6484
      vertex -6.29921 33.7052 11.8272
    endloop
  endfacet
  facet normal -0.171501 -0.74271 -0.647278
    outer loop
      vertex -31.3613 40.7302 11.0874
      vertex -6.07004 34.6978 11.3081
      vertex -31.3628 40.7234 11.0956
    endloop
  endfacet
  facet normal -0.171039 -0.740857 -0.64952
    outer loop
      vertex -6.07004 34.6978 11.3081
      vertex -31.3613 40.7302 11.0874
      vertex -6.02763 34.8815 11.0874
    endloop
  endfacet
  facet normal -0.974376 0.224928 -1.84965e-05
    outer loop
      vertex -6.07004 34.6978 11.3081
      vertex -6.02763 34.8815 11.0874
      vertex -6.17538 34.2415 11.6484
    endloop
  endfacet
  facet normal -0.218747 -0.947483 -0.233294
    outer loop
      vertex -31.2869 41.0523 10.2894
      vertex -5.96852 35.1375 10.5717
      vertex -31.3021 40.9863 10.5717
    endloop
  endfacet
  facet normal -0.218724 -0.947403 -0.23364
    outer loop
      vertex -5.96852 35.1375 10.5717
      vertex -31.2869 41.0523 10.2894
      vertex -5.95328 35.2036 10.2894
    endloop
  endfacet
  facet normal 0.21873 0.94743 -0.233524
    outer loop
      vertex -32.0943 37.5551 10.5612
      vertex -6.77535 31.6428 10.2894
      vertex -32.109 37.4915 10.2894
    endloop
  endfacet
  facet normal 0.218731 0.947436 0.2335
    outer loop
      vertex -6.77535 31.6428 9.7106
      vertex -32.0943 37.5551 9.43877
      vertex -32.109 37.4915 9.7106
    endloop
  endfacet
  facet normal 0.21874 0.947472 0.233346
    outer loop
      vertex -32.0937 37.5575 9.42832
      vertex -6.77535 31.6428 9.7106
      vertex -6.7601 31.7088 9.42832
    endloop
  endfacet
  facet normal 0.218936 0.948164 0.230331
    outer loop
      vertex -6.77535 31.6428 9.7106
      vertex -32.0937 37.5575 9.42832
      vertex -32.0943 37.5551 9.43877
    endloop
  endfacet
  facet normal 0.171059 0.74093 0.649432
    outer loop
      vertex -6.70099 31.9648 8.9126
      vertex -31.9938 37.9905 8.70003
      vertex -32.0346 37.8136 8.9126
    endloop
  endfacet
  facet normal -0.974378 0.224915 3.34452e-05
    outer loop
      vertex -5.96852 35.1375 9.42832
      vertex -6.02763 34.8815 8.9126
      vertex -6.17538 34.2415 8.35164
    endloop
  endfacet
  facet normal -0.974375 0.224928 1.84774e-05
    outer loop
      vertex -6.02763 34.8815 8.9126
      vertex -6.07004 34.6978 8.69185
      vertex -6.17538 34.2415 8.35164
    endloop
  endfacet
  facet normal -0.0860648 -0.372789 0.923916
    outer loop
      vertex -6.23571 33.9802 8.24055
      vertex -31.5112 40.0806 8.34752
      vertex -31.5693 39.8289 8.24055
    endloop
  endfacet
  facet normal 0.0860662 0.372789 0.923916
    outer loop
      vertex -6.49291 32.8661 8.24055
      vertex -31.8265 38.7149 8.24055
      vertex -31.8846 38.4632 8.34752
    endloop
  endfacet
  facet normal -0.974404 0.224803 0.00012808
    outer loop
      vertex -6.65858 32.1485 11.3081
      vertex -6.60893 32.3636 11.4967
      vertex -6.70099 31.9648 11.0874
    endloop
  endfacet
  facet normal -0.974374 0.224935 -7.95299e-06
    outer loop
      vertex -6.60893 32.3636 11.4967
      vertex -6.55325 32.6048 11.6484
      vertex -6.70099 31.9648 11.0874
    endloop
  endfacet
  facet normal 0.218741 0.947475 -0.23333
    outer loop
      vertex -6.77535 31.6428 10.2894
      vertex -32.0937 37.5575 10.5717
      vertex -6.7601 31.7088 10.5717
    endloop
  endfacet
  facet normal 0.219002 0.9484 -0.229292
    outer loop
      vertex -32.0937 37.5575 10.5717
      vertex -6.77535 31.6428 10.2894
      vertex -32.0943 37.5551 10.5612
    endloop
  endfacet
  facet normal -0.974223 0.225586 -0.000317392
    outer loop
      vertex -6.73511 31.8171 10.8399
      vertex -6.70099 31.9648 11.0874
      vertex -6.7601 31.7088 10.5717
    endloop
  endfacet
  facet normal 0.224288 0.971501 0.0766846
    outer loop
      vertex -6.78047 31.6206 10
      vertex -32.1139 37.4701 9.98928
      vertex -32.1141 37.4693 10
    endloop
  endfacet
  facet normal 0.224255 0.971365 0.0784813
    outer loop
      vertex -32.1139 37.4701 9.98928
      vertex -6.78047 31.6206 10
      vertex -6.77535 31.6428 9.7106
    endloop
  endfacet
  facet normal -0.974284 0.225323 4.78268e-05
    outer loop
      vertex -6.7601 31.7088 9.42832
      vertex -6.77535 31.6428 9.7106
      vertex -6.78047 31.6206 10
    endloop
  endfacet
  facet normal -0.086097 -0.372929 -0.923857
    outer loop
      vertex -6.23571 33.9802 11.7595
      vertex -31.509 40.0902 11.6484
      vertex -6.17538 34.2415 11.6484
    endloop
  endfacet
  facet normal -0.0864717 -0.374467 -0.9232
    outer loop
      vertex -31.509 40.0902 11.6484
      vertex -6.23571 33.9802 11.7595
      vertex -31.5112 40.0806 11.6525
    endloop
  endfacet
  facet normal -0.117538 -0.50912 -0.852632
    outer loop
      vertex -6.17538 34.2415 11.6484
      vertex -31.5069 40.0992 11.6427
      vertex -6.1197 34.4827 11.4967
    endloop
  endfacet
  facet normal -0.118088 -0.511497 -0.851132
    outer loop
      vertex -31.5069 40.0992 11.6427
      vertex -6.17538 34.2415 11.6484
      vertex -31.509 40.0902 11.6484
    endloop
  endfacet
  facet normal -0.171024 -0.740789 -0.649602
    outer loop
      vertex -31.3628 40.7234 11.0956
      vertex -6.07004 34.6978 11.3081
      vertex -31.4037 40.5465 11.3081
    endloop
  endfacet
  facet normal -0.146118 -0.632909 -0.760313
    outer loop
      vertex -6.1197 34.4827 11.4967
      vertex -31.4037 40.5465 11.3081
      vertex -6.07004 34.6978 11.3081
    endloop
  endfacet
  facet normal -0.146049 -0.632629 -0.76056
    outer loop
      vertex -31.4037 40.5465 11.3081
      vertex -6.1197 34.4827 11.4967
      vertex -31.4055 40.5385 11.3151
    endloop
  endfacet
  facet normal -0.207803 -0.900079 -0.382983
    outer loop
      vertex -31.3021 40.9863 10.5717
      vertex -5.96852 35.1375 10.5717
      vertex -31.3262 40.882 10.8299
    endloop
  endfacet
  facet normal -0.208136 -0.90154 -0.379348
    outer loop
      vertex -31.3262 40.882 10.8299
      vertex -5.99351 35.0293 10.8399
      vertex -31.3271 40.878 10.8399
    endloop
  endfacet
  facet normal -0.207838 -0.900253 -0.382555
    outer loop
      vertex -5.99351 35.0293 10.8399
      vertex -31.3262 40.882 10.8299
      vertex -5.96852 35.1375 10.5717
    endloop
  endfacet
  facet normal -0.224255 -0.971361 -0.0785288
    outer loop
      vertex -31.282 41.0737 10.0107
      vertex -5.95328 35.2036 10.2894
      vertex -31.2869 41.0523 10.2894
    endloop
  endfacet
  facet normal 0.207812 0.900137 -0.382841
    outer loop
      vertex -6.7601 31.7088 10.5717
      vertex -32.0928 37.5615 10.5816
      vertex -6.73511 31.8171 10.8399
    endloop
  endfacet
  facet normal 0.207833 0.900226 -0.382621
    outer loop
      vertex -32.0928 37.5615 10.5816
      vertex -6.7601 31.7088 10.5717
      vertex -32.0937 37.5575 10.5717
    endloop
  endfacet
  facet normal 0.207811 0.900131 -0.382857
    outer loop
      vertex -32.0687 37.6658 10.8399
      vertex -6.73511 31.8171 10.8399
      vertex -32.0928 37.5615 10.5816
    endloop
  endfacet
  facet normal 0.0176513 0.0764563 0.996917
    outer loop
      vertex -31.6979 39.2719 8.15
      vertex -6.42941 33.1412 8.17278
      vertex -6.36431 33.4232 8.15
    endloop
  endfacet
  facet normal 0.0176513 0.0764563 0.996917
    outer loop
      vertex -6.42941 33.1412 8.17278
      vertex -31.6979 39.2719 8.15
      vertex -31.763 38.9899 8.17278
    endloop
  endfacet
  facet normal -0.974408 0.224788 0.000528622
    outer loop
      vertex -6.49291 32.8661 11.7595
      vertex -6.42941 33.1412 11.8272
      vertex -6.55325 32.6048 11.6484
    endloop
  endfacet
  facet normal 0.0524544 0.227201 -0.972434
    outer loop
      vertex -6.49291 32.8661 11.7595
      vertex -31.8242 38.7251 11.762
      vertex -6.42941 33.1412 11.8272
    endloop
  endfacet
  facet normal 0.0523116 0.226583 -0.972586
    outer loop
      vertex -31.8242 38.7251 11.762
      vertex -6.49291 32.8661 11.7595
      vertex -31.8265 38.7149 11.7595
    endloop
  endfacet
  facet normal 0.0860973 0.372926 -0.923858
    outer loop
      vertex -6.55325 32.6048 11.6484
      vertex -31.8846 38.4632 11.6525
      vertex -6.49291 32.8661 11.7595
    endloop
  endfacet
  facet normal 0.0855641 0.370621 -0.924834
    outer loop
      vertex -31.8846 38.4632 11.6525
      vertex -6.55325 32.6048 11.6484
      vertex -31.8869 38.4535 11.6484
    endloop
  endfacet
  facet normal 0.0860868 0.372878 -0.923878
    outer loop
      vertex -31.8265 38.7149 11.7595
      vertex -6.49291 32.8661 11.7595
      vertex -31.8846 38.4632 11.6525
    endloop
  endfacet
  facet normal -0.117516 -0.50902 -0.852695
    outer loop
      vertex -31.4533 40.3314 11.4967
      vertex -6.1197 34.4827 11.4967
      vertex -31.5069 40.0992 11.6427
    endloop
  endfacet
  facet normal -0.0524704 -0.227275 -0.972416
    outer loop
      vertex -6.29921 33.7052 11.8272
      vertex -31.5693 39.8289 11.7595
      vertex -6.23571 33.9802 11.7595
    endloop
  endfacet
  facet normal -0.0524704 -0.227275 -0.972416
    outer loop
      vertex -31.5693 39.8289 11.7595
      vertex -6.29921 33.7052 11.8272
      vertex -31.6328 39.5539 11.8272
    endloop
  endfacet
  facet normal -0.0176993 -0.0766644 -0.9969
    outer loop
      vertex -31.6328 39.5539 11.8272
      vertex -6.29921 33.7052 11.8272
      vertex -31.6955 39.2823 11.8492
    endloop
  endfacet
endsolid OpenSCAD_Model
