solid OpenSCAD_Model
  facet normal 0.998027 0.0627883 0
    outer loop
      vertex 4 0 2
      vertex 3.96846 0.501332 0
      vertex 3.96846 0.501332 2
    endloop
  endfacet
  facet normal 0.998027 0.0627883 0
    outer loop
      vertex 3.96846 0.501332 0
      vertex 4 0 2
      vertex 4 0 0
    endloop
  endfacet
  facet normal -0.998027 0.0627883 0
    outer loop
      vertex -4 0 0
      vertex -3.96846 0.501332 2
      vertex -3.96846 0.501332 0
    endloop
  endfacet
  facet normal -0.998027 0.0627883 0
    outer loop
      vertex -3.96846 0.501332 2
      vertex -4 0 0
      vertex -4 0 2
    endloop
  endfacet
  facet normal 0 1 -0
    outer loop
      vertex 0.251162 3.99211 0
      vertex -0.251162 3.99211 2
      vertex 0.251162 3.99211 2
    endloop
  endfacet
  facet normal 0 1 0
    outer loop
      vertex -0.251162 3.99211 2
      vertex 0.251162 3.99211 0
      vertex -0.251162 3.99211 0
    endloop
  endfacet
  facet normal 0 -1 0
    outer loop
      vertex -0.251162 -3.99211 0
      vertex 0.251162 -3.99211 2
      vertex -0.251162 -3.99211 2
    endloop
  endfacet
  facet normal 0 -1 -0
    outer loop
      vertex 0.251162 -3.99211 2
      vertex -0.251162 -3.99211 0
      vertex 0.251162 -3.99211 0
    endloop
  endfacet
  facet normal 0.684551 0.728965 -0
    outer loop
      vertex 2.91587 2.73819 0
      vertex 2.5497 3.08205 2
      vertex 2.91587 2.73819 2
    endloop
  endfacet
  facet normal 0.684551 0.728965 0
    outer loop
      vertex 2.5497 3.08205 2
      vertex 2.91587 2.73819 0
      vertex 2.5497 3.08205 0
    endloop
  endfacet
  facet normal -0.684551 0.728965 0
    outer loop
      vertex -2.5497 3.08205 0
      vertex -2.91587 2.73819 2
      vertex -2.5497 3.08205 2
    endloop
  endfacet
  facet normal -0.684551 0.728965 0
    outer loop
      vertex -2.91587 2.73819 2
      vertex -2.5497 3.08205 0
      vertex -2.91587 2.73819 0
    endloop
  endfacet
  facet normal -0.368128 0.929775 0
    outer loop
      vertex -1.23607 3.80423 0
      vertex -1.70312 3.61931 2
      vertex -1.23607 3.80423 2
    endloop
  endfacet
  facet normal -0.368128 0.929775 0
    outer loop
      vertex -1.70312 3.61931 2
      vertex -1.23607 3.80423 0
      vertex -1.70312 3.61931 0
    endloop
  endfacet
  facet normal 0.904824 0.425786 0
    outer loop
      vertex 3.71911 1.4725 2
      vertex 3.50523 1.92701 0
      vertex 3.50523 1.92701 2
    endloop
  endfacet
  facet normal 0.904824 0.425786 0
    outer loop
      vertex 3.50523 1.92701 0
      vertex 3.71911 1.4725 2
      vertex 3.71911 1.4725 0
    endloop
  endfacet
  facet normal 0.844329 0.535825 0
    outer loop
      vertex 3.50523 1.92701 2
      vertex 3.23607 2.35114 0
      vertex 3.23607 2.35114 2
    endloop
  endfacet
  facet normal 0.844329 0.535825 0
    outer loop
      vertex 3.23607 2.35114 0
      vertex 3.50523 1.92701 2
      vertex 3.50523 1.92701 0
    endloop
  endfacet
  facet normal 0.368128 0.929775 -0
    outer loop
      vertex 1.70312 3.61931 0
      vertex 1.23607 3.80423 2
      vertex 1.70312 3.61931 2
    endloop
  endfacet
  facet normal 0.368128 0.929775 0
    outer loop
      vertex 1.23607 3.80423 2
      vertex 1.70312 3.61931 0
      vertex 1.23607 3.80423 0
    endloop
  endfacet
  facet normal 0.248683 0.968585 -0
    outer loop
      vertex 1.23607 3.80423 0
      vertex 0.749525 3.92915 2
      vertex 1.23607 3.80423 2
    endloop
  endfacet
  facet normal 0.248683 0.968585 0
    outer loop
      vertex 0.749525 3.92915 2
      vertex 1.23607 3.80423 0
      vertex 0.749525 3.92915 0
    endloop
  endfacet
  facet normal 0.587786 0.809017 -0
    outer loop
      vertex 2.5497 3.08205 0
      vertex 2.14331 3.37731 2
      vertex 2.5497 3.08205 2
    endloop
  endfacet
  facet normal 0.587786 0.809017 0
    outer loop
      vertex 2.14331 3.37731 2
      vertex 2.5497 3.08205 0
      vertex 2.14331 3.37731 0
    endloop
  endfacet
  facet normal -0.844329 0.535825 0
    outer loop
      vertex -3.50523 1.92701 0
      vertex -3.23607 2.35114 2
      vertex -3.23607 2.35114 0
    endloop
  endfacet
  facet normal -0.844329 0.535825 0
    outer loop
      vertex -3.23607 2.35114 2
      vertex -3.50523 1.92701 0
      vertex -3.50523 1.92701 2
    endloop
  endfacet
  facet normal -0.770509 0.637429 0
    outer loop
      vertex -3.23607 2.35114 0
      vertex -2.91587 2.73819 2
      vertex -2.91587 2.73819 0
    endloop
  endfacet
  facet normal -0.770509 0.637429 0
    outer loop
      vertex -2.91587 2.73819 2
      vertex -3.23607 2.35114 0
      vertex -3.23607 2.35114 2
    endloop
  endfacet
  facet normal -0.951061 0.309004 0
    outer loop
      vertex -3.87433 0.994759 0
      vertex -3.71911 1.4725 2
      vertex -3.71911 1.4725 0
    endloop
  endfacet
  facet normal -0.951061 0.309004 0
    outer loop
      vertex -3.71911 1.4725 2
      vertex -3.87433 0.994759 0
      vertex -3.87433 0.994759 2
    endloop
  endfacet
  facet normal -0.481759 0.876304 0
    outer loop
      vertex -1.70312 3.61931 0
      vertex -2.14331 3.37731 2
      vertex -1.70312 3.61931 2
    endloop
  endfacet
  facet normal -0.481759 0.876304 0
    outer loop
      vertex -2.14331 3.37731 2
      vertex -1.70312 3.61931 0
      vertex -2.14331 3.37731 0
    endloop
  endfacet
  facet normal -0.248683 0.968585 0
    outer loop
      vertex -0.749525 3.92915 0
      vertex -1.23607 3.80423 2
      vertex -0.749525 3.92915 2
    endloop
  endfacet
  facet normal -0.248683 0.968585 0
    outer loop
      vertex -1.23607 3.80423 2
      vertex -0.749525 3.92915 0
      vertex -1.23607 3.80423 0
    endloop
  endfacet
  facet normal 0.125337 -0.992114 0
    outer loop
      vertex 0.251162 -3.99211 0
      vertex 0.749525 -3.92915 2
      vertex 0.251162 -3.99211 2
    endloop
  endfacet
  facet normal 0.125337 -0.992114 0
    outer loop
      vertex 0.749525 -3.92915 2
      vertex 0.251162 -3.99211 0
      vertex 0.749525 -3.92915 0
    endloop
  endfacet
  facet normal 0.951061 0.309004 0
    outer loop
      vertex 3.87433 0.994759 2
      vertex 3.71911 1.4725 0
      vertex 3.71911 1.4725 2
    endloop
  endfacet
  facet normal 0.951061 0.309004 0
    outer loop
      vertex 3.71911 1.4725 0
      vertex 3.87433 0.994759 2
      vertex 3.87433 0.994759 0
    endloop
  endfacet
  facet normal 0.982286 0.187389 0
    outer loop
      vertex 3.96846 0.501332 2
      vertex 3.87433 0.994759 0
      vertex 3.87433 0.994759 2
    endloop
  endfacet
  facet normal 0.982286 0.187389 0
    outer loop
      vertex 3.87433 0.994759 0
      vertex 3.96846 0.501332 2
      vertex 3.96846 0.501332 0
    endloop
  endfacet
  facet normal 0.770509 0.637429 0
    outer loop
      vertex 3.23607 2.35114 2
      vertex 2.91587 2.73819 0
      vertex 2.91587 2.73819 2
    endloop
  endfacet
  facet normal 0.770509 0.637429 0
    outer loop
      vertex 2.91587 2.73819 0
      vertex 3.23607 2.35114 2
      vertex 3.23607 2.35114 0
    endloop
  endfacet
  facet normal 0.125337 0.992114 -0
    outer loop
      vertex 0.749525 3.92915 0
      vertex 0.251162 3.99211 2
      vertex 0.749525 3.92915 2
    endloop
  endfacet
  facet normal 0.125337 0.992114 0
    outer loop
      vertex 0.251162 3.99211 2
      vertex 0.749525 3.92915 0
      vertex 0.251162 3.99211 0
    endloop
  endfacet
  facet normal -0.904824 0.425786 0
    outer loop
      vertex -3.71911 1.4725 0
      vertex -3.50523 1.92701 2
      vertex -3.50523 1.92701 0
    endloop
  endfacet
  facet normal -0.904824 0.425786 0
    outer loop
      vertex -3.50523 1.92701 2
      vertex -3.71911 1.4725 0
      vertex -3.71911 1.4725 2
    endloop
  endfacet
  facet normal -0.982286 0.187389 0
    outer loop
      vertex -3.96846 0.501332 0
      vertex -3.87433 0.994759 2
      vertex -3.87433 0.994759 0
    endloop
  endfacet
  facet normal -0.982286 0.187389 0
    outer loop
      vertex -3.87433 0.994759 2
      vertex -3.96846 0.501332 0
      vertex -3.96846 0.501332 2
    endloop
  endfacet
  facet normal 0 0 1
    outer loop
      vertex 2.2 0 2
      vertex 4 0 2
      vertex 3.96846 0.501332 2
    endloop
  endfacet
  facet normal 0 0 1
    outer loop
      vertex 2.18265 0.275733 2
      vertex 3.96846 0.501332 2
      vertex 3.87433 0.994759 2
    endloop
  endfacet
  facet normal 0 0 1
    outer loop
      vertex 4 0 2
      vertex 2.2 0 2
      vertex 3.96846 -0.501332 2
    endloop
  endfacet
  facet normal 0 0 1
    outer loop
      vertex 2.13088 0.547117 2
      vertex 3.87433 0.994759 2
      vertex 3.71911 1.4725 2
    endloop
  endfacet
  facet normal -0 0 1
    outer loop
      vertex 2.18265 -0.275733 2
      vertex 3.96846 -0.501332 2
      vertex 2.2 0 2
    endloop
  endfacet
  facet normal 0 0 1
    outer loop
      vertex 2.04551 0.809874 2
      vertex 3.71911 1.4725 2
      vertex 3.50523 1.92701 2
    endloop
  endfacet
  facet normal 0 0 1
    outer loop
      vertex 3.96846 -0.501332 2
      vertex 2.18265 -0.275733 2
      vertex 3.87433 -0.994759 2
    endloop
  endfacet
  facet normal 0 0 1
    outer loop
      vertex 1.92787 1.05986 2
      vertex 3.50523 1.92701 2
      vertex 3.23607 2.35114 2
    endloop
  endfacet
  facet normal -0 0 1
    outer loop
      vertex 2.13088 -0.547117 2
      vertex 3.87433 -0.994759 2
      vertex 2.18265 -0.275733 2
    endloop
  endfacet
  facet normal 0 0 1
    outer loop
      vertex 1.77984 1.29313 2
      vertex 3.23607 2.35114 2
      vertex 2.91587 2.73819 2
    endloop
  endfacet
  facet normal 0 0 1
    outer loop
      vertex 3.87433 -0.994759 2
      vertex 2.13088 -0.547117 2
      vertex 3.71911 -1.4725 2
    endloop
  endfacet
  facet normal 0 0 1
    outer loop
      vertex 1.60373 1.506 2
      vertex 2.91587 2.73819 2
      vertex 2.5497 3.08205 2
    endloop
  endfacet
  facet normal -0 0 1
    outer loop
      vertex 2.04551 -0.809874 2
      vertex 3.71911 -1.4725 2
      vertex 2.13088 -0.547117 2
    endloop
  endfacet
  facet normal 0 0 1
    outer loop
      vertex 3.71911 -1.4725 2
      vertex 2.04551 -0.809874 2
      vertex 3.50523 -1.92701 2
    endloop
  endfacet
  facet normal 0 0 1
    outer loop
      vertex 3.96846 0.501332 2
      vertex 2.18265 0.275733 2
      vertex 2.2 0 2
    endloop
  endfacet
  facet normal 0 0 1
    outer loop
      vertex 1.40233 1.69513 2
      vertex 2.5497 3.08205 2
      vertex 2.14331 3.37731 2
    endloop
  endfacet
  facet normal 0 0 1
    outer loop
      vertex 3.87433 0.994759 2
      vertex 2.13088 0.547117 2
      vertex 2.18265 0.275733 2
    endloop
  endfacet
  facet normal 0 0 1
    outer loop
      vertex 3.71911 1.4725 2
      vertex 2.04551 0.809874 2
      vertex 2.13088 0.547117 2
    endloop
  endfacet
  facet normal 0 0 1
    outer loop
      vertex 3.50523 1.92701 2
      vertex 1.92787 1.05986 2
      vertex 2.04551 0.809874 2
    endloop
  endfacet
  facet normal 0 0 1
    outer loop
      vertex 3.23607 2.35114 2
      vertex 1.77984 1.29313 2
      vertex 1.92787 1.05986 2
    endloop
  endfacet
  facet normal 0 0 1
    outer loop
      vertex 1.17882 1.85752 2
      vertex 2.14331 3.37731 2
      vertex 1.70312 3.61931 2
    endloop
  endfacet
  facet normal 0 0 1
    outer loop
      vertex 2.91587 2.73819 2
      vertex 1.60373 1.506 2
      vertex 1.77984 1.29313 2
    endloop
  endfacet
  facet normal 0 0 1
    outer loop
      vertex 2.5497 3.08205 2
      vertex 1.40233 1.69513 2
      vertex 1.60373 1.506 2
    endloop
  endfacet
  facet normal 0 0 1
    outer loop
      vertex 0.936714 1.99062 2
      vertex 1.70312 3.61931 2
      vertex 1.23607 3.80423 2
    endloop
  endfacet
  facet normal 0 0 1
    outer loop
      vertex 2.14331 3.37731 2
      vertex 1.17882 1.85752 2
      vertex 1.40233 1.69513 2
    endloop
  endfacet
  facet normal 0 0 1
    outer loop
      vertex 1.70312 3.61931 2
      vertex 0.936714 1.99062 2
      vertex 1.17882 1.85752 2
    endloop
  endfacet
  facet normal 0 0 1
    outer loop
      vertex 0.679837 2.09232 2
      vertex 1.23607 3.80423 2
      vertex 0.749525 3.92915 2
    endloop
  endfacet
  facet normal 0 0 1
    outer loop
      vertex 1.23607 3.80423 2
      vertex 0.679837 2.09232 2
      vertex 0.936714 1.99062 2
    endloop
  endfacet
  facet normal 0 0 1
    outer loop
      vertex 0.749525 3.92915 2
      vertex 0.412238 2.16103 2
      vertex 0.679837 2.09232 2
    endloop
  endfacet
  facet normal 0 0 1
    outer loop
      vertex 0.251162 3.99211 2
      vertex 0.412238 2.16103 2
      vertex 0.749525 3.92915 2
    endloop
  endfacet
  facet normal 0 0 1
    outer loop
      vertex 0.251162 3.99211 2
      vertex 0.138139 2.19566 2
      vertex 0.412238 2.16103 2
    endloop
  endfacet
  facet normal 0 0 1
    outer loop
      vertex 0.251162 3.99211 2
      vertex -0.138139 2.19566 2
      vertex 0.138139 2.19566 2
    endloop
  endfacet
  facet normal -0 0 1
    outer loop
      vertex -0.251162 3.99211 2
      vertex -0.138139 2.19566 2
      vertex 0.251162 3.99211 2
    endloop
  endfacet
  facet normal 0 0 1
    outer loop
      vertex -0.251162 3.99211 2
      vertex -0.412238 2.16103 2
      vertex -0.138139 2.19566 2
    endloop
  endfacet
  facet normal -0 0 1
    outer loop
      vertex -0.749525 3.92915 2
      vertex -0.412238 2.16103 2
      vertex -0.251162 3.99211 2
    endloop
  endfacet
  facet normal 0 0 1
    outer loop
      vertex -0.412238 2.16103 2
      vertex -0.749525 3.92915 2
      vertex -0.679837 2.09232 2
    endloop
  endfacet
  facet normal -0 0 1
    outer loop
      vertex -1.23607 3.80423 2
      vertex -0.679837 2.09232 2
      vertex -0.749525 3.92915 2
    endloop
  endfacet
  facet normal 0 0 1
    outer loop
      vertex -0.679837 2.09232 2
      vertex -1.23607 3.80423 2
      vertex -0.936714 1.99062 2
    endloop
  endfacet
  facet normal -0 0 1
    outer loop
      vertex -1.70312 3.61931 2
      vertex -0.936714 1.99062 2
      vertex -1.23607 3.80423 2
    endloop
  endfacet
  facet normal 0 0 1
    outer loop
      vertex -0.936714 1.99062 2
      vertex -1.70312 3.61931 2
      vertex -1.17882 1.85752 2
    endloop
  endfacet
  facet normal -0 0 1
    outer loop
      vertex -2.14331 3.37731 2
      vertex -1.17882 1.85752 2
      vertex -1.70312 3.61931 2
    endloop
  endfacet
  facet normal 0 0 1
    outer loop
      vertex -1.17882 1.85752 2
      vertex -2.14331 3.37731 2
      vertex -1.40233 1.69513 2
    endloop
  endfacet
  facet normal -0 0 1
    outer loop
      vertex -2.5497 3.08205 2
      vertex -1.40233 1.69513 2
      vertex -2.14331 3.37731 2
    endloop
  endfacet
  facet normal 0 0 1
    outer loop
      vertex -1.40233 1.69513 2
      vertex -2.5497 3.08205 2
      vertex -1.60373 1.506 2
    endloop
  endfacet
  facet normal -0 0 1
    outer loop
      vertex -2.91587 2.73819 2
      vertex -1.60373 1.506 2
      vertex -2.5497 3.08205 2
    endloop
  endfacet
  facet normal 0 0 1
    outer loop
      vertex -1.60373 1.506 2
      vertex -2.91587 2.73819 2
      vertex -1.77984 1.29313 2
    endloop
  endfacet
  facet normal -0 0 1
    outer loop
      vertex -3.23607 2.35114 2
      vertex -1.77984 1.29313 2
      vertex -2.91587 2.73819 2
    endloop
  endfacet
  facet normal 0 0 1
    outer loop
      vertex -1.77984 1.29313 2
      vertex -3.23607 2.35114 2
      vertex -1.92787 1.05986 2
    endloop
  endfacet
  facet normal -0 0 1
    outer loop
      vertex -3.50523 1.92701 2
      vertex -1.92787 1.05986 2
      vertex -3.23607 2.35114 2
    endloop
  endfacet
  facet normal 0 0 1
    outer loop
      vertex -1.92787 1.05986 2
      vertex -3.50523 1.92701 2
      vertex -2.04551 0.809874 2
    endloop
  endfacet
  facet normal -0 0 1
    outer loop
      vertex 1.92787 -1.05986 2
      vertex 3.50523 -1.92701 2
      vertex 2.04551 -0.809874 2
    endloop
  endfacet
  facet normal 0 0 1
    outer loop
      vertex 3.50523 -1.92701 2
      vertex 1.92787 -1.05986 2
      vertex 3.23607 -2.35114 2
    endloop
  endfacet
  facet normal -0 0 1
    outer loop
      vertex 1.77984 -1.29313 2
      vertex 3.23607 -2.35114 2
      vertex 1.92787 -1.05986 2
    endloop
  endfacet
  facet normal 0 0 1
    outer loop
      vertex 3.23607 -2.35114 2
      vertex 1.77984 -1.29313 2
      vertex 2.91587 -2.73819 2
    endloop
  endfacet
  facet normal -0 0 1
    outer loop
      vertex 1.60373 -1.506 2
      vertex 2.91587 -2.73819 2
      vertex 1.77984 -1.29313 2
    endloop
  endfacet
  facet normal 0 0 1
    outer loop
      vertex 2.91587 -2.73819 2
      vertex 1.60373 -1.506 2
      vertex 2.5497 -3.08205 2
    endloop
  endfacet
  facet normal -0 0 1
    outer loop
      vertex 1.40233 -1.69513 2
      vertex 2.5497 -3.08205 2
      vertex 1.60373 -1.506 2
    endloop
  endfacet
  facet normal 0 0 1
    outer loop
      vertex 2.5497 -3.08205 2
      vertex 1.40233 -1.69513 2
      vertex 2.14331 -3.37731 2
    endloop
  endfacet
  facet normal -0 0 1
    outer loop
      vertex 1.17882 -1.85752 2
      vertex 2.14331 -3.37731 2
      vertex 1.40233 -1.69513 2
    endloop
  endfacet
  facet normal 0 0 1
    outer loop
      vertex 2.14331 -3.37731 2
      vertex 1.17882 -1.85752 2
      vertex 1.70312 -3.61931 2
    endloop
  endfacet
  facet normal -0 0 1
    outer loop
      vertex 0.936714 -1.99062 2
      vertex 1.70312 -3.61931 2
      vertex 1.17882 -1.85752 2
    endloop
  endfacet
  facet normal 0 0 1
    outer loop
      vertex 1.70312 -3.61931 2
      vertex 0.936714 -1.99062 2
      vertex 1.23607 -3.80423 2
    endloop
  endfacet
  facet normal -0 0 1
    outer loop
      vertex 0.679837 -2.09232 2
      vertex 1.23607 -3.80423 2
      vertex 0.936714 -1.99062 2
    endloop
  endfacet
  facet normal 0 0 1
    outer loop
      vertex 1.23607 -3.80423 2
      vertex 0.679837 -2.09232 2
      vertex 0.749525 -3.92915 2
    endloop
  endfacet
  facet normal -0 0 1
    outer loop
      vertex 0.412238 -2.16103 2
      vertex 0.749525 -3.92915 2
      vertex 0.679837 -2.09232 2
    endloop
  endfacet
  facet normal 0 0 1
    outer loop
      vertex 0.412238 -2.16103 2
      vertex 0.251162 -3.99211 2
      vertex 0.749525 -3.92915 2
    endloop
  endfacet
  facet normal -0 0 1
    outer loop
      vertex 0.138139 -2.19566 2
      vertex 0.251162 -3.99211 2
      vertex 0.412238 -2.16103 2
    endloop
  endfacet
  facet normal -0 0 1
    outer loop
      vertex -0.138139 -2.19566 2
      vertex 0.251162 -3.99211 2
      vertex 0.138139 -2.19566 2
    endloop
  endfacet
  facet normal 0 0 1
    outer loop
      vertex -0.138139 -2.19566 2
      vertex -0.251162 -3.99211 2
      vertex 0.251162 -3.99211 2
    endloop
  endfacet
  facet normal 0 0 1
    outer loop
      vertex -0.412238 -2.16103 2
      vertex -0.251162 -3.99211 2
      vertex -0.138139 -2.19566 2
    endloop
  endfacet
  facet normal 0 0 1
    outer loop
      vertex -0.749525 -3.92915 2
      vertex -0.412238 -2.16103 2
      vertex -0.679837 -2.09232 2
    endloop
  endfacet
  facet normal 0 0 1
    outer loop
      vertex -0.412238 -2.16103 2
      vertex -0.749525 -3.92915 2
      vertex -0.251162 -3.99211 2
    endloop
  endfacet
  facet normal 0 0 1
    outer loop
      vertex -1.23607 -3.80423 2
      vertex -0.679837 -2.09232 2
      vertex -0.936714 -1.99062 2
    endloop
  endfacet
  facet normal 0 0 1
    outer loop
      vertex -1.70312 -3.61931 2
      vertex -0.936714 -1.99062 2
      vertex -1.17882 -1.85752 2
    endloop
  endfacet
  facet normal 0 0 1
    outer loop
      vertex -0.679837 -2.09232 2
      vertex -1.23607 -3.80423 2
      vertex -0.749525 -3.92915 2
    endloop
  endfacet
  facet normal 0 0 1
    outer loop
      vertex -2.14331 -3.37731 2
      vertex -1.17882 -1.85752 2
      vertex -1.40233 -1.69513 2
    endloop
  endfacet
  facet normal 0 0 1
    outer loop
      vertex -2.5497 -3.08205 2
      vertex -1.40233 -1.69513 2
      vertex -1.60373 -1.506 2
    endloop
  endfacet
  facet normal 0 0 1
    outer loop
      vertex -0.936714 -1.99062 2
      vertex -1.70312 -3.61931 2
      vertex -1.23607 -3.80423 2
    endloop
  endfacet
  facet normal 0 0 1
    outer loop
      vertex -2.91587 -2.73819 2
      vertex -1.60373 -1.506 2
      vertex -1.77984 -1.29313 2
    endloop
  endfacet
  facet normal 0 0 1
    outer loop
      vertex -3.23607 -2.35114 2
      vertex -1.77984 -1.29313 2
      vertex -1.92787 -1.05986 2
    endloop
  endfacet
  facet normal 0 0 1
    outer loop
      vertex -3.50523 -1.92701 2
      vertex -1.92787 -1.05986 2
      vertex -2.04551 -0.809874 2
    endloop
  endfacet
  facet normal 0 0 1
    outer loop
      vertex -3.71911 -1.4725 2
      vertex -2.04551 -0.809874 2
      vertex -2.13088 -0.547117 2
    endloop
  endfacet
  facet normal 0 0 1
    outer loop
      vertex -1.17882 -1.85752 2
      vertex -2.14331 -3.37731 2
      vertex -1.70312 -3.61931 2
    endloop
  endfacet
  facet normal 0 0 1
    outer loop
      vertex -3.87433 -0.994759 2
      vertex -2.13088 -0.547117 2
      vertex -2.18265 -0.275733 2
    endloop
  endfacet
  facet normal 0 0 1
    outer loop
      vertex -3.96846 -0.501332 2
      vertex -2.18265 -0.275733 2
      vertex -2.2 0 2
    endloop
  endfacet
  facet normal -0 0 1
    outer loop
      vertex -3.71911 1.4725 2
      vertex -2.04551 0.809874 2
      vertex -3.50523 1.92701 2
    endloop
  endfacet
  facet normal 0 0 1
    outer loop
      vertex -1.40233 -1.69513 2
      vertex -2.5497 -3.08205 2
      vertex -2.14331 -3.37731 2
    endloop
  endfacet
  facet normal 0 0 1
    outer loop
      vertex -2.04551 0.809874 2
      vertex -3.71911 1.4725 2
      vertex -2.13088 0.547117 2
    endloop
  endfacet
  facet normal 0 0 1
    outer loop
      vertex -1.60373 -1.506 2
      vertex -2.91587 -2.73819 2
      vertex -2.5497 -3.08205 2
    endloop
  endfacet
  facet normal -0 0 1
    outer loop
      vertex -3.87433 0.994759 2
      vertex -2.13088 0.547117 2
      vertex -3.71911 1.4725 2
    endloop
  endfacet
  facet normal 0 0 1
    outer loop
      vertex -1.77984 -1.29313 2
      vertex -3.23607 -2.35114 2
      vertex -2.91587 -2.73819 2
    endloop
  endfacet
  facet normal 0 0 1
    outer loop
      vertex -2.13088 0.547117 2
      vertex -3.87433 0.994759 2
      vertex -2.18265 0.275733 2
    endloop
  endfacet
  facet normal 0 0 1
    outer loop
      vertex -1.92787 -1.05986 2
      vertex -3.50523 -1.92701 2
      vertex -3.23607 -2.35114 2
    endloop
  endfacet
  facet normal -0 0 1
    outer loop
      vertex -3.96846 0.501332 2
      vertex -2.18265 0.275733 2
      vertex -3.87433 0.994759 2
    endloop
  endfacet
  facet normal 0 0 1
    outer loop
      vertex -2.04551 -0.809874 2
      vertex -3.71911 -1.4725 2
      vertex -3.50523 -1.92701 2
    endloop
  endfacet
  facet normal 0 0 1
    outer loop
      vertex -2.18265 0.275733 2
      vertex -3.96846 0.501332 2
      vertex -2.2 0 2
    endloop
  endfacet
  facet normal 0 0 1
    outer loop
      vertex -2.13088 -0.547117 2
      vertex -3.87433 -0.994759 2
      vertex -3.71911 -1.4725 2
    endloop
  endfacet
  facet normal 0 0 1
    outer loop
      vertex -4 0 2
      vertex -2.2 0 2
      vertex -3.96846 0.501332 2
    endloop
  endfacet
  facet normal 0 0 1
    outer loop
      vertex -2.18265 -0.275733 2
      vertex -3.96846 -0.501332 2
      vertex -3.87433 -0.994759 2
    endloop
  endfacet
  facet normal 0 0 1
    outer loop
      vertex -2.2 0 2
      vertex -4 0 2
      vertex -3.96846 -0.501332 2
    endloop
  endfacet
  facet normal -0.587786 0.809017 0
    outer loop
      vertex -2.14331 3.37731 0
      vertex -2.5497 3.08205 2
      vertex -2.14331 3.37731 2
    endloop
  endfacet
  facet normal -0.587786 0.809017 0
    outer loop
      vertex -2.5497 3.08205 2
      vertex -2.14331 3.37731 0
      vertex -2.5497 3.08205 0
    endloop
  endfacet
  facet normal -0.125337 0.992114 0
    outer loop
      vertex -0.251162 3.99211 0
      vertex -0.749525 3.92915 2
      vertex -0.251162 3.99211 2
    endloop
  endfacet
  facet normal -0.125337 0.992114 0
    outer loop
      vertex -0.749525 3.92915 2
      vertex -0.251162 3.99211 0
      vertex -0.749525 3.92915 0
    endloop
  endfacet
  facet normal 0.770509 -0.637429 0
    outer loop
      vertex 2.91587 -2.73819 2
      vertex 3.23607 -2.35114 0
      vertex 3.23607 -2.35114 2
    endloop
  endfacet
  facet normal 0.770509 -0.637429 0
    outer loop
      vertex 3.23607 -2.35114 0
      vertex 2.91587 -2.73819 2
      vertex 2.91587 -2.73819 0
    endloop
  endfacet
  facet normal 0.951061 -0.309004 0
    outer loop
      vertex 3.71911 -1.4725 2
      vertex 3.87433 -0.994759 0
      vertex 3.87433 -0.994759 2
    endloop
  endfacet
  facet normal 0.951061 -0.309004 0
    outer loop
      vertex 3.87433 -0.994759 0
      vertex 3.71911 -1.4725 2
      vertex 3.71911 -1.4725 0
    endloop
  endfacet
  facet normal 0.982286 -0.187389 0
    outer loop
      vertex 3.87433 -0.994759 2
      vertex 3.96846 -0.501332 0
      vertex 3.96846 -0.501332 2
    endloop
  endfacet
  facet normal 0.982286 -0.187389 0
    outer loop
      vertex 3.96846 -0.501332 0
      vertex 3.87433 -0.994759 2
      vertex 3.87433 -0.994759 0
    endloop
  endfacet
  facet normal -0.368128 -0.929775 0
    outer loop
      vertex -1.70312 -3.61931 0
      vertex -1.23607 -3.80423 2
      vertex -1.70312 -3.61931 2
    endloop
  endfacet
  facet normal -0.368128 -0.929775 -0
    outer loop
      vertex -1.23607 -3.80423 2
      vertex -1.70312 -3.61931 0
      vertex -1.23607 -3.80423 0
    endloop
  endfacet
  facet normal 0 0 -1
    outer loop
      vertex 2.2 0 0
      vertex 4 0 0
      vertex 3.96846 -0.501332 0
    endloop
  endfacet
  facet normal 0 0 -1
    outer loop
      vertex 2.18265 -0.275733 0
      vertex 3.96846 -0.501332 0
      vertex 3.87433 -0.994759 0
    endloop
  endfacet
  facet normal 0 0 -1
    outer loop
      vertex 4 0 0
      vertex 2.2 0 0
      vertex 3.96846 0.501332 0
    endloop
  endfacet
  facet normal 0 0 -1
    outer loop
      vertex 2.13088 -0.547117 0
      vertex 3.87433 -0.994759 0
      vertex 3.71911 -1.4725 0
    endloop
  endfacet
  facet normal 0 0 -1
    outer loop
      vertex 2.18265 0.275733 0
      vertex 3.96846 0.501332 0
      vertex 2.2 0 0
    endloop
  endfacet
  facet normal 0 0 -1
    outer loop
      vertex 2.04551 -0.809874 0
      vertex 3.71911 -1.4725 0
      vertex 3.50523 -1.92701 0
    endloop
  endfacet
  facet normal -0 0 -1
    outer loop
      vertex 3.96846 0.501332 0
      vertex 2.18265 0.275733 0
      vertex 3.87433 0.994759 0
    endloop
  endfacet
  facet normal 0 0 -1
    outer loop
      vertex 1.92787 -1.05986 0
      vertex 3.50523 -1.92701 0
      vertex 3.23607 -2.35114 0
    endloop
  endfacet
  facet normal 0 0 -1
    outer loop
      vertex 2.13088 0.547117 0
      vertex 3.87433 0.994759 0
      vertex 2.18265 0.275733 0
    endloop
  endfacet
  facet normal 0 0 -1
    outer loop
      vertex 1.77984 -1.29313 0
      vertex 3.23607 -2.35114 0
      vertex 2.91587 -2.73819 0
    endloop
  endfacet
  facet normal -0 0 -1
    outer loop
      vertex 3.87433 0.994759 0
      vertex 2.13088 0.547117 0
      vertex 3.71911 1.4725 0
    endloop
  endfacet
  facet normal 0 0 -1
    outer loop
      vertex 1.60373 -1.506 0
      vertex 2.91587 -2.73819 0
      vertex 2.5497 -3.08205 0
    endloop
  endfacet
  facet normal 0 0 -1
    outer loop
      vertex 2.04551 0.809874 0
      vertex 3.71911 1.4725 0
      vertex 2.13088 0.547117 0
    endloop
  endfacet
  facet normal -0 0 -1
    outer loop
      vertex 3.71911 1.4725 0
      vertex 2.04551 0.809874 0
      vertex 3.50523 1.92701 0
    endloop
  endfacet
  facet normal 0 0 -1
    outer loop
      vertex 3.96846 -0.501332 0
      vertex 2.18265 -0.275733 0
      vertex 2.2 0 0
    endloop
  endfacet
  facet normal 0 0 -1
    outer loop
      vertex 1.40233 -1.69513 0
      vertex 2.5497 -3.08205 0
      vertex 2.14331 -3.37731 0
    endloop
  endfacet
  facet normal 0 0 -1
    outer loop
      vertex 3.87433 -0.994759 0
      vertex 2.13088 -0.547117 0
      vertex 2.18265 -0.275733 0
    endloop
  endfacet
  facet normal 0 0 -1
    outer loop
      vertex 3.71911 -1.4725 0
      vertex 2.04551 -0.809874 0
      vertex 2.13088 -0.547117 0
    endloop
  endfacet
  facet normal 0 0 -1
    outer loop
      vertex 3.50523 -1.92701 0
      vertex 1.92787 -1.05986 0
      vertex 2.04551 -0.809874 0
    endloop
  endfacet
  facet normal 0 0 -1
    outer loop
      vertex 3.23607 -2.35114 0
      vertex 1.77984 -1.29313 0
      vertex 1.92787 -1.05986 0
    endloop
  endfacet
  facet normal 0 0 -1
    outer loop
      vertex 1.17882 -1.85752 0
      vertex 2.14331 -3.37731 0
      vertex 1.70312 -3.61931 0
    endloop
  endfacet
  facet normal 0 0 -1
    outer loop
      vertex 2.91587 -2.73819 0
      vertex 1.60373 -1.506 0
      vertex 1.77984 -1.29313 0
    endloop
  endfacet
  facet normal 0 0 -1
    outer loop
      vertex 2.5497 -3.08205 0
      vertex 1.40233 -1.69513 0
      vertex 1.60373 -1.506 0
    endloop
  endfacet
  facet normal 0 0 -1
    outer loop
      vertex 0.936714 -1.99062 0
      vertex 1.70312 -3.61931 0
      vertex 1.23607 -3.80423 0
    endloop
  endfacet
  facet normal 0 0 -1
    outer loop
      vertex 2.14331 -3.37731 0
      vertex 1.17882 -1.85752 0
      vertex 1.40233 -1.69513 0
    endloop
  endfacet
  facet normal 0 0 -1
    outer loop
      vertex 1.70312 -3.61931 0
      vertex 0.936714 -1.99062 0
      vertex 1.17882 -1.85752 0
    endloop
  endfacet
  facet normal 0 0 -1
    outer loop
      vertex 0.679837 -2.09232 0
      vertex 1.23607 -3.80423 0
      vertex 0.749525 -3.92915 0
    endloop
  endfacet
  facet normal 0 0 -1
    outer loop
      vertex 1.23607 -3.80423 0
      vertex 0.679837 -2.09232 0
      vertex 0.936714 -1.99062 0
    endloop
  endfacet
  facet normal 0 0 -1
    outer loop
      vertex 0.749525 -3.92915 0
      vertex 0.412238 -2.16103 0
      vertex 0.679837 -2.09232 0
    endloop
  endfacet
  facet normal 0 0 -1
    outer loop
      vertex 0.251162 -3.99211 0
      vertex 0.412238 -2.16103 0
      vertex 0.749525 -3.92915 0
    endloop
  endfacet
  facet normal 0 0 -1
    outer loop
      vertex 0.251162 -3.99211 0
      vertex 0.138139 -2.19566 0
      vertex 0.412238 -2.16103 0
    endloop
  endfacet
  facet normal 0 0 -1
    outer loop
      vertex 0.251162 -3.99211 0
      vertex -0.138139 -2.19566 0
      vertex 0.138139 -2.19566 0
    endloop
  endfacet
  facet normal 0 0 -1
    outer loop
      vertex -0.251162 -3.99211 0
      vertex -0.138139 -2.19566 0
      vertex 0.251162 -3.99211 0
    endloop
  endfacet
  facet normal 0 0 -1
    outer loop
      vertex -0.251162 -3.99211 0
      vertex -0.412238 -2.16103 0
      vertex -0.138139 -2.19566 0
    endloop
  endfacet
  facet normal 0 0 -1
    outer loop
      vertex -0.749525 -3.92915 0
      vertex -0.412238 -2.16103 0
      vertex -0.251162 -3.99211 0
    endloop
  endfacet
  facet normal -0 0 -1
    outer loop
      vertex -0.412238 -2.16103 0
      vertex -0.749525 -3.92915 0
      vertex -0.679837 -2.09232 0
    endloop
  endfacet
  facet normal 0 0 -1
    outer loop
      vertex -1.23607 -3.80423 0
      vertex -0.679837 -2.09232 0
      vertex -0.749525 -3.92915 0
    endloop
  endfacet
  facet normal -0 0 -1
    outer loop
      vertex -0.679837 -2.09232 0
      vertex -1.23607 -3.80423 0
      vertex -0.936714 -1.99062 0
    endloop
  endfacet
  facet normal 0 0 -1
    outer loop
      vertex -1.70312 -3.61931 0
      vertex -0.936714 -1.99062 0
      vertex -1.23607 -3.80423 0
    endloop
  endfacet
  facet normal -0 0 -1
    outer loop
      vertex -0.936714 -1.99062 0
      vertex -1.70312 -3.61931 0
      vertex -1.17882 -1.85752 0
    endloop
  endfacet
  facet normal 0 0 -1
    outer loop
      vertex -2.14331 -3.37731 0
      vertex -1.17882 -1.85752 0
      vertex -1.70312 -3.61931 0
    endloop
  endfacet
  facet normal -0 0 -1
    outer loop
      vertex -1.17882 -1.85752 0
      vertex -2.14331 -3.37731 0
      vertex -1.40233 -1.69513 0
    endloop
  endfacet
  facet normal 0 0 -1
    outer loop
      vertex -2.5497 -3.08205 0
      vertex -1.40233 -1.69513 0
      vertex -2.14331 -3.37731 0
    endloop
  endfacet
  facet normal -0 0 -1
    outer loop
      vertex -1.40233 -1.69513 0
      vertex -2.5497 -3.08205 0
      vertex -1.60373 -1.506 0
    endloop
  endfacet
  facet normal 0 0 -1
    outer loop
      vertex -2.91587 -2.73819 0
      vertex -1.60373 -1.506 0
      vertex -2.5497 -3.08205 0
    endloop
  endfacet
  facet normal -0 0 -1
    outer loop
      vertex -1.60373 -1.506 0
      vertex -2.91587 -2.73819 0
      vertex -1.77984 -1.29313 0
    endloop
  endfacet
  facet normal 0 0 -1
    outer loop
      vertex -3.23607 -2.35114 0
      vertex -1.77984 -1.29313 0
      vertex -2.91587 -2.73819 0
    endloop
  endfacet
  facet normal -0 0 -1
    outer loop
      vertex -1.77984 -1.29313 0
      vertex -3.23607 -2.35114 0
      vertex -1.92787 -1.05986 0
    endloop
  endfacet
  facet normal 0 0 -1
    outer loop
      vertex -3.50523 -1.92701 0
      vertex -1.92787 -1.05986 0
      vertex -3.23607 -2.35114 0
    endloop
  endfacet
  facet normal -0 0 -1
    outer loop
      vertex -1.92787 -1.05986 0
      vertex -3.50523 -1.92701 0
      vertex -2.04551 -0.809874 0
    endloop
  endfacet
  facet normal 0 0 -1
    outer loop
      vertex 1.92787 1.05986 0
      vertex 3.50523 1.92701 0
      vertex 2.04551 0.809874 0
    endloop
  endfacet
  facet normal -0 0 -1
    outer loop
      vertex 3.50523 1.92701 0
      vertex 1.92787 1.05986 0
      vertex 3.23607 2.35114 0
    endloop
  endfacet
  facet normal 0 0 -1
    outer loop
      vertex 1.77984 1.29313 0
      vertex 3.23607 2.35114 0
      vertex 1.92787 1.05986 0
    endloop
  endfacet
  facet normal -0 0 -1
    outer loop
      vertex 3.23607 2.35114 0
      vertex 1.77984 1.29313 0
      vertex 2.91587 2.73819 0
    endloop
  endfacet
  facet normal 0 0 -1
    outer loop
      vertex 1.60373 1.506 0
      vertex 2.91587 2.73819 0
      vertex 1.77984 1.29313 0
    endloop
  endfacet
  facet normal -0 0 -1
    outer loop
      vertex 2.91587 2.73819 0
      vertex 1.60373 1.506 0
      vertex 2.5497 3.08205 0
    endloop
  endfacet
  facet normal 0 0 -1
    outer loop
      vertex 1.40233 1.69513 0
      vertex 2.5497 3.08205 0
      vertex 1.60373 1.506 0
    endloop
  endfacet
  facet normal -0 0 -1
    outer loop
      vertex 2.5497 3.08205 0
      vertex 1.40233 1.69513 0
      vertex 2.14331 3.37731 0
    endloop
  endfacet
  facet normal 0 0 -1
    outer loop
      vertex 1.17882 1.85752 0
      vertex 2.14331 3.37731 0
      vertex 1.40233 1.69513 0
    endloop
  endfacet
  facet normal -0 0 -1
    outer loop
      vertex 2.14331 3.37731 0
      vertex 1.17882 1.85752 0
      vertex 1.70312 3.61931 0
    endloop
  endfacet
  facet normal 0 0 -1
    outer loop
      vertex 0.936714 1.99062 0
      vertex 1.70312 3.61931 0
      vertex 1.17882 1.85752 0
    endloop
  endfacet
  facet normal -0 0 -1
    outer loop
      vertex 1.70312 3.61931 0
      vertex 0.936714 1.99062 0
      vertex 1.23607 3.80423 0
    endloop
  endfacet
  facet normal 0 0 -1
    outer loop
      vertex 0.679837 2.09232 0
      vertex 1.23607 3.80423 0
      vertex 0.936714 1.99062 0
    endloop
  endfacet
  facet normal -0 0 -1
    outer loop
      vertex 1.23607 3.80423 0
      vertex 0.679837 2.09232 0
      vertex 0.749525 3.92915 0
    endloop
  endfacet
  facet normal 0 0 -1
    outer loop
      vertex 0.412238 2.16103 0
      vertex 0.749525 3.92915 0
      vertex 0.679837 2.09232 0
    endloop
  endfacet
  facet normal 0 0 -1
    outer loop
      vertex 0.412238 2.16103 0
      vertex 0.251162 3.99211 0
      vertex 0.749525 3.92915 0
    endloop
  endfacet
  facet normal 0 0 -1
    outer loop
      vertex 0.138139 2.19566 0
      vertex 0.251162 3.99211 0
      vertex 0.412238 2.16103 0
    endloop
  endfacet
  facet normal 0 0 -1
    outer loop
      vertex -0.138139 2.19566 0
      vertex 0.251162 3.99211 0
      vertex 0.138139 2.19566 0
    endloop
  endfacet
  facet normal 0 0 -1
    outer loop
      vertex -0.138139 2.19566 0
      vertex -0.251162 3.99211 0
      vertex 0.251162 3.99211 0
    endloop
  endfacet
  facet normal 0 0 -1
    outer loop
      vertex -0.412238 2.16103 0
      vertex -0.251162 3.99211 0
      vertex -0.138139 2.19566 0
    endloop
  endfacet
  facet normal 0 0 -1
    outer loop
      vertex -0.749525 3.92915 0
      vertex -0.412238 2.16103 0
      vertex -0.679837 2.09232 0
    endloop
  endfacet
  facet normal 0 0 -1
    outer loop
      vertex -0.412238 2.16103 0
      vertex -0.749525 3.92915 0
      vertex -0.251162 3.99211 0
    endloop
  endfacet
  facet normal 0 0 -1
    outer loop
      vertex -1.23607 3.80423 0
      vertex -0.679837 2.09232 0
      vertex -0.936714 1.99062 0
    endloop
  endfacet
  facet normal 0 0 -1
    outer loop
      vertex -1.70312 3.61931 0
      vertex -0.936714 1.99062 0
      vertex -1.17882 1.85752 0
    endloop
  endfacet
  facet normal 0 0 -1
    outer loop
      vertex -0.679837 2.09232 0
      vertex -1.23607 3.80423 0
      vertex -0.749525 3.92915 0
    endloop
  endfacet
  facet normal 0 0 -1
    outer loop
      vertex -2.14331 3.37731 0
      vertex -1.17882 1.85752 0
      vertex -1.40233 1.69513 0
    endloop
  endfacet
  facet normal 0 0 -1
    outer loop
      vertex -2.5497 3.08205 0
      vertex -1.40233 1.69513 0
      vertex -1.60373 1.506 0
    endloop
  endfacet
  facet normal 0 0 -1
    outer loop
      vertex -0.936714 1.99062 0
      vertex -1.70312 3.61931 0
      vertex -1.23607 3.80423 0
    endloop
  endfacet
  facet normal 0 0 -1
    outer loop
      vertex -2.91587 2.73819 0
      vertex -1.60373 1.506 0
      vertex -1.77984 1.29313 0
    endloop
  endfacet
  facet normal 0 0 -1
    outer loop
      vertex -3.23607 2.35114 0
      vertex -1.77984 1.29313 0
      vertex -1.92787 1.05986 0
    endloop
  endfacet
  facet normal 0 0 -1
    outer loop
      vertex -3.50523 1.92701 0
      vertex -1.92787 1.05986 0
      vertex -2.04551 0.809874 0
    endloop
  endfacet
  facet normal 0 0 -1
    outer loop
      vertex -3.71911 1.4725 0
      vertex -2.04551 0.809874 0
      vertex -2.13088 0.547117 0
    endloop
  endfacet
  facet normal 0 0 -1
    outer loop
      vertex -1.17882 1.85752 0
      vertex -2.14331 3.37731 0
      vertex -1.70312 3.61931 0
    endloop
  endfacet
  facet normal 0 0 -1
    outer loop
      vertex -3.87433 0.994759 0
      vertex -2.13088 0.547117 0
      vertex -2.18265 0.275733 0
    endloop
  endfacet
  facet normal 0 0 -1
    outer loop
      vertex -3.96846 0.501332 0
      vertex -2.18265 0.275733 0
      vertex -2.2 0 0
    endloop
  endfacet
  facet normal 0 0 -1
    outer loop
      vertex -3.71911 -1.4725 0
      vertex -2.04551 -0.809874 0
      vertex -3.50523 -1.92701 0
    endloop
  endfacet
  facet normal 0 0 -1
    outer loop
      vertex -1.40233 1.69513 0
      vertex -2.5497 3.08205 0
      vertex -2.14331 3.37731 0
    endloop
  endfacet
  facet normal -0 0 -1
    outer loop
      vertex -2.04551 -0.809874 0
      vertex -3.71911 -1.4725 0
      vertex -2.13088 -0.547117 0
    endloop
  endfacet
  facet normal 0 0 -1
    outer loop
      vertex -1.60373 1.506 0
      vertex -2.91587 2.73819 0
      vertex -2.5497 3.08205 0
    endloop
  endfacet
  facet normal 0 0 -1
    outer loop
      vertex -3.87433 -0.994759 0
      vertex -2.13088 -0.547117 0
      vertex -3.71911 -1.4725 0
    endloop
  endfacet
  facet normal 0 0 -1
    outer loop
      vertex -1.77984 1.29313 0
      vertex -3.23607 2.35114 0
      vertex -2.91587 2.73819 0
    endloop
  endfacet
  facet normal -0 0 -1
    outer loop
      vertex -2.13088 -0.547117 0
      vertex -3.87433 -0.994759 0
      vertex -2.18265 -0.275733 0
    endloop
  endfacet
  facet normal 0 0 -1
    outer loop
      vertex -1.92787 1.05986 0
      vertex -3.50523 1.92701 0
      vertex -3.23607 2.35114 0
    endloop
  endfacet
  facet normal 0 0 -1
    outer loop
      vertex -3.96846 -0.501332 0
      vertex -2.18265 -0.275733 0
      vertex -3.87433 -0.994759 0
    endloop
  endfacet
  facet normal 0 0 -1
    outer loop
      vertex -2.04551 0.809874 0
      vertex -3.71911 1.4725 0
      vertex -3.50523 1.92701 0
    endloop
  endfacet
  facet normal -0 0 -1
    outer loop
      vertex -2.18265 -0.275733 0
      vertex -3.96846 -0.501332 0
      vertex -2.2 0 0
    endloop
  endfacet
  facet normal 0 0 -1
    outer loop
      vertex -2.13088 0.547117 0
      vertex -3.87433 0.994759 0
      vertex -3.71911 1.4725 0
    endloop
  endfacet
  facet normal 0 0 -1
    outer loop
      vertex -4 0 0
      vertex -2.2 0 0
      vertex -3.96846 -0.501332 0
    endloop
  endfacet
  facet normal 0 0 -1
    outer loop
      vertex -2.18265 0.275733 0
      vertex -3.96846 0.501332 0
      vertex -3.87433 0.994759 0
    endloop
  endfacet
  facet normal 0 0 -1
    outer loop
      vertex -2.2 0 0
      vertex -4 0 0
      vertex -3.96846 0.501332 0
    endloop
  endfacet
  facet normal 0.368128 -0.929775 0
    outer loop
      vertex 1.23607 -3.80423 0
      vertex 1.70312 -3.61931 2
      vertex 1.23607 -3.80423 2
    endloop
  endfacet
  facet normal 0.368128 -0.929775 0
    outer loop
      vertex 1.70312 -3.61931 2
      vertex 1.23607 -3.80423 0
      vertex 1.70312 -3.61931 0
    endloop
  endfacet
  facet normal 0.481759 0.876304 -0
    outer loop
      vertex 2.14331 3.37731 0
      vertex 1.70312 3.61931 2
      vertex 2.14331 3.37731 2
    endloop
  endfacet
  facet normal 0.481759 0.876304 0
    outer loop
      vertex 1.70312 3.61931 2
      vertex 2.14331 3.37731 0
      vertex 1.70312 3.61931 0
    endloop
  endfacet
  facet normal 0.481759 -0.876304 0
    outer loop
      vertex 1.70312 -3.61931 0
      vertex 2.14331 -3.37731 2
      vertex 1.70312 -3.61931 2
    endloop
  endfacet
  facet normal 0.481759 -0.876304 0
    outer loop
      vertex 2.14331 -3.37731 2
      vertex 1.70312 -3.61931 0
      vertex 2.14331 -3.37731 0
    endloop
  endfacet
  facet normal 0.844329 -0.535825 0
    outer loop
      vertex 3.23607 -2.35114 2
      vertex 3.50523 -1.92701 0
      vertex 3.50523 -1.92701 2
    endloop
  endfacet
  facet normal 0.844329 -0.535825 0
    outer loop
      vertex 3.50523 -1.92701 0
      vertex 3.23607 -2.35114 2
      vertex 3.23607 -2.35114 0
    endloop
  endfacet
  facet normal 0.998027 -0.0627883 0
    outer loop
      vertex 3.96846 -0.501332 2
      vertex 4 0 0
      vertex 4 0 2
    endloop
  endfacet
  facet normal 0.998027 -0.0627883 0
    outer loop
      vertex 4 0 0
      vertex 3.96846 -0.501332 2
      vertex 3.96846 -0.501332 0
    endloop
  endfacet
  facet normal -0.248683 -0.968585 0
    outer loop
      vertex -1.23607 -3.80423 0
      vertex -0.749525 -3.92915 2
      vertex -1.23607 -3.80423 2
    endloop
  endfacet
  facet normal -0.248683 -0.968585 -0
    outer loop
      vertex -0.749525 -3.92915 2
      vertex -1.23607 -3.80423 0
      vertex -0.749525 -3.92915 0
    endloop
  endfacet
  facet normal -0.770509 -0.637429 0
    outer loop
      vertex -2.91587 -2.73819 0
      vertex -3.23607 -2.35114 2
      vertex -3.23607 -2.35114 0
    endloop
  endfacet
  facet normal -0.770509 -0.637429 0
    outer loop
      vertex -3.23607 -2.35114 2
      vertex -2.91587 -2.73819 0
      vertex -2.91587 -2.73819 2
    endloop
  endfacet
  facet normal -0.951061 -0.309004 0
    outer loop
      vertex -3.71911 -1.4725 0
      vertex -3.87433 -0.994759 2
      vertex -3.87433 -0.994759 0
    endloop
  endfacet
  facet normal -0.951061 -0.309004 0
    outer loop
      vertex -3.87433 -0.994759 2
      vertex -3.71911 -1.4725 0
      vertex -3.71911 -1.4725 2
    endloop
  endfacet
  facet normal 0.248683 -0.968585 0
    outer loop
      vertex 0.749525 -3.92915 0
      vertex 1.23607 -3.80423 2
      vertex 0.749525 -3.92915 2
    endloop
  endfacet
  facet normal 0.248683 -0.968585 0
    outer loop
      vertex 1.23607 -3.80423 2
      vertex 0.749525 -3.92915 0
      vertex 1.23607 -3.80423 0
    endloop
  endfacet
  facet normal 0.684551 -0.728965 0
    outer loop
      vertex 2.5497 -3.08205 0
      vertex 2.91587 -2.73819 2
      vertex 2.5497 -3.08205 2
    endloop
  endfacet
  facet normal 0.684551 -0.728965 0
    outer loop
      vertex 2.91587 -2.73819 2
      vertex 2.5497 -3.08205 0
      vertex 2.91587 -2.73819 0
    endloop
  endfacet
  facet normal 0.587786 -0.809017 0
    outer loop
      vertex 2.14331 -3.37731 0
      vertex 2.5497 -3.08205 2
      vertex 2.14331 -3.37731 2
    endloop
  endfacet
  facet normal 0.587786 -0.809017 0
    outer loop
      vertex 2.5497 -3.08205 2
      vertex 2.14331 -3.37731 0
      vertex 2.5497 -3.08205 0
    endloop
  endfacet
  facet normal 0.904824 -0.425786 0
    outer loop
      vertex 3.50523 -1.92701 2
      vertex 3.71911 -1.4725 0
      vertex 3.71911 -1.4725 2
    endloop
  endfacet
  facet normal 0.904824 -0.425786 0
    outer loop
      vertex 3.71911 -1.4725 0
      vertex 3.50523 -1.92701 2
      vertex 3.50523 -1.92701 0
    endloop
  endfacet
  facet normal -0.125337 -0.992114 0
    outer loop
      vertex -0.749525 -3.92915 0
      vertex -0.251162 -3.99211 2
      vertex -0.749525 -3.92915 2
    endloop
  endfacet
  facet normal -0.125337 -0.992114 -0
    outer loop
      vertex -0.251162 -3.99211 2
      vertex -0.749525 -3.92915 0
      vertex -0.251162 -3.99211 0
    endloop
  endfacet
  facet normal -0.481759 -0.876304 0
    outer loop
      vertex -2.14331 -3.37731 0
      vertex -1.70312 -3.61931 2
      vertex -2.14331 -3.37731 2
    endloop
  endfacet
  facet normal -0.481759 -0.876304 -0
    outer loop
      vertex -1.70312 -3.61931 2
      vertex -2.14331 -3.37731 0
      vertex -1.70312 -3.61931 0
    endloop
  endfacet
  facet normal -0.844329 -0.535825 0
    outer loop
      vertex -3.23607 -2.35114 0
      vertex -3.50523 -1.92701 2
      vertex -3.50523 -1.92701 0
    endloop
  endfacet
  facet normal -0.844329 -0.535825 0
    outer loop
      vertex -3.50523 -1.92701 2
      vertex -3.23607 -2.35114 0
      vertex -3.23607 -2.35114 2
    endloop
  endfacet
  facet normal -0.904824 -0.425786 0
    outer loop
      vertex -3.50523 -1.92701 0
      vertex -3.71911 -1.4725 2
      vertex -3.71911 -1.4725 0
    endloop
  endfacet
  facet normal -0.904824 -0.425786 0
    outer loop
      vertex -3.71911 -1.4725 2
      vertex -3.50523 -1.92701 0
      vertex -3.50523 -1.92701 2
    endloop
  endfacet
  facet normal -0.982286 -0.187389 0
    outer loop
      vertex -3.87433 -0.994759 0
      vertex -3.96846 -0.501332 2
      vertex -3.96846 -0.501332 0
    endloop
  endfacet
  facet normal -0.982286 -0.187389 0
    outer loop
      vertex -3.96846 -0.501332 2
      vertex -3.87433 -0.994759 0
      vertex -3.87433 -0.994759 2
    endloop
  endfacet
  facet normal -0.998027 -0.0627883 0
    outer loop
      vertex -3.96846 -0.501332 0
      vertex -4 0 2
      vertex -4 0 0
    endloop
  endfacet
  facet normal -0.998027 -0.0627883 0
    outer loop
      vertex -4 0 2
      vertex -3.96846 -0.501332 0
      vertex -3.96846 -0.501332 2
    endloop
  endfacet
  facet normal -0.587786 -0.809017 0
    outer loop
      vertex -2.5497 -3.08205 0
      vertex -2.14331 -3.37731 2
      vertex -2.5497 -3.08205 2
    endloop
  endfacet
  facet normal -0.587786 -0.809017 -0
    outer loop
      vertex -2.14331 -3.37731 2
      vertex -2.5497 -3.08205 0
      vertex -2.14331 -3.37731 0
    endloop
  endfacet
  facet normal -0.684551 -0.728965 0
    outer loop
      vertex -2.91587 -2.73819 0
      vertex -2.5497 -3.08205 2
      vertex -2.91587 -2.73819 2
    endloop
  endfacet
  facet normal -0.684551 -0.728965 -0
    outer loop
      vertex -2.5497 -3.08205 2
      vertex -2.91587 -2.73819 0
      vertex -2.5497 -3.08205 0
    endloop
  endfacet
  facet normal -0.998026 -0.062799 0
    outer loop
      vertex 2.2 0 0
      vertex 2.18265 0.275733 2
      vertex 2.18265 0.275733 0
    endloop
  endfacet
  facet normal -0.998026 -0.062799 0
    outer loop
      vertex 2.18265 0.275733 2
      vertex 2.2 0 0
      vertex 2.2 0 2
    endloop
  endfacet
  facet normal 0.998026 -0.062799 0
    outer loop
      vertex -2.2 0 2
      vertex -2.18265 0.275733 0
      vertex -2.18265 0.275733 2
    endloop
  endfacet
  facet normal 0.998026 -0.062799 0
    outer loop
      vertex -2.18265 0.275733 0
      vertex -2.2 0 2
      vertex -2.2 0 0
    endloop
  endfacet
  facet normal 0 -1 0
    outer loop
      vertex -0.138139 2.19566 0
      vertex 0.138139 2.19566 2
      vertex -0.138139 2.19566 2
    endloop
  endfacet
  facet normal 0 -1 -0
    outer loop
      vertex 0.138139 2.19566 2
      vertex -0.138139 2.19566 0
      vertex 0.138139 2.19566 0
    endloop
  endfacet
  facet normal 0 1 -0
    outer loop
      vertex 0.138139 -2.19566 0
      vertex -0.138139 -2.19566 2
      vertex 0.138139 -2.19566 2
    endloop
  endfacet
  facet normal 0 1 0
    outer loop
      vertex -0.138139 -2.19566 2
      vertex 0.138139 -2.19566 0
      vertex -0.138139 -2.19566 0
    endloop
  endfacet
  facet normal -0.684553 0.728964 0
    outer loop
      vertex 1.60373 -1.506 0
      vertex 1.40233 -1.69513 2
      vertex 1.60373 -1.506 2
    endloop
  endfacet
  facet normal -0.684553 0.728964 0
    outer loop
      vertex 1.40233 -1.69513 2
      vertex 1.60373 -1.506 0
      vertex 1.40233 -1.69513 0
    endloop
  endfacet
  facet normal -0.684553 -0.728964 0
    outer loop
      vertex 1.40233 1.69513 0
      vertex 1.60373 1.506 2
      vertex 1.40233 1.69513 2
    endloop
  endfacet
  facet normal -0.684553 -0.728964 -0
    outer loop
      vertex 1.60373 1.506 2
      vertex 1.40233 1.69513 0
      vertex 1.60373 1.506 0
    endloop
  endfacet
  facet normal 0.684553 -0.728964 0
    outer loop
      vertex -1.60373 1.506 0
      vertex -1.40233 1.69513 2
      vertex -1.60373 1.506 2
    endloop
  endfacet
  facet normal 0.684553 -0.728964 0
    outer loop
      vertex -1.40233 1.69513 2
      vertex -1.60373 1.506 0
      vertex -1.40233 1.69513 0
    endloop
  endfacet
  facet normal 0.36811 -0.929782 0
    outer loop
      vertex -0.936714 1.99062 0
      vertex -0.679837 2.09232 2
      vertex -0.936714 1.99062 2
    endloop
  endfacet
  facet normal 0.36811 -0.929782 0
    outer loop
      vertex -0.679837 2.09232 2
      vertex -0.936714 1.99062 0
      vertex -0.679837 2.09232 0
    endloop
  endfacet
  facet normal -0.904819 -0.425796 0
    outer loop
      vertex 2.04551 0.809874 0
      vertex 1.92787 1.05986 2
      vertex 1.92787 1.05986 0
    endloop
  endfacet
  facet normal -0.904819 -0.425796 0
    outer loop
      vertex 1.92787 1.05986 2
      vertex 2.04551 0.809874 0
      vertex 2.04551 0.809874 2
    endloop
  endfacet
  facet normal -0.982287 -0.187384 0
    outer loop
      vertex 2.18265 0.275733 0
      vertex 2.13088 0.547117 2
      vertex 2.13088 0.547117 0
    endloop
  endfacet
  facet normal -0.982287 -0.187384 0
    outer loop
      vertex 2.13088 0.547117 2
      vertex 2.18265 0.275733 0
      vertex 2.18265 0.275733 2
    endloop
  endfacet
  facet normal -0.36811 -0.929782 0
    outer loop
      vertex 0.679837 2.09232 0
      vertex 0.936714 1.99062 2
      vertex 0.679837 2.09232 2
    endloop
  endfacet
  facet normal -0.36811 -0.929782 -0
    outer loop
      vertex 0.936714 1.99062 2
      vertex 0.679837 2.09232 0
      vertex 0.936714 1.99062 0
    endloop
  endfacet
  facet normal -0.587786 -0.809016 0
    outer loop
      vertex 1.17882 1.85752 0
      vertex 1.40233 1.69513 2
      vertex 1.17882 1.85752 2
    endloop
  endfacet
  facet normal -0.587786 -0.809016 -0
    outer loop
      vertex 1.40233 1.69513 2
      vertex 1.17882 1.85752 0
      vertex 1.40233 1.69513 0
    endloop
  endfacet
  facet normal 0.904819 -0.425796 0
    outer loop
      vertex -2.04551 0.809874 2
      vertex -1.92787 1.05986 0
      vertex -1.92787 1.05986 2
    endloop
  endfacet
  facet normal 0.904819 -0.425796 0
    outer loop
      vertex -1.92787 1.05986 0
      vertex -2.04551 0.809874 2
      vertex -2.04551 0.809874 0
    endloop
  endfacet
  facet normal 0.84434 -0.535807 0
    outer loop
      vertex -1.92787 1.05986 2
      vertex -1.77984 1.29313 0
      vertex -1.77984 1.29313 2
    endloop
  endfacet
  facet normal 0.84434 -0.535807 0
    outer loop
      vertex -1.77984 1.29313 0
      vertex -1.92787 1.05986 2
      vertex -1.92787 1.05986 0
    endloop
  endfacet
  facet normal 0.951062 -0.309001 0
    outer loop
      vertex -2.13088 0.547117 2
      vertex -2.04551 0.809874 0
      vertex -2.04551 0.809874 2
    endloop
  endfacet
  facet normal 0.951062 -0.309001 0
    outer loop
      vertex -2.04551 0.809874 0
      vertex -2.13088 0.547117 2
      vertex -2.13088 0.547117 0
    endloop
  endfacet
  facet normal 0.481757 -0.876305 0
    outer loop
      vertex -1.17882 1.85752 0
      vertex -0.936714 1.99062 2
      vertex -1.17882 1.85752 2
    endloop
  endfacet
  facet normal 0.481757 -0.876305 0
    outer loop
      vertex -0.936714 1.99062 2
      vertex -1.17882 1.85752 0
      vertex -0.936714 1.99062 0
    endloop
  endfacet
  facet normal 0.248698 -0.968581 0
    outer loop
      vertex -0.679837 2.09232 0
      vertex -0.412238 2.16103 2
      vertex -0.679837 2.09232 2
    endloop
  endfacet
  facet normal 0.248698 -0.968581 0
    outer loop
      vertex -0.412238 2.16103 2
      vertex -0.679837 2.09232 0
      vertex -0.412238 2.16103 0
    endloop
  endfacet
  facet normal -0.125345 0.992113 0
    outer loop
      vertex 0.412238 -2.16103 0
      vertex 0.138139 -2.19566 2
      vertex 0.412238 -2.16103 2
    endloop
  endfacet
  facet normal -0.125345 0.992113 0
    outer loop
      vertex 0.138139 -2.19566 2
      vertex 0.412238 -2.16103 0
      vertex 0.138139 -2.19566 0
    endloop
  endfacet
  facet normal -0.951062 -0.309001 0
    outer loop
      vertex 2.13088 0.547117 0
      vertex 2.04551 0.809874 2
      vertex 2.04551 0.809874 0
    endloop
  endfacet
  facet normal -0.951062 -0.309001 0
    outer loop
      vertex 2.04551 0.809874 2
      vertex 2.13088 0.547117 0
      vertex 2.13088 0.547117 2
    endloop
  endfacet
  facet normal -0.770498 -0.637443 0
    outer loop
      vertex 1.77984 1.29313 0
      vertex 1.60373 1.506 2
      vertex 1.60373 1.506 0
    endloop
  endfacet
  facet normal -0.770498 -0.637443 0
    outer loop
      vertex 1.60373 1.506 2
      vertex 1.77984 1.29313 0
      vertex 1.77984 1.29313 2
    endloop
  endfacet
  facet normal -0.84434 -0.535807 0
    outer loop
      vertex 1.92787 1.05986 0
      vertex 1.77984 1.29313 2
      vertex 1.77984 1.29313 0
    endloop
  endfacet
  facet normal -0.84434 -0.535807 0
    outer loop
      vertex 1.77984 1.29313 2
      vertex 1.92787 1.05986 0
      vertex 1.92787 1.05986 2
    endloop
  endfacet
  facet normal -0.248698 -0.968581 0
    outer loop
      vertex 0.412238 2.16103 0
      vertex 0.679837 2.09232 2
      vertex 0.412238 2.16103 2
    endloop
  endfacet
  facet normal -0.248698 -0.968581 -0
    outer loop
      vertex 0.679837 2.09232 2
      vertex 0.412238 2.16103 0
      vertex 0.679837 2.09232 0
    endloop
  endfacet
  facet normal -0.125345 -0.992113 0
    outer loop
      vertex 0.138139 2.19566 0
      vertex 0.412238 2.16103 2
      vertex 0.138139 2.19566 2
    endloop
  endfacet
  facet normal -0.125345 -0.992113 -0
    outer loop
      vertex 0.412238 2.16103 2
      vertex 0.138139 2.19566 0
      vertex 0.412238 2.16103 0
    endloop
  endfacet
  facet normal -0.481757 -0.876305 0
    outer loop
      vertex 0.936714 1.99062 0
      vertex 1.17882 1.85752 2
      vertex 0.936714 1.99062 2
    endloop
  endfacet
  facet normal -0.481757 -0.876305 -0
    outer loop
      vertex 1.17882 1.85752 2
      vertex 0.936714 1.99062 0
      vertex 1.17882 1.85752 0
    endloop
  endfacet
  facet normal 0.982287 -0.187384 0
    outer loop
      vertex -2.18265 0.275733 2
      vertex -2.13088 0.547117 0
      vertex -2.13088 0.547117 2
    endloop
  endfacet
  facet normal 0.982287 -0.187384 0
    outer loop
      vertex -2.13088 0.547117 0
      vertex -2.18265 0.275733 2
      vertex -2.18265 0.275733 0
    endloop
  endfacet
  facet normal 0.125345 -0.992113 0
    outer loop
      vertex -0.412238 2.16103 0
      vertex -0.138139 2.19566 2
      vertex -0.412238 2.16103 2
    endloop
  endfacet
  facet normal 0.125345 -0.992113 0
    outer loop
      vertex -0.138139 2.19566 2
      vertex -0.412238 2.16103 0
      vertex -0.138139 2.19566 0
    endloop
  endfacet
  facet normal -0.982287 0.187384 0
    outer loop
      vertex 2.13088 -0.547117 0
      vertex 2.18265 -0.275733 2
      vertex 2.18265 -0.275733 0
    endloop
  endfacet
  facet normal -0.982287 0.187384 0
    outer loop
      vertex 2.18265 -0.275733 2
      vertex 2.13088 -0.547117 0
      vertex 2.13088 -0.547117 2
    endloop
  endfacet
  facet normal 0.684553 0.728964 -0
    outer loop
      vertex -1.40233 -1.69513 0
      vertex -1.60373 -1.506 2
      vertex -1.40233 -1.69513 2
    endloop
  endfacet
  facet normal 0.684553 0.728964 0
    outer loop
      vertex -1.60373 -1.506 2
      vertex -1.40233 -1.69513 0
      vertex -1.60373 -1.506 0
    endloop
  endfacet
  facet normal 0.84434 0.535807 0
    outer loop
      vertex -1.77984 -1.29313 2
      vertex -1.92787 -1.05986 0
      vertex -1.92787 -1.05986 2
    endloop
  endfacet
  facet normal 0.84434 0.535807 0
    outer loop
      vertex -1.92787 -1.05986 0
      vertex -1.77984 -1.29313 2
      vertex -1.77984 -1.29313 0
    endloop
  endfacet
  facet normal 0.904819 0.425796 0
    outer loop
      vertex -1.92787 -1.05986 2
      vertex -2.04551 -0.809874 0
      vertex -2.04551 -0.809874 2
    endloop
  endfacet
  facet normal 0.904819 0.425796 0
    outer loop
      vertex -2.04551 -0.809874 0
      vertex -1.92787 -1.05986 2
      vertex -1.92787 -1.05986 0
    endloop
  endfacet
  facet normal -0.481757 0.876305 0
    outer loop
      vertex 1.17882 -1.85752 0
      vertex 0.936714 -1.99062 2
      vertex 1.17882 -1.85752 2
    endloop
  endfacet
  facet normal -0.481757 0.876305 0
    outer loop
      vertex 0.936714 -1.99062 2
      vertex 1.17882 -1.85752 0
      vertex 0.936714 -1.99062 0
    endloop
  endfacet
  facet normal -0.36811 0.929782 0
    outer loop
      vertex 0.936714 -1.99062 0
      vertex 0.679837 -2.09232 2
      vertex 0.936714 -1.99062 2
    endloop
  endfacet
  facet normal -0.36811 0.929782 0
    outer loop
      vertex 0.679837 -2.09232 2
      vertex 0.936714 -1.99062 0
      vertex 0.679837 -2.09232 0
    endloop
  endfacet
  facet normal 0.770498 -0.637443 0
    outer loop
      vertex -1.77984 1.29313 2
      vertex -1.60373 1.506 0
      vertex -1.60373 1.506 2
    endloop
  endfacet
  facet normal 0.770498 -0.637443 0
    outer loop
      vertex -1.60373 1.506 0
      vertex -1.77984 1.29313 2
      vertex -1.77984 1.29313 0
    endloop
  endfacet
  facet normal 0.587786 -0.809016 0
    outer loop
      vertex -1.40233 1.69513 0
      vertex -1.17882 1.85752 2
      vertex -1.40233 1.69513 2
    endloop
  endfacet
  facet normal 0.587786 -0.809016 0
    outer loop
      vertex -1.17882 1.85752 2
      vertex -1.40233 1.69513 0
      vertex -1.17882 1.85752 0
    endloop
  endfacet
  facet normal -0.770498 0.637443 0
    outer loop
      vertex 1.60373 -1.506 0
      vertex 1.77984 -1.29313 2
      vertex 1.77984 -1.29313 0
    endloop
  endfacet
  facet normal -0.770498 0.637443 0
    outer loop
      vertex 1.77984 -1.29313 2
      vertex 1.60373 -1.506 0
      vertex 1.60373 -1.506 2
    endloop
  endfacet
  facet normal -0.904819 0.425796 0
    outer loop
      vertex 1.92787 -1.05986 0
      vertex 2.04551 -0.809874 2
      vertex 2.04551 -0.809874 0
    endloop
  endfacet
  facet normal -0.904819 0.425796 0
    outer loop
      vertex 2.04551 -0.809874 2
      vertex 1.92787 -1.05986 0
      vertex 1.92787 -1.05986 2
    endloop
  endfacet
  facet normal -0.998026 0.062799 0
    outer loop
      vertex 2.18265 -0.275733 0
      vertex 2.2 0 2
      vertex 2.2 0 0
    endloop
  endfacet
  facet normal -0.998026 0.062799 0
    outer loop
      vertex 2.2 0 2
      vertex 2.18265 -0.275733 0
      vertex 2.18265 -0.275733 2
    endloop
  endfacet
  facet normal 0.951062 0.309001 0
    outer loop
      vertex -2.04551 -0.809874 2
      vertex -2.13088 -0.547117 0
      vertex -2.13088 -0.547117 2
    endloop
  endfacet
  facet normal 0.951062 0.309001 0
    outer loop
      vertex -2.13088 -0.547117 0
      vertex -2.04551 -0.809874 2
      vertex -2.04551 -0.809874 0
    endloop
  endfacet
  facet normal -0.587786 0.809016 0
    outer loop
      vertex 1.40233 -1.69513 0
      vertex 1.17882 -1.85752 2
      vertex 1.40233 -1.69513 2
    endloop
  endfacet
  facet normal -0.587786 0.809016 0
    outer loop
      vertex 1.17882 -1.85752 2
      vertex 1.40233 -1.69513 0
      vertex 1.17882 -1.85752 0
    endloop
  endfacet
  facet normal -0.248698 0.968581 0
    outer loop
      vertex 0.679837 -2.09232 0
      vertex 0.412238 -2.16103 2
      vertex 0.679837 -2.09232 2
    endloop
  endfacet
  facet normal -0.248698 0.968581 0
    outer loop
      vertex 0.412238 -2.16103 2
      vertex 0.679837 -2.09232 0
      vertex 0.412238 -2.16103 0
    endloop
  endfacet
  facet normal -0.84434 0.535807 0
    outer loop
      vertex 1.77984 -1.29313 0
      vertex 1.92787 -1.05986 2
      vertex 1.92787 -1.05986 0
    endloop
  endfacet
  facet normal -0.84434 0.535807 0
    outer loop
      vertex 1.92787 -1.05986 2
      vertex 1.77984 -1.29313 0
      vertex 1.77984 -1.29313 2
    endloop
  endfacet
  facet normal -0.951062 0.309001 0
    outer loop
      vertex 2.04551 -0.809874 0
      vertex 2.13088 -0.547117 2
      vertex 2.13088 -0.547117 0
    endloop
  endfacet
  facet normal -0.951062 0.309001 0
    outer loop
      vertex 2.13088 -0.547117 2
      vertex 2.04551 -0.809874 0
      vertex 2.04551 -0.809874 2
    endloop
  endfacet
  facet normal 0.248698 0.968581 -0
    outer loop
      vertex -0.412238 -2.16103 0
      vertex -0.679837 -2.09232 2
      vertex -0.412238 -2.16103 2
    endloop
  endfacet
  facet normal 0.248698 0.968581 0
    outer loop
      vertex -0.679837 -2.09232 2
      vertex -0.412238 -2.16103 0
      vertex -0.679837 -2.09232 0
    endloop
  endfacet
  facet normal 0.770498 0.637443 0
    outer loop
      vertex -1.60373 -1.506 2
      vertex -1.77984 -1.29313 0
      vertex -1.77984 -1.29313 2
    endloop
  endfacet
  facet normal 0.770498 0.637443 0
    outer loop
      vertex -1.77984 -1.29313 0
      vertex -1.60373 -1.506 2
      vertex -1.60373 -1.506 0
    endloop
  endfacet
  facet normal 0.982287 0.187384 0
    outer loop
      vertex -2.13088 -0.547117 2
      vertex -2.18265 -0.275733 0
      vertex -2.18265 -0.275733 2
    endloop
  endfacet
  facet normal 0.982287 0.187384 0
    outer loop
      vertex -2.18265 -0.275733 0
      vertex -2.13088 -0.547117 2
      vertex -2.13088 -0.547117 0
    endloop
  endfacet
  facet normal 0.998026 0.062799 0
    outer loop
      vertex -2.18265 -0.275733 2
      vertex -2.2 0 0
      vertex -2.2 0 2
    endloop
  endfacet
  facet normal 0.998026 0.062799 0
    outer loop
      vertex -2.2 0 0
      vertex -2.18265 -0.275733 2
      vertex -2.18265 -0.275733 0
    endloop
  endfacet
  facet normal 0.481757 0.876305 -0
    outer loop
      vertex -0.936714 -1.99062 0
      vertex -1.17882 -1.85752 2
      vertex -0.936714 -1.99062 2
    endloop
  endfacet
  facet normal 0.481757 0.876305 0
    outer loop
      vertex -1.17882 -1.85752 2
      vertex -0.936714 -1.99062 0
      vertex -1.17882 -1.85752 0
    endloop
  endfacet
  facet normal 0.587786 0.809016 -0
    outer loop
      vertex -1.17882 -1.85752 0
      vertex -1.40233 -1.69513 2
      vertex -1.17882 -1.85752 2
    endloop
  endfacet
  facet normal 0.587786 0.809016 0
    outer loop
      vertex -1.40233 -1.69513 2
      vertex -1.17882 -1.85752 0
      vertex -1.40233 -1.69513 0
    endloop
  endfacet
  facet normal 0.125345 0.992113 -0
    outer loop
      vertex -0.138139 -2.19566 0
      vertex -0.412238 -2.16103 2
      vertex -0.138139 -2.19566 2
    endloop
  endfacet
  facet normal 0.125345 0.992113 0
    outer loop
      vertex -0.412238 -2.16103 2
      vertex -0.138139 -2.19566 0
      vertex -0.412238 -2.16103 0
    endloop
  endfacet
  facet normal 0.36811 0.929782 -0
    outer loop
      vertex -0.679837 -2.09232 0
      vertex -0.936714 -1.99062 2
      vertex -0.679837 -2.09232 2
    endloop
  endfacet
  facet normal 0.36811 0.929782 0
    outer loop
      vertex -0.936714 -1.99062 2
      vertex -0.679837 -2.09232 0
      vertex -0.936714 -1.99062 0
    endloop
  endfacet
endsolid OpenSCAD_Model
