solid OpenSCAD_Model
  facet normal 0 0 -1
    outer loop
      vertex -13.5 -6.5 0
      vertex -8.670978561128003 -2.30050344458544 0
      vertex -8.375 -2.5155444566227674 0
    endloop
  endfacet
  facet normal 0 0 -1
    outer loop
      vertex -13.5 -6.5 0
      vertex -8.915779740156157 -2.028624191511828 0
      vertex -8.670978561128003 -2.30050344458544 0
    endloop
  endfacet
  facet normal 0 0 -1
    outer loop
      vertex -13.5 -6.5 0
      vertex -9.098704550874551 -1.7117891253826505 0
      vertex -8.915779740156157 -2.028624191511828 0
    endloop
  endfacet
  facet normal 0 0 -1
    outer loop
      vertex -13.5 -6.5 0
      vertex -8.375 -2.5155444566227674 0
      vertex -8.040779740156157 -2.664348903516519 0
    endloop
  endfacet
  facet normal 0 0 -1
    outer loop
      vertex -13.5 -6.5 0
      vertex -8.040779740156157 -2.664348903516519 0
      vertex -7.682924810718394 -2.740413316894478 0
    endloop
  endfacet
  facet normal 0 0 -1
    outer loop
      vertex -13.5 -6.5 0
      vertex -7.682924810718394 -2.740413316894478 0
      vertex -7.317075189281606 -2.740413316894478 0
    endloop
  endfacet
  facet normal 0 0 -1
    outer loop
      vertex -13.5 -6.5 0
      vertex -7.317075189281606 -2.740413316894478 0
      vertex -6.959220259843842 -2.664348903516519 0
    endloop
  endfacet
  facet normal 0 0 -1
    outer loop
      vertex -13.5 -6.5 0
      vertex -6.959220259843842 -2.664348903516519 0
      vertex -1.9 -1 0
    endloop
  endfacet
  facet normal -1 0 0
    outer loop
      vertex -13.5 -6.5 0
      vertex -13.5 -6.5 11
      vertex -13.5 -4.5 1
    endloop
  endfacet
  facet normal 0 0 -1
    outer loop
      vertex -13.5 -6.5 0
      vertex -9.21175830128416 -1.363845458931079 0
      vertex -9.098704550874551 -1.7117891253826505 0
    endloop
  endfacet
  facet normal 0 0 -1
    outer loop
      vertex -13.5 -6.5 0
      vertex -9.25 -1 0
      vertex -9.21175830128416 -1.363845458931079 0
    endloop
  endfacet
  facet normal -1 0 0
    outer loop
      vertex -13.5 -6.5 0
      vertex -13.5 -4.5 1
      vertex -13.5 6.5 0
    endloop
  endfacet
  facet normal 0 0 -1
    outer loop
      vertex -13.5 -6.5 0
      vertex -13.5 6.5 0
      vertex -9.25 -1 0
    endloop
  endfacet
  facet normal 0 0 -1
    outer loop
      vertex -13.5 -6.5 0
      vertex -1.5371322893124 -2.116791979355699 0
      vertex -1.2713481520818306 -2.411975168407049 0
    endloop
  endfacet
  facet normal 0 0 -1
    outer loop
      vertex -13.5 -6.5 0
      vertex -1.2713481520818306 -2.411975168407049 0
      vertex -0.95 -2.6454482671904334 0
    endloop
  endfacet
  facet normal 0 0 -1
    outer loop
      vertex -13.5 -6.5 0
      vertex -1.7357363695209416 -1.7727996218440203 0
      vertex -1.5371322893124 -2.116791979355699 0
    endloop
  endfacet
  facet normal 0 0 -1
    outer loop
      vertex -13.5 -6.5 0
      vertex -0.5871322893124 -2.8070073809607914 0
      vertex -0.1986040802085416 -2.889591601199719 0
    endloop
  endfacet
  facet normal 0 0 -1
    outer loop
      vertex -13.5 -6.5 0
      vertex -0.1986040802085416 -2.889591601199719 0
      vertex 0.1986040802085416 -2.889591601199719 0
    endloop
  endfacet
  facet normal 0 0 -1
    outer loop
      vertex -13.5 -6.5 0
      vertex 0.1986040802085416 -2.889591601199719 0
      vertex 0.5871322893124 -2.8070073809607914 0
    endloop
  endfacet
  facet normal 0 0 -1
    outer loop
      vertex -13.5 -6.5 0
      vertex -0.95 -2.6454482671904334 0
      vertex -0.5871322893124 -2.8070073809607914 0
    endloop
  endfacet
  facet normal 0 -1 0
    outer loop
      vertex -13.5 -6.5 0
      vertex 13.5 -6.5 0
      vertex -0.7718850001692772 -6.5 1.2005200013518333
    endloop
  endfacet
  facet normal 0 0 -1
    outer loop
      vertex -13.5 -6.5 0
      vertex 0.5871322893124 -2.8070073809607914 0
      vertex 6.959220259843842 -2.664348903516519 0
    endloop
  endfacet
  facet normal 0 -1 0
    outer loop
      vertex -13.5 -6.5 0
      vertex -0.7718850001692772 -6.5 1.2005200013518333
      vertex -0.7718850001692772 -6.5 8.86608999967575
    endloop
  endfacet
  facet normal 0 0 -1
    outer loop
      vertex -13.5 -6.5 0
      vertex -1.8584804413942306 -1.3950322125537427 0
      vertex -1.7357363695209416 -1.7727996218440203 0
    endloop
  endfacet
  facet normal 0 0 -1
    outer loop
      vertex -13.5 -6.5 0
      vertex -1.9 -1 0
      vertex -1.8584804413942306 -1.3950322125537427 0
    endloop
  endfacet
  facet normal 0 0 -1
    outer loop
      vertex -1.9 -1 0
      vertex -6.959220259843842 -2.664348903516519 0
      vertex -6.625 -2.5155444566227674 0
    endloop
  endfacet
  facet normal 0 0 -1
    outer loop
      vertex -1.9 -1 0
      vertex -6.625 -2.5155444566227674 0
      vertex -6.329021438871998 -2.30050344458544 0
    endloop
  endfacet
  facet normal 0 0 -1
    outer loop
      vertex -1.9 -1 0
      vertex -6.329021438871998 -2.30050344458544 0
      vertex -6.084220259843842 -2.028624191511828 0
    endloop
  endfacet
  facet normal 0 0 -1
    outer loop
      vertex -1.9 -1 0
      vertex -6.084220259843842 -2.028624191511828 0
      vertex -5.901295449125449 -1.7117891253826505 0
    endloop
  endfacet
  facet normal 0 0 -1
    outer loop
      vertex -1.9 -1 0
      vertex -5.901295449125449 -1.7117891253826505 0
      vertex -5.78824169871584 -1.363845458931079 0
    endloop
  endfacet
  facet normal 0 0 -1
    outer loop
      vertex -1.9 -1 0
      vertex -5.78824169871584 -1.363845458931079 0
      vertex -5.75 -1 0
    endloop
  endfacet
  facet normal -1 0 0
    outer loop
      vertex -13.5 -6.5 11
      vertex -13.5 -4.5 11
      vertex -13.5 -4.5 1
    endloop
  endfacet
  facet normal 0 -1 0
    outer loop
      vertex -13.5 -6.5 0
      vertex -2.8651949986815453 -6.5 8.86608999967575
      vertex -13.5 -6.5 11
    endloop
  endfacet
  facet normal 0 -1 0
    outer loop
      vertex -13.5 -6.5 0
      vertex -0.7718850001692772 -6.5 8.86608999967575
      vertex -2.8651949986815453 -6.5 8.86608999967575
    endloop
  endfacet
  facet normal 0 -1 0
    outer loop
      vertex -13.5 -6.5 11
      vertex -2.8651949986815453 -6.5 8.86608999967575
      vertex -2.8651949986815453 -6.5 9.79984000325203
    endloop
  endfacet
  facet normal 0 0 1
    outer loop
      vertex -13.5 -6.5 11
      vertex 13.5 -6.5 11
      vertex -13.5 -4.5 11
    endloop
  endfacet
  facet normal 0 -1 0
    outer loop
      vertex -13.5 -6.5 11
      vertex -2.8651949986815453 -6.5 9.79984000325203
      vertex 13.5 -6.5 11
    endloop
  endfacet
  facet normal -1 0 0
    outer loop
      vertex -13.5 6.5 0
      vertex -13.5 -4.5 1
      vertex -13.5 6.5 1
    endloop
  endfacet
  facet normal 0 0 -1
    outer loop
      vertex -13.5 6.5 0
      vertex -9.25 6.5 0
      vertex -9.25 -1 0
    endloop
  endfacet
  facet normal 0 1 0
    outer loop
      vertex -13.5 6.5 0
      vertex -13.5 6.5 1
      vertex -9.25 6.5 1
    endloop
  endfacet
  facet normal 0 1 0
    outer loop
      vertex -13.5 6.5 0
      vertex -9.25 6.5 1
      vertex -9.25 6.5 0
    endloop
  endfacet
  facet normal 0 0 -1
    outer loop
      vertex -5.75 6.5 0
      vertex -1.9 -1 0
      vertex -5.75 -1 0
    endloop
  endfacet
  facet normal 0 1 0
    outer loop
      vertex -5.75 6.5 0
      vertex -5.75 6.5 1
      vertex -1.9 6.5 1
    endloop
  endfacet
  facet normal 0 0 -1
    outer loop
      vertex -5.75 6.5 0
      vertex -1.9 6.5 0
      vertex -1.9 -1 0
    endloop
  endfacet
  facet normal 0 1 0
    outer loop
      vertex -5.75 6.5 0
      vertex -1.9 6.5 1
      vertex -1.9 6.5 0
    endloop
  endfacet
  facet normal 0 0 -1
    outer loop
      vertex -13.5 -6.5 0
      vertex 7.317075189281606 -2.740413316894478 0
      vertex 13.5 -6.5 0
    endloop
  endfacet
  facet normal 0 0 -1
    outer loop
      vertex -13.5 -6.5 0
      vertex 6.959220259843842 -2.664348903516519 0
      vertex 7.317075189281606 -2.740413316894478 0
    endloop
  endfacet
  facet normal 0 -1 0
    outer loop
      vertex 13.5 -6.5 0
      vertex 0.24124500155448914 -6.5 1.2005200013518333
      vertex -0.7718850001692772 -6.5 1.2005200013518333
    endloop
  endfacet
  facet normal 0 -1 0
    outer loop
      vertex 13.5 -6.5 0
      vertex 2.273625001311302 -6.5 2.598130002617836
      vertex 0.24124500155448914 -6.5 1.2005200013518333
    endloop
  endfacet
  facet normal 0 -1 0
    outer loop
      vertex 13.5 -6.5 0
      vertex 2.273625001311302 -6.5 3.6356500014662743
      vertex 2.273625001311302 -6.5 2.598130002617836
    endloop
  endfacet
  facet normal 0 -1 0
    outer loop
      vertex 0.33286499977111816 -6.5 5.635611666573419
      vertex 0.33286499977111816 -6.5 2.250280000269413
      vertex 2.273625001311302 -6.5 3.6356500014662743
    endloop
  endfacet
  facet normal 0 0 -1
    outer loop
      vertex 0.95 -2.6454482671904334 0
      vertex 6.959220259843842 -2.664348903516519 0
      vertex 0.5871322893124 -2.8070073809607914 0
    endloop
  endfacet
  facet normal 0 0 -1
    outer loop
      vertex 1.2713481520818306 -2.411975168407049 0
      vertex 6.625 -2.5155444566227674 0
      vertex 0.95 -2.6454482671904334 0
    endloop
  endfacet
  facet normal 0 0 -1
    outer loop
      vertex 1.5371322893124 -2.116791979355699 0
      vertex 6.329021438871998 -2.30050344458544 0
      vertex 1.2713481520818306 -2.411975168407049 0
    endloop
  endfacet
  facet normal 0 0 -1
    outer loop
      vertex 1.7357363695209416 -1.7727996218440203 0
      vertex 6.084220259843842 -2.028624191511828 0
      vertex 1.5371322893124 -2.116791979355699 0
    endloop
  endfacet
  facet normal 0 0 -1
    outer loop
      vertex 1.8584804413942306 -1.3950322125537427 0
      vertex 5.901295449125449 -1.7117891253826505 0
      vertex 1.7357363695209416 -1.7727996218440203 0
    endloop
  endfacet
  facet normal 0 0 -1
    outer loop
      vertex 1.9 -1 0
      vertex 5.78824169871584 -1.363845458931079 0
      vertex 1.8584804413942306 -1.3950322125537427 0
    endloop
  endfacet
  facet normal 0 0 -1
    outer loop
      vertex 0.95 -2.6454482671904334 0
      vertex 6.625 -2.5155444566227674 0
      vertex 6.959220259843842 -2.664348903516519 0
    endloop
  endfacet
  facet normal 0 0 -1
    outer loop
      vertex 6.625 -2.5155444566227674 0
      vertex 1.2713481520818306 -2.411975168407049 0
      vertex 6.329021438871998 -2.30050344458544 0
    endloop
  endfacet
  facet normal 0 0 -1
    outer loop
      vertex 6.329021438871998 -2.30050344458544 0
      vertex 1.5371322893124 -2.116791979355699 0
      vertex 6.084220259843842 -2.028624191511828 0
    endloop
  endfacet
  facet normal 0 0 -1
    outer loop
      vertex 6.084220259843842 -2.028624191511828 0
      vertex 1.7357363695209416 -1.7727996218440203 0
      vertex 5.901295449125449 -1.7117891253826505 0
    endloop
  endfacet
  facet normal 0 0 -1
    outer loop
      vertex 5.901295449125449 -1.7117891253826505 0
      vertex 1.8584804413942306 -1.3950322125537427 0
      vertex 5.78824169871584 -1.363845458931079 0
    endloop
  endfacet
  facet normal 0 0 -1
    outer loop
      vertex 1.9 -1 0
      vertex 5.75 -1 0
      vertex 5.78824169871584 -1.363845458931079 0
    endloop
  endfacet
  facet normal 0 0 -1
    outer loop
      vertex 13.5 -6.5 0
      vertex 7.317075189281606 -2.740413316894478 0
      vertex 7.682924810718394 -2.740413316894478 0
    endloop
  endfacet
  facet normal 0 0 -1
    outer loop
      vertex 13.5 -6.5 0
      vertex 7.682924810718394 -2.740413316894478 0
      vertex 8.040779740156157 -2.664348903516519 0
    endloop
  endfacet
  facet normal 0 0 -1
    outer loop
      vertex 13.5 -6.5 0
      vertex 8.040779740156157 -2.664348903516519 0
      vertex 8.375 -2.5155444566227674 0
    endloop
  endfacet
  facet normal 0 0 -1
    outer loop
      vertex 13.5 -6.5 0
      vertex 8.375 -2.5155444566227674 0
      vertex 8.670978561128003 -2.30050344458544 0
    endloop
  endfacet
  facet normal 0 0 -1
    outer loop
      vertex 13.5 -6.5 0
      vertex 8.670978561128003 -2.30050344458544 0
      vertex 8.915779740156157 -2.028624191511828 0
    endloop
  endfacet
  facet normal 0 0 -1
    outer loop
      vertex 13.5 -6.5 0
      vertex 8.915779740156157 -2.028624191511828 0
      vertex 9.098704550874551 -1.7117891253826505 0
    endloop
  endfacet
  facet normal 0 -1 0
    outer loop
      vertex 13.5 -6.5 0
      vertex 13.5 -6.5 11
      vertex 2.273625001311302 -6.5 3.6356500014662743
    endloop
  endfacet
  facet normal 1 0 0
    outer loop
      vertex 13.5 -6.5 0
      vertex 13.5 -4.5 1
      vertex 13.5 -4.5 11
    endloop
  endfacet
  facet normal 0 0 -1
    outer loop
      vertex 13.5 -6.5 0
      vertex 9.098704550874551 -1.7117891253826505 0
      vertex 9.21175830128416 -1.363845458931079 0
    endloop
  endfacet
  facet normal 0 0 -1
    outer loop
      vertex 13.5 -6.5 0
      vertex 9.21175830128416 -1.363845458931079 0
      vertex 9.25 -1 0
    endloop
  endfacet
  facet normal 0 0 -1
    outer loop
      vertex 13.5 -6.5 0
      vertex 9.25 -1 0
      vertex 9.25 6.5 0
    endloop
  endfacet
  facet normal 1 0 0
    outer loop
      vertex 13.5 -6.5 0
      vertex 13.5 6.5 0
      vertex 13.5 -4.5 1
    endloop
  endfacet
  facet normal 0 -1 0
    outer loop
      vertex 0.33286499977111816 -6.5 5.635611666573419
      vertex 2.5238249972462654 -6.5 8.86608999967575
      vertex 0.33286499977111816 -6.5 8.86608999967575
    endloop
  endfacet
  facet normal 0 -1 0
    outer loop
      vertex 13.5 -6.5 11
      vertex 0.33286499977111816 -6.5 5.635611666573419
      vertex 2.273625001311302 -6.5 3.6356500014662743
    endloop
  endfacet
  facet normal 0 -1 0
    outer loop
      vertex 13.5 -6.5 11
      vertex 2.5238249972462654 -6.5 8.86608999967575
      vertex 0.33286499977111816 -6.5 5.635611666573419
    endloop
  endfacet
  facet normal 0 -1 0
    outer loop
      vertex 13.5 -6.5 11
      vertex -2.8651949986815453 -6.5 9.79984000325203
      vertex 2.5238249972462654 -6.5 9.79984000325203
    endloop
  endfacet
  facet normal 0 0 1
    outer loop
      vertex 13.5 -6.5 11
      vertex 13.5 -4.5 11
      vertex -13.5 -4.5 11
    endloop
  endfacet
  facet normal 0 -1 0
    outer loop
      vertex 13.5 -6.5 11
      vertex 2.5238249972462654 -6.5 9.79984000325203
      vertex 2.5238249972462654 -6.5 8.86608999967575
    endloop
  endfacet
  facet normal 1 0 0
    outer loop
      vertex 13.5 -6.5 0
      vertex 13.5 -4.5 11
      vertex 13.5 -6.5 11
    endloop
  endfacet
  facet normal 0 0 -1
    outer loop
      vertex 1.9 6.5 0
      vertex 5.75 -1 0
      vertex 1.9 -1 0
    endloop
  endfacet
  facet normal 0 1 0
    outer loop
      vertex 1.9 6.5 0
      vertex 1.9 6.5 1
      vertex 5.75 6.5 1
    endloop
  endfacet
  facet normal 0 0 -1
    outer loop
      vertex 1.9 6.5 0
      vertex 5.75 6.5 0
      vertex 5.75 -1 0
    endloop
  endfacet
  facet normal 0 1 0
    outer loop
      vertex 1.9 6.5 0
      vertex 5.75 6.5 1
      vertex 5.75 6.5 0
    endloop
  endfacet
  facet normal 0 0 -1
    outer loop
      vertex 13.5 -6.5 0
      vertex 9.25 6.5 0
      vertex 13.5 6.5 0
    endloop
  endfacet
  facet normal 1 0 0
    outer loop
      vertex 13.5 6.5 0
      vertex 13.5 6.5 1
      vertex 13.5 -4.5 1
    endloop
  endfacet
  facet normal 0 1 0
    outer loop
      vertex 9.25 6.5 0
      vertex 9.25 6.5 1
      vertex 13.5 6.5 1
    endloop
  endfacet
  facet normal 0 1 0
    outer loop
      vertex 13.5 6.5 0
      vertex 9.25 6.5 0
      vertex 13.5 6.5 1
    endloop
  endfacet
  facet normal 0 0 1
    outer loop
      vertex -8.040779740156157 -2.664348903516519 1
      vertex -13.5 -4.5 1
      vertex -7.682924810718394 -2.740413316894478 1
    endloop
  endfacet
  facet normal 0 0 1
    outer loop
      vertex -7.682924810718394 -2.740413316894478 1
      vertex -13.5 -4.5 1
      vertex -7.317075189281606 -2.740413316894478 1
    endloop
  endfacet
  facet normal 0 0 1
    outer loop
      vertex -7.317075189281606 -2.740413316894478 1
      vertex -13.5 -4.5 1
      vertex -0.5871322893124 -2.8070073809607914 1
    endloop
  endfacet
  facet normal 0 0 1
    outer loop
      vertex -8.670978561128003 -2.30050344458544 1
      vertex -13.5 -4.5 1
      vertex -8.375 -2.5155444566227674 1
    endloop
  endfacet
  facet normal 0 0 1
    outer loop
      vertex -8.670978561128003 -2.30050344458544 1
      vertex -8.915779740156157 -2.028624191511828 1
      vertex -13.5 -4.5 1
    endloop
  endfacet
  facet normal 0 0 1
    outer loop
      vertex -8.915779740156157 -2.028624191511828 1
      vertex -9.098704550874551 -1.7117891253826505 1
      vertex -13.5 -4.5 1
    endloop
  endfacet
  facet normal 0 0 1
    outer loop
      vertex -8.040779740156157 -2.664348903516519 1
      vertex -8.375 -2.5155444566227674 1
      vertex -13.5 -4.5 1
    endloop
  endfacet
  facet normal 0 0 1
    outer loop
      vertex -0.5871322893124 -2.8070073809607914 1
      vertex -13.5 -4.5 1
      vertex -0.1986040802085416 -2.889591601199719 1
    endloop
  endfacet
  facet normal 0 0 1
    outer loop
      vertex -0.1986040802085416 -2.889591601199719 1
      vertex -13.5 -4.5 1
      vertex 0.1986040802085416 -2.889591601199719 1
    endloop
  endfacet
  facet normal 0 0 1
    outer loop
      vertex 0.1986040802085416 -2.889591601199719 1
      vertex -13.5 -4.5 1
      vertex 6.959220259843842 -2.664348903516519 1
    endloop
  endfacet
  facet normal 0 0 1
    outer loop
      vertex -7.317075189281606 -2.740413316894478 1
      vertex -0.5871322893124 -2.8070073809607914 1
      vertex -6.959220259843842 -2.664348903516519 1
    endloop
  endfacet
  facet normal 0 0 1
    outer loop
      vertex -6.959220259843842 -2.664348903516519 1
      vertex -0.95 -2.6454482671904334 1
      vertex -6.625 -2.5155444566227674 1
    endloop
  endfacet
  facet normal 0 0 1
    outer loop
      vertex -6.625 -2.5155444566227674 1
      vertex -1.2713481520818306 -2.411975168407049 1
      vertex -6.329021438871998 -2.30050344458544 1
    endloop
  endfacet
  facet normal 0 0 1
    outer loop
      vertex -6.329021438871998 -2.30050344458544 1
      vertex -1.5371322893124 -2.116791979355699 1
      vertex -6.084220259843842 -2.028624191511828 1
    endloop
  endfacet
  facet normal 0 0 1
    outer loop
      vertex -6.084220259843842 -2.028624191511828 1
      vertex -1.7357363695209416 -1.7727996218440203 1
      vertex -5.901295449125449 -1.7117891253826505 1
    endloop
  endfacet
  facet normal 0 0 1
    outer loop
      vertex -5.901295449125449 -1.7117891253826505 1
      vertex -1.8584804413942306 -1.3950322125537427 1
      vertex -5.78824169871584 -1.363845458931079 1
    endloop
  endfacet
  facet normal 0 0 1
    outer loop
      vertex -5.78824169871584 -1.363845458931079 1
      vertex -1.9 -1 1
      vertex -5.75 -1 1
    endloop
  endfacet
  facet normal 0 0 1
    outer loop
      vertex -6.959220259843842 -2.664348903516519 1
      vertex -0.5871322893124 -2.8070073809607914 1
      vertex -0.95 -2.6454482671904334 1
    endloop
  endfacet
  facet normal 0 0 1
    outer loop
      vertex -6.625 -2.5155444566227674 1
      vertex -0.95 -2.6454482671904334 1
      vertex -1.2713481520818306 -2.411975168407049 1
    endloop
  endfacet
  facet normal 0 0 1
    outer loop
      vertex -6.329021438871998 -2.30050344458544 1
      vertex -1.2713481520818306 -2.411975168407049 1
      vertex -1.5371322893124 -2.116791979355699 1
    endloop
  endfacet
  facet normal 0 0 1
    outer loop
      vertex -6.084220259843842 -2.028624191511828 1
      vertex -1.5371322893124 -2.116791979355699 1
      vertex -1.7357363695209416 -1.7727996218440203 1
    endloop
  endfacet
  facet normal 0 0 1
    outer loop
      vertex -5.901295449125449 -1.7117891253826505 1
      vertex -1.7357363695209416 -1.7727996218440203 1
      vertex -1.8584804413942306 -1.3950322125537427 1
    endloop
  endfacet
  facet normal 0 0 1
    outer loop
      vertex -5.78824169871584 -1.363845458931079 1
      vertex -1.8584804413942306 -1.3950322125537427 1
      vertex -1.9 -1 1
    endloop
  endfacet
  facet normal 0 1 0
    outer loop
      vertex 13.5 -4.5 11
      vertex -13.5 -4.5 1
      vertex -13.5 -4.5 11
    endloop
  endfacet
  facet normal 0 0 1
    outer loop
      vertex -9.098704550874551 -1.7117891253826505 1
      vertex -13.5 6.5 1
      vertex -13.5 -4.5 1
    endloop
  endfacet
  facet normal 0 0 1
    outer loop
      vertex -9.21175830128416 -1.363845458931079 1
      vertex -13.5 6.5 1
      vertex -9.098704550874551 -1.7117891253826505 1
    endloop
  endfacet
  facet normal 0 0 1
    outer loop
      vertex -9.21175830128416 -1.363845458931079 1
      vertex -9.25 -1 1
      vertex -13.5 6.5 1
    endloop
  endfacet
  facet normal 0 0 1
    outer loop
      vertex -9.25 -1 1
      vertex -9.25 6.5 1
      vertex -13.5 6.5 1
    endloop
  endfacet
  facet normal 0 0 1
    outer loop
      vertex -5.75 -1 1
      vertex -1.9 -1 1
      vertex -1.9 6.5 1
    endloop
  endfacet
  facet normal 0 0 1
    outer loop
      vertex -5.75 -1 1
      vertex -1.9 6.5 1
      vertex -5.75 6.5 1
    endloop
  endfacet
  facet normal 0 0 1
    outer loop
      vertex 6.959220259843842 -2.664348903516519 1
      vertex -13.5 -4.5 1
      vertex 7.317075189281606 -2.740413316894478 1
    endloop
  endfacet
  facet normal 0 0 1
    outer loop
      vertex 7.317075189281606 -2.740413316894478 1
      vertex -13.5 -4.5 1
      vertex 7.682924810718394 -2.740413316894478 1
    endloop
  endfacet
  facet normal 0 0 1
    outer loop
      vertex 7.682924810718394 -2.740413316894478 1
      vertex -13.5 -4.5 1
      vertex 13.5 -4.5 1
    endloop
  endfacet
  facet normal 0 1 0
    outer loop
      vertex 13.5 -4.5 11
      vertex 13.5 -4.5 1
      vertex -13.5 -4.5 1
    endloop
  endfacet
  facet normal 0 0 1
    outer loop
      vertex 0.1986040802085416 -2.889591601199719 1
      vertex 6.959220259843842 -2.664348903516519 1
      vertex 0.5871322893124 -2.8070073809607914 1
    endloop
  endfacet
  facet normal 0 0 1
    outer loop
      vertex 0.5871322893124 -2.8070073809607914 1
      vertex 6.959220259843842 -2.664348903516519 1
      vertex 0.95 -2.6454482671904334 1
    endloop
  endfacet
  facet normal 0 0 1
    outer loop
      vertex 0.95 -2.6454482671904334 1
      vertex 6.625 -2.5155444566227674 1
      vertex 1.2713481520818306 -2.411975168407049 1
    endloop
  endfacet
  facet normal 0 0 1
    outer loop
      vertex 1.2713481520818306 -2.411975168407049 1
      vertex 6.084220259843842 -2.028624191511828 1
      vertex 1.5371322893124 -2.116791979355699 1
    endloop
  endfacet
  facet normal 0 0 1
    outer loop
      vertex 1.5371322893124 -2.116791979355699 1
      vertex 5.901295449125449 -1.7117891253826505 1
      vertex 1.7357363695209416 -1.7727996218440203 1
    endloop
  endfacet
  facet normal 0 0 1
    outer loop
      vertex 1.7357363695209416 -1.7727996218440203 1
      vertex 5.78824169871584 -1.363845458931079 1
      vertex 1.8584804413942306 -1.3950322125537427 1
    endloop
  endfacet
  facet normal 0 0 1
    outer loop
      vertex 1.8584804413942306 -1.3950322125537427 1
      vertex 5.75 -1 1
      vertex 1.9 -1 1
    endloop
  endfacet
  facet normal 0 0 1
    outer loop
      vertex 0.95 -2.6454482671904334 1
      vertex 6.959220259843842 -2.664348903516519 1
      vertex 6.625 -2.5155444566227674 1
    endloop
  endfacet
  facet normal 0 0 1
    outer loop
      vertex 1.2713481520818306 -2.411975168407049 1
      vertex 6.329021438871998 -2.30050344458544 1
      vertex 6.084220259843842 -2.028624191511828 1
    endloop
  endfacet
  facet normal 0 0 1
    outer loop
      vertex 1.2713481520818306 -2.411975168407049 1
      vertex 6.625 -2.5155444566227674 1
      vertex 6.329021438871998 -2.30050344458544 1
    endloop
  endfacet
  facet normal 0 0 1
    outer loop
      vertex 1.5371322893124 -2.116791979355699 1
      vertex 6.084220259843842 -2.028624191511828 1
      vertex 5.901295449125449 -1.7117891253826505 1
    endloop
  endfacet
  facet normal 0 0 1
    outer loop
      vertex 1.7357363695209416 -1.7727996218440203 1
      vertex 5.901295449125449 -1.7117891253826505 1
      vertex 5.78824169871584 -1.363845458931079 1
    endloop
  endfacet
  facet normal 0 0 1
    outer loop
      vertex 1.8584804413942306 -1.3950322125537427 1
      vertex 5.78824169871584 -1.363845458931079 1
      vertex 5.75 -1 1
    endloop
  endfacet
  facet normal 0 0 1
    outer loop
      vertex 7.682924810718394 -2.740413316894478 1
      vertex 13.5 -4.5 1
      vertex 8.040779740156157 -2.664348903516519 1
    endloop
  endfacet
  facet normal 0 0 1
    outer loop
      vertex 8.040779740156157 -2.664348903516519 1
      vertex 13.5 -4.5 1
      vertex 8.375 -2.5155444566227674 1
    endloop
  endfacet
  facet normal 0 0 1
    outer loop
      vertex 8.375 -2.5155444566227674 1
      vertex 13.5 -4.5 1
      vertex 8.670978561128003 -2.30050344458544 1
    endloop
  endfacet
  facet normal 0 0 1
    outer loop
      vertex 8.670978561128003 -2.30050344458544 1
      vertex 13.5 -4.5 1
      vertex 8.915779740156157 -2.028624191511828 1
    endloop
  endfacet
  facet normal 0 0 1
    outer loop
      vertex 8.915779740156157 -2.028624191511828 1
      vertex 13.5 -4.5 1
      vertex 9.098704550874551 -1.7117891253826505 1
    endloop
  endfacet
  facet normal 0 0 1
    outer loop
      vertex 9.098704550874551 -1.7117891253826505 1
      vertex 13.5 -4.5 1
      vertex 9.21175830128416 -1.363845458931079 1
    endloop
  endfacet
  facet normal 0 0 1
    outer loop
      vertex 9.21175830128416 -1.363845458931079 1
      vertex 13.5 -4.5 1
      vertex 9.25 -1 1
    endloop
  endfacet
  facet normal 0 0 1
    outer loop
      vertex 1.9 -1 1
      vertex 5.75 -1 1
      vertex 5.75 6.5 1
    endloop
  endfacet
  facet normal 0 0 1
    outer loop
      vertex 1.9 -1 1
      vertex 5.75 6.5 1
      vertex 1.9 6.5 1
    endloop
  endfacet
  facet normal 0 0 1
    outer loop
      vertex 9.25 -1 1
      vertex 13.5 -4.5 1
      vertex 13.5 6.5 1
    endloop
  endfacet
  facet normal 0 0 1
    outer loop
      vertex 9.25 -1 1
      vertex 13.5 6.5 1
      vertex 9.25 6.5 1
    endloop
  endfacet
  facet normal 0.5877852522924717 0.8090169943749486 0
    outer loop
      vertex -8.670978561128003 -2.30050344458544 1
      vertex -8.375 -2.5155444566227674 1
      vertex -8.375 -2.5155444566227674 0
    endloop
  endfacet
  facet normal 0.5877852522924717 0.8090169943749486 0
    outer loop
      vertex -8.670978561128003 -2.30050344458544 1
      vertex -8.375 -2.5155444566227674 0
      vertex -8.670978561128003 -2.30050344458544 0
    endloop
  endfacet
  facet normal 0.7431448254773961 0.669130606358856 0
    outer loop
      vertex -8.915779740156157 -2.028624191511828 1
      vertex -8.670978561128003 -2.30050344458544 0
      vertex -8.915779740156157 -2.028624191511828 0
    endloop
  endfacet
  facet normal 0.7431448254773961 0.669130606358856 0
    outer loop
      vertex -8.670978561128003 -2.30050344458544 1
      vertex -8.670978561128003 -2.30050344458544 0
      vertex -8.915779740156157 -2.028624191511828 1
    endloop
  endfacet
  facet normal 0.8660254037844385 0.5000000000000003 0
    outer loop
      vertex -9.098704550874551 -1.7117891253826505 1
      vertex -8.915779740156157 -2.028624191511828 0
      vertex -9.098704550874551 -1.7117891253826505 0
    endloop
  endfacet
  facet normal 0.8660254037844385 0.5000000000000003 0
    outer loop
      vertex -8.915779740156157 -2.028624191511828 1
      vertex -8.915779740156157 -2.028624191511828 0
      vertex -9.098704550874551 -1.7117891253826505 1
    endloop
  endfacet
  facet normal 0.4067366430758005 0.9135454576426009 0
    outer loop
      vertex -8.375 -2.5155444566227674 1
      vertex -8.040779740156157 -2.664348903516519 0
      vertex -8.375 -2.5155444566227674 0
    endloop
  endfacet
  facet normal 0.20791169081775845 0.9781476007338058 0
    outer loop
      vertex -8.040779740156157 -2.664348903516519 1
      vertex -7.682924810718394 -2.740413316894478 0
      vertex -8.040779740156157 -2.664348903516519 0
    endloop
  endfacet
  facet normal 0.4067366430758005 0.9135454576426009 0
    outer loop
      vertex -8.040779740156157 -2.664348903516519 1
      vertex -8.040779740156157 -2.664348903516519 0
      vertex -8.375 -2.5155444566227674 1
    endloop
  endfacet
  facet normal 0.20791169081775845 0.9781476007338058 0
    outer loop
      vertex -8.040779740156157 -2.664348903516519 1
      vertex -7.682924810718394 -2.740413316894478 1
      vertex -7.682924810718394 -2.740413316894478 0
    endloop
  endfacet
  facet normal 0 1 0
    outer loop
      vertex -7.682924810718394 -2.740413316894478 1
      vertex -7.317075189281606 -2.740413316894478 0
      vertex -7.682924810718394 -2.740413316894478 0
    endloop
  endfacet
  facet normal -0.20791169081775798 0.978147600733806 0
    outer loop
      vertex -7.317075189281606 -2.740413316894478 1
      vertex -6.959220259843842 -2.664348903516519 0
      vertex -7.317075189281606 -2.740413316894478 0
    endloop
  endfacet
  facet normal -0.4067366430758013 0.9135454576426004 0
    outer loop
      vertex -6.959220259843842 -2.664348903516519 1
      vertex -6.625 -2.5155444566227674 0
      vertex -6.959220259843842 -2.664348903516519 0
    endloop
  endfacet
  facet normal 0 1 0
    outer loop
      vertex -7.682924810718394 -2.740413316894478 1
      vertex -7.317075189281606 -2.740413316894478 1
      vertex -7.317075189281606 -2.740413316894478 0
    endloop
  endfacet
  facet normal -0.20791169081775798 0.978147600733806 0
    outer loop
      vertex -7.317075189281606 -2.740413316894478 1
      vertex -6.959220259843842 -2.664348903516519 1
      vertex -6.959220259843842 -2.664348903516519 0
    endloop
  endfacet
  facet normal 0.9510565162951531 0.30901699437494906 0
    outer loop
      vertex -9.21175830128416 -1.363845458931079 1
      vertex -9.098704550874551 -1.7117891253826505 0
      vertex -9.21175830128416 -1.363845458931079 0
    endloop
  endfacet
  facet normal 0.9510565162951531 0.30901699437494906 0
    outer loop
      vertex -9.21175830128416 -1.363845458931079 1
      vertex -9.098704550874551 -1.7117891253826505 1
      vertex -9.098704550874551 -1.7117891253826505 0
    endloop
  endfacet
  facet normal 0.9945218953682734 0.10452846326765322 0
    outer loop
      vertex -9.21175830128416 -1.363845458931079 1
      vertex -9.21175830128416 -1.363845458931079 0
      vertex -9.25 -1 1
    endloop
  endfacet
  facet normal 0.9945218953682734 0.10452846326765322 0
    outer loop
      vertex -9.25 -1 1
      vertex -9.21175830128416 -1.363845458931079 0
      vertex -9.25 -1 0
    endloop
  endfacet
  facet normal -0.5877852522924728 0.8090169943749478 0
    outer loop
      vertex -6.625 -2.5155444566227674 1
      vertex -6.329021438871998 -2.30050344458544 0
      vertex -6.625 -2.5155444566227674 0
    endloop
  endfacet
  facet normal -0.4067366430758013 0.9135454576426004 0
    outer loop
      vertex -6.959220259843842 -2.664348903516519 1
      vertex -6.625 -2.5155444566227674 1
      vertex -6.625 -2.5155444566227674 0
    endloop
  endfacet
  facet normal -0.7431448254773937 0.6691306063588587 0
    outer loop
      vertex -6.329021438871998 -2.30050344458544 1
      vertex -6.084220259843842 -2.028624191511828 0
      vertex -6.329021438871998 -2.30050344458544 0
    endloop
  endfacet
  facet normal -0.5877852522924728 0.8090169943749478 0
    outer loop
      vertex -6.625 -2.5155444566227674 1
      vertex -6.329021438871998 -2.30050344458544 1
      vertex -6.329021438871998 -2.30050344458544 0
    endloop
  endfacet
  facet normal -0.7431448254773937 0.6691306063588587 0
    outer loop
      vertex -6.329021438871998 -2.30050344458544 1
      vertex -6.084220259843842 -2.028624191511828 1
      vertex -6.084220259843842 -2.028624191511828 0
    endloop
  endfacet
  facet normal -0.8660254037844396 0.4999999999999985 0
    outer loop
      vertex -6.084220259843842 -2.028624191511828 1
      vertex -5.901295449125449 -1.7117891253826505 0
      vertex -6.084220259843842 -2.028624191511828 0
    endloop
  endfacet
  facet normal -0.8660254037844396 0.4999999999999985 0
    outer loop
      vertex -6.084220259843842 -2.028624191511828 1
      vertex -5.901295449125449 -1.7117891253826505 1
      vertex -5.901295449125449 -1.7117891253826505 0
    endloop
  endfacet
  facet normal -0.9510565162951531 0.30901699437494906 0
    outer loop
      vertex -5.901295449125449 -1.7117891253826505 1
      vertex -5.78824169871584 -1.363845458931079 0
      vertex -5.901295449125449 -1.7117891253826505 0
    endloop
  endfacet
  facet normal -0.9945218953682734 0.10452846326765322 0
    outer loop
      vertex -5.78824169871584 -1.363845458931079 1
      vertex -5.75 -1 0
      vertex -5.78824169871584 -1.363845458931079 0
    endloop
  endfacet
  facet normal -0.9510565162951531 0.30901699437494906 0
    outer loop
      vertex -5.901295449125449 -1.7117891253826505 1
      vertex -5.78824169871584 -1.363845458931079 1
      vertex -5.78824169871584 -1.363845458931079 0
    endloop
  endfacet
  facet normal -0.9945218953682734 0.10452846326765322 0
    outer loop
      vertex -5.78824169871584 -1.363845458931079 1
      vertex -5.75 -1 1
      vertex -5.75 -1 0
    endloop
  endfacet
  facet normal 1 0 0
    outer loop
      vertex -9.25 -1 1
      vertex -9.25 -1 0
      vertex -9.25 6.5 0
    endloop
  endfacet
  facet normal 1 0 0
    outer loop
      vertex -9.25 -1 1
      vertex -9.25 6.5 0
      vertex -9.25 6.5 1
    endloop
  endfacet
  facet normal -1 0 0
    outer loop
      vertex -5.75 -1 1
      vertex -5.75 6.5 0
      vertex -5.75 -1 0
    endloop
  endfacet
  facet normal -1 0 0
    outer loop
      vertex -5.75 -1 1
      vertex -5.75 6.5 1
      vertex -5.75 6.5 0
    endloop
  endfacet
  facet normal 0.4067366430758013 0.9135454576426004 0
    outer loop
      vertex 6.625 -2.5155444566227674 1
      vertex 6.959220259843842 -2.664348903516519 0
      vertex 6.625 -2.5155444566227674 0
    endloop
  endfacet
  facet normal 0.5877852522924728 0.8090169943749478 0
    outer loop
      vertex 6.329021438871998 -2.30050344458544 1
      vertex 6.625 -2.5155444566227674 1
      vertex 6.625 -2.5155444566227674 0
    endloop
  endfacet
  facet normal 0.7431448254773937 0.6691306063588587 0
    outer loop
      vertex 6.084220259843842 -2.028624191511828 1
      vertex 6.329021438871998 -2.30050344458544 0
      vertex 6.084220259843842 -2.028624191511828 0
    endloop
  endfacet
  facet normal 0.5877852522924728 0.8090169943749478 0
    outer loop
      vertex 6.329021438871998 -2.30050344458544 1
      vertex 6.625 -2.5155444566227674 0
      vertex 6.329021438871998 -2.30050344458544 0
    endloop
  endfacet
  facet normal 0.7431448254773937 0.6691306063588587 0
    outer loop
      vertex 6.329021438871998 -2.30050344458544 1
      vertex 6.329021438871998 -2.30050344458544 0
      vertex 6.084220259843842 -2.028624191511828 1
    endloop
  endfacet
  facet normal 0.8660254037844396 0.4999999999999985 0
    outer loop
      vertex 5.901295449125449 -1.7117891253826505 1
      vertex 6.084220259843842 -2.028624191511828 0
      vertex 5.901295449125449 -1.7117891253826505 0
    endloop
  endfacet
  facet normal 0.8660254037844396 0.4999999999999985 0
    outer loop
      vertex 6.084220259843842 -2.028624191511828 1
      vertex 6.084220259843842 -2.028624191511828 0
      vertex 5.901295449125449 -1.7117891253826505 1
    endloop
  endfacet
  facet normal 0.9510565162951531 0.30901699437494906 0
    outer loop
      vertex 5.78824169871584 -1.363845458931079 1
      vertex 5.901295449125449 -1.7117891253826505 0
      vertex 5.78824169871584 -1.363845458931079 0
    endloop
  endfacet
  facet normal 0.9510565162951531 0.30901699437494906 0
    outer loop
      vertex 5.78824169871584 -1.363845458931079 1
      vertex 5.901295449125449 -1.7117891253826505 1
      vertex 5.901295449125449 -1.7117891253826505 0
    endloop
  endfacet
  facet normal 0.9945218953682734 0.10452846326765322 0
    outer loop
      vertex 5.78824169871584 -1.363845458931079 1
      vertex 5.78824169871584 -1.363845458931079 0
      vertex 5.75 -1 1
    endloop
  endfacet
  facet normal 0.9945218953682734 0.10452846326765322 0
    outer loop
      vertex 5.75 -1 1
      vertex 5.78824169871584 -1.363845458931079 0
      vertex 5.75 -1 0
    endloop
  endfacet
  facet normal 0.20791169081775798 0.978147600733806 0
    outer loop
      vertex 6.959220259843842 -2.664348903516519 1
      vertex 7.317075189281606 -2.740413316894478 0
      vertex 6.959220259843842 -2.664348903516519 0
    endloop
  endfacet
  facet normal 0 1 0
    outer loop
      vertex 7.317075189281606 -2.740413316894478 1
      vertex 7.682924810718394 -2.740413316894478 0
      vertex 7.317075189281606 -2.740413316894478 0
    endloop
  endfacet
  facet normal 0.4067366430758013 0.9135454576426004 0
    outer loop
      vertex 6.959220259843842 -2.664348903516519 1
      vertex 6.959220259843842 -2.664348903516519 0
      vertex 6.625 -2.5155444566227674 1
    endloop
  endfacet
  facet normal 0.20791169081775798 0.978147600733806 0
    outer loop
      vertex 6.959220259843842 -2.664348903516519 1
      vertex 7.317075189281606 -2.740413316894478 1
      vertex 7.317075189281606 -2.740413316894478 0
    endloop
  endfacet
  facet normal 0 1 0
    outer loop
      vertex 7.317075189281606 -2.740413316894478 1
      vertex 7.682924810718394 -2.740413316894478 1
      vertex 7.682924810718394 -2.740413316894478 0
    endloop
  endfacet
  facet normal -0.20791169081775845 0.9781476007338058 0
    outer loop
      vertex 7.682924810718394 -2.740413316894478 1
      vertex 8.040779740156157 -2.664348903516519 0
      vertex 7.682924810718394 -2.740413316894478 0
    endloop
  endfacet
  facet normal -0.4067366430758005 0.9135454576426009 0
    outer loop
      vertex 8.040779740156157 -2.664348903516519 1
      vertex 8.375 -2.5155444566227674 0
      vertex 8.040779740156157 -2.664348903516519 0
    endloop
  endfacet
  facet normal -0.20791169081775845 0.9781476007338058 0
    outer loop
      vertex 7.682924810718394 -2.740413316894478 1
      vertex 8.040779740156157 -2.664348903516519 1
      vertex 8.040779740156157 -2.664348903516519 0
    endloop
  endfacet
  facet normal -0.4067366430758005 0.9135454576426009 0
    outer loop
      vertex 8.040779740156157 -2.664348903516519 1
      vertex 8.375 -2.5155444566227674 1
      vertex 8.375 -2.5155444566227674 0
    endloop
  endfacet
  facet normal -0.5877852522924717 0.8090169943749486 0
    outer loop
      vertex 8.375 -2.5155444566227674 1
      vertex 8.670978561128003 -2.30050344458544 0
      vertex 8.375 -2.5155444566227674 0
    endloop
  endfacet
  facet normal -0.7431448254773961 0.669130606358856 0
    outer loop
      vertex 8.670978561128003 -2.30050344458544 1
      vertex 8.915779740156157 -2.028624191511828 0
      vertex 8.670978561128003 -2.30050344458544 0
    endloop
  endfacet
  facet normal -0.5877852522924717 0.8090169943749486 0
    outer loop
      vertex 8.375 -2.5155444566227674 1
      vertex 8.670978561128003 -2.30050344458544 1
      vertex 8.670978561128003 -2.30050344458544 0
    endloop
  endfacet
  facet normal -0.7431448254773961 0.669130606358856 0
    outer loop
      vertex 8.670978561128003 -2.30050344458544 1
      vertex 8.915779740156157 -2.028624191511828 1
      vertex 8.915779740156157 -2.028624191511828 0
    endloop
  endfacet
  facet normal -0.8660254037844385 0.5000000000000003 0
    outer loop
      vertex 8.915779740156157 -2.028624191511828 1
      vertex 9.098704550874551 -1.7117891253826505 0
      vertex 8.915779740156157 -2.028624191511828 0
    endloop
  endfacet
  facet normal -0.8660254037844385 0.5000000000000003 0
    outer loop
      vertex 8.915779740156157 -2.028624191511828 1
      vertex 9.098704550874551 -1.7117891253826505 1
      vertex 9.098704550874551 -1.7117891253826505 0
    endloop
  endfacet
  facet normal -0.9510565162951531 0.30901699437494906 0
    outer loop
      vertex 9.098704550874551 -1.7117891253826505 1
      vertex 9.21175830128416 -1.363845458931079 0
      vertex 9.098704550874551 -1.7117891253826505 0
    endloop
  endfacet
  facet normal -0.9945218953682734 0.10452846326765322 0
    outer loop
      vertex 9.21175830128416 -1.363845458931079 1
      vertex 9.25 -1 0
      vertex 9.21175830128416 -1.363845458931079 0
    endloop
  endfacet
  facet normal -0.9510565162951531 0.30901699437494906 0
    outer loop
      vertex 9.098704550874551 -1.7117891253826505 1
      vertex 9.21175830128416 -1.363845458931079 1
      vertex 9.21175830128416 -1.363845458931079 0
    endloop
  endfacet
  facet normal -0.9945218953682734 0.10452846326765322 0
    outer loop
      vertex 9.21175830128416 -1.363845458931079 1
      vertex 9.25 -1 1
      vertex 9.25 -1 0
    endloop
  endfacet
  facet normal 1 0 0
    outer loop
      vertex 5.75 -1 1
      vertex 5.75 -1 0
      vertex 5.75 6.5 1
    endloop
  endfacet
  facet normal 1 0 0
    outer loop
      vertex 5.75 6.5 0
      vertex 5.75 6.5 1
      vertex 5.75 -1 0
    endloop
  endfacet
  facet normal -1 0 0
    outer loop
      vertex 9.25 -1 1
      vertex 9.25 6.5 0
      vertex 9.25 -1 0
    endloop
  endfacet
  facet normal -1 0 0
    outer loop
      vertex 9.25 -1 1
      vertex 9.25 6.5 1
      vertex 9.25 6.5 0
    endloop
  endfacet
  facet normal 0.9510565162951535 0.30901699437494756 0
    outer loop
      vertex -1.7357363695209416 -1.7727996218440203 1
      vertex -1.7357363695209416 -1.7727996218440203 0
      vertex -1.8584804413942306 -1.3950322125537427 1
    endloop
  endfacet
  facet normal 0.5877852522924728 0.8090169943749478 0
    outer loop
      vertex -1.2713481520818306 -2.411975168407049 1
      vertex -0.95 -2.6454482671904334 0
      vertex -1.2713481520818306 -2.411975168407049 0
    endloop
  endfacet
  facet normal 0.5877852522924728 0.8090169943749478 0
    outer loop
      vertex -1.2713481520818306 -2.411975168407049 1
      vertex -0.95 -2.6454482671904334 1
      vertex -0.95 -2.6454482671904334 0
    endloop
  endfacet
  facet normal 0 1 0
    outer loop
      vertex -0.1986040802085416 -2.889591601199719 1
      vertex 0.1986040802085416 -2.889591601199719 0
      vertex -0.1986040802085416 -2.889591601199719 0
    endloop
  endfacet
  facet normal 0.20791169081775984 0.9781476007338055 0
    outer loop
      vertex -0.5871322893124 -2.8070073809607914 1
      vertex -0.1986040802085416 -2.889591601199719 1
      vertex -0.1986040802085416 -2.889591601199719 0
    endloop
  endfacet
  facet normal 0.4067366430757995 0.9135454576426013 0
    outer loop
      vertex -0.95 -2.6454482671904334 1
      vertex -0.5871322893124 -2.8070073809607914 0
      vertex -0.95 -2.6454482671904334 0
    endloop
  endfacet
  facet normal 0.20791169081775984 0.9781476007338055 0
    outer loop
      vertex -0.5871322893124 -2.8070073809607914 1
      vertex -0.1986040802085416 -2.889591601199719 0
      vertex -0.5871322893124 -2.8070073809607914 0
    endloop
  endfacet
  facet normal 0.4067366430757995 0.9135454576426013 0
    outer loop
      vertex -0.5871322893124 -2.8070073809607914 1
      vertex -0.5871322893124 -2.8070073809607914 0
      vertex -0.95 -2.6454482671904334 1
    endloop
  endfacet
  facet normal 0.7431448254773946 0.6691306063588577 0
    outer loop
      vertex -1.5371322893124 -2.116791979355699 1
      vertex -1.2713481520818306 -2.411975168407049 0
      vertex -1.5371322893124 -2.116791979355699 0
    endloop
  endfacet
  facet normal 0.7431448254773946 0.6691306063588577 0
    outer loop
      vertex -1.5371322893124 -2.116791979355699 1
      vertex -1.2713481520818306 -2.411975168407049 1
      vertex -1.2713481520818306 -2.411975168407049 0
    endloop
  endfacet
  facet normal 0.8660254037844387 0.5 0
    outer loop
      vertex -1.7357363695209416 -1.7727996218440203 1
      vertex -1.5371322893124 -2.116791979355699 0
      vertex -1.7357363695209416 -1.7727996218440203 0
    endloop
  endfacet
  facet normal 0.8660254037844387 0.5 0
    outer loop
      vertex -1.7357363695209416 -1.7727996218440203 1
      vertex -1.5371322893124 -2.116791979355699 1
      vertex -1.5371322893124 -2.116791979355699 0
    endloop
  endfacet
  facet normal 0.9510565162951535 0.30901699437494756 0
    outer loop
      vertex -1.8584804413942306 -1.3950322125537427 1
      vertex -1.7357363695209416 -1.7727996218440203 0
      vertex -1.8584804413942306 -1.3950322125537427 0
    endloop
  endfacet
  facet normal 0.9945218953682734 0.10452846326765348 0
    outer loop
      vertex -1.8584804413942306 -1.3950322125537427 1
      vertex -1.8584804413942306 -1.3950322125537427 0
      vertex -1.9 -1 1
    endloop
  endfacet
  facet normal 0.9945218953682734 0.10452846326765348 0
    outer loop
      vertex -1.9 -1 1
      vertex -1.8584804413942306 -1.3950322125537427 0
      vertex -1.9 -1 0
    endloop
  endfacet
  facet normal 1 0 0
    outer loop
      vertex -1.9 -1 1
      vertex -1.9 -1 0
      vertex -1.9 6.5 1
    endloop
  endfacet
  facet normal 1 0 0
    outer loop
      vertex -1.9 6.5 0
      vertex -1.9 6.5 1
      vertex -1.9 -1 0
    endloop
  endfacet
  facet normal -0.20791169081775984 0.9781476007338055 0
    outer loop
      vertex 0.1986040802085416 -2.889591601199719 1
      vertex 0.5871322893124 -2.8070073809607914 0
      vertex 0.1986040802085416 -2.889591601199719 0
    endloop
  endfacet
  facet normal 0 1 0
    outer loop
      vertex -0.1986040802085416 -2.889591601199719 1
      vertex 0.1986040802085416 -2.889591601199719 1
      vertex 0.1986040802085416 -2.889591601199719 0
    endloop
  endfacet
  facet normal -0.4067366430757995 0.9135454576426013 0
    outer loop
      vertex 0.5871322893124 -2.8070073809607914 1
      vertex 0.95 -2.6454482671904334 0
      vertex 0.5871322893124 -2.8070073809607914 0
    endloop
  endfacet
  facet normal -0.20791169081775984 0.9781476007338055 0
    outer loop
      vertex 0.1986040802085416 -2.889591601199719 1
      vertex 0.5871322893124 -2.8070073809607914 1
      vertex 0.5871322893124 -2.8070073809607914 0
    endloop
  endfacet
  facet normal -0.4067366430757995 0.9135454576426013 0
    outer loop
      vertex 0.5871322893124 -2.8070073809607914 1
      vertex 0.95 -2.6454482671904334 1
      vertex 0.95 -2.6454482671904334 0
    endloop
  endfacet
  facet normal -0.5877852522924728 0.8090169943749478 0
    outer loop
      vertex 0.95 -2.6454482671904334 1
      vertex 1.2713481520818306 -2.411975168407049 0
      vertex 0.95 -2.6454482671904334 0
    endloop
  endfacet
  facet normal -0.5877852522924728 0.8090169943749478 0
    outer loop
      vertex 0.95 -2.6454482671904334 1
      vertex 1.2713481520818306 -2.411975168407049 1
      vertex 1.2713481520818306 -2.411975168407049 0
    endloop
  endfacet
  facet normal -0.7431448254773946 0.6691306063588577 0
    outer loop
      vertex 1.2713481520818306 -2.411975168407049 1
      vertex 1.5371322893124 -2.116791979355699 0
      vertex 1.2713481520818306 -2.411975168407049 0
    endloop
  endfacet
  facet normal -0.7431448254773946 0.6691306063588577 0
    outer loop
      vertex 1.2713481520818306 -2.411975168407049 1
      vertex 1.5371322893124 -2.116791979355699 1
      vertex 1.5371322893124 -2.116791979355699 0
    endloop
  endfacet
  facet normal -0.8660254037844387 0.5 0
    outer loop
      vertex 1.5371322893124 -2.116791979355699 1
      vertex 1.7357363695209416 -1.7727996218440203 0
      vertex 1.5371322893124 -2.116791979355699 0
    endloop
  endfacet
  facet normal -0.8660254037844387 0.5 0
    outer loop
      vertex 1.5371322893124 -2.116791979355699 1
      vertex 1.7357363695209416 -1.7727996218440203 1
      vertex 1.7357363695209416 -1.7727996218440203 0
    endloop
  endfacet
  facet normal -0.9510565162951535 0.30901699437494756 0
    outer loop
      vertex 1.7357363695209416 -1.7727996218440203 1
      vertex 1.8584804413942306 -1.3950322125537427 0
      vertex 1.7357363695209416 -1.7727996218440203 0
    endloop
  endfacet
  facet normal -0.9945218953682734 0.10452846326765348 0
    outer loop
      vertex 1.8584804413942306 -1.3950322125537427 1
      vertex 1.9 -1 0
      vertex 1.8584804413942306 -1.3950322125537427 0
    endloop
  endfacet
  facet normal -0.9510565162951535 0.30901699437494756 0
    outer loop
      vertex 1.7357363695209416 -1.7727996218440203 1
      vertex 1.8584804413942306 -1.3950322125537427 1
      vertex 1.8584804413942306 -1.3950322125537427 0
    endloop
  endfacet
  facet normal -0.9945218953682734 0.10452846326765348 0
    outer loop
      vertex 1.8584804413942306 -1.3950322125537427 1
      vertex 1.9 -1 1
      vertex 1.9 -1 0
    endloop
  endfacet
  facet normal -1 0 0
    outer loop
      vertex 1.9 -1 1
      vertex 1.9 6.5 0
      vertex 1.9 -1 0
    endloop
  endfacet
  facet normal -1 0 0
    outer loop
      vertex 1.9 -1 1
      vertex 1.9 6.5 1
      vertex 1.9 6.5 0
    endloop
  endfacet
  facet normal 0 0 1
    outer loop
      vertex -0.7718850001692772 -6.2 1.2005200013518333
      vertex -0.7718850001692772 -6.5 1.2005200013518333
      vertex 0.24124500155448914 -6.2 1.2005200013518333
    endloop
  endfacet
  facet normal 0 0 1
    outer loop
      vertex 0.24124500155448914 -6.2 1.2005200013518333
      vertex -0.7718850001692772 -6.5 1.2005200013518333
      vertex 0.24124500155448914 -6.5 1.2005200013518333
    endloop
  endfacet
  facet normal 0 -1 0
    outer loop
      vertex -0.7718850001692772 -6.2 1.2005200013518333
      vertex 0.24124500155448914 -6.2 1.2005200013518333
      vertex 0.33286499977111816 -6.2 2.250280000269413
    endloop
  endfacet
  facet normal 1 0 0
    outer loop
      vertex -0.7718850001692772 -6.2 1.2005200013518333
      vertex -0.7718850001692772 -6.5 8.86608999967575
      vertex -0.7718850001692772 -6.5 1.2005200013518333
    endloop
  endfacet
  facet normal 0 -1 0
    outer loop
      vertex -0.7718850001692772 -6.2 1.2005200013518333
      vertex 0.33286499977111816 -6.2 2.250280000269413
      vertex -0.7718850001692772 -6.2 8.86608999967575
    endloop
  endfacet
  facet normal 1 0 0
    outer loop
      vertex -0.7718850001692772 -6.2 1.2005200013518333
      vertex -0.7718850001692772 -6.2 8.86608999967575
      vertex -0.7718850001692772 -6.5 8.86608999967575
    endloop
  endfacet
  facet normal 0 -1 0
    outer loop
      vertex 0.33286499977111816 -6.2 2.250280000269413
      vertex 0.33286499977111816 -6.2 8.86608999967575
      vertex -0.7718850001692772 -6.2 8.86608999967575
    endloop
  endfacet
  facet normal 0 0 1
    outer loop
      vertex -2.8651949986815453 -6.2 8.86608999967575
      vertex -2.8651949986815453 -6.5 8.86608999967575
      vertex -0.7718850001692772 -6.2 8.86608999967575
    endloop
  endfacet
  facet normal 1 0 0
    outer loop
      vertex -2.8651949986815453 -6.2 8.86608999967575
      vertex -2.8651949986815453 -6.5 9.79984000325203
      vertex -2.8651949986815453 -6.5 8.86608999967575
    endloop
  endfacet
  facet normal 1 0 0
    outer loop
      vertex -2.8651949986815453 -6.2 8.86608999967575
      vertex -2.8651949986815453 -6.2 9.79984000325203
      vertex -2.8651949986815453 -6.5 9.79984000325203
    endloop
  endfacet
  facet normal 0 -1 0
    outer loop
      vertex -2.8651949986815453 -6.2 8.86608999967575
      vertex -0.7718850001692772 -6.2 8.86608999967575
      vertex -2.8651949986815453 -6.2 9.79984000325203
    endloop
  endfacet
  facet normal 0 0 1
    outer loop
      vertex -0.7718850001692772 -6.2 8.86608999967575
      vertex -2.8651949986815453 -6.5 8.86608999967575
      vertex -0.7718850001692772 -6.5 8.86608999967575
    endloop
  endfacet
  facet normal 0 -1 0
    outer loop
      vertex -2.8651949986815453 -6.2 9.79984000325203
      vertex -0.7718850001692772 -6.2 8.86608999967575
      vertex 2.5238249972462654 -6.2 9.79984000325203
    endloop
  endfacet
  facet normal 0 0 -1
    outer loop
      vertex -2.8651949986815453 -6.2 9.79984000325203
      vertex 2.5238249972462654 -6.5 9.79984000325203
      vertex -2.8651949986815453 -6.5 9.79984000325203
    endloop
  endfacet
  facet normal -0.5666248307547566 0 0.8239759105533022
    outer loop
      vertex 0.24124500155448914 -6.2 1.2005200013518333
      vertex 0.24124500155448914 -6.5 1.2005200013518333
      vertex 2.273625001311302 -6.2 2.598130002617836
    endloop
  endfacet
  facet normal 0 -1 0
    outer loop
      vertex 0.24124500155448914 -6.2 1.2005200013518333
      vertex 2.273625001311302 -6.2 2.598130002617836
      vertex 0.33286499977111816 -6.2 2.250280000269413
    endloop
  endfacet
  facet normal -0.5666248307547566 0 0.8239759105533022
    outer loop
      vertex 2.273625001311302 -6.2 2.598130002617836
      vertex 0.24124500155448914 -6.5 1.2005200013518333
      vertex 2.273625001311302 -6.5 2.598130002617836
    endloop
  endfacet
  facet normal 0.5809918116712423 0 -0.8139094020657137
    outer loop
      vertex 0.33286499977111816 -6.2 2.250280000269413
      vertex 2.273625001311302 -6.5 3.6356500014662743
      vertex 0.33286499977111816 -6.5 2.250280000269413
    endloop
  endfacet
  facet normal -1 0 0
    outer loop
      vertex 0.33286499977111816 -6.2 2.250280000269413
      vertex 0.33286499977111816 -6.5 2.250280000269413
      vertex 0.33286499977111816 -6.5 5.635611666573419
    endloop
  endfacet
  facet normal 0 -1 0
    outer loop
      vertex 0.33286499977111816 -6.2 2.250280000269413
      vertex 2.273625001311302 -6.2 2.598130002617836
      vertex 2.273625001311302 -6.2 3.6356500014662743
    endloop
  endfacet
  facet normal 0.5809918116712423 0 -0.8139094020657137
    outer loop
      vertex 0.33286499977111816 -6.2 2.250280000269413
      vertex 2.273625001311302 -6.2 3.6356500014662743
      vertex 2.273625001311302 -6.5 3.6356500014662743
    endloop
  endfacet
  facet normal -1 0 0
    outer loop
      vertex 2.273625001311302 -6.2 2.598130002617836
      vertex 2.273625001311302 -6.5 2.598130002617836
      vertex 2.273625001311302 -6.2 3.6356500014662743
    endloop
  endfacet
  facet normal -1 0 0
    outer loop
      vertex 2.273625001311302 -6.2 3.6356500014662743
      vertex 2.273625001311302 -6.5 2.598130002617836
      vertex 2.273625001311302 -6.5 3.6356500014662743
    endloop
  endfacet
  facet normal -1 0 0
    outer loop
      vertex 0.33286499977111816 -6.2 2.250280000269413
      vertex 0.33286499977111816 -6.5 5.635611666573419
      vertex 0.33286499977111816 -6.2 8.86608999967575
    endloop
  endfacet
  facet normal -1 0 0
    outer loop
      vertex 0.33286499977111816 -6.2 8.86608999967575
      vertex 0.33286499977111816 -6.5 5.635611666573419
      vertex 0.33286499977111816 -6.5 8.86608999967575
    endloop
  endfacet
  facet normal 0 0 1
    outer loop
      vertex 0.33286499977111816 -6.2 8.86608999967575
      vertex 0.33286499977111816 -6.5 8.86608999967575
      vertex 2.5238249972462654 -6.2 8.86608999967575
    endloop
  endfacet
  facet normal 0 -1 0
    outer loop
      vertex -0.7718850001692772 -6.2 8.86608999967575
      vertex 0.33286499977111816 -6.2 8.86608999967575
      vertex 2.5238249972462654 -6.2 9.79984000325203
    endloop
  endfacet
  facet normal 0 0 1
    outer loop
      vertex 2.5238249972462654 -6.2 8.86608999967575
      vertex 0.33286499977111816 -6.5 8.86608999967575
      vertex 2.5238249972462654 -6.5 8.86608999967575
    endloop
  endfacet
  facet normal 0 -1 0
    outer loop
      vertex 0.33286499977111816 -6.2 8.86608999967575
      vertex 2.5238249972462654 -6.2 8.86608999967575
      vertex 2.5238249972462654 -6.2 9.79984000325203
    endloop
  endfacet
  facet normal -1 0 0
    outer loop
      vertex 2.5238249972462654 -6.2 8.86608999967575
      vertex 2.5238249972462654 -6.5 8.86608999967575
      vertex 2.5238249972462654 -6.2 9.79984000325203
    endloop
  endfacet
  facet normal -1 0 0
    outer loop
      vertex 2.5238249972462654 -6.2 9.79984000325203
      vertex 2.5238249972462654 -6.5 8.86608999967575
      vertex 2.5238249972462654 -6.5 9.79984000325203
    endloop
  endfacet
  facet normal 0 0 -1
    outer loop
      vertex -2.8651949986815453 -6.2 9.79984000325203
      vertex 2.5238249972462654 -6.2 9.79984000325203
      vertex 2.5238249972462654 -6.5 9.79984000325203
    endloop
  endfacet
endsolid OpenSCAD_Model
