solid OpenSCAD_Model
  facet normal 0 0 -1
    outer loop
      vertex -3.409154463296344 -4.692298567374695 0
      vertex -4.1012193308819755 -4.1012193308819755 0
      vertex -3.3978713763747788 -2.468698059628387 0
    endloop
  endfacet
  facet normal 0 0 -1
    outer loop
      vertex -4.692298567374695 -3.409154463296344 0
      vertex -3.994437368439644 -1.297871376374779 0
      vertex -4.1012193308819755 -4.1012193308819755 0
    endloop
  endfacet
  facet normal 0 0 -1
    outer loop
      vertex -3.409154463296344 -4.692298567374695 0
      vertex -2.9698484809834995 -2.9698484809834995 0
      vertex -2.468698059628387 -3.3978713763747788 0
    endloop
  endfacet
  facet normal 0 0 -1
    outer loop
      vertex -3.409154463296344 -4.692298567374695 0
      vertex -3.3978713763747788 -2.468698059628387 0
      vertex -2.9698484809834995 -2.9698484809834995 0
    endloop
  endfacet
  facet normal -0.760405965600031 -0.6494480483301837 0
    outer loop
      vertex -4.692298567374695 -3.409154463296344 0
      vertex -4.1012193308819755 -4.1012193308819755 0
      vertex -4.692298567374695 -3.409154463296344 0.8
    endloop
  endfacet
  facet normal -0.6494480483301837 -0.760405965600031 0
    outer loop
      vertex -3.409154463296344 -4.692298567374695 0
      vertex -3.409154463296344 -4.692298567374695 0.8
      vertex -4.1012193308819755 -4.1012193308819755 0
    endloop
  endfacet
  facet normal 0 0 -1
    outer loop
      vertex -5.51612779451189 -1.792298567374695 0
      vertex -5.728592375451799 -0.9073198972333391 0
      vertex -5.51612779451189 1.792298567374695 0
    endloop
  endfacet
  facet normal 0 0 -1
    outer loop
      vertex -5.167837840292534 -2.633144898489371 0
      vertex -5.51612779451189 -1.792298567374695 0
      vertex -5.167837840292534 2.633144898489371 0
    endloop
  endfacet
  facet normal 0 0 -1
    outer loop
      vertex -4.692298567374695 -3.409154463296344 0
      vertex -5.167837840292534 -2.633144898489371 0
      vertex -4.692298567374695 3.409154463296344 0
    endloop
  endfacet
  facet normal 0 0 -1
    outer loop
      vertex -4.1012193308819755 -4.1012193308819755 0
      vertex -3.7422274015911445 -1.906760098906096 0
      vertex -3.3978713763747788 -2.468698059628387 0
    endloop
  endfacet
  facet normal 0 0 -1
    outer loop
      vertex -4.1012193308819755 -4.1012193308819755 0
      vertex -3.994437368439644 -1.297871376374779 0
      vertex -3.7422274015911445 -1.906760098906096 0
    endloop
  endfacet
  facet normal 0 0 -1
    outer loop
      vertex -4.692298567374695 -3.409154463296344 0
      vertex -4.148291030499578 -0.6570247531689696 0
      vertex -3.994437368439644 -1.297871376374779 0
    endloop
  endfacet
  facet normal 0 0 -1
    outer loop
      vertex -4.692298567374695 -3.409154463296344 0
      vertex -4.199999999999999 0 0
      vertex -4.148291030499578 -0.6570247531689696 0
    endloop
  endfacet
  facet normal -0.923879532511287 -0.382683432365089 0
    outer loop
      vertex -5.167837840292534 -2.633144898489371 0
      vertex -5.51612779451189 -1.792298567374695 0.8
      vertex -5.51612779451189 -1.792298567374695 0
    endloop
  endfacet
  facet normal -0.8526401643540921 -0.522498564715949 0
    outer loop
      vertex -4.692298567374695 -3.409154463296344 0
      vertex -5.167837840292534 -2.633144898489371 0.8
      vertex -5.167837840292534 -2.633144898489371 0
    endloop
  endfacet
  facet normal -0.9723699203976762 -0.23344536385590667 0
    outer loop
      vertex -5.51612779451189 -1.792298567374695 0
      vertex -5.728592375451799 -0.9073198972333391 0.8
      vertex -5.728592375451799 -0.9073198972333391 0
    endloop
  endfacet
  facet normal -0.9969173337331281 -0.07845909572784418 0
    outer loop
      vertex -5.728592375451799 -0.9073198972333391 0
      vertex -5.8 0 0.8
      vertex -5.8 0 0
    endloop
  endfacet
  facet normal 0 0 -1
    outer loop
      vertex -3.409154463296344 -4.692298567374695 0
      vertex -2.468698059628387 -3.3978713763747788 0
      vertex -2.633144898489371 -5.167837840292534 0
    endloop
  endfacet
  facet normal 0 0 -1
    outer loop
      vertex -2.633144898489371 -5.167837840292534 0
      vertex -1.297871376374779 -3.994437368439644 0
      vertex -1.792298567374695 -5.51612779451189 0
    endloop
  endfacet
  facet normal 0 0 -1
    outer loop
      vertex -2.633144898489371 -5.167837840292534 0
      vertex -2.468698059628387 -3.3978713763747788 0
      vertex -1.906760098906096 -3.7422274015911445 0
    endloop
  endfacet
  facet normal 0 0 -1
    outer loop
      vertex -2.633144898489371 -5.167837840292534 0
      vertex -1.906760098906096 -3.7422274015911445 0
      vertex -1.297871376374779 -3.994437368439644 0
    endloop
  endfacet
  facet normal 0 0 -1
    outer loop
      vertex -1.792298567374695 -5.51612779451189 0
      vertex -0.6570247531689696 -4.148291030499578 0
      vertex -0.9073198972333391 -5.728592375451799 0
    endloop
  endfacet
  facet normal 0 0 -1
    outer loop
      vertex -1.792298567374695 -5.51612779451189 0
      vertex -1.297871376374779 -3.994437368439644 0
      vertex -0.6570247531689696 -4.148291030499578 0
    endloop
  endfacet
  facet normal 0 0 -1
    outer loop
      vertex -0.9073198972333391 -5.728592375451799 0
      vertex 0 -4.199999999999999 0
      vertex 0 -5.8 0
    endloop
  endfacet
  facet normal 0 0 -1
    outer loop
      vertex -0.9073198972333391 -5.728592375451799 0
      vertex -0.6570247531689696 -4.148291030499578 0
      vertex 0 -4.199999999999999 0
    endloop
  endfacet
  facet normal -0.522498564715949 -0.8526401643540921 0
    outer loop
      vertex -3.409154463296344 -4.692298567374695 0
      vertex -2.633144898489371 -5.167837840292534 0
      vertex -2.633144898489371 -5.167837840292534 0.8
    endloop
  endfacet
  facet normal -0.382683432365089 -0.923879532511287 0
    outer loop
      vertex -2.633144898489371 -5.167837840292534 0
      vertex -1.792298567374695 -5.51612779451189 0
      vertex -1.792298567374695 -5.51612779451189 0.8
    endloop
  endfacet
  facet normal -0.23344536385590667 -0.9723699203976762 0
    outer loop
      vertex -1.792298567374695 -5.51612779451189 0
      vertex -0.9073198972333391 -5.728592375451799 0
      vertex -0.9073198972333391 -5.728592375451799 0.8
    endloop
  endfacet
  facet normal -0.07845909572784418 -0.9969173337331281 0
    outer loop
      vertex -0.9073198972333391 -5.728592375451799 0
      vertex 0 -5.8 0
      vertex 0 -5.8 0.8
    endloop
  endfacet
  facet normal -0.8526401643540921 -0.522498564715949 0
    outer loop
      vertex -4.692298567374695 -3.409154463296344 0
      vertex -4.692298567374695 -3.409154463296344 0.8
      vertex -5.167837840292534 -2.633144898489371 0.8
    endloop
  endfacet
  facet normal -0.522498564715949 -0.8526401643540921 0
    outer loop
      vertex -3.409154463296344 -4.692298567374695 0
      vertex -2.633144898489371 -5.167837840292534 0.8
      vertex -3.409154463296344 -4.692298567374695 0.8
    endloop
  endfacet
  facet normal -0.760405965600031 -0.6494480483301837 0
    outer loop
      vertex -4.1012193308819755 -4.1012193308819755 0
      vertex -4.1012193308819755 -4.1012193308819755 0.8
      vertex -4.692298567374695 -3.409154463296344 0.8
    endloop
  endfacet
  facet normal -0.6494480483301837 -0.760405965600031 0
    outer loop
      vertex -4.1012193308819755 -4.1012193308819755 0
      vertex -3.409154463296344 -4.692298567374695 0.8
      vertex -4.1012193308819755 -4.1012193308819755 0.8
    endloop
  endfacet
  facet normal 0 0 1
    outer loop
      vertex -3.409154463296344 -4.692298567374695 0.8
      vertex -3.7422274015911445 -1.906760098906096 0.8
      vertex -4.1012193308819755 -4.1012193308819755 0.8
    endloop
  endfacet
  facet normal 0 0 1
    outer loop
      vertex -3.409154463296344 -4.692298567374695 0.8
      vertex -2.633144898489371 -5.167837840292534 0.8
      vertex -2.9698484809834995 -2.9698484809834995 0.8
    endloop
  endfacet
  facet normal 0 0 1
    outer loop
      vertex -3.409154463296344 -4.692298567374695 0.8
      vertex -3.3978713763747788 -2.468698059628387 0.8
      vertex -3.7422274015911445 -1.906760098906096 0.8
    endloop
  endfacet
  facet normal 0 0 1
    outer loop
      vertex -3.409154463296344 -4.692298567374695 0.8
      vertex -2.9698484809834995 -2.9698484809834995 0.8
      vertex -3.3978713763747788 -2.468698059628387 0.8
    endloop
  endfacet
  facet normal -0.923879532511287 -0.382683432365089 0
    outer loop
      vertex -5.167837840292534 -2.633144898489371 0
      vertex -5.167837840292534 -2.633144898489371 0.8
      vertex -5.51612779451189 -1.792298567374695 0.8
    endloop
  endfacet
  facet normal -0.9723699203976762 -0.23344536385590667 0
    outer loop
      vertex -5.51612779451189 -1.792298567374695 0
      vertex -5.51612779451189 -1.792298567374695 0.8
      vertex -5.728592375451799 -0.9073198972333391 0.8
    endloop
  endfacet
  facet normal -0.9969173337331281 -0.07845909572784418 0
    outer loop
      vertex -5.728592375451799 -0.9073198972333391 0
      vertex -5.728592375451799 -0.9073198972333391 0.8
      vertex -5.8 0 0.8
    endloop
  endfacet
  facet normal 0 0 1
    outer loop
      vertex -5.167837840292534 -2.633144898489371 0.8
      vertex -5.51612779451189 1.792298567374695 0.8
      vertex -5.51612779451189 -1.792298567374695 0.8
    endloop
  endfacet
  facet normal 0 0 1
    outer loop
      vertex -5.51612779451189 -1.792298567374695 0.8
      vertex -5.728592375451799 0.9073198972333391 0.8
      vertex -5.728592375451799 -0.9073198972333391 0.8
    endloop
  endfacet
  facet normal 0 0 1
    outer loop
      vertex -4.692298567374695 -3.409154463296344 0.8
      vertex -5.167837840292534 2.633144898489371 0.8
      vertex -5.167837840292534 -2.633144898489371 0.8
    endloop
  endfacet
  facet normal 0 0 1
    outer loop
      vertex -4.692298567374695 -3.409154463296344 0.8
      vertex -4.1012193308819755 -4.1012193308819755 0.8
      vertex -4.692298567374695 3.409154463296344 0.8
    endloop
  endfacet
  facet normal 0 0 1
    outer loop
      vertex -4.1012193308819755 -4.1012193308819755 0.8
      vertex -3.7422274015911445 -1.906760098906096 0.8
      vertex -3.994437368439644 -1.297871376374779 0.8
    endloop
  endfacet
  facet normal 0 0 1
    outer loop
      vertex -4.1012193308819755 -4.1012193308819755 0.8
      vertex -3.994437368439644 -1.297871376374779 0.8
      vertex -4.148291030499578 -0.6570247531689696 0.8
    endloop
  endfacet
  facet normal 0 0 1
    outer loop
      vertex -4.1012193308819755 -4.1012193308819755 0.8
      vertex -4.148291030499578 -0.6570247531689696 0.8
      vertex -4.199999999999999 0 0.8
    endloop
  endfacet
  facet normal 0 0 1
    outer loop
      vertex -4.1012193308819755 -4.1012193308819755 0.8
      vertex -4.199999999999999 0 0.8
      vertex -4.692298567374695 3.409154463296344 0.8
    endloop
  endfacet
  facet normal -0.382683432365089 -0.923879532511287 0
    outer loop
      vertex -2.633144898489371 -5.167837840292534 0
      vertex -1.792298567374695 -5.51612779451189 0.8
      vertex -2.633144898489371 -5.167837840292534 0.8
    endloop
  endfacet
  facet normal -0.23344536385590667 -0.9723699203976762 0
    outer loop
      vertex -1.792298567374695 -5.51612779451189 0
      vertex -0.9073198972333391 -5.728592375451799 0.8
      vertex -1.792298567374695 -5.51612779451189 0.8
    endloop
  endfacet
  facet normal -0.07845909572784418 -0.9969173337331281 0
    outer loop
      vertex -0.9073198972333391 -5.728592375451799 0
      vertex 0 -5.8 0.8
      vertex -0.9073198972333391 -5.728592375451799 0.8
    endloop
  endfacet
  facet normal 0 0 1
    outer loop
      vertex -2.633144898489371 -5.167837840292534 0.8
      vertex -1.792298567374695 -5.51612779451189 0.8
      vertex -2.468698059628387 -3.3978713763747788 0.8
    endloop
  endfacet
  facet normal 0 0 1
    outer loop
      vertex -1.792298567374695 -5.51612779451189 0.8
      vertex -1.297871376374779 -3.994437368439644 0.8
      vertex -1.906760098906096 -3.7422274015911445 0.8
    endloop
  endfacet
  facet normal 0 0 1
    outer loop
      vertex -2.633144898489371 -5.167837840292534 0.8
      vertex -2.468698059628387 -3.3978713763747788 0.8
      vertex -2.9698484809834995 -2.9698484809834995 0.8
    endloop
  endfacet
  facet normal 0 0 1
    outer loop
      vertex -1.792298567374695 -5.51612779451189 0.8
      vertex -1.906760098906096 -3.7422274015911445 0.8
      vertex -2.468698059628387 -3.3978713763747788 0.8
    endloop
  endfacet
  facet normal 0 0 1
    outer loop
      vertex -1.792298567374695 -5.51612779451189 0.8
      vertex -0.9073198972333391 -5.728592375451799 0.8
      vertex -1.297871376374779 -3.994437368439644 0.8
    endloop
  endfacet
  facet normal 0 0 1
    outer loop
      vertex -0.9073198972333391 -5.728592375451799 0.8
      vertex -0.6570247531689696 -4.148291030499578 0.8
      vertex -1.297871376374779 -3.994437368439644 0.8
    endloop
  endfacet
  facet normal 0 0 1
    outer loop
      vertex -0.9073198972333391 -5.728592375451799 0.8
      vertex 0 -5.8 0.8
      vertex -0.6570247531689696 -4.148291030499578 0.8
    endloop
  endfacet
  facet normal 0 0 1
    outer loop
      vertex 0 -5.8 0.8
      vertex 0 -4.199999999999999 0.8
      vertex -0.6570247531689696 -4.148291030499578 0.8
    endloop
  endfacet
  facet normal 0 0 -1
    outer loop
      vertex -5.728592375451799 -0.9073198972333391 0
      vertex -5.8 0 0
      vertex -5.728592375451799 0.9073198972333391 0
    endloop
  endfacet
  facet normal 0 0 -1
    outer loop
      vertex -5.728592375451799 -0.9073198972333391 0
      vertex -5.728592375451799 0.9073198972333391 0
      vertex -5.51612779451189 1.792298567374695 0
    endloop
  endfacet
  facet normal 0 0 -1
    outer loop
      vertex -5.51612779451189 -1.792298567374695 0
      vertex -5.51612779451189 1.792298567374695 0
      vertex -5.167837840292534 2.633144898489371 0
    endloop
  endfacet
  facet normal 0 0 -1
    outer loop
      vertex -5.167837840292534 -2.633144898489371 0
      vertex -5.167837840292534 2.633144898489371 0
      vertex -4.692298567374695 3.409154463296344 0
    endloop
  endfacet
  facet normal 0 0 -1
    outer loop
      vertex -4.692298567374695 -3.409154463296344 0
      vertex -4.692298567374695 3.409154463296344 0
      vertex -4.1012193308819755 4.1012193308819755 0
    endloop
  endfacet
  facet normal 0 0 -1
    outer loop
      vertex -4.692298567374695 -3.409154463296344 0
      vertex -4.1012193308819755 4.1012193308819755 0
      vertex -4.199999999999999 0 0
    endloop
  endfacet
  facet normal 0 0 -1
    outer loop
      vertex -4.1012193308819755 4.1012193308819755 0
      vertex -4.148291030499578 0.6570247531689696 0
      vertex -4.199999999999999 0 0
    endloop
  endfacet
  facet normal 0 0 -1
    outer loop
      vertex -4.1012193308819755 4.1012193308819755 0
      vertex -3.994437368439644 1.297871376374779 0
      vertex -4.148291030499578 0.6570247531689696 0
    endloop
  endfacet
  facet normal 0 0 -1
    outer loop
      vertex -4.1012193308819755 4.1012193308819755 0
      vertex -3.7422274015911445 1.906760098906096 0
      vertex -3.994437368439644 1.297871376374779 0
    endloop
  endfacet
  facet normal -0.9969173337331281 0.07845909572784418 0
    outer loop
      vertex -5.8 0 0
      vertex -5.728592375451799 0.9073198972333391 0.8
      vertex -5.728592375451799 0.9073198972333391 0
    endloop
  endfacet
  facet normal -0.9723699203976762 0.23344536385590667 0
    outer loop
      vertex -5.728592375451799 0.9073198972333391 0
      vertex -5.51612779451189 1.792298567374695 0.8
      vertex -5.51612779451189 1.792298567374695 0
    endloop
  endfacet
  facet normal -0.923879532511287 0.382683432365089 0
    outer loop
      vertex -5.51612779451189 1.792298567374695 0
      vertex -5.167837840292534 2.633144898489371 0.8
      vertex -5.167837840292534 2.633144898489371 0
    endloop
  endfacet
  facet normal 0 0 -1
    outer loop
      vertex -4.1012193308819755 4.1012193308819755 0
      vertex -3.409154463296344 4.692298567374695 0
      vertex -3.7422274015911445 1.906760098906096 0
    endloop
  endfacet
  facet normal 0 0 -1
    outer loop
      vertex -3.409154463296344 4.692298567374695 0
      vertex -3.3978713763747788 2.468698059628387 0
      vertex -3.7422274015911445 1.906760098906096 0
    endloop
  endfacet
  facet normal 0 0 -1
    outer loop
      vertex -3.409154463296344 4.692298567374695 0
      vertex -2.9698484809834995 2.9698484809834995 0
      vertex -3.3978713763747788 2.468698059628387 0
    endloop
  endfacet
  facet normal 0 0 -1
    outer loop
      vertex -3.409154463296344 4.692298567374695 0
      vertex -2.633144898489371 5.167837840292534 0
      vertex -2.9698484809834995 2.9698484809834995 0
    endloop
  endfacet
  facet normal -0.8526401643540921 0.522498564715949 0
    outer loop
      vertex -5.167837840292534 2.633144898489371 0
      vertex -4.692298567374695 3.409154463296344 0.8
      vertex -4.692298567374695 3.409154463296344 0
    endloop
  endfacet
  facet normal -0.760405965600031 0.6494480483301837 0
    outer loop
      vertex -4.692298567374695 3.409154463296344 0
      vertex -4.1012193308819755 4.1012193308819755 0.8
      vertex -4.1012193308819755 4.1012193308819755 0
    endloop
  endfacet
  facet normal -0.6494480483301837 0.760405965600031 0
    outer loop
      vertex -4.1012193308819755 4.1012193308819755 0
      vertex -4.1012193308819755 4.1012193308819755 0.8
      vertex -3.409154463296344 4.692298567374695 0
    endloop
  endfacet
  facet normal -0.522498564715949 0.8526401643540921 0
    outer loop
      vertex -3.409154463296344 4.692298567374695 0
      vertex -3.409154463296344 4.692298567374695 0.8
      vertex -2.633144898489371 5.167837840292534 0
    endloop
  endfacet
  facet normal 0 0 -1
    outer loop
      vertex -2.633144898489371 5.167837840292534 0
      vertex -2.468698059628387 3.3978713763747788 0
      vertex -2.9698484809834995 2.9698484809834995 0
    endloop
  endfacet
  facet normal 0 0 -1
    outer loop
      vertex -1.792298567374695 5.51612779451189 0
      vertex -1.906760098906096 3.7422274015911445 0
      vertex -2.468698059628387 3.3978713763747788 0
    endloop
  endfacet
  facet normal 0 0 -1
    outer loop
      vertex -2.633144898489371 5.167837840292534 0
      vertex -1.792298567374695 5.51612779451189 0
      vertex -2.468698059628387 3.3978713763747788 0
    endloop
  endfacet
  facet normal 0 0 -1
    outer loop
      vertex -1.792298567374695 5.51612779451189 0
      vertex -1.297871376374779 3.994437368439644 0
      vertex -1.906760098906096 3.7422274015911445 0
    endloop
  endfacet
  facet normal 0 0 -1
    outer loop
      vertex -0.9073198972333391 5.728592375451799 0
      vertex -0.6570247531689696 4.148291030499578 0
      vertex -1.297871376374779 3.994437368439644 0
    endloop
  endfacet
  facet normal 0 0 -1
    outer loop
      vertex -1.792298567374695 5.51612779451189 0
      vertex -0.9073198972333391 5.728592375451799 0
      vertex -1.297871376374779 3.994437368439644 0
    endloop
  endfacet
  facet normal 0 0 -1
    outer loop
      vertex 0 5.8 0
      vertex 0 4.199999999999999 0
      vertex -0.6570247531689696 4.148291030499578 0
    endloop
  endfacet
  facet normal 0 0 -1
    outer loop
      vertex -0.9073198972333391 5.728592375451799 0
      vertex 0 5.8 0
      vertex -0.6570247531689696 4.148291030499578 0
    endloop
  endfacet
  facet normal -0.382683432365089 0.923879532511287 0
    outer loop
      vertex -2.633144898489371 5.167837840292534 0
      vertex -2.633144898489371 5.167837840292534 0.8
      vertex -1.792298567374695 5.51612779451189 0
    endloop
  endfacet
  facet normal -0.23344536385590667 0.9723699203976762 0
    outer loop
      vertex -1.792298567374695 5.51612779451189 0
      vertex -1.792298567374695 5.51612779451189 0.8
      vertex -0.9073198972333391 5.728592375451799 0
    endloop
  endfacet
  facet normal -0.07845909572784418 0.9969173337331281 0
    outer loop
      vertex -0.9073198972333391 5.728592375451799 0
      vertex -0.9073198972333391 5.728592375451799 0.8
      vertex 0 5.8 0
    endloop
  endfacet
  facet normal -0.9969173337331281 0.07845909572784418 0
    outer loop
      vertex -5.8 0 0
      vertex -5.8 0 0.8
      vertex -5.728592375451799 0.9073198972333391 0.8
    endloop
  endfacet
  facet normal -0.9723699203976762 0.23344536385590667 0
    outer loop
      vertex -5.728592375451799 0.9073198972333391 0
      vertex -5.728592375451799 0.9073198972333391 0.8
      vertex -5.51612779451189 1.792298567374695 0.8
    endloop
  endfacet
  facet normal -0.923879532511287 0.382683432365089 0
    outer loop
      vertex -5.51612779451189 1.792298567374695 0
      vertex -5.51612779451189 1.792298567374695 0.8
      vertex -5.167837840292534 2.633144898489371 0.8
    endloop
  endfacet
  facet normal -0.8526401643540921 0.522498564715949 0
    outer loop
      vertex -5.167837840292534 2.633144898489371 0
      vertex -5.167837840292534 2.633144898489371 0.8
      vertex -4.692298567374695 3.409154463296344 0.8
    endloop
  endfacet
  facet normal 0 0 1
    outer loop
      vertex -5.728592375451799 -0.9073198972333391 0.8
      vertex -5.728592375451799 0.9073198972333391 0.8
      vertex -5.8 0 0.8
    endloop
  endfacet
  facet normal 0 0 1
    outer loop
      vertex -5.51612779451189 -1.792298567374695 0.8
      vertex -5.51612779451189 1.792298567374695 0.8
      vertex -5.728592375451799 0.9073198972333391 0.8
    endloop
  endfacet
  facet normal 0 0 1
    outer loop
      vertex -5.167837840292534 -2.633144898489371 0.8
      vertex -5.167837840292534 2.633144898489371 0.8
      vertex -5.51612779451189 1.792298567374695 0.8
    endloop
  endfacet
  facet normal 0 0 1
    outer loop
      vertex -4.692298567374695 -3.409154463296344 0.8
      vertex -4.692298567374695 3.409154463296344 0.8
      vertex -5.167837840292534 2.633144898489371 0.8
    endloop
  endfacet
  facet normal 0 0 1
    outer loop
      vertex -4.692298567374695 3.409154463296344 0.8
      vertex -4.199999999999999 0 0.8
      vertex -4.148291030499578 0.6570247531689696 0.8
    endloop
  endfacet
  facet normal 0 0 1
    outer loop
      vertex -4.692298567374695 3.409154463296344 0.8
      vertex -4.148291030499578 0.6570247531689696 0.8
      vertex -3.994437368439644 1.297871376374779 0.8
    endloop
  endfacet
  facet normal 0 0 1
    outer loop
      vertex -4.1012193308819755 4.1012193308819755 0.8
      vertex -3.994437368439644 1.297871376374779 0.8
      vertex -3.7422274015911445 1.906760098906096 0.8
    endloop
  endfacet
  facet normal 0 0 1
    outer loop
      vertex -4.1012193308819755 4.1012193308819755 0.8
      vertex -3.7422274015911445 1.906760098906096 0.8
      vertex -3.3978713763747788 2.468698059628387 0.8
    endloop
  endfacet
  facet normal -0.760405965600031 0.6494480483301837 0
    outer loop
      vertex -4.692298567374695 3.409154463296344 0
      vertex -4.692298567374695 3.409154463296344 0.8
      vertex -4.1012193308819755 4.1012193308819755 0.8
    endloop
  endfacet
  facet normal -0.6494480483301837 0.760405965600031 0
    outer loop
      vertex -3.409154463296344 4.692298567374695 0
      vertex -4.1012193308819755 4.1012193308819755 0.8
      vertex -3.409154463296344 4.692298567374695 0.8
    endloop
  endfacet
  facet normal 0 0 1
    outer loop
      vertex -4.692298567374695 3.409154463296344 0.8
      vertex -3.994437368439644 1.297871376374779 0.8
      vertex -4.1012193308819755 4.1012193308819755 0.8
    endloop
  endfacet
  facet normal 0 0 1
    outer loop
      vertex -4.1012193308819755 4.1012193308819755 0.8
      vertex -3.3978713763747788 2.468698059628387 0.8
      vertex -3.409154463296344 4.692298567374695 0.8
    endloop
  endfacet
  facet normal 0 0 1
    outer loop
      vertex -3.409154463296344 4.692298567374695 0.8
      vertex -3.3978713763747788 2.468698059628387 0.8
      vertex -2.9698484809834995 2.9698484809834995 0.8
    endloop
  endfacet
  facet normal 0 0 1
    outer loop
      vertex -3.409154463296344 4.692298567374695 0.8
      vertex -2.9698484809834995 2.9698484809834995 0.8
      vertex -2.468698059628387 3.3978713763747788 0.8
    endloop
  endfacet
  facet normal -0.522498564715949 0.8526401643540921 0
    outer loop
      vertex -2.633144898489371 5.167837840292534 0
      vertex -3.409154463296344 4.692298567374695 0.8
      vertex -2.633144898489371 5.167837840292534 0.8
    endloop
  endfacet
  facet normal -0.382683432365089 0.923879532511287 0
    outer loop
      vertex -1.792298567374695 5.51612779451189 0
      vertex -2.633144898489371 5.167837840292534 0.8
      vertex -1.792298567374695 5.51612779451189 0.8
    endloop
  endfacet
  facet normal -0.23344536385590667 0.9723699203976762 0
    outer loop
      vertex -0.9073198972333391 5.728592375451799 0
      vertex -1.792298567374695 5.51612779451189 0.8
      vertex -0.9073198972333391 5.728592375451799 0.8
    endloop
  endfacet
  facet normal -0.07845909572784418 0.9969173337331281 0
    outer loop
      vertex -0.9073198972333391 5.728592375451799 0.8
      vertex 0 5.8 0.8
      vertex 0 5.8 0
    endloop
  endfacet
  facet normal 0 0 1
    outer loop
      vertex -2.633144898489371 5.167837840292534 0.8
      vertex -2.468698059628387 3.3978713763747788 0.8
      vertex -1.906760098906096 3.7422274015911445 0.8
    endloop
  endfacet
  facet normal 0 0 1
    outer loop
      vertex -2.633144898489371 5.167837840292534 0.8
      vertex -1.906760098906096 3.7422274015911445 0.8
      vertex -1.297871376374779 3.994437368439644 0.8
    endloop
  endfacet
  facet normal 0 0 1
    outer loop
      vertex -3.409154463296344 4.692298567374695 0.8
      vertex -2.468698059628387 3.3978713763747788 0.8
      vertex -2.633144898489371 5.167837840292534 0.8
    endloop
  endfacet
  facet normal 0 0 1
    outer loop
      vertex -2.633144898489371 5.167837840292534 0.8
      vertex -1.297871376374779 3.994437368439644 0.8
      vertex -1.792298567374695 5.51612779451189 0.8
    endloop
  endfacet
  facet normal 0 0 1
    outer loop
      vertex -1.792298567374695 5.51612779451189 0.8
      vertex -1.297871376374779 3.994437368439644 0.8
      vertex -0.6570247531689696 4.148291030499578 0.8
    endloop
  endfacet
  facet normal 0 0 1
    outer loop
      vertex -1.792298567374695 5.51612779451189 0.8
      vertex -0.6570247531689696 4.148291030499578 0.8
      vertex -0.9073198972333391 5.728592375451799 0.8
    endloop
  endfacet
  facet normal 0 0 1
    outer loop
      vertex -0.9073198972333391 5.728592375451799 0.8
      vertex -0.6570247531689696 4.148291030499578 0.8
      vertex 0 4.199999999999999 0.8
    endloop
  endfacet
  facet normal 0 0 1
    outer loop
      vertex -0.9073198972333391 5.728592375451799 0.8
      vertex 0 4.199999999999999 0.8
      vertex 0 5.8 0.8
    endloop
  endfacet
  facet normal 0 0 -1
    outer loop
      vertex 0 -5.8 0
      vertex 0.6570247531689696 -4.148291030499578 0
      vertex 0.9073198972333391 -5.728592375451799 0
    endloop
  endfacet
  facet normal 0 0 -1
    outer loop
      vertex 0 -5.8 0
      vertex 0 -4.199999999999999 0
      vertex 0.6570247531689696 -4.148291030499578 0
    endloop
  endfacet
  facet normal 0 0 -1
    outer loop
      vertex 0.9073198972333391 -5.728592375451799 0
      vertex 1.297871376374779 -3.994437368439644 0
      vertex 1.792298567374695 -5.51612779451189 0
    endloop
  endfacet
  facet normal 0 0 -1
    outer loop
      vertex 0.9073198972333391 -5.728592375451799 0
      vertex 0.6570247531689696 -4.148291030499578 0
      vertex 1.297871376374779 -3.994437368439644 0
    endloop
  endfacet
  facet normal 0 0 -1
    outer loop
      vertex 1.792298567374695 -5.51612779451189 0
      vertex 1.297871376374779 -3.994437368439644 0
      vertex 1.906760098906096 -3.7422274015911445 0
    endloop
  endfacet
  facet normal 0 0 -1
    outer loop
      vertex 1.792298567374695 -5.51612779451189 0
      vertex 2.468698059628387 -3.3978713763747788 0
      vertex 2.633144898489371 -5.167837840292534 0
    endloop
  endfacet
  facet normal 0 0 -1
    outer loop
      vertex 1.792298567374695 -5.51612779451189 0
      vertex 1.906760098906096 -3.7422274015911445 0
      vertex 2.468698059628387 -3.3978713763747788 0
    endloop
  endfacet
  facet normal 0 0 -1
    outer loop
      vertex 2.633144898489371 -5.167837840292534 0
      vertex 2.468698059628387 -3.3978713763747788 0
      vertex 2.9698484809834995 -2.9698484809834995 0
    endloop
  endfacet
  facet normal 0.07845909572784418 -0.9969173337331281 0
    outer loop
      vertex 0 -5.8 0
      vertex 0.9073198972333391 -5.728592375451799 0
      vertex 0.9073198972333391 -5.728592375451799 0.8
    endloop
  endfacet
  facet normal 0.23344536385590667 -0.9723699203976762 0
    outer loop
      vertex 0.9073198972333391 -5.728592375451799 0
      vertex 1.792298567374695 -5.51612779451189 0
      vertex 1.792298567374695 -5.51612779451189 0.8
    endloop
  endfacet
  facet normal 0.382683432365089 -0.923879532511287 0
    outer loop
      vertex 1.792298567374695 -5.51612779451189 0
      vertex 2.633144898489371 -5.167837840292534 0
      vertex 2.633144898489371 -5.167837840292534 0.8
    endloop
  endfacet
  facet normal 0 0 -1
    outer loop
      vertex 2.633144898489371 -5.167837840292534 0
      vertex 2.9698484809834995 -2.9698484809834995 0
      vertex 3.409154463296344 -4.692298567374695 0
    endloop
  endfacet
  facet normal 0 0 -1
    outer loop
      vertex 3.409154463296344 -4.692298567374695 0
      vertex 2.9698484809834995 -2.9698484809834995 0
      vertex 3.3978713763747788 -2.468698059628387 0
    endloop
  endfacet
  facet normal 0 0 -1
    outer loop
      vertex 3.409154463296344 -4.692298567374695 0
      vertex 3.3978713763747788 -2.468698059628387 0
      vertex 3.7422274015911445 -1.906760098906096 0
    endloop
  endfacet
  facet normal 0 0 -1
    outer loop
      vertex 3.409154463296344 -4.692298567374695 0
      vertex 3.7422274015911445 -1.906760098906096 0
      vertex 4.1012193308819755 -4.1012193308819755 0
    endloop
  endfacet
  facet normal 0.522498564715949 -0.8526401643540921 0
    outer loop
      vertex 2.633144898489371 -5.167837840292534 0
      vertex 3.409154463296344 -4.692298567374695 0
      vertex 3.409154463296344 -4.692298567374695 0.8
    endloop
  endfacet
  facet normal 0.6494480483301837 -0.760405965600031 0
    outer loop
      vertex 3.409154463296344 -4.692298567374695 0
      vertex 4.1012193308819755 -4.1012193308819755 0
      vertex 4.1012193308819755 -4.1012193308819755 0.8
    endloop
  endfacet
  facet normal 0.760405965600031 -0.6494480483301837 0
    outer loop
      vertex 4.1012193308819755 -4.1012193308819755 0
      vertex 4.692298567374695 -3.409154463296344 0
      vertex 4.1012193308819755 -4.1012193308819755 0.8
    endloop
  endfacet
  facet normal 0.8526401643540921 -0.522498564715949 0
    outer loop
      vertex 4.692298567374695 -3.409154463296344 0
      vertex 5.167837840292534 -2.633144898489371 0
      vertex 4.692298567374695 -3.409154463296344 0.8
    endloop
  endfacet
  facet normal 0 0 -1
    outer loop
      vertex 4.1012193308819755 -4.1012193308819755 0
      vertex 3.7422274015911445 -1.906760098906096 0
      vertex 3.994437368439644 -1.297871376374779 0
    endloop
  endfacet
  facet normal 0 0 -1
    outer loop
      vertex 4.1012193308819755 -4.1012193308819755 0
      vertex 3.994437368439644 -1.297871376374779 0
      vertex 4.148291030499578 -0.6570247531689696 0
    endloop
  endfacet
  facet normal 0 0 -1
    outer loop
      vertex 4.1012193308819755 -4.1012193308819755 0
      vertex 4.148291030499578 -0.6570247531689696 0
      vertex 4.199999999999999 0 0
    endloop
  endfacet
  facet normal 0 0 -1
    outer loop
      vertex 4.1012193308819755 -4.1012193308819755 0
      vertex 4.199999999999999 0 0
      vertex 4.692298567374695 3.409154463296344 0
    endloop
  endfacet
  facet normal 0 0 -1
    outer loop
      vertex 4.1012193308819755 -4.1012193308819755 0
      vertex 4.692298567374695 3.409154463296344 0
      vertex 4.692298567374695 -3.409154463296344 0
    endloop
  endfacet
  facet normal 0 0 -1
    outer loop
      vertex 4.692298567374695 -3.409154463296344 0
      vertex 5.167837840292534 2.633144898489371 0
      vertex 5.167837840292534 -2.633144898489371 0
    endloop
  endfacet
  facet normal 0 0 -1
    outer loop
      vertex 5.167837840292534 -2.633144898489371 0
      vertex 5.51612779451189 1.792298567374695 0
      vertex 5.51612779451189 -1.792298567374695 0
    endloop
  endfacet
  facet normal 0 0 -1
    outer loop
      vertex 5.51612779451189 -1.792298567374695 0
      vertex 5.728592375451799 0.9073198972333391 0
      vertex 5.728592375451799 -0.9073198972333391 0
    endloop
  endfacet
  facet normal 0.923879532511287 -0.382683432365089 0
    outer loop
      vertex 5.167837840292534 -2.633144898489371 0
      vertex 5.51612779451189 -1.792298567374695 0
      vertex 5.167837840292534 -2.633144898489371 0.8
    endloop
  endfacet
  facet normal 0.9723699203976762 -0.23344536385590667 0
    outer loop
      vertex 5.51612779451189 -1.792298567374695 0
      vertex 5.728592375451799 -0.9073198972333391 0
      vertex 5.51612779451189 -1.792298567374695 0.8
    endloop
  endfacet
  facet normal 0.9969173337331281 -0.07845909572784418 0
    outer loop
      vertex 5.728592375451799 -0.9073198972333391 0
      vertex 5.8 0 0
      vertex 5.728592375451799 -0.9073198972333391 0.8
    endloop
  endfacet
  facet normal 0.07845909572784418 -0.9969173337331281 0
    outer loop
      vertex 0 -5.8 0
      vertex 0.9073198972333391 -5.728592375451799 0.8
      vertex 0 -5.8 0.8
    endloop
  endfacet
  facet normal 0.23344536385590667 -0.9723699203976762 0
    outer loop
      vertex 0.9073198972333391 -5.728592375451799 0
      vertex 1.792298567374695 -5.51612779451189 0.8
      vertex 0.9073198972333391 -5.728592375451799 0.8
    endloop
  endfacet
  facet normal 0.382683432365089 -0.923879532511287 0
    outer loop
      vertex 1.792298567374695 -5.51612779451189 0
      vertex 2.633144898489371 -5.167837840292534 0.8
      vertex 1.792298567374695 -5.51612779451189 0.8
    endloop
  endfacet
  facet normal 0.522498564715949 -0.8526401643540921 0
    outer loop
      vertex 2.633144898489371 -5.167837840292534 0
      vertex 3.409154463296344 -4.692298567374695 0.8
      vertex 2.633144898489371 -5.167837840292534 0.8
    endloop
  endfacet
  facet normal 0 0 1
    outer loop
      vertex 0 -5.8 0.8
      vertex 0.9073198972333391 -5.728592375451799 0.8
      vertex 0 -4.199999999999999 0.8
    endloop
  endfacet
  facet normal 0 0 1
    outer loop
      vertex 0.9073198972333391 -5.728592375451799 0.8
      vertex 0.6570247531689696 -4.148291030499578 0.8
      vertex 0 -4.199999999999999 0.8
    endloop
  endfacet
  facet normal 0 0 1
    outer loop
      vertex 0.9073198972333391 -5.728592375451799 0.8
      vertex 1.792298567374695 -5.51612779451189 0.8
      vertex 0.6570247531689696 -4.148291030499578 0.8
    endloop
  endfacet
  facet normal 0 0 1
    outer loop
      vertex 1.792298567374695 -5.51612779451189 0.8
      vertex 1.297871376374779 -3.994437368439644 0.8
      vertex 0.6570247531689696 -4.148291030499578 0.8
    endloop
  endfacet
  facet normal 0 0 1
    outer loop
      vertex 1.792298567374695 -5.51612779451189 0.8
      vertex 2.633144898489371 -5.167837840292534 0.8
      vertex 1.297871376374779 -3.994437368439644 0.8
    endloop
  endfacet
  facet normal 0 0 1
    outer loop
      vertex 2.633144898489371 -5.167837840292534 0.8
      vertex 3.409154463296344 -4.692298567374695 0.8
      vertex 2.468698059628387 -3.3978713763747788 0.8
    endloop
  endfacet
  facet normal 0 0 1
    outer loop
      vertex 2.633144898489371 -5.167837840292534 0.8
      vertex 1.906760098906096 -3.7422274015911445 0.8
      vertex 1.297871376374779 -3.994437368439644 0.8
    endloop
  endfacet
  facet normal 0 0 1
    outer loop
      vertex 2.633144898489371 -5.167837840292534 0.8
      vertex 2.468698059628387 -3.3978713763747788 0.8
      vertex 1.906760098906096 -3.7422274015911445 0.8
    endloop
  endfacet
  facet normal 0.6494480483301837 -0.760405965600031 0
    outer loop
      vertex 3.409154463296344 -4.692298567374695 0
      vertex 4.1012193308819755 -4.1012193308819755 0.8
      vertex 3.409154463296344 -4.692298567374695 0.8
    endloop
  endfacet
  facet normal 0.760405965600031 -0.6494480483301837 0
    outer loop
      vertex 4.692298567374695 -3.409154463296344 0
      vertex 4.692298567374695 -3.409154463296344 0.8
      vertex 4.1012193308819755 -4.1012193308819755 0.8
    endloop
  endfacet
  facet normal 0 0 1
    outer loop
      vertex 3.409154463296344 -4.692298567374695 0.8
      vertex 2.9698484809834995 -2.9698484809834995 0.8
      vertex 2.468698059628387 -3.3978713763747788 0.8
    endloop
  endfacet
  facet normal 0 0 1
    outer loop
      vertex 3.409154463296344 -4.692298567374695 0.8
      vertex 3.3978713763747788 -2.468698059628387 0.8
      vertex 2.9698484809834995 -2.9698484809834995 0.8
    endloop
  endfacet
  facet normal 0 0 1
    outer loop
      vertex 3.409154463296344 -4.692298567374695 0.8
      vertex 4.1012193308819755 -4.1012193308819755 0.8
      vertex 3.3978713763747788 -2.468698059628387 0.8
    endloop
  endfacet
  facet normal 0 0 1
    outer loop
      vertex 4.1012193308819755 -4.1012193308819755 0.8
      vertex 4.692298567374695 -3.409154463296344 0.8
      vertex 3.994437368439644 -1.297871376374779 0.8
    endloop
  endfacet
  facet normal 0.8526401643540921 -0.522498564715949 0
    outer loop
      vertex 5.167837840292534 -2.633144898489371 0
      vertex 5.167837840292534 -2.633144898489371 0.8
      vertex 4.692298567374695 -3.409154463296344 0.8
    endloop
  endfacet
  facet normal 0.923879532511287 -0.382683432365089 0
    outer loop
      vertex 5.51612779451189 -1.792298567374695 0
      vertex 5.51612779451189 -1.792298567374695 0.8
      vertex 5.167837840292534 -2.633144898489371 0.8
    endloop
  endfacet
  facet normal 0.9723699203976762 -0.23344536385590667 0
    outer loop
      vertex 5.728592375451799 -0.9073198972333391 0
      vertex 5.728592375451799 -0.9073198972333391 0.8
      vertex 5.51612779451189 -1.792298567374695 0.8
    endloop
  endfacet
  facet normal 0.9969173337331281 -0.07845909572784418 0
    outer loop
      vertex 5.728592375451799 -0.9073198972333391 0.8
      vertex 5.8 0 0
      vertex 5.8 0 0.8
    endloop
  endfacet
  facet normal 0 0 1
    outer loop
      vertex 4.1012193308819755 -4.1012193308819755 0.8
      vertex 3.7422274015911445 -1.906760098906096 0.8
      vertex 3.3978713763747788 -2.468698059628387 0.8
    endloop
  endfacet
  facet normal 0 0 1
    outer loop
      vertex 4.1012193308819755 -4.1012193308819755 0.8
      vertex 3.994437368439644 -1.297871376374779 0.8
      vertex 3.7422274015911445 -1.906760098906096 0.8
    endloop
  endfacet
  facet normal 0 0 1
    outer loop
      vertex 4.692298567374695 -3.409154463296344 0.8
      vertex 4.148291030499578 -0.6570247531689696 0.8
      vertex 3.994437368439644 -1.297871376374779 0.8
    endloop
  endfacet
  facet normal 0 0 1
    outer loop
      vertex 4.692298567374695 -3.409154463296344 0.8
      vertex 4.199999999999999 0 0.8
      vertex 4.148291030499578 -0.6570247531689696 0.8
    endloop
  endfacet
  facet normal 0 0 1
    outer loop
      vertex 4.692298567374695 -3.409154463296344 0.8
      vertex 5.167837840292534 -2.633144898489371 0.8
      vertex 4.692298567374695 3.409154463296344 0.8
    endloop
  endfacet
  facet normal 0 0 1
    outer loop
      vertex 5.167837840292534 -2.633144898489371 0.8
      vertex 5.51612779451189 -1.792298567374695 0.8
      vertex 5.167837840292534 2.633144898489371 0.8
    endloop
  endfacet
  facet normal 0 0 1
    outer loop
      vertex 5.51612779451189 -1.792298567374695 0.8
      vertex 5.728592375451799 -0.9073198972333391 0.8
      vertex 5.51612779451189 1.792298567374695 0.8
    endloop
  endfacet
  facet normal 0 0 -1
    outer loop
      vertex 0.9073198972333391 5.728592375451799 0
      vertex 0.6570247531689696 4.148291030499578 0
      vertex 0 4.199999999999999 0
    endloop
  endfacet
  facet normal 0 0 -1
    outer loop
      vertex 0 5.8 0
      vertex 0.9073198972333391 5.728592375451799 0
      vertex 0 4.199999999999999 0
    endloop
  endfacet
  facet normal 0 0 -1
    outer loop
      vertex 1.792298567374695 5.51612779451189 0
      vertex 1.297871376374779 3.994437368439644 0
      vertex 0.6570247531689696 4.148291030499578 0
    endloop
  endfacet
  facet normal 0 0 -1
    outer loop
      vertex 0.9073198972333391 5.728592375451799 0
      vertex 1.792298567374695 5.51612779451189 0
      vertex 0.6570247531689696 4.148291030499578 0
    endloop
  endfacet
  facet normal 0 0 -1
    outer loop
      vertex 2.633144898489371 5.167837840292534 0
      vertex 1.906760098906096 3.7422274015911445 0
      vertex 1.297871376374779 3.994437368439644 0
    endloop
  endfacet
  facet normal 0 0 -1
    outer loop
      vertex 2.633144898489371 5.167837840292534 0
      vertex 2.468698059628387 3.3978713763747788 0
      vertex 1.906760098906096 3.7422274015911445 0
    endloop
  endfacet
  facet normal 0 0 -1
    outer loop
      vertex 1.792298567374695 5.51612779451189 0
      vertex 2.633144898489371 5.167837840292534 0
      vertex 1.297871376374779 3.994437368439644 0
    endloop
  endfacet
  facet normal 0 0 -1
    outer loop
      vertex 2.633144898489371 5.167837840292534 0
      vertex 3.409154463296344 4.692298567374695 0
      vertex 2.468698059628387 3.3978713763747788 0
    endloop
  endfacet
  facet normal 0.07845909572784418 0.9969173337331281 0
    outer loop
      vertex 0 5.8 0
      vertex 0 5.8 0.8
      vertex 0.9073198972333391 5.728592375451799 0
    endloop
  endfacet
  facet normal 0.23344536385590667 0.9723699203976762 0
    outer loop
      vertex 0.9073198972333391 5.728592375451799 0
      vertex 0.9073198972333391 5.728592375451799 0.8
      vertex 1.792298567374695 5.51612779451189 0
    endloop
  endfacet
  facet normal 0.382683432365089 0.923879532511287 0
    outer loop
      vertex 1.792298567374695 5.51612779451189 0
      vertex 1.792298567374695 5.51612779451189 0.8
      vertex 2.633144898489371 5.167837840292534 0
    endloop
  endfacet
  facet normal 0.522498564715949 0.8526401643540921 0
    outer loop
      vertex 2.633144898489371 5.167837840292534 0
      vertex 2.633144898489371 5.167837840292534 0.8
      vertex 3.409154463296344 4.692298567374695 0
    endloop
  endfacet
  facet normal 0 0 -1
    outer loop
      vertex 4.692298567374695 3.409154463296344 0
      vertex 4.199999999999999 0 0
      vertex 4.148291030499578 0.6570247531689696 0
    endloop
  endfacet
  facet normal 0 0 -1
    outer loop
      vertex 4.692298567374695 3.409154463296344 0
      vertex 4.148291030499578 0.6570247531689696 0
      vertex 3.994437368439644 1.297871376374779 0
    endloop
  endfacet
  facet normal 0 0 -1
    outer loop
      vertex 4.1012193308819755 4.1012193308819755 0
      vertex 3.994437368439644 1.297871376374779 0
      vertex 3.7422274015911445 1.906760098906096 0
    endloop
  endfacet
  facet normal 0 0 -1
    outer loop
      vertex 4.1012193308819755 4.1012193308819755 0
      vertex 3.7422274015911445 1.906760098906096 0
      vertex 3.3978713763747788 2.468698059628387 0
    endloop
  endfacet
  facet normal 0 0 -1
    outer loop
      vertex 4.692298567374695 -3.409154463296344 0
      vertex 4.692298567374695 3.409154463296344 0
      vertex 5.167837840292534 2.633144898489371 0
    endloop
  endfacet
  facet normal 0 0 -1
    outer loop
      vertex 5.167837840292534 -2.633144898489371 0
      vertex 5.167837840292534 2.633144898489371 0
      vertex 5.51612779451189 1.792298567374695 0
    endloop
  endfacet
  facet normal 0 0 -1
    outer loop
      vertex 5.51612779451189 -1.792298567374695 0
      vertex 5.51612779451189 1.792298567374695 0
      vertex 5.728592375451799 0.9073198972333391 0
    endloop
  endfacet
  facet normal 0 0 -1
    outer loop
      vertex 5.728592375451799 -0.9073198972333391 0
      vertex 5.728592375451799 0.9073198972333391 0
      vertex 5.8 0 0
    endloop
  endfacet
  facet normal 0.9969173337331281 0.07845909572784418 0
    outer loop
      vertex 5.8 0 0
      vertex 5.728592375451799 0.9073198972333391 0
      vertex 5.8 0 0.8
    endloop
  endfacet
  facet normal 0.9723699203976762 0.23344536385590667 0
    outer loop
      vertex 5.728592375451799 0.9073198972333391 0
      vertex 5.51612779451189 1.792298567374695 0
      vertex 5.728592375451799 0.9073198972333391 0.8
    endloop
  endfacet
  facet normal 0.8526401643540921 0.522498564715949 0
    outer loop
      vertex 5.167837840292534 2.633144898489371 0
      vertex 4.692298567374695 3.409154463296344 0
      vertex 5.167837840292534 2.633144898489371 0.8
    endloop
  endfacet
  facet normal 0.923879532511287 0.382683432365089 0
    outer loop
      vertex 5.51612779451189 1.792298567374695 0
      vertex 5.167837840292534 2.633144898489371 0
      vertex 5.51612779451189 1.792298567374695 0.8
    endloop
  endfacet
  facet normal 0 0 -1
    outer loop
      vertex 3.409154463296344 4.692298567374695 0
      vertex 3.3978713763747788 2.468698059628387 0
      vertex 2.9698484809834995 2.9698484809834995 0
    endloop
  endfacet
  facet normal 0 0 -1
    outer loop
      vertex 3.409154463296344 4.692298567374695 0
      vertex 2.9698484809834995 2.9698484809834995 0
      vertex 2.468698059628387 3.3978713763747788 0
    endloop
  endfacet
  facet normal 0 0 -1
    outer loop
      vertex 4.1012193308819755 4.1012193308819755 0
      vertex 4.692298567374695 3.409154463296344 0
      vertex 3.994437368439644 1.297871376374779 0
    endloop
  endfacet
  facet normal 0 0 -1
    outer loop
      vertex 4.1012193308819755 4.1012193308819755 0
      vertex 3.3978713763747788 2.468698059628387 0
      vertex 3.409154463296344 4.692298567374695 0
    endloop
  endfacet
  facet normal 0.6494480483301837 0.760405965600031 0
    outer loop
      vertex 4.1012193308819755 4.1012193308819755 0
      vertex 3.409154463296344 4.692298567374695 0
      vertex 3.409154463296344 4.692298567374695 0.8
    endloop
  endfacet
  facet normal 0.760405965600031 0.6494480483301837 0
    outer loop
      vertex 4.1012193308819755 4.1012193308819755 0
      vertex 4.692298567374695 3.409154463296344 0.8
      vertex 4.692298567374695 3.409154463296344 0
    endloop
  endfacet
  facet normal 0.07845909572784418 0.9969173337331281 0
    outer loop
      vertex 0.9073198972333391 5.728592375451799 0
      vertex 0 5.8 0.8
      vertex 0.9073198972333391 5.728592375451799 0.8
    endloop
  endfacet
  facet normal 0.23344536385590667 0.9723699203976762 0
    outer loop
      vertex 1.792298567374695 5.51612779451189 0
      vertex 0.9073198972333391 5.728592375451799 0.8
      vertex 1.792298567374695 5.51612779451189 0.8
    endloop
  endfacet
  facet normal 0.382683432365089 0.923879532511287 0
    outer loop
      vertex 2.633144898489371 5.167837840292534 0
      vertex 1.792298567374695 5.51612779451189 0.8
      vertex 2.633144898489371 5.167837840292534 0.8
    endloop
  endfacet
  facet normal 0 0 1
    outer loop
      vertex 0 5.8 0.8
      vertex 0 4.199999999999999 0.8
      vertex 0.6570247531689696 4.148291030499578 0.8
    endloop
  endfacet
  facet normal 0 0 1
    outer loop
      vertex 0 5.8 0.8
      vertex 0.6570247531689696 4.148291030499578 0.8
      vertex 0.9073198972333391 5.728592375451799 0.8
    endloop
  endfacet
  facet normal 0 0 1
    outer loop
      vertex 0.9073198972333391 5.728592375451799 0.8
      vertex 0.6570247531689696 4.148291030499578 0.8
      vertex 1.297871376374779 3.994437368439644 0.8
    endloop
  endfacet
  facet normal 0 0 1
    outer loop
      vertex 0.9073198972333391 5.728592375451799 0.8
      vertex 1.297871376374779 3.994437368439644 0.8
      vertex 1.792298567374695 5.51612779451189 0.8
    endloop
  endfacet
  facet normal 0 0 1
    outer loop
      vertex 1.792298567374695 5.51612779451189 0.8
      vertex 1.906760098906096 3.7422274015911445 0.8
      vertex 2.468698059628387 3.3978713763747788 0.8
    endloop
  endfacet
  facet normal 0 0 1
    outer loop
      vertex 2.633144898489371 5.167837840292534 0.8
      vertex 2.468698059628387 3.3978713763747788 0.8
      vertex 2.9698484809834995 2.9698484809834995 0.8
    endloop
  endfacet
  facet normal 0 0 1
    outer loop
      vertex 1.792298567374695 5.51612779451189 0.8
      vertex 1.297871376374779 3.994437368439644 0.8
      vertex 1.906760098906096 3.7422274015911445 0.8
    endloop
  endfacet
  facet normal 0 0 1
    outer loop
      vertex 1.792298567374695 5.51612779451189 0.8
      vertex 2.468698059628387 3.3978713763747788 0.8
      vertex 2.633144898489371 5.167837840292534 0.8
    endloop
  endfacet
  facet normal 0.9969173337331281 0.07845909572784418 0
    outer loop
      vertex 5.728592375451799 0.9073198972333391 0
      vertex 5.728592375451799 0.9073198972333391 0.8
      vertex 5.8 0 0.8
    endloop
  endfacet
  facet normal 0.9723699203976762 0.23344536385590667 0
    outer loop
      vertex 5.51612779451189 1.792298567374695 0
      vertex 5.51612779451189 1.792298567374695 0.8
      vertex 5.728592375451799 0.9073198972333391 0.8
    endloop
  endfacet
  facet normal 0.923879532511287 0.382683432365089 0
    outer loop
      vertex 5.167837840292534 2.633144898489371 0
      vertex 5.167837840292534 2.633144898489371 0.8
      vertex 5.51612779451189 1.792298567374695 0.8
    endloop
  endfacet
  facet normal 0 0 1
    outer loop
      vertex 4.692298567374695 -3.409154463296344 0.8
      vertex 4.1012193308819755 4.1012193308819755 0.8
      vertex 4.199999999999999 0 0.8
    endloop
  endfacet
  facet normal 0 0 1
    outer loop
      vertex 4.1012193308819755 4.1012193308819755 0.8
      vertex 4.148291030499578 0.6570247531689696 0.8
      vertex 4.199999999999999 0 0.8
    endloop
  endfacet
  facet normal 0 0 1
    outer loop
      vertex 4.1012193308819755 4.1012193308819755 0.8
      vertex 3.994437368439644 1.297871376374779 0.8
      vertex 4.148291030499578 0.6570247531689696 0.8
    endloop
  endfacet
  facet normal 0 0 1
    outer loop
      vertex 4.1012193308819755 4.1012193308819755 0.8
      vertex 3.7422274015911445 1.906760098906096 0.8
      vertex 3.994437368439644 1.297871376374779 0.8
    endloop
  endfacet
  facet normal 0 0 1
    outer loop
      vertex 4.692298567374695 -3.409154463296344 0.8
      vertex 4.692298567374695 3.409154463296344 0.8
      vertex 4.1012193308819755 4.1012193308819755 0.8
    endloop
  endfacet
  facet normal 0 0 1
    outer loop
      vertex 5.167837840292534 -2.633144898489371 0.8
      vertex 5.167837840292534 2.633144898489371 0.8
      vertex 4.692298567374695 3.409154463296344 0.8
    endloop
  endfacet
  facet normal 0 0 1
    outer loop
      vertex 5.728592375451799 -0.9073198972333391 0.8
      vertex 5.8 0 0.8
      vertex 5.728592375451799 0.9073198972333391 0.8
    endloop
  endfacet
  facet normal 0 0 1
    outer loop
      vertex 5.728592375451799 -0.9073198972333391 0.8
      vertex 5.728592375451799 0.9073198972333391 0.8
      vertex 5.51612779451189 1.792298567374695 0.8
    endloop
  endfacet
  facet normal 0 0 1
    outer loop
      vertex 5.51612779451189 -1.792298567374695 0.8
      vertex 5.51612779451189 1.792298567374695 0.8
      vertex 5.167837840292534 2.633144898489371 0.8
    endloop
  endfacet
  facet normal 0.6494480483301837 0.760405965600031 0
    outer loop
      vertex 4.1012193308819755 4.1012193308819755 0
      vertex 3.409154463296344 4.692298567374695 0.8
      vertex 4.1012193308819755 4.1012193308819755 0.8
    endloop
  endfacet
  facet normal 0.760405965600031 0.6494480483301837 0
    outer loop
      vertex 4.1012193308819755 4.1012193308819755 0
      vertex 4.1012193308819755 4.1012193308819755 0.8
      vertex 4.692298567374695 3.409154463296344 0.8
    endloop
  endfacet
  facet normal 0.522498564715949 0.8526401643540921 0
    outer loop
      vertex 3.409154463296344 4.692298567374695 0
      vertex 2.633144898489371 5.167837840292534 0.8
      vertex 3.409154463296344 4.692298567374695 0.8
    endloop
  endfacet
  facet normal 0.8526401643540921 0.522498564715949 0
    outer loop
      vertex 4.692298567374695 3.409154463296344 0
      vertex 4.692298567374695 3.409154463296344 0.8
      vertex 5.167837840292534 2.633144898489371 0.8
    endloop
  endfacet
  facet normal 0 0 1
    outer loop
      vertex 3.409154463296344 4.692298567374695 0.8
      vertex 2.9698484809834995 2.9698484809834995 0.8
      vertex 3.3978713763747788 2.468698059628387 0.8
    endloop
  endfacet
  facet normal 0 0 1
    outer loop
      vertex 3.409154463296344 4.692298567374695 0.8
      vertex 3.3978713763747788 2.468698059628387 0.8
      vertex 3.7422274015911445 1.906760098906096 0.8
    endloop
  endfacet
  facet normal 0 0 1
    outer loop
      vertex 2.633144898489371 5.167837840292534 0.8
      vertex 2.9698484809834995 2.9698484809834995 0.8
      vertex 3.409154463296344 4.692298567374695 0.8
    endloop
  endfacet
  facet normal 0 0 1
    outer loop
      vertex 4.1012193308819755 4.1012193308819755 0.8
      vertex 3.409154463296344 4.692298567374695 0.8
      vertex 3.7422274015911445 1.906760098906096 0.8
    endloop
  endfacet
  facet normal 0.8526401643540924 0.5224985647159485 0
    outer loop
      vertex -3.7422274015911445 -1.906760098906096 0.8
      vertex -3.3978713763747788 -2.468698059628387 0
      vertex -3.7422274015911445 -1.906760098906096 0
    endloop
  endfacet
  facet normal 0.923879532511287 0.38268343236508945 0
    outer loop
      vertex -3.7422274015911445 -1.906760098906096 0
      vertex -3.994437368439644 -1.297871376374779 0
      vertex -3.994437368439644 -1.297871376374779 0.8
    endloop
  endfacet
  facet normal 0.7604059656000313 0.6494480483301833 0
    outer loop
      vertex -2.9698484809834995 -2.9698484809834995 0
      vertex -3.3978713763747788 -2.468698059628387 0
      vertex -3.3978713763747788 -2.468698059628387 0.8
    endloop
  endfacet
  facet normal 0.9723699203976763 0.23344536385590658 0
    outer loop
      vertex -3.994437368439644 -1.297871376374779 0
      vertex -4.148291030499578 -0.6570247531689696 0
      vertex -4.148291030499578 -0.6570247531689696 0.8
    endloop
  endfacet
  facet normal 0.9969173337331281 0.078459095727844 0
    outer loop
      vertex -4.148291030499578 -0.6570247531689696 0
      vertex -4.199999999999999 0 0
      vertex -4.199999999999999 0 0.8
    endloop
  endfacet
  facet normal 0.6494480483301833 0.7604059656000313 0
    outer loop
      vertex -2.9698484809834995 -2.9698484809834995 0
      vertex -2.9698484809834995 -2.9698484809834995 0.8
      vertex -2.468698059628387 -3.3978713763747788 0
    endloop
  endfacet
  facet normal 0.5224985647159485 0.8526401643540924 0
    outer loop
      vertex -2.468698059628387 -3.3978713763747788 0
      vertex -2.468698059628387 -3.3978713763747788 0.8
      vertex -1.906760098906096 -3.7422274015911445 0
    endloop
  endfacet
  facet normal 0.38268343236508945 0.923879532511287 0
    outer loop
      vertex -1.906760098906096 -3.7422274015911445 0
      vertex -1.906760098906096 -3.7422274015911445 0.8
      vertex -1.297871376374779 -3.994437368439644 0
    endloop
  endfacet
  facet normal 0.23344536385590658 0.9723699203976763 0
    outer loop
      vertex -1.297871376374779 -3.994437368439644 0
      vertex -1.297871376374779 -3.994437368439644 0.8
      vertex -0.6570247531689696 -4.148291030499578 0
    endloop
  endfacet
  facet normal 0.078459095727844 0.9969173337331281 0
    outer loop
      vertex -0.6570247531689696 -4.148291030499578 0
      vertex -0.6570247531689696 -4.148291030499578 0.8
      vertex 0 -4.199999999999999 0
    endloop
  endfacet
  facet normal 0.923879532511287 0.38268343236508945 0
    outer loop
      vertex -3.7422274015911445 -1.906760098906096 0
      vertex -3.994437368439644 -1.297871376374779 0.8
      vertex -3.7422274015911445 -1.906760098906096 0.8
    endloop
  endfacet
  facet normal 0.8526401643540924 0.5224985647159485 0
    outer loop
      vertex -3.7422274015911445 -1.906760098906096 0.8
      vertex -3.3978713763747788 -2.468698059628387 0.8
      vertex -3.3978713763747788 -2.468698059628387 0
    endloop
  endfacet
  facet normal 0.7604059656000313 0.6494480483301833 0
    outer loop
      vertex -2.9698484809834995 -2.9698484809834995 0
      vertex -3.3978713763747788 -2.468698059628387 0.8
      vertex -2.9698484809834995 -2.9698484809834995 0.8
    endloop
  endfacet
  facet normal 0.9723699203976763 0.23344536385590658 0
    outer loop
      vertex -4.148291030499578 -0.6570247531689696 0.8
      vertex -3.994437368439644 -1.297871376374779 0.8
      vertex -3.994437368439644 -1.297871376374779 0
    endloop
  endfacet
  facet normal 0.9969173337331281 0.078459095727844 0
    outer loop
      vertex -4.148291030499578 -0.6570247531689696 0
      vertex -4.199999999999999 0 0.8
      vertex -4.148291030499578 -0.6570247531689696 0.8
    endloop
  endfacet
  facet normal 0.6494480483301833 0.7604059656000313 0
    outer loop
      vertex -2.468698059628387 -3.3978713763747788 0
      vertex -2.9698484809834995 -2.9698484809834995 0.8
      vertex -2.468698059628387 -3.3978713763747788 0.8
    endloop
  endfacet
  facet normal 0.5224985647159485 0.8526401643540924 0
    outer loop
      vertex -2.468698059628387 -3.3978713763747788 0.8
      vertex -1.906760098906096 -3.7422274015911445 0.8
      vertex -1.906760098906096 -3.7422274015911445 0
    endloop
  endfacet
  facet normal 0.38268343236508945 0.923879532511287 0
    outer loop
      vertex -1.297871376374779 -3.994437368439644 0
      vertex -1.906760098906096 -3.7422274015911445 0.8
      vertex -1.297871376374779 -3.994437368439644 0.8
    endloop
  endfacet
  facet normal 0.23344536385590658 0.9723699203976763 0
    outer loop
      vertex -0.6570247531689696 -4.148291030499578 0
      vertex -1.297871376374779 -3.994437368439644 0.8
      vertex -0.6570247531689696 -4.148291030499578 0.8
    endloop
  endfacet
  facet normal 0.078459095727844 0.9969173337331281 0
    outer loop
      vertex -0.6570247531689696 -4.148291030499578 0.8
      vertex 0 -4.199999999999999 0.8
      vertex 0 -4.199999999999999 0
    endloop
  endfacet
  facet normal 0.9969173337331281 -0.078459095727844 0
    outer loop
      vertex -4.199999999999999 0 0
      vertex -4.148291030499578 0.6570247531689696 0
      vertex -4.148291030499578 0.6570247531689696 0.8
    endloop
  endfacet
  facet normal 0.9723699203976763 -0.23344536385590658 0
    outer loop
      vertex -4.148291030499578 0.6570247531689696 0
      vertex -3.994437368439644 1.297871376374779 0
      vertex -3.994437368439644 1.297871376374779 0.8
    endloop
  endfacet
  facet normal 0.923879532511287 -0.38268343236508945 0
    outer loop
      vertex -3.994437368439644 1.297871376374779 0
      vertex -3.7422274015911445 1.906760098906096 0
      vertex -3.7422274015911445 1.906760098906096 0.8
    endloop
  endfacet
  facet normal 0.8526401643540924 -0.5224985647159485 0
    outer loop
      vertex -3.7422274015911445 1.906760098906096 0
      vertex -3.3978713763747788 2.468698059628387 0
      vertex -3.3978713763747788 2.468698059628387 0.8
    endloop
  endfacet
  facet normal 0.7604059656000313 -0.6494480483301833 0
    outer loop
      vertex -3.3978713763747788 2.468698059628387 0
      vertex -2.9698484809834995 2.9698484809834995 0
      vertex -2.9698484809834995 2.9698484809834995 0.8
    endloop
  endfacet
  facet normal 0.6494480483301833 -0.7604059656000313 0
    outer loop
      vertex -2.468698059628387 3.3978713763747788 0.8
      vertex -2.9698484809834995 2.9698484809834995 0
      vertex -2.468698059628387 3.3978713763747788 0
    endloop
  endfacet
  facet normal 0.5224985647159485 -0.8526401643540924 0
    outer loop
      vertex -2.468698059628387 3.3978713763747788 0
      vertex -1.906760098906096 3.7422274015911445 0
      vertex -1.906760098906096 3.7422274015911445 0.8
    endloop
  endfacet
  facet normal 0.38268343236508945 -0.923879532511287 0
    outer loop
      vertex -1.297871376374779 3.994437368439644 0
      vertex -1.297871376374779 3.994437368439644 0.8
      vertex -1.906760098906096 3.7422274015911445 0
    endloop
  endfacet
  facet normal 0.23344536385590658 -0.9723699203976763 0
    outer loop
      vertex -0.6570247531689696 4.148291030499578 0
      vertex -0.6570247531689696 4.148291030499578 0.8
      vertex -1.297871376374779 3.994437368439644 0
    endloop
  endfacet
  facet normal 0.078459095727844 -0.9969173337331281 0
    outer loop
      vertex -0.6570247531689696 4.148291030499578 0
      vertex 0 4.199999999999999 0
      vertex 0 4.199999999999999 0.8
    endloop
  endfacet
  facet normal 0.9969173337331281 -0.078459095727844 0
    outer loop
      vertex -4.199999999999999 0 0
      vertex -4.148291030499578 0.6570247531689696 0.8
      vertex -4.199999999999999 0 0.8
    endloop
  endfacet
  facet normal 0.9723699203976763 -0.23344536385590658 0
    outer loop
      vertex -3.994437368439644 1.297871376374779 0.8
      vertex -4.148291030499578 0.6570247531689696 0.8
      vertex -4.148291030499578 0.6570247531689696 0
    endloop
  endfacet
  facet normal 0.923879532511287 -0.38268343236508945 0
    outer loop
      vertex -3.7422274015911445 1.906760098906096 0.8
      vertex -3.994437368439644 1.297871376374779 0.8
      vertex -3.994437368439644 1.297871376374779 0
    endloop
  endfacet
  facet normal 0.8526401643540924 -0.5224985647159485 0
    outer loop
      vertex -3.7422274015911445 1.906760098906096 0
      vertex -3.3978713763747788 2.468698059628387 0.8
      vertex -3.7422274015911445 1.906760098906096 0.8
    endloop
  endfacet
  facet normal 0.7604059656000313 -0.6494480483301833 0
    outer loop
      vertex -2.9698484809834995 2.9698484809834995 0.8
      vertex -3.3978713763747788 2.468698059628387 0.8
      vertex -3.3978713763747788 2.468698059628387 0
    endloop
  endfacet
  facet normal 0.6494480483301833 -0.7604059656000313 0
    outer loop
      vertex -2.9698484809834995 2.9698484809834995 0
      vertex -2.468698059628387 3.3978713763747788 0.8
      vertex -2.9698484809834995 2.9698484809834995 0.8
    endloop
  endfacet
  facet normal 0.5224985647159485 -0.8526401643540924 0
    outer loop
      vertex -2.468698059628387 3.3978713763747788 0
      vertex -1.906760098906096 3.7422274015911445 0.8
      vertex -2.468698059628387 3.3978713763747788 0.8
    endloop
  endfacet
  facet normal 0.38268343236508945 -0.923879532511287 0
    outer loop
      vertex -1.297871376374779 3.994437368439644 0.8
      vertex -1.906760098906096 3.7422274015911445 0.8
      vertex -1.906760098906096 3.7422274015911445 0
    endloop
  endfacet
  facet normal 0.23344536385590658 -0.9723699203976763 0
    outer loop
      vertex -1.297871376374779 3.994437368439644 0
      vertex -0.6570247531689696 4.148291030499578 0.8
      vertex -1.297871376374779 3.994437368439644 0.8
    endloop
  endfacet
  facet normal 0.078459095727844 -0.9969173337331281 0
    outer loop
      vertex 0 4.199999999999999 0.8
      vertex -0.6570247531689696 4.148291030499578 0.8
      vertex -0.6570247531689696 4.148291030499578 0
    endloop
  endfacet
  facet normal -0.078459095727844 0.9969173337331281 0
    outer loop
      vertex 0 -4.199999999999999 0.8
      vertex 0.6570247531689696 -4.148291030499578 0
      vertex 0 -4.199999999999999 0
    endloop
  endfacet
  facet normal -0.23344536385590658 0.9723699203976763 0
    outer loop
      vertex 0.6570247531689696 -4.148291030499578 0
      vertex 0.6570247531689696 -4.148291030499578 0.8
      vertex 1.297871376374779 -3.994437368439644 0
    endloop
  endfacet
  facet normal -0.38268343236508945 0.923879532511287 0
    outer loop
      vertex 1.297871376374779 -3.994437368439644 0
      vertex 1.297871376374779 -3.994437368439644 0.8
      vertex 1.906760098906096 -3.7422274015911445 0
    endloop
  endfacet
  facet normal -0.5224985647159485 0.8526401643540924 0
    outer loop
      vertex 2.468698059628387 -3.3978713763747788 0
      vertex 1.906760098906096 -3.7422274015911445 0
      vertex 1.906760098906096 -3.7422274015911445 0.8
    endloop
  endfacet
  facet normal -0.6494480483301833 0.7604059656000313 0
    outer loop
      vertex 2.468698059628387 -3.3978713763747788 0.8
      vertex 2.9698484809834995 -2.9698484809834995 0
      vertex 2.468698059628387 -3.3978713763747788 0
    endloop
  endfacet
  facet normal -0.7604059656000313 0.6494480483301833 0
    outer loop
      vertex 2.9698484809834995 -2.9698484809834995 0
      vertex 2.9698484809834995 -2.9698484809834995 0.8
      vertex 3.3978713763747788 -2.468698059628387 0
    endloop
  endfacet
  facet normal -0.8526401643540924 0.5224985647159485 0
    outer loop
      vertex 3.7422274015911445 -1.906760098906096 0
      vertex 3.3978713763747788 -2.468698059628387 0
      vertex 3.3978713763747788 -2.468698059628387 0.8
    endloop
  endfacet
  facet normal -0.923879532511287 0.38268343236508945 0
    outer loop
      vertex 3.994437368439644 -1.297871376374779 0
      vertex 3.7422274015911445 -1.906760098906096 0
      vertex 3.7422274015911445 -1.906760098906096 0.8
    endloop
  endfacet
  facet normal -0.9723699203976763 0.23344536385590658 0
    outer loop
      vertex 4.148291030499578 -0.6570247531689696 0
      vertex 3.994437368439644 -1.297871376374779 0
      vertex 3.994437368439644 -1.297871376374779 0.8
    endloop
  endfacet
  facet normal -0.9969173337331281 0.078459095727844 0
    outer loop
      vertex 4.148291030499578 -0.6570247531689696 0
      vertex 4.148291030499578 -0.6570247531689696 0.8
      vertex 4.199999999999999 0 0
    endloop
  endfacet
  facet normal -0.078459095727844 0.9969173337331281 0
    outer loop
      vertex 0.6570247531689696 -4.148291030499578 0
      vertex 0 -4.199999999999999 0.8
      vertex 0.6570247531689696 -4.148291030499578 0.8
    endloop
  endfacet
  facet normal -0.23344536385590658 0.9723699203976763 0
    outer loop
      vertex 1.297871376374779 -3.994437368439644 0
      vertex 0.6570247531689696 -4.148291030499578 0.8
      vertex 1.297871376374779 -3.994437368439644 0.8
    endloop
  endfacet
  facet normal -0.38268343236508945 0.923879532511287 0
    outer loop
      vertex 1.297871376374779 -3.994437368439644 0.8
      vertex 1.906760098906096 -3.7422274015911445 0.8
      vertex 1.906760098906096 -3.7422274015911445 0
    endloop
  endfacet
  facet normal -0.5224985647159485 0.8526401643540924 0
    outer loop
      vertex 2.468698059628387 -3.3978713763747788 0
      vertex 1.906760098906096 -3.7422274015911445 0.8
      vertex 2.468698059628387 -3.3978713763747788 0.8
    endloop
  endfacet
  facet normal -0.6494480483301833 0.7604059656000313 0
    outer loop
      vertex 2.9698484809834995 -2.9698484809834995 0
      vertex 2.468698059628387 -3.3978713763747788 0.8
      vertex 2.9698484809834995 -2.9698484809834995 0.8
    endloop
  endfacet
  facet normal -0.7604059656000313 0.6494480483301833 0
    outer loop
      vertex 2.9698484809834995 -2.9698484809834995 0.8
      vertex 3.3978713763747788 -2.468698059628387 0.8
      vertex 3.3978713763747788 -2.468698059628387 0
    endloop
  endfacet
  facet normal -0.8526401643540924 0.5224985647159485 0
    outer loop
      vertex 3.7422274015911445 -1.906760098906096 0
      vertex 3.3978713763747788 -2.468698059628387 0.8
      vertex 3.7422274015911445 -1.906760098906096 0.8
    endloop
  endfacet
  facet normal -0.923879532511287 0.38268343236508945 0
    outer loop
      vertex 3.7422274015911445 -1.906760098906096 0.8
      vertex 3.994437368439644 -1.297871376374779 0.8
      vertex 3.994437368439644 -1.297871376374779 0
    endloop
  endfacet
  facet normal -0.9723699203976763 0.23344536385590658 0
    outer loop
      vertex 3.994437368439644 -1.297871376374779 0.8
      vertex 4.148291030499578 -0.6570247531689696 0.8
      vertex 4.148291030499578 -0.6570247531689696 0
    endloop
  endfacet
  facet normal -0.9969173337331281 0.078459095727844 0
    outer loop
      vertex 4.148291030499578 -0.6570247531689696 0.8
      vertex 4.199999999999999 0 0.8
      vertex 4.199999999999999 0 0
    endloop
  endfacet
  facet normal -0.078459095727844 -0.9969173337331281 0
    outer loop
      vertex 0.6570247531689696 4.148291030499578 0
      vertex 0.6570247531689696 4.148291030499578 0.8
      vertex 0 4.199999999999999 0
    endloop
  endfacet
  facet normal -0.23344536385590658 -0.9723699203976763 0
    outer loop
      vertex 1.297871376374779 3.994437368439644 0
      vertex 1.297871376374779 3.994437368439644 0.8
      vertex 0.6570247531689696 4.148291030499578 0
    endloop
  endfacet
  facet normal -0.38268343236508945 -0.923879532511287 0
    outer loop
      vertex 1.906760098906096 3.7422274015911445 0.8
      vertex 1.297871376374779 3.994437368439644 0
      vertex 1.906760098906096 3.7422274015911445 0
    endloop
  endfacet
  facet normal -0.5224985647159485 -0.8526401643540924 0
    outer loop
      vertex 2.468698059628387 3.3978713763747788 0
      vertex 2.468698059628387 3.3978713763747788 0.8
      vertex 1.906760098906096 3.7422274015911445 0
    endloop
  endfacet
  facet normal -0.6494480483301833 -0.7604059656000313 0
    outer loop
      vertex 2.468698059628387 3.3978713763747788 0
      vertex 2.9698484809834995 2.9698484809834995 0
      vertex 2.9698484809834995 2.9698484809834995 0.8
    endloop
  endfacet
  facet normal -0.9969173337331281 -0.078459095727844 0
    outer loop
      vertex 4.199999999999999 0 0
      vertex 4.199999999999999 0 0.8
      vertex 4.148291030499578 0.6570247531689696 0
    endloop
  endfacet
  facet normal -0.9723699203976763 -0.23344536385590658 0
    outer loop
      vertex 3.994437368439644 1.297871376374779 0
      vertex 4.148291030499578 0.6570247531689696 0
      vertex 4.148291030499578 0.6570247531689696 0.8
    endloop
  endfacet
  facet normal -0.7604059656000313 -0.6494480483301833 0
    outer loop
      vertex 2.9698484809834995 2.9698484809834995 0
      vertex 3.3978713763747788 2.468698059628387 0
      vertex 3.3978713763747788 2.468698059628387 0.8
    endloop
  endfacet
  facet normal -0.923879532511287 -0.38268343236508945 0
    outer loop
      vertex 3.7422274015911445 1.906760098906096 0
      vertex 3.994437368439644 1.297871376374779 0
      vertex 3.994437368439644 1.297871376374779 0.8
    endloop
  endfacet
  facet normal -0.8526401643540924 -0.5224985647159485 0
    outer loop
      vertex 3.7422274015911445 1.906760098906096 0.8
      vertex 3.3978713763747788 2.468698059628387 0
      vertex 3.7422274015911445 1.906760098906096 0
    endloop
  endfacet
  facet normal -0.078459095727844 -0.9969173337331281 0
    outer loop
      vertex 0.6570247531689696 4.148291030499578 0.8
      vertex 0 4.199999999999999 0.8
      vertex 0 4.199999999999999 0
    endloop
  endfacet
  facet normal -0.23344536385590658 -0.9723699203976763 0
    outer loop
      vertex 0.6570247531689696 4.148291030499578 0
      vertex 1.297871376374779 3.994437368439644 0.8
      vertex 0.6570247531689696 4.148291030499578 0.8
    endloop
  endfacet
  facet normal -0.38268343236508945 -0.923879532511287 0
    outer loop
      vertex 1.297871376374779 3.994437368439644 0
      vertex 1.906760098906096 3.7422274015911445 0.8
      vertex 1.297871376374779 3.994437368439644 0.8
    endloop
  endfacet
  facet normal -0.5224985647159485 -0.8526401643540924 0
    outer loop
      vertex 2.468698059628387 3.3978713763747788 0.8
      vertex 1.906760098906096 3.7422274015911445 0.8
      vertex 1.906760098906096 3.7422274015911445 0
    endloop
  endfacet
  facet normal -0.6494480483301833 -0.7604059656000313 0
    outer loop
      vertex 2.468698059628387 3.3978713763747788 0
      vertex 2.9698484809834995 2.9698484809834995 0.8
      vertex 2.468698059628387 3.3978713763747788 0.8
    endloop
  endfacet
  facet normal -0.9969173337331281 -0.078459095727844 0
    outer loop
      vertex 4.199999999999999 0 0.8
      vertex 4.148291030499578 0.6570247531689696 0.8
      vertex 4.148291030499578 0.6570247531689696 0
    endloop
  endfacet
  facet normal -0.9723699203976763 -0.23344536385590658 0
    outer loop
      vertex 3.994437368439644 1.297871376374779 0
      vertex 4.148291030499578 0.6570247531689696 0.8
      vertex 3.994437368439644 1.297871376374779 0.8
    endloop
  endfacet
  facet normal -0.7604059656000313 -0.6494480483301833 0
    outer loop
      vertex 2.9698484809834995 2.9698484809834995 0
      vertex 3.3978713763747788 2.468698059628387 0.8
      vertex 2.9698484809834995 2.9698484809834995 0.8
    endloop
  endfacet
  facet normal -0.8526401643540924 -0.5224985647159485 0
    outer loop
      vertex 3.7422274015911445 1.906760098906096 0.8
      vertex 3.3978713763747788 2.468698059628387 0.8
      vertex 3.3978713763747788 2.468698059628387 0
    endloop
  endfacet
  facet normal -0.923879532511287 -0.38268343236508945 0
    outer loop
      vertex 3.7422274015911445 1.906760098906096 0
      vertex 3.994437368439644 1.297871376374779 0.8
      vertex 3.7422274015911445 1.906760098906096 0.8
    endloop
  endfacet
endsolid OpenSCAD_Model
