solid OpenSCAD_Model
  facet normal 0.634876 -0.756613 -0.156428
    outer loop
      vertex 245.205 203.269 1.08197
      vertex 5.1158 1.68185 1.7
      vertex 5.05288 1.75683 1.08197
    endloop
  endfacet
  facet normal 0.634865 -0.7566 -0.156532
    outer loop
      vertex 5.1158 1.68185 1.7
      vertex 245.205 203.269 1.08197
      vertex 245.268 203.194 1.7
    endloop
  endfacet
  facet normal -0.634864 0.756601 -0.156532
    outer loop
      vertex -1.22265 1.4571 1.08197
      vertex 242.697 206.258 1.7
      vertex 242.76 206.183 1.08197
    endloop
  endfacet
  facet normal -0.634873 0.756611 -0.15645
    outer loop
      vertex 242.697 206.258 1.7
      vertex -1.22265 1.4571 1.08197
      vertex -1.28558 1.53209 1.7
    endloop
  endfacet
  facet normal 0.100516 -0.119791 0.987698
    outer loop
      vertex 243.983 204.726 3.7
      vertex 4.22749 2.7405 3.60211
      vertex 244.38 204.252 3.60211
    endloop
  endfacet
  facet normal 0.100557 -0.119839 0.987688
    outer loop
      vertex 4.22749 2.7405 3.60211
      vertex 243.983 204.726 3.7
      vertex 3.83022 3.21394 3.7
    endloop
  endfacet
  facet normal -0.766048 -0.642783 -8.20791e-06
    outer loop
      vertex 0 0 0
      vertex -1.28558 1.53209 1.7
      vertex -1.22265 1.4571 1.08197
    endloop
  endfacet
  facet normal -0.766048 -0.642784 -7.42685e-06
    outer loop
      vertex 0 0 0
      vertex -1.22265 1.4571 1.08197
      vertex -1.04005 1.23949 0.524429
    endloop
  endfacet
  facet normal -0.76604 -0.642793 6.25995e-06
    outer loop
      vertex -1.28558 1.53209 1.7
      vertex 0 0 0
      vertex -1.22265 1.4571 2.31803
    endloop
  endfacet
  facet normal -0.766044 -0.642788 1.05721e-05
    outer loop
      vertex 0 0 0
      vertex -1.04005 1.23949 0.524429
      vertex -0.755642 0.900539 0.0819654
    endloop
  endfacet
  facet normal -0.766045 -0.642787 -0
    outer loop
      vertex 0 0 3.7
      vertex -1.22265 1.4571 2.31803
      vertex 0 0 0
    endloop
  endfacet
  facet normal -0.766044 -0.642788 1.02302e-06
    outer loop
      vertex 0 0 0
      vertex -0.755642 0.900539 0.0819654
      vertex -0.652239 0.777308 0
    endloop
  endfacet
  facet normal -0.766049 -0.642782 8.37448e-06
    outer loop
      vertex -1.22265 1.4571 2.31803
      vertex 0 0 3.7
      vertex -1.04005 1.23949 2.87557
    endloop
  endfacet
  facet normal -0.766041 -0.642791 -1.45689e-05
    outer loop
      vertex -1.04005 1.23949 2.87557
      vertex 0 0 3.7
      vertex -0.755642 0.900539 3.31803
    endloop
  endfacet
  facet normal -0.766045 -0.642787 1.47798e-06
    outer loop
      vertex -0.755642 0.900539 3.31803
      vertex 0 0 3.7
      vertex -0.397264 0.473441 3.60211
    endloop
  endfacet
  facet normal 0.454303 -0.541419 -0.707442
    outer loop
      vertex 4.87027 1.97445 0.524429
      vertex 244.738 203.825 0.0819654
      vertex 245.023 203.486 0.524429
    endloop
  endfacet
  facet normal 0.454518 -0.541674 -0.707109
    outer loop
      vertex 244.738 203.825 0.0819654
      vertex 4.87027 1.97445 0.524429
      vertex 4.58586 2.3134 0.0819654
    endloop
  endfacet
  facet normal 0.572725 -0.682549 -0.453996
    outer loop
      vertex 245.023 203.486 0.524429
      vertex 5.05288 1.75683 1.08197
      vertex 4.87027 1.97445 0.524429
    endloop
  endfacet
  facet normal 0.573087 -0.682977 -0.452895
    outer loop
      vertex 5.05288 1.75683 1.08197
      vertex 245.023 203.486 0.524429
      vertex 245.205 203.269 1.08197
    endloop
  endfacet
  facet normal 0.292448 -0.348526 -0.890508
    outer loop
      vertex 4.58586 2.3134 0.0819654
      vertex 244.635 203.948 0
      vertex 244.738 203.825 0.0819654
    endloop
  endfacet
  facet normal 0.291822 -0.347781 -0.891004
    outer loop
      vertex 244.635 203.948 0
      vertex 4.58586 2.3134 0.0819654
      vertex 4.48246 2.43663 0
    endloop
  endfacet
  facet normal -0.292448 0.348526 -0.890508
    outer loop
      vertex -0.652239 0.777308 0
      vertex 243.227 205.626 0.0819654
      vertex 243.33 205.503 0
    endloop
  endfacet
  facet normal -0.291819 0.347776 -0.891007
    outer loop
      vertex 243.227 205.626 0.0819654
      vertex -0.652239 0.777308 0
      vertex -0.755642 0.900539 0.0819654
    endloop
  endfacet
  facet normal 0.766045 0.642787 -8.37387e-05
    outer loop
      vertex 245.268 203.194 1.7
      vertex 242.697 206.258 1.7
      vertex 242.76 206.183 2.31803
    endloop
  endfacet
  facet normal 0.766061 0.642766 0.00125518
    outer loop
      vertex 245.205 203.269 2.31803
      vertex 242.76 206.183 2.31803
      vertex 242.942 205.965 2.87557
    endloop
  endfacet
  facet normal 0.766045 0.642787 8.37387e-05
    outer loop
      vertex 242.697 206.258 1.7
      vertex 245.268 203.194 1.7
      vertex 242.76 206.183 1.08197
    endloop
  endfacet
  facet normal 0.765912 0.642946 -0.000737381
    outer loop
      vertex 245.023 203.486 2.87557
      vertex 242.942 205.965 2.87557
      vertex 243.227 205.626 3.31803
    endloop
  endfacet
  facet normal 0.766062 0.642767 -8.80512e-05
    outer loop
      vertex 245.205 203.269 1.08197
      vertex 242.76 206.183 1.08197
      vertex 245.268 203.194 1.7
    endloop
  endfacet
  facet normal 0.766061 0.642766 -0.00125518
    outer loop
      vertex 242.76 206.183 1.08197
      vertex 245.205 203.269 1.08197
      vertex 242.942 205.965 0.524429
    endloop
  endfacet
  facet normal 0.76609 0.642733 0.00065734
    outer loop
      vertex 244.738 203.825 3.31803
      vertex 243.227 205.626 3.31803
      vertex 243.585 205.199 3.60211
    endloop
  endfacet
  facet normal 0.765876 0.642948 -0.00719595
    outer loop
      vertex 244.38 204.252 3.60211
      vertex 243.585 205.199 3.60211
      vertex 243.983 204.726 3.7
    endloop
  endfacet
  facet normal 0.765895 0.642964 -0.00124981
    outer loop
      vertex 243.585 205.199 3.60211
      vertex 244.38 204.252 3.60211
      vertex 244.738 203.825 3.31803
    endloop
  endfacet
  facet normal 0.766062 0.642767 8.80512e-05
    outer loop
      vertex 242.76 206.183 2.31803
      vertex 245.205 203.269 2.31803
      vertex 245.268 203.194 1.7
    endloop
  endfacet
  facet normal 0.76609 0.642733 0.00101521
    outer loop
      vertex 243.227 205.626 3.31803
      vertex 244.738 203.825 3.31803
      vertex 245.023 203.486 2.87557
    endloop
  endfacet
  facet normal 0.765912 0.642946 0.000253328
    outer loop
      vertex 243.33 205.503 0
      vertex 242.942 205.965 0.524429
      vertex 245.023 203.486 0.524429
    endloop
  endfacet
  facet normal 0.765912 0.642946 -0.000221105
    outer loop
      vertex 242.942 205.965 2.87557
      vertex 245.023 203.486 2.87557
      vertex 245.205 203.269 2.31803
    endloop
  endfacet
  facet normal 0.765912 0.642946 0.000221105
    outer loop
      vertex 245.023 203.486 0.524429
      vertex 242.942 205.965 0.524429
      vertex 245.205 203.269 1.08197
    endloop
  endfacet
  facet normal 0.767984 0.640457 0.00397878
    outer loop
      vertex 242.942 205.965 0.524429
      vertex 243.33 205.503 0
      vertex 243.227 205.626 0.0819654
    endloop
  endfacet
  facet normal 0.767984 0.640457 -0.00397878
    outer loop
      vertex 244.635 203.948 0
      vertex 245.023 203.486 0.524429
      vertex 244.738 203.825 0.0819654
    endloop
  endfacet
  facet normal 0.765996 0.642845 -0.000403904
    outer loop
      vertex 243.33 205.503 0
      vertex 245.023 203.486 0.524429
      vertex 244.635 203.948 0
    endloop
  endfacet
  facet normal -0.634864 0.756601 0.156532
    outer loop
      vertex 242.697 206.258 1.7
      vertex -1.22265 1.4571 2.31803
      vertex 242.76 206.183 2.31803
    endloop
  endfacet
  facet normal -0.634873 0.756611 0.15645
    outer loop
      vertex -1.22265 1.4571 2.31803
      vertex 242.697 206.258 1.7
      vertex -1.28558 1.53209 1.7
    endloop
  endfacet
  facet normal -0.454303 0.541419 -0.707442
    outer loop
      vertex -0.755642 0.900539 0.0819654
      vertex 242.942 205.965 0.524429
      vertex 243.227 205.626 0.0819654
    endloop
  endfacet
  facet normal -0.454519 0.541674 -0.707108
    outer loop
      vertex 242.942 205.965 0.524429
      vertex -0.755642 0.900539 0.0819654
      vertex -1.04005 1.23949 0.524429
    endloop
  endfacet
  facet normal -0.572768 0.682598 -0.453868
    outer loop
      vertex -1.04005 1.23949 0.524429
      vertex 242.76 206.183 1.08197
      vertex 242.942 205.965 0.524429
    endloop
  endfacet
  facet normal -0.572732 0.682555 -0.453979
    outer loop
      vertex 242.76 206.183 1.08197
      vertex -1.04005 1.23949 0.524429
      vertex -1.22265 1.4571 1.08197
    endloop
  endfacet
  facet normal 0.572725 -0.682549 0.453997
    outer loop
      vertex 5.05288 1.75683 2.31803
      vertex 245.023 203.486 2.87557
      vertex 4.87027 1.97445 2.87557
    endloop
  endfacet
  facet normal 0.573087 -0.682976 0.452896
    outer loop
      vertex 245.023 203.486 2.87557
      vertex 5.05288 1.75683 2.31803
      vertex 245.205 203.269 2.31803
    endloop
  endfacet
  facet normal -0.454302 0.541416 0.707445
    outer loop
      vertex 242.942 205.965 2.87557
      vertex -0.755642 0.900539 3.31803
      vertex 243.227 205.626 3.31803
    endloop
  endfacet
  facet normal -0.454517 0.541672 0.707111
    outer loop
      vertex -0.755642 0.900539 3.31803
      vertex 242.942 205.965 2.87557
      vertex -1.04005 1.23949 2.87557
    endloop
  endfacet
  facet normal -0.100536 0.119814 0.987693
    outer loop
      vertex 243.585 205.199 3.60211
      vertex 3.83022 3.21394 3.7
      vertex 243.983 204.726 3.7
    endloop
  endfacet
  facet normal -0.100558 0.11984 0.987688
    outer loop
      vertex -0.397264 0.473441 3.60211
      vertex 3.83022 3.21394 3.7
      vertex 243.585 205.199 3.60211
    endloop
  endfacet
  facet normal -0.100557 0.119839 0.987688
    outer loop
      vertex 3.83022 3.21394 3.7
      vertex -0.397264 0.473441 3.60211
      vertex 0 0 3.7
    endloop
  endfacet
  facet normal -0.572768 0.682598 0.453869
    outer loop
      vertex 242.76 206.183 2.31803
      vertex -1.04005 1.23949 2.87557
      vertex 242.942 205.965 2.87557
    endloop
  endfacet
  facet normal -0.572732 0.682555 0.453979
    outer loop
      vertex -1.04005 1.23949 2.87557
      vertex 242.76 206.183 2.31803
      vertex -1.22265 1.4571 2.31803
    endloop
  endfacet
  facet normal 0.291952 -0.347935 0.890901
    outer loop
      vertex 244.38 204.252 3.60211
      vertex 4.58586 2.3134 3.31803
      vertex 244.738 203.825 3.31803
    endloop
  endfacet
  facet normal 0.291821 -0.34778 0.891005
    outer loop
      vertex 4.58586 2.3134 3.31803
      vertex 244.38 204.252 3.60211
      vertex 4.22749 2.7405 3.60211
    endloop
  endfacet
  facet normal 0.634876 -0.756613 0.156428
    outer loop
      vertex 5.1158 1.68185 1.7
      vertex 245.205 203.269 2.31803
      vertex 5.05288 1.75683 2.31803
    endloop
  endfacet
  facet normal 0.634865 -0.7566 0.156532
    outer loop
      vertex 245.205 203.269 2.31803
      vertex 5.1158 1.68185 1.7
      vertex 245.268 203.194 1.7
    endloop
  endfacet
  facet normal -0.291952 0.347935 0.890901
    outer loop
      vertex 243.227 205.626 3.31803
      vertex -0.397264 0.473441 3.60211
      vertex 243.585 205.199 3.60211
    endloop
  endfacet
  facet normal -0.29182 0.347778 0.891006
    outer loop
      vertex -0.397264 0.473441 3.60211
      vertex 243.227 205.626 3.31803
      vertex -0.755642 0.900539 3.31803
    endloop
  endfacet
  facet normal 0.454301 -0.541417 0.707445
    outer loop
      vertex 244.738 203.825 3.31803
      vertex 4.87027 1.97445 2.87557
      vertex 245.023 203.486 2.87557
    endloop
  endfacet
  facet normal 0.454516 -0.541672 0.707112
    outer loop
      vertex 4.87027 1.97445 2.87557
      vertex 244.738 203.825 3.31803
      vertex 4.58586 2.3134 3.31803
    endloop
  endfacet
  facet normal 0 0 -1
    outer loop
      vertex 4.48246 2.43663 0
      vertex 243.33 205.503 0
      vertex 244.635 203.948 0
    endloop
  endfacet
  facet normal 0 0 -1
    outer loop
      vertex 3.83022 3.21394 0
      vertex 243.33 205.503 0
      vertex 4.48246 2.43663 0
    endloop
  endfacet
  facet normal 0 0 -1
    outer loop
      vertex -0.652239 0.777308 0
      vertex 3.83022 3.21394 0
      vertex 0 0 0
    endloop
  endfacet
  facet normal -0 0 -1
    outer loop
      vertex 3.83022 3.21394 0
      vertex -0.652239 0.777308 0
      vertex 243.33 205.503 0
    endloop
  endfacet
  facet normal 0.642788 -0.766044 0
    outer loop
      vertex 0 0 0
      vertex 3.83022 3.21394 3.7
      vertex 0 0 3.7
    endloop
  endfacet
  facet normal 0.642788 -0.766044 0
    outer loop
      vertex 3.83022 3.21394 3.7
      vertex 0 0 0
      vertex 3.83022 3.21394 0
    endloop
  endfacet
  facet normal -0.766045 -0.642787 0
    outer loop
      vertex 5.05288 1.75683 2.31803
      vertex 3.83022 3.21394 3.7
      vertex 3.83022 3.21394 0
    endloop
  endfacet
  facet normal -0.766045 -0.642787 -2.02138e-05
    outer loop
      vertex 4.58586 2.3134 0.0819654
      vertex 3.83022 3.21394 0
      vertex 4.48246 2.43663 0
    endloop
  endfacet
  facet normal -0.766045 -0.642786 -3.29958e-06
    outer loop
      vertex 3.83022 3.21394 0
      vertex 4.58586 2.3134 0.0819654
      vertex 4.87027 1.97445 0.524429
    endloop
  endfacet
  facet normal -0.766041 -0.642792 -4.50237e-06
    outer loop
      vertex 5.05288 1.75683 2.31803
      vertex 3.83022 3.21394 0
      vertex 5.1158 1.68185 1.7
    endloop
  endfacet
  facet normal -0.766048 -0.642783 1.0075e-05
    outer loop
      vertex 3.83022 3.21394 0
      vertex 4.87027 1.97445 0.524429
      vertex 5.05288 1.75683 1.08197
    endloop
  endfacet
  facet normal -0.766047 -0.642785 5.90317e-06
    outer loop
      vertex 3.83022 3.21394 0
      vertex 5.05288 1.75683 1.08197
      vertex 5.1158 1.68185 1.7
    endloop
  endfacet
  facet normal -0.76605 -0.642781 -1.13607e-05
    outer loop
      vertex 4.87027 1.97445 2.87557
      vertex 3.83022 3.21394 3.7
      vertex 5.05288 1.75683 2.31803
    endloop
  endfacet
  facet normal -0.766033 -0.642801 6.05332e-05
    outer loop
      vertex 3.83022 3.21394 3.7
      vertex 4.58586 2.3134 3.31803
      vertex 4.22749 2.7405 3.60211
    endloop
  endfacet
  facet normal -0.766045 -0.642787 4.54698e-06
    outer loop
      vertex 4.58586 2.3134 3.31803
      vertex 3.83022 3.21394 3.7
      vertex 4.87027 1.97445 2.87557
    endloop
  endfacet
endsolid OpenSCAD_Model
