solid OpenSCAD_Model
  facet normal -0.951056 0.309017 0
    outer loop
      vertex -8.71725 2.23821 0
      vertex -8.36799 3.31312 1
      vertex -8.36799 3.31312 0
    endloop
  endfacet
  facet normal -0.951056 0.309017 0
    outer loop
      vertex -8.36799 3.31312 1
      vertex -8.71725 2.23821 0
      vertex -8.71725 2.23821 1
    endloop
  endfacet
  facet normal 0.844328 0.535826 0
    outer loop
      vertex 7.88676 4.33578 1
      vertex 7.28115 5.29007 0
      vertex 7.28115 5.29007 1
    endloop
  endfacet
  facet normal 0.844328 0.535826 0
    outer loop
      vertex 7.28115 5.29007 0
      vertex 7.88676 4.33578 1
      vertex 7.88676 4.33578 0
    endloop
  endfacet
  facet normal 0.248685 0.968585 -0
    outer loop
      vertex 2.78115 8.55951 0
      vertex 1.68643 8.84058 1
      vertex 2.78115 8.55951 1
    endloop
  endfacet
  facet normal 0.248685 0.968585 0
    outer loop
      vertex 1.68643 8.84058 1
      vertex 2.78115 8.55951 0
      vertex 1.68643 8.84058 0
    endloop
  endfacet
  facet normal 0.368128 0.929775 -0
    outer loop
      vertex 3.83201 8.14344 0
      vertex 2.78115 8.55951 1
      vertex 3.83201 8.14344 1
    endloop
  endfacet
  facet normal 0.368128 0.929775 0
    outer loop
      vertex 2.78115 8.55951 1
      vertex 3.83201 8.14344 0
      vertex 2.78115 8.55951 0
    endloop
  endfacet
  facet normal -0.368128 0.929775 0
    outer loop
      vertex -2.78115 8.55951 0
      vertex -3.83201 8.14344 1
      vertex -2.78115 8.55951 1
    endloop
  endfacet
  facet normal -0.368128 0.929775 0
    outer loop
      vertex -3.83201 8.14344 1
      vertex -2.78115 8.55951 0
      vertex -3.83201 8.14344 0
    endloop
  endfacet
  facet normal -0.904826 0.425781 0
    outer loop
      vertex -8.36799 3.31312 0
      vertex -7.88676 4.33578 1
      vertex -7.88676 4.33578 0
    endloop
  endfacet
  facet normal -0.904826 0.425781 0
    outer loop
      vertex -7.88676 4.33578 1
      vertex -8.36799 3.31312 0
      vertex -8.36799 3.31312 1
    endloop
  endfacet
  facet normal 0.982288 -0.187378 0
    outer loop
      vertex 8.71725 -2.23821 1
      vertex 8.92903 -1.128 0
      vertex 8.92903 -1.128 1
    endloop
  endfacet
  facet normal 0.982288 -0.187378 0
    outer loop
      vertex 8.92903 -1.128 0
      vertex 8.71725 -2.23821 1
      vertex 8.71725 -2.23821 0
    endloop
  endfacet
  facet normal 0.481751 0.876308 -0
    outer loop
      vertex 4.82244 7.59895 0
      vertex 3.83201 8.14344 1
      vertex 4.82244 7.59895 1
    endloop
  endfacet
  facet normal 0.481751 0.876308 0
    outer loop
      vertex 3.83201 8.14344 1
      vertex 4.82244 7.59895 0
      vertex 3.83201 8.14344 0
    endloop
  endfacet
  facet normal -0.982288 0.187378 0
    outer loop
      vertex -8.92903 1.128 0
      vertex -8.71725 2.23821 1
      vertex -8.71725 2.23821 0
    endloop
  endfacet
  facet normal -0.982288 0.187378 0
    outer loop
      vertex -8.71725 2.23821 1
      vertex -8.92903 1.128 0
      vertex -8.92903 1.128 1
    endloop
  endfacet
  facet normal -0.770513 0.637424 0
    outer loop
      vertex -7.28115 5.29007 0
      vertex -6.56072 6.16092 1
      vertex -6.56072 6.16092 0
    endloop
  endfacet
  facet normal -0.770513 0.637424 0
    outer loop
      vertex -6.56072 6.16092 1
      vertex -7.28115 5.29007 0
      vertex -7.28115 5.29007 1
    endloop
  endfacet
  facet normal -0.248685 0.968585 0
    outer loop
      vertex -1.68643 8.84058 0
      vertex -2.78115 8.55951 1
      vertex -1.68643 8.84058 1
    endloop
  endfacet
  facet normal -0.248685 0.968585 0
    outer loop
      vertex -2.78115 8.55951 1
      vertex -1.68643 8.84058 0
      vertex -2.78115 8.55951 0
    endloop
  endfacet
  facet normal -0.68455 0.728966 0
    outer loop
      vertex -5.73682 6.93462 0
      vertex -6.56072 6.16092 1
      vertex -5.73682 6.93462 1
    endloop
  endfacet
  facet normal -0.68455 0.728966 0
    outer loop
      vertex -6.56072 6.16092 1
      vertex -5.73682 6.93462 0
      vertex -6.56072 6.16092 0
    endloop
  endfacet
  facet normal 0.998027 0.0627925 0
    outer loop
      vertex 9 0 1
      vertex 8.92903 1.128 0
      vertex 8.92903 1.128 1
    endloop
  endfacet
  facet normal 0.998027 0.0627925 0
    outer loop
      vertex 8.92903 1.128 0
      vertex 9 0 1
      vertex 9 0 0
    endloop
  endfacet
  facet normal 0.481751 -0.876308 0
    outer loop
      vertex 3.83201 -8.14344 0
      vertex 4.82244 -7.59895 1
      vertex 3.83201 -8.14344 1
    endloop
  endfacet
  facet normal 0.481751 -0.876308 0
    outer loop
      vertex 4.82244 -7.59895 1
      vertex 3.83201 -8.14344 0
      vertex 4.82244 -7.59895 0
    endloop
  endfacet
  facet normal 0.951056 -0.309017 0
    outer loop
      vertex 8.36799 -3.31312 1
      vertex 8.71725 -2.23821 0
      vertex 8.71725 -2.23821 1
    endloop
  endfacet
  facet normal 0.951056 -0.309017 0
    outer loop
      vertex 8.71725 -2.23821 0
      vertex 8.36799 -3.31312 1
      vertex 8.36799 -3.31312 0
    endloop
  endfacet
  facet normal 0.68455 0.728966 -0
    outer loop
      vertex 6.56072 6.16092 0
      vertex 5.73682 6.93462 1
      vertex 6.56072 6.16092 1
    endloop
  endfacet
  facet normal 0.68455 0.728966 0
    outer loop
      vertex 5.73682 6.93462 1
      vertex 6.56072 6.16092 0
      vertex 5.73682 6.93462 0
    endloop
  endfacet
  facet normal 0 1 -0
    outer loop
      vertex 0.565114 8.98224 0
      vertex -0.565114 8.98224 1
      vertex 0.565114 8.98224 1
    endloop
  endfacet
  facet normal 0 1 0
    outer loop
      vertex -0.565114 8.98224 1
      vertex 0.565114 8.98224 0
      vertex -0.565114 8.98224 0
    endloop
  endfacet
  facet normal 0.587782 0.80902 -0
    outer loop
      vertex 5.73682 6.93462 0
      vertex 4.82244 7.59895 1
      vertex 5.73682 6.93462 1
    endloop
  endfacet
  facet normal 0.587782 0.80902 0
    outer loop
      vertex 4.82244 7.59895 1
      vertex 5.73682 6.93462 0
      vertex 4.82244 7.59895 0
    endloop
  endfacet
  facet normal -0.998027 0.0627925 0
    outer loop
      vertex -9 0 0
      vertex -8.92903 1.128 1
      vertex -8.92903 1.128 0
    endloop
  endfacet
  facet normal -0.998027 0.0627925 0
    outer loop
      vertex -8.92903 1.128 1
      vertex -9 0 0
      vertex -9 0 1
    endloop
  endfacet
  facet normal 0 0 1
    outer loop
      vertex 7.25 0 1
      vertex 9 0 1
      vertex 8.92903 1.128 1
    endloop
  endfacet
  facet normal 0 0 1
    outer loop
      vertex 7.19283 0.908666 1
      vertex 8.92903 1.128 1
      vertex 8.71725 2.23821 1
    endloop
  endfacet
  facet normal 0 0 1
    outer loop
      vertex 9 0 1
      vertex 7.25 0 1
      vertex 8.92903 -1.128 1
    endloop
  endfacet
  facet normal 0 0 1
    outer loop
      vertex 7.02223 1.803 1
      vertex 8.71725 2.23821 1
      vertex 8.36799 3.31312 1
    endloop
  endfacet
  facet normal -0 0 1
    outer loop
      vertex 7.19283 -0.908666 1
      vertex 8.92903 -1.128 1
      vertex 7.25 0 1
    endloop
  endfacet
  facet normal 0 0 1
    outer loop
      vertex 6.74088 2.6689 1
      vertex 8.36799 3.31312 1
      vertex 7.88676 4.33578 1
    endloop
  endfacet
  facet normal 0 0 1
    outer loop
      vertex 8.92903 -1.128 1
      vertex 7.19283 -0.908666 1
      vertex 8.71725 -2.23821 1
    endloop
  endfacet
  facet normal 0 0 1
    outer loop
      vertex 6.35322 3.49271 1
      vertex 7.88676 4.33578 1
      vertex 7.28115 5.29007 1
    endloop
  endfacet
  facet normal -0 0 1
    outer loop
      vertex 7.02223 -1.803 1
      vertex 8.71725 -2.23821 1
      vertex 7.19283 -0.908666 1
    endloop
  endfacet
  facet normal 0 0 1
    outer loop
      vertex 8.71725 -2.23821 1
      vertex 7.02223 -1.803 1
      vertex 8.36799 -3.31312 1
    endloop
  endfacet
  facet normal 0 0 1
    outer loop
      vertex 8.92903 1.128 1
      vertex 7.19283 0.908666 1
      vertex 7.25 0 1
    endloop
  endfacet
  facet normal 0 0 1
    outer loop
      vertex 8.71725 2.23821 1
      vertex 7.02223 1.803 1
      vertex 7.19283 0.908666 1
    endloop
  endfacet
  facet normal 0 0 1
    outer loop
      vertex 8.36799 3.31312 1
      vertex 6.74088 2.6689 1
      vertex 7.02223 1.803 1
    endloop
  endfacet
  facet normal 0 0 1
    outer loop
      vertex 5.86537 4.26144 1
      vertex 7.28115 5.29007 1
      vertex 6.56072 6.16092 1
    endloop
  endfacet
  facet normal 0 0 1
    outer loop
      vertex 7.88676 4.33578 1
      vertex 6.35322 3.49271 1
      vertex 6.74088 2.6689 1
    endloop
  endfacet
  facet normal 0 0 1
    outer loop
      vertex 7.28115 5.29007 1
      vertex 5.86537 4.26144 1
      vertex 6.35322 3.49271 1
    endloop
  endfacet
  facet normal 0 0 1
    outer loop
      vertex 5.28502 4.96297 1
      vertex 6.56072 6.16092 1
      vertex 5.73682 6.93462 1
    endloop
  endfacet
  facet normal 0 0 1
    outer loop
      vertex 6.56072 6.16092 1
      vertex 5.28502 4.96297 1
      vertex 5.86537 4.26144 1
    endloop
  endfacet
  facet normal 0 0 1
    outer loop
      vertex 4.62132 5.58622 1
      vertex 5.73682 6.93462 1
      vertex 4.82244 7.59895 1
    endloop
  endfacet
  facet normal 0 0 1
    outer loop
      vertex 5.73682 6.93462 1
      vertex 4.62132 5.58622 1
      vertex 5.28502 4.96297 1
    endloop
  endfacet
  facet normal 0 0 1
    outer loop
      vertex 4.82244 7.59895 1
      vertex 3.88474 6.12138 1
      vertex 4.62132 5.58622 1
    endloop
  endfacet
  facet normal 0 0 1
    outer loop
      vertex 3.83201 8.14344 1
      vertex 3.88474 6.12138 1
      vertex 4.82244 7.59895 1
    endloop
  endfacet
  facet normal 0 0 1
    outer loop
      vertex 3.83201 8.14344 1
      vertex 3.0869 6.56 1
      vertex 3.88474 6.12138 1
    endloop
  endfacet
  facet normal 0 0 1
    outer loop
      vertex 2.78115 8.55951 1
      vertex 3.0869 6.56 1
      vertex 3.83201 8.14344 1
    endloop
  endfacet
  facet normal 0 0 1
    outer loop
      vertex 2.78115 8.55951 1
      vertex 2.24037 6.89516 1
      vertex 3.0869 6.56 1
    endloop
  endfacet
  facet normal 0 0 1
    outer loop
      vertex 1.68643 8.84058 1
      vertex 2.24037 6.89516 1
      vertex 2.78115 8.55951 1
    endloop
  endfacet
  facet normal 0 0 1
    outer loop
      vertex 1.68643 8.84058 1
      vertex 1.35851 7.12158 1
      vertex 2.24037 6.89516 1
    endloop
  endfacet
  facet normal 0 0 1
    outer loop
      vertex 0.565114 8.98224 1
      vertex 1.35851 7.12158 1
      vertex 1.68643 8.84058 1
    endloop
  endfacet
  facet normal 0 0 1
    outer loop
      vertex 0.565114 8.98224 1
      vertex 0.455231 7.23569 1
      vertex 1.35851 7.12158 1
    endloop
  endfacet
  facet normal 0 0 1
    outer loop
      vertex 0.565114 8.98224 1
      vertex -0.455231 7.23569 1
      vertex 0.455231 7.23569 1
    endloop
  endfacet
  facet normal -0 0 1
    outer loop
      vertex -0.565114 8.98224 1
      vertex -0.455231 7.23569 1
      vertex 0.565114 8.98224 1
    endloop
  endfacet
  facet normal 0 0 1
    outer loop
      vertex -0.565114 8.98224 1
      vertex -1.35851 7.12158 1
      vertex -0.455231 7.23569 1
    endloop
  endfacet
  facet normal -0 0 1
    outer loop
      vertex -1.68643 8.84058 1
      vertex -1.35851 7.12158 1
      vertex -0.565114 8.98224 1
    endloop
  endfacet
  facet normal 0 0 1
    outer loop
      vertex -1.68643 8.84058 1
      vertex -2.24037 6.89516 1
      vertex -1.35851 7.12158 1
    endloop
  endfacet
  facet normal -0 0 1
    outer loop
      vertex -2.78115 8.55951 1
      vertex -2.24037 6.89516 1
      vertex -1.68643 8.84058 1
    endloop
  endfacet
  facet normal 0 0 1
    outer loop
      vertex -2.78115 8.55951 1
      vertex -3.0869 6.56 1
      vertex -2.24037 6.89516 1
    endloop
  endfacet
  facet normal -0 0 1
    outer loop
      vertex -3.83201 8.14344 1
      vertex -3.0869 6.56 1
      vertex -2.78115 8.55951 1
    endloop
  endfacet
  facet normal 0 0 1
    outer loop
      vertex -3.83201 8.14344 1
      vertex -3.88474 6.12138 1
      vertex -3.0869 6.56 1
    endloop
  endfacet
  facet normal -0 0 1
    outer loop
      vertex -4.82244 7.59895 1
      vertex -3.88474 6.12138 1
      vertex -3.83201 8.14344 1
    endloop
  endfacet
  facet normal 0 0 1
    outer loop
      vertex -3.88474 6.12138 1
      vertex -4.82244 7.59895 1
      vertex -4.62132 5.58622 1
    endloop
  endfacet
  facet normal -0 0 1
    outer loop
      vertex -5.73682 6.93462 1
      vertex -4.62132 5.58622 1
      vertex -4.82244 7.59895 1
    endloop
  endfacet
  facet normal 0 0 1
    outer loop
      vertex -4.62132 5.58622 1
      vertex -5.73682 6.93462 1
      vertex -5.28502 4.96297 1
    endloop
  endfacet
  facet normal -0 0 1
    outer loop
      vertex -6.56072 6.16092 1
      vertex -5.28502 4.96297 1
      vertex -5.73682 6.93462 1
    endloop
  endfacet
  facet normal 0 0 1
    outer loop
      vertex -5.28502 4.96297 1
      vertex -6.56072 6.16092 1
      vertex -5.86537 4.26144 1
    endloop
  endfacet
  facet normal -0 0 1
    outer loop
      vertex -7.28115 5.29007 1
      vertex -5.86537 4.26144 1
      vertex -6.56072 6.16092 1
    endloop
  endfacet
  facet normal 0 0 1
    outer loop
      vertex -5.86537 4.26144 1
      vertex -7.28115 5.29007 1
      vertex -6.35322 3.49271 1
    endloop
  endfacet
  facet normal -0 0 1
    outer loop
      vertex -7.88676 4.33578 1
      vertex -6.35322 3.49271 1
      vertex -7.28115 5.29007 1
    endloop
  endfacet
  facet normal 0 0 1
    outer loop
      vertex -6.35322 3.49271 1
      vertex -7.88676 4.33578 1
      vertex -6.74088 2.6689 1
    endloop
  endfacet
  facet normal 0 0 1
    outer loop
      vertex -6.74088 2.6689 1
      vertex -8.36799 3.31312 1
      vertex -7.02223 1.803 1
    endloop
  endfacet
  facet normal -0 0 1
    outer loop
      vertex -8.36799 3.31312 1
      vertex -6.74088 2.6689 1
      vertex -7.88676 4.33578 1
    endloop
  endfacet
  facet normal -0 0 1
    outer loop
      vertex 6.74088 -2.6689 1
      vertex 8.36799 -3.31312 1
      vertex 7.02223 -1.803 1
    endloop
  endfacet
  facet normal 0 0 1
    outer loop
      vertex 8.36799 -3.31312 1
      vertex 6.74088 -2.6689 1
      vertex 7.88676 -4.33578 1
    endloop
  endfacet
  facet normal -0 0 1
    outer loop
      vertex 6.35322 -3.49271 1
      vertex 7.88676 -4.33578 1
      vertex 6.74088 -2.6689 1
    endloop
  endfacet
  facet normal 0 0 1
    outer loop
      vertex 7.88676 -4.33578 1
      vertex 6.35322 -3.49271 1
      vertex 7.28115 -5.29007 1
    endloop
  endfacet
  facet normal -0 0 1
    outer loop
      vertex 5.86537 -4.26144 1
      vertex 7.28115 -5.29007 1
      vertex 6.35322 -3.49271 1
    endloop
  endfacet
  facet normal 0 0 1
    outer loop
      vertex 7.28115 -5.29007 1
      vertex 5.86537 -4.26144 1
      vertex 6.56072 -6.16092 1
    endloop
  endfacet
  facet normal -0 0 1
    outer loop
      vertex 5.28502 -4.96297 1
      vertex 6.56072 -6.16092 1
      vertex 5.86537 -4.26144 1
    endloop
  endfacet
  facet normal 0 0 1
    outer loop
      vertex 6.56072 -6.16092 1
      vertex 5.28502 -4.96297 1
      vertex 5.73682 -6.93462 1
    endloop
  endfacet
  facet normal -0 0 1
    outer loop
      vertex 4.62132 -5.58622 1
      vertex 5.73682 -6.93462 1
      vertex 5.28502 -4.96297 1
    endloop
  endfacet
  facet normal 0 0 1
    outer loop
      vertex 5.73682 -6.93462 1
      vertex 4.62132 -5.58622 1
      vertex 4.82244 -7.59895 1
    endloop
  endfacet
  facet normal -0 0 1
    outer loop
      vertex 3.88474 -6.12138 1
      vertex 4.82244 -7.59895 1
      vertex 4.62132 -5.58622 1
    endloop
  endfacet
  facet normal 0 0 1
    outer loop
      vertex 3.88474 -6.12138 1
      vertex 3.83201 -8.14344 1
      vertex 4.82244 -7.59895 1
    endloop
  endfacet
  facet normal -0 0 1
    outer loop
      vertex 3.0869 -6.56 1
      vertex 3.83201 -8.14344 1
      vertex 3.88474 -6.12138 1
    endloop
  endfacet
  facet normal 0 0 1
    outer loop
      vertex 3.0869 -6.56 1
      vertex 2.78115 -8.55951 1
      vertex 3.83201 -8.14344 1
    endloop
  endfacet
  facet normal -0 0 1
    outer loop
      vertex 2.24037 -6.89516 1
      vertex 2.78115 -8.55951 1
      vertex 3.0869 -6.56 1
    endloop
  endfacet
  facet normal 0 0 1
    outer loop
      vertex 2.24037 -6.89516 1
      vertex 1.68643 -8.84058 1
      vertex 2.78115 -8.55951 1
    endloop
  endfacet
  facet normal -0 0 1
    outer loop
      vertex 1.35851 -7.12158 1
      vertex 1.68643 -8.84058 1
      vertex 2.24037 -6.89516 1
    endloop
  endfacet
  facet normal 0 0 1
    outer loop
      vertex 1.35851 -7.12158 1
      vertex 0.565114 -8.98224 1
      vertex 1.68643 -8.84058 1
    endloop
  endfacet
  facet normal -0 0 1
    outer loop
      vertex 0.455231 -7.23569 1
      vertex 0.565114 -8.98224 1
      vertex 1.35851 -7.12158 1
    endloop
  endfacet
  facet normal -0 0 1
    outer loop
      vertex -0.455231 -7.23569 1
      vertex 0.565114 -8.98224 1
      vertex 0.455231 -7.23569 1
    endloop
  endfacet
  facet normal 0 0 1
    outer loop
      vertex -0.455231 -7.23569 1
      vertex -0.565114 -8.98224 1
      vertex 0.565114 -8.98224 1
    endloop
  endfacet
  facet normal 0 0 1
    outer loop
      vertex -1.35851 -7.12158 1
      vertex -0.565114 -8.98224 1
      vertex -0.455231 -7.23569 1
    endloop
  endfacet
  facet normal 0 0 1
    outer loop
      vertex -1.35851 -7.12158 1
      vertex -1.68643 -8.84058 1
      vertex -0.565114 -8.98224 1
    endloop
  endfacet
  facet normal 0 0 1
    outer loop
      vertex -2.24037 -6.89516 1
      vertex -1.68643 -8.84058 1
      vertex -1.35851 -7.12158 1
    endloop
  endfacet
  facet normal 0 0 1
    outer loop
      vertex -2.24037 -6.89516 1
      vertex -2.78115 -8.55951 1
      vertex -1.68643 -8.84058 1
    endloop
  endfacet
  facet normal 0 0 1
    outer loop
      vertex -3.0869 -6.56 1
      vertex -2.78115 -8.55951 1
      vertex -2.24037 -6.89516 1
    endloop
  endfacet
  facet normal 0 0 1
    outer loop
      vertex -3.0869 -6.56 1
      vertex -3.83201 -8.14344 1
      vertex -2.78115 -8.55951 1
    endloop
  endfacet
  facet normal 0 0 1
    outer loop
      vertex -3.88474 -6.12138 1
      vertex -3.83201 -8.14344 1
      vertex -3.0869 -6.56 1
    endloop
  endfacet
  facet normal 0 0 1
    outer loop
      vertex -4.82244 -7.59895 1
      vertex -3.88474 -6.12138 1
      vertex -4.62132 -5.58622 1
    endloop
  endfacet
  facet normal 0 0 1
    outer loop
      vertex -3.88474 -6.12138 1
      vertex -4.82244 -7.59895 1
      vertex -3.83201 -8.14344 1
    endloop
  endfacet
  facet normal 0 0 1
    outer loop
      vertex -5.73682 -6.93462 1
      vertex -4.62132 -5.58622 1
      vertex -5.28502 -4.96297 1
    endloop
  endfacet
  facet normal 0 0 1
    outer loop
      vertex -4.62132 -5.58622 1
      vertex -5.73682 -6.93462 1
      vertex -4.82244 -7.59895 1
    endloop
  endfacet
  facet normal 0 0 1
    outer loop
      vertex -6.56072 -6.16092 1
      vertex -5.28502 -4.96297 1
      vertex -5.86537 -4.26144 1
    endloop
  endfacet
  facet normal 0 0 1
    outer loop
      vertex -7.28115 -5.29007 1
      vertex -5.86537 -4.26144 1
      vertex -6.35322 -3.49271 1
    endloop
  endfacet
  facet normal 0 0 1
    outer loop
      vertex -5.28502 -4.96297 1
      vertex -6.56072 -6.16092 1
      vertex -5.73682 -6.93462 1
    endloop
  endfacet
  facet normal 0 0 1
    outer loop
      vertex -7.88676 -4.33578 1
      vertex -6.35322 -3.49271 1
      vertex -6.74088 -2.6689 1
    endloop
  endfacet
  facet normal 0 0 1
    outer loop
      vertex -8.36799 -3.31312 1
      vertex -6.74088 -2.6689 1
      vertex -7.02223 -1.803 1
    endloop
  endfacet
  facet normal 0 0 1
    outer loop
      vertex -8.71725 -2.23821 1
      vertex -7.02223 -1.803 1
      vertex -7.19283 -0.908666 1
    endloop
  endfacet
  facet normal 0 0 1
    outer loop
      vertex -5.86537 -4.26144 1
      vertex -7.28115 -5.29007 1
      vertex -6.56072 -6.16092 1
    endloop
  endfacet
  facet normal 0 0 1
    outer loop
      vertex -8.92903 -1.128 1
      vertex -7.19283 -0.908666 1
      vertex -7.25 0 1
    endloop
  endfacet
  facet normal -0 0 1
    outer loop
      vertex -8.71725 2.23821 1
      vertex -7.02223 1.803 1
      vertex -8.36799 3.31312 1
    endloop
  endfacet
  facet normal 0 0 1
    outer loop
      vertex -7.02223 1.803 1
      vertex -8.71725 2.23821 1
      vertex -7.19283 0.908666 1
    endloop
  endfacet
  facet normal 0 0 1
    outer loop
      vertex -6.35322 -3.49271 1
      vertex -7.88676 -4.33578 1
      vertex -7.28115 -5.29007 1
    endloop
  endfacet
  facet normal -0 0 1
    outer loop
      vertex -8.92903 1.128 1
      vertex -7.19283 0.908666 1
      vertex -8.71725 2.23821 1
    endloop
  endfacet
  facet normal 0 0 1
    outer loop
      vertex -6.74088 -2.6689 1
      vertex -8.36799 -3.31312 1
      vertex -7.88676 -4.33578 1
    endloop
  endfacet
  facet normal 0 0 1
    outer loop
      vertex -7.19283 0.908666 1
      vertex -8.92903 1.128 1
      vertex -7.25 0 1
    endloop
  endfacet
  facet normal 0 0 1
    outer loop
      vertex -7.02223 -1.803 1
      vertex -8.71725 -2.23821 1
      vertex -8.36799 -3.31312 1
    endloop
  endfacet
  facet normal 0 0 1
    outer loop
      vertex -9 0 1
      vertex -7.25 0 1
      vertex -8.92903 1.128 1
    endloop
  endfacet
  facet normal 0 0 1
    outer loop
      vertex -7.19283 -0.908666 1
      vertex -8.92903 -1.128 1
      vertex -8.71725 -2.23821 1
    endloop
  endfacet
  facet normal 0 0 1
    outer loop
      vertex -7.25 0 1
      vertex -9 0 1
      vertex -8.92903 -1.128 1
    endloop
  endfacet
  facet normal -0.844328 0.535826 0
    outer loop
      vertex -7.88676 4.33578 0
      vertex -7.28115 5.29007 1
      vertex -7.28115 5.29007 0
    endloop
  endfacet
  facet normal -0.844328 0.535826 0
    outer loop
      vertex -7.28115 5.29007 1
      vertex -7.88676 4.33578 0
      vertex -7.88676 4.33578 1
    endloop
  endfacet
  facet normal -0.125337 0.992114 0
    outer loop
      vertex -0.565114 8.98224 0
      vertex -1.68643 8.84058 1
      vertex -0.565114 8.98224 1
    endloop
  endfacet
  facet normal -0.125337 0.992114 0
    outer loop
      vertex -1.68643 8.84058 1
      vertex -0.565114 8.98224 0
      vertex -1.68643 8.84058 0
    endloop
  endfacet
  facet normal -0.587782 0.80902 0
    outer loop
      vertex -4.82244 7.59895 0
      vertex -5.73682 6.93462 1
      vertex -4.82244 7.59895 1
    endloop
  endfacet
  facet normal -0.587782 0.80902 0
    outer loop
      vertex -5.73682 6.93462 1
      vertex -4.82244 7.59895 0
      vertex -5.73682 6.93462 0
    endloop
  endfacet
  facet normal -0.481751 0.876308 0
    outer loop
      vertex -3.83201 8.14344 0
      vertex -4.82244 7.59895 1
      vertex -3.83201 8.14344 1
    endloop
  endfacet
  facet normal -0.481751 0.876308 0
    outer loop
      vertex -4.82244 7.59895 1
      vertex -3.83201 8.14344 0
      vertex -4.82244 7.59895 0
    endloop
  endfacet
  facet normal 0.844328 -0.535826 0
    outer loop
      vertex 7.28115 -5.29007 1
      vertex 7.88676 -4.33578 0
      vertex 7.88676 -4.33578 1
    endloop
  endfacet
  facet normal 0.844328 -0.535826 0
    outer loop
      vertex 7.88676 -4.33578 0
      vertex 7.28115 -5.29007 1
      vertex 7.28115 -5.29007 0
    endloop
  endfacet
  facet normal 0 -1 0
    outer loop
      vertex -0.565114 -8.98224 0
      vertex 0.565114 -8.98224 1
      vertex -0.565114 -8.98224 1
    endloop
  endfacet
  facet normal 0 -1 -0
    outer loop
      vertex 0.565114 -8.98224 1
      vertex -0.565114 -8.98224 0
      vertex 0.565114 -8.98224 0
    endloop
  endfacet
  facet normal 0 0 -1
    outer loop
      vertex 6.2086 -0.657999 0
      vertex 9 0 0
      vertex 8.92903 -1.128 0
    endloop
  endfacet
  facet normal 0 0 -1
    outer loop
      vertex 6.08506 -1.30562 0
      vertex 8.92903 -1.128 0
      vertex 8.71725 -2.23821 0
    endloop
  endfacet
  facet normal -0 0 -1
    outer loop
      vertex 9 0 0
      vertex 6.2086 -0.657999 0
      vertex 6.25 0 0
    endloop
  endfacet
  facet normal 0 0 -1
    outer loop
      vertex 5.88133 -1.93265 0
      vertex 8.71725 -2.23821 0
      vertex 8.36799 -3.31312 0
    endloop
  endfacet
  facet normal 0 0 -1
    outer loop
      vertex 6.2086 0.657999 0
      vertex 9 0 0
      vertex 6.25 0 0
    endloop
  endfacet
  facet normal 0 0 -1
    outer loop
      vertex 5.60061 -2.52921 0
      vertex 8.36799 -3.31312 0
      vertex 7.88676 -4.33578 0
    endloop
  endfacet
  facet normal 0 0 -1
    outer loop
      vertex 9 0 0
      vertex 6.2086 0.657999 0
      vertex 8.92903 1.128 0
    endloop
  endfacet
  facet normal 0 0 -1
    outer loop
      vertex 5.24734 -3.08587 0
      vertex 7.88676 -4.33578 0
      vertex 7.28115 -5.29007 0
    endloop
  endfacet
  facet normal 0 0 -1
    outer loop
      vertex 8.92903 1.128 0
      vertex 6.08506 1.30562 0
      vertex 8.71725 2.23821 0
    endloop
  endfacet
  facet normal 0 0 -1
    outer loop
      vertex 4.82708 -3.59387 0
      vertex 7.28115 -5.29007 0
      vertex 6.56072 -6.16092 0
    endloop
  endfacet
  facet normal 0 0 -1
    outer loop
      vertex 5.88133 1.93265 0
      vertex 8.71725 2.23821 0
      vertex 6.08506 1.30562 0
    endloop
  endfacet
  facet normal -0 0 -1
    outer loop
      vertex 8.71725 2.23821 0
      vertex 5.88133 1.93265 0
      vertex 8.36799 3.31312 0
    endloop
  endfacet
  facet normal 0 0 -1
    outer loop
      vertex 6.08506 1.30562 0
      vertex 8.92903 1.128 0
      vertex 6.2086 0.657999 0
    endloop
  endfacet
  facet normal -0 0 -1
    outer loop
      vertex 8.92903 -1.128 0
      vertex 6.08506 -1.30562 0
      vertex 6.2086 -0.657999 0
    endloop
  endfacet
  facet normal 0 0 -1
    outer loop
      vertex 8.71725 -2.23821 0
      vertex 5.88133 -1.93265 0
      vertex 6.08506 -1.30562 0
    endloop
  endfacet
  facet normal 0 0 -1
    outer loop
      vertex 4.34648 -4.04519 0
      vertex 6.56072 -6.16092 0
      vertex 5.73682 -6.93462 0
    endloop
  endfacet
  facet normal 0 0 -1
    outer loop
      vertex 8.36799 -3.31312 0
      vertex 5.60061 -2.52921 0
      vertex 5.88133 -1.93265 0
    endloop
  endfacet
  facet normal 0 0 -1
    outer loop
      vertex 7.88676 -4.33578 0
      vertex 5.24734 -3.08587 0
      vertex 5.60061 -2.52921 0
    endloop
  endfacet
  facet normal 0 0 -1
    outer loop
      vertex 7.28115 -5.29007 0
      vertex 4.82708 -3.59387 0
      vertex 5.24734 -3.08587 0
    endloop
  endfacet
  facet normal 0 0 -1
    outer loop
      vertex 3.81309 -4.43272 0
      vertex 5.73682 -6.93462 0
      vertex 4.82244 -7.59895 0
    endloop
  endfacet
  facet normal 0 0 -1
    outer loop
      vertex 6.56072 -6.16092 0
      vertex 4.34648 -4.04519 0
      vertex 4.82708 -3.59387 0
    endloop
  endfacet
  facet normal 0 0 -1
    outer loop
      vertex 3.23534 -4.75034 0
      vertex 4.82244 -7.59895 0
      vertex 3.83201 -8.14344 0
    endloop
  endfacet
  facet normal 0 0 -1
    outer loop
      vertex 5.73682 -6.93462 0
      vertex 3.81309 -4.43272 0
      vertex 4.34648 -4.04519 0
    endloop
  endfacet
  facet normal 0 0 -1
    outer loop
      vertex 4.82244 -7.59895 0
      vertex 3.23534 -4.75034 0
      vertex 3.81309 -4.43272 0
    endloop
  endfacet
  facet normal 0 0 -1
    outer loop
      vertex 1.98375 -5.15701 0
      vertex 3.83201 -8.14344 0
      vertex 2.78115 -8.55951 0
    endloop
  endfacet
  facet normal 0 0 -1
    outer loop
      vertex 3.83201 -8.14344 0
      vertex 2.62234 -4.99305 0
      vertex 3.23534 -4.75034 0
    endloop
  endfacet
  facet normal 0 0 -1
    outer loop
      vertex 3.83201 -8.14344 0
      vertex 1.98375 -5.15701 0
      vertex 2.62234 -4.99305 0
    endloop
  endfacet
  facet normal 0 0 -1
    outer loop
      vertex 1.32965 -5.23964 0
      vertex 2.78115 -8.55951 0
      vertex 1.68643 -8.84058 0
    endloop
  endfacet
  facet normal 0 0 -1
    outer loop
      vertex 2.78115 -8.55951 0
      vertex 1.32965 -5.23964 0
      vertex 1.98375 -5.15701 0
    endloop
  endfacet
  facet normal 0 0 -1
    outer loop
      vertex 1.68643 -8.84058 0
      vertex 0.670349 -5.23964 0
      vertex 1.32965 -5.23964 0
    endloop
  endfacet
  facet normal 0 0 -1
    outer loop
      vertex 0.565114 -8.98224 0
      vertex 0.670349 -5.23964 0
      vertex 1.68643 -8.84058 0
    endloop
  endfacet
  facet normal 0 0 -1
    outer loop
      vertex 0.565114 -8.98224 0
      vertex 0.0162477 -5.15701 0
      vertex 0.670349 -5.23964 0
    endloop
  endfacet
  facet normal 0 0 -1
    outer loop
      vertex -0.565114 -8.98224 0
      vertex 0.0162477 -5.15701 0
      vertex 0.565114 -8.98224 0
    endloop
  endfacet
  facet normal 0 0 -1
    outer loop
      vertex -0.565114 -8.98224 0
      vertex -0.622338 -4.99305 0
      vertex 0.0162477 -5.15701 0
    endloop
  endfacet
  facet normal 0 0 -1
    outer loop
      vertex -1.68643 -8.84058 0
      vertex -0.622338 -4.99305 0
      vertex -0.565114 -8.98224 0
    endloop
  endfacet
  facet normal -0 0 -1
    outer loop
      vertex -0.622338 -4.99305 0
      vertex -1.68643 -8.84058 0
      vertex -1.23534 -4.75034 0
    endloop
  endfacet
  facet normal 0 0 -1
    outer loop
      vertex -2.78115 -8.55951 0
      vertex -1.23534 -4.75034 0
      vertex -1.68643 -8.84058 0
    endloop
  endfacet
  facet normal -0 0 -1
    outer loop
      vertex -1.23534 -4.75034 0
      vertex -2.78115 -8.55951 0
      vertex -1.81309 -4.43272 0
    endloop
  endfacet
  facet normal 0 0 -1
    outer loop
      vertex -3.83201 -8.14344 0
      vertex -1.81309 -4.43272 0
      vertex -2.78115 -8.55951 0
    endloop
  endfacet
  facet normal 0 0 -1
    outer loop
      vertex -4.82244 -7.59895 0
      vertex -1.81309 -4.43272 0
      vertex -3.83201 -8.14344 0
    endloop
  endfacet
  facet normal -0 0 -1
    outer loop
      vertex -1.81309 -4.43272 0
      vertex -4.82244 -7.59895 0
      vertex -2.34648 -4.04519 0
    endloop
  endfacet
  facet normal 0 0 -1
    outer loop
      vertex -5.73682 -6.93462 0
      vertex -2.34648 -4.04519 0
      vertex -4.82244 -7.59895 0
    endloop
  endfacet
  facet normal -0 0 -1
    outer loop
      vertex -2.34648 -4.04519 0
      vertex -5.73682 -6.93462 0
      vertex -2.82708 -3.59387 0
    endloop
  endfacet
  facet normal 0 0 -1
    outer loop
      vertex -6.56072 -6.16092 0
      vertex -2.82708 -3.59387 0
      vertex -5.73682 -6.93462 0
    endloop
  endfacet
  facet normal -0 0 -1
    outer loop
      vertex -2.82708 -3.59387 0
      vertex -6.56072 -6.16092 0
      vertex -3.24734 -3.08587 0
    endloop
  endfacet
  facet normal 0 0 -1
    outer loop
      vertex -7.28115 -5.29007 0
      vertex -3.24734 -3.08587 0
      vertex -6.56072 -6.16092 0
    endloop
  endfacet
  facet normal -0 0 -1
    outer loop
      vertex -3.24734 -3.08587 0
      vertex -7.28115 -5.29007 0
      vertex -3.60061 -2.52921 0
    endloop
  endfacet
  facet normal 0 0 -1
    outer loop
      vertex -7.88676 -4.33578 0
      vertex -3.60061 -2.52921 0
      vertex -7.28115 -5.29007 0
    endloop
  endfacet
  facet normal 0 0 -1
    outer loop
      vertex 5.60061 2.52921 0
      vertex 8.36799 3.31312 0
      vertex 5.88133 1.93265 0
    endloop
  endfacet
  facet normal -0 0 -1
    outer loop
      vertex 8.36799 3.31312 0
      vertex 5.60061 2.52921 0
      vertex 7.88676 4.33578 0
    endloop
  endfacet
  facet normal 0 0 -1
    outer loop
      vertex 5.24734 3.08587 0
      vertex 7.88676 4.33578 0
      vertex 5.60061 2.52921 0
    endloop
  endfacet
  facet normal -0 0 -1
    outer loop
      vertex 7.88676 4.33578 0
      vertex 5.24734 3.08587 0
      vertex 7.28115 5.29007 0
    endloop
  endfacet
  facet normal 0 0 -1
    outer loop
      vertex 4.82708 3.59387 0
      vertex 7.28115 5.29007 0
      vertex 5.24734 3.08587 0
    endloop
  endfacet
  facet normal -0 0 -1
    outer loop
      vertex 7.28115 5.29007 0
      vertex 4.82708 3.59387 0
      vertex 6.56072 6.16092 0
    endloop
  endfacet
  facet normal 0 0 -1
    outer loop
      vertex 4.34648 4.04519 0
      vertex 6.56072 6.16092 0
      vertex 4.82708 3.59387 0
    endloop
  endfacet
  facet normal -0 0 -1
    outer loop
      vertex 6.56072 6.16092 0
      vertex 4.34648 4.04519 0
      vertex 5.73682 6.93462 0
    endloop
  endfacet
  facet normal 0 0 -1
    outer loop
      vertex 3.81309 4.43272 0
      vertex 5.73682 6.93462 0
      vertex 4.34648 4.04519 0
    endloop
  endfacet
  facet normal -0 0 -1
    outer loop
      vertex 5.73682 6.93462 0
      vertex 3.81309 4.43272 0
      vertex 4.82244 7.59895 0
    endloop
  endfacet
  facet normal 0 0 -1
    outer loop
      vertex 3.23534 4.75034 0
      vertex 4.82244 7.59895 0
      vertex 3.81309 4.43272 0
    endloop
  endfacet
  facet normal -0 0 -1
    outer loop
      vertex 4.82244 7.59895 0
      vertex 3.23534 4.75034 0
      vertex 3.83201 8.14344 0
    endloop
  endfacet
  facet normal 0 0 -1
    outer loop
      vertex 2.62234 4.99305 0
      vertex 3.83201 8.14344 0
      vertex 3.23534 4.75034 0
    endloop
  endfacet
  facet normal 0 0 -1
    outer loop
      vertex 1.98375 5.15701 0
      vertex 3.83201 8.14344 0
      vertex 2.62234 4.99305 0
    endloop
  endfacet
  facet normal -0 0 -1
    outer loop
      vertex 3.83201 8.14344 0
      vertex 1.98375 5.15701 0
      vertex 2.78115 8.55951 0
    endloop
  endfacet
  facet normal 0 0 -1
    outer loop
      vertex 1.32965 5.23964 0
      vertex 2.78115 8.55951 0
      vertex 1.98375 5.15701 0
    endloop
  endfacet
  facet normal -0 0 -1
    outer loop
      vertex 2.78115 8.55951 0
      vertex 1.32965 5.23964 0
      vertex 1.68643 8.84058 0
    endloop
  endfacet
  facet normal 0 0 -1
    outer loop
      vertex 0.670349 5.23964 0
      vertex 1.68643 8.84058 0
      vertex 1.32965 5.23964 0
    endloop
  endfacet
  facet normal 0 0 -1
    outer loop
      vertex 0.670349 5.23964 0
      vertex 0.565114 8.98224 0
      vertex 1.68643 8.84058 0
    endloop
  endfacet
  facet normal 0 0 -1
    outer loop
      vertex 0.0162477 5.15701 0
      vertex 0.565114 8.98224 0
      vertex 0.670349 5.23964 0
    endloop
  endfacet
  facet normal 0 0 -1
    outer loop
      vertex 0.0162477 5.15701 0
      vertex -0.565114 8.98224 0
      vertex 0.565114 8.98224 0
    endloop
  endfacet
  facet normal 0 0 -1
    outer loop
      vertex -0.622338 4.99305 0
      vertex -0.565114 8.98224 0
      vertex 0.0162477 5.15701 0
    endloop
  endfacet
  facet normal 0 0 -1
    outer loop
      vertex -1.68643 8.84058 0
      vertex -0.622338 4.99305 0
      vertex -1.23534 4.75034 0
    endloop
  endfacet
  facet normal 0 0 -1
    outer loop
      vertex -0.622338 4.99305 0
      vertex -1.68643 8.84058 0
      vertex -0.565114 8.98224 0
    endloop
  endfacet
  facet normal 0 0 -1
    outer loop
      vertex -2.78115 8.55951 0
      vertex -1.23534 4.75034 0
      vertex -1.81309 4.43272 0
    endloop
  endfacet
  facet normal 0 0 -1
    outer loop
      vertex -4.82244 7.59895 0
      vertex -1.81309 4.43272 0
      vertex -2.34648 4.04519 0
    endloop
  endfacet
  facet normal 0 0 -1
    outer loop
      vertex -1.23534 4.75034 0
      vertex -2.78115 8.55951 0
      vertex -1.68643 8.84058 0
    endloop
  endfacet
  facet normal 0 0 -1
    outer loop
      vertex -5.73682 6.93462 0
      vertex -2.34648 4.04519 0
      vertex -2.82708 3.59387 0
    endloop
  endfacet
  facet normal 0 0 -1
    outer loop
      vertex -6.56072 6.16092 0
      vertex -2.82708 3.59387 0
      vertex -3.24734 3.08587 0
    endloop
  endfacet
  facet normal 0 0 -1
    outer loop
      vertex -7.28115 5.29007 0
      vertex -3.24734 3.08587 0
      vertex -3.60061 2.52921 0
    endloop
  endfacet
  facet normal 0 0 -1
    outer loop
      vertex -1.81309 4.43272 0
      vertex -3.83201 8.14344 0
      vertex -2.78115 8.55951 0
    endloop
  endfacet
  facet normal 0 0 -1
    outer loop
      vertex -7.88676 4.33578 0
      vertex -3.60061 2.52921 0
      vertex -3.88133 1.93265 0
    endloop
  endfacet
  facet normal 0 0 -1
    outer loop
      vertex -8.36799 3.31312 0
      vertex -3.88133 1.93265 0
      vertex -4.08506 1.30562 0
    endloop
  endfacet
  facet normal 0 0 -1
    outer loop
      vertex -8.71725 2.23821 0
      vertex -4.08506 1.30562 0
      vertex -4.2086 0.657999 0
    endloop
  endfacet
  facet normal 0 0 -1
    outer loop
      vertex -8.92903 1.128 0
      vertex -4.2086 0.657999 0
      vertex -4.25 0 0
    endloop
  endfacet
  facet normal -0 0 -1
    outer loop
      vertex -3.60061 -2.52921 0
      vertex -7.88676 -4.33578 0
      vertex -3.88133 -1.93265 0
    endloop
  endfacet
  facet normal 0 0 -1
    outer loop
      vertex -1.81309 4.43272 0
      vertex -4.82244 7.59895 0
      vertex -3.83201 8.14344 0
    endloop
  endfacet
  facet normal 0 0 -1
    outer loop
      vertex -8.36799 -3.31312 0
      vertex -3.88133 -1.93265 0
      vertex -7.88676 -4.33578 0
    endloop
  endfacet
  facet normal 0 0 -1
    outer loop
      vertex -2.34648 4.04519 0
      vertex -5.73682 6.93462 0
      vertex -4.82244 7.59895 0
    endloop
  endfacet
  facet normal -0 0 -1
    outer loop
      vertex -3.88133 -1.93265 0
      vertex -8.36799 -3.31312 0
      vertex -4.08506 -1.30562 0
    endloop
  endfacet
  facet normal 0 0 -1
    outer loop
      vertex -2.82708 3.59387 0
      vertex -6.56072 6.16092 0
      vertex -5.73682 6.93462 0
    endloop
  endfacet
  facet normal 0 0 -1
    outer loop
      vertex -8.71725 -2.23821 0
      vertex -4.08506 -1.30562 0
      vertex -8.36799 -3.31312 0
    endloop
  endfacet
  facet normal 0 0 -1
    outer loop
      vertex -3.24734 3.08587 0
      vertex -7.28115 5.29007 0
      vertex -6.56072 6.16092 0
    endloop
  endfacet
  facet normal -0 0 -1
    outer loop
      vertex -4.08506 -1.30562 0
      vertex -8.71725 -2.23821 0
      vertex -4.2086 -0.657999 0
    endloop
  endfacet
  facet normal 0 0 -1
    outer loop
      vertex -3.60061 2.52921 0
      vertex -7.88676 4.33578 0
      vertex -7.28115 5.29007 0
    endloop
  endfacet
  facet normal 0 0 -1
    outer loop
      vertex -8.92903 -1.128 0
      vertex -4.2086 -0.657999 0
      vertex -8.71725 -2.23821 0
    endloop
  endfacet
  facet normal 0 0 -1
    outer loop
      vertex -3.88133 1.93265 0
      vertex -8.36799 3.31312 0
      vertex -7.88676 4.33578 0
    endloop
  endfacet
  facet normal -0 0 -1
    outer loop
      vertex -4.2086 -0.657999 0
      vertex -8.92903 -1.128 0
      vertex -4.25 0 0
    endloop
  endfacet
  facet normal 0 0 -1
    outer loop
      vertex -4.08506 1.30562 0
      vertex -8.71725 2.23821 0
      vertex -8.36799 3.31312 0
    endloop
  endfacet
  facet normal 0 0 -1
    outer loop
      vertex -9 0 0
      vertex -4.25 0 0
      vertex -8.92903 -1.128 0
    endloop
  endfacet
  facet normal 0 0 -1
    outer loop
      vertex -4.2086 0.657999 0
      vertex -8.92903 1.128 0
      vertex -8.71725 2.23821 0
    endloop
  endfacet
  facet normal 0 0 -1
    outer loop
      vertex -4.25 0 0
      vertex -9 0 0
      vertex -8.92903 1.128 0
    endloop
  endfacet
  facet normal 0.125337 -0.992114 0
    outer loop
      vertex 0.565114 -8.98224 0
      vertex 1.68643 -8.84058 1
      vertex 0.565114 -8.98224 1
    endloop
  endfacet
  facet normal 0.125337 -0.992114 0
    outer loop
      vertex 1.68643 -8.84058 1
      vertex 0.565114 -8.98224 0
      vertex 1.68643 -8.84058 0
    endloop
  endfacet
  facet normal 0.904826 0.425781 0
    outer loop
      vertex 8.36799 3.31312 1
      vertex 7.88676 4.33578 0
      vertex 7.88676 4.33578 1
    endloop
  endfacet
  facet normal 0.904826 0.425781 0
    outer loop
      vertex 7.88676 4.33578 0
      vertex 8.36799 3.31312 1
      vertex 8.36799 3.31312 0
    endloop
  endfacet
  facet normal 0.951056 0.309017 0
    outer loop
      vertex 8.71725 2.23821 1
      vertex 8.36799 3.31312 0
      vertex 8.36799 3.31312 1
    endloop
  endfacet
  facet normal 0.951056 0.309017 0
    outer loop
      vertex 8.36799 3.31312 0
      vertex 8.71725 2.23821 1
      vertex 8.71725 2.23821 0
    endloop
  endfacet
  facet normal 0.982288 0.187378 0
    outer loop
      vertex 8.92903 1.128 1
      vertex 8.71725 2.23821 0
      vertex 8.71725 2.23821 1
    endloop
  endfacet
  facet normal 0.982288 0.187378 0
    outer loop
      vertex 8.71725 2.23821 0
      vertex 8.92903 1.128 1
      vertex 8.92903 1.128 0
    endloop
  endfacet
  facet normal 0.770513 0.637424 0
    outer loop
      vertex 7.28115 5.29007 1
      vertex 6.56072 6.16092 0
      vertex 6.56072 6.16092 1
    endloop
  endfacet
  facet normal 0.770513 0.637424 0
    outer loop
      vertex 6.56072 6.16092 0
      vertex 7.28115 5.29007 1
      vertex 7.28115 5.29007 0
    endloop
  endfacet
  facet normal 0.125337 0.992114 -0
    outer loop
      vertex 1.68643 8.84058 0
      vertex 0.565114 8.98224 1
      vertex 1.68643 8.84058 1
    endloop
  endfacet
  facet normal 0.125337 0.992114 0
    outer loop
      vertex 0.565114 8.98224 1
      vertex 1.68643 8.84058 0
      vertex 0.565114 8.98224 0
    endloop
  endfacet
  facet normal 0.998027 -0.0627925 0
    outer loop
      vertex 8.92903 -1.128 1
      vertex 9 0 0
      vertex 9 0 1
    endloop
  endfacet
  facet normal 0.998027 -0.0627925 0
    outer loop
      vertex 9 0 0
      vertex 8.92903 -1.128 1
      vertex 8.92903 -1.128 0
    endloop
  endfacet
  facet normal 0.770513 -0.637424 0
    outer loop
      vertex 6.56072 -6.16092 1
      vertex 7.28115 -5.29007 0
      vertex 7.28115 -5.29007 1
    endloop
  endfacet
  facet normal 0.770513 -0.637424 0
    outer loop
      vertex 7.28115 -5.29007 0
      vertex 6.56072 -6.16092 1
      vertex 6.56072 -6.16092 0
    endloop
  endfacet
  facet normal 0.904826 -0.425781 0
    outer loop
      vertex 7.88676 -4.33578 1
      vertex 8.36799 -3.31312 0
      vertex 8.36799 -3.31312 1
    endloop
  endfacet
  facet normal 0.904826 -0.425781 0
    outer loop
      vertex 8.36799 -3.31312 0
      vertex 7.88676 -4.33578 1
      vertex 7.88676 -4.33578 0
    endloop
  endfacet
  facet normal -0.844328 -0.535826 0
    outer loop
      vertex -7.28115 -5.29007 0
      vertex -7.88676 -4.33578 1
      vertex -7.88676 -4.33578 0
    endloop
  endfacet
  facet normal -0.844328 -0.535826 0
    outer loop
      vertex -7.88676 -4.33578 1
      vertex -7.28115 -5.29007 0
      vertex -7.28115 -5.29007 1
    endloop
  endfacet
  facet normal -0.904826 -0.425781 0
    outer loop
      vertex -7.88676 -4.33578 0
      vertex -8.36799 -3.31312 1
      vertex -8.36799 -3.31312 0
    endloop
  endfacet
  facet normal -0.904826 -0.425781 0
    outer loop
      vertex -8.36799 -3.31312 1
      vertex -7.88676 -4.33578 0
      vertex -7.88676 -4.33578 1
    endloop
  endfacet
  facet normal 0.368128 -0.929775 0
    outer loop
      vertex 2.78115 -8.55951 0
      vertex 3.83201 -8.14344 1
      vertex 2.78115 -8.55951 1
    endloop
  endfacet
  facet normal 0.368128 -0.929775 0
    outer loop
      vertex 3.83201 -8.14344 1
      vertex 2.78115 -8.55951 0
      vertex 3.83201 -8.14344 0
    endloop
  endfacet
  facet normal 0.248685 -0.968585 0
    outer loop
      vertex 1.68643 -8.84058 0
      vertex 2.78115 -8.55951 1
      vertex 1.68643 -8.84058 1
    endloop
  endfacet
  facet normal 0.248685 -0.968585 0
    outer loop
      vertex 2.78115 -8.55951 1
      vertex 1.68643 -8.84058 0
      vertex 2.78115 -8.55951 0
    endloop
  endfacet
  facet normal 0.68455 -0.728966 0
    outer loop
      vertex 5.73682 -6.93462 0
      vertex 6.56072 -6.16092 1
      vertex 5.73682 -6.93462 1
    endloop
  endfacet
  facet normal 0.68455 -0.728966 0
    outer loop
      vertex 6.56072 -6.16092 1
      vertex 5.73682 -6.93462 0
      vertex 6.56072 -6.16092 0
    endloop
  endfacet
  facet normal -0.368128 -0.929775 0
    outer loop
      vertex -3.83201 -8.14344 0
      vertex -2.78115 -8.55951 1
      vertex -3.83201 -8.14344 1
    endloop
  endfacet
  facet normal -0.368128 -0.929775 -0
    outer loop
      vertex -2.78115 -8.55951 1
      vertex -3.83201 -8.14344 0
      vertex -2.78115 -8.55951 0
    endloop
  endfacet
  facet normal -0.248685 -0.968585 0
    outer loop
      vertex -2.78115 -8.55951 0
      vertex -1.68643 -8.84058 1
      vertex -2.78115 -8.55951 1
    endloop
  endfacet
  facet normal -0.248685 -0.968585 -0
    outer loop
      vertex -1.68643 -8.84058 1
      vertex -2.78115 -8.55951 0
      vertex -1.68643 -8.84058 0
    endloop
  endfacet
  facet normal -0.982288 -0.187378 0
    outer loop
      vertex -8.71725 -2.23821 0
      vertex -8.92903 -1.128 1
      vertex -8.92903 -1.128 0
    endloop
  endfacet
  facet normal -0.982288 -0.187378 0
    outer loop
      vertex -8.92903 -1.128 1
      vertex -8.71725 -2.23821 0
      vertex -8.71725 -2.23821 1
    endloop
  endfacet
  facet normal -0.998027 -0.0627925 0
    outer loop
      vertex -8.92903 -1.128 0
      vertex -9 0 1
      vertex -9 0 0
    endloop
  endfacet
  facet normal -0.998027 -0.0627925 0
    outer loop
      vertex -9 0 1
      vertex -8.92903 -1.128 0
      vertex -8.92903 -1.128 1
    endloop
  endfacet
  facet normal -0.770513 -0.637424 0
    outer loop
      vertex -6.56072 -6.16092 0
      vertex -7.28115 -5.29007 1
      vertex -7.28115 -5.29007 0
    endloop
  endfacet
  facet normal -0.770513 -0.637424 0
    outer loop
      vertex -7.28115 -5.29007 1
      vertex -6.56072 -6.16092 0
      vertex -6.56072 -6.16092 1
    endloop
  endfacet
  facet normal -0.68455 -0.728966 0
    outer loop
      vertex -6.56072 -6.16092 0
      vertex -5.73682 -6.93462 1
      vertex -6.56072 -6.16092 1
    endloop
  endfacet
  facet normal -0.68455 -0.728966 -0
    outer loop
      vertex -5.73682 -6.93462 1
      vertex -6.56072 -6.16092 0
      vertex -5.73682 -6.93462 0
    endloop
  endfacet
  facet normal 0.587782 -0.80902 0
    outer loop
      vertex 4.82244 -7.59895 0
      vertex 5.73682 -6.93462 1
      vertex 4.82244 -7.59895 1
    endloop
  endfacet
  facet normal 0.587782 -0.80902 0
    outer loop
      vertex 5.73682 -6.93462 1
      vertex 4.82244 -7.59895 0
      vertex 5.73682 -6.93462 0
    endloop
  endfacet
  facet normal -0.587782 -0.80902 0
    outer loop
      vertex -5.73682 -6.93462 0
      vertex -4.82244 -7.59895 1
      vertex -5.73682 -6.93462 1
    endloop
  endfacet
  facet normal -0.587782 -0.80902 -0
    outer loop
      vertex -4.82244 -7.59895 1
      vertex -5.73682 -6.93462 0
      vertex -4.82244 -7.59895 0
    endloop
  endfacet
  facet normal -0.125337 -0.992114 0
    outer loop
      vertex -1.68643 -8.84058 0
      vertex -0.565114 -8.98224 1
      vertex -1.68643 -8.84058 1
    endloop
  endfacet
  facet normal -0.125337 -0.992114 -0
    outer loop
      vertex -0.565114 -8.98224 1
      vertex -1.68643 -8.84058 0
      vertex -0.565114 -8.98224 0
    endloop
  endfacet
  facet normal -0.951056 -0.309017 0
    outer loop
      vertex -8.36799 -3.31312 0
      vertex -8.71725 -2.23821 1
      vertex -8.71725 -2.23821 0
    endloop
  endfacet
  facet normal -0.951056 -0.309017 0
    outer loop
      vertex -8.71725 -2.23821 1
      vertex -8.36799 -3.31312 0
      vertex -8.36799 -3.31312 1
    endloop
  endfacet
  facet normal -0.481751 -0.876308 0
    outer loop
      vertex -4.82244 -7.59895 0
      vertex -3.83201 -8.14344 1
      vertex -4.82244 -7.59895 1
    endloop
  endfacet
  facet normal -0.481751 -0.876308 -0
    outer loop
      vertex -3.83201 -8.14344 1
      vertex -4.82244 -7.59895 0
      vertex -3.83201 -8.14344 0
    endloop
  endfacet
  facet normal 0.904825 0.425783 0
    outer loop
      vertex 6.74088 2.6689 6
      vertex 6.35322 3.49271 1
      vertex 6.35322 3.49271 6
    endloop
  endfacet
  facet normal 0.904825 0.425783 0
    outer loop
      vertex 6.35322 3.49271 1
      vertex 6.74088 2.6689 6
      vertex 6.74088 2.6689 1
    endloop
  endfacet
  facet normal 0.998027 -0.0627922 0
    outer loop
      vertex 7.19283 -0.908666 6
      vertex 7.25 0 1
      vertex 7.25 0 6
    endloop
  endfacet
  facet normal 0.998027 -0.0627922 0
    outer loop
      vertex 7.25 0 1
      vertex 7.19283 -0.908666 6
      vertex 7.19283 -0.908666 1
    endloop
  endfacet
  facet normal 0.844328 0.535826 0
    outer loop
      vertex 6.35322 3.49271 6
      vertex 5.86537 4.26144 1
      vertex 5.86537 4.26144 6
    endloop
  endfacet
  facet normal 0.844328 0.535826 0
    outer loop
      vertex 5.86537 4.26144 1
      vertex 6.35322 3.49271 6
      vertex 6.35322 3.49271 1
    endloop
  endfacet
  facet normal 0.36812 0.929778 -0
    outer loop
      vertex 3.0869 6.56 1
      vertex 2.24037 6.89516 6
      vertex 3.0869 6.56 6
    endloop
  endfacet
  facet normal 0.36812 0.929778 0
    outer loop
      vertex 2.24037 6.89516 6
      vertex 3.0869 6.56 1
      vertex 2.24037 6.89516 1
    endloop
  endfacet
  facet normal -0.36812 0.929778 0
    outer loop
      vertex -2.24037 6.89516 1
      vertex -3.0869 6.56 6
      vertex -2.24037 6.89516 6
    endloop
  endfacet
  facet normal -0.36812 0.929778 0
    outer loop
      vertex -3.0869 6.56 6
      vertex -2.24037 6.89516 1
      vertex -3.0869 6.56 1
    endloop
  endfacet
  facet normal -0.904825 0.425783 0
    outer loop
      vertex -6.74088 2.6689 1
      vertex -6.35322 3.49271 6
      vertex -6.35322 3.49271 1
    endloop
  endfacet
  facet normal -0.904825 0.425783 0
    outer loop
      vertex -6.35322 3.49271 6
      vertex -6.74088 2.6689 1
      vertex -6.74088 2.6689 6
    endloop
  endfacet
  facet normal 0.684544 0.728972 -0
    outer loop
      vertex 5.28502 4.96297 1
      vertex 4.62132 5.58622 6
      vertex 5.28502 4.96297 6
    endloop
  endfacet
  facet normal 0.684544 0.728972 0
    outer loop
      vertex 4.62132 5.58622 6
      vertex 5.28502 4.96297 1
      vertex 4.62132 5.58622 1
    endloop
  endfacet
  facet normal 0.481757 0.876305 -0
    outer loop
      vertex 3.88474 6.12138 1
      vertex 3.0869 6.56 6
      vertex 3.88474 6.12138 6
    endloop
  endfacet
  facet normal 0.481757 0.876305 0
    outer loop
      vertex 3.0869 6.56 6
      vertex 3.88474 6.12138 1
      vertex 3.0869 6.56 1
    endloop
  endfacet
  facet normal -0.982288 0.187378 0
    outer loop
      vertex -7.19283 0.908666 1
      vertex -7.02223 1.803 6
      vertex -7.02223 1.803 1
    endloop
  endfacet
  facet normal -0.982288 0.187378 0
    outer loop
      vertex -7.02223 1.803 6
      vertex -7.19283 0.908666 1
      vertex -7.19283 0.908666 6
    endloop
  endfacet
  facet normal -0.770517 0.63742 0
    outer loop
      vertex -5.86537 4.26144 1
      vertex -5.28502 4.96297 6
      vertex -5.28502 4.96297 1
    endloop
  endfacet
  facet normal -0.770517 0.63742 0
    outer loop
      vertex -5.28502 4.96297 6
      vertex -5.86537 4.26144 1
      vertex -5.86537 4.26144 6
    endloop
  endfacet
  facet normal -0.248687 0.968584 0
    outer loop
      vertex -1.35851 7.12158 1
      vertex -2.24037 6.89516 6
      vertex -1.35851 7.12158 6
    endloop
  endfacet
  facet normal -0.248687 0.968584 0
    outer loop
      vertex -2.24037 6.89516 6
      vertex -1.35851 7.12158 1
      vertex -2.24037 6.89516 1
    endloop
  endfacet
  facet normal -0.684544 0.728972 0
    outer loop
      vertex -4.62132 5.58622 1
      vertex -5.28502 4.96297 6
      vertex -4.62132 5.58622 6
    endloop
  endfacet
  facet normal -0.684544 0.728972 0
    outer loop
      vertex -5.28502 4.96297 6
      vertex -4.62132 5.58622 1
      vertex -5.28502 4.96297 1
    endloop
  endfacet
  facet normal 0.904825 -0.425783 0
    outer loop
      vertex 6.35322 -3.49271 6
      vertex 6.74088 -2.6689 1
      vertex 6.74088 -2.6689 6
    endloop
  endfacet
  facet normal 0.904825 -0.425783 0
    outer loop
      vertex 6.74088 -2.6689 1
      vertex 6.35322 -3.49271 6
      vertex 6.35322 -3.49271 1
    endloop
  endfacet
  facet normal 0.951056 0.309019 0
    outer loop
      vertex 7.02223 1.803 6
      vertex 6.74088 2.6689 1
      vertex 6.74088 2.6689 6
    endloop
  endfacet
  facet normal 0.951056 0.309019 0
    outer loop
      vertex 6.74088 2.6689 1
      vertex 7.02223 1.803 6
      vertex 7.02223 1.803 1
    endloop
  endfacet
  facet normal 0.770517 0.63742 0
    outer loop
      vertex 5.86537 4.26144 6
      vertex 5.28502 4.96297 1
      vertex 5.28502 4.96297 6
    endloop
  endfacet
  facet normal 0.770517 0.63742 0
    outer loop
      vertex 5.28502 4.96297 1
      vertex 5.86537 4.26144 6
      vertex 5.86537 4.26144 1
    endloop
  endfacet
  facet normal 0 1 -0
    outer loop
      vertex 0.455231 7.23569 1
      vertex -0.455231 7.23569 6
      vertex 0.455231 7.23569 6
    endloop
  endfacet
  facet normal 0 1 0
    outer loop
      vertex -0.455231 7.23569 6
      vertex 0.455231 7.23569 1
      vertex -0.455231 7.23569 1
    endloop
  endfacet
  facet normal 0.248687 0.968584 -0
    outer loop
      vertex 2.24037 6.89516 1
      vertex 1.35851 7.12158 6
      vertex 2.24037 6.89516 6
    endloop
  endfacet
  facet normal 0.248687 0.968584 0
    outer loop
      vertex 1.35851 7.12158 6
      vertex 2.24037 6.89516 1
      vertex 1.35851 7.12158 1
    endloop
  endfacet
  facet normal 0.587788 0.809015 -0
    outer loop
      vertex 4.62132 5.58622 1
      vertex 3.88474 6.12138 6
      vertex 4.62132 5.58622 6
    endloop
  endfacet
  facet normal 0.587788 0.809015 0
    outer loop
      vertex 3.88474 6.12138 6
      vertex 4.62132 5.58622 1
      vertex 3.88474 6.12138 1
    endloop
  endfacet
  facet normal -0.998027 0.0627922 0
    outer loop
      vertex -7.25 0 1
      vertex -7.19283 0.908666 6
      vertex -7.19283 0.908666 1
    endloop
  endfacet
  facet normal -0.998027 0.0627922 0
    outer loop
      vertex -7.19283 0.908666 6
      vertex -7.25 0 1
      vertex -7.25 0 6
    endloop
  endfacet
  facet normal -0 0 1
    outer loop
      vertex 6.2086 0.657999 6
      vertex 7.25 0 6
      vertex 7.19283 0.908666 6
    endloop
  endfacet
  facet normal -0 0 1
    outer loop
      vertex 6.08506 1.30562 6
      vertex 7.19283 0.908666 6
      vertex 7.02223 1.803 6
    endloop
  endfacet
  facet normal 0 0 1
    outer loop
      vertex 7.25 0 6
      vertex 6.2086 0.657999 6
      vertex 6.25 0 6
    endloop
  endfacet
  facet normal -0 0 1
    outer loop
      vertex 5.88133 1.93265 6
      vertex 7.02223 1.803 6
      vertex 6.74088 2.6689 6
    endloop
  endfacet
  facet normal 0 0 1
    outer loop
      vertex 6.2086 -0.657999 6
      vertex 7.25 0 6
      vertex 6.25 0 6
    endloop
  endfacet
  facet normal 0 0 1
    outer loop
      vertex 5.60061 2.52921 6
      vertex 6.74088 2.6689 6
      vertex 6.35322 3.49271 6
    endloop
  endfacet
  facet normal 0 0 1
    outer loop
      vertex 6.08506 -1.30562 6
      vertex 7.19283 -0.908666 6
      vertex 6.2086 -0.657999 6
    endloop
  endfacet
  facet normal 0 0 1
    outer loop
      vertex 7.19283 -0.908666 6
      vertex 6.08506 -1.30562 6
      vertex 7.02223 -1.803 6
    endloop
  endfacet
  facet normal 0 0 1
    outer loop
      vertex 7.25 0 6
      vertex 6.2086 -0.657999 6
      vertex 7.19283 -0.908666 6
    endloop
  endfacet
  facet normal 0 0 1
    outer loop
      vertex 7.19283 0.908666 6
      vertex 6.08506 1.30562 6
      vertex 6.2086 0.657999 6
    endloop
  endfacet
  facet normal 0 0 1
    outer loop
      vertex 7.02223 1.803 6
      vertex 5.88133 1.93265 6
      vertex 6.08506 1.30562 6
    endloop
  endfacet
  facet normal 0 0 1
    outer loop
      vertex 5.24734 3.08587 6
      vertex 6.35322 3.49271 6
      vertex 5.86537 4.26144 6
    endloop
  endfacet
  facet normal 0 0 1
    outer loop
      vertex 6.74088 2.6689 6
      vertex 5.60061 2.52921 6
      vertex 5.88133 1.93265 6
    endloop
  endfacet
  facet normal 0 0 1
    outer loop
      vertex 4.82708 3.59387 6
      vertex 5.86537 4.26144 6
      vertex 5.28502 4.96297 6
    endloop
  endfacet
  facet normal 0 0 1
    outer loop
      vertex 6.35322 3.49271 6
      vertex 5.24734 3.08587 6
      vertex 5.60061 2.52921 6
    endloop
  endfacet
  facet normal 0 0 1
    outer loop
      vertex 5.86537 4.26144 6
      vertex 4.82708 3.59387 6
      vertex 5.24734 3.08587 6
    endloop
  endfacet
  facet normal 0 0 1
    outer loop
      vertex 4.34648 4.04519 6
      vertex 5.28502 4.96297 6
      vertex 4.62132 5.58622 6
    endloop
  endfacet
  facet normal 0 0 1
    outer loop
      vertex 5.28502 4.96297 6
      vertex 4.34648 4.04519 6
      vertex 4.82708 3.59387 6
    endloop
  endfacet
  facet normal 0 0 1
    outer loop
      vertex 3.23534 4.75034 6
      vertex 4.62132 5.58622 6
      vertex 3.88474 6.12138 6
    endloop
  endfacet
  facet normal 0 0 1
    outer loop
      vertex 4.62132 5.58622 6
      vertex 3.81309 4.43272 6
      vertex 4.34648 4.04519 6
    endloop
  endfacet
  facet normal 0 0 1
    outer loop
      vertex 4.62132 5.58622 6
      vertex 3.23534 4.75034 6
      vertex 3.81309 4.43272 6
    endloop
  endfacet
  facet normal 0 0 1
    outer loop
      vertex 2.62234 4.99305 6
      vertex 3.88474 6.12138 6
      vertex 3.0869 6.56 6
    endloop
  endfacet
  facet normal 0 0 1
    outer loop
      vertex 3.88474 6.12138 6
      vertex 2.62234 4.99305 6
      vertex 3.23534 4.75034 6
    endloop
  endfacet
  facet normal 0 0 1
    outer loop
      vertex 1.98375 5.15701 6
      vertex 3.0869 6.56 6
      vertex 2.24037 6.89516 6
    endloop
  endfacet
  facet normal 0 0 1
    outer loop
      vertex 3.0869 6.56 6
      vertex 1.98375 5.15701 6
      vertex 2.62234 4.99305 6
    endloop
  endfacet
  facet normal 0 0 1
    outer loop
      vertex 1.32965 5.23964 6
      vertex 2.24037 6.89516 6
      vertex 1.35851 7.12158 6
    endloop
  endfacet
  facet normal 0 0 1
    outer loop
      vertex 2.24037 6.89516 6
      vertex 1.32965 5.23964 6
      vertex 1.98375 5.15701 6
    endloop
  endfacet
  facet normal 0 0 1
    outer loop
      vertex 1.35851 7.12158 6
      vertex 0.670349 5.23964 6
      vertex 1.32965 5.23964 6
    endloop
  endfacet
  facet normal 0 0 1
    outer loop
      vertex 0.455231 7.23569 6
      vertex 0.670349 5.23964 6
      vertex 1.35851 7.12158 6
    endloop
  endfacet
  facet normal 0 0 1
    outer loop
      vertex 0.455231 7.23569 6
      vertex 0.0162477 5.15701 6
      vertex 0.670349 5.23964 6
    endloop
  endfacet
  facet normal -0 0 1
    outer loop
      vertex -0.455231 7.23569 6
      vertex 0.0162477 5.15701 6
      vertex 0.455231 7.23569 6
    endloop
  endfacet
  facet normal 0 0 1
    outer loop
      vertex -0.455231 7.23569 6
      vertex -0.622338 4.99305 6
      vertex 0.0162477 5.15701 6
    endloop
  endfacet
  facet normal -0 0 1
    outer loop
      vertex -1.35851 7.12158 6
      vertex -0.622338 4.99305 6
      vertex -0.455231 7.23569 6
    endloop
  endfacet
  facet normal 0 0 1
    outer loop
      vertex -0.622338 4.99305 6
      vertex -1.35851 7.12158 6
      vertex -1.23534 4.75034 6
    endloop
  endfacet
  facet normal -0 0 1
    outer loop
      vertex -2.24037 6.89516 6
      vertex -1.23534 4.75034 6
      vertex -1.35851 7.12158 6
    endloop
  endfacet
  facet normal 0 0 1
    outer loop
      vertex -1.23534 4.75034 6
      vertex -2.24037 6.89516 6
      vertex -1.81309 4.43272 6
    endloop
  endfacet
  facet normal -0 0 1
    outer loop
      vertex -3.0869 6.56 6
      vertex -1.81309 4.43272 6
      vertex -2.24037 6.89516 6
    endloop
  endfacet
  facet normal 0 0 1
    outer loop
      vertex -1.81309 4.43272 6
      vertex -3.0869 6.56 6
      vertex -2.34648 4.04519 6
    endloop
  endfacet
  facet normal -0 0 1
    outer loop
      vertex -3.88474 6.12138 6
      vertex -2.34648 4.04519 6
      vertex -3.0869 6.56 6
    endloop
  endfacet
  facet normal -0 0 1
    outer loop
      vertex -4.62132 5.58622 6
      vertex -2.34648 4.04519 6
      vertex -3.88474 6.12138 6
    endloop
  endfacet
  facet normal 0 0 1
    outer loop
      vertex -2.34648 4.04519 6
      vertex -4.62132 5.58622 6
      vertex -2.82708 3.59387 6
    endloop
  endfacet
  facet normal -0 0 1
    outer loop
      vertex -5.28502 4.96297 6
      vertex -2.82708 3.59387 6
      vertex -4.62132 5.58622 6
    endloop
  endfacet
  facet normal 0 0 1
    outer loop
      vertex -2.82708 3.59387 6
      vertex -5.28502 4.96297 6
      vertex -3.24734 3.08587 6
    endloop
  endfacet
  facet normal -0 0 1
    outer loop
      vertex -5.86537 4.26144 6
      vertex -3.24734 3.08587 6
      vertex -5.28502 4.96297 6
    endloop
  endfacet
  facet normal 0 0 1
    outer loop
      vertex -3.24734 3.08587 6
      vertex -5.86537 4.26144 6
      vertex -3.60061 2.52921 6
    endloop
  endfacet
  facet normal -0 0 1
    outer loop
      vertex -6.35322 3.49271 6
      vertex -3.60061 2.52921 6
      vertex -5.86537 4.26144 6
    endloop
  endfacet
  facet normal 0 0 1
    outer loop
      vertex -3.60061 2.52921 6
      vertex -6.35322 3.49271 6
      vertex -3.88133 1.93265 6
    endloop
  endfacet
  facet normal 0 0 1
    outer loop
      vertex 5.88133 -1.93265 6
      vertex 7.02223 -1.803 6
      vertex 6.08506 -1.30562 6
    endloop
  endfacet
  facet normal 0 0 1
    outer loop
      vertex 7.02223 -1.803 6
      vertex 5.88133 -1.93265 6
      vertex 6.74088 -2.6689 6
    endloop
  endfacet
  facet normal -0 0 1
    outer loop
      vertex 5.60061 -2.52921 6
      vertex 6.74088 -2.6689 6
      vertex 5.88133 -1.93265 6
    endloop
  endfacet
  facet normal 0 0 1
    outer loop
      vertex 6.74088 -2.6689 6
      vertex 5.60061 -2.52921 6
      vertex 6.35322 -3.49271 6
    endloop
  endfacet
  facet normal -0 0 1
    outer loop
      vertex 5.24734 -3.08587 6
      vertex 6.35322 -3.49271 6
      vertex 5.60061 -2.52921 6
    endloop
  endfacet
  facet normal 0 0 1
    outer loop
      vertex 6.35322 -3.49271 6
      vertex 5.24734 -3.08587 6
      vertex 5.86537 -4.26144 6
    endloop
  endfacet
  facet normal -0 0 1
    outer loop
      vertex 4.82708 -3.59387 6
      vertex 5.86537 -4.26144 6
      vertex 5.24734 -3.08587 6
    endloop
  endfacet
  facet normal 0 0 1
    outer loop
      vertex 5.86537 -4.26144 6
      vertex 4.82708 -3.59387 6
      vertex 5.28502 -4.96297 6
    endloop
  endfacet
  facet normal -0 0 1
    outer loop
      vertex 4.34648 -4.04519 6
      vertex 5.28502 -4.96297 6
      vertex 4.82708 -3.59387 6
    endloop
  endfacet
  facet normal 0 0 1
    outer loop
      vertex 5.28502 -4.96297 6
      vertex 4.34648 -4.04519 6
      vertex 4.62132 -5.58622 6
    endloop
  endfacet
  facet normal -0 0 1
    outer loop
      vertex 3.81309 -4.43272 6
      vertex 4.62132 -5.58622 6
      vertex 4.34648 -4.04519 6
    endloop
  endfacet
  facet normal -0 0 1
    outer loop
      vertex 3.23534 -4.75034 6
      vertex 4.62132 -5.58622 6
      vertex 3.81309 -4.43272 6
    endloop
  endfacet
  facet normal 0 0 1
    outer loop
      vertex 4.62132 -5.58622 6
      vertex 3.23534 -4.75034 6
      vertex 3.88474 -6.12138 6
    endloop
  endfacet
  facet normal -0 0 1
    outer loop
      vertex 2.62234 -4.99305 6
      vertex 3.88474 -6.12138 6
      vertex 3.23534 -4.75034 6
    endloop
  endfacet
  facet normal 0 0 1
    outer loop
      vertex 3.88474 -6.12138 6
      vertex 2.62234 -4.99305 6
      vertex 3.0869 -6.56 6
    endloop
  endfacet
  facet normal -0 0 1
    outer loop
      vertex 1.98375 -5.15701 6
      vertex 3.0869 -6.56 6
      vertex 2.62234 -4.99305 6
    endloop
  endfacet
  facet normal 0 0 1
    outer loop
      vertex 3.0869 -6.56 6
      vertex 1.98375 -5.15701 6
      vertex 2.24037 -6.89516 6
    endloop
  endfacet
  facet normal -0 0 1
    outer loop
      vertex 1.32965 -5.23964 6
      vertex 2.24037 -6.89516 6
      vertex 1.98375 -5.15701 6
    endloop
  endfacet
  facet normal 0 0 1
    outer loop
      vertex 2.24037 -6.89516 6
      vertex 1.32965 -5.23964 6
      vertex 1.35851 -7.12158 6
    endloop
  endfacet
  facet normal -0 0 1
    outer loop
      vertex 0.670349 -5.23964 6
      vertex 1.35851 -7.12158 6
      vertex 1.32965 -5.23964 6
    endloop
  endfacet
  facet normal 0 0 1
    outer loop
      vertex 0.670349 -5.23964 6
      vertex 0.455231 -7.23569 6
      vertex 1.35851 -7.12158 6
    endloop
  endfacet
  facet normal 0 0 1
    outer loop
      vertex 0.0162477 -5.15701 6
      vertex 0.455231 -7.23569 6
      vertex 0.670349 -5.23964 6
    endloop
  endfacet
  facet normal 0 0 1
    outer loop
      vertex 0.0162477 -5.15701 6
      vertex -0.455231 -7.23569 6
      vertex 0.455231 -7.23569 6
    endloop
  endfacet
  facet normal 0 0 1
    outer loop
      vertex -0.622338 -4.99305 6
      vertex -0.455231 -7.23569 6
      vertex 0.0162477 -5.15701 6
    endloop
  endfacet
  facet normal 0 0 1
    outer loop
      vertex -1.35851 -7.12158 6
      vertex -0.622338 -4.99305 6
      vertex -1.23534 -4.75034 6
    endloop
  endfacet
  facet normal 0 0 1
    outer loop
      vertex -0.622338 -4.99305 6
      vertex -1.35851 -7.12158 6
      vertex -0.455231 -7.23569 6
    endloop
  endfacet
  facet normal 0 0 1
    outer loop
      vertex -2.24037 -6.89516 6
      vertex -1.23534 -4.75034 6
      vertex -1.81309 -4.43272 6
    endloop
  endfacet
  facet normal 0 0 1
    outer loop
      vertex -1.23534 -4.75034 6
      vertex -2.24037 -6.89516 6
      vertex -1.35851 -7.12158 6
    endloop
  endfacet
  facet normal 0 0 1
    outer loop
      vertex -3.0869 -6.56 6
      vertex -1.81309 -4.43272 6
      vertex -2.34648 -4.04519 6
    endloop
  endfacet
  facet normal 0 0 1
    outer loop
      vertex -4.62132 -5.58622 6
      vertex -2.34648 -4.04519 6
      vertex -2.82708 -3.59387 6
    endloop
  endfacet
  facet normal 0 0 1
    outer loop
      vertex -1.81309 -4.43272 6
      vertex -3.0869 -6.56 6
      vertex -2.24037 -6.89516 6
    endloop
  endfacet
  facet normal 0 0 1
    outer loop
      vertex -5.28502 -4.96297 6
      vertex -2.82708 -3.59387 6
      vertex -3.24734 -3.08587 6
    endloop
  endfacet
  facet normal 0 0 1
    outer loop
      vertex -5.86537 -4.26144 6
      vertex -3.24734 -3.08587 6
      vertex -3.60061 -2.52921 6
    endloop
  endfacet
  facet normal 0 0 1
    outer loop
      vertex -6.35322 -3.49271 6
      vertex -3.60061 -2.52921 6
      vertex -3.88133 -1.93265 6
    endloop
  endfacet
  facet normal 0 0 1
    outer loop
      vertex -2.34648 -4.04519 6
      vertex -3.88474 -6.12138 6
      vertex -3.0869 -6.56 6
    endloop
  endfacet
  facet normal 0 0 1
    outer loop
      vertex -6.74088 -2.6689 6
      vertex -3.88133 -1.93265 6
      vertex -4.08506 -1.30562 6
    endloop
  endfacet
  facet normal 0 0 1
    outer loop
      vertex -7.02223 -1.803 6
      vertex -4.08506 -1.30562 6
      vertex -4.2086 -0.657999 6
    endloop
  endfacet
  facet normal 0 0 1
    outer loop
      vertex -7.19283 -0.908666 6
      vertex -4.2086 -0.657999 6
      vertex -4.25 0 6
    endloop
  endfacet
  facet normal -0 0 1
    outer loop
      vertex -6.74088 2.6689 6
      vertex -3.88133 1.93265 6
      vertex -6.35322 3.49271 6
    endloop
  endfacet
  facet normal 0 0 1
    outer loop
      vertex -2.34648 -4.04519 6
      vertex -4.62132 -5.58622 6
      vertex -3.88474 -6.12138 6
    endloop
  endfacet
  facet normal 0 0 1
    outer loop
      vertex -3.88133 1.93265 6
      vertex -6.74088 2.6689 6
      vertex -4.08506 1.30562 6
    endloop
  endfacet
  facet normal 0 0 1
    outer loop
      vertex -2.82708 -3.59387 6
      vertex -5.28502 -4.96297 6
      vertex -4.62132 -5.58622 6
    endloop
  endfacet
  facet normal -0 0 1
    outer loop
      vertex -7.02223 1.803 6
      vertex -4.08506 1.30562 6
      vertex -6.74088 2.6689 6
    endloop
  endfacet
  facet normal 0 0 1
    outer loop
      vertex -3.24734 -3.08587 6
      vertex -5.86537 -4.26144 6
      vertex -5.28502 -4.96297 6
    endloop
  endfacet
  facet normal 0 0 1
    outer loop
      vertex -4.08506 1.30562 6
      vertex -7.02223 1.803 6
      vertex -4.2086 0.657999 6
    endloop
  endfacet
  facet normal 0 0 1
    outer loop
      vertex -3.60061 -2.52921 6
      vertex -6.35322 -3.49271 6
      vertex -5.86537 -4.26144 6
    endloop
  endfacet
  facet normal -0 0 1
    outer loop
      vertex -7.19283 0.908666 6
      vertex -4.2086 0.657999 6
      vertex -7.02223 1.803 6
    endloop
  endfacet
  facet normal 0 0 1
    outer loop
      vertex -3.88133 -1.93265 6
      vertex -6.74088 -2.6689 6
      vertex -6.35322 -3.49271 6
    endloop
  endfacet
  facet normal 0 0 1
    outer loop
      vertex -4.2086 0.657999 6
      vertex -7.19283 0.908666 6
      vertex -4.25 0 6
    endloop
  endfacet
  facet normal 0 0 1
    outer loop
      vertex -4.08506 -1.30562 6
      vertex -7.02223 -1.803 6
      vertex -6.74088 -2.6689 6
    endloop
  endfacet
  facet normal 0 0 1
    outer loop
      vertex -7.25 0 6
      vertex -4.25 0 6
      vertex -7.19283 0.908666 6
    endloop
  endfacet
  facet normal 0 0 1
    outer loop
      vertex -4.2086 -0.657999 6
      vertex -7.19283 -0.908666 6
      vertex -7.02223 -1.803 6
    endloop
  endfacet
  facet normal 0 0 1
    outer loop
      vertex -4.25 0 6
      vertex -7.25 0 6
      vertex -7.19283 -0.908666 6
    endloop
  endfacet
  facet normal -0.951056 0.309019 0
    outer loop
      vertex -7.02223 1.803 1
      vertex -6.74088 2.6689 6
      vertex -6.74088 2.6689 1
    endloop
  endfacet
  facet normal -0.951056 0.309019 0
    outer loop
      vertex -6.74088 2.6689 6
      vertex -7.02223 1.803 1
      vertex -7.02223 1.803 6
    endloop
  endfacet
  facet normal -0.844328 0.535826 0
    outer loop
      vertex -6.35322 3.49271 1
      vertex -5.86537 4.26144 6
      vertex -5.86537 4.26144 1
    endloop
  endfacet
  facet normal -0.844328 0.535826 0
    outer loop
      vertex -5.86537 4.26144 6
      vertex -6.35322 3.49271 1
      vertex -6.35322 3.49271 6
    endloop
  endfacet
  facet normal -0.125333 0.992115 0
    outer loop
      vertex -0.455231 7.23569 1
      vertex -1.35851 7.12158 6
      vertex -0.455231 7.23569 6
    endloop
  endfacet
  facet normal -0.125333 0.992115 0
    outer loop
      vertex -1.35851 7.12158 6
      vertex -0.455231 7.23569 1
      vertex -1.35851 7.12158 1
    endloop
  endfacet
  facet normal -0.587788 0.809015 0
    outer loop
      vertex -3.88474 6.12138 1
      vertex -4.62132 5.58622 6
      vertex -3.88474 6.12138 6
    endloop
  endfacet
  facet normal -0.587788 0.809015 0
    outer loop
      vertex -4.62132 5.58622 6
      vertex -3.88474 6.12138 1
      vertex -4.62132 5.58622 1
    endloop
  endfacet
  facet normal -0.481757 0.876305 0
    outer loop
      vertex -3.0869 6.56 1
      vertex -3.88474 6.12138 6
      vertex -3.0869 6.56 6
    endloop
  endfacet
  facet normal -0.481757 0.876305 0
    outer loop
      vertex -3.88474 6.12138 6
      vertex -3.0869 6.56 1
      vertex -3.88474 6.12138 1
    endloop
  endfacet
  facet normal 0.998027 0.0627922 0
    outer loop
      vertex 7.25 0 6
      vertex 7.19283 0.908666 1
      vertex 7.19283 0.908666 6
    endloop
  endfacet
  facet normal 0.998027 0.0627922 0
    outer loop
      vertex 7.19283 0.908666 1
      vertex 7.25 0 6
      vertex 7.25 0 1
    endloop
  endfacet
  facet normal 0.951056 -0.309019 0
    outer loop
      vertex 6.74088 -2.6689 6
      vertex 7.02223 -1.803 1
      vertex 7.02223 -1.803 6
    endloop
  endfacet
  facet normal 0.951056 -0.309019 0
    outer loop
      vertex 7.02223 -1.803 1
      vertex 6.74088 -2.6689 6
      vertex 6.74088 -2.6689 1
    endloop
  endfacet
  facet normal 0 -1 0
    outer loop
      vertex -0.455231 -7.23569 1
      vertex 0.455231 -7.23569 6
      vertex -0.455231 -7.23569 6
    endloop
  endfacet
  facet normal 0 -1 -0
    outer loop
      vertex 0.455231 -7.23569 6
      vertex -0.455231 -7.23569 1
      vertex 0.455231 -7.23569 1
    endloop
  endfacet
  facet normal -0.844328 -0.535826 0
    outer loop
      vertex -5.86537 -4.26144 1
      vertex -6.35322 -3.49271 6
      vertex -6.35322 -3.49271 1
    endloop
  endfacet
  facet normal -0.844328 -0.535826 0
    outer loop
      vertex -6.35322 -3.49271 6
      vertex -5.86537 -4.26144 1
      vertex -5.86537 -4.26144 6
    endloop
  endfacet
  facet normal 0.125333 -0.992115 0
    outer loop
      vertex 0.455231 -7.23569 1
      vertex 1.35851 -7.12158 6
      vertex 0.455231 -7.23569 6
    endloop
  endfacet
  facet normal 0.125333 -0.992115 0
    outer loop
      vertex 1.35851 -7.12158 6
      vertex 0.455231 -7.23569 1
      vertex 1.35851 -7.12158 1
    endloop
  endfacet
  facet normal 0.982288 0.187378 0
    outer loop
      vertex 7.19283 0.908666 6
      vertex 7.02223 1.803 1
      vertex 7.02223 1.803 6
    endloop
  endfacet
  facet normal 0.982288 0.187378 0
    outer loop
      vertex 7.02223 1.803 1
      vertex 7.19283 0.908666 6
      vertex 7.19283 0.908666 1
    endloop
  endfacet
  facet normal 0.125333 0.992115 -0
    outer loop
      vertex 1.35851 7.12158 1
      vertex 0.455231 7.23569 6
      vertex 1.35851 7.12158 6
    endloop
  endfacet
  facet normal 0.125333 0.992115 0
    outer loop
      vertex 0.455231 7.23569 6
      vertex 1.35851 7.12158 1
      vertex 0.455231 7.23569 1
    endloop
  endfacet
  facet normal -0.998027 -0.0627922 0
    outer loop
      vertex -7.19283 -0.908666 1
      vertex -7.25 0 6
      vertex -7.25 0 1
    endloop
  endfacet
  facet normal -0.998027 -0.0627922 0
    outer loop
      vertex -7.25 0 6
      vertex -7.19283 -0.908666 1
      vertex -7.19283 -0.908666 6
    endloop
  endfacet
  facet normal -0.904825 -0.425783 0
    outer loop
      vertex -6.35322 -3.49271 1
      vertex -6.74088 -2.6689 6
      vertex -6.74088 -2.6689 1
    endloop
  endfacet
  facet normal -0.904825 -0.425783 0
    outer loop
      vertex -6.74088 -2.6689 6
      vertex -6.35322 -3.49271 1
      vertex -6.35322 -3.49271 6
    endloop
  endfacet
  facet normal -0.684544 -0.728972 0
    outer loop
      vertex -5.28502 -4.96297 1
      vertex -4.62132 -5.58622 6
      vertex -5.28502 -4.96297 6
    endloop
  endfacet
  facet normal -0.684544 -0.728972 -0
    outer loop
      vertex -4.62132 -5.58622 6
      vertex -5.28502 -4.96297 1
      vertex -4.62132 -5.58622 1
    endloop
  endfacet
  facet normal 0.684544 -0.728972 0
    outer loop
      vertex 4.62132 -5.58622 1
      vertex 5.28502 -4.96297 6
      vertex 4.62132 -5.58622 6
    endloop
  endfacet
  facet normal 0.684544 -0.728972 0
    outer loop
      vertex 5.28502 -4.96297 6
      vertex 4.62132 -5.58622 1
      vertex 5.28502 -4.96297 1
    endloop
  endfacet
  facet normal 0.770517 -0.63742 0
    outer loop
      vertex 5.28502 -4.96297 6
      vertex 5.86537 -4.26144 1
      vertex 5.86537 -4.26144 6
    endloop
  endfacet
  facet normal 0.770517 -0.63742 0
    outer loop
      vertex 5.86537 -4.26144 1
      vertex 5.28502 -4.96297 6
      vertex 5.28502 -4.96297 1
    endloop
  endfacet
  facet normal 0.36812 -0.929778 0
    outer loop
      vertex 2.24037 -6.89516 1
      vertex 3.0869 -6.56 6
      vertex 2.24037 -6.89516 6
    endloop
  endfacet
  facet normal 0.36812 -0.929778 0
    outer loop
      vertex 3.0869 -6.56 6
      vertex 2.24037 -6.89516 1
      vertex 3.0869 -6.56 1
    endloop
  endfacet
  facet normal 0.248687 -0.968584 0
    outer loop
      vertex 1.35851 -7.12158 1
      vertex 2.24037 -6.89516 6
      vertex 1.35851 -7.12158 6
    endloop
  endfacet
  facet normal 0.248687 -0.968584 0
    outer loop
      vertex 2.24037 -6.89516 6
      vertex 1.35851 -7.12158 1
      vertex 2.24037 -6.89516 1
    endloop
  endfacet
  facet normal 0.982288 -0.187378 0
    outer loop
      vertex 7.02223 -1.803 6
      vertex 7.19283 -0.908666 1
      vertex 7.19283 -0.908666 6
    endloop
  endfacet
  facet normal 0.982288 -0.187378 0
    outer loop
      vertex 7.19283 -0.908666 1
      vertex 7.02223 -1.803 6
      vertex 7.02223 -1.803 1
    endloop
  endfacet
  facet normal -0.36812 -0.929778 0
    outer loop
      vertex -3.0869 -6.56 1
      vertex -2.24037 -6.89516 6
      vertex -3.0869 -6.56 6
    endloop
  endfacet
  facet normal -0.36812 -0.929778 -0
    outer loop
      vertex -2.24037 -6.89516 6
      vertex -3.0869 -6.56 1
      vertex -2.24037 -6.89516 1
    endloop
  endfacet
  facet normal -0.248687 -0.968584 0
    outer loop
      vertex -2.24037 -6.89516 1
      vertex -1.35851 -7.12158 6
      vertex -2.24037 -6.89516 6
    endloop
  endfacet
  facet normal -0.248687 -0.968584 -0
    outer loop
      vertex -1.35851 -7.12158 6
      vertex -2.24037 -6.89516 1
      vertex -1.35851 -7.12158 1
    endloop
  endfacet
  facet normal -0.125333 -0.992115 0
    outer loop
      vertex -1.35851 -7.12158 1
      vertex -0.455231 -7.23569 6
      vertex -1.35851 -7.12158 6
    endloop
  endfacet
  facet normal -0.125333 -0.992115 -0
    outer loop
      vertex -0.455231 -7.23569 6
      vertex -1.35851 -7.12158 1
      vertex -0.455231 -7.23569 1
    endloop
  endfacet
  facet normal -0.982288 -0.187378 0
    outer loop
      vertex -7.02223 -1.803 1
      vertex -7.19283 -0.908666 6
      vertex -7.19283 -0.908666 1
    endloop
  endfacet
  facet normal -0.982288 -0.187378 0
    outer loop
      vertex -7.19283 -0.908666 6
      vertex -7.02223 -1.803 1
      vertex -7.02223 -1.803 6
    endloop
  endfacet
  facet normal 0.587788 -0.809015 0
    outer loop
      vertex 3.88474 -6.12138 1
      vertex 4.62132 -5.58622 6
      vertex 3.88474 -6.12138 6
    endloop
  endfacet
  facet normal 0.587788 -0.809015 0
    outer loop
      vertex 4.62132 -5.58622 6
      vertex 3.88474 -6.12138 1
      vertex 4.62132 -5.58622 1
    endloop
  endfacet
  facet normal 0.481757 -0.876305 0
    outer loop
      vertex 3.0869 -6.56 1
      vertex 3.88474 -6.12138 6
      vertex 3.0869 -6.56 6
    endloop
  endfacet
  facet normal 0.481757 -0.876305 0
    outer loop
      vertex 3.88474 -6.12138 6
      vertex 3.0869 -6.56 1
      vertex 3.88474 -6.12138 1
    endloop
  endfacet
  facet normal 0.844328 -0.535826 0
    outer loop
      vertex 5.86537 -4.26144 6
      vertex 6.35322 -3.49271 1
      vertex 6.35322 -3.49271 6
    endloop
  endfacet
  facet normal 0.844328 -0.535826 0
    outer loop
      vertex 6.35322 -3.49271 1
      vertex 5.86537 -4.26144 6
      vertex 5.86537 -4.26144 1
    endloop
  endfacet
  facet normal -0.587788 -0.809015 0
    outer loop
      vertex -4.62132 -5.58622 1
      vertex -3.88474 -6.12138 6
      vertex -4.62132 -5.58622 6
    endloop
  endfacet
  facet normal -0.587788 -0.809015 -0
    outer loop
      vertex -3.88474 -6.12138 6
      vertex -4.62132 -5.58622 1
      vertex -3.88474 -6.12138 1
    endloop
  endfacet
  facet normal -0.951056 -0.309019 0
    outer loop
      vertex -6.74088 -2.6689 1
      vertex -7.02223 -1.803 6
      vertex -7.02223 -1.803 1
    endloop
  endfacet
  facet normal -0.951056 -0.309019 0
    outer loop
      vertex -7.02223 -1.803 6
      vertex -6.74088 -2.6689 1
      vertex -6.74088 -2.6689 6
    endloop
  endfacet
  facet normal -0.770517 -0.63742 0
    outer loop
      vertex -5.28502 -4.96297 1
      vertex -5.86537 -4.26144 6
      vertex -5.86537 -4.26144 1
    endloop
  endfacet
  facet normal -0.770517 -0.63742 0
    outer loop
      vertex -5.86537 -4.26144 6
      vertex -5.28502 -4.96297 1
      vertex -5.28502 -4.96297 6
    endloop
  endfacet
  facet normal -0.481757 -0.876305 0
    outer loop
      vertex -3.88474 -6.12138 1
      vertex -3.0869 -6.56 6
      vertex -3.88474 -6.12138 6
    endloop
  endfacet
  facet normal -0.481757 -0.876305 -0
    outer loop
      vertex -3.0869 -6.56 6
      vertex -3.88474 -6.12138 1
      vertex -3.0869 -6.56 1
    endloop
  endfacet
  facet normal -0.844326 -0.53583 0
    outer loop
      vertex 5.60061 2.52921 0
      vertex 5.24734 3.08587 6
      vertex 5.24734 3.08587 0
    endloop
  endfacet
  facet normal -0.844326 -0.53583 0
    outer loop
      vertex 5.24734 3.08587 6
      vertex 5.60061 2.52921 0
      vertex 5.60061 2.52921 6
    endloop
  endfacet
  facet normal -0.368133 -0.929773 0
    outer loop
      vertex 2.62234 4.99305 0
      vertex 3.23534 4.75034 6
      vertex 2.62234 4.99305 6
    endloop
  endfacet
  facet normal -0.368133 -0.929773 -0
    outer loop
      vertex 3.23534 4.75034 6
      vertex 2.62234 4.99305 0
      vertex 3.23534 4.75034 0
    endloop
  endfacet
  facet normal 0.368132 -0.929774 0
    outer loop
      vertex -1.23534 4.75034 0
      vertex -0.622338 4.99305 6
      vertex -1.23534 4.75034 6
    endloop
  endfacet
  facet normal 0.368132 -0.929774 0
    outer loop
      vertex -0.622338 4.99305 6
      vertex -1.23534 4.75034 0
      vertex -0.622338 4.99305 0
    endloop
  endfacet
  facet normal 0.904827 -0.42578 0
    outer loop
      vertex -3.88133 1.93265 6
      vertex -3.60061 2.52921 0
      vertex -3.60061 2.52921 6
    endloop
  endfacet
  facet normal 0.904827 -0.42578 0
    outer loop
      vertex -3.60061 2.52921 0
      vertex -3.88133 1.93265 6
      vertex -3.88133 1.93265 0
    endloop
  endfacet
  facet normal -0.982287 0.187381 0
    outer loop
      vertex 6.08506 -1.30562 0
      vertex 6.2086 -0.657999 6
      vertex 6.2086 -0.657999 0
    endloop
  endfacet
  facet normal -0.982287 0.187381 0
    outer loop
      vertex 6.2086 -0.657999 6
      vertex 6.08506 -1.30562 0
      vertex 6.08506 -1.30562 6
    endloop
  endfacet
  facet normal -0.684552 -0.728964 0
    outer loop
      vertex 4.34648 4.04519 0
      vertex 4.82708 3.59387 6
      vertex 4.34648 4.04519 6
    endloop
  endfacet
  facet normal -0.684552 -0.728964 -0
    outer loop
      vertex 4.82708 3.59387 6
      vertex 4.34648 4.04519 0
      vertex 4.82708 3.59387 0
    endloop
  endfacet
  facet normal 0 -1 0
    outer loop
      vertex 0.670349 5.23964 0
      vertex 1.32965 5.23964 6
      vertex 0.670349 5.23964 6
    endloop
  endfacet
  facet normal 0 -1 -0
    outer loop
      vertex 1.32965 5.23964 6
      vertex 0.670349 5.23964 0
      vertex 1.32965 5.23964 0
    endloop
  endfacet
  facet normal -0.481753 -0.876307 0
    outer loop
      vertex 3.23534 4.75034 0
      vertex 3.81309 4.43272 6
      vertex 3.23534 4.75034 6
    endloop
  endfacet
  facet normal -0.481753 -0.876307 -0
    outer loop
      vertex 3.81309 4.43272 6
      vertex 3.23534 4.75034 0
      vertex 3.81309 4.43272 0
    endloop
  endfacet
  facet normal 0.998027 -0.0627939 0
    outer loop
      vertex -4.25 0 6
      vertex -4.2086 0.657999 0
      vertex -4.2086 0.657999 6
    endloop
  endfacet
  facet normal 0.998027 -0.0627939 0
    outer loop
      vertex -4.2086 0.657999 0
      vertex -4.25 0 6
      vertex -4.25 0 0
    endloop
  endfacet
  facet normal 0.770509 -0.637429 0
    outer loop
      vertex -3.24734 3.08587 6
      vertex -2.82708 3.59387 0
      vertex -2.82708 3.59387 6
    endloop
  endfacet
  facet normal 0.770509 -0.637429 0
    outer loop
      vertex -2.82708 3.59387 0
      vertex -3.24734 3.08587 6
      vertex -3.24734 3.08587 0
    endloop
  endfacet
  facet normal 0.481753 -0.876307 0
    outer loop
      vertex -1.81309 4.43272 0
      vertex -1.23534 4.75034 6
      vertex -1.81309 4.43272 6
    endloop
  endfacet
  facet normal 0.481753 -0.876307 0
    outer loop
      vertex -1.23534 4.75034 6
      vertex -1.81309 4.43272 0
      vertex -1.23534 4.75034 0
    endloop
  endfacet
  facet normal 0.12533 -0.992115 0
    outer loop
      vertex 0.0162477 5.15701 0
      vertex 0.670349 5.23964 6
      vertex 0.0162477 5.15701 6
    endloop
  endfacet
  facet normal 0.12533 -0.992115 0
    outer loop
      vertex 0.670349 5.23964 6
      vertex 0.0162477 5.15701 0
      vertex 0.670349 5.23964 0
    endloop
  endfacet
  facet normal -0.998027 -0.0627939 0
    outer loop
      vertex 6.25 0 0
      vertex 6.2086 0.657999 6
      vertex 6.2086 0.657999 0
    endloop
  endfacet
  facet normal -0.998027 -0.0627939 0
    outer loop
      vertex 6.2086 0.657999 6
      vertex 6.25 0 0
      vertex 6.25 0 6
    endloop
  endfacet
  facet normal 0.684552 0.728964 -0
    outer loop
      vertex -2.34648 -4.04519 0
      vertex -2.82708 -3.59387 6
      vertex -2.34648 -4.04519 6
    endloop
  endfacet
  facet normal 0.684552 0.728964 0
    outer loop
      vertex -2.82708 -3.59387 6
      vertex -2.34648 -4.04519 0
      vertex -2.82708 -3.59387 0
    endloop
  endfacet
  facet normal 0.904827 0.42578 0
    outer loop
      vertex -3.60061 -2.52921 6
      vertex -3.88133 -1.93265 0
      vertex -3.88133 -1.93265 6
    endloop
  endfacet
  facet normal 0.904827 0.42578 0
    outer loop
      vertex -3.88133 -1.93265 0
      vertex -3.60061 -2.52921 6
      vertex -3.60061 -2.52921 0
    endloop
  endfacet
  facet normal -0.481753 0.876307 0
    outer loop
      vertex 3.81309 -4.43272 0
      vertex 3.23534 -4.75034 6
      vertex 3.81309 -4.43272 6
    endloop
  endfacet
  facet normal -0.481753 0.876307 0
    outer loop
      vertex 3.23534 -4.75034 6
      vertex 3.81309 -4.43272 0
      vertex 3.23534 -4.75034 0
    endloop
  endfacet
  facet normal -0.770509 -0.637429 0
    outer loop
      vertex 5.24734 3.08587 0
      vertex 4.82708 3.59387 6
      vertex 4.82708 3.59387 0
    endloop
  endfacet
  facet normal -0.770509 -0.637429 0
    outer loop
      vertex 4.82708 3.59387 6
      vertex 5.24734 3.08587 0
      vertex 5.24734 3.08587 6
    endloop
  endfacet
  facet normal -0.248687 -0.968584 0
    outer loop
      vertex 1.98375 5.15701 0
      vertex 2.62234 4.99305 6
      vertex 1.98375 5.15701 6
    endloop
  endfacet
  facet normal -0.248687 -0.968584 -0
    outer loop
      vertex 2.62234 4.99305 6
      vertex 1.98375 5.15701 0
      vertex 2.62234 4.99305 0
    endloop
  endfacet
  facet normal -0.12533 -0.992115 0
    outer loop
      vertex 1.32965 5.23964 0
      vertex 1.98375 5.15701 6
      vertex 1.32965 5.23964 6
    endloop
  endfacet
  facet normal -0.12533 -0.992115 -0
    outer loop
      vertex 1.98375 5.15701 6
      vertex 1.32965 5.23964 0
      vertex 1.98375 5.15701 0
    endloop
  endfacet
  facet normal -0.587785 -0.809017 0
    outer loop
      vertex 3.81309 4.43272 0
      vertex 4.34648 4.04519 6
      vertex 3.81309 4.43272 6
    endloop
  endfacet
  facet normal -0.587785 -0.809017 -0
    outer loop
      vertex 4.34648 4.04519 6
      vertex 3.81309 4.43272 0
      vertex 4.34648 4.04519 0
    endloop
  endfacet
  facet normal 0.951058 -0.309011 0
    outer loop
      vertex -4.08506 1.30562 6
      vertex -3.88133 1.93265 0
      vertex -3.88133 1.93265 6
    endloop
  endfacet
  facet normal 0.951058 -0.309011 0
    outer loop
      vertex -3.88133 1.93265 0
      vertex -4.08506 1.30562 6
      vertex -4.08506 1.30562 0
    endloop
  endfacet
  facet normal 0.982287 -0.187381 0
    outer loop
      vertex -4.2086 0.657999 6
      vertex -4.08506 1.30562 0
      vertex -4.08506 1.30562 6
    endloop
  endfacet
  facet normal 0.982287 -0.187381 0
    outer loop
      vertex -4.08506 1.30562 0
      vertex -4.2086 0.657999 6
      vertex -4.2086 0.657999 0
    endloop
  endfacet
  facet normal 0.844326 -0.53583 0
    outer loop
      vertex -3.60061 2.52921 6
      vertex -3.24734 3.08587 0
      vertex -3.24734 3.08587 6
    endloop
  endfacet
  facet normal 0.844326 -0.53583 0
    outer loop
      vertex -3.24734 3.08587 0
      vertex -3.60061 2.52921 6
      vertex -3.60061 2.52921 0
    endloop
  endfacet
  facet normal 0.248689 -0.968584 0
    outer loop
      vertex -0.622338 4.99305 0
      vertex 0.0162477 5.15701 6
      vertex -0.622338 4.99305 6
    endloop
  endfacet
  facet normal 0.248689 -0.968584 0
    outer loop
      vertex 0.0162477 5.15701 6
      vertex -0.622338 4.99305 0
      vertex 0.0162477 5.15701 0
    endloop
  endfacet
  facet normal 0.587785 -0.809017 0
    outer loop
      vertex -2.34648 4.04519 0
      vertex -1.81309 4.43272 6
      vertex -2.34648 4.04519 6
    endloop
  endfacet
  facet normal 0.587785 -0.809017 0
    outer loop
      vertex -1.81309 4.43272 6
      vertex -2.34648 4.04519 0
      vertex -1.81309 4.43272 0
    endloop
  endfacet
  facet normal 0.684552 -0.728964 0
    outer loop
      vertex -2.82708 3.59387 0
      vertex -2.34648 4.04519 6
      vertex -2.82708 3.59387 6
    endloop
  endfacet
  facet normal 0.684552 -0.728964 0
    outer loop
      vertex -2.34648 4.04519 6
      vertex -2.82708 3.59387 0
      vertex -2.34648 4.04519 0
    endloop
  endfacet
  facet normal -0.770509 0.637429 0
    outer loop
      vertex 4.82708 -3.59387 0
      vertex 5.24734 -3.08587 6
      vertex 5.24734 -3.08587 0
    endloop
  endfacet
  facet normal -0.770509 0.637429 0
    outer loop
      vertex 5.24734 -3.08587 6
      vertex 4.82708 -3.59387 0
      vertex 4.82708 -3.59387 6
    endloop
  endfacet
  facet normal 0 1 -0
    outer loop
      vertex 1.32965 -5.23964 0
      vertex 0.670349 -5.23964 6
      vertex 1.32965 -5.23964 6
    endloop
  endfacet
  facet normal 0 1 0
    outer loop
      vertex 0.670349 -5.23964 6
      vertex 1.32965 -5.23964 0
      vertex 0.670349 -5.23964 0
    endloop
  endfacet
  facet normal 0.998027 0.0627939 0
    outer loop
      vertex -4.2086 -0.657999 6
      vertex -4.25 0 0
      vertex -4.25 0 6
    endloop
  endfacet
  facet normal 0.998027 0.0627939 0
    outer loop
      vertex -4.25 0 0
      vertex -4.2086 -0.657999 6
      vertex -4.2086 -0.657999 0
    endloop
  endfacet
  facet normal 0.844326 0.53583 0
    outer loop
      vertex -3.24734 -3.08587 6
      vertex -3.60061 -2.52921 0
      vertex -3.60061 -2.52921 6
    endloop
  endfacet
  facet normal 0.844326 0.53583 0
    outer loop
      vertex -3.60061 -2.52921 0
      vertex -3.24734 -3.08587 6
      vertex -3.24734 -3.08587 0
    endloop
  endfacet
  facet normal -0.12533 0.992115 0
    outer loop
      vertex 1.98375 -5.15701 0
      vertex 1.32965 -5.23964 6
      vertex 1.98375 -5.15701 6
    endloop
  endfacet
  facet normal -0.12533 0.992115 0
    outer loop
      vertex 1.32965 -5.23964 6
      vertex 1.98375 -5.15701 0
      vertex 1.32965 -5.23964 0
    endloop
  endfacet
  facet normal -0.684552 0.728964 0
    outer loop
      vertex 4.82708 -3.59387 0
      vertex 4.34648 -4.04519 6
      vertex 4.82708 -3.59387 6
    endloop
  endfacet
  facet normal -0.684552 0.728964 0
    outer loop
      vertex 4.34648 -4.04519 6
      vertex 4.82708 -3.59387 0
      vertex 4.34648 -4.04519 0
    endloop
  endfacet
  facet normal -0.904827 -0.42578 0
    outer loop
      vertex 5.88133 1.93265 0
      vertex 5.60061 2.52921 6
      vertex 5.60061 2.52921 0
    endloop
  endfacet
  facet normal -0.904827 -0.42578 0
    outer loop
      vertex 5.60061 2.52921 6
      vertex 5.88133 1.93265 0
      vertex 5.88133 1.93265 6
    endloop
  endfacet
  facet normal -0.951058 -0.309011 0
    outer loop
      vertex 6.08506 1.30562 0
      vertex 5.88133 1.93265 6
      vertex 5.88133 1.93265 0
    endloop
  endfacet
  facet normal -0.951058 -0.309011 0
    outer loop
      vertex 5.88133 1.93265 6
      vertex 6.08506 1.30562 0
      vertex 6.08506 1.30562 6
    endloop
  endfacet
  facet normal -0.982287 -0.187381 0
    outer loop
      vertex 6.2086 0.657999 0
      vertex 6.08506 1.30562 6
      vertex 6.08506 1.30562 0
    endloop
  endfacet
  facet normal -0.982287 -0.187381 0
    outer loop
      vertex 6.08506 1.30562 6
      vertex 6.2086 0.657999 0
      vertex 6.2086 0.657999 6
    endloop
  endfacet
  facet normal -0.998027 0.0627939 0
    outer loop
      vertex 6.2086 -0.657999 0
      vertex 6.25 0 6
      vertex 6.25 0 0
    endloop
  endfacet
  facet normal -0.998027 0.0627939 0
    outer loop
      vertex 6.25 0 6
      vertex 6.2086 -0.657999 0
      vertex 6.2086 -0.657999 6
    endloop
  endfacet
  facet normal -0.904827 0.42578 0
    outer loop
      vertex 5.60061 -2.52921 0
      vertex 5.88133 -1.93265 6
      vertex 5.88133 -1.93265 0
    endloop
  endfacet
  facet normal -0.904827 0.42578 0
    outer loop
      vertex 5.88133 -1.93265 6
      vertex 5.60061 -2.52921 0
      vertex 5.60061 -2.52921 6
    endloop
  endfacet
  facet normal -0.951058 0.309011 0
    outer loop
      vertex 5.88133 -1.93265 0
      vertex 6.08506 -1.30562 6
      vertex 6.08506 -1.30562 0
    endloop
  endfacet
  facet normal -0.951058 0.309011 0
    outer loop
      vertex 6.08506 -1.30562 6
      vertex 5.88133 -1.93265 0
      vertex 5.88133 -1.93265 6
    endloop
  endfacet
  facet normal 0.368132 0.929774 -0
    outer loop
      vertex -0.622338 -4.99305 0
      vertex -1.23534 -4.75034 6
      vertex -0.622338 -4.99305 6
    endloop
  endfacet
  facet normal 0.368132 0.929774 0
    outer loop
      vertex -1.23534 -4.75034 6
      vertex -0.622338 -4.99305 0
      vertex -1.23534 -4.75034 0
    endloop
  endfacet
  facet normal 0.951058 0.309011 0
    outer loop
      vertex -3.88133 -1.93265 6
      vertex -4.08506 -1.30562 0
      vertex -4.08506 -1.30562 6
    endloop
  endfacet
  facet normal 0.951058 0.309011 0
    outer loop
      vertex -4.08506 -1.30562 0
      vertex -3.88133 -1.93265 6
      vertex -3.88133 -1.93265 0
    endloop
  endfacet
  facet normal 0.982287 0.187381 0
    outer loop
      vertex -4.08506 -1.30562 6
      vertex -4.2086 -0.657999 0
      vertex -4.2086 -0.657999 6
    endloop
  endfacet
  facet normal 0.982287 0.187381 0
    outer loop
      vertex -4.2086 -0.657999 0
      vertex -4.08506 -1.30562 6
      vertex -4.08506 -1.30562 0
    endloop
  endfacet
  facet normal 0.770509 0.637429 0
    outer loop
      vertex -2.82708 -3.59387 6
      vertex -3.24734 -3.08587 0
      vertex -3.24734 -3.08587 6
    endloop
  endfacet
  facet normal 0.770509 0.637429 0
    outer loop
      vertex -3.24734 -3.08587 0
      vertex -2.82708 -3.59387 6
      vertex -2.82708 -3.59387 0
    endloop
  endfacet
  facet normal -0.368133 0.929773 0
    outer loop
      vertex 3.23534 -4.75034 0
      vertex 2.62234 -4.99305 6
      vertex 3.23534 -4.75034 6
    endloop
  endfacet
  facet normal -0.368133 0.929773 0
    outer loop
      vertex 2.62234 -4.99305 6
      vertex 3.23534 -4.75034 0
      vertex 2.62234 -4.99305 0
    endloop
  endfacet
  facet normal -0.248687 0.968584 0
    outer loop
      vertex 2.62234 -4.99305 0
      vertex 1.98375 -5.15701 6
      vertex 2.62234 -4.99305 6
    endloop
  endfacet
  facet normal -0.248687 0.968584 0
    outer loop
      vertex 1.98375 -5.15701 6
      vertex 2.62234 -4.99305 0
      vertex 1.98375 -5.15701 0
    endloop
  endfacet
  facet normal -0.587785 0.809017 0
    outer loop
      vertex 4.34648 -4.04519 0
      vertex 3.81309 -4.43272 6
      vertex 4.34648 -4.04519 6
    endloop
  endfacet
  facet normal -0.587785 0.809017 0
    outer loop
      vertex 3.81309 -4.43272 6
      vertex 4.34648 -4.04519 0
      vertex 3.81309 -4.43272 0
    endloop
  endfacet
  facet normal -0.844326 0.53583 0
    outer loop
      vertex 5.24734 -3.08587 0
      vertex 5.60061 -2.52921 6
      vertex 5.60061 -2.52921 0
    endloop
  endfacet
  facet normal -0.844326 0.53583 0
    outer loop
      vertex 5.60061 -2.52921 6
      vertex 5.24734 -3.08587 0
      vertex 5.24734 -3.08587 6
    endloop
  endfacet
  facet normal 0.481753 0.876307 -0
    outer loop
      vertex -1.23534 -4.75034 0
      vertex -1.81309 -4.43272 6
      vertex -1.23534 -4.75034 6
    endloop
  endfacet
  facet normal 0.481753 0.876307 0
    outer loop
      vertex -1.81309 -4.43272 6
      vertex -1.23534 -4.75034 0
      vertex -1.81309 -4.43272 0
    endloop
  endfacet
  facet normal 0.587785 0.809017 -0
    outer loop
      vertex -1.81309 -4.43272 0
      vertex -2.34648 -4.04519 6
      vertex -1.81309 -4.43272 6
    endloop
  endfacet
  facet normal 0.587785 0.809017 0
    outer loop
      vertex -2.34648 -4.04519 6
      vertex -1.81309 -4.43272 0
      vertex -2.34648 -4.04519 0
    endloop
  endfacet
  facet normal 0.248689 0.968584 -0
    outer loop
      vertex 0.0162477 -5.15701 0
      vertex -0.622338 -4.99305 6
      vertex 0.0162477 -5.15701 6
    endloop
  endfacet
  facet normal 0.248689 0.968584 0
    outer loop
      vertex -0.622338 -4.99305 6
      vertex 0.0162477 -5.15701 0
      vertex -0.622338 -4.99305 0
    endloop
  endfacet
  facet normal 0.12533 0.992115 -0
    outer loop
      vertex 0.670349 -5.23964 0
      vertex 0.0162477 -5.15701 6
      vertex 0.670349 -5.23964 6
    endloop
  endfacet
  facet normal 0.12533 0.992115 0
    outer loop
      vertex 0.0162477 -5.15701 6
      vertex 0.670349 -5.23964 0
      vertex 0.0162477 -5.15701 0
    endloop
  endfacet
endsolid OpenSCAD_Model
