solid OpenSCAD_Model
  facet normal -0.522503 0.852637 0
    outer loop
      vertex -1.99756 3.92043 0
      vertex -2.58626 3.55967 3.7
      vertex -1.99756 3.92043 3.7
    endloop
  endfacet
  facet normal -0.522503 0.852637 0
    outer loop
      vertex -2.58626 3.55967 3.7
      vertex -1.99756 3.92043 0
      vertex -2.58626 3.55967 0
    endloop
  endfacet
  facet normal 0.538521 0.459939 0.706011
    outer loop
      vertex 3.11127 3.11127 3.7
      vertex 2.75772 2.75772 4.2
      vertex 3.55967 2.58626 3.7
    endloop
  endfacet
  facet normal -0.760407 0.649447 0
    outer loop
      vertex -3.55967 2.58626 0
      vertex -3.11127 3.11127 3.7
      vertex -3.11127 3.11127 0
    endloop
  endfacet
  facet normal -0.760407 0.649447 0
    outer loop
      vertex -3.11127 3.11127 3.7
      vertex -3.55967 2.58626 0
      vertex -3.55967 2.58626 3.7
    endloop
  endfacet
  facet normal 0.923881 0.38268 0
    outer loop
      vertex 4.18465 1.35967 3.7
      vertex 3.92043 1.99756 0
      vertex 3.92043 1.99756 3.7
    endloop
  endfacet
  facet normal 0.923881 0.38268 0
    outer loop
      vertex 3.92043 1.99756 0
      vertex 4.18465 1.35967 3.7
      vertex 4.18465 1.35967 0
    endloop
  endfacet
  facet normal 0.70601 0.0555629 0.706018
    outer loop
      vertex 4.34583 0.688312 3.7
      vertex 3.85198 0.610094 4.2
      vertex 4.4 0 3.7
    endloop
  endfacet
  facet normal 0.70601 -0.0555629 0.706018
    outer loop
      vertex 4.4 0 3.7
      vertex 3.85198 -0.610094 4.2
      vertex 4.34583 -0.688312 3.7
    endloop
  endfacet
  facet normal 0.996917 0.0784572 0
    outer loop
      vertex 4.4 0 3.7
      vertex 4.34583 0.688312 0
      vertex 4.34583 0.688312 3.7
    endloop
  endfacet
  facet normal 0.996917 0.0784572 0
    outer loop
      vertex 4.34583 0.688312 0
      vertex 4.4 0 3.7
      vertex 4.4 0 0
    endloop
  endfacet
  facet normal 0.271014 0.654291 0.706013
    outer loop
      vertex 1.35967 4.18465 3.7
      vertex 1.20517 3.70912 4.2
      vertex 1.77056 3.47493 4.2
    endloop
  endfacet
  facet normal 0.459935 0.538521 0.706013
    outer loop
      vertex 2.58626 3.55967 3.7
      vertex 2.29236 3.15517 4.2
      vertex 2.75772 2.75772 4.2
    endloop
  endfacet
  facet normal 0.852637 0.522503 0
    outer loop
      vertex 3.92043 1.99756 3.7
      vertex 3.55967 2.58626 0
      vertex 3.55967 2.58626 3.7
    endloop
  endfacet
  facet normal 0.852637 0.522503 0
    outer loop
      vertex 3.55967 2.58626 0
      vertex 3.92043 1.99756 3.7
      vertex 3.92043 1.99756 0
    endloop
  endfacet
  facet normal 0.459939 0.538521 0.706011
    outer loop
      vertex 3.11127 3.11127 3.7
      vertex 2.58626 3.55967 3.7
      vertex 2.75772 2.75772 4.2
    endloop
  endfacet
  facet normal -0.370034 -0.603839 0.706012
    outer loop
      vertex -2.29236 -3.15517 4.2
      vertex -2.58626 -3.55967 3.7
      vertex -1.77056 -3.47493 4.2
    endloop
  endfacet
  facet normal 0.97237 0.233447 0
    outer loop
      vertex 4.34583 0.688312 3.7
      vertex 4.18465 1.35967 0
      vertex 4.18465 1.35967 3.7
    endloop
  endfacet
  facet normal 0.97237 0.233447 0
    outer loop
      vertex 4.18465 1.35967 0
      vertex 4.34583 0.688312 3.7
      vertex 4.34583 0.688312 0
    endloop
  endfacet
  facet normal 0.706014 -0.0555698 0.706014
    outer loop
      vertex 3.9 0 4.2
      vertex 3.85198 -0.610094 4.2
      vertex 4.4 0 3.7
    endloop
  endfacet
  facet normal -0.271013 0.654291 0.706013
    outer loop
      vertex -1.35967 4.18465 3.7
      vertex -1.99756 3.92043 3.7
      vertex -1.77056 3.47493 4.2
    endloop
  endfacet
  facet normal -0.233447 0.97237 0
    outer loop
      vertex -0.688312 4.34583 0
      vertex -1.35967 4.18465 3.7
      vertex -0.688312 4.34583 3.7
    endloop
  endfacet
  facet normal -0.233447 0.97237 0
    outer loop
      vertex -1.35967 4.18465 3.7
      vertex -0.688312 4.34583 0
      vertex -1.35967 4.18465 0
    endloop
  endfacet
  facet normal 0.654291 0.271013 0.706013
    outer loop
      vertex 3.92043 1.99756 3.7
      vertex 3.47493 1.77056 4.2
      vertex 4.18465 1.35967 3.7
    endloop
  endfacet
  facet normal 0.0555698 0.706014 0.706014
    outer loop
      vertex 0 4.4 3.7
      vertex 0 3.9 4.2
      vertex 0.610094 3.85198 4.2
    endloop
  endfacet
  facet normal 0.649447 0.760407 -0
    outer loop
      vertex 3.11127 3.11127 0
      vertex 2.58626 3.55967 3.7
      vertex 3.11127 3.11127 3.7
    endloop
  endfacet
  facet normal 0.649447 0.760407 0
    outer loop
      vertex 2.58626 3.55967 3.7
      vertex 3.11127 3.11127 0
      vertex 2.58626 3.55967 0
    endloop
  endfacet
  facet normal 0.760407 0.649447 0
    outer loop
      vertex 3.55967 2.58626 3.7
      vertex 3.11127 3.11127 0
      vertex 3.11127 3.11127 3.7
    endloop
  endfacet
  facet normal 0.760407 0.649447 0
    outer loop
      vertex 3.11127 3.11127 0
      vertex 3.55967 2.58626 3.7
      vertex 3.55967 2.58626 0
    endloop
  endfacet
  facet normal 0.370035 -0.603836 0.706014
    outer loop
      vertex 2.58626 -3.55967 3.7
      vertex 1.77056 -3.47493 4.2
      vertex 1.99756 -3.92043 3.7
    endloop
  endfacet
  facet normal 0.688626 0.165326 0.706018
    outer loop
      vertex 4.18465 1.35967 3.7
      vertex 3.85198 0.610094 4.2
      vertex 4.34583 0.688312 3.7
    endloop
  endfacet
  facet normal -0.459935 0.538521 0.706013
    outer loop
      vertex -2.58626 3.55967 3.7
      vertex -2.75772 2.75772 4.2
      vertex -2.29236 3.15517 4.2
    endloop
  endfacet
  facet normal -0.370034 0.603839 0.706012
    outer loop
      vertex -1.77056 3.47493 4.2
      vertex -2.58626 3.55967 3.7
      vertex -2.29236 3.15517 4.2
    endloop
  endfacet
  facet normal -0.923881 0.38268 0
    outer loop
      vertex -4.18465 1.35967 0
      vertex -3.92043 1.99756 3.7
      vertex -3.92043 1.99756 0
    endloop
  endfacet
  facet normal -0.923881 0.38268 0
    outer loop
      vertex -3.92043 1.99756 3.7
      vertex -4.18465 1.35967 0
      vertex -4.18465 1.35967 3.7
    endloop
  endfacet
  facet normal 0.0784572 0.996917 -0
    outer loop
      vertex 0.688312 4.34583 0
      vertex 0 4.4 3.7
      vertex 0.688312 4.34583 3.7
    endloop
  endfacet
  facet normal 0.0784572 0.996917 0
    outer loop
      vertex 0 4.4 3.7
      vertex 0.688312 4.34583 0
      vertex 0 4.4 0
    endloop
  endfacet
  facet normal 0.233447 0.97237 -0
    outer loop
      vertex 1.35967 4.18465 0
      vertex 0.688312 4.34583 3.7
      vertex 1.35967 4.18465 3.7
    endloop
  endfacet
  facet normal 0.233447 0.97237 0
    outer loop
      vertex 0.688312 4.34583 3.7
      vertex 1.35967 4.18465 0
      vertex 0.688312 4.34583 0
    endloop
  endfacet
  facet normal -0.16532 0.688632 0.706014
    outer loop
      vertex -0.610094 3.85198 4.2
      vertex -1.35967 4.18465 3.7
      vertex -1.20517 3.70912 4.2
    endloop
  endfacet
  facet normal -0.0784572 0.996917 0
    outer loop
      vertex 0 4.4 0
      vertex -0.688312 4.34583 3.7
      vertex 0 4.4 3.7
    endloop
  endfacet
  facet normal -0.0784572 0.996917 0
    outer loop
      vertex -0.688312 4.34583 3.7
      vertex 0 4.4 0
      vertex -0.688312 4.34583 0
    endloop
  endfacet
  facet normal 0.706014 0.0555698 0.706014
    outer loop
      vertex 4.4 0 3.7
      vertex 3.85198 0.610094 4.2
      vertex 3.9 0 4.2
    endloop
  endfacet
  facet normal 0.603836 0.370035 0.706014
    outer loop
      vertex 3.55967 2.58626 3.7
      vertex 3.47493 1.77056 4.2
      vertex 3.92043 1.99756 3.7
    endloop
  endfacet
  facet normal 0.603839 0.370034 0.706012
    outer loop
      vertex 3.55967 2.58626 3.7
      vertex 3.15517 2.29236 4.2
      vertex 3.47493 1.77056 4.2
    endloop
  endfacet
  facet normal 0.538521 0.459935 0.706013
    outer loop
      vertex 3.55967 2.58626 3.7
      vertex 2.75772 2.75772 4.2
      vertex 3.15517 2.29236 4.2
    endloop
  endfacet
  facet normal 0.370034 0.603839 0.706012
    outer loop
      vertex 2.58626 3.55967 3.7
      vertex 1.77056 3.47493 4.2
      vertex 2.29236 3.15517 4.2
    endloop
  endfacet
  facet normal 0.271013 0.654291 0.706013
    outer loop
      vertex 1.99756 3.92043 3.7
      vertex 1.35967 4.18465 3.7
      vertex 1.77056 3.47493 4.2
    endloop
  endfacet
  facet normal 0.38268 0.923881 -0
    outer loop
      vertex 1.99756 3.92043 0
      vertex 1.35967 4.18465 3.7
      vertex 1.99756 3.92043 3.7
    endloop
  endfacet
  facet normal 0.38268 0.923881 0
    outer loop
      vertex 1.35967 4.18465 3.7
      vertex 1.99756 3.92043 0
      vertex 1.35967 4.18465 0
    endloop
  endfacet
  facet normal -0.760407 -0.649447 0
    outer loop
      vertex -3.11127 -3.11127 0
      vertex -3.55967 -2.58626 3.7
      vertex -3.55967 -2.58626 0
    endloop
  endfacet
  facet normal -0.760407 -0.649447 0
    outer loop
      vertex -3.55967 -2.58626 3.7
      vertex -3.11127 -3.11127 0
      vertex -3.11127 -3.11127 3.7
    endloop
  endfacet
  facet normal -0.649447 -0.760407 0
    outer loop
      vertex -3.11127 -3.11127 0
      vertex -2.58626 -3.55967 3.7
      vertex -3.11127 -3.11127 3.7
    endloop
  endfacet
  facet normal -0.649447 -0.760407 -0
    outer loop
      vertex -2.58626 -3.55967 3.7
      vertex -3.11127 -3.11127 0
      vertex -2.58626 -3.55967 0
    endloop
  endfacet
  facet normal -0.522503 -0.852637 0
    outer loop
      vertex -2.58626 -3.55967 0
      vertex -1.99756 -3.92043 3.7
      vertex -2.58626 -3.55967 3.7
    endloop
  endfacet
  facet normal -0.522503 -0.852637 -0
    outer loop
      vertex -1.99756 -3.92043 3.7
      vertex -2.58626 -3.55967 0
      vertex -1.99756 -3.92043 0
    endloop
  endfacet
  facet normal 0.165326 -0.688626 0.706018
    outer loop
      vertex 1.35967 -4.18465 3.7
      vertex 0.610094 -3.85198 4.2
      vertex 0.688312 -4.34583 3.7
    endloop
  endfacet
  facet normal 0.38268 -0.923881 0
    outer loop
      vertex 1.35967 -4.18465 0
      vertex 1.99756 -3.92043 3.7
      vertex 1.35967 -4.18465 3.7
    endloop
  endfacet
  facet normal 0.38268 -0.923881 0
    outer loop
      vertex 1.99756 -3.92043 3.7
      vertex 1.35967 -4.18465 0
      vertex 1.99756 -3.92043 0
    endloop
  endfacet
  facet normal -0.0555629 0.70601 0.706018
    outer loop
      vertex 0 4.4 3.7
      vertex -0.688312 4.34583 3.7
      vertex -0.610094 3.85198 4.2
    endloop
  endfacet
  facet normal -0.165326 0.688626 0.706018
    outer loop
      vertex -0.688312 4.34583 3.7
      vertex -1.35967 4.18465 3.7
      vertex -0.610094 3.85198 4.2
    endloop
  endfacet
  facet normal -0.459939 0.538521 0.706011
    outer loop
      vertex -2.58626 3.55967 3.7
      vertex -3.11127 3.11127 3.7
      vertex -2.75772 2.75772 4.2
    endloop
  endfacet
  facet normal -0.654291 0.271014 0.706013
    outer loop
      vertex -3.47493 1.77056 4.2
      vertex -4.18465 1.35967 3.7
      vertex -3.70912 1.20517 4.2
    endloop
  endfacet
  facet normal -0.97237 -0.233447 0
    outer loop
      vertex -4.18465 -1.35967 0
      vertex -4.34583 -0.688312 3.7
      vertex -4.34583 -0.688312 0
    endloop
  endfacet
  facet normal -0.97237 -0.233447 0
    outer loop
      vertex -4.34583 -0.688312 3.7
      vertex -4.18465 -1.35967 0
      vertex -4.18465 -1.35967 3.7
    endloop
  endfacet
  facet normal -0.603836 0.370035 0.706014
    outer loop
      vertex -3.55967 2.58626 3.7
      vertex -3.92043 1.99756 3.7
      vertex -3.47493 1.77056 4.2
    endloop
  endfacet
  facet normal -0.706014 0.0555698 0.706014
    outer loop
      vertex -3.85198 0.610094 4.2
      vertex -4.4 0 3.7
      vertex -3.9 0 4.2
    endloop
  endfacet
  facet normal -0.38268 0.923881 0
    outer loop
      vertex -1.35967 4.18465 0
      vertex -1.99756 3.92043 3.7
      vertex -1.35967 4.18465 3.7
    endloop
  endfacet
  facet normal -0.38268 0.923881 0
    outer loop
      vertex -1.99756 3.92043 3.7
      vertex -1.35967 4.18465 0
      vertex -1.99756 3.92043 0
    endloop
  endfacet
  facet normal 0.688632 0.16532 0.706014
    outer loop
      vertex 4.18465 1.35967 3.7
      vertex 3.70912 1.20517 4.2
      vertex 3.85198 0.610094 4.2
    endloop
  endfacet
  facet normal 0.654291 0.271014 0.706013
    outer loop
      vertex 4.18465 1.35967 3.7
      vertex 3.47493 1.77056 4.2
      vertex 3.70912 1.20517 4.2
    endloop
  endfacet
  facet normal 0.165326 0.688626 0.706018
    outer loop
      vertex 0.688312 4.34583 3.7
      vertex 0.610094 3.85198 4.2
      vertex 1.35967 4.18465 3.7
    endloop
  endfacet
  facet normal 0.0555629 0.70601 0.706018
    outer loop
      vertex 0.688312 4.34583 3.7
      vertex 0 4.4 3.7
      vertex 0.610094 3.85198 4.2
    endloop
  endfacet
  facet normal 0.370035 0.603836 0.706014
    outer loop
      vertex 1.99756 3.92043 3.7
      vertex 1.77056 3.47493 4.2
      vertex 2.58626 3.55967 3.7
    endloop
  endfacet
  facet normal 0.522503 0.852637 -0
    outer loop
      vertex 2.58626 3.55967 0
      vertex 1.99756 3.92043 3.7
      vertex 2.58626 3.55967 3.7
    endloop
  endfacet
  facet normal 0.522503 0.852637 0
    outer loop
      vertex 1.99756 3.92043 3.7
      vertex 2.58626 3.55967 0
      vertex 1.99756 3.92043 0
    endloop
  endfacet
  facet normal -0.654291 -0.271014 0.706013
    outer loop
      vertex -3.70912 -1.20517 4.2
      vertex -4.18465 -1.35967 3.7
      vertex -3.47493 -1.77056 4.2
    endloop
  endfacet
  facet normal -0.0555698 -0.706014 0.706014
    outer loop
      vertex 0 -3.9 4.2
      vertex -0.610094 -3.85198 4.2
      vertex 0 -4.4 3.7
    endloop
  endfacet
  facet normal -0.459939 -0.538521 0.706011
    outer loop
      vertex -2.75772 -2.75772 4.2
      vertex -3.11127 -3.11127 3.7
      vertex -2.58626 -3.55967 3.7
    endloop
  endfacet
  facet normal -0.233447 -0.97237 0
    outer loop
      vertex -1.35967 -4.18465 0
      vertex -0.688312 -4.34583 3.7
      vertex -1.35967 -4.18465 3.7
    endloop
  endfacet
  facet normal -0.233447 -0.97237 -0
    outer loop
      vertex -0.688312 -4.34583 3.7
      vertex -1.35967 -4.18465 0
      vertex -0.688312 -4.34583 0
    endloop
  endfacet
  facet normal 0.649447 -0.760407 0
    outer loop
      vertex 2.58626 -3.55967 0
      vertex 3.11127 -3.11127 3.7
      vertex 2.58626 -3.55967 3.7
    endloop
  endfacet
  facet normal 0.649447 -0.760407 0
    outer loop
      vertex 3.11127 -3.11127 3.7
      vertex 2.58626 -3.55967 0
      vertex 3.11127 -3.11127 0
    endloop
  endfacet
  facet normal 0.603839 -0.370034 0.706012
    outer loop
      vertex 3.47493 -1.77056 4.2
      vertex 3.15517 -2.29236 4.2
      vertex 3.55967 -2.58626 3.7
    endloop
  endfacet
  facet normal 0.996917 -0.0784572 0
    outer loop
      vertex 4.34583 -0.688312 3.7
      vertex 4.4 0 0
      vertex 4.4 0 3.7
    endloop
  endfacet
  facet normal 0.996917 -0.0784572 0
    outer loop
      vertex 4.4 0 0
      vertex 4.34583 -0.688312 3.7
      vertex 4.34583 -0.688312 0
    endloop
  endfacet
  facet normal -0.271014 0.654291 0.706013
    outer loop
      vertex -1.35967 4.18465 3.7
      vertex -1.77056 3.47493 4.2
      vertex -1.20517 3.70912 4.2
    endloop
  endfacet
  facet normal -0.0555698 0.706014 0.706014
    outer loop
      vertex 0 4.4 3.7
      vertex -0.610094 3.85198 4.2
      vertex 0 3.9 4.2
    endloop
  endfacet
  facet normal -0.370035 0.603836 0.706014
    outer loop
      vertex -1.99756 3.92043 3.7
      vertex -2.58626 3.55967 3.7
      vertex -1.77056 3.47493 4.2
    endloop
  endfacet
  facet normal -0.538521 0.459935 0.706013
    outer loop
      vertex -2.75772 2.75772 4.2
      vertex -3.55967 2.58626 3.7
      vertex -3.15517 2.29236 4.2
    endloop
  endfacet
  facet normal -0.603839 0.370034 0.706012
    outer loop
      vertex -3.15517 2.29236 4.2
      vertex -3.55967 2.58626 3.7
      vertex -3.47493 1.77056 4.2
    endloop
  endfacet
  facet normal -0.852637 0.522503 0
    outer loop
      vertex -3.92043 1.99756 0
      vertex -3.55967 2.58626 3.7
      vertex -3.55967 2.58626 0
    endloop
  endfacet
  facet normal -0.852637 0.522503 0
    outer loop
      vertex -3.55967 2.58626 3.7
      vertex -3.92043 1.99756 0
      vertex -3.92043 1.99756 3.7
    endloop
  endfacet
  facet normal -0.538521 0.459939 0.706011
    outer loop
      vertex -3.11127 3.11127 3.7
      vertex -3.55967 2.58626 3.7
      vertex -2.75772 2.75772 4.2
    endloop
  endfacet
  facet normal -0.649447 0.760407 0
    outer loop
      vertex -2.58626 3.55967 0
      vertex -3.11127 3.11127 3.7
      vertex -2.58626 3.55967 3.7
    endloop
  endfacet
  facet normal -0.649447 0.760407 0
    outer loop
      vertex -3.11127 3.11127 3.7
      vertex -2.58626 3.55967 0
      vertex -3.11127 3.11127 0
    endloop
  endfacet
  facet normal -0.688632 0.16532 0.706014
    outer loop
      vertex -3.70912 1.20517 4.2
      vertex -4.18465 1.35967 3.7
      vertex -3.85198 0.610094 4.2
    endloop
  endfacet
  facet normal 0 0 1
    outer loop
      vertex 2.7 0 4.2
      vertex 3.9 0 4.2
      vertex 3.85198 0.610094 4.2
    endloop
  endfacet
  facet normal 0 0 1
    outer loop
      vertex 2.66676 0.422373 4.2
      vertex 3.85198 0.610094 4.2
      vertex 3.70912 1.20517 4.2
    endloop
  endfacet
  facet normal 0 0 1
    outer loop
      vertex 3.9 0 4.2
      vertex 2.7 0 4.2
      vertex 3.85198 -0.610094 4.2
    endloop
  endfacet
  facet normal 0 0 1
    outer loop
      vertex 2.56785 0.834346 4.2
      vertex 3.70912 1.20517 4.2
      vertex 3.47493 1.77056 4.2
    endloop
  endfacet
  facet normal -0 0 1
    outer loop
      vertex 2.66676 -0.422373 4.2
      vertex 3.85198 -0.610094 4.2
      vertex 2.7 0 4.2
    endloop
  endfacet
  facet normal 0 0 1
    outer loop
      vertex 2.40572 1.22577 4.2
      vertex 3.47493 1.77056 4.2
      vertex 3.15517 2.29236 4.2
    endloop
  endfacet
  facet normal 0 0 1
    outer loop
      vertex 3.85198 -0.610094 4.2
      vertex 2.66676 -0.422373 4.2
      vertex 3.70912 -1.20517 4.2
    endloop
  endfacet
  facet normal 0 0 1
    outer loop
      vertex 2.18435 1.58702 4.2
      vertex 3.15517 2.29236 4.2
      vertex 2.75772 2.75772 4.2
    endloop
  endfacet
  facet normal -0 0 1
    outer loop
      vertex 2.56785 -0.834346 4.2
      vertex 3.70912 -1.20517 4.2
      vertex 2.66676 -0.422373 4.2
    endloop
  endfacet
  facet normal 0 0 1
    outer loop
      vertex 3.70912 -1.20517 4.2
      vertex 2.56785 -0.834346 4.2
      vertex 3.47493 -1.77056 4.2
    endloop
  endfacet
  facet normal 0 0 1
    outer loop
      vertex 3.85198 0.610094 4.2
      vertex 2.66676 0.422373 4.2
      vertex 2.7 0 4.2
    endloop
  endfacet
  facet normal 0 0 1
    outer loop
      vertex 3.70912 1.20517 4.2
      vertex 2.56785 0.834346 4.2
      vertex 2.66676 0.422373 4.2
    endloop
  endfacet
  facet normal 0 0 1
    outer loop
      vertex 3.47493 1.77056 4.2
      vertex 2.40572 1.22577 4.2
      vertex 2.56785 0.834346 4.2
    endloop
  endfacet
  facet normal 0 0 1
    outer loop
      vertex 1.90919 1.90919 4.2
      vertex 2.75772 2.75772 4.2
      vertex 2.29236 3.15517 4.2
    endloop
  endfacet
  facet normal 0 0 1
    outer loop
      vertex 3.15517 2.29236 4.2
      vertex 2.18435 1.58702 4.2
      vertex 2.40572 1.22577 4.2
    endloop
  endfacet
  facet normal 0 0 1
    outer loop
      vertex 2.75772 2.75772 4.2
      vertex 1.90919 1.90919 4.2
      vertex 2.18435 1.58702 4.2
    endloop
  endfacet
  facet normal 0 0 1
    outer loop
      vertex 1.58702 2.18435 4.2
      vertex 2.29236 3.15517 4.2
      vertex 1.77056 3.47493 4.2
    endloop
  endfacet
  facet normal 0 0 1
    outer loop
      vertex 2.29236 3.15517 4.2
      vertex 1.58702 2.18435 4.2
      vertex 1.90919 1.90919 4.2
    endloop
  endfacet
  facet normal 0 0 1
    outer loop
      vertex 1.77056 3.47493 4.2
      vertex 1.22577 2.40572 4.2
      vertex 1.58702 2.18435 4.2
    endloop
  endfacet
  facet normal 0 0 1
    outer loop
      vertex 1.20517 3.70912 4.2
      vertex 1.22577 2.40572 4.2
      vertex 1.77056 3.47493 4.2
    endloop
  endfacet
  facet normal 0 0 1
    outer loop
      vertex 1.20517 3.70912 4.2
      vertex 0.834346 2.56785 4.2
      vertex 1.22577 2.40572 4.2
    endloop
  endfacet
  facet normal 0 0 1
    outer loop
      vertex 0.610094 3.85198 4.2
      vertex 0.834346 2.56785 4.2
      vertex 1.20517 3.70912 4.2
    endloop
  endfacet
  facet normal 0 0 1
    outer loop
      vertex 0.610094 3.85198 4.2
      vertex 0.422373 2.66676 4.2
      vertex 0.834346 2.56785 4.2
    endloop
  endfacet
  facet normal 0 0 1
    outer loop
      vertex 0 3.9 4.2
      vertex 0.422373 2.66676 4.2
      vertex 0.610094 3.85198 4.2
    endloop
  endfacet
  facet normal 0 0 1
    outer loop
      vertex 0 3.9 4.2
      vertex 0 2.7 4.2
      vertex 0.422373 2.66676 4.2
    endloop
  endfacet
  facet normal 0 0 1
    outer loop
      vertex 0 3.9 4.2
      vertex -0.422373 2.66676 4.2
      vertex 0 2.7 4.2
    endloop
  endfacet
  facet normal -0 0 1
    outer loop
      vertex -0.610094 3.85198 4.2
      vertex -0.422373 2.66676 4.2
      vertex 0 3.9 4.2
    endloop
  endfacet
  facet normal 0 0 1
    outer loop
      vertex -0.610094 3.85198 4.2
      vertex -0.834346 2.56785 4.2
      vertex -0.422373 2.66676 4.2
    endloop
  endfacet
  facet normal -0 0 1
    outer loop
      vertex -1.20517 3.70912 4.2
      vertex -0.834346 2.56785 4.2
      vertex -0.610094 3.85198 4.2
    endloop
  endfacet
  facet normal 0 0 1
    outer loop
      vertex -1.20517 3.70912 4.2
      vertex -1.22577 2.40572 4.2
      vertex -0.834346 2.56785 4.2
    endloop
  endfacet
  facet normal -0 0 1
    outer loop
      vertex -1.77056 3.47493 4.2
      vertex -1.22577 2.40572 4.2
      vertex -1.20517 3.70912 4.2
    endloop
  endfacet
  facet normal 0 0 1
    outer loop
      vertex -1.22577 2.40572 4.2
      vertex -1.77056 3.47493 4.2
      vertex -1.58702 2.18435 4.2
    endloop
  endfacet
  facet normal -0 0 1
    outer loop
      vertex -2.29236 3.15517 4.2
      vertex -1.58702 2.18435 4.2
      vertex -1.77056 3.47493 4.2
    endloop
  endfacet
  facet normal 0 0 1
    outer loop
      vertex -1.58702 2.18435 4.2
      vertex -2.29236 3.15517 4.2
      vertex -1.90919 1.90919 4.2
    endloop
  endfacet
  facet normal -0 0 1
    outer loop
      vertex -2.75772 2.75772 4.2
      vertex -1.90919 1.90919 4.2
      vertex -2.29236 3.15517 4.2
    endloop
  endfacet
  facet normal 0 0 1
    outer loop
      vertex -1.90919 1.90919 4.2
      vertex -2.75772 2.75772 4.2
      vertex -2.18435 1.58702 4.2
    endloop
  endfacet
  facet normal -0 0 1
    outer loop
      vertex -3.15517 2.29236 4.2
      vertex -2.18435 1.58702 4.2
      vertex -2.75772 2.75772 4.2
    endloop
  endfacet
  facet normal 0 0 1
    outer loop
      vertex -2.18435 1.58702 4.2
      vertex -3.15517 2.29236 4.2
      vertex -2.40572 1.22577 4.2
    endloop
  endfacet
  facet normal 0 0 1
    outer loop
      vertex -2.40572 1.22577 4.2
      vertex -3.47493 1.77056 4.2
      vertex -2.56785 0.834346 4.2
    endloop
  endfacet
  facet normal -0 0 1
    outer loop
      vertex -3.47493 1.77056 4.2
      vertex -2.40572 1.22577 4.2
      vertex -3.15517 2.29236 4.2
    endloop
  endfacet
  facet normal -0 0 1
    outer loop
      vertex 2.40572 -1.22577 4.2
      vertex 3.47493 -1.77056 4.2
      vertex 2.56785 -0.834346 4.2
    endloop
  endfacet
  facet normal 0 0 1
    outer loop
      vertex 3.47493 -1.77056 4.2
      vertex 2.40572 -1.22577 4.2
      vertex 3.15517 -2.29236 4.2
    endloop
  endfacet
  facet normal -0 0 1
    outer loop
      vertex 2.18435 -1.58702 4.2
      vertex 3.15517 -2.29236 4.2
      vertex 2.40572 -1.22577 4.2
    endloop
  endfacet
  facet normal 0 0 1
    outer loop
      vertex 3.15517 -2.29236 4.2
      vertex 2.18435 -1.58702 4.2
      vertex 2.75772 -2.75772 4.2
    endloop
  endfacet
  facet normal -0 0 1
    outer loop
      vertex 1.90919 -1.90919 4.2
      vertex 2.75772 -2.75772 4.2
      vertex 2.18435 -1.58702 4.2
    endloop
  endfacet
  facet normal 0 0 1
    outer loop
      vertex 2.75772 -2.75772 4.2
      vertex 1.90919 -1.90919 4.2
      vertex 2.29236 -3.15517 4.2
    endloop
  endfacet
  facet normal -0 0 1
    outer loop
      vertex 1.58702 -2.18435 4.2
      vertex 2.29236 -3.15517 4.2
      vertex 1.90919 -1.90919 4.2
    endloop
  endfacet
  facet normal 0 0 1
    outer loop
      vertex 2.29236 -3.15517 4.2
      vertex 1.58702 -2.18435 4.2
      vertex 1.77056 -3.47493 4.2
    endloop
  endfacet
  facet normal -0 0 1
    outer loop
      vertex 1.22577 -2.40572 4.2
      vertex 1.77056 -3.47493 4.2
      vertex 1.58702 -2.18435 4.2
    endloop
  endfacet
  facet normal 0 0 1
    outer loop
      vertex 1.22577 -2.40572 4.2
      vertex 1.20517 -3.70912 4.2
      vertex 1.77056 -3.47493 4.2
    endloop
  endfacet
  facet normal -0 0 1
    outer loop
      vertex 0.834346 -2.56785 4.2
      vertex 1.20517 -3.70912 4.2
      vertex 1.22577 -2.40572 4.2
    endloop
  endfacet
  facet normal 0 0 1
    outer loop
      vertex 0.834346 -2.56785 4.2
      vertex 0.610094 -3.85198 4.2
      vertex 1.20517 -3.70912 4.2
    endloop
  endfacet
  facet normal -0 0 1
    outer loop
      vertex 0.422373 -2.66676 4.2
      vertex 0.610094 -3.85198 4.2
      vertex 0.834346 -2.56785 4.2
    endloop
  endfacet
  facet normal -0 0 1
    outer loop
      vertex 0 -2.7 4.2
      vertex 0.610094 -3.85198 4.2
      vertex 0.422373 -2.66676 4.2
    endloop
  endfacet
  facet normal 0 0 1
    outer loop
      vertex 0 -2.7 4.2
      vertex 0 -3.9 4.2
      vertex 0.610094 -3.85198 4.2
    endloop
  endfacet
  facet normal 0 0 1
    outer loop
      vertex -0.422373 -2.66676 4.2
      vertex 0 -3.9 4.2
      vertex 0 -2.7 4.2
    endloop
  endfacet
  facet normal 0 0 1
    outer loop
      vertex -0.422373 -2.66676 4.2
      vertex -0.610094 -3.85198 4.2
      vertex 0 -3.9 4.2
    endloop
  endfacet
  facet normal 0 0 1
    outer loop
      vertex -0.834346 -2.56785 4.2
      vertex -0.610094 -3.85198 4.2
      vertex -0.422373 -2.66676 4.2
    endloop
  endfacet
  facet normal 0 0 1
    outer loop
      vertex -0.834346 -2.56785 4.2
      vertex -1.20517 -3.70912 4.2
      vertex -0.610094 -3.85198 4.2
    endloop
  endfacet
  facet normal 0 0 1
    outer loop
      vertex -1.22577 -2.40572 4.2
      vertex -1.20517 -3.70912 4.2
      vertex -0.834346 -2.56785 4.2
    endloop
  endfacet
  facet normal 0 0 1
    outer loop
      vertex -1.77056 -3.47493 4.2
      vertex -1.22577 -2.40572 4.2
      vertex -1.58702 -2.18435 4.2
    endloop
  endfacet
  facet normal 0 0 1
    outer loop
      vertex -1.22577 -2.40572 4.2
      vertex -1.77056 -3.47493 4.2
      vertex -1.20517 -3.70912 4.2
    endloop
  endfacet
  facet normal 0 0 1
    outer loop
      vertex -2.29236 -3.15517 4.2
      vertex -1.58702 -2.18435 4.2
      vertex -1.90919 -1.90919 4.2
    endloop
  endfacet
  facet normal 0 0 1
    outer loop
      vertex -2.75772 -2.75772 4.2
      vertex -1.90919 -1.90919 4.2
      vertex -2.18435 -1.58702 4.2
    endloop
  endfacet
  facet normal 0 0 1
    outer loop
      vertex -1.58702 -2.18435 4.2
      vertex -2.29236 -3.15517 4.2
      vertex -1.77056 -3.47493 4.2
    endloop
  endfacet
  facet normal 0 0 1
    outer loop
      vertex -3.15517 -2.29236 4.2
      vertex -2.18435 -1.58702 4.2
      vertex -2.40572 -1.22577 4.2
    endloop
  endfacet
  facet normal 0 0 1
    outer loop
      vertex -3.47493 -1.77056 4.2
      vertex -2.40572 -1.22577 4.2
      vertex -2.56785 -0.834346 4.2
    endloop
  endfacet
  facet normal 0 0 1
    outer loop
      vertex -3.70912 -1.20517 4.2
      vertex -2.56785 -0.834346 4.2
      vertex -2.66676 -0.422373 4.2
    endloop
  endfacet
  facet normal 0 0 1
    outer loop
      vertex -1.90919 -1.90919 4.2
      vertex -2.75772 -2.75772 4.2
      vertex -2.29236 -3.15517 4.2
    endloop
  endfacet
  facet normal 0 0 1
    outer loop
      vertex -3.85198 -0.610094 4.2
      vertex -2.66676 -0.422373 4.2
      vertex -2.7 0 4.2
    endloop
  endfacet
  facet normal -0 0 1
    outer loop
      vertex -3.70912 1.20517 4.2
      vertex -2.56785 0.834346 4.2
      vertex -3.47493 1.77056 4.2
    endloop
  endfacet
  facet normal 0 0 1
    outer loop
      vertex -2.56785 0.834346 4.2
      vertex -3.70912 1.20517 4.2
      vertex -2.66676 0.422373 4.2
    endloop
  endfacet
  facet normal 0 0 1
    outer loop
      vertex -2.18435 -1.58702 4.2
      vertex -3.15517 -2.29236 4.2
      vertex -2.75772 -2.75772 4.2
    endloop
  endfacet
  facet normal -0 0 1
    outer loop
      vertex -3.85198 0.610094 4.2
      vertex -2.66676 0.422373 4.2
      vertex -3.70912 1.20517 4.2
    endloop
  endfacet
  facet normal 0 0 1
    outer loop
      vertex -2.40572 -1.22577 4.2
      vertex -3.47493 -1.77056 4.2
      vertex -3.15517 -2.29236 4.2
    endloop
  endfacet
  facet normal 0 0 1
    outer loop
      vertex -2.66676 0.422373 4.2
      vertex -3.85198 0.610094 4.2
      vertex -2.7 0 4.2
    endloop
  endfacet
  facet normal 0 0 1
    outer loop
      vertex -2.56785 -0.834346 4.2
      vertex -3.70912 -1.20517 4.2
      vertex -3.47493 -1.77056 4.2
    endloop
  endfacet
  facet normal 0 0 1
    outer loop
      vertex -3.9 0 4.2
      vertex -2.7 0 4.2
      vertex -3.85198 0.610094 4.2
    endloop
  endfacet
  facet normal 0 0 1
    outer loop
      vertex -2.66676 -0.422373 4.2
      vertex -3.85198 -0.610094 4.2
      vertex -3.70912 -1.20517 4.2
    endloop
  endfacet
  facet normal 0 0 1
    outer loop
      vertex -2.7 0 4.2
      vertex -3.9 0 4.2
      vertex -3.85198 -0.610094 4.2
    endloop
  endfacet
  facet normal -0.654291 0.271013 0.706013
    outer loop
      vertex -3.92043 1.99756 3.7
      vertex -4.18465 1.35967 3.7
      vertex -3.47493 1.77056 4.2
    endloop
  endfacet
  facet normal -0.996917 -0.0784572 0
    outer loop
      vertex -4.34583 -0.688312 0
      vertex -4.4 0 3.7
      vertex -4.4 0 0
    endloop
  endfacet
  facet normal -0.996917 -0.0784572 0
    outer loop
      vertex -4.4 0 3.7
      vertex -4.34583 -0.688312 0
      vertex -4.34583 -0.688312 3.7
    endloop
  endfacet
  facet normal 0 0 -1
    outer loop
      vertex 2.7 0 0
      vertex 4.4 0 0
      vertex 4.34583 -0.688312 0
    endloop
  endfacet
  facet normal 0 0 -1
    outer loop
      vertex 2.66676 -0.422373 0
      vertex 4.34583 -0.688312 0
      vertex 4.18465 -1.35967 0
    endloop
  endfacet
  facet normal 0 0 -1
    outer loop
      vertex 4.4 0 0
      vertex 2.7 0 0
      vertex 4.34583 0.688312 0
    endloop
  endfacet
  facet normal 0 0 -1
    outer loop
      vertex 2.56785 -0.834346 0
      vertex 4.18465 -1.35967 0
      vertex 3.92043 -1.99756 0
    endloop
  endfacet
  facet normal 0 0 -1
    outer loop
      vertex 2.66676 0.422373 0
      vertex 4.34583 0.688312 0
      vertex 2.7 0 0
    endloop
  endfacet
  facet normal 0 0 -1
    outer loop
      vertex 2.40572 -1.22577 0
      vertex 3.92043 -1.99756 0
      vertex 3.55967 -2.58626 0
    endloop
  endfacet
  facet normal -0 0 -1
    outer loop
      vertex 4.34583 0.688312 0
      vertex 2.66676 0.422373 0
      vertex 4.18465 1.35967 0
    endloop
  endfacet
  facet normal 0 0 -1
    outer loop
      vertex 2.18435 -1.58702 0
      vertex 3.55967 -2.58626 0
      vertex 3.11127 -3.11127 0
    endloop
  endfacet
  facet normal 0 0 -1
    outer loop
      vertex 2.56785 0.834346 0
      vertex 4.18465 1.35967 0
      vertex 2.66676 0.422373 0
    endloop
  endfacet
  facet normal -0 0 -1
    outer loop
      vertex 4.18465 1.35967 0
      vertex 2.56785 0.834346 0
      vertex 3.92043 1.99756 0
    endloop
  endfacet
  facet normal 0 0 -1
    outer loop
      vertex 4.34583 -0.688312 0
      vertex 2.66676 -0.422373 0
      vertex 2.7 0 0
    endloop
  endfacet
  facet normal 0 0 -1
    outer loop
      vertex 1.90919 -1.90919 0
      vertex 3.11127 -3.11127 0
      vertex 2.58626 -3.55967 0
    endloop
  endfacet
  facet normal 0 0 -1
    outer loop
      vertex 4.18465 -1.35967 0
      vertex 2.56785 -0.834346 0
      vertex 2.66676 -0.422373 0
    endloop
  endfacet
  facet normal 0 0 -1
    outer loop
      vertex 3.92043 -1.99756 0
      vertex 2.40572 -1.22577 0
      vertex 2.56785 -0.834346 0
    endloop
  endfacet
  facet normal 0 0 -1
    outer loop
      vertex 3.55967 -2.58626 0
      vertex 2.18435 -1.58702 0
      vertex 2.40572 -1.22577 0
    endloop
  endfacet
  facet normal 0 0 -1
    outer loop
      vertex 1.58702 -2.18435 0
      vertex 2.58626 -3.55967 0
      vertex 1.99756 -3.92043 0
    endloop
  endfacet
  facet normal 0 0 -1
    outer loop
      vertex 3.11127 -3.11127 0
      vertex 1.90919 -1.90919 0
      vertex 2.18435 -1.58702 0
    endloop
  endfacet
  facet normal 0 0 -1
    outer loop
      vertex 2.58626 -3.55967 0
      vertex 1.58702 -2.18435 0
      vertex 1.90919 -1.90919 0
    endloop
  endfacet
  facet normal 0 0 -1
    outer loop
      vertex 1.22577 -2.40572 0
      vertex 1.99756 -3.92043 0
      vertex 1.35967 -4.18465 0
    endloop
  endfacet
  facet normal 0 0 -1
    outer loop
      vertex 1.99756 -3.92043 0
      vertex 1.22577 -2.40572 0
      vertex 1.58702 -2.18435 0
    endloop
  endfacet
  facet normal 0 0 -1
    outer loop
      vertex 1.35967 -4.18465 0
      vertex 0.834346 -2.56785 0
      vertex 1.22577 -2.40572 0
    endloop
  endfacet
  facet normal 0 0 -1
    outer loop
      vertex 0.688312 -4.34583 0
      vertex 0.834346 -2.56785 0
      vertex 1.35967 -4.18465 0
    endloop
  endfacet
  facet normal 0 0 -1
    outer loop
      vertex 0.688312 -4.34583 0
      vertex 0.422373 -2.66676 0
      vertex 0.834346 -2.56785 0
    endloop
  endfacet
  facet normal 0 0 -1
    outer loop
      vertex 0 -4.4 0
      vertex 0.422373 -2.66676 0
      vertex 0.688312 -4.34583 0
    endloop
  endfacet
  facet normal 0 0 -1
    outer loop
      vertex 0 -4.4 0
      vertex 0 -2.7 0
      vertex 0.422373 -2.66676 0
    endloop
  endfacet
  facet normal 0 0 -1
    outer loop
      vertex 0 -4.4 0
      vertex -0.422373 -2.66676 0
      vertex 0 -2.7 0
    endloop
  endfacet
  facet normal 0 0 -1
    outer loop
      vertex -0.688312 -4.34583 0
      vertex -0.422373 -2.66676 0
      vertex 0 -4.4 0
    endloop
  endfacet
  facet normal 0 0 -1
    outer loop
      vertex -0.688312 -4.34583 0
      vertex -0.834346 -2.56785 0
      vertex -0.422373 -2.66676 0
    endloop
  endfacet
  facet normal 0 0 -1
    outer loop
      vertex -1.35967 -4.18465 0
      vertex -0.834346 -2.56785 0
      vertex -0.688312 -4.34583 0
    endloop
  endfacet
  facet normal -0 0 -1
    outer loop
      vertex -0.834346 -2.56785 0
      vertex -1.35967 -4.18465 0
      vertex -1.22577 -2.40572 0
    endloop
  endfacet
  facet normal 0 0 -1
    outer loop
      vertex -1.99756 -3.92043 0
      vertex -1.22577 -2.40572 0
      vertex -1.35967 -4.18465 0
    endloop
  endfacet
  facet normal -0 0 -1
    outer loop
      vertex -1.22577 -2.40572 0
      vertex -1.99756 -3.92043 0
      vertex -1.58702 -2.18435 0
    endloop
  endfacet
  facet normal 0 0 -1
    outer loop
      vertex -2.58626 -3.55967 0
      vertex -1.58702 -2.18435 0
      vertex -1.99756 -3.92043 0
    endloop
  endfacet
  facet normal -0 0 -1
    outer loop
      vertex -1.58702 -2.18435 0
      vertex -2.58626 -3.55967 0
      vertex -1.90919 -1.90919 0
    endloop
  endfacet
  facet normal 0 0 -1
    outer loop
      vertex -3.11127 -3.11127 0
      vertex -1.90919 -1.90919 0
      vertex -2.58626 -3.55967 0
    endloop
  endfacet
  facet normal -0 0 -1
    outer loop
      vertex -1.90919 -1.90919 0
      vertex -3.11127 -3.11127 0
      vertex -2.18435 -1.58702 0
    endloop
  endfacet
  facet normal 0 0 -1
    outer loop
      vertex -3.55967 -2.58626 0
      vertex -2.18435 -1.58702 0
      vertex -3.11127 -3.11127 0
    endloop
  endfacet
  facet normal -0 0 -1
    outer loop
      vertex -2.18435 -1.58702 0
      vertex -3.55967 -2.58626 0
      vertex -2.40572 -1.22577 0
    endloop
  endfacet
  facet normal 0 0 -1
    outer loop
      vertex -3.92043 -1.99756 0
      vertex -2.40572 -1.22577 0
      vertex -3.55967 -2.58626 0
    endloop
  endfacet
  facet normal -0 0 -1
    outer loop
      vertex -2.40572 -1.22577 0
      vertex -3.92043 -1.99756 0
      vertex -2.56785 -0.834346 0
    endloop
  endfacet
  facet normal 0 0 -1
    outer loop
      vertex 2.40572 1.22577 0
      vertex 3.92043 1.99756 0
      vertex 2.56785 0.834346 0
    endloop
  endfacet
  facet normal -0 0 -1
    outer loop
      vertex 3.92043 1.99756 0
      vertex 2.40572 1.22577 0
      vertex 3.55967 2.58626 0
    endloop
  endfacet
  facet normal 0 0 -1
    outer loop
      vertex 2.18435 1.58702 0
      vertex 3.55967 2.58626 0
      vertex 2.40572 1.22577 0
    endloop
  endfacet
  facet normal -0 0 -1
    outer loop
      vertex 3.55967 2.58626 0
      vertex 2.18435 1.58702 0
      vertex 3.11127 3.11127 0
    endloop
  endfacet
  facet normal 0 0 -1
    outer loop
      vertex 1.90919 1.90919 0
      vertex 3.11127 3.11127 0
      vertex 2.18435 1.58702 0
    endloop
  endfacet
  facet normal -0 0 -1
    outer loop
      vertex 3.11127 3.11127 0
      vertex 1.90919 1.90919 0
      vertex 2.58626 3.55967 0
    endloop
  endfacet
  facet normal 0 0 -1
    outer loop
      vertex 1.58702 2.18435 0
      vertex 2.58626 3.55967 0
      vertex 1.90919 1.90919 0
    endloop
  endfacet
  facet normal -0 0 -1
    outer loop
      vertex 2.58626 3.55967 0
      vertex 1.58702 2.18435 0
      vertex 1.99756 3.92043 0
    endloop
  endfacet
  facet normal 0 0 -1
    outer loop
      vertex 1.22577 2.40572 0
      vertex 1.99756 3.92043 0
      vertex 1.58702 2.18435 0
    endloop
  endfacet
  facet normal -0 0 -1
    outer loop
      vertex 1.99756 3.92043 0
      vertex 1.22577 2.40572 0
      vertex 1.35967 4.18465 0
    endloop
  endfacet
  facet normal 0 0 -1
    outer loop
      vertex 0.834346 2.56785 0
      vertex 1.35967 4.18465 0
      vertex 1.22577 2.40572 0
    endloop
  endfacet
  facet normal 0 0 -1
    outer loop
      vertex 0.834346 2.56785 0
      vertex 0.688312 4.34583 0
      vertex 1.35967 4.18465 0
    endloop
  endfacet
  facet normal 0 0 -1
    outer loop
      vertex 0.422373 2.66676 0
      vertex 0.688312 4.34583 0
      vertex 0.834346 2.56785 0
    endloop
  endfacet
  facet normal 0 0 -1
    outer loop
      vertex 0 2.7 0
      vertex 0.688312 4.34583 0
      vertex 0.422373 2.66676 0
    endloop
  endfacet
  facet normal 0 0 -1
    outer loop
      vertex 0 2.7 0
      vertex 0 4.4 0
      vertex 0.688312 4.34583 0
    endloop
  endfacet
  facet normal 0 0 -1
    outer loop
      vertex -0.422373 2.66676 0
      vertex 0 4.4 0
      vertex 0 2.7 0
    endloop
  endfacet
  facet normal 0 0 -1
    outer loop
      vertex -0.422373 2.66676 0
      vertex -0.688312 4.34583 0
      vertex 0 4.4 0
    endloop
  endfacet
  facet normal 0 0 -1
    outer loop
      vertex -0.834346 2.56785 0
      vertex -0.688312 4.34583 0
      vertex -0.422373 2.66676 0
    endloop
  endfacet
  facet normal 0 0 -1
    outer loop
      vertex -1.35967 4.18465 0
      vertex -0.834346 2.56785 0
      vertex -1.22577 2.40572 0
    endloop
  endfacet
  facet normal 0 0 -1
    outer loop
      vertex -0.834346 2.56785 0
      vertex -1.35967 4.18465 0
      vertex -0.688312 4.34583 0
    endloop
  endfacet
  facet normal 0 0 -1
    outer loop
      vertex -1.99756 3.92043 0
      vertex -1.22577 2.40572 0
      vertex -1.58702 2.18435 0
    endloop
  endfacet
  facet normal 0 0 -1
    outer loop
      vertex -2.58626 3.55967 0
      vertex -1.58702 2.18435 0
      vertex -1.90919 1.90919 0
    endloop
  endfacet
  facet normal 0 0 -1
    outer loop
      vertex -1.22577 2.40572 0
      vertex -1.99756 3.92043 0
      vertex -1.35967 4.18465 0
    endloop
  endfacet
  facet normal 0 0 -1
    outer loop
      vertex -3.11127 3.11127 0
      vertex -1.90919 1.90919 0
      vertex -2.18435 1.58702 0
    endloop
  endfacet
  facet normal 0 0 -1
    outer loop
      vertex -3.55967 2.58626 0
      vertex -2.18435 1.58702 0
      vertex -2.40572 1.22577 0
    endloop
  endfacet
  facet normal 0 0 -1
    outer loop
      vertex -3.92043 1.99756 0
      vertex -2.40572 1.22577 0
      vertex -2.56785 0.834346 0
    endloop
  endfacet
  facet normal 0 0 -1
    outer loop
      vertex -1.58702 2.18435 0
      vertex -2.58626 3.55967 0
      vertex -1.99756 3.92043 0
    endloop
  endfacet
  facet normal 0 0 -1
    outer loop
      vertex -4.18465 1.35967 0
      vertex -2.56785 0.834346 0
      vertex -2.66676 0.422373 0
    endloop
  endfacet
  facet normal 0 0 -1
    outer loop
      vertex -4.34583 0.688312 0
      vertex -2.66676 0.422373 0
      vertex -2.7 0 0
    endloop
  endfacet
  facet normal 0 0 -1
    outer loop
      vertex -4.18465 -1.35967 0
      vertex -2.56785 -0.834346 0
      vertex -3.92043 -1.99756 0
    endloop
  endfacet
  facet normal 0 0 -1
    outer loop
      vertex -1.90919 1.90919 0
      vertex -3.11127 3.11127 0
      vertex -2.58626 3.55967 0
    endloop
  endfacet
  facet normal -0 0 -1
    outer loop
      vertex -2.56785 -0.834346 0
      vertex -4.18465 -1.35967 0
      vertex -2.66676 -0.422373 0
    endloop
  endfacet
  facet normal 0 0 -1
    outer loop
      vertex -2.18435 1.58702 0
      vertex -3.55967 2.58626 0
      vertex -3.11127 3.11127 0
    endloop
  endfacet
  facet normal 0 0 -1
    outer loop
      vertex -4.34583 -0.688312 0
      vertex -2.66676 -0.422373 0
      vertex -4.18465 -1.35967 0
    endloop
  endfacet
  facet normal 0 0 -1
    outer loop
      vertex -2.40572 1.22577 0
      vertex -3.92043 1.99756 0
      vertex -3.55967 2.58626 0
    endloop
  endfacet
  facet normal -0 0 -1
    outer loop
      vertex -2.66676 -0.422373 0
      vertex -4.34583 -0.688312 0
      vertex -2.7 0 0
    endloop
  endfacet
  facet normal 0 0 -1
    outer loop
      vertex -2.56785 0.834346 0
      vertex -4.18465 1.35967 0
      vertex -3.92043 1.99756 0
    endloop
  endfacet
  facet normal 0 0 -1
    outer loop
      vertex -4.4 0 0
      vertex -2.7 0 0
      vertex -4.34583 -0.688312 0
    endloop
  endfacet
  facet normal 0 0 -1
    outer loop
      vertex -2.66676 0.422373 0
      vertex -4.34583 0.688312 0
      vertex -4.18465 1.35967 0
    endloop
  endfacet
  facet normal 0 0 -1
    outer loop
      vertex -2.7 0 0
      vertex -4.4 0 0
      vertex -4.34583 0.688312 0
    endloop
  endfacet
  facet normal 0.16532 0.688632 0.706014
    outer loop
      vertex 1.35967 4.18465 3.7
      vertex 0.610094 3.85198 4.2
      vertex 1.20517 3.70912 4.2
    endloop
  endfacet
  facet normal -0.70601 -0.0555629 0.706018
    outer loop
      vertex -3.85198 -0.610094 4.2
      vertex -4.4 0 3.7
      vertex -4.34583 -0.688312 3.7
    endloop
  endfacet
  facet normal -0.688626 -0.165326 0.706018
    outer loop
      vertex -3.85198 -0.610094 4.2
      vertex -4.34583 -0.688312 3.7
      vertex -4.18465 -1.35967 3.7
    endloop
  endfacet
  facet normal -0.688632 -0.16532 0.706014
    outer loop
      vertex -3.85198 -0.610094 4.2
      vertex -4.18465 -1.35967 3.7
      vertex -3.70912 -1.20517 4.2
    endloop
  endfacet
  facet normal -0.603839 -0.370034 0.706012
    outer loop
      vertex -3.47493 -1.77056 4.2
      vertex -3.55967 -2.58626 3.7
      vertex -3.15517 -2.29236 4.2
    endloop
  endfacet
  facet normal -0.603836 -0.370035 0.706014
    outer loop
      vertex -3.47493 -1.77056 4.2
      vertex -3.92043 -1.99756 3.7
      vertex -3.55967 -2.58626 3.7
    endloop
  endfacet
  facet normal -0.38268 -0.923881 0
    outer loop
      vertex -1.99756 -3.92043 0
      vertex -1.35967 -4.18465 3.7
      vertex -1.99756 -3.92043 3.7
    endloop
  endfacet
  facet normal -0.38268 -0.923881 -0
    outer loop
      vertex -1.35967 -4.18465 3.7
      vertex -1.99756 -3.92043 0
      vertex -1.35967 -4.18465 0
    endloop
  endfacet
  facet normal -0.0784572 -0.996917 0
    outer loop
      vertex -0.688312 -4.34583 0
      vertex 0 -4.4 3.7
      vertex -0.688312 -4.34583 3.7
    endloop
  endfacet
  facet normal -0.0784572 -0.996917 -0
    outer loop
      vertex 0 -4.4 3.7
      vertex -0.688312 -4.34583 0
      vertex 0 -4.4 0
    endloop
  endfacet
  facet normal 0.0784572 -0.996917 0
    outer loop
      vertex 0 -4.4 0
      vertex 0.688312 -4.34583 3.7
      vertex 0 -4.4 3.7
    endloop
  endfacet
  facet normal 0.0784572 -0.996917 0
    outer loop
      vertex 0.688312 -4.34583 3.7
      vertex 0 -4.4 0
      vertex 0.688312 -4.34583 0
    endloop
  endfacet
  facet normal 0.522503 -0.852637 0
    outer loop
      vertex 1.99756 -3.92043 0
      vertex 2.58626 -3.55967 3.7
      vertex 1.99756 -3.92043 3.7
    endloop
  endfacet
  facet normal 0.522503 -0.852637 0
    outer loop
      vertex 2.58626 -3.55967 3.7
      vertex 1.99756 -3.92043 0
      vertex 2.58626 -3.55967 0
    endloop
  endfacet
  facet normal 0.538521 -0.459939 0.706011
    outer loop
      vertex 3.55967 -2.58626 3.7
      vertex 2.75772 -2.75772 4.2
      vertex 3.11127 -3.11127 3.7
    endloop
  endfacet
  facet normal 0.923881 -0.38268 0
    outer loop
      vertex 3.92043 -1.99756 3.7
      vertex 4.18465 -1.35967 0
      vertex 4.18465 -1.35967 3.7
    endloop
  endfacet
  facet normal 0.923881 -0.38268 0
    outer loop
      vertex 4.18465 -1.35967 0
      vertex 3.92043 -1.99756 3.7
      vertex 3.92043 -1.99756 0
    endloop
  endfacet
  facet normal 0.852637 -0.522503 0
    outer loop
      vertex 3.55967 -2.58626 3.7
      vertex 3.92043 -1.99756 0
      vertex 3.92043 -1.99756 3.7
    endloop
  endfacet
  facet normal 0.852637 -0.522503 0
    outer loop
      vertex 3.92043 -1.99756 0
      vertex 3.55967 -2.58626 3.7
      vertex 3.55967 -2.58626 0
    endloop
  endfacet
  facet normal 0.97237 -0.233447 0
    outer loop
      vertex 4.18465 -1.35967 3.7
      vertex 4.34583 -0.688312 0
      vertex 4.34583 -0.688312 3.7
    endloop
  endfacet
  facet normal 0.97237 -0.233447 0
    outer loop
      vertex 4.34583 -0.688312 0
      vertex 4.18465 -1.35967 3.7
      vertex 4.18465 -1.35967 0
    endloop
  endfacet
  facet normal 0.688626 -0.165326 0.706018
    outer loop
      vertex 4.34583 -0.688312 3.7
      vertex 3.85198 -0.610094 4.2
      vertex 4.18465 -1.35967 3.7
    endloop
  endfacet
  facet normal -0.996917 0.0784572 0
    outer loop
      vertex -4.4 0 0
      vertex -4.34583 0.688312 3.7
      vertex -4.34583 0.688312 0
    endloop
  endfacet
  facet normal -0.996917 0.0784572 0
    outer loop
      vertex -4.34583 0.688312 3.7
      vertex -4.4 0 0
      vertex -4.4 0 3.7
    endloop
  endfacet
  facet normal -0.97237 0.233447 0
    outer loop
      vertex -4.34583 0.688312 0
      vertex -4.18465 1.35967 3.7
      vertex -4.18465 1.35967 0
    endloop
  endfacet
  facet normal -0.97237 0.233447 0
    outer loop
      vertex -4.18465 1.35967 3.7
      vertex -4.34583 0.688312 0
      vertex -4.34583 0.688312 3.7
    endloop
  endfacet
  facet normal -0.688626 0.165326 0.706018
    outer loop
      vertex -4.18465 1.35967 3.7
      vertex -4.34583 0.688312 3.7
      vertex -3.85198 0.610094 4.2
    endloop
  endfacet
  facet normal -0.70601 0.0555629 0.706018
    outer loop
      vertex -4.34583 0.688312 3.7
      vertex -4.4 0 3.7
      vertex -3.85198 0.610094 4.2
    endloop
  endfacet
  facet normal -0.706014 -0.0555698 0.706014
    outer loop
      vertex -3.9 0 4.2
      vertex -4.4 0 3.7
      vertex -3.85198 -0.610094 4.2
    endloop
  endfacet
  facet normal -0.654291 -0.271013 0.706013
    outer loop
      vertex -3.47493 -1.77056 4.2
      vertex -4.18465 -1.35967 3.7
      vertex -3.92043 -1.99756 3.7
    endloop
  endfacet
  facet normal -0.852637 -0.522503 0
    outer loop
      vertex -3.55967 -2.58626 0
      vertex -3.92043 -1.99756 3.7
      vertex -3.92043 -1.99756 0
    endloop
  endfacet
  facet normal -0.852637 -0.522503 0
    outer loop
      vertex -3.92043 -1.99756 3.7
      vertex -3.55967 -2.58626 0
      vertex -3.55967 -2.58626 3.7
    endloop
  endfacet
  facet normal -0.923881 -0.38268 0
    outer loop
      vertex -3.92043 -1.99756 0
      vertex -4.18465 -1.35967 3.7
      vertex -4.18465 -1.35967 0
    endloop
  endfacet
  facet normal -0.923881 -0.38268 0
    outer loop
      vertex -4.18465 -1.35967 3.7
      vertex -3.92043 -1.99756 0
      vertex -3.92043 -1.99756 3.7
    endloop
  endfacet
  facet normal -0.538521 -0.459939 0.706011
    outer loop
      vertex -2.75772 -2.75772 4.2
      vertex -3.55967 -2.58626 3.7
      vertex -3.11127 -3.11127 3.7
    endloop
  endfacet
  facet normal -0.538521 -0.459935 0.706013
    outer loop
      vertex -3.15517 -2.29236 4.2
      vertex -3.55967 -2.58626 3.7
      vertex -2.75772 -2.75772 4.2
    endloop
  endfacet
  facet normal -0.16532 -0.688632 0.706014
    outer loop
      vertex -1.20517 -3.70912 4.2
      vertex -1.35967 -4.18465 3.7
      vertex -0.610094 -3.85198 4.2
    endloop
  endfacet
  facet normal 0.459939 -0.538521 0.706011
    outer loop
      vertex 2.75772 -2.75772 4.2
      vertex 2.58626 -3.55967 3.7
      vertex 3.11127 -3.11127 3.7
    endloop
  endfacet
  facet normal -0.0555629 -0.70601 0.706018
    outer loop
      vertex -0.610094 -3.85198 4.2
      vertex -0.688312 -4.34583 3.7
      vertex 0 -4.4 3.7
    endloop
  endfacet
  facet normal -0.165326 -0.688626 0.706018
    outer loop
      vertex -0.610094 -3.85198 4.2
      vertex -1.35967 -4.18465 3.7
      vertex -0.688312 -4.34583 3.7
    endloop
  endfacet
  facet normal -0.370035 -0.603836 0.706014
    outer loop
      vertex -1.77056 -3.47493 4.2
      vertex -2.58626 -3.55967 3.7
      vertex -1.99756 -3.92043 3.7
    endloop
  endfacet
  facet normal -0.271013 -0.654291 0.706013
    outer loop
      vertex -1.77056 -3.47493 4.2
      vertex -1.99756 -3.92043 3.7
      vertex -1.35967 -4.18465 3.7
    endloop
  endfacet
  facet normal 0.0555698 -0.706014 0.706014
    outer loop
      vertex 0 -3.9 4.2
      vertex 0 -4.4 3.7
      vertex 0.610094 -3.85198 4.2
    endloop
  endfacet
  facet normal 0.271013 -0.654291 0.706013
    outer loop
      vertex 1.77056 -3.47493 4.2
      vertex 1.35967 -4.18465 3.7
      vertex 1.99756 -3.92043 3.7
    endloop
  endfacet
  facet normal 0.233447 -0.97237 0
    outer loop
      vertex 0.688312 -4.34583 0
      vertex 1.35967 -4.18465 3.7
      vertex 0.688312 -4.34583 3.7
    endloop
  endfacet
  facet normal 0.233447 -0.97237 0
    outer loop
      vertex 1.35967 -4.18465 3.7
      vertex 0.688312 -4.34583 0
      vertex 1.35967 -4.18465 0
    endloop
  endfacet
  facet normal 0.0555629 -0.70601 0.706018
    outer loop
      vertex 0.610094 -3.85198 4.2
      vertex 0 -4.4 3.7
      vertex 0.688312 -4.34583 3.7
    endloop
  endfacet
  facet normal 0.760407 -0.649447 0
    outer loop
      vertex 3.11127 -3.11127 3.7
      vertex 3.55967 -2.58626 0
      vertex 3.55967 -2.58626 3.7
    endloop
  endfacet
  facet normal 0.760407 -0.649447 0
    outer loop
      vertex 3.55967 -2.58626 0
      vertex 3.11127 -3.11127 3.7
      vertex 3.11127 -3.11127 0
    endloop
  endfacet
  facet normal 0.538521 -0.459935 0.706013
    outer loop
      vertex 3.15517 -2.29236 4.2
      vertex 2.75772 -2.75772 4.2
      vertex 3.55967 -2.58626 3.7
    endloop
  endfacet
  facet normal 0.654291 -0.271013 0.706013
    outer loop
      vertex 4.18465 -1.35967 3.7
      vertex 3.47493 -1.77056 4.2
      vertex 3.92043 -1.99756 3.7
    endloop
  endfacet
  facet normal 0.603836 -0.370035 0.706014
    outer loop
      vertex 3.92043 -1.99756 3.7
      vertex 3.47493 -1.77056 4.2
      vertex 3.55967 -2.58626 3.7
    endloop
  endfacet
  facet normal 0.654291 -0.271014 0.706013
    outer loop
      vertex 3.70912 -1.20517 4.2
      vertex 3.47493 -1.77056 4.2
      vertex 4.18465 -1.35967 3.7
    endloop
  endfacet
  facet normal 0.688632 -0.16532 0.706014
    outer loop
      vertex 3.85198 -0.610094 4.2
      vertex 3.70912 -1.20517 4.2
      vertex 4.18465 -1.35967 3.7
    endloop
  endfacet
  facet normal -0.271014 -0.654291 0.706013
    outer loop
      vertex -1.20517 -3.70912 4.2
      vertex -1.77056 -3.47493 4.2
      vertex -1.35967 -4.18465 3.7
    endloop
  endfacet
  facet normal -0.459935 -0.538521 0.706013
    outer loop
      vertex -2.29236 -3.15517 4.2
      vertex -2.75772 -2.75772 4.2
      vertex -2.58626 -3.55967 3.7
    endloop
  endfacet
  facet normal 0.370034 -0.603839 0.706012
    outer loop
      vertex 2.29236 -3.15517 4.2
      vertex 1.77056 -3.47493 4.2
      vertex 2.58626 -3.55967 3.7
    endloop
  endfacet
  facet normal 0.459935 -0.538521 0.706013
    outer loop
      vertex 2.75772 -2.75772 4.2
      vertex 2.29236 -3.15517 4.2
      vertex 2.58626 -3.55967 3.7
    endloop
  endfacet
  facet normal 0.271014 -0.654291 0.706013
    outer loop
      vertex 1.77056 -3.47493 4.2
      vertex 1.20517 -3.70912 4.2
      vertex 1.35967 -4.18465 3.7
    endloop
  endfacet
  facet normal 0.16532 -0.688632 0.706014
    outer loop
      vertex 1.20517 -3.70912 4.2
      vertex 0.610094 -3.85198 4.2
      vertex 1.35967 -4.18465 3.7
    endloop
  endfacet
  facet normal -0.649449 -0.760405 0
    outer loop
      vertex 1.58702 2.18435 0
      vertex 1.90919 1.90919 4.2
      vertex 1.58702 2.18435 4.2
    endloop
  endfacet
  facet normal -0.649449 -0.760405 -0
    outer loop
      vertex 1.90919 1.90919 4.2
      vertex 1.58702 2.18435 0
      vertex 1.90919 1.90919 0
    endloop
  endfacet
  facet normal 0.972368 -0.233454 0
    outer loop
      vertex -2.66676 0.422373 4.2
      vertex -2.56785 0.834346 0
      vertex -2.56785 0.834346 4.2
    endloop
  endfacet
  facet normal 0.972368 -0.233454 0
    outer loop
      vertex -2.56785 0.834346 0
      vertex -2.66676 0.422373 4.2
      vertex -2.66676 0.422373 0
    endloop
  endfacet
  facet normal 0.233454 0.972368 -0
    outer loop
      vertex -0.422373 -2.66676 0
      vertex -0.834346 -2.56785 4.2
      vertex -0.422373 -2.66676 4.2
    endloop
  endfacet
  facet normal 0.233454 0.972368 0
    outer loop
      vertex -0.834346 -2.56785 4.2
      vertex -0.422373 -2.66676 0
      vertex -0.834346 -2.56785 0
    endloop
  endfacet
  facet normal 0.233454 -0.972368 0
    outer loop
      vertex -0.834346 2.56785 0
      vertex -0.422373 2.66676 4.2
      vertex -0.834346 2.56785 4.2
    endloop
  endfacet
  facet normal 0.233454 -0.972368 0
    outer loop
      vertex -0.422373 2.66676 4.2
      vertex -0.834346 2.56785 0
      vertex -0.422373 2.66676 0
    endloop
  endfacet
  facet normal 0.923882 -0.382677 0
    outer loop
      vertex -2.56785 0.834346 4.2
      vertex -2.40572 1.22577 0
      vertex -2.40572 1.22577 4.2
    endloop
  endfacet
  facet normal 0.923882 -0.382677 0
    outer loop
      vertex -2.40572 1.22577 0
      vertex -2.56785 0.834346 4.2
      vertex -2.56785 0.834346 0
    endloop
  endfacet
  facet normal -0.923882 0.382677 0
    outer loop
      vertex 2.40572 -1.22577 0
      vertex 2.56785 -0.834346 4.2
      vertex 2.56785 -0.834346 0
    endloop
  endfacet
  facet normal -0.923882 0.382677 0
    outer loop
      vertex 2.56785 -0.834346 4.2
      vertex 2.40572 -1.22577 0
      vertex 2.40572 -1.22577 4.2
    endloop
  endfacet
  facet normal -0.923882 -0.382677 0
    outer loop
      vertex 2.56785 0.834346 0
      vertex 2.40572 1.22577 4.2
      vertex 2.40572 1.22577 0
    endloop
  endfacet
  facet normal -0.923882 -0.382677 0
    outer loop
      vertex 2.40572 1.22577 4.2
      vertex 2.56785 0.834346 0
      vertex 2.56785 0.834346 4.2
    endloop
  endfacet
  facet normal -0.852645 -0.522491 0
    outer loop
      vertex 2.40572 1.22577 0
      vertex 2.18435 1.58702 4.2
      vertex 2.18435 1.58702 0
    endloop
  endfacet
  facet normal -0.852645 -0.522491 0
    outer loop
      vertex 2.18435 1.58702 4.2
      vertex 2.40572 1.22577 0
      vertex 2.40572 1.22577 4.2
    endloop
  endfacet
  facet normal -0.760405 -0.649449 0
    outer loop
      vertex 2.18435 1.58702 0
      vertex 1.90919 1.90919 4.2
      vertex 1.90919 1.90919 0
    endloop
  endfacet
  facet normal -0.760405 -0.649449 0
    outer loop
      vertex 1.90919 1.90919 4.2
      vertex 2.18435 1.58702 0
      vertex 2.18435 1.58702 4.2
    endloop
  endfacet
  facet normal -0.382677 -0.923882 0
    outer loop
      vertex 0.834346 2.56785 0
      vertex 1.22577 2.40572 4.2
      vertex 0.834346 2.56785 4.2
    endloop
  endfacet
  facet normal -0.382677 -0.923882 -0
    outer loop
      vertex 1.22577 2.40572 4.2
      vertex 0.834346 2.56785 0
      vertex 1.22577 2.40572 0
    endloop
  endfacet
  facet normal -0.0784556 -0.996918 0
    outer loop
      vertex 0 2.7 0
      vertex 0.422373 2.66676 4.2
      vertex 0 2.7 4.2
    endloop
  endfacet
  facet normal -0.0784556 -0.996918 -0
    outer loop
      vertex 0.422373 2.66676 4.2
      vertex 0 2.7 0
      vertex 0.422373 2.66676 0
    endloop
  endfacet
  facet normal -0.233454 -0.972368 0
    outer loop
      vertex 0.422373 2.66676 0
      vertex 0.834346 2.56785 4.2
      vertex 0.422373 2.66676 4.2
    endloop
  endfacet
  facet normal -0.233454 -0.972368 -0
    outer loop
      vertex 0.834346 2.56785 4.2
      vertex 0.422373 2.66676 0
      vertex 0.834346 2.56785 0
    endloop
  endfacet
  facet normal 0.996918 -0.0784556 0
    outer loop
      vertex -2.7 0 4.2
      vertex -2.66676 0.422373 0
      vertex -2.66676 0.422373 4.2
    endloop
  endfacet
  facet normal 0.996918 -0.0784556 0
    outer loop
      vertex -2.66676 0.422373 0
      vertex -2.7 0 4.2
      vertex -2.7 0 0
    endloop
  endfacet
  facet normal 0.760405 -0.649449 0
    outer loop
      vertex -2.18435 1.58702 4.2
      vertex -1.90919 1.90919 0
      vertex -1.90919 1.90919 4.2
    endloop
  endfacet
  facet normal 0.760405 -0.649449 0
    outer loop
      vertex -1.90919 1.90919 0
      vertex -2.18435 1.58702 4.2
      vertex -2.18435 1.58702 0
    endloop
  endfacet
  facet normal 0.0784556 -0.996918 0
    outer loop
      vertex -0.422373 2.66676 0
      vertex 0 2.7 4.2
      vertex -0.422373 2.66676 4.2
    endloop
  endfacet
  facet normal 0.0784556 -0.996918 0
    outer loop
      vertex 0 2.7 4.2
      vertex -0.422373 2.66676 0
      vertex 0 2.7 0
    endloop
  endfacet
  facet normal 0.649449 -0.760405 0
    outer loop
      vertex -1.90919 1.90919 0
      vertex -1.58702 2.18435 4.2
      vertex -1.90919 1.90919 4.2
    endloop
  endfacet
  facet normal 0.649449 -0.760405 0
    outer loop
      vertex -1.58702 2.18435 4.2
      vertex -1.90919 1.90919 0
      vertex -1.58702 2.18435 0
    endloop
  endfacet
  facet normal -0.996918 -0.0784556 0
    outer loop
      vertex 2.7 0 0
      vertex 2.66676 0.422373 4.2
      vertex 2.66676 0.422373 0
    endloop
  endfacet
  facet normal -0.996918 -0.0784556 0
    outer loop
      vertex 2.66676 0.422373 4.2
      vertex 2.7 0 0
      vertex 2.7 0 4.2
    endloop
  endfacet
  facet normal -0.0784556 0.996918 0
    outer loop
      vertex 0.422373 -2.66676 0
      vertex 0 -2.7 4.2
      vertex 0.422373 -2.66676 4.2
    endloop
  endfacet
  facet normal -0.0784556 0.996918 0
    outer loop
      vertex 0 -2.7 4.2
      vertex 0.422373 -2.66676 0
      vertex 0 -2.7 0
    endloop
  endfacet
  facet normal -0.233454 0.972368 0
    outer loop
      vertex 0.834346 -2.56785 0
      vertex 0.422373 -2.66676 4.2
      vertex 0.834346 -2.56785 4.2
    endloop
  endfacet
  facet normal -0.233454 0.972368 0
    outer loop
      vertex 0.422373 -2.66676 4.2
      vertex 0.834346 -2.56785 0
      vertex 0.422373 -2.66676 0
    endloop
  endfacet
  facet normal -0.760405 0.649449 0
    outer loop
      vertex 1.90919 -1.90919 0
      vertex 2.18435 -1.58702 4.2
      vertex 2.18435 -1.58702 0
    endloop
  endfacet
  facet normal -0.760405 0.649449 0
    outer loop
      vertex 2.18435 -1.58702 4.2
      vertex 1.90919 -1.90919 0
      vertex 1.90919 -1.90919 4.2
    endloop
  endfacet
  facet normal 0.0784556 0.996918 -0
    outer loop
      vertex 0 -2.7 0
      vertex -0.422373 -2.66676 4.2
      vertex 0 -2.7 4.2
    endloop
  endfacet
  facet normal 0.0784556 0.996918 0
    outer loop
      vertex -0.422373 -2.66676 4.2
      vertex 0 -2.7 0
      vertex -0.422373 -2.66676 0
    endloop
  endfacet
  facet normal 0.649449 0.760405 -0
    outer loop
      vertex -1.58702 -2.18435 0
      vertex -1.90919 -1.90919 4.2
      vertex -1.58702 -2.18435 4.2
    endloop
  endfacet
  facet normal 0.649449 0.760405 0
    outer loop
      vertex -1.90919 -1.90919 4.2
      vertex -1.58702 -2.18435 0
      vertex -1.90919 -1.90919 0
    endloop
  endfacet
  facet normal 0.996918 0.0784556 0
    outer loop
      vertex -2.66676 -0.422373 4.2
      vertex -2.7 0 0
      vertex -2.7 0 4.2
    endloop
  endfacet
  facet normal 0.996918 0.0784556 0
    outer loop
      vertex -2.7 0 0
      vertex -2.66676 -0.422373 4.2
      vertex -2.66676 -0.422373 0
    endloop
  endfacet
  facet normal 0.760405 0.649449 0
    outer loop
      vertex -1.90919 -1.90919 4.2
      vertex -2.18435 -1.58702 0
      vertex -2.18435 -1.58702 4.2
    endloop
  endfacet
  facet normal 0.760405 0.649449 0
    outer loop
      vertex -2.18435 -1.58702 0
      vertex -1.90919 -1.90919 4.2
      vertex -1.90919 -1.90919 0
    endloop
  endfacet
  facet normal -0.972368 -0.233454 0
    outer loop
      vertex 2.66676 0.422373 0
      vertex 2.56785 0.834346 4.2
      vertex 2.56785 0.834346 0
    endloop
  endfacet
  facet normal -0.972368 -0.233454 0
    outer loop
      vertex 2.56785 0.834346 4.2
      vertex 2.66676 0.422373 0
      vertex 2.66676 0.422373 4.2
    endloop
  endfacet
  facet normal -0.522491 -0.852645 0
    outer loop
      vertex 1.22577 2.40572 0
      vertex 1.58702 2.18435 4.2
      vertex 1.22577 2.40572 4.2
    endloop
  endfacet
  facet normal -0.522491 -0.852645 -0
    outer loop
      vertex 1.58702 2.18435 4.2
      vertex 1.22577 2.40572 0
      vertex 1.58702 2.18435 0
    endloop
  endfacet
  facet normal 0.852645 -0.522491 0
    outer loop
      vertex -2.40572 1.22577 4.2
      vertex -2.18435 1.58702 0
      vertex -2.18435 1.58702 4.2
    endloop
  endfacet
  facet normal 0.852645 -0.522491 0
    outer loop
      vertex -2.18435 1.58702 0
      vertex -2.40572 1.22577 4.2
      vertex -2.40572 1.22577 0
    endloop
  endfacet
  facet normal 0.522491 -0.852645 0
    outer loop
      vertex -1.58702 2.18435 0
      vertex -1.22577 2.40572 4.2
      vertex -1.58702 2.18435 4.2
    endloop
  endfacet
  facet normal 0.522491 -0.852645 0
    outer loop
      vertex -1.22577 2.40572 4.2
      vertex -1.58702 2.18435 0
      vertex -1.22577 2.40572 0
    endloop
  endfacet
  facet normal 0.382677 -0.923882 0
    outer loop
      vertex -1.22577 2.40572 0
      vertex -0.834346 2.56785 4.2
      vertex -1.22577 2.40572 4.2
    endloop
  endfacet
  facet normal 0.382677 -0.923882 0
    outer loop
      vertex -0.834346 2.56785 4.2
      vertex -1.22577 2.40572 0
      vertex -0.834346 2.56785 0
    endloop
  endfacet
  facet normal -0.972368 0.233454 0
    outer loop
      vertex 2.56785 -0.834346 0
      vertex 2.66676 -0.422373 4.2
      vertex 2.66676 -0.422373 0
    endloop
  endfacet
  facet normal -0.972368 0.233454 0
    outer loop
      vertex 2.66676 -0.422373 4.2
      vertex 2.56785 -0.834346 0
      vertex 2.56785 -0.834346 4.2
    endloop
  endfacet
  facet normal -0.649449 0.760405 0
    outer loop
      vertex 1.90919 -1.90919 0
      vertex 1.58702 -2.18435 4.2
      vertex 1.90919 -1.90919 4.2
    endloop
  endfacet
  facet normal -0.649449 0.760405 0
    outer loop
      vertex 1.58702 -2.18435 4.2
      vertex 1.90919 -1.90919 0
      vertex 1.58702 -2.18435 0
    endloop
  endfacet
  facet normal -0.382677 0.923882 0
    outer loop
      vertex 1.22577 -2.40572 0
      vertex 0.834346 -2.56785 4.2
      vertex 1.22577 -2.40572 4.2
    endloop
  endfacet
  facet normal -0.382677 0.923882 0
    outer loop
      vertex 0.834346 -2.56785 4.2
      vertex 1.22577 -2.40572 0
      vertex 0.834346 -2.56785 0
    endloop
  endfacet
  facet normal -0.852645 0.522491 0
    outer loop
      vertex 2.18435 -1.58702 0
      vertex 2.40572 -1.22577 4.2
      vertex 2.40572 -1.22577 0
    endloop
  endfacet
  facet normal -0.852645 0.522491 0
    outer loop
      vertex 2.40572 -1.22577 4.2
      vertex 2.18435 -1.58702 0
      vertex 2.18435 -1.58702 4.2
    endloop
  endfacet
  facet normal 0.522491 0.852645 -0
    outer loop
      vertex -1.22577 -2.40572 0
      vertex -1.58702 -2.18435 4.2
      vertex -1.22577 -2.40572 4.2
    endloop
  endfacet
  facet normal 0.522491 0.852645 0
    outer loop
      vertex -1.58702 -2.18435 4.2
      vertex -1.22577 -2.40572 0
      vertex -1.58702 -2.18435 0
    endloop
  endfacet
  facet normal 0.972368 0.233454 0
    outer loop
      vertex -2.56785 -0.834346 4.2
      vertex -2.66676 -0.422373 0
      vertex -2.66676 -0.422373 4.2
    endloop
  endfacet
  facet normal 0.972368 0.233454 0
    outer loop
      vertex -2.66676 -0.422373 0
      vertex -2.56785 -0.834346 4.2
      vertex -2.56785 -0.834346 0
    endloop
  endfacet
  facet normal 0.923882 0.382677 0
    outer loop
      vertex -2.40572 -1.22577 4.2
      vertex -2.56785 -0.834346 0
      vertex -2.56785 -0.834346 4.2
    endloop
  endfacet
  facet normal 0.923882 0.382677 0
    outer loop
      vertex -2.56785 -0.834346 0
      vertex -2.40572 -1.22577 4.2
      vertex -2.40572 -1.22577 0
    endloop
  endfacet
  facet normal -0.996918 0.0784556 0
    outer loop
      vertex 2.66676 -0.422373 0
      vertex 2.7 0 4.2
      vertex 2.7 0 0
    endloop
  endfacet
  facet normal -0.996918 0.0784556 0
    outer loop
      vertex 2.7 0 4.2
      vertex 2.66676 -0.422373 0
      vertex 2.66676 -0.422373 4.2
    endloop
  endfacet
  facet normal -0.522491 0.852645 0
    outer loop
      vertex 1.58702 -2.18435 0
      vertex 1.22577 -2.40572 4.2
      vertex 1.58702 -2.18435 4.2
    endloop
  endfacet
  facet normal -0.522491 0.852645 0
    outer loop
      vertex 1.22577 -2.40572 4.2
      vertex 1.58702 -2.18435 0
      vertex 1.22577 -2.40572 0
    endloop
  endfacet
  facet normal 0.382677 0.923882 -0
    outer loop
      vertex -0.834346 -2.56785 0
      vertex -1.22577 -2.40572 4.2
      vertex -0.834346 -2.56785 4.2
    endloop
  endfacet
  facet normal 0.382677 0.923882 0
    outer loop
      vertex -1.22577 -2.40572 4.2
      vertex -0.834346 -2.56785 0
      vertex -1.22577 -2.40572 0
    endloop
  endfacet
  facet normal 0.852645 0.522491 0
    outer loop
      vertex -2.18435 -1.58702 4.2
      vertex -2.40572 -1.22577 0
      vertex -2.40572 -1.22577 4.2
    endloop
  endfacet
  facet normal 0.852645 0.522491 0
    outer loop
      vertex -2.40572 -1.22577 0
      vertex -2.18435 -1.58702 4.2
      vertex -2.18435 -1.58702 0
    endloop
  endfacet
endsolid OpenSCAD_Model
