solid OpenSCAD_Model
  facet normal 0.649441 0.760412 -0
    outer loop
      vertex 2.65165 2.65165 0
      vertex 2.20419 3.03381 1
      vertex 2.65165 2.65165 1
    endloop
  endfacet
  facet normal 0.649441 0.760412 0
    outer loop
      vertex 2.20419 3.03381 1
      vertex 2.65165 2.65165 0
      vertex 2.20419 3.03381 0
    endloop
  endfacet
  facet normal 0.972369 -0.233448 0
    outer loop
      vertex 3.56646 -1.15881 1
      vertex 3.70383 -0.586629 0
      vertex 3.70383 -0.586629 1
    endloop
  endfacet
  facet normal 0.972369 -0.233448 0
    outer loop
      vertex 3.70383 -0.586629 0
      vertex 3.56646 -1.15881 1
      vertex 3.56646 -1.15881 0
    endloop
  endfacet
  facet normal -0.382687 -0.923878 0
    outer loop
      vertex -1.70246 -3.34127 0
      vertex -1.15881 -3.56646 1
      vertex -1.70246 -3.34127 1
    endloop
  endfacet
  facet normal -0.382687 -0.923878 -0
    outer loop
      vertex -1.15881 -3.56646 1
      vertex -1.70246 -3.34127 0
      vertex -1.15881 -3.56646 0
    endloop
  endfacet
  facet normal -0.382687 0.923878 0
    outer loop
      vertex -1.15881 3.56646 0
      vertex -1.70246 3.34127 1
      vertex -1.15881 3.56646 1
    endloop
  endfacet
  facet normal -0.382687 0.923878 0
    outer loop
      vertex -1.70246 3.34127 1
      vertex -1.15881 3.56646 0
      vertex -1.70246 3.34127 0
    endloop
  endfacet
  facet normal -0.852641 0.522498 0
    outer loop
      vertex -3.34127 1.70246 0
      vertex -3.03381 2.20419 1
      vertex -3.03381 2.20419 0
    endloop
  endfacet
  facet normal -0.852641 0.522498 0
    outer loop
      vertex -3.03381 2.20419 1
      vertex -3.34127 1.70246 0
      vertex -3.34127 1.70246 1
    endloop
  endfacet
  facet normal 0.972369 0.233448 0
    outer loop
      vertex 3.70383 0.586629 1
      vertex 3.56646 1.15881 0
      vertex 3.56646 1.15881 1
    endloop
  endfacet
  facet normal 0.972369 0.233448 0
    outer loop
      vertex 3.56646 1.15881 0
      vertex 3.70383 0.586629 1
      vertex 3.70383 0.586629 0
    endloop
  endfacet
  facet normal 0.923878 0.382687 0
    outer loop
      vertex 3.56646 1.15881 1
      vertex 3.34127 1.70246 0
      vertex 3.34127 1.70246 1
    endloop
  endfacet
  facet normal 0.923878 0.382687 0
    outer loop
      vertex 3.34127 1.70246 0
      vertex 3.56646 1.15881 1
      vertex 3.56646 1.15881 0
    endloop
  endfacet
  facet normal 0.852641 0.522498 0
    outer loop
      vertex 3.34127 1.70246 1
      vertex 3.03381 2.20419 0
      vertex 3.03381 2.20419 1
    endloop
  endfacet
  facet normal 0.852641 0.522498 0
    outer loop
      vertex 3.03381 2.20419 0
      vertex 3.34127 1.70246 1
      vertex 3.34127 1.70246 0
    endloop
  endfacet
  facet normal 0.760412 0.649441 0
    outer loop
      vertex 3.03381 2.20419 1
      vertex 2.65165 2.65165 0
      vertex 2.65165 2.65165 1
    endloop
  endfacet
  facet normal 0.760412 0.649441 0
    outer loop
      vertex 2.65165 2.65165 0
      vertex 3.03381 2.20419 1
      vertex 3.03381 2.20419 0
    endloop
  endfacet
  facet normal 0.522498 0.852641 -0
    outer loop
      vertex 2.20419 3.03381 0
      vertex 1.70246 3.34127 1
      vertex 2.20419 3.03381 1
    endloop
  endfacet
  facet normal 0.522498 0.852641 0
    outer loop
      vertex 1.70246 3.34127 1
      vertex 2.20419 3.03381 0
      vertex 1.70246 3.34127 0
    endloop
  endfacet
  facet normal 0.382687 0.923878 -0
    outer loop
      vertex 1.70246 3.34127 0
      vertex 1.15881 3.56646 1
      vertex 1.70246 3.34127 1
    endloop
  endfacet
  facet normal 0.382687 0.923878 0
    outer loop
      vertex 1.15881 3.56646 1
      vertex 1.70246 3.34127 0
      vertex 1.15881 3.56646 0
    endloop
  endfacet
  facet normal 0.233448 0.972369 -0
    outer loop
      vertex 1.15881 3.56646 0
      vertex 0.586629 3.70383 1
      vertex 1.15881 3.56646 1
    endloop
  endfacet
  facet normal 0.233448 0.972369 0
    outer loop
      vertex 0.586629 3.70383 1
      vertex 1.15881 3.56646 0
      vertex 0.586629 3.70383 0
    endloop
  endfacet
  facet normal -0.972369 0.233448 0
    outer loop
      vertex -3.70383 0.586629 0
      vertex -3.56646 1.15881 1
      vertex -3.56646 1.15881 0
    endloop
  endfacet
  facet normal -0.972369 0.233448 0
    outer loop
      vertex -3.56646 1.15881 1
      vertex -3.70383 0.586629 0
      vertex -3.70383 0.586629 1
    endloop
  endfacet
  facet normal -0.760412 0.649441 0
    outer loop
      vertex -3.03381 2.20419 0
      vertex -2.65165 2.65165 1
      vertex -2.65165 2.65165 0
    endloop
  endfacet
  facet normal -0.760412 0.649441 0
    outer loop
      vertex -2.65165 2.65165 1
      vertex -3.03381 2.20419 0
      vertex -3.03381 2.20419 1
    endloop
  endfacet
  facet normal -0.522498 0.852641 0
    outer loop
      vertex -1.70246 3.34127 0
      vertex -2.20419 3.03381 1
      vertex -1.70246 3.34127 1
    endloop
  endfacet
  facet normal -0.522498 0.852641 0
    outer loop
      vertex -2.20419 3.03381 1
      vertex -1.70246 3.34127 0
      vertex -2.20419 3.03381 0
    endloop
  endfacet
  facet normal -0.233448 0.972369 0
    outer loop
      vertex -0.586629 3.70383 0
      vertex -1.15881 3.56646 1
      vertex -0.586629 3.70383 1
    endloop
  endfacet
  facet normal -0.233448 0.972369 0
    outer loop
      vertex -1.15881 3.56646 1
      vertex -0.586629 3.70383 0
      vertex -1.15881 3.56646 0
    endloop
  endfacet
  facet normal -0.649441 0.760412 0
    outer loop
      vertex -2.20419 3.03381 0
      vertex -2.65165 2.65165 1
      vertex -2.20419 3.03381 1
    endloop
  endfacet
  facet normal -0.649441 0.760412 0
    outer loop
      vertex -2.65165 2.65165 1
      vertex -2.20419 3.03381 0
      vertex -2.65165 2.65165 0
    endloop
  endfacet
  facet normal 0.996917 0.0784613 0
    outer loop
      vertex 3.75 0 1
      vertex 3.70383 0.586629 0
      vertex 3.70383 0.586629 1
    endloop
  endfacet
  facet normal 0.996917 0.0784613 0
    outer loop
      vertex 3.70383 0.586629 0
      vertex 3.75 0 1
      vertex 3.75 0 0
    endloop
  endfacet
  facet normal 0.760412 -0.649441 0
    outer loop
      vertex 2.65165 -2.65165 1
      vertex 3.03381 -2.20419 0
      vertex 3.03381 -2.20419 1
    endloop
  endfacet
  facet normal 0.760412 -0.649441 0
    outer loop
      vertex 3.03381 -2.20419 0
      vertex 2.65165 -2.65165 1
      vertex 2.65165 -2.65165 0
    endloop
  endfacet
  facet normal 0.923878 -0.382687 0
    outer loop
      vertex 3.34127 -1.70246 1
      vertex 3.56646 -1.15881 0
      vertex 3.56646 -1.15881 1
    endloop
  endfacet
  facet normal 0.923878 -0.382687 0
    outer loop
      vertex 3.56646 -1.15881 0
      vertex 3.34127 -1.70246 1
      vertex 3.34127 -1.70246 0
    endloop
  endfacet
  facet normal 0.382687 -0.923878 0
    outer loop
      vertex 1.15881 -3.56646 0
      vertex 1.70246 -3.34127 1
      vertex 1.15881 -3.56646 1
    endloop
  endfacet
  facet normal 0.382687 -0.923878 0
    outer loop
      vertex 1.70246 -3.34127 1
      vertex 1.15881 -3.56646 0
      vertex 1.70246 -3.34127 0
    endloop
  endfacet
  facet normal 0.522498 -0.852641 0
    outer loop
      vertex 1.70246 -3.34127 0
      vertex 2.20419 -3.03381 1
      vertex 1.70246 -3.34127 1
    endloop
  endfacet
  facet normal 0.522498 -0.852641 0
    outer loop
      vertex 2.20419 -3.03381 1
      vertex 1.70246 -3.34127 0
      vertex 2.20419 -3.03381 0
    endloop
  endfacet
  facet normal -0.233448 -0.972369 0
    outer loop
      vertex -1.15881 -3.56646 0
      vertex -0.586629 -3.70383 1
      vertex -1.15881 -3.56646 1
    endloop
  endfacet
  facet normal -0.233448 -0.972369 -0
    outer loop
      vertex -0.586629 -3.70383 1
      vertex -1.15881 -3.56646 0
      vertex -0.586629 -3.70383 0
    endloop
  endfacet
  facet normal -0.649441 -0.760412 0
    outer loop
      vertex -2.65165 -2.65165 0
      vertex -2.20419 -3.03381 1
      vertex -2.65165 -2.65165 1
    endloop
  endfacet
  facet normal -0.649441 -0.760412 -0
    outer loop
      vertex -2.20419 -3.03381 1
      vertex -2.65165 -2.65165 0
      vertex -2.20419 -3.03381 0
    endloop
  endfacet
  facet normal -0.852641 -0.522498 0
    outer loop
      vertex -3.03381 -2.20419 0
      vertex -3.34127 -1.70246 1
      vertex -3.34127 -1.70246 0
    endloop
  endfacet
  facet normal -0.852641 -0.522498 0
    outer loop
      vertex -3.34127 -1.70246 1
      vertex -3.03381 -2.20419 0
      vertex -3.03381 -2.20419 1
    endloop
  endfacet
  facet normal 0 0 -1
    outer loop
      vertex 2.1 0 0
      vertex 3.75 0 0
      vertex 3.70383 -0.586629 0
    endloop
  endfacet
  facet normal 0 0 -1
    outer loop
      vertex 2.07415 -0.328512 0
      vertex 3.70383 -0.586629 0
      vertex 3.56646 -1.15881 0
    endloop
  endfacet
  facet normal 0 0 -1
    outer loop
      vertex 3.75 0 0
      vertex 2.1 0 0
      vertex 3.70383 0.586629 0
    endloop
  endfacet
  facet normal 0 0 -1
    outer loop
      vertex 1.99722 -0.648935 0
      vertex 3.56646 -1.15881 0
      vertex 3.34127 -1.70246 0
    endloop
  endfacet
  facet normal 0 0 -1
    outer loop
      vertex 2.07415 0.328512 0
      vertex 3.70383 0.586629 0
      vertex 2.1 0 0
    endloop
  endfacet
  facet normal 0 0 -1
    outer loop
      vertex 1.87111 -0.95338 0
      vertex 3.34127 -1.70246 0
      vertex 3.03381 -2.20419 0
    endloop
  endfacet
  facet normal -0 0 -1
    outer loop
      vertex 3.70383 0.586629 0
      vertex 2.07415 0.328512 0
      vertex 3.56646 1.15881 0
    endloop
  endfacet
  facet normal 0 0 -1
    outer loop
      vertex 1.69894 -1.23435 0
      vertex 3.03381 -2.20419 0
      vertex 2.65165 -2.65165 0
    endloop
  endfacet
  facet normal 0 0 -1
    outer loop
      vertex 1.99722 0.648935 0
      vertex 3.56646 1.15881 0
      vertex 2.07415 0.328512 0
    endloop
  endfacet
  facet normal 0 0 -1
    outer loop
      vertex 1.48492 -1.48492 0
      vertex 2.65165 -2.65165 0
      vertex 2.20419 -3.03381 0
    endloop
  endfacet
  facet normal -0 0 -1
    outer loop
      vertex 3.56646 1.15881 0
      vertex 1.99722 0.648935 0
      vertex 3.34127 1.70246 0
    endloop
  endfacet
  facet normal 0 0 -1
    outer loop
      vertex 1.87111 0.95338 0
      vertex 3.34127 1.70246 0
      vertex 1.99722 0.648935 0
    endloop
  endfacet
  facet normal 0 0 -1
    outer loop
      vertex 3.70383 -0.586629 0
      vertex 2.07415 -0.328512 0
      vertex 2.1 0 0
    endloop
  endfacet
  facet normal 0 0 -1
    outer loop
      vertex 3.56646 -1.15881 0
      vertex 1.99722 -0.648935 0
      vertex 2.07415 -0.328512 0
    endloop
  endfacet
  facet normal 0 0 -1
    outer loop
      vertex 3.34127 -1.70246 0
      vertex 1.87111 -0.95338 0
      vertex 1.99722 -0.648935 0
    endloop
  endfacet
  facet normal 0 0 -1
    outer loop
      vertex 1.23435 -1.69894 0
      vertex 2.20419 -3.03381 0
      vertex 1.70246 -3.34127 0
    endloop
  endfacet
  facet normal 0 0 -1
    outer loop
      vertex 3.03381 -2.20419 0
      vertex 1.69894 -1.23435 0
      vertex 1.87111 -0.95338 0
    endloop
  endfacet
  facet normal 0 0 -1
    outer loop
      vertex 2.65165 -2.65165 0
      vertex 1.48492 -1.48492 0
      vertex 1.69894 -1.23435 0
    endloop
  endfacet
  facet normal 0 0 -1
    outer loop
      vertex 2.20419 -3.03381 0
      vertex 1.23435 -1.69894 0
      vertex 1.48492 -1.48492 0
    endloop
  endfacet
  facet normal 0 0 -1
    outer loop
      vertex 0.95338 -1.87111 0
      vertex 1.70246 -3.34127 0
      vertex 1.15881 -3.56646 0
    endloop
  endfacet
  facet normal 0 0 -1
    outer loop
      vertex 1.70246 -3.34127 0
      vertex 0.95338 -1.87111 0
      vertex 1.23435 -1.69894 0
    endloop
  endfacet
  facet normal 0 0 -1
    outer loop
      vertex 1.15881 -3.56646 0
      vertex 0.648935 -1.99722 0
      vertex 0.95338 -1.87111 0
    endloop
  endfacet
  facet normal 0 0 -1
    outer loop
      vertex 0.586629 -3.70383 0
      vertex 0.648935 -1.99722 0
      vertex 1.15881 -3.56646 0
    endloop
  endfacet
  facet normal 0 0 -1
    outer loop
      vertex 0.586629 -3.70383 0
      vertex 0.328512 -2.07415 0
      vertex 0.648935 -1.99722 0
    endloop
  endfacet
  facet normal 0 0 -1
    outer loop
      vertex 0 -3.75 0
      vertex 0.328512 -2.07415 0
      vertex 0.586629 -3.70383 0
    endloop
  endfacet
  facet normal 0 0 -1
    outer loop
      vertex 0 -3.75 0
      vertex 0 -2.1 0
      vertex 0.328512 -2.07415 0
    endloop
  endfacet
  facet normal 0 0 -1
    outer loop
      vertex 0 -3.75 0
      vertex -0.328512 -2.07415 0
      vertex 0 -2.1 0
    endloop
  endfacet
  facet normal 0 0 -1
    outer loop
      vertex -0.586629 -3.70383 0
      vertex -0.328512 -2.07415 0
      vertex 0 -3.75 0
    endloop
  endfacet
  facet normal 0 0 -1
    outer loop
      vertex -0.586629 -3.70383 0
      vertex -0.648935 -1.99722 0
      vertex -0.328512 -2.07415 0
    endloop
  endfacet
  facet normal 0 0 -1
    outer loop
      vertex -1.15881 -3.56646 0
      vertex -0.648935 -1.99722 0
      vertex -0.586629 -3.70383 0
    endloop
  endfacet
  facet normal -0 0 -1
    outer loop
      vertex -0.648935 -1.99722 0
      vertex -1.15881 -3.56646 0
      vertex -0.95338 -1.87111 0
    endloop
  endfacet
  facet normal 0 0 -1
    outer loop
      vertex -1.70246 -3.34127 0
      vertex -0.95338 -1.87111 0
      vertex -1.15881 -3.56646 0
    endloop
  endfacet
  facet normal -0 0 -1
    outer loop
      vertex -0.95338 -1.87111 0
      vertex -1.70246 -3.34127 0
      vertex -1.23435 -1.69894 0
    endloop
  endfacet
  facet normal 0 0 -1
    outer loop
      vertex -2.20419 -3.03381 0
      vertex -1.23435 -1.69894 0
      vertex -1.70246 -3.34127 0
    endloop
  endfacet
  facet normal -0 0 -1
    outer loop
      vertex -1.23435 -1.69894 0
      vertex -2.20419 -3.03381 0
      vertex -1.48492 -1.48492 0
    endloop
  endfacet
  facet normal 0 0 -1
    outer loop
      vertex -2.65165 -2.65165 0
      vertex -1.48492 -1.48492 0
      vertex -2.20419 -3.03381 0
    endloop
  endfacet
  facet normal -0 0 -1
    outer loop
      vertex -1.48492 -1.48492 0
      vertex -2.65165 -2.65165 0
      vertex -1.69894 -1.23435 0
    endloop
  endfacet
  facet normal 0 0 -1
    outer loop
      vertex -3.03381 -2.20419 0
      vertex -1.69894 -1.23435 0
      vertex -2.65165 -2.65165 0
    endloop
  endfacet
  facet normal 0 0 -1
    outer loop
      vertex -3.34127 -1.70246 0
      vertex -1.87111 -0.95338 0
      vertex -3.03381 -2.20419 0
    endloop
  endfacet
  facet normal -0 0 -1
    outer loop
      vertex -1.69894 -1.23435 0
      vertex -3.03381 -2.20419 0
      vertex -1.87111 -0.95338 0
    endloop
  endfacet
  facet normal -0 0 -1
    outer loop
      vertex 3.34127 1.70246 0
      vertex 1.87111 0.95338 0
      vertex 3.03381 2.20419 0
    endloop
  endfacet
  facet normal 0 0 -1
    outer loop
      vertex 1.69894 1.23435 0
      vertex 3.03381 2.20419 0
      vertex 1.87111 0.95338 0
    endloop
  endfacet
  facet normal -0 0 -1
    outer loop
      vertex 3.03381 2.20419 0
      vertex 1.69894 1.23435 0
      vertex 2.65165 2.65165 0
    endloop
  endfacet
  facet normal 0 0 -1
    outer loop
      vertex 1.48492 1.48492 0
      vertex 2.65165 2.65165 0
      vertex 1.69894 1.23435 0
    endloop
  endfacet
  facet normal -0 0 -1
    outer loop
      vertex 2.65165 2.65165 0
      vertex 1.48492 1.48492 0
      vertex 2.20419 3.03381 0
    endloop
  endfacet
  facet normal 0 0 -1
    outer loop
      vertex 1.23435 1.69894 0
      vertex 2.20419 3.03381 0
      vertex 1.48492 1.48492 0
    endloop
  endfacet
  facet normal -0 0 -1
    outer loop
      vertex 2.20419 3.03381 0
      vertex 1.23435 1.69894 0
      vertex 1.70246 3.34127 0
    endloop
  endfacet
  facet normal 0 0 -1
    outer loop
      vertex 0.95338 1.87111 0
      vertex 1.70246 3.34127 0
      vertex 1.23435 1.69894 0
    endloop
  endfacet
  facet normal -0 0 -1
    outer loop
      vertex 1.70246 3.34127 0
      vertex 0.95338 1.87111 0
      vertex 1.15881 3.56646 0
    endloop
  endfacet
  facet normal 0 0 -1
    outer loop
      vertex 0.648935 1.99722 0
      vertex 1.15881 3.56646 0
      vertex 0.95338 1.87111 0
    endloop
  endfacet
  facet normal 0 0 -1
    outer loop
      vertex 0.648935 1.99722 0
      vertex 0.586629 3.70383 0
      vertex 1.15881 3.56646 0
    endloop
  endfacet
  facet normal 0 0 -1
    outer loop
      vertex 0.328512 2.07415 0
      vertex 0.586629 3.70383 0
      vertex 0.648935 1.99722 0
    endloop
  endfacet
  facet normal 0 0 -1
    outer loop
      vertex 0 2.1 0
      vertex 0.586629 3.70383 0
      vertex 0.328512 2.07415 0
    endloop
  endfacet
  facet normal 0 0 -1
    outer loop
      vertex 0 2.1 0
      vertex 0 3.75 0
      vertex 0.586629 3.70383 0
    endloop
  endfacet
  facet normal 0 0 -1
    outer loop
      vertex -0.328512 2.07415 0
      vertex 0 3.75 0
      vertex 0 2.1 0
    endloop
  endfacet
  facet normal 0 0 -1
    outer loop
      vertex -0.328512 2.07415 0
      vertex -0.586629 3.70383 0
      vertex 0 3.75 0
    endloop
  endfacet
  facet normal 0 0 -1
    outer loop
      vertex -0.648935 1.99722 0
      vertex -0.586629 3.70383 0
      vertex -0.328512 2.07415 0
    endloop
  endfacet
  facet normal 0 0 -1
    outer loop
      vertex -1.15881 3.56646 0
      vertex -0.648935 1.99722 0
      vertex -0.95338 1.87111 0
    endloop
  endfacet
  facet normal 0 0 -1
    outer loop
      vertex -0.648935 1.99722 0
      vertex -1.15881 3.56646 0
      vertex -0.586629 3.70383 0
    endloop
  endfacet
  facet normal 0 0 -1
    outer loop
      vertex -1.70246 3.34127 0
      vertex -0.95338 1.87111 0
      vertex -1.23435 1.69894 0
    endloop
  endfacet
  facet normal 0 0 -1
    outer loop
      vertex -2.20419 3.03381 0
      vertex -1.23435 1.69894 0
      vertex -1.48492 1.48492 0
    endloop
  endfacet
  facet normal 0 0 -1
    outer loop
      vertex -2.65165 2.65165 0
      vertex -1.48492 1.48492 0
      vertex -1.69894 1.23435 0
    endloop
  endfacet
  facet normal 0 0 -1
    outer loop
      vertex -0.95338 1.87111 0
      vertex -1.70246 3.34127 0
      vertex -1.15881 3.56646 0
    endloop
  endfacet
  facet normal 0 0 -1
    outer loop
      vertex -3.03381 2.20419 0
      vertex -1.69894 1.23435 0
      vertex -1.87111 0.95338 0
    endloop
  endfacet
  facet normal 0 0 -1
    outer loop
      vertex -3.34127 1.70246 0
      vertex -1.87111 0.95338 0
      vertex -1.99722 0.648935 0
    endloop
  endfacet
  facet normal 0 0 -1
    outer loop
      vertex -3.56646 1.15881 0
      vertex -1.99722 0.648935 0
      vertex -2.07415 0.328512 0
    endloop
  endfacet
  facet normal 0 0 -1
    outer loop
      vertex -1.23435 1.69894 0
      vertex -2.20419 3.03381 0
      vertex -1.70246 3.34127 0
    endloop
  endfacet
  facet normal 0 0 -1
    outer loop
      vertex -3.70383 0.586629 0
      vertex -2.07415 0.328512 0
      vertex -2.1 0 0
    endloop
  endfacet
  facet normal -0 0 -1
    outer loop
      vertex -1.87111 -0.95338 0
      vertex -3.34127 -1.70246 0
      vertex -1.99722 -0.648935 0
    endloop
  endfacet
  facet normal 0 0 -1
    outer loop
      vertex -3.56646 -1.15881 0
      vertex -1.99722 -0.648935 0
      vertex -3.34127 -1.70246 0
    endloop
  endfacet
  facet normal 0 0 -1
    outer loop
      vertex -1.48492 1.48492 0
      vertex -2.65165 2.65165 0
      vertex -2.20419 3.03381 0
    endloop
  endfacet
  facet normal -0 0 -1
    outer loop
      vertex -1.99722 -0.648935 0
      vertex -3.56646 -1.15881 0
      vertex -2.07415 -0.328512 0
    endloop
  endfacet
  facet normal 0 0 -1
    outer loop
      vertex -1.69894 1.23435 0
      vertex -3.03381 2.20419 0
      vertex -2.65165 2.65165 0
    endloop
  endfacet
  facet normal 0 0 -1
    outer loop
      vertex -3.70383 -0.586629 0
      vertex -2.07415 -0.328512 0
      vertex -3.56646 -1.15881 0
    endloop
  endfacet
  facet normal 0 0 -1
    outer loop
      vertex -1.87111 0.95338 0
      vertex -3.34127 1.70246 0
      vertex -3.03381 2.20419 0
    endloop
  endfacet
  facet normal -0 0 -1
    outer loop
      vertex -2.07415 -0.328512 0
      vertex -3.70383 -0.586629 0
      vertex -2.1 0 0
    endloop
  endfacet
  facet normal 0 0 -1
    outer loop
      vertex -1.99722 0.648935 0
      vertex -3.56646 1.15881 0
      vertex -3.34127 1.70246 0
    endloop
  endfacet
  facet normal 0 0 -1
    outer loop
      vertex -3.75 0 0
      vertex -2.1 0 0
      vertex -3.70383 -0.586629 0
    endloop
  endfacet
  facet normal 0 0 -1
    outer loop
      vertex -2.07415 0.328512 0
      vertex -3.70383 0.586629 0
      vertex -3.56646 1.15881 0
    endloop
  endfacet
  facet normal 0 0 -1
    outer loop
      vertex -2.1 0 0
      vertex -3.75 0 0
      vertex -3.70383 0.586629 0
    endloop
  endfacet
  facet normal -0.760412 -0.649441 0
    outer loop
      vertex -2.65165 -2.65165 0
      vertex -3.03381 -2.20419 1
      vertex -3.03381 -2.20419 0
    endloop
  endfacet
  facet normal -0.760412 -0.649441 0
    outer loop
      vertex -3.03381 -2.20419 1
      vertex -2.65165 -2.65165 0
      vertex -2.65165 -2.65165 1
    endloop
  endfacet
  facet normal 0.0784613 0.996917 -0
    outer loop
      vertex 0.586629 3.70383 0
      vertex 0 3.75 1
      vertex 0.586629 3.70383 1
    endloop
  endfacet
  facet normal 0.0784613 0.996917 0
    outer loop
      vertex 0 3.75 1
      vertex 0.586629 3.70383 0
      vertex 0 3.75 0
    endloop
  endfacet
  facet normal -0.996917 0.0784613 0
    outer loop
      vertex -3.75 0 0
      vertex -3.70383 0.586629 1
      vertex -3.70383 0.586629 0
    endloop
  endfacet
  facet normal -0.996917 0.0784613 0
    outer loop
      vertex -3.70383 0.586629 1
      vertex -3.75 0 0
      vertex -3.75 0 1
    endloop
  endfacet
  facet normal -0.923878 0.382687 0
    outer loop
      vertex -3.56646 1.15881 0
      vertex -3.34127 1.70246 1
      vertex -3.34127 1.70246 0
    endloop
  endfacet
  facet normal -0.923878 0.382687 0
    outer loop
      vertex -3.34127 1.70246 1
      vertex -3.56646 1.15881 0
      vertex -3.56646 1.15881 1
    endloop
  endfacet
  facet normal -0.0784613 0.996917 0
    outer loop
      vertex 0 3.75 0
      vertex -0.586629 3.70383 1
      vertex 0 3.75 1
    endloop
  endfacet
  facet normal -0.0784613 0.996917 0
    outer loop
      vertex -0.586629 3.70383 1
      vertex 0 3.75 0
      vertex -0.586629 3.70383 0
    endloop
  endfacet
  facet normal 0.996917 -0.0784613 0
    outer loop
      vertex 3.70383 -0.586629 1
      vertex 3.75 0 0
      vertex 3.75 0 1
    endloop
  endfacet
  facet normal 0.996917 -0.0784613 0
    outer loop
      vertex 3.75 0 0
      vertex 3.70383 -0.586629 1
      vertex 3.70383 -0.586629 0
    endloop
  endfacet
  facet normal 0.0784613 -0.996917 0
    outer loop
      vertex 0 -3.75 0
      vertex 0.586629 -3.70383 1
      vertex 0 -3.75 1
    endloop
  endfacet
  facet normal 0.0784613 -0.996917 0
    outer loop
      vertex 0.586629 -3.70383 1
      vertex 0 -3.75 0
      vertex 0.586629 -3.70383 0
    endloop
  endfacet
  facet normal 0.649441 -0.760412 0
    outer loop
      vertex 2.20419 -3.03381 0
      vertex 2.65165 -2.65165 1
      vertex 2.20419 -3.03381 1
    endloop
  endfacet
  facet normal 0.649441 -0.760412 0
    outer loop
      vertex 2.65165 -2.65165 1
      vertex 2.20419 -3.03381 0
      vertex 2.65165 -2.65165 0
    endloop
  endfacet
  facet normal -0.0784613 -0.996917 0
    outer loop
      vertex -0.586629 -3.70383 0
      vertex 0 -3.75 1
      vertex -0.586629 -3.70383 1
    endloop
  endfacet
  facet normal -0.0784613 -0.996917 -0
    outer loop
      vertex 0 -3.75 1
      vertex -0.586629 -3.70383 0
      vertex 0 -3.75 0
    endloop
  endfacet
  facet normal -0.522498 -0.852641 0
    outer loop
      vertex -2.20419 -3.03381 0
      vertex -1.70246 -3.34127 1
      vertex -2.20419 -3.03381 1
    endloop
  endfacet
  facet normal -0.522498 -0.852641 -0
    outer loop
      vertex -1.70246 -3.34127 1
      vertex -2.20419 -3.03381 0
      vertex -1.70246 -3.34127 0
    endloop
  endfacet
  facet normal -0.923878 -0.382687 0
    outer loop
      vertex -3.34127 -1.70246 0
      vertex -3.56646 -1.15881 1
      vertex -3.56646 -1.15881 0
    endloop
  endfacet
  facet normal -0.923878 -0.382687 0
    outer loop
      vertex -3.56646 -1.15881 1
      vertex -3.34127 -1.70246 0
      vertex -3.34127 -1.70246 1
    endloop
  endfacet
  facet normal -0.996917 -0.0784613 0
    outer loop
      vertex -3.70383 -0.586629 0
      vertex -3.75 0 1
      vertex -3.75 0 0
    endloop
  endfacet
  facet normal -0.996917 -0.0784613 0
    outer loop
      vertex -3.75 0 1
      vertex -3.70383 -0.586629 0
      vertex -3.70383 -0.586629 1
    endloop
  endfacet
  facet normal 0.852641 -0.522498 0
    outer loop
      vertex 3.03381 -2.20419 1
      vertex 3.34127 -1.70246 0
      vertex 3.34127 -1.70246 1
    endloop
  endfacet
  facet normal 0.852641 -0.522498 0
    outer loop
      vertex 3.34127 -1.70246 0
      vertex 3.03381 -2.20419 1
      vertex 3.03381 -2.20419 0
    endloop
  endfacet
  facet normal 0.233448 -0.972369 0
    outer loop
      vertex 0.586629 -3.70383 0
      vertex 1.15881 -3.56646 1
      vertex 0.586629 -3.70383 1
    endloop
  endfacet
  facet normal 0.233448 -0.972369 0
    outer loop
      vertex 1.15881 -3.56646 1
      vertex 0.586629 -3.70383 0
      vertex 1.15881 -3.56646 0
    endloop
  endfacet
  facet normal -0.972369 -0.233448 0
    outer loop
      vertex -3.56646 -1.15881 0
      vertex -3.70383 -0.586629 1
      vertex -3.70383 -0.586629 0
    endloop
  endfacet
  facet normal -0.972369 -0.233448 0
    outer loop
      vertex -3.70383 -0.586629 1
      vertex -3.56646 -1.15881 0
      vertex -3.56646 -1.15881 1
    endloop
  endfacet
  facet normal 0 0 1
    outer loop
      vertex 2.1 0 1
      vertex 3.75 0 1
      vertex 3.70383 0.586629 1
    endloop
  endfacet
  facet normal 0 0 1
    outer loop
      vertex 2.07415 0.328512 1
      vertex 3.70383 0.586629 1
      vertex 3.56646 1.15881 1
    endloop
  endfacet
  facet normal 0 0 1
    outer loop
      vertex 3.75 0 1
      vertex 2.1 0 1
      vertex 3.70383 -0.586629 1
    endloop
  endfacet
  facet normal 0 0 1
    outer loop
      vertex 1.99722 0.648935 1
      vertex 3.56646 1.15881 1
      vertex 3.34127 1.70246 1
    endloop
  endfacet
  facet normal -0 0 1
    outer loop
      vertex 2.07415 -0.328512 1
      vertex 3.70383 -0.586629 1
      vertex 2.1 0 1
    endloop
  endfacet
  facet normal 0 0 1
    outer loop
      vertex 1.87111 0.95338 1
      vertex 3.34127 1.70246 1
      vertex 3.03381 2.20419 1
    endloop
  endfacet
  facet normal 0 0 1
    outer loop
      vertex 3.70383 -0.586629 1
      vertex 2.07415 -0.328512 1
      vertex 3.56646 -1.15881 1
    endloop
  endfacet
  facet normal 0 0 1
    outer loop
      vertex 1.69894 1.23435 1
      vertex 3.03381 2.20419 1
      vertex 2.65165 2.65165 1
    endloop
  endfacet
  facet normal -0 0 1
    outer loop
      vertex 1.99722 -0.648935 1
      vertex 3.56646 -1.15881 1
      vertex 2.07415 -0.328512 1
    endloop
  endfacet
  facet normal 0 0 1
    outer loop
      vertex 1.48492 1.48492 1
      vertex 2.65165 2.65165 1
      vertex 2.20419 3.03381 1
    endloop
  endfacet
  facet normal 0 0 1
    outer loop
      vertex 3.56646 -1.15881 1
      vertex 1.99722 -0.648935 1
      vertex 3.34127 -1.70246 1
    endloop
  endfacet
  facet normal -0 0 1
    outer loop
      vertex 1.87111 -0.95338 1
      vertex 3.34127 -1.70246 1
      vertex 1.99722 -0.648935 1
    endloop
  endfacet
  facet normal 0 0 1
    outer loop
      vertex 3.70383 0.586629 1
      vertex 2.07415 0.328512 1
      vertex 2.1 0 1
    endloop
  endfacet
  facet normal 0 0 1
    outer loop
      vertex 3.56646 1.15881 1
      vertex 1.99722 0.648935 1
      vertex 2.07415 0.328512 1
    endloop
  endfacet
  facet normal 0 0 1
    outer loop
      vertex 3.34127 1.70246 1
      vertex 1.87111 0.95338 1
      vertex 1.99722 0.648935 1
    endloop
  endfacet
  facet normal 0 0 1
    outer loop
      vertex 1.23435 1.69894 1
      vertex 2.20419 3.03381 1
      vertex 1.70246 3.34127 1
    endloop
  endfacet
  facet normal 0 0 1
    outer loop
      vertex 3.03381 2.20419 1
      vertex 1.69894 1.23435 1
      vertex 1.87111 0.95338 1
    endloop
  endfacet
  facet normal 0 0 1
    outer loop
      vertex 2.65165 2.65165 1
      vertex 1.48492 1.48492 1
      vertex 1.69894 1.23435 1
    endloop
  endfacet
  facet normal 0 0 1
    outer loop
      vertex 2.20419 3.03381 1
      vertex 1.23435 1.69894 1
      vertex 1.48492 1.48492 1
    endloop
  endfacet
  facet normal 0 0 1
    outer loop
      vertex 0.95338 1.87111 1
      vertex 1.70246 3.34127 1
      vertex 1.15881 3.56646 1
    endloop
  endfacet
  facet normal 0 0 1
    outer loop
      vertex 1.70246 3.34127 1
      vertex 0.95338 1.87111 1
      vertex 1.23435 1.69894 1
    endloop
  endfacet
  facet normal 0 0 1
    outer loop
      vertex 1.15881 3.56646 1
      vertex 0.648935 1.99722 1
      vertex 0.95338 1.87111 1
    endloop
  endfacet
  facet normal 0 0 1
    outer loop
      vertex 0.586629 3.70383 1
      vertex 0.648935 1.99722 1
      vertex 1.15881 3.56646 1
    endloop
  endfacet
  facet normal 0 0 1
    outer loop
      vertex 0.586629 3.70383 1
      vertex 0.328512 2.07415 1
      vertex 0.648935 1.99722 1
    endloop
  endfacet
  facet normal 0 0 1
    outer loop
      vertex 0 3.75 1
      vertex 0.328512 2.07415 1
      vertex 0.586629 3.70383 1
    endloop
  endfacet
  facet normal 0 0 1
    outer loop
      vertex 0 3.75 1
      vertex 0 2.1 1
      vertex 0.328512 2.07415 1
    endloop
  endfacet
  facet normal 0 0 1
    outer loop
      vertex 0 3.75 1
      vertex -0.328512 2.07415 1
      vertex 0 2.1 1
    endloop
  endfacet
  facet normal -0 0 1
    outer loop
      vertex -0.586629 3.70383 1
      vertex -0.328512 2.07415 1
      vertex 0 3.75 1
    endloop
  endfacet
  facet normal 0 0 1
    outer loop
      vertex -0.586629 3.70383 1
      vertex -0.648935 1.99722 1
      vertex -0.328512 2.07415 1
    endloop
  endfacet
  facet normal -0 0 1
    outer loop
      vertex -1.15881 3.56646 1
      vertex -0.648935 1.99722 1
      vertex -0.586629 3.70383 1
    endloop
  endfacet
  facet normal 0 0 1
    outer loop
      vertex -0.648935 1.99722 1
      vertex -1.15881 3.56646 1
      vertex -0.95338 1.87111 1
    endloop
  endfacet
  facet normal -0 0 1
    outer loop
      vertex -1.70246 3.34127 1
      vertex -0.95338 1.87111 1
      vertex -1.15881 3.56646 1
    endloop
  endfacet
  facet normal 0 0 1
    outer loop
      vertex -0.95338 1.87111 1
      vertex -1.70246 3.34127 1
      vertex -1.23435 1.69894 1
    endloop
  endfacet
  facet normal -0 0 1
    outer loop
      vertex -2.20419 3.03381 1
      vertex -1.23435 1.69894 1
      vertex -1.70246 3.34127 1
    endloop
  endfacet
  facet normal 0 0 1
    outer loop
      vertex -1.23435 1.69894 1
      vertex -2.20419 3.03381 1
      vertex -1.48492 1.48492 1
    endloop
  endfacet
  facet normal -0 0 1
    outer loop
      vertex -2.65165 2.65165 1
      vertex -1.48492 1.48492 1
      vertex -2.20419 3.03381 1
    endloop
  endfacet
  facet normal 0 0 1
    outer loop
      vertex -1.48492 1.48492 1
      vertex -2.65165 2.65165 1
      vertex -1.69894 1.23435 1
    endloop
  endfacet
  facet normal -0 0 1
    outer loop
      vertex -3.03381 2.20419 1
      vertex -1.69894 1.23435 1
      vertex -2.65165 2.65165 1
    endloop
  endfacet
  facet normal -0 0 1
    outer loop
      vertex -3.34127 1.70246 1
      vertex -1.87111 0.95338 1
      vertex -3.03381 2.20419 1
    endloop
  endfacet
  facet normal 0 0 1
    outer loop
      vertex -1.69894 1.23435 1
      vertex -3.03381 2.20419 1
      vertex -1.87111 0.95338 1
    endloop
  endfacet
  facet normal 0 0 1
    outer loop
      vertex 3.34127 -1.70246 1
      vertex 1.87111 -0.95338 1
      vertex 3.03381 -2.20419 1
    endloop
  endfacet
  facet normal -0 0 1
    outer loop
      vertex 1.69894 -1.23435 1
      vertex 3.03381 -2.20419 1
      vertex 1.87111 -0.95338 1
    endloop
  endfacet
  facet normal 0 0 1
    outer loop
      vertex 3.03381 -2.20419 1
      vertex 1.69894 -1.23435 1
      vertex 2.65165 -2.65165 1
    endloop
  endfacet
  facet normal -0 0 1
    outer loop
      vertex 1.48492 -1.48492 1
      vertex 2.65165 -2.65165 1
      vertex 1.69894 -1.23435 1
    endloop
  endfacet
  facet normal 0 0 1
    outer loop
      vertex 2.65165 -2.65165 1
      vertex 1.48492 -1.48492 1
      vertex 2.20419 -3.03381 1
    endloop
  endfacet
  facet normal -0 0 1
    outer loop
      vertex 1.23435 -1.69894 1
      vertex 2.20419 -3.03381 1
      vertex 1.48492 -1.48492 1
    endloop
  endfacet
  facet normal 0 0 1
    outer loop
      vertex 2.20419 -3.03381 1
      vertex 1.23435 -1.69894 1
      vertex 1.70246 -3.34127 1
    endloop
  endfacet
  facet normal -0 0 1
    outer loop
      vertex 0.95338 -1.87111 1
      vertex 1.70246 -3.34127 1
      vertex 1.23435 -1.69894 1
    endloop
  endfacet
  facet normal 0 0 1
    outer loop
      vertex 1.70246 -3.34127 1
      vertex 0.95338 -1.87111 1
      vertex 1.15881 -3.56646 1
    endloop
  endfacet
  facet normal -0 0 1
    outer loop
      vertex 0.648935 -1.99722 1
      vertex 1.15881 -3.56646 1
      vertex 0.95338 -1.87111 1
    endloop
  endfacet
  facet normal 0 0 1
    outer loop
      vertex 0.648935 -1.99722 1
      vertex 0.586629 -3.70383 1
      vertex 1.15881 -3.56646 1
    endloop
  endfacet
  facet normal -0 0 1
    outer loop
      vertex 0.328512 -2.07415 1
      vertex 0.586629 -3.70383 1
      vertex 0.648935 -1.99722 1
    endloop
  endfacet
  facet normal -0 0 1
    outer loop
      vertex 0 -2.1 1
      vertex 0.586629 -3.70383 1
      vertex 0.328512 -2.07415 1
    endloop
  endfacet
  facet normal 0 0 1
    outer loop
      vertex 0 -2.1 1
      vertex 0 -3.75 1
      vertex 0.586629 -3.70383 1
    endloop
  endfacet
  facet normal 0 0 1
    outer loop
      vertex -0.328512 -2.07415 1
      vertex 0 -3.75 1
      vertex 0 -2.1 1
    endloop
  endfacet
  facet normal 0 0 1
    outer loop
      vertex -0.328512 -2.07415 1
      vertex -0.586629 -3.70383 1
      vertex 0 -3.75 1
    endloop
  endfacet
  facet normal 0 0 1
    outer loop
      vertex -0.648935 -1.99722 1
      vertex -0.586629 -3.70383 1
      vertex -0.328512 -2.07415 1
    endloop
  endfacet
  facet normal 0 0 1
    outer loop
      vertex -1.15881 -3.56646 1
      vertex -0.648935 -1.99722 1
      vertex -0.95338 -1.87111 1
    endloop
  endfacet
  facet normal 0 0 1
    outer loop
      vertex -0.648935 -1.99722 1
      vertex -1.15881 -3.56646 1
      vertex -0.586629 -3.70383 1
    endloop
  endfacet
  facet normal 0 0 1
    outer loop
      vertex -1.70246 -3.34127 1
      vertex -0.95338 -1.87111 1
      vertex -1.23435 -1.69894 1
    endloop
  endfacet
  facet normal 0 0 1
    outer loop
      vertex -2.20419 -3.03381 1
      vertex -1.23435 -1.69894 1
      vertex -1.48492 -1.48492 1
    endloop
  endfacet
  facet normal 0 0 1
    outer loop
      vertex -2.65165 -2.65165 1
      vertex -1.48492 -1.48492 1
      vertex -1.69894 -1.23435 1
    endloop
  endfacet
  facet normal 0 0 1
    outer loop
      vertex -0.95338 -1.87111 1
      vertex -1.70246 -3.34127 1
      vertex -1.15881 -3.56646 1
    endloop
  endfacet
  facet normal 0 0 1
    outer loop
      vertex -3.03381 -2.20419 1
      vertex -1.69894 -1.23435 1
      vertex -1.87111 -0.95338 1
    endloop
  endfacet
  facet normal 0 0 1
    outer loop
      vertex -3.34127 -1.70246 1
      vertex -1.87111 -0.95338 1
      vertex -1.99722 -0.648935 1
    endloop
  endfacet
  facet normal 0 0 1
    outer loop
      vertex -3.56646 -1.15881 1
      vertex -1.99722 -0.648935 1
      vertex -2.07415 -0.328512 1
    endloop
  endfacet
  facet normal 0 0 1
    outer loop
      vertex -1.23435 -1.69894 1
      vertex -2.20419 -3.03381 1
      vertex -1.70246 -3.34127 1
    endloop
  endfacet
  facet normal 0 0 1
    outer loop
      vertex -3.70383 -0.586629 1
      vertex -2.07415 -0.328512 1
      vertex -2.1 0 1
    endloop
  endfacet
  facet normal 0 0 1
    outer loop
      vertex -1.87111 0.95338 1
      vertex -3.34127 1.70246 1
      vertex -1.99722 0.648935 1
    endloop
  endfacet
  facet normal -0 0 1
    outer loop
      vertex -3.56646 1.15881 1
      vertex -1.99722 0.648935 1
      vertex -3.34127 1.70246 1
    endloop
  endfacet
  facet normal 0 0 1
    outer loop
      vertex -1.48492 -1.48492 1
      vertex -2.65165 -2.65165 1
      vertex -2.20419 -3.03381 1
    endloop
  endfacet
  facet normal 0 0 1
    outer loop
      vertex -1.99722 0.648935 1
      vertex -3.56646 1.15881 1
      vertex -2.07415 0.328512 1
    endloop
  endfacet
  facet normal 0 0 1
    outer loop
      vertex -1.69894 -1.23435 1
      vertex -3.03381 -2.20419 1
      vertex -2.65165 -2.65165 1
    endloop
  endfacet
  facet normal -0 0 1
    outer loop
      vertex -3.70383 0.586629 1
      vertex -2.07415 0.328512 1
      vertex -3.56646 1.15881 1
    endloop
  endfacet
  facet normal 0 0 1
    outer loop
      vertex -1.87111 -0.95338 1
      vertex -3.34127 -1.70246 1
      vertex -3.03381 -2.20419 1
    endloop
  endfacet
  facet normal 0 0 1
    outer loop
      vertex -2.07415 0.328512 1
      vertex -3.70383 0.586629 1
      vertex -2.1 0 1
    endloop
  endfacet
  facet normal 0 0 1
    outer loop
      vertex -1.99722 -0.648935 1
      vertex -3.56646 -1.15881 1
      vertex -3.34127 -1.70246 1
    endloop
  endfacet
  facet normal 0 0 1
    outer loop
      vertex -3.75 0 1
      vertex -2.1 0 1
      vertex -3.70383 0.586629 1
    endloop
  endfacet
  facet normal 0 0 1
    outer loop
      vertex -2.07415 -0.328512 1
      vertex -3.70383 -0.586629 1
      vertex -3.56646 -1.15881 1
    endloop
  endfacet
  facet normal 0 0 1
    outer loop
      vertex -2.1 0 1
      vertex -3.75 0 1
      vertex -3.70383 -0.586629 1
    endloop
  endfacet
  facet normal -0.760386 -0.649471 0
    outer loop
      vertex 1.69894 1.23435 0
      vertex 1.48492 1.48492 1
      vertex 1.48492 1.48492 0
    endloop
  endfacet
  facet normal -0.760386 -0.649471 0
    outer loop
      vertex 1.48492 1.48492 1
      vertex 1.69894 1.23435 0
      vertex 1.69894 1.23435 1
    endloop
  endfacet
  facet normal -0.0784457 -0.996918 0
    outer loop
      vertex 0 2.1 0
      vertex 0.328512 2.07415 1
      vertex 0 2.1 1
    endloop
  endfacet
  facet normal -0.0784457 -0.996918 -0
    outer loop
      vertex 0.328512 2.07415 1
      vertex 0 2.1 0
      vertex 0.328512 2.07415 0
    endloop
  endfacet
  facet normal -0.233455 -0.972368 0
    outer loop
      vertex 0.328512 2.07415 0
      vertex 0.648935 1.99722 1
      vertex 0.328512 2.07415 1
    endloop
  endfacet
  facet normal -0.233455 -0.972368 -0
    outer loop
      vertex 0.648935 1.99722 1
      vertex 0.328512 2.07415 0
      vertex 0.648935 1.99722 0
    endloop
  endfacet
  facet normal 0.52248 -0.852652 0
    outer loop
      vertex -1.23435 1.69894 0
      vertex -0.95338 1.87111 1
      vertex -1.23435 1.69894 1
    endloop
  endfacet
  facet normal 0.52248 -0.852652 0
    outer loop
      vertex -0.95338 1.87111 1
      vertex -1.23435 1.69894 0
      vertex -0.95338 1.87111 0
    endloop
  endfacet
  facet normal 0.923874 -0.382696 0
    outer loop
      vertex -1.99722 0.648935 1
      vertex -1.87111 0.95338 0
      vertex -1.87111 0.95338 1
    endloop
  endfacet
  facet normal 0.923874 -0.382696 0
    outer loop
      vertex -1.87111 0.95338 0
      vertex -1.99722 0.648935 1
      vertex -1.99722 0.648935 0
    endloop
  endfacet
  facet normal -0.996918 0.0784457 0
    outer loop
      vertex 2.07415 -0.328512 0
      vertex 2.1 0 1
      vertex 2.1 0 0
    endloop
  endfacet
  facet normal -0.996918 0.0784457 0
    outer loop
      vertex 2.1 0 1
      vertex 2.07415 -0.328512 0
      vertex 2.07415 -0.328512 1
    endloop
  endfacet
  facet normal -0.52248 0.852652 0
    outer loop
      vertex 1.23435 -1.69894 0
      vertex 0.95338 -1.87111 1
      vertex 1.23435 -1.69894 1
    endloop
  endfacet
  facet normal -0.52248 0.852652 0
    outer loop
      vertex 0.95338 -1.87111 1
      vertex 1.23435 -1.69894 0
      vertex 0.95338 -1.87111 0
    endloop
  endfacet
  facet normal -0.972368 -0.233455 0
    outer loop
      vertex 2.07415 0.328512 0
      vertex 1.99722 0.648935 1
      vertex 1.99722 0.648935 0
    endloop
  endfacet
  facet normal -0.972368 -0.233455 0
    outer loop
      vertex 1.99722 0.648935 1
      vertex 2.07415 0.328512 0
      vertex 2.07415 0.328512 1
    endloop
  endfacet
  facet normal -0.649471 -0.760386 0
    outer loop
      vertex 1.23435 1.69894 0
      vertex 1.48492 1.48492 1
      vertex 1.23435 1.69894 1
    endloop
  endfacet
  facet normal -0.649471 -0.760386 -0
    outer loop
      vertex 1.48492 1.48492 1
      vertex 1.23435 1.69894 0
      vertex 1.48492 1.48492 0
    endloop
  endfacet
  facet normal 0.0784457 -0.996918 0
    outer loop
      vertex -0.328512 2.07415 0
      vertex 0 2.1 1
      vertex -0.328512 2.07415 1
    endloop
  endfacet
  facet normal 0.0784457 -0.996918 0
    outer loop
      vertex 0 2.1 1
      vertex -0.328512 2.07415 0
      vertex 0 2.1 0
    endloop
  endfacet
  facet normal -0.382696 -0.923874 0
    outer loop
      vertex 0.648935 1.99722 0
      vertex 0.95338 1.87111 1
      vertex 0.648935 1.99722 1
    endloop
  endfacet
  facet normal -0.382696 -0.923874 -0
    outer loop
      vertex 0.95338 1.87111 1
      vertex 0.648935 1.99722 0
      vertex 0.95338 1.87111 0
    endloop
  endfacet
  facet normal 0.996918 -0.0784457 0
    outer loop
      vertex -2.1 0 1
      vertex -2.07415 0.328512 0
      vertex -2.07415 0.328512 1
    endloop
  endfacet
  facet normal 0.996918 -0.0784457 0
    outer loop
      vertex -2.07415 0.328512 0
      vertex -2.1 0 1
      vertex -2.1 0 0
    endloop
  endfacet
  facet normal 0.852652 -0.52248 0
    outer loop
      vertex -1.87111 0.95338 1
      vertex -1.69894 1.23435 0
      vertex -1.69894 1.23435 1
    endloop
  endfacet
  facet normal 0.852652 -0.52248 0
    outer loop
      vertex -1.69894 1.23435 0
      vertex -1.87111 0.95338 1
      vertex -1.87111 0.95338 0
    endloop
  endfacet
  facet normal 0.649471 -0.760386 0
    outer loop
      vertex -1.48492 1.48492 0
      vertex -1.23435 1.69894 1
      vertex -1.48492 1.48492 1
    endloop
  endfacet
  facet normal 0.649471 -0.760386 0
    outer loop
      vertex -1.23435 1.69894 1
      vertex -1.48492 1.48492 0
      vertex -1.23435 1.69894 0
    endloop
  endfacet
  facet normal 0.233455 -0.972368 0
    outer loop
      vertex -0.648935 1.99722 0
      vertex -0.328512 2.07415 1
      vertex -0.648935 1.99722 1
    endloop
  endfacet
  facet normal 0.233455 -0.972368 0
    outer loop
      vertex -0.328512 2.07415 1
      vertex -0.648935 1.99722 0
      vertex -0.328512 2.07415 0
    endloop
  endfacet
  facet normal 0.760386 -0.649471 0
    outer loop
      vertex -1.69894 1.23435 1
      vertex -1.48492 1.48492 0
      vertex -1.48492 1.48492 1
    endloop
  endfacet
  facet normal 0.760386 -0.649471 0
    outer loop
      vertex -1.48492 1.48492 0
      vertex -1.69894 1.23435 1
      vertex -1.69894 1.23435 0
    endloop
  endfacet
  facet normal -0.996918 -0.0784457 0
    outer loop
      vertex 2.1 0 0
      vertex 2.07415 0.328512 1
      vertex 2.07415 0.328512 0
    endloop
  endfacet
  facet normal -0.996918 -0.0784457 0
    outer loop
      vertex 2.07415 0.328512 1
      vertex 2.1 0 0
      vertex 2.1 0 1
    endloop
  endfacet
  facet normal -0.649471 0.760386 0
    outer loop
      vertex 1.48492 -1.48492 0
      vertex 1.23435 -1.69894 1
      vertex 1.48492 -1.48492 1
    endloop
  endfacet
  facet normal -0.649471 0.760386 0
    outer loop
      vertex 1.23435 -1.69894 1
      vertex 1.48492 -1.48492 0
      vertex 1.23435 -1.69894 0
    endloop
  endfacet
  facet normal -0.972368 0.233455 0
    outer loop
      vertex 1.99722 -0.648935 0
      vertex 2.07415 -0.328512 1
      vertex 2.07415 -0.328512 0
    endloop
  endfacet
  facet normal -0.972368 0.233455 0
    outer loop
      vertex 2.07415 -0.328512 1
      vertex 1.99722 -0.648935 0
      vertex 1.99722 -0.648935 1
    endloop
  endfacet
  facet normal 0.0784457 0.996918 -0
    outer loop
      vertex 0 -2.1 0
      vertex -0.328512 -2.07415 1
      vertex 0 -2.1 1
    endloop
  endfacet
  facet normal 0.0784457 0.996918 0
    outer loop
      vertex -0.328512 -2.07415 1
      vertex 0 -2.1 0
      vertex -0.328512 -2.07415 0
    endloop
  endfacet
  facet normal -0.382696 0.923874 0
    outer loop
      vertex 0.95338 -1.87111 0
      vertex 0.648935 -1.99722 1
      vertex 0.95338 -1.87111 1
    endloop
  endfacet
  facet normal -0.382696 0.923874 0
    outer loop
      vertex 0.648935 -1.99722 1
      vertex 0.95338 -1.87111 0
      vertex 0.648935 -1.99722 0
    endloop
  endfacet
  facet normal -0.52248 -0.852652 0
    outer loop
      vertex 0.95338 1.87111 0
      vertex 1.23435 1.69894 1
      vertex 0.95338 1.87111 1
    endloop
  endfacet
  facet normal -0.52248 -0.852652 -0
    outer loop
      vertex 1.23435 1.69894 1
      vertex 0.95338 1.87111 0
      vertex 1.23435 1.69894 0
    endloop
  endfacet
  facet normal 0.972368 -0.233455 0
    outer loop
      vertex -2.07415 0.328512 1
      vertex -1.99722 0.648935 0
      vertex -1.99722 0.648935 1
    endloop
  endfacet
  facet normal 0.972368 -0.233455 0
    outer loop
      vertex -1.99722 0.648935 0
      vertex -2.07415 0.328512 1
      vertex -2.07415 0.328512 0
    endloop
  endfacet
  facet normal 0.382696 -0.923874 0
    outer loop
      vertex -0.95338 1.87111 0
      vertex -0.648935 1.99722 1
      vertex -0.95338 1.87111 1
    endloop
  endfacet
  facet normal 0.382696 -0.923874 0
    outer loop
      vertex -0.648935 1.99722 1
      vertex -0.95338 1.87111 0
      vertex -0.648935 1.99722 0
    endloop
  endfacet
  facet normal -0.852652 0.52248 0
    outer loop
      vertex 1.69894 -1.23435 0
      vertex 1.87111 -0.95338 1
      vertex 1.87111 -0.95338 0
    endloop
  endfacet
  facet normal -0.852652 0.52248 0
    outer loop
      vertex 1.87111 -0.95338 1
      vertex 1.69894 -1.23435 0
      vertex 1.69894 -1.23435 1
    endloop
  endfacet
  facet normal -0.923874 0.382696 0
    outer loop
      vertex 1.87111 -0.95338 0
      vertex 1.99722 -0.648935 1
      vertex 1.99722 -0.648935 0
    endloop
  endfacet
  facet normal -0.923874 0.382696 0
    outer loop
      vertex 1.99722 -0.648935 1
      vertex 1.87111 -0.95338 0
      vertex 1.87111 -0.95338 1
    endloop
  endfacet
  facet normal 0.996918 0.0784457 0
    outer loop
      vertex -2.07415 -0.328512 1
      vertex -2.1 0 0
      vertex -2.1 0 1
    endloop
  endfacet
  facet normal 0.996918 0.0784457 0
    outer loop
      vertex -2.1 0 0
      vertex -2.07415 -0.328512 1
      vertex -2.07415 -0.328512 0
    endloop
  endfacet
  facet normal -0.233455 0.972368 0
    outer loop
      vertex 0.648935 -1.99722 0
      vertex 0.328512 -2.07415 1
      vertex 0.648935 -1.99722 1
    endloop
  endfacet
  facet normal -0.233455 0.972368 0
    outer loop
      vertex 0.328512 -2.07415 1
      vertex 0.648935 -1.99722 0
      vertex 0.328512 -2.07415 0
    endloop
  endfacet
  facet normal -0.760386 0.649471 0
    outer loop
      vertex 1.48492 -1.48492 0
      vertex 1.69894 -1.23435 1
      vertex 1.69894 -1.23435 0
    endloop
  endfacet
  facet normal -0.760386 0.649471 0
    outer loop
      vertex 1.69894 -1.23435 1
      vertex 1.48492 -1.48492 0
      vertex 1.48492 -1.48492 1
    endloop
  endfacet
  facet normal -0.852652 -0.52248 0
    outer loop
      vertex 1.87111 0.95338 0
      vertex 1.69894 1.23435 1
      vertex 1.69894 1.23435 0
    endloop
  endfacet
  facet normal -0.852652 -0.52248 0
    outer loop
      vertex 1.69894 1.23435 1
      vertex 1.87111 0.95338 0
      vertex 1.87111 0.95338 1
    endloop
  endfacet
  facet normal -0.923874 -0.382696 0
    outer loop
      vertex 1.99722 0.648935 0
      vertex 1.87111 0.95338 1
      vertex 1.87111 0.95338 0
    endloop
  endfacet
  facet normal -0.923874 -0.382696 0
    outer loop
      vertex 1.87111 0.95338 1
      vertex 1.99722 0.648935 0
      vertex 1.99722 0.648935 1
    endloop
  endfacet
  facet normal -0.0784457 0.996918 0
    outer loop
      vertex 0.328512 -2.07415 0
      vertex 0 -2.1 1
      vertex 0.328512 -2.07415 1
    endloop
  endfacet
  facet normal -0.0784457 0.996918 0
    outer loop
      vertex 0 -2.1 1
      vertex 0.328512 -2.07415 0
      vertex 0 -2.1 0
    endloop
  endfacet
  facet normal 0.52248 0.852652 -0
    outer loop
      vertex -0.95338 -1.87111 0
      vertex -1.23435 -1.69894 1
      vertex -0.95338 -1.87111 1
    endloop
  endfacet
  facet normal 0.52248 0.852652 0
    outer loop
      vertex -1.23435 -1.69894 1
      vertex -0.95338 -1.87111 0
      vertex -1.23435 -1.69894 0
    endloop
  endfacet
  facet normal 0.923874 0.382696 0
    outer loop
      vertex -1.87111 -0.95338 1
      vertex -1.99722 -0.648935 0
      vertex -1.99722 -0.648935 1
    endloop
  endfacet
  facet normal 0.923874 0.382696 0
    outer loop
      vertex -1.99722 -0.648935 0
      vertex -1.87111 -0.95338 1
      vertex -1.87111 -0.95338 0
    endloop
  endfacet
  facet normal 0.972368 0.233455 0
    outer loop
      vertex -1.99722 -0.648935 1
      vertex -2.07415 -0.328512 0
      vertex -2.07415 -0.328512 1
    endloop
  endfacet
  facet normal 0.972368 0.233455 0
    outer loop
      vertex -2.07415 -0.328512 0
      vertex -1.99722 -0.648935 1
      vertex -1.99722 -0.648935 0
    endloop
  endfacet
  facet normal 0.760386 0.649471 0
    outer loop
      vertex -1.48492 -1.48492 1
      vertex -1.69894 -1.23435 0
      vertex -1.69894 -1.23435 1
    endloop
  endfacet
  facet normal 0.760386 0.649471 0
    outer loop
      vertex -1.69894 -1.23435 0
      vertex -1.48492 -1.48492 1
      vertex -1.48492 -1.48492 0
    endloop
  endfacet
  facet normal 0.233455 0.972368 -0
    outer loop
      vertex -0.328512 -2.07415 0
      vertex -0.648935 -1.99722 1
      vertex -0.328512 -2.07415 1
    endloop
  endfacet
  facet normal 0.233455 0.972368 0
    outer loop
      vertex -0.648935 -1.99722 1
      vertex -0.328512 -2.07415 0
      vertex -0.648935 -1.99722 0
    endloop
  endfacet
  facet normal 0.382696 0.923874 -0
    outer loop
      vertex -0.648935 -1.99722 0
      vertex -0.95338 -1.87111 1
      vertex -0.648935 -1.99722 1
    endloop
  endfacet
  facet normal 0.382696 0.923874 0
    outer loop
      vertex -0.95338 -1.87111 1
      vertex -0.648935 -1.99722 0
      vertex -0.95338 -1.87111 0
    endloop
  endfacet
  facet normal 0.649471 0.760386 -0
    outer loop
      vertex -1.23435 -1.69894 0
      vertex -1.48492 -1.48492 1
      vertex -1.23435 -1.69894 1
    endloop
  endfacet
  facet normal 0.649471 0.760386 0
    outer loop
      vertex -1.48492 -1.48492 1
      vertex -1.23435 -1.69894 0
      vertex -1.48492 -1.48492 0
    endloop
  endfacet
  facet normal 0.852652 0.52248 0
    outer loop
      vertex -1.69894 -1.23435 1
      vertex -1.87111 -0.95338 0
      vertex -1.87111 -0.95338 1
    endloop
  endfacet
  facet normal 0.852652 0.52248 0
    outer loop
      vertex -1.87111 -0.95338 0
      vertex -1.69894 -1.23435 1
      vertex -1.69894 -1.23435 0
    endloop
  endfacet
endsolid OpenSCAD_Model
