solid OpenSCAD_Model
  facet normal 0.5269395339650466 0.8499027753477979 -9.000173826050307e-7
    outer loop
      vertex 4.34999942779541 13.299999237060547 3.5
      vertex 2.6564509868621826 14.34999942779541 4
      vertex 3.84999942779541 13.609999656677246 4
    endloop
  endfacet
  facet normal 0.5269397156996017 0.849902662672862 -4.784742926760156e-8
    outer loop
      vertex 4.34999942779541 13.299999237060547 3.5
      vertex 1.8499994277954102 14.84999942779541 3.5
      vertex 2.6564509868621826 14.34999942779541 4
    endloop
  endfacet
  facet normal 0.5269397156996023 0.849902662672863 0
    outer loop
      vertex 4.34999942779541 13.299999237060547 0.5
      vertex 1.8499994277954102 14.84999942779541 3.5
      vertex 4.34999942779541 13.299999237060547 3.5
    endloop
  endfacet
  facet normal 0.5269397156996023 0.849902662672863 0
    outer loop
      vertex 4.34999942779541 13.299999237060547 0.5
      vertex 1.8499994277954102 14.84999942779541 0.5
      vertex 1.8499994277954102 14.84999942779541 3.5
    endloop
  endfacet
  facet normal 0.5269395339650466 0.8499027753477979 9.000173826050307e-7
    outer loop
      vertex 2.6564509868621826 14.34999942779541 0
      vertex 4.34999942779541 13.299999237060547 0.5
      vertex 3.84999942779541 13.609999656677246 0
    endloop
  endfacet
  facet normal 0.5269397156996017 0.849902662672862 4.784742926760156e-8
    outer loop
      vertex 4.34999942779541 13.299999237060547 0.5
      vertex 2.6564509868621826 14.34999942779541 0
      vertex 1.8499994277954102 14.84999942779541 0.5
    endloop
  endfacet
  facet normal 0 0 -1
    outer loop
      vertex 3.84999942779541 -13.609999656677246 0
      vertex 1.4616718292236328 -9.349221229553223 0
      vertex 3.84999942779541 13.609999656677246 0
    endloop
  endfacet
  facet normal 0 0 -1
    outer loop
      vertex 3.84999942779541 13.609999656677246 0
      vertex 1.5650358200073242 9.667341232299805 0
      vertex 1.5999994277954102 10 0
    endloop
  endfacet
  facet normal 0 0 -1
    outer loop
      vertex 1.4616718292236328 9.349221229553223 0
      vertex 3.84999942779541 13.609999656677246 0
      vertex 1.4616718292236328 -9.349221229553223 0
    endloop
  endfacet
  facet normal 0 0 -1
    outer loop
      vertex 3.84999942779541 13.609999656677246 0
      vertex 1.4616718292236328 9.349221229553223 0
      vertex 1.5650358200073242 9.667341232299805 0
    endloop
  endfacet
  facet normal 0 0 -1
    outer loop
      vertex 1.2944269180297852 -9.059542655944824 0
      vertex 1.4616718292236328 9.349221229553223 0
      vertex 1.4616718292236328 -9.349221229553223 0
    endloop
  endfacet
  facet normal 0 0 -1
    outer loop
      vertex 1.2944269180297852 -9.059542655944824 0
      vertex 1.2944269180297852 9.059542655944824 0
      vertex 1.4616718292236328 9.349221229553223 0
    endloop
  endfacet
  facet normal 0 0 -1
    outer loop
      vertex 1.070608139038086 -8.810967445373535 0
      vertex 1.2944269180297852 9.059542655944824 0
      vertex 1.2944269180297852 -9.059542655944824 0
    endloop
  endfacet
  facet normal 0 0 -1
    outer loop
      vertex 1.070608139038086 -8.810967445373535 0
      vertex 1.070608139038086 8.810967445373535 0
      vertex 1.2944269180297852 9.059542655944824 0
    endloop
  endfacet
  facet normal 0 0 -1
    outer loop
      vertex 0.7999992370605469 -8.614358901977539 0
      vertex 1.070608139038086 8.810967445373535 0
      vertex 1.070608139038086 -8.810967445373535 0
    endloop
  endfacet
  facet normal 0 0 -1
    outer loop
      vertex 0.7999992370605469 -8.614358901977539 0
      vertex 0.7999992370605469 8.614358901977539 0
      vertex 1.070608139038086 8.810967445373535 0
    endloop
  endfacet
  facet normal 0 0 -1
    outer loop
      vertex 0.4944267272949219 -8.47830867767334 0
      vertex 0.7999992370605469 8.614358901977539 0
      vertex 0.7999992370605469 -8.614358901977539 0
    endloop
  endfacet
  facet normal 0 0 -1
    outer loop
      vertex 0.4944267272949219 -8.47830867767334 0
      vertex 0.4944267272949219 8.47830867767334 0
      vertex 0.7999992370605469 8.614358901977539 0
    endloop
  endfacet
  facet normal 0 0 -1
    outer loop
      vertex 0.16724491119384766 -8.408764839172363 0
      vertex 0.4944267272949219 8.47830867767334 0
      vertex 0.4944267272949219 -8.47830867767334 0
    endloop
  endfacet
  facet normal 0 0 -1
    outer loop
      vertex 0.16724491119384766 -8.408764839172363 0
      vertex 0.16724491119384766 8.408764839172363 0
      vertex 0.4944267272949219 8.47830867767334 0
    endloop
  endfacet
  facet normal 0 0 -1
    outer loop
      vertex -0.16724491119384766 -8.408764839172363 0
      vertex 0.16724491119384766 8.408764839172363 0
      vertex 0.16724491119384766 -8.408764839172363 0
    endloop
  endfacet
  facet normal 0 0 -1
    outer loop
      vertex -0.16724491119384766 -8.408764839172363 0
      vertex -0.16724491119384766 8.408764839172363 0
      vertex 0.16724491119384766 8.408764839172363 0
    endloop
  endfacet
  facet normal 0 0 -1
    outer loop
      vertex -0.4944267272949219 -8.47830867767334 0
      vertex -0.16724491119384766 8.408764839172363 0
      vertex -0.16724491119384766 -8.408764839172363 0
    endloop
  endfacet
  facet normal 0 0 -1
    outer loop
      vertex -0.4944267272949219 -8.47830867767334 0
      vertex -0.4944267272949219 8.47830867767334 0
      vertex -0.16724491119384766 8.408764839172363 0
    endloop
  endfacet
  facet normal 0 0 -1
    outer loop
      vertex -0.7999992370605469 -8.614358901977539 0
      vertex -0.4944267272949219 8.47830867767334 0
      vertex -0.4944267272949219 -8.47830867767334 0
    endloop
  endfacet
  facet normal 0 0 -1
    outer loop
      vertex -0.7999992370605469 -8.614358901977539 0
      vertex -0.7999992370605469 8.614358901977539 0
      vertex -0.4944267272949219 8.47830867767334 0
    endloop
  endfacet
  facet normal 0 0 -1
    outer loop
      vertex -1.070608139038086 -8.810967445373535 0
      vertex -0.7999992370605469 8.614358901977539 0
      vertex -0.7999992370605469 -8.614358901977539 0
    endloop
  endfacet
  facet normal 0 0 -1
    outer loop
      vertex -1.070608139038086 -8.810967445373535 0
      vertex -1.070608139038086 8.810967445373535 0
      vertex -0.7999992370605469 8.614358901977539 0
    endloop
  endfacet
  facet normal 0 0 -1
    outer loop
      vertex -1.2944269180297852 -9.059542655944824 0
      vertex -1.070608139038086 8.810967445373535 0
      vertex -1.070608139038086 -8.810967445373535 0
    endloop
  endfacet
  facet normal 0 0 -1
    outer loop
      vertex -1.2944269180297852 -9.059542655944824 0
      vertex -1.2944269180297852 9.059542655944824 0
      vertex -1.070608139038086 8.810967445373535 0
    endloop
  endfacet
  facet normal 0 0 -1
    outer loop
      vertex -1.4616718292236328 -9.349221229553223 0
      vertex -1.2944269180297852 9.059542655944824 0
      vertex -1.2944269180297852 -9.059542655944824 0
    endloop
  endfacet
  facet normal 0 0 -1
    outer loop
      vertex -1.4616718292236328 -9.349221229553223 0
      vertex -1.4616718292236328 9.349221229553223 0
      vertex -1.2944269180297852 9.059542655944824 0
    endloop
  endfacet
  facet normal 0 0 -1
    outer loop
      vertex -3.84999942779541 -13.609999656677246 0
      vertex -1.4616718292236328 -9.349221229553223 0
      vertex -1.5650358200073242 -9.667341232299805 0
    endloop
  endfacet
  facet normal 0 0 -1
    outer loop
      vertex -1.4616718292236328 -9.349221229553223 0
      vertex -3.84999942779541 -13.609999656677246 0
      vertex -1.4616718292236328 9.349221229553223 0
    endloop
  endfacet
  facet normal 0 0 -1
    outer loop
      vertex -3.84999942779541 -13.609999656677246 0
      vertex -1.5650358200073242 -9.667341232299805 0
      vertex -1.5999994277954102 -10 0
    endloop
  endfacet
  facet normal 0 0 -1
    outer loop
      vertex -3.84999942779541 13.609999656677246 0
      vertex -1.4616718292236328 9.349221229553223 0
      vertex -3.84999942779541 -13.609999656677246 0
    endloop
  endfacet
  facet normal 0 0 -1
    outer loop
      vertex 1.070608139038086 -11.189031600952148 0
      vertex 3.84999942779541 -13.609999656677246 0
      vertex 2.6564509868621826 -14.34999942779541 0
    endloop
  endfacet
  facet normal 0 0 -1
    outer loop
      vertex 1.5650358200073242 -9.667341232299805 0
      vertex 3.84999942779541 -13.609999656677246 0
      vertex 1.5999994277954102 -10 0
    endloop
  endfacet
  facet normal 0 0 -1
    outer loop
      vertex 1.4616718292236328 -9.349221229553223 0
      vertex 3.84999942779541 -13.609999656677246 0
      vertex 1.5650358200073242 -9.667341232299805 0
    endloop
  endfacet
  facet normal 0 0 -1
    outer loop
      vertex 3.84999942779541 -13.609999656677246 0
      vertex 1.5650358200073242 -10.332657814025879 0
      vertex 1.5999994277954102 -10 0
    endloop
  endfacet
  facet normal 0 0 -1
    outer loop
      vertex 3.84999942779541 -13.609999656677246 0
      vertex 1.4616718292236328 -10.650777816772461 0
      vertex 1.5650358200073242 -10.332657814025879 0
    endloop
  endfacet
  facet normal 0 0 -1
    outer loop
      vertex 3.84999942779541 -13.609999656677246 0
      vertex 1.2944269180297852 -10.94045639038086 0
      vertex 1.4616718292236328 -10.650777816772461 0
    endloop
  endfacet
  facet normal 0 0 -1
    outer loop
      vertex 3.84999942779541 -13.609999656677246 0
      vertex 1.070608139038086 -11.189031600952148 0
      vertex 1.2944269180297852 -10.94045639038086 0
    endloop
  endfacet
  facet normal 0 0 -1
    outer loop
      vertex 2.6564509868621826 -14.34999942779541 0
      vertex 0.7999992370605469 -11.385640144348145 0
      vertex 1.070608139038086 -11.189031600952148 0
    endloop
  endfacet
  facet normal 0 0 -1
    outer loop
      vertex 2.6564509868621826 -14.34999942779541 0
      vertex 0.4944267272949219 -11.521690368652344 0
      vertex 0.7999992370605469 -11.385640144348145 0
    endloop
  endfacet
  facet normal 0 0 -1
    outer loop
      vertex 2.6564509868621826 -14.34999942779541 0
      vertex 0.16724491119384766 -11.59123420715332 0
      vertex 0.4944267272949219 -11.521690368652344 0
    endloop
  endfacet
  facet normal 0 0 -1
    outer loop
      vertex 2.6564509868621826 -14.34999942779541 0
      vertex -0.16724491119384766 -11.59123420715332 0
      vertex 0.16724491119384766 -11.59123420715332 0
    endloop
  endfacet
  facet normal 0 0 -1
    outer loop
      vertex -2.6564509868621826 -14.34999942779541 0
      vertex -0.16724491119384766 -11.59123420715332 0
      vertex 2.6564509868621826 -14.34999942779541 0
    endloop
  endfacet
  facet normal 0 0 -1
    outer loop
      vertex -0.16724491119384766 -11.59123420715332 0
      vertex -2.6564509868621826 -14.34999942779541 0
      vertex -0.4944267272949219 -11.521690368652344 0
    endloop
  endfacet
  facet normal 0 0 -1
    outer loop
      vertex -0.4944267272949219 -11.521690368652344 0
      vertex -2.6564509868621826 -14.34999942779541 0
      vertex -0.7999992370605469 -11.385640144348145 0
    endloop
  endfacet
  facet normal 0 0 -1
    outer loop
      vertex -1.5650358200073242 -10.332657814025879 0
      vertex -3.84999942779541 -13.609999656677246 0
      vertex -1.5999994277954102 -10 0
    endloop
  endfacet
  facet normal 0 0 -1
    outer loop
      vertex -1.4616718292236328 -10.650777816772461 0
      vertex -3.84999942779541 -13.609999656677246 0
      vertex -1.5650358200073242 -10.332657814025879 0
    endloop
  endfacet
  facet normal 0 0 -1
    outer loop
      vertex -1.2944269180297852 -10.94045639038086 0
      vertex -3.84999942779541 -13.609999656677246 0
      vertex -1.4616718292236328 -10.650777816772461 0
    endloop
  endfacet
  facet normal 0 0 -1
    outer loop
      vertex -1.070608139038086 -11.189031600952148 0
      vertex -3.84999942779541 -13.609999656677246 0
      vertex -1.2944269180297852 -10.94045639038086 0
    endloop
  endfacet
  facet normal 0 0 -1
    outer loop
      vertex -3.84999942779541 -13.609999656677246 0
      vertex -1.070608139038086 -11.189031600952148 0
      vertex -2.6564509868621826 -14.34999942779541 0
    endloop
  endfacet
  facet normal 0 0 -1
    outer loop
      vertex -0.7999992370605469 -11.385640144348145 0
      vertex -2.6564509868621826 -14.34999942779541 0
      vertex -1.070608139038086 -11.189031600952148 0
    endloop
  endfacet
  facet normal 0 0 -1
    outer loop
      vertex 1.5650358200073242 10.332657814025879 0
      vertex 3.84999942779541 13.609999656677246 0
      vertex 1.5999994277954102 10 0
    endloop
  endfacet
  facet normal 0 0 -1
    outer loop
      vertex 1.4616718292236328 10.650777816772461 0
      vertex 3.84999942779541 13.609999656677246 0
      vertex 1.5650358200073242 10.332657814025879 0
    endloop
  endfacet
  facet normal 0 0 -1
    outer loop
      vertex 1.2944269180297852 10.94045639038086 0
      vertex 3.84999942779541 13.609999656677246 0
      vertex 1.4616718292236328 10.650777816772461 0
    endloop
  endfacet
  facet normal 0 0 -1
    outer loop
      vertex 1.070608139038086 11.189031600952148 0
      vertex 3.84999942779541 13.609999656677246 0
      vertex 1.2944269180297852 10.94045639038086 0
    endloop
  endfacet
  facet normal 0 0 -1
    outer loop
      vertex 3.84999942779541 13.609999656677246 0
      vertex 1.070608139038086 11.189031600952148 0
      vertex 2.6564509868621826 14.34999942779541 0
    endloop
  endfacet
  facet normal 0 0 -1
    outer loop
      vertex 0.7999992370605469 11.385640144348145 0
      vertex 2.6564509868621826 14.34999942779541 0
      vertex 1.070608139038086 11.189031600952148 0
    endloop
  endfacet
  facet normal 0 0 -1
    outer loop
      vertex 0.4944267272949219 11.521690368652344 0
      vertex 2.6564509868621826 14.34999942779541 0
      vertex 0.7999992370605469 11.385640144348145 0
    endloop
  endfacet
  facet normal 0 0 -1
    outer loop
      vertex 0.16724491119384766 11.59123420715332 0
      vertex 2.6564509868621826 14.34999942779541 0
      vertex 0.4944267272949219 11.521690368652344 0
    endloop
  endfacet
  facet normal 0 0 -1
    outer loop
      vertex -0.16724491119384766 11.59123420715332 0
      vertex 2.6564509868621826 14.34999942779541 0
      vertex 0.16724491119384766 11.59123420715332 0
    endloop
  endfacet
  facet normal 0 0 -1
    outer loop
      vertex -2.6564509868621826 14.34999942779541 0
      vertex -0.16724491119384766 11.59123420715332 0
      vertex -0.4944267272949219 11.521690368652344 0
    endloop
  endfacet
  facet normal 0 0 -1
    outer loop
      vertex -2.6564509868621826 14.34999942779541 0
      vertex -0.4944267272949219 11.521690368652344 0
      vertex -0.7999992370605469 11.385640144348145 0
    endloop
  endfacet
  facet normal 0 0 -1
    outer loop
      vertex -2.6564509868621826 14.34999942779541 0
      vertex -0.7999992370605469 11.385640144348145 0
      vertex -1.070608139038086 11.189031600952148 0
    endloop
  endfacet
  facet normal 0 0 -1
    outer loop
      vertex -0.16724491119384766 11.59123420715332 0
      vertex -2.6564509868621826 14.34999942779541 0
      vertex 2.6564509868621826 14.34999942779541 0
    endloop
  endfacet
  facet normal 0 0 -1
    outer loop
      vertex -3.84999942779541 13.609999656677246 0
      vertex -1.070608139038086 11.189031600952148 0
      vertex -1.2944269180297852 10.94045639038086 0
    endloop
  endfacet
  facet normal 0 0 -1
    outer loop
      vertex -3.84999942779541 13.609999656677246 0
      vertex -1.2944269180297852 10.94045639038086 0
      vertex -1.4616718292236328 10.650777816772461 0
    endloop
  endfacet
  facet normal 0 0 -1
    outer loop
      vertex -3.84999942779541 13.609999656677246 0
      vertex -1.4616718292236328 10.650777816772461 0
      vertex -1.5650358200073242 10.332657814025879 0
    endloop
  endfacet
  facet normal 0 0 -1
    outer loop
      vertex -3.84999942779541 13.609999656677246 0
      vertex -1.5650358200073242 10.332657814025879 0
      vertex -1.5999994277954102 10 0
    endloop
  endfacet
  facet normal 0 0 -1
    outer loop
      vertex -1.4616718292236328 9.349221229553223 0
      vertex -3.84999942779541 13.609999656677246 0
      vertex -1.5650358200073242 9.667341232299805 0
    endloop
  endfacet
  facet normal 0 0 -1
    outer loop
      vertex -1.5650358200073242 9.667341232299805 0
      vertex -3.84999942779541 13.609999656677246 0
      vertex -1.5999994277954102 10 0
    endloop
  endfacet
  facet normal 0 0 -1
    outer loop
      vertex -1.070608139038086 11.189031600952148 0
      vertex -3.84999942779541 13.609999656677246 0
      vertex -2.6564509868621826 14.34999942779541 0
    endloop
  endfacet
  facet normal 0.5269397156996017 -0.849902662672862 -4.784742926760156e-8
    outer loop
      vertex 4.34999942779541 -13.299999237060547 3.5
      vertex 2.6564509868621826 -14.34999942779541 4
      vertex 1.8499994277954102 -14.84999942779541 3.5
    endloop
  endfacet
  facet normal 0.5269395339650466 -0.8499027753477979 -9.000173826050307e-7
    outer loop
      vertex 2.6564509868621826 -14.34999942779541 4
      vertex 4.34999942779541 -13.299999237060547 3.5
      vertex 3.84999942779541 -13.609999656677246 4
    endloop
  endfacet
  facet normal 0.5269397156996023 -0.849902662672863 0
    outer loop
      vertex 1.8499994277954102 -14.84999942779541 0.5
      vertex 4.34999942779541 -13.299999237060547 3.5
      vertex 1.8499994277954102 -14.84999942779541 3.5
    endloop
  endfacet
  facet normal 0.5269397156996023 -0.849902662672863 0
    outer loop
      vertex 1.8499994277954102 -14.84999942779541 0.5
      vertex 4.34999942779541 -13.299999237060547 0.5
      vertex 4.34999942779541 -13.299999237060547 3.5
    endloop
  endfacet
  facet normal 0.5269397156996017 -0.849902662672862 4.784742926760156e-8
    outer loop
      vertex 2.6564509868621826 -14.34999942779541 0
      vertex 4.34999942779541 -13.299999237060547 0.5
      vertex 1.8499994277954102 -14.84999942779541 0.5
    endloop
  endfacet
  facet normal 0.5269395339650466 -0.8499027753477979 9.000173826050307e-7
    outer loop
      vertex 4.34999942779541 -13.299999237060547 0.5
      vertex 2.6564509868621826 -14.34999942779541 0
      vertex 3.84999942779541 -13.609999656677246 0
    endloop
  endfacet
  facet normal 0 -1 0
    outer loop
      vertex -1.8499994277954102 -14.84999942779541 0.5
      vertex 1.8499994277954102 -14.84999942779541 3.5
      vertex -1.8499994277954102 -14.84999942779541 3.5
    endloop
  endfacet
  facet normal 0 -1 0
    outer loop
      vertex 1.8499994277954102 -14.84999942779541 3.5
      vertex -1.8499994277954102 -14.84999942779541 0.5
      vertex 1.8499994277954102 -14.84999942779541 0.5
    endloop
  endfacet
  facet normal 1 0 0
    outer loop
      vertex 4.34999942779541 -13.299999237060547 3.5
      vertex 4.34999942779541 13.299999237060547 0.5
      vertex 4.34999942779541 13.299999237060547 3.5
    endloop
  endfacet
  facet normal 1 0 0
    outer loop
      vertex 4.34999942779541 13.299999237060547 0.5
      vertex 4.34999942779541 -13.299999237060547 3.5
      vertex 4.34999942779541 -13.299999237060547 0.5
    endloop
  endfacet
  facet normal 0 0 1
    outer loop
      vertex 3 -5 4
      vertex 0 -6.84999942779541 4
      vertex 2.7279796600341797 -8.424999237060547 4
    endloop
  endfacet
  facet normal 0 0 1
    outer loop
      vertex -3 -5 4
      vertex 0 -6.84999942779541 4
      vertex 3 -5 4
    endloop
  endfacet
  facet normal 0 0 1
    outer loop
      vertex -3.84999942779541 -13.609999656677246 4
      vertex -2.7279796600341797 -8.424999237060547 4
      vertex -3 -5 4
    endloop
  endfacet
  facet normal 0 0 1
    outer loop
      vertex 0 -6.84999942779541 4
      vertex -3 -5 4
      vertex -2.7279796600341797 -8.424999237060547 4
    endloop
  endfacet
  facet normal 0 0 1
    outer loop
      vertex 3.84999942779541 13.609999656677246 4
      vertex 3 5 4
      vertex 3.84999942779541 -13.609999656677246 4
    endloop
  endfacet
  facet normal 0 0 1
    outer loop
      vertex 2.7279796600341797 8.424999237060547 4
      vertex 3.84999942779541 13.609999656677246 4
      vertex 2.7279796600341797 11.574999809265137 4
    endloop
  endfacet
  facet normal 0 0 1
    outer loop
      vertex 2.6564509868621826 14.34999942779541 4
      vertex 2.7279796600341797 11.574999809265137 4
      vertex 3.84999942779541 13.609999656677246 4
    endloop
  endfacet
  facet normal 0 0 1
    outer loop
      vertex 2.6564509868621826 14.34999942779541 4
      vertex 0 13.149999618530273 4
      vertex 2.7279796600341797 11.574999809265137 4
    endloop
  endfacet
  facet normal 0 0 1
    outer loop
      vertex -2.6564509868621826 14.34999942779541 4
      vertex 0 13.149999618530273 4
      vertex 2.6564509868621826 14.34999942779541 4
    endloop
  endfacet
  facet normal 0 0 1
    outer loop
      vertex -2.6564509868621826 14.34999942779541 4
      vertex -2.7279796600341797 11.574999809265137 4
      vertex 0 13.149999618530273 4
    endloop
  endfacet
  facet normal 0 0 1
    outer loop
      vertex -3.84999942779541 13.609999656677246 4
      vertex -2.7279796600341797 8.424999237060547 4
      vertex -2.7279796600341797 11.574999809265137 4
    endloop
  endfacet
  facet normal 0 0 1
    outer loop
      vertex -3.84999942779541 13.609999656677246 4
      vertex -2.7279796600341797 11.574999809265137 4
      vertex -2.6564509868621826 14.34999942779541 4
    endloop
  endfacet
  facet normal 0 0 1
    outer loop
      vertex -3 5 4
      vertex -3.84999942779541 13.609999656677246 4
      vertex -3 -5 4
    endloop
  endfacet
  facet normal 0 0 1
    outer loop
      vertex -2.7279796600341797 8.424999237060547 4
      vertex -3.84999942779541 13.609999656677246 4
      vertex -3 5 4
    endloop
  endfacet
  facet normal 0 0 1
    outer loop
      vertex 3 -5 4
      vertex 3.84999942779541 -13.609999656677246 4
      vertex 3 5 4
    endloop
  endfacet
  facet normal 0 0 1
    outer loop
      vertex 2.7279796600341797 -8.424999237060547 4
      vertex 3.84999942779541 -13.609999656677246 4
      vertex 3 -5 4
    endloop
  endfacet
  facet normal 0 0 1
    outer loop
      vertex 2.7279796600341797 -11.574999809265137 4
      vertex 3.84999942779541 -13.609999656677246 4
      vertex 2.7279796600341797 -8.424999237060547 4
    endloop
  endfacet
  facet normal 0 0 1
    outer loop
      vertex 2.7279796600341797 -11.574999809265137 4
      vertex 2.6564509868621826 -14.34999942779541 4
      vertex 3.84999942779541 -13.609999656677246 4
    endloop
  endfacet
  facet normal 0 0 1
    outer loop
      vertex 0 -13.149999618530273 4
      vertex 2.6564509868621826 -14.34999942779541 4
      vertex 2.7279796600341797 -11.574999809265137 4
    endloop
  endfacet
  facet normal 0 0 1
    outer loop
      vertex 0 -13.149999618530273 4
      vertex -2.6564509868621826 -14.34999942779541 4
      vertex 2.6564509868621826 -14.34999942779541 4
    endloop
  endfacet
  facet normal 0 0 1
    outer loop
      vertex -2.7279796600341797 -11.574999809265137 4
      vertex -2.6564509868621826 -14.34999942779541 4
      vertex 0 -13.149999618530273 4
    endloop
  endfacet
  facet normal 0 0 1
    outer loop
      vertex -2.7279796600341797 -8.424999237060547 4
      vertex -3.84999942779541 -13.609999656677246 4
      vertex -2.7279796600341797 -11.574999809265137 4
    endloop
  endfacet
  facet normal 0 0 1
    outer loop
      vertex -3.84999942779541 -13.609999656677246 4
      vertex -3 -5 4
      vertex -3.84999942779541 13.609999656677246 4
    endloop
  endfacet
  facet normal 0 0 1
    outer loop
      vertex -2.7279796600341797 -11.574999809265137 4
      vertex -3.84999942779541 -13.609999656677246 4
      vertex -2.6564509868621826 -14.34999942779541 4
    endloop
  endfacet
  facet normal 0 0 1
    outer loop
      vertex 3.84999942779541 13.609999656677246 4
      vertex 2.7279796600341797 8.424999237060547 4
      vertex 3 5 4
    endloop
  endfacet
  facet normal 0 0 1
    outer loop
      vertex 0 6.84999942779541 4
      vertex 3 5 4
      vertex 2.7279796600341797 8.424999237060547 4
    endloop
  endfacet
  facet normal 0 0 1
    outer loop
      vertex -3 5 4
      vertex 0 6.84999942779541 4
      vertex -2.7279796600341797 8.424999237060547 4
    endloop
  endfacet
  facet normal 0 0 1
    outer loop
      vertex 0 6.84999942779541 4
      vertex -3 5 4
      vertex 3 5 4
    endloop
  endfacet
  facet normal 0 1 0
    outer loop
      vertex 1.8499994277954102 14.84999942779541 0.5
      vertex -1.8499994277954102 14.84999942779541 3.5
      vertex 1.8499994277954102 14.84999942779541 3.5
    endloop
  endfacet
  facet normal 0 1 0
    outer loop
      vertex -1.8499994277954102 14.84999942779541 3.5
      vertex 1.8499994277954102 14.84999942779541 0.5
      vertex -1.8499994277954102 14.84999942779541 0.5
    endloop
  endfacet
  facet normal -0.5269395339650466 -0.8499027753477979 -9.000173826050307e-7
    outer loop
      vertex -4.34999942779541 -13.299999237060547 3.5
      vertex -2.6564509868621826 -14.34999942779541 4
      vertex -3.84999942779541 -13.609999656677246 4
    endloop
  endfacet
  facet normal -0.5269397156996017 -0.849902662672862 -4.784742926760156e-8
    outer loop
      vertex -4.34999942779541 -13.299999237060547 3.5
      vertex -1.8499994277954102 -14.84999942779541 3.5
      vertex -2.6564509868621826 -14.34999942779541 4
    endloop
  endfacet
  facet normal -0.5269397156996023 -0.849902662672863 0
    outer loop
      vertex -4.34999942779541 -13.299999237060547 0.5
      vertex -1.8499994277954102 -14.84999942779541 3.5
      vertex -4.34999942779541 -13.299999237060547 3.5
    endloop
  endfacet
  facet normal -0.5269397156996023 -0.849902662672863 0
    outer loop
      vertex -4.34999942779541 -13.299999237060547 0.5
      vertex -1.8499994277954102 -14.84999942779541 0.5
      vertex -1.8499994277954102 -14.84999942779541 3.5
    endloop
  endfacet
  facet normal -0.5269395339650466 -0.8499027753477979 9.000173826050307e-7
    outer loop
      vertex -2.6564509868621826 -14.34999942779541 0
      vertex -4.34999942779541 -13.299999237060547 0.5
      vertex -3.84999942779541 -13.609999656677246 0
    endloop
  endfacet
  facet normal -0.5269397156996017 -0.849902662672862 4.784742926760156e-8
    outer loop
      vertex -4.34999942779541 -13.299999237060547 0.5
      vertex -2.6564509868621826 -14.34999942779541 0
      vertex -1.8499994277954102 -14.84999942779541 0.5
    endloop
  endfacet
  facet normal -0.5269397156996017 0.849902662672862 -4.784742926760156e-8
    outer loop
      vertex -4.34999942779541 13.299999237060547 3.5
      vertex -2.6564509868621826 14.34999942779541 4
      vertex -1.8499994277954102 14.84999942779541 3.5
    endloop
  endfacet
  facet normal -0.5269395339650466 0.8499027753477979 -9.000173826050307e-7
    outer loop
      vertex -2.6564509868621826 14.34999942779541 4
      vertex -4.34999942779541 13.299999237060547 3.5
      vertex -3.84999942779541 13.609999656677246 4
    endloop
  endfacet
  facet normal -0.5269397156996023 0.849902662672863 0
    outer loop
      vertex -1.8499994277954102 14.84999942779541 0.5
      vertex -4.34999942779541 13.299999237060547 3.5
      vertex -1.8499994277954102 14.84999942779541 3.5
    endloop
  endfacet
  facet normal -0.5269397156996023 0.849902662672863 0
    outer loop
      vertex -1.8499994277954102 14.84999942779541 0.5
      vertex -4.34999942779541 13.299999237060547 0.5
      vertex -4.34999942779541 13.299999237060547 3.5
    endloop
  endfacet
  facet normal -0.5269397156996017 0.849902662672862 4.784742926760156e-8
    outer loop
      vertex -2.6564509868621826 14.34999942779541 0
      vertex -4.34999942779541 13.299999237060547 0.5
      vertex -1.8499994277954102 14.84999942779541 0.5
    endloop
  endfacet
  facet normal -0.5269395339650466 0.8499027753477979 9.000173826050307e-7
    outer loop
      vertex -4.34999942779541 13.299999237060547 0.5
      vertex -2.6564509868621826 14.34999942779541 0
      vertex -3.84999942779541 13.609999656677246 0
    endloop
  endfacet
  facet normal -1 0 0
    outer loop
      vertex -4.34999942779541 -13.299999237060547 0.5
      vertex -4.34999942779541 13.299999237060547 3.5
      vertex -4.34999942779541 13.299999237060547 0.5
    endloop
  endfacet
  facet normal -1 0 0
    outer loop
      vertex -4.34999942779541 13.299999237060547 3.5
      vertex -4.34999942779541 -13.299999237060547 0.5
      vertex -4.34999942779541 -13.299999237060547 3.5
    endloop
  endfacet
  facet normal 0 -0.7071067811865475 -0.7071067811865475
    outer loop
      vertex -2.6564509868621826 -14.34999942779541 0
      vertex 1.8499994277954102 -14.84999942779541 0.5
      vertex -1.8499994277954102 -14.84999942779541 0.5
    endloop
  endfacet
  facet normal 0 -0.7071067811865475 -0.7071067811865475
    outer loop
      vertex 1.8499994277954102 -14.84999942779541 0.5
      vertex -2.6564509868621826 -14.34999942779541 0
      vertex 2.6564509868621826 -14.34999942779541 0
    endloop
  endfacet
  facet normal 0.7071067811865476 0 0.7071067811865476
    outer loop
      vertex 3.84999942779541 13.609999656677246 4
      vertex 4.34999942779541 -13.299999237060547 3.5
      vertex 4.34999942779541 13.299999237060547 3.5
    endloop
  endfacet
  facet normal 0.7071067811865475 0 0.7071067811865475
    outer loop
      vertex 4.34999942779541 -13.299999237060547 3.5
      vertex 3.84999942779541 13.609999656677246 4
      vertex 3.84999942779541 -13.609999656677246 4
    endloop
  endfacet
  facet normal 0 0.7071067811865475 -0.7071067811865475
    outer loop
      vertex 2.6564509868621826 14.34999942779541 0
      vertex -1.8499994277954102 14.84999942779541 0.5
      vertex 1.8499994277954102 14.84999942779541 0.5
    endloop
  endfacet
  facet normal 0 0.7071067811865475 -0.7071067811865475
    outer loop
      vertex -1.8499994277954102 14.84999942779541 0.5
      vertex 2.6564509868621826 14.34999942779541 0
      vertex -2.6564509868621826 14.34999942779541 0
    endloop
  endfacet
  facet normal 0.7071067811865476 0 -0.7071067811865476
    outer loop
      vertex 4.34999942779541 -13.299999237060547 0.5
      vertex 3.84999942779541 13.609999656677246 0
      vertex 4.34999942779541 13.299999237060547 0.5
    endloop
  endfacet
  facet normal 0.7071067811865475 0 -0.7071067811865475
    outer loop
      vertex 3.84999942779541 13.609999656677246 0
      vertex 4.34999942779541 -13.299999237060547 0.5
      vertex 3.84999942779541 -13.609999656677246 0
    endloop
  endfacet
  facet normal 0 0.7071067811865475 0.7071067811865475
    outer loop
      vertex 1.8499994277954102 14.84999942779541 3.5
      vertex -2.6564509868621826 14.34999942779541 4
      vertex 2.6564509868621826 14.34999942779541 4
    endloop
  endfacet
  facet normal 0 0.7071067811865475 0.7071067811865475
    outer loop
      vertex -2.6564509868621826 14.34999942779541 4
      vertex 1.8499994277954102 14.84999942779541 3.5
      vertex -1.8499994277954102 14.84999942779541 3.5
    endloop
  endfacet
  facet normal -0.7071067811865476 0 0.7071067811865476
    outer loop
      vertex -4.34999942779541 -13.299999237060547 3.5
      vertex -3.84999942779541 13.609999656677246 4
      vertex -4.34999942779541 13.299999237060547 3.5
    endloop
  endfacet
  facet normal -0.7071067811865475 0 0.7071067811865475
    outer loop
      vertex -3.84999942779541 13.609999656677246 4
      vertex -4.34999942779541 -13.299999237060547 3.5
      vertex -3.84999942779541 -13.609999656677246 4
    endloop
  endfacet
  facet normal -0.7071067811865476 0 -0.7071067811865476
    outer loop
      vertex -3.84999942779541 13.609999656677246 0
      vertex -4.34999942779541 -13.299999237060547 0.5
      vertex -4.34999942779541 13.299999237060547 0.5
    endloop
  endfacet
  facet normal -0.7071067811865475 0 -0.7071067811865475
    outer loop
      vertex -4.34999942779541 -13.299999237060547 0.5
      vertex -3.84999942779541 13.609999656677246 0
      vertex -3.84999942779541 -13.609999656677246 0
    endloop
  endfacet
  facet normal 0 -0.7071067811865475 0.7071067811865475
    outer loop
      vertex -1.8499994277954102 -14.84999942779541 3.5
      vertex 2.6564509868621826 -14.34999942779541 4
      vertex -2.6564509868621826 -14.34999942779541 4
    endloop
  endfacet
  facet normal 0 -0.7071067811865475 0.7071067811865475
    outer loop
      vertex 2.6564509868621826 -14.34999942779541 4
      vertex -1.8499994277954102 -14.84999942779541 3.5
      vertex 1.8499994277954102 -14.84999942779541 3.5
    endloop
  endfacet
  facet normal -0.2079093928698154 0.9781480891748981 0
    outer loop
      vertex 0.4944267272949219 8.47830867767334 0
      vertex 0.16724491119384766 8.408764839172363 0.39999961853027344
      vertex 0.4944267272949219 8.47830867767334 0.39999961853027344
    endloop
  endfacet
  facet normal -0.2079093928698154 0.9781480891748981 0
    outer loop
      vertex 0.16724491119384766 8.408764839172363 0.39999961853027344
      vertex 0.4944267272949219 8.47830867767334 0
      vertex 0.16724491119384766 8.408764839172363 0
    endloop
  endfacet
  facet normal -0.2079093928698154 -0.9781480891748981 0
    outer loop
      vertex 0.16724491119384766 11.59123420715332 0
      vertex 0.4944267272949219 11.521690368652344 0.39999961853027344
      vertex 0.16724491119384766 11.59123420715332 0.39999961853027344
    endloop
  endfacet
  facet normal -0.2079093928698154 -0.9781480891748981 0
    outer loop
      vertex 0.4944267272949219 11.521690368652344 0.39999961853027344
      vertex 0.16724491119384766 11.59123420715332 0
      vertex 0.4944267272949219 11.521690368652344 0
    endloop
  endfacet
  facet normal 0.8660268164577912 -0.49999755316999633 0
    outer loop
      vertex -1.4616718292236328 10.650777816772461 0.39999961853027344
      vertex -1.2944269180297852 10.94045639038086 0
      vertex -1.2944269180297852 10.94045639038086 0.39999961853027344
    endloop
  endfacet
  facet normal 0.8660268164577912 -0.49999755316999633 0
    outer loop
      vertex -1.2944269180297852 10.94045639038086 0
      vertex -1.4616718292236328 10.650777816772461 0.39999961853027344
      vertex -1.4616718292236328 10.650777816772461 0
    endloop
  endfacet
  facet normal -0.8660268164577912 0.49999755316999633 0
    outer loop
      vertex 1.2944269180297852 9.059542655944824 0
      vertex 1.4616718292236328 9.349221229553223 0.39999961853027344
      vertex 1.4616718292236328 9.349221229553223 0
    endloop
  endfacet
  facet normal -0.8660268164577912 0.49999755316999633 0
    outer loop
      vertex 1.4616718292236328 9.349221229553223 0.39999961853027344
      vertex 1.2944269180297852 9.059542655944824 0
      vertex 1.2944269180297852 9.059542655944824 0.39999961853027344
    endloop
  endfacet
  facet normal -0.9510560452403513 -0.3090184441287978 0
    outer loop
      vertex 1.5650358200073242 10.332657814025879 0
      vertex 1.4616718292236328 10.650777816772461 0.39999961853027344
      vertex 1.4616718292236328 10.650777816772461 0
    endloop
  endfacet
  facet normal -0.9510560452403513 -0.3090184441287978 0
    outer loop
      vertex 1.4616718292236328 10.650777816772461 0.39999961853027344
      vertex 1.5650358200073242 10.332657814025879 0
      vertex 1.5650358200073242 10.332657814025879 0.39999961853027344
    endloop
  endfacet
  facet normal -0.9945219692098582 0.10452776070951562 0
    outer loop
      vertex 1.5650358200073242 9.667341232299805 0
      vertex 1.5999994277954102 10 0.39999961853027344
      vertex 1.5999994277954102 10 0
    endloop
  endfacet
  facet normal -0.9945219692098582 0.10452776070951562 0
    outer loop
      vertex 1.5999994277954102 10 0.39999961853027344
      vertex 1.5650358200073242 9.667341232299805 0
      vertex 1.5650358200073242 9.667341232299805 0.39999961853027344
    endloop
  endfacet
  facet normal 0.9945219380582384 -0.10452805709896919 0
    outer loop
      vertex -1.5999994277954102 10 0.39999961853027344
      vertex -1.5650358200073242 10.332657814025879 0
      vertex -1.5650358200073242 10.332657814025879 0.39999961853027344
    endloop
  endfacet
  facet normal 0.9945219380582384 -0.10452805709896919 0
    outer loop
      vertex -1.5650358200073242 10.332657814025879 0
      vertex -1.5999994277954102 10 0.39999961853027344
      vertex -1.5999994277954102 10 0
    endloop
  endfacet
  facet normal -0.9945219380582384 -0.10452805709896919 0
    outer loop
      vertex 1.5999994277954102 10 0
      vertex 1.5650358200073242 10.332657814025879 0.39999961853027344
      vertex 1.5650358200073242 10.332657814025879 0
    endloop
  endfacet
  facet normal -0.9945219380582384 -0.10452805709896919 0
    outer loop
      vertex 1.5650358200073242 10.332657814025879 0.39999961853027344
      vertex 1.5999994277954102 10 0
      vertex 1.5999994277954102 10 0.39999961853027344
    endloop
  endfacet
  facet normal -0.5877846019776137 -0.80901746685595 0
    outer loop
      vertex 0.7999992370605469 11.385640144348145 0
      vertex 1.070608139038086 11.189031600952148 0.39999961853027344
      vertex 0.7999992370605469 11.385640144348145 0.39999961853027344
    endloop
  endfacet
  facet normal -0.5877846019776137 -0.80901746685595 0
    outer loop
      vertex 1.070608139038086 11.189031600952148 0.39999961853027344
      vertex 0.7999992370605469 11.385640144348145 0
      vertex 1.070608139038086 11.189031600952148 0
    endloop
  endfacet
  facet normal 0.2079093928698154 -0.9781480891748981 0
    outer loop
      vertex -0.4944267272949219 11.521690368652344 0
      vertex -0.16724491119384766 11.59123420715332 0.39999961853027344
      vertex -0.4944267272949219 11.521690368652344 0.39999961853027344
    endloop
  endfacet
  facet normal 0.2079093928698154 -0.9781480891748981 0
    outer loop
      vertex -0.16724491119384766 11.59123420715332 0.39999961853027344
      vertex -0.4944267272949219 11.521690368652344 0
      vertex -0.16724491119384766 11.59123420715332 0
    endloop
  endfacet
  facet normal -0.8660268164577912 -0.49999755316999633 0
    outer loop
      vertex 1.4616718292236328 10.650777816772461 0
      vertex 1.2944269180297852 10.94045639038086 0.39999961853027344
      vertex 1.2944269180297852 10.94045639038086 0
    endloop
  endfacet
  facet normal -0.8660268164577912 -0.49999755316999633 0
    outer loop
      vertex 1.2944269180297852 10.94045639038086 0.39999961853027344
      vertex 1.4616718292236328 10.650777816772461 0
      vertex 1.4616718292236328 10.650777816772461 0.39999961853027344
    endloop
  endfacet
  facet normal -0.743143853107748 -0.6691316862831785 0
    outer loop
      vertex 1.2944269180297852 10.94045639038086 0
      vertex 1.070608139038086 11.189031600952148 0.39999961853027344
      vertex 1.070608139038086 11.189031600952148 0
    endloop
  endfacet
  facet normal -0.743143853107748 -0.6691316862831785 0
    outer loop
      vertex 1.070608139038086 11.189031600952148 0.39999961853027344
      vertex 1.2944269180297852 10.94045639038086 0
      vertex 1.2944269180297852 10.94045639038086 0.39999961853027344
    endloop
  endfacet
  facet normal -0.4067380839925258 -0.91354481610378 0
    outer loop
      vertex 0.4944267272949219 11.521690368652344 0
      vertex 0.7999992370605469 11.385640144348145 0.39999961853027344
      vertex 0.4944267272949219 11.521690368652344 0.39999961853027344
    endloop
  endfacet
  facet normal -0.4067380839925258 -0.91354481610378 0
    outer loop
      vertex 0.7999992370605469 11.385640144348145 0.39999961853027344
      vertex 0.4944267272949219 11.521690368652344 0
      vertex 0.7999992370605469 11.385640144348145 0
    endloop
  endfacet
  facet normal 0.5877846019776137 0.80901746685595 0
    outer loop
      vertex -0.7999992370605469 8.614358901977539 0
      vertex -1.070608139038086 8.810967445373535 0.39999961853027344
      vertex -0.7999992370605469 8.614358901977539 0.39999961853027344
    endloop
  endfacet
  facet normal 0.5877846019776137 0.80901746685595 0
    outer loop
      vertex -1.070608139038086 8.810967445373535 0.39999961853027344
      vertex -0.7999992370605469 8.614358901977539 0
      vertex -1.070608139038086 8.810967445373535 0
    endloop
  endfacet
  facet normal 0 -1 0
    outer loop
      vertex -0.16724491119384766 11.59123420715332 0
      vertex 0.16724491119384766 11.59123420715332 0.39999961853027344
      vertex -0.16724491119384766 11.59123420715332 0.39999961853027344
    endloop
  endfacet
  facet normal 0 -1 0
    outer loop
      vertex 0.16724491119384766 11.59123420715332 0.39999961853027344
      vertex -0.16724491119384766 11.59123420715332 0
      vertex 0.16724491119384766 11.59123420715332 0
    endloop
  endfacet
  facet normal 0.4067380839925258 -0.91354481610378 0
    outer loop
      vertex -0.7999992370605469 11.385640144348145 0
      vertex -0.4944267272949219 11.521690368652344 0.39999961853027344
      vertex -0.7999992370605469 11.385640144348145 0.39999961853027344
    endloop
  endfacet
  facet normal 0.4067380839925258 -0.91354481610378 0
    outer loop
      vertex -0.4944267272949219 11.521690368652344 0.39999961853027344
      vertex -0.7999992370605469 11.385640144348145 0
      vertex -0.4944267272949219 11.521690368652344 0
    endloop
  endfacet
  facet normal 0.743143853107748 -0.6691316862831785 0
    outer loop
      vertex -1.2944269180297852 10.94045639038086 0.39999961853027344
      vertex -1.070608139038086 11.189031600952148 0
      vertex -1.070608139038086 11.189031600952148 0.39999961853027344
    endloop
  endfacet
  facet normal 0.743143853107748 -0.6691316862831785 0
    outer loop
      vertex -1.070608139038086 11.189031600952148 0
      vertex -1.2944269180297852 10.94045639038086 0.39999961853027344
      vertex -1.2944269180297852 10.94045639038086 0
    endloop
  endfacet
  facet normal -0.4067380839925258 0.91354481610378 0
    outer loop
      vertex 0.7999992370605469 8.614358901977539 0
      vertex 0.4944267272949219 8.47830867767334 0.39999961853027344
      vertex 0.7999992370605469 8.614358901977539 0.39999961853027344
    endloop
  endfacet
  facet normal -0.4067380839925258 0.91354481610378 0
    outer loop
      vertex 0.4944267272949219 8.47830867767334 0.39999961853027344
      vertex 0.7999992370605469 8.614358901977539 0
      vertex 0.4944267272949219 8.47830867767334 0
    endloop
  endfacet
  facet normal -0.9510560452403513 0.3090184441287978 0
    outer loop
      vertex 1.4616718292236328 9.349221229553223 0
      vertex 1.5650358200073242 9.667341232299805 0.39999961853027344
      vertex 1.5650358200073242 9.667341232299805 0
    endloop
  endfacet
  facet normal -0.9510560452403513 0.3090184441287978 0
    outer loop
      vertex 1.5650358200073242 9.667341232299805 0.39999961853027344
      vertex 1.4616718292236328 9.349221229553223 0
      vertex 1.4616718292236328 9.349221229553223 0.39999961853027344
    endloop
  endfacet
  facet normal 0.5877846019776137 -0.80901746685595 0
    outer loop
      vertex -1.070608139038086 11.189031600952148 0
      vertex -0.7999992370605469 11.385640144348145 0.39999961853027344
      vertex -1.070608139038086 11.189031600952148 0.39999961853027344
    endloop
  endfacet
  facet normal 0.5877846019776137 -0.80901746685595 0
    outer loop
      vertex -0.7999992370605469 11.385640144348145 0.39999961853027344
      vertex -1.070608139038086 11.189031600952148 0
      vertex -0.7999992370605469 11.385640144348145 0
    endloop
  endfacet
  facet normal 0.9510560452403513 -0.3090184441287978 0
    outer loop
      vertex -1.5650358200073242 10.332657814025879 0.39999961853027344
      vertex -1.4616718292236328 10.650777816772461 0
      vertex -1.4616718292236328 10.650777816772461 0.39999961853027344
    endloop
  endfacet
  facet normal 0.9510560452403513 -0.3090184441287978 0
    outer loop
      vertex -1.4616718292236328 10.650777816772461 0
      vertex -1.5650358200073242 10.332657814025879 0.39999961853027344
      vertex -1.5650358200073242 10.332657814025879 0
    endloop
  endfacet
  facet normal 0.9945219692098582 0.10452776070951562 0
    outer loop
      vertex -1.5650358200073242 9.667341232299805 0.39999961853027344
      vertex -1.5999994277954102 10 0
      vertex -1.5999994277954102 10 0.39999961853027344
    endloop
  endfacet
  facet normal 0.9945219692098582 0.10452776070951562 0
    outer loop
      vertex -1.5999994277954102 10 0
      vertex -1.5650358200073242 9.667341232299805 0.39999961853027344
      vertex -1.5650358200073242 9.667341232299805 0
    endloop
  endfacet
  facet normal -0.743143853107748 0.6691316862831785 0
    outer loop
      vertex 1.070608139038086 8.810967445373535 0
      vertex 1.2944269180297852 9.059542655944824 0.39999961853027344
      vertex 1.2944269180297852 9.059542655944824 0
    endloop
  endfacet
  facet normal -0.743143853107748 0.6691316862831785 0
    outer loop
      vertex 1.2944269180297852 9.059542655944824 0.39999961853027344
      vertex 1.070608139038086 8.810967445373535 0
      vertex 1.070608139038086 8.810967445373535 0.39999961853027344
    endloop
  endfacet
  facet normal -0.5877846019776137 0.80901746685595 0
    outer loop
      vertex 1.070608139038086 8.810967445373535 0
      vertex 0.7999992370605469 8.614358901977539 0.39999961853027344
      vertex 1.070608139038086 8.810967445373535 0.39999961853027344
    endloop
  endfacet
  facet normal -0.5877846019776137 0.80901746685595 0
    outer loop
      vertex 0.7999992370605469 8.614358901977539 0.39999961853027344
      vertex 1.070608139038086 8.810967445373535 0
      vertex 0.7999992370605469 8.614358901977539 0
    endloop
  endfacet
  facet normal 0 1 0
    outer loop
      vertex 0.16724491119384766 8.408764839172363 0
      vertex -0.16724491119384766 8.408764839172363 0.39999961853027344
      vertex 0.16724491119384766 8.408764839172363 0.39999961853027344
    endloop
  endfacet
  facet normal 0 1 0
    outer loop
      vertex -0.16724491119384766 8.408764839172363 0.39999961853027344
      vertex 0.16724491119384766 8.408764839172363 0
      vertex -0.16724491119384766 8.408764839172363 0
    endloop
  endfacet
  facet normal 0.2079093928698154 0.9781480891748981 0
    outer loop
      vertex -0.16724491119384766 8.408764839172363 0
      vertex -0.4944267272949219 8.47830867767334 0.39999961853027344
      vertex -0.16724491119384766 8.408764839172363 0.39999961853027344
    endloop
  endfacet
  facet normal 0.2079093928698154 0.9781480891748981 0
    outer loop
      vertex -0.4944267272949219 8.47830867767334 0.39999961853027344
      vertex -0.16724491119384766 8.408764839172363 0
      vertex -0.4944267272949219 8.47830867767334 0
    endloop
  endfacet
  facet normal 0.4067380839925258 0.91354481610378 0
    outer loop
      vertex -0.4944267272949219 8.47830867767334 0
      vertex -0.7999992370605469 8.614358901977539 0.39999961853027344
      vertex -0.4944267272949219 8.47830867767334 0.39999961853027344
    endloop
  endfacet
  facet normal 0.4067380839925258 0.91354481610378 0
    outer loop
      vertex -0.7999992370605469 8.614358901977539 0.39999961853027344
      vertex -0.4944267272949219 8.47830867767334 0
      vertex -0.7999992370605469 8.614358901977539 0
    endloop
  endfacet
  facet normal 0.8660268164577912 0.49999755316999633 0
    outer loop
      vertex -1.2944269180297852 9.059542655944824 0.39999961853027344
      vertex -1.4616718292236328 9.349221229553223 0
      vertex -1.4616718292236328 9.349221229553223 0.39999961853027344
    endloop
  endfacet
  facet normal 0.8660268164577912 0.49999755316999633 0
    outer loop
      vertex -1.4616718292236328 9.349221229553223 0
      vertex -1.2944269180297852 9.059542655944824 0.39999961853027344
      vertex -1.2944269180297852 9.059542655944824 0
    endloop
  endfacet
  facet normal 0.743143853107748 0.6691316862831785 0
    outer loop
      vertex -1.070608139038086 8.810967445373535 0.39999961853027344
      vertex -1.2944269180297852 9.059542655944824 0
      vertex -1.2944269180297852 9.059542655944824 0.39999961853027344
    endloop
  endfacet
  facet normal 0.743143853107748 0.6691316862831785 0
    outer loop
      vertex -1.2944269180297852 9.059542655944824 0
      vertex -1.070608139038086 8.810967445373535 0.39999961853027344
      vertex -1.070608139038086 8.810967445373535 0
    endloop
  endfacet
  facet normal 0.9510560452403513 0.3090184441287978 0
    outer loop
      vertex -1.4616718292236328 9.349221229553223 0.39999961853027344
      vertex -1.5650358200073242 9.667341232299805 0
      vertex -1.5650358200073242 9.667341232299805 0.39999961853027344
    endloop
  endfacet
  facet normal 0.9510560452403513 0.3090184441287978 0
    outer loop
      vertex -1.5650358200073242 9.667341232299805 0
      vertex -1.4616718292236328 9.349221229553223 0.39999961853027344
      vertex -1.4616718292236328 9.349221229553223 0
    endloop
  endfacet
  facet normal -0.9945219692098582 -0.10452776070951562 0
    outer loop
      vertex 1.5999994277954102 -10 0
      vertex 1.5650358200073242 -9.667341232299805 0.39999961853027344
      vertex 1.5650358200073242 -9.667341232299805 0
    endloop
  endfacet
  facet normal -0.9945219692098582 -0.10452776070951562 0
    outer loop
      vertex 1.5650358200073242 -9.667341232299805 0.39999961853027344
      vertex 1.5999994277954102 -10 0
      vertex 1.5999994277954102 -10 0.39999961853027344
    endloop
  endfacet
  facet normal 0.5877846019776137 0.80901746685595 0
    outer loop
      vertex -0.7999992370605469 -11.385640144348145 0
      vertex -1.070608139038086 -11.189031600952148 0.39999961853027344
      vertex -0.7999992370605469 -11.385640144348145 0.39999961853027344
    endloop
  endfacet
  facet normal 0.5877846019776137 0.80901746685595 0
    outer loop
      vertex -1.070608139038086 -11.189031600952148 0.39999961853027344
      vertex -0.7999992370605469 -11.385640144348145 0
      vertex -1.070608139038086 -11.189031600952148 0
    endloop
  endfacet
  facet normal 0.9510560452403513 0.3090184441287978 0
    outer loop
      vertex -1.4616718292236328 -10.650777816772461 0.39999961853027344
      vertex -1.5650358200073242 -10.332657814025879 0
      vertex -1.5650358200073242 -10.332657814025879 0.39999961853027344
    endloop
  endfacet
  facet normal 0.9510560452403513 0.3090184441287978 0
    outer loop
      vertex -1.5650358200073242 -10.332657814025879 0
      vertex -1.4616718292236328 -10.650777816772461 0.39999961853027344
      vertex -1.4616718292236328 -10.650777816772461 0
    endloop
  endfacet
  facet normal 0.5877846019776137 -0.80901746685595 0
    outer loop
      vertex -1.070608139038086 -8.810967445373535 0
      vertex -0.7999992370605469 -8.614358901977539 0.39999961853027344
      vertex -1.070608139038086 -8.810967445373535 0.39999961853027344
    endloop
  endfacet
  facet normal 0.5877846019776137 -0.80901746685595 0
    outer loop
      vertex -0.7999992370605469 -8.614358901977539 0.39999961853027344
      vertex -1.070608139038086 -8.810967445373535 0
      vertex -0.7999992370605469 -8.614358901977539 0
    endloop
  endfacet
  facet normal -0.8660268164577912 -0.49999755316999633 0
    outer loop
      vertex 1.4616718292236328 -9.349221229553223 0
      vertex 1.2944269180297852 -9.059542655944824 0.39999961853027344
      vertex 1.2944269180297852 -9.059542655944824 0
    endloop
  endfacet
  facet normal -0.8660268164577912 -0.49999755316999633 0
    outer loop
      vertex 1.2944269180297852 -9.059542655944824 0.39999961853027344
      vertex 1.4616718292236328 -9.349221229553223 0
      vertex 1.4616718292236328 -9.349221229553223 0.39999961853027344
    endloop
  endfacet
  facet normal -0.4067380839925258 0.91354481610378 0
    outer loop
      vertex 0.7999992370605469 -11.385640144348145 0
      vertex 0.4944267272949219 -11.521690368652344 0.39999961853027344
      vertex 0.7999992370605469 -11.385640144348145 0.39999961853027344
    endloop
  endfacet
  facet normal -0.4067380839925258 0.91354481610378 0
    outer loop
      vertex 0.4944267272949219 -11.521690368652344 0.39999961853027344
      vertex 0.7999992370605469 -11.385640144348145 0
      vertex 0.4944267272949219 -11.521690368652344 0
    endloop
  endfacet
  facet normal 0.2079093928698154 -0.9781480891748981 0
    outer loop
      vertex -0.4944267272949219 -8.47830867767334 0
      vertex -0.16724491119384766 -8.408764839172363 0.39999961853027344
      vertex -0.4944267272949219 -8.47830867767334 0.39999961853027344
    endloop
  endfacet
  facet normal 0.2079093928698154 -0.9781480891748981 0
    outer loop
      vertex -0.16724491119384766 -8.408764839172363 0.39999961853027344
      vertex -0.4944267272949219 -8.47830867767334 0
      vertex -0.16724491119384766 -8.408764839172363 0
    endloop
  endfacet
  facet normal -0.4067380839925258 -0.91354481610378 0
    outer loop
      vertex 0.4944267272949219 -8.47830867767334 0
      vertex 0.7999992370605469 -8.614358901977539 0.39999961853027344
      vertex 0.4944267272949219 -8.47830867767334 0.39999961853027344
    endloop
  endfacet
  facet normal -0.4067380839925258 -0.91354481610378 0
    outer loop
      vertex 0.7999992370605469 -8.614358901977539 0.39999961853027344
      vertex 0.4944267272949219 -8.47830867767334 0
      vertex 0.7999992370605469 -8.614358901977539 0
    endloop
  endfacet
  facet normal 0 -1 0
    outer loop
      vertex -0.16724491119384766 -8.408764839172363 0
      vertex 0.16724491119384766 -8.408764839172363 0.39999961853027344
      vertex -0.16724491119384766 -8.408764839172363 0.39999961853027344
    endloop
  endfacet
  facet normal 0 -1 0
    outer loop
      vertex 0.16724491119384766 -8.408764839172363 0.39999961853027344
      vertex -0.16724491119384766 -8.408764839172363 0
      vertex 0.16724491119384766 -8.408764839172363 0
    endloop
  endfacet
  facet normal 0.743143853107748 -0.6691316862831785 0
    outer loop
      vertex -1.2944269180297852 -9.059542655944824 0.39999961853027344
      vertex -1.070608139038086 -8.810967445373535 0
      vertex -1.070608139038086 -8.810967445373535 0.39999961853027344
    endloop
  endfacet
  facet normal 0.743143853107748 -0.6691316862831785 0
    outer loop
      vertex -1.070608139038086 -8.810967445373535 0
      vertex -1.2944269180297852 -9.059542655944824 0.39999961853027344
      vertex -1.2944269180297852 -9.059542655944824 0
    endloop
  endfacet
  facet normal -0.9945219380582384 0.10452805709896919 0
    outer loop
      vertex 1.5650358200073242 -10.332657814025879 0
      vertex 1.5999994277954102 -10 0.39999961853027344
      vertex 1.5999994277954102 -10 0
    endloop
  endfacet
  facet normal -0.9945219380582384 0.10452805709896919 0
    outer loop
      vertex 1.5999994277954102 -10 0.39999961853027344
      vertex 1.5650358200073242 -10.332657814025879 0
      vertex 1.5650358200073242 -10.332657814025879 0.39999961853027344
    endloop
  endfacet
  facet normal -0.8660268164577912 0.49999755316999633 0
    outer loop
      vertex 1.2944269180297852 -10.94045639038086 0
      vertex 1.4616718292236328 -10.650777816772461 0.39999961853027344
      vertex 1.4616718292236328 -10.650777816772461 0
    endloop
  endfacet
  facet normal -0.8660268164577912 0.49999755316999633 0
    outer loop
      vertex 1.4616718292236328 -10.650777816772461 0.39999961853027344
      vertex 1.2944269180297852 -10.94045639038086 0
      vertex 1.2944269180297852 -10.94045639038086 0.39999961853027344
    endloop
  endfacet
  facet normal 0.9945219692098582 -0.10452776070951562 0
    outer loop
      vertex -1.5999994277954102 -10 0.39999961853027344
      vertex -1.5650358200073242 -9.667341232299805 0
      vertex -1.5650358200073242 -9.667341232299805 0.39999961853027344
    endloop
  endfacet
  facet normal 0.9945219692098582 -0.10452776070951562 0
    outer loop
      vertex -1.5650358200073242 -9.667341232299805 0
      vertex -1.5999994277954102 -10 0.39999961853027344
      vertex -1.5999994277954102 -10 0
    endloop
  endfacet
  facet normal -0.743143853107748 0.6691316862831785 0
    outer loop
      vertex 1.070608139038086 -11.189031600952148 0
      vertex 1.2944269180297852 -10.94045639038086 0.39999961853027344
      vertex 1.2944269180297852 -10.94045639038086 0
    endloop
  endfacet
  facet normal -0.743143853107748 0.6691316862831785 0
    outer loop
      vertex 1.2944269180297852 -10.94045639038086 0.39999961853027344
      vertex 1.070608139038086 -11.189031600952148 0
      vertex 1.070608139038086 -11.189031600952148 0.39999961853027344
    endloop
  endfacet
  facet normal -0.743143853107748 -0.6691316862831785 0
    outer loop
      vertex 1.2944269180297852 -9.059542655944824 0
      vertex 1.070608139038086 -8.810967445373535 0.39999961853027344
      vertex 1.070608139038086 -8.810967445373535 0
    endloop
  endfacet
  facet normal -0.743143853107748 -0.6691316862831785 0
    outer loop
      vertex 1.070608139038086 -8.810967445373535 0.39999961853027344
      vertex 1.2944269180297852 -9.059542655944824 0
      vertex 1.2944269180297852 -9.059542655944824 0.39999961853027344
    endloop
  endfacet
  facet normal -0.9510560452403513 -0.3090184441287978 0
    outer loop
      vertex 1.5650358200073242 -9.667341232299805 0
      vertex 1.4616718292236328 -9.349221229553223 0.39999961853027344
      vertex 1.4616718292236328 -9.349221229553223 0
    endloop
  endfacet
  facet normal -0.9510560452403513 -0.3090184441287978 0
    outer loop
      vertex 1.4616718292236328 -9.349221229553223 0.39999961853027344
      vertex 1.5650358200073242 -9.667341232299805 0
      vertex 1.5650358200073242 -9.667341232299805 0.39999961853027344
    endloop
  endfacet
  facet normal -0.5877846019776137 -0.80901746685595 0
    outer loop
      vertex 0.7999992370605469 -8.614358901977539 0
      vertex 1.070608139038086 -8.810967445373535 0.39999961853027344
      vertex 0.7999992370605469 -8.614358901977539 0.39999961853027344
    endloop
  endfacet
  facet normal -0.5877846019776137 -0.80901746685595 0
    outer loop
      vertex 1.070608139038086 -8.810967445373535 0.39999961853027344
      vertex 0.7999992370605469 -8.614358901977539 0
      vertex 1.070608139038086 -8.810967445373535 0
    endloop
  endfacet
  facet normal -0.9510560452403513 0.3090184441287978 0
    outer loop
      vertex 1.4616718292236328 -10.650777816772461 0
      vertex 1.5650358200073242 -10.332657814025879 0.39999961853027344
      vertex 1.5650358200073242 -10.332657814025879 0
    endloop
  endfacet
  facet normal -0.9510560452403513 0.3090184441287978 0
    outer loop
      vertex 1.5650358200073242 -10.332657814025879 0.39999961853027344
      vertex 1.4616718292236328 -10.650777816772461 0
      vertex 1.4616718292236328 -10.650777816772461 0.39999961853027344
    endloop
  endfacet
  facet normal -0.2079093928698154 -0.9781480891748981 0
    outer loop
      vertex 0.16724491119384766 -8.408764839172363 0
      vertex 0.4944267272949219 -8.47830867767334 0.39999961853027344
      vertex 0.16724491119384766 -8.408764839172363 0.39999961853027344
    endloop
  endfacet
  facet normal -0.2079093928698154 -0.9781480891748981 0
    outer loop
      vertex 0.4944267272949219 -8.47830867767334 0.39999961853027344
      vertex 0.16724491119384766 -8.408764839172363 0
      vertex 0.4944267272949219 -8.47830867767334 0
    endloop
  endfacet
  facet normal 0.4067380839925258 0.91354481610378 0
    outer loop
      vertex -0.4944267272949219 -11.521690368652344 0
      vertex -0.7999992370605469 -11.385640144348145 0.39999961853027344
      vertex -0.4944267272949219 -11.521690368652344 0.39999961853027344
    endloop
  endfacet
  facet normal 0.4067380839925258 0.91354481610378 0
    outer loop
      vertex -0.7999992370605469 -11.385640144348145 0.39999961853027344
      vertex -0.4944267272949219 -11.521690368652344 0
      vertex -0.7999992370605469 -11.385640144348145 0
    endloop
  endfacet
  facet normal -0.5877846019776137 0.80901746685595 0
    outer loop
      vertex 1.070608139038086 -11.189031600952148 0
      vertex 0.7999992370605469 -11.385640144348145 0.39999961853027344
      vertex 1.070608139038086 -11.189031600952148 0.39999961853027344
    endloop
  endfacet
  facet normal -0.5877846019776137 0.80901746685595 0
    outer loop
      vertex 0.7999992370605469 -11.385640144348145 0.39999961853027344
      vertex 1.070608139038086 -11.189031600952148 0
      vertex 0.7999992370605469 -11.385640144348145 0
    endloop
  endfacet
  facet normal 0 1 0
    outer loop
      vertex 0.16724491119384766 -11.59123420715332 0
      vertex -0.16724491119384766 -11.59123420715332 0.39999961853027344
      vertex 0.16724491119384766 -11.59123420715332 0.39999961853027344
    endloop
  endfacet
  facet normal 0 1 0
    outer loop
      vertex -0.16724491119384766 -11.59123420715332 0.39999961853027344
      vertex 0.16724491119384766 -11.59123420715332 0
      vertex -0.16724491119384766 -11.59123420715332 0
    endloop
  endfacet
  facet normal 0.8660268164577912 0.49999755316999633 0
    outer loop
      vertex -1.2944269180297852 -10.94045639038086 0.39999961853027344
      vertex -1.4616718292236328 -10.650777816772461 0
      vertex -1.4616718292236328 -10.650777816772461 0.39999961853027344
    endloop
  endfacet
  facet normal 0.8660268164577912 0.49999755316999633 0
    outer loop
      vertex -1.4616718292236328 -10.650777816772461 0
      vertex -1.2944269180297852 -10.94045639038086 0.39999961853027344
      vertex -1.2944269180297852 -10.94045639038086 0
    endloop
  endfacet
  facet normal -0.2079093928698154 0.9781480891748981 0
    outer loop
      vertex 0.4944267272949219 -11.521690368652344 0
      vertex 0.16724491119384766 -11.59123420715332 0.39999961853027344
      vertex 0.4944267272949219 -11.521690368652344 0.39999961853027344
    endloop
  endfacet
  facet normal -0.2079093928698154 0.9781480891748981 0
    outer loop
      vertex 0.16724491119384766 -11.59123420715332 0.39999961853027344
      vertex 0.4944267272949219 -11.521690368652344 0
      vertex 0.16724491119384766 -11.59123420715332 0
    endloop
  endfacet
  facet normal 0.743143853107748 0.6691316862831785 0
    outer loop
      vertex -1.070608139038086 -11.189031600952148 0.39999961853027344
      vertex -1.2944269180297852 -10.94045639038086 0
      vertex -1.2944269180297852 -10.94045639038086 0.39999961853027344
    endloop
  endfacet
  facet normal 0.743143853107748 0.6691316862831785 0
    outer loop
      vertex -1.2944269180297852 -10.94045639038086 0
      vertex -1.070608139038086 -11.189031600952148 0.39999961853027344
      vertex -1.070608139038086 -11.189031600952148 0
    endloop
  endfacet
  facet normal 0.9510560452403513 -0.3090184441287978 0
    outer loop
      vertex -1.5650358200073242 -9.667341232299805 0.39999961853027344
      vertex -1.4616718292236328 -9.349221229553223 0
      vertex -1.4616718292236328 -9.349221229553223 0.39999961853027344
    endloop
  endfacet
  facet normal 0.9510560452403513 -0.3090184441287978 0
    outer loop
      vertex -1.4616718292236328 -9.349221229553223 0
      vertex -1.5650358200073242 -9.667341232299805 0.39999961853027344
      vertex -1.5650358200073242 -9.667341232299805 0
    endloop
  endfacet
  facet normal 0.8660268164577912 -0.49999755316999633 0
    outer loop
      vertex -1.4616718292236328 -9.349221229553223 0.39999961853027344
      vertex -1.2944269180297852 -9.059542655944824 0
      vertex -1.2944269180297852 -9.059542655944824 0.39999961853027344
    endloop
  endfacet
  facet normal 0.8660268164577912 -0.49999755316999633 0
    outer loop
      vertex -1.2944269180297852 -9.059542655944824 0
      vertex -1.4616718292236328 -9.349221229553223 0.39999961853027344
      vertex -1.4616718292236328 -9.349221229553223 0
    endloop
  endfacet
  facet normal 0.2079093928698154 0.9781480891748981 0
    outer loop
      vertex -0.16724491119384766 -11.59123420715332 0
      vertex -0.4944267272949219 -11.521690368652344 0.39999961853027344
      vertex -0.16724491119384766 -11.59123420715332 0.39999961853027344
    endloop
  endfacet
  facet normal 0.2079093928698154 0.9781480891748981 0
    outer loop
      vertex -0.4944267272949219 -11.521690368652344 0.39999961853027344
      vertex -0.16724491119384766 -11.59123420715332 0
      vertex -0.4944267272949219 -11.521690368652344 0
    endloop
  endfacet
  facet normal 0.4067380839925258 -0.91354481610378 0
    outer loop
      vertex -0.7999992370605469 -8.614358901977539 0
      vertex -0.4944267272949219 -8.47830867767334 0.39999961853027344
      vertex -0.7999992370605469 -8.614358901977539 0.39999961853027344
    endloop
  endfacet
  facet normal 0.4067380839925258 -0.91354481610378 0
    outer loop
      vertex -0.4944267272949219 -8.47830867767334 0.39999961853027344
      vertex -0.7999992370605469 -8.614358901977539 0
      vertex -0.4944267272949219 -8.47830867767334 0
    endloop
  endfacet
  facet normal 0.9945219380582384 0.10452805709896919 0
    outer loop
      vertex -1.5650358200073242 -10.332657814025879 0.39999961853027344
      vertex -1.5999994277954102 -10 0
      vertex -1.5999994277954102 -10 0.39999961853027344
    endloop
  endfacet
  facet normal 0.9945219380582384 0.10452805709896919 0
    outer loop
      vertex -1.5999994277954102 -10 0
      vertex -1.5650358200073242 -10.332657814025879 0.39999961853027344
      vertex -1.5650358200073242 -10.332657814025879 0
    endloop
  endfacet
  facet normal -0.5000000043334718 0.8660254012825075 0
    outer loop
      vertex 2.7279796600341797 8.424999237060547 0.39999961853027344
      vertex 0 6.84999942779541 4
      vertex 2.7279796600341797 8.424999237060547 4
    endloop
  endfacet
  facet normal -0.5000000043334718 0.8660254012825075 0
    outer loop
      vertex 0 6.84999942779541 4
      vertex 2.7279796600341797 8.424999237060547 0.39999961853027344
      vertex 0 6.84999942779541 0.39999961853027344
    endloop
  endfacet
  facet normal -1 0 0
    outer loop
      vertex 2.7279796600341797 8.424999237060547 0.39999961853027344
      vertex 2.7279796600341797 11.574999809265137 4
      vertex 2.7279796600341797 11.574999809265137 0.39999961853027344
    endloop
  endfacet
  facet normal -1 0 0
    outer loop
      vertex 2.7279796600341797 11.574999809265137 4
      vertex 2.7279796600341797 8.424999237060547 0.39999961853027344
      vertex 2.7279796600341797 8.424999237060547 4
    endloop
  endfacet
  facet normal 0.5000000043334718 -0.8660254012825075 0
    outer loop
      vertex -2.7279796600341797 11.574999809265137 0.39999961853027344
      vertex 0 13.149999618530273 4
      vertex -2.7279796600341797 11.574999809265137 4
    endloop
  endfacet
  facet normal 0.5000000043334718 -0.8660254012825075 0
    outer loop
      vertex 0 13.149999618530273 4
      vertex -2.7279796600341797 11.574999809265137 0.39999961853027344
      vertex 0 13.149999618530273 0.39999961853027344
    endloop
  endfacet
  facet normal 0.5000000043334718 0.8660254012825075 0
    outer loop
      vertex 0 6.84999942779541 0.39999961853027344
      vertex -2.7279796600341797 8.424999237060547 4
      vertex 0 6.84999942779541 4
    endloop
  endfacet
  facet normal 0.5000000043334718 0.8660254012825075 0
    outer loop
      vertex -2.7279796600341797 8.424999237060547 4
      vertex 0 6.84999942779541 0.39999961853027344
      vertex -2.7279796600341797 8.424999237060547 0.39999961853027344
    endloop
  endfacet
  facet normal -0.5000000043334718 -0.8660254012825075 0
    outer loop
      vertex 0 13.149999618530273 0.39999961853027344
      vertex 2.7279796600341797 11.574999809265137 4
      vertex 0 13.149999618530273 4
    endloop
  endfacet
  facet normal -0.5000000043334718 -0.8660254012825075 0
    outer loop
      vertex 2.7279796600341797 11.574999809265137 4
      vertex 0 13.149999618530273 0.39999961853027344
      vertex 2.7279796600341797 11.574999809265137 0.39999961853027344
    endloop
  endfacet
  facet normal 1 0 0
    outer loop
      vertex -2.7279796600341797 8.424999237060547 4
      vertex -2.7279796600341797 11.574999809265137 0.39999961853027344
      vertex -2.7279796600341797 11.574999809265137 4
    endloop
  endfacet
  facet normal 1 0 0
    outer loop
      vertex -2.7279796600341797 11.574999809265137 0.39999961853027344
      vertex -2.7279796600341797 8.424999237060547 4
      vertex -2.7279796600341797 8.424999237060547 0.39999961853027344
    endloop
  endfacet
  facet normal 0 0 1
    outer loop
      vertex 2.7279796600341797 11.574999809265137 0.39999961853027344
      vertex 1.5999994277954102 10 0.39999961853027344
      vertex 2.7279796600341797 8.424999237060547 0.39999961853027344
    endloop
  endfacet
  facet normal 0 0 1
    outer loop
      vertex 2.7279796600341797 11.574999809265137 0.39999961853027344
      vertex 1.5650358200073242 10.332657814025879 0.39999961853027344
      vertex 1.5999994277954102 10 0.39999961853027344
    endloop
  endfacet
  facet normal 0 0 1
    outer loop
      vertex 2.7279796600341797 11.574999809265137 0.39999961853027344
      vertex 1.4616718292236328 10.650777816772461 0.39999961853027344
      vertex 1.5650358200073242 10.332657814025879 0.39999961853027344
    endloop
  endfacet
  facet normal 0 0 1
    outer loop
      vertex 2.7279796600341797 11.574999809265137 0.39999961853027344
      vertex 1.2944269180297852 10.94045639038086 0.39999961853027344
      vertex 1.4616718292236328 10.650777816772461 0.39999961853027344
    endloop
  endfacet
  facet normal 0 0 1
    outer loop
      vertex 2.7279796600341797 11.574999809265137 0.39999961853027344
      vertex 1.070608139038086 11.189031600952148 0.39999961853027344
      vertex 1.2944269180297852 10.94045639038086 0.39999961853027344
    endloop
  endfacet
  facet normal 0 0 1
    outer loop
      vertex 2.7279796600341797 11.574999809265137 0.39999961853027344
      vertex 0.7999992370605469 11.385640144348145 0.39999961853027344
      vertex 1.070608139038086 11.189031600952148 0.39999961853027344
    endloop
  endfacet
  facet normal 0 0 1
    outer loop
      vertex 0 13.149999618530273 0.39999961853027344
      vertex 0.7999992370605469 11.385640144348145 0.39999961853027344
      vertex 2.7279796600341797 11.574999809265137 0.39999961853027344
    endloop
  endfacet
  facet normal 0 0 1
    outer loop
      vertex 0.7999992370605469 11.385640144348145 0.39999961853027344
      vertex 0 13.149999618530273 0.39999961853027344
      vertex 0.4944267272949219 11.521690368652344 0.39999961853027344
    endloop
  endfacet
  facet normal 0 0 1
    outer loop
      vertex 0.4944267272949219 11.521690368652344 0.39999961853027344
      vertex 0 13.149999618530273 0.39999961853027344
      vertex 0.16724491119384766 11.59123420715332 0.39999961853027344
    endloop
  endfacet
  facet normal 0 0 1
    outer loop
      vertex 0 13.149999618530273 0.39999961853027344
      vertex -0.16724491119384766 11.59123420715332 0.39999961853027344
      vertex 0.16724491119384766 11.59123420715332 0.39999961853027344
    endloop
  endfacet
  facet normal 0 0 1
    outer loop
      vertex 0 13.149999618530273 0.39999961853027344
      vertex -0.4944267272949219 11.521690368652344 0.39999961853027344
      vertex -0.16724491119384766 11.59123420715332 0.39999961853027344
    endloop
  endfacet
  facet normal 0 0 1
    outer loop
      vertex 0 13.149999618530273 0.39999961853027344
      vertex -0.7999992370605469 11.385640144348145 0.39999961853027344
      vertex -0.4944267272949219 11.521690368652344 0.39999961853027344
    endloop
  endfacet
  facet normal 0 0 1
    outer loop
      vertex -2.7279796600341797 11.574999809265137 0.39999961853027344
      vertex -0.7999992370605469 11.385640144348145 0.39999961853027344
      vertex 0 13.149999618530273 0.39999961853027344
    endloop
  endfacet
  facet normal 0 0 1
    outer loop
      vertex -0.7999992370605469 11.385640144348145 0.39999961853027344
      vertex -2.7279796600341797 11.574999809265137 0.39999961853027344
      vertex -1.070608139038086 11.189031600952148 0.39999961853027344
    endloop
  endfacet
  facet normal 0 0 1
    outer loop
      vertex -1.5650358200073242 10.332657814025879 0.39999961853027344
      vertex -2.7279796600341797 11.574999809265137 0.39999961853027344
      vertex -1.5999994277954102 10 0.39999961853027344
    endloop
  endfacet
  facet normal 0 0 1
    outer loop
      vertex -1.4616718292236328 10.650777816772461 0.39999961853027344
      vertex -2.7279796600341797 11.574999809265137 0.39999961853027344
      vertex -1.5650358200073242 10.332657814025879 0.39999961853027344
    endloop
  endfacet
  facet normal 0 0 1
    outer loop
      vertex -1.2944269180297852 10.94045639038086 0.39999961853027344
      vertex -2.7279796600341797 11.574999809265137 0.39999961853027344
      vertex -1.4616718292236328 10.650777816772461 0.39999961853027344
    endloop
  endfacet
  facet normal 0 0 1
    outer loop
      vertex -1.070608139038086 11.189031600952148 0.39999961853027344
      vertex -2.7279796600341797 11.574999809265137 0.39999961853027344
      vertex -1.2944269180297852 10.94045639038086 0.39999961853027344
    endloop
  endfacet
  facet normal 0 0 1
    outer loop
      vertex 1.5650358200073242 9.667341232299805 0.39999961853027344
      vertex 2.7279796600341797 8.424999237060547 0.39999961853027344
      vertex 1.5999994277954102 10 0.39999961853027344
    endloop
  endfacet
  facet normal 0 0 1
    outer loop
      vertex 1.4616718292236328 9.349221229553223 0.39999961853027344
      vertex 2.7279796600341797 8.424999237060547 0.39999961853027344
      vertex 1.5650358200073242 9.667341232299805 0.39999961853027344
    endloop
  endfacet
  facet normal 0 0 1
    outer loop
      vertex 1.2944269180297852 9.059542655944824 0.39999961853027344
      vertex 2.7279796600341797 8.424999237060547 0.39999961853027344
      vertex 1.4616718292236328 9.349221229553223 0.39999961853027344
    endloop
  endfacet
  facet normal 0 0 1
    outer loop
      vertex 1.070608139038086 8.810967445373535 0.39999961853027344
      vertex 2.7279796600341797 8.424999237060547 0.39999961853027344
      vertex 1.2944269180297852 9.059542655944824 0.39999961853027344
    endloop
  endfacet
  facet normal 0 0 1
    outer loop
      vertex 0.7999992370605469 8.614358901977539 0.39999961853027344
      vertex 2.7279796600341797 8.424999237060547 0.39999961853027344
      vertex 1.070608139038086 8.810967445373535 0.39999961853027344
    endloop
  endfacet
  facet normal 0 0 1
    outer loop
      vertex 0 6.84999942779541 0.39999961853027344
      vertex 0.7999992370605469 8.614358901977539 0.39999961853027344
      vertex 0.4944267272949219 8.47830867767334 0.39999961853027344
    endloop
  endfacet
  facet normal 0 0 1
    outer loop
      vertex 0 6.84999942779541 0.39999961853027344
      vertex 0.4944267272949219 8.47830867767334 0.39999961853027344
      vertex 0.16724491119384766 8.408764839172363 0.39999961853027344
    endloop
  endfacet
  facet normal 0 0 1
    outer loop
      vertex 0.7999992370605469 8.614358901977539 0.39999961853027344
      vertex 0 6.84999942779541 0.39999961853027344
      vertex 2.7279796600341797 8.424999237060547 0.39999961853027344
    endloop
  endfacet
  facet normal 0 0 1
    outer loop
      vertex -0.16724491119384766 8.408764839172363 0.39999961853027344
      vertex 0 6.84999942779541 0.39999961853027344
      vertex 0.16724491119384766 8.408764839172363 0.39999961853027344
    endloop
  endfacet
  facet normal 0 0 1
    outer loop
      vertex -0.4944267272949219 8.47830867767334 0.39999961853027344
      vertex 0 6.84999942779541 0.39999961853027344
      vertex -0.16724491119384766 8.408764839172363 0.39999961853027344
    endloop
  endfacet
  facet normal 0 0 1
    outer loop
      vertex -0.7999992370605469 8.614358901977539 0.39999961853027344
      vertex 0 6.84999942779541 0.39999961853027344
      vertex -0.4944267272949219 8.47830867767334 0.39999961853027344
    endloop
  endfacet
  facet normal 0 0 1
    outer loop
      vertex -2.7279796600341797 8.424999237060547 0.39999961853027344
      vertex -0.7999992370605469 8.614358901977539 0.39999961853027344
      vertex -1.070608139038086 8.810967445373535 0.39999961853027344
    endloop
  endfacet
  facet normal 0 0 1
    outer loop
      vertex -2.7279796600341797 8.424999237060547 0.39999961853027344
      vertex -1.070608139038086 8.810967445373535 0.39999961853027344
      vertex -1.2944269180297852 9.059542655944824 0.39999961853027344
    endloop
  endfacet
  facet normal 0 0 1
    outer loop
      vertex -2.7279796600341797 8.424999237060547 0.39999961853027344
      vertex -1.5999994277954102 10 0.39999961853027344
      vertex -2.7279796600341797 11.574999809265137 0.39999961853027344
    endloop
  endfacet
  facet normal 0 0 1
    outer loop
      vertex -1.5999994277954102 10 0.39999961853027344
      vertex -2.7279796600341797 8.424999237060547 0.39999961853027344
      vertex -1.5650358200073242 9.667341232299805 0.39999961853027344
    endloop
  endfacet
  facet normal 0 0 1
    outer loop
      vertex -0.7999992370605469 8.614358901977539 0.39999961853027344
      vertex -2.7279796600341797 8.424999237060547 0.39999961853027344
      vertex 0 6.84999942779541 0.39999961853027344
    endloop
  endfacet
  facet normal 0 0 1
    outer loop
      vertex -1.4616718292236328 9.349221229553223 0.39999961853027344
      vertex -2.7279796600341797 8.424999237060547 0.39999961853027344
      vertex -1.2944269180297852 9.059542655944824 0.39999961853027344
    endloop
  endfacet
  facet normal 0 0 1
    outer loop
      vertex -1.5650358200073242 9.667341232299805 0.39999961853027344
      vertex -2.7279796600341797 8.424999237060547 0.39999961853027344
      vertex -1.4616718292236328 9.349221229553223 0.39999961853027344
    endloop
  endfacet
  facet normal -0.5000000043334718 0.8660254012825075 0
    outer loop
      vertex 2.7279796600341797 -11.574999809265137 0.39999961853027344
      vertex 0 -13.149999618530273 4
      vertex 2.7279796600341797 -11.574999809265137 4
    endloop
  endfacet
  facet normal -0.5000000043334718 0.8660254012825075 0
    outer loop
      vertex 0 -13.149999618530273 4
      vertex 2.7279796600341797 -11.574999809265137 0.39999961853027344
      vertex 0 -13.149999618530273 0.39999961853027344
    endloop
  endfacet
  facet normal -1 0 0
    outer loop
      vertex 2.7279796600341797 -11.574999809265137 0.39999961853027344
      vertex 2.7279796600341797 -8.424999237060547 4
      vertex 2.7279796600341797 -8.424999237060547 0.39999961853027344
    endloop
  endfacet
  facet normal -1 0 0
    outer loop
      vertex 2.7279796600341797 -8.424999237060547 4
      vertex 2.7279796600341797 -11.574999809265137 0.39999961853027344
      vertex 2.7279796600341797 -11.574999809265137 4
    endloop
  endfacet
  facet normal 0.5000000043334718 -0.8660254012825075 0
    outer loop
      vertex -2.7279796600341797 -8.424999237060547 0.39999961853027344
      vertex 0 -6.84999942779541 4
      vertex -2.7279796600341797 -8.424999237060547 4
    endloop
  endfacet
  facet normal 0.5000000043334718 -0.8660254012825075 0
    outer loop
      vertex 0 -6.84999942779541 4
      vertex -2.7279796600341797 -8.424999237060547 0.39999961853027344
      vertex 0 -6.84999942779541 0.39999961853027344
    endloop
  endfacet
  facet normal 0.5000000043334718 0.8660254012825075 0
    outer loop
      vertex 0 -13.149999618530273 0.39999961853027344
      vertex -2.7279796600341797 -11.574999809265137 4
      vertex 0 -13.149999618530273 4
    endloop
  endfacet
  facet normal 0.5000000043334718 0.8660254012825075 0
    outer loop
      vertex -2.7279796600341797 -11.574999809265137 4
      vertex 0 -13.149999618530273 0.39999961853027344
      vertex -2.7279796600341797 -11.574999809265137 0.39999961853027344
    endloop
  endfacet
  facet normal -0.5000000043334718 -0.8660254012825075 0
    outer loop
      vertex 0 -6.84999942779541 0.39999961853027344
      vertex 2.7279796600341797 -8.424999237060547 4
      vertex 0 -6.84999942779541 4
    endloop
  endfacet
  facet normal -0.5000000043334718 -0.8660254012825075 0
    outer loop
      vertex 2.7279796600341797 -8.424999237060547 4
      vertex 0 -6.84999942779541 0.39999961853027344
      vertex 2.7279796600341797 -8.424999237060547 0.39999961853027344
    endloop
  endfacet
  facet normal 1 0 0
    outer loop
      vertex -2.7279796600341797 -11.574999809265137 4
      vertex -2.7279796600341797 -8.424999237060547 0.39999961853027344
      vertex -2.7279796600341797 -8.424999237060547 4
    endloop
  endfacet
  facet normal 1 0 0
    outer loop
      vertex -2.7279796600341797 -8.424999237060547 0.39999961853027344
      vertex -2.7279796600341797 -11.574999809265137 4
      vertex -2.7279796600341797 -11.574999809265137 0.39999961853027344
    endloop
  endfacet
  facet normal 0 0 1
    outer loop
      vertex 2.7279796600341797 -8.424999237060547 0.39999961853027344
      vertex 1.5999994277954102 -10 0.39999961853027344
      vertex 2.7279796600341797 -11.574999809265137 0.39999961853027344
    endloop
  endfacet
  facet normal 0 0 1
    outer loop
      vertex 2.7279796600341797 -8.424999237060547 0.39999961853027344
      vertex 1.5650358200073242 -9.667341232299805 0.39999961853027344
      vertex 1.5999994277954102 -10 0.39999961853027344
    endloop
  endfacet
  facet normal 0 0 1
    outer loop
      vertex 2.7279796600341797 -8.424999237060547 0.39999961853027344
      vertex 1.4616718292236328 -9.349221229553223 0.39999961853027344
      vertex 1.5650358200073242 -9.667341232299805 0.39999961853027344
    endloop
  endfacet
  facet normal 0 0 1
    outer loop
      vertex 2.7279796600341797 -8.424999237060547 0.39999961853027344
      vertex 1.2944269180297852 -9.059542655944824 0.39999961853027344
      vertex 1.4616718292236328 -9.349221229553223 0.39999961853027344
    endloop
  endfacet
  facet normal 0 0 1
    outer loop
      vertex 2.7279796600341797 -8.424999237060547 0.39999961853027344
      vertex 1.070608139038086 -8.810967445373535 0.39999961853027344
      vertex 1.2944269180297852 -9.059542655944824 0.39999961853027344
    endloop
  endfacet
  facet normal 0 0 1
    outer loop
      vertex 2.7279796600341797 -8.424999237060547 0.39999961853027344
      vertex 0.7999992370605469 -8.614358901977539 0.39999961853027344
      vertex 1.070608139038086 -8.810967445373535 0.39999961853027344
    endloop
  endfacet
  facet normal 0 0 1
    outer loop
      vertex 0 -6.84999942779541 0.39999961853027344
      vertex 0.7999992370605469 -8.614358901977539 0.39999961853027344
      vertex 2.7279796600341797 -8.424999237060547 0.39999961853027344
    endloop
  endfacet
  facet normal 0 0 1
    outer loop
      vertex 0.7999992370605469 -8.614358901977539 0.39999961853027344
      vertex 0 -6.84999942779541 0.39999961853027344
      vertex 0.4944267272949219 -8.47830867767334 0.39999961853027344
    endloop
  endfacet
  facet normal 0 0 1
    outer loop
      vertex 0.4944267272949219 -8.47830867767334 0.39999961853027344
      vertex 0 -6.84999942779541 0.39999961853027344
      vertex 0.16724491119384766 -8.408764839172363 0.39999961853027344
    endloop
  endfacet
  facet normal 0 0 1
    outer loop
      vertex 0 -6.84999942779541 0.39999961853027344
      vertex -0.16724491119384766 -8.408764839172363 0.39999961853027344
      vertex 0.16724491119384766 -8.408764839172363 0.39999961853027344
    endloop
  endfacet
  facet normal 0 0 1
    outer loop
      vertex 0 -6.84999942779541 0.39999961853027344
      vertex -0.4944267272949219 -8.47830867767334 0.39999961853027344
      vertex -0.16724491119384766 -8.408764839172363 0.39999961853027344
    endloop
  endfacet
  facet normal 0 0 1
    outer loop
      vertex 0 -6.84999942779541 0.39999961853027344
      vertex -0.7999992370605469 -8.614358901977539 0.39999961853027344
      vertex -0.4944267272949219 -8.47830867767334 0.39999961853027344
    endloop
  endfacet
  facet normal 0 0 1
    outer loop
      vertex -2.7279796600341797 -8.424999237060547 0.39999961853027344
      vertex -0.7999992370605469 -8.614358901977539 0.39999961853027344
      vertex 0 -6.84999942779541 0.39999961853027344
    endloop
  endfacet
  facet normal 0 0 1
    outer loop
      vertex -0.7999992370605469 -8.614358901977539 0.39999961853027344
      vertex -2.7279796600341797 -8.424999237060547 0.39999961853027344
      vertex -1.070608139038086 -8.810967445373535 0.39999961853027344
    endloop
  endfacet
  facet normal 0 0 1
    outer loop
      vertex -1.5650358200073242 -9.667341232299805 0.39999961853027344
      vertex -2.7279796600341797 -8.424999237060547 0.39999961853027344
      vertex -1.5999994277954102 -10 0.39999961853027344
    endloop
  endfacet
  facet normal 0 0 1
    outer loop
      vertex -1.4616718292236328 -9.349221229553223 0.39999961853027344
      vertex -2.7279796600341797 -8.424999237060547 0.39999961853027344
      vertex -1.5650358200073242 -9.667341232299805 0.39999961853027344
    endloop
  endfacet
  facet normal 0 0 1
    outer loop
      vertex -1.2944269180297852 -9.059542655944824 0.39999961853027344
      vertex -2.7279796600341797 -8.424999237060547 0.39999961853027344
      vertex -1.4616718292236328 -9.349221229553223 0.39999961853027344
    endloop
  endfacet
  facet normal 0 0 1
    outer loop
      vertex -1.070608139038086 -8.810967445373535 0.39999961853027344
      vertex -2.7279796600341797 -8.424999237060547 0.39999961853027344
      vertex -1.2944269180297852 -9.059542655944824 0.39999961853027344
    endloop
  endfacet
  facet normal 0 0 1
    outer loop
      vertex 1.5650358200073242 -10.332657814025879 0.39999961853027344
      vertex 2.7279796600341797 -11.574999809265137 0.39999961853027344
      vertex 1.5999994277954102 -10 0.39999961853027344
    endloop
  endfacet
  facet normal 0 0 1
    outer loop
      vertex 1.4616718292236328 -10.650777816772461 0.39999961853027344
      vertex 2.7279796600341797 -11.574999809265137 0.39999961853027344
      vertex 1.5650358200073242 -10.332657814025879 0.39999961853027344
    endloop
  endfacet
  facet normal 0 0 1
    outer loop
      vertex 1.2944269180297852 -10.94045639038086 0.39999961853027344
      vertex 2.7279796600341797 -11.574999809265137 0.39999961853027344
      vertex 1.4616718292236328 -10.650777816772461 0.39999961853027344
    endloop
  endfacet
  facet normal 0 0 1
    outer loop
      vertex 1.070608139038086 -11.189031600952148 0.39999961853027344
      vertex 2.7279796600341797 -11.574999809265137 0.39999961853027344
      vertex 1.2944269180297852 -10.94045639038086 0.39999961853027344
    endloop
  endfacet
  facet normal 0 0 1
    outer loop
      vertex 0.7999992370605469 -11.385640144348145 0.39999961853027344
      vertex 2.7279796600341797 -11.574999809265137 0.39999961853027344
      vertex 1.070608139038086 -11.189031600952148 0.39999961853027344
    endloop
  endfacet
  facet normal 0 0 1
    outer loop
      vertex 0 -13.149999618530273 0.39999961853027344
      vertex 0.7999992370605469 -11.385640144348145 0.39999961853027344
      vertex 0.4944267272949219 -11.521690368652344 0.39999961853027344
    endloop
  endfacet
  facet normal 0 0 1
    outer loop
      vertex 0 -13.149999618530273 0.39999961853027344
      vertex 0.4944267272949219 -11.521690368652344 0.39999961853027344
      vertex 0.16724491119384766 -11.59123420715332 0.39999961853027344
    endloop
  endfacet
  facet normal 0 0 1
    outer loop
      vertex 0.7999992370605469 -11.385640144348145 0.39999961853027344
      vertex 0 -13.149999618530273 0.39999961853027344
      vertex 2.7279796600341797 -11.574999809265137 0.39999961853027344
    endloop
  endfacet
  facet normal 0 0 1
    outer loop
      vertex -0.16724491119384766 -11.59123420715332 0.39999961853027344
      vertex 0 -13.149999618530273 0.39999961853027344
      vertex 0.16724491119384766 -11.59123420715332 0.39999961853027344
    endloop
  endfacet
  facet normal 0 0 1
    outer loop
      vertex -0.4944267272949219 -11.521690368652344 0.39999961853027344
      vertex 0 -13.149999618530273 0.39999961853027344
      vertex -0.16724491119384766 -11.59123420715332 0.39999961853027344
    endloop
  endfacet
  facet normal 0 0 1
    outer loop
      vertex -0.7999992370605469 -11.385640144348145 0.39999961853027344
      vertex 0 -13.149999618530273 0.39999961853027344
      vertex -0.4944267272949219 -11.521690368652344 0.39999961853027344
    endloop
  endfacet
  facet normal 0 0 1
    outer loop
      vertex -2.7279796600341797 -11.574999809265137 0.39999961853027344
      vertex -0.7999992370605469 -11.385640144348145 0.39999961853027344
      vertex -1.070608139038086 -11.189031600952148 0.39999961853027344
    endloop
  endfacet
  facet normal 0 0 1
    outer loop
      vertex -2.7279796600341797 -11.574999809265137 0.39999961853027344
      vertex -1.070608139038086 -11.189031600952148 0.39999961853027344
      vertex -1.2944269180297852 -10.94045639038086 0.39999961853027344
    endloop
  endfacet
  facet normal 0 0 1
    outer loop
      vertex -2.7279796600341797 -11.574999809265137 0.39999961853027344
      vertex -1.5999994277954102 -10 0.39999961853027344
      vertex -2.7279796600341797 -8.424999237060547 0.39999961853027344
    endloop
  endfacet
  facet normal 0 0 1
    outer loop
      vertex -1.5999994277954102 -10 0.39999961853027344
      vertex -2.7279796600341797 -11.574999809265137 0.39999961853027344
      vertex -1.5650358200073242 -10.332657814025879 0.39999961853027344
    endloop
  endfacet
  facet normal 0 0 1
    outer loop
      vertex -0.7999992370605469 -11.385640144348145 0.39999961853027344
      vertex -2.7279796600341797 -11.574999809265137 0.39999961853027344
      vertex 0 -13.149999618530273 0.39999961853027344
    endloop
  endfacet
  facet normal 0 0 1
    outer loop
      vertex -1.4616718292236328 -10.650777816772461 0.39999961853027344
      vertex -2.7279796600341797 -11.574999809265137 0.39999961853027344
      vertex -1.2944269180297852 -10.94045639038086 0.39999961853027344
    endloop
  endfacet
  facet normal 0 0 1
    outer loop
      vertex -1.5650358200073242 -10.332657814025879 0.39999961853027344
      vertex -2.7279796600341797 -11.574999809265137 0.39999961853027344
      vertex -1.4616718292236328 -10.650777816772461 0.39999961853027344
    endloop
  endfacet
  facet normal -1 0 0
    outer loop
      vertex 3 -5 2
      vertex 3 5 4
      vertex 3 5 2
    endloop
  endfacet
  facet normal -1 0 0
    outer loop
      vertex 3 5 4
      vertex 3 -5 2
      vertex 3 -5 4
    endloop
  endfacet
  facet normal 0 0 1
    outer loop
      vertex -3 5 2
      vertex 3 -5 2
      vertex 3 5 2
    endloop
  endfacet
  facet normal 0 0 1
    outer loop
      vertex 3 -5 2
      vertex -3 5 2
      vertex -3 -5 2
    endloop
  endfacet
  facet normal 1 0 0
    outer loop
      vertex -3 -5 4
      vertex -3 5 2
      vertex -3 5 4
    endloop
  endfacet
  facet normal 1 0 0
    outer loop
      vertex -3 5 2
      vertex -3 -5 4
      vertex -3 -5 2
    endloop
  endfacet
  facet normal 0 -1 0
    outer loop
      vertex -3 5 2
      vertex 3 5 4
      vertex -3 5 4
    endloop
  endfacet
  facet normal 0 -1 0
    outer loop
      vertex 3 5 4
      vertex -3 5 2
      vertex 3 5 2
    endloop
  endfacet
  facet normal 0 1 0
    outer loop
      vertex 3 -5 2
      vertex -3 -5 4
      vertex 3 -5 4
    endloop
  endfacet
  facet normal 0 1 0
    outer loop
      vertex -3 -5 4
      vertex 3 -5 2
      vertex -3 -5 2
    endloop
  endfacet
endsolid OpenSCAD_Model
