solid OpenSCAD_Model
  facet normal -0.5773502691896258 -0.5773502691896258 -0.5773502691896258
    outer loop
      vertex -3.84999942779541 -13 0.5
      vertex -4.34999942779541 -12.5 0.5
      vertex -3.84999942779541 -12.5 0
    endloop
  endfacet
  facet normal 0.5773502691896258 0.5773502691896258 0.5773502691896258
    outer loop
      vertex 3.84999942779541 13 3.299999237060547
      vertex 3.84999942779541 12.5 3.799999237060547
      vertex 4.34999942779541 12.5 3.299999237060547
    endloop
  endfacet
  facet normal 0 0 1
    outer loop
      vertex 3.09999942779541 4.5 3.799999237060547
      vertex 2.7279796600341797 1.5749998092651367 3.799999237060547
      vertex 3.09999942779541 -4.5 3.799999237060547
    endloop
  endfacet
  facet normal 0 0 1
    outer loop
      vertex 3.09999942779541 4.5 3.799999237060547
      vertex 0 3.1499996185302734 3.799999237060547
      vertex 2.7279796600341797 1.5749998092651367 3.799999237060547
    endloop
  endfacet
  facet normal 0 0 1
    outer loop
      vertex -2.7279796600341797 1.5749998092651367 3.799999237060547
      vertex -3.09999942779541 4.5 3.799999237060547
      vertex -2.7279796600341797 -1.5749998092651367 3.799999237060547
    endloop
  endfacet
  facet normal 0 0 1
    outer loop
      vertex 0 3.1499996185302734 3.799999237060547
      vertex -3.09999942779541 4.5 3.799999237060547
      vertex -2.7279796600341797 1.5749998092651367 3.799999237060547
    endloop
  endfacet
  facet normal 0 0 1
    outer loop
      vertex -3.09999942779541 4.5 3.799999237060547
      vertex 0 3.1499996185302734 3.799999237060547
      vertex 3.09999942779541 4.5 3.799999237060547
    endloop
  endfacet
  facet normal 0 0 1
    outer loop
      vertex 3.09999942779541 4.5 3.799999237060547
      vertex 3.84999942779541 12.5 3.799999237060547
      vertex 3.09999942779541 11.5 3.799999237060547
    endloop
  endfacet
  facet normal 0 0 1
    outer loop
      vertex 3.84999942779541 12.5 3.799999237060547
      vertex -3.09999942779541 11.5 3.799999237060547
      vertex 3.09999942779541 11.5 3.799999237060547
    endloop
  endfacet
  facet normal 0 0 1
    outer loop
      vertex -3.84999942779541 12.5 3.799999237060547
      vertex -3.09999942779541 4.5 3.799999237060547
      vertex -3.09999942779541 11.5 3.799999237060547
    endloop
  endfacet
  facet normal 0 0 1
    outer loop
      vertex -3.09999942779541 4.5 3.799999237060547
      vertex -3.84999942779541 12.5 3.799999237060547
      vertex -3.09999942779541 -4.5 3.799999237060547
    endloop
  endfacet
  facet normal 0 0 1
    outer loop
      vertex -3.84999942779541 -12.5 3.799999237060547
      vertex -3.09999942779541 -4.5 3.799999237060547
      vertex -3.84999942779541 12.5 3.799999237060547
    endloop
  endfacet
  facet normal 0 0 1
    outer loop
      vertex -3.84999942779541 12.5 3.799999237060547
      vertex -3.09999942779541 11.5 3.799999237060547
      vertex 3.84999942779541 12.5 3.799999237060547
    endloop
  endfacet
  facet normal 0 0 1
    outer loop
      vertex 3.84999942779541 12.5 3.799999237060547
      vertex 3.09999942779541 4.5 3.799999237060547
      vertex 3.84999942779541 -12.5 3.799999237060547
    endloop
  endfacet
  facet normal 0 0 1
    outer loop
      vertex 3.09999942779541 -4.5 3.799999237060547
      vertex 3.84999942779541 -12.5 3.799999237060547
      vertex 3.09999942779541 4.5 3.799999237060547
    endloop
  endfacet
  facet normal 0 0 1
    outer loop
      vertex 3.09999942779541 -11.5 3.799999237060547
      vertex 3.84999942779541 -12.5 3.799999237060547
      vertex 3.09999942779541 -4.5 3.799999237060547
    endloop
  endfacet
  facet normal 0 0 1
    outer loop
      vertex -3.09999942779541 -11.5 3.799999237060547
      vertex 3.84999942779541 -12.5 3.799999237060547
      vertex 3.09999942779541 -11.5 3.799999237060547
    endloop
  endfacet
  facet normal 0 0 1
    outer loop
      vertex -3.09999942779541 -11.5 3.799999237060547
      vertex -3.84999942779541 -12.5 3.799999237060547
      vertex 3.84999942779541 -12.5 3.799999237060547
    endloop
  endfacet
  facet normal 0 0 1
    outer loop
      vertex -3.09999942779541 -4.5 3.799999237060547
      vertex -3.84999942779541 -12.5 3.799999237060547
      vertex -3.09999942779541 -11.5 3.799999237060547
    endloop
  endfacet
  facet normal 0 0 1
    outer loop
      vertex 2.7279796600341797 -1.5749998092651367 3.799999237060547
      vertex 3.09999942779541 -4.5 3.799999237060547
      vertex 2.7279796600341797 1.5749998092651367 3.799999237060547
    endloop
  endfacet
  facet normal 0 0 1
    outer loop
      vertex 0 -3.1499996185302734 3.799999237060547
      vertex 3.09999942779541 -4.5 3.799999237060547
      vertex 2.7279796600341797 -1.5749998092651367 3.799999237060547
    endloop
  endfacet
  facet normal 0 0 1
    outer loop
      vertex 0 -3.1499996185302734 3.799999237060547
      vertex -3.09999942779541 -4.5 3.799999237060547
      vertex 3.09999942779541 -4.5 3.799999237060547
    endloop
  endfacet
  facet normal 0 0 1
    outer loop
      vertex -2.7279796600341797 -1.5749998092651367 3.799999237060547
      vertex -3.09999942779541 -4.5 3.799999237060547
      vertex 0 -3.1499996185302734 3.799999237060547
    endloop
  endfacet
  facet normal 0 0 1
    outer loop
      vertex -3.09999942779541 -4.5 3.799999237060547
      vertex -2.7279796600341797 -1.5749998092651367 3.799999237060547
      vertex -3.09999942779541 4.5 3.799999237060547
    endloop
  endfacet
  facet normal 0 -0.7071067811865476 -0.7071067811865476
    outer loop
      vertex -3.84999942779541 -12.5 0
      vertex 3.84999942779541 -13 0.5
      vertex -3.84999942779541 -13 0.5
    endloop
  endfacet
  facet normal 0 -0.7071067811865476 -0.7071067811865476
    outer loop
      vertex 3.84999942779541 -13 0.5
      vertex -3.84999942779541 -12.5 0
      vertex 3.84999942779541 -12.5 0
    endloop
  endfacet
  facet normal 0.7071067811865475 0 0.7071067811865475
    outer loop
      vertex 3.84999942779541 -12.5 3.799999237060547
      vertex 4.34999942779541 12.5 3.299999237060547
      vertex 3.84999942779541 12.5 3.799999237060547
    endloop
  endfacet
  facet normal 0.7071067811865475 0 0.7071067811865475
    outer loop
      vertex 4.34999942779541 12.5 3.299999237060547
      vertex 3.84999942779541 -12.5 3.799999237060547
      vertex 4.34999942779541 -12.5 3.299999237060547
    endloop
  endfacet
  facet normal -1 0 0
    outer loop
      vertex -4.34999942779541 -12.5 0.5
      vertex -4.34999942779541 12.5 3.299999237060547
      vertex -4.34999942779541 12.5 0.5
    endloop
  endfacet
  facet normal -1 0 0
    outer loop
      vertex -4.34999942779541 12.5 3.299999237060547
      vertex -4.34999942779541 -12.5 0.5
      vertex -4.34999942779541 -12.5 3.299999237060547
    endloop
  endfacet
  facet normal 0.5773502691896258 -0.5773502691896258 -0.5773502691896258
    outer loop
      vertex 4.34999942779541 -12.5 0.5
      vertex 3.84999942779541 -13 0.5
      vertex 3.84999942779541 -12.5 0
    endloop
  endfacet
  facet normal 0.7071067811865475 0 -0.7071067811865475
    outer loop
      vertex 4.34999942779541 -12.5 0.5
      vertex 3.84999942779541 12.5 0
      vertex 4.34999942779541 12.5 0.5
    endloop
  endfacet
  facet normal 0.7071067811865475 0 -0.7071067811865475
    outer loop
      vertex 3.84999942779541 12.5 0
      vertex 4.34999942779541 -12.5 0.5
      vertex 3.84999942779541 -12.5 0
    endloop
  endfacet
  facet normal -0.7071067811865475 0 -0.7071067811865475
    outer loop
      vertex -3.84999942779541 -12.5 0
      vertex -4.34999942779541 12.5 0.5
      vertex -3.84999942779541 12.5 0
    endloop
  endfacet
  facet normal -0.7071067811865475 0 -0.7071067811865475
    outer loop
      vertex -4.34999942779541 12.5 0.5
      vertex -3.84999942779541 -12.5 0
      vertex -4.34999942779541 -12.5 0.5
    endloop
  endfacet
  facet normal 0 0.7071067811865476 0.7071067811865476
    outer loop
      vertex 3.84999942779541 13 3.299999237060547
      vertex -3.84999942779541 12.5 3.799999237060547
      vertex 3.84999942779541 12.5 3.799999237060547
    endloop
  endfacet
  facet normal 0 0.7071067811865476 0.7071067811865476
    outer loop
      vertex -3.84999942779541 12.5 3.799999237060547
      vertex 3.84999942779541 13 3.299999237060547
      vertex -3.84999942779541 13 3.299999237060547
    endloop
  endfacet
  facet normal 0 1 0
    outer loop
      vertex 3.84999942779541 13 0.5
      vertex -3.84999942779541 13 3.299999237060547
      vertex 3.84999942779541 13 3.299999237060547
    endloop
  endfacet
  facet normal 0 1 0
    outer loop
      vertex -3.84999942779541 13 3.299999237060547
      vertex 3.84999942779541 13 0.5
      vertex -3.84999942779541 13 0.5
    endloop
  endfacet
  facet normal 0.7071067811865475 0.7071067811865475 0
    outer loop
      vertex 4.34999942779541 12.5 3.299999237060547
      vertex 3.84999942779541 13 0.5
      vertex 3.84999942779541 13 3.299999237060547
    endloop
  endfacet
  facet normal 0.7071067811865475 0.7071067811865475 0
    outer loop
      vertex 3.84999942779541 13 0.5
      vertex 4.34999942779541 12.5 3.299999237060547
      vertex 4.34999942779541 12.5 0.5
    endloop
  endfacet
  facet normal 0 0 -1
    outer loop
      vertex 3.84999942779541 -12.5 0
      vertex 1.5999994277954102 0 0
      vertex 3.84999942779541 12.5 0
    endloop
  endfacet
  facet normal 0 0 -1
    outer loop
      vertex 3.84999942779541 -12.5 0
      vertex 1.5650358200073242 -0.3326578140258789 0
      vertex 1.5999994277954102 0 0
    endloop
  endfacet
  facet normal 0 0 -1
    outer loop
      vertex 3.84999942779541 -12.5 0
      vertex 1.4616718292236328 -0.6507778167724609 0
      vertex 1.5650358200073242 -0.3326578140258789 0
    endloop
  endfacet
  facet normal 0 0 -1
    outer loop
      vertex 3.84999942779541 -12.5 0
      vertex 1.2944269180297852 -0.9404563903808594 0
      vertex 1.4616718292236328 -0.6507778167724609 0
    endloop
  endfacet
  facet normal 0 0 -1
    outer loop
      vertex 3.84999942779541 -12.5 0
      vertex 1.070608139038086 -1.1890316009521484 0
      vertex 1.2944269180297852 -0.9404563903808594 0
    endloop
  endfacet
  facet normal 0 0 -1
    outer loop
      vertex 3.84999942779541 -12.5 0
      vertex 0.7999992370605469 -1.3856401443481445 0
      vertex 1.070608139038086 -1.1890316009521484 0
    endloop
  endfacet
  facet normal 0 0 -1
    outer loop
      vertex 3.84999942779541 -12.5 0
      vertex 0.4944267272949219 -1.5216903686523438 0
      vertex 0.7999992370605469 -1.3856401443481445 0
    endloop
  endfacet
  facet normal 0 0 -1
    outer loop
      vertex 3.84999942779541 -12.5 0
      vertex 0.16724491119384766 -1.5912342071533203 0
      vertex 0.4944267272949219 -1.5216903686523438 0
    endloop
  endfacet
  facet normal 0 0 -1
    outer loop
      vertex 3.84999942779541 -12.5 0
      vertex -0.16724491119384766 -1.5912342071533203 0
      vertex 0.16724491119384766 -1.5912342071533203 0
    endloop
  endfacet
  facet normal 0 0 -1
    outer loop
      vertex -3.84999942779541 -12.5 0
      vertex -0.16724491119384766 -1.5912342071533203 0
      vertex 3.84999942779541 -12.5 0
    endloop
  endfacet
  facet normal 0 0 -1
    outer loop
      vertex -0.16724491119384766 -1.5912342071533203 0
      vertex -3.84999942779541 -12.5 0
      vertex -0.4944267272949219 -1.5216903686523438 0
    endloop
  endfacet
  facet normal 0 0 -1
    outer loop
      vertex -0.4944267272949219 -1.5216903686523438 0
      vertex -3.84999942779541 -12.5 0
      vertex -0.7999992370605469 -1.3856401443481445 0
    endloop
  endfacet
  facet normal 0 0 -1
    outer loop
      vertex -0.7999992370605469 -1.3856401443481445 0
      vertex -3.84999942779541 -12.5 0
      vertex -1.070608139038086 -1.1890316009521484 0
    endloop
  endfacet
  facet normal 0 0 -1
    outer loop
      vertex -1.070608139038086 -1.1890316009521484 0
      vertex -3.84999942779541 -12.5 0
      vertex -1.2944269180297852 -0.9404563903808594 0
    endloop
  endfacet
  facet normal 0 0 -1
    outer loop
      vertex -1.5650358200073242 -0.3326578140258789 0
      vertex -3.84999942779541 -12.5 0
      vertex -1.5999994277954102 0 0
    endloop
  endfacet
  facet normal 0 0 -1
    outer loop
      vertex -1.4616718292236328 -0.6507778167724609 0
      vertex -3.84999942779541 -12.5 0
      vertex -1.5650358200073242 -0.3326578140258789 0
    endloop
  endfacet
  facet normal 0 0 -1
    outer loop
      vertex -1.2944269180297852 -0.9404563903808594 0
      vertex -3.84999942779541 -12.5 0
      vertex -1.4616718292236328 -0.6507778167724609 0
    endloop
  endfacet
  facet normal 0 0 -1
    outer loop
      vertex 1.5650358200073242 0.3326578140258789 0
      vertex 3.84999942779541 12.5 0
      vertex 1.5999994277954102 0 0
    endloop
  endfacet
  facet normal 0 0 -1
    outer loop
      vertex 1.4616718292236328 0.6507778167724609 0
      vertex 3.84999942779541 12.5 0
      vertex 1.5650358200073242 0.3326578140258789 0
    endloop
  endfacet
  facet normal 0 0 -1
    outer loop
      vertex 1.2944269180297852 0.9404563903808594 0
      vertex 3.84999942779541 12.5 0
      vertex 1.4616718292236328 0.6507778167724609 0
    endloop
  endfacet
  facet normal 0 0 -1
    outer loop
      vertex 1.070608139038086 1.1890316009521484 0
      vertex 3.84999942779541 12.5 0
      vertex 1.2944269180297852 0.9404563903808594 0
    endloop
  endfacet
  facet normal 0 0 -1
    outer loop
      vertex 0.7999992370605469 1.3856401443481445 0
      vertex 3.84999942779541 12.5 0
      vertex 1.070608139038086 1.1890316009521484 0
    endloop
  endfacet
  facet normal 0 0 -1
    outer loop
      vertex 0.4944267272949219 1.5216903686523438 0
      vertex 3.84999942779541 12.5 0
      vertex 0.7999992370605469 1.3856401443481445 0
    endloop
  endfacet
  facet normal 0 0 -1
    outer loop
      vertex 0.16724491119384766 1.5912342071533203 0
      vertex 3.84999942779541 12.5 0
      vertex 0.4944267272949219 1.5216903686523438 0
    endloop
  endfacet
  facet normal 0 0 -1
    outer loop
      vertex -0.16724491119384766 1.5912342071533203 0
      vertex 3.84999942779541 12.5 0
      vertex 0.16724491119384766 1.5912342071533203 0
    endloop
  endfacet
  facet normal 0 0 -1
    outer loop
      vertex -3.84999942779541 12.5 0
      vertex -0.16724491119384766 1.5912342071533203 0
      vertex -0.4944267272949219 1.5216903686523438 0
    endloop
  endfacet
  facet normal 0 0 -1
    outer loop
      vertex -3.84999942779541 12.5 0
      vertex -0.4944267272949219 1.5216903686523438 0
      vertex -0.7999992370605469 1.3856401443481445 0
    endloop
  endfacet
  facet normal 0 0 -1
    outer loop
      vertex -3.84999942779541 12.5 0
      vertex -0.7999992370605469 1.3856401443481445 0
      vertex -1.070608139038086 1.1890316009521484 0
    endloop
  endfacet
  facet normal 0 0 -1
    outer loop
      vertex -3.84999942779541 12.5 0
      vertex -1.070608139038086 1.1890316009521484 0
      vertex -1.2944269180297852 0.9404563903808594 0
    endloop
  endfacet
  facet normal 0 0 -1
    outer loop
      vertex -3.84999942779541 12.5 0
      vertex -1.2944269180297852 0.9404563903808594 0
      vertex -1.4616718292236328 0.6507778167724609 0
    endloop
  endfacet
  facet normal 0 0 -1
    outer loop
      vertex -3.84999942779541 12.5 0
      vertex -1.5999994277954102 0 0
      vertex -3.84999942779541 -12.5 0
    endloop
  endfacet
  facet normal 0 0 -1
    outer loop
      vertex -0.16724491119384766 1.5912342071533203 0
      vertex -3.84999942779541 12.5 0
      vertex 3.84999942779541 12.5 0
    endloop
  endfacet
  facet normal 0 0 -1
    outer loop
      vertex -1.5650358200073242 0.3326578140258789 0
      vertex -3.84999942779541 12.5 0
      vertex -1.4616718292236328 0.6507778167724609 0
    endloop
  endfacet
  facet normal 0 0 -1
    outer loop
      vertex -1.5999994277954102 0 0
      vertex -3.84999942779541 12.5 0
      vertex -1.5650358200073242 0.3326578140258789 0
    endloop
  endfacet
  facet normal 0.5773502691896258 0.5773502691896258 -0.5773502691896258
    outer loop
      vertex 4.34999942779541 12.5 0.5
      vertex 3.84999942779541 12.5 0
      vertex 3.84999942779541 13 0.5
    endloop
  endfacet
  facet normal 0 0.7071067811865476 -0.7071067811865476
    outer loop
      vertex 3.84999942779541 12.5 0
      vertex -3.84999942779541 13 0.5
      vertex 3.84999942779541 13 0.5
    endloop
  endfacet
  facet normal 0 0.7071067811865476 -0.7071067811865476
    outer loop
      vertex -3.84999942779541 13 0.5
      vertex 3.84999942779541 12.5 0
      vertex -3.84999942779541 12.5 0
    endloop
  endfacet
  facet normal -0.5773502691896258 0.5773502691896258 0.5773502691896258
    outer loop
      vertex -3.84999942779541 13 3.299999237060547
      vertex -4.34999942779541 12.5 3.299999237060547
      vertex -3.84999942779541 12.5 3.799999237060547
    endloop
  endfacet
  facet normal -0.5773502691896258 0.5773502691896258 -0.5773502691896258
    outer loop
      vertex -3.84999942779541 12.5 0
      vertex -4.34999942779541 12.5 0.5
      vertex -3.84999942779541 13 0.5
    endloop
  endfacet
  facet normal 1 0 0
    outer loop
      vertex 4.34999942779541 -12.5 3.299999237060547
      vertex 4.34999942779541 12.5 0.5
      vertex 4.34999942779541 12.5 3.299999237060547
    endloop
  endfacet
  facet normal 1 0 0
    outer loop
      vertex 4.34999942779541 12.5 0.5
      vertex 4.34999942779541 -12.5 3.299999237060547
      vertex 4.34999942779541 -12.5 0.5
    endloop
  endfacet
  facet normal -0.5773502691896258 -0.5773502691896258 0.5773502691896258
    outer loop
      vertex -3.84999942779541 -12.5 3.799999237060547
      vertex -4.34999942779541 -12.5 3.299999237060547
      vertex -3.84999942779541 -13 3.299999237060547
    endloop
  endfacet
  facet normal -0.7071067811865475 -0.7071067811865475 0
    outer loop
      vertex -3.84999942779541 -13 0.5
      vertex -4.34999942779541 -12.5 3.299999237060547
      vertex -4.34999942779541 -12.5 0.5
    endloop
  endfacet
  facet normal -0.7071067811865475 -0.7071067811865475 0
    outer loop
      vertex -4.34999942779541 -12.5 3.299999237060547
      vertex -3.84999942779541 -13 0.5
      vertex -3.84999942779541 -13 3.299999237060547
    endloop
  endfacet
  facet normal -0.7071067811865475 0 0.7071067811865475
    outer loop
      vertex -4.34999942779541 -12.5 3.299999237060547
      vertex -3.84999942779541 12.5 3.799999237060547
      vertex -4.34999942779541 12.5 3.299999237060547
    endloop
  endfacet
  facet normal -0.7071067811865475 0 0.7071067811865475
    outer loop
      vertex -3.84999942779541 12.5 3.799999237060547
      vertex -4.34999942779541 -12.5 3.299999237060547
      vertex -3.84999942779541 -12.5 3.799999237060547
    endloop
  endfacet
  facet normal -0.7071067811865475 0.7071067811865475 0
    outer loop
      vertex -4.34999942779541 12.5 0.5
      vertex -3.84999942779541 13 3.299999237060547
      vertex -3.84999942779541 13 0.5
    endloop
  endfacet
  facet normal -0.7071067811865475 0.7071067811865475 0
    outer loop
      vertex -3.84999942779541 13 3.299999237060547
      vertex -4.34999942779541 12.5 0.5
      vertex -4.34999942779541 12.5 3.299999237060547
    endloop
  endfacet
  facet normal 0.7071067811865475 -0.7071067811865475 0
    outer loop
      vertex 3.84999942779541 -13 3.299999237060547
      vertex 4.34999942779541 -12.5 0.5
      vertex 4.34999942779541 -12.5 3.299999237060547
    endloop
  endfacet
  facet normal 0.7071067811865475 -0.7071067811865475 0
    outer loop
      vertex 4.34999942779541 -12.5 0.5
      vertex 3.84999942779541 -13 3.299999237060547
      vertex 3.84999942779541 -13 0.5
    endloop
  endfacet
  facet normal 0.5773502691896258 -0.5773502691896258 0.5773502691896258
    outer loop
      vertex 3.84999942779541 -12.5 3.799999237060547
      vertex 3.84999942779541 -13 3.299999237060547
      vertex 4.34999942779541 -12.5 3.299999237060547
    endloop
  endfacet
  facet normal 0 -0.7071067811865476 0.7071067811865476
    outer loop
      vertex -3.84999942779541 -13 3.299999237060547
      vertex 3.84999942779541 -12.5 3.799999237060547
      vertex -3.84999942779541 -12.5 3.799999237060547
    endloop
  endfacet
  facet normal 0 -0.7071067811865476 0.7071067811865476
    outer loop
      vertex 3.84999942779541 -12.5 3.799999237060547
      vertex -3.84999942779541 -13 3.299999237060547
      vertex 3.84999942779541 -13 3.299999237060547
    endloop
  endfacet
  facet normal 0 -1 0
    outer loop
      vertex -3.84999942779541 -13 0.5
      vertex 3.84999942779541 -13 3.299999237060547
      vertex -3.84999942779541 -13 3.299999237060547
    endloop
  endfacet
  facet normal 0 -1 0
    outer loop
      vertex 3.84999942779541 -13 3.299999237060547
      vertex -3.84999942779541 -13 0.5
      vertex 3.84999942779541 -13 0.5
    endloop
  endfacet
  facet normal -0.9945219380582384 -0.10452805709896919 0
    outer loop
      vertex 1.5999994277954102 0 0
      vertex 1.5650358200073242 0.3326578140258789 0.39999961853027344
      vertex 1.5650358200073242 0.3326578140258789 0
    endloop
  endfacet
  facet normal -0.9945219380582384 -0.10452805709896919 0
    outer loop
      vertex 1.5650358200073242 0.3326578140258789 0.39999961853027344
      vertex 1.5999994277954102 0 0
      vertex 1.5999994277954102 0 0.39999961853027344
    endloop
  endfacet
  facet normal 0.5877846019776137 0.80901746685595 0
    outer loop
      vertex -0.7999992370605469 -1.3856401443481445 0
      vertex -1.070608139038086 -1.1890316009521484 0.39999961853027344
      vertex -0.7999992370605469 -1.3856401443481445 0.39999961853027344
    endloop
  endfacet
  facet normal 0.5877846019776137 0.80901746685595 0
    outer loop
      vertex -1.070608139038086 -1.1890316009521484 0.39999961853027344
      vertex -0.7999992370605469 -1.3856401443481445 0
      vertex -1.070608139038086 -1.1890316009521484 0
    endloop
  endfacet
  facet normal 0.9510560452403513 0.3090184441287978 0
    outer loop
      vertex -1.4616718292236328 -0.6507778167724609 0.39999961853027344
      vertex -1.5650358200073242 -0.3326578140258789 0
      vertex -1.5650358200073242 -0.3326578140258789 0.39999961853027344
    endloop
  endfacet
  facet normal 0.9510560452403513 0.3090184441287978 0
    outer loop
      vertex -1.5650358200073242 -0.3326578140258789 0
      vertex -1.4616718292236328 -0.6507778167724609 0.39999961853027344
      vertex -1.4616718292236328 -0.6507778167724609 0
    endloop
  endfacet
  facet normal 0.5877846019776137 -0.80901746685595 0
    outer loop
      vertex -1.070608139038086 1.1890316009521484 0
      vertex -0.7999992370605469 1.3856401443481445 0.39999961853027344
      vertex -1.070608139038086 1.1890316009521484 0.39999961853027344
    endloop
  endfacet
  facet normal 0.5877846019776137 -0.80901746685595 0
    outer loop
      vertex -0.7999992370605469 1.3856401443481445 0.39999961853027344
      vertex -1.070608139038086 1.1890316009521484 0
      vertex -0.7999992370605469 1.3856401443481445 0
    endloop
  endfacet
  facet normal -0.8660268164577912 -0.49999755316999633 0
    outer loop
      vertex 1.4616718292236328 0.6507778167724609 0
      vertex 1.2944269180297852 0.9404563903808594 0.39999961853027344
      vertex 1.2944269180297852 0.9404563903808594 0
    endloop
  endfacet
  facet normal -0.8660268164577912 -0.49999755316999633 0
    outer loop
      vertex 1.2944269180297852 0.9404563903808594 0.39999961853027344
      vertex 1.4616718292236328 0.6507778167724609 0
      vertex 1.4616718292236328 0.6507778167724609 0.39999961853027344
    endloop
  endfacet
  facet normal -0.4067380839925258 0.91354481610378 0
    outer loop
      vertex 0.7999992370605469 -1.3856401443481445 0
      vertex 0.4944267272949219 -1.5216903686523438 0.39999961853027344
      vertex 0.7999992370605469 -1.3856401443481445 0.39999961853027344
    endloop
  endfacet
  facet normal -0.4067380839925258 0.91354481610378 0
    outer loop
      vertex 0.4944267272949219 -1.5216903686523438 0.39999961853027344
      vertex 0.7999992370605469 -1.3856401443481445 0
      vertex 0.4944267272949219 -1.5216903686523438 0
    endloop
  endfacet
  facet normal 0.2079093928698154 -0.9781480891748981 0
    outer loop
      vertex -0.4944267272949219 1.5216903686523438 0
      vertex -0.16724491119384766 1.5912342071533203 0.39999961853027344
      vertex -0.4944267272949219 1.5216903686523438 0.39999961853027344
    endloop
  endfacet
  facet normal 0.2079093928698154 -0.9781480891748981 0
    outer loop
      vertex -0.16724491119384766 1.5912342071533203 0.39999961853027344
      vertex -0.4944267272949219 1.5216903686523438 0
      vertex -0.16724491119384766 1.5912342071533203 0
    endloop
  endfacet
  facet normal -0.4067380839925258 -0.91354481610378 0
    outer loop
      vertex 0.4944267272949219 1.5216903686523438 0
      vertex 0.7999992370605469 1.3856401443481445 0.39999961853027344
      vertex 0.4944267272949219 1.5216903686523438 0.39999961853027344
    endloop
  endfacet
  facet normal -0.4067380839925258 -0.91354481610378 0
    outer loop
      vertex 0.7999992370605469 1.3856401443481445 0.39999961853027344
      vertex 0.4944267272949219 1.5216903686523438 0
      vertex 0.7999992370605469 1.3856401443481445 0
    endloop
  endfacet
  facet normal 0 -1 0
    outer loop
      vertex -0.16724491119384766 1.5912342071533203 0
      vertex 0.16724491119384766 1.5912342071533203 0.39999961853027344
      vertex -0.16724491119384766 1.5912342071533203 0.39999961853027344
    endloop
  endfacet
  facet normal 0 -1 0
    outer loop
      vertex 0.16724491119384766 1.5912342071533203 0.39999961853027344
      vertex -0.16724491119384766 1.5912342071533203 0
      vertex 0.16724491119384766 1.5912342071533203 0
    endloop
  endfacet
  facet normal 0.743143853107748 -0.6691316862831785 0
    outer loop
      vertex -1.2944269180297852 0.9404563903808594 0.39999961853027344
      vertex -1.070608139038086 1.1890316009521484 0
      vertex -1.070608139038086 1.1890316009521484 0.39999961853027344
    endloop
  endfacet
  facet normal 0.743143853107748 -0.6691316862831785 0
    outer loop
      vertex -1.070608139038086 1.1890316009521484 0
      vertex -1.2944269180297852 0.9404563903808594 0.39999961853027344
      vertex -1.2944269180297852 0.9404563903808594 0
    endloop
  endfacet
  facet normal -0.9945219380582384 0.10452805709896919 0
    outer loop
      vertex 1.5650358200073242 -0.3326578140258789 0
      vertex 1.5999994277954102 0 0.39999961853027344
      vertex 1.5999994277954102 0 0
    endloop
  endfacet
  facet normal -0.9945219380582384 0.10452805709896919 0
    outer loop
      vertex 1.5999994277954102 0 0.39999961853027344
      vertex 1.5650358200073242 -0.3326578140258789 0
      vertex 1.5650358200073242 -0.3326578140258789 0.39999961853027344
    endloop
  endfacet
  facet normal -0.8660268164577912 0.49999755316999633 0
    outer loop
      vertex 1.2944269180297852 -0.9404563903808594 0
      vertex 1.4616718292236328 -0.6507778167724609 0.39999961853027344
      vertex 1.4616718292236328 -0.6507778167724609 0
    endloop
  endfacet
  facet normal -0.8660268164577912 0.49999755316999633 0
    outer loop
      vertex 1.4616718292236328 -0.6507778167724609 0.39999961853027344
      vertex 1.2944269180297852 -0.9404563903808594 0
      vertex 1.2944269180297852 -0.9404563903808594 0.39999961853027344
    endloop
  endfacet
  facet normal 0.9945219380582384 -0.10452805709896919 0
    outer loop
      vertex -1.5999994277954102 0 0.39999961853027344
      vertex -1.5650358200073242 0.3326578140258789 0
      vertex -1.5650358200073242 0.3326578140258789 0.39999961853027344
    endloop
  endfacet
  facet normal 0.9945219380582384 -0.10452805709896919 0
    outer loop
      vertex -1.5650358200073242 0.3326578140258789 0
      vertex -1.5999994277954102 0 0.39999961853027344
      vertex -1.5999994277954102 0 0
    endloop
  endfacet
  facet normal -0.743143853107748 0.6691316862831785 0
    outer loop
      vertex 1.070608139038086 -1.1890316009521484 0
      vertex 1.2944269180297852 -0.9404563903808594 0.39999961853027344
      vertex 1.2944269180297852 -0.9404563903808594 0
    endloop
  endfacet
  facet normal -0.743143853107748 0.6691316862831785 0
    outer loop
      vertex 1.2944269180297852 -0.9404563903808594 0.39999961853027344
      vertex 1.070608139038086 -1.1890316009521484 0
      vertex 1.070608139038086 -1.1890316009521484 0.39999961853027344
    endloop
  endfacet
  facet normal -0.743143853107748 -0.6691316862831785 0
    outer loop
      vertex 1.2944269180297852 0.9404563903808594 0
      vertex 1.070608139038086 1.1890316009521484 0.39999961853027344
      vertex 1.070608139038086 1.1890316009521484 0
    endloop
  endfacet
  facet normal -0.743143853107748 -0.6691316862831785 0
    outer loop
      vertex 1.070608139038086 1.1890316009521484 0.39999961853027344
      vertex 1.2944269180297852 0.9404563903808594 0
      vertex 1.2944269180297852 0.9404563903808594 0.39999961853027344
    endloop
  endfacet
  facet normal -0.9510560452403513 -0.3090184441287978 0
    outer loop
      vertex 1.5650358200073242 0.3326578140258789 0
      vertex 1.4616718292236328 0.6507778167724609 0.39999961853027344
      vertex 1.4616718292236328 0.6507778167724609 0
    endloop
  endfacet
  facet normal -0.9510560452403513 -0.3090184441287978 0
    outer loop
      vertex 1.4616718292236328 0.6507778167724609 0.39999961853027344
      vertex 1.5650358200073242 0.3326578140258789 0
      vertex 1.5650358200073242 0.3326578140258789 0.39999961853027344
    endloop
  endfacet
  facet normal -0.5877846019776137 -0.80901746685595 0
    outer loop
      vertex 0.7999992370605469 1.3856401443481445 0
      vertex 1.070608139038086 1.1890316009521484 0.39999961853027344
      vertex 0.7999992370605469 1.3856401443481445 0.39999961853027344
    endloop
  endfacet
  facet normal -0.5877846019776137 -0.80901746685595 0
    outer loop
      vertex 1.070608139038086 1.1890316009521484 0.39999961853027344
      vertex 0.7999992370605469 1.3856401443481445 0
      vertex 1.070608139038086 1.1890316009521484 0
    endloop
  endfacet
  facet normal -0.2079093928698154 -0.9781480891748981 0
    outer loop
      vertex 0.16724491119384766 1.5912342071533203 0
      vertex 0.4944267272949219 1.5216903686523438 0.39999961853027344
      vertex 0.16724491119384766 1.5912342071533203 0.39999961853027344
    endloop
  endfacet
  facet normal -0.2079093928698154 -0.9781480891748981 0
    outer loop
      vertex 0.4944267272949219 1.5216903686523438 0.39999961853027344
      vertex 0.16724491119384766 1.5912342071533203 0
      vertex 0.4944267272949219 1.5216903686523438 0
    endloop
  endfacet
  facet normal 0.4067380839925258 0.91354481610378 0
    outer loop
      vertex -0.4944267272949219 -1.5216903686523438 0
      vertex -0.7999992370605469 -1.3856401443481445 0.39999961853027344
      vertex -0.4944267272949219 -1.5216903686523438 0.39999961853027344
    endloop
  endfacet
  facet normal 0.4067380839925258 0.91354481610378 0
    outer loop
      vertex -0.7999992370605469 -1.3856401443481445 0.39999961853027344
      vertex -0.4944267272949219 -1.5216903686523438 0
      vertex -0.7999992370605469 -1.3856401443481445 0
    endloop
  endfacet
  facet normal -0.5877846019776137 0.80901746685595 0
    outer loop
      vertex 1.070608139038086 -1.1890316009521484 0
      vertex 0.7999992370605469 -1.3856401443481445 0.39999961853027344
      vertex 1.070608139038086 -1.1890316009521484 0.39999961853027344
    endloop
  endfacet
  facet normal -0.5877846019776137 0.80901746685595 0
    outer loop
      vertex 0.7999992370605469 -1.3856401443481445 0.39999961853027344
      vertex 1.070608139038086 -1.1890316009521484 0
      vertex 0.7999992370605469 -1.3856401443481445 0
    endloop
  endfacet
  facet normal 0 1 0
    outer loop
      vertex 0.16724491119384766 -1.5912342071533203 0
      vertex -0.16724491119384766 -1.5912342071533203 0.39999961853027344
      vertex 0.16724491119384766 -1.5912342071533203 0.39999961853027344
    endloop
  endfacet
  facet normal 0 1 0
    outer loop
      vertex -0.16724491119384766 -1.5912342071533203 0.39999961853027344
      vertex 0.16724491119384766 -1.5912342071533203 0
      vertex -0.16724491119384766 -1.5912342071533203 0
    endloop
  endfacet
  facet normal 0.8660268164577912 0.49999755316999633 0
    outer loop
      vertex -1.2944269180297852 -0.9404563903808594 0.39999961853027344
      vertex -1.4616718292236328 -0.6507778167724609 0
      vertex -1.4616718292236328 -0.6507778167724609 0.39999961853027344
    endloop
  endfacet
  facet normal 0.8660268164577912 0.49999755316999633 0
    outer loop
      vertex -1.4616718292236328 -0.6507778167724609 0
      vertex -1.2944269180297852 -0.9404563903808594 0.39999961853027344
      vertex -1.2944269180297852 -0.9404563903808594 0
    endloop
  endfacet
  facet normal -0.2079093928698154 0.9781480891748981 0
    outer loop
      vertex 0.4944267272949219 -1.5216903686523438 0
      vertex 0.16724491119384766 -1.5912342071533203 0.39999961853027344
      vertex 0.4944267272949219 -1.5216903686523438 0.39999961853027344
    endloop
  endfacet
  facet normal -0.2079093928698154 0.9781480891748981 0
    outer loop
      vertex 0.16724491119384766 -1.5912342071533203 0.39999961853027344
      vertex 0.4944267272949219 -1.5216903686523438 0
      vertex 0.16724491119384766 -1.5912342071533203 0
    endloop
  endfacet
  facet normal 0.743143853107748 0.6691316862831785 0
    outer loop
      vertex -1.070608139038086 -1.1890316009521484 0.39999961853027344
      vertex -1.2944269180297852 -0.9404563903808594 0
      vertex -1.2944269180297852 -0.9404563903808594 0.39999961853027344
    endloop
  endfacet
  facet normal 0.743143853107748 0.6691316862831785 0
    outer loop
      vertex -1.2944269180297852 -0.9404563903808594 0
      vertex -1.070608139038086 -1.1890316009521484 0.39999961853027344
      vertex -1.070608139038086 -1.1890316009521484 0
    endloop
  endfacet
  facet normal 0.9510560452403513 -0.3090184441287978 0
    outer loop
      vertex -1.5650358200073242 0.3326578140258789 0.39999961853027344
      vertex -1.4616718292236328 0.6507778167724609 0
      vertex -1.4616718292236328 0.6507778167724609 0.39999961853027344
    endloop
  endfacet
  facet normal 0.9510560452403513 -0.3090184441287978 0
    outer loop
      vertex -1.4616718292236328 0.6507778167724609 0
      vertex -1.5650358200073242 0.3326578140258789 0.39999961853027344
      vertex -1.5650358200073242 0.3326578140258789 0
    endloop
  endfacet
  facet normal -0.9510560452403513 0.3090184441287978 0
    outer loop
      vertex 1.4616718292236328 -0.6507778167724609 0
      vertex 1.5650358200073242 -0.3326578140258789 0.39999961853027344
      vertex 1.5650358200073242 -0.3326578140258789 0
    endloop
  endfacet
  facet normal -0.9510560452403513 0.3090184441287978 0
    outer loop
      vertex 1.5650358200073242 -0.3326578140258789 0.39999961853027344
      vertex 1.4616718292236328 -0.6507778167724609 0
      vertex 1.4616718292236328 -0.6507778167724609 0.39999961853027344
    endloop
  endfacet
  facet normal 0.8660268164577912 -0.49999755316999633 0
    outer loop
      vertex -1.4616718292236328 0.6507778167724609 0.39999961853027344
      vertex -1.2944269180297852 0.9404563903808594 0
      vertex -1.2944269180297852 0.9404563903808594 0.39999961853027344
    endloop
  endfacet
  facet normal 0.8660268164577912 -0.49999755316999633 0
    outer loop
      vertex -1.2944269180297852 0.9404563903808594 0
      vertex -1.4616718292236328 0.6507778167724609 0.39999961853027344
      vertex -1.4616718292236328 0.6507778167724609 0
    endloop
  endfacet
  facet normal 0.2079093928698154 0.9781480891748981 0
    outer loop
      vertex -0.16724491119384766 -1.5912342071533203 0
      vertex -0.4944267272949219 -1.5216903686523438 0.39999961853027344
      vertex -0.16724491119384766 -1.5912342071533203 0.39999961853027344
    endloop
  endfacet
  facet normal 0.2079093928698154 0.9781480891748981 0
    outer loop
      vertex -0.4944267272949219 -1.5216903686523438 0.39999961853027344
      vertex -0.16724491119384766 -1.5912342071533203 0
      vertex -0.4944267272949219 -1.5216903686523438 0
    endloop
  endfacet
  facet normal 0.4067380839925258 -0.91354481610378 0
    outer loop
      vertex -0.7999992370605469 1.3856401443481445 0
      vertex -0.4944267272949219 1.5216903686523438 0.39999961853027344
      vertex -0.7999992370605469 1.3856401443481445 0.39999961853027344
    endloop
  endfacet
  facet normal 0.4067380839925258 -0.91354481610378 0
    outer loop
      vertex -0.4944267272949219 1.5216903686523438 0.39999961853027344
      vertex -0.7999992370605469 1.3856401443481445 0
      vertex -0.4944267272949219 1.5216903686523438 0
    endloop
  endfacet
  facet normal 0.9945219380582384 0.10452805709896919 0
    outer loop
      vertex -1.5650358200073242 -0.3326578140258789 0.39999961853027344
      vertex -1.5999994277954102 0 0
      vertex -1.5999994277954102 0 0.39999961853027344
    endloop
  endfacet
  facet normal 0.9945219380582384 0.10452805709896919 0
    outer loop
      vertex -1.5999994277954102 0 0
      vertex -1.5650358200073242 -0.3326578140258789 0.39999961853027344
      vertex -1.5650358200073242 -0.3326578140258789 0
    endloop
  endfacet
  facet normal -0.5000000043334718 0.8660254012825075 0
    outer loop
      vertex 2.7279796600341797 -1.5749998092651367 0.39999961853027344
      vertex 0 -3.1499996185302734 3.799999237060547
      vertex 2.7279796600341797 -1.5749998092651367 3.799999237060547
    endloop
  endfacet
  facet normal -0.5000000043334718 0.8660254012825075 0
    outer loop
      vertex 0 -3.1499996185302734 3.799999237060547
      vertex 2.7279796600341797 -1.5749998092651367 0.39999961853027344
      vertex 0 -3.1499996185302734 0.39999961853027344
    endloop
  endfacet
  facet normal -1 0 0
    outer loop
      vertex 2.7279796600341797 -1.5749998092651367 0.39999961853027344
      vertex 2.7279796600341797 1.5749998092651367 3.799999237060547
      vertex 2.7279796600341797 1.5749998092651367 0.39999961853027344
    endloop
  endfacet
  facet normal -1 0 0
    outer loop
      vertex 2.7279796600341797 1.5749998092651367 3.799999237060547
      vertex 2.7279796600341797 -1.5749998092651367 0.39999961853027344
      vertex 2.7279796600341797 -1.5749998092651367 3.799999237060547
    endloop
  endfacet
  facet normal 0.5000000043334718 -0.8660254012825075 0
    outer loop
      vertex -2.7279796600341797 1.5749998092651367 0.39999961853027344
      vertex 0 3.1499996185302734 3.799999237060547
      vertex -2.7279796600341797 1.5749998092651367 3.799999237060547
    endloop
  endfacet
  facet normal 0.5000000043334718 -0.8660254012825075 0
    outer loop
      vertex 0 3.1499996185302734 3.799999237060547
      vertex -2.7279796600341797 1.5749998092651367 0.39999961853027344
      vertex 0 3.1499996185302734 0.39999961853027344
    endloop
  endfacet
  facet normal 0.5000000043334718 0.8660254012825075 0
    outer loop
      vertex 0 -3.1499996185302734 0.39999961853027344
      vertex -2.7279796600341797 -1.5749998092651367 3.799999237060547
      vertex 0 -3.1499996185302734 3.799999237060547
    endloop
  endfacet
  facet normal 0.5000000043334718 0.8660254012825075 0
    outer loop
      vertex -2.7279796600341797 -1.5749998092651367 3.799999237060547
      vertex 0 -3.1499996185302734 0.39999961853027344
      vertex -2.7279796600341797 -1.5749998092651367 0.39999961853027344
    endloop
  endfacet
  facet normal -0.5000000043334718 -0.8660254012825075 0
    outer loop
      vertex 0 3.1499996185302734 0.39999961853027344
      vertex 2.7279796600341797 1.5749998092651367 3.799999237060547
      vertex 0 3.1499996185302734 3.799999237060547
    endloop
  endfacet
  facet normal -0.5000000043334718 -0.8660254012825075 0
    outer loop
      vertex 2.7279796600341797 1.5749998092651367 3.799999237060547
      vertex 0 3.1499996185302734 0.39999961853027344
      vertex 2.7279796600341797 1.5749998092651367 0.39999961853027344
    endloop
  endfacet
  facet normal 1 0 0
    outer loop
      vertex -2.7279796600341797 -1.5749998092651367 3.799999237060547
      vertex -2.7279796600341797 1.5749998092651367 0.39999961853027344
      vertex -2.7279796600341797 1.5749998092651367 3.799999237060547
    endloop
  endfacet
  facet normal 1 0 0
    outer loop
      vertex -2.7279796600341797 1.5749998092651367 0.39999961853027344
      vertex -2.7279796600341797 -1.5749998092651367 3.799999237060547
      vertex -2.7279796600341797 -1.5749998092651367 0.39999961853027344
    endloop
  endfacet
  facet normal 0 0 1
    outer loop
      vertex 2.7279796600341797 1.5749998092651367 0.39999961853027344
      vertex 1.5999994277954102 0 0.39999961853027344
      vertex 2.7279796600341797 -1.5749998092651367 0.39999961853027344
    endloop
  endfacet
  facet normal 0 0 1
    outer loop
      vertex 2.7279796600341797 1.5749998092651367 0.39999961853027344
      vertex 1.5650358200073242 0.3326578140258789 0.39999961853027344
      vertex 1.5999994277954102 0 0.39999961853027344
    endloop
  endfacet
  facet normal 0 0 1
    outer loop
      vertex 2.7279796600341797 1.5749998092651367 0.39999961853027344
      vertex 1.4616718292236328 0.6507778167724609 0.39999961853027344
      vertex 1.5650358200073242 0.3326578140258789 0.39999961853027344
    endloop
  endfacet
  facet normal 0 0 1
    outer loop
      vertex 2.7279796600341797 1.5749998092651367 0.39999961853027344
      vertex 1.2944269180297852 0.9404563903808594 0.39999961853027344
      vertex 1.4616718292236328 0.6507778167724609 0.39999961853027344
    endloop
  endfacet
  facet normal 0 0 1
    outer loop
      vertex 2.7279796600341797 1.5749998092651367 0.39999961853027344
      vertex 1.070608139038086 1.1890316009521484 0.39999961853027344
      vertex 1.2944269180297852 0.9404563903808594 0.39999961853027344
    endloop
  endfacet
  facet normal 0 0 1
    outer loop
      vertex 2.7279796600341797 1.5749998092651367 0.39999961853027344
      vertex 0.7999992370605469 1.3856401443481445 0.39999961853027344
      vertex 1.070608139038086 1.1890316009521484 0.39999961853027344
    endloop
  endfacet
  facet normal 0 0 1
    outer loop
      vertex 0 3.1499996185302734 0.39999961853027344
      vertex 0.7999992370605469 1.3856401443481445 0.39999961853027344
      vertex 2.7279796600341797 1.5749998092651367 0.39999961853027344
    endloop
  endfacet
  facet normal 0 0 1
    outer loop
      vertex 0.7999992370605469 1.3856401443481445 0.39999961853027344
      vertex 0 3.1499996185302734 0.39999961853027344
      vertex 0.4944267272949219 1.5216903686523438 0.39999961853027344
    endloop
  endfacet
  facet normal 0 0 1
    outer loop
      vertex 0.4944267272949219 1.5216903686523438 0.39999961853027344
      vertex 0 3.1499996185302734 0.39999961853027344
      vertex 0.16724491119384766 1.5912342071533203 0.39999961853027344
    endloop
  endfacet
  facet normal 0 0 1
    outer loop
      vertex 0 3.1499996185302734 0.39999961853027344
      vertex -0.16724491119384766 1.5912342071533203 0.39999961853027344
      vertex 0.16724491119384766 1.5912342071533203 0.39999961853027344
    endloop
  endfacet
  facet normal 0 0 1
    outer loop
      vertex 0 3.1499996185302734 0.39999961853027344
      vertex -0.4944267272949219 1.5216903686523438 0.39999961853027344
      vertex -0.16724491119384766 1.5912342071533203 0.39999961853027344
    endloop
  endfacet
  facet normal 0 0 1
    outer loop
      vertex 0 3.1499996185302734 0.39999961853027344
      vertex -0.7999992370605469 1.3856401443481445 0.39999961853027344
      vertex -0.4944267272949219 1.5216903686523438 0.39999961853027344
    endloop
  endfacet
  facet normal 0 0 1
    outer loop
      vertex -2.7279796600341797 1.5749998092651367 0.39999961853027344
      vertex -0.7999992370605469 1.3856401443481445 0.39999961853027344
      vertex 0 3.1499996185302734 0.39999961853027344
    endloop
  endfacet
  facet normal 0 0 1
    outer loop
      vertex -0.7999992370605469 1.3856401443481445 0.39999961853027344
      vertex -2.7279796600341797 1.5749998092651367 0.39999961853027344
      vertex -1.070608139038086 1.1890316009521484 0.39999961853027344
    endloop
  endfacet
  facet normal 0 0 1
    outer loop
      vertex -1.5650358200073242 0.3326578140258789 0.39999961853027344
      vertex -2.7279796600341797 1.5749998092651367 0.39999961853027344
      vertex -1.5999994277954102 0 0.39999961853027344
    endloop
  endfacet
  facet normal 0 0 1
    outer loop
      vertex -1.4616718292236328 0.6507778167724609 0.39999961853027344
      vertex -2.7279796600341797 1.5749998092651367 0.39999961853027344
      vertex -1.5650358200073242 0.3326578140258789 0.39999961853027344
    endloop
  endfacet
  facet normal 0 0 1
    outer loop
      vertex -1.2944269180297852 0.9404563903808594 0.39999961853027344
      vertex -2.7279796600341797 1.5749998092651367 0.39999961853027344
      vertex -1.4616718292236328 0.6507778167724609 0.39999961853027344
    endloop
  endfacet
  facet normal 0 0 1
    outer loop
      vertex -1.070608139038086 1.1890316009521484 0.39999961853027344
      vertex -2.7279796600341797 1.5749998092651367 0.39999961853027344
      vertex -1.2944269180297852 0.9404563903808594 0.39999961853027344
    endloop
  endfacet
  facet normal 0 0 1
    outer loop
      vertex 1.5650358200073242 -0.3326578140258789 0.39999961853027344
      vertex 2.7279796600341797 -1.5749998092651367 0.39999961853027344
      vertex 1.5999994277954102 0 0.39999961853027344
    endloop
  endfacet
  facet normal 0 0 1
    outer loop
      vertex 1.4616718292236328 -0.6507778167724609 0.39999961853027344
      vertex 2.7279796600341797 -1.5749998092651367 0.39999961853027344
      vertex 1.5650358200073242 -0.3326578140258789 0.39999961853027344
    endloop
  endfacet
  facet normal 0 0 1
    outer loop
      vertex 1.2944269180297852 -0.9404563903808594 0.39999961853027344
      vertex 2.7279796600341797 -1.5749998092651367 0.39999961853027344
      vertex 1.4616718292236328 -0.6507778167724609 0.39999961853027344
    endloop
  endfacet
  facet normal 0 0 1
    outer loop
      vertex 1.070608139038086 -1.1890316009521484 0.39999961853027344
      vertex 2.7279796600341797 -1.5749998092651367 0.39999961853027344
      vertex 1.2944269180297852 -0.9404563903808594 0.39999961853027344
    endloop
  endfacet
  facet normal 0 0 1
    outer loop
      vertex 0.7999992370605469 -1.3856401443481445 0.39999961853027344
      vertex 2.7279796600341797 -1.5749998092651367 0.39999961853027344
      vertex 1.070608139038086 -1.1890316009521484 0.39999961853027344
    endloop
  endfacet
  facet normal 0 0 1
    outer loop
      vertex 0 -3.1499996185302734 0.39999961853027344
      vertex 0.7999992370605469 -1.3856401443481445 0.39999961853027344
      vertex 0.4944267272949219 -1.5216903686523438 0.39999961853027344
    endloop
  endfacet
  facet normal 0 0 1
    outer loop
      vertex 0 -3.1499996185302734 0.39999961853027344
      vertex 0.4944267272949219 -1.5216903686523438 0.39999961853027344
      vertex 0.16724491119384766 -1.5912342071533203 0.39999961853027344
    endloop
  endfacet
  facet normal 0 0 1
    outer loop
      vertex 0.7999992370605469 -1.3856401443481445 0.39999961853027344
      vertex 0 -3.1499996185302734 0.39999961853027344
      vertex 2.7279796600341797 -1.5749998092651367 0.39999961853027344
    endloop
  endfacet
  facet normal 0 0 1
    outer loop
      vertex -0.16724491119384766 -1.5912342071533203 0.39999961853027344
      vertex 0 -3.1499996185302734 0.39999961853027344
      vertex 0.16724491119384766 -1.5912342071533203 0.39999961853027344
    endloop
  endfacet
  facet normal 0 0 1
    outer loop
      vertex -0.4944267272949219 -1.5216903686523438 0.39999961853027344
      vertex 0 -3.1499996185302734 0.39999961853027344
      vertex -0.16724491119384766 -1.5912342071533203 0.39999961853027344
    endloop
  endfacet
  facet normal 0 0 1
    outer loop
      vertex -0.7999992370605469 -1.3856401443481445 0.39999961853027344
      vertex 0 -3.1499996185302734 0.39999961853027344
      vertex -0.4944267272949219 -1.5216903686523438 0.39999961853027344
    endloop
  endfacet
  facet normal 0 0 1
    outer loop
      vertex -2.7279796600341797 -1.5749998092651367 0.39999961853027344
      vertex -0.7999992370605469 -1.3856401443481445 0.39999961853027344
      vertex -1.070608139038086 -1.1890316009521484 0.39999961853027344
    endloop
  endfacet
  facet normal 0 0 1
    outer loop
      vertex -2.7279796600341797 -1.5749998092651367 0.39999961853027344
      vertex -1.070608139038086 -1.1890316009521484 0.39999961853027344
      vertex -1.2944269180297852 -0.9404563903808594 0.39999961853027344
    endloop
  endfacet
  facet normal 0 0 1
    outer loop
      vertex -2.7279796600341797 -1.5749998092651367 0.39999961853027344
      vertex -1.5999994277954102 0 0.39999961853027344
      vertex -2.7279796600341797 1.5749998092651367 0.39999961853027344
    endloop
  endfacet
  facet normal 0 0 1
    outer loop
      vertex -1.5999994277954102 0 0.39999961853027344
      vertex -2.7279796600341797 -1.5749998092651367 0.39999961853027344
      vertex -1.5650358200073242 -0.3326578140258789 0.39999961853027344
    endloop
  endfacet
  facet normal 0 0 1
    outer loop
      vertex -0.7999992370605469 -1.3856401443481445 0.39999961853027344
      vertex -2.7279796600341797 -1.5749998092651367 0.39999961853027344
      vertex 0 -3.1499996185302734 0.39999961853027344
    endloop
  endfacet
  facet normal 0 0 1
    outer loop
      vertex -1.4616718292236328 -0.6507778167724609 0.39999961853027344
      vertex -2.7279796600341797 -1.5749998092651367 0.39999961853027344
      vertex -1.2944269180297852 -0.9404563903808594 0.39999961853027344
    endloop
  endfacet
  facet normal 0 0 1
    outer loop
      vertex -1.5650358200073242 -0.3326578140258789 0.39999961853027344
      vertex -2.7279796600341797 -1.5749998092651367 0.39999961853027344
      vertex -1.4616718292236328 -0.6507778167724609 0.39999961853027344
    endloop
  endfacet
  facet normal -1 0 0
    outer loop
      vertex 3.09999942779541 4.5 1
      vertex 3.09999942779541 11.5 3.799999237060547
      vertex 3.09999942779541 11.5 1
    endloop
  endfacet
  facet normal -1 0 0
    outer loop
      vertex 3.09999942779541 11.5 3.799999237060547
      vertex 3.09999942779541 4.5 1
      vertex 3.09999942779541 4.5 3.799999237060547
    endloop
  endfacet
  facet normal 0 0 1
    outer loop
      vertex -3.09999942779541 11.5 1
      vertex 3.09999942779541 4.5 1
      vertex 3.09999942779541 11.5 1
    endloop
  endfacet
  facet normal 0 0 1
    outer loop
      vertex 3.09999942779541 4.5 1
      vertex -3.09999942779541 11.5 1
      vertex -3.09999942779541 4.5 1
    endloop
  endfacet
  facet normal 1 0 0
    outer loop
      vertex -3.09999942779541 4.5 3.799999237060547
      vertex -3.09999942779541 11.5 1
      vertex -3.09999942779541 11.5 3.799999237060547
    endloop
  endfacet
  facet normal 1 0 0
    outer loop
      vertex -3.09999942779541 11.5 1
      vertex -3.09999942779541 4.5 3.799999237060547
      vertex -3.09999942779541 4.5 1
    endloop
  endfacet
  facet normal 0 -1 0
    outer loop
      vertex -3.09999942779541 11.5 1
      vertex 3.09999942779541 11.5 3.799999237060547
      vertex -3.09999942779541 11.5 3.799999237060547
    endloop
  endfacet
  facet normal 0 -1 0
    outer loop
      vertex 3.09999942779541 11.5 3.799999237060547
      vertex -3.09999942779541 11.5 1
      vertex 3.09999942779541 11.5 1
    endloop
  endfacet
  facet normal 0 1 0
    outer loop
      vertex 3.09999942779541 4.5 1
      vertex -3.09999942779541 4.5 3.799999237060547
      vertex 3.09999942779541 4.5 3.799999237060547
    endloop
  endfacet
  facet normal 0 1 0
    outer loop
      vertex -3.09999942779541 4.5 3.799999237060547
      vertex 3.09999942779541 4.5 1
      vertex -3.09999942779541 4.5 1
    endloop
  endfacet
  facet normal -1 0 0
    outer loop
      vertex 3.09999942779541 -11.5 1
      vertex 3.09999942779541 -4.5 3.799999237060547
      vertex 3.09999942779541 -4.5 1
    endloop
  endfacet
  facet normal -1 0 0
    outer loop
      vertex 3.09999942779541 -4.5 3.799999237060547
      vertex 3.09999942779541 -11.5 1
      vertex 3.09999942779541 -11.5 3.799999237060547
    endloop
  endfacet
  facet normal 0 0 1
    outer loop
      vertex -3.09999942779541 -4.5 1
      vertex 3.09999942779541 -11.5 1
      vertex 3.09999942779541 -4.5 1
    endloop
  endfacet
  facet normal 0 0 1
    outer loop
      vertex 3.09999942779541 -11.5 1
      vertex -3.09999942779541 -4.5 1
      vertex -3.09999942779541 -11.5 1
    endloop
  endfacet
  facet normal 1 0 0
    outer loop
      vertex -3.09999942779541 -11.5 3.799999237060547
      vertex -3.09999942779541 -4.5 1
      vertex -3.09999942779541 -4.5 3.799999237060547
    endloop
  endfacet
  facet normal 1 0 0
    outer loop
      vertex -3.09999942779541 -4.5 1
      vertex -3.09999942779541 -11.5 3.799999237060547
      vertex -3.09999942779541 -11.5 1
    endloop
  endfacet
  facet normal 0 -1 0
    outer loop
      vertex -3.09999942779541 -4.5 1
      vertex 3.09999942779541 -4.5 3.799999237060547
      vertex -3.09999942779541 -4.5 3.799999237060547
    endloop
  endfacet
  facet normal 0 -1 0
    outer loop
      vertex 3.09999942779541 -4.5 3.799999237060547
      vertex -3.09999942779541 -4.5 1
      vertex 3.09999942779541 -4.5 1
    endloop
  endfacet
  facet normal 0 1 0
    outer loop
      vertex 3.09999942779541 -11.5 1
      vertex -3.09999942779541 -11.5 3.799999237060547
      vertex 3.09999942779541 -11.5 3.799999237060547
    endloop
  endfacet
  facet normal 0 1 0
    outer loop
      vertex -3.09999942779541 -11.5 3.799999237060547
      vertex 3.09999942779541 -11.5 1
      vertex -3.09999942779541 -11.5 1
    endloop
  endfacet
endsolid OpenSCAD_Model
