solid OpenSCAD_Model
  facet normal 1 0 0
    outer loop
      vertex 47.5 -2 30
      vertex 47.5 0 0
      vertex 47.5 0 30
    endloop
  endfacet
  facet normal 1 0 0
    outer loop
      vertex 47.5 0 0
      vertex 47.5 -2 30
      vertex 47.5 -2 0
    endloop
  endfacet
  facet normal 0 0 1
    outer loop
      vertex -47.5 0 30
      vertex 47.5 -2 30
      vertex 47.5 0 30
    endloop
  endfacet
  facet normal 0 0 1
    outer loop
      vertex 47.5 -2 30
      vertex -47.5 0 30
      vertex -47.5 -2 30
    endloop
  endfacet
  facet normal 0 0 -1
    outer loop
      vertex -57.5 13.199999809265137 0
      vertex -38.5 33.20000076293945 0
      vertex -38.5 13.199999809265137 0
    endloop
  endfacet
  facet normal 0 0 -1
    outer loop
      vertex -38.5 33.20000076293945 0
      vertex -57.5 13.199999809265137 0
      vertex -57.5 33.20000076293945 0
    endloop
  endfacet
  facet normal 0 0 -1
    outer loop
      vertex -23.5 13.199999809265137 0
      vertex 23.5 33.20000076293945 0
      vertex 23.5 13.199999809265137 0
    endloop
  endfacet
  facet normal 0 0 -1
    outer loop
      vertex 23.5 33.20000076293945 0
      vertex -23.5 13.199999809265137 0
      vertex -23.5 33.20000076293945 0
    endloop
  endfacet
  facet normal 0 0 -1
    outer loop
      vertex 47.5 -2 0
      vertex 38.5 0 0
      vertex 47.5 0 0
    endloop
  endfacet
  facet normal 0 0 -1
    outer loop
      vertex 23.5 13.199999809265137 0
      vertex 38.5 13.199999809265137 0
      vertex 38.5 0 0
    endloop
  endfacet
  facet normal 0 0 -1
    outer loop
      vertex 38.5 13.199999809265137 0
      vertex 23.5 13.199999809265137 0
      vertex 38.5 33.20000076293945 0
    endloop
  endfacet
  facet normal 0 0 -1
    outer loop
      vertex 23.5 13.199999809265137 0
      vertex 38.5 0 0
      vertex 23.5 0 0
    endloop
  endfacet
  facet normal 0 0 -1
    outer loop
      vertex 47.5 -2 0
      vertex 23.5 0 0
      vertex 38.5 0 0
    endloop
  endfacet
  facet normal 0 0 -1
    outer loop
      vertex 47.5 -2 0
      vertex -23.5 0 0
      vertex 23.5 0 0
    endloop
  endfacet
  facet normal 0 0 -1
    outer loop
      vertex -38.5 13.199999809265137 0
      vertex -23.5 13.199999809265137 0
      vertex -23.5 0 0
    endloop
  endfacet
  facet normal 0 0 -1
    outer loop
      vertex -23.5 13.199999809265137 0
      vertex -38.5 13.199999809265137 0
      vertex -23.5 33.20000076293945 0
    endloop
  endfacet
  facet normal 0 0 -1
    outer loop
      vertex -38.5 13.199999809265137 0
      vertex -23.5 0 0
      vertex -38.5 0 0
    endloop
  endfacet
  facet normal 0 0 -1
    outer loop
      vertex -47.5 -2 0
      vertex -23.5 0 0
      vertex 47.5 -2 0
    endloop
  endfacet
  facet normal 0 0 -1
    outer loop
      vertex -23.5 0 0
      vertex -47.5 -2 0
      vertex -38.5 0 0
    endloop
  endfacet
  facet normal 0 0 -1
    outer loop
      vertex -38.5 0 0
      vertex -47.5 -2 0
      vertex -47.5 0 0
    endloop
  endfacet
  facet normal 0 0 -1
    outer loop
      vertex 38.5 13.199999809265137 0
      vertex 57.5 33.20000076293945 0
      vertex 57.5 13.199999809265137 0
    endloop
  endfacet
  facet normal 0 0 -1
    outer loop
      vertex 57.5 33.20000076293945 0
      vertex 38.5 13.199999809265137 0
      vertex 38.5 33.20000076293945 0
    endloop
  endfacet
  facet normal 0 0 -1
    outer loop
      vertex 38.5 33.20000076293945 0
      vertex 23.5 13.199999809265137 0
      vertex 23.5 33.20000076293945 0
    endloop
  endfacet
  facet normal 0 0 -1
    outer loop
      vertex 38.5 33.20000076293945 0
      vertex 23.5 33.20000076293945 0
      vertex 38.5 113.19999694824219 0
    endloop
  endfacet
  facet normal 0 0 -1
    outer loop
      vertex 38.5 113.19999694824219 0
      vertex 23.5 33.20000076293945 0
      vertex 23.5 113.19999694824219 0
    endloop
  endfacet
  facet normal 0 0 -1
    outer loop
      vertex -23.5 33.20000076293945 0
      vertex -38.5 13.199999809265137 0
      vertex -38.5 33.20000076293945 0
    endloop
  endfacet
  facet normal 0 0 -1
    outer loop
      vertex -23.5 33.20000076293945 0
      vertex -38.5 33.20000076293945 0
      vertex -23.5 113.19999694824219 0
    endloop
  endfacet
  facet normal 0 0 -1
    outer loop
      vertex -23.5 113.19999694824219 0
      vertex -38.5 33.20000076293945 0
      vertex -38.5 113.19999694824219 0
    endloop
  endfacet
  facet normal -1 0 0
    outer loop
      vertex -47.5 -2 0
      vertex -47.5 0 30
      vertex -47.5 0 0
    endloop
  endfacet
  facet normal -1 0 0
    outer loop
      vertex -47.5 0 30
      vertex -47.5 -2 0
      vertex -47.5 -2 30
    endloop
  endfacet
  facet normal 0 1 0
    outer loop
      vertex 23.5 0 0
      vertex -23.5 0 2
      vertex 23.5 0 2
    endloop
  endfacet
  facet normal 0 1 0
    outer loop
      vertex -23.5 0 2
      vertex 23.5 0 0
      vertex -23.5 0 0
    endloop
  endfacet
  facet normal 0 1 0
    outer loop
      vertex -42.036476135253906 0 28.426584243774414
      vertex -47.5 0 30
      vertex -0.46352481842041016 0 28.426584243774414
    endloop
  endfacet
  facet normal 0 1 0
    outer loop
      vertex -47.5 0 30
      vertex -42.036476135253906 0 28.426584243774414
      vertex -42.5 0 28.5
    endloop
  endfacet
  facet normal 0 1 0
    outer loop
      vertex -0.8816776275634766 0 28.213523864746094
      vertex -42.036476135253906 0 28.426584243774414
      vertex -0.46352481842041016 0 28.426584243774414
    endloop
  endfacet
  facet normal 0 1 0
    outer loop
      vertex -0.8816776275634766 0 28.213523864746094
      vertex -41.61832046508789 0 28.213523864746094
      vertex -42.036476135253906 0 28.426584243774414
    endloop
  endfacet
  facet normal 0 1 0
    outer loop
      vertex -1.2135248184204102 0 27.881677627563477
      vertex -41.61832046508789 0 28.213523864746094
      vertex -0.8816776275634766 0 28.213523864746094
    endloop
  endfacet
  facet normal 0 1 0
    outer loop
      vertex -1.2135248184204102 0 27.881677627563477
      vertex -41.286476135253906 0 27.881677627563477
      vertex -41.61832046508789 0 28.213523864746094
    endloop
  endfacet
  facet normal 0 1 0
    outer loop
      vertex -1.426584243774414 0 27.463523864746094
      vertex -41.286476135253906 0 27.881677627563477
      vertex -1.2135248184204102 0 27.881677627563477
    endloop
  endfacet
  facet normal 0 1 0
    outer loop
      vertex -1.426584243774414 0 27.463523864746094
      vertex -41.07341384887695 0 27.463523864746094
      vertex -41.286476135253906 0 27.881677627563477
    endloop
  endfacet
  facet normal 0 1 0
    outer loop
      vertex -1.5 0 27
      vertex -41.07341384887695 0 27.463523864746094
      vertex -1.426584243774414 0 27.463523864746094
    endloop
  endfacet
  facet normal 0 1 0
    outer loop
      vertex -1.5 0 27
      vertex -41 0 27
      vertex -41.07341384887695 0 27.463523864746094
    endloop
  endfacet
  facet normal 0 1 0
    outer loop
      vertex -1.426584243774414 0 26.536474227905273
      vertex -41 0 27
      vertex -1.5 0 27
    endloop
  endfacet
  facet normal 0 1 0
    outer loop
      vertex -1.426584243774414 0 26.536474227905273
      vertex -41.07341384887695 0 26.536474227905273
      vertex -41 0 27
    endloop
  endfacet
  facet normal 0 1 0
    outer loop
      vertex -23.5 0 2
      vertex -1.426584243774414 0 26.536474227905273
      vertex -1.2135248184204102 0 26.11832046508789
    endloop
  endfacet
  facet normal 0 1 0
    outer loop
      vertex -1.426584243774414 0 26.536474227905273
      vertex -23.5 0 2
      vertex -41.07341384887695 0 26.536474227905273
    endloop
  endfacet
  facet normal 0 1 0
    outer loop
      vertex -23.5 0 2
      vertex -1.2135248184204102 0 26.11832046508789
      vertex -0.8816776275634766 0 25.786474227905273
    endloop
  endfacet
  facet normal 0 1 0
    outer loop
      vertex -41.07341384887695 0 26.536474227905273
      vertex -23.5 0 2
      vertex -41.286476135253906 0 26.11832046508789
    endloop
  endfacet
  facet normal 0 1 0
    outer loop
      vertex -23.5 0 2
      vertex -0.8816776275634766 0 25.786474227905273
      vertex -0.46352481842041016 0 25.573413848876953
    endloop
  endfacet
  facet normal 0 1 0
    outer loop
      vertex -41.286476135253906 0 26.11832046508789
      vertex -23.5 0 2
      vertex -41.61832046508789 0 25.786474227905273
    endloop
  endfacet
  facet normal 0 1 0
    outer loop
      vertex -23.5 0 2
      vertex -0.46352481842041016 0 25.573413848876953
      vertex 0 0 25.5
    endloop
  endfacet
  facet normal 0 1 0
    outer loop
      vertex -38.5 0 2
      vertex -41.61832046508789 0 25.786474227905273
      vertex -23.5 0 2
    endloop
  endfacet
  facet normal 0 1 0
    outer loop
      vertex 0.46352481842041016 0 28.426584243774414
      vertex 47.5 0 30
      vertex 42.036476135253906 0 28.426584243774414
    endloop
  endfacet
  facet normal 0 1 0
    outer loop
      vertex 47.5 0 30
      vertex 0.46352481842041016 0 28.426584243774414
      vertex 0 0 28.5
    endloop
  endfacet
  facet normal 0 1 0
    outer loop
      vertex 41.61832046508789 0 28.213523864746094
      vertex 0.46352481842041016 0 28.426584243774414
      vertex 42.036476135253906 0 28.426584243774414
    endloop
  endfacet
  facet normal 0 1 0
    outer loop
      vertex 41.61832046508789 0 28.213523864746094
      vertex 0.8816776275634766 0 28.213523864746094
      vertex 0.46352481842041016 0 28.426584243774414
    endloop
  endfacet
  facet normal 0 1 0
    outer loop
      vertex 41.286476135253906 0 27.881677627563477
      vertex 0.8816776275634766 0 28.213523864746094
      vertex 41.61832046508789 0 28.213523864746094
    endloop
  endfacet
  facet normal 0 1 0
    outer loop
      vertex 41.286476135253906 0 27.881677627563477
      vertex 1.2135248184204102 0 27.881677627563477
      vertex 0.8816776275634766 0 28.213523864746094
    endloop
  endfacet
  facet normal 0 1 0
    outer loop
      vertex 41.07341384887695 0 27.463523864746094
      vertex 1.2135248184204102 0 27.881677627563477
      vertex 41.286476135253906 0 27.881677627563477
    endloop
  endfacet
  facet normal 0 1 0
    outer loop
      vertex 41.07341384887695 0 27.463523864746094
      vertex 1.426584243774414 0 27.463523864746094
      vertex 1.2135248184204102 0 27.881677627563477
    endloop
  endfacet
  facet normal 0 1 0
    outer loop
      vertex 41 0 27
      vertex 1.426584243774414 0 27.463523864746094
      vertex 41.07341384887695 0 27.463523864746094
    endloop
  endfacet
  facet normal 0 1 0
    outer loop
      vertex 41 0 27
      vertex 1.5 0 27
      vertex 1.426584243774414 0 27.463523864746094
    endloop
  endfacet
  facet normal 0 1 0
    outer loop
      vertex 41.07341384887695 0 26.536474227905273
      vertex 1.5 0 27
      vertex 41 0 27
    endloop
  endfacet
  facet normal 0 1 0
    outer loop
      vertex 41.07341384887695 0 26.536474227905273
      vertex 1.426584243774414 0 26.536474227905273
      vertex 1.5 0 27
    endloop
  endfacet
  facet normal 0 1 0
    outer loop
      vertex 23.5 0 2
      vertex 41.07341384887695 0 26.536474227905273
      vertex 41.286476135253906 0 26.11832046508789
    endloop
  endfacet
  facet normal 0 1 0
    outer loop
      vertex 41.07341384887695 0 26.536474227905273
      vertex 23.5 0 2
      vertex 1.426584243774414 0 26.536474227905273
    endloop
  endfacet
  facet normal 0 1 0
    outer loop
      vertex 23.5 0 2
      vertex 41.286476135253906 0 26.11832046508789
      vertex 41.61832046508789 0 25.786474227905273
    endloop
  endfacet
  facet normal 0 1 0
    outer loop
      vertex 1.426584243774414 0 26.536474227905273
      vertex 23.5 0 2
      vertex 1.2135248184204102 0 26.11832046508789
    endloop
  endfacet
  facet normal 0 1 0
    outer loop
      vertex 38.5 0 2
      vertex 41.61832046508789 0 25.786474227905273
      vertex 42.036476135253906 0 25.573413848876953
    endloop
  endfacet
  facet normal 0 1 0
    outer loop
      vertex 1.2135248184204102 0 26.11832046508789
      vertex 23.5 0 2
      vertex 0.8816776275634766 0 25.786474227905273
    endloop
  endfacet
  facet normal 0 1 0
    outer loop
      vertex 38.5 0 2
      vertex 42.036476135253906 0 25.573413848876953
      vertex 42.5 0 25.5
    endloop
  endfacet
  facet normal 0 1 0
    outer loop
      vertex 0.8816776275634766 0 25.786474227905273
      vertex 23.5 0 2
      vertex 0.46352481842041016 0 25.573413848876953
    endloop
  endfacet
  facet normal 0 1 0
    outer loop
      vertex 42.036476135253906 0 28.426584243774414
      vertex 47.5 0 30
      vertex 42.5 0 28.5
    endloop
  endfacet
  facet normal 0 1 0
    outer loop
      vertex 47.5 0 30
      vertex 42.963523864746094 0 28.426584243774414
      vertex 42.5 0 28.5
    endloop
  endfacet
  facet normal 0 1 0
    outer loop
      vertex 47.5 0 30
      vertex 43.381675720214844 0 28.213523864746094
      vertex 42.963523864746094 0 28.426584243774414
    endloop
  endfacet
  facet normal 0 1 0
    outer loop
      vertex 47.5 0 30
      vertex 43.713523864746094 0 27.881677627563477
      vertex 43.381675720214844 0 28.213523864746094
    endloop
  endfacet
  facet normal 0 1 0
    outer loop
      vertex 47.5 0 30
      vertex 43.92658233642578 0 27.463523864746094
      vertex 43.713523864746094 0 27.881677627563477
    endloop
  endfacet
  facet normal 0 1 0
    outer loop
      vertex 47.5 0 30
      vertex 44 0 27
      vertex 43.92658233642578 0 27.463523864746094
    endloop
  endfacet
  facet normal 0 1 0
    outer loop
      vertex 47.5 0 30
      vertex 43.92658233642578 0 26.536474227905273
      vertex 44 0 27
    endloop
  endfacet
  facet normal 0 1 0
    outer loop
      vertex 47.5 0 30
      vertex 43.713523864746094 0 26.11832046508789
      vertex 43.92658233642578 0 26.536474227905273
    endloop
  endfacet
  facet normal 0 1 0
    outer loop
      vertex 0.46352481842041016 0 25.573413848876953
      vertex 23.5 0 2
      vertex 0 0 25.5
    endloop
  endfacet
  facet normal 0 1 0
    outer loop
      vertex 41.61832046508789 0 25.786474227905273
      vertex 38.5 0 2
      vertex 23.5 0 2
    endloop
  endfacet
  facet normal 0 1 0
    outer loop
      vertex 42.963523864746094 0 25.573413848876953
      vertex 38.5 0 2
      vertex 42.5 0 25.5
    endloop
  endfacet
  facet normal 0 1 0
    outer loop
      vertex 47.5 0 0
      vertex 42.963523864746094 0 25.573413848876953
      vertex 43.381675720214844 0 25.786474227905273
    endloop
  endfacet
  facet normal 0 1 0
    outer loop
      vertex 47.5 0 0
      vertex 43.381675720214844 0 25.786474227905273
      vertex 43.713523864746094 0 26.11832046508789
    endloop
  endfacet
  facet normal 0 1 0
    outer loop
      vertex 47.5 0 0
      vertex 43.713523864746094 0 26.11832046508789
      vertex 47.5 0 30
    endloop
  endfacet
  facet normal 0 1 0
    outer loop
      vertex 42.963523864746094 0 25.573413848876953
      vertex 47.5 0 0
      vertex 38.5 0 2
    endloop
  endfacet
  facet normal 0 1 0
    outer loop
      vertex 38.5 0 2
      vertex 47.5 0 0
      vertex 38.5 0 0
    endloop
  endfacet
  facet normal 0 1 0
    outer loop
      vertex 47.5 0 30
      vertex 0 0 28.5
      vertex -47.5 0 30
    endloop
  endfacet
  facet normal 0 1 0
    outer loop
      vertex -0.46352481842041016 0 28.426584243774414
      vertex -47.5 0 30
      vertex 0 0 28.5
    endloop
  endfacet
  facet normal 0 1 0
    outer loop
      vertex -42.963523864746094 0 28.426584243774414
      vertex -47.5 0 30
      vertex -42.5 0 28.5
    endloop
  endfacet
  facet normal 0 1 0
    outer loop
      vertex -43.381675720214844 0 28.213523864746094
      vertex -47.5 0 30
      vertex -42.963523864746094 0 28.426584243774414
    endloop
  endfacet
  facet normal 0 1 0
    outer loop
      vertex -43.713523864746094 0 27.881677627563477
      vertex -47.5 0 30
      vertex -43.381675720214844 0 28.213523864746094
    endloop
  endfacet
  facet normal 0 1 0
    outer loop
      vertex -43.92658233642578 0 27.463523864746094
      vertex -47.5 0 30
      vertex -43.713523864746094 0 27.881677627563477
    endloop
  endfacet
  facet normal 0 1 0
    outer loop
      vertex -44 0 27
      vertex -47.5 0 30
      vertex -43.92658233642578 0 27.463523864746094
    endloop
  endfacet
  facet normal 0 1 0
    outer loop
      vertex -43.92658233642578 0 26.536474227905273
      vertex -47.5 0 30
      vertex -44 0 27
    endloop
  endfacet
  facet normal 0 1 0
    outer loop
      vertex -43.713523864746094 0 26.11832046508789
      vertex -47.5 0 30
      vertex -43.92658233642578 0 26.536474227905273
    endloop
  endfacet
  facet normal 0 1 0
    outer loop
      vertex -23.5 0 2
      vertex 0 0 25.5
      vertex 23.5 0 2
    endloop
  endfacet
  facet normal 0 1 0
    outer loop
      vertex -41.61832046508789 0 25.786474227905273
      vertex -38.5 0 2
      vertex -42.036476135253906 0 25.573413848876953
    endloop
  endfacet
  facet normal 0 1 0
    outer loop
      vertex -42.036476135253906 0 25.573413848876953
      vertex -38.5 0 2
      vertex -42.5 0 25.5
    endloop
  endfacet
  facet normal 0 1 0
    outer loop
      vertex -42.5 0 25.5
      vertex -38.5 0 2
      vertex -42.963523864746094 0 25.573413848876953
    endloop
  endfacet
  facet normal 0 1 0
    outer loop
      vertex -47.5 0 0
      vertex -42.963523864746094 0 25.573413848876953
      vertex -38.5 0 2
    endloop
  endfacet
  facet normal 0 1 0
    outer loop
      vertex -42.963523864746094 0 25.573413848876953
      vertex -47.5 0 0
      vertex -43.381675720214844 0 25.786474227905273
    endloop
  endfacet
  facet normal 0 1 0
    outer loop
      vertex -43.381675720214844 0 25.786474227905273
      vertex -47.5 0 0
      vertex -43.713523864746094 0 26.11832046508789
    endloop
  endfacet
  facet normal 0 1 0
    outer loop
      vertex -47.5 0 0
      vertex -38.5 0 2
      vertex -38.5 0 0
    endloop
  endfacet
  facet normal 0 1 0
    outer loop
      vertex -43.713523864746094 0 26.11832046508789
      vertex -47.5 0 0
      vertex -47.5 0 30
    endloop
  endfacet
  facet normal 0 -1 0
    outer loop
      vertex 42.036476135253906 -2 28.426584243774414
      vertex 47.5 -2 30
      vertex 0.46352481842041016 -2 28.426584243774414
    endloop
  endfacet
  facet normal 0 -1 0
    outer loop
      vertex 47.5 -2 30
      vertex 42.036476135253906 -2 28.426584243774414
      vertex 42.5 -2 28.5
    endloop
  endfacet
  facet normal 0 -1 0
    outer loop
      vertex 0.8816776275634766 -2 28.213523864746094
      vertex 42.036476135253906 -2 28.426584243774414
      vertex 0.46352481842041016 -2 28.426584243774414
    endloop
  endfacet
  facet normal 0 -1 0
    outer loop
      vertex 0.8816776275634766 -2 28.213523864746094
      vertex 41.61832046508789 -2 28.213523864746094
      vertex 42.036476135253906 -2 28.426584243774414
    endloop
  endfacet
  facet normal 0 -1 0
    outer loop
      vertex 1.2135248184204102 -2 27.881677627563477
      vertex 41.61832046508789 -2 28.213523864746094
      vertex 0.8816776275634766 -2 28.213523864746094
    endloop
  endfacet
  facet normal 0 -1 0
    outer loop
      vertex 1.2135248184204102 -2 27.881677627563477
      vertex 41.286476135253906 -2 27.881677627563477
      vertex 41.61832046508789 -2 28.213523864746094
    endloop
  endfacet
  facet normal 0 -1 0
    outer loop
      vertex 1.426584243774414 -2 27.463523864746094
      vertex 41.286476135253906 -2 27.881677627563477
      vertex 1.2135248184204102 -2 27.881677627563477
    endloop
  endfacet
  facet normal 0 -1 0
    outer loop
      vertex 1.426584243774414 -2 27.463523864746094
      vertex 41.07341384887695 -2 27.463523864746094
      vertex 41.286476135253906 -2 27.881677627563477
    endloop
  endfacet
  facet normal 0 -1 0
    outer loop
      vertex 1.5 -2 27
      vertex 41.07341384887695 -2 27.463523864746094
      vertex 1.426584243774414 -2 27.463523864746094
    endloop
  endfacet
  facet normal 0 -1 0
    outer loop
      vertex 1.5 -2 27
      vertex 41 -2 27
      vertex 41.07341384887695 -2 27.463523864746094
    endloop
  endfacet
  facet normal 0 -1 0
    outer loop
      vertex 1.426584243774414 -2 26.536474227905273
      vertex 41 -2 27
      vertex 1.5 -2 27
    endloop
  endfacet
  facet normal 0 -1 0
    outer loop
      vertex 1.426584243774414 -2 26.536474227905273
      vertex 41.07341384887695 -2 26.536474227905273
      vertex 41 -2 27
    endloop
  endfacet
  facet normal 0 -1 0
    outer loop
      vertex 1.2135248184204102 -2 26.11832046508789
      vertex 41.07341384887695 -2 26.536474227905273
      vertex 1.426584243774414 -2 26.536474227905273
    endloop
  endfacet
  facet normal 0 -1 0
    outer loop
      vertex 1.2135248184204102 -2 26.11832046508789
      vertex 41.286476135253906 -2 26.11832046508789
      vertex 41.07341384887695 -2 26.536474227905273
    endloop
  endfacet
  facet normal 0 -1 0
    outer loop
      vertex 47.5 -2 0
      vertex 1.2135248184204102 -2 26.11832046508789
      vertex 0.8816776275634766 -2 25.786474227905273
    endloop
  endfacet
  facet normal 0 -1 0
    outer loop
      vertex 1.2135248184204102 -2 26.11832046508789
      vertex 47.5 -2 0
      vertex 41.286476135253906 -2 26.11832046508789
    endloop
  endfacet
  facet normal 0 -1 0
    outer loop
      vertex 47.5 -2 0
      vertex 0.8816776275634766 -2 25.786474227905273
      vertex 0.46352481842041016 -2 25.573413848876953
    endloop
  endfacet
  facet normal 0 -1 0
    outer loop
      vertex 41.286476135253906 -2 26.11832046508789
      vertex 47.5 -2 0
      vertex 41.61832046508789 -2 25.786474227905273
    endloop
  endfacet
  facet normal 0 -1 0
    outer loop
      vertex 47.5 -2 0
      vertex 0.46352481842041016 -2 25.573413848876953
      vertex 0 -2 25.5
    endloop
  endfacet
  facet normal 0 -1 0
    outer loop
      vertex 41.61832046508789 -2 25.786474227905273
      vertex 47.5 -2 0
      vertex 42.036476135253906 -2 25.573413848876953
    endloop
  endfacet
  facet normal 0 -1 0
    outer loop
      vertex -0.46352481842041016 -2 28.426584243774414
      vertex -47.5 -2 30
      vertex -42.036476135253906 -2 28.426584243774414
    endloop
  endfacet
  facet normal 0 -1 0
    outer loop
      vertex -47.5 -2 30
      vertex -0.46352481842041016 -2 28.426584243774414
      vertex 0 -2 28.5
    endloop
  endfacet
  facet normal 0 -1 0
    outer loop
      vertex -41.61832046508789 -2 28.213523864746094
      vertex -0.46352481842041016 -2 28.426584243774414
      vertex -42.036476135253906 -2 28.426584243774414
    endloop
  endfacet
  facet normal 0 -1 0
    outer loop
      vertex -41.61832046508789 -2 28.213523864746094
      vertex -0.8816776275634766 -2 28.213523864746094
      vertex -0.46352481842041016 -2 28.426584243774414
    endloop
  endfacet
  facet normal 0 -1 0
    outer loop
      vertex -41.286476135253906 -2 27.881677627563477
      vertex -0.8816776275634766 -2 28.213523864746094
      vertex -41.61832046508789 -2 28.213523864746094
    endloop
  endfacet
  facet normal 0 -1 0
    outer loop
      vertex -41.286476135253906 -2 27.881677627563477
      vertex -1.2135248184204102 -2 27.881677627563477
      vertex -0.8816776275634766 -2 28.213523864746094
    endloop
  endfacet
  facet normal 0 -1 0
    outer loop
      vertex -41.07341384887695 -2 27.463523864746094
      vertex -1.2135248184204102 -2 27.881677627563477
      vertex -41.286476135253906 -2 27.881677627563477
    endloop
  endfacet
  facet normal 0 -1 0
    outer loop
      vertex -41.07341384887695 -2 27.463523864746094
      vertex -1.426584243774414 -2 27.463523864746094
      vertex -1.2135248184204102 -2 27.881677627563477
    endloop
  endfacet
  facet normal 0 -1 0
    outer loop
      vertex -41 -2 27
      vertex -1.426584243774414 -2 27.463523864746094
      vertex -41.07341384887695 -2 27.463523864746094
    endloop
  endfacet
  facet normal 0 -1 0
    outer loop
      vertex -41 -2 27
      vertex -1.5 -2 27
      vertex -1.426584243774414 -2 27.463523864746094
    endloop
  endfacet
  facet normal 0 -1 0
    outer loop
      vertex -41.07341384887695 -2 26.536474227905273
      vertex -1.5 -2 27
      vertex -41 -2 27
    endloop
  endfacet
  facet normal 0 -1 0
    outer loop
      vertex -41.07341384887695 -2 26.536474227905273
      vertex -1.426584243774414 -2 26.536474227905273
      vertex -1.5 -2 27
    endloop
  endfacet
  facet normal 0 -1 0
    outer loop
      vertex -41.286476135253906 -2 26.11832046508789
      vertex -1.426584243774414 -2 26.536474227905273
      vertex -41.07341384887695 -2 26.536474227905273
    endloop
  endfacet
  facet normal 0 -1 0
    outer loop
      vertex -41.286476135253906 -2 26.11832046508789
      vertex -1.2135248184204102 -2 26.11832046508789
      vertex -1.426584243774414 -2 26.536474227905273
    endloop
  endfacet
  facet normal 0 -1 0
    outer loop
      vertex -47.5 -2 0
      vertex -41.286476135253906 -2 26.11832046508789
      vertex -41.61832046508789 -2 25.786474227905273
    endloop
  endfacet
  facet normal 0 -1 0
    outer loop
      vertex -41.286476135253906 -2 26.11832046508789
      vertex -47.5 -2 0
      vertex -1.2135248184204102 -2 26.11832046508789
    endloop
  endfacet
  facet normal 0 -1 0
    outer loop
      vertex -47.5 -2 0
      vertex -41.61832046508789 -2 25.786474227905273
      vertex -42.036476135253906 -2 25.573413848876953
    endloop
  endfacet
  facet normal 0 -1 0
    outer loop
      vertex -1.2135248184204102 -2 26.11832046508789
      vertex -47.5 -2 0
      vertex -0.8816776275634766 -2 25.786474227905273
    endloop
  endfacet
  facet normal 0 -1 0
    outer loop
      vertex -47.5 -2 0
      vertex -42.036476135253906 -2 25.573413848876953
      vertex -42.5 -2 25.5
    endloop
  endfacet
  facet normal 0 -1 0
    outer loop
      vertex -0.8816776275634766 -2 25.786474227905273
      vertex -47.5 -2 0
      vertex -0.46352481842041016 -2 25.573413848876953
    endloop
  endfacet
  facet normal 0 -1 0
    outer loop
      vertex -42.036476135253906 -2 28.426584243774414
      vertex -47.5 -2 30
      vertex -42.5 -2 28.5
    endloop
  endfacet
  facet normal 0 -1 0
    outer loop
      vertex -47.5 -2 30
      vertex -42.963523864746094 -2 28.426584243774414
      vertex -42.5 -2 28.5
    endloop
  endfacet
  facet normal 0 -1 0
    outer loop
      vertex -47.5 -2 30
      vertex -43.381675720214844 -2 28.213523864746094
      vertex -42.963523864746094 -2 28.426584243774414
    endloop
  endfacet
  facet normal 0 -1 0
    outer loop
      vertex -47.5 -2 30
      vertex -43.713523864746094 -2 27.881677627563477
      vertex -43.381675720214844 -2 28.213523864746094
    endloop
  endfacet
  facet normal 0 -1 0
    outer loop
      vertex -47.5 -2 30
      vertex -43.92658233642578 -2 27.463523864746094
      vertex -43.713523864746094 -2 27.881677627563477
    endloop
  endfacet
  facet normal 0 -1 0
    outer loop
      vertex -47.5 -2 30
      vertex -44 -2 27
      vertex -43.92658233642578 -2 27.463523864746094
    endloop
  endfacet
  facet normal 0 -1 0
    outer loop
      vertex -47.5 -2 30
      vertex -43.92658233642578 -2 26.536474227905273
      vertex -44 -2 27
    endloop
  endfacet
  facet normal 0 -1 0
    outer loop
      vertex -47.5 -2 30
      vertex -43.713523864746094 -2 26.11832046508789
      vertex -43.92658233642578 -2 26.536474227905273
    endloop
  endfacet
  facet normal 0 -1 0
    outer loop
      vertex -0.46352481842041016 -2 25.573413848876953
      vertex -47.5 -2 0
      vertex 0 -2 25.5
    endloop
  endfacet
  facet normal 0 -1 0
    outer loop
      vertex 47.5 -2 0
      vertex 0 -2 25.5
      vertex -47.5 -2 0
    endloop
  endfacet
  facet normal 0 -1 0
    outer loop
      vertex -42.963523864746094 -2 25.573413848876953
      vertex -47.5 -2 0
      vertex -42.5 -2 25.5
    endloop
  endfacet
  facet normal 0 -1 0
    outer loop
      vertex -43.381675720214844 -2 25.786474227905273
      vertex -47.5 -2 0
      vertex -42.963523864746094 -2 25.573413848876953
    endloop
  endfacet
  facet normal 0 -1 0
    outer loop
      vertex -43.713523864746094 -2 26.11832046508789
      vertex -47.5 -2 0
      vertex -43.381675720214844 -2 25.786474227905273
    endloop
  endfacet
  facet normal 0 -1 0
    outer loop
      vertex -47.5 -2 0
      vertex -43.713523864746094 -2 26.11832046508789
      vertex -47.5 -2 30
    endloop
  endfacet
  facet normal 0 -1 0
    outer loop
      vertex -47.5 -2 30
      vertex 0 -2 28.5
      vertex 47.5 -2 30
    endloop
  endfacet
  facet normal 0 -1 0
    outer loop
      vertex 0.46352481842041016 -2 28.426584243774414
      vertex 47.5 -2 30
      vertex 0 -2 28.5
    endloop
  endfacet
  facet normal 0 -1 0
    outer loop
      vertex 42.963523864746094 -2 28.426584243774414
      vertex 47.5 -2 30
      vertex 42.5 -2 28.5
    endloop
  endfacet
  facet normal 0 -1 0
    outer loop
      vertex 43.381675720214844 -2 28.213523864746094
      vertex 47.5 -2 30
      vertex 42.963523864746094 -2 28.426584243774414
    endloop
  endfacet
  facet normal 0 -1 0
    outer loop
      vertex 43.713523864746094 -2 27.881677627563477
      vertex 47.5 -2 30
      vertex 43.381675720214844 -2 28.213523864746094
    endloop
  endfacet
  facet normal 0 -1 0
    outer loop
      vertex 43.92658233642578 -2 27.463523864746094
      vertex 47.5 -2 30
      vertex 43.713523864746094 -2 27.881677627563477
    endloop
  endfacet
  facet normal 0 -1 0
    outer loop
      vertex 44 -2 27
      vertex 47.5 -2 30
      vertex 43.92658233642578 -2 27.463523864746094
    endloop
  endfacet
  facet normal 0 -1 0
    outer loop
      vertex 43.92658233642578 -2 26.536474227905273
      vertex 47.5 -2 30
      vertex 44 -2 27
    endloop
  endfacet
  facet normal 0 -1 0
    outer loop
      vertex 43.713523864746094 -2 26.11832046508789
      vertex 47.5 -2 30
      vertex 43.92658233642578 -2 26.536474227905273
    endloop
  endfacet
  facet normal 0 -1 0
    outer loop
      vertex 42.036476135253906 -2 25.573413848876953
      vertex 47.5 -2 0
      vertex 42.5 -2 25.5
    endloop
  endfacet
  facet normal 0 -1 0
    outer loop
      vertex 43.713523864746094 -2 26.11832046508789
      vertex 47.5 -2 0
      vertex 47.5 -2 30
    endloop
  endfacet
  facet normal 0 -1 0
    outer loop
      vertex 43.381675720214844 -2 25.786474227905273
      vertex 47.5 -2 0
      vertex 43.713523864746094 -2 26.11832046508789
    endloop
  endfacet
  facet normal 0 -1 0
    outer loop
      vertex 42.963523864746094 -2 25.573413848876953
      vertex 47.5 -2 0
      vertex 43.381675720214844 -2 25.786474227905273
    endloop
  endfacet
  facet normal 0 -1 0
    outer loop
      vertex 42.5 -2 25.5
      vertex 47.5 -2 0
      vertex 42.963523864746094 -2 25.573413848876953
    endloop
  endfacet
  facet normal 1 0 0
    outer loop
      vertex 57.5 13.199999809265137 2
      vertex 57.5 33.20000076293945 0
      vertex 57.5 33.20000076293945 2
    endloop
  endfacet
  facet normal 1 0 0
    outer loop
      vertex 57.5 33.20000076293945 0
      vertex 57.5 13.199999809265137 2
      vertex 57.5 13.199999809265137 0
    endloop
  endfacet
  facet normal 0 0 1
    outer loop
      vertex -57.5 33.20000076293945 2
      vertex -38.5 13.199999809265137 2
      vertex -38.5 33.20000076293945 2
    endloop
  endfacet
  facet normal 0 0 1
    outer loop
      vertex -38.5 13.199999809265137 2
      vertex -57.5 33.20000076293945 2
      vertex -57.5 13.199999809265137 2
    endloop
  endfacet
  facet normal 0 0 1
    outer loop
      vertex -38.5 33.20000076293945 2
      vertex -23.5 33.20000076293945 2
      vertex -23.5 113.19999694824219 2
    endloop
  endfacet
  facet normal 0 0 1
    outer loop
      vertex -23.5 33.20000076293945 2
      vertex -38.5 33.20000076293945 2
      vertex -23.5 13.199999809265137 2
    endloop
  endfacet
  facet normal 0 0 1
    outer loop
      vertex -38.5 33.20000076293945 2
      vertex -23.5 113.19999694824219 2
      vertex -38.5 113.19999694824219 2
    endloop
  endfacet
  facet normal 0 0 1
    outer loop
      vertex -38.5 13.199999809265137 2
      vertex -23.5 13.199999809265137 2
      vertex -38.5 33.20000076293945 2
    endloop
  endfacet
  facet normal 0 0 1
    outer loop
      vertex -23.5 13.199999809265137 2
      vertex -38.5 13.199999809265137 2
      vertex -23.5 0 2
    endloop
  endfacet
  facet normal 0 0 1
    outer loop
      vertex -23.5 0 2
      vertex -38.5 13.199999809265137 2
      vertex -38.5 0 2
    endloop
  endfacet
  facet normal 0 0 1
    outer loop
      vertex -23.5 33.20000076293945 2
      vertex 23.5 13.199999809265137 2
      vertex 23.5 33.20000076293945 2
    endloop
  endfacet
  facet normal 0 0 1
    outer loop
      vertex 23.5 13.199999809265137 2
      vertex -23.5 33.20000076293945 2
      vertex -23.5 13.199999809265137 2
    endloop
  endfacet
  facet normal 0 0 1
    outer loop
      vertex 23.5 33.20000076293945 2
      vertex 38.5 33.20000076293945 2
      vertex 38.5 113.19999694824219 2
    endloop
  endfacet
  facet normal 0 0 1
    outer loop
      vertex 38.5 33.20000076293945 2
      vertex 23.5 33.20000076293945 2
      vertex 38.5 13.199999809265137 2
    endloop
  endfacet
  facet normal 0 0 1
    outer loop
      vertex 23.5 33.20000076293945 2
      vertex 38.5 113.19999694824219 2
      vertex 23.5 113.19999694824219 2
    endloop
  endfacet
  facet normal 0 0 1
    outer loop
      vertex 23.5 13.199999809265137 2
      vertex 38.5 13.199999809265137 2
      vertex 23.5 33.20000076293945 2
    endloop
  endfacet
  facet normal 0 0 1
    outer loop
      vertex 38.5 13.199999809265137 2
      vertex 23.5 13.199999809265137 2
      vertex 38.5 0 2
    endloop
  endfacet
  facet normal 0 0 1
    outer loop
      vertex 38.5 0 2
      vertex 23.5 13.199999809265137 2
      vertex 23.5 0 2
    endloop
  endfacet
  facet normal 0 0 1
    outer loop
      vertex 38.5 33.20000076293945 2
      vertex 57.5 13.199999809265137 2
      vertex 57.5 33.20000076293945 2
    endloop
  endfacet
  facet normal 0 0 1
    outer loop
      vertex 57.5 13.199999809265137 2
      vertex 38.5 33.20000076293945 2
      vertex 38.5 13.199999809265137 2
    endloop
  endfacet
  facet normal -1 0 0
    outer loop
      vertex -57.5 13.199999809265137 0
      vertex -57.5 33.20000076293945 2
      vertex -57.5 33.20000076293945 0
    endloop
  endfacet
  facet normal -1 0 0
    outer loop
      vertex -57.5 33.20000076293945 2
      vertex -57.5 13.199999809265137 0
      vertex -57.5 13.199999809265137 2
    endloop
  endfacet
  facet normal 0 1 0
    outer loop
      vertex -38.5 33.20000076293945 0
      vertex -57.5 33.20000076293945 2
      vertex -38.5 33.20000076293945 2
    endloop
  endfacet
  facet normal 0 1 0
    outer loop
      vertex -57.5 33.20000076293945 2
      vertex -38.5 33.20000076293945 0
      vertex -57.5 33.20000076293945 0
    endloop
  endfacet
  facet normal 0 1 0
    outer loop
      vertex 57.5 33.20000076293945 0
      vertex 38.5 33.20000076293945 2
      vertex 57.5 33.20000076293945 2
    endloop
  endfacet
  facet normal 0 1 0
    outer loop
      vertex 38.5 33.20000076293945 2
      vertex 57.5 33.20000076293945 0
      vertex 38.5 33.20000076293945 0
    endloop
  endfacet
  facet normal 0 1 0
    outer loop
      vertex 23.5 33.20000076293945 0
      vertex -23.5 33.20000076293945 2
      vertex 23.5 33.20000076293945 2
    endloop
  endfacet
  facet normal 0 1 0
    outer loop
      vertex -23.5 33.20000076293945 2
      vertex 23.5 33.20000076293945 0
      vertex -23.5 33.20000076293945 0
    endloop
  endfacet
  facet normal 0 -1 0
    outer loop
      vertex -57.5 13.199999809265137 0
      vertex -38.5 13.199999809265137 2
      vertex -57.5 13.199999809265137 2
    endloop
  endfacet
  facet normal 0 -1 0
    outer loop
      vertex -38.5 13.199999809265137 2
      vertex -57.5 13.199999809265137 0
      vertex -38.5 13.199999809265137 0
    endloop
  endfacet
  facet normal 0 -1 0
    outer loop
      vertex 38.5 13.199999809265137 0
      vertex 57.5 13.199999809265137 2
      vertex 38.5 13.199999809265137 2
    endloop
  endfacet
  facet normal 0 -1 0
    outer loop
      vertex 57.5 13.199999809265137 2
      vertex 38.5 13.199999809265137 0
      vertex 57.5 13.199999809265137 0
    endloop
  endfacet
  facet normal 0 -1 0
    outer loop
      vertex -23.5 13.199999809265137 0
      vertex 23.5 13.199999809265137 2
      vertex -23.5 13.199999809265137 2
    endloop
  endfacet
  facet normal 0 -1 0
    outer loop
      vertex 23.5 13.199999809265137 2
      vertex -23.5 13.199999809265137 0
      vertex 23.5 13.199999809265137 0
    endloop
  endfacet
  facet normal 1 0 0
    outer loop
      vertex -23.5 33.20000076293945 2
      vertex -23.5 113.19999694824219 0
      vertex -23.5 113.19999694824219 2
    endloop
  endfacet
  facet normal 1 0 0
    outer loop
      vertex -23.5 113.19999694824219 0
      vertex -23.5 33.20000076293945 2
      vertex -23.5 33.20000076293945 0
    endloop
  endfacet
  facet normal 1 0 0
    outer loop
      vertex -23.5 0 2
      vertex -23.5 13.199999809265137 0
      vertex -23.5 13.199999809265137 2
    endloop
  endfacet
  facet normal 1 0 0
    outer loop
      vertex -23.5 13.199999809265137 0
      vertex -23.5 0 2
      vertex -23.5 0 0
    endloop
  endfacet
  facet normal -1 0 0
    outer loop
      vertex -38.5 33.20000076293945 0
      vertex -38.5 113.19999694824219 2
      vertex -38.5 113.19999694824219 0
    endloop
  endfacet
  facet normal -1 0 0
    outer loop
      vertex -38.5 113.19999694824219 2
      vertex -38.5 33.20000076293945 0
      vertex -38.5 33.20000076293945 2
    endloop
  endfacet
  facet normal -1 0 0
    outer loop
      vertex -38.5 0 0
      vertex -38.5 13.199999809265137 2
      vertex -38.5 13.199999809265137 0
    endloop
  endfacet
  facet normal -1 0 0
    outer loop
      vertex -38.5 13.199999809265137 2
      vertex -38.5 0 0
      vertex -38.5 0 2
    endloop
  endfacet
  facet normal 0 1 0
    outer loop
      vertex -23.5 113.19999694824219 0
      vertex -38.5 113.19999694824219 2
      vertex -23.5 113.19999694824219 2
    endloop
  endfacet
  facet normal 0 1 0
    outer loop
      vertex -38.5 113.19999694824219 2
      vertex -23.5 113.19999694824219 0
      vertex -38.5 113.19999694824219 0
    endloop
  endfacet
  facet normal 1 0 0
    outer loop
      vertex 38.5 33.20000076293945 2
      vertex 38.5 113.19999694824219 0
      vertex 38.5 113.19999694824219 2
    endloop
  endfacet
  facet normal 1 0 0
    outer loop
      vertex 38.5 113.19999694824219 0
      vertex 38.5 33.20000076293945 2
      vertex 38.5 33.20000076293945 0
    endloop
  endfacet
  facet normal 1 0 0
    outer loop
      vertex 38.5 0 2
      vertex 38.5 13.199999809265137 0
      vertex 38.5 13.199999809265137 2
    endloop
  endfacet
  facet normal 1 0 0
    outer loop
      vertex 38.5 13.199999809265137 0
      vertex 38.5 0 2
      vertex 38.5 0 0
    endloop
  endfacet
  facet normal -1 0 0
    outer loop
      vertex 23.5 33.20000076293945 0
      vertex 23.5 113.19999694824219 2
      vertex 23.5 113.19999694824219 0
    endloop
  endfacet
  facet normal -1 0 0
    outer loop
      vertex 23.5 113.19999694824219 2
      vertex 23.5 33.20000076293945 0
      vertex 23.5 33.20000076293945 2
    endloop
  endfacet
  facet normal -1 0 0
    outer loop
      vertex 23.5 0 0
      vertex 23.5 13.199999809265137 2
      vertex 23.5 13.199999809265137 0
    endloop
  endfacet
  facet normal -1 0 0
    outer loop
      vertex 23.5 13.199999809265137 2
      vertex 23.5 0 0
      vertex 23.5 0 2
    endloop
  endfacet
  facet normal 0 1 0
    outer loop
      vertex 38.5 113.19999694824219 0
      vertex 23.5 113.19999694824219 2
      vertex 38.5 113.19999694824219 2
    endloop
  endfacet
  facet normal 0 1 0
    outer loop
      vertex 23.5 113.19999694824219 2
      vertex 38.5 113.19999694824219 0
      vertex 23.5 113.19999694824219 0
    endloop
  endfacet
  facet normal 0.15643610372703376 0 -0.9876880810512522
    outer loop
      vertex -42.963523864746094 -2 28.426584243774414
      vertex -42.5 0 28.5
      vertex -42.5 -2 28.5
    endloop
  endfacet
  facet normal 0.15643610372703376 0 -0.9876880810512522
    outer loop
      vertex -42.5 0 28.5
      vertex -42.963523864746094 -2 28.426584243774414
      vertex -42.963523864746094 0 28.426584243774414
    endloop
  endfacet
  facet normal -0.7071088133040453 0 -0.7071047490632096
    outer loop
      vertex -41.286476135253906 -2 27.881677627563477
      vertex -41.61832046508789 0 28.213523864746094
      vertex -41.286476135253906 0 27.881677627563477
    endloop
  endfacet
  facet normal -0.7071088133040453 0 -0.7071047490632096
    outer loop
      vertex -41.61832046508789 0 28.213523864746094
      vertex -41.286476135253906 -2 27.881677627563477
      vertex -41.61832046508789 -2 28.213523864746094
    endloop
  endfacet
  facet normal 0.4539928120644222 0 0.891005345996217
    outer loop
      vertex -43.381675720214844 0 25.786474227905273
      vertex -42.963523864746094 -2 25.573413848876953
      vertex -42.963523864746094 0 25.573413848876953
    endloop
  endfacet
  facet normal 0.4539928120644222 0 0.891005345996217
    outer loop
      vertex -42.963523864746094 -2 25.573413848876953
      vertex -43.381675720214844 0 25.786474227905273
      vertex -43.381675720214844 -2 25.786474227905273
    endloop
  endfacet
  facet normal -0.9876888084626648 0 0.15643151101233216
    outer loop
      vertex -41.07341384887695 -2 26.536474227905273
      vertex -41 0 27
      vertex -41.07341384887695 0 26.536474227905273
    endloop
  endfacet
  facet normal -0.9876888084626648 0 0.15643151101233216
    outer loop
      vertex -41 0 27
      vertex -41.07341384887695 -2 26.536474227905273
      vertex -41 -2 27
    endloop
  endfacet
  facet normal -0.8910045396573076 0 0.4539943945800094
    outer loop
      vertex -41.286476135253906 -2 26.11832046508789
      vertex -41.07341384887695 0 26.536474227905273
      vertex -41.286476135253906 0 26.11832046508789
    endloop
  endfacet
  facet normal -0.8910045396573076 0 0.4539943945800094
    outer loop
      vertex -41.07341384887695 0 26.536474227905273
      vertex -41.286476135253906 -2 26.11832046508789
      vertex -41.07341384887695 -2 26.536474227905273
    endloop
  endfacet
  facet normal -0.7071088133040453 0 0.7071047490632096
    outer loop
      vertex -41.61832046508789 -2 25.786474227905273
      vertex -41.286476135253906 0 26.11832046508789
      vertex -41.61832046508789 0 25.786474227905273
    endloop
  endfacet
  facet normal -0.7071088133040453 0 0.7071047490632096
    outer loop
      vertex -41.286476135253906 0 26.11832046508789
      vertex -41.61832046508789 -2 25.786474227905273
      vertex -41.286476135253906 -2 26.11832046508789
    endloop
  endfacet
  facet normal -0.15643610372703376 0 -0.9876880810512522
    outer loop
      vertex -42.5 -2 28.5
      vertex -42.036476135253906 0 28.426584243774414
      vertex -42.036476135253906 -2 28.426584243774414
    endloop
  endfacet
  facet normal -0.15643610372703376 0 -0.9876880810512522
    outer loop
      vertex -42.036476135253906 0 28.426584243774414
      vertex -42.5 -2 28.5
      vertex -42.5 0 28.5
    endloop
  endfacet
  facet normal -0.4539895240560916 0 -0.8910070213232459
    outer loop
      vertex -42.036476135253906 -2 28.426584243774414
      vertex -41.61832046508789 0 28.213523864746094
      vertex -41.61832046508789 -2 28.213523864746094
    endloop
  endfacet
  facet normal -0.4539895240560916 0 -0.8910070213232459
    outer loop
      vertex -41.61832046508789 0 28.213523864746094
      vertex -42.036476135253906 -2 28.426584243774414
      vertex -42.036476135253906 0 28.426584243774414
    endloop
  endfacet
  facet normal 0.8910078276656381 0 -0.45398794151228344
    outer loop
      vertex -43.713523864746094 -2 27.881677627563477
      vertex -43.92658233642578 0 27.463523864746094
      vertex -43.713523864746094 0 27.881677627563477
    endloop
  endfacet
  facet normal 0.8910078276656381 0 -0.45398794151228344
    outer loop
      vertex -43.92658233642578 0 27.463523864746094
      vertex -43.713523864746094 -2 27.881677627563477
      vertex -43.92658233642578 -2 27.463523864746094
    endloop
  endfacet
  facet normal -0.987688709007481 0 -0.15643213895851346
    outer loop
      vertex -41 -2 27
      vertex -41.07341384887695 0 27.463523864746094
      vertex -41 0 27
    endloop
  endfacet
  facet normal -0.987688709007481 0 -0.15643213895851346
    outer loop
      vertex -41.07341384887695 0 27.463523864746094
      vertex -41 -2 27
      vertex -41.07341384887695 -2 27.463523864746094
    endloop
  endfacet
  facet normal -0.8910045396573076 0 -0.4539943945800094
    outer loop
      vertex -41.07341384887695 -2 27.463523864746094
      vertex -41.286476135253906 0 27.881677627563477
      vertex -41.07341384887695 0 27.463523864746094
    endloop
  endfacet
  facet normal -0.8910045396573076 0 -0.4539943945800094
    outer loop
      vertex -41.286476135253906 0 27.881677627563477
      vertex -41.07341384887695 -2 27.463523864746094
      vertex -41.286476135253906 -2 27.881677627563477
    endloop
  endfacet
  facet normal 0.9876875525450469 0 0.15643944051157696
    outer loop
      vertex -44 -2 27
      vertex -43.92658233642578 0 26.536474227905273
      vertex -44 0 27
    endloop
  endfacet
  facet normal 0.9876875525450469 0 0.15643944051157696
    outer loop
      vertex -43.92658233642578 0 26.536474227905273
      vertex -44 -2 27
      vertex -43.92658233642578 -2 26.536474227905273
    endloop
  endfacet
  facet normal 0.8910078276656381 0 0.45398794151228344
    outer loop
      vertex -43.92658233642578 -2 26.536474227905273
      vertex -43.713523864746094 0 26.11832046508789
      vertex -43.92658233642578 0 26.536474227905273
    endloop
  endfacet
  facet normal 0.8910078276656381 0 0.45398794151228344
    outer loop
      vertex -43.713523864746094 0 26.11832046508789
      vertex -43.92658233642578 -2 26.536474227905273
      vertex -43.713523864746094 -2 26.11832046508789
    endloop
  endfacet
  facet normal 0.7071047490748897 0 -0.7071088132923654
    outer loop
      vertex -43.713523864746094 -2 27.881677627563477
      vertex -43.381675720214844 0 28.213523864746094
      vertex -43.381675720214844 -2 28.213523864746094
    endloop
  endfacet
  facet normal 0.7071047490748897 0 -0.7071088132923654
    outer loop
      vertex -43.381675720214844 0 28.213523864746094
      vertex -43.713523864746094 -2 27.881677627563477
      vertex -43.713523864746094 0 27.881677627563477
    endloop
  endfacet
  facet normal 0.9876874530799065 0 -0.15644006848799177
    outer loop
      vertex -43.92658233642578 -2 27.463523864746094
      vertex -44 0 27
      vertex -43.92658233642578 0 27.463523864746094
    endloop
  endfacet
  facet normal 0.9876874530799065 0 -0.15644006848799177
    outer loop
      vertex -44 0 27
      vertex -43.92658233642578 -2 27.463523864746094
      vertex -44 -2 27
    endloop
  endfacet
  facet normal -0.15643213895851346 0 0.987688709007481
    outer loop
      vertex -42.5 0 25.5
      vertex -42.036476135253906 -2 25.573413848876953
      vertex -42.036476135253906 0 25.573413848876953
    endloop
  endfacet
  facet normal -0.15643213895851346 0 0.987688709007481
    outer loop
      vertex -42.036476135253906 -2 25.573413848876953
      vertex -42.5 0 25.5
      vertex -42.5 -2 25.5
    endloop
  endfacet
  facet normal 0.7071047490748897 0 0.7071088132923654
    outer loop
      vertex -43.713523864746094 0 26.11832046508789
      vertex -43.381675720214844 -2 25.786474227905273
      vertex -43.381675720214844 0 25.786474227905273
    endloop
  endfacet
  facet normal 0.7071047490748897 0 0.7071088132923654
    outer loop
      vertex -43.381675720214844 -2 25.786474227905273
      vertex -43.713523864746094 0 26.11832046508789
      vertex -43.713523864746094 -2 26.11832046508789
    endloop
  endfacet
  facet normal -0.4539895240560916 0 0.8910070213232459
    outer loop
      vertex -42.036476135253906 0 25.573413848876953
      vertex -41.61832046508789 -2 25.786474227905273
      vertex -41.61832046508789 0 25.786474227905273
    endloop
  endfacet
  facet normal -0.4539895240560916 0 0.8910070213232459
    outer loop
      vertex -41.61832046508789 -2 25.786474227905273
      vertex -42.036476135253906 0 25.573413848876953
      vertex -42.036476135253906 -2 25.573413848876953
    endloop
  endfacet
  facet normal 0.15643213895851346 0 0.987688709007481
    outer loop
      vertex -42.963523864746094 0 25.573413848876953
      vertex -42.5 -2 25.5
      vertex -42.5 0 25.5
    endloop
  endfacet
  facet normal 0.15643213895851346 0 0.987688709007481
    outer loop
      vertex -42.5 -2 25.5
      vertex -42.963523864746094 0 25.573413848876953
      vertex -42.963523864746094 -2 25.573413848876953
    endloop
  endfacet
  facet normal 0.4539928120644222 0 -0.891005345996217
    outer loop
      vertex -43.381675720214844 -2 28.213523864746094
      vertex -42.963523864746094 0 28.426584243774414
      vertex -42.963523864746094 -2 28.426584243774414
    endloop
  endfacet
  facet normal 0.4539928120644222 0 -0.891005345996217
    outer loop
      vertex -42.963523864746094 0 28.426584243774414
      vertex -43.381675720214844 -2 28.213523864746094
      vertex -43.381675720214844 0 28.213523864746094
    endloop
  endfacet
  facet normal -0.7071047490748897 0 -0.7071088132923654
    outer loop
      vertex 43.381675720214844 -2 28.213523864746094
      vertex 43.713523864746094 0 27.881677627563477
      vertex 43.713523864746094 -2 27.881677627563477
    endloop
  endfacet
  facet normal -0.7071047490748897 0 -0.7071088132923654
    outer loop
      vertex 43.713523864746094 0 27.881677627563477
      vertex 43.381675720214844 -2 28.213523864746094
      vertex 43.381675720214844 0 28.213523864746094
    endloop
  endfacet
  facet normal -0.8910078276656381 0 -0.45398794151228344
    outer loop
      vertex 43.92658233642578 -2 27.463523864746094
      vertex 43.713523864746094 0 27.881677627563477
      vertex 43.92658233642578 0 27.463523864746094
    endloop
  endfacet
  facet normal -0.8910078276656381 0 -0.45398794151228344
    outer loop
      vertex 43.713523864746094 0 27.881677627563477
      vertex 43.92658233642578 -2 27.463523864746094
      vertex 43.713523864746094 -2 27.881677627563477
    endloop
  endfacet
  facet normal 0.4539895240560916 0 0.8910070213232459
    outer loop
      vertex 41.61832046508789 0 25.786474227905273
      vertex 42.036476135253906 -2 25.573413848876953
      vertex 42.036476135253906 0 25.573413848876953
    endloop
  endfacet
  facet normal 0.4539895240560916 0 0.8910070213232459
    outer loop
      vertex 42.036476135253906 -2 25.573413848876953
      vertex 41.61832046508789 0 25.786474227905273
      vertex 41.61832046508789 -2 25.786474227905273
    endloop
  endfacet
  facet normal -0.7071047490748897 0 0.7071088132923654
    outer loop
      vertex 43.381675720214844 0 25.786474227905273
      vertex 43.713523864746094 -2 26.11832046508789
      vertex 43.713523864746094 0 26.11832046508789
    endloop
  endfacet
  facet normal -0.7071047490748897 0 0.7071088132923654
    outer loop
      vertex 43.713523864746094 -2 26.11832046508789
      vertex 43.381675720214844 0 25.786474227905273
      vertex 43.381675720214844 -2 25.786474227905273
    endloop
  endfacet
  facet normal -0.9876875525450469 0 0.15643944051157696
    outer loop
      vertex 43.92658233642578 -2 26.536474227905273
      vertex 44 0 27
      vertex 43.92658233642578 0 26.536474227905273
    endloop
  endfacet
  facet normal -0.9876875525450469 0 0.15643944051157696
    outer loop
      vertex 44 0 27
      vertex 43.92658233642578 -2 26.536474227905273
      vertex 44 -2 27
    endloop
  endfacet
  facet normal 0.8910045396573076 0 -0.4539943945800094
    outer loop
      vertex 41.286476135253906 -2 27.881677627563477
      vertex 41.07341384887695 0 27.463523864746094
      vertex 41.286476135253906 0 27.881677627563477
    endloop
  endfacet
  facet normal 0.8910045396573076 0 -0.4539943945800094
    outer loop
      vertex 41.07341384887695 0 27.463523864746094
      vertex 41.286476135253906 -2 27.881677627563477
      vertex 41.07341384887695 -2 27.463523864746094
    endloop
  endfacet
  facet normal -0.9876874530799065 0 -0.15644006848799177
    outer loop
      vertex 44 -2 27
      vertex 43.92658233642578 0 27.463523864746094
      vertex 44 0 27
    endloop
  endfacet
  facet normal -0.9876874530799065 0 -0.15644006848799177
    outer loop
      vertex 43.92658233642578 0 27.463523864746094
      vertex 44 -2 27
      vertex 43.92658233642578 -2 27.463523864746094
    endloop
  endfacet
  facet normal 0.15643610372703376 0 -0.9876880810512522
    outer loop
      vertex 42.036476135253906 -2 28.426584243774414
      vertex 42.5 0 28.5
      vertex 42.5 -2 28.5
    endloop
  endfacet
  facet normal 0.15643610372703376 0 -0.9876880810512522
    outer loop
      vertex 42.5 0 28.5
      vertex 42.036476135253906 -2 28.426584243774414
      vertex 42.036476135253906 0 28.426584243774414
    endloop
  endfacet
  facet normal -0.8910078276656381 0 0.45398794151228344
    outer loop
      vertex 43.713523864746094 -2 26.11832046508789
      vertex 43.92658233642578 0 26.536474227905273
      vertex 43.713523864746094 0 26.11832046508789
    endloop
  endfacet
  facet normal -0.8910078276656381 0 0.45398794151228344
    outer loop
      vertex 43.92658233642578 0 26.536474227905273
      vertex 43.713523864746094 -2 26.11832046508789
      vertex 43.92658233642578 -2 26.536474227905273
    endloop
  endfacet
  facet normal -0.4539928120644222 0 -0.891005345996217
    outer loop
      vertex 42.963523864746094 -2 28.426584243774414
      vertex 43.381675720214844 0 28.213523864746094
      vertex 43.381675720214844 -2 28.213523864746094
    endloop
  endfacet
  facet normal -0.4539928120644222 0 -0.891005345996217
    outer loop
      vertex 43.381675720214844 0 28.213523864746094
      vertex 42.963523864746094 -2 28.426584243774414
      vertex 42.963523864746094 0 28.426584243774414
    endloop
  endfacet
  facet normal 0.7071088133040453 0 -0.7071047490632096
    outer loop
      vertex 41.61832046508789 -2 28.213523864746094
      vertex 41.286476135253906 0 27.881677627563477
      vertex 41.61832046508789 0 28.213523864746094
    endloop
  endfacet
  facet normal 0.7071088133040453 0 -0.7071047490632096
    outer loop
      vertex 41.286476135253906 0 27.881677627563477
      vertex 41.61832046508789 -2 28.213523864746094
      vertex 41.286476135253906 -2 27.881677627563477
    endloop
  endfacet
  facet normal -0.15643610372703376 0 -0.9876880810512522
    outer loop
      vertex 42.5 -2 28.5
      vertex 42.963523864746094 0 28.426584243774414
      vertex 42.963523864746094 -2 28.426584243774414
    endloop
  endfacet
  facet normal -0.15643610372703376 0 -0.9876880810512522
    outer loop
      vertex 42.963523864746094 0 28.426584243774414
      vertex 42.5 -2 28.5
      vertex 42.5 0 28.5
    endloop
  endfacet
  facet normal 0.4539895240560916 0 -0.8910070213232459
    outer loop
      vertex 41.61832046508789 -2 28.213523864746094
      vertex 42.036476135253906 0 28.426584243774414
      vertex 42.036476135253906 -2 28.426584243774414
    endloop
  endfacet
  facet normal 0.4539895240560916 0 -0.8910070213232459
    outer loop
      vertex 42.036476135253906 0 28.426584243774414
      vertex 41.61832046508789 -2 28.213523864746094
      vertex 41.61832046508789 0 28.213523864746094
    endloop
  endfacet
  facet normal -0.4539928120644222 0 0.891005345996217
    outer loop
      vertex 42.963523864746094 0 25.573413848876953
      vertex 43.381675720214844 -2 25.786474227905273
      vertex 43.381675720214844 0 25.786474227905273
    endloop
  endfacet
  facet normal -0.4539928120644222 0 0.891005345996217
    outer loop
      vertex 43.381675720214844 -2 25.786474227905273
      vertex 42.963523864746094 0 25.573413848876953
      vertex 42.963523864746094 -2 25.573413848876953
    endloop
  endfacet
  facet normal 0.7071088133040453 0 0.7071047490632096
    outer loop
      vertex 41.286476135253906 -2 26.11832046508789
      vertex 41.61832046508789 0 25.786474227905273
      vertex 41.286476135253906 0 26.11832046508789
    endloop
  endfacet
  facet normal 0.7071088133040453 0 0.7071047490632096
    outer loop
      vertex 41.61832046508789 0 25.786474227905273
      vertex 41.286476135253906 -2 26.11832046508789
      vertex 41.61832046508789 -2 25.786474227905273
    endloop
  endfacet
  facet normal 0.987688709007481 0 -0.15643213895851346
    outer loop
      vertex 41.07341384887695 -2 27.463523864746094
      vertex 41 0 27
      vertex 41.07341384887695 0 27.463523864746094
    endloop
  endfacet
  facet normal 0.987688709007481 0 -0.15643213895851346
    outer loop
      vertex 41 0 27
      vertex 41.07341384887695 -2 27.463523864746094
      vertex 41 -2 27
    endloop
  endfacet
  facet normal 0.8910045396573076 0 0.4539943945800094
    outer loop
      vertex 41.07341384887695 -2 26.536474227905273
      vertex 41.286476135253906 0 26.11832046508789
      vertex 41.07341384887695 0 26.536474227905273
    endloop
  endfacet
  facet normal 0.8910045396573076 0 0.4539943945800094
    outer loop
      vertex 41.286476135253906 0 26.11832046508789
      vertex 41.07341384887695 -2 26.536474227905273
      vertex 41.286476135253906 -2 26.11832046508789
    endloop
  endfacet
  facet normal 0.15643213895851346 0 0.987688709007481
    outer loop
      vertex 42.036476135253906 0 25.573413848876953
      vertex 42.5 -2 25.5
      vertex 42.5 0 25.5
    endloop
  endfacet
  facet normal 0.15643213895851346 0 0.987688709007481
    outer loop
      vertex 42.5 -2 25.5
      vertex 42.036476135253906 0 25.573413848876953
      vertex 42.036476135253906 -2 25.573413848876953
    endloop
  endfacet
  facet normal 0.9876888084626648 0 0.15643151101233216
    outer loop
      vertex 41 -2 27
      vertex 41.07341384887695 0 26.536474227905273
      vertex 41 0 27
    endloop
  endfacet
  facet normal 0.9876888084626648 0 0.15643151101233216
    outer loop
      vertex 41.07341384887695 0 26.536474227905273
      vertex 41 -2 27
      vertex 41.07341384887695 -2 26.536474227905273
    endloop
  endfacet
  facet normal -0.15643213895851346 0 0.987688709007481
    outer loop
      vertex 42.5 0 25.5
      vertex 42.963523864746094 -2 25.573413848876953
      vertex 42.963523864746094 0 25.573413848876953
    endloop
  endfacet
  facet normal -0.15643213895851346 0 0.987688709007481
    outer loop
      vertex 42.963523864746094 -2 25.573413848876953
      vertex 42.5 0 25.5
      vertex 42.5 -2 25.5
    endloop
  endfacet
  facet normal -0.7071057651299886 0 -0.7071077972416464
    outer loop
      vertex 0.8816776275634766 -2 28.213523864746094
      vertex 1.2135248184204102 0 27.881677627563477
      vertex 1.2135248184204102 -2 27.881677627563477
    endloop
  endfacet
  facet normal -0.7071057651299886 0 -0.7071077972416464
    outer loop
      vertex 1.2135248184204102 0 27.881677627563477
      vertex 0.8816776275634766 -2 28.213523864746094
      vertex 0.8816776275634766 0 28.213523864746094
    endloop
  endfacet
  facet normal -0.8910070056656619 0 -0.4539895547859124
    outer loop
      vertex 1.426584243774414 -2 27.463523864746094
      vertex 1.2135248184204102 0 27.881677627563477
      vertex 1.426584243774414 0 27.463523864746094
    endloop
  endfacet
  facet normal -0.8910070056656619 0 -0.4539895547859124
    outer loop
      vertex 1.2135248184204102 0 27.881677627563477
      vertex 1.426584243774414 -2 27.463523864746094
      vertex 1.2135248184204102 -2 27.881677627563477
    endloop
  endfacet
  facet normal -0.7071057651299886 0 0.7071077972416464
    outer loop
      vertex 0.8816776275634766 0 25.786474227905273
      vertex 1.2135248184204102 -2 26.11832046508789
      vertex 1.2135248184204102 0 26.11832046508789
    endloop
  endfacet
  facet normal -0.7071057651299886 0 0.7071077972416464
    outer loop
      vertex 1.2135248184204102 -2 26.11832046508789
      vertex 0.8816776275634766 0 25.786474227905273
      vertex 0.8816776275634766 -2 25.786474227905273
    endloop
  endfacet
  facet normal 0.8910070056656619 0 -0.4539895547859124
    outer loop
      vertex -1.2135248184204102 -2 27.881677627563477
      vertex -1.426584243774414 0 27.463523864746094
      vertex -1.2135248184204102 0 27.881677627563477
    endloop
  endfacet
  facet normal 0.8910070056656619 0 -0.4539895547859124
    outer loop
      vertex -1.426584243774414 0 27.463523864746094
      vertex -1.2135248184204102 -2 27.881677627563477
      vertex -1.426584243774414 -2 27.463523864746094
    endloop
  endfacet
  facet normal -0.9876881805114143 0 0.15643547576573566
    outer loop
      vertex 1.426584243774414 -2 26.536474227905273
      vertex 1.5 0 27
      vertex 1.426584243774414 0 26.536474227905273
    endloop
  endfacet
  facet normal -0.9876881805114143 0 0.15643547576573566
    outer loop
      vertex 1.5 0 27
      vertex 1.426584243774414 -2 26.536474227905273
      vertex 1.5 -2 27
    endloop
  endfacet
  facet normal -0.9876880810512522 0 -0.15643610372703376
    outer loop
      vertex 1.5 -2 27
      vertex 1.426584243774414 0 27.463523864746094
      vertex 1.5 0 27
    endloop
  endfacet
  facet normal -0.9876880810512522 0 -0.15643610372703376
    outer loop
      vertex 1.426584243774414 0 27.463523864746094
      vertex 1.5 -2 27
      vertex 1.426584243774414 -2 27.463523864746094
    endloop
  endfacet
  facet normal 0.4539919900584542 0 0.8910057648313867
    outer loop
      vertex -0.8816776275634766 0 25.786474227905273
      vertex -0.46352481842041016 -2 25.573413848876953
      vertex -0.46352481842041016 0 25.573413848876953
    endloop
  endfacet
  facet normal 0.4539919900584542 0 0.8910057648313867
    outer loop
      vertex -0.46352481842041016 -2 25.573413848876953
      vertex -0.8816776275634766 0 25.786474227905273
      vertex -0.8816776275634766 -2 25.786474227905273
    endloop
  endfacet
  facet normal 0.15643578974576242 0 -0.9876881307814829
    outer loop
      vertex -0.46352481842041016 -2 28.426584243774414
      vertex 0 0 28.5
      vertex 0 -2 28.5
    endloop
  endfacet
  facet normal 0.15643578974576242 0 -0.9876881307814829
    outer loop
      vertex 0 0 28.5
      vertex -0.46352481842041016 -2 28.426584243774414
      vertex -0.46352481842041016 0 28.426584243774414
    endloop
  endfacet
  facet normal -0.8910070056656619 0 0.4539895547859124
    outer loop
      vertex 1.2135248184204102 -2 26.11832046508789
      vertex 1.426584243774414 0 26.536474227905273
      vertex 1.2135248184204102 0 26.11832046508789
    endloop
  endfacet
  facet normal -0.8910070056656619 0 0.4539895547859124
    outer loop
      vertex 1.426584243774414 0 26.536474227905273
      vertex 1.2135248184204102 -2 26.11832046508789
      vertex 1.426584243774414 -2 26.536474227905273
    endloop
  endfacet
  facet normal 0.9876881805114143 0 0.15643547576573566
    outer loop
      vertex -1.5 -2 27
      vertex -1.426584243774414 0 26.536474227905273
      vertex -1.5 0 27
    endloop
  endfacet
  facet normal 0.9876881805114143 0 0.15643547576573566
    outer loop
      vertex -1.426584243774414 0 26.536474227905273
      vertex -1.5 -2 27
      vertex -1.426584243774414 -2 26.536474227905273
    endloop
  endfacet
  facet normal -0.4539919900584542 0 -0.8910057648313867
    outer loop
      vertex 0.46352481842041016 -2 28.426584243774414
      vertex 0.8816776275634766 0 28.213523864746094
      vertex 0.8816776275634766 -2 28.213523864746094
    endloop
  endfacet
  facet normal -0.4539919900584542 0 -0.8910057648313867
    outer loop
      vertex 0.8816776275634766 0 28.213523864746094
      vertex 0.46352481842041016 -2 28.426584243774414
      vertex 0.46352481842041016 0 28.426584243774414
    endloop
  endfacet
  facet normal -0.15643182498480052 0 0.9876887587352225
    outer loop
      vertex 0 0 25.5
      vertex 0.46352481842041016 -2 25.573413848876953
      vertex 0.46352481842041016 0 25.573413848876953
    endloop
  endfacet
  facet normal -0.15643182498480052 0 0.9876887587352225
    outer loop
      vertex 0.46352481842041016 -2 25.573413848876953
      vertex 0 0 25.5
      vertex 0 -2 25.5
    endloop
  endfacet
  facet normal 0.8910070056656619 0 0.4539895547859124
    outer loop
      vertex -1.426584243774414 -2 26.536474227905273
      vertex -1.2135248184204102 0 26.11832046508789
      vertex -1.426584243774414 0 26.536474227905273
    endloop
  endfacet
  facet normal 0.8910070056656619 0 0.4539895547859124
    outer loop
      vertex -1.2135248184204102 0 26.11832046508789
      vertex -1.426584243774414 -2 26.536474227905273
      vertex -1.2135248184204102 -2 26.11832046508789
    endloop
  endfacet
  facet normal 0.7071057651299886 0 -0.7071077972416464
    outer loop
      vertex -1.2135248184204102 -2 27.881677627563477
      vertex -0.8816776275634766 0 28.213523864746094
      vertex -0.8816776275634766 -2 28.213523864746094
    endloop
  endfacet
  facet normal 0.7071057651299886 0 -0.7071077972416464
    outer loop
      vertex -0.8816776275634766 0 28.213523864746094
      vertex -1.2135248184204102 -2 27.881677627563477
      vertex -1.2135248184204102 0 27.881677627563477
    endloop
  endfacet
  facet normal -0.15643578974576242 0 -0.9876881307814829
    outer loop
      vertex 0 -2 28.5
      vertex 0.46352481842041016 0 28.426584243774414
      vertex 0.46352481842041016 -2 28.426584243774414
    endloop
  endfacet
  facet normal -0.15643578974576242 0 -0.9876881307814829
    outer loop
      vertex 0.46352481842041016 0 28.426584243774414
      vertex 0 -2 28.5
      vertex 0 0 28.5
    endloop
  endfacet
  facet normal 0.15643182498480052 0 0.9876887587352225
    outer loop
      vertex -0.46352481842041016 0 25.573413848876953
      vertex 0 -2 25.5
      vertex 0 0 25.5
    endloop
  endfacet
  facet normal 0.15643182498480052 0 0.9876887587352225
    outer loop
      vertex 0 -2 25.5
      vertex -0.46352481842041016 0 25.573413848876953
      vertex -0.46352481842041016 -2 25.573413848876953
    endloop
  endfacet
  facet normal 0.4539919900584542 0 -0.8910057648313867
    outer loop
      vertex -0.8816776275634766 -2 28.213523864746094
      vertex -0.46352481842041016 0 28.426584243774414
      vertex -0.46352481842041016 -2 28.426584243774414
    endloop
  endfacet
  facet normal 0.4539919900584542 0 -0.8910057648313867
    outer loop
      vertex -0.46352481842041016 0 28.426584243774414
      vertex -0.8816776275634766 -2 28.213523864746094
      vertex -0.8816776275634766 0 28.213523864746094
    endloop
  endfacet
  facet normal 0.9876880810512522 0 -0.15643610372703376
    outer loop
      vertex -1.426584243774414 -2 27.463523864746094
      vertex -1.5 0 27
      vertex -1.426584243774414 0 27.463523864746094
    endloop
  endfacet
  facet normal 0.9876880810512522 0 -0.15643610372703376
    outer loop
      vertex -1.5 0 27
      vertex -1.426584243774414 -2 27.463523864746094
      vertex -1.5 -2 27
    endloop
  endfacet
  facet normal -0.4539919900584542 0 0.8910057648313867
    outer loop
      vertex 0.46352481842041016 0 25.573413848876953
      vertex 0.8816776275634766 -2 25.786474227905273
      vertex 0.8816776275634766 0 25.786474227905273
    endloop
  endfacet
  facet normal -0.4539919900584542 0 0.8910057648313867
    outer loop
      vertex 0.8816776275634766 -2 25.786474227905273
      vertex 0.46352481842041016 0 25.573413848876953
      vertex 0.46352481842041016 -2 25.573413848876953
    endloop
  endfacet
  facet normal 0.7071057651299886 0 0.7071077972416464
    outer loop
      vertex -1.2135248184204102 0 26.11832046508789
      vertex -0.8816776275634766 -2 25.786474227905273
      vertex -0.8816776275634766 0 25.786474227905273
    endloop
  endfacet
  facet normal 0.7071057651299886 0 0.7071077972416464
    outer loop
      vertex -0.8816776275634766 -2 25.786474227905273
      vertex -1.2135248184204102 0 26.11832046508789
      vertex -1.2135248184204102 -2 26.11832046508789
    endloop
  endfacet
endsolid OpenSCAD_Model
