solid OpenSCAD_Model
  facet normal 0 0.522498 0.85264
    outer loop
      vertex 104.001 10.5 34.4498
      vertex 0.0379042 9.60221 35
      vertex 104.327 9.60221 35
    endloop
  endfacet
  facet normal -0 0.522498 0.85264
    outer loop
      vertex -3.76362e-015 10.5 34.4498
      vertex 0.0379042 9.60221 35
      vertex 104.001 10.5 34.4498
    endloop
  endfacet
  facet normal 4.4206e-005 0.5225 0.852639
    outer loop
      vertex 0.0379042 9.60221 35
      vertex -3.76362e-015 10.5 34.4498
      vertex -3.87161e-015 9.70636 34.9362
    endloop
  endfacet
  facet normal 0 -0.97237 0.233445
    outer loop
      vertex 26.6906 -19.7538 20.6287
      vertex 28.116 -19.0211 23.6803
      vertex 26.4239 -19.0211 23.6803
    endloop
  endfacet
  facet normal 0 -0.97237 0.233445
    outer loop
      vertex 28.116 -19.0211 23.6803
      vertex 26.6906 -19.7538 20.6287
      vertex 28.3826 -19.7538 20.6287
    endloop
  endfacet
  facet normal 0 -0.97237 0.233445
    outer loop
      vertex 44.3559 -19.7538 20.6287
      vertex 45.7813 -19.0211 23.6803
      vertex 44.0893 -19.0211 23.6803
    endloop
  endfacet
  facet normal 0 -0.97237 0.233445
    outer loop
      vertex 45.7813 -19.0211 23.6803
      vertex 44.3559 -19.7538 20.6287
      vertex 46.048 -19.7538 20.6287
    endloop
  endfacet
  facet normal 0 -0.97237 0.233445
    outer loop
      vertex 62.0213 -19.7538 20.6287
      vertex 63.4467 -19.0211 23.6803
      vertex 61.7546 -19.0211 23.6803
    endloop
  endfacet
  facet normal 0 -0.97237 0.233445
    outer loop
      vertex 63.4467 -19.0211 23.6803
      vertex 62.0213 -19.7538 20.6287
      vertex 63.7133 -19.7538 20.6287
    endloop
  endfacet
  facet normal 0 -0.97237 0.233445
    outer loop
      vertex 79.6866 -19.7538 20.6287
      vertex 81.112 -19.0211 23.6803
      vertex 79.42 -19.0211 23.6803
    endloop
  endfacet
  facet normal 0 -0.97237 0.233445
    outer loop
      vertex 81.112 -19.0211 23.6803
      vertex 79.6866 -19.7538 20.6287
      vertex 81.3787 -19.7538 20.6287
    endloop
  endfacet
  facet normal 0 -0.97237 0.233445
    outer loop
      vertex 97.352 -19.7538 20.6287
      vertex 98.7774 -19.0211 23.6803
      vertex 97.0853 -19.0211 23.6803
    endloop
  endfacet
  facet normal 0 -0.97237 0.233445
    outer loop
      vertex 98.7774 -19.0211 23.6803
      vertex 97.352 -19.7538 20.6287
      vertex 99.044 -19.7538 20.6287
    endloop
  endfacet
  facet normal -1 1.25789e-022 -2.22045e-016
    outer loop
      vertex 3.87161e-015 9.70636 0.0638177
      vertex -3.76362e-015 10.5 34.4498
      vertex 3.76362e-015 10.5 0.550163
    endloop
  endfacet
  facet normal -1 -5.25146e-022 -2.22045e-016
    outer loop
      vertex -3.76362e-015 10.5 34.4498
      vertex 3.87161e-015 9.70636 0.0638177
      vertex -3.87161e-015 9.70636 34.9362
    endloop
  endfacet
  facet normal 0 -0.522499 0.85264
    outer loop
      vertex 24.6878 -9.60221 35
      vertex 23.7795 -11.7557 33.6803
      vertex 25.4716 -11.7557 33.6803
    endloop
  endfacet
  facet normal 0 -0.522499 0.85264
    outer loop
      vertex 23.7795 -11.7557 33.6803
      vertex 24.6878 -9.60221 35
      vertex 22.9957 -9.60221 35
    endloop
  endfacet
  facet normal 0 -0.522499 0.85264
    outer loop
      vertex 42.3531 -9.60221 35
      vertex 41.4449 -11.7557 33.6803
      vertex 43.1369 -11.7557 33.6803
    endloop
  endfacet
  facet normal 0 -0.522499 0.85264
    outer loop
      vertex 41.4449 -11.7557 33.6803
      vertex 42.3531 -9.60221 35
      vertex 40.6611 -9.60221 35
    endloop
  endfacet
  facet normal 0 -0.522499 0.85264
    outer loop
      vertex 60.0185 -9.60221 35
      vertex 59.1102 -11.7557 33.6803
      vertex 60.8023 -11.7557 33.6803
    endloop
  endfacet
  facet normal 0 -0.522499 0.85264
    outer loop
      vertex 59.1102 -11.7557 33.6803
      vertex 60.0185 -9.60221 35
      vertex 58.3264 -9.60221 35
    endloop
  endfacet
  facet normal 0 -0.522499 0.85264
    outer loop
      vertex 77.6838 -9.60221 35
      vertex 76.7756 -11.7557 33.6803
      vertex 78.4676 -11.7557 33.6803
    endloop
  endfacet
  facet normal 0 -0.522499 0.85264
    outer loop
      vertex 76.7756 -11.7557 33.6803
      vertex 77.6838 -9.60221 35
      vertex 75.9918 -9.60221 35
    endloop
  endfacet
  facet normal 0 -0.522499 0.85264
    outer loop
      vertex 95.3492 -9.60221 35
      vertex 94.4409 -11.7557 33.6803
      vertex 96.133 -11.7557 33.6803
    endloop
  endfacet
  facet normal 0 -0.522499 0.85264
    outer loop
      vertex 94.4409 -11.7557 33.6803
      vertex 95.3492 -9.60221 35
      vertex 93.6571 -9.60221 35
    endloop
  endfacet
  facet normal 0 -0.649448 -0.760406
    outer loop
      vertex 24.6481 -14.1421 3.35786
      vertex 25.4716 -11.7557 1.31966
      vertex 26.3402 -14.1421 3.35786
    endloop
  endfacet
  facet normal -0 -0.649448 -0.760406
    outer loop
      vertex 25.4716 -11.7557 1.31966
      vertex 24.6481 -14.1421 3.35786
      vertex 23.7795 -11.7557 1.31966
    endloop
  endfacet
  facet normal 0 -0.649448 -0.760406
    outer loop
      vertex 42.3135 -14.1421 3.35786
      vertex 43.1369 -11.7557 1.31966
      vertex 44.0055 -14.1421 3.35786
    endloop
  endfacet
  facet normal -0 -0.649448 -0.760406
    outer loop
      vertex 43.1369 -11.7557 1.31966
      vertex 42.3135 -14.1421 3.35786
      vertex 41.4449 -11.7557 1.31966
    endloop
  endfacet
  facet normal 0 -0.649448 -0.760406
    outer loop
      vertex 59.9788 -14.1421 3.35786
      vertex 60.8023 -11.7557 1.31966
      vertex 61.6709 -14.1421 3.35786
    endloop
  endfacet
  facet normal -0 -0.649448 -0.760406
    outer loop
      vertex 60.8023 -11.7557 1.31966
      vertex 59.9788 -14.1421 3.35786
      vertex 59.1102 -11.7557 1.31966
    endloop
  endfacet
  facet normal 0 -0.649448 -0.760406
    outer loop
      vertex 77.6442 -14.1421 3.35786
      vertex 78.4676 -11.7557 1.31966
      vertex 79.3362 -14.1421 3.35786
    endloop
  endfacet
  facet normal -0 -0.649448 -0.760406
    outer loop
      vertex 78.4676 -11.7557 1.31966
      vertex 77.6442 -14.1421 3.35786
      vertex 76.7756 -11.7557 1.31966
    endloop
  endfacet
  facet normal 0 -0.649448 -0.760406
    outer loop
      vertex 95.3095 -14.1421 3.35786
      vertex 96.133 -11.7557 1.31966
      vertex 97.0016 -14.1421 3.35786
    endloop
  endfacet
  facet normal -0 -0.649448 -0.760406
    outer loop
      vertex 96.133 -11.7557 1.31966
      vertex 95.3095 -14.1421 3.35786
      vertex 94.4409 -11.7557 1.31966
    endloop
  endfacet
  facet normal 1.89324e-016 0.522499 -0.85264
    outer loop
      vertex 0.0379042 9.60221 8.41643e-018
      vertex 104.001 10.5 0.550163
      vertex 104.327 9.60221 2.31653e-014
    endloop
  endfacet
  facet normal 3.02416e-006 0.522499 -0.85264
    outer loop
      vertex 3.76362e-015 10.5 0.550163
      vertex 0.0379042 9.60221 8.41643e-018
      vertex 3.87161e-015 9.70636 0.0638177
    endloop
  endfacet
  facet normal 0 0.522499 -0.85264
    outer loop
      vertex 0.0379042 9.60221 8.41643e-018
      vertex 3.76362e-015 10.5 0.550163
      vertex 104.001 10.5 0.550163
    endloop
  endfacet
  facet normal -0 -0.85264 -0.522498
    outer loop
      vertex 27.082 -16.1803 5.7443
      vertex 25.9868 -17.8201 8.42019
      vertex 25.39 -16.1803 5.7443
    endloop
  endfacet
  facet normal 0 -0.85264 -0.522498
    outer loop
      vertex 25.9868 -17.8201 8.42019
      vertex 27.082 -16.1803 5.7443
      vertex 27.6789 -17.8201 8.42019
    endloop
  endfacet
  facet normal -0 -0.85264 -0.522498
    outer loop
      vertex 44.7474 -16.1803 5.7443
      vertex 43.6522 -17.8201 8.42019
      vertex 43.0553 -16.1803 5.7443
    endloop
  endfacet
  facet normal 0 -0.85264 -0.522498
    outer loop
      vertex 43.6522 -17.8201 8.42019
      vertex 44.7474 -16.1803 5.7443
      vertex 45.3442 -17.8201 8.42019
    endloop
  endfacet
  facet normal -0 -0.85264 -0.522498
    outer loop
      vertex 62.4127 -16.1803 5.7443
      vertex 61.3175 -17.8201 8.42019
      vertex 60.7207 -16.1803 5.7443
    endloop
  endfacet
  facet normal 0 -0.85264 -0.522498
    outer loop
      vertex 61.3175 -17.8201 8.42019
      vertex 62.4127 -16.1803 5.7443
      vertex 63.0096 -17.8201 8.42019
    endloop
  endfacet
  facet normal -0 -0.85264 -0.522498
    outer loop
      vertex 80.0781 -16.1803 5.7443
      vertex 78.9829 -17.8201 8.42019
      vertex 78.386 -16.1803 5.7443
    endloop
  endfacet
  facet normal 0 -0.85264 -0.522498
    outer loop
      vertex 78.9829 -17.8201 8.42019
      vertex 80.0781 -16.1803 5.7443
      vertex 80.6749 -17.8201 8.42019
    endloop
  endfacet
  facet normal -0 -0.85264 -0.522498
    outer loop
      vertex 97.7434 -16.1803 5.7443
      vertex 96.6482 -17.8201 8.42019
      vertex 96.0514 -16.1803 5.7443
    endloop
  endfacet
  facet normal 0 -0.85264 -0.522498
    outer loop
      vertex 96.6482 -17.8201 8.42019
      vertex 97.7434 -16.1803 5.7443
      vertex 98.3403 -17.8201 8.42019
    endloop
  endfacet
  facet normal -0 -0.923879 -0.382684
    outer loop
      vertex 27.6789 -17.8201 8.42019
      vertex 26.4239 -19.0211 11.3197
      vertex 25.9868 -17.8201 8.42019
    endloop
  endfacet
  facet normal 0 -0.923879 -0.382684
    outer loop
      vertex 26.4239 -19.0211 11.3197
      vertex 27.6789 -17.8201 8.42019
      vertex 28.116 -19.0211 11.3197
    endloop
  endfacet
  facet normal -0 -0.923879 -0.382684
    outer loop
      vertex 45.3442 -17.8201 8.42019
      vertex 44.0893 -19.0211 11.3197
      vertex 43.6522 -17.8201 8.42019
    endloop
  endfacet
  facet normal 0 -0.923879 -0.382684
    outer loop
      vertex 44.0893 -19.0211 11.3197
      vertex 45.3442 -17.8201 8.42019
      vertex 45.7813 -19.0211 11.3197
    endloop
  endfacet
  facet normal -0 -0.923879 -0.382684
    outer loop
      vertex 63.0096 -17.8201 8.42019
      vertex 61.7546 -19.0211 11.3197
      vertex 61.3175 -17.8201 8.42019
    endloop
  endfacet
  facet normal 0 -0.923879 -0.382684
    outer loop
      vertex 61.7546 -19.0211 11.3197
      vertex 63.0096 -17.8201 8.42019
      vertex 63.4467 -19.0211 11.3197
    endloop
  endfacet
  facet normal -0 -0.923879 -0.382684
    outer loop
      vertex 80.6749 -17.8201 8.42019
      vertex 79.42 -19.0211 11.3197
      vertex 78.9829 -17.8201 8.42019
    endloop
  endfacet
  facet normal 0 -0.923879 -0.382684
    outer loop
      vertex 79.42 -19.0211 11.3197
      vertex 80.6749 -17.8201 8.42019
      vertex 81.112 -19.0211 11.3197
    endloop
  endfacet
  facet normal -0 -0.923879 -0.382684
    outer loop
      vertex 98.3403 -17.8201 8.42019
      vertex 97.0853 -19.0211 11.3197
      vertex 96.6482 -17.8201 8.42019
    endloop
  endfacet
  facet normal 0 -0.923879 -0.382684
    outer loop
      vertex 97.0853 -19.0211 11.3197
      vertex 98.3403 -17.8201 8.42019
      vertex 98.7774 -19.0211 11.3197
    endloop
  endfacet
  facet normal 0 -0.760406 0.649448
    outer loop
      vertex 25.39 -16.1803 29.2557
      vertex 26.3402 -14.1421 31.6421
      vertex 24.6481 -14.1421 31.6421
    endloop
  endfacet
  facet normal 0 -0.760406 0.649448
    outer loop
      vertex 26.3402 -14.1421 31.6421
      vertex 25.39 -16.1803 29.2557
      vertex 27.082 -16.1803 29.2557
    endloop
  endfacet
  facet normal 0 -0.760406 0.649448
    outer loop
      vertex 43.0553 -16.1803 29.2557
      vertex 44.0055 -14.1421 31.6421
      vertex 42.3135 -14.1421 31.6421
    endloop
  endfacet
  facet normal 0 -0.760406 0.649448
    outer loop
      vertex 44.0055 -14.1421 31.6421
      vertex 43.0553 -16.1803 29.2557
      vertex 44.7474 -16.1803 29.2557
    endloop
  endfacet
  facet normal 0 -0.760406 0.649448
    outer loop
      vertex 60.7207 -16.1803 29.2557
      vertex 61.6709 -14.1421 31.6421
      vertex 59.9788 -14.1421 31.6421
    endloop
  endfacet
  facet normal 0 -0.760406 0.649448
    outer loop
      vertex 61.6709 -14.1421 31.6421
      vertex 60.7207 -16.1803 29.2557
      vertex 62.4127 -16.1803 29.2557
    endloop
  endfacet
  facet normal 0 -0.760406 0.649448
    outer loop
      vertex 78.386 -16.1803 29.2557
      vertex 79.3362 -14.1421 31.6421
      vertex 77.6442 -14.1421 31.6421
    endloop
  endfacet
  facet normal 0 -0.760406 0.649448
    outer loop
      vertex 79.3362 -14.1421 31.6421
      vertex 78.386 -16.1803 29.2557
      vertex 80.0781 -16.1803 29.2557
    endloop
  endfacet
  facet normal 0 -0.760406 0.649448
    outer loop
      vertex 96.0514 -16.1803 29.2557
      vertex 97.0016 -14.1421 31.6421
      vertex 95.3095 -14.1421 31.6421
    endloop
  endfacet
  facet normal 0 -0.760406 0.649448
    outer loop
      vertex 97.0016 -14.1421 31.6421
      vertex 96.0514 -16.1803 29.2557
      vertex 97.7434 -16.1803 29.2557
    endloop
  endfacet
  facet normal 0 -0.923879 0.382684
    outer loop
      vertex 26.4239 -19.0211 23.6803
      vertex 27.6789 -17.8201 26.5798
      vertex 25.9868 -17.8201 26.5798
    endloop
  endfacet
  facet normal 0 -0.923879 0.382684
    outer loop
      vertex 27.6789 -17.8201 26.5798
      vertex 26.4239 -19.0211 23.6803
      vertex 28.116 -19.0211 23.6803
    endloop
  endfacet
  facet normal 0 -0.923879 0.382684
    outer loop
      vertex 44.0893 -19.0211 23.6803
      vertex 45.3442 -17.8201 26.5798
      vertex 43.6522 -17.8201 26.5798
    endloop
  endfacet
  facet normal 0 -0.923879 0.382684
    outer loop
      vertex 45.3442 -17.8201 26.5798
      vertex 44.0893 -19.0211 23.6803
      vertex 45.7813 -19.0211 23.6803
    endloop
  endfacet
  facet normal 0 -0.923879 0.382684
    outer loop
      vertex 61.7546 -19.0211 23.6803
      vertex 63.0096 -17.8201 26.5798
      vertex 61.3175 -17.8201 26.5798
    endloop
  endfacet
  facet normal 0 -0.923879 0.382684
    outer loop
      vertex 63.0096 -17.8201 26.5798
      vertex 61.7546 -19.0211 23.6803
      vertex 63.4467 -19.0211 23.6803
    endloop
  endfacet
  facet normal 0 -0.923879 0.382684
    outer loop
      vertex 79.42 -19.0211 23.6803
      vertex 80.6749 -17.8201 26.5798
      vertex 78.9829 -17.8201 26.5798
    endloop
  endfacet
  facet normal 0 -0.923879 0.382684
    outer loop
      vertex 80.6749 -17.8201 26.5798
      vertex 79.42 -19.0211 23.6803
      vertex 81.112 -19.0211 23.6803
    endloop
  endfacet
  facet normal 0 -0.923879 0.382684
    outer loop
      vertex 97.0853 -19.0211 23.6803
      vertex 98.3403 -17.8201 26.5798
      vertex 96.6482 -17.8201 26.5798
    endloop
  endfacet
  facet normal 0 -0.923879 0.382684
    outer loop
      vertex 98.3403 -17.8201 26.5798
      vertex 97.0853 -19.0211 23.6803
      vertex 98.7774 -19.0211 23.6803
    endloop
  endfacet
  facet normal 0 -0.85264 0.522498
    outer loop
      vertex 25.9868 -17.8201 26.5798
      vertex 27.082 -16.1803 29.2557
      vertex 25.39 -16.1803 29.2557
    endloop
  endfacet
  facet normal 0 -0.85264 0.522498
    outer loop
      vertex 27.082 -16.1803 29.2557
      vertex 25.9868 -17.8201 26.5798
      vertex 27.6789 -17.8201 26.5798
    endloop
  endfacet
  facet normal 0 -0.85264 0.522498
    outer loop
      vertex 43.6522 -17.8201 26.5798
      vertex 44.7474 -16.1803 29.2557
      vertex 43.0553 -16.1803 29.2557
    endloop
  endfacet
  facet normal 0 -0.85264 0.522498
    outer loop
      vertex 44.7474 -16.1803 29.2557
      vertex 43.6522 -17.8201 26.5798
      vertex 45.3442 -17.8201 26.5798
    endloop
  endfacet
  facet normal 0 -0.85264 0.522498
    outer loop
      vertex 61.3175 -17.8201 26.5798
      vertex 62.4127 -16.1803 29.2557
      vertex 60.7207 -16.1803 29.2557
    endloop
  endfacet
  facet normal 0 -0.85264 0.522498
    outer loop
      vertex 62.4127 -16.1803 29.2557
      vertex 61.3175 -17.8201 26.5798
      vertex 63.0096 -17.8201 26.5798
    endloop
  endfacet
  facet normal 0 -0.85264 0.522498
    outer loop
      vertex 78.9829 -17.8201 26.5798
      vertex 80.0781 -16.1803 29.2557
      vertex 78.386 -16.1803 29.2557
    endloop
  endfacet
  facet normal 0 -0.85264 0.522498
    outer loop
      vertex 80.0781 -16.1803 29.2557
      vertex 78.9829 -17.8201 26.5798
      vertex 80.6749 -17.8201 26.5798
    endloop
  endfacet
  facet normal 0 -0.85264 0.522498
    outer loop
      vertex 96.6482 -17.8201 26.5798
      vertex 97.7434 -16.1803 29.2557
      vertex 96.0514 -16.1803 29.2557
    endloop
  endfacet
  facet normal 0 -0.85264 0.522498
    outer loop
      vertex 97.7434 -16.1803 29.2557
      vertex 96.6482 -17.8201 26.5798
      vertex 98.3403 -17.8201 26.5798
    endloop
  endfacet
  facet normal 0 -0.649448 0.760406
    outer loop
      vertex 25.4716 -11.7557 33.6803
      vertex 24.6481 -14.1421 31.6421
      vertex 26.3402 -14.1421 31.6421
    endloop
  endfacet
  facet normal 0 -0.649448 0.760406
    outer loop
      vertex 24.6481 -14.1421 31.6421
      vertex 25.4716 -11.7557 33.6803
      vertex 23.7795 -11.7557 33.6803
    endloop
  endfacet
  facet normal 0 -0.649448 0.760406
    outer loop
      vertex 43.1369 -11.7557 33.6803
      vertex 42.3135 -14.1421 31.6421
      vertex 44.0055 -14.1421 31.6421
    endloop
  endfacet
  facet normal 0 -0.649448 0.760406
    outer loop
      vertex 42.3135 -14.1421 31.6421
      vertex 43.1369 -11.7557 33.6803
      vertex 41.4449 -11.7557 33.6803
    endloop
  endfacet
  facet normal 0 -0.649448 0.760406
    outer loop
      vertex 60.8023 -11.7557 33.6803
      vertex 59.9788 -14.1421 31.6421
      vertex 61.6709 -14.1421 31.6421
    endloop
  endfacet
  facet normal 0 -0.649448 0.760406
    outer loop
      vertex 59.9788 -14.1421 31.6421
      vertex 60.8023 -11.7557 33.6803
      vertex 59.1102 -11.7557 33.6803
    endloop
  endfacet
  facet normal 0 -0.649448 0.760406
    outer loop
      vertex 78.4676 -11.7557 33.6803
      vertex 77.6442 -14.1421 31.6421
      vertex 79.3362 -14.1421 31.6421
    endloop
  endfacet
  facet normal 0 -0.649448 0.760406
    outer loop
      vertex 77.6442 -14.1421 31.6421
      vertex 78.4676 -11.7557 33.6803
      vertex 76.7756 -11.7557 33.6803
    endloop
  endfacet
  facet normal 0 -0.649448 0.760406
    outer loop
      vertex 96.133 -11.7557 33.6803
      vertex 95.3095 -14.1421 31.6421
      vertex 97.0016 -14.1421 31.6421
    endloop
  endfacet
  facet normal 0 -0.649448 0.760406
    outer loop
      vertex 95.3095 -14.1421 31.6421
      vertex 96.133 -11.7557 33.6803
      vertex 94.4409 -11.7557 33.6803
    endloop
  endfacet
  facet normal 0 -0.522499 -0.85264
    outer loop
      vertex 23.7795 -11.7557 1.31966
      vertex 24.6878 -9.60221 5.48179e-015
      vertex 25.4716 -11.7557 1.31966
    endloop
  endfacet
  facet normal 1.89324e-016 -0.522499 -0.85264
    outer loop
      vertex 24.6878 -9.60221 5.48179e-015
      vertex 23.7795 -11.7557 1.31966
      vertex 22.9957 -9.60221 5.10608e-015
    endloop
  endfacet
  facet normal 0 -0.522499 -0.85264
    outer loop
      vertex 41.4449 -11.7557 1.31966
      vertex 42.3531 -9.60221 9.40428e-015
      vertex 43.1369 -11.7557 1.31966
    endloop
  endfacet
  facet normal 1.89324e-016 -0.522499 -0.85264
    outer loop
      vertex 42.3531 -9.60221 9.40428e-015
      vertex 41.4449 -11.7557 1.31966
      vertex 40.6611 -9.60221 9.02857e-015
    endloop
  endfacet
  facet normal 0 -0.522499 -0.85264
    outer loop
      vertex 59.1102 -11.7557 1.31966
      vertex 60.0185 -9.60221 1.33268e-014
      vertex 60.8023 -11.7557 1.31966
    endloop
  endfacet
  facet normal 1.89324e-016 -0.522499 -0.85264
    outer loop
      vertex 60.0185 -9.60221 1.33268e-014
      vertex 59.1102 -11.7557 1.31966
      vertex 58.3264 -9.60221 1.29511e-014
    endloop
  endfacet
  facet normal 0 -0.522499 -0.85264
    outer loop
      vertex 76.7756 -11.7557 1.31966
      vertex 77.6838 -9.60221 1.72493e-014
      vertex 78.4676 -11.7557 1.31966
    endloop
  endfacet
  facet normal 1.89324e-016 -0.522499 -0.85264
    outer loop
      vertex 77.6838 -9.60221 1.72493e-014
      vertex 76.7756 -11.7557 1.31966
      vertex 75.9918 -9.60221 1.68736e-014
    endloop
  endfacet
  facet normal 0 -0.522499 -0.85264
    outer loop
      vertex 94.4409 -11.7557 1.31966
      vertex 95.3492 -9.60221 2.11718e-014
      vertex 96.133 -11.7557 1.31966
    endloop
  endfacet
  facet normal 1.89324e-016 -0.522499 -0.85264
    outer loop
      vertex 95.3492 -9.60221 2.11718e-014
      vertex 94.4409 -11.7557 1.31966
      vertex 93.6571 -9.60221 2.07961e-014
    endloop
  endfacet
  facet normal -0 -0.996917 -0.0784596
    outer loop
      vertex 28.3826 -19.7538 14.3713
      vertex 26.7802 -20 17.5
      vertex 26.6906 -19.7538 14.3713
    endloop
  endfacet
  facet normal 0 -0.996917 -0.0784596
    outer loop
      vertex 26.7802 -20 17.5
      vertex 28.3826 -19.7538 14.3713
      vertex 28.4723 -20 17.5
    endloop
  endfacet
  facet normal -0 -0.996917 -0.0784596
    outer loop
      vertex 46.048 -19.7538 14.3713
      vertex 44.4456 -20 17.5
      vertex 44.3559 -19.7538 14.3713
    endloop
  endfacet
  facet normal 0 -0.996917 -0.0784596
    outer loop
      vertex 44.4456 -20 17.5
      vertex 46.048 -19.7538 14.3713
      vertex 46.1376 -20 17.5
    endloop
  endfacet
  facet normal -0 -0.996917 -0.0784596
    outer loop
      vertex 63.7133 -19.7538 14.3713
      vertex 62.1109 -20 17.5
      vertex 62.0213 -19.7538 14.3713
    endloop
  endfacet
  facet normal 0 -0.996917 -0.0784596
    outer loop
      vertex 62.1109 -20 17.5
      vertex 63.7133 -19.7538 14.3713
      vertex 63.803 -20 17.5
    endloop
  endfacet
  facet normal -0 -0.996917 -0.0784596
    outer loop
      vertex 81.3787 -19.7538 14.3713
      vertex 79.7763 -20 17.5
      vertex 79.6866 -19.7538 14.3713
    endloop
  endfacet
  facet normal 0 -0.996917 -0.0784596
    outer loop
      vertex 79.7763 -20 17.5
      vertex 81.3787 -19.7538 14.3713
      vertex 81.4683 -20 17.5
    endloop
  endfacet
  facet normal -0 -0.996917 -0.0784596
    outer loop
      vertex 99.044 -19.7538 14.3713
      vertex 97.4416 -20 17.5
      vertex 97.352 -19.7538 14.3713
    endloop
  endfacet
  facet normal 0 -0.996917 -0.0784596
    outer loop
      vertex 97.4416 -20 17.5
      vertex 99.044 -19.7538 14.3713
      vertex 99.1337 -20 17.5
    endloop
  endfacet
  facet normal -0 -0.760406 -0.649448
    outer loop
      vertex 26.3402 -14.1421 3.35786
      vertex 25.39 -16.1803 5.7443
      vertex 24.6481 -14.1421 3.35786
    endloop
  endfacet
  facet normal 0 -0.760406 -0.649448
    outer loop
      vertex 25.39 -16.1803 5.7443
      vertex 26.3402 -14.1421 3.35786
      vertex 27.082 -16.1803 5.7443
    endloop
  endfacet
  facet normal -0 -0.760406 -0.649448
    outer loop
      vertex 44.0055 -14.1421 3.35786
      vertex 43.0553 -16.1803 5.7443
      vertex 42.3135 -14.1421 3.35786
    endloop
  endfacet
  facet normal 0 -0.760406 -0.649448
    outer loop
      vertex 43.0553 -16.1803 5.7443
      vertex 44.0055 -14.1421 3.35786
      vertex 44.7474 -16.1803 5.7443
    endloop
  endfacet
  facet normal -0 -0.760406 -0.649448
    outer loop
      vertex 61.6709 -14.1421 3.35786
      vertex 60.7207 -16.1803 5.7443
      vertex 59.9788 -14.1421 3.35786
    endloop
  endfacet
  facet normal 0 -0.760406 -0.649448
    outer loop
      vertex 60.7207 -16.1803 5.7443
      vertex 61.6709 -14.1421 3.35786
      vertex 62.4127 -16.1803 5.7443
    endloop
  endfacet
  facet normal -0 -0.760406 -0.649448
    outer loop
      vertex 79.3362 -14.1421 3.35786
      vertex 78.386 -16.1803 5.7443
      vertex 77.6442 -14.1421 3.35786
    endloop
  endfacet
  facet normal 0 -0.760406 -0.649448
    outer loop
      vertex 78.386 -16.1803 5.7443
      vertex 79.3362 -14.1421 3.35786
      vertex 80.0781 -16.1803 5.7443
    endloop
  endfacet
  facet normal -0 -0.760406 -0.649448
    outer loop
      vertex 97.0016 -14.1421 3.35786
      vertex 96.0514 -16.1803 5.7443
      vertex 95.3095 -14.1421 3.35786
    endloop
  endfacet
  facet normal 0 -0.760406 -0.649448
    outer loop
      vertex 96.0514 -16.1803 5.7443
      vertex 97.0016 -14.1421 3.35786
      vertex 97.7434 -16.1803 5.7443
    endloop
  endfacet
  facet normal -0 -0.97237 -0.233445
    outer loop
      vertex 28.116 -19.0211 11.3197
      vertex 26.6906 -19.7538 14.3713
      vertex 26.4239 -19.0211 11.3197
    endloop
  endfacet
  facet normal 0 -0.97237 -0.233445
    outer loop
      vertex 26.6906 -19.7538 14.3713
      vertex 28.116 -19.0211 11.3197
      vertex 28.3826 -19.7538 14.3713
    endloop
  endfacet
  facet normal -0 -0.97237 -0.233445
    outer loop
      vertex 45.7813 -19.0211 11.3197
      vertex 44.3559 -19.7538 14.3713
      vertex 44.0893 -19.0211 11.3197
    endloop
  endfacet
  facet normal 0 -0.97237 -0.233445
    outer loop
      vertex 44.3559 -19.7538 14.3713
      vertex 45.7813 -19.0211 11.3197
      vertex 46.048 -19.7538 14.3713
    endloop
  endfacet
  facet normal -0 -0.97237 -0.233445
    outer loop
      vertex 63.4467 -19.0211 11.3197
      vertex 62.0213 -19.7538 14.3713
      vertex 61.7546 -19.0211 11.3197
    endloop
  endfacet
  facet normal 0 -0.97237 -0.233445
    outer loop
      vertex 62.0213 -19.7538 14.3713
      vertex 63.4467 -19.0211 11.3197
      vertex 63.7133 -19.7538 14.3713
    endloop
  endfacet
  facet normal -0 -0.97237 -0.233445
    outer loop
      vertex 81.112 -19.0211 11.3197
      vertex 79.6866 -19.7538 14.3713
      vertex 79.42 -19.0211 11.3197
    endloop
  endfacet
  facet normal 0 -0.97237 -0.233445
    outer loop
      vertex 79.6866 -19.7538 14.3713
      vertex 81.112 -19.0211 11.3197
      vertex 81.3787 -19.7538 14.3713
    endloop
  endfacet
  facet normal -0 -0.97237 -0.233445
    outer loop
      vertex 98.7774 -19.0211 11.3197
      vertex 97.352 -19.7538 14.3713
      vertex 97.0853 -19.0211 11.3197
    endloop
  endfacet
  facet normal 0 -0.97237 -0.233445
    outer loop
      vertex 97.352 -19.7538 14.3713
      vertex 98.7774 -19.0211 11.3197
      vertex 99.044 -19.7538 14.3713
    endloop
  endfacet
  facet normal 0 -0.996917 0.0784596
    outer loop
      vertex 26.7802 -20 17.5
      vertex 28.3826 -19.7538 20.6287
      vertex 26.6906 -19.7538 20.6287
    endloop
  endfacet
  facet normal 0 -0.996917 0.0784596
    outer loop
      vertex 28.3826 -19.7538 20.6287
      vertex 26.7802 -20 17.5
      vertex 28.4723 -20 17.5
    endloop
  endfacet
  facet normal 0 -0.996917 0.0784596
    outer loop
      vertex 44.4456 -20 17.5
      vertex 46.048 -19.7538 20.6287
      vertex 44.3559 -19.7538 20.6287
    endloop
  endfacet
  facet normal 0 -0.996917 0.0784596
    outer loop
      vertex 46.048 -19.7538 20.6287
      vertex 44.4456 -20 17.5
      vertex 46.1376 -20 17.5
    endloop
  endfacet
  facet normal 0 -0.996917 0.0784596
    outer loop
      vertex 62.1109 -20 17.5
      vertex 63.7133 -19.7538 20.6287
      vertex 62.0213 -19.7538 20.6287
    endloop
  endfacet
  facet normal 0 -0.996917 0.0784596
    outer loop
      vertex 63.7133 -19.7538 20.6287
      vertex 62.1109 -20 17.5
      vertex 63.803 -20 17.5
    endloop
  endfacet
  facet normal 0 -0.996917 0.0784596
    outer loop
      vertex 79.7763 -20 17.5
      vertex 81.3787 -19.7538 20.6287
      vertex 79.6866 -19.7538 20.6287
    endloop
  endfacet
  facet normal 0 -0.996917 0.0784596
    outer loop
      vertex 81.3787 -19.7538 20.6287
      vertex 79.7763 -20 17.5
      vertex 81.4683 -20 17.5
    endloop
  endfacet
  facet normal 0 -0.996917 0.0784596
    outer loop
      vertex 97.4416 -20 17.5
      vertex 99.044 -19.7538 20.6287
      vertex 97.352 -19.7538 20.6287
    endloop
  endfacet
  facet normal 0 -0.996917 0.0784596
    outer loop
      vertex 99.044 -19.7538 20.6287
      vertex 97.4416 -20 17.5
      vertex 99.1337 -20 17.5
    endloop
  endfacet
  facet normal -0 0 1
    outer loop
      vertex 90.5942 -1.18698 35
      vertex 108.255 -1.18869 35
      vertex 104.327 9.60221 35
    endloop
  endfacet
  facet normal 0 0 1
    outer loop
      vertex 94.1548 -6.3207 35
      vertex 90.5942 -1.18698 35
      vertex 93.6571 -9.60221 35
    endloop
  endfacet
  facet normal 0 0 1
    outer loop
      vertex 108.255 -1.18869 35
      vertex 90.5942 -1.18698 35
      vertex 94.1548 -6.3207 35
    endloop
  endfacet
  facet normal 0 0 1
    outer loop
      vertex 72.9289 -1.18698 35
      vertex 90.5942 -1.18698 35
      vertex 104.327 9.60221 35
    endloop
  endfacet
  facet normal 0 0 1
    outer loop
      vertex 76.4895 -6.3207 35
      vertex 72.9289 -1.18698 35
      vertex 75.9918 -9.60221 35
    endloop
  endfacet
  facet normal 0 0 1
    outer loop
      vertex 90.5942 -1.18698 35
      vertex 72.9289 -1.18698 35
      vertex 76.4895 -6.3207 35
    endloop
  endfacet
  facet normal 0 0 1
    outer loop
      vertex 58.8241 -6.3207 35
      vertex 55.2635 -1.18698 35
      vertex 58.3264 -9.60221 35
    endloop
  endfacet
  facet normal 0 0 1
    outer loop
      vertex 72.9289 -1.18698 35
      vertex 55.2635 -1.18698 35
      vertex 58.8241 -6.3207 35
    endloop
  endfacet
  facet normal 0 0 1
    outer loop
      vertex 104.327 9.60221 35
      vertex 55.2635 -1.18698 35
      vertex 72.9289 -1.18698 35
    endloop
  endfacet
  facet normal 0 0 1
    outer loop
      vertex 41.1588 -6.3207 35
      vertex 37.5982 -1.18698 35
      vertex 40.6611 -9.60221 35
    endloop
  endfacet
  facet normal 0 0 1
    outer loop
      vertex 55.2635 -1.18698 35
      vertex 37.5982 -1.18698 35
      vertex 41.1588 -6.3207 35
    endloop
  endfacet
  facet normal -0 0 1
    outer loop
      vertex 0.0379042 9.60221 35
      vertex 55.2635 -1.18698 35
      vertex 104.327 9.60221 35
    endloop
  endfacet
  facet normal 0 0 1
    outer loop
      vertex 23.4934 -6.3207 35
      vertex 19.9328 -1.18698 35
      vertex 22.9957 -9.60221 35
    endloop
  endfacet
  facet normal 0 0 1
    outer loop
      vertex 37.5982 -1.18698 35
      vertex 19.9328 -1.18698 35
      vertex 23.4934 -6.3207 35
    endloop
  endfacet
  facet normal 0 0 1
    outer loop
      vertex 55.2635 -1.18698 35
      vertex 5.06667 7.48101 35
      vertex 37.5982 -1.18698 35
    endloop
  endfacet
  facet normal 0 0 1
    outer loop
      vertex 37.5982 -1.18698 35
      vertex 5.06667 7.48101 35
      vertex 19.9328 -1.18698 35
    endloop
  endfacet
  facet normal 0 0 1
    outer loop
      vertex 19.9328 -1.18698 35
      vertex 5.06667 7.48101 35
      vertex 7.11879 1.84285 35
    endloop
  endfacet
  facet normal 0 0 1
    outer loop
      vertex 5.06667 7.48101 35
      vertex 0.0379042 9.60221 35
      vertex 1.64992 5.17324 35
    endloop
  endfacet
  facet normal 0 0 1
    outer loop
      vertex 55.2635 -1.18698 35
      vertex 0.0379042 9.60221 35
      vertex 5.06667 7.48101 35
    endloop
  endfacet
  facet normal 0 0 1
    outer loop
      vertex 95.3492 -9.60221 35
      vertex 94.1548 -6.3207 35
      vertex 93.6571 -9.60221 35
    endloop
  endfacet
  facet normal 0 0 1
    outer loop
      vertex 77.6838 -9.60221 35
      vertex 76.4895 -6.3207 35
      vertex 75.9918 -9.60221 35
    endloop
  endfacet
  facet normal 0 0 1
    outer loop
      vertex 60.0185 -9.60221 35
      vertex 58.8241 -6.3207 35
      vertex 58.3264 -9.60221 35
    endloop
  endfacet
  facet normal 0 0 1
    outer loop
      vertex 42.3531 -9.60221 35
      vertex 41.1588 -6.3207 35
      vertex 40.6611 -9.60221 35
    endloop
  endfacet
  facet normal 0 0 1
    outer loop
      vertex 24.6878 -9.60221 35
      vertex 23.4934 -6.3207 35
      vertex 22.9957 -9.60221 35
    endloop
  endfacet
  facet normal 0 0 1
    outer loop
      vertex 7.11879 1.84285 35
      vertex 5.83275 -6.31899 35
      vertex 19.9328 -1.18698 35
    endloop
  endfacet
  facet normal 0 -0 1
    outer loop
      vertex 5.83275 -6.31899 35
      vertex 7.11879 1.84285 35
      vertex 3.018 1.41447 35
    endloop
  endfacet
  facet normal 2.22045e-016 0 -1
    outer loop
      vertex 24.6878 -9.60221 5.48179e-015
      vertex 22.9957 -9.60221 5.10608e-015
      vertex 23.4934 -6.3207 5.21658e-015
    endloop
  endfacet
  facet normal 2.22045e-016 0 -1
    outer loop
      vertex 42.3531 -9.60221 9.40428e-015
      vertex 40.6611 -9.60221 9.02857e-015
      vertex 41.1588 -6.3207 9.13908e-015
    endloop
  endfacet
  facet normal 2.22045e-016 0 -1
    outer loop
      vertex 60.0185 -9.60221 1.33268e-014
      vertex 58.3264 -9.60221 1.29511e-014
      vertex 58.8241 -6.3207 1.30616e-014
    endloop
  endfacet
  facet normal 2.22045e-016 0 -1
    outer loop
      vertex 77.6838 -9.60221 1.72493e-014
      vertex 75.9918 -9.60221 1.68736e-014
      vertex 76.4895 -6.3207 1.69841e-014
    endloop
  endfacet
  facet normal 2.22045e-016 0 -1
    outer loop
      vertex 95.3492 -9.60221 2.11718e-014
      vertex 93.6571 -9.60221 2.07961e-014
      vertex 94.1548 -6.3207 2.09066e-014
    endloop
  endfacet
  facet normal 2.22045e-016 0 -1
    outer loop
      vertex 90.5942 -1.18698 2.0116e-014
      vertex 108.255 -1.18869 2.40374e-014
      vertex 94.1548 -6.3207 2.09066e-014
    endloop
  endfacet
  facet normal 2.22045e-016 0 -1
    outer loop
      vertex 90.5942 -1.18698 2.0116e-014
      vertex 94.1548 -6.3207 2.09066e-014
      vertex 93.6571 -9.60221 2.07961e-014
    endloop
  endfacet
  facet normal 2.22045e-016 0 -1
    outer loop
      vertex 108.255 -1.18869 2.40374e-014
      vertex 90.5942 -1.18698 2.0116e-014
      vertex 104.327 9.60221 2.31653e-014
    endloop
  endfacet
  facet normal 2.22045e-016 0 -1
    outer loop
      vertex 72.9289 -1.18698 1.61935e-014
      vertex 90.5942 -1.18698 2.0116e-014
      vertex 76.4895 -6.3207 1.69841e-014
    endloop
  endfacet
  facet normal 2.22045e-016 0 -1
    outer loop
      vertex 72.9289 -1.18698 1.61935e-014
      vertex 76.4895 -6.3207 1.69841e-014
      vertex 75.9918 -9.60221 1.68736e-014
    endloop
  endfacet
  facet normal 2.22045e-016 0 -1
    outer loop
      vertex 90.5942 -1.18698 2.0116e-014
      vertex 72.9289 -1.18698 1.61935e-014
      vertex 104.327 9.60221 2.31653e-014
    endloop
  endfacet
  facet normal 2.22045e-016 0 -1
    outer loop
      vertex 55.2635 -1.18698 1.2271e-014
      vertex 58.8241 -6.3207 1.30616e-014
      vertex 58.3264 -9.60221 1.29511e-014
    endloop
  endfacet
  facet normal 2.22045e-016 0 -1
    outer loop
      vertex 55.2635 -1.18698 1.2271e-014
      vertex 72.9289 -1.18698 1.61935e-014
      vertex 58.8241 -6.3207 1.30616e-014
    endloop
  endfacet
  facet normal 2.22045e-016 0 -1
    outer loop
      vertex 55.2635 -1.18698 1.2271e-014
      vertex 104.327 9.60221 2.31653e-014
      vertex 72.9289 -1.18698 1.61935e-014
    endloop
  endfacet
  facet normal 2.22045e-016 0 -1
    outer loop
      vertex 37.5982 -1.18698 8.34848e-015
      vertex 41.1588 -6.3207 9.13908e-015
      vertex 40.6611 -9.60221 9.02857e-015
    endloop
  endfacet
  facet normal 2.22045e-016 0 -1
    outer loop
      vertex 37.5982 -1.18698 8.34848e-015
      vertex 55.2635 -1.18698 1.2271e-014
      vertex 41.1588 -6.3207 9.13908e-015
    endloop
  endfacet
  facet normal 2.22045e-016 0 -1
    outer loop
      vertex 5.06667 7.48101 1.12503e-015
      vertex 55.2635 -1.18698 1.2271e-014
      vertex 37.5982 -1.18698 8.34848e-015
    endloop
  endfacet
  facet normal 2.22045e-016 0 -1
    outer loop
      vertex 19.9328 -1.18698 4.42598e-015
      vertex 23.4934 -6.3207 5.21658e-015
      vertex 22.9957 -9.60221 5.10608e-015
    endloop
  endfacet
  facet normal 2.22045e-016 0 -1
    outer loop
      vertex 19.9328 -1.18698 4.42598e-015
      vertex 37.5982 -1.18698 8.34848e-015
      vertex 23.4934 -6.3207 5.21658e-015
    endloop
  endfacet
  facet normal 2.22045e-016 0 -1
    outer loop
      vertex 5.06667 7.48101 1.12503e-015
      vertex 37.5982 -1.18698 8.34848e-015
      vertex 19.9328 -1.18698 4.42598e-015
    endloop
  endfacet
  facet normal 2.22045e-016 0 -1
    outer loop
      vertex 5.06667 7.48101 1.12503e-015
      vertex 19.9328 -1.18698 4.42598e-015
      vertex 7.11879 1.84285 1.58069e-015
    endloop
  endfacet
  facet normal 2.22045e-016 0 -1
    outer loop
      vertex 0.0379042 9.60221 8.41643e-018
      vertex 55.2635 -1.18698 1.2271e-014
      vertex 5.06667 7.48101 1.12503e-015
    endloop
  endfacet
  facet normal 2.22045e-016 0 -1
    outer loop
      vertex 55.2635 -1.18698 1.2271e-014
      vertex 0.0379042 9.60221 8.41643e-018
      vertex 104.327 9.60221 2.31653e-014
    endloop
  endfacet
  facet normal 2.22045e-016 0 -1
    outer loop
      vertex 0.0379042 9.60221 8.41643e-018
      vertex 5.06667 7.48101 1.12503e-015
      vertex 1.64992 5.17324 3.66356e-016
    endloop
  endfacet
  facet normal 2.22045e-016 0 -1
    outer loop
      vertex 5.83275 -6.31899 1.29513e-015
      vertex 7.11879 1.84285 1.58069e-015
      vertex 19.9328 -1.18698 4.42598e-015
    endloop
  endfacet
  facet normal 2.22045e-016 0 -1
    outer loop
      vertex 7.11879 1.84285 1.58069e-015
      vertex 5.83275 -6.31899 1.29513e-015
      vertex 3.018 1.41447 6.70131e-016
    endloop
  endfacet
  facet normal 0 1 -0
    outer loop
      vertex 104.001 10.5 0.550163
      vertex -3.76362e-015 10.5 34.4498
      vertex 104.001 10.5 34.4498
    endloop
  endfacet
  facet normal 0 1 0
    outer loop
      vertex -3.76362e-015 10.5 34.4498
      vertex 104.001 10.5 0.550163
      vertex 3.76362e-015 10.5 0.550163
    endloop
  endfacet
  facet normal -0.939693 -0.34202 1.40836e-006
    outer loop
      vertex 23.7795 -11.7557 1.31966
      vertex 19.9328 -1.18698 4.42598e-015
      vertex 22.9957 -9.60221 5.10608e-015
    endloop
  endfacet
  facet normal -0.939693 -0.34202 2.84841e-007
    outer loop
      vertex 25.39 -16.1803 5.7443
      vertex 19.9328 -1.18698 4.42598e-015
      vertex 24.6481 -14.1421 3.35786
    endloop
  endfacet
  facet normal -0.939693 -0.34202 -1.28937e-007
    outer loop
      vertex 19.9328 -1.18698 4.42598e-015
      vertex 23.7795 -11.7557 1.31966
      vertex 24.6481 -14.1421 3.35786
    endloop
  endfacet
  facet normal -0.939693 -0.34202 -1.68538e-007
    outer loop
      vertex 25.9868 -17.8201 8.42019
      vertex 19.9328 -1.18698 4.42598e-015
      vertex 25.39 -16.1803 5.7443
    endloop
  endfacet
  facet normal -0.939693 -0.34202 3.61499e-007
    outer loop
      vertex 23.7795 -11.7557 33.6803
      vertex 19.9328 -1.18698 35
      vertex 24.6481 -14.1421 31.6421
    endloop
  endfacet
  facet normal -0.939693 -0.34202 -1.0608e-006
    outer loop
      vertex 19.9328 -1.18698 35
      vertex 23.7795 -11.7557 33.6803
      vertex 22.9957 -9.60221 35
    endloop
  endfacet
  facet normal -0.939693 -0.34202 -8.21695e-008
    outer loop
      vertex 26.4239 -19.0211 11.3197
      vertex 19.9328 -1.18698 4.42598e-015
      vertex 25.9868 -17.8201 8.42019
    endloop
  endfacet
  facet normal -0.939693 -0.34202 -1.33087e-007
    outer loop
      vertex 19.9328 -1.18698 35
      vertex 25.39 -16.1803 29.2557
      vertex 24.6481 -14.1421 31.6421
    endloop
  endfacet
  facet normal -0.939693 -0.34202 4.77717e-007
    outer loop
      vertex 26.6906 -19.7538 14.3713
      vertex 19.9328 -1.18698 4.42598e-015
      vertex 26.4239 -19.0211 11.3197
    endloop
  endfacet
  facet normal -0.939693 -0.34202 2.64268e-007
    outer loop
      vertex 19.9328 -1.18698 35
      vertex 25.9868 -17.8201 26.5798
      vertex 25.39 -16.1803 29.2557
    endloop
  endfacet
  facet normal -0.939692 -0.34202 -5.06545e-007
    outer loop
      vertex 26.7802 -20 17.5
      vertex 19.9328 -1.18698 4.42598e-015
      vertex 26.6906 -19.7538 14.3713
    endloop
  endfacet
  facet normal -0.939693 -0.34202 1.38646e-007
    outer loop
      vertex 19.9328 -1.18698 35
      vertex 26.4239 -19.0211 23.6803
      vertex 25.9868 -17.8201 26.5798
    endloop
  endfacet
  facet normal -0.939693 -0.34202 -5.12092e-008
    outer loop
      vertex 19.9328 -1.18698 4.42598e-015
      vertex 26.7802 -20 17.5
      vertex 19.9328 -1.18698 35
    endloop
  endfacet
  facet normal -0.939693 -0.34202 -4.49252e-007
    outer loop
      vertex 19.9328 -1.18698 35
      vertex 26.6906 -19.7538 20.6287
      vertex 26.4239 -19.0211 23.6803
    endloop
  endfacet
  facet normal -0.939692 -0.342021 5.14635e-007
    outer loop
      vertex 19.9328 -1.18698 35
      vertex 26.7802 -20 17.5
      vertex 26.6906 -19.7538 20.6287
    endloop
  endfacet
  facet normal 0.34202 -0.939693 1.86386e-008
    outer loop
      vertex 5.83275 -6.31899 35
      vertex 19.9328 -1.18698 4.42598e-015
      vertex 19.9328 -1.18698 35
    endloop
  endfacet
  facet normal 0.34202 -0.939693 0
    outer loop
      vertex 19.9328 -1.18698 4.42598e-015
      vertex 5.83275 -6.31899 35
      vertex 5.83275 -6.31899 1.29513e-015
    endloop
  endfacet
  facet normal -0.939693 -0.34202 5.01918e-008
    outer loop
      vertex 41.4449 -11.7557 1.31966
      vertex 37.5982 -1.18698 8.34848e-015
      vertex 40.6611 -9.60221 9.02857e-015
    endloop
  endfacet
  facet normal -0.939693 -0.34202 -6.79734e-007
    outer loop
      vertex 43.0553 -16.1803 5.7443
      vertex 37.5982 -1.18698 8.34848e-015
      vertex 42.3135 -14.1421 3.35786
    endloop
  endfacet
  facet normal -0.939693 -0.34202 1.13356e-006
    outer loop
      vertex 37.5982 -1.18698 8.34848e-015
      vertex 41.4449 -11.7557 1.31966
      vertex 42.3135 -14.1421 3.35786
    endloop
  endfacet
  facet normal -0.939693 -0.34202 8.02496e-007
    outer loop
      vertex 43.6522 -17.8201 8.42019
      vertex 37.5982 -1.18698 8.34848e-015
      vertex 43.0553 -16.1803 5.7443
    endloop
  endfacet
  facet normal -0.939693 -0.34202 -6.68439e-007
    outer loop
      vertex 41.4449 -11.7557 33.6803
      vertex 37.5982 -1.18698 35
      vertex 42.3135 -14.1421 31.6421
    endloop
  endfacet
  facet normal -0.939693 -0.34202 6.44929e-007
    outer loop
      vertex 37.5982 -1.18698 35
      vertex 41.4449 -11.7557 33.6803
      vertex 40.6611 -9.60221 35
    endloop
  endfacet
  facet normal -0.939692 -0.34202 -8.64334e-007
    outer loop
      vertex 44.0893 -19.0211 11.3197
      vertex 37.5982 -1.18698 8.34848e-015
      vertex 43.6522 -17.8201 8.42019
    endloop
  endfacet
  facet normal -0.939692 -0.342021 9.83242e-007
    outer loop
      vertex 37.5982 -1.18698 35
      vertex 43.0553 -16.1803 29.2557
      vertex 42.3135 -14.1421 31.6421
    endloop
  endfacet
  facet normal -0.939693 -0.34202 5.06182e-007
    outer loop
      vertex 44.3559 -19.7538 14.3713
      vertex 37.5982 -1.18698 8.34848e-015
      vertex 44.0893 -19.0211 11.3197
    endloop
  endfacet
  facet normal -0.939693 -0.34202 -6.11036e-007
    outer loop
      vertex 37.5982 -1.18698 35
      vertex 43.6522 -17.8201 26.5798
      vertex 43.0553 -16.1803 29.2557
    endloop
  endfacet
  facet normal -0.939693 -0.34202 1.11574e-007
    outer loop
      vertex 44.4456 -20 17.5
      vertex 37.5982 -1.18698 8.34848e-015
      vertex 44.3559 -19.7538 14.3713
    endloop
  endfacet
  facet normal -0.939692 -0.342021 9.77287e-007
    outer loop
      vertex 37.5982 -1.18698 35
      vertex 44.0893 -19.0211 23.6803
      vertex 43.6522 -17.8201 26.5798
    endloop
  endfacet
  facet normal -0.939693 -0.34202 -1.02418e-007
    outer loop
      vertex 37.5982 -1.18698 8.34848e-015
      vertex 44.4456 -20 17.5
      vertex 37.5982 -1.18698 35
    endloop
  endfacet
  facet normal -0.939693 -0.34202 -4.49252e-007
    outer loop
      vertex 37.5982 -1.18698 35
      vertex 44.3559 -19.7538 20.6287
      vertex 44.0893 -19.0211 23.6803
    endloop
  endfacet
  facet normal -0.939693 -0.34202 -9.53936e-008
    outer loop
      vertex 37.5982 -1.18698 35
      vertex 44.4456 -20 17.5
      vertex 44.3559 -19.7538 20.6287
    endloop
  endfacet
  facet normal 0.34202 -0.939693 3.72772e-008
    outer loop
      vertex 23.4934 -6.3207 35
      vertex 37.5982 -1.18698 8.34848e-015
      vertex 37.5982 -1.18698 35
    endloop
  endfacet
  facet normal 0.34202 -0.939693 0
    outer loop
      vertex 37.5982 -1.18698 8.34848e-015
      vertex 23.4934 -6.3207 35
      vertex 23.4934 -6.3207 5.21658e-015
    endloop
  endfacet
  facet normal 0.939693 0.34202 1.33172e-006
    outer loop
      vertex 25.4716 -11.7557 33.6803
      vertex 23.4934 -6.3207 35
      vertex 24.6878 -9.60221 35
    endloop
  endfacet
  facet normal 0.939692 0.342021 -1.00258e-006
    outer loop
      vertex 27.082 -16.1803 29.2557
      vertex 23.4934 -6.3207 35
      vertex 26.3402 -14.1421 31.6421
    endloop
  endfacet
  facet normal 0.939693 0.34202 -4.71944e-007
    outer loop
      vertex 23.4934 -6.3207 35
      vertex 25.4716 -11.7557 33.6803
      vertex 26.3402 -14.1421 31.6421
    endloop
  endfacet
  facet normal 0.939693 0.34202 9.03302e-007
    outer loop
      vertex 27.6789 -17.8201 26.5798
      vertex 23.4934 -6.3207 35
      vertex 27.082 -16.1803 29.2557
    endloop
  endfacet
  facet normal 0.939693 0.34202 4.71944e-007
    outer loop
      vertex 25.4716 -11.7557 1.31966
      vertex 23.4934 -6.3207 5.21658e-015
      vertex 26.3402 -14.1421 3.35786
    endloop
  endfacet
  facet normal 0.939693 0.34202 -1.33172e-006
    outer loop
      vertex 23.4934 -6.3207 5.21658e-015
      vertex 25.4716 -11.7557 1.31966
      vertex 24.6878 -9.60221 5.48179e-015
    endloop
  endfacet
  facet normal 0.939693 0.34202 -1.47119e-007
    outer loop
      vertex 28.116 -19.0211 23.6803
      vertex 23.4934 -6.3207 35
      vertex 27.6789 -17.8201 26.5798
    endloop
  endfacet
  facet normal 0.939692 0.342021 1.00258e-006
    outer loop
      vertex 23.4934 -6.3207 5.21658e-015
      vertex 27.082 -16.1803 5.7443
      vertex 26.3402 -14.1421 3.35786
    endloop
  endfacet
  facet normal 0.939693 0.34202 -2.55836e-007
    outer loop
      vertex 28.3826 -19.7538 20.6287
      vertex 23.4934 -6.3207 35
      vertex 28.116 -19.0211 23.6803
    endloop
  endfacet
  facet normal 0.939693 0.34202 -9.03302e-007
    outer loop
      vertex 23.4934 -6.3207 5.21658e-015
      vertex 27.6789 -17.8201 8.42019
      vertex 27.082 -16.1803 5.7443
    endloop
  endfacet
  facet normal 0.939693 0.34202 0
    outer loop
      vertex 23.4934 -6.3207 35
      vertex 28.3826 -19.7538 20.6287
      vertex 23.4934 -6.3207 5.21658e-015
    endloop
  endfacet
  facet normal 0.939693 0.34202 1.47119e-007
    outer loop
      vertex 23.4934 -6.3207 5.21658e-015
      vertex 28.116 -19.0211 11.3197
      vertex 27.6789 -17.8201 8.42019
    endloop
  endfacet
  facet normal 0.939693 0.34202 8.91168e-008
    outer loop
      vertex 28.4723 -20 17.5
      vertex 23.4934 -6.3207 5.21658e-015
      vertex 28.3826 -19.7538 20.6287
    endloop
  endfacet
  facet normal 0.939693 0.34202 2.55836e-007
    outer loop
      vertex 23.4934 -6.3207 5.21658e-015
      vertex 28.3826 -19.7538 14.3713
      vertex 28.116 -19.0211 11.3197
    endloop
  endfacet
  facet normal 0.939693 0.34202 -1.09071e-007
    outer loop
      vertex 23.4934 -6.3207 5.21658e-015
      vertex 28.4723 -20 17.5
      vertex 28.3826 -19.7538 14.3713
    endloop
  endfacet
  facet normal -0.939693 -0.34202 -6.44929e-007
    outer loop
      vertex 59.1102 -11.7557 1.31966
      vertex 55.2635 -1.18698 1.2271e-014
      vertex 58.3264 -9.60221 1.29511e-014
    endloop
  endfacet
  facet normal -0.939693 -0.34202 1.24942e-006
    outer loop
      vertex 60.7207 -16.1803 5.7443
      vertex 55.2635 -1.18698 1.2271e-014
      vertex 59.9788 -14.1421 3.35786
    endloop
  endfacet
  facet normal -0.939693 -0.34202 -1.39144e-006
    outer loop
      vertex 55.2635 -1.18698 1.2271e-014
      vertex 59.1102 -11.7557 1.31966
      vertex 59.9788 -14.1421 3.35786
    endloop
  endfacet
  facet normal -0.939693 -0.34202 6.11036e-007
    outer loop
      vertex 61.3175 -17.8201 8.42019
      vertex 55.2635 -1.18698 1.2271e-014
      vertex 60.7207 -16.1803 5.7443
    endloop
  endfacet
  facet normal -0.939693 -0.34202 1.39144e-006
    outer loop
      vertex 59.1102 -11.7557 33.6803
      vertex 55.2635 -1.18698 35
      vertex 59.9788 -14.1421 31.6421
    endloop
  endfacet
  facet normal -0.939693 -0.34202 6.44929e-007
    outer loop
      vertex 55.2635 -1.18698 35
      vertex 59.1102 -11.7557 33.6803
      vertex 58.3264 -9.60221 35
    endloop
  endfacet
  facet normal -0.939692 -0.342021 -9.77287e-007
    outer loop
      vertex 61.7546 -19.0211 11.3197
      vertex 55.2635 -1.18698 1.2271e-014
      vertex 61.3175 -17.8201 8.42019
    endloop
  endfacet
  facet normal -0.939693 -0.34202 -1.24942e-006
    outer loop
      vertex 55.2635 -1.18698 35
      vertex 60.7207 -16.1803 29.2557
      vertex 59.9788 -14.1421 31.6421
    endloop
  endfacet
  facet normal -0.939693 -0.34202 4.49252e-007
    outer loop
      vertex 62.0213 -19.7538 14.3713
      vertex 55.2635 -1.18698 1.2271e-014
      vertex 61.7546 -19.0211 11.3197
    endloop
  endfacet
  facet normal -0.939693 -0.34202 -6.11036e-007
    outer loop
      vertex 55.2635 -1.18698 35
      vertex 61.3175 -17.8201 26.5798
      vertex 60.7207 -16.1803 29.2557
    endloop
  endfacet
  facet normal -0.939693 -0.34202 9.53936e-008
    outer loop
      vertex 62.1109 -20 17.5
      vertex 55.2635 -1.18698 1.2271e-014
      vertex 62.0213 -19.7538 14.3713
    endloop
  endfacet
  facet normal -0.939692 -0.342021 9.77287e-007
    outer loop
      vertex 55.2635 -1.18698 35
      vertex 61.7546 -19.0211 23.6803
      vertex 61.3175 -17.8201 26.5798
    endloop
  endfacet
  facet normal -0.939693 -0.34202 0
    outer loop
      vertex 55.2635 -1.18698 1.2271e-014
      vertex 62.1109 -20 17.5
      vertex 55.2635 -1.18698 35
    endloop
  endfacet
  facet normal -0.939693 -0.34202 -4.49252e-007
    outer loop
      vertex 55.2635 -1.18698 35
      vertex 62.0213 -19.7538 20.6287
      vertex 61.7546 -19.0211 23.6803
    endloop
  endfacet
  facet normal -0.939693 -0.34202 -9.53936e-008
    outer loop
      vertex 55.2635 -1.18698 35
      vertex 62.1109 -20 17.5
      vertex 62.0213 -19.7538 20.6287
    endloop
  endfacet
  facet normal 0.34202 -0.939693 0
    outer loop
      vertex 41.1588 -6.3207 35
      vertex 55.2635 -1.18698 1.2271e-014
      vertex 55.2635 -1.18698 35
    endloop
  endfacet
  facet normal 0.34202 -0.939693 0
    outer loop
      vertex 55.2635 -1.18698 1.2271e-014
      vertex 41.1588 -6.3207 35
      vertex 41.1588 -6.3207 9.13908e-015
    endloop
  endfacet
  facet normal 0.939693 0.34202 -9.17747e-007
    outer loop
      vertex 43.1369 -11.7557 33.6803
      vertex 41.1588 -6.3207 35
      vertex 42.3531 -9.60221 35
    endloop
  endfacet
  facet normal 0.939692 0.342021 -1.31161e-006
    outer loop
      vertex 44.7474 -16.1803 29.2557
      vertex 41.1588 -6.3207 35
      vertex 44.0055 -14.1421 31.6421
    endloop
  endfacet
  facet normal 0.939693 0.34202 7.56717e-007
    outer loop
      vertex 41.1588 -6.3207 35
      vertex 43.1369 -11.7557 33.6803
      vertex 44.0055 -14.1421 31.6421
    endloop
  endfacet
  facet normal 0.939693 0.34202 7.3005e-007
    outer loop
      vertex 45.3442 -17.8201 26.5798
      vertex 41.1588 -6.3207 35
      vertex 44.7474 -16.1803 29.2557
    endloop
  endfacet
  facet normal 0.939693 0.34202 -7.56717e-007
    outer loop
      vertex 43.1369 -11.7557 1.31966
      vertex 41.1588 -6.3207 9.13908e-015
      vertex 44.0055 -14.1421 3.35786
    endloop
  endfacet
  facet normal 0.939693 0.34202 9.17747e-007
    outer loop
      vertex 41.1588 -6.3207 9.13908e-015
      vertex 43.1369 -11.7557 1.31966
      vertex 42.3531 -9.60221 9.40428e-015
    endloop
  endfacet
  facet normal 0.939692 0.342021 -1.12704e-006
    outer loop
      vertex 45.7813 -19.0211 23.6803
      vertex 41.1588 -6.3207 35
      vertex 45.3442 -17.8201 26.5798
    endloop
  endfacet
  facet normal 0.939692 0.342021 1.31161e-006
    outer loop
      vertex 41.1588 -6.3207 9.13908e-015
      vertex 44.7474 -16.1803 5.7443
      vertex 44.0055 -14.1421 3.35786
    endloop
  endfacet
  facet normal 0.939693 0.34202 4.9138e-007
    outer loop
      vertex 46.048 -19.7538 20.6287
      vertex 41.1588 -6.3207 35
      vertex 45.7813 -19.0211 23.6803
    endloop
  endfacet
  facet normal 0.939693 0.34202 -7.3005e-007
    outer loop
      vertex 41.1588 -6.3207 9.13908e-015
      vertex 45.3442 -17.8201 8.42019
      vertex 44.7474 -16.1803 5.7443
    endloop
  endfacet
  facet normal 0.939693 0.34202 0
    outer loop
      vertex 41.1588 -6.3207 35
      vertex 46.048 -19.7538 20.6287
      vertex 41.1588 -6.3207 9.13908e-015
    endloop
  endfacet
  facet normal 0.939692 0.342021 1.12704e-006
    outer loop
      vertex 41.1588 -6.3207 9.13908e-015
      vertex 45.7813 -19.0211 11.3197
      vertex 45.3442 -17.8201 8.42019
    endloop
  endfacet
  facet normal 0.939693 0.34202 7.97482e-008
    outer loop
      vertex 46.1376 -20 17.5
      vertex 41.1588 -6.3207 9.13908e-015
      vertex 46.048 -19.7538 20.6287
    endloop
  endfacet
  facet normal 0.939693 0.34202 -4.9138e-007
    outer loop
      vertex 41.1588 -6.3207 9.13908e-015
      vertex 46.048 -19.7538 14.3713
      vertex 45.7813 -19.0211 11.3197
    endloop
  endfacet
  facet normal 0.939693 0.34202 -9.76048e-008
    outer loop
      vertex 41.1588 -6.3207 9.13908e-015
      vertex 46.1376 -20 17.5
      vertex 46.048 -19.7538 14.3713
    endloop
  endfacet
  facet normal -0.939693 -0.34202 7.45313e-007
    outer loop
      vertex 76.7756 -11.7557 1.31966
      vertex 72.9289 -1.18698 1.61935e-014
      vertex 75.9918 -9.60221 1.68736e-014
    endloop
  endfacet
  facet normal -0.939693 -0.34202 -3.76225e-007
    outer loop
      vertex 78.386 -16.1803 5.7443
      vertex 72.9289 -1.18698 1.61935e-014
      vertex 77.6442 -14.1421 3.35786
    endloop
  endfacet
  facet normal -0.939693 -0.342019 1.59868e-006
    outer loop
      vertex 72.9289 -1.18698 1.61935e-014
      vertex 76.7756 -11.7557 1.31966
      vertex 77.6442 -14.1421 3.35786
    endloop
  endfacet
  facet normal -0.939693 -0.342019 2.74457e-006
    outer loop
      vertex 78.9829 -17.8201 8.42019
      vertex 72.9289 -1.18698 1.61935e-014
      vertex 78.386 -16.1803 5.7443
    endloop
  endfacet
  facet normal -0.939693 -0.34202 -6.68439e-007
    outer loop
      vertex 76.7756 -11.7557 33.6803
      vertex 72.9289 -1.18698 35
      vertex 77.6442 -14.1421 31.6421
    endloop
  endfacet
  facet normal -0.939693 -0.34202 6.44929e-007
    outer loop
      vertex 72.9289 -1.18698 35
      vertex 76.7756 -11.7557 33.6803
      vertex 75.9918 -9.60221 35
    endloop
  endfacet
  facet normal -0.939692 -0.34202 -8.64334e-007
    outer loop
      vertex 79.42 -19.0211 11.3197
      vertex 72.9289 -1.18698 1.61935e-014
      vertex 78.9829 -17.8201 8.42019
    endloop
  endfacet
  facet normal -0.939692 -0.342021 9.83242e-007
    outer loop
      vertex 72.9289 -1.18698 35
      vertex 78.386 -16.1803 29.2557
      vertex 77.6442 -14.1421 31.6421
    endloop
  endfacet
  facet normal -0.939692 -0.34202 -8.79651e-007
    outer loop
      vertex 79.6866 -19.7538 14.3713
      vertex 72.9289 -1.18698 1.61935e-014
      vertex 79.42 -19.0211 11.3197
    endloop
  endfacet
  facet normal -0.939693 -0.342019 -2.36165e-006
    outer loop
      vertex 72.9289 -1.18698 35
      vertex 78.9829 -17.8201 26.5798
      vertex 78.386 -16.1803 29.2557
    endloop
  endfacet
  facet normal -0.939693 -0.34202 1.27755e-007
    outer loop
      vertex 79.7763 -20 17.5
      vertex 72.9289 -1.18698 1.61935e-014
      vertex 79.6866 -19.7538 14.3713
    endloop
  endfacet
  facet normal -0.939692 -0.342021 1.09024e-006
    outer loop
      vertex 72.9289 -1.18698 35
      vertex 79.42 -19.0211 23.6803
      vertex 78.9829 -17.8201 26.5798
    endloop
  endfacet
  facet normal -0.939693 -0.34202 -2.04837e-007
    outer loop
      vertex 72.9289 -1.18698 1.61935e-014
      vertex 79.7763 -20 17.5
      vertex 72.9289 -1.18698 35
    endloop
  endfacet
  facet normal -0.939692 -0.342021 9.93512e-007
    outer loop
      vertex 72.9289 -1.18698 35
      vertex 79.6866 -19.7538 20.6287
      vertex 79.42 -19.0211 23.6803
    endloop
  endfacet
  facet normal -0.939693 -0.34202 -9.53936e-008
    outer loop
      vertex 72.9289 -1.18698 35
      vertex 79.7763 -20 17.5
      vertex 79.6866 -19.7538 20.6287
    endloop
  endfacet
  facet normal 0.34202 -0.939693 7.45545e-008
    outer loop
      vertex 58.8241 -6.3207 35
      vertex 72.9289 -1.18698 1.61935e-014
      vertex 72.9289 -1.18698 35
    endloop
  endfacet
  facet normal 0.34202 -0.939693 0
    outer loop
      vertex 72.9289 -1.18698 1.61935e-014
      vertex 58.8241 -6.3207 35
      vertex 58.8241 -6.3207 1.30616e-014
    endloop
  endfacet
  facet normal 0.939693 0.34202 -9.17747e-007
    outer loop
      vertex 60.8023 -11.7557 33.6803
      vertex 58.8241 -6.3207 35
      vertex 60.0185 -9.60221 35
    endloop
  endfacet
  facet normal 0.939693 0.342019 1.67819e-006
    outer loop
      vertex 62.4127 -16.1803 29.2557
      vertex 58.8241 -6.3207 35
      vertex 61.6709 -14.1421 31.6421
    endloop
  endfacet
  facet normal 0.939692 0.342021 -1.7006e-006
    outer loop
      vertex 58.8241 -6.3207 35
      vertex 60.8023 -11.7557 33.6803
      vertex 61.6709 -14.1421 31.6421
    endloop
  endfacet
  facet normal 0.939692 0.342021 -1.35339e-006
    outer loop
      vertex 63.0096 -17.8201 26.5798
      vertex 58.8241 -6.3207 35
      vertex 62.4127 -16.1803 29.2557
    endloop
  endfacet
  facet normal 0.939692 0.342021 1.7006e-006
    outer loop
      vertex 60.8023 -11.7557 1.31966
      vertex 58.8241 -6.3207 1.30616e-014
      vertex 61.6709 -14.1421 3.35786
    endloop
  endfacet
  facet normal 0.939693 0.34202 9.17747e-007
    outer loop
      vertex 58.8241 -6.3207 1.30616e-014
      vertex 60.8023 -11.7557 1.31966
      vertex 60.0185 -9.60221 1.33268e-014
    endloop
  endfacet
  facet normal 0.939693 0.34202 8.32806e-007
    outer loop
      vertex 63.4467 -19.0211 23.6803
      vertex 58.8241 -6.3207 35
      vertex 63.0096 -17.8201 26.5798
    endloop
  endfacet
  facet normal 0.939693 0.342019 -1.67819e-006
    outer loop
      vertex 58.8241 -6.3207 1.30616e-014
      vertex 62.4127 -16.1803 5.7443
      vertex 61.6709 -14.1421 3.35786
    endloop
  endfacet
  facet normal 0.939693 0.34202 4.9138e-007
    outer loop
      vertex 63.7133 -19.7538 20.6287
      vertex 58.8241 -6.3207 35
      vertex 63.4467 -19.0211 23.6803
    endloop
  endfacet
  facet normal 0.939692 0.342021 1.35339e-006
    outer loop
      vertex 58.8241 -6.3207 1.30616e-014
      vertex 63.0096 -17.8201 8.42019
      vertex 62.4127 -16.1803 5.7443
    endloop
  endfacet
  facet normal 0.939693 0.34202 0
    outer loop
      vertex 58.8241 -6.3207 35
      vertex 63.7133 -19.7538 20.6287
      vertex 58.8241 -6.3207 1.30616e-014
    endloop
  endfacet
  facet normal 0.939693 0.34202 -8.32806e-007
    outer loop
      vertex 58.8241 -6.3207 1.30616e-014
      vertex 63.4467 -19.0211 11.3197
      vertex 63.0096 -17.8201 8.42019
    endloop
  endfacet
  facet normal 0.939693 0.342019 -9.42443e-007
    outer loop
      vertex 63.803 -20 17.5
      vertex 58.8241 -6.3207 1.30616e-014
      vertex 63.7133 -19.7538 20.6287
    endloop
  endfacet
  facet normal 0.939693 0.34202 -4.9138e-007
    outer loop
      vertex 58.8241 -6.3207 1.30616e-014
      vertex 63.7133 -19.7538 14.3713
      vertex 63.4467 -19.0211 11.3197
    endloop
  endfacet
  facet normal 0.939692 0.342021 1.15347e-006
    outer loop
      vertex 58.8241 -6.3207 1.30616e-014
      vertex 63.803 -20 17.5
      vertex 63.7133 -19.7538 14.3713
    endloop
  endfacet
  facet normal -0.939693 -0.34202 -6.44929e-007
    outer loop
      vertex 94.4409 -11.7557 1.31966
      vertex 90.5942 -1.18698 2.0116e-014
      vertex 93.6571 -9.60221 2.07961e-014
    endloop
  endfacet
  facet normal -0.939692 -0.342021 -9.83242e-007
    outer loop
      vertex 96.0514 -16.1803 5.7443
      vertex 90.5942 -1.18698 2.0116e-014
      vertex 95.3095 -14.1421 3.35786
    endloop
  endfacet
  facet normal -0.939693 -0.34202 6.68439e-007
    outer loop
      vertex 90.5942 -1.18698 2.0116e-014
      vertex 94.4409 -11.7557 1.31966
      vertex 95.3095 -14.1421 3.35786
    endloop
  endfacet
  facet normal -0.939693 -0.342019 2.36165e-006
    outer loop
      vertex 96.6482 -17.8201 8.42019
      vertex 90.5942 -1.18698 2.0116e-014
      vertex 96.0514 -16.1803 5.7443
    endloop
  endfacet
  facet normal -0.939693 -0.34202 -6.68439e-007
    outer loop
      vertex 94.4409 -11.7557 33.6803
      vertex 90.5942 -1.18698 35
      vertex 95.3095 -14.1421 31.6421
    endloop
  endfacet
  facet normal -0.939693 -0.34202 6.44929e-007
    outer loop
      vertex 90.5942 -1.18698 35
      vertex 94.4409 -11.7557 33.6803
      vertex 93.6571 -9.60221 35
    endloop
  endfacet
  facet normal -0.939692 -0.342021 -1.09024e-006
    outer loop
      vertex 97.0853 -19.0211 11.3197
      vertex 90.5942 -1.18698 2.0116e-014
      vertex 96.6482 -17.8201 8.42019
    endloop
  endfacet
  facet normal -0.939692 -0.342021 9.83242e-007
    outer loop
      vertex 90.5942 -1.18698 35
      vertex 96.0514 -16.1803 29.2557
      vertex 95.3095 -14.1421 31.6421
    endloop
  endfacet
  facet normal -0.939692 -0.342021 -9.93512e-007
    outer loop
      vertex 97.352 -19.7538 14.3713
      vertex 90.5942 -1.18698 2.0116e-014
      vertex 97.0853 -19.0211 11.3197
    endloop
  endfacet
  facet normal -0.939693 -0.342019 -2.36165e-006
    outer loop
      vertex 90.5942 -1.18698 35
      vertex 96.6482 -17.8201 26.5798
      vertex 96.0514 -16.1803 29.2557
    endloop
  endfacet
  facet normal -0.939693 -0.34202 9.53936e-008
    outer loop
      vertex 97.4416 -20 17.5
      vertex 90.5942 -1.18698 2.0116e-014
      vertex 97.352 -19.7538 14.3713
    endloop
  endfacet
  facet normal -0.939692 -0.342021 1.09024e-006
    outer loop
      vertex 90.5942 -1.18698 35
      vertex 97.0853 -19.0211 23.6803
      vertex 96.6482 -17.8201 26.5798
    endloop
  endfacet
  facet normal -0.939693 -0.34202 0
    outer loop
      vertex 90.5942 -1.18698 2.0116e-014
      vertex 97.4416 -20 17.5
      vertex 90.5942 -1.18698 35
    endloop
  endfacet
  facet normal -0.939692 -0.342021 9.93512e-007
    outer loop
      vertex 90.5942 -1.18698 35
      vertex 97.352 -19.7538 20.6287
      vertex 97.0853 -19.0211 23.6803
    endloop
  endfacet
  facet normal -0.939693 -0.34202 -9.53936e-008
    outer loop
      vertex 90.5942 -1.18698 35
      vertex 97.4416 -20 17.5
      vertex 97.352 -19.7538 20.6287
    endloop
  endfacet
  facet normal 0.939693 0.34202 -9.17747e-007
    outer loop
      vertex 78.4676 -11.7557 33.6803
      vertex 76.4895 -6.3207 35
      vertex 77.6838 -9.60221 35
    endloop
  endfacet
  facet normal 0.939692 0.342021 -1.31161e-006
    outer loop
      vertex 80.0781 -16.1803 29.2557
      vertex 76.4895 -6.3207 35
      vertex 79.3362 -14.1421 31.6421
    endloop
  endfacet
  facet normal 0.939693 0.34202 7.56717e-007
    outer loop
      vertex 76.4895 -6.3207 35
      vertex 78.4676 -11.7557 33.6803
      vertex 79.3362 -14.1421 31.6421
    endloop
  endfacet
  facet normal 0.939692 0.342021 -1.35339e-006
    outer loop
      vertex 80.6749 -17.8201 26.5798
      vertex 76.4895 -6.3207 35
      vertex 80.0781 -16.1803 29.2557
    endloop
  endfacet
  facet normal 0.939693 0.34202 -7.56717e-007
    outer loop
      vertex 78.4676 -11.7557 1.31966
      vertex 76.4895 -6.3207 1.69841e-014
      vertex 79.3362 -14.1421 3.35786
    endloop
  endfacet
  facet normal 0.939693 0.34202 9.17747e-007
    outer loop
      vertex 76.4895 -6.3207 1.69841e-014
      vertex 78.4676 -11.7557 1.31966
      vertex 77.6838 -9.60221 1.72493e-014
    endloop
  endfacet
  facet normal 0.939692 0.342021 -9.41713e-007
    outer loop
      vertex 81.112 -19.0211 23.6803
      vertex 76.4895 -6.3207 35
      vertex 80.6749 -17.8201 26.5798
    endloop
  endfacet
  facet normal 0.939692 0.342021 1.31161e-006
    outer loop
      vertex 76.4895 -6.3207 1.69841e-014
      vertex 80.0781 -16.1803 5.7443
      vertex 79.3362 -14.1421 3.35786
    endloop
  endfacet
  facet normal 0.939693 0.342018 2.07202e-006
    outer loop
      vertex 81.3787 -19.7538 20.6287
      vertex 76.4895 -6.3207 35
      vertex 81.112 -19.0211 23.6803
    endloop
  endfacet
  facet normal 0.939692 0.342021 1.35339e-006
    outer loop
      vertex 76.4895 -6.3207 1.69841e-014
      vertex 80.6749 -17.8201 8.42019
      vertex 80.0781 -16.1803 5.7443
    endloop
  endfacet
  facet normal 0.939693 0.34202 0
    outer loop
      vertex 76.4895 -6.3207 35
      vertex 81.3787 -19.7538 20.6287
      vertex 76.4895 -6.3207 1.69841e-014
    endloop
  endfacet
  facet normal 0.939692 0.342021 9.41713e-007
    outer loop
      vertex 76.4895 -6.3207 1.69841e-014
      vertex 81.112 -19.0211 11.3197
      vertex 80.6749 -17.8201 8.42019
    endloop
  endfacet
  facet normal 0.939693 0.34202 7.97482e-008
    outer loop
      vertex 81.4683 -20 17.5
      vertex 76.4895 -6.3207 1.69841e-014
      vertex 81.3787 -19.7538 20.6287
    endloop
  endfacet
  facet normal 0.939693 0.342018 -2.07202e-006
    outer loop
      vertex 76.4895 -6.3207 1.69841e-014
      vertex 81.3787 -19.7538 14.3713
      vertex 81.112 -19.0211 11.3197
    endloop
  endfacet
  facet normal 0.939693 0.34202 -9.76048e-008
    outer loop
      vertex 76.4895 -6.3207 1.69841e-014
      vertex 81.4683 -20 17.5
      vertex 81.3787 -19.7538 14.3713
    endloop
  endfacet
  facet normal 0.34202 -0.939693 0
    outer loop
      vertex 76.4895 -6.3207 35
      vertex 90.5942 -1.18698 2.0116e-014
      vertex 90.5942 -1.18698 35
    endloop
  endfacet
  facet normal 0.34202 -0.939693 0
    outer loop
      vertex 90.5942 -1.18698 2.0116e-014
      vertex 76.4895 -6.3207 35
      vertex 76.4895 -6.3207 1.69841e-014
    endloop
  endfacet
  facet normal 0.34202 -0.939693 0
    outer loop
      vertex 94.1548 -6.3207 35
      vertex 108.255 -1.18869 2.40374e-014
      vertex 108.255 -1.18869 35
    endloop
  endfacet
  facet normal 0.34202 -0.939693 0
    outer loop
      vertex 108.255 -1.18869 2.40374e-014
      vertex 94.1548 -6.3207 35
      vertex 94.1548 -6.3207 2.09066e-014
    endloop
  endfacet
  facet normal 0.939693 0.34202 -9.17747e-007
    outer loop
      vertex 96.133 -11.7557 33.6803
      vertex 94.1548 -6.3207 35
      vertex 95.3492 -9.60221 35
    endloop
  endfacet
  facet normal 0.939693 0.342018 4.66799e-006
    outer loop
      vertex 97.7434 -16.1803 29.2557
      vertex 94.1548 -6.3207 35
      vertex 97.0016 -14.1421 31.6421
    endloop
  endfacet
  facet normal 0.939692 0.342021 -4.15792e-006
    outer loop
      vertex 94.1548 -6.3207 35
      vertex 96.133 -11.7557 33.6803
      vertex 97.0016 -14.1421 31.6421
    endloop
  endfacet
  facet normal 0.939692 0.342021 -1.35339e-006
    outer loop
      vertex 98.3403 -17.8201 26.5798
      vertex 94.1548 -6.3207 35
      vertex 97.7434 -16.1803 29.2557
    endloop
  endfacet
  facet normal 0.939692 0.342021 4.15792e-006
    outer loop
      vertex 96.133 -11.7557 1.31966
      vertex 94.1548 -6.3207 2.09066e-014
      vertex 97.0016 -14.1421 3.35786
    endloop
  endfacet
  facet normal 0.939693 0.34202 9.17747e-007
    outer loop
      vertex 94.1548 -6.3207 2.09066e-014
      vertex 96.133 -11.7557 1.31966
      vertex 95.3492 -9.60221 2.11718e-014
    endloop
  endfacet
  facet normal 0.939692 0.342021 -9.41713e-007
    outer loop
      vertex 98.7774 -19.0211 23.6803
      vertex 94.1548 -6.3207 35
      vertex 98.3403 -17.8201 26.5798
    endloop
  endfacet
  facet normal 0.939693 0.342018 -4.66799e-006
    outer loop
      vertex 94.1548 -6.3207 2.09066e-014
      vertex 97.7434 -16.1803 5.7443
      vertex 97.0016 -14.1421 3.35786
    endloop
  endfacet
  facet normal 0.939693 0.342018 2.07202e-006
    outer loop
      vertex 99.044 -19.7538 20.6287
      vertex 94.1548 -6.3207 35
      vertex 98.7774 -19.0211 23.6803
    endloop
  endfacet
  facet normal 0.939692 0.342021 1.35339e-006
    outer loop
      vertex 94.1548 -6.3207 2.09066e-014
      vertex 98.3403 -17.8201 8.42019
      vertex 97.7434 -16.1803 5.7443
    endloop
  endfacet
  facet normal 0.939693 0.34202 0
    outer loop
      vertex 94.1548 -6.3207 35
      vertex 99.044 -19.7538 20.6287
      vertex 94.1548 -6.3207 2.09066e-014
    endloop
  endfacet
  facet normal 0.939692 0.342021 9.41713e-007
    outer loop
      vertex 94.1548 -6.3207 2.09066e-014
      vertex 98.7774 -19.0211 11.3197
      vertex 98.3403 -17.8201 8.42019
    endloop
  endfacet
  facet normal 0.939694 0.342018 -1.96464e-006
    outer loop
      vertex 99.1337 -20 17.5
      vertex 94.1548 -6.3207 2.09066e-014
      vertex 99.044 -19.7538 20.6287
    endloop
  endfacet
  facet normal 0.939693 0.342018 -2.07202e-006
    outer loop
      vertex 94.1548 -6.3207 2.09066e-014
      vertex 99.044 -19.7538 14.3713
      vertex 98.7774 -19.0211 11.3197
    endloop
  endfacet
  facet normal 0.939692 0.342023 2.40454e-006
    outer loop
      vertex 94.1548 -6.3207 2.09066e-014
      vertex 99.1337 -20 17.5
      vertex 99.044 -19.7538 14.3713
    endloop
  endfacet
  facet normal -0.103899 0.994588 0
    outer loop
      vertex 7.11879 1.84285 1.58069e-015
      vertex 3.018 1.41447 35
      vertex 7.11879 1.84285 35
    endloop
  endfacet
  facet normal -0.103899 0.994588 0
    outer loop
      vertex 3.018 1.41447 35
      vertex 7.11879 1.84285 1.58069e-015
      vertex 3.018 1.41447 6.70131e-016
    endloop
  endfacet
  facet normal 0.559717 -0.828684 0
    outer loop
      vertex 1.64992 5.17324 35
      vertex 5.06667 7.48101 1.12503e-015
      vertex 5.06667 7.48101 35
    endloop
  endfacet
  facet normal 0.559717 -0.828684 0
    outer loop
      vertex 5.06667 7.48101 1.12503e-015
      vertex 1.64992 5.17324 35
      vertex 1.64992 5.17324 3.66356e-016
    endloop
  endfacet
  facet normal -0.939693 -0.34202 0
    outer loop
      vertex 7.11879 1.84285 1.58069e-015
      vertex 5.06667 7.48101 35
      vertex 5.06667 7.48101 1.12503e-015
    endloop
  endfacet
  facet normal -0.939693 -0.34202 0
    outer loop
      vertex 5.06667 7.48101 35
      vertex 7.11879 1.84285 1.58069e-015
      vertex 7.11879 1.84285 35
    endloop
  endfacet
  facet normal 0.939693 0.34202 -5.91464e-008
    outer loop
      vertex 108.255 -1.18869 35
      vertex 104.001 10.5 34.4498
      vertex 104.327 9.60221 35
    endloop
  endfacet
  facet normal 0.939693 0.34202 0
    outer loop
      vertex 104.001 10.5 34.4498
      vertex 108.255 -1.18869 35
      vertex 104.001 10.5 0.550163
    endloop
  endfacet
  facet normal 0.939693 0.34202 -0
    outer loop
      vertex 108.255 -1.18869 2.40374e-014
      vertex 104.001 10.5 0.550163
      vertex 108.255 -1.18869 35
    endloop
  endfacet
  facet normal 0.939693 0.34202 5.91464e-008
    outer loop
      vertex 104.001 10.5 0.550163
      vertex 108.255 -1.18869 2.40374e-014
      vertex 104.327 9.60221 2.31653e-014
    endloop
  endfacet
  facet normal -0.939693 -0.34202 8.75467e-007
    outer loop
      vertex 1.64992 5.17324 3.66356e-016
      vertex 3.87161e-015 9.70636 0.0638177
      vertex 0.0379042 9.60221 8.41643e-018
    endloop
  endfacet
  facet normal -0.939693 -0.34202 -2.08654e-016
    outer loop
      vertex 3.87161e-015 9.70636 0.0638177
      vertex 1.64992 5.17324 3.66356e-016
      vertex -3.87161e-015 9.70636 34.9362
    endloop
  endfacet
  facet normal -0.939693 -0.34202 -0
    outer loop
      vertex 1.64992 5.17324 35
      vertex -3.87161e-015 9.70636 34.9362
      vertex 1.64992 5.17324 3.66356e-016
    endloop
  endfacet
  facet normal -0.939693 -0.34202 -8.7549e-007
    outer loop
      vertex -3.87161e-015 9.70636 34.9362
      vertex 1.64992 5.17324 35
      vertex 0.0379042 9.60221 35
    endloop
  endfacet
  facet normal -0.939693 -0.34202 0
    outer loop
      vertex 5.83275 -6.31899 1.29513e-015
      vertex 3.018 1.41447 35
      vertex 3.018 1.41447 6.70131e-016
    endloop
  endfacet
  facet normal -0.939693 -0.34202 0
    outer loop
      vertex 3.018 1.41447 35
      vertex 5.83275 -6.31899 1.29513e-015
      vertex 5.83275 -6.31899 35
    endloop
  endfacet
  facet normal 0.103899 -0.994588 0
    outer loop
      vertex 109.01 1.41447 21
      vertex 113.111 1.84286 31
      vertex 109.01 1.41447 31
    endloop
  endfacet
  facet normal 0.103899 -0.994588 0
    outer loop
      vertex 113.111 1.84286 31
      vertex 109.01 1.41447 21
      vertex 113.111 1.84286 21
    endloop
  endfacet
  facet normal -0.559717 0.828684 -7.90294e-008
    outer loop
      vertex 111.059 7.48101 21
      vertex 107.642 5.17324 31
      vertex 111.059 7.48101 31
    endloop
  endfacet
  facet normal -0.559717 0.828684 -7.90294e-008
    outer loop
      vertex 107.642 5.17324 31
      vertex 111.059 7.48101 21
      vertex 107.642 5.17324 21
    endloop
  endfacet
  facet normal 0 0 1
    outer loop
      vertex 111.059 7.48101 31
      vertex 109.01 1.41447 31
      vertex 113.111 1.84286 31
    endloop
  endfacet
  facet normal -0 0 1
    outer loop
      vertex 107.642 5.17324 31
      vertex 109.01 1.41447 31
      vertex 111.059 7.48101 31
    endloop
  endfacet
  facet normal 0 0 1
    outer loop
      vertex 109.01 1.41447 31
      vertex 107.642 5.17324 31
      vertex 107.849 -0.0724575 31
    endloop
  endfacet
  facet normal -0 0 1
    outer loop
      vertex 105.797 5.5657 31
      vertex 107.642 5.17324 31
      vertex 107.3 6.11293 31
    endloop
  endfacet
  facet normal 0 0 1
    outer loop
      vertex 107.642 5.17324 31
      vertex 105.797 5.5657 31
      vertex 107.849 -0.0724575 31
    endloop
  endfacet
  facet normal 0 0 1
    outer loop
      vertex 109.352 0.474775 31
      vertex 109.01 1.41447 31
      vertex 107.849 -0.0724575 31
    endloop
  endfacet
  facet normal -0 0 -1
    outer loop
      vertex 109.352 0.474775 21
      vertex 107.849 -0.0724575 21
      vertex 109.01 1.41447 21
    endloop
  endfacet
  facet normal 0 0 -1
    outer loop
      vertex 109.01 1.41447 21
      vertex 111.059 7.48101 21
      vertex 113.111 1.84286 21
    endloop
  endfacet
  facet normal 0 0 -1
    outer loop
      vertex 107.642 5.17324 21
      vertex 109.01 1.41447 21
      vertex 107.849 -0.0724575 21
    endloop
  endfacet
  facet normal 0 0 -1
    outer loop
      vertex 109.01 1.41447 21
      vertex 107.642 5.17324 21
      vertex 111.059 7.48101 21
    endloop
  endfacet
  facet normal 0 0 -1
    outer loop
      vertex 105.797 5.5657 21
      vertex 107.642 5.17324 21
      vertex 107.849 -0.0724575 21
    endloop
  endfacet
  facet normal 0 0 -1
    outer loop
      vertex 107.642 5.17324 21
      vertex 105.797 5.5657 21
      vertex 107.3 6.11293 21
    endloop
  endfacet
  facet normal 0.939692 0.342021 -3.26176e-008
    outer loop
      vertex 113.111 1.84286 31
      vertex 111.059 7.48101 21
      vertex 111.059 7.48101 31
    endloop
  endfacet
  facet normal 0.939692 0.342021 0
    outer loop
      vertex 111.059 7.48101 21
      vertex 113.111 1.84286 31
      vertex 113.111 1.84286 21
    endloop
  endfacet
  facet normal 0.939693 0.342018 0
    outer loop
      vertex 109.352 0.474775 31
      vertex 109.01 1.41447 21
      vertex 109.01 1.41447 31
    endloop
  endfacet
  facet normal 0.939693 0.342018 0
    outer loop
      vertex 109.01 1.41447 21
      vertex 109.352 0.474775 31
      vertex 109.352 0.474775 21
    endloop
  endfacet
  facet normal 0.939691 0.342025 0
    outer loop
      vertex 107.642 5.17324 31
      vertex 107.3 6.11293 21
      vertex 107.3 6.11293 31
    endloop
  endfacet
  facet normal 0.939691 0.342025 -3.2618e-008
    outer loop
      vertex 107.3 6.11293 21
      vertex 107.642 5.17324 31
      vertex 107.642 5.17324 21
    endloop
  endfacet
  facet normal -0.939693 -0.342019 0
    outer loop
      vertex 107.849 -0.0724575 21
      vertex 105.797 5.5657 31
      vertex 105.797 5.5657 21
    endloop
  endfacet
  facet normal -0.939693 -0.342019 0
    outer loop
      vertex 105.797 5.5657 31
      vertex 107.849 -0.0724575 21
      vertex 107.849 -0.0724575 31
    endloop
  endfacet
  facet normal 0.34202 -0.939693 0
    outer loop
      vertex 107.849 -0.0724575 21
      vertex 109.352 0.474775 31
      vertex 107.849 -0.0724575 31
    endloop
  endfacet
  facet normal 0.34202 -0.939693 0
    outer loop
      vertex 109.352 0.474775 31
      vertex 107.849 -0.0724575 21
      vertex 109.352 0.474775 21
    endloop
  endfacet
  facet normal -0.342021 0.939692 0
    outer loop
      vertex 107.3 6.11293 21
      vertex 105.797 5.5657 31
      vertex 107.3 6.11293 31
    endloop
  endfacet
  facet normal -0.342021 0.939692 0
    outer loop
      vertex 105.797 5.5657 31
      vertex 107.3 6.11293 21
      vertex 105.797 5.5657 21
    endloop
  endfacet
  facet normal -1.70226e-008 1.62951e-007 1
    outer loop
      vertex 111.059 7.48101 14
      vertex 109.01 1.41447 14
      vertex 113.111 1.84286 14
    endloop
  endfacet
  facet normal 0.103899 -0.994588 0
    outer loop
      vertex 109.01 1.41447 14
      vertex 113.111 1.84286 4
      vertex 113.111 1.84286 14
    endloop
  endfacet
  facet normal 0.103899 -0.994588 0
    outer loop
      vertex 113.111 1.84286 4
      vertex 109.01 1.41447 14
      vertex 109.01 1.41447 4
    endloop
  endfacet
  facet normal -0.559717 0.828684 -7.90294e-008
    outer loop
      vertex 111.059 7.48101 4
      vertex 107.642 5.17324 14
      vertex 111.059 7.48101 14
    endloop
  endfacet
  facet normal -0.559717 0.828684 -7.90294e-008
    outer loop
      vertex 107.642 5.17324 14
      vertex 111.059 7.48101 4
      vertex 107.642 5.17324 4
    endloop
  endfacet
  facet normal -1.37554e-007 2.03654e-007 1
    outer loop
      vertex 107.642 5.17324 14
      vertex 109.01 1.41447 14
      vertex 111.059 7.48101 14
    endloop
  endfacet
  facet normal 0.939693 0.342018 0
    outer loop
      vertex 109.352 0.474775 14
      vertex 109.01 1.41447 4
      vertex 109.01 1.41447 14
    endloop
  endfacet
  facet normal 0.939693 0.342018 0
    outer loop
      vertex 109.01 1.41447 4
      vertex 109.352 0.474775 14
      vertex 109.352 0.474775 4
    endloop
  endfacet
  facet normal 0.939691 0.342025 0
    outer loop
      vertex 107.642 5.17324 14
      vertex 107.3 6.11293 4
      vertex 107.3 6.11293 14
    endloop
  endfacet
  facet normal 0.939691 0.342025 -3.2618e-008
    outer loop
      vertex 107.3 6.11293 4
      vertex 107.642 5.17324 14
      vertex 107.642 5.17324 4
    endloop
  endfacet
  facet normal 2.41063e-007 -8.14067e-008 -1
    outer loop
      vertex 111.059 7.48101 4
      vertex 113.111 1.84286 4
      vertex 109.01 1.41447 4
    endloop
  endfacet
  facet normal 0.939692 0.342021 -3.26176e-008
    outer loop
      vertex 113.111 1.84286 14
      vertex 111.059 7.48101 4
      vertex 111.059 7.48101 14
    endloop
  endfacet
  facet normal 0.939692 0.342021 0
    outer loop
      vertex 111.059 7.48101 4
      vertex 113.111 1.84286 14
      vertex 113.111 1.84286 4
    endloop
  endfacet
  facet normal -0 0 -1
    outer loop
      vertex 109.352 0.474775 4
      vertex 107.849 -0.0724575 4
      vertex 109.01 1.41447 4
    endloop
  endfacet
  facet normal 0 0 -1
    outer loop
      vertex 107.642 5.17324 4
      vertex 109.01 1.41447 4
      vertex 107.849 -0.0724575 4
    endloop
  endfacet
  facet normal 0 0 -1
    outer loop
      vertex 109.01 1.41447 4
      vertex 107.642 5.17324 4
      vertex 111.059 7.48101 4
    endloop
  endfacet
  facet normal 0 0 -1
    outer loop
      vertex 105.797 5.5657 4
      vertex 107.642 5.17324 4
      vertex 107.849 -0.0724575 4
    endloop
  endfacet
  facet normal 0 0 -1
    outer loop
      vertex 107.642 5.17324 4
      vertex 105.797 5.5657 4
      vertex 107.3 6.11293 4
    endloop
  endfacet
  facet normal 0 0 1
    outer loop
      vertex 109.01 1.41447 14
      vertex 107.849 -0.0724575 14
      vertex 109.352 0.474775 14
    endloop
  endfacet
  facet normal 0 0 1
    outer loop
      vertex 107.642 5.17324 14
      vertex 107.849 -0.0724575 14
      vertex 109.01 1.41447 14
    endloop
  endfacet
  facet normal -0 0 1
    outer loop
      vertex 105.797 5.5657 14
      vertex 107.642 5.17324 14
      vertex 107.3 6.11293 14
    endloop
  endfacet
  facet normal 0 0 1
    outer loop
      vertex 107.642 5.17324 14
      vertex 105.797 5.5657 14
      vertex 107.849 -0.0724575 14
    endloop
  endfacet
  facet normal -0.939693 -0.342019 0
    outer loop
      vertex 107.849 -0.0724575 4
      vertex 105.797 5.5657 14
      vertex 105.797 5.5657 4
    endloop
  endfacet
  facet normal -0.939693 -0.342019 0
    outer loop
      vertex 105.797 5.5657 14
      vertex 107.849 -0.0724575 4
      vertex 107.849 -0.0724575 14
    endloop
  endfacet
  facet normal 0.34202 -0.939693 0
    outer loop
      vertex 107.849 -0.0724575 4
      vertex 109.352 0.474775 14
      vertex 107.849 -0.0724575 14
    endloop
  endfacet
  facet normal 0.34202 -0.939693 0
    outer loop
      vertex 109.352 0.474775 14
      vertex 107.849 -0.0724575 4
      vertex 109.352 0.474775 4
    endloop
  endfacet
  facet normal -0.342021 0.939692 0
    outer loop
      vertex 107.3 6.11293 4
      vertex 105.797 5.5657 14
      vertex 107.3 6.11293 14
    endloop
  endfacet
  facet normal -0.342021 0.939692 0
    outer loop
      vertex 105.797 5.5657 14
      vertex 107.3 6.11293 4
      vertex 105.797 5.5657 4
    endloop
  endfacet
endsolid OpenSCAD_Model
