solid OpenSCAD_Model
  facet normal -0.707107 0 0.707107
    outer loop
      vertex -9 32.215 22.2132
      vertex -9 30.5229 22.2132
      vertex -5 31.9788 26.2132
    endloop
  endfacet
  facet normal -0.707107 0 0.707107
    outer loop
      vertex -9 49.8803 22.2132
      vertex -9 48.1883 22.2132
      vertex -5 49.6441 26.2132
    endloop
  endfacet
  facet normal -0.707107 0 0.707107
    outer loop
      vertex -9 67.5457 22.2132
      vertex -9 65.8536 22.2132
      vertex -5 67.3095 26.2132
    endloop
  endfacet
  facet normal -0.707107 0 0.707107
    outer loop
      vertex -9 85.211 22.2132
      vertex -9 83.519 22.2132
      vertex -5 84.9749 26.2132
    endloop
  endfacet
  facet normal -0.707107 0 0.707107
    outer loop
      vertex -9 102.876 22.2132
      vertex -9 101.184 22.2132
      vertex -5 102.64 26.2132
    endloop
  endfacet
  facet normal -0.707107 0 0.707107
    outer loop
      vertex -5 104.332 26.2132
      vertex -1.2132 121.679 30
      vertex -5 120.3 26.2132
    endloop
  endfacet
  facet normal -0.707107 0 0.707107
    outer loop
      vertex -5 102.64 26.2132
      vertex -5 104.332 26.2132
      vertex -9 102.876 22.2132
    endloop
  endfacet
  facet normal -0.707107 0 0.707107
    outer loop
      vertex -5 102.64 26.2132
      vertex -1.2132 121.679 30
      vertex -5 104.332 26.2132
    endloop
  endfacet
  facet normal -0.707107 0 0.707107
    outer loop
      vertex -5 86.6669 26.2132
      vertex -1.2132 121.679 30
      vertex -5 102.64 26.2132
    endloop
  endfacet
  facet normal -0.707107 0 0.707107
    outer loop
      vertex -5 84.9749 26.2132
      vertex -5 86.6669 26.2132
      vertex -9 85.211 22.2132
    endloop
  endfacet
  facet normal -0.707107 0 0.707107
    outer loop
      vertex -5 84.9749 26.2132
      vertex -1.2132 121.679 30
      vertex -5 86.6669 26.2132
    endloop
  endfacet
  facet normal -0.707107 0 0.707107
    outer loop
      vertex -5 69.0015 26.2132
      vertex -1.2132 121.679 30
      vertex -5 84.9749 26.2132
    endloop
  endfacet
  facet normal -0.707107 0 0.707107
    outer loop
      vertex -5 67.3095 26.2132
      vertex -5 69.0015 26.2132
      vertex -9 67.5457 22.2132
    endloop
  endfacet
  facet normal -0.707107 0 0.707107
    outer loop
      vertex -5 67.3095 26.2132
      vertex -1.2132 121.679 30
      vertex -5 69.0015 26.2132
    endloop
  endfacet
  facet normal -0.707107 0 0.707107
    outer loop
      vertex -1.2132 17.3891 30
      vertex -5 67.3095 26.2132
      vertex -5 51.3362 26.2132
    endloop
  endfacet
  facet normal -0.707107 0 0.707107
    outer loop
      vertex -5 49.6441 26.2132
      vertex -5 51.3362 26.2132
      vertex -9 49.8803 22.2132
    endloop
  endfacet
  facet normal -0.707107 0 0.707107
    outer loop
      vertex -1.2132 17.3891 30
      vertex -5 51.3362 26.2132
      vertex -5 49.6441 26.2132
    endloop
  endfacet
  facet normal -0.707107 0 0.707107
    outer loop
      vertex -1.2132 17.3891 30
      vertex -5 49.6441 26.2132
      vertex -5 33.6708 26.2132
    endloop
  endfacet
  facet normal -0.707107 0 0.707107
    outer loop
      vertex -5 31.9788 26.2132
      vertex -5 33.6708 26.2132
      vertex -9 32.215 22.2132
    endloop
  endfacet
  facet normal -0.707107 0 0.707107
    outer loop
      vertex -1.2132 17.3891 30
      vertex -5 33.6708 26.2132
      vertex -5 31.9788 26.2132
    endloop
  endfacet
  facet normal -0.707107 0 0.707107
    outer loop
      vertex -5 67.3095 26.2132
      vertex -1.2132 17.3891 30
      vertex -1.2132 121.679 30
    endloop
  endfacet
  facet normal -0.707107 0 0.707107
    outer loop
      vertex -1.2132 17.3891 30
      vertex -5 31.9788 26.2132
      vertex -5 16.0108 26.2132
    endloop
  endfacet
  facet normal 0.707107 0 0.707107
    outer loop
      vertex 1.2132 121.679 30
      vertex 5 104.332 26.2132
      vertex 5 120.3 26.2132
    endloop
  endfacet
  facet normal 0.707107 0 0.707107
    outer loop
      vertex 5 104.332 26.2132
      vertex 5 102.64 26.2132
      vertex 9 102.876 22.2132
    endloop
  endfacet
  facet normal 0.707107 0 0.707107
    outer loop
      vertex 1.2132 121.679 30
      vertex 5 102.64 26.2132
      vertex 5 104.332 26.2132
    endloop
  endfacet
  facet normal 0.707107 0 0.707107
    outer loop
      vertex 1.2132 121.679 30
      vertex 5 86.6669 26.2132
      vertex 5 102.64 26.2132
    endloop
  endfacet
  facet normal 0.707107 0 0.707107
    outer loop
      vertex 5 86.6669 26.2132
      vertex 5 84.9749 26.2132
      vertex 9 85.211 22.2132
    endloop
  endfacet
  facet normal 0.707107 0 0.707107
    outer loop
      vertex 1.2132 121.679 30
      vertex 5 84.9749 26.2132
      vertex 5 86.6669 26.2132
    endloop
  endfacet
  facet normal 0.707107 0 0.707107
    outer loop
      vertex 1.2132 121.679 30
      vertex 5 69.0015 26.2132
      vertex 5 84.9749 26.2132
    endloop
  endfacet
  facet normal 0.707107 0 0.707107
    outer loop
      vertex 5 69.0015 26.2132
      vertex 5 67.3095 26.2132
      vertex 9 67.5457 22.2132
    endloop
  endfacet
  facet normal 0.707107 0 0.707107
    outer loop
      vertex 1.2132 121.679 30
      vertex 5 67.3095 26.2132
      vertex 5 69.0015 26.2132
    endloop
  endfacet
  facet normal 0.707107 -0 0.707107
    outer loop
      vertex 1.2132 17.3891 30
      vertex 5 67.3095 26.2132
      vertex 1.2132 121.679 30
    endloop
  endfacet
  facet normal 0.707107 0 0.707107
    outer loop
      vertex 5 51.3362 26.2132
      vertex 5 49.6441 26.2132
      vertex 9 49.8803 22.2132
    endloop
  endfacet
  facet normal 0.707107 0 0.707107
    outer loop
      vertex 5 67.3095 26.2132
      vertex 1.2132 17.3891 30
      vertex 5 51.3362 26.2132
    endloop
  endfacet
  facet normal 0.707107 0 0.707107
    outer loop
      vertex 5 51.3362 26.2132
      vertex 1.2132 17.3891 30
      vertex 5 49.6441 26.2132
    endloop
  endfacet
  facet normal 0.707107 0 0.707107
    outer loop
      vertex 5 33.6708 26.2132
      vertex 5 31.9788 26.2132
      vertex 9 32.215 22.2132
    endloop
  endfacet
  facet normal 0.707107 0 0.707107
    outer loop
      vertex 5 49.6441 26.2132
      vertex 1.2132 17.3891 30
      vertex 5 33.6708 26.2132
    endloop
  endfacet
  facet normal 0.707107 0 0.707107
    outer loop
      vertex 5 33.6708 26.2132
      vertex 1.2132 17.3891 30
      vertex 5 31.9788 26.2132
    endloop
  endfacet
  facet normal 0.707107 0 0.707107
    outer loop
      vertex 5 31.9788 26.2132
      vertex 1.2132 17.3891 30
      vertex 5 16.0108 26.2132
    endloop
  endfacet
  facet normal 0.707107 0 0.707107
    outer loop
      vertex 9 102.876 22.2132
      vertex 5 102.64 26.2132
      vertex 9 101.184 22.2132
    endloop
  endfacet
  facet normal 0.707107 0 0.707107
    outer loop
      vertex 9 85.211 22.2132
      vertex 5 84.9749 26.2132
      vertex 9 83.519 22.2132
    endloop
  endfacet
  facet normal 0.707107 0 0.707107
    outer loop
      vertex 9 67.5457 22.2132
      vertex 5 67.3095 26.2132
      vertex 9 65.8536 22.2132
    endloop
  endfacet
  facet normal 0.707107 0 0.707107
    outer loop
      vertex 9 49.8803 22.2132
      vertex 5 49.6441 26.2132
      vertex 9 48.1883 22.2132
    endloop
  endfacet
  facet normal 0.707107 0 0.707107
    outer loop
      vertex 9 32.215 22.2132
      vertex 5 31.9788 26.2132
      vertex 9 30.5229 22.2132
    endloop
  endfacet
  facet normal -1 0 0
    outer loop
      vertex -9 24.13 5.35794e-015
      vertex -9 30.5229 22.2132
      vertex -9 32.215 22.2132
    endloop
  endfacet
  facet normal -1 0 0
    outer loop
      vertex -9 30.5229 22.2132
      vertex -9 24.13 5.35794e-015
      vertex -9 22.438 4.98223e-015
    endloop
  endfacet
  facet normal -1 0 0
    outer loop
      vertex -9 41.7954 9.28044e-015
      vertex -9 48.1883 22.2132
      vertex -9 49.8803 22.2132
    endloop
  endfacet
  facet normal -1 0 0
    outer loop
      vertex -9 48.1883 22.2132
      vertex -9 41.7954 9.28044e-015
      vertex -9 40.1033 8.90473e-015
    endloop
  endfacet
  facet normal -1 0 0
    outer loop
      vertex -9 59.4607 1.32029e-014
      vertex -9 65.8536 22.2132
      vertex -9 67.5457 22.2132
    endloop
  endfacet
  facet normal -1 0 0
    outer loop
      vertex -9 65.8536 22.2132
      vertex -9 59.4607 1.32029e-014
      vertex -9 57.7687 1.28272e-014
    endloop
  endfacet
  facet normal -1 0 0
    outer loop
      vertex -9 77.1261 1.71254e-014
      vertex -9 83.519 22.2132
      vertex -9 85.211 22.2132
    endloop
  endfacet
  facet normal -1 0 0
    outer loop
      vertex -9 83.519 22.2132
      vertex -9 77.1261 1.71254e-014
      vertex -9 75.434 1.67497e-014
    endloop
  endfacet
  facet normal -1 0 0
    outer loop
      vertex -9 94.7914 2.10479e-014
      vertex -9 101.184 22.2132
      vertex -9 102.876 22.2132
    endloop
  endfacet
  facet normal -1 0 0
    outer loop
      vertex -9 101.184 22.2132
      vertex -9 94.7914 2.10479e-014
      vertex -9 93.0994 2.06722e-014
    endloop
  endfacet
  facet normal 1 -0 0
    outer loop
      vertex 9 30.5229 22.2132
      vertex 9 24.13 5.35794e-015
      vertex 9 32.215 22.2132
    endloop
  endfacet
  facet normal 1 0 -0
    outer loop
      vertex 9 24.13 5.35794e-015
      vertex 9 30.5229 22.2132
      vertex 9 22.438 4.98223e-015
    endloop
  endfacet
  facet normal 1 -0 0
    outer loop
      vertex 9 48.1883 22.2132
      vertex 9 41.7954 9.28044e-015
      vertex 9 49.8803 22.2132
    endloop
  endfacet
  facet normal 1 0 -0
    outer loop
      vertex 9 41.7954 9.28044e-015
      vertex 9 48.1883 22.2132
      vertex 9 40.1033 8.90473e-015
    endloop
  endfacet
  facet normal 1 -0 0
    outer loop
      vertex 9 65.8536 22.2132
      vertex 9 59.4607 1.32029e-014
      vertex 9 67.5457 22.2132
    endloop
  endfacet
  facet normal 1 0 -0
    outer loop
      vertex 9 59.4607 1.32029e-014
      vertex 9 65.8536 22.2132
      vertex 9 57.7687 1.28272e-014
    endloop
  endfacet
  facet normal 1 -0 0
    outer loop
      vertex 9 83.519 22.2132
      vertex 9 77.1261 1.71254e-014
      vertex 9 85.211 22.2132
    endloop
  endfacet
  facet normal 1 0 -0
    outer loop
      vertex 9 77.1261 1.71254e-014
      vertex 9 83.519 22.2132
      vertex 9 75.434 1.67497e-014
    endloop
  endfacet
  facet normal 1 -0 0
    outer loop
      vertex 9 101.184 22.2132
      vertex 9 94.7914 2.10479e-014
      vertex 9 102.876 22.2132
    endloop
  endfacet
  facet normal 1 0 -0
    outer loop
      vertex 9 94.7914 2.10479e-014
      vertex 9 101.184 22.2132
      vertex 9 93.0994 2.06722e-014
    endloop
  endfacet
  facet normal 0 2.22045e-016 -1
    outer loop
      vertex -2.8818 10.055 2.23266e-015
      vertex -5 6.46999 1.43663e-015
      vertex -3.04999 10.7799 2.39362e-015
    endloop
  endfacet
  facet normal 0 2.22045e-016 -1
    outer loop
      vertex -5 6.46999 1.43663e-015
      vertex -2.8818 10.055 2.23266e-015
      vertex -2.04999 6.46999 1.43663e-015
    endloop
  endfacet
  facet normal 0 2.22045e-016 -1
    outer loop
      vertex 3.04999 10.7799 2.39362e-015
      vertex 5 22.438 4.98223e-015
      vertex 5 6.46999 1.43663e-015
    endloop
  endfacet
  facet normal 0 2.22045e-016 -1
    outer loop
      vertex -5 22.438 4.98223e-015
      vertex 5 22.438 4.98223e-015
      vertex 3.04999 10.7799 2.39362e-015
    endloop
  endfacet
  facet normal 0 2.22045e-016 -1
    outer loop
      vertex 5 22.438 4.98223e-015
      vertex -5 22.438 4.98223e-015
      vertex 5 24.13 5.35794e-015
    endloop
  endfacet
  facet normal 0 2.22045e-016 -1
    outer loop
      vertex 5 24.13 5.35794e-015
      vertex -5 24.13 5.35794e-015
      vertex 5 40.1033 8.90473e-015
    endloop
  endfacet
  facet normal 0 2.22045e-016 -1
    outer loop
      vertex -5 40.1033 8.90473e-015
      vertex 5 40.1033 8.90473e-015
      vertex -5 24.13 5.35794e-015
    endloop
  endfacet
  facet normal 0 2.22045e-016 -1
    outer loop
      vertex -5 41.7954 9.28044e-015
      vertex 5 41.7954 9.28044e-015
      vertex -5 40.1033 8.90473e-015
    endloop
  endfacet
  facet normal 0 2.22045e-016 -1
    outer loop
      vertex 5 41.7954 9.28044e-015
      vertex -5 41.7954 9.28044e-015
      vertex 5 57.7687 1.28272e-014
    endloop
  endfacet
  facet normal 0 2.22045e-016 -1
    outer loop
      vertex 5 57.7687 1.28272e-014
      vertex -5 57.7687 1.28272e-014
      vertex 5 59.4607 1.32029e-014
    endloop
  endfacet
  facet normal 0 2.22045e-016 -1
    outer loop
      vertex -5 59.4607 1.32029e-014
      vertex 5 59.4607 1.32029e-014
      vertex -5 57.7687 1.28272e-014
    endloop
  endfacet
  facet normal 0 2.22045e-016 -1
    outer loop
      vertex 5 75.434 1.67497e-014
      vertex -5 75.434 1.67497e-014
      vertex 5 77.1261 1.71254e-014
    endloop
  endfacet
  facet normal 0 2.22045e-016 -1
    outer loop
      vertex -5 75.434 1.67497e-014
      vertex 5 75.434 1.67497e-014
      vertex -5 59.4607 1.32029e-014
    endloop
  endfacet
  facet normal 0 2.22045e-016 -1
    outer loop
      vertex 5 6.46999 1.43663e-015
      vertex 2.8818 10.055 2.23266e-015
      vertex 3.04999 10.7799 2.39362e-015
    endloop
  endfacet
  facet normal 0 2.22045e-016 -1
    outer loop
      vertex 2.8818 10.055 2.23266e-015
      vertex 5 6.46999 1.43663e-015
      vertex 2.04999 6.46999 1.43663e-015
    endloop
  endfacet
  facet normal 0 2.22045e-016 -1
    outer loop
      vertex 5 22.438 4.98223e-015
      vertex 9 24.13 5.35794e-015
      vertex 9 22.438 4.98223e-015
    endloop
  endfacet
  facet normal 0 2.22045e-016 -1
    outer loop
      vertex 9 24.13 5.35794e-015
      vertex 5 22.438 4.98223e-015
      vertex 5 24.13 5.35794e-015
    endloop
  endfacet
  facet normal 0 2.22045e-016 -1
    outer loop
      vertex 5 40.1033 8.90473e-015
      vertex 9 41.7954 9.28044e-015
      vertex 9 40.1033 8.90473e-015
    endloop
  endfacet
  facet normal 0 2.22045e-016 -1
    outer loop
      vertex 9 41.7954 9.28044e-015
      vertex 5 40.1033 8.90473e-015
      vertex 5 41.7954 9.28044e-015
    endloop
  endfacet
  facet normal 0 2.22045e-016 -1
    outer loop
      vertex 5 57.7687 1.28272e-014
      vertex 9 59.4607 1.32029e-014
      vertex 9 57.7687 1.28272e-014
    endloop
  endfacet
  facet normal 0 2.22045e-016 -1
    outer loop
      vertex 9 59.4607 1.32029e-014
      vertex 5 57.7687 1.28272e-014
      vertex 5 59.4607 1.32029e-014
    endloop
  endfacet
  facet normal 0 2.22045e-016 -1
    outer loop
      vertex 5 75.434 1.67497e-014
      vertex 9 77.1261 1.71254e-014
      vertex 9 75.434 1.67497e-014
    endloop
  endfacet
  facet normal 0 2.22045e-016 -1
    outer loop
      vertex 9 77.1261 1.71254e-014
      vertex 5 75.434 1.67497e-014
      vertex 5 77.1261 1.71254e-014
    endloop
  endfacet
  facet normal 0 2.22045e-016 -1
    outer loop
      vertex 5 93.0994 2.06722e-014
      vertex 9 94.7914 2.10479e-014
      vertex 9 93.0994 2.06722e-014
    endloop
  endfacet
  facet normal 0 2.22045e-016 -1
    outer loop
      vertex 9 94.7914 2.10479e-014
      vertex 5 93.0994 2.06722e-014
      vertex 5 94.7914 2.10479e-014
    endloop
  endfacet
  facet normal 0 2.22045e-016 -1
    outer loop
      vertex -5 22.438 4.98223e-015
      vertex 3.04999 10.7799 2.39362e-015
      vertex -3.04999 10.7799 2.39362e-015
    endloop
  endfacet
  facet normal 0 2.22045e-016 -1
    outer loop
      vertex -5 22.438 4.98223e-015
      vertex -3.04999 10.7799 2.39362e-015
      vertex -5 6.46999 1.43663e-015
    endloop
  endfacet
  facet normal 0 2.22045e-016 -1
    outer loop
      vertex 5 24.13 5.35794e-015
      vertex -5 22.438 4.98223e-015
      vertex -5 24.13 5.35794e-015
    endloop
  endfacet
  facet normal 0 2.22045e-016 -1
    outer loop
      vertex 5 40.1033 8.90473e-015
      vertex -5 40.1033 8.90473e-015
      vertex 5 41.7954 9.28044e-015
    endloop
  endfacet
  facet normal 0 2.22045e-016 -1
    outer loop
      vertex -5 57.7687 1.28272e-014
      vertex 5 57.7687 1.28272e-014
      vertex -5 41.7954 9.28044e-015
    endloop
  endfacet
  facet normal 0 2.22045e-016 -1
    outer loop
      vertex 5 59.4607 1.32029e-014
      vertex -5 59.4607 1.32029e-014
      vertex 5 75.434 1.67497e-014
    endloop
  endfacet
  facet normal 0 2.22045e-016 -1
    outer loop
      vertex -5 77.1261 1.71254e-014
      vertex 5 77.1261 1.71254e-014
      vertex -5 75.434 1.67497e-014
    endloop
  endfacet
  facet normal 0 2.22045e-016 -1
    outer loop
      vertex 5 77.1261 1.71254e-014
      vertex -5 77.1261 1.71254e-014
      vertex 5 93.0994 2.06722e-014
    endloop
  endfacet
  facet normal 0 2.22045e-016 -1
    outer loop
      vertex -5 93.0994 2.06722e-014
      vertex 5 93.0994 2.06722e-014
      vertex -5 77.1261 1.71254e-014
    endloop
  endfacet
  facet normal 0 2.22045e-016 -1
    outer loop
      vertex 5 93.0994 2.06722e-014
      vertex -5 93.0994 2.06722e-014
      vertex 5 94.7914 2.10479e-014
    endloop
  endfacet
  facet normal 0 2.22045e-016 -1
    outer loop
      vertex -5 94.7914 2.10479e-014
      vertex 5 94.7914 2.10479e-014
      vertex -5 93.0994 2.06722e-014
    endloop
  endfacet
  facet normal 0 2.22045e-016 -1
    outer loop
      vertex 5 94.7914 2.10479e-014
      vertex -5 94.7914 2.10479e-014
      vertex 5 110.759 2.45935e-014
    endloop
  endfacet
  facet normal 0 2.22045e-016 -1
    outer loop
      vertex 5 110.759 2.45935e-014
      vertex -5 94.7914 2.10479e-014
      vertex -5 110.759 2.45935e-014
    endloop
  endfacet
  facet normal 0 2.22045e-016 -1
    outer loop
      vertex -9 93.0994 2.06722e-014
      vertex -5 94.7914 2.10479e-014
      vertex -5 93.0994 2.06722e-014
    endloop
  endfacet
  facet normal 0 2.22045e-016 -1
    outer loop
      vertex -5 94.7914 2.10479e-014
      vertex -9 93.0994 2.06722e-014
      vertex -9 94.7914 2.10479e-014
    endloop
  endfacet
  facet normal 0 2.22045e-016 -1
    outer loop
      vertex -9 75.434 1.67497e-014
      vertex -5 77.1261 1.71254e-014
      vertex -5 75.434 1.67497e-014
    endloop
  endfacet
  facet normal 0 2.22045e-016 -1
    outer loop
      vertex -5 77.1261 1.71254e-014
      vertex -9 75.434 1.67497e-014
      vertex -9 77.1261 1.71254e-014
    endloop
  endfacet
  facet normal 0 2.22045e-016 -1
    outer loop
      vertex -9 57.7687 1.28272e-014
      vertex -5 59.4607 1.32029e-014
      vertex -5 57.7687 1.28272e-014
    endloop
  endfacet
  facet normal 0 2.22045e-016 -1
    outer loop
      vertex -5 59.4607 1.32029e-014
      vertex -9 57.7687 1.28272e-014
      vertex -9 59.4607 1.32029e-014
    endloop
  endfacet
  facet normal 0 2.22045e-016 -1
    outer loop
      vertex -9 40.1033 8.90473e-015
      vertex -5 41.7954 9.28044e-015
      vertex -5 40.1033 8.90473e-015
    endloop
  endfacet
  facet normal 0 2.22045e-016 -1
    outer loop
      vertex -5 41.7954 9.28044e-015
      vertex -9 40.1033 8.90473e-015
      vertex -9 41.7954 9.28044e-015
    endloop
  endfacet
  facet normal 0 2.22045e-016 -1
    outer loop
      vertex -9 22.438 4.98223e-015
      vertex -5 24.13 5.35794e-015
      vertex -5 22.438 4.98223e-015
    endloop
  endfacet
  facet normal 0 2.22045e-016 -1
    outer loop
      vertex -5 24.13 5.35794e-015
      vertex -9 22.438 4.98223e-015
      vertex -9 24.13 5.35794e-015
    endloop
  endfacet
  facet normal -0 0 1
    outer loop
      vertex -1.2132 121.679 30
      vertex 1.2132 17.3891 30
      vertex 1.2132 121.679 30
    endloop
  endfacet
  facet normal 0 0 1
    outer loop
      vertex 1.2132 17.3891 30
      vertex -1.2132 121.679 30
      vertex -1.2132 17.3891 30
    endloop
  endfacet
  facet normal 0 -0.939693 0.34202
    outer loop
      vertex -5 22.438 4.98223e-015
      vertex -9 30.5229 22.2132
      vertex -9 22.438 4.98223e-015
    endloop
  endfacet
  facet normal 6.69144e-009 -0.939693 0.34202
    outer loop
      vertex -9 30.5229 22.2132
      vertex -5 22.438 4.98223e-015
      vertex -5 31.9788 26.2132
    endloop
  endfacet
  facet normal -1 0 0
    outer loop
      vertex -5 22.438 4.98223e-015
      vertex -5 16.0108 26.2132
      vertex -5 31.9788 26.2132
    endloop
  endfacet
  facet normal -1 0 -0
    outer loop
      vertex -5 16.0108 26.2132
      vertex -5 22.438 4.98223e-015
      vertex -5 6.46999 1.43663e-015
    endloop
  endfacet
  facet normal 0 -0.939693 0.34202
    outer loop
      vertex -5 40.1033 8.90473e-015
      vertex -9 48.1883 22.2132
      vertex -9 40.1033 8.90473e-015
    endloop
  endfacet
  facet normal -3.73014e-007 -0.939693 0.34202
    outer loop
      vertex -9 48.1883 22.2132
      vertex -5 40.1033 8.90473e-015
      vertex -5 49.6441 26.2132
    endloop
  endfacet
  facet normal -1 0 0
    outer loop
      vertex -5 40.1033 8.90473e-015
      vertex -5 33.6708 26.2132
      vertex -5 49.6441 26.2132
    endloop
  endfacet
  facet normal -1 0 -0
    outer loop
      vertex -5 33.6708 26.2132
      vertex -5 40.1033 8.90473e-015
      vertex -5 24.13 5.35794e-015
    endloop
  endfacet
  facet normal 3.73014e-007 0.939693 -0.34202
    outer loop
      vertex -5 24.13 5.35794e-015
      vertex -9 32.215 22.2132
      vertex -5 33.6708 26.2132
    endloop
  endfacet
  facet normal 0 0.939693 -0.34202
    outer loop
      vertex -9 32.215 22.2132
      vertex -5 24.13 5.35794e-015
      vertex -9 24.13 5.35794e-015
    endloop
  endfacet
  facet normal 0 -0.939693 0.34202
    outer loop
      vertex -5 57.7687 1.28272e-014
      vertex -9 65.8536 22.2132
      vertex -9 57.7687 1.28272e-014
    endloop
  endfacet
  facet normal -3.73014e-007 -0.939693 0.34202
    outer loop
      vertex -9 65.8536 22.2132
      vertex -5 57.7687 1.28272e-014
      vertex -5 67.3095 26.2132
    endloop
  endfacet
  facet normal -1 0 0
    outer loop
      vertex -5 57.7687 1.28272e-014
      vertex -5 51.3362 26.2132
      vertex -5 67.3095 26.2132
    endloop
  endfacet
  facet normal -1 0 -0
    outer loop
      vertex -5 51.3362 26.2132
      vertex -5 57.7687 1.28272e-014
      vertex -5 41.7954 9.28044e-015
    endloop
  endfacet
  facet normal 3.73014e-007 0.939693 -0.34202
    outer loop
      vertex -5 41.7954 9.28044e-015
      vertex -9 49.8803 22.2132
      vertex -5 51.3362 26.2132
    endloop
  endfacet
  facet normal 0 0.939693 -0.34202
    outer loop
      vertex -9 49.8803 22.2132
      vertex -5 41.7954 9.28044e-015
      vertex -9 41.7954 9.28044e-015
    endloop
  endfacet
  facet normal 0 -0.939693 0.34202
    outer loop
      vertex -5 75.434 1.67497e-014
      vertex -9 83.519 22.2132
      vertex -9 75.434 1.67497e-014
    endloop
  endfacet
  facet normal -3.73014e-007 -0.939693 0.34202
    outer loop
      vertex -9 83.519 22.2132
      vertex -5 75.434 1.67497e-014
      vertex -5 84.9749 26.2132
    endloop
  endfacet
  facet normal -1 0 0
    outer loop
      vertex -5 75.434 1.67497e-014
      vertex -5 69.0015 26.2132
      vertex -5 84.9749 26.2132
    endloop
  endfacet
  facet normal -1 0 -0
    outer loop
      vertex -5 69.0015 26.2132
      vertex -5 75.434 1.67497e-014
      vertex -5 59.4607 1.32029e-014
    endloop
  endfacet
  facet normal 3.73014e-007 0.939693 -0.34202
    outer loop
      vertex -5 59.4607 1.32029e-014
      vertex -9 67.5457 22.2132
      vertex -5 69.0015 26.2132
    endloop
  endfacet
  facet normal 0 0.939693 -0.34202
    outer loop
      vertex -9 67.5457 22.2132
      vertex -5 59.4607 1.32029e-014
      vertex -9 59.4607 1.32029e-014
    endloop
  endfacet
  facet normal 0 -0.939693 0.34202
    outer loop
      vertex -5 93.0994 2.06722e-014
      vertex -9 101.184 22.2132
      vertex -9 93.0994 2.06722e-014
    endloop
  endfacet
  facet normal -3.73014e-007 -0.939693 0.34202
    outer loop
      vertex -9 101.184 22.2132
      vertex -5 93.0994 2.06722e-014
      vertex -5 102.64 26.2132
    endloop
  endfacet
  facet normal -1 0 0
    outer loop
      vertex -5 93.0994 2.06722e-014
      vertex -5 86.6669 26.2132
      vertex -5 102.64 26.2132
    endloop
  endfacet
  facet normal -1 0 -0
    outer loop
      vertex -5 86.6669 26.2132
      vertex -5 93.0994 2.06722e-014
      vertex -5 77.1261 1.71254e-014
    endloop
  endfacet
  facet normal 3.73014e-007 0.939693 -0.34202
    outer loop
      vertex -5 77.1261 1.71254e-014
      vertex -9 85.211 22.2132
      vertex -5 86.6669 26.2132
    endloop
  endfacet
  facet normal 0 0.939693 -0.34202
    outer loop
      vertex -9 85.211 22.2132
      vertex -5 77.1261 1.71254e-014
      vertex -9 77.1261 1.71254e-014
    endloop
  endfacet
  facet normal -1 0 0
    outer loop
      vertex -5 110.759 2.45935e-014
      vertex -5 104.332 26.2132
      vertex -5 120.3 26.2132
    endloop
  endfacet
  facet normal -1 0 -0
    outer loop
      vertex -5 104.332 26.2132
      vertex -5 110.759 2.45935e-014
      vertex -5 94.7914 2.10479e-014
    endloop
  endfacet
  facet normal 3.73014e-007 0.939693 -0.34202
    outer loop
      vertex -5 94.7914 2.10479e-014
      vertex -9 102.876 22.2132
      vertex -5 104.332 26.2132
    endloop
  endfacet
  facet normal 0 0.939693 -0.34202
    outer loop
      vertex -9 102.876 22.2132
      vertex -5 94.7914 2.10479e-014
      vertex -9 94.7914 2.10479e-014
    endloop
  endfacet
  facet normal 0 -0.342021 -0.939692
    outer loop
      vertex 3 111.346 1.61224
      vertex 2 112.828 1.07292
      vertex 3 112.828 1.07292
    endloop
  endfacet
  facet normal 0 -0.342021 -0.939692
    outer loop
      vertex 3 111.346 1.61224
      vertex -2 112.828 1.07292
      vertex 2 112.828 1.07292
    endloop
  endfacet
  facet normal 0 -0.342021 -0.939692
    outer loop
      vertex -3 111.346 1.61224
      vertex -2 112.828 1.07292
      vertex 3 111.346 1.61224
    endloop
  endfacet
  facet normal -0 -0.342021 -0.939692
    outer loop
      vertex -2 112.828 1.07292
      vertex -3 111.346 1.61224
      vertex -3 112.828 1.07292
    endloop
  endfacet
  facet normal 0 -0.34202 -0.939693
    outer loop
      vertex -2 112.828 1.07292
      vertex 2.78425 115.776 2.57074e-014
      vertex 2 112.828 1.07292
    endloop
  endfacet
  facet normal -0 -0.34202 -0.939693
    outer loop
      vertex 2.78425 115.776 2.57074e-014
      vertex -2 112.828 1.07292
      vertex -2.78425 115.776 2.57074e-014
    endloop
  endfacet
  facet normal 0.970142 -0.227909 0.0829521
    outer loop
      vertex 2 121.378 24.5652
      vertex 3 116.694 2.59113e-014
      vertex 3 125.137 23.1972
    endloop
  endfacet
  facet normal 0.970143 -0.227909 0.082952
    outer loop
      vertex 2 112.828 1.07292
      vertex 3 116.694 2.59113e-014
      vertex 2 121.378 24.5652
    endloop
  endfacet
  facet normal 0.970142 -0.227908 0.0829555
    outer loop
      vertex 3 116.694 2.59113e-014
      vertex 2 112.828 1.07292
      vertex 2.78425 115.776 2.57074e-014
    endloop
  endfacet
  facet normal 0 0.34202 0.939693
    outer loop
      vertex 3 125.137 23.1972
      vertex -2 121.378 24.5652
      vertex 2 121.378 24.5652
    endloop
  endfacet
  facet normal 0 0.34202 0.939693
    outer loop
      vertex -2 121.378 24.5652
      vertex 3 125.137 23.1972
      vertex -3 125.137 23.1972
    endloop
  endfacet
  facet normal -0 0.342021 0.939692
    outer loop
      vertex 2 121.378 24.5652
      vertex 3 119.897 25.1046
      vertex 3 121.378 24.5652
    endloop
  endfacet
  facet normal -0 0.342021 0.939692
    outer loop
      vertex -2 121.378 24.5652
      vertex 3 119.897 25.1046
      vertex 2 121.378 24.5652
    endloop
  endfacet
  facet normal 0 0.342021 0.939692
    outer loop
      vertex -3 119.897 25.1046
      vertex -2 121.378 24.5652
      vertex -3 121.378 24.5652
    endloop
  endfacet
  facet normal 0 0.342021 0.939692
    outer loop
      vertex -2 121.378 24.5652
      vertex -3 119.897 25.1046
      vertex 3 119.897 25.1046
    endloop
  endfacet
  facet normal 0 0.939693 -0.34202
    outer loop
      vertex 3 116.694 2.59113e-014
      vertex -3 125.137 23.1972
      vertex 3 125.137 23.1972
    endloop
  endfacet
  facet normal 0 0.939693 -0.34202
    outer loop
      vertex -3 125.137 23.1972
      vertex 3 116.694 2.59113e-014
      vertex -3 116.694 2.59113e-014
    endloop
  endfacet
  facet normal -0.970142 -0.227909 0.0829521
    outer loop
      vertex -3 116.694 2.59113e-014
      vertex -2 121.378 24.5652
      vertex -3 125.137 23.1972
    endloop
  endfacet
  facet normal -0.970142 -0.227908 0.0829555
    outer loop
      vertex -2 112.828 1.07292
      vertex -3 116.694 2.59113e-014
      vertex -2.78425 115.776 2.57074e-014
    endloop
  endfacet
  facet normal -0.970143 -0.227909 0.082952
    outer loop
      vertex -3 116.694 2.59113e-014
      vertex -2 112.828 1.07292
      vertex -2 121.378 24.5652
    endloop
  endfacet
  facet normal 0 0.939693 -0.34202
    outer loop
      vertex -2 112.828 1.07292
      vertex -3 121.378 24.5652
      vertex -2 121.378 24.5652
    endloop
  endfacet
  facet normal 0 0.939693 -0.34202
    outer loop
      vertex -3 121.378 24.5652
      vertex -2 112.828 1.07292
      vertex -3 112.828 1.07292
    endloop
  endfacet
  facet normal 0 0.939693 -0.34202
    outer loop
      vertex 3 112.828 1.07292
      vertex 2 121.378 24.5652
      vertex 3 121.378 24.5652
    endloop
  endfacet
  facet normal 0 0.939693 -0.34202
    outer loop
      vertex 2 121.378 24.5652
      vertex 3 112.828 1.07292
      vertex 2 112.828 1.07292
    endloop
  endfacet
  facet normal -1 0 0
    outer loop
      vertex -3 112.828 1.07292
      vertex -3 119.897 25.1046
      vertex -3 121.378 24.5652
    endloop
  endfacet
  facet normal -1 0 0
    outer loop
      vertex -3 119.897 25.1046
      vertex -3 112.828 1.07292
      vertex -3 111.346 1.61224
    endloop
  endfacet
  facet normal 1 0 0
    outer loop
      vertex 3 119.897 25.1046
      vertex 3 112.828 1.07292
      vertex 3 121.378 24.5652
    endloop
  endfacet
  facet normal 1 0 -0
    outer loop
      vertex 3 112.828 1.07292
      vertex 3 119.897 25.1046
      vertex 3 111.346 1.61224
    endloop
  endfacet
  facet normal 0 2.22045e-016 -1
    outer loop
      vertex -2.78425 115.776 2.57074e-014
      vertex 3 116.694 2.59113e-014
      vertex 2.78425 115.776 2.57074e-014
    endloop
  endfacet
  facet normal 0 2.22045e-016 -1
    outer loop
      vertex 3 116.694 2.59113e-014
      vertex -2.78425 115.776 2.57074e-014
      vertex -3 116.694 2.59113e-014
    endloop
  endfacet
  facet normal 1 -0 0
    outer loop
      vertex 5 16.0108 26.2132
      vertex 5 22.438 4.98223e-015
      vertex 5 31.9788 26.2132
    endloop
  endfacet
  facet normal 1 0 0
    outer loop
      vertex 5 22.438 4.98223e-015
      vertex 5 16.0108 26.2132
      vertex 5 6.46999 1.43663e-015
    endloop
  endfacet
  facet normal -6.69144e-009 -0.939693 0.34202
    outer loop
      vertex 5 22.438 4.98223e-015
      vertex 9 30.5229 22.2132
      vertex 5 31.9788 26.2132
    endloop
  endfacet
  facet normal 0 -0.939693 0.34202
    outer loop
      vertex 9 30.5229 22.2132
      vertex 5 22.438 4.98223e-015
      vertex 9 22.438 4.98223e-015
    endloop
  endfacet
  facet normal 1 -0 0
    outer loop
      vertex 5 33.6708 26.2132
      vertex 5 40.1033 8.90473e-015
      vertex 5 49.6441 26.2132
    endloop
  endfacet
  facet normal 1 0 0
    outer loop
      vertex 5 40.1033 8.90473e-015
      vertex 5 33.6708 26.2132
      vertex 5 24.13 5.35794e-015
    endloop
  endfacet
  facet normal 3.73014e-007 -0.939693 0.34202
    outer loop
      vertex 5 40.1033 8.90473e-015
      vertex 9 48.1883 22.2132
      vertex 5 49.6441 26.2132
    endloop
  endfacet
  facet normal 0 -0.939693 0.34202
    outer loop
      vertex 9 48.1883 22.2132
      vertex 5 40.1033 8.90473e-015
      vertex 9 40.1033 8.90473e-015
    endloop
  endfacet
  facet normal 0 0.939693 -0.34202
    outer loop
      vertex 5 24.13 5.35794e-015
      vertex 9 32.215 22.2132
      vertex 9 24.13 5.35794e-015
    endloop
  endfacet
  facet normal -3.73014e-007 0.939693 -0.34202
    outer loop
      vertex 9 32.215 22.2132
      vertex 5 24.13 5.35794e-015
      vertex 5 33.6708 26.2132
    endloop
  endfacet
  facet normal 1 -0 0
    outer loop
      vertex 5 51.3362 26.2132
      vertex 5 57.7687 1.28272e-014
      vertex 5 67.3095 26.2132
    endloop
  endfacet
  facet normal 1 0 0
    outer loop
      vertex 5 57.7687 1.28272e-014
      vertex 5 51.3362 26.2132
      vertex 5 41.7954 9.28044e-015
    endloop
  endfacet
  facet normal 3.73014e-007 -0.939693 0.34202
    outer loop
      vertex 5 57.7687 1.28272e-014
      vertex 9 65.8536 22.2132
      vertex 5 67.3095 26.2132
    endloop
  endfacet
  facet normal 0 -0.939693 0.34202
    outer loop
      vertex 9 65.8536 22.2132
      vertex 5 57.7687 1.28272e-014
      vertex 9 57.7687 1.28272e-014
    endloop
  endfacet
  facet normal 0 0.939693 -0.34202
    outer loop
      vertex 5 41.7954 9.28044e-015
      vertex 9 49.8803 22.2132
      vertex 9 41.7954 9.28044e-015
    endloop
  endfacet
  facet normal -3.73014e-007 0.939693 -0.34202
    outer loop
      vertex 9 49.8803 22.2132
      vertex 5 41.7954 9.28044e-015
      vertex 5 51.3362 26.2132
    endloop
  endfacet
  facet normal 1 -0 0
    outer loop
      vertex 5 69.0015 26.2132
      vertex 5 75.434 1.67497e-014
      vertex 5 84.9749 26.2132
    endloop
  endfacet
  facet normal 1 0 0
    outer loop
      vertex 5 75.434 1.67497e-014
      vertex 5 69.0015 26.2132
      vertex 5 59.4607 1.32029e-014
    endloop
  endfacet
  facet normal 3.73014e-007 -0.939693 0.34202
    outer loop
      vertex 5 75.434 1.67497e-014
      vertex 9 83.519 22.2132
      vertex 5 84.9749 26.2132
    endloop
  endfacet
  facet normal 0 -0.939693 0.34202
    outer loop
      vertex 9 83.519 22.2132
      vertex 5 75.434 1.67497e-014
      vertex 9 75.434 1.67497e-014
    endloop
  endfacet
  facet normal 0 0.939693 -0.34202
    outer loop
      vertex 5 59.4607 1.32029e-014
      vertex 9 67.5457 22.2132
      vertex 9 59.4607 1.32029e-014
    endloop
  endfacet
  facet normal -3.73014e-007 0.939693 -0.34202
    outer loop
      vertex 9 67.5457 22.2132
      vertex 5 59.4607 1.32029e-014
      vertex 5 69.0015 26.2132
    endloop
  endfacet
  facet normal 1 -0 0
    outer loop
      vertex 5 86.6669 26.2132
      vertex 5 93.0994 2.06722e-014
      vertex 5 102.64 26.2132
    endloop
  endfacet
  facet normal 1 0 0
    outer loop
      vertex 5 93.0994 2.06722e-014
      vertex 5 86.6669 26.2132
      vertex 5 77.1261 1.71254e-014
    endloop
  endfacet
  facet normal 3.73014e-007 -0.939693 0.34202
    outer loop
      vertex 5 93.0994 2.06722e-014
      vertex 9 101.184 22.2132
      vertex 5 102.64 26.2132
    endloop
  endfacet
  facet normal 0 -0.939693 0.34202
    outer loop
      vertex 9 101.184 22.2132
      vertex 5 93.0994 2.06722e-014
      vertex 9 93.0994 2.06722e-014
    endloop
  endfacet
  facet normal 0 0.939693 -0.34202
    outer loop
      vertex 5 77.1261 1.71254e-014
      vertex 9 85.211 22.2132
      vertex 9 77.1261 1.71254e-014
    endloop
  endfacet
  facet normal -3.73014e-007 0.939693 -0.34202
    outer loop
      vertex 9 85.211 22.2132
      vertex 5 77.1261 1.71254e-014
      vertex 5 86.6669 26.2132
    endloop
  endfacet
  facet normal 1 -0 0
    outer loop
      vertex 5 104.332 26.2132
      vertex 5 110.759 2.45935e-014
      vertex 5 120.3 26.2132
    endloop
  endfacet
  facet normal 1 0 0
    outer loop
      vertex 5 110.759 2.45935e-014
      vertex 5 104.332 26.2132
      vertex 5 94.7914 2.10479e-014
    endloop
  endfacet
  facet normal 0 0.939693 -0.34202
    outer loop
      vertex 5 94.7914 2.10479e-014
      vertex 9 102.876 22.2132
      vertex 9 94.7914 2.10479e-014
    endloop
  endfacet
  facet normal -3.73014e-007 0.939693 -0.34202
    outer loop
      vertex 9 102.876 22.2132
      vertex 5 94.7914 2.10479e-014
      vertex 5 104.332 26.2132
    endloop
  endfacet
  facet normal -2.49123e-007 -0.939693 0.34202
    outer loop
      vertex -2.04999 15.4243 24.6017
      vertex -1.2132 17.3891 30
      vertex -5 16.0108 26.2132
    endloop
  endfacet
  facet normal 0 -0.939693 0.34202
    outer loop
      vertex -1.2132 17.3891 30
      vertex -2.04999 15.4243 24.6017
      vertex 1.2132 17.3891 30
    endloop
  endfacet
  facet normal 0 -0.939693 0.34202
    outer loop
      vertex 2.04999 15.4243 24.6017
      vertex 1.2132 17.3891 30
      vertex -2.04999 15.4243 24.6017
    endloop
  endfacet
  facet normal -7.30964e-008 -0.939693 0.34202
    outer loop
      vertex -5 6.46999 1.43663e-015
      vertex -2.04999 15.4243 24.6017
      vertex -5 16.0108 26.2132
    endloop
  endfacet
  facet normal 0 -0.939693 0.34202
    outer loop
      vertex -2.04999 15.4243 24.6017
      vertex -5 6.46999 1.43663e-015
      vertex -2.04999 6.46999 1.43663e-015
    endloop
  endfacet
  facet normal 2.49123e-007 -0.939693 0.34202
    outer loop
      vertex 1.2132 17.3891 30
      vertex 2.04999 15.4243 24.6017
      vertex 5 16.0108 26.2132
    endloop
  endfacet
  facet normal 0 -0.939693 0.34202
    outer loop
      vertex 5 6.46999 1.43663e-015
      vertex 2.04999 15.4243 24.6017
      vertex 2.04999 6.46999 1.43663e-015
    endloop
  endfacet
  facet normal 7.30964e-008 -0.939693 0.34202
    outer loop
      vertex 2.04999 15.4243 24.6017
      vertex 5 6.46999 1.43663e-015
      vertex 5 16.0108 26.2132
    endloop
  endfacet
  facet normal 1.34643e-006 0.939693 -0.342019
    outer loop
      vertex 3 119.897 25.1046
      vertex 1.2132 121.679 30
      vertex 5 120.3 26.2132
    endloop
  endfacet
  facet normal 0 0.939693 -0.342019
    outer loop
      vertex 1.2132 121.679 30
      vertex 3 119.897 25.1046
      vertex -1.2132 121.679 30
    endloop
  endfacet
  facet normal 0 0.939693 -0.342019
    outer loop
      vertex -3 119.897 25.1046
      vertex -1.2132 121.679 30
      vertex 3 119.897 25.1046
    endloop
  endfacet
  facet normal 2.23548e-006 0.939693 -0.34202
    outer loop
      vertex 5 120.3 26.2132
      vertex 3 111.346 1.61224
      vertex 3 119.897 25.1046
    endloop
  endfacet
  facet normal 0 0.939692 -0.342021
    outer loop
      vertex 3 111.346 1.61224
      vertex 5 110.759 2.45935e-014
      vertex -3 111.346 1.61224
    endloop
  endfacet
  facet normal 4.86974e-007 0.939693 -0.34202
    outer loop
      vertex 5 110.759 2.45935e-014
      vertex 3 111.346 1.61224
      vertex 5 120.3 26.2132
    endloop
  endfacet
  facet normal -1.34643e-006 0.939693 -0.342019
    outer loop
      vertex -1.2132 121.679 30
      vertex -3 119.897 25.1046
      vertex -5 120.3 26.2132
    endloop
  endfacet
  facet normal -2.23548e-006 0.939693 -0.34202
    outer loop
      vertex -3 111.346 1.61224
      vertex -5 120.3 26.2132
      vertex -3 119.897 25.1046
    endloop
  endfacet
  facet normal -4.86974e-007 0.939693 -0.34202
    outer loop
      vertex -3 111.346 1.61224
      vertex -5 110.759 2.45935e-014
      vertex -5 120.3 26.2132
    endloop
  endfacet
  facet normal 0 0.939692 -0.342021
    outer loop
      vertex -5 110.759 2.45935e-014
      vertex -3 111.346 1.61224
      vertex 5 110.759 2.45935e-014
    endloop
  endfacet
  facet normal -0.970843 0.225259 -0.0819874
    outer loop
      vertex 2.04999 15.4243 24.6017
      vertex 2.8818 10.055 2.23266e-015
      vertex 2.04999 6.46999 1.43663e-015
    endloop
  endfacet
  facet normal -0.970843 0.225259 -0.0819874
    outer loop
      vertex 3.04999 10.7799 2.39362e-015
      vertex 2.04999 15.4243 24.6017
      vertex 3.04999 19.23 23.2165
    endloop
  endfacet
  facet normal -0.970843 0.225258 -0.0819874
    outer loop
      vertex 2.04999 15.4243 24.6017
      vertex 3.04999 10.7799 2.39362e-015
      vertex 2.8818 10.055 2.23266e-015
    endloop
  endfacet
  facet normal 0.970843 0.225259 -0.0819874
    outer loop
      vertex -2.04999 15.4243 24.6017
      vertex -2.04999 6.46999 1.43663e-015
      vertex -2.8818 10.055 2.23266e-015
    endloop
  endfacet
  facet normal 0 -0.34202 -0.939693
    outer loop
      vertex -2.04999 15.4243 24.6017
      vertex 3.04999 19.23 23.2165
      vertex 2.04999 15.4243 24.6017
    endloop
  endfacet
  facet normal -0 -0.34202 -0.939693
    outer loop
      vertex 3.04999 19.23 23.2165
      vertex -2.04999 15.4243 24.6017
      vertex -3.04999 19.23 23.2165
    endloop
  endfacet
  facet normal 0 -0.939693 0.34202
    outer loop
      vertex -3.04999 10.7799 2.39362e-015
      vertex 3.04999 19.23 23.2165
      vertex -3.04999 19.23 23.2165
    endloop
  endfacet
  facet normal 0 -0.939693 0.34202
    outer loop
      vertex 3.04999 19.23 23.2165
      vertex -3.04999 10.7799 2.39362e-015
      vertex 3.04999 10.7799 2.39362e-015
    endloop
  endfacet
  facet normal 0.970843 0.225259 -0.0819874
    outer loop
      vertex -2.04999 15.4243 24.6017
      vertex -3.04999 10.7799 2.39362e-015
      vertex -3.04999 19.23 23.2165
    endloop
  endfacet
  facet normal 0.970843 0.225258 -0.0819874
    outer loop
      vertex -3.04999 10.7799 2.39362e-015
      vertex -2.04999 15.4243 24.6017
      vertex -2.8818 10.055 2.23266e-015
    endloop
  endfacet
endsolid OpenSCAD_Model
