solid OpenSCAD_Model
  facet normal -2.46359e-006 0.522496 0.852642
    outer loop
      vertex 5.20907 8.5 34.4498
      vertex 6.44917 7.60221 35
      vertex 5.87785 8.09017 34.701
    endloop
  endfacet
  facet normal 0 0.522498 0.85264
    outer loop
      vertex 5.20907 8.5 34.4498
      vertex -0.962096 7.60221 35
      vertex 6.44917 7.60221 35
    endloop
  endfacet
  facet normal -0 0.522498 0.85264
    outer loop
      vertex -1 8.5 34.4498
      vertex -0.962096 7.60221 35
      vertex 5.20907 8.5 34.4498
    endloop
  endfacet
  facet normal 3.67705e-005 0.5225 0.85264
    outer loop
      vertex -0.962096 7.60221 35
      vertex -1 8.5 34.4498
      vertex -1 7.70636 34.9362
    endloop
  endfacet
  facet normal -1 0 0
    outer loop
      vertex -1 7.70636 0.0638177
      vertex -1 8.5 34.4498
      vertex -1 8.5 0.550163
    endloop
  endfacet
  facet normal -1 -0 0
    outer loop
      vertex -1 8.5 34.4498
      vertex -1 7.70636 0.0638177
      vertex -1 7.70636 34.9362
    endloop
  endfacet
  facet normal 6.88759e-007 0.522499 -0.85264
    outer loop
      vertex 6.44917 7.60221 1.65405e-015
      vertex 5.20907 8.5 0.550163
      vertex 5.87785 8.09017 0.299019
    endloop
  endfacet
  facet normal 1.89324e-016 0.522499 -0.85264
    outer loop
      vertex -0.962096 7.60221 8.41643e-018
      vertex 5.20907 8.5 0.550163
      vertex 6.44917 7.60221 1.65405e-015
    endloop
  endfacet
  facet normal -4.4114e-006 0.522498 -0.85264
    outer loop
      vertex -1 8.5 0.550163
      vertex -0.962096 7.60221 8.41643e-018
      vertex -1 7.70636 0.0638177
    endloop
  endfacet
  facet normal 0 0.522499 -0.85264
    outer loop
      vertex -0.962096 7.60221 8.41643e-018
      vertex -1 8.5 0.550163
      vertex 5.20907 8.5 0.550163
    endloop
  endfacet
  facet normal 2.22045e-016 0 -1
    outer loop
      vertex 2.018 -0.585533 6.70131e-016
      vertex 7.07107 -7.07107 1.79214e-015
      vertex 4.83275 -8.31899 1.29513e-015
    endloop
  endfacet
  facet normal 2.22045e-016 0 -1
    outer loop
      vertex 7.07107 -7.07107 1.79214e-015
      vertex 2.018 -0.585533 6.70131e-016
      vertex 6.11879 -0.157146 1.58069e-015
    endloop
  endfacet
  facet normal 2.22045e-016 0 -1
    outer loop
      vertex 6.11879 -0.157146 1.58069e-015
      vertex 10 0 2.44249e-015
      vertex 9.87688 -1.56434 2.41515e-015
    endloop
  endfacet
  facet normal 2.22045e-016 0 -1
    outer loop
      vertex 6.11879 -0.157146 1.58069e-015
      vertex 9.87688 -1.56434 2.41515e-015
      vertex 9.51056 -3.09017 2.33381e-015
    endloop
  endfacet
  facet normal 2.22045e-016 0 -1
    outer loop
      vertex 10 0 2.44249e-015
      vertex 6.11879 -0.157146 1.58069e-015
      vertex 9.87688 1.56434 2.41515e-015
    endloop
  endfacet
  facet normal 2.22045e-016 0 -1
    outer loop
      vertex 6.11879 -0.157146 1.58069e-015
      vertex 9.51056 -3.09017 2.33381e-015
      vertex 8.91006 -4.5399 2.20048e-015
    endloop
  endfacet
  facet normal 2.22045e-016 0 -1
    outer loop
      vertex 9.87688 1.56434 2.41515e-015
      vertex 6.11879 -0.157146 1.58069e-015
      vertex 9.51056 3.09017 2.33381e-015
    endloop
  endfacet
  facet normal 2.22045e-016 0 -1
    outer loop
      vertex 6.11879 -0.157146 1.58069e-015
      vertex 8.91006 -4.5399 2.20048e-015
      vertex 8.09017 -5.87785 2.01842e-015
    endloop
  endfacet
  facet normal 2.22045e-016 0 -1
    outer loop
      vertex 9.51056 3.09017 2.33381e-015
      vertex 6.11879 -0.157146 1.58069e-015
      vertex 8.91006 4.5399 2.20048e-015
    endloop
  endfacet
  facet normal 2.22045e-016 0 -1
    outer loop
      vertex 6.11879 -0.157146 1.58069e-015
      vertex 8.09017 -5.87785 2.01842e-015
      vertex 7.07107 -7.07107 1.79214e-015
    endloop
  endfacet
  facet normal 2.22045e-016 0 -1
    outer loop
      vertex 4.06667 5.48101 1.12503e-015
      vertex 8.91006 4.5399 2.20048e-015
      vertex 6.11879 -0.157146 1.58069e-015
    endloop
  endfacet
  facet normal 2.22045e-016 0 -1
    outer loop
      vertex 8.91006 4.5399 2.20048e-015
      vertex 4.06667 5.48101 1.12503e-015
      vertex 8.09017 5.87785 2.01842e-015
    endloop
  endfacet
  facet normal 2.22045e-016 0 -1
    outer loop
      vertex 4.83275 -8.31899 1.29513e-015
      vertex 7.07107 -7.07107 1.79214e-015
      vertex 6.1871 -7.82605 1.59586e-015
    endloop
  endfacet
  facet normal 2.22045e-016 0 -1
    outer loop
      vertex 8.09017 5.87785 2.01842e-015
      vertex 4.06667 5.48101 1.12503e-015
      vertex 7.07107 7.07107 1.79214e-015
    endloop
  endfacet
  facet normal 2.22045e-016 0 -1
    outer loop
      vertex 7.07107 7.07107 1.79214e-015
      vertex 4.06667 5.48101 1.12503e-015
      vertex 6.44917 7.60221 1.65405e-015
    endloop
  endfacet
  facet normal 2.22045e-016 2.93059e-024 -1
    outer loop
      vertex -0.962096 7.60221 8.41643e-018
      vertex 4.06667 5.48101 1.12503e-015
      vertex 0.64992 3.17324 3.66356e-016
    endloop
  endfacet
  facet normal 2.22045e-016 -5.0144e-025 -1
    outer loop
      vertex 4.06667 5.48101 1.12503e-015
      vertex -0.962096 7.60221 8.41643e-018
      vertex 6.44917 7.60221 1.65405e-015
    endloop
  endfacet
  facet normal 0 1 -0
    outer loop
      vertex 5.20907 8.5 0.550163
      vertex -1 8.5 34.4498
      vertex 5.20907 8.5 34.4498
    endloop
  endfacet
  facet normal 0 1 0
    outer loop
      vertex -1 8.5 34.4498
      vertex 5.20907 8.5 0.550163
      vertex -1 8.5 0.550163
    endloop
  endfacet
  facet normal 0.34202 -0.939693 0
    outer loop
      vertex 4.83275 -8.31899 35
      vertex 6.1871 -7.82605 1.59586e-015
      vertex 6.1871 -7.82605 35
    endloop
  endfacet
  facet normal 0.34202 -0.939693 0
    outer loop
      vertex 6.1871 -7.82605 1.59586e-015
      vertex 4.83275 -8.31899 35
      vertex 4.83275 -8.31899 1.29513e-015
    endloop
  endfacet
  facet normal -0.103899 0.994588 0
    outer loop
      vertex 6.11879 -0.157146 1.58069e-015
      vertex 2.018 -0.585533 35
      vertex 6.11879 -0.157146 35
    endloop
  endfacet
  facet normal -0.103899 0.994588 0
    outer loop
      vertex 2.018 -0.585533 35
      vertex 6.11879 -0.157146 1.58069e-015
      vertex 2.018 -0.585533 6.70131e-016
    endloop
  endfacet
  facet normal 0.559717 -0.828684 0
    outer loop
      vertex 0.64992 3.17324 35
      vertex 4.06667 5.48101 1.12503e-015
      vertex 4.06667 5.48101 35
    endloop
  endfacet
  facet normal 0.559717 -0.828684 0
    outer loop
      vertex 4.06667 5.48101 1.12503e-015
      vertex 0.64992 3.17324 35
      vertex 0.64992 3.17324 3.66356e-016
    endloop
  endfacet
  facet normal -0.939693 -0.34202 0
    outer loop
      vertex 6.11879 -0.157146 1.58069e-015
      vertex 4.06667 5.48101 35
      vertex 4.06667 5.48101 1.12503e-015
    endloop
  endfacet
  facet normal -0.939693 -0.34202 0
    outer loop
      vertex 4.06667 5.48101 35
      vertex 6.11879 -0.157146 1.58069e-015
      vertex 6.11879 -0.157146 35
    endloop
  endfacet
  facet normal -0.939693 -0.34202 -1.884e-006
    outer loop
      vertex 0.64992 3.17324 3.66356e-016
      vertex -1 7.70636 0.0638177
      vertex -0.962096 7.60221 8.41643e-018
    endloop
  endfacet
  facet normal -0.939693 -0.34202 0
    outer loop
      vertex -1 7.70636 0.0638177
      vertex 0.64992 3.17324 3.66356e-016
      vertex -1 7.70636 34.9362
    endloop
  endfacet
  facet normal -0.939693 -0.34202 -0
    outer loop
      vertex 0.64992 3.17324 35
      vertex -1 7.70636 34.9362
      vertex 0.64992 3.17324 3.66356e-016
    endloop
  endfacet
  facet normal -0.939693 -0.34202 1.88405e-006
    outer loop
      vertex -1 7.70636 34.9362
      vertex 0.64992 3.17324 35
      vertex -0.962096 7.60221 35
    endloop
  endfacet
  facet normal -0.939693 -0.34202 0
    outer loop
      vertex 4.83275 -8.31899 1.29513e-015
      vertex 2.018 -0.585533 35
      vertex 2.018 -0.585533 6.70131e-016
    endloop
  endfacet
  facet normal -0.939693 -0.34202 0
    outer loop
      vertex 2.018 -0.585533 35
      vertex 4.83275 -8.31899 1.29513e-015
      vertex 4.83275 -8.31899 35
    endloop
  endfacet
  facet normal 0.996917 0.0784596 0
    outer loop
      vertex 10 0 35
      vertex 9.87688 1.56434 2.41515e-015
      vertex 9.87688 1.56434 35
    endloop
  endfacet
  facet normal 0.996917 0.0784596 0
    outer loop
      vertex 9.87688 1.56434 2.41515e-015
      vertex 10 0 35
      vertex 10 0 2.44249e-015
    endloop
  endfacet
  facet normal 0.760406 0.649448 0
    outer loop
      vertex 8.09017 5.87785 35
      vertex 7.07107 7.07107 1.79214e-015
      vertex 7.07107 7.07107 35
    endloop
  endfacet
  facet normal 0.760406 0.649448 0
    outer loop
      vertex 7.07107 7.07107 1.79214e-015
      vertex 8.09017 5.87785 35
      vertex 8.09017 5.87785 2.01842e-015
    endloop
  endfacet
  facet normal 0.760406 -0.649448 0
    outer loop
      vertex 7.07107 -7.07107 35
      vertex 8.09017 -5.87785 2.01842e-015
      vertex 8.09017 -5.87785 35
    endloop
  endfacet
  facet normal 0.760406 -0.649448 0
    outer loop
      vertex 8.09017 -5.87785 2.01842e-015
      vertex 7.07107 -7.07107 35
      vertex 7.07107 -7.07107 1.79214e-015
    endloop
  endfacet
  facet normal 0.923879 0.382684 0
    outer loop
      vertex 9.51056 3.09017 35
      vertex 8.91006 4.5399 2.20048e-015
      vertex 8.91006 4.5399 35
    endloop
  endfacet
  facet normal 0.923879 0.382684 0
    outer loop
      vertex 8.91006 4.5399 2.20048e-015
      vertex 9.51056 3.09017 35
      vertex 9.51056 3.09017 2.33381e-015
    endloop
  endfacet
  facet normal 0.97237 0.233445 0
    outer loop
      vertex 9.87688 1.56434 35
      vertex 9.51056 3.09017 2.33381e-015
      vertex 9.51056 3.09017 35
    endloop
  endfacet
  facet normal 0.97237 0.233445 0
    outer loop
      vertex 9.51056 3.09017 2.33381e-015
      vertex 9.87688 1.56434 35
      vertex 9.87688 1.56434 2.41515e-015
    endloop
  endfacet
  facet normal 0.85264 0.522498 0
    outer loop
      vertex 8.91006 4.5399 35
      vertex 8.09017 5.87785 2.01842e-015
      vertex 8.09017 5.87785 35
    endloop
  endfacet
  facet normal 0.85264 0.522498 0
    outer loop
      vertex 8.09017 5.87785 2.01842e-015
      vertex 8.91006 4.5399 35
      vertex 8.91006 4.5399 2.20048e-015
    endloop
  endfacet
  facet normal 0.649448 0.760406 -1.5545e-006
    outer loop
      vertex 7.07107 7.07107 35
      vertex 5.87785 8.09017 34.701
      vertex 6.44917 7.60221 35
    endloop
  endfacet
  facet normal 0.649448 0.760406 0
    outer loop
      vertex 7.07107 7.07107 35
      vertex 5.87785 8.09017 0.299019
      vertex 5.87785 8.09017 34.701
    endloop
  endfacet
  facet normal 0.649448 0.760406 -0
    outer loop
      vertex 7.07107 7.07107 1.79214e-015
      vertex 5.87785 8.09017 0.299019
      vertex 7.07107 7.07107 35
    endloop
  endfacet
  facet normal 0.649448 0.760406 1.5545e-006
    outer loop
      vertex 5.87785 8.09017 0.299019
      vertex 7.07107 7.07107 1.79214e-015
      vertex 6.44917 7.60221 1.65405e-015
    endloop
  endfacet
  facet normal 0 0 1
    outer loop
      vertex 6.11879 -0.157146 35
      vertex 10 0 35
      vertex 9.87688 1.56434 35
    endloop
  endfacet
  facet normal 0 0 1
    outer loop
      vertex 6.11879 -0.157146 35
      vertex 9.87688 1.56434 35
      vertex 9.51056 3.09017 35
    endloop
  endfacet
  facet normal 0 0 1
    outer loop
      vertex 10 0 35
      vertex 6.11879 -0.157146 35
      vertex 9.87688 -1.56434 35
    endloop
  endfacet
  facet normal 0 0 1
    outer loop
      vertex 6.11879 -0.157146 35
      vertex 9.51056 3.09017 35
      vertex 8.91006 4.5399 35
    endloop
  endfacet
  facet normal 0 0 1
    outer loop
      vertex 9.87688 -1.56434 35
      vertex 6.11879 -0.157146 35
      vertex 9.51056 -3.09017 35
    endloop
  endfacet
  facet normal -0 0 1
    outer loop
      vertex 4.06667 5.48101 35
      vertex 8.91006 4.5399 35
      vertex 8.09017 5.87785 35
    endloop
  endfacet
  facet normal 0 0 1
    outer loop
      vertex 9.51056 -3.09017 35
      vertex 6.11879 -0.157146 35
      vertex 8.91006 -4.5399 35
    endloop
  endfacet
  facet normal 0 0 1
    outer loop
      vertex 4.06667 5.48101 35
      vertex 8.09017 5.87785 35
      vertex 7.07107 7.07107 35
    endloop
  endfacet
  facet normal 0 0 1
    outer loop
      vertex 8.91006 -4.5399 35
      vertex 6.11879 -0.157146 35
      vertex 8.09017 -5.87785 35
    endloop
  endfacet
  facet normal 0 0 1
    outer loop
      vertex 4.06667 5.48101 35
      vertex 7.07107 7.07107 35
      vertex 6.44917 7.60221 35
    endloop
  endfacet
  facet normal 0 0 1
    outer loop
      vertex 8.09017 -5.87785 35
      vertex 6.11879 -0.157146 35
      vertex 7.07107 -7.07107 35
    endloop
  endfacet
  facet normal -0 0 1
    outer loop
      vertex 2.018 -0.585533 35
      vertex 7.07107 -7.07107 35
      vertex 6.11879 -0.157146 35
    endloop
  endfacet
  facet normal 0 0 1
    outer loop
      vertex 8.91006 4.5399 35
      vertex 4.06667 5.48101 35
      vertex 6.11879 -0.157146 35
    endloop
  endfacet
  facet normal -0 0 1
    outer loop
      vertex -0.962096 7.60221 35
      vertex 4.06667 5.48101 35
      vertex 6.44917 7.60221 35
    endloop
  endfacet
  facet normal 0 0 1
    outer loop
      vertex 4.06667 5.48101 35
      vertex -0.962096 7.60221 35
      vertex 0.64992 3.17324 35
    endloop
  endfacet
  facet normal 0 -0 1
    outer loop
      vertex 4.83275 -8.31899 35
      vertex 7.07107 -7.07107 35
      vertex 2.018 -0.585533 35
    endloop
  endfacet
  facet normal 0 0 1
    outer loop
      vertex 7.07107 -7.07107 35
      vertex 4.83275 -8.31899 35
      vertex 6.1871 -7.82605 35
    endloop
  endfacet
  facet normal 0.522498 0.85264 0
    outer loop
      vertex 5.87785 8.09017 34.701
      vertex 5.20907 8.5 0.550163
      vertex 5.20907 8.5 34.4498
    endloop
  endfacet
  facet normal 0.522498 0.85264 0
    outer loop
      vertex 5.20907 8.5 0.550163
      vertex 5.87785 8.09017 34.701
      vertex 5.87785 8.09017 0.299019
    endloop
  endfacet
  facet normal 0.649448 -0.760406 0
    outer loop
      vertex 6.1871 -7.82605 35
      vertex 7.07107 -7.07107 1.79214e-015
      vertex 7.07107 -7.07107 35
    endloop
  endfacet
  facet normal 0.649448 -0.760406 0
    outer loop
      vertex 7.07107 -7.07107 1.79214e-015
      vertex 6.1871 -7.82605 35
      vertex 6.1871 -7.82605 1.59586e-015
    endloop
  endfacet
  facet normal 0.97237 -0.233445 0
    outer loop
      vertex 9.51056 -3.09017 35
      vertex 9.87688 -1.56434 2.41515e-015
      vertex 9.87688 -1.56434 35
    endloop
  endfacet
  facet normal 0.97237 -0.233445 0
    outer loop
      vertex 9.87688 -1.56434 2.41515e-015
      vertex 9.51056 -3.09017 35
      vertex 9.51056 -3.09017 2.33381e-015
    endloop
  endfacet
  facet normal 0.85264 -0.522498 0
    outer loop
      vertex 8.09017 -5.87785 35
      vertex 8.91006 -4.5399 2.20048e-015
      vertex 8.91006 -4.5399 35
    endloop
  endfacet
  facet normal 0.85264 -0.522498 0
    outer loop
      vertex 8.91006 -4.5399 2.20048e-015
      vertex 8.09017 -5.87785 35
      vertex 8.09017 -5.87785 2.01842e-015
    endloop
  endfacet
  facet normal 0.996917 -0.0784596 0
    outer loop
      vertex 9.87688 -1.56434 35
      vertex 10 0 2.44249e-015
      vertex 10 0 35
    endloop
  endfacet
  facet normal 0.996917 -0.0784596 0
    outer loop
      vertex 10 0 2.44249e-015
      vertex 9.87688 -1.56434 35
      vertex 9.87688 -1.56434 2.41515e-015
    endloop
  endfacet
  facet normal 0.923879 -0.382684 0
    outer loop
      vertex 8.91006 -4.5399 35
      vertex 9.51056 -3.09017 2.33381e-015
      vertex 9.51056 -3.09017 35
    endloop
  endfacet
  facet normal 0.923879 -0.382684 0
    outer loop
      vertex 9.51056 -3.09017 2.33381e-015
      vertex 8.91006 -4.5399 35
      vertex 8.91006 -4.5399 2.20048e-015
    endloop
  endfacet
endsolid OpenSCAD_Model
